<?xml version="1.0" encoding="UTF-8" standalone="no"?>
<svg
   xmlns:dc="http://purl.org/dc/elements/1.1/"
   xmlns:cc="http://creativecommons.org/ns#"
   xmlns:rdf="http://www.w3.org/1999/02/22-rdf-syntax-ns#"
   xmlns:svg="http://www.w3.org/2000/svg"
   xmlns="http://www.w3.org/2000/svg"
   xmlns:sodipodi="http://sodipodi.sourceforge.net/DTD/sodipodi-0.dtd"
   xmlns:inkscape="http://www.inkscape.org/namespaces/inkscape"
   inkscape:version="1.0beta1 (32d4812, 2019-09-19)"
   sodipodi:docname="3-uniform_34.svg"
   id="c:\kuniform\3u\3-uniform_34.svg"
   height="1000.0"
   width="975.79144"
   version="1.0">
  <metadata
     id="metadata110283">
    <rdf:RDF>
      <cc:Work
         rdf:about="">
        <dc:format>image/svg+xml</dc:format>
        <dc:type
           rdf:resource="http://purl.org/dc/dcmitype/StillImage" />
        <dc:title></dc:title>
      </cc:Work>
    </rdf:RDF>
  </metadata>
  <defs
     id="defs110281" />
  <sodipodi:namedview
     inkscape:current-layer="c:\kuniform\3u\3-uniform_34.svg"
     inkscape:window-maximized="1"
     inkscape:window-y="23"
     inkscape:window-x="0"
     inkscape:cy="437.22245"
     inkscape:cx="191.78849"
     inkscape:zoom="0.56832524"
     showgrid="false"
     id="namedview110279"
     inkscape:window-height="1005"
     inkscape:window-width="1680"
     inkscape:pageshadow="2"
     inkscape:pageopacity="0"
     guidetolerance="10"
     gridtolerance="10"
     objecttolerance="10"
     borderopacity="1"
     inkscape:document-rotation="0"
     bordercolor="#666666"
     pagecolor="#ffffff" />
  <!-- X Coordinate transform: fx(x)=(x+72.17139)*0.85270905-->
  <!-- Y Coordinate transform: fy(y)=(1077.2158-y)*0.85270905 -->
  <path
     d="M 121.313,121.433 142.631,84.509 M 20.436,878.567 41.754,841.644 V 799.008 L 20.436,762.085 m 791.407,174.723 36.924,-21.317 h 42.635 l 36.923,21.317 m 0,-116.482 h 42.636 M 185.266,84.509 H 142.631 L 105.707,63.192 84.389,26.268 M 747.89,84.509 h 42.635 L 827.449,63.192 848.767,26.268 M 811.843,121.433 790.525,84.509 M 286.143,26.268 323.066,4.951 m 605.259,116.482 h 42.636 M 610.09,4.951 647.013,26.268 M 206.584,121.433 H 163.948 121.313 L 84.389,142.75 H 41.754 L 4.831,121.433 m 137.8,36.923 21.317,-36.923 21.318,-36.924 36.923,-21.317 21.318,-36.924 M 142.631,857.249 121.313,820.326 84.389,799.008 H 41.754 L 4.831,820.326 m 944.812,-79.559 -36.923,21.318 -21.318,36.923 v 42.636 l 21.318,36.923 36.923,21.318 M 185.266,857.249 h -42.635 l -36.924,21.318 -21.318,36.924 v 42.635 L 63.072,995.049 M 121.313,936.808 84.389,915.491 H 41.754 L 4.831,936.808 M 20.436,179.674 41.754,142.75 V 100.115 L 20.436,63.192 m 870.966,196.041 21.318,36.923 36.923,21.318 M 790.525,158.356 769.208,121.433 747.89,84.509 710.967,63.192 689.649,26.268 m -647.895,0 H 84.389 L 121.313,4.951 M 487.896,26.268 524.819,4.951 M 41.754,682.526 20.436,645.603 41.754,608.679 M 949.643,200.992 912.72,179.674 891.402,142.75 V 100.115 L 912.72,63.192 949.643,41.874 M 41.754,333.079 20.436,296.156 41.754,259.233 M 20.436,412.638 41.754,375.715 V 333.079 L 63.072,296.156 84.389,259.233 M 185.266,158.356 163.948,121.433 142.631,84.509 V 41.874 L 121.313,4.951 M 4.831,237.915 41.754,259.233 h 42.635 l 36.924,-21.318 21.318,-36.923 V 158.356 L 121.313,121.433 84.389,100.115 H 41.754 L 4.831,121.433 m 137.8,661.97 21.317,36.923 21.318,36.923 36.923,21.318 21.318,36.924 v 42.635 l 21.318,36.923 M 84.389,682.526 63.072,645.603 41.754,608.679 V 566.044 L 20.436,529.121 M 747.89,857.249 h 42.635 l 36.924,21.318 21.318,36.924 v 42.635 l 21.317,36.923 m -79.559,-137.8 21.318,-36.923 m 79.559,-137.8 21.318,-36.923 36.923,-21.318 m -828.33,196.041 h 42.635 42.636 m 0,116.482 36.923,-21.317 h 42.636 l 36.923,21.317 M 891.402,26.268 928.325,4.951 M 20.436,878.567 41.754,915.491 v 42.635 l 21.318,36.923 m 547.018,-58.241 36.923,-21.317 h 42.636 l 36.923,21.317 M 20.436,63.192 41.754,26.268 m 684.818,95.165 h 42.636 42.635 l 36.924,21.317 h 42.635 l 36.923,-21.317 21.318,-36.924 V 41.874 L 928.325,4.951 M 912.72,645.603 891.402,608.679 m 36.923,-137.8 h 42.636 m -79.559,-137.8 21.318,-36.923 m -63.953,-36.923 h 42.635 M 747.89,158.356 769.208,121.433 790.525,84.509 V 41.874 L 811.843,4.951 M 323.066,121.433 344.384,84.509 V 41.874 L 323.066,4.951 m 21.318,79.558 h 42.635 m 159.118,0 h 42.635 l 36.924,-21.317 21.317,-36.924 h 42.636 L 726.572,4.951 M 610.09,121.433 588.772,84.509 M 20.436,529.121 41.754,492.197 V 449.562 L 20.436,412.638 M 84.389,333.079 63.072,296.156 41.754,259.233 V 216.597 L 20.436,179.674 m 63.953,153.405 21.318,-36.923 m 0,-232.964 -21.318,36.923 v 42.635 l 21.318,36.924 36.924,21.318 h 42.635 l 36.923,-21.318 21.318,-36.924 V 100.115 L 222.189,63.192 185.266,41.874 h -42.635 z m 79.559,720.211 -21.318,36.923 -21.317,36.923 v 42.636 l -21.318,36.923 -36.924,21.318 H 41.754 L 4.831,936.808 m 0,-232.964 36.923,-21.318 h 42.635 l 36.924,21.318 21.318,36.923 v 42.636 l -21.318,36.923 -36.924,21.318 H 41.754 L 4.831,820.326 M 105.707,645.603 84.389,608.679 m 642.183,211.647 h 42.636 42.635 m -21.318,-36.923 -21.317,36.923 -21.318,36.923 -36.923,21.318 -21.318,36.924 v 42.635 l -21.318,36.923 m 223.071,-735.816 36.923,-21.318 21.318,-36.923 v -42.636 l -21.318,-36.923 -36.923,-21.318 h -42.635 l -36.924,21.318 -21.318,36.923 v 42.636 l 21.318,36.923 36.924,21.318 21.317,36.923 21.318,36.923 v 42.636 l 21.318,36.923 36.923,21.318 21.318,36.923 -21.318,36.924 -36.923,21.318 -21.318,36.923 v 42.635 l -21.318,36.924 -21.317,36.923 m -440.43,254.282 36.923,-21.317 h 42.636 l 36.923,21.317 m 323.948,-328.129 21.317,36.924 21.318,36.923 v 42.636 l 21.318,36.923 36.923,21.318 21.318,36.923 -21.318,36.923 -36.923,21.318 -21.318,36.924 v 42.635 l -21.318,36.923 M 949.643,550.438 912.72,529.121 891.402,492.197 v -42.635 l 21.318,-36.924 36.923,-21.317 m -137.8,-386.37 36.924,21.317 h 42.635 l 21.318,36.924 36.923,21.317 21.318,36.924 -21.318,36.923 -36.923,21.318 -21.318,36.923 v 42.636 l -21.318,36.923 -21.317,36.923 m -21.318,-36.923 h 42.635 42.636 l 36.923,-21.318 M 827.449,63.192 l 21.318,36.923 v 42.635 l -21.318,36.924 -36.924,21.318 H 747.89 L 710.967,179.674 689.649,142.75 V 100.115 L 710.967,63.192 747.89,41.874 h 42.635 z m -483.065,95.164 21.317,-36.923 21.318,-36.924 36.924,-21.317 21.317,-36.924 m -36.923,95.165 H 365.701 323.066 L 286.143,142.75 H 243.507 L 206.584,121.433 185.266,84.509 V 41.874 L 206.584,4.951 m 318.235,116.482 h 42.636 42.635 l 36.923,21.317 h 42.636 L 726.572,121.433 747.89,84.509 V 41.874 L 726.572,4.951 m -318.235,0 36.923,21.317 h 42.636 l 21.317,36.924 36.924,21.317 21.318,36.924 21.317,36.923 M 4.831,354.397 41.754,375.715 h 42.635 l 36.924,-21.318 21.318,-36.923 V 274.838 L 121.313,237.915 84.389,216.597 H 41.754 L 4.831,237.915 M 105.707,878.567 84.389,841.644 v -42.636 l 21.318,-36.923 36.924,-21.318 h 42.635 l 36.923,21.318 21.318,36.923 v 42.636 l -21.318,36.923 -36.923,21.318 H 142.631 Z M 4.831,587.362 41.754,566.044 h 42.635 l 36.924,21.318 21.318,36.923 v 42.635 l -21.318,36.924 -36.924,21.318 H 41.754 L 4.831,703.844 m 807.012,116.482 36.924,-21.318 h 42.635 l 36.923,21.318 21.318,36.923 v 42.636 l -21.318,36.923 -36.923,21.318 H 848.767 L 811.843,936.808 790.525,899.885 V 857.249 L 769.208,820.326 747.89,783.403 m 180.435,36.923 21.318,-36.923 v -42.636 l -21.318,-36.923 -36.923,-21.318 h -42.635 l -36.924,21.318 -21.318,36.923 v 42.636 l 21.318,36.923 36.924,21.318 h 42.635 z M 827.449,645.603 h 42.635 42.636 l 36.923,21.317 M 243.507,958.126 h 42.636 l 36.923,-21.318 21.318,-36.923 v -42.636 l -21.318,-36.923 -36.923,-21.318 h -42.636 l -36.923,21.318 -21.318,36.923 v 42.636 l 21.318,36.923 z M 344.384,857.249 h 42.635 m 159.118,0 h 42.635 l 36.924,21.318 21.317,36.924 v 42.635 l 21.318,36.923 m -79.559,-137.8 21.318,-36.923 m 339.553,-502.852 -21.318,36.923 -36.923,21.318 h -42.635 l -36.924,-21.318 -21.318,-36.923 v -42.636 l 21.318,-36.923 36.924,-21.318 h 42.635 l 36.923,21.318 21.318,36.923 z M 206.584,4.951 243.507,26.268 h 42.636 l 21.317,36.924 36.924,21.317 21.317,36.924 21.318,36.923 m 137.8,-153.405 21.318,36.923 v 42.635 l -21.318,36.924 -36.923,21.317 H 445.26 L 408.337,121.433 387.019,84.509 V 41.874 L 408.337,4.951 m 137.8,153.405 21.318,-36.923 21.317,-36.924 V 41.874 L 610.09,4.951 M 142.631,507.803 121.313,470.879 84.389,449.562 H 41.754 L 4.831,470.879 m 116.482,0 21.318,-36.923 m 79.558,-137.8 21.318,-36.923 v -42.636 l -21.318,-36.923 -36.923,-21.318 h -42.635 l -36.924,21.318 -21.318,36.923 v 42.636 l 21.318,36.923 m 137.8,-36.923 h 42.636 M 747.89,740.767 h 42.635 l 36.924,21.318 21.318,36.923 v 42.636 l -21.318,36.923 -36.924,21.318 H 747.89 l -36.923,-21.318 -21.318,-36.923 v -42.636 l 21.318,-36.923 z m 42.635,-116.482 21.318,-36.923 36.924,-21.318 h 42.635 l 36.923,21.318 21.318,36.923 v 42.635 l -21.318,36.924 -36.923,21.318 H 848.767 L 811.843,703.844 790.525,666.92 Z M 466.578,995.049 445.26,958.126 v -42.635 l -21.317,-36.924 -36.924,-21.318 -21.318,-36.923 -21.317,-36.923 m -21.318,36.923 h 42.635 42.636 m 116.482,0 h 42.636 42.635 m -143.512,174.723 21.318,-36.923 v -42.635 l 21.317,-36.924 36.924,-21.318 21.318,-36.923 21.317,-36.923 m 201.753,-275.6 21.318,-36.924 m 0,0 -21.318,-36.923 m -79.558,-137.8 -21.318,-36.923 M 423.943,179.674 445.26,142.75 V 100.115 L 423.943,63.192 387.019,41.874 h -42.635 l -36.924,21.318 -21.317,36.923 v 42.635 l 21.317,36.924 36.924,21.318 h 42.635 z m 122.194,21.318 h 42.635 l 36.924,-21.318 21.317,-36.924 V 100.115 L 625.696,63.192 588.772,41.874 h -42.635 l -36.924,21.318 -21.317,36.923 v 42.635 l 21.317,36.924 z m 100.876,58.241 h 42.636 M 185.266,507.803 163.948,470.879 142.631,433.956 V 391.321 L 121.313,354.397 84.389,333.079 H 41.754 L 4.831,354.397 m 0,232.965 36.923,21.317 h 42.635 l 36.924,-21.317 21.318,-36.924 v -42.635 l 21.317,-36.924 21.318,-36.923 m 58.241,-100.877 21.318,-36.923 21.318,-36.923 m -180.436,36.923 36.924,21.318 h 42.635 l 36.923,-21.318 h 42.636 42.635 M 105.707,645.603 84.389,682.526 v 42.636 l 21.318,36.923 36.924,21.318 h 42.635 l 36.923,-21.318 21.318,-36.923 v -42.636 l -21.318,-36.923 m 164.83,137.8 -21.318,36.923 -21.317,36.923 -36.924,21.318 -21.317,36.924 v 42.635 l -21.318,36.923 M 524.819,820.326 487.896,799.008 H 445.26 l -36.923,21.318 -21.318,36.923 v 42.636 l 21.318,36.923 36.923,21.318 h 42.636 l 36.923,-21.318 21.318,-36.923 v -42.636 z m 85.271,0 36.923,-21.318 h 42.636 l 36.923,21.318 21.318,36.923 v 42.636 l -21.318,36.923 -36.923,21.318 H 647.013 L 610.09,936.808 588.772,899.885 V 857.249 L 567.455,820.326 546.137,783.403 M 243.507,682.526 h 42.636 m 461.747,-174.723 21.318,-36.924 21.317,-36.923 m 21.318,36.923 36.924,-21.317 h 42.635 l 36.923,21.317 21.318,36.924 v 42.635 l -21.318,36.924 -36.923,21.317 H 848.767 L 811.843,587.362 790.525,550.438 V 507.803 L 769.208,470.879 747.89,433.956 M 689.649,333.079 668.331,296.156 647.013,259.233 m 42.636,0 v -42.636 l 21.318,-36.923 36.923,-21.318 h 42.635 l 36.924,21.318 21.318,36.923 v 42.636 l -21.318,36.923 -36.924,21.318 H 747.89 L 710.967,296.156 H 668.331 625.696 M 206.584,470.879 H 163.948 121.313 L 84.389,492.197 H 41.754 L 4.831,470.879 m 79.558,-137.8 v 42.636 l 21.318,36.923 36.924,21.318 h 42.635 l 36.923,-21.318 21.318,-36.923 v -42.636 l -21.318,-36.923 -36.923,-21.318 h -42.635 l -36.924,21.318 H 63.072 20.436 m 265.707,-36.923 36.923,-21.318 21.318,-36.923 v -42.636 l -21.318,-36.923 -36.923,-21.318 h -42.636 l -36.923,21.318 -21.318,36.923 v 42.636 l 21.318,36.923 36.923,21.318 21.318,36.923 21.318,36.923 m 0,349.447 -21.318,-36.923 -21.318,-36.924 M 20.436,762.085 41.754,725.162 v -42.636 l 21.318,-36.923 21.317,-36.924 v -42.635 l 21.318,-36.923 36.924,-21.318 h 42.635 l 36.923,21.318 21.318,36.923 v 42.635 l -21.318,36.924 -36.923,21.317 h -42.635 l -36.924,-21.317 m 583.942,36.923 21.318,-36.923 M 445.26,841.644 v -42.636 l -21.317,-36.923 -36.924,-21.318 h -42.635 l -36.924,21.318 -21.317,36.923 v 42.636 l 21.317,36.923 36.924,21.318 h 42.635 l 36.924,-21.318 z m 180.436,-79.559 -36.924,-21.318 h -42.635 l -36.924,21.318 -21.317,36.923 v 42.636 l 21.317,36.923 36.924,21.318 h 42.635 l 36.924,-21.318 21.317,-36.923 v -42.636 z m 21.317,-79.559 h 42.636 M 307.46,645.603 h -42.635 -42.636 l -36.923,-21.318 h -42.635 l -36.924,21.318 H 63.072 20.436 M 790.525,433.956 v -42.635 l 21.318,-36.924 36.924,-21.318 h 42.635 l 36.923,21.318 21.318,36.924 v 42.635 l -21.318,36.923 -36.923,21.318 h -42.635 l -36.924,-21.318 h -42.635 -42.636 m -15.605,-174.723 -21.318,36.923 v 42.636 l 21.318,36.923 36.923,21.318 h 42.635 l 36.924,-21.318 21.318,-36.923 V 333.079 L 827.449,296.156 790.525,274.838 H 747.89 Z m -63.954,36.923 21.318,-36.923 21.318,-36.923 36.923,-21.318 21.318,-36.923 v -42.636 l -21.318,-36.923 -36.923,-21.318 h -42.636 l -36.923,21.318 -21.318,36.923 v 42.636 l 21.318,36.923 36.923,21.318 m -201.753,0 h 42.636 m -302.63,132.088 36.923,21.317 21.318,36.924 v 42.635 l -21.318,36.924 -36.923,21.317 H 142.631 L 105.707,529.121 84.389,492.197 v -42.635 l 21.318,-36.924 36.924,-21.317 z m 21.318,-36.924 36.923,21.318 h 42.636 l 36.923,-21.318 21.318,-36.923 v -42.636 l -21.318,-36.923 -36.923,-21.318 h -42.636 l -36.923,21.318 -21.318,36.923 v 42.636 z m 217.359,-58.241 21.317,-36.923 m -159.117,423.293 36.923,21.318 21.318,36.923 v 42.636 l -21.318,36.923 -36.923,21.318 h -42.636 l -36.923,-21.318 -21.318,-36.923 v -42.636 l 21.318,-36.923 36.923,-21.318 21.318,-36.923 21.318,-36.924 m 360.87,73.847 21.318,-36.923 21.318,-36.924 M 790.525,507.803 H 747.89 l -36.923,21.318 -21.318,36.923 v 42.635 l 21.318,36.924 36.923,21.317 h 42.635 l 36.924,-21.317 21.318,-36.924 v -42.635 l -21.318,-36.923 z m -164.829,137.8 h 42.635 42.636 l 36.923,-21.318 h 42.635 l 36.924,21.318 21.318,36.923 v 42.636 l -21.318,36.923 -36.924,21.318 H 747.89 L 710.967,762.085 689.649,725.162 V 682.526 M 790.525,391.321 H 747.89 l -36.923,21.317 -21.318,36.924 v 42.635 l 21.318,36.924 36.923,21.317 h 42.635 l 36.924,-21.317 21.318,-36.924 V 449.562 L 827.449,412.638 Z M 610.09,237.915 588.772,274.838 v 42.636 l 21.318,36.923 36.923,21.318 h 42.636 l 36.923,-21.318 21.318,-36.923 v -42.636 l -21.318,-36.923 -36.923,-21.318 h -42.636 z m -186.147,58.241 h 42.635 42.635 m 137.8,-36.923 -21.317,36.923 -36.924,21.318 h -42.635 l -36.924,-21.318 -21.317,-36.923 v -42.636 l 21.317,-36.923 36.924,-21.318 h 42.635 l 36.924,21.318 21.317,36.923 z m -201.753,73.846 21.318,-36.923 21.318,-36.923 36.923,-21.318 21.318,-36.923 V 158.356 L 524.819,121.433 487.896,100.115 H 445.26 l -36.923,21.318 -21.318,36.923 v 42.636 l 21.318,36.923 36.923,21.318 m -159.117,465.929 36.923,-21.318 21.318,-36.924 v -42.635 l -21.318,-36.923 -36.923,-21.318 h -42.636 l -36.923,21.318 -21.318,36.923 v 42.635 l 21.318,36.924 36.923,21.318 z m 360.87,-42.636 -36.923,21.318 -21.318,36.923 v 42.636 l 21.318,36.923 36.923,21.318 h 42.636 l 36.923,-21.318 21.318,-36.923 V 740.767 L 726.572,703.844 689.649,682.526 668.331,645.603 647.013,608.679 M 445.26,682.526 h 42.636 m -42.636,0 -21.317,-36.923 M 487.896,333.079 466.578,296.156 445.26,259.233 v -42.636 l -21.317,-36.923 -36.924,-21.318 h -42.635 l -36.924,21.318 -21.317,36.923 v 42.636 l 21.317,36.923 36.924,21.318 h 42.635 l 36.924,-21.318 m -100.877,174.723 21.318,-36.923 m 0,73.847 -21.318,-36.924 m 287.024,116.483 -21.318,36.923 v 42.635 l 21.318,36.924 36.923,21.318 h 42.636 l 36.923,-21.318 21.318,-36.924 v -42.635 l -21.318,-36.923 -36.923,-21.318 h -42.636 z m -186.147,58.241 h 42.635 42.635 m 36.924,-21.318 h 42.635 l 36.924,21.318 21.317,36.923 v 42.636 l -21.317,36.923 -36.924,21.318 h -42.635 l -36.924,-21.318 -21.317,-36.923 v -42.636 l 21.317,-36.923 z m -100.877,58.241 -36.923,21.318 -21.318,36.923 v 42.636 l 21.318,36.923 36.923,21.318 h 42.636 l 36.923,-21.318 21.318,-36.923 V 740.767 L 524.819,703.844 487.896,682.526 466.578,645.603 445.26,608.679 m 164.83,-137.8 -21.318,-36.923 M 487.896,375.715 H 445.26 l -36.923,-21.318 -21.318,-36.923 v -42.636 l 21.318,-36.923 36.923,-21.318 h 42.636 l 36.923,21.318 21.318,36.923 v 42.636 l -21.318,36.923 z m -143.512,132.088 21.317,-36.924 21.318,-36.923 m 36.924,-21.318 21.317,-36.923 v -42.636 l -21.317,-36.923 -36.924,-21.318 h -42.635 l -36.924,21.318 -21.317,36.923 v 42.636 l 21.317,36.923 36.924,21.318 h 42.635 z m -36.924,95.165 -21.318,-36.924 -21.317,-36.923 v -42.635 l -21.318,-36.924 -36.923,-21.318 h -42.636 l -36.923,21.318 -21.318,36.924 v 42.635 l 21.318,36.923 36.923,21.318 h 42.636 l 36.923,-21.318 m 265.706,36.924 21.318,-36.924 M 423.943,645.603 387.019,624.285 h -42.635 l -36.924,21.318 -21.317,36.923 v 42.636 l 21.317,36.923 36.924,21.318 h 42.635 l 36.924,-21.318 21.317,-36.923 v -42.636 l 21.318,-36.923 21.318,-36.924 M 588.772,507.803 567.455,470.879 546.137,433.956 m -36.924,-21.318 -21.317,-36.923 v -42.636 l 21.317,-36.923 36.924,-21.318 h 42.635 l 36.924,21.318 21.317,36.923 v 42.636 l -21.317,36.923 -36.924,21.318 h -42.635 z m -164.829,95.165 v 42.635 l -21.318,36.924 -36.923,21.317 h -42.636 l -36.923,-21.317 -21.318,-36.924 v -42.635 l 21.318,-36.924 36.923,-21.317 h 42.636 l 36.923,21.317 h 42.635 42.636 m 15.606,58.242 21.317,36.923 v 42.635 l -21.317,36.924 -36.924,21.317 H 344.384 L 307.46,645.603 286.143,608.679 v -42.635 l 21.317,-36.923 36.924,-21.318 h 42.635 z m 122.194,-21.318 21.318,-36.924 21.317,-36.923 v -42.635 l 21.318,-36.924 36.923,-21.318 h 42.636 l 36.923,21.318 21.318,36.924 v 42.635 l -21.318,36.923 -36.923,21.318 H 647.013 L 610.09,470.879 M 487.896,566.044 H 445.26 l -36.923,21.318 -21.318,36.923 v 42.635 l 21.318,36.924 36.923,21.318 h 42.636 l 36.923,-21.318 21.318,-36.924 v -42.635 l -21.318,-36.923 z m 36.923,-95.165 h 42.636 42.635 l 36.923,-21.317 h 42.636 l 36.923,21.317 21.318,36.924 v 42.635 l -21.318,36.924 -36.923,21.317 H 647.013 L 610.09,587.362 588.772,550.438 V 507.803 M 487.896,449.562 H 445.26 l -36.923,21.317 -21.318,36.924 v 42.635 l 21.318,36.924 36.923,21.317 h 42.636 l 36.923,-21.317 21.318,-36.924 v -42.635 l -21.318,-36.924 z m -42.636,42.635 -21.317,36.924 -36.924,21.317 H 344.384 L 307.46,529.121 286.143,492.197 v -42.635 l 21.317,-36.924 36.924,-21.317 h 42.635 l 36.924,21.317 21.317,36.924 z m 63.953,36.924 -21.317,36.923 v 42.635 l 21.317,36.924 36.924,21.317 h 42.635 l 36.924,-21.317 21.317,-36.924 V 566.044 L 625.696,529.121 588.772,507.803 H 546.137 Z M 487.896,492.197 H 445.26 l -36.923,-21.318 -21.318,-36.923 v -42.635 l 21.318,-36.924 36.923,-21.318 h 42.636 l 36.923,21.318 21.318,36.924 v 42.635 l -21.318,36.923 z m 0,0 21.317,36.924 36.924,21.317 h 42.635 l 36.924,-21.317 21.317,-36.924 v -42.635 l -21.317,-36.924 -36.924,-21.317 h -42.635 l -36.924,21.317 -21.317,36.924 z m -403.507,423.294 21.318,-36.924 36.924,21.318 -21.318,36.923 z M 105.707,63.192 142.631,84.509 121.313,121.433 84.389,100.115 Z M 41.754,100.115 H 84.389 V 142.75 H 41.754 Z m 849.648,858.011 h -42.635 v -42.635 h 42.635 z M 142.631,41.874 h 42.635 v 42.635 h -42.635 z m 807.012,815.375 -36.923,21.318 -21.318,-36.923 36.923,-21.318 z M 185.266,41.874 206.584,4.951 243.507,26.268 222.189,63.192 Z m 743.059,79.559 21.318,36.923 -36.923,21.318 -21.318,-36.924 z M 747.89,41.874 710.967,63.192 689.649,26.268 726.572,4.951 Z m 42.635,0 V 84.509 H 747.89 V 41.874 Z m 36.924,21.318 21.318,36.923 -36.924,21.318 -21.318,-36.924 z m 63.953,36.923 v 42.635 h -42.635 v -42.635 z m 58.241,100.877 -21.318,36.923 -36.923,-21.318 21.318,-36.923 z M 848.767,26.268 827.449,63.192 790.525,41.874 811.843,4.951 Z m -626.578,36.924 21.318,36.923 -36.923,21.318 -21.318,-36.924 z m -100.876,58.241 21.318,36.923 -36.924,21.318 -21.318,-36.924 z m -15.606,757.134 -21.318,-36.923 36.924,-21.318 21.318,36.923 z M 41.754,841.644 v -42.636 h 42.635 v 42.636 z m 886.571,95.164 -36.923,-21.317 21.318,-36.924 36.923,21.318 z m -79.558,-21.317 -36.924,21.317 -21.318,-36.923 36.924,-21.318 z m 79.558,-95.165 -36.923,-21.318 21.318,-36.923 36.923,21.318 z m -785.694,79.559 v -42.636 h 42.635 v 42.636 z m 63.953,36.923 -21.318,-36.923 36.923,-21.318 21.318,36.924 z m -164.83,21.318 v -42.635 h 42.635 v 42.635 z M 949.643,274.838 912.72,296.156 891.402,259.233 928.325,237.915 Z M 710.967,63.192 747.89,84.509 726.572,121.433 689.649,100.115 Z m 100.876,58.241 36.924,21.317 -21.318,36.924 -36.924,-21.318 z M 286.143,26.268 323.066,4.951 344.384,41.874 307.46,63.192 Z m -201.754,0 36.924,-21.317 21.318,36.923 -36.924,21.318 z m 562.624,0 L 625.696,63.192 588.772,41.874 610.09,4.951 Z m 302.63,58.241 -21.318,36.924 -36.923,-21.318 21.318,-36.923 z M 41.754,216.597 h 42.635 v 42.636 H 41.754 Z m 63.953,-36.923 36.924,21.318 -21.318,36.923 -36.924,-21.318 z m 15.606,640.652 -36.924,-21.318 21.318,-36.923 36.924,21.318 z M 41.754,725.162 v -42.636 h 42.635 v 42.636 z m 684.818,211.646 -36.923,-21.317 21.318,-36.924 36.923,21.318 z m 63.953,-36.923 H 747.89 v -42.636 h 42.635 z m 36.924,-21.318 -36.924,-21.318 21.318,-36.923 36.924,21.318 z m 63.953,-36.923 h -42.635 v -42.636 h 42.635 z m 58.241,-100.877 -36.923,21.318 -21.318,-36.923 36.923,-21.318 z m 0,-73.847 -21.318,36.924 -36.923,-21.318 21.318,-36.923 z M 243.507,958.126 v -42.635 h 42.636 v 42.635 z m -58.241,-100.877 21.318,-36.923 36.923,21.318 -21.318,36.923 z m 504.383,100.877 h -42.636 v -42.635 h 42.636 z M 949.643,41.874 912.72,63.192 891.402,26.268 928.325,4.951 Z m 0,582.411 -36.923,21.318 -21.318,-36.924 36.923,-21.317 z m 0,-73.847 -21.318,36.924 -36.923,-21.318 21.318,-36.923 z m 0,-232.964 -21.318,36.923 -36.923,-21.318 21.318,-36.923 z m 0,73.847 -36.923,21.317 -21.318,-36.923 36.923,-21.318 z M 891.402,216.597 v 42.636 h -42.635 v -42.636 z m -63.953,-36.923 21.318,36.923 -36.924,21.318 -21.318,-36.923 z M 243.507,100.115 h 42.636 v 42.635 h -42.636 z m 63.953,-36.923 36.924,21.317 -21.318,36.924 -36.923,-21.318 z m 36.924,-21.318 h 42.635 v 42.635 h -42.635 z m 42.635,0 21.318,-36.923 36.923,21.317 -21.317,36.924 z M 487.896,26.268 524.819,4.951 546.137,41.874 509.213,63.192 Z M 588.772,41.874 V 84.509 H 546.137 V 41.874 Z m 36.924,21.318 21.317,36.923 -36.923,21.318 -21.318,-36.924 z m 63.953,36.923 V 142.75 H 647.013 V 100.115 Z M 41.754,608.679 v -42.635 h 42.635 v 42.635 z m 0,-275.6 h 42.635 v 42.636 H 41.754 Z m 164.83,-211.646 36.923,21.317 -21.318,36.924 -36.923,-21.318 z m -63.953,36.923 h 42.635 v 42.636 h -42.635 z m -58.242,100.877 36.924,-21.318 21.318,36.923 -36.924,21.318 z m 21.318,502.852 -21.318,-36.923 36.924,-21.318 21.318,36.923 z m 605.26,116.482 -21.318,-36.923 36.923,-21.318 21.318,36.923 z m 100.876,-58.241 -21.318,-36.923 36.924,-21.318 21.318,36.923 z m 79.559,-95.164 h -42.635 v -42.636 h 42.635 z m -568.336,211.646 -36.923,-21.317 21.317,-36.924 36.924,21.318 z m 122.194,21.318 v -42.635 h 42.636 v 42.635 z m 201.753,-42.635 -36.923,21.317 -21.318,-36.923 36.924,-21.318 z m 302.63,-481.535 -21.318,36.923 -36.923,-21.317 21.318,-36.924 z m 0,73.847 -36.923,21.318 -21.318,-36.924 36.923,-21.318 z m -58.241,100.876 h -42.635 v -42.635 h 42.635 z m 0,-275.6 v 42.636 h -42.635 v -42.636 z m -164.83,-211.646 21.318,36.923 -36.923,21.318 -21.318,-36.924 z m 63.953,36.923 v 42.636 H 747.89 v -42.636 z m 58.242,100.877 -21.318,36.923 -36.924,-21.318 21.318,-36.923 z M 286.143,142.75 l 36.923,-21.317 21.318,36.923 -36.924,21.318 z m 100.876,-58.241 36.924,-21.317 21.317,36.923 -36.923,21.318 z m 122.194,-21.317 36.924,21.317 -21.318,36.924 -36.923,-21.318 z m 100.877,58.241 36.923,21.317 -21.317,36.924 -36.924,-21.318 z M 41.754,449.562 h 42.635 v 42.635 H 41.754 Z m 42.635,-116.483 21.318,-36.923 36.924,21.318 -21.318,36.923 z m 137.8,-153.405 21.318,36.923 -36.923,21.318 -21.318,-36.923 z m -15.605,640.652 -21.318,-36.923 36.923,-21.318 21.318,36.923 z m -63.953,-36.923 v -42.636 h 42.635 v 42.636 z m -58.242,-100.877 21.318,-36.923 36.924,21.317 -21.318,36.924 z m 0,-73.847 36.924,-21.317 21.318,36.923 -36.924,21.318 z m 743.06,153.406 -36.924,-21.318 21.318,-36.923 36.924,21.318 z m -583.942,79.559 v -42.636 h 42.636 v 42.636 z m 63.953,36.923 -21.317,-36.923 36.923,-21.318 21.318,36.923 z m 36.924,21.318 v -42.636 h 42.635 v 42.636 z m 63.953,36.923 -21.318,-36.923 36.924,-21.318 21.317,36.924 z m 116.482,0 -36.923,-21.317 21.317,-36.924 36.924,21.318 z m 63.953,-36.923 h -42.635 v -42.636 h 42.635 z m 36.924,-21.318 -36.924,-21.318 21.318,-36.923 36.923,21.318 z m 63.953,-36.923 h -42.636 v -42.636 h 42.636 z M 891.402,449.562 v 42.635 h -42.635 v -42.635 z m -42.635,-116.483 -36.924,21.318 -21.318,-36.923 36.924,-21.318 z m -137.8,-153.405 36.923,21.318 -21.318,36.923 -36.923,-21.318 z M 445.26,100.115 h 42.636 V 142.75 H 445.26 Z m -302.629,450.323 -21.318,36.924 -36.924,-21.318 21.318,-36.923 z m 0,-42.635 -36.924,21.318 -21.318,-36.924 36.924,-21.318 z m 0,-73.847 -21.318,36.923 -36.924,-21.317 21.318,-36.924 z m 0,-42.635 -36.924,21.317 -21.318,-36.923 36.924,-21.318 z m 42.635,-73.847 h -42.635 v -42.636 h 42.635 z m 36.923,-21.318 -36.923,-21.318 21.318,-36.923 36.923,21.318 z m 63.954,-36.923 h -42.636 v -42.636 h 42.636 z m 36.923,-21.318 -36.923,-21.318 21.317,-36.923 36.924,21.318 z m -116.482,465.929 36.923,21.318 -21.318,36.923 -36.923,-21.318 z m -21.318,-79.559 v 42.635 h -42.635 v -42.635 z m 525.701,137.8 36.923,21.318 -21.318,36.923 -36.923,-21.318 z m 36.923,-21.318 h 42.635 v 42.636 H 747.89 Z m 42.635,-73.847 36.924,-21.317 21.318,36.923 -36.924,21.318 z m 0,-42.635 21.318,-36.923 36.924,21.317 -21.318,36.924 z m -446.141,159.118 -21.318,36.923 -36.923,-21.318 21.317,-36.923 z m 100.876,58.241 -21.317,36.923 -36.924,-21.318 21.318,-36.923 z m 79.559,-21.318 21.318,36.923 -36.924,21.318 -21.317,-36.923 z m 100.877,-58.241 21.317,36.923 -36.923,21.318 -21.318,-36.923 z m 164.829,-211.647 36.924,-21.317 21.318,36.923 -36.924,21.318 z m 0,-42.635 21.318,-36.924 36.924,21.318 -21.318,36.924 z m 0,-73.847 36.924,-21.318 21.318,36.924 -36.924,21.317 z m 0,-42.635 21.318,-36.924 36.924,21.318 -21.318,36.923 z M 747.89,317.474 v -42.636 h 42.635 v 42.636 z m -36.923,-21.318 -21.318,-36.923 36.923,-21.318 21.318,36.923 z M 387.019,200.992 h -42.635 v -42.636 h 42.635 z m 36.924,-21.318 -36.924,-21.318 21.318,-36.923 36.923,21.317 z m 85.27,0 -21.317,-36.924 36.923,-21.317 21.318,36.923 z m 36.924,21.318 v -42.636 h 42.635 v 42.636 z m 100.876,58.241 v -42.636 h 42.636 v 42.636 z m -36.923,-21.318 -21.318,-36.923 36.924,-21.318 21.317,36.923 z M 185.266,507.803 v 42.635 h -42.635 v -42.635 z m 0,-73.847 h -42.635 v -42.635 h 42.635 z m 21.318,-79.559 -21.318,-36.923 36.923,-21.318 21.318,36.923 z m 100.876,-58.241 -21.317,-36.923 36.923,-21.318 21.318,36.923 z m -63.953,386.37 -36.923,21.318 -21.318,-36.924 36.923,-21.317 z m 504.383,58.241 -36.923,21.318 -21.318,-36.923 36.923,-21.318 z M 790.525,624.285 V 666.92 H 747.89 V 624.285 Z M 487.896,841.644 H 445.26 v -42.636 h 42.636 z M 243.507,682.526 h 42.636 v 42.636 h -42.636 z m 42.636,42.636 36.923,-21.318 21.318,36.923 -36.924,21.318 z M 790.525,507.803 v 42.635 H 747.89 v -42.635 z m 0,-116.482 v 42.635 H 747.89 v -42.635 z m -79.558,-95.165 36.923,21.318 -21.318,36.923 -36.923,-21.318 z m -287.024,-116.482 21.317,36.923 -36.923,21.318 -21.318,-36.923 z m 122.194,21.318 -21.318,36.923 -36.923,-21.318 21.317,-36.923 z m 63.953,36.923 36.923,21.318 -21.317,36.923 -36.924,-21.318 z m -424.824,153.406 21.318,-36.924 36.923,21.318 -21.318,36.923 z m 36.923,254.282 -36.923,-21.318 21.318,-36.923 36.923,21.317 z m -36.923,-95.165 36.923,-21.317 21.318,36.923 -36.923,21.318 z m 541.306,153.406 -36.923,-21.318 21.318,-36.923 36.923,21.317 z m -382.188,79.559 v -42.636 h 42.635 v 42.636 z m 63.953,36.923 -21.318,-36.923 36.924,-21.318 21.317,36.923 z m 116.482,0 -36.923,-21.318 21.317,-36.923 36.924,21.318 z m 63.953,-36.923 h -42.635 v -42.636 h 42.635 z m 100.877,-58.241 h -42.636 v -42.636 h 42.636 z m -63.953,36.923 -36.924,-21.318 21.318,-36.923 36.923,21.318 z M 344.384,666.92 323.066,703.844 286.143,682.526 307.46,645.603 Z m 345.265,-291.205 36.923,-21.318 21.318,36.924 -36.923,21.317 z M 487.896,259.233 H 445.26 v -42.636 h 42.636 z m -302.63,248.57 21.318,-36.924 36.923,21.318 -21.318,36.924 z m 0,-73.847 36.923,-21.318 21.318,36.924 -36.923,21.317 z m 58.241,-100.877 h 42.636 v 42.636 h -42.636 z m 63.953,-36.923 36.924,21.318 -21.318,36.923 -36.923,-21.318 z m 116.483,0 -36.924,-21.318 21.318,-36.923 36.923,21.318 z m -79.559,-21.318 h 42.635 v 42.636 h -42.635 z m -58.241,291.206 v 42.635 h -42.636 v -42.635 z m 461.747,58.241 -36.923,21.318 -21.318,-36.924 36.923,-21.317 z m -58.241,-58.241 21.318,-36.923 36.923,21.317 -21.318,36.924 z m -244.389,159.118 -21.317,36.923 -36.924,-21.318 21.318,-36.923 z m 79.559,-21.318 21.318,36.923 -36.924,21.318 -21.317,-36.923 z m 63.953,-36.924 36.924,-21.317 21.317,36.923 -36.923,21.318 z m 100.877,-174.723 36.923,-21.318 21.318,36.924 -36.923,21.318 z m 0,-42.635 21.318,-36.924 36.923,21.318 -21.318,36.923 z m -42.636,-73.847 v -42.636 h 42.636 v 42.636 z m -36.923,-21.318 -21.318,-36.923 36.924,-21.318 21.317,36.923 z m -100.877,-58.241 -21.317,-36.923 36.923,-21.318 21.318,36.923 z m 36.924,21.318 v -42.636 h 42.635 v 42.636 z M 286.143,449.562 v 42.635 h -42.636 v -42.635 z m 58.241,-58.241 -36.924,21.317 -21.317,-36.923 36.923,-21.318 z m 63.953,-36.924 -21.318,-36.923 36.924,-21.318 21.317,36.923 z m -85.271,232.965 21.318,36.923 -36.924,21.318 -21.317,-36.924 z m 323.947,-21.318 h 42.636 v 42.635 H 647.013 Z M 487.896,682.526 v 42.636 H 445.26 v -42.636 z m -63.953,-36.923 21.317,36.923 -36.923,21.318 -21.318,-36.924 z M 387.019,624.285 V 666.92 H 344.384 V 624.285 Z M 647.013,449.562 h 42.636 v 42.635 h -42.636 z m -58.241,-58.241 21.318,-36.924 36.923,21.318 -21.317,36.923 z m -63.953,-36.924 -36.923,-21.318 21.317,-36.923 36.924,21.318 z m -180.435,79.559 -21.318,36.923 -36.923,-21.317 21.317,-36.924 z m 0,73.847 -36.924,21.318 -21.317,-36.924 36.923,-21.318 z m 0,42.635 -21.318,36.924 -36.923,-21.318 21.317,-36.923 z m 265.706,36.924 36.923,21.317 -21.317,36.924 -36.924,-21.318 z m -100.877,58.241 36.924,21.317 -21.318,36.924 -36.923,-21.318 z m 36.924,-21.318 h 42.635 v 42.635 h -42.635 z m -137.8,-36.923 36.923,21.317 -21.317,36.924 -36.924,-21.318 z m 180.435,-153.406 36.924,-21.318 21.317,36.924 -36.923,21.317 z M 487.896,375.715 H 445.26 v -42.636 h 42.636 z m -100.877,58.241 h -42.635 v -42.635 h 42.635 z m 36.924,-21.318 -36.924,-21.317 21.318,-36.924 36.923,21.318 z m -36.924,137.8 h -42.635 v -42.635 h 42.635 z m 201.753,-42.635 21.318,-36.924 36.923,21.318 -21.317,36.924 z m 0,42.635 36.924,-21.317 21.317,36.923 -36.923,21.318 z m -63.953,36.924 21.318,36.923 -36.924,21.318 -21.317,-36.924 z m 21.318,-153.406 v -42.635 h 42.635 v 42.635 z m -36.924,-21.318 -21.317,-36.923 36.923,-21.318 21.318,36.924 z m -63.953,36.924 -36.923,21.317 -21.318,-36.923 36.924,-21.318 z m -21.317,79.559 21.317,36.923 -36.923,21.318 -21.318,-36.924 z m 122.194,21.317 v -42.635 h 42.635 v 42.635 z m -58.241,15.606 v 42.635 H 445.26 v -42.635 z m 0,-116.482 21.317,-36.924 36.924,21.318 -21.318,36.923 z m -42.636,42.635 -21.317,36.924 -36.924,-21.318 21.318,-36.924 z m 63.953,36.924 36.924,21.317 -21.318,36.924 -36.923,-21.318 z M 487.896,492.197 H 445.26 v -42.635 h 42.636 z m 0,0 36.923,-21.318 21.318,36.924 -36.924,21.318 z M 84.389,958.126 v -42.635 l 36.924,21.317 z m 865.254,-58.241 -36.923,-21.318 36.923,-21.318 z m 0,-741.529 v 42.636 L 912.72,179.674 Z M 185.266,41.874 222.189,63.192 185.266,84.509 Z M 84.389,100.115 121.313,121.433 84.389,142.75 Z M 41.754,841.644 4.831,820.326 41.754,799.008 Z m 807.013,116.482 -36.924,-21.318 36.924,-21.317 z M 949.643,857.249 928.325,820.326 h 42.636 z m 21.318,-36.923 h -42.636 l 21.318,-36.923 z M 105.707,63.192 142.631,41.874 v 42.635 z m 822.618,58.241 -36.923,21.317 V 100.115 Z M 827.449,63.192 790.525,84.509 V 41.874 Z M 747.89,41.874 V 84.509 L 710.967,63.192 Z m 100.877,58.241 v 42.635 l -36.924,-21.317 z m 122.194,21.318 -21.318,36.923 -21.318,-36.923 z M 41.754,216.597 v 42.636 L 4.831,237.915 Z M 142.631,84.509 h 42.635 l -21.318,36.924 z m 0,0 21.317,36.924 h -42.635 z m 42.635,0 21.318,36.924 h -42.636 z m -63.953,36.924 h 42.635 l -21.317,36.923 z m -15.606,757.134 36.924,-21.318 v 42.636 z M 84.389,841.644 121.313,820.326 84.389,799.008 Z m 843.936,95.164 -36.923,21.318 V 915.491 Z M 41.754,725.162 4.831,703.844 41.754,682.526 Z m 886.571,95.164 -36.923,21.318 v -42.636 z m 21.318,-36.923 -36.923,-21.318 36.923,-21.318 z m -58.241,174.723 -21.318,36.923 -21.317,-36.923 z m -647.895,0 h 42.636 l -21.318,36.923 z m 0,0 -36.923,-21.318 36.923,-21.317 z m -58.241,-58.241 v -42.636 l 36.923,21.318 z m 541.306,36.923 -36.923,21.318 v -42.635 z m -36.923,21.318 -21.318,36.923 -21.318,-36.923 z M 41.754,100.115 V 142.75 L 4.831,121.433 Z m 907.889,217.359 -36.923,-21.318 36.923,-21.318 z m -21.318,-79.559 -36.923,21.318 V 216.597 Z M 790.525,84.509 769.208,121.433 747.89,84.509 Z m 0,0 21.318,36.924 h -42.635 z m -42.635,0 21.318,36.924 h -42.636 z m 63.953,36.924 -21.318,36.923 -21.317,-36.923 z m 137.8,-79.559 V 84.509 L 912.72,63.192 Z M 41.754,608.679 4.831,587.362 41.754,566.044 Z m 0,-275.6 v 42.636 L 4.831,354.397 Z m -21.318,-36.923 21.318,-36.923 21.318,36.923 z m 0,0 H 63.072 L 41.754,333.079 Z M 41.754,259.233 H 84.389 L 63.072,296.156 Z M 243.507,100.115 v 42.635 l -36.923,-21.317 z m -79.559,21.318 h 42.636 l -21.318,36.923 z m 0,0 21.318,36.923 h -42.635 z m -21.317,36.923 v 42.636 l -36.924,-21.318 z m -58.242,58.241 36.924,21.318 -36.924,21.318 z m 58.242,640.652 21.317,-36.923 21.318,36.923 z m 0,0 -21.318,-36.923 h 42.635 z m -21.318,-36.923 21.318,-36.923 21.317,36.923 z M 20.436,645.603 h 42.636 l -21.318,36.923 z m 0,0 21.318,-36.924 21.318,36.924 z m 21.318,36.923 21.318,-36.923 21.317,36.923 z m 785.695,196.041 -36.924,21.318 v -42.636 z m -79.559,21.318 -36.923,-21.318 36.923,-21.318 z m 100.877,-58.241 -36.924,-21.318 36.924,-21.318 z M 949.643,624.285 V 666.92 L 912.72,645.603 Z m -21.318,79.559 -36.923,21.318 V 682.526 Z M 185.266,857.249 163.948,820.326 h 42.636 z m 764.377,-772.74 21.318,36.924 h -42.636 z m -663.5,873.617 36.923,-21.318 -36.923,-21.317 z m -244.389,0 -36.923,-21.318 36.923,-21.317 z m 0,0 h 42.635 l -21.317,36.923 z m 403.506,0 h 42.636 l -21.318,36.923 z m 201.753,0 -36.923,-21.318 36.923,-21.317 z m 302.63,-566.805 v 42.635 L 912.72,412.638 Z m 21.318,79.558 h -42.636 l 21.318,-36.923 z m 0,0 -21.318,36.924 -21.318,-36.924 z m -21.318,36.924 v 42.635 L 912.72,529.121 Z m -21.318,79.559 -36.923,21.317 v -42.635 z m 0,-232.965 -36.923,21.318 V 333.079 Z M 912.72,296.156 h -42.636 l 21.318,-36.923 z m 0,0 -21.318,36.923 -21.318,-36.923 z m -21.318,-36.923 -21.318,36.923 -21.317,-36.923 z m -201.753,-159.118 36.923,21.318 -36.923,21.317 z m 79.559,21.318 -21.318,36.923 -21.318,-36.923 z m 0,0 21.317,36.923 H 747.89 Z m 21.317,36.923 36.924,21.318 -36.924,21.318 z m 58.242,58.241 v 42.636 L 811.843,237.915 Z M 344.384,41.874 V 84.509 L 307.46,63.192 Z m -58.241,58.241 36.923,21.318 -36.923,21.317 z M 387.019,41.874 423.943,63.192 387.019,84.509 Z M 625.696,63.192 588.772,84.509 V 41.874 Z M 546.137,41.874 V 84.509 L 509.213,63.192 Z m 100.876,58.241 V 142.75 L 610.09,121.433 Z M 41.754,608.679 h 42.635 l -21.317,36.924 z m 0,-159.117 v 42.635 L 4.831,470.879 Z m 0,-116.483 21.318,-36.923 21.317,36.923 z m 21.318,-36.923 21.317,-36.923 21.318,36.923 z m 0,0 h 42.635 l -21.318,36.923 z m 122.194,-137.8 36.923,21.318 -36.923,21.318 z m -21.318,661.97 21.318,-36.923 21.318,36.923 z m 0,0 -21.317,-36.923 h 42.635 z m -21.317,-36.923 -36.924,-21.318 36.924,-21.318 z M 84.389,725.162 v -42.636 l 36.924,21.318 z M 63.072,645.603 h 42.635 l -21.318,36.923 z m 0,0 21.317,-36.924 21.318,36.924 z M 790.525,857.249 H 747.89 l 21.318,-36.923 z m 0,0 -21.317,-36.923 h 42.635 z m -42.635,0 -21.318,-36.923 h 42.636 z m 63.953,-36.923 h -42.635 l 21.317,-36.923 z M 912.72,645.603 891.402,682.526 870.084,645.603 Z m 0,0 h -42.636 l 21.318,-36.924 z m -21.318,36.923 h -42.635 l 21.317,-36.923 z m -684.818,137.8 36.923,-21.318 v 42.636 z m 238.676,137.8 -36.923,-21.318 36.923,-21.317 z m 42.636,0 36.923,-21.318 -36.923,-21.317 z m 403.506,-349.447 -21.318,36.924 -21.317,-36.924 z m 36.923,-137.8 -36.923,21.318 v -42.635 z m -36.923,-137.8 h -42.635 l 21.317,-36.923 z m -21.318,-36.923 h -42.635 l 21.318,-36.923 z m 0,0 -21.317,36.923 -21.318,-36.923 z M 747.89,158.356 v 42.636 l -36.923,-21.318 z m -403.506,-73.847 21.317,36.924 h -42.635 z m 0,0 h 42.635 l -21.318,36.924 z m -21.318,36.924 h 42.635 l -21.317,36.923 z m 63.953,-36.924 21.318,36.924 h -42.636 z m 201.753,0 -21.317,36.924 -21.318,-36.924 z m 0,0 21.318,36.924 h -42.635 z m -42.635,0 21.318,36.924 h -42.636 z m 63.953,36.924 -21.318,36.923 -21.317,-36.923 z M 84.389,608.679 v -42.635 l 36.924,21.318 z m 0,-275.6 36.924,21.318 -36.924,21.318 z m 21.318,-36.923 36.924,-21.318 v 42.636 z m 79.559,487.247 36.923,-21.318 -36.923,-21.318 z m -79.559,-137.8 36.924,-21.318 v 42.635 z m 583.942,196.041 36.923,-21.318 -36.923,-21.318 z m 79.559,-21.318 h -42.636 l 21.318,-36.923 z m 0,0 -21.318,-36.923 h 42.635 z m 21.317,-36.923 36.924,-21.318 -36.924,-21.318 z m 58.242,-58.241 -36.924,-21.318 36.924,-21.318 z m 21.317,-79.559 -21.317,36.923 -21.318,-36.923 z m 0,0 h -42.635 l 21.318,-36.924 z m -525.7,254.282 -36.924,-21.318 36.924,-21.318 z m -58.241,-58.241 v -42.636 l 36.923,21.318 z m 100.876,58.241 v -42.636 l 36.924,21.318 z m 238.677,-21.318 -36.924,21.318 v -42.636 z m -79.559,21.318 -36.924,-21.318 36.924,-21.318 z m 100.876,-58.241 -36.923,-21.318 36.923,-21.318 z m 201.754,-232.965 -36.924,-21.317 36.924,-21.318 z m 0,-275.6 v 42.636 l -36.924,-21.318 z m -21.318,-36.923 -36.924,21.318 V 274.838 Z M 307.46,179.674 344.384,158.356 v 42.636 z m 58.241,-58.241 21.318,36.923 h -42.635 z m 0,0 h 42.636 l -21.318,36.923 z m 42.636,0 36.923,-21.318 v 42.635 z m 79.559,-21.318 36.923,21.318 -36.923,21.317 z m 79.559,21.318 -21.318,36.923 -21.318,-36.923 z m 0,0 21.317,36.923 h -42.635 z m 21.317,36.923 36.924,21.318 -36.924,21.318 z M 121.313,470.879 84.389,492.197 v -42.635 z m 21.318,36.924 v 42.635 l -36.924,-21.317 z m 0,-116.482 v 42.635 l -36.924,-21.318 z m 100.876,-132.088 -36.923,-21.318 36.923,-21.318 z m -21.318,36.923 -36.923,21.318 v -42.636 z m 100.877,-58.241 -36.923,21.318 V 216.597 Z M 747.89,740.767 v 42.636 l -36.923,-21.318 z m 42.635,-116.482 36.924,21.318 -36.924,21.317 z m -424.824,196.041 -21.317,36.923 -21.318,-36.923 z m 0,0 21.318,36.923 h -42.635 z m -21.317,-36.923 21.317,36.923 h -42.635 z m 63.953,36.923 -21.318,36.923 -21.318,-36.923 z m 159.118,0 21.317,36.923 h -42.635 z m 0,0 h 42.635 l -21.318,36.923 z m -42.636,0 h 42.636 l -21.318,36.923 z m 63.953,-36.923 21.318,36.923 h -42.635 z m 223.071,-312.524 36.924,-21.317 v 42.635 z m -21.318,36.924 36.924,21.318 -36.924,21.317 z m 0,-116.482 36.924,21.317 -36.924,21.318 z M 689.649,259.233 v -42.636 l 36.923,21.318 z m 21.318,36.923 36.923,-21.318 v 42.636 z M 423.943,179.674 387.019,200.992 v -42.636 z m 122.194,21.318 -36.924,-21.318 36.924,-21.318 z m 63.953,36.923 36.923,-21.318 v 42.636 z m -446.142,232.964 -21.317,36.924 -21.318,-36.924 z m 0,0 h -42.635 l 21.318,-36.923 z m 21.318,36.924 h -42.635 l 21.317,-36.924 z m 0,-73.847 -21.318,36.923 -21.317,-36.923 z m 79.559,-137.8 h -42.636 l 21.318,-36.923 z m 0,0 -21.318,-36.923 h 42.636 z m 0,0 -21.318,36.923 -21.318,-36.923 z m 0,0 21.318,-36.923 21.317,36.923 z m -21.318,386.37 v 42.636 l -36.923,-21.318 z m -21.318,-36.923 -36.923,21.317 v -42.635 z m 122.195,137.8 -36.924,-21.318 36.924,-21.318 z m 0,0 h 42.635 l -21.318,36.923 z m 63.953,36.923 h -42.636 l 21.318,-36.923 z m 36.923,21.318 -36.923,-21.318 36.923,-21.318 z m 79.559,-21.318 -36.923,21.318 v -42.636 z m 0,0 21.318,-36.923 21.318,36.923 z m 63.953,-36.923 -21.317,36.923 -21.318,-36.923 z m 36.924,-21.318 -36.924,21.318 V 740.767 Z M 286.143,725.162 v -42.636 l 36.923,21.318 z M 790.525,507.803 769.208,470.879 h 42.635 z m 0,-73.847 21.318,36.923 h -42.635 z m 0,73.847 H 747.89 l 21.318,-36.924 z m 0,-73.847 -21.317,36.923 -21.318,-36.923 z m -79.558,-137.8 h -42.636 l 21.318,-36.923 z m -63.954,-36.923 h 42.636 l -21.318,36.923 z m 63.954,36.923 -21.318,36.923 -21.318,-36.923 z m -63.954,-36.923 21.318,36.923 h -42.635 z m -461.747,248.57 36.923,21.318 -36.923,21.317 z m 0,0 -21.318,-36.924 h 42.636 z m 0,-73.847 21.318,36.923 h -42.636 z m 0,0 v -42.635 l 36.923,21.317 z m 21.318,-79.559 36.923,-21.318 v 42.636 z m 58.241,-58.241 21.318,36.923 h -42.636 z m 0,0 h 42.635 l -21.317,36.923 z m 42.635,0 36.924,-21.318 v 42.636 z m -63.953,386.37 -21.318,-36.923 h 42.636 z m 0,0 21.318,-36.923 21.318,36.923 z m -21.318,-36.923 21.318,-36.924 21.318,36.924 z m -15.605,-58.241 36.923,-21.318 v 42.635 z m 483.065,137.8 36.923,-21.318 -36.923,-21.318 z M 747.89,666.92 710.967,645.603 747.89,624.285 Z M 387.019,783.403 v -42.636 l 36.924,21.318 z m 159.118,-42.636 v 42.636 l -36.924,-21.318 z m 63.953,-36.923 36.923,-21.318 v 42.636 z M 307.46,645.603 286.143,682.526 264.825,645.603 Z M 710.967,529.121 747.89,507.803 v 42.635 z m 15.605,-58.242 h 42.636 l -21.318,36.924 z m 0,0 21.318,-36.923 21.318,36.923 z m -15.605,-58.241 36.923,-21.317 v 42.635 z m -21.318,-36.923 v -42.636 l 36.923,21.318 z m -42.636,-42.636 21.318,-36.923 21.318,36.923 z m 0,0 -21.317,-36.923 h 42.635 z M 445.26,259.233 408.337,237.915 445.26,216.597 Z m 42.636,0 v -42.636 l 36.923,21.318 z m 100.876,58.241 36.924,-21.318 -36.924,-21.318 z M 243.507,449.562 v 42.635 l -36.923,-21.318 z m 79.559,-95.165 -36.923,21.318 v -42.636 z m 63.953,-36.923 36.924,-21.318 -36.924,-21.318 z m -100.876,291.205 -21.318,36.924 -21.318,-36.924 z m 0,0 21.317,36.924 h -42.635 z m 382.188,36.924 h 42.636 l -21.318,36.923 z m 0,0 21.318,36.923 h -42.636 z m 21.318,-36.924 21.318,36.924 h -42.636 z m 0,-42.635 36.923,21.318 -36.923,21.317 z m -63.953,79.559 h 42.635 l -21.318,36.923 z M 344.384,624.285 V 666.92 L 307.46,645.603 Z m 345.265,-174.723 36.923,21.317 -36.923,21.318 z m -79.559,-95.165 36.923,-21.318 v 42.636 z M 466.578,296.156 445.26,259.233 h 42.636 z m 0,0 h -42.635 l 21.317,-36.923 z m 42.635,0 h -42.635 l 21.318,-36.923 z m 36.924,21.318 -36.924,-21.318 36.924,-21.318 z M 445.26,333.079 423.943,296.156 h 42.635 z m -122.194,254.283 -36.923,21.317 v -42.635 z m 323.947,21.317 h 42.636 l -21.318,36.924 z m 0,0 21.318,36.924 H 625.696 Z M 445.26,682.526 v 42.636 l -36.923,-21.318 z m 42.636,0 36.923,21.318 -36.923,21.318 z m 100.876,-58.241 36.924,21.318 -36.924,21.317 z m -201.753,0 36.924,21.318 -36.924,21.317 z M 487.896,333.079 466.578,296.156 h 42.635 z m 0,0 H 445.26 l 21.318,-36.923 z m -164.83,137.8 -36.923,21.318 v -42.635 z m 21.318,-36.923 -36.924,-21.318 36.924,-21.317 z M 445.26,375.715 408.337,354.397 445.26,333.079 Z M 344.384,550.438 307.46,529.121 344.384,507.803 Z m 265.706,36.924 36.923,-21.318 v 42.635 z m -143.512,58.241 21.318,36.923 H 445.26 Z m 0,0 -21.318,36.923 -21.317,-36.923 z m 42.635,0 -21.317,36.923 -21.318,-36.923 z m 36.924,-21.318 v 42.635 l -36.924,-21.317 z m -100.877,-15.606 21.318,36.924 h -42.635 z m 164.83,-137.8 36.923,-21.317 v 42.635 z m -21.318,-36.923 36.924,-21.318 -36.924,-21.317 z M 487.896,375.715 v -42.636 l 36.923,21.318 z m -122.195,95.164 h -42.635 l 21.318,-36.923 z m 0,0 -21.317,36.924 -21.318,-36.924 z m 21.318,-36.923 -21.318,36.923 -21.317,-36.923 z m 36.924,-21.318 -36.924,21.318 v -42.635 z m -36.924,95.165 h -42.635 l 21.317,-36.924 z m 201.753,42.635 v -42.635 l 36.924,21.318 z m -100.876,58.241 21.317,36.924 h -42.635 z m 0,0 -21.318,36.924 -21.318,-36.924 z M 445.26,566.044 v 42.635 l -36.923,-21.317 z m 122.195,-95.165 21.317,-36.923 21.318,36.923 z m 0,0 h 42.635 l -21.318,36.924 z m -21.318,-36.923 h 42.635 l -21.317,36.923 z m -36.924,-21.318 36.924,-21.317 v 42.635 z m -100.876,58.241 h -42.636 l 21.318,-36.923 z m 0,0 -21.318,36.924 -21.318,-36.924 z m 15.606,58.242 -36.924,21.317 v -42.635 z m 122.194,-21.318 21.318,-36.924 21.317,36.924 z m -58.241,58.241 36.923,21.318 -36.923,21.317 z m 36.923,-95.165 21.318,-36.923 21.318,36.923 z m 0,0 h 42.636 l -21.318,36.924 z m -79.559,21.318 -36.923,-21.318 36.923,-21.317 z m 63.953,36.924 36.924,-21.318 v 42.635 z m -21.317,-36.924 36.923,-21.318 -36.923,-21.317 z"
     style="opacity:1;fill-opacity:0;stroke:#000000;stroke-width:16;stroke-opacity:1;stop-opacity:1;fill:none;stroke-miterlimit:4;stroke-dasharray:none;stroke-linejoin:round"
     id="path110274" />
</svg>
