<?xml version="1.0" encoding="UTF-8" standalone="no"?>
<svg
   xmlns:dc="http://purl.org/dc/elements/1.1/"
   xmlns:cc="http://creativecommons.org/ns#"
   xmlns:rdf="http://www.w3.org/1999/02/22-rdf-syntax-ns#"
   xmlns:svg="http://www.w3.org/2000/svg"
   xmlns="http://www.w3.org/2000/svg"
   xmlns:sodipodi="http://sodipodi.sourceforge.net/DTD/sodipodi-0.dtd"
   xmlns:inkscape="http://www.inkscape.org/namespaces/inkscape"
   inkscape:version="1.0beta1 (32d4812, 2019-09-19)"
   sodipodi:docname="3-uniform_57.svg"
   id="c:\kuniform\3u\3-uniform_57.svg"
   height="1000.00006"
   width="989.9067"
   version="1.0">
  <metadata
     id="metadata2213">
    <rdf:RDF>
      <cc:Work
         rdf:about="">
        <dc:format>image/svg+xml</dc:format>
        <dc:type
           rdf:resource="http://purl.org/dc/dcmitype/StillImage" />
        <dc:title></dc:title>
      </cc:Work>
    </rdf:RDF>
  </metadata>
  <defs
     id="defs2211" />
  <sodipodi:namedview
     showguides="true"
     inkscape:document-rotation="0"
     inkscape:current-layer="c:\kuniform\3u\3-uniform_57.svg"
     inkscape:window-maximized="1"
     inkscape:window-y="23"
     inkscape:window-x="0"
     inkscape:cy="488.70909"
     inkscape:cx="350.98277"
     inkscape:zoom="0.66750876"
     showgrid="false"
     id="namedview2209"
     inkscape:window-height="1005"
     inkscape:window-width="1680"
     inkscape:pageshadow="2"
     inkscape:pageopacity="0"
     guidetolerance="10"
     gridtolerance="10"
     objecttolerance="10"
     borderopacity="1"
     bordercolor="#666666"
     pagecolor="#ffffff" />
  <!-- X Coordinate transform: fx(x)=(x+83.79846)*0.86131597-->
  <!-- Y Coordinate transform: fy(y)=(1077.1577-y)*0.86131597 -->
  <g
     id="g2055" />
  <g
     id="g7116" />
  <path
     d="m 63.729,936.221 v 43.065 M 42.197,898.924 v -43.065 m 37.296,21.533 21.533,-37.296 m 723.256,96.125 v 43.065 M 808.519,42.247 786.986,4.95 M 326.348,42.247 304.815,4.95 M 240.216,42.247 261.749,4.95 M 42.197,299.095 4.901,320.628 M 42.197,342.161 4.901,320.628 m 219.552,615.593 v 43.065 M 888.881,181.437 867.348,144.141 M 79.493,42.247 101.026,4.95 M 647.796,42.247 626.263,4.95 M 122.558,202.97 V 159.904 M 487.072,42.247 465.539,4.95 M 400.94,42.247 422.473,4.95 M 159.855,181.437 181.387,144.141 M 79.493,320.628 101.026,283.332 M 42.197,620.543 4.901,599.01 M 42.197,577.477 4.901,599.01 M 926.177,759.734 V 716.668 M 947.71,79.543 969.243,42.247 947.71,4.95 m 0,352.974 21.533,-37.296 -21.533,-37.296 m 0,352.974 21.533,-37.296 -21.533,-37.296 M 79.493,599.01 101.026,561.714 m 58.829,176.487 21.532,-37.296 M 685.092,898.924 V 855.859 M 888.881,459.819 867.348,422.523 M 202.92,342.161 v -43.066 m -43.065,160.724 21.532,-37.296 m -58.829,337.211 37.297,-21.533 h 43.065 43.066 M 524.368,898.924 V 855.859 M 808.519,320.628 786.986,283.332 M 567.434,181.437 545.901,144.141 M 240.216,320.628 261.749,283.332 M 444.006,202.97 V 159.904 M 342.111,775.497 320.578,738.201 M 786.986,636.306 808.519,599.01 M 786.986,357.924 808.519,320.628 M 743.921,283.332 V 240.266 M 261.749,636.306 240.216,599.01 M 122.558,481.352 159.855,459.819 h 43.065 43.066 m 256.849,315.678 -21.533,-37.296 m 123.428,21.533 v -43.066 m -160.724,43.066 v -43.066 m 203.79,-396.04 -21.533,-37.296 M 728.157,459.819 706.624,422.523 M 487.072,320.628 465.539,283.332 m -101.895,58.829 v -43.066 m -43.066,160.724 21.533,-37.296 M 626.263,636.306 647.796,599.01 M 524.368,342.161 v -43.066 m -80.362,182.257 v -43.066 m 80.362,182.257 V 577.477 M 63.729,936.221 101.026,957.753 63.729,979.286 Z M 42.197,898.924 v -43.065 l 37.296,21.533 z m 21.532,37.297 37.297,-21.533 v 43.065 z m 840.915,21.532 -37.296,-21.532 37.296,-21.533 z m 0,0 -37.296,21.533 v -43.065 z m 43.066,-878.21 37.296,21.533 -37.296,21.532 z m -883.981,21.533 37.297,21.532 -37.297,21.533 z m 0,0 37.297,-21.533 v 43.065 z m 80.362,856.677 37.296,-21.532 v 43.065 z m 0,0 v -43.065 l 37.296,21.533 z m 642.895,0 37.296,-21.532 v 43.065 z M 947.71,840.096 985.006,818.563 947.71,797.03 Z M 42.197,898.924 4.901,877.392 42.197,855.859 Z M 904.644,79.543 v 43.065 L 867.348,101.076 Z M 883.111,42.247 845.815,63.779 V 20.714 Z M 845.815,20.714 V 63.779 L 808.519,42.247 Z M 165.624,42.247 202.92,20.714 v 43.065 z m -21.533,37.296 37.296,21.533 -37.296,21.532 z M 202.92,20.714 240.216,42.247 202.92,63.779 Z M 42.197,299.095 v 43.066 L 4.901,320.628 Z m 182.256,637.126 37.296,21.532 -37.296,21.533 z M 63.729,818.563 101.026,797.03 v 43.066 z m 0,0 v -43.066 l 37.297,21.533 z m 723.257,139.19 37.296,-21.532 -37.296,-21.533 z m 96.125,-80.361 -37.296,21.532 v -43.065 z m 21.533,-37.296 -37.296,-21.533 37.296,-21.533 z m -58.829,58.828 -37.296,-21.532 37.296,-21.533 z M 963.473,181.437 926.177,202.97 v -43.066 z m -37.296,-21.533 v 43.066 l -37.296,-21.533 z m -21.533,-37.296 -37.296,21.533 v -43.065 z m 43.066,117.658 37.296,21.533 -37.296,21.533 z M 685.092,20.714 V 63.779 L 647.796,42.247 Z m 0,0 37.296,21.533 -37.296,21.532 z m -599.83,160.723 37.296,-21.533 v 43.066 z m -21.533,37.296 37.297,21.533 -37.297,21.533 z m 80.362,-96.125 37.296,-21.532 v 43.065 z m -21.533,37.296 37.297,21.533 -37.297,21.533 z M 363.644,20.714 V 63.779 L 326.348,42.247 Z m 0,0 37.296,21.533 -37.296,21.532 z M 63.729,261.799 101.026,240.266 v 43.066 z m -21.532,37.296 37.296,21.533 -37.296,21.533 z m 0,321.448 L 4.901,599.01 42.197,577.477 Z m 0,-556.764 V 20.714 l 37.296,21.533 z m 182.256,872.442 37.296,-21.533 v 43.065 z M 144.091,840.096 V 797.03 l 37.296,21.533 z m 21.533,37.296 37.296,-21.533 v 43.065 z m 37.296,21.532 v -43.065 l 37.296,21.533 z m 423.343,58.829 37.296,-21.532 v 43.065 z m 117.658,0 -37.297,21.533 v -43.065 z m 0,0 -37.297,-21.532 37.297,-21.533 z m -439.106,0 37.296,-21.532 v 43.065 z m 117.658,0 -37.296,21.533 v -43.065 z m -117.658,0 37.296,-21.532 -37.296,-21.533 z M 963.473,738.201 926.177,759.734 V 716.668 Z M 947.71,679.372 985.006,657.839 947.71,636.306 Z m -43.066,117.658 -37.296,21.533 v -43.066 z m 21.533,-37.296 -37.296,-21.533 37.296,-21.533 z M 947.71,957.753 985.006,936.221 947.71,914.688 Z M 824.282,101.076 786.986,122.608 V 79.543 Z m 0,0 v 43.065 L 786.986,122.608 Z M 947.71,357.924 985.006,379.457 947.71,400.99 Z M 743.921,79.543 v 43.065 L 706.624,101.076 Z M 524.368,20.714 V 63.779 L 487.072,42.247 Z m 0,0 37.296,21.533 -37.296,21.532 z m -219.553,58.829 37.296,21.533 -37.296,21.532 z m -80.362,21.533 37.296,21.532 -37.296,21.533 z m 0,0 37.296,-21.533 v 43.065 z M 63.729,700.905 v -43.066 l 37.297,21.533 z m 21.533,37.296 37.296,-21.533 v 43.066 z M 42.197,620.543 v -43.066 l 37.296,21.533 z m 21.532,37.296 37.297,-21.533 v 43.066 z m 0,-278.382 37.297,21.533 -37.297,21.533 z m 0,0 37.297,-21.533 v 43.066 z m 58.829,380.277 v -43.066 l 37.297,21.533 z m 21.533,37.296 37.296,-21.533 v 43.066 z m 321.448,160.723 37.296,-21.532 v 43.065 z m 117.658,0 -37.296,21.533 v -43.065 z m 0,0 -37.296,-21.532 37.296,-21.533 z m 43.066,0 37.296,-21.532 -37.296,-21.533 z m -203.79,0 -37.296,-21.532 37.296,-21.533 z m 43.066,0 37.296,-21.532 -37.296,-21.533 z M 947.71,561.714 985.006,540.181 947.71,518.648 Z M 824.282,818.563 786.986,797.03 824.282,775.497 Z m 0,0 -37.296,21.533 V 797.03 Z m 139.191,-358.744 -37.296,21.533 v -43.066 z m -58.829,-219.553 -37.296,21.533 v -43.066 z m 0,0 v 43.066 L 867.348,261.799 Z M 743.921,122.608 706.624,144.141 v -43.065 z m -117.658,-43.065 37.296,21.533 -37.296,21.532 z m -43.066,0 v 43.065 l -37.296,-21.532 z m 80.362,21.533 v 43.065 l -37.296,-21.533 z m -519.468,139.19 37.296,21.533 -37.296,21.533 z m 0,0 37.296,-21.533 v 43.066 z m 321.448,-160.723 37.296,21.533 -37.296,21.532 z m -43.066,0 v 43.065 l -37.296,-21.532 z m -37.296,21.533 37.296,21.532 -37.296,21.533 z m -43.066,0 v 43.065 L 304.815,122.608 Z M 85.262,459.819 122.558,438.286 v 43.066 z m -21.533,80.362 37.297,-21.533 v 43.066 z m 0,0 v -43.066 l 37.297,21.533 z m 160.724,278.382 37.296,-21.533 v 43.066 z m 0,0 v -43.066 l 37.296,21.533 z m 460.639,80.361 37.296,-21.532 -37.296,-21.533 z m 0,0 -37.296,-21.532 37.296,-21.533 z m -321.448,0 37.296,-21.532 -37.296,-21.533 z m 0,0 -37.296,-21.532 37.296,-21.533 z m 380.277,-58.828 -37.297,-21.533 37.297,-21.533 z m 160.723,-160.724 -37.296,-21.533 37.296,-21.533 z m 0,0 -37.296,21.533 v -43.066 z m 21.533,-198.02 -37.296,-21.533 37.296,-21.533 z M 824.282,218.733 v 43.066 L 786.986,240.266 Z M 802.75,181.437 765.453,202.97 v -43.066 z m -37.297,-21.533 v 43.066 l -37.296,-21.533 z m 139.191,198.02 v 43.066 l -37.296,-21.533 z m -21.533,-37.296 -37.296,21.533 v -43.066 z m 21.533,80.362 -37.296,21.533 v -43.066 z m -358.743,-299.914 37.296,21.532 -37.296,21.533 z m -43.066,0 v 43.065 l -37.296,-21.533 z m -256.849,80.361 37.296,-21.533 v 43.066 z m -21.533,37.296 37.296,21.533 -37.296,21.533 z m 58.829,-58.829 37.296,21.533 -37.296,21.533 z m -139.191,519.468 37.296,-21.533 v 43.066 z m 0,0 v -43.066 l 37.296,21.533 z m 21.533,-358.744 37.296,-21.533 v 43.066 z m -21.533,37.296 37.296,21.533 -37.296,21.533 z m 0,43.066 37.296,-21.533 v 43.066 z m -21.533,37.296 37.297,21.533 -37.297,21.533 z m 182.257,401.81 V 797.03 l 37.296,21.533 z m 219.553,58.828 37.296,-21.532 -37.296,-21.533 z m 0,0 -37.296,-21.532 37.296,-21.533 z M 706.624,818.563 743.921,797.03 706.624,775.497 Z M 883.111,599.01 845.815,620.543 v -43.066 z m 21.533,-37.296 -37.296,-21.533 37.296,-21.533 z m 0,-43.066 -37.296,21.533 V 497.115 Z M 802.75,738.201 765.453,759.734 v -43.066 z m 21.532,-37.296 -37.296,-21.533 37.296,-21.533 z m -58.829,58.829 -37.296,-21.533 37.296,-21.533 z m 80.362,-460.639 v 43.066 l -37.296,-21.533 z m -21.533,-37.296 -37.296,21.533 V 240.266 Z M 604.73,159.904 v 43.066 l -37.296,-21.533 z m 0,0 37.296,21.533 -37.296,21.533 z m -380.277,101.895 37.296,-21.533 v 43.066 z m -21.533,37.296 37.296,21.533 -37.296,21.533 z M 444.006,159.904 V 202.97 L 406.71,181.437 Z m 0,0 37.296,21.533 -37.296,21.533 z m -299.915,401.81 v -43.066 l 37.296,21.533 z m 21.533,37.296 37.296,-21.533 v 43.066 z m -21.533,-80.362 37.296,-21.533 v 43.066 z m 160.724,278.382 37.296,-21.533 v 43.066 z m -80.362,-96.125 v -43.066 l 37.296,21.533 z m 21.533,37.296 37.296,-21.533 v 43.066 z m 37.296,21.533 v -43.066 l 37.296,21.533 z m 299.915,80.362 -37.296,-21.533 37.296,-21.533 z m 43.066,0 37.296,-21.533 -37.296,-21.533 z m 37.296,-21.533 -37.296,-21.533 37.296,-21.533 z m -241.086,21.533 -37.296,-21.533 37.296,-21.533 z m 43.066,0 37.296,-21.533 -37.296,-21.533 z m -80.362,-21.533 37.296,-21.533 -37.296,-21.533 z m 439.105,-160.724 -37.296,21.533 v -43.066 z m 21.533,-37.296 -37.296,-21.533 37.296,-21.533 z M 743.921,240.266 706.624,261.799 v -43.066 z m 0,0 v 43.066 l -37.297,-21.533 z m 80.361,139.191 -37.296,21.533 v -43.066 z m 0,0 v 43.066 L 786.986,400.99 Z M 626.263,240.266 663.559,218.733 v 43.066 z m -241.086,21.533 37.296,-21.533 -37.296,-21.533 z m -43.066,0 -37.296,21.533 v -43.066 z m 0,0 -37.296,-21.533 37.296,-21.533 z M 240.216,599.01 202.92,620.543 v -43.066 z m 21.533,37.296 v 43.066 l -37.296,-21.533 z m 0,-235.316 -37.296,21.533 v -43.066 z m 0,0 -37.296,-21.533 37.296,-21.533 z m 241.086,417.573 -37.296,-21.533 37.296,-21.533 z m 43.066,-43.066 37.296,21.533 -37.296,21.533 z m 241.085,-256.849 37.296,-21.533 v 43.066 z m 0,0 37.296,21.533 -37.296,21.533 z m -80.362,139.191 37.297,-21.533 v 43.066 z m 0,0 37.297,21.533 -37.297,21.533 z m 58.829,-219.553 37.297,21.533 -37.297,21.533 z m -139.19,-198.02 37.296,21.533 -37.296,21.533 z m -43.066,0 -37.296,21.533 v -43.066 z m -117.658,0 37.296,-21.533 v 43.066 z m 117.658,0 v 43.066 l -37.296,-21.533 z m -117.658,0 37.296,21.533 -37.296,21.533 z m -80.362,21.533 37.296,-21.533 v 43.066 z m -139.191,198.02 37.296,-21.533 v 43.066 z m -21.533,80.362 37.296,-21.533 v 43.066 z m 0,0 v -43.066 l 37.296,21.533 z m 117.658,117.658 v 43.066 l -37.296,-21.533 z m 0,0 -37.296,21.533 v -43.066 z m 262.619,58.829 37.296,21.533 -37.296,21.533 z m 0,0 v 43.066 l -37.296,-21.533 z m -160.724,0 37.296,21.533 -37.296,21.533 z m 0,0 v 43.066 L 406.71,738.201 Z m 219.553,-58.829 v 43.066 l -37.296,-21.533 z m 64.598,-198.02 37.296,-21.533 v 43.066 z m -21.533,-80.362 37.297,-21.533 v 43.066 z m -21.532,-37.296 v -43.066 l 37.296,21.533 z m -37.296,-21.533 37.296,-21.533 v 43.066 z m 58.828,101.895 37.297,-21.533 -37.297,-21.533 z m -342.98,-80.362 -37.296,-21.533 37.296,-21.533 z m -21.533,37.296 -37.296,21.533 v -43.066 z m 58.829,-58.829 -37.296,21.533 v -43.066 z m -58.829,101.895 -37.296,-21.533 37.296,-21.533 z m -21.533,37.296 -37.296,21.533 v -43.066 z m 101.895,219.553 -37.296,21.533 v -43.066 z m 203.79,-43.066 37.296,21.533 -37.296,21.533 z m 58.829,-58.829 37.296,21.533 -37.296,21.533 z m 21.532,-37.296 37.297,-21.533 v 43.066 z m 0,-43.066 37.297,21.533 -37.297,21.533 z m -58.828,101.895 37.296,-21.533 v 43.066 z M 524.368,342.161 487.072,320.628 524.368,299.095 Z m 0,0 v -43.066 l 37.296,21.533 z m -182.257,198.02 -37.296,21.533 v -43.066 z m 21.533,37.296 v 43.066 L 326.348,599.01 Z m -21.533,-80.362 v 43.066 l -37.296,-21.533 z m 80.362,139.191 v 43.066 L 385.177,657.839 Z M 400.94,599.01 363.644,620.543 v -43.066 z m 101.895,58.829 v 43.066 l -37.296,-21.533 z m 43.066,0 37.296,21.533 -37.296,21.533 z m 37.296,-21.533 v 43.066 l -37.296,-21.533 z m -117.658,0 37.296,21.533 -37.296,21.533 z M 626.263,400.99 663.559,379.457 626.263,357.924 Z m 0,0 37.296,-21.533 v 43.066 z m -80.362,-21.533 37.296,-21.533 v 43.066 z m -80.362,21.533 37.296,-21.533 -37.296,-21.533 z m -43.066,0 -37.296,21.533 v -43.066 z m 0,0 -37.296,-21.533 37.296,-21.533 z m 203.79,117.658 37.296,-21.533 v 43.066 z m 0,0 37.296,21.533 -37.296,21.533 z m -21.533,-80.362 37.296,21.533 -37.296,21.533 z m -58.829,-15.763 37.296,-21.533 -37.296,-21.533 z m -43.066,0 -37.296,-21.533 37.296,-21.533 z m -58.829,58.829 -37.296,-21.533 37.296,-21.533 z m -21.533,37.296 v 43.066 l -37.296,-21.533 z m 0,0 -37.296,21.533 v -43.066 z m 101.895,58.829 37.296,21.533 -37.296,21.533 z m 0,0 v 43.066 L 487.072,599.01 Z m 58.829,-58.829 v 43.066 l -37.296,-21.533 z m -15.763,-58.829 37.296,-21.533 v 43.066 z m -86.132,0 -37.296,21.533 v -43.066 z m 21.533,80.362 -37.296,21.533 v -43.066 z m 43.066,-43.066 37.296,21.533 -37.296,21.533 z m -43.066,0 v 43.066 L 465.539,518.648 Z M 101.026,957.753 63.729,979.286 m 803.619,0 37.296,-21.533 m -760.553,0 37.296,21.533 m 605.599,-21.533 37.296,21.533 m -117.658,0 37.297,-21.533 m -439.106,0 37.296,21.533 m 203.79,0 37.296,-21.533 m 43.066,0 37.296,21.533 m -278.382,0 37.296,-21.533 m 43.066,0 37.296,21.533 M 101.026,957.753 h 43.065 L 122.558,995.05 Z M 42.197,898.924 63.729,936.221 H 20.664 Z m 0,-43.065 -21.533,-37.296 h 43.065 z m 825.151,80.362 h -43.066 l 21.533,-37.297 z m 80.362,-813.613 -21.533,37.296 -21.533,-37.296 z m -846.684,0 h 43.065 l -21.533,37.296 z M 63.729,261.799 42.197,299.095 20.664,261.799 Z m 117.658,674.422 21.533,-37.297 21.533,37.297 z m 605.599,21.532 -21.533,37.297 -21.532,-37.297 z m -525.237,0 h 43.066 L 283.282,995.05 Z M 947.71,797.03 h -43.066 l 21.533,-37.296 z M 867.348,101.076 H 824.282 L 845.815,63.779 Z M 42.197,63.779 63.729,101.076 H 20.664 Z m 160.723,0 21.533,37.297 H 181.387 Z M 42.197,620.543 63.729,657.839 H 20.664 Z m 0,-278.382 21.532,37.296 H 20.664 Z m 58.829,454.869 21.532,-37.296 21.533,37.296 z m 482.171,160.723 h 43.066 L 604.73,995.05 Z m -160.724,0 h 43.066 l -21.533,37.297 z m 525.237,0 -21.533,37.297 -21.533,-37.297 z M 845.815,855.859 824.282,818.563 h 43.066 z M 947.71,240.266 H 904.644 L 926.177,202.97 Z M 685.092,63.779 706.624,101.076 H 663.559 Z M 122.558,202.97 144.091,240.266 H 101.026 Z M 363.644,63.779 385.177,101.076 H 342.111 Z M 42.197,577.477 20.664,540.181 h 43.065 z m 139.19,241.086 h 43.066 l -21.533,37.296 z m 482.172,117.658 21.533,-37.297 21.532,37.297 z m -321.448,0 21.533,-37.297 21.533,37.297 z M 926.177,716.668 904.644,679.372 H 947.71 Z M 786.986,122.608 765.453,159.904 743.921,122.608 Z M 947.71,400.99 926.177,438.286 904.644,400.99 Z M 524.368,63.779 l 21.533,37.297 h -43.066 z m -219.553,58.829 -21.533,37.296 -21.533,-37.296 z M 101.026,679.372 h 43.065 l -21.533,37.296 z m 0,-278.382 h 43.065 l -21.533,37.296 z m 401.809,535.231 21.533,-37.297 21.533,37.297 z M 947.71,518.648 h -43.066 l 21.533,-37.296 z M 786.986,797.03 h -43.065 l 21.532,-37.296 z m 80.362,-535.231 -21.533,37.296 -21.533,-37.296 z M 626.263,122.608 604.73,159.904 583.197,122.608 Z M 181.387,261.799 h 43.066 l -21.533,37.296 z m 284.152,-139.191 -21.533,37.296 -21.533,-37.296 z m -342.981,358.744 21.533,37.296 h -43.065 z m 139.191,315.678 21.533,-37.296 21.533,37.296 z m 423.343,58.829 -21.533,-37.296 h 43.065 z m -321.448,0 -21.533,-37.296 h 43.066 z m 503.704,-198.02 h -43.066 l 21.533,-37.296 z M 786.986,240.266 h -43.065 l 21.532,-37.296 z m 80.362,139.191 h -43.066 l 21.533,-37.296 z M 283.282,202.97 l 21.533,37.296 h -43.066 z m -101.895,454.869 21.533,-37.296 21.533,37.296 z m 21.533,-315.678 21.533,37.296 h -43.066 z m 321.448,513.698 -21.533,-37.296 h 43.066 z M 845.815,577.477 824.282,540.181 h 43.066 z m -80.362,139.191 -21.532,-37.296 h 43.065 z M 583.197,240.266 604.73,202.97 l 21.533,37.296 z m -160.724,0 21.533,-37.296 21.533,37.296 z m -198.02,299.915 -21.533,37.296 -21.533,-37.296 z m 37.296,139.191 h 43.066 l -21.533,37.296 z m 342.981,80.362 21.533,37.296 h -43.066 z m -160.724,0 21.533,37.296 H 422.473 Z M 685.092,299.095 663.559,261.799 h 43.065 z m 58.829,101.895 h 43.065 l -21.533,37.296 z M 342.111,261.799 h 43.066 l -21.533,37.296 z M 261.749,400.99 h 43.066 l -21.533,37.296 z m 482.172,117.658 21.532,-37.296 21.533,37.296 z m -58.829,101.895 21.532,37.296 H 663.559 Z M 524.368,299.095 502.835,261.799 h 43.066 z M 304.815,518.648 h -43.066 l 21.533,-37.296 z m 58.829,101.895 21.533,37.296 h -43.066 z m 219.553,58.829 h 43.066 l -21.533,37.296 z m -117.658,0 -21.533,37.296 -21.533,-37.296 z m 198.02,-299.915 21.533,-37.296 21.532,37.296 z m -278.382,0 h -43.066 l 21.533,-37.296 z m 278.382,160.724 h 43.065 l -21.532,37.296 z m -160.724,-160.724 21.533,-37.296 21.533,37.296 z m -117.658,160.724 -21.533,37.296 -21.533,-37.296 z m 139.191,80.362 21.533,37.296 H 502.835 Z M 604.73,438.286 583.197,400.99 h 43.066 z m -160.724,0 -21.533,-37.296 h 43.066 z m 139.191,80.362 21.533,-37.296 21.533,37.296 z m -117.658,0 h -43.066 l 21.533,-37.296 z m 37.296,21.533 h 43.066 l -21.533,37.296 z M 101.026,79.543 122.558,42.247 144.091,4.95 M 101.026,914.688 79.493,877.392 42.197,855.859 20.664,818.563 M 904.644,79.543 926.177,42.247 947.71,4.95 m -43.066,835.146 21.533,37.296 21.533,37.296 37.296,21.533 m -803.619,0 -37.296,21.532 H 101.026 L 63.729,936.221 42.197,898.924 4.901,877.392 M 985.006,218.733 963.473,181.437 926.177,159.904 M 63.729,218.733 42.197,181.437 20.664,144.141 M 63.729,775.497 42.197,738.201 m 43.065,0 H 42.197 L 20.664,700.905 M 969.243,42.247 947.71,79.543 926.177,42.247 Z m -889.75,0 h 43.065 L 101.026,79.543 Z M 947.71,914.688 926.177,877.392 h 43.066 z m 0,0 h -43.066 l 21.533,-37.296 z m 21.533,-37.296 H 926.177 L 947.71,840.096 Z M 947.71,79.543 H 904.644 L 926.177,42.247 Z M 926.177,42.247 H 883.111 L 904.644,4.95 Z m 0,0 -21.533,37.296 -21.533,-37.296 z M 63.729,144.141 42.197,181.437 20.664,144.141 Z M 122.558,42.247 144.091,4.95 165.624,42.247 Z m 0,0 21.533,37.296 h -43.065 z m 0,0 h 43.066 L 144.091,79.543 Z M 79.493,877.392 h 43.065 l -21.532,37.296 z m 0,0 21.533,-37.296 21.532,37.296 z m 21.533,37.296 21.532,-37.296 21.533,37.296 z m 803.618,0 -21.533,-37.296 h 43.066 z m 21.533,-37.296 -21.533,-37.296 h 43.066 z m 0,0 h -43.066 l 21.533,-37.296 z M 808.519,42.247 H 765.453 L 786.986,4.95 Z m -43.066,0 H 722.388 L 743.921,4.95 Z M 63.729,144.141 85.262,181.437 H 42.197 Z m -21.532,37.296 21.532,37.296 H 20.664 Z m 0,0 H 85.262 L 63.729,218.733 Z M 326.348,42.247 H 283.282 L 304.815,4.95 Z m -43.066,0 H 240.216 L 261.749,4.95 Z M 42.197,738.201 63.729,775.497 H 20.664 Z m 58.829,101.895 h 43.065 l -21.533,37.296 z m 21.532,37.296 h 43.066 l -21.533,37.296 z m 0,0 21.533,-37.296 21.533,37.296 z M 808.519,42.247 786.986,79.543 765.453,42.247 Z m -729.026,0 21.533,-37.297 21.532,37.297 z m 685.96,0 -21.532,37.296 -21.533,-37.296 z m 0,0 21.533,37.296 h -43.065 z m -117.657,0 H 604.73 L 626.263,4.95 Z m -43.066,0 H 561.664 L 583.197,4.95 Z m -117.658,0 H 444.006 L 465.539,4.95 Z m -43.066,0 H 400.94 L 422.473,4.95 Z m -117.658,0 -21.533,37.296 -21.533,-37.296 z m -43.066,0 -21.533,37.296 -21.533,-37.296 z m 0,0 21.533,37.296 H 261.749 Z M 42.197,738.201 20.664,700.905 h 43.065 z m 0,0 h 43.065 l -21.533,37.296 z m 0,0 21.532,-37.296 21.533,37.296 z M 63.729,422.523 42.197,459.819 20.664,422.523 Z m 723.257,492.165 -21.533,-37.296 h 43.066 z m 0,0 h -43.065 l 21.532,-37.296 z M 969.243,42.247 H 926.177 L 947.71,4.95 Z M 808.519,877.392 h -43.066 l 21.533,-37.296 z m 80.362,-695.955 h -43.066 l 21.533,-37.296 z m 0,0 -21.533,37.296 -21.533,-37.296 z m -21.533,-37.296 -21.533,37.296 -21.533,-37.296 z m 101.895,176.487 h -43.066 l 21.533,-37.296 z m 0,0 -21.533,37.296 -21.533,-37.296 z M 947.71,283.332 926.177,320.628 904.644,283.332 Z M 647.796,42.247 626.263,79.543 604.73,42.247 Z m -43.066,0 -21.533,37.296 -21.533,-37.296 z m 0,0 21.533,37.296 h -43.066 z m -117.658,0 -21.533,37.296 -21.533,-37.296 z m -43.066,0 -21.533,37.296 -21.533,-37.296 z m 0,0 21.533,37.296 h -43.066 z m -262.619,101.894 21.533,37.296 h -43.065 z m 0,0 h 43.066 l -21.533,37.296 z m -21.532,37.296 h 43.065 l -21.533,37.296 z m -58.829,101.895 21.532,37.296 H 79.493 Z m 0,0 h 43.065 l -21.533,37.296 z m -21.533,37.296 h 43.065 l -21.532,37.296 z M 63.729,422.523 85.262,459.819 H 42.197 Z m -21.532,37.296 21.532,37.296 H 20.664 Z m 0,0 h 43.065 l -21.533,37.296 z m 219.552,454.869 21.533,-37.296 21.533,37.296 z m 0,0 -21.533,-37.296 h 43.066 z m -21.533,-37.296 21.533,-37.296 21.533,37.296 z m 503.705,37.296 -21.533,-37.296 h 43.065 z m -439.106,0 -21.533,-37.296 h 43.066 z m 460.638,-37.296 -21.532,-37.296 h 43.065 z m 0,0 h -43.065 l 21.533,-37.296 z M 947.71,636.306 926.177,599.01 h 43.066 z m 0,0 H 904.644 L 926.177,599.01 Z M 969.243,599.01 H 926.177 L 947.71,561.714 Z M 867.348,775.497 845.815,738.201 h 43.066 z m 0,0 h -43.066 l 21.533,-37.296 z m 21.533,-37.296 h -43.066 l 21.533,-37.296 z M 867.348,218.733 h -43.066 l 21.533,-37.296 z M 845.815,181.437 H 802.75 l 21.532,-37.296 z m 0,0 -21.533,37.296 -21.532,-37.296 z M 947.71,357.924 h -43.066 l 21.533,-37.296 z m -21.533,-37.296 h -43.066 l 21.533,-37.296 z m 0,0 -21.533,37.296 -21.533,-37.296 z M 224.453,144.141 245.986,181.437 H 202.92 Z m -21.533,37.296 21.533,37.296 h -43.066 z m 0,0 h 43.066 l -21.533,37.296 z m -58.829,101.895 21.533,37.296 h -43.066 z m -21.533,37.296 21.533,37.296 h -43.065 z m 0,0 h 43.066 l -21.533,37.296 z M 79.493,599.01 h 43.065 l -21.532,37.296 z m 0,0 21.533,-37.296 21.532,37.296 z m 21.533,37.296 21.532,-37.296 21.533,37.296 z m 182.256,241.086 21.533,-37.296 21.533,37.296 z m 0,0 -21.533,-37.296 h 43.066 z M 159.855,738.201 h 43.065 l -21.533,37.296 z m 0,0 21.532,-37.296 21.533,37.296 z m 21.532,37.296 21.533,-37.296 21.533,37.296 z m 401.81,139.191 21.533,-37.296 21.533,37.296 z m 0,0 -21.533,-37.296 h 43.066 z m 43.066,0 -21.533,-37.296 h 43.066 z m -203.79,0 21.533,-37.296 21.533,37.296 z m 0,0 -21.533,-37.296 h 43.066 z m 43.066,0 -21.533,-37.296 h 43.066 z M 904.644,636.306 883.111,599.01 h 43.066 z m 21.533,-37.296 -21.533,-37.296 h 43.066 z m 0,0 h -43.066 l 21.533,-37.296 z M 824.282,775.497 802.75,738.201 h 43.065 z m 21.533,-37.296 -21.533,-37.296 h 43.066 z m 0,0 H 802.75 l 21.532,-37.296 z m -139.191,-594.06 -21.532,37.296 -21.533,-37.296 z m 0,0 21.533,37.296 h -43.065 z m -43.065,0 21.533,37.296 h -43.066 z m -278.382,0 -21.533,37.296 -21.533,-37.296 z m 0,0 21.533,37.296 h -43.066 z m -43.066,0 21.533,37.296 H 320.578 Z M 101.026,561.714 h 43.065 l -21.533,37.296 z m 21.532,37.296 h 43.066 l -21.533,37.296 z m 0,0 21.533,-37.296 21.533,37.296 z m 58.829,101.895 h 43.066 l -21.533,37.296 z m 21.533,37.296 h 43.066 l -21.533,37.296 z m 0,0 21.533,-37.296 21.533,37.296 z m 358.744,139.191 21.533,-37.296 21.533,37.296 z m 43.066,0 21.533,-37.296 21.533,37.296 z m 0,0 -21.533,-37.296 h 43.066 z m -203.79,0 21.533,-37.296 21.533,37.296 z m 43.066,0 21.533,-37.296 21.533,37.296 z m 0,0 -21.533,-37.296 h 43.066 z M 888.881,459.819 h -43.066 l 21.533,-37.296 z m 0,0 -21.533,37.296 -21.533,-37.296 z M 728.157,181.437 706.624,218.733 685.092,181.437 Z m 139.191,241.086 -21.533,37.296 -21.533,-37.296 z M 685.092,181.437 663.559,218.733 642.026,181.437 Z m 0,0 21.532,37.296 h -43.065 z m -139.191,-37.296 -21.533,37.296 -21.533,-37.296 z m 0,0 21.533,37.296 h -43.066 z m -43.066,0 21.533,37.296 h -43.066 z m -96.125,37.296 -21.533,37.296 -21.533,-37.296 z m -43.066,0 -21.533,37.296 -21.533,-37.296 z m 0,0 21.533,37.296 h -43.066 z m -182.257,241.086 21.533,37.296 h -43.065 z m 0,0 h 43.066 l -21.533,37.296 z m -21.532,37.296 h 43.065 l -21.533,37.296 z m 546.769,315.678 -21.532,-37.296 h 43.065 z m 0,0 h -43.065 l 21.533,-37.296 z M 867.348,497.115 h -43.066 l 21.533,-37.296 z M 728.157,738.201 h -43.065 l 21.532,-37.296 z M 845.815,459.819 H 802.75 l 21.532,-37.296 z m 0,0 -21.533,37.296 -21.532,-37.296 z M 808.519,320.628 h -43.066 l 21.533,-37.296 z m 0,0 -21.533,37.296 -21.533,-37.296 z m -21.533,-37.296 -21.533,37.296 -21.532,-37.296 z M 545.901,218.733 524.368,181.437 h 43.066 z m -43.066,0 -21.533,-37.296 h 43.066 z m 0,0 21.533,-37.296 21.533,37.296 z M 283.282,320.628 h -43.066 l 21.533,-37.296 z m 0,0 -21.533,-37.296 h 43.066 z m -21.533,37.296 -21.533,-37.296 h 43.066 z M 245.986,459.819 H 202.92 l 21.533,-37.296 z m -43.066,0 21.533,37.296 h -43.066 z m 43.066,0 -21.533,37.296 -21.533,-37.296 z m 96.125,315.678 21.533,-37.296 21.533,37.296 z m 0,0 -21.533,-37.296 h 43.066 z m -21.533,-37.296 21.533,-37.296 21.533,37.296 z m 321.448,0 h 43.066 l -21.533,37.296 z m -235.316,0 -21.533,37.296 -21.533,-37.296 z m 256.849,-37.296 h 43.065 l -21.532,37.296 z m 0,0 21.533,37.296 H 642.026 Z M 765.453,599.01 h 43.066 l -21.533,37.296 z m 0,0 21.533,37.296 h -43.065 z m 21.533,-37.296 21.533,37.296 h -43.066 z m -43.065,-203.79 21.532,-37.296 21.533,37.296 z m -21.533,-37.296 21.533,-37.296 21.532,37.296 z m 0,0 h 43.065 l -21.532,37.296 z m -439.106,0 21.533,-37.296 21.533,37.296 z m -21.533,37.296 21.533,-37.296 21.533,37.296 z m 21.533,-37.296 h 43.066 l -21.533,37.296 z M 261.749,636.306 240.216,599.01 h 43.066 z m -21.533,-37.296 21.533,-37.296 21.533,37.296 z m 21.533,37.296 21.533,-37.296 21.533,37.296 z m 123.428,64.599 21.533,37.296 h -43.066 z m 0,0 -21.533,37.296 -21.533,-37.296 z m 139.191,37.296 21.533,37.296 h -43.066 z m 0,0 -21.533,37.296 -21.533,-37.296 z m 43.066,0 -21.533,37.296 -21.533,-37.296 z M 722.388,599.01 h 43.065 l -21.532,37.296 z m 21.533,-37.296 h 43.065 l -21.533,37.296 z m 0,0 21.532,37.296 H 722.388 Z M 604.73,320.628 583.197,283.332 h 43.066 z m 0,0 21.533,-37.296 21.533,37.296 z m -43.066,0 21.533,-37.296 21.533,37.296 z m -117.658,0 -21.533,-37.296 h 43.066 z m 0,0 21.533,-37.296 21.533,37.296 z m -43.066,0 21.533,-37.296 21.533,37.296 z m -96.125,241.086 -21.533,37.296 -21.533,-37.296 z m 21.533,37.296 -21.533,37.296 -21.533,-37.296 z m 0,0 h -43.066 l 21.533,-37.296 z m 176.487,101.895 21.533,37.296 h -43.066 z m 43.066,0 21.533,37.296 h -43.066 z m 0,0 -21.533,37.296 -21.533,-37.296 z m 139.191,-241.086 21.532,-37.296 21.533,37.296 z m 0,0 h 43.065 l -21.533,37.296 z M 626.263,357.924 604.73,320.628 h 43.066 z m 37.296,64.599 h 43.065 l -21.532,37.296 z m -80.362,-64.599 -21.533,-37.296 h 43.066 z m 0,0 21.533,-37.296 21.533,37.296 z m -117.658,0 -21.533,-37.296 h 43.066 z m -43.066,0 -21.533,-37.296 h 43.066 z m 0,0 21.533,-37.296 21.533,37.296 z m -58.829,101.895 h -43.066 l 21.533,-37.296 z m 0,0 -21.533,-37.296 h 43.066 z m -21.533,37.296 -21.533,-37.296 h 43.066 z M 604.73,599.01 h 43.066 l -21.533,37.296 z m 0,0 21.533,37.296 h -43.066 z m 58.829,-101.895 21.533,-37.296 21.532,37.296 z m -37.296,64.599 21.533,37.296 H 604.73 Z m 15.763,-101.895 21.533,-37.296 21.533,37.296 z m 0,0 h 43.066 l -21.533,37.296 z m -235.316,0 h -43.066 l 21.533,-37.296 z m -21.533,37.296 h -43.066 l 21.533,-37.296 z m 0,0 -21.533,-37.296 h 43.066 z m 58.829,101.895 21.533,37.296 h -43.066 z m 0,0 -21.533,37.296 -21.533,-37.296 z m -21.533,-37.296 21.533,37.296 H 400.94 Z m 139.191,37.296 h 43.066 l -21.533,37.296 z m -74.592,0 -21.533,37.296 -21.533,-37.296 z m 96.125,-37.296 h 43.066 L 604.73,599.01 Z m 0,0 21.533,37.296 h -43.066 z m -117.658,0 21.533,37.296 h -43.066 z m 0,0 -21.533,37.296 -21.533,-37.296 z m 58.829,-101.895 -21.533,-37.296 h 43.066 z m 0,0 21.533,-37.296 21.533,37.296 z m -43.066,0 21.533,-37.296 21.533,37.296 z m 64.599,37.296 -21.533,-37.296 h 43.066 z m -43.066,0 -21.533,-37.296 h 43.066 z m 0,0 21.533,-37.296 21.533,37.296 z M 165.624,877.392 H 122.558 79.493 l -37.296,21.532 -21.533,37.297 m 825.151,-37.297 37.296,-21.532 21.533,-37.296 V 797.03 m 21.533,-37.296 37.296,-21.533 21.533,-37.296 m -117.658,117.658 37.296,-21.533 21.533,-37.296 m 0,-556.764 37.296,-21.533 21.533,-37.296 M 786.986,79.543 765.453,42.247 743.921,4.95 M 20.664,101.076 42.197,63.779 79.493,42.247 h 43.065 43.066 M 743.921,79.543 765.453,42.247 786.986,4.95 M 304.815,79.543 283.282,42.247 261.749,4.95 m 0,74.593 L 283.282,42.247 304.815,4.95 M 20.664,775.497 42.197,738.201 63.729,700.905 m 80.362,96.125 v 43.066 l 21.533,37.296 37.296,21.532 M 181.387,818.563 144.091,797.03 122.558,759.734 85.262,738.201 63.729,700.905 v -43.066 m 139.191,198.02 v 43.065 l 21.533,37.297 37.296,21.532 m 444.875,-21.532 37.297,21.532 h 43.065 l 37.296,-21.532 21.533,-37.297 v -43.065 m -621.362,123.427 37.296,-21.533 h 43.066 l 37.296,-21.532 m 546.77,-198.02 -21.533,37.296 v 43.066 l -21.533,37.296 -37.296,21.533 -21.533,37.296 v 43.065 l -21.533,37.297 m 101.895,-776.317 21.533,-37.296 37.296,-21.533 21.533,-37.296 V 79.543 L 926.177,42.247 904.644,4.95 M 626.263,79.543 604.73,42.247 583.197,4.95 m 0,74.593 L 604.73,42.247 626.263,4.95 M 465.539,79.543 444.006,42.247 422.473,4.95 m 0,74.593 L 444.006,42.247 465.539,4.95 M 20.664,218.733 42.197,181.437 63.729,144.141 101.026,122.608 h 43.065 l 37.296,21.533 h 43.066 m 37.296,-21.533 -37.296,-21.532 H 181.387 L 144.091,79.543 122.558,42.247 101.026,4.95 m 0,352.974 L 79.493,320.628 42.197,299.095 20.664,261.799 M 101.026,636.306 79.493,599.01 42.197,577.477 20.664,540.181 M 63.729,497.115 42.197,459.819 20.664,422.523 m 101.894,294.145 37.297,21.533 21.532,37.296 m 284.152,139.191 h -43.066 l -37.296,21.533 h -43.066 l -37.296,-21.533 -21.533,-37.296 -21.533,-37.296 m 482.172,0 21.532,37.296 21.533,37.296 37.296,21.533 h 43.066 l 37.296,-21.533 21.533,-37.296 21.533,-37.296 m -21.533,-358.744 37.296,-21.533 21.533,-37.296 m 0,74.592 -21.533,-37.296 -37.296,-21.533 M 722.388,42.247 h 43.065 43.066 l 37.296,21.532 21.533,37.297 v 43.065 l -21.533,37.296 -21.533,37.296 M 802.75,181.437 h 43.065 43.066 l 37.296,21.533 21.533,37.296 v 43.066 l -21.533,37.296 -21.533,37.296 M 101.026,283.332 v -43.066 l 21.532,-37.296 37.297,-21.533 h 43.065 43.066 M 20.664,379.457 42.197,342.161 79.493,320.628 h 43.065 43.066 m 139.191,519.468 21.533,37.296 37.296,21.532 m 0,-43.065 v 43.065 l 21.533,37.297 v 43.065 M 743.921,797.03 v 43.066 l -21.533,37.296 -37.296,21.532 -21.533,37.297 v 43.065 M 802.75,738.201 h 43.065 43.066 l 37.296,-21.533 21.533,-37.296 V 636.306 L 926.177,599.01 904.644,561.714 m -80.362,139.191 21.533,37.296 21.533,37.296 37.296,21.533 h 43.066 l 37.296,-21.533 M 904.644,400.99 v -43.066 l -21.533,-37.296 -37.296,-21.533 m -80.362,-139.191 37.297,21.533 21.532,37.296 v 43.066 M 765.453,202.97 802.75,181.437 824.282,144.141 V 101.076 L 845.815,63.779 883.111,42.247 904.644,4.95 m -342.98,37.297 h 43.066 43.066 l 37.296,21.532 21.532,37.297 v 43.065 l 21.533,37.296 m 58.829,58.829 37.296,21.533 21.533,37.296 v 43.066 M 224.453,261.799 v -43.066 l 21.533,-37.296 37.296,-21.533 M 144.091,400.99 v -43.066 l 21.533,-37.296 37.296,-21.533 M 224.453,218.733 202.92,181.437 181.387,144.141 V 101.076 L 202.92,63.779 240.216,42.247 h 43.066 43.066 l 37.296,21.532 21.533,37.297 v 43.065 l 21.533,37.296 m -203.79,117.658 21.533,-37.296 37.296,-21.533 M 101.026,679.372 63.729,657.839 42.197,620.543 v -43.066 l 21.532,-37.296 v -43.066 l 21.533,-37.296 37.296,-21.533 21.533,-37.296 37.296,-21.533 M 20.664,657.839 42.197,620.543 79.493,599.01 h 43.065 43.066 m 58.829,101.895 -21.533,37.296 -21.533,37.296 v 43.066 l 21.533,37.296 37.296,21.533 21.533,37.296 v 43.065 l 21.533,37.297 m 299.915,-154.954 21.533,37.296 21.533,37.296 37.296,21.533 h 43.065 l 37.297,-21.533 21.532,-37.296 21.533,-37.296 m -364.513,0 21.533,37.296 21.533,37.296 37.296,21.533 h 43.066 l 37.296,-21.533 21.533,-37.296 21.533,-37.296 m -203.79,74.592 21.533,-37.296 21.533,-37.296 m 299.914,-80.362 37.297,-21.533 21.532,-37.296 v -43.066 m 21.533,-37.296 37.296,-21.533 21.533,-37.296 v -43.066 m -37.296,-139.191 37.296,21.533 21.533,37.296 v 43.066 l -21.533,37.296 -37.296,21.533 m 0,-278.382 37.296,21.533 21.533,37.296 21.533,37.296 v 43.066 l -21.533,37.296 -37.296,21.533 -21.533,37.296 m -80.362,182.257 37.296,-21.533 21.533,-37.296 v -43.066 m -117.658,160.724 -21.533,37.296 v 43.066 l -21.532,37.296 -37.296,21.533 -21.533,37.296 v 43.065 L 604.73,995.05 m -58.829,-850.909 37.296,-21.533 h 43.066 l 37.296,21.533 21.533,37.296 21.532,37.296 M 481.302,181.437 502.835,144.141 V 101.076 L 524.368,63.779 561.664,42.247 583.197,4.95 m -401.81,213.783 21.533,-37.296 21.533,-37.296 37.296,-21.533 h 43.066 l 37.296,21.533 21.533,37.296 21.533,37.296 M 202.92,620.543 165.624,599.01 144.091,561.714 v -43.066 m 80.362,139.191 v 43.066 l 21.533,37.296 37.296,21.533 M 20.664,497.115 42.197,459.819 63.729,422.523 101.026,400.99 h 43.065 l 37.296,21.533 h 43.066 M 181.387,540.181 144.091,518.648 122.558,481.352 85.262,459.819 63.729,422.523 V 379.457 M 224.453,657.839 202.92,620.543 v -43.066 m -80.362,-139.191 37.297,21.533 21.532,37.296 m 101.895,219.553 -37.296,21.533 -21.533,37.296 v 43.066 l -21.533,37.296 -37.296,21.533 -21.533,37.296 v 43.065 l -21.533,37.297 m 380.277,-176.487 -37.296,21.533 h -43.066 l -37.296,-21.533 h -43.066 l -37.296,21.533 h -43.066 l -37.296,-21.533 h -43.066 l -37.296,21.533 -21.533,37.296 -21.532,37.296 v 43.065 l 21.532,37.297 m 503.705,-198.02 37.296,21.533 h 43.065 l 37.297,-21.533 21.532,-37.296 v -43.066 m 43.066,-396.04 37.296,21.533 21.533,37.296 v 43.066 l -21.533,37.296 -21.533,37.296 M 985.006,775.497 963.473,738.201 926.177,716.668 904.644,679.372 V 636.306 L 883.111,599.01 845.815,577.477 824.282,540.181 V 497.115 L 802.75,459.819 m -198.02,-299.915 37.296,21.533 21.533,37.296 v 43.066 M 545.901,218.733 524.368,181.437 502.835,144.141 465.539,122.608 h -43.066 l -37.296,21.533 -21.533,37.296 -21.533,37.296 m 160.724,0 21.533,-37.296 21.533,-37.296 V 101.076 L 524.368,63.779 487.072,42.247 H 444.006 400.94 l -37.296,21.532 -21.533,37.297 v 43.065 l -21.533,37.296 M 101.026,400.99 v -43.066 l 21.532,-37.296 21.533,-37.296 37.296,-21.533 h 43.066 l 37.296,21.533 h 43.066 M 20.664,218.733 h 43.065 l 37.297,21.533 h 43.065 l 37.296,-21.533 h 43.066 l 37.296,21.533 h 43.066 l 37.296,21.533 m 0,439.106 21.533,37.296 21.533,37.296 37.296,21.533 h 43.066 l 37.296,-21.533 h 43.066 m 96.125,-37.296 h 43.066 43.065 l 37.296,-21.533 21.533,-37.296 v -43.066 m -123.427,64.599 21.533,37.296 21.532,37.296 37.297,21.533 h 43.065 l 37.296,-21.533 21.533,-37.296 21.533,-37.296 m -80.362,-139.191 21.533,37.296 37.296,21.533 21.533,37.296 v 43.066 l 21.533,37.296 37.296,21.533 21.533,37.296 v 43.066 l 21.533,37.296 -21.533,37.296 v 43.065 L 926.177,995.05 M 765.453,481.352 802.75,459.819 824.282,422.523 v -43.066 l 21.533,-37.296 37.296,-21.533 21.533,-37.296 V 240.266 M 642.026,181.437 h 43.066 43.065 l 37.296,21.533 21.533,37.296 v 43.066 l -21.533,37.296 -21.532,37.296 m -117.658,-117.658 37.296,-21.533 21.533,-37.296 21.532,-37.296 37.297,-21.533 h 43.065 l 37.296,21.533 21.533,37.296 21.533,37.296 v 43.066 l -21.533,37.296 -37.296,21.533 h -43.066 -43.065 m 21.533,80.362 V 357.924 L 722.388,320.628 685.092,299.095 M 224.453,497.115 202.92,459.819 181.387,422.523 v -43.066 l 21.533,-37.296 37.296,-21.533 h 43.066 43.066 m 15.763,454.869 -37.296,21.533 H 261.749 L 224.453,775.497 202.92,738.201 181.387,700.905 v -43.066 l 21.533,-37.296 37.296,-21.533 21.533,-37.296 M 304.815,400.99 v -43.066 l 21.533,-37.296 37.296,-21.533 21.533,-37.296 v -43.066 l 21.533,-37.296 37.296,-21.533 21.533,-37.296 V 79.543 l 21.533,-37.296 37.296,-21.533 37.296,21.533 21.533,37.296 v 43.065 l 21.533,37.296 V 202.97 M 224.453,540.181 v -43.066 l 21.533,-37.296 37.296,-21.533 m -21.533,80.362 -37.296,21.533 -21.533,37.296 -37.296,21.533 -21.533,37.296 v 43.066 l -21.533,37.296 -37.296,21.533 -21.533,37.296 v 43.066 L 42.197,855.859 4.901,877.392 m 380.276,-176.487 -21.533,37.296 -21.533,37.296 v 43.066 l 21.533,37.296 37.296,21.533 21.533,37.296 v 43.065 l 21.533,37.297 m 123.428,-256.849 -21.533,37.296 v 43.066 l -21.533,37.296 -37.296,21.533 -21.533,37.296 v 43.065 L 444.006,995.05 M 663.559,657.839 v 43.066 l -21.533,37.296 -37.296,21.533 -21.533,37.296 v 43.066 l -21.533,37.296 -37.296,21.532 -21.533,37.297 v 43.065 M 722.388,599.01 h 43.065 43.066 l 37.296,-21.533 21.533,-37.296 v -43.066 l -21.533,-37.296 -21.533,-37.296 m -58.829,15.763 37.297,21.533 h 43.065 43.066 l 37.296,21.533 21.533,37.296 v 43.066 l -21.533,37.296 -21.533,37.296 -37.296,21.533 H 824.282 L 786.986,636.306 765.453,599.01 743.921,561.714 m -58.829,58.829 37.296,-21.533 21.533,-37.296 V 518.648 M 685.092,342.161 v -43.066 l -21.533,-37.296 -37.296,-21.533 h -43.066 l -37.296,21.533 M 283.282,481.352 v -43.066 l 21.533,-37.296 37.296,-21.533 m 64.599,358.744 h -43.066 -43.066 l -37.296,-21.533 -21.533,-37.296 v -43.066 l 21.533,-37.296 21.533,-37.296 M 545.901,979.286 V 936.221 L 524.368,898.924 487.072,877.392 465.539,840.096 V 797.03 L 444.006,759.734 406.71,738.201 385.177,700.905 V 657.839 M 363.644,620.543 326.348,599.01 304.815,561.714 V 518.648 L 283.282,481.352 245.986,459.819 224.453,422.523 V 379.457 L 202.92,342.161 165.624,320.628 144.091,283.332 V 240.266 L 122.558,202.97 85.262,181.437 63.729,144.141 V 101.076 L 42.197,63.779 V 20.714 m 664.427,680.191 -21.532,37.296 -21.533,37.296 -37.296,21.533 h -43.066 l -37.296,-21.533 -21.533,-37.296 -21.533,-37.296 m 43.066,0 -21.533,37.296 -21.533,37.296 v 43.066 l 21.533,37.296 37.296,21.533 21.533,37.296 v 43.065 l 21.533,37.297 m 101.894,-454.869 37.297,-21.533 21.532,-37.296 V 438.286 L 743.921,400.99 706.624,379.457 m 0,117.658 21.533,-37.296 37.296,-21.533 21.533,-37.296 v -43.066 l -21.533,-37.296 -21.532,-37.296 -37.297,-21.533 h -43.065 l -37.296,21.533 m 0,74.592 -21.533,-37.296 -21.533,-37.296 -37.296,-21.533 h -43.066 l -37.296,21.533 m 117.658,74.592 21.533,-37.296 21.533,-37.296 V 240.266 L 604.73,202.97 567.434,181.437 h -43.066 -43.066 l -37.296,21.533 -21.533,37.296 v 43.066 l -21.533,37.296 m -139.191,37.296 21.533,-37.296 21.533,-37.296 37.296,-21.533 h 43.066 l 37.296,21.533 21.533,37.296 21.533,37.296 m -43.066,0 21.533,-37.296 21.533,-37.296 V 240.266 L 444.006,202.97 406.71,181.437 h -43.066 -43.066 l -37.296,21.533 -21.533,37.296 v 43.066 l 21.533,37.296 21.533,37.296 M 326.348,599.01 H 283.282 240.216 L 202.92,577.477 181.387,540.181 v -43.066 l 21.533,-37.296 21.533,-37.296 37.296,-21.533 h 43.066 l 37.296,21.533 h 43.066 m 80.362,256.849 H 422.473 L 385.177,657.839 363.644,620.543 V 577.477 M 342.111,497.115 320.578,459.819 283.282,438.286 261.749,400.99 V 357.924 L 240.216,320.628 202.92,299.095 181.387,261.799 V 218.733 L 159.855,181.437 122.558,159.904 101.026,122.608 V 79.543 L 79.493,42.247 42.197,20.714 m 584.066,615.592 v 43.066 l -21.533,37.296 -37.296,21.533 H 524.368 481.302 L 444.006,716.668 422.473,679.372 V 636.306 L 400.94,599.01 m 144.961,58.829 37.296,21.533 h 43.066 l 37.296,-21.533 21.533,-37.296 v -43.066 m -21.533,-80.362 21.533,-37.296 21.532,-37.296 V 379.457 L 685.092,342.161 647.796,320.628 H 604.73 561.664 m 21.533,80.362 V 357.924 L 561.664,320.628 524.368,299.095 502.835,261.799 V 218.733 L 481.302,181.437 444.006,159.904 422.473,122.608 V 79.543 L 400.94,42.247 363.644,20.714 326.348,42.247 304.815,79.543 v 43.065 l -21.533,37.296 V 202.97 M 20.664,261.799 h 43.065 l 37.297,21.533 21.532,37.296 21.533,37.296 37.296,21.533 h 43.066 l 37.296,-21.533 h 43.066 l 37.296,21.533 h 43.066 l 37.296,21.533 M 304.815,636.306 283.282,599.01 261.749,561.714 v -43.066 l 21.533,-37.296 37.296,-21.533 h 43.066 43.066 m 219.553,101.895 -21.533,37.296 -21.533,37.296 -37.296,21.533 H 502.835 L 465.539,636.306 444.006,599.01 422.473,561.714 m 139.191,37.296 h 43.066 43.066 l 37.296,-21.533 21.532,-37.296 v -43.066 l -21.532,-37.296 -21.533,-37.296 m -21.533,37.296 h 43.066 43.065 l 37.296,21.533 21.533,37.296 v 43.066 l -21.533,37.296 -21.532,37.296 -37.297,21.533 H 663.559 L 626.263,636.306 604.73,599.01 583.197,561.714 m 21.533,-123.428 37.296,21.533 21.533,37.296 v 43.066 l 21.533,37.296 37.296,21.533 21.533,37.296 v 43.066 l 21.532,37.296 37.297,21.533 21.532,37.296 v 43.066 l 21.533,37.296 37.296,21.533 21.533,37.296 v 43.065 l 21.533,37.297 m -541,-454.869 v -43.066 l 21.533,-37.296 37.296,-21.533 21.533,-37.296 v -43.066 l 21.533,-37.296 37.296,-21.533 21.533,-37.296 v -43.066 l 21.533,-37.296 37.296,-21.533 21.533,-37.296 V 79.543 l 21.533,-37.296 37.296,-21.533 37.296,21.533 21.533,37.296 v 43.065 l 21.532,37.296 v 43.066 l -21.532,37.296 -37.297,21.533 M 304.815,679.372 v -43.066 l 21.533,-37.296 37.296,-21.533 21.533,-37.296 37.296,-21.533 m -80.362,139.191 -37.296,21.533 -21.533,37.296 v 43.066 l 21.533,37.296 v 43.066 l -21.533,37.296 -21.533,37.296 -37.296,21.533 H 181.387 L 144.091,914.688 122.558,877.392 101.026,840.096 V 797.03 l 21.532,-37.296 v -43.066 l -21.532,-37.296 v -43.066 l 21.532,-37.296 21.533,-37.296 37.296,-21.533 h 43.066 l 37.296,21.533 h 43.066 l 37.296,-21.533 h 43.066 l 37.296,21.533 h 43.066 M 342.111,979.286 v -43.065 l 21.533,-37.297 37.296,-21.532 21.533,-37.296 V 797.03 l 21.533,-37.296 37.296,-21.533 21.533,-37.296 v -43.066 l 21.533,-37.296 37.296,-21.533 21.533,-37.296 v -43.066 m -37.296,-96.125 21.533,37.296 37.296,21.533 21.533,37.296 v 43.066 l 21.533,37.296 37.296,21.533 21.532,37.296 v 43.066 l 21.533,37.296 37.296,21.533 21.533,37.296 v 43.066 l 21.533,37.296 37.296,21.532 21.533,37.297 v 43.065 M 743.921,4.95 722.388,42.247 685.092,63.779 663.559,101.076 v 43.065 l -21.533,37.296 -37.296,21.533 -21.533,37.296 v 43.066 l -21.533,37.296 -37.296,21.533 -21.533,37.296 v 43.066 l -21.533,37.296 -37.296,21.533 -21.533,37.296 v 43.066 l -21.533,37.296 -37.296,21.533 -21.533,37.296 v 43.066 l -21.533,37.296 -37.296,21.533 -21.533,37.296 v 43.066 l -21.533,37.296 -37.296,21.532 -21.533,37.297 v 43.065 m 525.237,0 V 936.221 L 685.092,898.924 647.796,877.392 626.263,840.096 V 797.03 L 604.73,759.734 567.434,738.201 545.901,700.905 V 657.839 L 524.368,620.543 487.072,599.01 465.539,561.714 V 518.648 L 444.006,481.352 406.71,459.819 385.177,422.523 V 379.457 L 363.644,342.161 326.348,320.628 304.815,283.332 V 240.266 L 283.282,202.97 245.986,181.437 224.453,144.141 V 101.076 L 202.92,63.779 165.624,42.247 144.091,4.95 m 621.362,990.1 -21.532,-37.297 V 914.688 L 722.388,877.392 685.092,855.859 663.559,818.563 V 775.497 L 642.026,738.201 604.73,716.668 583.197,679.372 V 636.306 L 561.664,599.01 524.368,577.477 502.835,540.181 m 43.066,-43.066 -21.533,-37.296 -21.533,-37.296 -37.296,-21.533 h -43.066 l -37.296,21.533 -21.533,37.296 -21.533,37.296 v 43.066 l 21.533,37.296 37.296,21.533 h 43.066 43.066 m 117.658,-117.658 37.296,-21.533 21.533,-37.296 v -43.066 l 21.533,-37.296 37.296,-21.533 21.533,-37.296 h 43.065 l 37.296,-21.533 h 43.066 l 37.296,-21.533 21.533,-37.296 V 159.904 L 904.644,122.608 V 79.543 L 883.111,42.247 845.815,20.714 808.519,42.247 786.986,79.543 v 43.065 l -21.533,37.296 -37.296,21.533 -21.533,37.296 v 43.066 l -21.532,37.296 -37.296,21.533 -21.533,37.296 v 43.066 l -21.533,37.296 -37.296,21.533 -21.533,37.296 v 43.066 l -21.533,37.296 -37.296,21.533 -21.533,37.296 v 43.066 l -21.533,37.296 -37.296,21.533 -21.533,37.296 v 43.066 l -21.533,37.296 -37.296,21.533 -21.533,37.296 v 43.065 l -21.533,37.297 m 219.553,-497.935 21.533,-37.296 21.533,-37.296 V 379.457 L 524.368,342.161 487.072,320.628 H 444.006 400.94 l -37.296,21.533 -21.533,37.296 v 43.066 l 21.533,37.296 21.533,37.296 m 80.362,-96.125 37.296,-21.533 h 43.066 l 37.296,21.533 21.533,37.296 v 43.066 l -21.533,37.296 -37.296,21.533 H 502.835 V 497.115 L 481.302,459.819 444.006,438.286 422.473,400.99 V 357.924 L 400.94,320.628 363.644,299.095 342.111,261.799 V 218.733 L 320.578,181.437 283.282,159.904 261.749,122.608 V 79.543 L 240.216,42.247 202.92,20.714 165.624,42.247 144.091,79.543 v 43.065 l -21.533,37.296 -37.296,21.533 -21.533,37.296 v 43.066 l -21.532,37.296 v 43.066 l 21.532,37.296 37.297,21.533 21.532,37.296 v 43.066 l -21.532,37.296 v 43.066 l 21.532,37.296 21.533,37.296 37.296,21.533 h 43.066 l 37.296,-21.533 h 43.066 l 37.296,21.533 h 43.066 l 37.296,-21.533 21.533,-37.296 21.533,-37.296 37.296,-21.533"
     style="opacity:1;fill-opacity:0;stroke:#000000;stroke-width:16;stroke-opacity:1;stop-opacity:1;stroke-miterlimit:4;stroke-dasharray:none"
     id="path2204" />
</svg>
