<?xml version="1.0" encoding="UTF-8" standalone="no"?>
<svg
   xmlns:dc="http://purl.org/dc/elements/1.1/"
   xmlns:cc="http://creativecommons.org/ns#"
   xmlns:rdf="http://www.w3.org/1999/02/22-rdf-syntax-ns#"
   xmlns:svg="http://www.w3.org/2000/svg"
   xmlns="http://www.w3.org/2000/svg"
   xmlns:sodipodi="http://sodipodi.sourceforge.net/DTD/sodipodi-0.dtd"
   xmlns:inkscape="http://www.inkscape.org/namespaces/inkscape"
   inkscape:version="1.0beta1 (32d4812, 2019-09-19)"
   sodipodi:docname="4-uniform_142.svg"
   id="c:\kuniform\4u\4-uniform_142.svg"
   height="999.99994"
   width="988.8353"
   version="1.0">
  <style></style>
  <metadata
     id="metadata6821">
    <rdf:RDF>
      <cc:Work
         rdf:about="">
        <dc:format>image/svg+xml</dc:format>
        <dc:type
           rdf:resource="http://purl.org/dc/dcmitype/StillImage" />
        <dc:title></dc:title>
      </cc:Work>
    </rdf:RDF>
  </metadata>
  <defs
     id="defs6819" />
  <sodipodi:namedview
     inkscape:current-layer="c:\kuniform\4u\4-uniform_142.svg"
     inkscape:window-maximized="1"
     inkscape:window-y="23"
     inkscape:window-x="0"
     inkscape:cy="429.2378"
     inkscape:cx="376.96586"
     inkscape:zoom="0.74398535"
     showgrid="false"
     id="namedview6817"
     inkscape:window-height="1005"
     inkscape:window-width="1680"
     inkscape:pageshadow="2"
     inkscape:pageopacity="0"
     guidetolerance="10"
     gridtolerance="10"
     objecttolerance="10"
     borderopacity="1"
     inkscape:document-rotation="0"
     bordercolor="#666666"
     pagecolor="#ffffff" />
  <!-- X Coordinate transform: fx(x)=(x+85.28635)*0.8541882-->
  <!-- Y Coordinate transform: fy(y)=(1085.3511-y)*0.8541882 -->
  <path
     d="m 76.349,106.605 -41.254,11.054 m 93.563,-41.254 30.2,-30.2 m -41.254,896.536 11.054,41.254 m 0,0 30.2,-30.2 M 76.349,849.179 35.095,860.233 M 912.486,109.567 953.74,98.513 m -82.508,825.082 30.2,-30.2 m -112.708,90.6 30.2,-30.2 M 871.232,98.513 860.178,57.259 m -30.2,30.2 30.2,-30.2 M 788.724,76.405 777.67,35.151 m -30.201,30.2 -11.054,-41.254 M 912.486,934.649 953.74,923.595 M 87.403,147.859 l 30.201,-30.2 m -41.255,71.454 -30.2,-30.2 M 169.912,87.459 158.858,46.205 m 794.882,877.39 30.2,30.2 M 252.42,934.649 241.366,975.903 M 128.658,901.487 117.604,860.233 M 35.095,777.725 46.149,736.471 m 937.791,134.816 -30.2,-30.2 -41.254,11.054 m 41.254,-753.628 30.2,30.2 m 0,82.508 -30.2,-30.2 -41.254,11.054 m -82.508,802.974 30.2,-30.2 11.054,-41.254 -11.054,-41.254 m -82.508,60.4 11.054,41.254 m -52.309,-877.39 11.054,-41.254 30.201,-30.2 M 653.907,46.205 664.961,4.95 M 128.658,158.913 117.604,117.659 128.658,76.405 117.604,35.151 m -30.201,195.216 30.201,-30.2 m -82.509,660.066 -30.2,-30.2 m 206.271,-731.52 30.2,-30.2 M 282.62,57.259 293.674,16.005 m 30.2,30.2 11.054,-41.255 m -247.525,967.991 30.201,-30.2 11.054,-41.254 30.2,-30.2 m 11.054,41.254 30.2,-30.2 m 41.254,11.054 11.054,41.254 30.2,30.2 M 46.149,901.487 35.095,942.741 M 293.674,923.595 282.62,964.849 M 87.403,807.925 l 30.201,-30.2 m -41.255,-11.054 -30.2,-30.2 -11.054,-41.254 11.054,-41.255 m 30.2,277.725 -30.2,-30.2 -11.054,-41.254 11.054,-41.254 M 871.232,181.021 860.178,139.767 m 11.054,701.32 30.2,-30.2 m 11.054,-41.254 41.254,-11.054 30.2,30.2 m 0,-495.05 -30.2,-30.2 -41.254,11.054 m -123.762,626.904 30.2,-30.2 M 87.403,65.351 76.349,24.097 m 0,247.524 11.054,-41.254 -11.054,-41.254 11.054,-41.254 -11.054,-41.254 11.054,-41.254 30.201,-30.2 m 712.374,134.816 30.2,-30.2 11.054,-41.254 30.2,-30.2 m -112.708,90.6 -11.054,-41.254 m 165.016,104.616 -30.2,-30.2 -41.254,-11.054 -41.254,-11.054 -41.254,-11.054 -41.255,-11.054 m -41.254,-71.454 30.2,30.2 11.054,41.254 m -82.508,-60.4 30.2,30.2 m -112.708,-90.6 30.2,30.2 m -442.741,112.708 30.2,-30.2 m -71.454,101.654 -11.054,-41.254 11.054,-41.254 30.2,-30.2 m -71.455,184.162 30.201,-30.2 m -41.255,71.455 11.054,-41.255 -11.054,-41.254 -30.2,-30.2 M 35.095,447.692 46.149,406.438 M 35.095,117.659 46.149,76.405 M 417.436,65.351 406.382,24.097 m -195.216,899.498 30.2,-30.2 11.054,-41.254 m 82.508,60.4 -11.054,41.254 m -195.216,-134.816 30.2,-30.2 m -30.2,-52.308 -11.054,-41.254 m -41.255,-93.563 -41.254,11.054 -30.2,-30.2 m 71.454,101.655 -30.2,-30.201 -11.054,-41.254 11.054,-41.254 m 783.829,341.087 30.2,-30.2 11.054,-41.254 -11.054,-41.254 m 11.054,-41.254 30.2,-30.2 m 82.508,-22.108 -30.2,-30.201 -41.254,11.055 M 871.232,263.529 860.178,222.275 m 52.308,134.816 30.2,30.201 m -30.2,-360.233 30.2,30.2 11.054,41.254 -11.054,41.254 m -165.016,720.466 11.054,41.254 -11.054,41.254 -30.201,30.2 m -52.308,-30.2 11.054,-41.254 m -41.254,11.054 -11.054,41.254 m -30.2,-30.2 30.2,30.2 m -71.454,-19.146 -11.054,41.254 m 165.016,-786.79 11.054,-41.254 M 623.707,16.005 l 30.2,30.2 11.054,41.254 -11.054,41.254 m -195.216,-52.308 30.2,-30.2 m -277.725,134.816 30.2,-30.2 m -71.454,101.654 30.2,-30.2 m -71.454,101.655 -11.054,-41.255 11.054,-41.254 30.2,-30.2 M 87.403,395.384 76.349,354.13 l -30.2,-30.2 m 30.2,112.708 -41.254,11.054 M 282.62,139.767 293.674,98.513 m 30.2,30.2 11.054,-41.254 m 30.2,30.2 11.054,-41.254 m 30.2,30.2 -41.254,11.054 -41.254,11.054 -41.254,11.054 -41.254,11.054 -41.254,-11.054 -41.254,-11.054 -41.254,-11.054 -41.255,-11.054 -30.2,-30.2 -11.054,-41.254 m 371.287,71.454 11.054,-41.254 30.201,-30.2 m -277.725,794.882 30.2,-30.2 m 41.254,11.054 -41.254,-11.054 -41.254,-11.054 -41.254,-11.054 -41.255,-11.054 -41.254,11.054 m 247.525,104.616 -30.2,-30.2 -11.054,-41.254 m 52.308,30.2 -11.054,41.254 11.054,41.254 30.2,30.2 m 52.308,-52.308 -11.054,41.254 -41.254,11.054 -41.254,11.054 -41.254,11.054 -41.254,-11.054 -41.254,-11.054 -41.254,-11.054 -41.255,-11.054 -41.254,11.054 -30.2,-30.2 m 412.541,60.4 30.201,-30.2 m 11.054,41.254 30.2,-30.2 m -401.488,-63.362 30.201,-30.2 11.054,-41.254 -11.054,-41.254 11.054,-41.254 30.2,-30.2 m -30.2,-52.309 -11.054,-41.254 m -41.255,-93.562 -30.2,-30.2 m 783.829,-236.471 30.2,-30.2 11.054,-41.254 30.2,-30.2 m -112.708,668.158 30.2,-30.2 m 11.054,41.254 30.2,-30.2 11.054,-41.254 -11.054,-41.254 m 11.054,-41.255 30.2,-30.2 m 82.508,-22.108 -30.2,-30.2 -41.254,11.054 M 871.232,346.038 860.178,304.783 m 52.308,134.817 30.2,30.2 m -371.287,423.595 11.054,41.254 30.2,30.2 41.254,-11.054 41.254,-11.054 m 93.563,-701.32 -11.054,-41.254 m -30.201,30.2 41.255,11.054 41.254,11.054 41.254,11.054 41.254,11.054 30.2,30.2 m -236.471,-145.87 30.2,30.2 11.054,41.254 m -82.508,-60.4 30.2,30.2 M 942.686,552.308 953.74,511.054 942.686,469.8 953.74,428.546 942.686,387.292 953.74,346.038 942.686,304.783 953.74,263.529 942.686,222.275 953.74,181.021 942.686,139.767 912.486,109.567 871.232,98.513 829.978,87.459 788.724,76.405 747.469,65.351 706.215,76.405 664.961,87.459 623.707,98.513 582.453,109.567 m -41.254,-11.054 30.2,-30.2 M 499.945,87.459 488.891,46.205 m -236.471,63.362 41.254,-11.054 41.254,-11.054 41.254,-11.054 41.254,-11.054 41.255,11.054 41.254,11.054 41.254,11.054 41.254,11.054 30.2,30.2 m -525.25,338.125 -11.054,-41.254 11.054,-41.254 30.201,-30.2 m 93.562,-101.655 -11.054,-41.254 11.054,-41.254 -11.054,-41.254 11.054,-41.254 -11.054,-41.254 m -30.2,277.724 30.2,-30.2 m -71.454,101.655 -11.054,-41.254 11.054,-41.254 30.2,-30.201 M 87.403,560.4 76.349,519.146 l 11.054,-41.254 30.201,-30.2 m 299.832,-299.833 30.201,-30.2 M 241.366,810.887 252.42,769.633 m 71.454,101.654 11.054,-41.254 m 82.508,60.4 41.255,11.054 41.254,11.054 41.254,11.054 41.254,11.054 41.254,-11.054 41.254,-11.054 41.254,-11.054 41.254,-11.054 41.255,11.054 41.254,11.054 41.254,11.054 41.254,11.054 30.2,30.2 41.254,-11.054 m -814.028,-206.27 30.2,-30.2 m -112.709,8.092 30.201,-30.2 11.054,-41.255 30.2,-30.2 M 87.403,642.908 76.349,601.654 87.403,560.4 117.604,530.2 m 382.341,382.341 30.2,-30.2 m 217.324,8.092 30.201,-30.2 11.054,-41.254 -11.054,-41.254 m 11.054,-41.254 30.2,-30.2 m 11.054,41.254 30.2,-30.2 11.054,-41.255 -11.054,-41.254 m 11.054,-41.254 30.2,-30.2 m -71.454,-228.379 30.2,-30.2 11.054,-41.254 30.2,-30.2 m -30.2,195.217 -11.054,-41.254 m 123.762,153.962 -30.2,-30.2 -41.254,11.054 m 0,-495.049 -11.054,41.254 11.054,41.254 -11.054,41.254 11.054,41.254 -11.054,41.254 11.054,41.254 -11.054,41.254 11.054,41.254 -11.054,41.255 11.054,41.254 -11.054,41.254 11.054,41.254 -11.054,41.254 11.054,41.254 -11.054,41.254 11.054,41.255 -11.054,41.254 11.054,41.254 -11.054,41.254 11.054,41.254 -11.054,41.254 11.054,41.254 -11.054,41.254 m -165.017,-126.724 -30.2,-30.2 m -52.308,52.308 11.054,-41.254 m -41.254,11.054 30.2,30.2 11.054,41.254 30.2,30.2 41.254,-11.054 m 206.271,-49.346 -30.2,-30.2 -41.254,-11.054 -41.254,-11.054 -41.254,-11.054 -41.255,-11.054 -41.254,11.054 -41.254,11.054 -41.254,11.054 -41.254,11.054 m -41.254,71.454 30.2,-30.2 11.054,-41.254 m 153.962,-580.52 11.054,-41.254 M 623.707,98.513 l 30.2,30.2 11.054,41.254 -11.054,41.254 m -247.525,-104.616 41.255,11.054 41.254,11.054 41.254,11.054 41.254,11.054 41.254,-11.054 41.254,-11.054 41.254,-11.054 41.254,-11.054 41.255,11.054 41.254,11.054 41.254,11.054 41.254,11.054 41.254,-11.054 41.254,-11.054 m -525.249,30.2 -11.054,-41.254 11.054,-41.254 -11.054,-41.254 m -318.979,453.795 -11.054,-41.254 11.054,-41.254 30.2,-30.2 M 282.62,222.275 293.674,181.021 m -52.308,134.816 -41.254,-11.054 -41.254,-11.054 -41.254,-11.054 -41.255,-11.054 -41.254,11.054 -30.2,-30.2 m 206.271,93.563 -11.054,-41.255 11.054,-41.254 30.2,-30.2 m -71.454,184.163 30.2,-30.2 m -71.454,184.162 -11.054,-41.254 11.054,-41.254 30.2,-30.2 M 323.874,211.221 334.928,169.967 M 252.42,27.059 l 30.2,30.2 11.054,41.254 30.2,30.2 11.054,41.254 30.2,30.2 m 11.054,-41.254 30.2,30.2 m -123.762,610.72 -30.2,-30.2 -11.054,-41.254 m 52.308,30.2 -11.054,41.254 11.054,41.254 30.2,30.2 11.054,41.254 30.2,30.2 41.254,-11.054 m 0,-82.508 -41.254,11.054 -41.254,11.054 -41.254,11.054 -41.254,11.054 -41.254,-11.054 -41.254,-11.054 -41.254,-11.054 -41.255,-11.054 -30.2,-30.2 -11.054,-41.254 -30.2,-30.2 m 442.742,112.708 -30.201,30.2 -41.254,11.054 -41.254,11.054 -41.254,11.054 -41.254,11.054 -41.254,-11.054 -41.254,-11.054 -41.254,-11.054 -41.255,-11.054 -41.254,11.054 -41.254,11.054 m 453.796,-11.054 30.2,-30.2 m -112.709,-52.308 30.2,30.2 41.255,11.054 41.254,11.054 41.254,11.054 41.254,11.054 41.254,-11.054 41.254,-11.054 41.254,-11.054 41.254,-11.054 41.255,11.054 41.254,11.054 41.254,11.054 41.254,11.054 41.254,-11.054 41.254,-11.054 m -814.028,-206.271 30.2,-30.2 m -41.254,-93.562 -30.2,30.2 -11.054,41.254 -30.201,30.2 -11.054,41.255 11.054,41.254 -11.054,41.254 11.054,41.254 -11.054,41.254 11.054,41.254 -11.054,41.254 11.054,41.254 M 788.724,323.93 777.67,282.675 m -30.201,525.25 30.201,-30.2 11.054,-41.254 -11.054,-41.254 m 11.054,-41.255 30.2,-30.2 m 11.054,41.254 30.2,-30.2 11.054,-41.254 -11.054,-41.254 m -30.2,-134.816 30.2,-30.2 11.054,-41.254 30.2,-30.201 m -30.2,195.217 -11.054,-41.254 m -30.2,112.708 30.2,-30.2 11.054,-41.254 30.2,-30.2 M 582.453,852.141 571.399,810.887 m 412.541,-434.649 -30.2,-30.2 -41.254,11.053 -41.254,-11.053 -41.254,-11.055 -41.254,-11.053 -41.255,-11.055 m -41.254,-71.454 30.2,30.2 11.054,41.254 m -82.508,-60.4 30.2,30.2 m -112.708,-90.6 41.254,-11.054 41.254,-11.054 41.254,-11.054 41.254,-11.054 30.201,-30.2 11.054,-41.254 30.2,-30.2 m -277.725,134.816 30.2,-30.2 m -71.454,19.146 30.2,-30.2 m -277.725,52.308 41.254,-11.054 41.254,-11.054 41.254,-11.054 41.254,-11.054 41.255,11.054 41.254,11.054 41.254,11.054 41.254,11.054 30.2,30.2 M 169.912,500 l -11.054,-41.254 11.054,-41.254 -11.054,-41.254 11.054,-41.255 -11.054,-41.254 11.054,-41.254 -11.054,-41.254 11.054,-41.254 -11.054,-41.254 11.054,-41.254 30.2,-30.2 m 52.308,217.324 30.2,30.2 M 241.366,398.346 200.112,387.292 158.858,376.238 117.604,365.184 76.349,354.13 35.095,365.184 4.895,334.983 m 412.541,-104.616 30.201,-30.2 m -236.471,558.412 30.2,-30.2 11.054,-41.254 m 71.454,101.654 11.054,-41.254 m 82.508,60.4 41.255,11.054 41.254,11.054 41.254,11.054 41.254,11.054 30.2,30.2 M 211.166,676.07 l 30.2,-30.2 m -71.454,-63.362 30.2,-30.2 m 299.833,277.725 30.2,-30.2 m 176.07,-63.362 30.2,30.2 m 11.054,-41.254 30.201,-30.2 11.054,-41.255 -11.054,-41.254 m 11.054,-41.254 30.2,-30.2 M 788.724,406.438 777.67,365.184 M 829.978,500 l 30.2,-30.2 11.054,-41.254 30.2,-30.2 m -71.454,596.703 -11.054,-41.254 11.054,-41.254 -11.054,-41.254 11.054,-41.254 -11.054,-41.254 11.054,-41.254 -11.054,-41.254 11.054,-41.255 -11.054,-41.254 11.054,-41.254 L 818.924,541.254 829.978,500 818.924,458.746 m -165.017,330.033 11.054,-41.254 m -41.254,11.054 30.2,30.2 11.054,41.254 30.2,30.2 m -153.962,-19.146 30.2,-30.2 11.054,-41.254 M 736.415,354.13 747.469,312.875 m -93.562,-19.146 11.054,-41.254 -11.054,-41.254 -30.2,-30.2 m 360.233,30.2 -41.254,11.054 -41.254,11.054 -41.254,-11.054 -41.254,-11.054 -41.254,-11.054 -41.255,-11.054 -41.254,11.054 -41.254,11.054 -41.254,11.054 -41.254,11.054 -41.254,-11.054 -41.254,-11.054 -41.254,-11.054 -41.255,-11.054 -41.254,11.054 -41.254,11.054 -41.254,11.054 -41.254,11.054 -41.254,-11.054 -41.254,-11.054 -41.254,-11.054 -41.255,-11.054 -41.254,11.054 -30.2,-30.2 m 453.796,71.454 30.2,-30.2 M 211.166,511.054 200.112,469.8 M 323.874,293.729 334.928,252.475 M 282.62,387.292 293.674,346.038 M 241.366,480.854 200.112,469.8 158.858,458.746 117.604,447.692 76.349,436.638 46.149,406.438 35.095,365.184 46.149,323.93 35.095,282.675 46.149,241.421 35.095,200.167 46.149,158.913 35.095,117.659 4.895,87.459 m 360.233,195.216 -30.2,-30.2 -11.054,-41.254 -30.2,-30.2 -11.054,-41.254 -30.2,-30.2 L 211.166,98.513 169.912,87.459 128.658,76.405 87.403,65.351 46.149,76.405 4.895,87.459 m 371.287,153.962 30.2,30.2 M 282.62,717.325 293.674,676.07 m 82.508,60.401 30.2,30.2 m 41.255,11.054 -30.201,30.2 -41.254,11.054 -41.254,11.054 -41.254,11.054 -41.254,11.054 -41.254,-11.054 -41.254,-11.054 -41.254,-11.054 -41.255,-11.054 -41.254,11.054 -41.254,11.054 m 453.796,-11.054 30.2,-30.2 m -277.725,52.308 30.2,-30.2 41.254,-11.054 41.254,-11.054 41.254,-11.054 41.254,-11.054 41.255,11.054 41.254,11.054 41.254,11.054 41.254,11.054 41.254,-11.054 41.254,-11.054 41.254,-11.054 41.254,-11.054 41.255,11.054 41.254,11.054 41.254,11.054 41.254,11.054 41.254,-11.054 41.254,-11.054 m -701.32,-153.963 -30.2,-30.2 m -41.254,-11.054 30.2,-30.2 m 742.574,-104.616 -30.2,-30.2 -41.254,11.054 -41.254,-11.054 -41.254,-11.054 -41.254,-11.054 -41.255,-11.054 m -41.254,-71.454 30.2,30.2 11.054,41.254 m -11.054,288.779 -30.2,-30.201 m 41.254,-11.054 30.201,-30.2 11.054,-41.254 L 777.67,530.2 m 11.054,-41.254 -11.054,-41.254 m -30.201,112.708 30.201,-30.2 11.054,-41.254 30.2,-30.2 11.054,-41.254 -11.054,-41.254 m -206.271,423.595 -30.2,-30.2 -11.054,-41.254 m 123.762,-363.195 -30.2,-30.201 m -82.508,-60.4 41.254,-11.054 41.254,-11.054 41.254,-11.054 41.254,-11.054 30.201,-30.2 11.054,-41.254 30.2,-30.2 m -277.725,134.816 30.2,-30.2 m -71.454,19.146 30.2,-30.2 m 82.508,82.508 -30.2,-30.2 -41.254,-11.054 -41.254,-11.054 -41.254,-11.054 -41.255,-11.054 -41.254,11.054 -41.254,11.054 -41.254,11.054 -41.254,11.054 -41.254,-11.054 -41.254,-11.054 -41.254,-11.054 -41.255,-11.054 -41.254,11.054 -41.254,11.054 m 318.979,123.763 11.054,-41.255 M 282.62,469.8 293.674,428.546 m 123.762,-115.671 30.201,-30.2 m -123.763,423.596 11.054,-41.255 m 607.758,134.817 -30.2,-30.2 -41.254,-11.054 -41.254,-11.054 -41.254,-11.054 -41.255,-11.054 -41.254,11.054 -41.254,11.054 -41.254,11.054 -41.254,11.054 -41.254,-11.054 -41.254,-11.054 -41.254,-11.054 -41.255,-11.054 m -52.308,52.308 -30.2,-30.2 -11.054,-41.254 -30.2,-30.201 -11.054,-41.254 11.054,-41.254 m -11.054,-41.254 -30.2,-30.2 m 483.995,-85.47 11.054,-41.254 m -247.524,352.141 30.2,-30.2 m 123.762,-11.054 11.054,-41.255 m 41.254,-93.562 30.2,30.2 m 11.054,-123.762 30.201,-30.2 11.054,-41.254 30.2,-30.2 11.054,-41.255 -11.054,-41.254 m -82.509,225.417 11.054,-41.254 -11.054,-41.254 -30.2,-30.2 m -82.508,269.632 30.2,30.201 11.054,41.254 30.2,30.2 m -153.962,-19.146 30.2,-30.2 11.054,-41.254 m 41.254,-423.596 30.2,30.2 11.054,41.254 -11.054,41.255 m -442.741,52.308 -11.054,-41.254 11.054,-41.254 30.2,-30.201 41.254,-11.054 41.254,-11.054 41.254,-11.054 41.254,-11.054 41.255,11.054 41.254,11.054 41.254,11.054 41.254,11.054 41.254,-11.054 41.254,-11.054 41.254,-11.054 41.254,-11.054 41.255,11.054 41.254,11.054 41.254,11.054 41.254,11.054 41.254,-11.054 41.254,-11.054 m -525.249,30.201 30.2,-30.201 m -165.017,330.033 -30.2,-30.2 -11.054,-41.254 11.054,-41.254 m 0,-247.525 30.2,30.2 11.054,41.254 30.2,30.201 m -41.254,93.562 11.054,-41.254 m 71.454,-63.362 -30.2,-30.2 m 0,330.032 30.2,30.201 m 41.255,11.054 -30.201,30.2 -41.254,11.054 -41.254,11.054 -41.254,11.054 -41.254,11.054 -41.254,-11.054 -41.254,-11.054 -41.254,-11.054 -41.255,-11.054 -41.254,11.054 -41.254,11.054 m 453.796,-11.054 30.2,-30.2 m 495.049,0 -41.254,11.054 -41.254,11.054 -41.254,-11.054 -41.254,-11.054 -41.254,-11.054 -41.255,-11.054 -41.254,11.054 -41.254,11.054 -41.254,11.054 -41.254,11.054 -41.254,-11.054 -41.254,-11.054 -41.254,-11.054 -41.255,-11.054 -41.254,11.054 -41.254,11.054 -41.254,11.054 -41.254,11.054 -41.254,-11.054 -41.254,-11.054 -41.254,-11.054 -41.255,-11.054 -41.254,11.054 -30.2,-30.201 m 360.233,30.201 -30.2,-30.201 -11.054,-41.254 11.054,-41.254 m -11.054,-41.254 -30.2,-30.2 -11.054,-41.254 -30.2,-30.2 m 442.741,8.092 -30.2,-30.2 m -11.054,206.27 11.054,-41.254 m 41.254,-93.562 30.2,30.2 11.054,41.254 -11.054,41.254 11.054,41.254 -11.054,41.255 11.054,41.254 -11.054,41.254 11.054,41.254 -11.054,41.254 11.054,41.254 -11.054,41.254 11.054,41.254 M 664.961,4.95 l 30.2,30.201 11.054,41.254 -11.054,41.254 11.054,41.254 -11.054,41.254 11.054,41.254 -11.054,41.254 11.054,41.255 -11.054,41.254 11.054,41.254 -11.054,41.254 11.054,41.254 -11.054,41.254 m -82.508,187.125 -30.2,-30.2 -11.054,-41.255 m 41.254,-258.578 -30.2,-30.201 m -41.254,-11.053 30.2,-30.201 m -71.454,19.146 30.2,-30.2 m 288.779,-93.562 -30.2,30.2 -11.054,41.254 -30.201,30.2 -41.254,11.055 -41.254,11.053 -41.254,11.055 -41.254,11.053 -41.254,-11.053 -41.254,-11.055 -41.254,-11.053 -41.255,-11.055 -41.254,11.055 -41.254,11.053 -41.254,11.055 L 252.42,357.091 211.166,346.038 169.912,334.983 128.658,323.93 87.403,312.875 46.149,323.93 4.895,334.983 m 360.233,277.725 -30.2,-30.2 L 323.874,541.254 334.928,500 m 30.2,-52.308 11.054,-41.254 M 334.928,4.95 l 30.2,30.201 11.054,41.254 30.2,30.2 11.054,41.254 -11.054,41.254 11.054,41.254 -11.054,41.254 11.054,41.254 -11.054,41.255 11.054,41.254 m 0,247.524 41.255,11.054 41.254,11.054 41.254,11.054 41.254,11.055 41.254,-11.055 41.254,-11.054 41.254,-11.054 41.254,-11.054 41.255,11.054 41.254,11.054 41.254,11.054 41.254,11.055 30.2,30.2 M 4.895,417.492 l 30.2,30.2 11.054,41.254 -11.054,41.254 11.054,41.254 30.2,30.2 41.255,11.054 41.254,11.054 41.254,11.054 41.254,11.054 41.254,-11.054 41.254,-11.054 41.254,-11.054 41.254,-11.054 m -41.254,258.579 11.054,-41.254 -11.054,-41.254 11.054,-41.254 -11.054,-41.254 11.054,-41.255 -11.054,-41.254 11.054,-41.254 m -11.054,-41.254 -30.2,-30.2 -11.054,-41.254 -30.2,-30.2 -11.054,-41.254 -30.2,-30.201 m 401.487,101.655 11.054,-41.254 -11.054,-41.254 -30.2,-30.2 m -123.762,318.978 30.2,-30.2 m 93.562,-41.254 30.2,30.2 11.054,41.254 30.2,30.201 M 653.907,541.254 664.961,500 m -41.254,-71.454 30.2,30.2 11.054,41.254 30.2,30.2 m -153.962,145.87 30.2,-30.2 11.054,-41.254 m -11.054,-206.27 -41.254,-11.054 -41.254,-11.054 -41.254,-11.054 -41.255,-11.054 -41.254,11.054 -41.254,11.054 -41.254,11.054 -41.254,11.054 -30.2,30.2 -11.054,41.254 -30.2,30.2 -11.054,41.254 11.054,41.254 -11.054,41.254 11.054,41.254 -11.054,41.255 11.054,41.254 -11.054,41.254 11.054,41.254 -11.054,41.254 11.054,41.254 -11.054,41.254 11.054,41.254 m 288.779,-588.611 30.2,-30.2 m -318.979,618.811 30.2,-30.2 11.054,-41.254 -11.054,-41.254 11.054,-41.254 -11.054,-41.254 11.054,-41.254 -11.054,-41.254 11.054,-41.255 -11.054,-41.254 11.054,-41.254 -11.054,-41.254 11.054,-41.254 30.2,-30.2 41.254,-11.054 41.254,-11.054 41.254,-11.054 41.254,-11.054 m 52.309,217.324 -11.054,-41.254 m 11.054,371.287 -11.054,-41.254 11.054,-41.254 -11.054,-41.254 11.054,-41.254 -11.054,-41.254 11.054,-41.254 -11.054,-41.254 11.054,-41.255 30.2,-30.2 m 495.049,0 -41.254,11.054 -41.254,11.054 -41.254,-11.054 -41.254,-11.054 -41.254,-11.054 -41.255,-11.054 -41.254,11.054 -41.254,11.054 -41.254,11.054 -41.254,11.054 -41.254,-11.054 -41.254,-11.054 -41.254,-11.054 -41.255,-11.054 -30.2,-30.2 -11.054,-41.254 11.054,-41.254 m 30.2,30.2 -30.2,-30.2 -11.054,-41.254 -30.2,-30.2 -11.054,-41.254 -30.2,-30.2 -11.054,-41.255 11.054,-41.254 -11.054,-41.254 -30.2,-30.2 -41.254,-11.054 -41.254,-11.054 -41.254,-11.054 -41.255,-11.054 -41.254,11.054 -41.254,11.054 m 607.758,299.833 -30.2,-30.2 m 41.254,71.454 30.2,30.2 11.054,41.254 30.2,30.2 m -82.508,-60.4 11.054,-41.254 -11.054,-41.254 11.054,-41.254 -11.054,-41.254 11.054,-41.254 -11.054,-41.255 11.054,-41.254 -11.054,-41.254 11.054,-41.254 -11.054,-41.254 11.054,-41.254 -11.054,-41.254 11.054,-41.254 m -11.054,618.811 -30.2,-30.2 -11.054,-41.254 m -30.2,-134.816 30.2,-30.2 41.254,-11.054 41.254,-11.054 41.254,-11.054 41.254,-11.054 41.255,11.054 41.254,11.054 41.254,11.054 41.254,11.054 41.254,-11.054 41.254,-11.054 m -483.995,41.254 30.2,-30.2 m -525.25,30.2 41.254,-11.054 41.254,-11.054 41.255,11.054 41.254,11.054 41.254,11.054 41.254,11.054 41.254,-11.054 41.254,-11.054 41.254,-11.054 41.254,-11.054 41.255,11.054 41.254,11.054 41.254,11.054 41.254,11.054 41.254,-11.054 41.254,-11.054 41.254,-11.054 41.254,-11.054 30.201,-30.2 11.054,-41.254 30.2,-30.201 11.054,-41.254 -11.054,-41.254 11.054,-41.254 -11.054,-41.254 11.054,-41.254 -11.054,-41.254 m -401.488,431.687 30.201,-30.2 m -30.201,112.708 -11.054,-41.254 11.054,-41.254 -11.054,-41.254 11.054,-41.254 30.201,-30.2 m 495.049,269.632 -30.2,-30.2 -41.254,-11.054 -41.254,-11.054 -41.254,-11.054 -41.255,-11.054 -41.254,11.054 -41.254,11.054 -41.254,11.054 -41.254,11.054 -41.254,-11.054 -41.254,-11.054 -41.254,-11.054 -41.255,-11.054 -41.254,11.054 -41.254,11.054 -41.254,11.054 L 252.42,604.616 211.166,593.562 169.912,582.508 128.658,571.454 87.403,560.4 46.149,571.454 4.895,582.508 m 412.541,390.433 -11.054,-41.254 11.054,-41.254 -11.054,-41.254 11.054,-41.254 -11.054,-41.254 11.054,-41.254 -11.054,-41.254 11.054,-41.255 -11.054,-41.254 11.054,-41.254 30.201,-30.2 m 52.308,52.308 30.2,-30.2 m 52.308,-30.2 30.2,30.2 11.054,41.254 -11.054,41.254 11.054,41.254 -11.054,41.255 11.054,41.254 -11.054,41.254 11.054,41.254 -11.054,41.254 11.054,41.254 -11.054,41.254 -41.254,11.054 -41.254,-11.054 -41.254,-11.054 -41.254,-11.054 -41.255,-11.054 -30.2,-30.2 -11.054,-41.254 -30.2,-30.2 -11.054,-41.254 -30.2,-30.2 -11.054,-41.254 -30.2,-30.2 L 241.366,645.87 252.42,604.616 241.366,563.362 252.42,522.108 241.366,480.854 252.42,439.6 241.366,398.346 252.42,357.091 241.366,315.837 252.42,274.583 241.366,233.329 252.42,192.075 241.366,150.821 252.42,109.567 241.366,68.313 252.42,27.059 m 288.779,566.503 30.2,-30.2 11.054,-41.254 -11.054,-41.254 11.054,-41.254 -11.054,-41.254 11.054,-41.255 -11.054,-41.254 11.054,-41.254 -11.054,-41.254 11.054,-41.254 -11.054,-41.254 11.054,-41.254 -11.054,-41.254 11.054,-41.254 m -288.779,-11.054 30.2,30.2 11.054,41.254 30.2,30.2 11.054,41.254 -11.054,41.254 11.054,41.254 -11.054,41.254 11.054,41.255 -11.054,41.254 11.054,41.254 30.2,30.2 41.255,11.054 41.254,11.054 41.254,11.054 41.254,11.054 m -112.708,8.092 30.2,-30.2 m -30.2,112.708 -11.054,-41.254 11.054,-41.254 -11.054,-41.254 11.054,-41.254 -11.054,-41.254 11.054,-41.254 -11.054,-41.255 11.054,-41.254 -11.054,-41.254 11.054,-41.254 30.2,-30.2 M 4.895,665.016 l 41.254,-11.054 41.254,-11.054 41.255,11.054 41.254,11.054 41.254,11.054 41.254,11.055 41.254,-11.055 41.254,-11.054 41.254,-11.054 41.254,-11.054 30.201,-30.2 11.054,-41.254 30.2,-30.2 m 495.049,0 -41.254,11.054 -41.254,11.054 L 860.178,552.308 818.924,541.254 777.67,530.2 736.415,519.146 695.161,530.2 653.907,541.254 612.653,552.308 571.399,563.362 530.145,552.308 488.891,541.254 447.637,530.2 406.382,519.146 365.128,530.2 323.874,541.254 282.62,552.308 241.366,563.362 200.112,552.308 158.858,541.254 117.604,530.2 76.349,519.146 35.095,530.2 4.895,500 m 536.304,11.054 30.2,-30.2 41.254,-11.054 41.254,-11.054 41.254,-11.054 41.254,-11.054 41.255,11.054 41.254,11.054 41.254,11.054 41.254,11.054 41.254,-11.054 41.254,-11.054 m -483.995,536.303 30.2,-30.2 11.054,-41.254 -11.054,-41.254 11.054,-41.254 -11.054,-41.254 11.054,-41.254 -11.054,-41.254 11.054,-41.255 -11.054,-41.254 11.054,-41.254 -11.054,-41.254 11.054,-41.254 -11.054,-41.254 m -30.2,30.2 30.2,-30.2 11.054,-41.254 -11.054,-41.254 11.054,-41.254 -11.054,-41.255 11.054,-41.254 -11.054,-41.254 11.054,-41.254 L 530.145,139.767 541.199,98.513 530.145,57.259 488.891,46.205 447.637,35.151 406.382,24.097 365.128,35.151 323.874,46.205 282.62,57.259 241.366,68.313 200.112,57.259 158.858,46.205 117.604,35.151 76.349,24.097 35.095,35.151 m 464.85,959.898 -11.054,-41.254 11.054,-41.254 -11.054,-41.254 11.054,-41.254 -11.054,-41.254 11.054,-41.254 -11.054,-41.254 11.054,-41.255 -11.054,-41.254 11.054,-41.254 -11.054,-41.254 11.054,-41.254 -11.054,-41.254 11.054,-41.254 -11.054,-41.254 11.054,-41.255 -11.054,-41.254 11.054,-41.254 -11.054,-41.254 11.054,-41.254 -11.054,-41.254 11.054,-41.254 30.2,-30.2 41.254,11.054 41.254,-11.054 41.254,-11.054 41.254,-11.054 41.254,-11.054 41.255,11.054 41.254,11.054 41.254,11.054 41.254,11.054 41.254,-11.054 M 4.895,500 l 41.254,-11.054 41.254,-11.054 41.255,11.054 41.254,11.054 41.254,11.054 41.254,11.054 41.254,-11.054 41.254,-11.054 41.254,-11.054 41.254,-11.054 41.255,11.054 41.254,11.054 41.254,11.054 41.254,11.054 41.254,-11.054 41.254,-11.054 41.254,-11.054 41.254,-11.054 41.255,11.054 41.254,11.054 41.254,11.054 41.254,11.054 30.2,30.2 11.054,41.254 -11.054,41.254 11.054,41.254 -11.054,41.255 11.054,41.254 -11.054,41.254 11.054,41.254 -11.054,41.254 11.054,41.254 -11.054,41.254 -41.254,11.054 -41.254,-11.054 -41.254,-11.054 -41.254,-11.054 -41.255,-11.054 -30.2,-30.2 -11.054,-41.254 11.054,-41.254 -11.054,-41.254 11.054,-41.254 -11.054,-41.254 11.054,-41.255 -11.054,-41.254 11.054,-41.254 -11.054,-41.254"
     style="opacity:1;fill-opacity:0;stroke:#000000;stroke-width:14;stroke-opacity:1;stop-opacity:1;stroke-miterlimit:4;stroke-dasharray:none"
     id="path6812" />
</svg>
