<?xml version="1.0" encoding="UTF-8" standalone="no"?>
<svg
   xmlns:dc="http://purl.org/dc/elements/1.1/"
   xmlns:cc="http://creativecommons.org/ns#"
   xmlns:rdf="http://www.w3.org/1999/02/22-rdf-syntax-ns#"
   xmlns:svg="http://www.w3.org/2000/svg"
   xmlns="http://www.w3.org/2000/svg"
   xmlns:sodipodi="http://sodipodi.sourceforge.net/DTD/sodipodi-0.dtd"
   xmlns:inkscape="http://www.inkscape.org/namespaces/inkscape"
   inkscape:version="1.0beta1 (32d4812, 2019-09-19)"
   sodipodi:docname="4-uniform_105.svg"
   id="c:\kuniform\4u\4-uniform_105.svg"
   height="1000.0"
   width="997.2634"
   version="1.0">
  <style
     id="style2216"></style>
  <metadata
     id="metadata2214">
    <rdf:RDF>
      <cc:Work
         rdf:about="">
        <dc:format>image/svg+xml</dc:format>
        <dc:type
           rdf:resource="http://purl.org/dc/dcmitype/StillImage" />
        <dc:title></dc:title>
      </cc:Work>
    </rdf:RDF>
  </metadata>
  <defs
     id="defs2212" />
  <sodipodi:namedview
     inkscape:current-layer="c:\kuniform\4u\4-uniform_105.svg"
     inkscape:window-maximized="0"
     inkscape:window-y="23"
     inkscape:window-x="0"
     inkscape:cy="560"
     inkscape:cx="400"
     inkscape:zoom="0.35"
     showgrid="false"
     id="namedview2210"
     inkscape:window-height="907"
     inkscape:window-width="1600"
     inkscape:pageshadow="2"
     inkscape:pageopacity="0"
     guidetolerance="10"
     gridtolerance="10"
     objecttolerance="10"
     borderopacity="1"
     inkscape:document-rotation="0"
     bordercolor="#666666"
     pagecolor="#ffffff" />
  <!-- X Coordinate transform: fx(x)=(x+72.17139)*0.87147266-->
  <!-- Y Coordinate transform: fy(y)=(1077.0908-y)*0.87147266 -->
  <path
     id="path2205"
     d="M 189.343,42.686 167.556,4.951 m 802.984,871.053 -37.736,21.787 -21.787,37.736 V 979.1 m -765.248,-59.522 21.787,37.736 21.787,37.735 m 640.365,-37.735 37.735,-21.787 h 43.574 l 37.736,21.787 M 829.708,123.996 807.921,86.26 V 42.686 L 829.708,4.951 M 292.439,26.737 330.175,4.951 m -140.832,914.627 -21.787,37.736 -21.787,37.735 m 43.574,-75.471 21.787,37.736 M 20.886,897.791 42.673,860.055 V 816.481 L 20.886,778.745 m 103.096,178.569 21.787,37.735 M 248.865,26.737 227.079,64.473 189.343,86.26 H 145.769 L 108.033,64.473 86.246,26.737 M 145.769,42.686 123.982,4.951 M 4.937,123.996 42.673,145.783 H 86.246 L 123.982,123.996 145.769,86.26 V 42.686 L 167.556,4.951 M 20.886,183.519 42.673,145.783 V 102.209 L 20.886,64.473 M 829.708,4.951 867.443,26.737 m 81.31,930.577 21.787,-37.736 M 948.753,243.041 h 43.574 M 623.515,4.951 661.251,26.737 M 764.347,86.26 h 43.574 m 0,75.472 L 786.134,123.996 764.347,86.26 726.611,64.473 704.824,26.737 M 417.322,4.951 455.058,26.737 M 20.886,302.564 42.673,264.828 V 221.254 L 20.886,183.519 M 248.865,979.1 v -43.573 l -21.786,-37.736 -37.736,-21.787 h -43.574 l -37.736,21.787 -21.787,37.736 V 979.1 m 37.736,-21.786 21.787,-37.736 V 876.004 L 123.982,838.268 86.246,816.481 H 42.673 L 4.937,838.268 M 20.886,778.745 42.673,741.01 V 697.436 L 20.886,659.7 m 0,238.091 21.787,37.736 V 979.1 M 20.886,659.7 42.673,621.964 V 578.391 L 20.886,540.655 m 0,-119.046 21.787,-37.735 V 340.3 L 20.886,302.564 M 42.673,26.737 H 86.246 L 123.982,4.951 M 20.886,64.473 42.673,26.737 m 906.08,692.486 h 43.574 M 911.017,26.737 932.804,64.473 970.54,86.26 m 0,833.318 v -43.574 l -21.787,-37.736 -37.736,-21.787 h -43.574 l -37.735,21.787 -21.787,37.736 v 43.574 l 21.787,37.736 37.735,21.786 h 43.574 l 37.736,-21.786 h 43.574 m -662.152,0 -37.736,-21.787 h -43.574 l -37.735,21.787 -21.787,37.735 m 759.41,-513.917 h 43.574 M 970.54,324.351 932.804,302.564 911.017,264.828 v -43.574 l 21.787,-37.735 37.736,-21.787 M 601.728,42.686 579.941,4.951 m 184.406,156.781 21.787,-37.736 21.787,-37.736 37.736,-21.787 21.786,-37.736 h 43.574 L 948.753,4.951 M 558.154,42.686 579.941,4.951 M 123.982,957.314 86.246,979.1 H 42.673 L 4.937,957.314 M 211.13,4.951 248.865,26.737 h 43.574 l 21.787,37.736 37.736,21.787 h 43.573 M 123.982,243.041 145.769,205.305 M 20.886,540.655 42.673,502.919 V 459.345 L 20.886,421.609 M 970.54,637.913 932.804,659.7 911.017,697.436 v 43.574 l 21.787,37.735 37.736,21.787 M 623.515,957.314 601.728,995.049 M 764.347,876.004 h 43.574 m 0,-75.472 -21.787,37.736 -21.787,37.736 -37.736,21.787 -21.787,37.736 V 979.1 M 536.368,957.314 h 43.573 43.574 l 37.736,-21.787 h 43.573 l 37.736,21.787 m 0,-833.318 h 43.574 43.574 l 37.735,21.787 h 43.574 L 948.753,123.996 970.54,86.26 V 42.686 L 948.753,4.951 m 21.787,557.491 -37.736,-21.787 -21.787,-37.736 v -43.574 l 21.787,-37.736 37.736,-21.786 m -21.787,-275.827 21.787,37.736 v 43.573 l -21.787,37.736 -37.736,21.787 h -43.574 l -37.735,-21.787 -21.787,-37.736 v -43.573 l 21.787,-37.736 37.735,-21.787 h 43.574 z M 807.921,42.686 h -43.574 l -37.736,21.787 -21.787,37.736 v 43.574 l 21.787,37.736 37.736,21.786 h 43.574 l 37.736,-21.786 21.786,-37.736 V 102.209 L 845.657,64.473 Z M 498.632,26.737 520.419,64.473 558.154,86.26 h 43.574 l 37.736,-21.787 21.787,-37.736 h 43.573 L 742.56,4.951 M 145.769,205.305 h 43.574 M 330.175,123.996 351.962,86.26 m 65.36,37.736 h -43.573 -43.574 l -37.736,21.787 H 248.865 L 211.13,123.996 189.343,86.26 V 42.686 L 211.13,4.951 m -65.361,275.826 21.787,-37.736 21.787,-37.736 37.736,-21.786 21.786,-37.736 V 102.209 L 227.079,64.473 189.343,42.686 h -43.574 l -37.736,21.787 -21.787,37.736 v 43.574 l 21.787,37.736 37.736,21.786 m 0,551.654 -21.787,-37.736 M 992.327,957.314 970.54,919.578 932.804,897.791 911.017,860.055 V 816.481 L 932.804,778.745 970.54,756.959 992.327,719.223 970.54,681.487 932.804,659.7 911.017,621.964 v -43.573 l 21.787,-37.736 37.736,-21.787 21.787,-37.736 -21.787,-37.736 -37.736,-21.787 -21.787,-37.735 V 340.3 l 21.787,-37.736 37.736,-21.787 21.787,-37.736 -21.787,-37.736 -37.736,-21.786 -21.787,-37.736 V 102.209 L 932.804,64.473 970.54,42.686 m -368.812,876.892 -21.787,37.736 -21.787,37.735 M 742.56,838.268 h 43.574 43.574 m -65.361,-37.736 21.787,37.736 21.787,37.736 37.736,21.787 21.786,37.736 V 979.1 m -309.289,-59.522 21.787,37.736 21.787,37.735 m -184.406,-37.735 37.736,-21.787 h 43.574 l 37.736,21.787 21.786,37.735 M 351.962,876.004 h 43.573 M 623.515,4.951 601.728,42.686 V 86.26 l 21.787,37.736 37.736,21.787 h 43.573 L 742.56,123.996 764.347,86.26 V 42.686 L 742.56,4.951 M 211.13,243.041 H 167.556 123.982 L 86.246,264.828 H 42.673 L 4.937,243.041 m 347.025,-81.309 21.787,-37.736 21.786,-37.736 37.736,-21.787 21.787,-37.736 h 43.574 L 536.368,4.951 M 395.535,161.732 373.749,123.996 351.962,86.26 V 42.686 L 330.175,4.951 M 189.343,280.777 167.556,243.041 145.769,205.305 V 161.732 L 123.982,123.996 86.246,102.209 H 42.673 L 4.937,123.996 m 0,238.091 37.736,21.787 h 43.573 l 37.736,-21.787 21.787,-37.736 V 280.777 L 123.982,243.041 86.246,221.254 H 42.673 L 4.937,243.041 m 184.406,676.537 v -43.574 l 21.787,-37.736 37.735,-21.787 h 43.574 l 37.736,21.787 21.787,37.736 v 43.574 L 330.175,957.314 292.439,979.1 H 248.865 L 211.13,957.314 H 167.556 123.982 L 86.246,935.527 H 42.673 L 4.937,957.314 M 145.769,756.959 h 43.574 m -43.574,-75.472 21.787,37.736 21.787,37.736 37.736,21.786 21.786,37.736 v 43.574 l -21.786,37.736 -37.736,21.787 H 145.769 L 108.033,897.791 86.246,860.055 v -43.574 l 21.787,-37.736 37.736,-21.786 M 4.937,600.177 42.673,578.391 h 43.573 l 37.736,21.786 21.787,37.736 v 43.574 L 123.982,719.223 86.246,741.01 H 42.673 L 4.937,719.223 M 145.769,518.868 123.982,481.132 86.246,459.345 H 42.673 L 4.937,481.132 m 119.045,0 21.787,-37.736 m 802.984,394.872 21.787,-37.736 v -43.573 l -21.787,-37.736 -37.736,-21.787 h -43.574 l -37.735,21.787 -21.787,37.736 v 43.573 l 21.787,37.736 37.735,21.787 h 43.574 z m -140.832,81.31 h -43.574 l -37.736,-21.787 -21.787,-37.736 v -43.574 l 21.787,-37.736 37.736,-21.786 h 43.574 l 37.736,21.786 21.786,37.736 v 43.574 l -21.786,37.736 z M 498.632,979.1 v -43.573 l 21.787,-37.736 37.735,-21.787 h 43.574 l 37.736,21.787 21.787,37.736 V 979.1 M 330.175,838.268 h 43.574 43.573 M 829.708,362.087 807.921,324.351 M 536.368,4.951 558.154,42.686 V 86.26 l -21.786,37.736 -37.736,21.787 H 455.058 L 417.322,123.996 395.535,86.26 V 42.686 L 417.322,4.951 m -21.787,200.354 h -43.573 l -37.736,-21.786 -21.787,-37.736 v -43.574 l 21.787,-37.736 37.736,-21.787 h 43.573 l 37.736,21.787 21.787,37.736 v 43.574 l -21.787,37.736 z M 189.343,324.351 H 145.769 L 108.033,302.564 86.246,264.828 v -43.574 l 21.787,-37.735 37.736,-21.787 h 43.574 l 37.736,21.787 21.786,37.735 v 43.574 l -21.786,37.736 z M 455.058,979.1 V 935.527 L 433.271,897.791 395.535,876.004 373.749,838.268 351.962,800.532 M 4.937,719.223 42.673,697.436 h 43.573 l 37.736,21.787 h 43.574 43.574 m -21.787,-37.736 -21.787,37.736 -21.787,37.736 v 43.573 l -21.787,37.736 -37.736,21.787 H 42.673 L 4.937,838.268 m 184.406,-319.4 -21.787,-37.736 -21.787,-37.736 V 399.823 L 123.982,362.087 86.246,340.3 H 42.673 L 4.937,362.087 m 0,238.09 37.736,21.787 h 43.573 l 37.736,-21.787 21.787,-37.735 v -43.574 l 21.787,-37.736 21.787,-37.736 m 618.578,194.517 21.787,-37.736 M 661.251,816.481 h 43.573 l 37.736,21.787 21.787,37.736 v 43.574 L 742.56,957.314 704.824,979.1 h -43.573 l -37.736,-21.786 -21.787,-37.736 v -43.574 l 21.787,-37.736 z M 292.439,979.1 v -43.573 l 21.787,-37.736 37.736,-21.787 21.787,-37.736 21.786,-37.736 M 829.708,600.177 807.921,562.442 m 0,-162.619 21.787,-37.736 m -21.787,37.736 -21.787,-37.736 -21.787,-37.736 m -37.736,-21.787 -21.787,-37.736 v -43.574 l 21.787,-37.735 37.736,-21.787 h 43.574 l 37.736,21.787 21.786,37.735 v 43.574 l -21.786,37.736 -37.736,21.787 H 764.347 Z M 623.515,243.041 601.728,205.305 m -43.574,0 h 43.574 m -309.289,59.523 37.736,-21.787 21.787,-37.736 v -43.573 l -21.787,-37.736 -37.736,-21.787 h -43.574 l -37.735,21.787 -21.787,37.736 v 43.573 l 21.787,37.736 37.735,21.787 z m -103.096,373.085 37.736,21.787 21.786,37.736 v 43.574 l -21.786,37.735 -37.736,21.787 H 145.769 L 108.033,778.745 86.246,741.01 V 697.436 L 108.033,659.7 145.769,637.913 Z M 211.13,481.132 H 167.556 123.982 L 86.246,502.919 H 42.673 L 4.937,481.132 m 824.771,119.045 37.735,21.787 h 43.574 l 37.736,-21.787 21.787,-37.735 v -43.574 l -21.787,-37.736 -37.736,-21.787 h -43.574 l -37.735,21.787 -21.787,37.736 v 43.574 l -21.787,37.735 -21.787,37.736 M 455.058,816.481 h 43.574 l 37.736,21.787 21.786,37.736 v 43.574 l -21.786,37.736 -37.736,21.786 h -43.574 l -37.736,-21.786 -21.787,-37.736 v -43.574 l 21.787,-37.736 z m 0,0 -21.787,-37.736 -37.736,-21.786 h -43.573 l -37.736,21.786 -21.787,37.736 v 43.574 l 21.787,37.736 37.736,21.787 h 43.573 l 37.736,-21.787 21.787,-37.736 z M 807.921,637.913 786.134,600.177 764.347,562.442 m 0,-162.619 21.787,-37.736 21.787,-37.736 v -43.574 l 21.787,-37.736 37.735,-21.787 h 43.574 l 37.736,21.787 21.787,37.736 v 43.574 l -21.787,37.736 -37.736,21.787 h -43.574 l -37.735,-21.787 m -87.148,0 h 43.574 43.574 L 867.443,340.3 h 43.574 l 37.736,21.787 21.787,37.736 v 43.573 l -21.787,37.736 -37.736,21.787 H 867.443 L 829.708,481.132 807.921,443.396 V 399.823 M 601.728,280.777 579.941,243.041 558.154,205.305 m 43.574,0 v -43.573 l 21.787,-37.736 37.736,-21.787 h 43.573 l 37.736,21.787 21.787,37.736 v 43.573 l -21.787,37.736 -37.736,21.787 h -43.573 l -37.736,-21.787 h -43.574 -43.573 m -347.025,200.355 37.736,-21.787 21.786,-37.735 V 340.3 L 227.079,302.564 189.343,280.777 H 145.769 L 108.033,302.564 86.246,340.3 v 43.574 l 21.787,37.735 37.736,21.787 z m 21.787,275.827 37.735,-21.787 h 43.574 l 37.736,21.787 21.787,37.736 v 43.573 l -21.787,37.736 -37.736,21.787 H 248.865 L 211.13,838.268 189.343,800.532 v -43.573 z m -21.787,-200.355 37.736,21.787 21.786,37.736 v 43.573 L 227.079,659.7 189.343,681.487 H 145.769 L 108.033,659.7 86.246,621.964 v -43.573 l 21.787,-37.736 37.736,-21.787 z m 0,-119.045 37.736,21.786 21.786,37.736 v 43.574 l -21.786,37.736 -37.736,21.787 H 145.769 L 108.033,540.655 86.246,502.919 v -43.574 l 21.787,-37.736 37.736,-21.786 z M 742.56,600.177 h 43.574 43.574 l 37.735,-21.786 h 43.574 l 37.736,21.786 21.787,37.736 v 43.574 l -21.787,37.736 -37.736,21.787 H 867.443 L 829.708,719.223 807.921,681.487 V 637.913 M 704.824,741.01 v -43.574 l 21.787,-37.736 37.736,-21.787 h 43.574 l 37.736,21.787 21.786,37.736 v 43.574 l -21.786,37.735 -37.736,21.787 h -43.574 l -37.736,-21.787 z m -103.096,15.949 21.787,-37.736 m -65.361,37.736 h 43.574 M 726.611,302.564 704.824,340.3 v 43.574 l 21.787,37.735 37.736,21.787 h 43.574 l 37.736,-21.787 21.786,-37.735 V 340.3 l -21.786,-37.736 -37.736,-21.787 h -43.574 z m -168.457,-21.787 21.787,-37.736 21.787,-37.736 37.736,-21.786 21.787,-37.736 V 102.209 L 639.464,64.473 601.728,42.686 h -43.574 l -37.735,21.787 -21.787,37.736 v 43.574 l 21.787,37.736 37.735,21.786 m 0,0 -21.786,37.736 -37.736,21.787 h -43.574 l -37.736,-21.787 -21.787,-37.736 v -43.573 l 21.787,-37.736 37.736,-21.787 h 43.574 l 37.736,21.787 21.786,37.736 z M 351.962,324.351 h 43.573 m -65.36,37.736 21.787,-37.736 m 455.959,194.517 h -43.574 l -37.736,21.787 -21.787,37.736 v 43.573 l 21.787,37.736 37.736,21.787 h 43.574 l 37.736,-21.787 21.786,-37.736 v -43.573 l -21.786,-37.736 z m -249.767,238.091 21.787,-37.736 21.787,-37.736 m -65.36,37.736 h 43.573 43.574 l 37.736,-21.787 h 43.573 l 37.736,21.787 21.787,37.736 v 43.573 l -21.787,37.736 -37.736,21.787 H 661.251 L 623.515,838.268 601.728,800.532 V 756.959 M 807.921,399.823 h -43.574 l -37.736,21.786 -21.787,37.736 v 43.574 l 21.787,37.736 37.736,21.787 h 43.574 l 37.736,-21.787 21.786,-37.736 V 459.345 L 845.657,421.609 Z M 623.515,243.041 601.728,280.777 v 43.574 l 21.787,37.736 37.736,21.787 h 43.573 l 37.736,-21.787 21.787,-37.736 V 280.777 L 742.56,243.041 704.824,221.254 h -43.573 z m 37.736,21.787 -21.787,37.736 -37.736,21.787 h -43.574 l -37.735,-21.787 -21.787,-37.736 v -43.574 l 21.787,-37.735 37.735,-21.787 h 43.574 l 37.736,21.787 21.787,37.735 z m -331.076,97.259 h 43.574 43.573 m -65.36,37.736 21.787,-37.736 21.786,-37.736 37.736,-21.787 21.787,-37.736 v -43.574 l -21.787,-37.735 -37.736,-21.787 h -43.573 l -37.736,21.787 -21.787,37.735 v 43.574 l 21.787,37.736 37.736,21.787 m 0,313.562 -21.787,-37.736 m 227.979,156.782 -37.735,21.786 -21.787,37.736 v 43.574 l 21.787,37.736 37.735,21.787 h 43.574 l 37.736,-21.787 21.787,-37.736 V 816.481 L 639.464,778.745 601.728,756.959 579.941,719.223 558.154,681.487 M 395.535,800.532 v -43.573 l 21.787,-37.736 37.736,-21.787 h 43.574 l 37.736,21.787 21.786,37.736 v 43.573 l -21.786,37.736 -37.736,21.787 H 455.058 L 417.322,838.268 Z M 351.962,637.913 h 43.573 m 0,-238.09 -21.786,-37.736 -21.787,-37.736 v -43.574 l -21.787,-37.736 -37.736,-21.787 h -43.574 l -37.735,21.787 -21.787,37.736 v 43.574 l 21.787,37.736 37.735,21.787 h 43.574 l 37.736,-21.787 M 189.343,399.823 211.13,362.087 248.865,340.3 h 43.574 l 37.736,21.787 21.787,37.736 v 43.573 l -21.787,37.736 -37.736,21.787 H 248.865 L 211.13,481.132 189.343,443.396 Z m 206.192,238.09 -21.786,-37.736 -21.787,-37.735 m 0,-43.574 -21.787,-37.736 -37.736,-21.787 h -43.574 l -37.735,21.787 -21.787,37.736 v 43.574 l 21.787,37.735 37.735,21.787 h 43.574 l 37.736,-21.787 21.787,-37.735 z M 704.824,741.01 h -43.573 l -37.736,-21.787 -21.787,-37.736 v -43.574 l 21.787,-37.736 37.736,-21.786 h 43.573 l 37.736,21.786 21.787,37.736 v 43.574 L 742.56,719.223 Z M 520.419,659.7 498.632,697.436 v 43.574 l 21.787,37.735 37.735,21.787 h 43.574 l 37.736,-21.787 21.787,-37.735 V 697.436 L 639.464,659.7 601.728,637.913 H 558.154 Z M 351.962,637.913 v 43.574 l -21.787,37.736 -37.736,21.787 H 248.865 L 211.13,719.223 189.343,681.487 v -43.574 l 21.787,-37.736 37.735,-21.786 h 43.574 l 37.736,21.786 h 43.574 43.573 M 623.515,481.132 601.728,443.396 M 455.058,221.254 h 43.574 l 37.736,21.787 21.786,37.736 v 43.574 l -21.786,37.736 -37.736,21.787 h -43.574 l -37.736,-21.787 -21.787,-37.736 v -43.574 l 21.787,-37.736 z M 395.535,443.396 H 351.962 L 314.226,421.609 292.439,383.874 V 340.3 l 21.787,-37.736 37.736,-21.787 h 43.573 l 37.736,21.787 21.787,37.736 v 43.574 l -21.787,37.735 z m 0,194.517 37.736,21.787 21.787,37.736 v 43.574 l -21.787,37.735 -37.736,21.787 H 351.962 L 314.226,778.745 292.439,741.01 v -43.574 l 21.787,-37.736 37.736,-21.787 21.787,-37.736 21.786,-37.735 m 206.193,-43.574 21.787,-37.736 m -21.787,37.736 -21.787,-37.736 -21.787,-37.736 M 520.419,421.609 498.632,383.874 V 340.3 l 21.787,-37.736 37.735,-21.787 h 43.574 l 37.736,21.787 21.787,37.736 v 43.574 l -21.787,37.735 -37.736,21.787 h -43.574 z m -87.148,119.046 21.787,37.736 v 43.573 L 433.271,659.7 395.535,681.487 H 351.962 L 314.226,659.7 292.439,621.964 v -43.573 l 21.787,-37.736 37.736,-21.787 h 43.573 z m 124.883,-21.787 21.787,-37.736 21.787,-37.736 v -43.573 l 21.787,-37.736 37.736,-21.787 h 43.573 l 37.736,21.787 21.787,37.736 v 43.573 l -21.787,37.736 -37.736,21.787 h -43.573 l -37.736,-21.787 m -124.883,97.259 h -43.574 l -37.736,21.786 -21.787,37.736 v 43.574 l 21.787,37.736 37.736,21.787 h 43.574 l 37.736,-21.787 21.786,-37.736 v -43.574 l -21.786,-37.736 z m 37.736,-97.259 h 43.573 43.574 l 37.736,-21.787 h 43.573 l 37.736,21.787 21.787,37.736 v 43.574 l -21.787,37.735 -37.736,21.787 H 661.251 L 623.515,600.177 601.728,562.442 V 518.868 M 498.632,459.345 h -43.574 l -37.736,21.787 -21.787,37.736 v 43.574 l 21.787,37.735 37.736,21.787 h 43.574 l 37.736,-21.787 21.786,-37.735 v -43.574 l -21.786,-37.736 z m -43.574,43.574 -21.787,37.736 -37.736,21.787 h -43.573 l -37.736,-21.787 -21.787,-37.736 v -43.574 l 21.787,-37.736 37.736,-21.786 h 43.573 l 37.736,21.786 21.787,37.736 z m 65.361,37.736 -21.787,37.736 v 43.573 l 21.787,37.736 37.735,21.787 h 43.574 l 37.736,-21.787 21.787,-37.736 v -43.573 l -21.787,-37.736 -37.736,-21.787 h -43.574 z m -21.787,-37.736 h -43.574 l -37.736,-21.787 -21.787,-37.736 v -43.573 l 21.787,-37.736 37.736,-21.787 h 43.574 l 37.736,21.787 21.786,37.736 v 43.573 l -21.786,37.736 z m 0,0 21.787,37.736 37.735,21.787 h 43.574 l 37.736,-21.787 21.787,-37.736 v -43.574 l -21.787,-37.736 -37.736,-21.786 h -43.574 l -37.735,21.786 -21.787,37.736 z"
     inkscape:connector-curvature="0"
     style="opacity:1;fill-opacity:0;stroke:#000000;stroke-width:16;stroke-opacity:1;stop-opacity:1;stroke-miterlimit:4;stroke-dasharray:none" />
</svg>
