<?xml version="1.0" encoding="UTF-8" standalone="no"?>
<svg
   xmlns:dc="http://purl.org/dc/elements/1.1/"
   xmlns:cc="http://creativecommons.org/ns#"
   xmlns:rdf="http://www.w3.org/1999/02/22-rdf-syntax-ns#"
   xmlns:svg="http://www.w3.org/2000/svg"
   xmlns="http://www.w3.org/2000/svg"
   xmlns:sodipodi="http://sodipodi.sourceforge.net/DTD/sodipodi-0.dtd"
   xmlns:inkscape="http://www.inkscape.org/namespaces/inkscape"
   inkscape:version="1.0beta1 (32d4812, 2019-09-19)"
   sodipodi:docname="5-uniform_318.svg"
   id="c:\kuniform\5u\5-uniform_318.svg"
   height="1000.0"
   width="1000.0"
   version="1.0">
  <metadata
     id="metadata12238">
    <rdf:RDF>
      <cc:Work
         rdf:about="">
        <dc:format>image/svg+xml</dc:format>
        <dc:type
           rdf:resource="http://purl.org/dc/dcmitype/StillImage" />
        <dc:title></dc:title>
      </cc:Work>
    </rdf:RDF>
  </metadata>
  <defs
     id="defs12236" />
  <sodipodi:namedview
     inkscape:current-layer="c:\kuniform\5u\5-uniform_318.svg"
     inkscape:window-maximized="1"
     inkscape:window-y="23"
     inkscape:window-x="0"
     inkscape:cy="547.47677"
     inkscape:cx="313.82769"
     inkscape:zoom="0.69969912"
     showgrid="false"
     id="namedview12234"
     inkscape:window-height="1005"
     inkscape:window-width="1680"
     inkscape:pageshadow="2"
     inkscape:pageopacity="0"
     guidetolerance="10"
     gridtolerance="10"
     objecttolerance="10"
     borderopacity="1"
     inkscape:document-rotation="0"
     bordercolor="#666666"
     pagecolor="#ffffff" />
  <!-- X Coordinate transform: fx(x)=(x+83.79846)*0.8700981-->
  <!-- Y Coordinate transform: fy(y)=(1083.7985-y)*0.8700981 -->
  <path
     d="m 897.944,957.373 37.677,-21.752 37.676,-21.753 M 20.874,183.237 42.627,145.561 m 43.505,-43.505 37.676,-21.753 21.753,-37.676 37.676,-21.753 m -81.181,877.07 21.752,37.677 21.753,37.676 37.676,21.752 M 913.868,86.132 h 43.505 m -21.752,805.984 37.676,21.752 m -15.924,-59.429 37.676,-21.752 m -97.105,81.181 37.677,21.753 37.676,21.752 m -118.858,0 21.753,37.676 M 86.132,145.561 v -43.505 m -5.829,833.565 h 43.505 43.505 m 37.676,21.752 21.753,37.676 M 64.379,832.687 H 20.874 m 0,0 21.753,-37.676 M 145.561,897.944 H 102.056 L 64.379,876.192 m 37.677,-21.753 -37.677,21.753 H 20.874 M 957.373,161.484 935.621,123.808 913.868,86.132 876.192,64.379 h -43.505 m 59.429,59.429 h 43.505 43.505 m -21.753,81.181 37.676,-21.752 m -81.181,-21.753 21.753,-37.676 21.752,-37.676 37.676,-21.753 m -140.61,849.489 21.753,-37.676 m -59.429,59.429 -21.752,37.676 M 64.379,226.742 v -43.505 l 21.753,-37.676 37.676,-21.753 37.676,-21.752 M 226.742,64.379 V 20.874 m 0,0 37.676,21.753 m -140.61,124.686 37.676,-21.752 M 307.923,42.627 345.599,20.874 M 42.627,751.506 20.874,713.829 M 876.192,20.874 913.868,42.627 m -730.631,833.565 -37.676,21.752 -21.753,37.677 -21.752,37.676 m -59.429,-59.429 37.676,21.753 21.753,37.676 m 671.202,-892.994 37.677,21.753 m 65.257,81.181 37.676,21.752 m 21.753,37.677 37.676,21.752 M 42.627,913.868 20.874,876.192 m 892.994,-65.257 h 43.505 l 37.676,21.752 m -118.857,0 37.676,21.752 m -200.039,140.61 37.677,-21.752 21.752,-37.676 21.753,-37.677 M 80.303,286.171 102.056,248.494 M 242.666,123.808 264.418,86.132 M 183.237,64.379 h 43.505 l 37.676,21.753 h 43.505 M 670.324,64.379 V 20.874 m -37.676,21.753 37.676,-21.753 m -118.857,0 37.676,21.753 M 86.132,795.011 V 751.506 M 64.379,389.104 H 20.874 M 42.627,426.781 20.874,389.104 M 86.132,102.056 H 42.627 L 4.95,123.808 m 15.924,384.154 21.753,-37.676 m 205.867,443.582 37.677,21.753 37.676,21.752 M 204.989,913.868 226.742,876.192 M 161.484,795.011 123.808,773.258 86.132,751.506 64.379,713.829 v -43.505 m 665.374,265.297 h 43.505 43.505 l 37.676,-21.753 h 43.505 l 37.677,-21.752 m -243.544,65.257 -21.753,37.676 M 42.627,102.056 20.874,64.379 M 64.379,183.237 42.627,145.561 V 102.056 L 64.379,64.379 m 302.973,892.994 -21.753,37.676 M 204.989,102.056 183.237,64.379 145.561,42.627 H 102.056 L 64.379,64.379 H 20.874 m 184.115,81.182 H 161.484 L 123.808,123.808 86.132,102.056 64.379,64.379 V 20.874 m 892.994,671.203 37.676,21.752 M 810.935,145.561 V 102.056 L 832.687,64.379 V 20.874 m 0,162.363 21.752,-37.676 m 140.61,200.038 -21.752,-37.676 -37.676,-21.752 -37.677,-21.753 m 59.429,102.934 37.676,21.752 M 876.192,64.379 913.868,42.627 h 43.505 l 37.676,21.752 M 86.132,795.011 64.379,832.687 v 43.505 l -21.752,37.676 v 43.505 l 21.752,37.676 M 892.116,773.258 h 43.505 43.505 m -21.753,37.677 -21.752,-37.677 -21.753,-37.676 m -81.181,97.105 h 43.505 l 37.676,-21.752 21.753,-37.677 21.752,-37.676 m -102.934,59.429 21.753,37.676 v 43.505 l 21.752,37.676 v 43.505 l -21.752,37.676 M 751.506,897.944 h 43.505 l 37.676,-21.752 m -37.676,-21.753 37.676,21.753 h 43.505 l 37.676,-21.753 h 43.505 l 37.676,21.753 M 692.077,102.056 713.829,64.379 M 145.561,248.494 H 102.056 L 64.379,226.742 H 20.874 m 124.687,-21.753 37.676,21.753 m 81.181,-65.258 21.753,-37.676 21.752,-37.676 37.676,-21.753 h 43.505 m -205.867,118.858 21.752,-37.676 37.677,-21.753 h 43.505 43.505 M 854.439,102.056 832.687,64.379 795.011,42.627 H 751.506 L 713.829,64.379 H 670.324 L 632.648,86.132 H 589.143 M 410.857,102.056 448.533,80.303 M 102.056,648.572 80.303,610.896 M 102.056,367.352 64.379,345.599 M 86.132,470.286 V 426.781 L 64.379,389.104 V 345.599 L 42.627,307.923 v -43.505 l 21.752,-37.676 37.677,-21.753 m 184.115,687.127 -37.677,21.752 h -43.505 l -37.676,21.753 -21.752,37.676 h -43.505 l -37.677,21.752 m 184.115,-37.676 37.677,-21.752 37.676,-21.753 m -97.105,-81.181 v 43.505 l 21.752,37.676 v 43.505 l -21.752,37.676 m -81.181,-140.61 37.676,21.753 h 43.505 l 37.676,-21.753 m -178.286,-59.428 37.676,-21.753 37.676,-21.752 m 21.753,81.181 21.752,-37.676 m 368.23,162.362 37.677,-21.752 37.676,-21.753 m -243.544,21.753 21.753,37.676 m -140.61,-81.181 37.676,21.752 h 43.505 l 37.676,21.753 h 43.505 43.505 m 37.676,21.752 21.753,37.676 M 935.621,654.401 973.297,632.648 M 713.829,20.874 l 37.677,21.753 21.752,37.676 v 43.505 43.505 m 162.363,162.363 v -43.505 -43.505 l -21.753,-37.677 v -43.505 l -21.752,-37.676 -37.677,-21.752 h -43.504 l -37.677,21.752 -37.676,21.753 m 0,-43.505 37.676,21.752 37.677,21.753 21.752,37.676 v 43.505 m -37.676,-21.753 37.676,-21.752 h 43.505 l 37.676,-21.753 h 43.505 l 37.676,21.753 m -97.105,124.686 37.677,-21.752 37.676,-21.753 m -118.858,0 21.753,-37.676 m 37.676,184.115 h 43.505 l 37.676,-21.753 m -37.676,140.61 37.676,-21.752 m -118.857,205.867 37.676,-21.752 m -200.039,184.115 37.677,21.752 21.752,37.677 21.753,37.676 M 773.258,816.763 810.935,795.011 M 654.401,123.808 632.648,86.132 M 20.874,345.599 42.627,307.923 80.303,286.171 h 43.505 43.505 m -21.752,37.676 H 102.056 L 64.379,345.599 H 20.874 m 81.182,-21.752 21.752,-37.676 21.753,-37.677 37.676,-21.752 h 43.505 m -21.753,37.676 -21.752,-37.676 V 183.237 L 161.484,145.561 V 102.056 L 183.237,64.379 V 20.874 M 307.923,161.484 286.171,123.808 264.418,86.132 V 42.627 L 286.171,4.95 m -59.429,178.287 37.676,21.752 M 410.857,145.561 V 102.056 L 389.104,64.379 V 20.874 m 140.61,81.182 -21.752,-37.677 M 145.561,648.572 H 102.056 L 64.379,670.324 H 20.874 M 123.808,492.038 v -43.505 -43.505 m -59.429,146.439 37.677,-21.753 m 265.296,384.154 -21.753,-37.676 m -221.791,-146.439 37.676,21.753 h 43.505 m -21.752,-37.677 -21.753,37.677 v 43.505 l 21.753,37.676 v 43.505 l 21.752,37.676 v 43.505 l -21.752,37.676 m 81.181,-184.114 -21.752,-37.677 m 449.411,140.61 -21.753,-37.676 m -59.428,15.924 37.676,21.752 h 43.505 l 37.676,21.753 21.753,37.676 h 43.505 l 37.676,21.752 m -259.468,-81.181 37.677,21.753 37.676,21.752 m -221.791,-59.429 21.752,37.677 21.753,37.676 37.676,21.752 m -118.858,-118.857 37.677,21.752 h 43.505 m -43.505,75.353 h 43.505 l 21.752,-37.676 37.676,-21.753 h 43.505 l 37.677,-21.752 m 287.048,-259.468 37.677,-21.752 37.676,-21.753 21.752,-37.676 m -281.22,-368.23 -21.752,-37.676 m 184.115,200.038 21.752,-37.676 V 264.418 L 876.192,226.742 V 183.237 L 854.439,145.561 V 102.056 L 876.192,64.379 V 20.874 m -59.429,265.297 -21.752,-37.677 m 81.181,140.61 37.676,-21.752 m -15.924,221.791 37.677,21.753 37.676,21.752 M 892.116,448.533 h 43.505 43.505 m -65.258,37.676 21.753,-37.676 21.752,-37.676 M 810.935,751.506 v 43.505 l 21.752,37.676 v 43.505 l 21.752,37.676 v 43.505 l -21.752,37.676 M 367.352,102.056 389.104,64.379 426.781,42.627 h 43.505 l 37.676,21.752 h 43.505 l 37.676,21.753 21.753,37.676 21.752,37.676 M 145.561,367.352 183.237,345.599 M 345.599,183.237 307.923,161.484 h -43.505 l -37.676,21.753 h -43.505 l -37.676,21.752 H 102.056 L 64.379,183.237 H 20.874 m 227.62,81.181 37.677,-21.752 m 102.933,-59.429 -21.752,-37.676 m 221.791,15.923 21.753,-37.676 21.752,-37.676 V 42.627 L 610.896,4.95 M 448.533,167.313 V 123.808 80.303 L 470.286,42.627 507.962,20.874 M 307.923,204.989 v -43.505 l 21.753,-37.676 37.676,-21.752 h 43.505 l 37.676,21.752 37.676,21.753 M 145.561,692.077 183.237,670.324 M 167.313,610.896 H 123.808 80.303 L 42.627,589.143 20.874,551.467 m 124.687,21.752 H 102.056 L 64.379,551.467 H 20.874 m 81.182,140.61 -37.677,-21.753 -21.752,-37.676 v -43.505 l 21.752,-37.676 v -43.505 l 21.753,-37.676 37.676,-21.753 37.676,-21.752 m -75.352,0 37.676,21.752 37.676,21.753 m 146.439,340.649 h -43.505 l -37.676,21.752 h -43.505 l -37.676,21.752 H 102.056 L 64.379,832.687 42.627,795.011 v -43.505 l 21.752,-37.677 m 605.945,118.858 v 43.505 l -21.752,37.676 v 43.505 l 21.752,37.676 m -140.61,-81.181 21.753,-37.676 M 389.104,832.687 h -43.505 l -37.676,-21.752 -21.752,-37.677 -21.753,-37.676 m 43.505,118.857 37.676,21.753 h 43.505 l 37.677,-21.753 m 43.505,0 v 43.505 l 21.752,37.677 37.676,21.752 h 43.505 l 37.677,21.753 37.676,-21.753 h 43.505 l 37.676,-21.752 21.753,-37.677 v -43.505 m -362.402,140.61 37.677,-21.752 21.752,-37.676 21.753,-37.677 37.676,-21.752 m 227.62,-81.181 37.676,-21.753 37.677,-21.752 21.752,-37.677 v -43.505 m 43.505,0 -21.753,-37.676 M 751.506,248.494 h 43.505 l 37.676,-21.752 h 43.505 l 37.676,-21.753 h 43.505 l 37.676,21.753 m -37.676,259.467 -21.752,-37.676 -21.753,-37.676 -37.676,-21.753 h -43.505 m 21.752,-81.181 h 43.505 l 37.677,21.753 21.752,37.676 v 43.505 l 21.753,37.676 -21.753,37.676 v 43.505 l -21.752,37.677 -37.677,21.752 h -43.505 m 0,162.363 21.753,-37.677 v -43.505 l 21.752,-37.676 v -43.505 l -21.752,-37.676 m 0,-43.505 37.676,21.752 m -281.22,324.725 37.676,21.753 h 43.505 l 37.677,-21.753 21.752,-37.676 v -43.505 -43.505 m -37.676,21.753 37.676,21.752 37.677,21.753 h 43.504 l 37.677,-21.753 21.752,-37.676 v -43.505 l 21.753,-37.676 V 610.896 567.391 M 713.829,832.687 692.077,795.011 M 795.011,323.847 773.258,286.171 751.506,248.494 713.829,226.742 h -43.505 m -37.676,-21.753 37.676,-21.752 m -421.83,124.686 v -43.505 l -21.752,-37.676 v -43.505 l -21.753,-37.676 v -43.505 l 21.753,-37.677 37.676,-21.752 h 43.505 l 37.676,21.752 m 43.505,162.363 v -43.505 l 21.753,-37.676 37.676,-21.753 37.676,-21.752 m -97.105,-81.182 37.677,21.753 21.752,37.676 37.676,21.753 h 43.505 l 37.677,21.752 21.752,37.676 v 43.505 m -37.676,-21.752 37.676,-21.753 h 43.505 l 37.676,21.753 h 43.505 l 37.677,21.752 M 507.962,183.237 529.714,145.561 M 226.742,670.324 h -43.505 l -37.676,-21.752 -21.753,-37.676 -21.752,-37.677 m 43.505,-43.505 37.676,21.753 m 43.505,-162.363 v -43.505 l 21.752,-37.676 37.677,-21.752 37.676,-21.753 M 204.989,426.781 183.237,389.104 m -162.363,281.22 21.753,-37.676 37.676,-21.752 21.753,-37.677 v -43.505 l 21.752,-37.676 37.676,-21.752 h 43.505 m -21.752,37.676 -21.753,-37.676 v -43.505 l 21.753,-37.677 v -43.505 l 21.752,-37.676 m 124.687,465.335 h -43.505 -43.505 l -37.677,-21.752 -21.752,-37.677 v -43.505 l 21.752,-37.676 m 81.182,259.468 -21.753,-37.677 v -43.504 l 21.753,-37.677 21.752,-37.676 m -81.181,-21.753 37.676,-21.752 m 324.725,118.858 h 43.505 l 37.676,21.752 h 43.505 l 37.677,21.752 h 43.505 l 37.676,-21.752 21.752,-37.676 v -43.505 l -21.752,-37.677 m -421.83,81.182 37.676,21.752 m 346.478,-168.191 21.752,-37.676 m -87.01,-324.725 h 43.505 43.505 l 37.676,21.752 21.753,37.676 v 43.505 l -21.753,37.677 m -102.933,-102.934 21.752,-37.676 21.753,-37.677 v -43.505 l -21.753,-37.676 -37.676,-21.752 h -43.505 l -37.676,-21.753 h -43.505 -43.505 m 227.62,243.544 37.676,-21.753 m -21.752,124.687 v -43.505 l 21.752,-37.677 v -43.505 l 21.752,-37.676 v -43.505 l -21.752,-37.676 -37.676,-21.753 h -43.505 l -37.677,21.753 m -21.752,524.764 21.752,-37.677 m -81.181,97.106 21.753,-37.677 m -43.505,-530.592 37.676,21.752 m -362.401,65.258 v -43.505 -43.505 l 21.752,-37.677 37.676,-21.752 h 43.505 l 37.677,21.752 M 4.95,448.533 42.627,426.781 h 43.505 l 37.676,-21.753 21.753,-37.676 v -43.505 l 21.752,-37.676 37.676,-21.753 h 43.505 l 37.677,21.753 37.676,21.752 m 43.505,-43.505 -21.753,-37.676 M 226.742,345.599 204.989,307.923 v -43.505 l 21.753,-37.676 37.676,-21.753 h 43.505 l 37.676,21.753 h 43.505 l 37.677,21.752 h 43.505 m -124.687,584.193 -37.676,21.752 h -43.505 l -37.676,-21.752 -21.753,-37.676 v -43.505 l 21.753,-37.677 v -43.505 l 21.752,-37.676 v -43.505 m -5.828,-140.61 21.752,-37.676 m 43.505,281.22 37.676,21.752 m -97.105,-81.181 37.677,21.753 m 124.686,97.105 v 43.505 l -21.753,37.676 v 43.505 l -21.752,37.676 v 43.505 l 21.752,37.676 M 507.962,832.687 529.714,795.011 M 751.506,648.572 h 43.505 l 37.676,21.752 h 43.505 l 37.676,21.753 h 43.505 l 37.676,-21.753 m -281.22,-324.725 37.677,21.753 m 21.752,37.676 37.677,21.753 m -15.924,102.933 37.676,21.753 m -118.858,118.857 37.677,21.753 m -384.154,102.934 21.752,37.676 37.677,21.752 h 43.505 l 37.676,-21.752 h 43.505 l 37.676,-21.752 21.753,-37.677 21.752,-37.676 M 551.467,64.379 589.143,42.627 h 43.505 l 37.676,21.752 21.753,37.677 v 43.505 l -21.753,37.676 v 43.505 l -21.752,37.676 v 43.505 m -302.973,37.676 21.753,-37.676 m 37.676,-21.752 21.753,-37.677 m 102.933,15.924 21.753,-37.676 M 64.379,507.962 42.627,470.286 v -43.505 l 21.752,-37.677 37.677,-21.752 h 43.505 l 37.676,21.752 h 43.505 l 37.676,21.753 h 43.505 m -81.181,97.105 37.676,21.752 m 102.934,221.792 21.752,-37.677 m -65.257,-81.181 -37.676,-21.752 -37.677,-21.753 -21.752,-37.676 v -43.505 l -21.753,-37.676 v -43.505 l 21.753,-37.677 37.676,-21.752 m 346.478,524.764 21.752,-37.677 v -43.504 l -21.752,-37.677 -21.753,-37.676 m 0,118.857 -37.676,21.753 H 507.962 L 470.286,854.439 448.533,816.763 V 773.258 729.753 M 286.171,567.391 v 43.505 43.505 l 21.752,37.676 v 43.505 l 21.753,37.676 37.676,21.753 h 43.505 l 37.676,-21.753 37.676,-21.752 m 243.544,-140.61 h 43.505 43.505 l 37.676,-21.753 21.753,-37.676 V 507.962 L 854.439,470.286 M 567.391,773.258 h 43.505 43.505 l 37.676,-21.752 h 43.505 l 37.676,-21.753 21.753,-37.676 v -43.505 l -21.753,-37.676 -21.752,-37.677 m -81.182,-227.62 21.753,-37.676 m 43.505,118.858 37.676,21.752 37.677,21.753 21.752,37.676 v 43.505 l 21.752,37.676 v 43.505 l -21.752,37.676 -37.676,21.753 m 200.038,-21.753 -21.752,-37.676 v -43.505 l -37.676,-21.752 -21.753,-37.677 v -43.505 l -21.752,-37.676 -37.677,-21.752 h -43.504 l -37.677,21.752 -37.676,21.753 m -65.258,200.038 h 43.505 l 37.677,-21.752 21.752,-37.676 21.753,-37.677 m -162.363,118.858 37.676,21.752 M 610.896,329.676 v -43.505 -43.505 l -21.753,-37.677 -37.676,-21.752 h -43.505 l -37.676,21.752 m 102.933,102.934 37.677,-21.752 37.676,-21.753 h 43.505 l 37.676,21.753 21.753,37.676 v 43.505 l 21.752,37.676 v 43.505 43.505 M 307.923,367.352 345.599,389.104 M 692.077,264.418 670.324,226.742 632.648,204.989 h -43.505 l -37.676,21.753 h -43.505 l -37.676,21.752 -21.753,37.677 -21.752,37.676 m 43.505,0 -21.753,-37.676 -21.752,-37.677 v -43.505 l 21.752,-37.676 37.676,-21.752 h 43.505 l 37.677,-21.753 21.752,-37.676 V 42.627 L 610.896,4.95 m -287.049,584.193 -37.676,21.753 -37.677,21.752 H 204.989 L 167.313,610.896 145.561,573.219 V 529.714 L 123.808,492.038 86.132,470.286 H 42.627 L 4.95,448.533 m 200.039,140.61 -21.752,-37.676 v -43.505 l 21.752,-37.676 37.677,-21.753 h 43.505 43.505 m -21.753,37.676 -21.752,-37.676 -21.753,-37.676 v -43.505 l 21.753,-37.676 37.676,-21.753 h 43.505 l 37.676,-21.752 h 43.505 43.505 m -5.829,508.84 -37.676,-21.753 -37.676,-21.752 -21.753,-37.677 v -43.505 m 37.677,21.753 -37.677,21.752 h -43.505 l -37.676,21.753 H 264.418 L 226.742,713.829 H 183.237 L 145.561,692.077 H 102.056 L 64.379,713.829 H 20.874 m 324.725,-43.505 21.753,-37.676 m 221.791,59.429 v 43.505 l -21.752,37.676 -37.677,21.753 h -43.505 l -37.676,21.752 -21.752,37.676 v 43.505 l -21.753,37.677 -37.676,21.752 h -43.505 l -37.676,21.753 -37.677,-21.753 H 204.989 L 167.313,935.621 145.561,897.944 V 854.439 L 123.808,816.763 86.132,795.011 H 42.627 L 4.95,773.258 m 546.517,-59.429 37.676,21.753 h 43.505 l 37.676,-21.753 h 43.505 l 37.677,-21.752 h 43.505 l 37.676,21.752 h 43.505 l 37.676,21.753 h 43.505 l 37.676,-21.753 m -465.335,37.677 -21.752,-37.677 m 205.867,-162.362 37.677,-21.753 m -81.182,-140.61 v -43.505 l -21.752,-37.676 -37.676,-21.752 -37.677,-21.753 m 118.858,162.363 21.752,-37.677 m 221.792,503.012 21.752,-37.677 v -43.504 l 21.753,-37.677 -21.753,-37.676 v -43.505 l -21.752,-37.676 -37.677,-21.753 h -43.505 l -37.676,-21.752 -21.752,-37.677 v -43.505 l -21.753,-37.676 -37.676,-21.752 h -43.505 m 21.752,37.676 21.753,-37.676 v -43.505 l -21.753,-37.677 v -43.505 l -21.752,-37.676 v -43.505 l 21.752,-37.676 v -43.505 l 21.753,-37.676 V 102.056 L 713.829,64.379 V 20.874 M 610.896,654.401 648.572,632.648 M 551.467,345.599 529.714,307.923 m -265.296,178.286 21.753,-37.676 21.752,-37.676 37.676,-21.753 h 43.505 m -21.752,37.677 -21.753,-37.677 v -43.505 l -21.752,-37.676 v -43.505 l 21.752,-37.676 v -43.505 l 21.753,-37.676 V 102.056 L 345.599,64.379 V 20.874 m 43.505,324.725 37.677,21.753 m 43.505,0 v -43.505 l 21.752,-37.676 37.676,-21.753 h 43.505 l 37.677,-21.752 21.752,-37.677 v -43.505 l 21.753,-37.676 37.676,-21.752 h 43.505 L 773.258,80.303 795.011,42.627 832.687,20.874 M 507.962,345.599 470.286,323.847 h -43.505 l -37.677,21.752 h -43.505 l -37.676,21.753 h -43.505 l -37.676,-21.753 h -43.505 l -37.676,-21.752 -21.753,-37.676 -21.752,-37.677 v -43.505 l 21.752,-37.676 V 123.808 80.303 m 243.544,508.84 H 323.847 L 286.171,567.391 264.418,529.714 V 486.209 L 242.666,448.533 204.989,426.781 H 161.484 L 123.808,405.028 102.056,367.352 V 323.847 L 80.303,286.171 42.627,264.418 20.874,226.742 m 324.725,768.307 -21.752,-37.676 v -43.505 l 21.752,-37.676 v -43.505 l 21.753,-37.676 v -43.505 l -21.753,-37.677 v -43.505 l -21.752,-37.676 v -43.505 l 21.752,-37.676 m -37.676,-21.753 37.676,-21.752 m 81.182,140.61 -21.753,-37.676 m 65.258,37.676 h -43.505 l -37.677,21.752 h -43.505 l -37.676,21.753 h -43.505 l -37.676,-21.753 -21.753,-37.676 v -43.505 l 21.753,-37.676 m 324.725,281.22 37.676,21.752 h 43.505 l 37.676,-21.752 21.753,-37.676 v -43.505 l -21.753,-37.677 v -43.505 l -21.752,-37.676 v -43.505 m 43.505,0 -21.753,-37.676 M 654.401,448.533 632.648,410.857 m -59.429,221.791 37.677,-21.752 37.676,-21.753 21.752,-37.676 v -43.505 l 21.753,-37.676 v -43.505 l -21.753,-37.677 -37.676,-21.752 m 200.039,140.61 21.752,-37.676 v -43.505 l -21.752,-37.677 -37.676,-21.752 h -43.505 l -37.677,21.752 h -43.505 l -37.676,21.753 h -43.505 m -37.676,-21.753 37.676,-21.752 m -178.286,59.429 37.676,-21.753 m -37.676,65.258 v -43.505 l -21.753,-37.677 v -43.505 l -21.752,-37.676 v -43.505 l 21.752,-37.676 37.677,-21.753 h 43.505 l 37.676,21.753 m 184.115,405.906 -21.753,37.676 -37.676,21.753 h -43.505 l -37.676,-21.753 h -43.505 l -37.676,-21.752 -21.753,-37.676 -21.752,-37.677 m -59.429,-102.933 -21.753,37.676 v 43.505 l 21.753,37.676 37.676,21.753 h 43.505 43.505 m 59.429,59.428 -21.753,-37.676 m -59.428,59.429 37.676,21.752 h 43.505 l 37.676,-21.752 21.753,-37.676 v -43.505 -43.505 m 21.752,-37.677 37.676,-21.752 m -37.676,-21.753 -21.752,-37.676 -21.753,-37.676 -37.676,-21.753 h -43.505 l -37.676,-21.752 h -43.505 l -37.677,21.752 -21.752,37.677 v 43.505 l 21.752,37.676 m 184.115,81.181 37.677,21.753 37.676,21.752 h 43.505 l 37.676,-21.752 21.753,-37.677 v -43.505 l 21.752,-37.676 37.677,-21.752 h 43.504 l 37.677,-21.753 21.752,-37.676 v -43.505 l 21.753,-37.676 37.676,-21.753 v -43.505 l 21.752,-37.676 M 567.391,448.533 h 43.505 43.505 l 37.676,21.753 21.752,37.676 v 43.505 l -21.752,37.676 v 43.505 l 21.752,37.676 v 43.505 l 21.753,37.677 v 43.505 l -21.753,37.676 v 43.505 l -21.752,37.676 v 43.505 l 21.752,37.676 M 529.714,426.781 507.962,389.104 m 0,281.22 -37.676,21.753 h -43.505 l -37.677,-21.753 -21.752,-37.676 v -43.505 l 21.752,-37.676 v -43.505 l 21.753,-37.676 37.676,-21.753 37.676,-21.752 m -37.676,65.257 v -43.505 -43.505 l 21.753,-37.676 37.676,-21.753 h 43.505 l 37.676,21.753 h 43.505 l 37.676,-21.753 h 43.505 l 37.677,-21.752 h 43.505 l 37.676,21.752 h 43.505 l 37.676,21.753 h 43.505 l 37.676,-21.753 m -605.945,205.868 37.677,-21.753 m 184.115,449.412 v -43.505 -43.505 l -21.753,-37.677 v -43.504 l -21.752,-37.677 -37.677,-21.752 h -43.505 l -37.676,-21.753 -21.752,-37.676 v -43.505 l 21.752,-37.676 21.753,-37.677 M 286.171,979.126 v -43.505 -43.505 l 21.752,-37.677 v -43.504 l 21.753,-37.677 37.676,-21.752 h 43.505 l 37.676,-21.753 21.753,-37.676 v -43.505 l 21.752,-37.676 37.676,-21.753 h 43.505 l 37.677,-21.752 21.752,-37.677 v -43.505 l 21.753,-37.676 37.676,-21.752 h 43.505 l 37.676,-21.753 21.753,-37.676 v -43.505 l 21.752,-37.676 37.676,-21.753 h 43.505 l 37.677,-21.752 21.752,-37.677 V 161.484 L 979.126,123.808 957.373,86.132 V 42.627 L 935.621,4.95 m -346.478,481.259 21.753,-37.676 21.752,-37.676 V 367.352 L 610.896,329.676 573.219,307.923 H 529.714 L 492.038,286.171 470.286,248.494 V 204.989 L 448.533,167.313 410.857,145.561 H 367.352 L 329.676,123.808 307.923,86.132 V 42.627 L 286.171,4.95 m 649.45,974.176 V 935.621 892.116 L 913.868,854.439 V 810.935 L 892.116,773.258 854.439,751.506 H 810.935 L 773.258,729.753 751.506,692.077 V 648.572 L 729.753,610.896 692.077,589.143 H 648.572 L 610.896,567.391 589.143,529.714 V 486.209 L 567.391,448.533 529.714,426.781 H 486.209 L 448.533,405.028 426.781,367.352 V 323.847 L 405.028,286.171 367.352,264.418 H 323.847 L 286.171,242.666 264.418,204.989 V 161.484 L 242.666,123.808 204.989,102.056 H 161.484 L 123.808,80.303 102.056,42.627 64.379,20.874 m 465.335,568.269 21.753,-37.676 M 4.95,773.258 42.627,751.506 h 43.505 l 37.676,-21.753 21.753,-37.676 v -43.505 l 21.752,-37.676 37.676,-21.753 h 43.505 l 37.677,-21.752 21.752,-37.677 v -43.505 l 21.753,-37.676 37.676,-21.752 h 43.505 l 37.676,21.752 37.676,21.753 m -362.401,346.477 37.676,-21.752 h 43.505 l 37.677,-21.753 21.752,-37.676 v -43.505 l 21.753,-37.676 37.676,-21.753 h 43.505 l 37.676,-21.752 21.753,-37.677 v -43.505 l 21.752,-37.676 37.676,-21.752 h 43.505 l 37.677,-21.753 21.752,-37.676 v -43.505 l 21.753,-37.676 37.676,-21.753 h 43.505 l 37.676,-21.752 21.753,-37.677 v -43.505 l 21.752,-37.676 37.677,-21.752 h 43.504 l 37.677,-21.753 21.752,-37.676 V 42.627 L 935.621,4.95 m 59.428,871.242 -21.752,37.676 v 43.505 l -37.676,21.753 -37.677,-21.753 H 854.439 L 816.763,935.621 795.011,897.944 V 854.439 L 773.258,816.763 735.582,795.011 H 692.077 L 654.401,773.258 632.648,735.582 V 692.077 L 610.896,654.401 573.219,632.648 H 529.714 L 492.038,610.896 470.286,573.219 V 529.714 L 448.533,492.038 410.857,470.286 H 367.352 L 329.676,448.533 307.923,410.857 V 367.352 L 286.171,329.676 248.494,307.923 H 204.989 L 167.313,286.171 145.561,248.494 V 204.989 L 123.808,167.313 86.132,145.561 H 42.627 L 4.95,123.808 m 465.336,405.906 37.676,21.753 M 42.627,957.373 80.303,935.621 102.056,897.944 v -43.505 l 21.752,-37.676 v -43.505 -43.505 l -21.752,-37.676 v -43.505 l 21.752,-37.676 21.753,-37.677 37.676,-21.752 h 43.505 l 37.676,-21.753 h 43.505 l 37.676,21.753 h 43.505 l 37.677,21.752 h 43.505 l 37.676,-21.752 h 43.505 l 37.676,-21.753 m -37.676,-21.752 37.676,21.752 h 43.505 l 37.676,21.753 h 43.505 l 37.677,21.752 h 43.505 l 37.676,-21.752 h 43.505 l 37.676,-21.753 h 43.505 l 37.676,21.753 m -443.582,443.582 21.752,-37.676 v -43.505 l -21.752,-37.676 v -43.505 l -21.753,-37.676 v -43.505 l 21.753,-37.677 v -43.505 l 21.752,-37.676 v -43.505 l -21.752,-37.676 v -43.505 l -21.753,-37.676 m -21.752,37.676 21.752,-37.676 v -43.505 l 21.753,-37.677 v -43.505 l 21.752,-37.676 V 264.418 L 551.467,226.742 V 183.237 L 529.714,145.561 V 102.056 L 551.467,64.379 V 20.874 m -43.505,974.175 21.752,-37.676 v -43.505 l -21.752,-37.676 v -43.505 l -21.753,-37.676 v -43.505 l 21.753,-37.677 v -43.505 l 21.752,-37.676 v -43.505 l -21.752,-37.676 v -43.505 l -21.753,-37.676 v -43.505 l 21.753,-37.677 v -43.505 l 21.752,-37.676 V 264.418 L 507.962,226.742 V 183.237 L 486.209,145.561 V 102.056 L 507.962,64.379 V 20.874 m 487.087,487.088 -37.676,-21.753 h -43.505 l -37.676,21.753 h -43.505 l -37.676,21.752 h -43.505 l -37.677,-21.752 h -43.505 l -37.676,-21.753 h -43.505 l -37.676,21.753 h -43.505 l -37.676,21.752 h -43.505 l -37.677,-21.752 h -43.505 l -37.676,-21.753 h -43.505 l -37.676,21.753 h -43.505 l -37.676,21.752 H 102.056 L 64.379,507.962 H 20.874 m 914.747,471.164 -37.677,-21.753 37.677,-21.752 z M 102.056,42.627 h 43.505 l -21.753,37.676 z m 871.241,914.746 -37.676,-21.752 37.676,-21.753 z m -871.241,15.924 21.752,-37.676 21.753,37.676 z m -21.753,-37.676 21.753,-37.677 21.752,37.677 z M 913.868,42.627 V 86.132 L 876.192,64.379 Z m 43.505,43.505 -21.752,37.676 -21.753,-37.676 z m 21.753,37.676 -21.753,37.676 -21.752,-37.676 z m -5.829,790.06 -37.676,21.753 v -43.505 z m -37.676,21.753 -37.677,-21.753 37.677,-21.752 z m 0,0 -37.677,21.752 v -43.505 z m -37.677,21.752 -21.752,37.676 -21.753,-37.676 z M 42.627,145.561 h 43.505 l -21.753,37.676 z m 0,0 21.752,37.676 H 20.874 Z m 43.505,-43.505 37.676,21.752 -37.676,21.753 z m 0,0 37.676,-21.753 v 43.505 z m 59.429,-59.429 37.676,-21.753 v 43.505 z m -21.753,37.676 37.676,21.753 -37.676,21.752 z m 21.753,892.994 -21.753,-37.676 h 43.505 z M 64.379,832.687 H 20.874 l 21.753,-37.676 z m 59.429,102.934 21.753,-37.677 21.752,37.677 z m 0,0 -21.752,-37.677 h 43.505 z M 64.379,876.192 v -43.505 l 37.677,21.752 z m 0,0 37.677,-21.753 v 43.505 z M 832.687,64.379 795.011,42.627 832.687,20.874 Z m 81.181,21.753 21.753,37.676 H 892.116 Z M 876.192,64.379 854.439,102.056 832.687,64.379 Z m 59.429,59.429 -21.753,37.676 -21.752,-37.676 z m 0,0 21.752,37.676 h -43.505 z m 21.752,37.676 37.676,21.753 -37.676,21.752 z m 0,692.955 37.676,-21.752 -37.676,-21.752 z m 0,-768.307 21.753,37.676 h -43.505 z m -21.752,805.984 -21.753,-37.677 h 43.505 z m -37.677,21.752 h -43.505 l 21.753,-37.676 z m -43.505,43.505 -37.676,-21.752 37.676,-21.753 z M 64.379,226.742 42.627,264.418 20.874,226.742 Z m 21.753,-81.181 37.676,-21.753 v 43.505 z m -21.753,37.676 37.677,21.752 -37.677,21.753 z M 226.742,64.379 V 20.874 l 37.676,21.753 z m -102.934,59.429 37.676,21.753 -37.676,21.752 z m 0,0 37.676,-21.752 v 43.505 z m 59.429,-59.429 h 43.505 l -21.753,37.677 z m 0,0 21.752,37.677 H 161.484 Z M 264.418,42.627 286.171,4.95 307.923,42.627 Z M 42.627,795.011 4.95,773.258 42.627,751.506 Z M 913.868,42.627 876.192,64.379 V 20.874 Z M 204.989,957.373 h 43.505 l -21.752,37.676 z m -37.676,-21.752 37.676,-21.753 v 43.505 z M 64.379,832.687 42.627,795.011 h 43.505 z m 81.182,65.257 v -43.505 l 37.676,21.753 z m -43.505,-43.505 21.752,-37.676 21.753,37.676 z m 0,118.858 -21.753,-37.676 h 43.505 z M 832.687,64.379 854.439,102.056 H 810.935 Z M 795.011,42.627 773.258,80.303 751.506,42.627 Z m 97.105,81.181 -37.677,21.753 V 102.056 Z M 42.627,957.373 v -43.505 l 37.676,21.753 z M 913.868,161.484 v 43.505 l -37.676,-21.752 z m 43.505,43.505 -21.752,37.677 -21.753,-37.677 z M 42.627,913.868 20.874,876.192 H 64.379 Z M 957.373,810.935 h -43.505 l 21.753,-37.677 z m 0,0 -21.752,-37.677 h 43.505 z m 21.753,-37.677 h -43.505 l 21.752,-37.676 z m -65.258,81.181 -37.676,-21.752 37.676,-21.752 z m 0,0 -37.676,21.753 V 832.687 Z M 795.011,973.297 h -43.505 l 21.752,-37.676 z m 0,0 -21.753,-37.676 h 43.505 z m 59.428,-59.429 -21.752,-37.676 h 43.505 z m -37.676,21.753 h -43.505 l 21.753,-37.677 z M 751.506,42.627 713.829,64.379 V 20.874 Z M 64.379,226.742 102.056,204.989 v 43.505 z m -21.752,37.676 37.676,21.753 -37.676,21.752 z m 81.181,-97.105 21.753,37.676 H 102.056 Z M 226.742,64.379 264.418,42.627 v 43.505 z m -65.258,81.182 h 43.505 l -21.752,37.676 z m 43.505,-43.505 37.677,21.752 -37.677,21.753 z m 102.934,-59.429 37.676,21.752 -37.676,21.753 z m 0,0 37.676,-21.753 V 64.379 Z M 670.324,64.379 632.648,42.627 670.324,20.874 Z M 632.648,42.627 H 589.143 L 610.896,4.95 Z M 389.104,64.379 V 20.874 l 37.677,21.753 z M 42.627,751.506 64.379,713.829 86.132,751.506 Z m 0,0 -21.753,-37.677 H 64.379 Z M 64.379,670.324 H 20.874 L 42.627,632.648 Z M 42.627,307.923 64.379,345.599 H 20.874 Z M 64.379,389.104 42.627,426.781 20.874,389.104 Z M 42.627,102.056 v 43.505 L 4.95,123.808 Z m 0,324.725 v 43.505 L 4.95,448.533 Z m 205.867,530.592 v -43.505 l 37.677,21.753 z m 0,0 37.677,-21.752 v 43.505 z m 37.677,21.753 v -43.505 l 37.676,21.752 z m -81.182,-65.258 21.753,-37.676 21.752,37.676 z m 0,0 -21.752,-37.676 h 43.505 z M 86.132,795.011 v -43.505 l 37.676,21.752 z m 0,0 37.676,-21.753 v 43.505 z m 59.429,59.428 37.676,-21.752 v 43.505 z m -21.753,-37.676 v -43.505 l 37.676,21.753 z m 627.698,156.534 -21.753,-37.676 h 43.505 z m -59.429,-15.924 -21.753,37.676 -21.752,-37.676 z M 64.379,64.379 86.132,102.056 H 42.627 Z m 259.468,892.994 h 43.505 l -21.753,37.676 z M 64.379,64.379 42.627,102.056 20.874,64.379 Z m 0,0 V 20.874 l 37.677,21.753 z m 892.994,671.203 37.676,-21.753 -37.676,-21.752 z M 810.935,102.056 v 43.505 l -37.677,-21.753 z m 0,0 -37.677,21.752 V 80.303 Z M 773.258,80.303 v 43.505 l -37.676,-21.752 z m 81.181,65.258 -21.752,37.676 -21.752,-37.676 z m 0,0 21.753,37.676 h -43.505 z m 118.858,118.857 v 43.505 l -37.676,-21.752 z m 0,0 -37.676,21.753 v -43.505 z m -59.429,-59.429 -37.676,21.753 v -43.505 z m 21.753,37.677 v 43.505 l -37.677,-21.753 z m 37.676,65.257 -37.676,21.753 v -43.505 z m 0,649.45 -37.676,21.753 V 935.621 Z M 957.373,42.627 H 913.868 L 935.621,4.95 Z m 0,324.725 37.676,21.752 -37.676,21.753 z m 0,-324.725 37.676,21.752 -37.676,21.753 z m -43.505,768.308 -21.752,-37.677 h 43.505 z m 21.753,-37.677 h -43.505 l 21.752,-37.676 z m 0,0 -21.753,-37.676 h 43.505 z m -59.429,59.429 h -43.505 l 21.752,-37.676 z M 773.258,935.621 h -43.505 l 21.753,-37.677 z m 0,0 -21.752,-37.677 h 43.505 z m 59.429,-59.429 -37.676,-21.753 37.676,-21.752 z m 0,0 -37.676,21.752 V 854.439 Z M 713.829,64.379 692.077,102.056 670.324,64.379 Z m 0,0 21.753,37.677 H 692.077 Z M 102.056,248.494 h 43.505 l -21.753,37.677 z m 0,0 21.752,37.677 H 80.303 Z m -21.753,37.677 h 43.505 l -21.752,37.676 z m 65.258,-81.182 37.676,21.753 -37.676,21.752 z m 0,0 37.676,-21.752 v 43.505 z M 264.418,86.132 h 43.505 l -21.752,37.676 z m 0,0 21.753,37.676 h -43.505 z m -59.429,59.429 21.753,37.676 h -43.505 z m 37.677,-21.753 h 43.505 l -21.753,37.676 z m 65.257,-37.676 21.753,37.676 h -43.505 z m 37.676,-21.753 h 43.505 l -21.752,37.677 z m 324.725,0 -37.676,21.753 V 42.627 Z M 589.143,42.627 V 86.132 L 551.467,64.379 Z m 0,0 -37.676,21.752 V 20.874 Z m -200.039,21.752 21.753,37.677 h -43.505 z m 37.677,-21.752 h 43.505 l -21.753,37.676 z m 43.505,0 37.676,-21.753 V 64.379 Z M 86.132,751.506 123.808,729.753 v 43.505 z M 64.379,713.829 v -43.505 l 37.677,21.753 z m 0,-43.505 37.677,-21.752 v 43.505 z M 42.627,632.648 v -43.505 l 37.676,21.753 z m 21.752,-287.049 37.677,21.753 -37.677,21.752 z m 0,0 37.677,-21.752 v 43.505 z m 0,43.505 21.753,37.677 H 42.627 Z M 42.627,589.143 20.874,551.467 h 43.505 z m 0,-118.857 h 43.505 l -21.753,37.676 z m 0,0 21.752,37.676 H 20.874 Z m 205.867,443.582 37.677,-21.752 v 43.505 z m 37.677,21.753 v -43.505 l 37.676,21.752 z m 0,0 37.676,-21.753 v 43.505 z m -59.429,-59.429 v -43.505 l 37.676,21.752 z M 123.808,773.258 v -43.505 l 37.676,21.753 z m 0,0 37.676,-21.752 v 43.505 z m 59.429,59.429 21.752,-37.676 21.753,37.676 z m 0,0 -21.753,-37.676 h 43.505 z m 546.516,102.934 -37.676,21.752 v -43.505 z m -81.181,21.752 -37.676,-21.752 37.676,-21.753 z m 0,0 -37.676,21.753 v -43.505 z m -37.676,21.753 -37.677,-21.753 37.677,-21.752 z M 367.352,957.373 v -43.505 l 37.676,21.753 z m 59.429,15.924 21.752,-37.676 21.753,37.676 z m 0,0 -21.753,-37.676 h 43.505 z m 43.505,0 -21.753,-37.676 h 43.505 z m 102.933,-15.924 -21.752,37.676 -21.753,-37.676 z M 957.373,692.077 h -43.505 l 21.753,-37.676 z M 810.935,145.561 773.258,167.313 v -43.505 z m -37.677,-21.753 v 43.505 l -37.676,-21.752 z m 0,0 -37.676,21.753 v -43.505 z m 59.429,59.429 v 43.505 l -37.676,-21.753 z m 102.934,102.934 v 43.505 l -37.677,-21.753 z m 0,0 -37.677,21.752 v -43.505 z m -59.429,-59.429 -21.753,37.676 -21.752,-37.676 z m 0,0 21.752,37.676 h -43.505 z m 59.429,102.934 21.752,37.676 h -43.505 z m 37.676,302.972 -37.676,-21.752 37.676,-21.753 z m 0,0 -37.676,21.753 v -43.505 z m 0,-43.505 -37.676,21.753 v -43.505 z m -15.924,-178.286 -21.752,37.676 -21.753,-37.676 z m 0,0 21.753,37.676 h -43.505 z m 21.753,37.676 -21.753,37.676 -21.752,-37.676 z m -21.753,81.181 37.676,-21.752 -37.676,-21.753 z m -65.257,243.544 -37.677,21.753 v -43.505 z m 21.752,-37.676 -37.676,-21.753 37.676,-21.752 z m -81.181,97.105 -21.752,-37.676 h 43.504 z m -81.181,65.257 -37.677,-21.752 37.677,-21.753 z m 43.505,-43.505 h -43.505 l 21.752,-37.676 z M 692.077,102.056 v 43.505 l -37.676,-21.753 z m -546.516,146.438 21.752,37.677 h -43.505 z m -21.753,37.677 h 43.505 l -21.752,37.676 z m 0,0 21.753,37.676 h -43.505 z m 59.429,-59.429 h 43.505 l -21.753,37.676 z M 286.171,123.808 h 43.505 l -21.753,37.676 z m 0,0 21.752,37.676 h -43.505 z m -59.429,59.429 37.676,21.752 -37.676,21.753 z m 0,0 37.676,-21.753 v 43.505 z m 102.934,-59.429 37.676,-21.752 v 43.505 z M 632.648,86.132 610.896,123.808 589.143,86.132 Z m 0,0 21.753,37.676 h -43.505 z m -43.505,0 21.753,37.676 H 567.391 Z M 551.467,64.379 529.714,102.056 507.962,64.379 Z m -140.61,37.677 37.676,21.752 -37.676,21.753 z m 0,0 37.676,-21.753 v 43.505 z m 37.676,-21.753 37.676,21.753 -37.676,21.752 z m 59.429,-15.924 21.752,37.677 H 486.209 Z M 123.808,729.753 102.056,692.077 h 43.505 z m -21.752,-81.181 21.752,-37.676 21.753,37.676 z m 0,0 -21.753,-37.676 h 43.505 z m -21.753,-37.676 21.753,-37.677 21.752,37.677 z m 21.753,-243.544 h 43.505 l -21.753,37.676 z m -15.924,59.429 37.676,21.752 -37.676,21.753 z m 0,0 37.676,-21.753 v 43.505 z m 0,43.505 37.676,-21.753 v 43.505 z m -21.753,81.181 v -43.505 l 37.677,21.752 z m 0,0 37.677,-21.753 v 43.505 z m 221.792,340.649 -21.753,-37.677 h 43.505 z m 37.676,21.752 21.752,-37.676 21.753,37.676 z m -97.105,-81.181 37.676,-21.752 v 43.504 z m -65.258,-81.181 21.753,-37.677 21.752,37.677 z m 43.505,43.505 v -43.505 l 37.677,21.752 z m 487.088,118.857 h -43.505 l 21.752,-37.676 z m 0,0 -21.753,-37.676 h 43.505 z m -43.505,0 -37.676,21.753 v -43.505 z m -37.676,21.753 -37.677,-21.753 37.677,-21.752 z m 0,0 -37.677,21.752 V 913.868 Z M 367.352,913.868 345.599,876.192 h 43.505 z m 37.676,21.753 21.753,-37.677 21.752,37.677 z m 43.505,0 21.753,-37.677 21.752,37.677 z m 0,0 -21.752,-37.677 h 43.505 z m 43.505,0 37.676,-21.753 v 43.505 z m 421.83,-243.544 -37.676,21.752 v -43.505 z m 21.753,-37.676 -37.677,-21.753 37.677,-21.752 z m -162.363,-487.088 21.753,37.676 h -43.505 z m -37.676,-21.752 -21.753,37.676 -21.752,-37.676 z m 97.105,81.181 -37.676,21.752 v -43.505 z m 65.257,81.181 -21.752,37.676 -21.753,-37.676 z m -43.505,-43.505 v 43.505 l -37.676,-21.752 z m 59.429,102.934 v 43.505 l -37.676,-21.753 z m 0,0 -37.676,21.752 v -43.505 z m 21.753,243.544 -37.677,-21.753 37.677,-21.752 z m 0,0 -37.677,21.752 v -43.505 z m -21.753,-200.039 21.753,37.676 h -43.505 z m 21.753,156.534 -21.753,-37.677 h 43.505 z m 0,-118.858 -21.753,37.676 -21.752,-37.676 z m 0,0 21.752,37.676 h -43.505 z m -81.182,302.973 h -43.504 l 21.752,-37.677 z m 0,0 -21.752,-37.677 h 43.505 z m -43.504,43.505 -37.677,-21.753 37.677,-21.752 z m 0,0 -37.677,21.752 v -43.505 z m -59.429,59.428 -37.677,21.753 v -43.505 z m 21.752,-37.676 -37.676,-21.752 37.676,-21.753 z m -81.181,-671.202 21.752,37.676 h -43.505 z m -37.676,-21.753 -21.753,37.676 -21.752,-37.676 z m -487.088,162.363 37.676,-21.753 v 43.505 z m -21.752,37.676 37.676,21.752 -37.676,21.753 z m 81.181,-97.105 21.752,37.676 h -43.505 z m 81.181,-65.258 37.676,21.753 -37.676,21.752 z m -43.505,43.505 h 43.505 l -21.752,37.677 z m 102.934,-59.428 h 43.505 l -21.753,37.676 z m 0,0 21.752,37.676 h -43.505 z m 243.544,-21.753 -21.753,37.676 -21.752,-37.676 z m 0,0 21.752,37.676 h -43.505 z m -200.039,21.753 37.676,-21.753 v 43.505 z m 156.534,-21.753 -37.677,21.753 v -43.505 z m -118.858,0 37.676,21.753 -37.676,21.752 z m 0,0 37.676,-21.752 v 43.505 z M 145.561,692.077 v -43.505 l 37.676,21.752 z m 0,0 37.676,-21.753 v 43.505 z m 0,-43.505 -21.753,-37.676 h 43.505 z m -21.753,-37.676 21.753,-37.677 21.752,37.677 z m 0,0 -21.752,-37.677 h 43.505 z m 21.753,-243.544 37.676,-21.753 v 43.505 z m -21.753,37.676 37.676,21.753 -37.676,21.752 z m 0,43.505 37.676,21.753 -37.676,21.752 z m 0,0 37.676,-21.752 v 43.505 z m 0,43.505 21.753,37.676 h -43.505 z m 184.115,362.401 v -43.504 l 37.676,21.752 z m 0,0 37.676,-21.752 v 43.505 z m -43.505,-43.504 21.753,-37.677 21.752,37.677 z m 0,0 -21.752,-37.677 h 43.505 z m -59.429,-59.429 -21.752,-37.677 h 43.505 z m 37.677,21.752 21.752,-37.676 21.753,37.676 z m 427.658,102.934 -37.676,-21.753 37.676,-21.752 z m -59.428,15.924 -21.753,-37.677 h 43.505 z m -37.677,21.752 h -43.505 l 21.753,-37.676 z M 389.104,876.192 v -43.505 l 37.677,21.752 z m 0,0 37.677,-21.753 v 43.505 z m 81.182,21.752 v -43.505 l 37.676,21.753 z m 59.428,15.924 -21.752,-37.676 h 43.505 z M 876.192,670.324 h -43.505 l 21.752,-37.676 z m 0,0 -21.753,-37.676 h 43.505 z M 751.506,204.989 v 43.505 l -37.677,-21.752 z m 0,0 -37.677,21.753 v -43.505 z m 43.505,43.505 -21.753,37.677 -21.752,-37.677 z m 0,0 21.752,37.677 h -43.505 z m 59.428,59.429 21.753,37.676 h -43.505 z m -37.676,-21.752 -21.752,37.676 -21.753,-37.676 z m 59.429,102.933 -21.753,37.677 -21.752,-37.677 z m 21.752,200.039 h -43.505 l 21.753,-37.676 z m -5.828,-140.61 -37.677,21.753 v -43.505 z m 21.752,81.181 -37.676,-21.752 37.676,-21.753 z m 0,0 -37.676,21.753 v -43.505 z m -102.933,221.792 -37.677,21.752 v -43.505 z m 21.752,-37.677 -37.676,-21.752 37.676,-21.753 z m -59.429,59.429 -37.676,-21.752 37.676,-21.753 z m 0,0 -37.676,21.753 v -43.505 z m -59.429,59.429 h -43.505 l 21.753,-37.676 z m 0,0 -21.752,-37.676 h 43.505 z m -43.505,-649.45 v 43.505 l -37.676,-21.753 z m 0,0 -37.676,21.752 V 161.484 Z M 204.989,307.923 h 43.505 l -21.752,37.676 z m 0,0 21.753,37.676 h -43.505 z m 43.505,-43.505 37.677,21.753 -37.677,21.752 z m 0,0 37.677,-21.752 v 43.505 z m 59.429,-59.429 37.676,-21.752 v 43.505 z m -21.752,37.677 37.676,21.752 -37.676,21.753 z m 102.933,-59.429 37.677,21.752 -37.677,21.753 z m 200.039,-21.753 v 43.505 l -37.676,-21.752 z m -140.61,5.829 21.753,37.676 h -43.505 z m 81.181,-21.752 -21.752,37.676 -21.753,-37.676 z m 0,0 21.753,37.676 h -43.505 z m -346.477,524.763 21.752,-37.676 21.753,37.676 z m -15.924,-59.428 37.676,-21.753 v 43.505 z m -21.752,-37.677 v -43.505 l 37.676,21.753 z m 37.676,-184.115 h 43.505 l -21.753,37.677 z m 0,0 21.752,37.677 h -43.505 z m -21.753,81.182 h 43.505 l -21.752,37.676 z m -15.923,59.428 37.676,-21.752 v 43.505 z m 162.362,281.221 -21.752,-37.677 h 43.505 z m 37.676,21.752 21.753,-37.676 21.752,37.676 z m -37.676,-97.105 21.753,37.676 h -43.505 z m 0,0 -21.752,37.676 -21.753,-37.676 z m -43.505,-43.505 -37.676,21.752 v -43.505 z m 0,0 v 43.505 l -37.676,-21.753 z m 368.23,118.858 37.676,21.752 -37.676,21.752 z m -81.181,21.752 37.676,-21.752 v 43.504 z m 0,0 37.676,21.752 -37.676,21.753 z m -140.61,-37.676 -21.753,37.676 -21.752,-37.676 z m 37.676,21.752 21.753,37.676 h -43.505 z m 59.429,15.924 v 43.505 l -37.676,-21.753 z m 287.049,-184.115 37.676,21.752 -37.676,21.753 z m 21.752,-37.676 37.676,-21.753 v 43.505 z m -87.01,-324.725 21.753,-37.677 21.752,37.677 z m -37.676,-21.753 -21.753,-37.676 h 43.505 z m 59.429,59.429 -21.753,-37.676 h 43.505 z m 0,0 21.752,-37.676 21.753,37.676 z m 43.505,43.505 37.676,-21.753 v 43.505 z m 0,0 37.676,-21.753 -37.676,-21.752 z m 15.924,59.429 21.752,-37.677 21.752,37.677 z m 21.752,124.686 h 43.505 l -21.753,37.676 z m 0,-43.505 -21.752,-37.676 h 43.504 z m 0,0 21.752,-37.676 21.753,37.676 z m -81.181,184.115 h 43.505 l -21.753,37.676 z m -37.677,21.752 21.753,37.677 h -43.505 z m -59.428,59.429 37.676,-21.752 v 43.505 z m -5.829,-508.84 21.752,-37.676 21.753,37.676 z m -37.676,-21.752 -21.753,-37.677 h 43.505 z m -324.725,87.01 -37.677,-21.753 37.677,-21.752 z m -21.753,37.676 -37.676,21.752 v -43.505 z m 59.429,-59.429 -37.676,21.753 v -43.505 z m 0,0 -37.676,-21.752 37.676,-21.753 z m 43.505,-43.505 -21.753,-37.676 h 43.505 z m 0,0 h -43.505 l 21.752,-37.676 z m 59.429,-15.924 -37.677,-21.752 37.677,-21.753 z m 124.686,-21.752 37.676,-21.753 -37.676,-21.752 z m -43.505,0 -37.676,21.752 v -43.505 z m 0,0 -37.676,-21.753 37.676,-21.752 z m -259.468,405.906 -21.752,37.676 -21.753,-37.676 z m 0,-43.505 h -43.505 l 21.753,-37.676 z m -21.752,-37.676 -21.753,37.676 -21.752,-37.676 z m 37.676,-184.115 v 43.505 l -37.676,-21.753 z m -21.752,81.181 -37.677,21.753 v -43.505 z m -15.924,59.429 h -43.505 l 21.752,-37.676 z m 140.61,243.544 v 43.505 l -37.676,-21.753 z m -59.429,-15.924 v -43.505 l 37.676,21.752 z m -43.505,-43.505 21.753,-37.676 21.752,37.676 z m 324.725,118.858 21.753,-37.677 21.752,37.677 z m 65.258,-37.677 -21.753,37.677 -21.752,-37.677 z m -65.258,37.677 -21.752,-37.677 h 43.505 z m -81.181,21.752 21.752,-37.676 21.753,37.676 z m -97.105,-37.676 v -43.505 l 37.676,21.752 z m 37.676,21.752 -37.676,-21.752 37.676,-21.753 z m 0,0 v -43.505 l 37.676,21.753 z m 59.429,15.924 -21.753,-37.676 h 43.505 z M 795.011,648.572 h -43.505 l 21.752,-37.676 z m 21.752,-37.676 -21.752,37.676 -21.753,-37.676 z m 0,0 h -43.505 l 21.753,-37.677 z m -124.686,-346.478 37.676,21.753 -37.676,21.752 z m 59.429,59.429 v 43.505 l -37.677,-21.753 z m 43.505,43.505 -21.753,37.676 -21.752,-37.676 z m 15.924,102.934 -37.677,-21.753 37.677,-21.752 z m 0,-43.505 -37.677,21.752 v -43.505 z m 0,43.505 -37.677,21.752 v -43.505 z m 21.752,37.676 v 43.505 l -37.676,-21.753 z m 0,43.505 -37.676,21.752 v -43.505 z m -81.181,140.61 -37.677,-21.753 37.677,-21.752 z m -37.677,21.752 37.677,-21.752 -37.677,-21.753 z m 0,0 -21.752,37.677 -21.753,-37.677 z m -59.428,59.429 h -43.505 l 21.752,-37.676 z m -5.829,-508.84 v 43.505 l -37.676,-21.752 z m -37.676,-21.752 37.676,21.752 -37.676,21.753 z m 0,0 v 43.505 l -37.677,-21.753 z m -346.478,124.686 21.753,-37.676 21.752,37.676 z m 59.429,-59.429 h 43.505 l -21.753,37.676 z m 43.505,-43.505 37.676,21.753 -37.676,21.752 z m 102.934,-15.924 -21.753,37.677 -21.752,-37.677 z m -43.505,0 21.752,37.677 h -43.505 z m 43.505,0 21.752,37.677 h -43.505 z m 37.676,-21.752 h 43.505 l -21.753,37.676 z m 43.505,0 21.752,37.676 H 529.714 Z M 248.494,632.648 v -43.505 l 37.677,21.753 z m 0,0 37.677,-21.752 v 43.505 z m 0,-43.505 37.677,-21.752 v 43.505 z m -21.752,-37.676 v -43.505 l 37.676,21.752 z m 37.676,-140.61 h 43.505 l -21.752,37.676 z m 0,0 21.753,37.676 h -43.505 z m -21.752,37.676 h 43.505 l -21.753,37.676 z m -15.924,59.429 37.676,-21.753 v 43.505 z m 140.61,243.544 21.752,-37.677 21.753,37.677 z m 0,0 -21.753,-37.677 h 43.505 z m -21.753,-81.182 v 43.505 l -37.676,-21.752 z m -21.752,-37.676 -37.676,21.753 v -43.505 z m 265.296,102.934 21.753,37.676 h -43.505 z m 0,0 h 43.505 l -21.752,37.676 z m -140.61,-5.829 v 43.505 l -37.676,-21.752 z m 81.181,21.753 37.677,21.752 -37.677,21.753 z m -43.505,0 -37.676,21.752 v -43.505 z m 0,0 v 43.505 l -37.676,-21.753 z m 243.544,-140.61 h 43.505 l -21.752,37.676 z m 21.753,-37.677 21.752,37.677 h -43.505 z m 0,0 h 43.505 l -21.753,37.677 z m -81.182,-227.62 -21.752,-37.676 h 43.505 z m 0,0 21.753,-37.676 21.752,37.676 z m 43.505,43.505 37.677,-21.752 -37.677,-21.753 z m 21.753,37.677 37.676,-21.753 v 43.505 z m 0,43.505 37.676,-21.753 v 43.505 z m 0,0 37.676,-21.753 -37.676,-21.752 z m 15.924,59.428 21.752,-37.676 21.753,37.676 z m -59.429,102.934 21.752,37.676 h -43.505 z m -59.429,59.429 37.676,-21.753 v 43.505 z m 0,0 37.676,21.752 -37.676,21.753 z M 610.896,329.676 v -43.505 l 37.676,21.752 z m -37.677,-21.753 37.677,-21.752 v 43.505 z m 0,0 37.677,-21.752 -37.677,-21.753 z m -227.62,81.181 -37.676,21.753 v -43.505 z m 0,0 -37.676,-21.752 37.676,-21.753 z m 43.505,-43.505 h -43.505 l 21.753,-37.676 z m 37.677,-21.752 -21.753,-37.676 h 43.505 z m 43.505,0 -21.753,-37.676 h 43.505 z m 0,0 h -43.505 l 21.752,-37.676 z m 59.428,-15.924 -37.676,-21.752 37.676,-21.753 z m -205.867,281.22 -37.676,21.753 v -43.505 z m 0,0 v 43.505 l -37.676,-21.752 z m 5.829,-140.61 h -43.505 l 21.752,-37.676 z m -21.753,81.181 -21.752,37.677 -21.753,-37.677 z m 0,-43.505 -21.752,-37.676 h 43.505 z m 0,0 h -43.505 l 21.753,-37.676 z m 118.858,205.868 -37.677,21.752 v -43.505 z m -59.429,-59.429 21.752,37.676 h -43.505 z m 0,0 -21.753,37.676 -21.752,-37.676 z m 184.115,81.181 37.676,-21.752 v 43.505 z m -81.181,-21.752 -21.753,37.676 -21.752,-37.676 z m 37.676,21.752 21.752,37.677 h -43.505 z m 0,0 h 43.505 l -21.753,37.677 z m 184.115,-124.686 37.676,21.753 -37.676,21.752 z m 21.752,-37.676 37.677,-21.753 v 43.505 z m -81.181,-184.115 37.676,-21.753 v 43.505 z m 59.429,59.429 -21.753,-37.677 h 43.505 z m 0,0 21.752,-37.677 21.753,37.677 z m 21.752,81.181 -21.752,-37.676 h 43.505 z m 0,0 37.677,21.752 -37.677,21.753 z m -65.257,124.686 h 43.505 l -21.753,37.676 z m -37.676,21.753 21.752,37.676 h -43.505 z m -21.753,-287.049 21.753,-37.676 21.752,37.676 z m -37.676,-21.753 -21.753,-37.676 h 43.505 z m -184.115,81.182 -21.753,-37.677 h 43.505 z m 59.429,-59.429 -37.677,21.752 v -43.505 z m 0,0 -37.677,-21.753 37.677,-21.752 z m 81.181,-21.753 -37.676,21.753 v -43.505 z m 0,0 21.752,-37.676 21.753,37.676 z m -162.363,205.868 21.753,37.676 h -43.505 z m 21.753,-81.181 -37.676,-21.753 37.676,-21.752 z m -21.753,37.676 -37.676,21.752 v -43.505 z m 0,0 v 43.505 l -37.676,-21.753 z m 81.182,140.61 v 43.505 l -37.677,-21.753 z m -21.753,-37.676 -37.676,21.752 v -43.505 z m 146.439,59.428 37.676,21.753 -37.676,21.752 z m -43.505,0 -37.676,21.753 v -43.505 z m 0,0 v 43.505 l -37.676,-21.752 z m 162.362,-118.857 21.753,37.676 h -43.505 z m 0,0 h 43.505 l -21.752,37.676 z m -37.676,-140.61 37.676,-21.753 -37.676,-21.752 z m 21.753,37.676 37.676,-21.752 v 43.505 z m 15.923,59.429 21.753,-37.676 21.752,37.676 z m -59.428,102.934 37.676,-21.753 v 43.505 z m 0,0 37.676,21.752 -37.676,21.753 z m -37.677,21.752 37.677,-21.752 v 43.505 z m -21.752,-243.544 37.676,-21.752 v 43.505 z m 0,0 37.676,-21.752 -37.676,-21.753 z m -140.61,37.677 h -43.505 l 21.752,-37.677 z m 37.676,-21.753 -21.752,-37.676 h 43.505 z m 59.429,-15.924 -37.676,-21.752 37.676,-21.753 z m -118.858,162.363 -21.752,37.676 -21.753,-37.676 z m 0,-43.505 -21.752,-37.676 h 43.505 z m 0,0 h -43.505 l 21.753,-37.676 z m 59.429,102.934 21.753,37.676 h -43.505 z m 0,0 -21.752,37.676 -21.753,-37.676 z m -21.752,-37.677 21.752,37.677 h -43.505 z m 65.257,37.677 -21.752,37.676 -21.753,-37.676 z m 37.676,21.752 21.753,37.676 h -43.505 z m 0,0 h 43.505 l -21.752,37.676 z m 81.182,-65.257 37.676,21.752 -37.676,21.753 z m 21.752,-37.677 37.676,-21.752 v 43.505 z m -21.752,-81.181 -21.753,-37.676 h 43.505 z m 0,0 21.752,-37.676 21.753,37.676 z m 21.752,37.676 -21.752,-37.676 h 43.505 z m 0,0 37.676,21.753 -37.676,21.752 z m -59.429,102.934 37.677,-21.752 v 43.505 z m 0,0 37.677,21.753 -37.677,21.752 z m -5.828,-140.61 21.752,-37.676 21.753,37.676 z m -37.677,-21.752 -21.752,-37.677 h 43.505 z m -81.181,21.752 -37.676,21.753 v -43.505 z m 0,0 -37.676,-21.752 37.676,-21.753 z m 37.676,-21.752 -37.676,21.752 v -43.505 z m 0,0 21.753,-37.677 21.752,37.677 z m -37.676,65.257 -37.676,-21.752 37.676,-21.753 z m -21.752,37.676 -37.677,21.753 v -43.505 z m 0,0 v 43.505 l -37.677,-21.752 z m 43.505,43.505 21.752,37.677 h -43.505 z m 0,0 -21.753,37.677 -21.752,-37.677 z m 59.428,15.924 v 43.505 l -37.676,-21.752 z m 59.429,-59.429 h 43.505 l -21.752,37.677 z m 0,-43.505 -21.752,-37.676 h 43.505 z m 0,0 21.753,-37.676 21.752,37.676 z m -37.676,65.258 21.752,37.676 h -43.505 z m -21.753,-81.181 37.677,-21.753 -37.677,-21.752 z m -43.505,0 -37.676,21.752 v -43.505 z m 0,0 -37.676,-21.753 37.676,-21.752 z m -15.923,59.428 h -43.505 l 21.752,-37.676 z m 37.676,21.753 -37.676,21.752 v -43.505 z m 0,0 h 43.505 l -21.753,37.676 z m 43.505,-43.505 37.676,-21.753 v 43.505 z m 0,0 37.676,21.752 -37.676,21.753 z m -43.505,0 -21.753,-37.676 h 43.505 z m 0,0 v 43.505 l -37.676,-21.753 z m 0,0 21.752,-37.676 21.753,37.676 z"
     style="opacity:1;fill-opacity:0;stroke:#000000;stroke-width:15;stroke-opacity:1;stop-opacity:1;stroke-miterlimit:4;stroke-dasharray:none"
     id="path12229" />
</svg>
