<?xml version="1.0" encoding="UTF-8" standalone="no"?>
<svg
   xmlns:dc="http://purl.org/dc/elements/1.1/"
   xmlns:cc="http://creativecommons.org/ns#"
   xmlns:rdf="http://www.w3.org/1999/02/22-rdf-syntax-ns#"
   xmlns:svg="http://www.w3.org/2000/svg"
   xmlns="http://www.w3.org/2000/svg"
   xmlns:sodipodi="http://sodipodi.sourceforge.net/DTD/sodipodi-0.dtd"
   xmlns:inkscape="http://www.inkscape.org/namespaces/inkscape"
   inkscape:version="1.0beta1 (32d4812, 2019-09-19)"
   sodipodi:docname="5-uniform_313.svg"
   id="c:\kuniform\5u\5-uniform_313.svg"
   height="1000.0"
   width="981.56055"
   version="1.0">
  <style
     id="style3375"></style>
  <metadata
     id="metadata2255">
    <rdf:RDF>
      <cc:Work
         rdf:about="">
        <dc:format>image/svg+xml</dc:format>
        <dc:type
           rdf:resource="http://purl.org/dc/dcmitype/StillImage" />
        <dc:title></dc:title>
      </cc:Work>
    </rdf:RDF>
  </metadata>
  <defs
     id="defs2253" />
  <sodipodi:namedview
     inkscape:current-layer="c:\kuniform\5u\5-uniform_313.svg"
     inkscape:window-maximized="0"
     inkscape:window-y="23"
     inkscape:window-x="0"
     inkscape:cy="482.54076"
     inkscape:cx="328.55812"
     inkscape:zoom="0.50453751"
     showgrid="false"
     id="namedview2251"
     inkscape:window-height="907"
     inkscape:window-width="1600"
     inkscape:pageshadow="2"
     inkscape:pageopacity="0"
     guidetolerance="10"
     gridtolerance="10"
     objecttolerance="10"
     borderopacity="1"
     inkscape:document-rotation="0"
     bordercolor="#666666"
     pagecolor="#ffffff" />
  <!-- X Coordinate transform: fx(x)=(x+78.903625)*0.85270905-->
  <!-- Y Coordinate transform: fy(y)=(1095.5171-y)*0.85270905 -->
  <path
     d="m 918.46,936.808 -21.317,36.924 M 47.495,158.356 26.177,121.433 M 47.495,857.249 26.177,820.326 M 111.448,936.808 90.13,973.732 M 918.46,121.433 897.143,84.509 m 42.635,0 36.923,-21.317 m -159.117,931.857 36.923,-21.317 21.318,-36.924 21.318,-36.923 m 36.923,-21.318 21.318,-36.923 21.317,-36.924 M 26.177,237.915 47.495,200.992 M 897.143,41.874 918.46,4.951 M 132.766,41.874 169.689,20.556 206.612,41.874 M 132.766,84.509 V 41.874 L 111.448,4.951 m 0,116.482 L 90.13,84.509 m 0,772.74 H 47.495 4.859 M 26.177,820.326 47.495,783.403 M 817.584,63.192 796.266,26.268 m 58.241,58.241 h 42.636 42.635 l 36.923,21.318 m -42.635,73.847 h 42.635 m -180.435,778.452 -21.318,36.923 m 58.241,-58.241 21.318,-36.923 m 85.271,-116.482 36.923,-21.318 M 26.177,936.808 47.495,899.885 M 897.143,158.356 875.825,121.433 854.507,84.509 817.584,63.192 H 774.948 732.313 M 249.248,41.874 227.93,4.951 M 652.754,41.874 631.436,4.951 M 90.13,200.992 H 47.495 4.859 m 164.83,-95.165 V 63.192 20.556 M 90.13,899.885 68.812,936.808 47.495,973.732 m 706.136,-15.606 21.317,36.923 M 26.177,121.433 47.495,84.509 M 111.448,820.326 90.13,783.403 m 137.8,153.405 21.318,36.924 M 148.371,915.491 h 42.636 m 748.771,-174.724 36.923,21.318 M 796.266,100.115 774.948,63.192 753.631,26.268 m 100.876,132.088 -21.318,-36.923 m 106.589,153.405 36.923,21.318 m -36.923,21.318 36.923,-21.318 m -164.829,603.729 -36.924,21.318 -21.317,36.923 -21.318,36.923 M 918.46,820.326 897.143,783.403 M 753.631,100.115 774.948,63.192 796.266,26.268 m -669.213,153.406 21.318,-36.924 21.318,-36.923 36.923,-21.318 h 42.636 42.635 M 328.807,63.192 350.124,26.268 M 610.119,84.509 V 41.874 m -73.847,0 36.923,-21.318 36.924,21.318 m -519.989,0 21.318,-36.923 M 493.636,41.874 514.954,4.951 M 90.13,274.838 111.448,237.915 M 227.93,121.433 249.248,84.509 M 148.371,142.75 h 42.636 M 47.495,624.285 26.177,587.362 M 47.495,740.767 26.177,703.844 47.495,666.92 M 26.177,470.879 47.495,433.956 m 0,-42.635 -21.318,-36.924 21.318,-36.923 M 313.201,936.808 H 270.566 227.93 l -36.923,-21.317 -21.318,-36.924 -21.318,-36.923 m 201.753,116.482 21.318,36.923 m 259.994,-58.241 21.318,36.924 m -79.559,-21.318 v 42.635 M 392.76,958.126 371.442,995.049 M 26.177,936.808 47.495,973.732 H 90.13 m 159.118,-73.847 21.318,36.923 21.317,36.924 36.924,21.317 M 4.859,857.249 26.177,820.326 h 42.635 42.636 l 36.923,21.318 h 42.636 M 169.689,804.72 132.766,783.403 H 90.13 47.495 L 10.571,762.085 M 897.143,740.767 918.46,703.844 M 206.612,84.509 169.689,63.192 132.766,41.874 H 90.13 47.495 L 10.571,63.192 m 923.495,582.411 h 42.635 M 610.119,41.874 h 42.635 42.635 l 36.924,21.318 21.318,36.923 21.317,36.923 36.924,21.318 m 85.271,116.482 21.317,-36.923 M 90.13,158.356 68.812,121.433 47.495,84.509 V 41.874 L 68.812,4.951 M 918.46,354.397 897.143,317.474 m 36.923,95.164 h 42.635 m -238.676,487.247 36.923,21.318 m 79.559,-63.954 -21.318,-36.923 m 63.954,36.923 -21.318,-36.923 -21.318,-36.923 M 148.371,216.597 169.689,179.674 191.007,142.75 227.93,121.433 h 42.636 42.635 m 36.923,-21.318 21.318,-36.923 21.318,-36.924 m 238.676,95.165 21.318,-36.924 m -79.559,21.318 V 63.192 20.556 M 536.272,84.509 573.195,63.192 610.119,41.874 631.436,4.951 m -382.188,153.405 21.318,-36.923 21.317,-36.924 36.924,-21.317 h 42.635 42.636 M 47.495,274.838 68.812,237.915 90.13,200.992 127.053,179.674 h 42.636 42.635 m -21.317,36.923 h -42.636 l -36.923,21.318 H 68.812 26.177 m 143.512,15.606 -36.923,21.317 H 90.13 47.495 L 10.571,296.156 M 47.495,507.803 26.177,470.879 m 0,116.483 21.318,-36.924 m 42.635,190.329 21.318,-36.923 m 21.318,79.559 V 740.767 M 90.13,624.285 68.812,587.362 47.495,550.438 V 507.803 L 68.812,470.879 90.13,433.956 m 0,-42.635 L 68.812,354.397 47.495,317.474 V 274.838 L 26.177,237.915 4.859,200.992 M 111.448,354.397 90.13,317.474 m 42.636,0 v -42.636 m 562.623,625.047 -21.317,36.923 -21.318,36.924 m 0,-73.847 21.318,36.923 21.317,36.924 36.924,21.317 m -397.794,-95.164 36.923,21.318 m 180.436,-5.712 h 42.635 m -79.559,21.317 -21.318,36.924 M 212.324,878.567 191.007,841.644 169.689,804.72 v -42.635 m 727.454,-95.165 21.317,36.924 21.318,36.923 v 42.636 l -21.318,36.923 -21.317,36.923 v 42.636 l 21.317,36.923 21.318,36.924 m 0,-465.929 36.923,21.318 m -36.923,21.317 36.923,-21.317 M 738.025,158.356 774.948,137.038 m 36.924,63.954 v -42.636 l 21.317,-36.923 21.318,-36.924 V 41.874 L 875.825,4.951 m -42.636,232.964 21.318,-36.923 m 0,73.846 21.318,-36.923 21.318,-36.923 m -42.636,116.482 h 42.636 42.635 l 36.923,21.318 m -79.558,52.529 21.317,-36.924 21.318,-36.923 V 274.838 L 918.46,237.915 897.143,200.992 V 158.356 L 918.46,121.433 939.778,84.509 V 41.874 L 918.46,4.951 m -21.317,619.334 21.317,-36.923 21.318,-36.924 V 507.803 L 918.46,470.879 897.143,433.956 m -159.118,423.293 36.923,21.318 36.924,21.318 h 42.635 42.636 l 36.923,-21.318 h 42.635 m -201.753,-42.635 36.924,21.317 h 42.635 42.636 l 36.923,21.318 21.318,36.924 21.317,36.923 M 695.389,158.356 674.072,121.433 652.754,84.509 V 41.874 L 674.072,4.951 m -21.318,153.405 21.318,-36.923 21.317,-36.924 m -403.506,73.847 21.318,-36.923 36.923,-21.318 h 42.636 m -58.241,58.241 36.923,-21.318 m 180.436,5.712 h 42.635 M 514.954,121.433 493.636,84.509 M 90.13,507.803 68.812,470.879 47.495,433.956 V 391.321 L 68.812,354.397 90.13,317.474 V 274.838 L 68.812,237.915 47.495,200.992 V 158.356 L 68.812,121.433 90.13,84.509 V 41.874 L 68.812,4.951 M 90.13,550.438 68.812,587.362 47.495,624.285 v 42.635 l 21.317,36.924 21.318,36.923 v 42.636 l -21.318,36.923 -21.317,36.923 v 42.636 l 21.317,36.923 21.318,36.924 h 42.636 l 36.923,-21.318 M 111.448,587.362 90.13,550.438 v -42.635 l 21.318,-36.924 m 58.241,-132.087 v -42.636 -42.635 l 21.318,-36.924 21.317,-36.923 36.924,-21.318 h 42.635 42.636 m 318.235,698.893 h 42.635 42.636 l 36.923,-21.317 21.318,-36.924 21.318,-36.923 m -409.219,137.8 -36.923,21.318 -21.318,36.923 -21.317,36.923 M 530.56,878.567 h 42.635 42.636 m -201.753,116.482 36.923,-21.317 21.318,-36.924 21.317,-36.923 m -63.953,36.923 21.318,-36.923 m -281.312,-137.8 36.923,-21.318 m 21.318,79.559 21.318,-36.923 m 605.259,-116.483 21.318,36.924 21.318,36.923 v 42.636 l -21.318,36.923 -21.318,36.923 v 42.636 l 21.318,36.923 21.318,36.924 m 0,-465.929 21.317,-36.924 m 0,116.483 -21.317,-36.924 m 79.558,-296.917 -21.317,-36.924 -21.318,-36.923 -36.923,-21.318 h -42.636 -42.635 l -36.924,21.318 -36.923,21.318 m 36.923,21.317 v -42.635 -42.636 l 21.318,-36.923 21.318,-36.923 36.923,-21.318 h 42.636 42.635 l 36.923,21.318 M 854.507,391.321 833.189,354.397 m 21.318,269.888 21.318,-36.923 21.318,-36.924 v -42.635 l -21.318,-36.924 -21.318,-36.923 m -159.118,423.293 21.318,-36.923 m 36.924,-21.318 h 42.635 M 817.584,296.156 796.266,259.233 774.948,222.309 738.025,200.992 H 695.389 652.754 M 615.831,179.674 594.513,142.75 573.195,105.827 536.272,84.509 H 493.636 451.001 L 414.078,63.192 392.76,26.268 m -58.241,174.724 v -42.636 m 159.117,0 -21.317,-36.923 -21.318,-36.924 m 0,73.847 -21.318,-36.923 M 206.612,317.474 169.689,296.156 132.766,274.838 111.448,237.915 90.13,200.992 v -42.636 l 21.318,-36.923 21.318,-36.924 36.923,-21.317 36.923,-21.318 h 42.636 42.635 l 36.924,21.318 21.317,36.923 21.318,36.923 36.923,21.318 M 249.248,274.838 227.93,237.915 m -95.164,312.523 v -42.635 m 15.605,174.723 h 42.636 M 148.371,375.715 h 42.636 m 440.429,444.611 h 42.636 42.635 l 36.924,-21.318 21.317,-36.923 21.318,-36.923 m -201.753,116.482 -21.318,36.923 -21.317,36.924 -36.924,21.317 h -42.635 -42.636 l -36.923,21.318 h -42.636 l -36.923,-21.318 -21.318,-36.923 m 0,-42.636 21.318,-36.923 m 58.241,15.606 -36.923,21.317 h -42.636 -42.635 l -36.924,21.318 -21.317,36.924 -21.318,36.923 v 42.635 M 127.053,878.567 h 42.636 42.635 l 36.924,21.318 h 42.635 42.636 l 36.923,-21.318 36.923,-21.318 m -36.923,-21.317 36.923,21.317 h 42.636 42.635 M 249.248,740.767 227.93,703.844 m 21.318,153.405 21.318,-36.923 21.317,-36.923 m 562.624,-42.636 21.318,-36.923 21.318,-36.924 v -42.635 l -21.318,-36.923 -21.318,-36.924 m -21.318,153.406 21.318,-36.924 v -42.635 l -21.318,-36.923 m -21.317,79.558 v -42.635 m -95.165,-386.37 -21.318,-36.923 m 58.242,58.241 h 42.635 m 36.923,211.646 21.318,-36.923 v -42.635 l 21.318,-36.924 21.318,-36.923 v -42.636 l -21.318,-36.923 -21.318,-36.923 v -42.636 l 21.318,-36.923 21.318,-36.924 V 41.874 L 875.825,4.951 m -63.953,429.005 v -42.635 m -318.236,465.928 36.924,21.318 21.318,36.924 21.317,36.923 36.924,21.318 h 42.635 42.635 l 21.318,-36.924 21.318,-36.923 v -42.636 l -21.318,-36.923 -21.318,-36.923 m 36.924,-21.318 h 42.635 42.636 l 36.923,-21.318 h 42.636 42.635 L 976.701,719.45 M 774.948,688.238 811.872,666.92 h 42.635 42.636 l 36.923,-21.317 21.318,-36.924 21.317,-36.923 M 796.266,333.079 774.948,296.156 753.631,259.233 716.707,237.915 H 674.072 631.436 M 594.513,216.597 573.195,179.674 551.878,142.75 514.954,121.433 H 472.319 429.683 L 392.76,100.115 371.442,63.192 350.124,26.268 m -36.923,211.647 -21.318,-36.923 m 116.482,0 -36.923,-21.318 -36.923,-21.318 -21.318,-36.923 -21.318,-36.924 V 41.874 L 270.566,4.951 m -42.636,349.446 21.318,-36.923 m 42.635,-42.636 -21.317,-36.923 -21.318,-36.923 m -79.559,285.493 -36.923,21.318 H 90.13 47.495 l -36.924,21.318 m 159.118,42.635 -36.923,-21.318 H 90.13 47.495 L 10.571,529.121 m 137.8,79.558 h 42.636 m -63.954,36.924 h 42.636 42.635 M 148.371,449.562 h 42.636 m -63.954,-36.924 h 42.636 42.635 m 339.554,429.006 h 42.635 l 36.923,-21.318 21.318,-36.923 m -79.559,21.317 36.924,-21.317 m -259.995,15.605 h 42.636 m 58.241,58.241 -21.318,-36.923 M 169.689,719.45 v 42.635 l -36.923,21.318 -21.318,36.923 -21.318,36.923 v 42.636 l 21.318,36.923 21.318,36.924 36.923,21.317 36.923,-21.317 21.318,-36.924 21.318,-36.923 V 857.249 L 227.93,820.326 206.612,783.403 V 740.767 L 227.93,703.844 249.248,666.92 M 4.859,624.285 H 47.495 90.13 l 36.923,21.318 21.318,36.923 21.318,36.924 36.923,21.317 h 42.636 42.635 m 79.559,95.165 -21.318,-36.924 -21.317,-36.923 m 281.312,21.318 h 42.635 42.635 l 36.924,-21.318 21.318,-36.923 21.317,-36.924 V 645.603 602.967 M 695.389,274.838 674.072,237.915 652.754,200.992 615.831,179.674 H 573.195 530.56 m 201.753,116.482 h 42.635 42.636 l 36.923,21.318 21.318,36.923 21.318,36.924 v 42.635 l -21.318,36.923 -21.318,36.924 m -79.559,-137.8 36.924,21.318 h 42.635 42.636 l 36.923,21.317 21.318,36.924 21.317,36.923 M 652.754,274.838 631.436,237.915 594.513,216.597 h -42.635 m 21.317,36.924 36.924,21.317 h 42.635 42.635 l 36.924,21.318 21.318,36.923 21.317,36.924 v 42.635 42.636 M 350.124,259.233 h 42.636 m 36.923,-21.318 21.318,-36.923 M 249.248,391.321 227.93,354.397 206.612,317.474 v -42.636 l 21.318,-36.923 21.318,-36.923 V 158.356 L 227.93,121.433 206.612,84.509 V 41.874 L 227.93,4.951 M 4.859,433.956 H 47.495 90.13 l 36.923,-21.318 21.318,-36.923 21.318,-36.923 36.923,-21.318 h 42.636 42.635 m 36.924,-21.318 21.317,-36.923 21.318,-36.924 36.923,-21.317 h 42.636 42.635 l 36.924,-21.318 21.318,-36.924 21.317,-36.923 36.924,-21.318 h 42.635 42.635 L 732.313,63.192 753.631,26.268 M 206.612,783.403 169.689,762.085 132.766,740.767 111.448,703.844 90.13,666.92 v -42.635 l 21.318,-36.923 21.318,-36.924 36.923,-21.317 36.923,-21.318 m 0,-232.965 -36.923,21.318 -36.923,21.318 -21.318,36.923 -21.318,36.924 v 42.635 l 21.318,36.923 21.318,36.924 36.923,21.318 36.923,21.317 m 42.636,73.847 -21.318,-36.923 -21.318,-36.924 v -42.635 l 21.318,-36.924 21.318,-36.923 m 360.871,349.447 v -42.636 m -275.6,116.482 36.923,21.318 36.923,21.318 h 42.636 42.635 l 36.924,-21.318 21.318,-36.923 21.317,-36.924 v -42.635 m -36.923,21.318 36.923,21.317 21.318,36.924 21.318,36.923 36.923,21.318 h 42.635 42.636 l 36.923,-21.318 36.924,-21.318 m -318.236,0 -21.317,-36.923 -21.318,-36.923 m 63.953,36.923 -21.318,-36.923 M 291.883,666.92 l -21.317,36.924 -21.318,36.923 v 42.636 l 21.318,36.923 21.317,36.923 v 42.636 l -21.317,36.923 -21.318,36.924 M 4.859,624.285 26.177,587.362 h 42.635 42.636 l 36.923,21.317 21.318,36.924 21.318,36.923 36.923,21.318 h 42.636 42.635 m 36.923,21.318 21.318,36.923 21.318,36.923 36.923,21.318 h 42.636 42.635 l 36.924,21.318 21.317,36.923 21.318,36.924 36.923,21.317 h 42.636 42.635 m 21.318,-312.523 36.923,21.318 36.924,21.317 21.317,36.924 21.318,36.923 v 42.636 l -21.318,36.923 -21.317,36.923 v 42.636 l 21.317,36.923 21.318,36.924 h 42.636 42.635 l 36.923,-21.318 m -223.07,-386.37 h 42.635 m -58.241,100.876 36.923,-21.317 36.924,-21.318 21.317,-36.923 21.318,-36.924 v -42.635 l -21.318,-36.924 -21.317,-36.923 -36.924,-21.318 -36.923,-21.317 m 15.606,100.876 h 42.635 M 716.707,703.844 695.389,666.92 m -85.27,-349.446 v -42.636 m -73.847,0 36.923,-21.317 21.318,-36.924 21.318,-36.923 36.923,-21.318 h 42.635 42.636 l 36.923,21.318 36.924,21.318 21.317,36.923 21.318,36.923 v 42.636 l -21.318,36.923 -21.317,36.924 -36.924,21.317 -36.923,21.318 m -287.024,-159.118 21.318,-36.923 21.317,-36.923 m 0,73.846 21.318,-36.923 M 291.883,391.321 270.566,354.397 249.248,317.474 v -42.636 l 21.318,-36.923 21.317,-36.923 V 158.356 L 270.566,121.433 249.248,84.509 V 41.874 L 270.566,4.951 m 42.635,349.446 H 270.566 227.93 l -36.923,21.318 -21.318,36.923 -21.318,36.924 -36.923,21.317 H 68.812 26.177 L 4.859,433.956 m 345.265,-100.877 21.318,-36.923 21.318,-36.923 36.923,-21.318 h 42.636 42.635 l 36.924,-21.318 21.317,-36.923 21.318,-36.924 36.923,-21.317 h 42.636 42.635 M 249.248,507.803 227.93,470.879 m 0,116.483 21.318,-36.924 m 42.635,73.847 -21.317,-36.923 -21.318,-36.924 v -42.635 l 21.318,-36.924 21.317,-36.923 m 360.871,306.811 -21.318,-36.923 m -58.241,15.606 36.924,21.317 h 42.635 42.635 l 36.924,21.318 21.318,36.923 21.317,36.924 v 42.635 42.636 l 21.318,36.923 21.318,36.923 m -281.312,-254.282 36.923,21.318 m -238.676,-95.165 36.923,21.318 m 323.947,-63.953 21.318,-36.923 m 15.606,-58.241 h 42.635 42.636 m -122.195,-137.8 21.318,-36.924 m 0,116.482 -21.318,-36.923 M 652.754,666.92 h 42.635 42.636 l 36.923,21.318 21.318,36.924 21.318,36.923 36.923,21.318 h 42.636 42.635 l 36.923,21.317 M 631.436,354.397 652.754,317.474 m -116.482,0 36.923,-21.318 36.924,-21.318 21.317,-36.923 21.318,-36.923 V 158.356 L 631.436,121.433 610.119,84.509 573.195,63.192 536.272,41.874 h -42.636 -42.635 l -36.923,21.318 -21.318,36.923 -21.318,36.923 v 42.636 42.635 M 334.519,666.92 h -42.636 -42.635 l -36.924,-21.317 -21.317,-36.924 -21.318,-36.923 v -42.635 -42.636 l 21.318,-36.923 21.317,-36.924 36.924,-21.317 h 42.635 42.636 l 36.923,-21.318 m -79.559,137.8 -21.317,-36.924 -21.318,-36.923 v -42.635 l 21.318,-36.924 21.317,-36.923 36.924,-21.318 h 42.635 42.636 m 0,465.929 H 371.442 328.807 L 291.883,740.767 270.566,703.844 249.248,666.92 v -42.635 l 21.318,-36.923 21.317,-36.924 M 392.76,725.162 H 350.124 L 313.201,703.844 291.883,666.92 v -42.635 l 21.318,-36.923 m 21.318,79.558 V 624.285 M 313.201,470.879 291.883,433.956 v -42.635 l 21.318,-36.924 36.923,-21.318 h 42.636 m -58.241,100.877 v -42.635 m 217.359,291.205 h 42.635 m -100.877,58.241 21.318,-36.923 m 137.8,-79.559 h 42.635 42.636 l 36.923,-21.318 21.318,-36.923 21.318,-36.923 36.923,-21.318 h 42.636 42.635 l 36.923,-21.318 m -281.312,254.282 21.318,-36.923 21.318,-36.924 v -42.635 l -21.318,-36.923 -21.318,-36.924 m 0,-42.635 21.318,-36.924 21.318,-36.923 v -42.635 l -21.318,-36.924 -21.318,-36.923 v -42.636 l 21.318,-36.923 21.318,-36.923 V 158.356 L 716.707,121.433 695.389,84.509 V 41.874 L 674.072,4.951 m -21.318,386.37 21.318,-36.924 21.317,-36.923 M 414.078,995.049 392.76,958.126 371.442,921.203 v -42.636 -42.635 l 21.318,-36.924 21.318,-36.923 36.923,-21.318 h 42.635 42.636 l 36.923,-21.317 21.318,-36.924 21.318,-36.923 M 551.878,375.715 h 42.635 M 514.954,354.397 493.636,317.474 M 408.365,666.92 371.442,645.603 334.519,624.285 313.201,587.362 291.883,550.438 v -42.635 l 21.318,-36.924 21.318,-36.923 36.923,-21.318 36.923,-21.317 M 530.56,645.603 h 42.635 42.636 l 36.923,-21.318 21.318,-36.923 21.317,-36.924 v -42.635 l -21.317,-36.924 -21.318,-36.923 m -201.753,306.811 21.318,-36.923 21.317,-36.924 m -63.953,36.924 21.318,-36.924 m 79.559,-21.317 -36.924,21.317 h -42.635 -42.636 l -36.923,21.318 -21.318,36.924 -21.317,36.923 -36.924,21.318 h -42.635 -42.636 l -36.923,21.317 -21.318,36.924 -21.318,36.923 -36.923,21.318 H 47.495 4.859 M 90.13,666.92 68.812,703.844 47.495,740.767 v 42.636 l 21.317,36.923 21.318,36.923 36.923,21.318 21.318,36.924 21.318,36.923 36.923,21.318 h 42.636 42.635 l 21.318,-36.924 21.318,-36.923 v -42.636 l -21.318,-36.923 -21.318,-36.923 v -42.636 l 21.318,-36.923 21.318,-36.924 36.923,-21.317 36.923,-21.318 M 753.631,333.079 h 42.635 l 36.923,21.318 h 42.636 42.635 l 36.924,21.318 21.317,36.923 -21.317,36.924 -36.924,21.317 h -42.635 -42.636 l -36.923,21.318 -21.318,36.924 -21.317,36.923 -36.924,21.318 h -42.635 -42.636 m 21.318,153.405 21.318,-36.923 21.317,-36.924 v -42.635 l -21.317,-36.923 -21.318,-36.924 m 0,-42.635 21.318,-36.924 21.317,-36.923 v -42.635 l -21.317,-36.924 -21.318,-36.923 m -36.923,95.164 -21.318,-36.923 -21.318,-36.923 -36.923,-21.318 H 493.636 451.001 L 414.078,296.156 392.76,259.233 371.442,222.309 334.519,200.992 H 291.883 249.248 L 212.324,179.674 191.007,142.75 169.689,105.827 132.766,84.509 H 90.13 47.495 L 10.571,63.192 m 583.942,545.487 -21.318,36.924 -21.317,36.923 -36.924,21.318 h -42.635 -42.636 l -36.923,21.318 -21.318,36.923 -21.318,36.923 -36.923,21.318 H 270.566 227.93 l -36.923,21.318 -21.318,36.923 -21.318,36.924 -36.923,21.317 H 68.812 26.177 L 4.859,899.885 M 530.56,412.638 h 42.635 42.636 l 36.923,21.318 h 42.635 42.636 l 36.923,21.318 21.318,36.923 21.318,36.924 36.923,21.317 h 42.636 42.635 l 36.923,21.318 M 493.636,391.321 472.319,354.397 451.001,317.474 m 0,73.847 -21.318,-36.924 M 573.195,338.792 V 296.156 253.521 L 551.878,216.597 530.56,179.674 493.636,158.356 h -42.635 -42.636 l -36.923,21.318 -36.923,21.318 -21.318,36.923 -21.318,36.923 v 42.636 l 21.318,36.923 21.318,36.924 36.923,21.317 36.923,21.318 m -58.241,132.088 h 42.636 m -42.636,-73.847 h 42.636 m 159.118,116.482 h 42.635 l 36.923,-21.317 21.318,-36.924 V 507.803 L 631.436,470.879 M 4.859,391.321 H 47.495 90.13 l 36.923,21.317 21.318,36.924 21.318,36.923 36.923,21.318 h 42.636 42.635 l 36.924,21.318 21.317,36.923 21.318,36.923 36.923,21.318 h 42.636 42.635 l 36.924,21.318 m -79.559,-21.318 -21.318,-36.923 m -58.241,15.605 v 42.636 42.635 l 21.318,36.924 21.318,36.923 36.923,21.318 h 42.635 42.636 l 36.923,-21.318 36.924,-21.318 21.317,-36.923 21.318,-36.924 V 624.285 L 631.436,587.362 610.119,550.438 V 507.803 M 4.859,158.356 26.177,121.433 h 42.635 42.636 l 36.923,21.317 21.318,36.924 21.318,36.923 36.923,21.318 h 42.636 42.635 l 36.923,21.318 21.318,36.923 21.318,36.923 36.923,21.318 h 42.636 42.635 l 36.924,21.318 21.317,36.923 21.318,36.924 m -21.318,122.194 36.924,-21.318 M 551.878,449.562 h 42.635 l 36.923,21.317 h 42.636 42.635 l 36.924,21.318 21.317,36.924 21.318,36.923 36.923,21.318 h 42.636 42.635 l 36.924,21.317 21.317,36.924 -21.317,36.923 -36.924,21.318 h -42.635 -42.636 l -36.923,21.318 h -42.635 m -424.824,-196.041 21.317,-36.924 21.318,-36.923 36.923,-21.318 h 42.636 42.635 l 36.924,-21.318 21.318,-36.923 21.317,-36.923 36.924,-21.318 h 42.635 42.635 l 36.924,-21.318 21.318,-36.923 21.317,-36.924 36.924,-21.317 h 42.635 42.636 l 36.923,-21.318 21.318,-36.924 21.317,-36.923 M 429.683,470.879 451.001,433.956 M 4.859,666.92 H 47.495 90.13 l 36.923,-21.317 21.318,-36.924 21.318,-36.923 36.923,-21.318 h 42.636 42.635 l 36.924,-21.317 h 42.635 42.636 M 4.859,391.321 26.177,354.397 h 42.635 42.636 l 36.923,21.318 21.318,36.923 21.318,36.924 36.923,21.317 h 42.636 42.635 l 36.923,21.318 21.318,36.924 21.318,36.923 36.923,21.318 h 42.636 42.635 m -21.318,36.923 -21.317,-36.923 -21.318,-36.924 m 122.194,-63.953 36.924,21.318 h 42.635 42.635 l 36.924,21.318 21.318,36.923 21.317,36.923 36.924,21.318 h 42.635 42.636 l 36.923,21.318 21.318,36.923 21.317,36.924 m -440.429,-169.012 36.923,-21.317 36.924,-21.318 21.317,-36.924 21.318,-36.923 v -42.635 l -21.318,-36.924 -21.317,-36.923 -36.924,-21.318 -36.923,-21.318 h -42.636 -42.635 l -36.923,21.318 -21.318,36.923 -21.318,36.924 v 42.635 42.636 M 4.859,158.356 H 47.495 90.13 l 36.923,21.318 21.318,36.923 21.318,36.924 36.923,21.317 h 42.636 42.635 l 36.924,21.318 21.317,36.923 21.318,36.924 36.923,21.318 h 42.636 42.635 l 36.924,21.317 21.318,36.924 21.317,36.923 v 42.636 42.635 l -21.317,36.923 -21.318,36.924 21.318,36.923 21.317,36.924 v 42.635 l 36.924,21.318 21.317,36.923 21.318,36.923 v 42.636 l -21.318,36.923 -21.317,36.924 -36.924,21.317 -36.923,-21.317 -21.318,-36.924 -21.318,-36.923 v -42.636 l 21.318,-36.923 21.318,-36.923 V 740.767 L 514.954,703.844 493.636,666.92 v -42.635 l 21.318,-36.923 21.318,-36.924 M 4.859,666.92 26.177,703.844 h 42.635 42.636 l 36.923,-21.318 21.318,-36.923 21.318,-36.924 36.923,-21.317 h 42.636 42.635 l 36.923,-21.318 21.318,-36.923 21.318,-36.924 36.923,-21.318 h 42.636 42.635 m -63.953,36.924 21.318,-36.924 21.317,-36.923 m 0,539.776 h -42.635 l -21.318,-36.924 -21.318,-36.923 v -42.636 l 21.318,-36.923 21.318,-36.923 V 740.767 L 429.683,703.844 408.365,666.92 v -42.635 l 21.318,-36.923 21.318,-36.924 v -42.635 l -21.318,-36.924 -21.318,-36.923 v -42.635 l 21.318,-36.924 21.318,-36.923 v -42.636 l -21.318,-36.923 -21.318,-36.923 v -42.636 l 21.318,-36.923 21.318,-36.924 V 41.874 L 472.319,4.951 m 180.435,735.816 v 42.636 l 21.318,36.923 21.317,36.923 v 42.636 l 21.318,36.923 36.924,21.318 h 42.635 l 36.923,-21.318 h 42.636 42.635 l 36.924,-21.317 21.317,-36.924 -21.317,-36.923 -36.924,-21.318 H 875.825 833.189 L 796.266,799.008 774.948,762.085 753.631,725.162 716.707,703.844 H 674.072 631.436 L 594.513,682.526 573.195,645.603 551.878,608.679 514.954,587.362 493.636,550.438 M 10.571,296.156 47.495,317.474 h 42.635 42.636 l 36.923,21.318 21.318,36.923 21.317,36.923 36.924,21.318 h 42.635 42.636 l 36.923,21.318 21.318,36.923 21.318,36.924 36.923,21.317 h 42.635 42.636 m 0,-42.635 36.923,21.318 36.924,21.317 h 42.635 42.635 l 36.924,-21.317 21.318,-36.924 21.317,-36.923 36.924,-21.318 h 42.635 42.636 l 36.923,-21.318 21.318,-36.923 21.317,-36.923 m -483.065,169.011 21.318,-36.924 36.924,-21.317 21.317,-36.924 21.318,-36.923 36.923,-21.318 h 42.636 42.635 l 36.924,-21.318 21.317,-36.923 21.318,-36.923 36.923,-21.318 h 42.636 42.635 l 36.924,-21.318 21.317,-36.923 -21.317,-36.924 -36.924,-21.317 h -42.635 -42.636 l -36.923,-21.318 h -42.635 l -36.924,21.318 -21.318,36.923 v 42.636 l -21.317,36.923 -21.318,36.923 v 42.636 M 472.319,4.951 493.636,41.874 v 42.635 l -21.317,36.924 -21.318,36.923 v 42.636 l 21.318,36.923 21.317,36.923 v 42.636 l -21.317,36.923 -21.318,36.924 v 42.635 l 21.318,36.923 21.317,36.924 v 42.635 l -21.317,36.924 -21.318,36.923 v 42.635 l 21.318,36.924 21.317,36.923 v 42.636 l -21.317,36.923 -21.318,36.923 v 42.636 l 21.318,36.923 21.317,36.924 h 42.636 l 36.923,-21.318 21.318,-36.923 21.318,-36.924 36.923,-21.318 21.318,-36.923 21.317,-36.923 V 740.767 L 674.072,703.844 652.754,666.92 615.831,645.603 594.513,608.679 573.195,571.756 536.272,550.438 v -42.635 l -21.318,-36.924 -21.318,-36.923 v -42.635 l 21.318,-36.924 21.318,-36.923 v -42.636 l -21.318,-36.923 -21.318,-36.923 v -42.636 l 21.318,-36.923 21.318,-36.924 V 41.874 L 514.954,4.951 m 461.747,248.57 -36.923,21.317 h -42.635 -42.636 l -36.923,21.318 -21.318,36.923 -21.318,36.924 -36.923,21.318 h -42.636 -42.635 l -36.923,21.317 -21.318,36.924 -21.318,36.923 -36.923,21.318 h -42.636 -42.635 l -36.923,21.318 -21.318,36.923 -21.318,36.923 -36.923,21.318 h -42.636 -42.635 l -36.924,21.318 -21.317,36.923 -21.318,36.924 -36.923,21.317 H 90.13 47.495 L 10.571,762.085 M 939.778,84.509 976.701,105.827 955.384,142.75 918.46,121.433 Z m 0,-42.635 V 84.509 H 897.143 V 41.874 Z m -21.318,894.934 -21.317,-36.923 36.923,-21.318 21.318,36.924 z M 90.13,41.874 h 42.636 V 84.509 H 90.13 Z M 47.495,899.885 V 857.249 H 90.13 v 42.636 z m 85.271,73.847 -21.318,-36.924 36.923,-21.317 21.318,36.923 z m -21.318,-36.924 -21.318,-36.923 36.923,-21.318 21.318,36.924 z M 897.143,41.874 V 84.509 H 854.507 V 41.874 Z m 21.317,79.559 36.924,21.317 -21.318,36.924 -36.923,-21.318 z m -63.953,852.299 -36.923,21.317 -21.318,-36.923 36.923,-21.318 z m 79.559,-95.165 -36.923,-21.318 21.317,-36.923 36.924,21.318 z m 21.318,-36.923 -36.924,-21.318 21.318,-36.923 36.923,21.317 z M 47.495,158.356 H 90.13 v 42.636 H 47.495 Z m 85.271,-73.847 36.923,21.318 -21.318,36.923 -36.923,-21.317 z m -21.318,36.924 36.923,21.317 -21.318,36.924 -36.923,-21.318 z m 95.164,852.299 -36.923,-21.318 21.318,-36.923 36.923,21.317 z M 90.13,857.249 l 21.318,-36.923 36.923,21.318 -21.318,36.923 z M 47.495,41.874 H 90.13 V 84.509 H 47.495 Z m 770.089,21.318 36.923,21.317 -21.318,36.924 -36.923,-21.318 z m 116.482,116.482 21.318,36.923 -36.924,21.318 -21.317,-36.923 z m 21.318,36.923 21.317,36.924 -36.923,21.317 -21.318,-36.923 z m -159.118,741.529 -21.318,-36.923 36.924,-21.318 21.317,36.923 z m 100.877,-58.241 h -42.636 v -42.636 h 42.636 z M 206.612,41.874 h 42.636 v 42.635 h -42.636 z m 42.636,0 h 42.635 v 42.635 h -42.635 z m 446.141,0 V 84.509 H 652.754 V 41.874 Z m -42.635,0 V 84.509 H 610.119 V 41.874 Z M 206.612,84.509 227.93,121.433 191.007,142.75 169.689,105.827 Z M 90.13,200.992 l 36.923,-21.318 21.318,36.923 -36.923,21.318 z m 849.648,772.74 -21.318,-36.924 36.924,-21.317 21.317,36.923 z M 47.495,783.403 V 740.767 H 90.13 v 42.636 z m 0,-508.565 H 90.13 v 42.636 H 47.495 Z m 706.136,683.288 -21.318,36.923 -36.924,-21.317 21.318,-36.924 z m -461.748,15.606 21.318,-36.924 36.923,21.318 -21.317,36.923 z m -63.953,-36.924 -36.923,-21.317 21.317,-36.924 36.924,21.318 z m -116.482,-116.482 21.318,-36.923 36.923,21.317 -21.318,36.924 z m 828.33,-79.559 -21.318,-36.923 36.924,-21.318 21.317,36.924 z m 0,42.636 h -42.635 v -42.636 h 42.635 z m -143.512,-683.288 36.923,21.318 -21.317,36.923 -36.924,-21.318 z m 100.877,58.241 v 42.636 h -42.636 v -42.636 z m 42.635,116.482 v 42.636 h -42.635 v -42.636 z m 0,42.636 36.923,21.318 -21.317,36.923 -36.924,-21.318 z m -186.147,640.652 -36.924,-21.318 21.318,-36.923 36.923,21.318 z m 100.876,-58.241 h -42.635 v -42.636 h 42.635 z M 732.313,63.192 l 21.318,36.923 -36.924,21.318 -21.318,-36.924 z m -440.43,21.317 36.924,-21.317 21.317,36.923 -36.923,21.318 z M 451.001,41.874 h 42.635 v 42.635 h -42.635 z m 85.271,0 V 84.509 H 493.636 V 41.874 Z m -308.342,79.559 21.318,36.923 -36.924,21.318 -21.317,-36.924 z m -116.482,116.482 36.923,-21.318 21.318,36.924 -36.923,21.317 z M 47.495,624.285 H 90.13 V 666.92 H 47.495 Z M 90.13,783.403 v -42.636 h 42.636 v 42.636 z M 47.495,433.956 V 391.321 H 90.13 v 42.635 z M 90.13,274.838 h 42.636 v 42.636 H 90.13 Z m 223.071,661.97 21.318,-36.923 36.923,21.318 -21.318,36.923 z m 296.918,36.924 -36.924,-21.318 21.318,-36.923 36.923,21.317 z m -36.924,-21.318 -36.923,21.318 -21.318,-36.924 36.924,-21.317 z m -180.435,5.712 36.923,-21.318 21.318,36.924 -36.923,21.317 z m -180.436,-79.559 -21.317,-36.923 36.923,-21.318 21.318,36.923 z m -21.317,-36.923 -21.318,-36.924 36.923,-21.317 21.318,36.923 z M 955.384,682.526 918.46,703.844 897.143,666.92 934.066,645.603 Z m -58.241,100.877 h -42.636 v -42.636 h 42.636 z m -403.507,-275.6 h 42.636 v 42.635 h -42.636 z m 461.748,100.876 -36.924,-21.317 21.318,-36.924 36.923,21.318 z m 0,0 -21.318,36.924 -36.923,-21.318 21.317,-36.923 z m -201.753,-508.564 21.317,36.923 -36.923,21.318 -21.318,-36.923 z m 100.876,58.241 v 42.636 h -42.635 v -42.636 z m 100.877,291.206 21.317,36.923 -36.923,21.318 -21.318,-36.924 z M 897.143,274.838 v 42.636 h -42.636 v -42.636 z m 58.241,100.877 -21.318,36.923 -36.923,-21.317 21.317,-36.924 z m 0,73.847 -36.924,21.317 -21.317,-36.923 36.923,-21.318 z m -143.512,407.687 -36.924,-21.317 21.318,-36.924 36.923,21.318 z m 21.317,-36.923 -36.923,-21.318 21.318,-36.923 36.923,21.318 z m -519.988,-698.893 36.923,-21.318 21.318,36.923 -36.923,21.318 z m 296.918,-36.924 21.317,36.924 -36.923,21.317 -21.318,-36.923 z m -36.924,21.318 -21.317,36.923 -36.924,-21.317 21.318,-36.924 z M 414.078,63.192 451.001,84.509 429.683,121.433 392.76,100.115 Z m -201.754,116.482 36.924,21.318 -21.318,36.923 -36.923,-21.318 z m -21.317,36.923 36.923,21.318 -21.318,36.923 -36.923,-21.317 z M 47.495,507.803 H 90.13 v 42.635 H 47.495 Z m 42.635,159.117 36.923,-21.317 21.318,36.923 -36.923,21.318 z m 21.318,36.924 36.923,-21.318 21.318,36.924 -36.923,21.317 z M 90.13,391.321 l 21.318,-36.924 36.923,21.318 -21.318,36.923 z m 21.318,-36.924 21.318,-36.923 36.923,21.318 -21.318,36.923 z m 626.577,545.488 h -42.636 v -42.636 h 42.636 z m -42.636,0 h -42.635 v -42.636 h 42.635 z m -63.953,36.923 -36.923,-21.317 21.318,-36.924 36.923,21.318 z M 249.248,899.885 v -42.636 h 42.635 v 42.636 z m 42.635,0 v -42.636 h 42.636 v 42.636 z m 100.877,58.241 -21.318,-36.923 36.923,-21.318 21.318,36.923 z m 159.118,-42.635 -36.924,21.317 -21.318,-36.923 36.924,-21.318 z m 387.9,-407.688 v 42.635 H 897.143 V 507.803 Z M 897.143,666.92 h -42.636 v -42.635 h 42.636 z m -85.271,-465.928 21.317,36.923 -36.923,21.318 -21.318,-36.924 z m 21.317,36.923 21.318,36.923 -36.923,21.318 -21.318,-36.923 z m 63.954,153.406 v 42.635 h -42.636 v -42.635 z m -159.118,465.928 -21.318,-36.923 36.924,-21.318 21.317,36.924 z m 116.482,-116.482 -36.923,21.318 -21.318,-36.923 36.923,-21.318 z M 738.025,158.356 v 42.636 h -42.636 v -42.636 z m -42.636,0 v 42.636 h -42.635 v -42.636 z m -63.953,-36.923 21.318,36.923 -36.923,21.318 -21.318,-36.924 z m -382.188,36.923 h 42.635 v 42.636 h -42.635 z m 42.635,0 h 42.636 v 42.636 h -42.636 z m 100.877,-58.241 36.923,21.318 -21.318,36.923 -36.923,-21.318 z m 159.118,42.635 -21.318,36.924 -36.924,-21.318 21.318,-36.923 z M 90.13,507.803 h 42.636 v 42.635 H 90.13 Z m 0,116.482 21.318,-36.923 36.923,21.317 -21.318,36.924 z m 0,-190.329 36.923,-21.318 21.318,36.924 -36.923,21.317 z m 562.624,423.293 -36.923,21.318 -21.318,-36.923 36.923,-21.318 z m -159.118,42.636 h -42.635 v -42.636 h 42.635 z m -85.271,0 v -42.636 h 42.636 v 42.636 z M 169.689,719.45 l 21.318,-36.924 36.923,21.318 -21.318,36.923 z m 36.923,63.953 v -42.636 h 42.636 v 42.636 z m 690.531,-275.6 v 42.635 H 854.507 V 507.803 Z M 854.507,666.92 h -42.635 v -42.635 h 42.635 z m -116.482,-465.928 36.923,21.317 -21.317,36.924 -36.924,-21.318 z m 116.482,116.482 -21.318,36.923 -36.923,-21.318 21.318,-36.923 z m 0,73.847 v 42.635 h -42.635 v -42.635 z m -137.8,429.005 -21.318,-36.923 36.924,-21.318 21.318,36.923 z M 833.189,703.844 796.266,725.162 774.948,688.238 811.872,666.92 Z M 652.754,200.992 631.436,237.915 594.513,216.597 615.831,179.674 Z M 493.636,158.356 v 42.636 h -42.635 v -42.636 z m -85.271,0 h 42.636 v 42.636 h -42.636 z m -238.676,180.436 36.923,-21.318 21.318,36.923 -36.923,21.318 z m 36.923,-63.954 h 42.636 v 42.636 h -42.636 z m -95.164,196.041 36.923,-21.317 21.318,36.923 -36.923,21.318 z m 0,116.483 21.318,-36.924 36.923,21.318 -21.318,36.923 z m 519.988,232.964 -36.923,21.318 -21.318,-36.924 36.924,-21.317 z m -281.312,-21.318 21.318,36.924 -36.923,21.317 -21.318,-36.923 z m 79.559,21.318 -21.318,36.923 -36.923,-21.317 21.318,-36.924 z m 85.271,0 36.924,21.318 -21.318,36.923 -36.924,-21.318 z M 249.248,666.92 227.93,703.844 191.007,682.526 212.324,645.603 Z m 42.635,73.847 v 42.636 h -42.635 v -42.636 z m 36.924,21.318 21.317,36.923 -36.923,21.318 -21.318,-36.923 z m 467.459,-196.041 21.318,-36.923 36.923,21.317 -21.318,36.924 z m -21.318,36.923 21.318,-36.923 36.923,21.318 -21.317,36.923 z m -42.635,-306.811 -36.924,-21.318 21.318,-36.923 36.924,21.318 z m 42.635,73.847 21.318,-36.924 36.923,21.318 -21.317,36.924 z m 21.318,122.194 36.923,-21.318 21.318,36.924 -36.923,21.318 z m -21.318,-36.923 36.924,-21.318 21.317,36.923 -36.923,21.318 z m -58.241,248.57 36.924,21.318 -21.318,36.923 -36.924,-21.318 z m 21.318,-36.924 36.923,21.318 -21.317,36.924 -36.924,-21.318 z m -164.83,-413.399 21.318,-36.924 36.923,21.318 -21.317,36.923 z m -223.071,5.712 -36.923,-21.318 21.318,-36.923 36.923,21.317 z m 79.559,-21.318 -36.923,21.318 -21.318,-36.924 36.923,-21.317 z m 85.271,0 -21.318,-36.923 36.924,-21.318 21.318,36.923 z m -265.706,153.406 -36.924,21.317 -21.317,-36.923 36.923,-21.318 z m 42.635,-73.847 h -42.635 v -42.636 h 42.635 z m 58.241,-58.241 -21.317,36.923 -36.924,-21.318 21.318,-36.923 z m -143.512,291.205 21.318,36.924 -36.923,21.317 -21.318,-36.923 z m 21.318,36.924 21.318,36.923 -36.924,21.318 -21.317,-36.924 z m -21.318,-79.559 -36.923,-21.318 21.318,-36.923 36.923,21.317 z m 42.636,-73.847 -21.318,36.923 -36.923,-21.317 21.317,-36.924 z m 446.141,306.811 v 42.636 h -42.635 v -42.636 z m -85.27,0 h 42.635 v 42.636 h -42.635 z m -95.165,79.559 21.318,-36.923 36.923,21.317 -21.317,36.924 z m -85.271,0 -36.923,-21.318 21.318,-36.923 36.923,21.318 z m -100.876,-58.241 -36.924,-21.318 21.318,-36.923 36.923,21.318 z m 424.824,-429.006 -36.924,21.318 -21.318,-36.923 36.924,-21.318 z m 21.317,36.924 -36.923,21.318 -21.318,-36.924 36.924,-21.318 z M 652.754,274.838 h 42.635 v 42.636 h -42.635 z m -42.635,0 h 42.635 v 42.636 h -42.635 z m -95.165,-36.923 36.924,-21.318 21.317,36.924 -36.923,21.317 z m -85.271,0 21.318,36.923 -36.923,21.318 -21.318,-36.923 z m -137.8,79.559 36.924,-21.318 21.317,36.923 -36.923,21.318 z m -85.271,190.329 h 42.636 v 42.635 h -42.636 z m 42.636,159.117 v -42.635 h 42.635 v 42.635 z m 0,-275.599 h 42.635 v 42.635 h -42.635 z m 244.388,349.446 v 42.636 h -42.635 v -42.636 z m 0,0 h 42.636 v 42.636 H 493.636 Z M 371.442,688.238 350.124,725.162 313.201,703.844 334.519,666.92 Z M 738.025,666.92 h -42.636 v -42.635 h 42.636 z m 36.923,-63.953 -36.923,21.318 -21.318,-36.923 36.924,-21.318 z m 0,-147.693 -21.317,36.923 -36.924,-21.318 21.318,-36.923 z m -79.559,-21.318 v -42.635 h 42.636 v 42.635 z M 493.636,317.474 h -42.635 v -42.636 h 42.635 z m 0,0 v -42.636 h 42.636 v 42.636 z m -122.194,52.529 -36.923,21.318 -21.318,-36.924 36.923,-21.318 z m -79.559,180.435 h -42.635 v -42.635 h 42.635 z m 42.636,73.847 v 42.635 h -42.636 v -42.635 z m 0,-190.329 h -42.636 v -42.635 h 42.636 z m 259.994,248.57 36.923,21.318 -21.317,36.923 -36.924,-21.317 z m -79.559,21.318 36.924,-21.318 21.317,36.924 -36.923,21.317 z m -85.271,0 21.318,36.923 -36.923,21.318 -21.318,-36.923 z m -21.318,-36.924 21.318,36.924 -36.923,21.318 -21.318,-36.924 z m 244.389,-42.635 h 42.635 v 42.635 h -42.635 z m 42.635,-73.847 36.924,-21.317 21.318,36.923 -36.924,21.318 z m 0,-42.635 21.318,-36.924 36.924,21.318 -21.318,36.924 z m -42.635,-73.847 v -42.635 h 42.635 v 42.635 z m -36.923,211.647 36.923,21.317 -21.318,36.924 -36.923,-21.318 z m -21.318,-269.888 -21.318,-36.923 36.924,-21.318 21.317,36.923 z m -79.559,-21.318 21.318,-36.923 36.923,21.318 -21.317,36.923 z m -85.271,0 -36.923,-21.318 21.318,-36.923 36.923,21.318 z m -21.318,36.924 -36.923,-21.318 21.318,-36.924 36.923,21.318 z m -58.241,174.723 -36.923,21.318 -21.318,-36.924 36.924,-21.317 z m 21.318,36.923 -36.923,21.318 -21.318,-36.923 36.923,-21.318 z m -21.318,-110.77 -21.317,36.924 -36.924,-21.318 21.318,-36.924 z m 21.318,-36.923 -21.318,36.923 -36.923,-21.318 21.318,-36.923 z m 122.194,211.646 36.924,-21.317 21.318,36.923 -36.924,21.318 z M 652.754,507.803 h 42.635 v 42.635 h -42.635 z m -36.923,-95.165 -21.318,-36.923 36.923,-21.318 21.318,36.924 z m -21.318,196.041 36.923,-21.317 21.318,36.923 -36.923,21.318 z m -100.877,-217.358 21.318,-36.924 36.924,21.318 -21.318,36.923 z m -42.635,232.964 h 42.635 v 42.635 h -42.635 z m 0,0 v 42.635 h -42.636 v -42.635 z m -21.318,-36.923 -21.318,36.923 -36.923,-21.318 21.318,-36.923 z m 180.436,-79.559 h 42.635 v 42.635 h -42.635 z m -15.606,-58.241 21.318,-36.924 36.923,21.318 -21.318,36.923 z m -21.318,122.194 36.924,-21.318 21.317,36.924 -36.923,21.317 z m -122.194,-137.8 v -42.635 h 42.635 v 42.635 z m 0,0 h -42.636 v -42.635 h 42.636 z m -21.318,36.923 -36.923,21.318 -21.318,-36.923 36.923,-21.318 z m 85.271,116.483 36.924,21.317 -21.318,36.924 -36.924,-21.318 z m -63.953,-36.924 -21.318,36.924 -36.923,-21.318 21.318,-36.923 z m 122.194,-63.953 21.318,-36.923 36.923,21.317 -21.317,36.924 z m -36.923,63.953 36.923,21.318 -21.317,36.923 -36.924,-21.317 z m -21.318,-79.559 -21.318,-36.923 36.924,-21.318 21.318,36.924 z m -63.953,36.924 -36.923,21.318 -21.318,-36.924 36.923,-21.318 z m 85.271,0 -21.318,-36.924 36.924,-21.317 21.317,36.923 z m -42.636,0 v 42.635 H 451.001 V 507.803 Z M 47.495,84.509 H 90.13 L 68.812,121.433 Z M 26.177,121.433 H 68.812 L 47.495,158.356 Z M 939.778,973.732 H 897.143 L 918.46,936.808 Z M 47.495,857.249 H 4.859 l 21.318,-36.923 z m 42.635,116.483 21.318,-36.924 21.318,36.924 z M 68.812,936.808 90.13,899.885 111.448,936.808 Z M 939.778,84.509 918.46,121.433 897.143,84.509 Z m -42.635,889.223 h -42.636 l 21.318,-36.924 z m 0,0 -21.318,-36.924 h 42.635 z m 21.317,-36.924 h -42.635 l 21.318,-36.923 z m 36.924,-21.317 -21.318,-36.924 h 42.635 z M 897.143,41.874 H 854.507 L 875.825,4.951 Z m 79.558,836.693 h -42.635 l 21.318,-36.923 z M 47.495,200.992 26.177,237.915 4.859,200.992 Z M 169.689,20.556 V 63.192 L 132.766,41.874 Z m 0,0 36.923,21.318 -36.923,21.318 z m -36.923,21.318 36.923,21.318 -36.923,21.317 z M 90.13,84.509 111.448,121.433 H 68.812 Z m 0,0 h 42.636 l -21.318,36.924 z M 68.812,121.433 90.13,158.356 H 47.495 Z m 0,0 h 42.636 L 90.13,158.356 Z M 47.495,857.249 68.812,820.326 90.13,857.249 Z m 0,0 -21.318,-36.923 h 42.635 z m -21.318,-36.923 21.318,-36.923 21.317,36.923 z m 143.512,174.723 -36.923,-21.317 36.923,-21.318 z m 0,0 36.923,-21.317 -36.923,-21.318 z M 90.13,899.885 v -42.636 l 36.923,21.318 z M 854.507,41.874 V 84.509 L 817.584,63.192 Z m 42.636,42.635 -21.318,36.924 -21.318,-36.924 z m 0,0 21.317,36.924 h -42.635 z m 21.317,36.924 -21.317,36.923 -21.318,-36.923 z m 36.924,21.317 21.317,36.924 H 934.066 Z M 68.812,936.808 47.495,899.885 H 90.13 Z M 976.701,179.674 955.384,216.597 934.066,179.674 Z M 854.507,973.732 833.189,936.808 h 42.636 z m 21.318,-36.924 h -42.636 l 21.318,-36.923 z m 0,0 -21.318,-36.923 h 42.636 z m 21.318,-36.923 36.923,-21.318 -36.923,-21.318 z M 817.584,63.192 h -42.636 l 21.318,-36.924 z m -42.636,0 H 732.313 L 753.631,26.268 Z M 206.612,41.874 227.93,4.951 249.248,41.874 Z m 42.636,0 21.318,-36.923 21.317,36.923 z M 90.13,973.732 68.812,936.808 h 42.636 z M 695.389,41.874 H 652.754 L 674.072,4.951 Z m -42.635,0 H 610.119 L 631.436,4.951 Z M 47.495,200.992 H 90.13 l -21.318,36.923 z m 0,0 21.317,36.923 H 26.177 Z M 26.177,237.915 H 68.812 L 47.495,274.838 Z M 206.612,41.874 V 84.509 L 169.689,63.192 Z m -36.923,21.318 v 42.635 L 132.766,84.509 Z m 0,0 36.923,21.317 -36.923,21.318 z M 90.13,158.356 127.053,179.674 90.13,200.992 Z M 26.177,936.808 47.495,899.885 68.812,936.808 Z M 47.495,783.403 10.571,762.085 47.495,740.767 Z m 0,-508.565 v 42.636 L 10.571,296.156 Z m 748.771,683.288 -21.318,36.923 -21.317,-36.923 z M 47.495,973.732 68.812,936.808 90.13,973.732 Z M 26.177,121.433 47.495,158.356 H 4.859 Z M 47.495,84.509 68.812,121.433 H 26.177 Z M 90.13,857.249 68.812,820.326 h 42.636 z m -21.318,-36.923 21.318,-36.923 21.318,36.923 z m 0,0 -21.317,-36.923 H 90.13 Z m 137.8,153.406 21.318,-36.924 21.318,36.924 z m -36.923,-21.318 -21.318,-36.923 h 42.636 z m -21.318,-36.923 -21.318,-36.924 h 42.636 z m 0,0 21.318,-36.924 21.318,36.924 z m -21.318,-36.924 21.318,-36.923 21.318,36.923 z m 812.725,-95.164 36.923,-21.318 -36.923,-21.318 z M 817.584,63.192 796.266,100.115 774.948,63.192 Z m 36.923,21.317 21.318,36.924 h -42.636 z m 21.318,36.924 -21.318,36.923 -21.318,-36.923 z m 0,0 21.318,36.923 h -42.636 z m 21.318,36.923 36.923,21.318 -36.923,21.318 z m 42.635,116.482 36.923,21.318 -36.923,21.318 z M 796.266,958.126 h -42.635 l 21.317,-36.923 z m 36.923,-21.318 -21.317,-36.923 h 42.635 z m 63.954,-79.559 -21.318,-36.923 h 42.635 z m 0,0 h -42.636 l 21.318,-36.923 z m 21.317,-36.923 h -42.635 l 21.318,-36.923 z m 0,0 -21.317,-36.923 h 42.635 z M 774.948,63.192 l 21.318,36.923 h -42.635 z m 0,0 -21.317,36.923 -21.318,-36.923 z m -79.559,-21.318 36.924,21.318 -36.924,21.317 z m -403.506,0 36.924,21.318 -36.924,21.317 z m 318.236,0 -36.924,21.318 V 20.556 Z m 0,0 V 84.509 L 573.195,63.192 Z M 573.195,20.556 V 63.192 L 536.272,41.874 Z m -244.388,42.636 21.317,-36.924 21.318,36.924 z m 42.635,0 21.318,-36.924 21.318,36.924 z M 90.13,41.874 111.448,4.951 132.766,41.874 Z m 360.871,0 21.318,-36.923 21.317,36.923 z m 85.271,0 H 493.636 L 514.954,4.951 Z M 90.13,200.992 111.448,237.915 H 68.812 Z m -21.318,36.923 h 42.636 L 90.13,274.838 Z m 0,0 21.318,36.923 H 47.495 Z m 137.8,-153.406 h 42.636 l -21.318,36.924 z m -36.923,21.318 21.318,36.923 h -42.636 z m -21.318,36.923 21.318,36.924 h -42.636 z m 0,0 h 42.636 l -21.318,36.924 z m -21.318,36.924 h 42.636 l -21.318,36.923 z M 26.177,587.362 47.495,624.285 H 4.859 Z m 0,116.482 L 4.859,666.92 h 42.636 z m 0,0 h 42.635 l -21.317,36.923 z m 0,0 21.318,-36.924 21.317,36.924 z m 21.318,36.923 21.317,-36.923 21.318,36.923 z M 939.778,41.874 H 897.143 L 918.46,4.951 Z M 26.177,470.879 4.859,433.956 h 42.636 z m 0,-116.482 21.318,36.924 H 4.859 Z m 0,0 21.318,-36.923 21.317,36.923 z m 0,0 H 68.812 L 47.495,391.321 Z M 47.495,317.474 H 90.13 l -21.318,36.923 z m 647.894,656.258 -21.317,-36.924 h 42.635 z m 0,0 h -42.635 l 21.318,-36.924 z m -446.141,0 21.318,-36.924 21.317,36.924 z m 0,0 -21.318,-36.924 h 42.636 z m 42.635,0 -21.317,-36.924 h 42.635 z m 360.871,0 -21.318,-36.924 h 42.636 z m 0,0 h -42.635 l 21.317,-36.924 z m -42.635,0 -36.924,21.317 V 952.414 Z M 939.778,41.874 976.701,63.192 939.778,84.509 Z M 573.195,995.049 536.272,973.732 573.195,952.414 Z M 350.124,958.126 h 42.636 l -21.318,36.923 z M 26.177,936.808 4.859,899.885 H 47.495 Z M 47.495,973.732 26.177,936.808 H 68.812 Z M 111.448,820.326 90.13,783.403 h 42.636 z m 116.482,116.482 21.318,-36.923 21.318,36.923 z m -36.923,-21.317 -21.318,-36.924 h 42.635 z m -21.318,-36.924 -21.318,-36.923 h 42.636 z m 0,0 21.318,-36.923 21.317,36.923 z m -21.318,-36.923 21.318,-36.924 21.318,36.924 z M 939.778,740.767 H 897.143 L 918.46,703.844 Z M 47.495,41.874 V 84.509 L 10.571,63.192 Z m 929.206,603.729 -21.317,36.923 -21.318,-36.923 z m 0,0 h -42.635 l 21.318,-36.924 z M 796.266,100.115 774.948,137.038 753.631,100.115 Z m 36.923,21.318 21.318,36.923 h -42.635 z m 63.954,79.559 21.317,36.923 h -42.635 z m 0,0 -21.318,36.923 -21.318,-36.923 z m 21.317,36.923 -21.317,36.923 -21.318,-36.923 z m 0,0 21.318,36.923 H 897.143 Z M 47.495,41.874 68.812,4.951 90.13,41.874 Z m 892.283,275.6 -21.318,36.923 -21.317,-36.923 z m 36.923,95.164 h -42.635 l 21.318,-36.923 z m 0,0 -21.317,36.924 -21.318,-36.924 z m -201.753,508.565 36.924,-21.318 -36.924,-21.318 z m 0,0 -36.923,-21.318 36.923,-21.318 z m 36.924,-21.318 -36.924,-21.318 36.924,-21.318 z m 42.635,-42.636 -21.318,-36.923 h 42.636 z m 0,0 h -42.635 l 21.317,-36.923 z m 21.318,-36.923 -21.318,-36.923 h 42.636 z m 0,0 h -42.636 l 21.318,-36.923 z M 695.389,84.509 l 21.318,36.924 h -42.635 z m 0,0 -21.317,36.924 -21.318,-36.924 z m -446.141,0 h 42.635 l -21.317,36.924 z m 0,0 21.318,36.924 H 227.93 Z m 42.635,0 21.318,36.924 h -42.635 z m 36.924,-21.317 h 42.635 l -21.318,36.923 z m 323.947,21.317 21.318,36.924 h -42.636 z m 0,0 -21.318,36.924 -21.317,-36.924 z m -42.635,0 -36.924,21.318 V 63.192 Z M 573.195,63.192 536.272,84.509 V 41.874 Z m 0,0 v 42.635 L 536.272,84.509 Z m -201.753,0 21.318,36.923 h -42.636 z m 0,0 h 42.636 l -21.318,36.923 z m 42.636,0 36.923,-21.318 v 42.635 z m -302.63,174.723 21.318,36.923 H 90.13 Z M 227.93,121.433 h 42.636 l -21.318,36.923 z m -36.923,21.317 21.317,36.924 h -42.635 z m -21.318,36.924 21.318,36.923 h -42.636 z m 0,0 h 42.635 l -21.317,36.923 z m -21.318,36.923 h 42.636 l -21.318,36.924 z M 47.495,507.803 v 42.635 L 10.571,529.121 Z m -21.318,79.559 21.318,-36.924 21.317,36.924 z m 0,0 h 42.635 l -21.317,36.923 z m 21.318,36.923 21.317,-36.923 21.318,36.923 z m 0,42.635 H 90.13 l -21.318,36.924 z m 21.317,36.924 h 42.636 L 90.13,740.767 Z m 0,0 21.318,-36.924 21.318,36.924 z m 21.318,36.923 21.318,-36.923 21.318,36.923 z M 26.177,470.879 h 42.635 l -21.317,36.924 z m 0,0 21.318,-36.923 21.317,36.923 z M 47.495,433.956 H 90.13 l -21.318,36.923 z m 0,-42.635 21.317,-36.924 21.318,36.924 z m 21.317,-36.924 21.318,-36.923 21.318,36.923 z m 0,0 h 42.636 L 90.13,391.321 Z M 90.13,317.474 h 42.636 l -21.318,36.923 z m 626.577,619.334 h -42.635 l 21.317,-36.923 z m 0,0 -21.318,-36.923 h 42.636 z m -42.635,0 -21.318,-36.923 h 42.635 z m 0,0 h -42.636 l 21.318,-36.923 z m -403.506,0 21.317,-36.923 21.318,36.923 z m 0,0 -21.318,-36.923 h 42.635 z m 42.635,0 -21.318,-36.923 h 42.636 z m 36.923,21.318 21.318,-36.923 21.318,36.923 z m 223.071,-5.712 -21.317,-36.923 h 42.635 z m -36.923,21.318 h -42.636 l 21.318,-36.924 z m -85.271,0 21.318,-36.924 21.317,36.924 z m 42.635,0 -21.317,-36.924 h 42.635 z m -42.635,0 -21.318,-36.924 h 42.636 z M 132.766,783.403 169.689,762.085 v 42.635 z m 0,0 v -42.636 l 36.923,21.318 z m 116.482,116.482 -36.924,-21.318 36.924,-21.318 z M 169.689,804.72 v -42.635 l 36.923,21.318 z M 918.46,703.844 h -42.635 l 21.318,-36.924 z m 0,0 -21.317,36.923 -21.318,-36.923 z m -21.317,36.923 h -42.636 l 21.318,-36.923 z m 42.635,-232.964 36.923,21.318 -36.923,21.317 z m -5.712,137.8 -36.923,21.317 V 624.285 Z M 774.948,137.038 v 42.636 l -36.923,-21.318 z m 0,0 36.924,21.318 -36.924,21.318 z m 36.924,21.318 v 42.636 l -36.924,-21.318 z m 42.635,42.636 21.318,36.923 h -42.636 z m 0,0 -21.318,36.923 -21.317,-36.923 z m 21.318,36.923 21.318,36.923 h -42.636 z m 0,0 -21.318,36.923 -21.318,-36.923 z m 21.318,79.559 -21.318,36.923 -21.318,-36.923 z m 0,0 21.317,36.923 h -42.635 z m 21.317,36.923 -21.317,36.924 -21.318,-36.924 z m 15.606,58.241 -36.923,21.318 v -42.635 z m -196.041,487.247 36.923,-21.318 -36.923,-21.318 z m 36.923,-21.318 36.924,-21.318 -36.924,-21.317 z m 0,0 -36.923,-21.318 36.923,-21.317 z m 79.559,-95.164 -36.923,-21.318 36.923,-21.318 z m -137.8,-661.97 -21.318,36.923 -21.317,-36.923 z m 0,0 21.318,36.923 h -42.636 z m -42.635,0 21.317,36.923 h -42.635 z m 0,0 -21.318,36.923 -21.318,-36.923 z m -403.506,0 h 42.635 l -21.318,36.923 z m 0,0 21.317,36.923 h -42.635 z m 42.635,0 21.318,36.923 h -42.636 z m 36.923,-21.318 h 42.636 l -21.318,36.923 z m 223.071,5.712 21.318,36.923 H 551.878 Z M 536.272,84.509 514.954,121.433 493.636,84.509 Z m -85.271,0 h 42.635 l -21.317,36.924 z m 42.635,0 21.318,36.924 h -42.635 z m -42.635,0 21.318,36.924 h -42.636 z m -318.235,190.329 36.923,21.318 -36.923,21.318 z m 0,0 36.923,-21.317 v 42.635 z M 249.248,158.356 v 42.636 l -36.924,-21.318 z m -79.559,95.165 36.923,21.317 -36.923,21.318 z M 47.495,507.803 68.812,470.879 90.13,507.803 Z m 0,42.635 H 90.13 l -21.318,36.924 z m 21.317,36.924 21.318,-36.924 21.318,36.924 z m 0,0 h 42.636 L 90.13,624.285 Z m 21.318,36.923 36.923,21.318 -36.923,21.317 z m 42.636,116.482 36.923,-21.317 v 42.635 z M 68.812,470.879 h 42.636 L 90.13,507.803 Z m 0,0 21.318,-36.923 21.318,36.923 z M 90.13,433.956 v -42.635 l 36.923,21.317 z m 42.636,-116.482 36.923,-21.318 v 42.636 z m 519.988,582.411 -36.923,-21.318 36.923,-21.318 z m -318.235,0 36.923,-21.318 v 42.636 z m 0,0 v -42.636 l 36.923,21.318 z m 36.923,21.318 v -42.636 l 36.923,21.318 z m 223.071,-5.712 -21.318,-36.924 h 42.636 z m 0,0 h -42.635 l 21.317,-36.924 z m -42.635,0 -21.318,-36.924 h 42.635 z m -36.924,21.317 h -42.635 l 21.317,-36.923 z m -85.271,0 21.318,-36.923 21.318,36.923 z m 42.636,0 -21.318,-36.923 h 42.635 z m -42.636,0 -21.318,-36.923 h 42.636 z M 169.689,762.085 V 719.45 l 36.923,21.317 z m 0,0 36.923,-21.318 v 42.636 z m 79.559,95.164 -21.318,-36.923 h 42.636 z m 0,0 21.318,-36.923 21.317,36.923 z m -21.318,-36.923 21.318,-36.923 21.318,36.923 z m 0,0 -21.318,-36.923 h 42.636 z M 897.143,666.92 875.825,703.844 854.507,666.92 Z m -21.318,36.924 h -42.636 l 21.318,-36.924 z m 0,0 -21.318,36.923 -21.318,-36.923 z m 63.953,-196.041 h -42.635 l 21.317,-36.924 z m 0,42.635 -21.318,36.924 -21.317,-36.924 z m -21.318,36.924 -21.317,36.923 -21.318,-36.923 z m 0,0 h -42.635 l 21.318,-36.924 z m -21.317,36.923 h -42.636 l 21.318,-36.923 z m -159.118,-465.929 36.923,21.318 -36.923,21.318 z m 36.923,21.318 36.924,21.318 -36.924,21.317 z m 0,0 v 42.635 l -36.923,-21.317 z m 79.559,95.164 v 42.636 l -36.923,-21.318 z m 63.953,196.041 h -42.635 l 21.318,-36.923 z m 0,0 -21.317,36.924 -21.318,-36.924 z m -63.953,-153.405 21.318,36.923 h -42.636 z m 21.318,36.923 -21.318,36.924 -21.318,-36.924 z m 0,0 21.318,36.924 h -42.636 z m 21.318,79.559 -21.318,36.923 -21.318,-36.923 z M 738.025,857.249 h -42.636 l 21.318,-36.923 z m 36.923,-21.317 -21.317,-36.924 h 42.635 z m 21.318,-36.924 -21.318,-36.923 h 42.636 z m 0,0 h -42.635 l 21.317,-36.923 z m 21.318,-36.923 h -42.636 l 21.318,-36.923 z M 652.754,158.356 v 42.636 l -36.923,-21.318 z m -318.235,0 36.923,21.318 -36.923,21.318 z m 0,0 36.923,-21.318 v 42.636 z m 36.923,-21.318 36.923,21.318 -36.923,21.318 z m 223.071,5.712 21.318,36.924 h -42.636 z m 0,0 -21.318,36.924 -21.317,-36.924 z m -42.635,0 21.317,36.924 H 530.56 Z m -36.924,-21.317 -21.318,36.923 -21.317,-36.923 z m -85.271,0 h 42.636 l -21.318,36.923 z m 42.636,0 21.317,36.923 h -42.635 z m -42.636,0 21.318,36.923 h -42.636 z m -259.994,174.723 36.923,21.318 -36.923,21.318 z m 0,0 36.923,-21.318 v 42.636 z m 79.559,-95.164 21.318,36.923 H 227.93 Z m 0,0 h 42.635 l -21.317,36.923 z m -21.318,36.923 h 42.636 l -21.318,36.923 z m 0,0 21.318,36.923 h -42.636 z m -137.8,269.888 21.318,-36.924 21.318,36.924 z m 0,42.635 h 42.636 l -21.318,36.924 z m 36.923,95.165 h 42.636 l -21.318,36.923 z m 0,0 21.318,-36.924 21.318,36.924 z m 21.318,36.923 21.318,-36.923 21.318,36.923 z m 0,0 h 42.636 l -21.318,36.924 z m -21.318,-269.888 21.318,-36.923 21.318,36.923 z m 0,0 h 42.636 l -21.318,36.924 z m 21.318,-36.923 h 42.636 l -21.318,36.923 z m 0,0 21.318,-36.923 21.318,36.923 z m 547.018,481.534 h -42.635 l 21.318,-36.923 z m 0,0 -21.317,-36.923 h 42.635 z m -42.635,0 -21.318,-36.923 h 42.636 z m -36.923,21.318 h -42.636 l 21.318,-36.923 z M 291.883,857.249 270.566,820.326 h 42.635 z m 0,0 21.318,-36.923 21.318,36.923 z m 42.636,0 36.923,-21.317 v 42.635 z m 36.923,21.318 36.923,-21.318 v 42.636 z m 0,0 v -42.635 l 36.923,21.317 z m 201.753,0 -21.317,-36.923 h 42.635 z m 0,0 H 530.56 l 21.318,-36.923 z m -42.635,0 -36.924,21.318 v -42.636 z m -323.948,-137.8 21.318,-36.923 21.318,36.923 z m 63.954,79.559 -21.318,-36.923 h 42.635 z m 0,0 21.317,-36.923 21.318,36.923 z M 854.507,666.92 833.189,703.844 811.872,666.92 Z m 42.636,-159.117 h -42.636 l 21.318,-36.924 z m 0,42.635 -21.318,36.924 -21.318,-36.924 z m -21.318,36.924 -21.318,36.923 -21.318,-36.923 z m 0,0 h -42.636 l 21.318,-36.924 z m -21.318,36.923 h -42.635 l 21.317,-36.923 z M 738.025,200.992 716.707,237.915 695.389,200.992 Z m 36.923,21.317 21.318,36.924 h -42.635 z m 21.318,36.924 21.318,36.923 h -42.636 z m 0,0 -21.318,36.923 -21.317,-36.923 z m 21.318,36.923 -21.318,36.923 -21.318,-36.923 z m 58.241,174.723 h -42.636 l 21.318,-36.923 z m 0,0 -21.318,36.924 -21.318,-36.924 z m -42.636,-116.482 21.318,36.924 h -42.635 z m 21.318,79.559 -21.318,36.923 -21.317,-36.923 z m -137.8,386.37 h -42.635 l 21.317,-36.923 z m 36.924,-21.318 -21.318,-36.923 h 42.635 z m 21.317,-36.923 -21.317,-36.923 h 42.635 z m 0,0 h -42.635 l 21.318,-36.923 z m 21.318,-36.923 h -42.635 l 21.317,-36.924 z m -100.877,-524.17 -21.317,36.923 -21.318,-36.923 z m 0,0 21.318,36.923 h -42.635 z m -42.635,0 21.318,36.923 h -42.636 z m -36.923,-21.318 -21.318,36.923 -21.318,-36.923 z m -323.948,21.318 21.318,36.923 h -42.635 z m 0,0 h 42.636 l -21.318,36.923 z m 42.636,0 36.923,-21.318 v 42.635 z m 36.923,-21.318 36.923,-21.318 v 42.636 z m 0,0 36.923,21.318 -36.923,21.317 z m 201.753,0 21.318,36.923 h -42.635 z m 0,0 -21.317,36.923 -21.318,-36.923 z m -42.635,0 -36.924,21.318 v -42.636 z m -323.948,137.8 h 42.636 l -21.318,36.923 z m 63.954,-79.559 21.317,36.923 h -42.635 z m 0,0 h 42.635 l -21.318,36.923 z m -137.8,269.888 36.923,21.318 -36.923,21.317 z m 0,0 36.923,-21.318 v 42.636 z m 0,42.635 36.923,-21.317 v 42.635 z m 15.605,58.241 h 42.636 l -21.318,36.924 z m 0,0 21.318,-36.923 21.318,36.923 z m 21.318,36.924 h 42.635 l -21.317,36.923 z m 0,0 21.318,-36.924 21.317,36.924 z m -21.318,-196.041 21.318,-36.924 21.318,36.924 z m 0,0 h 42.636 l -21.318,36.923 z m 21.318,-36.924 21.318,-36.923 21.317,36.923 z m 0,0 h 42.635 l -21.317,36.924 z m 504.383,407.688 h -42.636 l 21.318,-36.923 z m 0,0 -21.318,-36.923 h 42.635 z m -42.636,0 -21.317,-36.923 h 42.635 z m -36.923,21.318 H 551.878 L 573.195,804.72 Z M 392.76,799.008 371.442,835.932 350.124,799.008 Z m 36.923,21.318 21.318,36.923 h -42.636 z m 42.636,0 21.317,36.923 h -42.635 z m 0,0 -21.318,36.923 -21.318,-36.923 z m 0,0 h 42.635 l -21.318,36.923 z M 270.566,703.844 H 227.93 l 21.318,-36.924 z m 0,0 -21.318,36.923 -21.318,-36.923 z m 21.317,36.923 h -42.635 l 21.318,-36.923 z m 36.924,21.318 -36.924,21.318 v -42.636 z m 446.141,-116.482 36.924,-21.318 v 42.635 z m 0,0 36.924,21.317 -36.924,21.318 z m 42.636,-116.482 36.923,-21.318 v 42.635 z m -42.636,73.846 36.924,21.318 -36.924,21.318 z M 695.389,274.838 674.072,237.915 h 42.635 z m 36.924,21.318 21.318,-36.923 21.317,36.923 z m 21.318,36.923 21.317,-36.923 21.318,36.923 z m 0,0 -21.318,-36.923 h 42.635 z m 21.317,36.924 -21.317,-36.924 h 42.635 z m 0,42.635 v -42.635 l 36.924,21.318 z m 0,0 36.924,-21.317 v 42.635 z m 0,42.636 v -42.636 l 36.924,21.318 z m -79.559,285.493 36.924,21.318 -36.924,21.318 z m 42.636,-73.847 36.923,-21.317 v 42.635 z M 652.754,274.838 631.436,237.915 h 42.636 z m 0,0 21.318,-36.923 21.317,36.923 z m -42.635,0 21.317,-36.923 21.318,36.923 z m -36.924,-21.317 -21.317,-36.924 h 42.635 z m -180.435,5.712 h -42.636 l 21.318,-36.924 z m 36.923,-21.318 -21.318,-36.923 h 42.636 z m 42.636,0 -21.318,-36.923 h 42.635 z m 0,0 h -42.636 l 21.318,-36.923 z m 0,0 21.317,-36.923 21.318,36.923 z M 249.248,391.321 227.93,354.397 h 42.636 z m 21.318,-36.924 H 227.93 l 21.318,-36.923 z m 0,0 -21.318,-36.923 h 42.635 z m 21.317,-36.923 v -42.636 l 36.924,21.318 z m -85.271,190.329 -36.923,21.318 v -42.636 z m 0,42.635 -36.923,21.318 v -42.635 z m 0,-42.635 v 42.635 l -36.923,-21.317 z m 42.636,159.117 -36.924,-21.317 36.924,-21.318 z m 0,-275.599 v 42.635 l -36.924,-21.318 z m 323.947,370.764 36.924,-21.318 v 42.636 z m 0,0 36.924,21.318 -36.924,21.317 z m -36.923,21.318 36.923,-21.318 V 804.72 Z M 328.807,762.085 h 42.635 l -21.318,36.923 z m 63.953,36.923 h -42.636 l 21.318,-36.923 z m 0,0 -21.318,-36.923 h 42.636 z m 79.559,21.318 h -42.636 l 21.318,-36.923 z m 0,0 21.317,-36.923 21.318,36.923 z m 0,0 -21.318,-36.923 h 42.635 z m 42.635,0 -21.318,-36.923 h 42.636 z M 270.566,703.844 249.248,666.92 h 42.635 z m 0,0 21.317,-36.924 21.318,36.924 z m 21.317,36.923 -21.317,-36.923 h 42.635 z m 36.924,21.318 21.317,-36.923 21.318,36.923 z m 409.218,-95.165 36.923,-21.317 -36.923,-21.318 z m 36.923,-63.953 v 42.636 l -36.923,-21.318 z m 21.318,-36.923 -21.318,-36.923 h 42.636 z m 0,-73.847 21.318,36.924 h -42.636 z m 0,73.847 h -42.635 l 21.317,-36.923 z m -21.318,36.923 -21.317,-36.923 h 42.635 z m -42.635,-306.811 -36.924,21.318 v -42.636 z m 42.635,116.482 -36.923,-21.317 36.923,-21.318 z m 21.318,79.559 -21.318,36.924 -21.317,-36.924 z m -21.318,-36.923 21.318,36.923 h -42.635 z m 0,0 -36.923,-21.318 36.923,-21.318 z m 0,-42.636 -36.923,21.318 v -42.635 z m -58.241,291.206 -21.318,36.923 -21.317,-36.923 z m -21.318,36.923 h -42.635 l 21.318,-36.923 z m 21.318,-36.923 h -42.635 l 21.317,-36.924 z m 21.318,-36.924 -21.318,36.924 -21.318,-36.924 z m -164.83,-413.399 36.924,21.317 -36.924,21.318 z m 36.924,21.317 v 42.636 l -36.924,-21.318 z m -36.924,-21.317 v 42.635 l -36.923,-21.318 z m -223.071,5.712 21.318,36.923 h -42.635 z m 42.636,0 -21.318,36.923 -21.318,-36.923 z m 0,0 21.318,36.923 h -42.636 z m 79.559,-21.318 -21.318,36.923 -21.318,-36.923 z m 0,0 h 42.635 l -21.318,36.923 z m 0,0 21.317,36.923 h -42.635 z m 42.635,0 21.318,36.923 h -42.636 z m -265.706,153.406 21.318,-36.924 21.317,36.924 z m 21.318,-36.924 h 42.635 l -21.318,36.924 z m 0,0 21.317,-36.923 21.318,36.923 z m 58.241,-58.241 h 42.635 l -21.318,36.923 z m -122.195,211.647 21.318,-36.924 21.318,36.924 z m 0,42.635 h 42.636 l -21.318,36.924 z m 21.318,36.924 h 42.636 l -21.318,36.923 z m 0,0 21.318,-36.924 21.318,36.924 z m 21.318,36.923 21.318,-36.923 21.317,36.923 z M 270.566,470.879 H 227.93 l 21.318,-36.923 z m 0,0 -21.318,36.924 -21.318,-36.924 z m 21.317,-36.923 -21.317,36.923 -21.318,-36.923 z m 339.553,269.888 h 42.636 l -21.318,36.923 z m 0,0 21.318,36.923 h -42.635 z m -58.241,15.606 36.924,21.317 -36.924,21.318 z m -36.923,21.317 36.923,21.318 -36.923,21.318 z m 0,0 36.923,-21.317 v 42.635 z M 392.76,725.162 371.442,762.085 350.124,725.162 Z m 0,0 21.318,36.923 h -42.636 z m 58.241,15.605 v 42.636 L 414.078,762.085 Z M 334.519,666.92 313.201,703.844 291.883,666.92 Z m 36.923,21.318 21.318,36.924 h -42.636 z m 345.265,-100.876 21.318,36.923 h -42.636 z m 15.606,-58.241 h 42.635 l -21.317,36.923 z m 0,0 21.318,-36.924 21.317,36.924 z m -58.241,-174.724 21.317,-36.923 21.318,36.923 z m 0,0 -21.318,-36.923 h 42.635 z m 21.317,36.924 -21.317,-36.924 h 42.635 z m 0,0 21.318,-36.924 21.318,36.924 z m 0,42.635 h 42.636 l -21.318,36.923 z M 652.754,666.92 h 42.635 l -21.317,36.924 z m 0,0 21.318,36.924 h -42.636 z m -21.318,-312.523 21.318,-36.923 21.318,36.923 z m 0,0 -21.317,-36.923 h 42.635 z m -58.241,-15.605 v -42.636 l 36.924,21.318 z m -36.923,-21.318 36.923,-21.318 -36.923,-21.318 z m 0,0 36.923,-21.318 v 42.636 z M 392.76,333.079 h -42.636 l 21.318,-36.923 z m 0,0 -21.318,-36.923 h 42.636 z m 58.241,-15.605 -36.923,-21.318 36.923,-21.318 z m -116.482,73.847 h -42.636 l 21.318,-36.924 z m 36.923,-21.318 -21.318,-36.924 h 42.636 z m -79.559,137.8 h -42.635 l 21.318,-36.924 z m 0,42.635 -21.317,36.924 -21.318,-36.924 z m 21.318,36.924 -21.318,36.923 -21.317,-36.923 z m 0,0 h -42.635 l 21.317,-36.924 z m 21.318,36.923 h -42.636 l 21.318,-36.923 z M 313.201,470.879 h -42.635 l 21.317,-36.923 z m 0,0 -21.318,36.924 -21.317,-36.924 z m 21.318,-36.923 -21.318,36.923 -21.318,-36.923 z m 217.359,248.57 h 42.635 l -21.318,36.924 z m -36.924,21.318 21.318,36.923 h -42.636 z m -42.635,0 21.317,36.923 h -42.635 z m 0,0 h 42.635 l -21.318,36.923 z m 0,0 -21.318,36.923 -21.318,-36.923 z M 371.442,645.603 v 42.635 L 334.519,666.92 Z m 0,0 -36.923,21.317 v -42.635 z m 36.923,21.317 -36.923,21.318 v -42.635 z m 265.707,-79.558 21.317,36.923 h -42.635 z m 0,0 h 42.635 l -21.318,36.923 z m 21.317,-36.924 21.318,36.924 h -42.635 z m 0,-42.635 36.924,21.318 -36.924,21.317 z m -42.635,-116.482 21.318,-36.924 21.317,36.924 z m 0,0 -21.318,-36.924 h 42.636 z m 21.318,79.558 h 42.635 l -21.318,36.924 z m 0,0 21.317,-36.923 21.318,36.923 z m -21.318,-36.923 h 42.635 l -21.317,36.923 z m -36.923,211.647 36.923,-21.318 v 42.635 z m -63.953,-269.888 21.317,-36.923 21.318,36.923 z m -36.924,-21.318 -21.318,-36.923 h 42.636 z m -42.635,0 -21.318,-36.923 h 42.635 z m 0,0 21.317,-36.923 21.318,36.923 z m 0,0 h -42.636 l 21.318,-36.923 z m -100.877,58.241 -36.923,21.318 v -42.635 z m 0,0 -36.923,-21.317 36.923,-21.318 z m 36.923,-21.317 -36.923,21.317 v -42.635 z m -79.558,137.8 -36.924,21.317 v -42.635 z m 42.635,73.846 v 42.636 l -36.923,-21.318 z m 0,-147.693 -36.923,-21.318 36.923,-21.318 z m 201.753,190.329 h 42.636 l -21.318,36.923 z m 0,0 21.318,36.923 h -42.635 z m -42.635,0 h 42.635 l -21.317,36.923 z m -36.924,21.317 21.318,36.924 h -42.635 z m -42.635,0 21.318,36.924 h -42.636 z m 0,0 h 42.635 l -21.317,36.924 z m 0,0 -21.318,36.924 -21.318,-36.924 z m -42.636,-42.635 v 42.635 l -36.923,-21.317 z m 0,0 -36.923,21.318 v -42.636 z m 223.071,-36.923 h 42.636 l -21.318,36.923 z m 21.318,-36.924 21.318,36.924 h -42.636 z m 0,0 h 42.635 l -21.317,36.924 z m 0,-42.635 21.318,-36.924 21.317,36.924 z m -36.923,-95.165 36.923,-21.317 v 42.635 z m 15.605,58.241 h 42.636 l -21.318,36.924 z m 0,0 21.318,-36.923 21.318,36.923 z m -36.923,137.8 21.318,36.924 h -42.636 z m -21.318,-196.041 21.318,-36.923 21.318,36.923 z m 0,0 -21.317,-36.923 h 42.635 z m -42.635,0 21.318,-36.923 21.317,36.923 z m -36.924,-21.317 -21.317,-36.924 h 42.635 z m -42.635,0 -21.318,-36.924 h 42.636 z m 0,0 21.318,-36.924 21.317,36.924 z m 0,0 h -42.636 l 21.318,-36.924 z m -42.636,42.635 -36.923,-21.318 36.923,-21.317 z m 0,0 -36.923,21.318 v -42.636 z m -36.923,95.165 -21.318,36.923 -21.317,-36.923 z m 0,0 h -42.635 l 21.317,-36.924 z m 21.318,36.923 h -42.636 l 21.318,-36.923 z m 0,0 -21.318,36.923 -21.318,-36.923 z m 0,-73.847 -21.318,36.924 -21.318,-36.924 z m 0,0 h -42.636 l 21.318,-36.923 z m 159.118,116.482 h 42.635 l -21.318,36.924 z m 0,0 21.317,36.924 H 530.56 Z m -58.242,15.606 36.924,21.318 -36.924,21.317 z m -63.953,-36.923 21.318,36.923 h -42.636 z m 180.436,-36.924 h 42.635 l -21.318,36.924 z m 0,-42.635 21.317,-36.924 21.318,36.924 z m -15.606,-58.241 -21.318,-36.924 h 42.636 z m -21.318,122.194 21.318,36.923 h -42.635 z m -21.317,-122.194 21.317,-36.924 21.318,36.924 z m 0,0 -21.318,-36.924 h 42.635 z m -58.242,-15.606 36.924,-21.318 -36.924,-21.317 z m -63.953,36.923 -21.318,-36.923 h 42.636 z m -15.605,58.242 -21.318,36.923 -21.318,-36.923 z m 0,0 h -42.636 l 21.318,-36.924 z m 58.241,58.241 21.317,36.923 h -42.635 z m 0,0 -21.318,36.923 -21.318,-36.923 z m 0,0 h 42.635 l -21.318,36.923 z m -21.318,-36.924 21.318,36.924 h -42.636 z m 122.194,-21.317 36.924,-21.318 v 42.635 z m 0,0 36.924,21.317 -36.924,21.318 z m 0,-42.636 36.924,21.318 -36.924,21.318 z m 0,0 -21.317,-36.923 h 42.635 z m -36.923,63.953 36.923,-21.317 v 42.635 z m -63.953,-79.559 -21.318,-36.923 h 42.635 z m 0,0 h -42.636 l 21.318,-36.923 z m 0,0 21.317,-36.923 21.318,36.923 z m -21.318,36.924 -21.318,-36.924 h 42.636 z m 0,0 v 42.635 l -36.923,-21.317 z m 42.635,42.635 21.318,36.924 h -42.635 z m 0,0 -21.317,36.924 -21.318,-36.924 z m 0,0 h 42.636 l -21.318,36.924 z m 42.636,-42.635 36.923,-21.318 v 42.636 z m 0,0 36.923,21.318 -36.923,21.317 z m -42.636,0 -21.317,-36.924 h 42.635 z m 0,0 h -42.635 l 21.318,-36.924 z m 0,0 21.318,-36.924 21.318,36.924 z"
     style="opacity:1;fill-opacity:0;stroke:#000000;stroke-width:16;stroke-opacity:1;stop-opacity:1;stroke-miterlimit:4;stroke-dasharray:none"
     id="path2246" />
</svg>
