<?xml version="1.0" encoding="UTF-8" standalone="no"?>
<svg
   xmlns:dc="http://purl.org/dc/elements/1.1/"
   xmlns:cc="http://creativecommons.org/ns#"
   xmlns:rdf="http://www.w3.org/1999/02/22-rdf-syntax-ns#"
   xmlns:svg="http://www.w3.org/2000/svg"
   xmlns="http://www.w3.org/2000/svg"
   xmlns:sodipodi="http://sodipodi.sourceforge.net/DTD/sodipodi-0.dtd"
   xmlns:inkscape="http://www.inkscape.org/namespaces/inkscape"
   inkscape:version="1.0beta1 (32d4812, 2019-09-19)"
   sodipodi:docname="5-uniform_231.svg"
   id="c:\kuniform\5u\5-uniform_231.svg"
   height="978.98517"
   width="1000.0"
   version="1.0">
  <metadata
     id="metadata2510">
    <rdf:RDF>
      <cc:Work
         rdf:about="">
        <dc:format>image/svg+xml</dc:format>
        <dc:type
           rdf:resource="http://purl.org/dc/dcmitype/StillImage" />
        <dc:title></dc:title>
      </cc:Work>
    </rdf:RDF>
  </metadata>
  <defs
     id="defs2508" />
  <sodipodi:namedview
     inkscape:current-layer="c:\kuniform\5u\5-uniform_231.svg"
     inkscape:window-maximized="0"
     inkscape:window-y="23"
     inkscape:window-x="0"
     inkscape:cy="560"
     inkscape:cx="400"
     inkscape:zoom="0.35"
     showgrid="false"
     id="namedview2506"
     inkscape:window-height="907"
     inkscape:window-width="1678"
     inkscape:pageshadow="2"
     inkscape:pageopacity="0"
     guidetolerance="10"
     gridtolerance="10"
     objecttolerance="10"
     borderopacity="1"
     inkscape:document-rotation="0"
     bordercolor="#666666"
     pagecolor="#ffffff" />
  <!-- X Coordinate transform: fx(x)=(x+80.75)*0.86095566-->
  <!-- Y Coordinate transform: fy(y)=(1068.5457-y)*0.86095566 -->
  <path
     d="m 908.954,79.407 h 43.048 m -64.572,857.451 21.524,-37.28 M 4.95,825.017 26.474,787.736 M 91.046,899.578 69.522,862.297 m 774.86,74.561 -21.524,37.281 m -21.524,-37.281 h 43.048 m 86.096,-820.17 h 43.048 m -86.096,820.17 21.524,37.281 M 69.522,116.688 H 112.57 M 177.142,79.407 155.618,42.127 M 47.998,153.968 h 43.048 m 107.62,782.89 -21.524,37.281 m -64.572,-37.281 21.524,-37.28 m 107.619,37.28 21.524,37.281 M 952.002,825.017 930.478,787.736 m 21.524,-37.28 h 43.047 m -193.715,186.402 21.524,-37.28 m -43.047,0 21.523,37.28 21.524,37.281 m 129.144,-745.61 h 43.047 m -64.571,-37.28 21.524,-37.281 m 0,74.561 -21.524,-37.28 -21.524,-37.281 M 779.811,79.407 801.334,42.127 h 43.048 l 21.524,37.28 -21.524,37.281 M 672.191,42.127 h 43.048 m -43.048,0 21.524,-37.281 M 198.666,42.127 h 43.047 m -21.524,37.28 21.524,-37.28 M 47.998,899.578 26.474,862.297 4.95,825.017 M 155.618,116.688 177.142,79.407 198.666,42.127 220.189,4.846 M 47.998,228.529 H 91.046 M 69.522,265.81 91.046,228.529 112.57,191.249 M 26.474,414.932 4.95,377.651 m 21.524,335.524 21.524,-37.28 m 129.144,223.683 21.524,37.28 21.523,37.281 M 177.142,899.578 H 134.094 91.046 47.998 4.95 m 258.287,0 -21.524,37.28 -21.524,37.281 m 150.668,-37.281 -21.524,37.281 M 112.57,787.736 H 69.522 26.474 L 4.95,750.456 m 904.004,74.561 -21.524,-37.281 m 0,0 h 43.048 43.048 m 0,74.561 21.523,-37.28 -21.523,-37.281 -21.524,-37.28 -21.524,-37.281 m 21.524,-37.28 h 43.047 m -64.571,37.28 21.524,-37.28 21.524,-37.28 M 112.57,191.249 91.046,153.968 69.522,116.688 47.998,79.407 69.522,42.127 m 86.096,74.561 H 112.57 L 91.046,79.407 69.522,42.127 H 26.474 m 774.86,820.17 h 43.048 m -64.571,37.281 21.523,-37.281 21.524,-37.28 m 43.048,-671.049 h 43.048 43.048 L 973.526,116.688 952.002,79.407 930.478,42.127 952.002,4.846 M 887.43,191.249 865.906,153.968 m 43.048,-74.561 21.524,-37.28 h 43.048 m 0,372.805 -21.524,-37.281 m 0,0 h 43.047 M 801.334,116.688 779.811,79.407 m 21.523,37.281 h 43.048 M 693.715,79.407 715.239,42.127 m -172.191,0 21.524,-37.281 M 327.809,42.127 h 43.048 m -129.144,74.561 21.524,-37.281 m -193.715,111.842 21.524,-37.281 21.524,-37.28 21.524,-37.281 21.524,-37.28 h 43.048 l 21.523,37.28 21.524,37.281 M 69.522,340.371 H 26.474 M 91.046,303.09 112.57,265.81 M 91.046,303.09 69.522,265.81 47.998,228.529 m 365.906,708.329 -21.523,37.281 m 516.573,-74.561 21.524,37.28 21.524,37.281 M 26.474,936.858 4.95,899.578 26.474,862.297 h 43.048 43.048 m 430.478,74.561 21.524,37.281 M 500,936.858 h 43.048 43.048 m 279.81,-111.841 21.524,37.28 21.524,37.281 h 43.048 l 21.524,37.28 -21.524,37.281 M 47.998,526.773 26.474,489.493 M 69.522,414.932 H 26.474 m 0,298.243 -21.524,-37.28 21.524,-37.28 21.524,-37.281 m 0,0 L 26.474,564.054 4.95,526.773 26.474,489.493 M 91.046,675.895 H 47.998 4.95 m 301.335,223.683 21.524,37.28 m -64.572,-37.28 h 43.048 43.048 M 91.046,750.456 112.57,713.175 m 21.524,37.281 -21.524,-37.281 -21.524,-37.28 m 839.432,-37.28 21.524,-37.281 m -301.335,298.244 21.524,37.28 h 43.048 l 21.524,-37.28 -21.524,-37.281 m 64.572,-37.28 21.523,-37.281 m 0,0 21.524,37.281 21.524,37.28 h 43.048 l 21.524,-37.28 21.524,-37.281 21.524,-37.28 21.524,-37.281 m 21.523,-484.646 -21.523,-37.28 H 930.478 887.43 844.382 m 107.62,335.524 21.524,-37.28 m 0,74.561 -21.524,-37.281 M 930.478,414.932 h 43.048 M 607.619,79.407 629.143,42.127 607.619,4.846 m 64.572,111.842 h 43.048 M 564.572,79.407 543.048,42.127 m 21.524,37.28 h 43.047 M 284.761,116.688 306.285,79.407 327.809,42.127 349.333,4.846 M 69.522,414.932 91.046,377.651 m 0,0 -21.524,-37.28 M 134.094,303.09 112.57,265.81 91.046,228.529 69.522,191.249 47.998,153.968 69.522,116.688 91.046,79.407 m 495.05,857.451 21.523,-37.28 m -43.047,0 h 43.047 M 91.046,526.773 69.522,489.493 m 21.524,37.28 H 47.998 4.95 m 193.716,260.963 -21.524,37.281 21.524,37.28 h 43.047 m 86.096,0 h 43.048 m 0,0 -21.524,37.281 -21.524,37.28 21.524,37.281 M 177.142,750.456 155.618,713.175 m 21.524,37.281 H 134.094 91.046 l -21.524,37.28 21.524,37.281 21.524,37.28 21.524,37.281 21.524,37.28 m 753.336,-335.524 21.524,37.281 21.524,37.28 21.524,37.28 21.523,37.281 -21.523,37.28 -21.524,37.281 21.524,37.28 -21.524,37.281 -21.524,37.28 -21.524,37.281 M 736.763,825.017 h 43.048 43.047 43.048 43.048 43.048 43.047 m -322.858,37.28 h 43.048 m -64.572,37.281 21.524,-37.281 m 64.572,-37.28 21.524,-37.281 M 887.43,265.81 h 43.048 l 21.524,37.28 -21.524,37.281 H 887.43 M 865.906,303.09 887.43,265.81 m 0,74.561 -21.524,-37.281 m 43.048,149.122 -21.524,-37.28 M 693.715,153.968 715.239,116.688 736.763,79.407 715.239,42.127 693.715,4.846 m 64.572,186.403 21.524,-37.281 21.523,-37.28 21.524,-37.281 21.524,-37.28 m -64.571,186.402 h 43.047 43.048 l 21.524,-37.28 21.524,-37.281 21.524,-37.28 21.524,-37.281 21.524,-37.28 -21.524,-37.281 m -301.335,149.122 -21.524,-37.28 m -215.239,0 L 392.381,79.407 370.857,42.127 349.333,4.846 M 456.952,116.688 478.476,79.407 500,42.127 478.476,4.846 m -301.334,223.683 -21.524,-37.28 21.524,-37.281 h 43.047 l 21.524,37.281 M 134.094,79.407 h 43.048 43.047 43.048 43.048 l 21.524,37.281 21.524,37.28 m -172.191,74.561 h 43.047 m 0,0 21.524,-37.28 M 478.476,899.578 500,862.297 m 86.096,0 -21.524,37.281 -21.524,37.28 -21.524,37.281 M 112.57,489.493 91.046,452.212 69.522,414.932 47.998,377.651 26.474,340.371 m 215.239,521.926 21.524,-37.28 -21.524,-37.281 m -43.047,0 h 43.047 M 91.046,825.017 h 43.048 43.048 43.047 43.048 43.048 43.048 M 4.95,750.456 26.474,713.175 h 43.048 43.048 43.048 43.048 m 602.668,0 21.524,37.281 h 43.048 l 21.524,-37.281 -21.524,-37.28 m -43.048,0 h 43.048 m -64.572,37.28 21.524,-37.28 m 43.048,-74.561 21.524,-37.28 m -172.191,223.682 21.524,-37.28 M 865.906,452.212 h 43.048 43.048 l 21.524,-37.28 21.523,-37.281 M 865.906,526.773 h 43.048 43.048 43.047 M 844.382,414.932 865.906,377.651 m -21.524,186.403 21.524,37.28 21.524,37.281 h 43.048 43.048 M 629.143,116.688 h 43.048 l 21.524,37.28 21.524,37.281 m 43.048,74.561 21.524,-37.281 21.523,-37.28 m 21.524,37.28 -21.524,-37.28 -21.523,-37.281 h -43.048 -43.048 -43.048 -43.048 m -86.095,0 21.524,-37.28 21.524,-37.281 21.524,-37.28 21.523,-37.281 M 306.285,153.968 h 43.048 43.048 m 86.095,0 21.524,-37.28 m -21.524,37.28 -21.524,-37.28 -21.524,-37.281 m -150.667,111.842 21.524,-37.281 21.524,-37.28 m -43.048,74.561 h 43.048 M 177.142,377.651 H 134.094 91.046 47.998 4.95 M 198.666,340.371 177.142,303.09 155.618,265.81 H 112.57 69.522 26.474 M 500,862.297 478.476,825.017 h -43.048 l -21.524,37.28 21.524,37.281 h 43.048 m 86.096,-74.561 h 43.047 43.048 M 155.618,564.054 H 112.57 l -21.524,37.28 21.524,37.281 h 43.048 m -86.096,74.56 -21.524,-37.28 -21.524,-37.28 -21.524,-37.281 21.524,-37.28 21.524,-37.281 21.524,-37.28 21.524,-37.281 h 43.048 43.048 m -21.524,186.403 21.524,-37.281 m 0,0 -21.524,-37.28 m 172.191,223.682 h 43.048 m -150.668,-111.841 -21.523,37.28 -21.524,37.281 21.524,37.28 21.523,37.281 21.524,37.28 21.524,37.281 21.524,37.28 m -43.048,-223.683 -21.524,-37.28 m 452.002,260.963 21.524,-37.28 21.524,-37.281 21.524,-37.28 -21.524,-37.281 -21.524,-37.28 m -43.048,74.561 -21.524,-37.281 m 86.096,-74.561 h 43.048 m -172.191,74.561 -21.524,37.281 -21.524,37.28 21.524,37.281 21.524,37.28 -21.524,37.281 M 779.811,303.09 h 43.047 43.048 43.048 43.048 m -107.62,186.403 h 43.048 m -43.048,0 21.524,-37.281 21.524,-37.28 -21.524,-37.281 m -64.572,37.281 21.524,-37.281 m 0,223.683 -21.524,-37.28 m 0,0 h 43.048 43.048 l 21.524,-37.281 -21.524,-37.28 -21.524,-37.281 -21.524,-37.28 -21.524,-37.281 -21.524,-37.28 -21.523,-37.281 -21.524,-37.28 M 586.096,191.249 564.572,153.968 m -21.524,37.281 21.524,-37.281 -21.524,-37.28 H 500 456.952 413.904 370.857 m -64.572,111.841 21.524,-37.28 21.524,-37.281 21.524,-37.28 21.524,-37.281 h 43.047 43.048 M 349.333,228.529 327.809,191.249 306.285,153.968 284.761,116.688 263.237,79.407 241.713,42.127 220.189,4.846 m 43.048,298.244 -21.524,-37.28 -21.524,-37.281 -21.523,-37.28 -21.524,-37.281 -21.524,-37.28 -21.524,-37.281 H 91.046 47.998 L 26.474,42.127 m 129.144,447.366 21.524,-37.281 21.524,-37.28 m 43.047,-74.561 -21.524,-37.281 m -64.571,37.281 h 43.048 43.047 m -64.571,186.402 -21.524,-37.28 -21.524,-37.281 m 43.048,74.561 21.524,-37.28 m 193.715,484.646 -21.524,-37.281 -21.524,-37.28 -21.524,-37.281 -21.524,-37.28 21.524,-37.281 21.524,-37.28 m -172.191,223.683 -21.524,-37.281 21.524,-37.28 21.524,-37.281 21.523,-37.28 21.524,-37.281 21.524,-37.28 21.524,-37.281 m 129.143,74.561 -21.523,-37.28 m -365.907,186.402 21.524,-37.28 21.524,-37.281 21.524,-37.28 21.524,-37.281 21.524,-37.28 21.524,-37.281 21.524,-37.28 h 43.047 43.048 m 452.002,260.963 -21.524,-37.28 -21.524,-37.281 -21.524,-37.28 21.524,-37.281 21.524,-37.28 21.524,-37.281 21.524,-37.28 m -86.096,74.561 h 43.048 43.048 l 21.524,-37.281 m -64.572,-37.28 21.524,37.28 21.524,37.281 21.524,37.28 21.524,37.281 21.523,37.28 21.524,37.281 21.524,37.28 h 43.048 43.048 43.048 m -430.478,-149.122 21.524,-37.28 m 43.047,74.561 -21.523,-37.281 -21.524,-37.28 m 215.239,-372.805 21.523,-37.28 m 0,74.561 -21.523,-37.281 -21.524,-37.28 M 693.715,303.09 715.239,265.81 693.715,228.529 H 650.667 L 629.143,265.81 M 521.524,228.529 h 43.048 M 284.761,265.81 h 43.048 m -21.524,37.28 21.524,-37.28 21.524,-37.281 m 172.191,521.927 21.524,37.28 21.524,37.281 21.524,37.28 21.523,37.281 h 43.048 43.048 43.048 43.048 43.047 l 21.524,-37.281 21.524,-37.28 21.524,-37.281 -21.524,-37.28 -21.524,-37.281 -21.524,-37.28 -21.524,-37.28 -21.523,-37.281 m -559.622,-74.561 -21.523,-37.28 -21.524,-37.281 -21.524,-37.28 -21.524,-37.281 21.524,-37.28 21.524,-37.281 m 64.571,186.403 H 198.666 155.618 112.57 69.522 26.474 L 4.95,452.212 M 263.237,601.334 H 220.189 177.142 134.094 91.046 47.998 4.95 m 301.335,149.122 21.524,-37.281 m 0,0 21.524,37.281 21.524,37.28 h 43.047 m 0,-74.561 -21.523,37.281 -21.524,37.28 -21.524,37.281 -21.524,37.28 -21.524,37.281 -21.524,37.28 -21.524,37.281 M 241.713,638.615 h 43.048 m 150.667,111.841 h -43.047 -43.048 -43.048 -43.048 l -21.524,-37.281 21.524,-37.28 21.524,-37.28 m 430.478,0 h 43.048 m -64.572,37.28 21.524,-37.28 21.524,-37.281 m 0,-223.683 -21.524,-37.28 m 0,0 h 43.048 43.047 l 21.524,-37.281 -21.524,-37.28 -21.523,-37.281 -21.524,-37.28 -21.524,-37.281 m 0,372.805 h 43.048 l 21.523,-37.28 -21.523,-37.281 H 736.763 M 650.667,303.09 629.143,265.81 m 21.524,37.28 h 43.048 M 543.048,265.81 h 43.048 43.047 43.048 43.048 43.048 43.047 m -387.43,0 h 43.048 m 0,0 21.524,-37.281 -21.524,-37.28 h -43.048 l -21.523,37.28 21.523,37.281 m -86.095,74.561 21.524,-37.281 m -21.524,37.281 -21.524,-37.281 -21.524,-37.28 h -43.048 l -21.524,37.28 -21.523,37.281 -21.524,37.28 -21.524,37.281 m 322.858,335.524 -21.524,-37.281 m -43.048,0 H 456.952 500 M 241.713,564.054 263.237,526.773 m 21.524,37.281 -21.524,-37.281 -21.524,-37.28 m 452.002,111.841 21.524,-37.28 m 0,-372.805 h 43.048 43.047 43.048 l 21.524,37.28 21.524,37.281 21.524,37.28 21.524,37.281 21.524,37.28 -21.524,37.281 -21.524,37.28 -21.524,37.281 -21.524,37.28 -21.524,37.281 -21.524,37.28 -21.524,37.281 h -43.047 l -21.524,-37.281 -21.524,-37.28 m -86.096,74.561 21.524,37.28 -21.524,37.28 h -43.047 l -21.524,-37.28 M 693.715,377.651 h 43.048 43.048 43.047 43.048 l 21.524,-37.28 21.524,-37.281 21.524,-37.28 21.524,-37.281 21.524,-37.28 -21.524,-37.281 -21.524,-37.28 -21.524,-37.281 h -43.048 -43.048 -43.047 -43.048 -43.048 l -21.524,37.281 -21.524,37.28 -21.524,37.281 h -43.047 -43.048 l -21.524,37.28 m 193.715,260.964 21.524,-37.281 M 521.524,303.09 h 43.048 M 26.474,265.81 47.998,228.529 69.522,191.249 h 43.048 43.048 43.048 43.047 43.048 l 21.524,37.28 21.524,37.281 21.524,37.28 21.524,37.281 m -64.572,111.841 21.524,-37.28 m 0,0 -21.524,-37.281 h -43.048 l -21.524,37.281 21.524,37.28 h 43.048 m 172.191,223.683 h 43.048 M 672.191,787.736 H 629.143 586.096 543.048 500 L 478.476,750.456 500,713.175 521.524,675.895 M 327.809,564.054 306.285,526.773 m 21.524,37.281 h -43.048 -43.048 l -21.524,37.28 21.524,37.281 21.524,37.28 21.524,37.28 21.524,37.281 21.524,37.28 21.524,37.281 21.524,37.28 h 43.047 43.048 43.048 43.048 43.048 l 21.523,-37.28 21.524,-37.281 21.524,-37.28 m 301.335,-149.122 21.524,37.281 21.523,37.28 -21.523,37.28 H 930.478 887.43 844.382 801.334 758.287 l -21.524,-37.28 -21.524,-37.28 -21.524,-37.281 -21.524,-37.28 m -86.095,74.561 h 43.047 m -64.571,37.28 21.524,-37.28 M 672.191,414.932 650.667,377.651 M 543.048,340.371 564.572,303.09 586.096,265.81 564.572,228.529 543.048,191.249 521.524,153.968 500,116.688 478.476,79.407 456.952,42.127 478.476,4.846 m 129.143,372.805 21.524,-37.28 21.524,-37.281 21.524,-37.28 21.524,-37.281 21.524,-37.28 21.524,-37.281 -21.524,-37.28 -21.524,-37.281 -21.524,-37.28 H 629.143 586.096 543.048 500 456.952 l -21.524,37.28 -21.524,37.281 -21.523,37.28 M 500,340.371 478.476,303.09 m -86.095,74.561 21.523,-37.28 m 21.524,37.28 -21.524,-37.28 -21.523,-37.281 H 349.333 306.285 263.237 220.189 177.142 134.094 91.046 L 69.522,340.371 47.998,377.651 26.474,414.932 4.95,452.212 M 521.524,974.139 500,936.858 l -21.524,-37.28 -21.524,-37.281 -21.524,-37.28 -21.524,-37.281 21.524,-37.28 21.524,-37.281 21.524,-37.28 21.524,-37.28 m -86.096,0 -21.523,-37.281 m 21.523,37.281 -21.523,37.28 h -43.048 l -21.524,-37.28 21.524,-37.281 h 43.048 m 236.762,-37.28 21.524,-37.281 M 629.143,414.932 h 43.048 43.048 l 21.524,-37.281 21.524,-37.28 21.524,-37.281 21.523,-37.28 21.524,-37.281 21.524,-37.28 21.524,-37.281 -21.524,-37.28 -21.524,-37.281 -21.524,-37.28 m -236.762,335.524 21.524,-37.28 m -21.524,37.28 -21.524,-37.28 -21.524,-37.281 h -43.048 m -107.619,111.842 21.524,-37.281 h 43.047 43.048 m 0,0 21.524,-37.28 21.524,-37.281 21.524,-37.28 21.524,-37.281 21.524,-37.28 21.523,-37.281 21.524,-37.28 L 607.619,79.407 586.096,42.127 564.572,4.846 M 370.857,414.932 h 43.047 m -215.238,0 -21.524,-37.281 -21.524,-37.28 -21.524,-37.281 21.524,-37.28 21.524,-37.281 21.524,-37.28 21.523,-37.281 21.524,-37.28 h 43.048 43.048 43.048 l 21.524,37.28 21.523,37.281 21.524,37.28 21.524,37.281 21.524,37.28 -21.524,37.281 -21.524,37.28 -21.524,37.281 -21.523,37.28 m 86.095,149.122 h 43.048 M 370.857,489.493 h 43.047 m 322.859,37.28 21.524,-37.28 21.524,-37.281 21.523,-37.28 h 43.048 43.048 43.048 l 21.524,37.28 21.524,37.281 21.523,37.28 -21.523,37.281 -21.524,37.28 h -43.048 -43.048 -43.048 -43.047 -43.048 -43.048 -43.048 l -21.524,-37.28 -21.524,-37.281 m 107.62,-37.28 h 43.048 43.047 43.048 l 21.524,37.28 21.524,37.281 21.524,37.28 -21.524,37.281 -21.524,37.28 -21.524,37.28 -21.524,37.281 -21.524,37.28 h -43.047 -43.048 -43.048 l -21.524,-37.28 -21.524,-37.281 -21.524,-37.28 -21.523,-37.28 -21.524,-37.281 -21.524,-37.28 m 64.571,-111.842 h 43.048 m -43.048,0 21.524,-37.28 21.524,-37.281 -21.524,-37.28 H 586.096 543.048 500 456.952 m -64.571,186.402 21.523,-37.28 21.524,-37.281 M 413.904,564.054 H 456.952 500 m -86.096,0 21.524,-37.281 m 21.524,37.281 -21.524,-37.281 -21.524,-37.28 -21.523,-37.281 -21.524,-37.28 h -43.048 -43.048 -43.048 -43.047 -43.048 l -21.524,37.28 -21.524,37.281 -21.524,37.28 21.524,37.281 21.524,37.28 21.524,37.281 21.524,37.28 21.524,37.28 h 43.047 43.048 43.048 l 21.524,-37.28 21.524,-37.28 21.524,-37.281 21.523,-37.28 -21.523,-37.281 -21.524,-37.28 h -43.048 l -21.524,37.28 -21.524,37.281 -21.524,37.28 -21.524,37.281 -21.524,37.28 M 564.572,526.773 h 43.047 43.048 l 21.524,-37.28 -21.524,-37.281 -21.524,-37.28 -21.524,-37.281 -21.523,-37.28 -21.524,-37.281 -21.524,-37.28 -21.524,-37.281 h -43.048 -43.048 -43.047 -43.048 -43.048 l -21.524,37.281 -21.524,37.28 -21.524,37.281 21.524,37.28 21.524,37.281 21.524,37.28 21.524,37.281 21.524,37.28 M 521.524,452.212 500,414.932 478.476,377.651 456.952,340.371 h -43.048 -43.047 -43.048 l -21.524,37.28 -21.524,37.281 -21.524,37.28 -21.524,37.281 -21.524,37.28 21.524,37.281 21.524,37.28 21.524,37.281 h 43.048 43.048 43.047 43.048 H 500 l 21.524,-37.281 21.524,-37.28 21.524,-37.281 m -86.096,-74.561 h 43.048 43.048 m -129.144,0 -21.524,-37.28 -21.523,-37.281 -21.524,-37.28 21.524,-37.281 21.523,-37.28 21.524,-37.281 21.524,-37.28 21.524,-37.281 h 43.048 43.048 43.047 l 21.524,37.281 21.524,37.28 21.524,37.281 21.524,37.28 21.524,37.281 -21.524,37.28 -21.524,37.281 -21.524,37.28 -21.524,37.281 -21.524,37.28 -21.523,37.281 -21.524,37.28 H 521.524 L 500,564.054 478.476,526.773 m 107.62,37.281 H 543.048 500 l -21.524,37.28 -21.524,37.281 21.524,37.28 21.524,37.28 21.524,37.281 -21.524,37.28 -21.524,37.281 -21.524,37.28 -21.524,37.281 -21.524,37.28 H 370.857 327.809 284.761 241.713 198.666 155.618 112.57 l -21.524,-37.28 21.524,-37.281 21.524,-37.28 -21.524,-37.281 -21.524,-37.28 -21.524,-37.281 21.524,-37.28 21.524,-37.28 21.524,-37.281 21.524,-37.28 21.524,-37.281 h 43.047 43.048 43.048 43.048 43.048 43.047 43.048 m 64.572,-37.28 21.524,-37.281 -21.524,-37.28 H 500 l -21.524,37.28 M 500,489.493 521.524,452.212 M 500,489.493 478.476,452.212 h -43.048 -43.047 l -21.524,37.281 -21.524,37.28 -21.524,37.281 21.524,37.28 21.524,37.281 21.524,37.28 21.523,37.28 21.524,37.281 h 43.048 43.048 43.048 l 21.524,-37.281 21.523,-37.28 21.524,-37.28 21.524,-37.281 21.524,-37.28 -21.524,-37.281 -21.524,-37.28 m -64.571,-37.281 h 43.047 l 21.524,37.281 h 43.048 43.048 l 21.524,37.28 -21.524,37.281 h -43.048 -43.048 -43.047 l -21.524,-37.281 -21.524,-37.28 H 500 l -21.524,37.28 -21.524,37.281 21.524,37.28 21.524,37.281 21.524,37.28 h 43.048 43.047 43.048 43.048 43.048 l 21.524,-37.28 21.524,-37.281 21.523,-37.28 -21.523,-37.281 -21.524,-37.28 -21.524,-37.281 -21.524,-37.28 -21.524,-37.281 h -43.048 -43.048 -43.047 l -21.524,37.281 -21.524,37.28 21.524,37.281 m 408.954,410.085 h -43.048 l -21.524,-37.281 21.524,-37.28 h 43.048 l 21.524,37.28 z m -64.572,37.28 h -43.048 l -21.524,-37.28 21.524,-37.281 h 43.048 l 21.524,37.281 z M 26.474,862.297 4.95,825.017 26.474,787.736 h 43.048 l 21.524,37.281 -21.524,37.28 z m 0,-74.561 -21.524,-37.28 21.524,-37.281 h 43.048 l 21.524,37.281 -21.524,37.28 z m 882.48,-708.329 21.524,37.281 -21.524,37.28 h -43.048 l -21.524,-37.28 21.524,-37.281 z M 112.57,116.688 h 43.048 l 21.524,37.28 -21.524,37.281 H 112.57 L 91.046,153.968 Z m 86.096,820.17 -21.524,-37.28 21.524,-37.281 h 43.047 l 21.524,37.281 -21.524,37.28 z m -64.572,-37.28 -21.524,-37.281 21.524,-37.28 h 43.048 l 21.524,37.28 -21.524,37.281 z M 930.478,787.736 H 887.43 l -21.524,-37.28 21.524,-37.281 h 43.048 l 21.524,37.281 z M 952.002,228.529 930.478,265.81 H 887.43 l -21.524,-37.281 21.524,-37.28 h 43.048 z m -107.62,-111.841 21.524,37.28 -21.524,37.281 h -43.048 l -21.523,-37.281 21.523,-37.28 z M 177.142,79.407 h 43.047 l 21.524,37.281 -21.524,37.28 h -43.047 l -21.524,-37.28 z M 112.57,191.249 h 43.048 l 21.524,37.28 -21.524,37.281 H 112.57 L 91.046,228.529 Z M 500,489.493 h 43.048 l 21.524,37.28 -21.524,37.281 H 500 L 478.476,526.773 Z M 26.474,414.932 h 43.048 l 21.524,37.28 -21.524,37.281 H 26.474 L 4.95,452.212 Z m 0,223.683 21.524,-37.281 h 43.048 l 21.524,37.281 -21.524,37.28 H 47.998 Z m 107.62,186.402 -21.524,-37.281 21.524,-37.28 h 43.048 l 21.524,37.28 -21.524,37.281 z m 731.812,0 h -43.048 l -21.524,-37.281 21.524,-37.28 h 43.048 l 21.524,37.28 z M 930.478,713.175 H 887.43 l -21.524,-37.28 21.524,-37.28 h 43.048 l 21.524,37.28 z M 779.811,899.578 h -43.048 l -21.524,-37.281 21.524,-37.28 h 43.048 l 21.523,37.28 z m 193.715,-335.524 -21.524,37.28 h -43.048 l -21.524,-37.28 21.524,-37.281 h 43.048 z M 779.811,79.407 l 21.523,37.281 -21.523,37.28 h -43.048 l -21.524,-37.28 21.524,-37.281 z m -107.62,-37.28 21.524,37.28 -21.524,37.281 h -43.048 l -21.524,-37.281 21.524,-37.28 z m -344.382,0 h 43.048 l 21.524,37.28 -21.524,37.281 H 327.809 L 306.285,79.407 Z m 215.239,0 21.524,37.28 -21.524,37.281 H 500 L 478.476,79.407 500,42.127 Z M 69.522,340.371 91.046,303.09 h 43.048 l 21.524,37.281 -21.524,37.28 H 91.046 Z m 301.335,596.487 -21.524,-37.28 21.524,-37.281 h 43.047 l 21.524,37.281 -21.524,37.28 z m 129.143,0 -21.524,-37.28 L 500,862.297 h 43.048 l 21.524,37.281 -21.524,37.28 z M 26.474,564.054 47.998,526.773 h 43.048 l 21.524,37.281 -21.524,37.28 H 47.998 Z m 236.763,335.524 -21.524,-37.281 21.524,-37.28 h 43.048 l 21.524,37.28 -21.524,37.281 z M 91.046,675.895 112.57,638.615 h 43.048 l 21.524,37.28 -21.524,37.28 H 112.57 Z m 559.621,223.683 h -43.048 l -21.523,-37.281 21.523,-37.28 h 43.048 l 21.524,37.28 z M 952.002,377.651 930.478,414.932 H 887.43 l -21.524,-37.281 21.524,-37.28 h 43.048 z M 887.43,265.81 865.906,303.09 h -43.048 l -21.524,-37.28 21.524,-37.281 h 43.048 z m 86.096,223.683 -21.524,37.28 h -43.048 l -21.524,-37.28 21.524,-37.281 h 43.048 z M 607.619,79.407 l 21.524,37.281 -21.524,37.28 h -43.047 l -21.524,-37.28 21.524,-37.281 z m -365.906,37.281 h 43.048 l 21.524,37.28 -21.524,37.281 H 241.713 L 220.189,153.968 Z M 69.522,414.932 91.046,377.651 h 43.048 l 21.524,37.281 -21.524,37.28 H 91.046 Z m 107.62,-186.403 h 43.047 l 21.524,37.281 -21.524,37.28 h -43.047 l -21.524,-37.28 z m 21.524,559.207 -21.524,-37.28 21.524,-37.281 h 43.047 l 21.524,37.281 -21.524,37.28 z m 602.668,0 h -43.047 l -21.524,-37.28 21.524,-37.281 h 43.047 l 21.524,37.281 z m 64.572,-111.841 h -43.048 l -21.524,-37.28 21.524,-37.281 h 43.048 l 21.524,37.281 z M 715.239,862.297 h -43.048 l -21.524,-37.28 21.524,-37.281 h 43.048 l 21.524,37.281 z m 86.095,-521.926 21.524,-37.281 h 43.048 l 21.524,37.281 -21.524,37.28 h -43.048 z m -150.667,-111.842 -21.524,-37.28 21.524,-37.281 h 43.048 l 21.524,37.281 -21.524,37.28 z m 64.572,37.281 -21.524,-37.281 21.524,-37.28 h 43.048 l 21.524,37.28 -21.524,37.281 z M 456.952,191.249 h -43.048 l -21.523,-37.281 21.523,-37.28 h 43.048 l 21.524,37.28 z M 284.761,265.81 h -43.048 l -21.524,-37.281 21.524,-37.28 h 43.048 l 21.524,37.28 z m 107.62,-37.281 h -43.048 l -21.524,-37.28 21.524,-37.281 h 43.048 l 21.523,37.281 z m 21.523,559.207 21.524,37.281 -21.524,37.28 h -43.047 l -21.524,-37.28 21.524,-37.281 z m 129.144,0 21.524,37.281 -21.524,37.28 H 500 L 478.476,825.017 500,787.736 Z M 177.142,526.773 155.618,564.054 H 112.57 l -21.524,-37.281 21.524,-37.28 h 43.048 z m 129.143,223.683 21.524,37.28 -21.524,37.281 h -43.048 l -21.524,-37.281 21.524,-37.28 z m -64.572,-111.841 -21.524,37.28 h -43.047 l -21.524,-37.28 21.524,-37.281 h 43.047 z m 495.05,37.28 21.524,-37.28 h 43.047 l 21.524,37.28 -21.524,37.28 h -43.047 z m 64.571,-260.963 h 43.048 l 21.524,37.28 -21.524,37.281 h -43.048 l -21.523,-37.281 z m 0,149.122 -21.523,-37.281 21.523,-37.28 h 43.048 l 21.524,37.28 -21.524,37.281 z M 456.952,191.249 478.476,153.968 h 43.048 l 21.524,37.281 -21.524,37.28 h -43.048 z m -215.239,149.122 21.524,37.28 -21.524,37.281 h -43.047 l -21.524,-37.281 21.524,-37.28 z M 500,787.736 478.476,825.017 h -43.048 l -21.524,-37.281 21.524,-37.28 h 43.048 z M 220.189,601.334 h -43.047 l -21.524,-37.28 21.524,-37.281 h 43.047 l 21.524,37.281 z m -21.523,-111.841 -21.524,-37.281 21.524,-37.28 h 43.047 l 21.524,37.28 -21.524,37.281 z m 452.001,260.963 -21.524,-37.281 21.524,-37.28 h 43.048 l 21.524,37.28 -21.524,37.281 z m 0,0 -21.524,37.28 h -43.047 l -21.524,-37.28 21.524,-37.281 h 43.047 z M 715.239,265.81 h 43.048 l 21.524,37.28 -21.524,37.281 H 715.239 L 693.715,303.09 Z M 586.096,191.249 h 43.047 l 21.524,37.28 -21.524,37.281 H 586.096 L 564.572,228.529 Z M 241.713,340.371 263.237,303.09 h 43.048 l 21.524,37.281 -21.524,37.28 h -43.048 z m 150.668,-111.842 21.523,37.281 -21.523,37.28 h -43.048 l -21.524,-37.28 21.524,-37.281 z m 0,521.927 h -43.048 l -21.524,-37.281 21.524,-37.28 h 43.048 l 21.523,37.28 z m -107.62,-37.281 -21.524,-37.28 21.524,-37.28 h 43.048 l 21.524,37.28 -21.524,37.28 z m 495.05,-111.841 h -43.048 l -21.524,-37.28 21.524,-37.281 h 43.048 l 21.523,37.281 z m 21.523,-186.402 -21.523,37.28 h -43.048 l -21.524,-37.28 21.524,-37.281 h 43.048 z M 478.476,303.09 456.952,265.81 478.476,228.529 h 43.048 l 21.524,37.281 -21.524,37.28 z m 86.096,447.366 H 521.524 L 500,713.175 l 21.524,-37.28 h 43.048 l 21.524,37.28 z M 349.333,601.334 327.809,638.615 h -43.048 l -21.524,-37.281 21.524,-37.28 h 43.048 z m -21.524,-111.841 -21.524,37.28 h -43.048 l -21.524,-37.28 21.524,-37.281 h 43.048 z m 365.906,186.402 h -43.048 l -21.524,-37.28 21.524,-37.281 h 43.048 l 21.524,37.281 z m -43.048,-298.244 -21.524,-37.28 21.524,-37.281 h 43.048 l 21.524,37.281 -21.524,37.28 z m -64.571,-37.28 -21.524,-37.281 21.524,-37.28 h 43.047 l 21.524,37.28 -21.524,37.281 z m -129.144,0 h -43.048 l -21.523,-37.281 21.523,-37.28 h 43.048 l 21.524,37.28 z m -86.095,74.561 h -43.048 l -21.524,-37.281 21.524,-37.28 h 43.048 l 21.524,37.28 z m 86.095,223.683 21.524,37.28 -21.524,37.28 h -43.048 l -21.523,-37.28 21.523,-37.28 z m 193.715,-111.842 21.524,-37.28 h 43.048 l 21.524,37.28 -21.524,37.281 h -43.048 z m 0,-74.561 21.524,-37.28 h 43.048 l 21.524,37.28 -21.524,37.281 h -43.048 z m -258.286,0 -21.524,37.281 h -43.048 l -21.524,-37.281 21.524,-37.28 h 43.048 z m 129.143,149.122 h 43.048 l 21.524,37.281 -21.524,37.28 H 521.524 L 500,638.615 Z m -107.62,-37.28 -21.523,37.28 h -43.048 l -21.524,-37.28 21.524,-37.281 h 43.048 z m 172.192,0 h 43.047 l 21.524,37.28 -21.524,37.281 H 586.096 L 564.572,601.334 Z M 500,414.932 478.476,377.651 500,340.371 h 43.048 l 21.524,37.28 -21.524,37.281 z m -43.048,149.122 21.524,37.28 -21.524,37.281 h -43.048 l -21.523,-37.281 21.523,-37.28 z m 107.62,-111.842 -21.524,-37.28 21.524,-37.281 h 43.047 l 21.524,37.281 -21.524,37.28 z m -86.096,0 h -43.048 l -21.524,-37.28 21.524,-37.281 h 43.048 L 500,414.932 Z m 64.572,37.281 21.524,-37.281 h 43.047 l 21.524,37.281 -21.524,37.28 h -43.047 z m -43.048,0 -21.524,37.28 h -43.048 l -21.524,-37.28 21.524,-37.281 h 43.048 z M 47.998,79.407 h 43.048 l -21.524,37.281 z m 882.48,-37.28 21.524,37.28 h -43.048 z m -882.48,857.451 21.524,-37.281 21.524,37.281 z m 947.051,-74.561 h -43.047 l 21.524,-37.281 z m -150.667,111.841 -21.524,37.281 -21.524,-37.281 z m 107.62,-857.451 21.524,37.281 h -43.048 z m 0,0 -21.524,37.281 -21.524,-37.281 z m 21.524,37.281 -21.524,37.28 -21.524,-37.28 z m -43.048,820.17 H 887.43 l 21.524,-37.28 z M 91.046,79.407 h 43.048 l -21.524,37.281 z m 0,0 21.524,37.281 H 69.522 Z m 64.572,-37.28 h 43.048 l -21.524,37.28 z m 0,0 21.524,37.28 h -43.048 z m -86.096,74.561 21.524,37.28 H 47.998 Z m 0,0 h 43.048 l -21.524,37.28 z m -21.524,37.28 h 43.048 l -21.524,37.281 z m 925.528,708.329 -21.524,-37.28 h 43.047 z m -817.908,74.561 h 43.048 l -21.524,37.281 z m -43.048,0 -21.524,-37.28 h 43.048 z m 0,0 21.524,-37.28 21.524,37.28 z M 91.046,899.578 69.522,862.297 h 43.048 z m 0,0 21.524,-37.281 21.524,37.281 z m 107.62,37.28 h 43.047 l -21.524,37.281 z m -129.144,-74.561 21.524,-37.28 21.524,37.28 z m 882.48,-37.28 h -43.048 l 21.524,-37.281 z m 0,0 -21.524,-37.281 h 43.048 z m 21.524,-37.281 -21.524,-37.28 h 43.047 z m 0,0 h -43.048 l 21.524,-37.28 z m 21.523,-37.28 h -43.047 l 21.524,-37.281 z M 844.382,936.858 h -43.048 l 21.524,-37.28 z m -43.048,0 -21.523,-37.28 h 43.047 z m 86.096,-74.561 h -43.048 l 21.524,-37.28 z m 0,0 -21.524,-37.28 h 43.048 z m 86.096,-671.048 21.523,37.28 h -43.047 z m -43.048,-74.561 21.524,37.28 h -43.048 z m 43.048,74.561 h -43.048 l 21.524,-37.281 z m -21.524,-37.281 -21.524,37.281 -21.524,-37.281 z m 21.524,37.281 -21.524,37.28 -21.524,-37.28 z M 844.382,42.127 822.858,79.407 801.334,42.127 Z m 0,0 21.524,37.28 h -43.048 z m -43.048,0 21.524,37.28 h -43.047 z m 64.572,37.28 -21.524,37.281 -21.524,-37.281 z M 715.239,42.127 H 672.191 L 693.715,4.846 Z m -516.573,0 21.523,-37.281 21.524,37.281 z m 0,0 h 43.047 l -21.524,37.28 z m 0,0 21.523,37.28 H 177.142 Z M 47.998,899.578 26.474,862.297 h 43.048 z m 86.096,-820.171 21.524,37.281 H 112.57 Z m 0,0 h 43.048 l -21.524,37.281 z m -43.048,74.561 21.524,37.281 H 69.522 Z m -21.524,37.281 21.524,37.28 H 47.998 Z m 0,0 h 43.048 l -21.524,37.28 z m -21.524,37.28 H 91.046 L 69.522,265.81 Z m 0,0 21.524,37.281 H 26.474 Z M 4.95,899.578 26.474,862.297 47.998,899.578 Z m 0,-223.683 h 43.048 l -21.524,37.28 z m 0,0 21.524,-37.28 21.524,37.28 z m 150.668,260.963 21.524,-37.28 21.524,37.28 z m 0,0 -21.524,-37.28 h 43.048 z M 112.57,862.297 91.046,825.017 h 43.048 z m 129.143,74.561 h 43.048 l -21.524,37.281 z m 0,0 21.524,-37.28 21.524,37.28 z m 86.096,0 h 43.048 l -21.524,37.281 z M 26.474,713.175 l 21.524,-37.28 21.524,37.28 z m 43.048,74.561 21.524,-37.28 21.524,37.28 z m 0,0 h 43.048 l -21.524,37.281 z m 21.524,37.281 21.524,-37.281 21.524,37.281 z m 817.908,0 -21.524,-37.281 h 43.048 z m 0,0 h -43.048 l 21.524,-37.281 z m 43.048,-74.561 -21.524,-37.281 h 43.048 z m 21.524,-37.281 -21.524,-37.28 h 43.047 z m 21.523,-37.28 h -43.047 l 21.524,-37.28 z m -21.523,37.28 h -43.048 l 21.524,-37.28 z M 69.522,42.127 91.046,79.407 H 47.998 Z m 0,0 -21.524,37.28 -21.524,-37.28 z m 753.336,857.451 -21.524,-37.281 h 43.048 z m 0,0 h -43.047 l 21.523,-37.281 z m 21.524,-37.281 h -43.048 l 21.524,-37.28 z m 0,0 -21.524,-37.28 h 43.048 z m 64.572,-708.329 -21.524,37.281 -21.524,-37.281 z m 0,0 21.524,37.281 H 887.43 Z m 64.572,-111.841 -21.524,37.28 -21.524,-37.28 z m 0,0 H 930.478 L 952.002,4.846 Z m 0,372.805 -21.524,-37.281 h 43.047 z M 822.858,79.407 801.334,116.688 779.811,79.407 Z m 0,0 21.524,37.281 h -43.048 z m -107.619,-37.28 21.524,37.28 h -43.048 z m 0,0 -21.524,37.28 -21.524,-37.28 z m -86.096,0 H 586.096 L 607.619,4.846 Z m -43.047,0 H 543.048 L 564.572,4.846 Z m -258.287,0 21.524,-37.281 21.524,37.281 z m 602.669,894.731 -21.524,-37.28 h 43.048 z M 500,42.127 H 456.952 L 478.476,4.846 Z M 930.478,936.858 908.954,974.139 887.43,936.858 Z M 241.713,42.127 l 21.524,37.28 h -43.048 z m -21.524,37.28 h 43.048 l -21.524,37.281 z M 26.474,414.932 4.95,377.651 H 47.998 Z M 47.998,377.651 26.474,340.371 H 69.522 Z M 91.046,228.529 112.57,265.81 H 69.522 Z M 69.522,265.81 h 43.048 l -21.524,37.28 z m 904.004,671.048 h -43.048 l 21.524,-37.28 z m -602.669,0 h 43.047 l -21.523,37.281 z M 4.95,899.578 h 43.048 l -21.524,37.28 z m 581.146,37.28 -21.524,37.281 -21.524,-37.281 z m -86.096,0 h 43.048 l -21.524,37.281 z m 473.526,0 -21.524,37.281 -21.524,-37.281 z M 4.95,526.773 l 21.524,-37.28 21.524,37.28 z m 0,0 H 47.998 L 26.474,564.054 Z M 26.474,414.932 47.998,377.651 69.522,414.932 Z M 4.95,601.334 h 43.048 l -21.524,37.281 z m 0,0 21.524,-37.28 21.524,37.28 z m 43.048,74.561 h 43.048 l -21.524,37.28 z m 236.763,260.963 21.524,-37.28 21.524,37.28 z m 0,0 -21.524,-37.28 h 43.048 z m 43.048,0 -21.524,-37.28 h 43.048 z m 0,0 21.524,-37.28 21.524,37.28 z M 69.522,713.175 h 43.048 l -21.524,37.281 z m 0,0 21.524,-37.28 21.524,37.28 z m 21.524,37.281 21.524,-37.281 21.524,37.281 z m 0,0 h 43.048 l -21.524,37.28 z m 882.48,-111.841 h -43.048 l 21.524,-37.281 z m 0,0 -21.524,37.28 -21.524,-37.28 z m -258.287,298.243 -21.524,-37.28 h 43.048 z m 0,0 h -43.048 l 21.524,-37.28 z m 21.524,-37.28 h -43.048 l 21.524,-37.281 z m -64.572,37.28 -21.524,-37.28 h 43.048 z m 129.143,-74.561 -21.523,-37.28 h 43.047 z m 21.524,-37.28 h -43.047 l 21.523,-37.281 z M 952.002,303.09 h -43.048 l 21.524,-37.28 z m 0,0 -21.524,37.281 -21.524,-37.281 z m -21.524,-37.28 -21.524,37.28 -21.524,-37.28 z m -64.572,-111.842 21.524,37.281 h -43.048 z m 21.524,37.281 -21.524,37.28 -21.524,-37.28 z m 107.619,335.524 h -43.047 l 21.524,-37.28 z m 0,0 -21.523,37.281 -21.524,-37.281 z m -21.523,-111.841 -21.524,37.28 -21.524,-37.28 z m 0,0 h -43.048 l 21.524,-37.281 z M 736.763,79.407 715.239,116.688 693.715,79.407 Z m -107.62,-37.28 -21.524,37.28 -21.523,-37.28 z m 64.572,37.28 21.524,37.281 h -43.048 z m -107.619,-37.28 -21.524,37.28 -21.524,-37.28 z m 0,0 21.523,37.28 h -43.047 z m -86.096,0 -21.524,37.28 -21.524,-37.28 z m -43.048,0 21.524,37.28 h -43.048 z m -193.715,37.28 h 43.048 l -21.524,37.281 z m 0,0 21.524,37.281 h -43.048 z m 43.048,0 21.524,37.281 h -43.048 z m -129.143,74.561 21.524,37.281 h -43.048 z m 0,0 h 43.047 l -21.523,37.281 z m -21.524,37.281 h 43.048 l -21.524,37.28 z M 47.998,377.651 h 43.048 l -21.524,37.281 z m 0,0 21.524,-37.28 21.524,37.28 z M 112.57,265.81 h 43.048 l -21.524,37.28 z m 0,0 21.524,37.28 H 91.046 Z m 473.526,671.048 -21.524,-37.28 h 43.047 z m 0,0 h -43.048 l 21.524,-37.28 z M 26.474,489.493 h 43.048 l -21.524,37.28 z m 21.524,37.28 21.524,-37.28 21.524,37.28 z m 150.668,335.524 21.523,-37.28 21.524,37.28 z m 0,0 -21.524,-37.28 h 43.047 z m 43.047,0 -21.524,-37.28 h 43.048 z m -64.571,-37.28 21.524,-37.281 21.523,37.281 z m 129.143,74.561 21.524,-37.281 21.524,37.281 z m 43.048,0 -21.524,-37.281 h 43.048 z M 112.57,713.175 h 43.048 l -21.524,37.281 z m 21.524,37.281 21.524,-37.281 21.524,37.281 z m 731.812,0 -21.524,-37.281 h 43.048 z m 0,0 h -43.048 l 21.524,-37.281 z m 21.524,-37.281 h -43.048 l 21.524,-37.28 z m 64.572,-111.841 -21.524,37.281 -21.524,-37.281 z m -21.524,37.281 H 887.43 l 21.524,-37.281 z M 693.715,899.578 672.191,862.297 h 43.048 z m 0,0 h -43.048 l 21.524,-37.281 z m 86.096,-74.561 h -43.048 l 21.524,-37.281 z m 0,0 -21.524,-37.281 h 43.047 z M 930.478,340.371 H 887.43 L 908.954,303.09 Z M 908.954,303.09 h -43.048 l 21.524,-37.28 z m 0,0 -21.524,37.281 -21.524,-37.281 z m -64.572,-111.841 -21.524,37.28 -21.524,-37.28 z m 0,0 21.524,37.28 h -43.048 z m 107.62,260.963 h -43.048 l 21.524,-37.28 z m -21.524,-37.28 -21.524,37.28 -21.524,-37.28 z m -215.239,-298.244 21.524,37.28 h -43.048 z m 0,0 -21.524,37.28 -21.524,-37.28 z m 64.572,37.28 21.523,37.281 h -43.047 z m 0,0 -21.524,37.281 -21.524,-37.281 z m 21.523,37.281 21.524,37.28 h -43.047 z m 0,0 -21.523,37.28 -21.524,-37.28 z m -129.143,-74.561 -21.524,37.28 -21.524,-37.28 z m 0,0 21.524,37.28 H 650.667 Z M 392.381,79.407 h 43.047 l -21.524,37.281 z m 0,0 21.523,37.281 h -43.047 z m 86.095,0 21.524,37.281 h -43.048 z m 0,0 -21.524,37.281 -21.524,-37.281 z m -43.048,0 21.524,37.281 h -43.048 z m -215.239,74.561 21.524,37.281 h -43.047 z m 64.572,-37.28 h 43.048 l -21.524,37.28 z m 43.048,0 h 43.048 l -21.524,37.28 z m 0,0 21.524,37.28 h -43.048 z m -129.143,74.561 21.523,37.28 h -43.047 z m 0,0 h 43.047 l -21.524,37.28 z m -43.048,74.561 21.524,37.28 h -43.048 z m -21.524,37.28 h 43.048 l -21.524,37.281 z m 301.334,596.488 21.524,-37.281 21.524,37.281 z m 0,0 -21.524,-37.281 h 43.048 z m 43.048,0 -21.524,-37.281 H 500 Z m 129.143,0 h -43.047 l 21.524,-37.281 z m -43.047,0 -21.524,-37.281 h 43.048 z M 69.522,489.493 91.046,452.212 112.57,489.493 Z m 0,0 h 43.048 l -21.524,37.28 z m 21.524,-37.281 h 43.048 l -21.524,37.281 z m 0,149.122 h 43.048 l -21.524,37.281 z m 0,0 21.524,-37.28 21.524,37.28 z m 21.524,37.281 21.524,-37.281 21.524,37.281 z m 107.619,186.402 21.524,-37.281 21.524,37.281 z m 0,0 -21.523,-37.281 h 43.047 z m 107.62,37.28 -21.524,-37.28 h 43.048 z m 0,0 21.524,-37.28 21.524,37.28 z m -172.191,-149.122 21.524,-37.28 21.524,37.28 z m 0,0 h 43.048 l -21.524,37.281 z m 667.24,37.281 -21.524,-37.281 h 43.048 z m 21.524,-37.281 -21.524,-37.28 h 43.048 z m 0,0 h -43.048 l 21.524,-37.28 z m 64.572,-111.841 h -43.048 l 21.524,-37.28 z m 0,0 -21.524,37.281 -21.524,-37.281 z M 736.763,825.017 715.239,787.736 h 43.048 z m 21.524,-37.281 h -43.048 l 21.524,-37.28 z m 64.571,-559.207 -21.524,37.281 -21.523,-37.281 z m 86.096,223.683 -21.524,37.281 -21.524,-37.281 z m 0,0 h -43.048 l 21.524,-37.28 z m 0,74.561 -21.524,37.281 -21.524,-37.281 z m 0,0 h -43.048 l 21.524,-37.28 z M 887.43,414.932 h -43.048 l 21.524,-37.281 z m 0,0 -21.524,37.28 -21.524,-37.28 z m 0,149.122 -21.524,37.28 -21.524,-37.28 z m 0,0 h -43.048 l 21.524,-37.281 z M 736.763,153.968 715.239,191.249 693.715,153.968 Z m 0,0 21.524,37.281 h -43.048 z m 43.048,74.561 21.523,37.281 h -43.047 z m -150.668,-111.841 21.524,37.28 h -43.048 z m 21.524,37.28 -21.524,37.281 -21.524,-37.281 z m -107.619,-37.28 21.524,37.28 h -43.048 z m 0,0 -21.524,37.28 L 500,116.688 Z m -172.191,0 21.524,37.28 h -43.048 z m 0,0 h 43.047 l -21.523,37.28 z m 129.143,0 -21.524,37.28 -21.524,-37.28 z m 0,0 21.524,37.28 h -43.048 z m -193.715,37.28 21.524,37.281 h -43.048 z m 0,0 h 43.048 l -21.524,37.281 z m -172.191,223.683 21.524,-37.28 21.524,37.28 z m 0,0 h 43.048 l -21.524,37.281 z m 43.048,-74.561 h 43.047 l -21.523,37.281 z m 0,0 21.524,37.281 h -43.048 z m -21.524,37.281 h 43.048 l -21.524,37.28 z m 258.286,521.926 21.524,-37.28 21.524,37.28 z m 43.048,0 21.524,-37.28 21.524,37.28 z m 0,0 -21.524,-37.28 h 43.048 z m 129.144,0 -21.524,-37.28 h 43.047 z m 0,0 h -43.048 l 21.524,-37.28 z M 112.57,564.054 h 43.048 l -21.524,37.28 z m 0,-74.561 21.524,-37.281 21.524,37.281 z m 21.524,-37.281 21.524,-37.28 21.524,37.28 z m 0,0 h 43.048 l -21.524,37.281 z m 0,149.122 h 43.048 l -21.524,37.281 z m 0,0 21.524,-37.28 21.524,37.28 z m 172.191,223.683 21.524,-37.281 21.524,37.281 z m 43.048,0 -21.524,-37.281 h 43.048 z M 177.142,675.895 h 43.047 l -21.523,37.28 z m 21.524,37.28 21.523,-37.28 21.524,37.28 z m 667.24,-111.841 h -43.048 l 21.524,-37.28 z M 715.239,787.736 h -43.048 l 21.524,-37.28 z m 0,0 -21.524,-37.28 h 43.048 z m -64.572,37.281 h -43.048 l 21.524,-37.281 z m 0,0 -21.524,-37.281 h 43.048 z m 86.096,-74.561 -21.524,-37.281 h 43.048 z m 0,0 h -43.048 l 21.524,-37.281 z m -129.144,74.561 h -43.047 l 21.524,-37.281 z m 0,0 -21.523,-37.281 h 43.047 z M 865.906,377.651 844.382,414.932 822.858,377.651 Z M 779.811,303.09 h 43.047 l -21.524,37.281 z m 0,0 21.523,-37.28 21.524,37.28 z m 0,0 -21.524,-37.28 h 43.047 z m 64.571,186.403 21.524,-37.281 21.524,37.281 z m 0,0 h 43.048 l -21.524,37.28 z m -43.048,-74.561 21.524,-37.281 21.524,37.281 z m 0,149.122 h 43.048 l -21.524,37.28 z M 586.096,191.249 564.572,153.968 h 43.047 z m 0,0 21.523,-37.281 21.524,37.281 z m -43.048,0 21.524,-37.281 21.524,37.281 z m 0,0 -21.524,-37.281 h 43.048 z m -236.763,37.28 -21.524,-37.28 h 43.048 z m 43.048,0 h -43.048 l 21.524,-37.28 z m -86.096,74.561 -21.524,-37.28 h 43.048 z m 0,0 h -43.048 l 21.524,-37.28 z m -64.571,111.842 -21.524,37.28 -21.524,-37.28 z m 0,0 h -43.048 l 21.524,-37.281 z m 43.047,-74.561 h -43.047 l 21.523,-37.281 z m 0,0 -21.524,-37.281 h 43.048 z m 301.335,447.365 h 43.048 l -21.524,37.281 z m -344.382,-298.243 -21.524,37.28 -21.524,-37.28 z m 0,0 h -43.048 l 21.524,-37.281 z m 150.667,260.963 -21.524,37.28 -21.524,-37.28 z m 0,0 21.524,37.28 h -43.048 z m -64.572,-37.281 -21.524,37.281 -21.524,-37.281 z m 0,0 21.524,37.281 h -43.048 z m 107.62,37.281 21.523,37.28 h -43.047 z m 0,0 -21.524,37.28 -21.524,-37.28 z m -150.668,-111.841 21.524,37.28 h -43.048 z m 21.524,37.28 -21.524,37.28 -21.524,-37.28 z m 21.524,37.28 h -43.048 l 21.524,-37.28 z m 452.002,-37.28 21.524,37.28 h -43.048 z m 21.524,-37.28 21.524,-37.281 21.523,37.281 z m 21.524,-37.281 h 43.047 l -21.524,37.281 z m 0,0 21.523,-37.28 21.524,37.28 z M 650.667,750.456 h 43.048 l -21.524,37.28 z m 0,0 21.524,37.28 h -43.048 z m 86.096,-74.561 -21.524,37.28 -21.524,-37.28 z m -193.715,111.841 21.524,-37.28 21.524,37.28 z m 258.286,-447.365 21.524,37.28 h -43.047 z m 0,74.561 -21.523,-37.281 h 43.047 z m 0,-74.561 -21.523,37.28 -21.524,-37.28 z m -21.523,-37.281 21.523,37.281 H 758.287 Z M 650.667,228.529 h 43.048 l -21.524,37.281 z m 64.572,37.281 h -43.048 l 21.524,-37.281 z m -64.572,-37.281 21.524,37.281 h -43.048 z m 64.572,37.281 -21.524,37.28 -21.524,-37.28 z M 543.048,191.249 h 43.048 l -21.524,37.28 z m 0,0 21.524,37.28 h -43.048 z m -150.667,37.28 21.523,-37.28 21.524,37.28 z m 64.571,-37.28 -21.524,37.28 -21.524,-37.28 z m 0,0 21.524,37.28 h -43.048 z m -172.191,74.561 21.524,-37.281 21.524,37.281 z m 64.572,-37.281 -21.524,37.281 -21.524,-37.281 z m -64.572,37.281 h 43.048 l -21.524,37.28 z m -21.524,37.28 21.524,-37.28 21.524,37.28 z m 129.144,-74.561 h 43.047 l -21.524,37.281 z m 0,521.927 h 43.047 l -21.524,37.28 z M 500,787.736 478.476,750.456 h 43.048 z m 43.048,0 H 500 l 21.524,-37.28 z m 0,0 -21.524,-37.28 h 43.048 z m -344.382,-298.243 21.523,37.28 h -43.047 z m 0,0 h 43.047 l -21.524,37.28 z m 21.523,111.841 21.524,-37.28 21.524,37.28 z m 21.524,37.281 -21.524,-37.281 h 43.048 z m 107.62,111.841 h -43.048 l 21.524,-37.281 z m -64.572,-37.281 h 43.048 l -21.524,37.281 z m 107.62,37.281 21.523,-37.281 21.524,37.281 z M 241.713,638.615 h 43.048 l -21.524,37.28 z m 0,0 21.524,-37.281 21.524,37.281 z m 495.05,37.28 -21.524,-37.28 h 43.048 z m 0,0 h -43.048 l 21.524,-37.28 z m 21.524,-37.28 h -43.048 l 21.524,-37.281 z m 0,0 -21.524,-37.281 h 43.048 z m -21.524,-260.964 21.524,-37.28 21.524,37.28 z m -21.524,-37.28 h 43.048 l -21.524,37.28 z m 43.048,149.122 21.524,-37.281 21.523,37.281 z m 0,0 h 43.047 l -21.523,37.28 z m -21.524,-37.281 h 43.048 l -21.524,37.281 z m 0,74.561 21.524,-37.28 21.524,37.28 z M 650.667,303.09 629.143,265.81 h 43.048 z m 0,0 21.524,-37.28 21.524,37.28 z m -107.619,-37.28 21.524,-37.281 21.524,37.281 z m 0,0 -21.524,-37.281 h 43.048 z m -86.096,0 h -43.048 l 21.524,-37.281 z m 0,0 -21.524,-37.281 h 43.048 z m -107.619,37.28 h -43.048 l 21.524,-37.28 z m -21.524,37.281 -21.524,-37.281 h 43.048 z m -43.048,74.561 -21.524,37.28 -21.524,-37.28 z m 0,0 h -43.048 l 21.524,-37.281 z m 21.524,-37.281 -21.524,37.281 -21.524,-37.281 z m 150.667,335.524 21.524,37.281 h -43.048 z m 0,0 -21.524,37.281 -21.524,-37.281 z m 43.048,0 -21.524,37.281 -21.524,-37.281 z m 0,0 21.524,37.281 H 478.476 Z M 263.237,526.773 241.713,564.054 220.189,526.773 Z m 0,0 h -43.048 l 21.524,-37.28 z m 21.524,37.281 h -43.048 l 21.524,-37.281 z m 0,0 -21.524,37.28 -21.524,-37.28 z m 21.524,-111.842 h -43.048 l 21.524,-37.28 z m 387.43,149.122 h 43.048 l -21.524,37.281 z m 21.524,-37.28 21.524,37.28 h -43.048 z m -107.62,111.841 h 43.048 l -21.524,37.28 z m 0,0 21.524,37.28 h -43.047 z m 21.524,-37.28 21.524,37.28 h -43.048 z m -64.571,37.28 h 43.047 l -21.523,37.28 z M 693.715,377.651 h 43.048 l -21.524,37.281 z m 0,0 21.524,-37.28 21.524,37.28 z m 21.524,111.842 21.524,-37.281 21.524,37.281 z m 0,0 h 43.048 l -21.524,37.28 z M 564.572,303.09 543.048,265.81 h 43.048 z m -43.048,0 21.524,-37.28 21.524,37.28 z M 370.857,340.371 349.333,303.09 h 43.048 z m 0,0 h -43.048 l 21.524,-37.281 z m -43.048,74.561 -21.524,37.28 -21.524,-37.28 z m 0,0 h -43.048 l 21.524,-37.281 z m 86.095,-74.561 h -43.047 l 21.524,-37.281 z m 64.572,335.524 21.524,37.28 h -43.048 z m 43.048,0 -21.524,37.28 -21.524,-37.28 z M 306.285,526.773 284.761,564.054 263.237,526.773 Z m 21.524,37.281 h -43.048 l 21.524,-37.281 z m 43.048,74.561 21.524,37.28 h -43.048 z m 0,0 -21.524,37.28 -21.524,-37.28 z m 43.047,0 -21.523,37.28 -21.524,-37.28 z m -64.571,-37.281 21.524,37.281 h -43.048 z m 322.858,-37.28 21.524,37.28 h -43.048 z m 0,0 h 43.048 l -21.524,37.28 z m -86.095,74.561 h 43.047 l -21.524,37.28 z m 0,0 21.523,37.28 h -43.047 z m 86.095,-223.683 21.524,-37.281 21.524,37.281 z m -21.524,-37.281 h 43.048 l -21.524,37.281 z m -107.619,-37.28 21.524,-37.281 21.524,37.281 z m 0,0 -21.524,-37.281 h 43.048 z m 64.571,37.28 21.524,-37.28 21.524,37.28 z m 0,0 -21.523,-37.28 h 43.047 z M 500,340.371 478.476,303.09 h 43.048 z m 0,0 h -43.048 l 21.524,-37.281 z m 0,0 21.524,-37.281 21.524,37.281 z m -107.619,37.28 -21.524,-37.28 h 43.047 z m 43.047,0 -21.524,-37.28 h 43.048 z m 0,0 h -43.047 l 21.523,-37.28 z M 500,638.615 l -21.524,37.28 -21.524,-37.28 z m 0,0 21.524,37.28 H 478.476 Z M 349.333,526.773 h -43.048 l 21.524,-37.28 z m 0,0 -21.524,37.281 -21.524,-37.281 z m 43.048,74.561 21.523,37.281 h -43.047 z m 0,0 -21.524,37.281 -21.524,-37.281 z m -21.524,-111.841 -21.524,37.28 -21.524,-37.28 z m 258.286,74.561 h 43.048 l -21.524,37.28 z m 21.524,-37.281 21.524,37.281 H 629.143 Z M 629.143,414.932 h 43.048 l -21.524,37.28 z m 0,0 21.524,-37.281 21.524,37.281 z m 0,0 -21.524,-37.281 h 43.048 z m 0,74.561 h 43.048 l -21.524,37.28 z m 0,0 21.524,-37.281 21.524,37.281 z m -64.571,-111.842 -21.524,-37.28 h 43.048 z m 0,0 21.524,-37.28 21.523,37.28 z m -86.096,0 h -43.048 l 21.524,-37.28 z m 0,0 -21.524,-37.28 H 500 Z m -64.572,37.281 h -43.047 l 21.524,-37.281 z m 0,0 -21.523,37.28 -21.524,-37.28 z m 0,0 -21.523,-37.281 h 43.047 z M 478.476,601.334 500,638.615 h -43.048 z m 43.048,0 L 500,638.615 478.476,601.334 Z M 392.381,526.773 h -43.048 l 21.524,-37.28 z m 21.523,-37.28 h -43.047 l 21.524,-37.281 z m 0,0 -21.523,37.28 -21.524,-37.28 z m 193.715,37.28 21.524,37.281 h -43.047 z m 0,0 h 43.048 l -21.524,37.281 z m 0,0 21.524,-37.28 21.524,37.28 z m -64.571,37.281 21.524,37.28 h -43.048 z m 0,0 h 43.048 l -21.524,37.28 z m 64.571,-111.842 21.524,-37.28 21.524,37.28 z m 0,0 h 43.048 l -21.524,37.281 z m -172.191,0 -21.524,37.281 -21.523,-37.281 z m 0,0 h -43.047 l 21.523,-37.28 z M 500,564.054 l -21.524,37.28 -21.524,-37.28 z m 0,0 21.524,37.28 h -43.048 z m 0,0 h 43.048 l -21.524,37.28 z m -64.572,-37.281 -21.524,37.281 -21.523,-37.281 z m 0,0 21.524,37.281 h -43.048 z m 0,0 h -43.047 l 21.523,-37.28 z m 129.144,0 h 43.047 l -21.523,37.281 z m 0,0 21.524,37.281 H 543.048 Z M 521.524,452.212 500,414.932 h 43.048 z m 0,0 21.524,-37.28 21.524,37.28 z m -43.048,0 21.524,-37.28 21.524,37.28 z m 0,74.561 21.524,37.281 h -43.048 z m 0,0 -21.524,37.281 -21.524,-37.281 z m 64.572,-37.28 -21.524,-37.281 h 43.048 z m -43.048,0 -21.524,-37.281 h 43.048 z m 0,0 21.524,-37.281 21.524,37.281 z"
     style="opacity:1;fill-opacity:0;stroke:#000000;stroke-width:16;stroke-opacity:1;stop-opacity:1;stroke-miterlimit:4;stroke-dasharray:none;"
     id="path2501" />
</svg>
