<?xml version="1.0" encoding="UTF-8" standalone="no"?>
<svg
   xmlns:dc="http://purl.org/dc/elements/1.1/"
   xmlns:cc="http://creativecommons.org/ns#"
   xmlns:rdf="http://www.w3.org/1999/02/22-rdf-syntax-ns#"
   xmlns:svg="http://www.w3.org/2000/svg"
   xmlns="http://www.w3.org/2000/svg"
   xmlns:sodipodi="http://sodipodi.sourceforge.net/DTD/sodipodi-0.dtd"
   xmlns:inkscape="http://www.inkscape.org/namespaces/inkscape"
   inkscape:version="1.0beta1 (32d4812, 2019-09-19)"
   sodipodi:docname="5-uniform_220.svg"
   id="c:\kuniform\5u\5-uniform_220.svg"
   height="994.2065"
   width="1000.00006"
   version="1.0">
  <style></style>
  <metadata
     id="metadata2522">
    <rdf:RDF>
      <cc:Work
         rdf:about="">
        <dc:format>image/svg+xml</dc:format>
        <dc:type
           rdf:resource="http://purl.org/dc/dcmitype/StillImage" />
        <dc:title></dc:title>
      </cc:Work>
    </rdf:RDF>
  </metadata>
  <defs
     id="defs2520" />
  <sodipodi:namedview
     inkscape:current-layer="c:\kuniform\5u\5-uniform_220.svg"
     inkscape:window-maximized="0"
     inkscape:window-y="23"
     inkscape:window-x="0"
     inkscape:cy="522.55701"
     inkscape:cx="429.64902"
     inkscape:zoom="0.59971603"
     showgrid="false"
     id="namedview2518"
     inkscape:window-height="907"
     inkscape:window-width="1600"
     inkscape:pageshadow="2"
     inkscape:pageopacity="0"
     guidetolerance="10"
     gridtolerance="10"
     objecttolerance="10"
     borderopacity="1"
     inkscape:document-rotation="0"
     bordercolor="#666666"
     pagecolor="#ffffff" />
  <!-- X Coordinate transform: fx(x)=(x+83.88995)*0.85632586-->
  <!-- Y Coordinate transform: fy(y)=(1083.8564-y)*0.85632586 -->
  <g
     id="g2515"
     style="stroke:#000000;stroke-width:15;stroke-opacity:1;fill-opacity:0;stroke-miterlimit:4;stroke-dasharray:none">
    <!-- Group: <Default>-->
    <path
       style="stroke-width:15;stroke-miterlimit:4;stroke-dasharray:none"
       id="path2075"
       d="M 500,499.971 521.408,537.051 500,574.131 457.184,574.131 420.104,595.539 383.024,616.948 361.616,654.028 318.799,654.028 281.719,675.436 244.639,696.844 223.231,733.924 180.415,733.924 143.335,755.332 106.255,776.74 84.847,813.82 42.03,813.82 4.95,835.228 42.03,856.637 84.847,856.637 121.927,835.228 143.335,798.148 180.415,776.74 223.231,776.74 260.311,755.332 281.719,718.252 318.799,696.844 361.616,696.844 398.696,675.436 420.104,638.356 457.184,616.948 500,616.948 537.08,595.539 558.488,558.46 595.568,537.051 638.385,537.051 675.464,515.643 696.873,478.563 696.873,435.747 675.464,398.667 675.464,355.851 654.056,318.771 616.976,297.362 574.16,297.362 537.08,318.771 500,340.179 478.592,377.259 478.592,420.075 500,457.155 Z" />
    <path
       style="stroke-width:15;stroke-miterlimit:4;stroke-dasharray:none"
       id="path2077"
       d="M 500,499.971 457.184,499.971 420.104,478.563 398.696,441.483 361.616,420.075 340.207,382.995 340.207,340.179 318.799,303.099 318.799,260.283 340.207,223.203 377.287,201.794 414.367,180.386 457.184,180.386 494.264,201.794 515.672,238.874 552.752,260.283 574.16,297.362 574.16,340.179 595.568,377.259 595.568,420.075 574.16,457.155 537.08,478.563 Z" />
    <path
       style="stroke-width:15;stroke-miterlimit:4;stroke-dasharray:none"
       id="path2079"
       d="M 521.408,537.051 558.488,558.46 579.896,595.539 616.976,616.948 659.793,616.948 696.873,595.539 733.953,574.131 755.361,537.051 755.361,494.235 733.953,457.155 696.873,435.747" />
    <path
       style="stroke-width:15;stroke-miterlimit:4;stroke-dasharray:none"
       id="path2081"
       d="M 521.408,537.051 558.488,515.643 595.568,494.235 638.385,494.235 675.464,515.643 696.873,552.723 733.953,574.131 755.361,611.211 755.361,654.028 776.769,691.108 776.769,733.924 755.361,771.004 718.281,792.412 681.201,813.82 638.385,813.82 601.305,792.412 579.896,755.332 542.816,733.924 521.408,696.844 521.408,654.028 500,616.948 500,574.131" />
    <path
       style="stroke-width:15;stroke-miterlimit:4;stroke-dasharray:none"
       id="path2083"
       d="M 20.622,499.971 42.03,462.891 79.11,441.483 121.927,441.483 159.007,462.891 201.823,462.891 223.231,499.971 260.311,521.38 281.719,558.46 318.799,579.868 361.616,579.868 398.696,558.46 435.776,537.051 457.184,499.971 457.184,457.155 435.776,420.075 435.776,377.259 414.367,340.179 377.287,318.771 355.879,281.691 318.799,260.283 275.983,260.283 238.903,281.691 201.823,303.099 180.415,340.179 180.415,382.995 201.823,420.075 238.903,441.483 260.311,478.563 297.391,499.971 340.207,499.971 377.287,478.563 420.104,478.563" />
    <path
       style="stroke-width:15;stroke-miterlimit:4;stroke-dasharray:none"
       id="path2085"
       d="M 4.95,718.252 42.03,696.844 84.847,696.844 121.927,675.436 143.335,638.356 180.415,616.948 223.231,616.948 260.311,595.539 281.719,558.46 318.799,537.051 361.616,537.051 398.696,515.643 420.104,478.563 457.184,457.155 500,457.155 537.08,435.747 558.488,398.667 595.568,377.259 638.385,377.259 675.464,355.851 696.873,318.771 733.953,297.362 776.769,297.362 813.849,275.954 835.257,238.874 872.337,217.466 915.153,217.466 952.233,196.058 973.641,158.978 952.233,121.898 915.153,100.49 893.745,63.41 893.745,20.594" />
    <path
       style="stroke-width:15;stroke-miterlimit:4;stroke-dasharray:none"
       id="path2087"
       d="M 500,457.155 537.08,478.563 558.488,515.643 558.488,558.46" />
    <path
       style="stroke-width:15;stroke-miterlimit:4;stroke-dasharray:none"
       id="path2089"
       d="M 537.08,478.563 537.08,435.747" />
    <path
       style="stroke-width:15;stroke-miterlimit:4;stroke-dasharray:none"
       id="path2091"
       d="M 500,574.131 537.08,595.539 558.488,632.62 595.568,654.028 616.976,691.108 616.976,733.924 638.385,771.004 638.385,813.82 616.976,850.9 579.896,872.308 542.816,893.717 500,893.717 462.92,872.308 420.104,872.308 383.024,893.717 340.207,893.717 303.128,872.308 281.719,835.228 281.719,792.412 303.128,755.332 340.207,733.924 361.616,696.844" />
    <path
       style="stroke-width:15;stroke-miterlimit:4;stroke-dasharray:none"
       id="path2093"
       d="M 558.488,515.643 595.568,537.051" />
    <path
       style="stroke-width:15;stroke-miterlimit:4;stroke-dasharray:none"
       id="path2095"
       d="M 398.696,281.691 355.879,281.691 318.799,303.099 275.983,303.099 238.903,324.507 201.823,303.099 180.415,266.019 180.415,223.203 159.007,186.123 159.007,143.306 180.415,106.226 217.495,84.818 254.575,63.41 297.391,63.41 334.471,84.818 355.879,121.898 392.959,143.306 414.367,180.386 414.367,223.203 435.776,260.283 435.776,303.099 414.367,340.179 377.287,361.587 340.207,382.995 297.391,382.995 260.311,361.587 217.495,361.587 180.415,340.179 137.599,340.179 100.519,361.587 63.439,382.995 42.03,420.075 42.03,462.891 63.439,499.971 63.439,542.788 84.847,579.868 121.927,601.276 143.335,638.356 180.415,659.764 223.231,659.764 244.639,696.844 281.719,718.252 303.128,755.332 340.207,776.74 383.024,776.74 420.104,755.332 457.184,733.924 478.592,696.844 478.592,654.028 457.184,616.948 457.184,574.131 435.776,537.051 398.696,515.643 377.287,478.563 340.207,457.155 297.391,457.155 260.311,478.563 223.231,499.971 201.823,537.051 201.823,579.868 223.231,616.948 260.311,638.356 281.719,675.436 318.799,696.844" />
    <path
       style="stroke-width:15;stroke-miterlimit:4;stroke-dasharray:none"
       id="path2097"
       d="M 457.184,457.155 478.592,420.075 515.672,398.667 537.08,361.587 574.16,340.179 616.976,340.179 654.056,318.771 675.464,281.691 712.544,260.283 755.361,260.283 792.441,238.874 813.849,201.794 850.929,180.386 893.745,180.386 930.825,158.978 952.233,121.898 989.313,100.49" />
    <path
       style="stroke-width:15;stroke-miterlimit:4;stroke-dasharray:none"
       id="path2099"
       d="M 377.287,478.563 398.696,441.483 435.776,420.075 478.592,420.075" />
    <path
       style="stroke-width:15;stroke-miterlimit:4;stroke-dasharray:none"
       id="path2101"
       d="M 361.616,579.868 383.024,616.948 420.104,638.356 441.512,675.436 478.592,696.844 521.408,696.844 558.488,675.436 595.568,654.028 616.976,616.948 616.976,574.131 595.568,537.051 595.568,494.235 574.16,457.155 537.08,435.747 515.672,398.667 478.592,377.259 435.776,377.259 398.696,398.667 361.616,420.075 340.207,457.155 340.207,499.971 361.616,537.051 398.696,558.46 420.104,595.539 457.184,616.948" />
    <path
       style="stroke-width:15;stroke-miterlimit:4;stroke-dasharray:none"
       id="path2103"
       d="M 340.207,733.924 383.024,733.924 420.104,712.516 441.512,675.436 478.592,654.028 500,616.948" />
    <path
       style="stroke-width:15;stroke-miterlimit:4;stroke-dasharray:none"
       id="path2105"
       d="M 537.08,595.539 579.896,595.539 616.976,574.131 659.793,574.131 696.873,552.723 718.281,515.643 755.361,494.235 798.177,494.235 835.257,472.827 856.665,435.747 893.745,414.339 936.561,414.339 973.641,392.931" />
    <path
       style="stroke-width:15;stroke-miterlimit:4;stroke-dasharray:none"
       id="path2107"
       d="M 478.592,654.028 521.408,654.028 558.488,632.62 579.896,595.539" />
    <path
       style="stroke-width:15;stroke-miterlimit:4;stroke-dasharray:none"
       id="path2109"
       d="M 398.696,558.46 398.696,515.643" />
    <path
       style="stroke-width:15;stroke-miterlimit:4;stroke-dasharray:none"
       id="path2111"
       d="M 398.696,441.483 398.696,398.667 377.287,361.587 377.287,318.771 398.696,281.691 435.776,260.283 478.592,260.283 515.672,281.691 537.08,318.771 537.08,361.587" />
    <path
       style="stroke-width:15;stroke-miterlimit:4;stroke-dasharray:none"
       id="path2113"
       d="M 398.696,398.667 435.776,420.075" />
    <path
       style="stroke-width:15;stroke-miterlimit:4;stroke-dasharray:none"
       id="path2115"
       d="M 515.672,398.667 558.488,398.667" />
    <path
       style="stroke-width:15;stroke-miterlimit:4;stroke-dasharray:none"
       id="path2117"
       d="M 558.488,398.667 537.08,361.587 500,340.179 478.592,303.099 478.592,260.283 457.184,223.203 457.184,180.386 478.592,143.306 515.672,121.898 552.752,100.49 595.568,100.49 632.648,121.898 654.056,158.978 691.136,180.386 712.544,217.466 712.544,260.283 733.953,297.362 733.953,340.179 712.544,377.259 675.464,398.667 638.385,420.075 595.568,420.075 Z" />
    <path
       style="stroke-width:15;stroke-miterlimit:4;stroke-dasharray:none"
       id="path2119"
       d="M 420.104,638.356 420.104,595.539" />
    <path
       style="stroke-width:15;stroke-miterlimit:4;stroke-dasharray:none"
       id="path2121"
       d="M 521.408,654.028 558.488,675.436 579.896,712.516 616.976,733.924 659.793,733.924 696.873,712.516 718.281,675.436 718.281,632.62 696.873,595.539 659.793,574.131" />
    <path
       style="stroke-width:15;stroke-miterlimit:4;stroke-dasharray:none"
       id="path2123"
       d="M 558.488,675.436 558.488,632.62" />
    <path
       style="stroke-width:15;stroke-miterlimit:4;stroke-dasharray:none"
       id="path2125"
       d="M 616.976,574.131 638.385,537.051" />
    <path
       style="stroke-width:15;stroke-miterlimit:4;stroke-dasharray:none"
       id="path2127"
       d="M 739.689,712.516 718.281,675.436 681.201,654.028 659.793,616.948 659.793,574.131 638.385,537.051 638.385,494.235 659.793,457.155 696.873,435.747 733.953,414.339 776.769,414.339 813.849,435.747 835.257,472.827 872.337,494.235 893.745,531.315 893.745,574.131 915.153,611.211 915.153,654.028 893.745,691.108 856.665,712.516 819.585,733.924 776.769,733.924 Z" />
    <path
       style="stroke-width:15;stroke-miterlimit:4;stroke-dasharray:none"
       id="path2129"
       d="M 361.616,579.868 361.616,537.051" />
    <path
       style="stroke-width:15;stroke-miterlimit:4;stroke-dasharray:none"
       id="path2131"
       d="M 318.799,537.051 340.207,499.971" />
    <path
       style="stroke-width:15;stroke-miterlimit:4;stroke-dasharray:none"
       id="path2133"
       d="M 595.568,377.259 616.976,340.179" />
    <path
       style="stroke-width:15;stroke-miterlimit:4;stroke-dasharray:none"
       id="path2135"
       d="M 659.793,457.155 638.385,420.075 638.385,377.259 616.976,340.179 616.976,297.362 638.385,260.283 675.464,238.874 712.544,217.466 755.361,217.466 792.441,238.874 813.849,275.954 813.849,318.771 835.257,355.851 835.257,398.667 813.849,435.747 776.769,457.155 733.953,457.155 696.873,478.563" />
    <path
       style="stroke-width:15;stroke-miterlimit:4;stroke-dasharray:none"
       id="path2137"
       d="M 398.696,675.436 441.512,675.436" />
    <path
       style="stroke-width:15;stroke-miterlimit:4;stroke-dasharray:none"
       id="path2139"
       d="M 675.464,515.643 718.281,515.643" />
    <path
       style="stroke-width:15;stroke-miterlimit:4;stroke-dasharray:none"
       id="path2141"
       d="M 659.793,457.155 696.873,478.563 718.281,515.643 755.361,537.051 798.177,537.051 835.257,515.643 872.337,494.235 893.745,457.155 893.745,414.339 872.337,377.259 835.257,355.851" />
    <path
       style="stroke-width:15;stroke-miterlimit:4;stroke-dasharray:none"
       id="path2143"
       d="M 223.231,659.764 260.311,638.356 297.391,616.948 318.799,579.868 318.799,537.051 297.391,499.971 297.391,457.155 275.983,420.075 238.903,398.667 217.495,361.587" />
    <path
       style="stroke-width:15;stroke-miterlimit:4;stroke-dasharray:none"
       id="path2145"
       d="M 238.903,441.483 238.903,398.667 260.311,361.587 297.391,340.179 340.207,340.179 377.287,361.587" />
    <path
       style="stroke-width:15;stroke-miterlimit:4;stroke-dasharray:none"
       id="path2147"
       d="M 297.391,499.971 260.311,521.38 238.903,558.46 201.823,579.868 159.007,579.868 121.927,601.276 100.519,638.356 63.439,659.764 20.622,659.764" />
    <path
       style="stroke-width:15;stroke-miterlimit:4;stroke-dasharray:none"
       id="path2149"
       d="M 537.08,318.771 574.16,340.179" />
    <path
       style="stroke-width:15;stroke-miterlimit:4;stroke-dasharray:none"
       id="path2151"
       d="M 377.287,244.611 398.696,281.691 435.776,303.099 478.592,303.099 515.672,281.691 552.752,260.283 574.16,223.203 574.16,180.386 552.752,143.306 552.752,100.49 531.344,63.41 494.264,42.002 457.184,63.41 414.367,63.41 377.287,84.818 355.879,121.898 355.879,164.714 377.287,201.794 Z" />
    <path
       style="stroke-width:15;stroke-miterlimit:4;stroke-dasharray:none"
       id="path2153"
       d="M 638.385,377.259 675.464,398.667" />
    <path
       style="stroke-width:15;stroke-miterlimit:4;stroke-dasharray:none"
       id="path2155"
       d="M 404.432,973.613 441.512,952.205 478.592,930.797 500,893.717 500,850.9 478.592,813.82 478.592,771.004 457.184,733.924 420.104,712.516 398.696,675.436 361.616,654.028" />
    <path
       style="stroke-width:15;stroke-miterlimit:4;stroke-dasharray:none"
       id="path2157"
       d="M 462.92,872.308 441.512,835.228 404.432,813.82 383.024,776.74 383.024,733.924 361.616,696.844 361.616,654.028" />
    <path
       style="stroke-width:15;stroke-miterlimit:4;stroke-dasharray:none"
       id="path2159"
       d="M 739.689,829.492 702.609,850.9 681.201,887.98 681.201,930.797 702.609,967.877 739.689,989.285 776.769,967.877 798.177,930.797 798.177,887.98 776.769,850.9 776.769,808.084 755.361,771.004 718.281,749.596 696.873,712.516 659.793,691.108 616.976,691.108 579.896,712.516 542.816,733.924 521.408,771.004 521.408,813.82 542.816,850.9 542.816,893.717 564.224,930.797 601.305,952.205 622.713,989.285" />
    <path
       style="stroke-width:15;stroke-miterlimit:4;stroke-dasharray:none"
       id="path2161"
       d="M 420.104,712.516 420.104,755.332 441.512,792.412 478.592,813.82 521.408,813.82 558.488,792.412 579.896,755.332 579.896,712.516" />
    <path
       style="stroke-width:15;stroke-miterlimit:4;stroke-dasharray:none"
       id="path2163"
       d="M 696.873,595.539 696.873,552.723" />
    <path
       style="stroke-width:15;stroke-miterlimit:4;stroke-dasharray:none"
       id="path2165"
       d="M 755.361,611.211 718.281,632.62 681.201,654.028 659.793,691.108 659.793,733.924 681.201,771.004 681.201,813.82 702.609,850.9 739.689,872.308 761.097,909.388 798.177,930.797 840.993,930.797 878.073,909.388 915.153,887.98 936.561,850.9 936.561,808.084 915.153,771.004 915.153,728.188 893.745,691.108 856.665,669.7 835.257,632.62 798.177,611.211 Z" />
    <path
       style="stroke-width:15;stroke-miterlimit:4;stroke-dasharray:none"
       id="path2167"
       d="M 238.903,558.46 281.719,558.46" />
    <path
       style="stroke-width:15;stroke-miterlimit:4;stroke-dasharray:none"
       id="path2169"
       d="M 180.415,776.74 143.335,755.332 121.927,718.252 84.847,696.844 63.439,659.764 63.439,616.948 84.847,579.868 121.927,558.46 159.007,537.051 201.823,537.051 238.903,558.46 260.311,595.539 297.391,616.948 318.799,654.028 318.799,696.844 340.207,733.924 340.207,776.74 318.799,813.82 281.719,835.228 244.639,856.637 201.823,856.637 164.743,835.228 143.335,798.148 106.255,776.74 84.847,739.66 42.03,739.66 4.95,718.252" />
    <path
       style="stroke-width:15;stroke-miterlimit:4;stroke-dasharray:none"
       id="path2171"
       d="M 20.622,223.203 42.03,186.123 79.11,164.714 116.19,143.306 159.007,143.306 196.087,164.714 217.495,201.794 254.575,223.203 275.983,260.283 275.983,303.099 297.391,340.179 297.391,382.995 275.983,420.075 238.903,441.483 201.823,462.891" />
    <path
       style="stroke-width:15;stroke-miterlimit:4;stroke-dasharray:none"
       id="path2173"
       d="M 340.207,340.179 377.287,318.771" />
    <path
       style="stroke-width:15;stroke-miterlimit:4;stroke-dasharray:none"
       id="path2175"
       d="M 260.311,521.38 260.311,478.563" />
    <path
       style="stroke-width:15;stroke-miterlimit:4;stroke-dasharray:none"
       id="path2177"
       d="M 515.672,281.691 515.672,238.874 537.08,201.794 574.16,180.386 616.976,180.386 654.056,201.794 675.464,238.874 675.464,281.691" />
    <path
       style="stroke-width:15;stroke-miterlimit:4;stroke-dasharray:none"
       id="path2179"
       d="M 478.592,260.283 515.672,238.874" />
    <path
       style="stroke-width:15;stroke-miterlimit:4;stroke-dasharray:none"
       id="path2181"
       d="M 675.464,355.851 712.544,377.259 733.953,414.339 733.953,457.155" />
    <path
       style="stroke-width:15;stroke-miterlimit:4;stroke-dasharray:none"
       id="path2183"
       d="M 654.056,318.771 696.873,318.771" />
    <path
       style="stroke-width:15;stroke-miterlimit:4;stroke-dasharray:none"
       id="path2185"
       d="M 404.432,973.613 404.432,930.797 383.024,893.717 383.024,850.9 404.432,813.82 441.512,792.412 478.592,771.004 521.408,771.004 558.488,792.412 579.896,829.492 579.896,872.308 601.305,909.388 638.385,930.797 681.201,930.797 718.281,909.388 739.689,872.308 776.769,850.9 819.585,850.9 856.665,829.492 878.073,792.412 878.073,749.596 856.665,712.516 819.585,691.108 798.177,654.028 798.177,611.211 819.585,574.131 856.665,552.723 893.745,531.315 936.561,531.315 973.641,552.723" />
    <path
       style="stroke-width:15;stroke-miterlimit:4;stroke-dasharray:none"
       id="path2187"
       d="M 579.896,755.332 616.976,733.924" />
    <path
       style="stroke-width:15;stroke-miterlimit:4;stroke-dasharray:none"
       id="path2189"
       d="M 383.024,733.924 420.104,755.332" />
    <path
       style="stroke-width:15;stroke-miterlimit:4;stroke-dasharray:none"
       id="path2191"
       d="M 798.177,494.235 835.257,515.643 856.665,552.723 856.665,595.539 835.257,632.62 798.177,654.028 755.361,654.028 718.281,632.62" />
    <path
       style="stroke-width:15;stroke-miterlimit:4;stroke-dasharray:none"
       id="path2193"
       d="M 718.281,675.436 755.361,654.028" />
    <path
       style="stroke-width:15;stroke-miterlimit:4;stroke-dasharray:none"
       id="path2195"
       d="M 755.361,494.235 776.769,457.155" />
    <path
       style="stroke-width:15;stroke-miterlimit:4;stroke-dasharray:none"
       id="path2197"
       d="M 260.311,638.356 260.311,595.539" />
    <path
       style="stroke-width:15;stroke-miterlimit:4;stroke-dasharray:none"
       id="path2199"
       d="M 260.311,361.587 238.903,324.507" />
    <path
       style="stroke-width:15;stroke-miterlimit:4;stroke-dasharray:none"
       id="path2201"
       d="M 297.391,340.179 318.799,303.099" />
    <path
       style="stroke-width:15;stroke-miterlimit:4;stroke-dasharray:none"
       id="path2203"
       d="M 355.879,281.691 377.287,244.611 414.367,223.203 457.184,223.203 494.264,201.794 537.08,201.794 574.16,223.203 616.976,223.203 654.056,201.794 691.136,180.386 712.544,143.306 712.544,100.49 691.136,63.41 691.136,20.594" />
    <path
       style="stroke-width:15;stroke-miterlimit:4;stroke-dasharray:none"
       id="path2205"
       d="M 121.927,441.483 159.007,420.075 201.823,420.075 238.903,398.667" />
    <path
       style="stroke-width:15;stroke-miterlimit:4;stroke-dasharray:none"
       id="path2207"
       d="M 435.776,260.283 457.184,223.203" />
    <path
       style="stroke-width:15;stroke-miterlimit:4;stroke-dasharray:none"
       id="path2209"
       d="M 733.953,20.594 771.033,42.002 792.441,79.082 829.521,100.49 850.929,137.57 850.929,180.386 872.337,217.466 872.337,260.283 850.929,297.362 813.849,318.771 776.769,340.179 733.953,340.179 696.873,318.771 675.464,281.691 638.385,260.283 616.976,223.203 616.976,180.386 595.568,143.306 595.568,100.49 616.976,63.41 654.056,42.002 691.136,20.594" />
    <path
       style="stroke-width:15;stroke-miterlimit:4;stroke-dasharray:none"
       id="path2211"
       d="M 281.719,718.252 281.719,675.436" />
    <path
       style="stroke-width:15;stroke-miterlimit:4;stroke-dasharray:none"
       id="path2213"
       d="M 500,850.9 521.408,813.82" />
    <path
       style="stroke-width:15;stroke-miterlimit:4;stroke-dasharray:none"
       id="path2215"
       d="M 558.488,792.412 601.305,792.412 638.385,771.004 659.793,733.924" />
    <path
       style="stroke-width:15;stroke-miterlimit:4;stroke-dasharray:none"
       id="path2217"
       d="M 579.896,829.492 601.305,792.412" />
    <path
       style="stroke-width:15;stroke-miterlimit:4;stroke-dasharray:none"
       id="path2219"
       d="M 638.385,771.004 681.201,771.004 718.281,749.596 739.689,712.516 776.769,691.108 798.177,654.028" />
    <path
       style="stroke-width:15;stroke-miterlimit:4;stroke-dasharray:none"
       id="path2221"
       d="M 420.104,872.308 441.512,835.228 441.512,792.412" />
    <path
       style="stroke-width:15;stroke-miterlimit:4;stroke-dasharray:none"
       id="path2223"
       d="M 441.512,835.228 478.592,813.82" />
    <path
       style="stroke-width:15;stroke-miterlimit:4;stroke-dasharray:none"
       id="path2225"
       d="M 696.873,712.516 739.689,712.516" />
    <path
       style="stroke-width:15;stroke-miterlimit:4;stroke-dasharray:none"
       id="path2227"
       d="M 973.641,392.931 952.233,355.851 915.153,334.443 872.337,334.443 835.257,355.851 798.177,377.259 776.769,414.339 776.769,457.155 798.177,494.235 798.177,537.051 819.585,574.131 856.665,595.539 878.073,632.62 915.153,654.028 957.97,654.028 995.05,632.62" />
    <path
       style="stroke-width:15;stroke-miterlimit:4;stroke-dasharray:none"
       id="path2229"
       d="M 223.231,659.764 223.231,616.948" />
    <path
       style="stroke-width:15;stroke-miterlimit:4;stroke-dasharray:none"
       id="path2231"
       d="M 180.415,616.948 201.823,579.868" />
    <path
       style="stroke-width:15;stroke-miterlimit:4;stroke-dasharray:none"
       id="path2233"
       d="M 79.11,441.483 100.519,404.403 137.599,382.995 180.415,382.995 217.495,361.587 238.903,324.507" />
    <path
       style="stroke-width:15;stroke-miterlimit:4;stroke-dasharray:none"
       id="path2235"
       d="M 238.903,324.507 238.903,281.691 217.495,244.611 217.495,201.794 238.903,164.714 275.983,143.306 318.799,143.306 355.879,164.714" />
    <path
       style="stroke-width:15;stroke-miterlimit:4;stroke-dasharray:none"
       id="path2237"
       d="M 238.903,281.691 275.983,303.099" />
    <path
       style="stroke-width:15;stroke-miterlimit:4;stroke-dasharray:none"
       id="path2239"
       d="M 377.287,244.611 340.207,223.203 318.799,186.123 318.799,143.306 297.391,106.226 297.391,63.41 318.799,26.33" />
    <path
       style="stroke-width:15;stroke-miterlimit:4;stroke-dasharray:none"
       id="path2241"
       d="M 201.823,462.891 201.823,420.075" />
    <path
       style="stroke-width:15;stroke-miterlimit:4;stroke-dasharray:none"
       id="path2243"
       d="M 377.287,201.794 414.367,223.203" />
    <path
       style="stroke-width:15;stroke-miterlimit:4;stroke-dasharray:none"
       id="path2245"
       d="M 537.08,201.794 515.672,164.714 478.592,143.306 457.184,106.226 457.184,63.41 435.776,26.33" />
    <path
       style="stroke-width:15;stroke-miterlimit:4;stroke-dasharray:none"
       id="path2247"
       d="M 494.264,201.794 515.672,164.714 552.752,143.306 595.568,143.306 632.648,121.898 654.056,84.818 691.136,63.41 733.953,63.41 771.033,42.002 792.441,4.922" />
    <path
       style="stroke-width:15;stroke-miterlimit:4;stroke-dasharray:none"
       id="path2249"
       d="M 733.953,297.362 755.361,260.283" />
    <path
       style="stroke-width:15;stroke-miterlimit:4;stroke-dasharray:none"
       id="path2251"
       d="M 675.464,238.874 712.544,260.283" />
    <path
       style="stroke-width:15;stroke-miterlimit:4;stroke-dasharray:none"
       id="path2253"
       d="M 973.641,275.954 952.233,238.874 952.233,196.058 930.825,158.978 893.745,137.57 850.929,137.57 813.849,158.978 776.769,180.386 755.361,217.466 755.361,260.283 776.769,297.362 776.769,340.179 798.177,377.259 835.257,398.667 856.665,435.747 893.745,457.155 936.561,457.155 973.641,435.747" />
    <path
       style="stroke-width:15;stroke-miterlimit:4;stroke-dasharray:none"
       id="path2255"
       d="M 260.311,755.332 303.128,755.332" />
    <path
       style="stroke-width:15;stroke-miterlimit:4;stroke-dasharray:none"
       id="path2257"
       d="M 127.663,973.613 164.743,952.205 201.823,930.797 244.639,930.797 281.719,952.205 324.536,952.205 361.616,930.797 404.432,930.797 441.512,909.388 462.92,872.308 500,850.9 542.816,850.9 579.896,829.492" />
    <path
       style="stroke-width:15;stroke-miterlimit:4;stroke-dasharray:none"
       id="path2259"
       d="M 542.816,850.9 579.896,872.308" />
    <path
       style="stroke-width:15;stroke-miterlimit:4;stroke-dasharray:none"
       id="path2261"
       d="M 579.896,829.492 616.976,850.9 638.385,887.98 638.385,930.797 659.793,967.877 702.609,967.877 739.689,946.468 761.097,909.388 798.177,887.98 819.585,850.9" />
    <path
       style="stroke-width:15;stroke-miterlimit:4;stroke-dasharray:none"
       id="path2263"
       d="M 739.689,872.308 739.689,829.492 718.281,792.412 681.201,771.004" />
    <path
       style="stroke-width:15;stroke-miterlimit:4;stroke-dasharray:none"
       id="path2265"
       d="M 718.281,792.412 718.281,749.596" />
    <path
       style="stroke-width:15;stroke-miterlimit:4;stroke-dasharray:none"
       id="path2267"
       d="M 776.769,691.108 819.585,691.108 856.665,669.7 878.073,632.62 915.153,611.211 957.97,611.211 995.05,632.62" />
    <path
       style="stroke-width:15;stroke-miterlimit:4;stroke-dasharray:none"
       id="path2269"
       d="M 813.849,435.747 856.665,435.747" />
    <path
       style="stroke-width:15;stroke-miterlimit:4;stroke-dasharray:none"
       id="path2271"
       d="M 835.257,515.643 835.257,472.827" />
    <path
       style="stroke-width:15;stroke-miterlimit:4;stroke-dasharray:none"
       id="path2273"
       d="M 84.847,739.66 121.927,718.252 159.007,696.844 180.415,659.764 180.415,616.948 159.007,579.868 159.007,537.051 137.599,499.971 100.519,478.563 79.11,441.483 42.03,420.075" />
    <path
       style="stroke-width:15;stroke-miterlimit:4;stroke-dasharray:none"
       id="path2275"
       d="M 159.007,579.868 121.927,558.46 100.519,521.38 63.439,499.971 20.622,499.971" />
    <path
       style="stroke-width:15;stroke-miterlimit:4;stroke-dasharray:none"
       id="path2277"
       d="M 63.439,542.788 100.519,521.38 137.599,499.971 159.007,462.891 159.007,420.075 180.415,382.995" />
    <path
       style="stroke-width:15;stroke-miterlimit:4;stroke-dasharray:none"
       id="path2279"
       d="M 159.007,420.075 137.599,382.995 137.599,340.179 116.19,303.099 79.11,281.691 57.702,244.611 20.622,223.203" />
    <path
       style="stroke-width:15;stroke-miterlimit:4;stroke-dasharray:none"
       id="path2281"
       d="M 574.16,180.386 595.568,143.306" />
    <path
       style="stroke-width:15;stroke-miterlimit:4;stroke-dasharray:none"
       id="path2283"
       d="M 515.672,164.714 515.672,121.898 494.264,84.818 494.264,42.002" />
    <path
       style="stroke-width:15;stroke-miterlimit:4;stroke-dasharray:none"
       id="path2285"
       d="M 776.769,297.362 813.849,318.771" />
    <path
       style="stroke-width:15;stroke-miterlimit:4;stroke-dasharray:none"
       id="path2287"
       d="M 813.849,201.794 813.849,158.978 792.441,121.898 755.361,100.49 712.544,100.49 675.464,121.898 654.056,158.978 654.056,201.794" />
    <path
       style="stroke-width:15;stroke-miterlimit:4;stroke-dasharray:none"
       id="path2289"
       d="M 616.976,180.386 654.056,158.978" />
    <path
       style="stroke-width:15;stroke-miterlimit:4;stroke-dasharray:none"
       id="path2291"
       d="M 223.231,733.924 260.311,755.332 281.719,792.412 318.799,813.82 340.207,850.9 340.207,893.717 361.616,930.797 361.616,973.613" />
    <path
       style="stroke-width:15;stroke-miterlimit:4;stroke-dasharray:none"
       id="path2293"
       d="M 281.719,792.412 244.639,813.82 201.823,813.82 164.743,835.228 143.335,872.308 143.335,915.125 164.743,952.205 201.823,973.613" />
    <path
       style="stroke-width:15;stroke-miterlimit:4;stroke-dasharray:none"
       id="path2295"
       d="M 223.231,733.924 223.231,776.74 244.639,813.82 244.639,856.637 266.047,893.717 303.128,915.125 324.536,952.205 361.616,973.613" />
    <path
       style="stroke-width:15;stroke-miterlimit:4;stroke-dasharray:none"
       id="path2297"
       d="M 579.896,989.285 542.816,967.877 500,967.877 478.592,930.797 441.512,909.388 420.104,872.308 383.024,850.9 340.207,850.9 303.128,872.308 266.047,893.717 244.639,930.797 244.639,973.613" />
    <path
       style="stroke-width:15;stroke-miterlimit:4;stroke-dasharray:none"
       id="path2299"
       d="M 835.257,632.62 878.073,632.62" />
    <path
       style="stroke-width:15;stroke-miterlimit:4;stroke-dasharray:none"
       id="path2301"
       d="M 819.585,691.108 819.585,733.924 840.993,771.004 878.073,792.412 899.481,829.492 936.561,850.9" />
    <path
       style="stroke-width:15;stroke-miterlimit:4;stroke-dasharray:none"
       id="path2303"
       d="M 835.257,398.667 872.337,377.259 915.153,377.259 952.233,355.851 973.641,318.771" />
    <path
       style="stroke-width:15;stroke-miterlimit:4;stroke-dasharray:none"
       id="path2305"
       d="M 856.665,552.723 893.745,574.131 936.561,574.131 973.641,552.723" />
    <path
       style="stroke-width:15;stroke-miterlimit:4;stroke-dasharray:none"
       id="path2307"
       d="M 856.665,595.539 893.745,574.131" />
    <path
       style="stroke-width:15;stroke-miterlimit:4;stroke-dasharray:none"
       id="path2309"
       d="M 100.519,638.356 143.335,638.356" />
    <path
       style="stroke-width:15;stroke-miterlimit:4;stroke-dasharray:none"
       id="path2311"
       d="M 121.927,601.276 121.927,558.46" />
    <path
       style="stroke-width:15;stroke-miterlimit:4;stroke-dasharray:none"
       id="path2313"
       d="M 63.439,616.948 100.519,638.356 121.927,675.436 159.007,696.844 180.415,733.924 180.415,776.74 201.823,813.82 201.823,856.637 180.415,893.717 143.335,915.125 106.255,936.533 63.439,936.533 26.359,915.125" />
    <path
       style="stroke-width:15;stroke-miterlimit:4;stroke-dasharray:none"
       id="path2315"
       d="M 20.622,266.019 57.702,244.611 100.519,244.611 137.599,266.019 180.415,266.019 217.495,244.611 254.575,223.203 275.983,186.123 275.983,143.306 254.575,106.226 254.575,63.41 233.167,26.33" />
    <path
       style="stroke-width:15;stroke-miterlimit:4;stroke-dasharray:none"
       id="path2317"
       d="M 100.519,244.611 137.599,223.203 180.415,223.203 217.495,244.611" />
    <path
       style="stroke-width:15;stroke-miterlimit:4;stroke-dasharray:none"
       id="path2319"
       d="M 137.599,382.995 100.519,361.587 79.11,324.507 42.03,303.099 20.622,266.019" />
    <path
       style="stroke-width:15;stroke-miterlimit:4;stroke-dasharray:none"
       id="path2321"
       d="M 392.959,26.33 414.367,63.41 414.367,106.226 392.959,143.306 355.879,164.714 318.799,186.123 275.983,186.123 238.903,164.714 217.495,127.634 180.415,106.226 159.007,69.146 159.007,26.33" />
    <path
       style="stroke-width:15;stroke-miterlimit:4;stroke-dasharray:none"
       id="path2323"
       d="M 121.927,441.483 100.519,404.403 63.439,382.995 42.03,345.915 42.03,303.099" />
    <path
       style="stroke-width:15;stroke-miterlimit:4;stroke-dasharray:none"
       id="path2325"
       d="M 100.519,521.38 100.519,478.563 121.927,441.483" />
    <path
       style="stroke-width:15;stroke-miterlimit:4;stroke-dasharray:none"
       id="path2327"
       d="M 515.672,121.898 552.752,143.306" />
    <path
       style="stroke-width:15;stroke-miterlimit:4;stroke-dasharray:none"
       id="path2329"
       d="M 318.799,26.33 355.879,47.738 377.287,84.818 414.367,106.226 457.184,106.226 494.264,84.818 531.344,63.41" />
    <path
       style="stroke-width:15;stroke-miterlimit:4;stroke-dasharray:none"
       id="path2331"
       d="M 872.337,377.259 872.337,334.443 850.929,297.362 813.849,275.954" />
    <path
       style="stroke-width:15;stroke-miterlimit:4;stroke-dasharray:none"
       id="path2333"
       d="M 792.441,238.874 835.257,238.874" />
    <path
       style="stroke-width:15;stroke-miterlimit:4;stroke-dasharray:none"
       id="path2335"
       d="M 201.823,813.82 223.231,776.74" />
    <path
       style="stroke-width:15;stroke-miterlimit:4;stroke-dasharray:none"
       id="path2337"
       d="M 244.639,813.82 281.719,835.228" />
    <path
       style="stroke-width:15;stroke-miterlimit:4;stroke-dasharray:none"
       id="path2339"
       d="M 542.816,967.877 564.224,930.797 601.305,909.388 638.385,887.98 681.201,887.98 718.281,909.388 739.689,946.468 739.689,989.285" />
    <path
       style="stroke-width:15;stroke-miterlimit:4;stroke-dasharray:none"
       id="path2341"
       d="M 601.305,909.388 601.305,952.205 579.896,989.285" />
    <path
       style="stroke-width:15;stroke-miterlimit:4;stroke-dasharray:none"
       id="path2343"
       d="M 441.512,909.388 441.512,952.205 462.92,989.285" />
    <path
       style="stroke-width:15;stroke-miterlimit:4;stroke-dasharray:none"
       id="path2345"
       d="M 739.689,829.492 776.769,808.084 819.585,808.084 856.665,829.492 878.073,866.572 915.153,887.98 936.561,925.06 936.561,967.877 899.481,989.285 862.402,967.877 840.993,930.797 840.993,887.98 819.585,850.9" />
    <path
       style="stroke-width:15;stroke-miterlimit:4;stroke-dasharray:none"
       id="path2347"
       d="M 739.689,829.492 776.769,850.9" />
    <path
       style="stroke-width:15;stroke-miterlimit:4;stroke-dasharray:none"
       id="path2349"
       d="M 361.616,930.797 383.024,893.717" />
    <path
       style="stroke-width:15;stroke-miterlimit:4;stroke-dasharray:none"
       id="path2351"
       d="M 856.665,712.516 856.665,669.7" />
    <path
       style="stroke-width:15;stroke-miterlimit:4;stroke-dasharray:none"
       id="path2353"
       d="M 819.585,850.9 819.585,808.084 840.993,771.004 878.073,749.596 915.153,728.188 957.97,728.188 995.05,749.596" />
    <path
       style="stroke-width:15;stroke-miterlimit:4;stroke-dasharray:none"
       id="path2355"
       d="M 893.745,414.339 915.153,377.259" />
    <path
       style="stroke-width:15;stroke-miterlimit:4;stroke-dasharray:none"
       id="path2357"
       d="M 121.927,718.252 121.927,675.436" />
    <path
       style="stroke-width:15;stroke-miterlimit:4;stroke-dasharray:none"
       id="path2359"
       d="M 63.439,499.971 100.519,478.563" />
    <path
       style="stroke-width:15;stroke-miterlimit:4;stroke-dasharray:none"
       id="path2361"
       d="M 238.903,164.714 196.087,164.714 159.007,186.123 137.599,223.203 137.599,266.019 116.19,303.099 79.11,324.507 42.03,345.915" />
    <path
       style="stroke-width:15;stroke-miterlimit:4;stroke-dasharray:none"
       id="path2363"
       d="M 180.415,223.203 217.495,201.794" />
    <path
       style="stroke-width:15;stroke-miterlimit:4;stroke-dasharray:none"
       id="path2365"
       d="M 100.519,404.403 100.519,361.587" />
    <path
       style="stroke-width:15;stroke-miterlimit:4;stroke-dasharray:none"
       id="path2367"
       d="M 318.799,143.306 355.879,121.898" />
    <path
       style="stroke-width:15;stroke-miterlimit:4;stroke-dasharray:none"
       id="path2369"
       d="M 632.648,121.898 675.464,121.898 712.544,143.306 755.361,143.306 792.441,121.898 829.521,100.49 850.929,63.41 850.929,20.594" />
    <path
       style="stroke-width:15;stroke-miterlimit:4;stroke-dasharray:none"
       id="path2371"
       d="M 457.184,63.41 494.264,84.818" />
    <path
       style="stroke-width:15;stroke-miterlimit:4;stroke-dasharray:none"
       id="path2373"
       d="M 733.953,20.594 733.953,63.41 755.361,100.49 755.361,143.306 776.769,180.386 813.849,201.794 835.257,238.874 872.337,260.283 915.153,260.283 952.233,238.874 989.313,217.466" />
    <path
       style="stroke-width:15;stroke-miterlimit:4;stroke-dasharray:none"
       id="path2375"
       d="M 616.976,63.41 654.056,84.818 675.464,121.898" />
    <path
       style="stroke-width:15;stroke-miterlimit:4;stroke-dasharray:none"
       id="path2377"
       d="M 244.639,973.613 281.719,952.205 303.128,915.125 303.128,872.308" />
    <path
       style="stroke-width:15;stroke-miterlimit:4;stroke-dasharray:none"
       id="path2379"
       d="M 303.128,915.125 340.207,893.717" />
    <path
       style="stroke-width:15;stroke-miterlimit:4;stroke-dasharray:none"
       id="path2381"
       d="M 143.335,798.148 143.335,755.332" />
    <path
       style="stroke-width:15;stroke-miterlimit:4;stroke-dasharray:none"
       id="path2383"
       d="M 893.745,20.594 930.825,42.002 952.233,79.082 952.233,121.898" />
    <path
       style="stroke-width:15;stroke-miterlimit:4;stroke-dasharray:none"
       id="path2385"
       d="M 601.305,952.205 638.385,930.797" />
    <path
       style="stroke-width:15;stroke-miterlimit:4;stroke-dasharray:none"
       id="path2387"
       d="M 404.432,930.797 441.512,952.205" />
    <path
       style="stroke-width:15;stroke-miterlimit:4;stroke-dasharray:none"
       id="path2389"
       d="M 100.519,244.611 79.11,207.531 79.11,164.714 57.702,127.634 57.702,84.818 36.294,47.738 57.702,10.658" />
    <path
       style="stroke-width:15;stroke-miterlimit:4;stroke-dasharray:none"
       id="path2391"
       d="M 462.92,989.285 500,967.877" />
    <path
       style="stroke-width:15;stroke-miterlimit:4;stroke-dasharray:none"
       id="path2393"
       d="M 915.153,611.211 936.561,574.131 936.561,531.315 957.97,494.235" />
    <path
       style="stroke-width:15;stroke-miterlimit:4;stroke-dasharray:none"
       id="path2395"
       d="M 878.073,749.596 915.153,771.004 957.97,771.004 995.05,749.596" />
    <path
       style="stroke-width:15;stroke-miterlimit:4;stroke-dasharray:none"
       id="path2397"
       d="M 878.073,792.412 915.153,771.004" />
    <path
       style="stroke-width:15;stroke-miterlimit:4;stroke-dasharray:none"
       id="path2399"
       d="M 957.97,494.235 936.561,457.155 936.561,414.339 915.153,377.259 915.153,334.443 936.561,297.362 973.641,275.954" />
    <path
       style="stroke-width:15;stroke-miterlimit:4;stroke-dasharray:none"
       id="path2401"
       d="M 936.561,414.339 973.641,435.747" />
    <path
       style="stroke-width:15;stroke-miterlimit:4;stroke-dasharray:none"
       id="path2403"
       d="M 979.378,691.108 957.97,654.028 957.97,611.211 936.561,574.131" />
    <path
       style="stroke-width:15;stroke-miterlimit:4;stroke-dasharray:none"
       id="path2405"
       d="M 84.847,739.66 84.847,696.844" />
    <path
       style="stroke-width:15;stroke-miterlimit:4;stroke-dasharray:none"
       id="path2407"
       d="M 20.622,776.74 42.03,739.66 42.03,696.844 63.439,659.764" />
    <path
       style="stroke-width:15;stroke-miterlimit:4;stroke-dasharray:none"
       id="path2409"
       d="M 233.167,26.33 196.087,47.738 159.007,69.146 116.19,69.146 79.11,47.738 36.294,47.738" />
    <path
       style="stroke-width:15;stroke-miterlimit:4;stroke-dasharray:none"
       id="path2411"
       d="M 57.702,84.818 79.11,47.738 116.19,26.33" />
    <path
       style="stroke-width:15;stroke-miterlimit:4;stroke-dasharray:none"
       id="path2413"
       d="M 79.11,324.507 79.11,281.691 100.519,244.611" />
    <path
       style="stroke-width:15;stroke-miterlimit:4;stroke-dasharray:none"
       id="path2415"
       d="M 79.11,164.714 116.19,186.123 137.599,223.203" />
    <path
       style="stroke-width:15;stroke-miterlimit:4;stroke-dasharray:none"
       id="path2417"
       d="M 57.702,244.611 79.11,207.531 116.19,186.123 159.007,186.123" />
    <path
       style="stroke-width:15;stroke-miterlimit:4;stroke-dasharray:none"
       id="path2419"
       d="M 196.087,164.714 217.495,127.634 254.575,106.226 297.391,106.226 334.471,84.818 377.287,84.818" />
    <path
       style="stroke-width:15;stroke-miterlimit:4;stroke-dasharray:none"
       id="path2421"
       d="M 79.11,281.691 42.03,303.099" />
    <path
       style="stroke-width:15;stroke-miterlimit:4;stroke-dasharray:none"
       id="path2423"
       d="M 275.983,143.306 297.391,106.226" />
    <path
       style="stroke-width:15;stroke-miterlimit:4;stroke-dasharray:none"
       id="path2425"
       d="M 334.471,84.818 355.879,47.738 392.959,26.33" />
    <path
       style="stroke-width:15;stroke-miterlimit:4;stroke-dasharray:none"
       id="path2427"
       d="M 79.11,47.738 57.702,10.658" />
    <path
       style="stroke-width:15;stroke-miterlimit:4;stroke-dasharray:none"
       id="path2429"
       d="M 414.367,63.41 435.776,26.33" />
    <path
       style="stroke-width:15;stroke-miterlimit:4;stroke-dasharray:none"
       id="path2431"
       d="M 654.056,84.818 654.056,42.002" />
    <path
       style="stroke-width:15;stroke-miterlimit:4;stroke-dasharray:none"
       id="path2433"
       d="M 771.033,42.002 813.849,42.002 850.929,63.41 893.745,63.41 930.825,42.002" />
    <path
       style="stroke-width:15;stroke-miterlimit:4;stroke-dasharray:none"
       id="path2435"
       d="M 952.233,79.082 989.313,100.49" />
    <path
       style="stroke-width:15;stroke-miterlimit:4;stroke-dasharray:none"
       id="path2437"
       d="M 872.337,217.466 893.745,180.386" />
    <path
       style="stroke-width:15;stroke-miterlimit:4;stroke-dasharray:none"
       id="path2439"
       d="M 813.849,158.978 850.929,180.386" />
    <path
       style="stroke-width:15;stroke-miterlimit:4;stroke-dasharray:none"
       id="path2441"
       d="M 712.544,100.49 733.953,63.41" />
    <path
       style="stroke-width:15;stroke-miterlimit:4;stroke-dasharray:none"
       id="path2443"
       d="M 973.641,318.771 936.561,297.362 915.153,260.283 915.153,217.466 893.745,180.386 893.745,137.57 915.153,100.49 952.233,79.082" />
    <path
       style="stroke-width:15;stroke-miterlimit:4;stroke-dasharray:none"
       id="path2445"
       d="M 121.927,835.228 164.743,835.228" />
    <path
       style="stroke-width:15;stroke-miterlimit:4;stroke-dasharray:none"
       id="path2447"
       d="M 681.201,930.797 659.793,967.877 622.713,989.285" />
    <path
       style="stroke-width:15;stroke-miterlimit:4;stroke-dasharray:none"
       id="path2449"
       d="M 718.281,909.388 761.097,909.388" />
    <path
       style="stroke-width:15;stroke-miterlimit:4;stroke-dasharray:none"
       id="path2451"
       d="M 798.177,887.98 840.993,887.98 878.073,866.572 899.481,829.492 936.561,808.084 957.97,771.004 957.97,728.188 979.378,691.108" />
    <path
       style="stroke-width:15;stroke-miterlimit:4;stroke-dasharray:none"
       id="path2453"
       d="M 324.536,952.205 303.128,989.285" />
    <path
       style="stroke-width:15;stroke-miterlimit:4;stroke-dasharray:none"
       id="path2455"
       d="M 856.665,829.492 899.481,829.492" />
    <path
       style="stroke-width:15;stroke-miterlimit:4;stroke-dasharray:none"
       id="path2457"
       d="M 20.622,149.043 57.702,127.634 94.782,106.226 116.19,69.146 116.19,26.33" />
    <path
       style="stroke-width:15;stroke-miterlimit:4;stroke-dasharray:none"
       id="path2459"
       d="M 57.702,84.818 20.622,106.226" />
    <path
       style="stroke-width:15;stroke-miterlimit:4;stroke-dasharray:none"
       id="path2461"
       d="M 42.03,696.844 20.622,659.764" />
    <path
       style="stroke-width:15;stroke-miterlimit:4;stroke-dasharray:none"
       id="path2463"
       d="M 79.11,207.531 42.03,186.123 20.622,149.043" />
    <path
       style="stroke-width:15;stroke-miterlimit:4;stroke-dasharray:none"
       id="path2465"
       d="M 116.19,186.123 116.19,143.306 94.782,106.226 57.702,84.818" />
    <path
       style="stroke-width:15;stroke-miterlimit:4;stroke-dasharray:none"
       id="path2467"
       d="M 159.007,26.33 196.087,47.738 217.495,84.818 217.495,127.634" />
    <path
       style="stroke-width:15;stroke-miterlimit:4;stroke-dasharray:none"
       id="path2469"
       d="M 217.495,84.818 254.575,106.226" />
    <path
       style="stroke-width:15;stroke-miterlimit:4;stroke-dasharray:none"
       id="path2471"
       d="M 840.993,887.98 878.073,909.388 899.481,946.468 899.481,989.285" />
    <path
       style="stroke-width:15;stroke-miterlimit:4;stroke-dasharray:none"
       id="path2473"
       d="M 654.056,42.002 691.136,63.41" />
    <path
       style="stroke-width:15;stroke-miterlimit:4;stroke-dasharray:none"
       id="path2475"
       d="M 899.481,946.468 936.561,967.877" />
    <path
       style="stroke-width:15;stroke-miterlimit:4;stroke-dasharray:none"
       id="path2477"
       d="M 915.153,217.466 952.233,238.874" />
    <path
       style="stroke-width:15;stroke-miterlimit:4;stroke-dasharray:none"
       id="path2479"
       d="M 792.441,121.898 792.441,79.082 813.849,42.002 850.929,20.594" />
    <path
       style="stroke-width:15;stroke-miterlimit:4;stroke-dasharray:none"
       id="path2481"
       d="M 755.361,100.49 792.441,79.082" />
    <path
       style="stroke-width:15;stroke-miterlimit:4;stroke-dasharray:none"
       id="path2483"
       d="M 84.847,813.82 121.927,835.228 143.335,872.308 180.415,893.717 201.823,930.797 201.823,973.613" />
    <path
       style="stroke-width:15;stroke-miterlimit:4;stroke-dasharray:none"
       id="path2485"
       d="M 143.335,872.308 106.255,893.717 63.439,893.717 26.359,915.125" />
    <path
       style="stroke-width:15;stroke-miterlimit:4;stroke-dasharray:none"
       id="path2487"
       d="M 281.719,952.205 303.128,989.285" />
    <path
       style="stroke-width:15;stroke-miterlimit:4;stroke-dasharray:none"
       id="path2489"
       d="M 84.847,813.82 84.847,856.637 106.255,893.717 106.255,936.533 127.663,973.613" />
    <path
       style="stroke-width:15;stroke-miterlimit:4;stroke-dasharray:none"
       id="path2491"
       d="M 862.402,967.877 899.481,946.468 936.561,925.06" />
    <path
       style="stroke-width:15;stroke-miterlimit:4;stroke-dasharray:none"
       id="path2493"
       d="M 739.689,946.468 776.769,967.877" />
    <path
       style="stroke-width:15;stroke-miterlimit:4;stroke-dasharray:none"
       id="path2495"
       d="M 878.073,909.388 878.073,866.572" />
    <path
       style="stroke-width:15;stroke-miterlimit:4;stroke-dasharray:none"
       id="path2497"
       d="M 979.378,808.084 957.97,771.004" />
    <path
       style="stroke-width:15;stroke-miterlimit:4;stroke-dasharray:none"
       id="path2499"
       d="M 936.561,808.084 979.378,808.084" />
    <path
       style="stroke-width:15;stroke-miterlimit:4;stroke-dasharray:none"
       id="path2501"
       d="M 952.233,196.058 989.313,217.466" />
    <path
       style="stroke-width:15;stroke-miterlimit:4;stroke-dasharray:none"
       id="path2503"
       d="M 930.825,158.978 973.641,158.978" />
    <path
       style="stroke-width:15;stroke-miterlimit:4;stroke-dasharray:none"
       id="path2505"
       d="M 63.439,936.533 63.439,893.717 84.847,856.637" />
    <path
       style="stroke-width:15;stroke-miterlimit:4;stroke-dasharray:none"
       id="path2507"
       d="M 106.255,893.717 143.335,915.125" />
    <path
       style="stroke-width:15;stroke-miterlimit:4;stroke-dasharray:none"
       id="path2509"
       d="M 63.439,893.717 42.03,856.637 42.03,813.82 20.622,776.74" />
    <path
       style="stroke-width:15;stroke-miterlimit:4;stroke-dasharray:none"
       id="path2511"
       d="M 57.702,127.634 20.622,106.226" />
    <path
       style="stroke-width:15;stroke-miterlimit:4;stroke-dasharray:none"
       id="path2513"
       d="M 813.849,42.002 792.441,4.922" />
  </g>
</svg>
