<?xml version="1.0" encoding="UTF-8" standalone="no"?>
<svg
   xmlns:dc="http://purl.org/dc/elements/1.1/"
   xmlns:cc="http://creativecommons.org/ns#"
   xmlns:rdf="http://www.w3.org/1999/02/22-rdf-syntax-ns#"
   xmlns:svg="http://www.w3.org/2000/svg"
   xmlns="http://www.w3.org/2000/svg"
   xmlns:sodipodi="http://sodipodi.sourceforge.net/DTD/sodipodi-0.dtd"
   xmlns:inkscape="http://www.inkscape.org/namespaces/inkscape"
   inkscape:version="1.0beta1 (32d4812, 2019-09-19)"
   sodipodi:docname="5-uniform_196.svg"
   id="c:\kuniform\5u\5-uniform_196.svg"
   height="995.2264"
   width="1000.0"
   version="1.0">
  <style
     id="style4646"></style>
  <metadata
     id="metadata4083">
    <rdf:RDF>
      <cc:Work
         rdf:about="">
        <dc:format>image/svg+xml</dc:format>
        <dc:type
           rdf:resource="http://purl.org/dc/dcmitype/StillImage" />
        <dc:title></dc:title>
      </cc:Work>
    </rdf:RDF>
  </metadata>
  <defs
     id="defs4081" />
  <sodipodi:namedview
     inkscape:current-layer="c:\kuniform\5u\5-uniform_196.svg"
     inkscape:window-maximized="1"
     inkscape:window-y="23"
     inkscape:window-x="0"
     inkscape:cy="500.10449"
     inkscape:cx="419.1572"
     inkscape:zoom="0.69983333"
     showgrid="false"
     id="namedview4079"
     inkscape:window-height="1005"
     inkscape:window-width="1680"
     inkscape:pageshadow="2"
     inkscape:pageopacity="0"
     guidetolerance="10"
     gridtolerance="10"
     objecttolerance="10"
     borderopacity="1"
     inkscape:document-rotation="0"
     bordercolor="#666666"
     pagecolor="#ffffff" />
  <!-- X Coordinate transform: fx(x)=(x+78.84564)*0.8776625-->
  <!-- Y Coordinate transform: fy(y)=(1070.325-y)*0.8776625 -->
  <g
     id="g4076"
     style="stroke:#000000;stroke-width:16;stroke-opacity:1;fill-opacity:0;stroke-miterlimit:4;stroke-dasharray:none">
    <!-- Group: <Default>-->
    <path
       style="stroke-width:16;stroke-miterlimit:4;stroke-dasharray:none"
       id="path3854"
       d="M 529.973,538.557 551.914,576.561 573.856,614.565 611.86,636.506 655.743,636.506 699.626,636.506 743.509,636.506 781.513,614.565 803.455,576.561 825.396,538.557 847.338,500.553 847.338,456.67 825.396,418.666 803.455,380.662 781.513,342.658 743.509,320.716 699.626,320.716 655.743,320.716 611.86,320.716 573.856,342.658 551.914,380.662 529.973,418.666 508.031,456.67 508.031,500.553 529.973,538.557 551.914,500.553 551.914,456.67" />
    <path
       style="stroke-width:16;stroke-miterlimit:4;stroke-dasharray:none"
       id="path3856"
       d="M 508.031,500.553 464.148,500.553 426.144,478.611 404.203,440.607 404.203,396.724 426.144,358.72 448.086,320.716 470.027,282.713 508.031,260.771 551.914,260.771 589.918,282.713 611.86,320.716 633.801,358.72 655.743,396.724 655.743,440.607 633.801,478.611 595.797,500.553 551.914,500.553 Z" />
    <path
       style="stroke-width:16;stroke-miterlimit:4;stroke-dasharray:none"
       id="path3858"
       d="M 551.914,456.67 529.973,418.666 508.031,380.662 486.09,342.658 448.086,320.716 404.203,320.716 360.319,320.716 316.436,320.716 278.432,342.658 256.491,380.662 234.549,418.666 212.608,456.67 212.608,500.553 234.549,538.557 256.491,576.561 278.432,614.565 316.436,636.506 360.319,636.506 404.203,636.506 448.086,636.506 486.09,614.565 508.031,576.561 529.973,538.557" />
    <path
       style="stroke-width:16;stroke-miterlimit:4;stroke-dasharray:none"
       id="path3860"
       d="M 464.148,500.553 442.206,538.557 404.203,560.498 360.319,560.498 322.315,538.557 300.374,500.553 300.374,456.67 322.315,418.666 360.319,396.724 404.203,396.724 442.206,418.666 464.148,456.67 Z" />
    <path
       style="stroke-width:16;stroke-miterlimit:4;stroke-dasharray:none"
       id="path3862"
       d="M 508.031,456.67 464.148,456.67 426.144,478.611 404.203,516.615 404.203,560.498 426.144,598.502 448.086,636.506 470.027,674.51 508.031,696.452 551.914,696.452 589.918,674.51 611.86,636.506 633.801,598.502 655.743,560.498 655.743,516.615 633.801,478.611 595.797,456.67 551.914,456.67 Z" />
    <path
       style="stroke-width:16;stroke-miterlimit:4;stroke-dasharray:none"
       id="path3864"
       d="M 508.031,576.561 551.914,576.561 595.797,576.561 633.801,598.502 655.743,636.506 677.684,674.51 699.626,712.514 699.626,756.397 677.684,794.401 655.743,832.405 633.801,870.409 595.797,892.35 551.914,892.35 508.031,892.35 464.148,892.35 426.144,870.409 404.203,832.405 382.261,794.401 360.319,756.397 360.319,712.514 382.261,674.51 404.203,636.506 426.144,598.502 464.148,576.561 Z" />
    <path
       style="stroke-width:16;stroke-miterlimit:4;stroke-dasharray:none"
       id="path3866"
       d="M 442.206,538.557 464.148,576.561 486.09,614.565 508.031,652.568 508.031,696.452 486.09,734.455 448.086,756.397 404.203,756.397 360.319,756.397 316.436,756.397 278.432,734.455 256.491,696.452 256.491,652.568 278.432,614.565 300.374,576.561 322.315,538.557 360.319,516.615 404.203,516.615 Z" />
    <path
       style="stroke-width:16;stroke-miterlimit:4;stroke-dasharray:none"
       id="path3868"
       d="M 360.319,440.607 360.319,396.724 338.378,358.72 316.436,320.716 294.495,282.713 256.491,260.771 212.608,260.771 174.604,282.713 152.662,320.716 130.721,358.72 108.779,396.724 108.779,440.607 130.721,478.611 168.725,500.553 212.608,500.553 256.491,500.553 300.374,500.553 338.378,478.611 382.261,478.611 426.144,478.611" />
    <path
       style="stroke-width:16;stroke-miterlimit:4;stroke-dasharray:none"
       id="path3870"
       d="M 595.797,500.553 617.739,538.557 655.743,560.498 699.626,560.498 737.63,538.557 759.571,500.553 759.571,456.67 737.63,418.666 699.626,396.724 655.743,396.724 617.739,418.666 595.797,456.67 Z" />
    <path
       style="stroke-width:16;stroke-miterlimit:4;stroke-dasharray:none"
       id="path3872"
       d="M 595.797,576.561 617.739,538.557 655.743,516.615 699.626,516.615 737.63,538.557 759.571,576.561 781.513,614.565 803.455,652.568 803.455,696.452 781.513,734.455 743.509,756.397 699.626,756.397 655.743,756.397 611.86,756.397 573.856,734.455 551.914,696.452 551.914,652.568 573.856,614.565 Z" />
    <path
       style="stroke-width:16;stroke-miterlimit:4;stroke-dasharray:none"
       id="path3874"
       d="M 404.203,516.615 382.261,478.611 360.319,440.607 322.315,418.666 300.374,380.662 278.432,342.658 256.491,304.654 256.491,260.771 278.432,222.767 316.436,200.826 360.319,200.826 404.203,200.826 448.086,200.826 486.09,222.767 508.031,260.771 508.031,304.654 486.09,342.658 464.148,380.662 442.206,418.666 404.203,440.607" />
    <path
       style="stroke-width:16;stroke-miterlimit:4;stroke-dasharray:none"
       id="path3876"
       d="M 360.319,440.607 404.203,440.607" />
    <path
       style="stroke-width:16;stroke-miterlimit:4;stroke-dasharray:none"
       id="path3878"
       d="M 360.319,516.615 382.261,478.611 404.203,440.607" />
    <path
       style="stroke-width:16;stroke-miterlimit:4;stroke-dasharray:none"
       id="path3880"
       d="M 360.319,244.709 382.261,282.713 404.203,320.716 426.144,358.72 464.148,380.662 508.031,380.662 551.914,380.662 595.797,380.662 633.801,358.72 655.743,320.716 677.684,282.713 699.626,244.709 699.626,200.826 677.684,162.822 655.743,124.818 633.801,86.814 595.797,64.872 551.914,64.872 508.031,64.872 464.148,64.872 426.144,86.814 404.203,124.818 382.261,162.822 360.319,200.826 Z" />
    <path
       style="stroke-width:16;stroke-miterlimit:4;stroke-dasharray:none"
       id="path3882"
       d="M 633.801,478.611 677.684,478.611 721.568,478.611 759.571,500.553 803.455,500.553 847.338,500.553 891.221,500.553 929.225,478.611 951.166,440.607 951.166,396.724 929.225,358.72 907.283,320.716 885.342,282.713 847.338,260.771 803.455,260.771 765.451,282.713 743.509,320.716 721.568,358.72 699.626,396.724 699.626,440.607" />
    <path
       style="stroke-width:16;stroke-miterlimit:4;stroke-dasharray:none"
       id="path3884"
       d="M 508.031,652.568 551.914,652.568 589.918,674.51 611.86,712.514 611.86,756.397 589.918,794.401 551.914,816.342 508.031,816.342 470.027,794.401 448.086,756.397 448.086,712.514 470.027,674.51 Z" />
    <path
       style="stroke-width:16;stroke-miterlimit:4;stroke-dasharray:none"
       id="path3886"
       d="M 130.721,478.611 168.725,456.67 212.608,456.67 256.491,456.67 300.374,456.67 338.378,478.611 360.319,516.615 360.319,560.498 338.378,598.502 316.436,636.506 294.495,674.51 256.491,696.452 212.608,696.452 174.604,674.51 152.662,636.506 130.721,598.502 108.779,560.498 108.779,516.615 86.838,478.611 64.896,440.607 26.892,418.666 4.951,380.662" />
    <path
       style="stroke-width:16;stroke-miterlimit:4;stroke-dasharray:none"
       id="path3888"
       d="M 338.378,478.611 360.319,440.607" />
    <path
       style="stroke-width:16;stroke-miterlimit:4;stroke-dasharray:none"
       id="path3890"
       d="M 611.86,200.826 573.856,222.767 551.914,260.771 551.914,304.654 573.856,342.658 595.797,380.662 617.739,418.666 655.743,440.607 699.626,440.607 737.63,418.666 759.571,380.662 781.513,342.658 803.455,304.654 803.455,260.771 781.513,222.767 743.509,200.826 699.626,200.826 655.743,200.826 Z" />
    <path
       style="stroke-width:16;stroke-miterlimit:4;stroke-dasharray:none"
       id="path3892"
       d="M 655.743,516.615 677.684,478.611 699.626,440.607" />
    <path
       style="stroke-width:16;stroke-miterlimit:4;stroke-dasharray:none"
       id="path3894"
       d="M 699.626,516.615 677.684,478.611 655.743,440.607" />
    <path
       style="stroke-width:16;stroke-miterlimit:4;stroke-dasharray:none"
       id="path3896"
       d="M 633.801,990.3 655.743,952.296 655.743,908.413 633.801,870.409 611.86,832.405 589.918,794.401 551.914,772.459 529.973,734.455 508.031,696.452" />
    <path
       style="stroke-width:16;stroke-miterlimit:4;stroke-dasharray:none"
       id="path3898"
       d="M 486.09,734.455 448.086,712.514 404.203,712.514 360.319,712.514 316.436,712.514 278.432,734.455 256.491,772.459 256.491,816.342 278.432,854.346 300.374,892.35 322.315,930.354 360.319,952.296 404.203,952.296 442.206,930.354 464.148,892.35 486.09,854.346 508.031,816.342 508.031,772.459 529.973,734.455 551.914,696.452" />
    <path
       style="stroke-width:16;stroke-miterlimit:4;stroke-dasharray:none"
       id="path3900"
       d="M 212.608,576.561 256.491,576.561 300.374,576.561 338.378,598.502 360.319,636.506 382.261,674.51 404.203,712.514 404.203,756.397 382.261,794.401 360.319,832.405 338.378,870.409 300.374,892.35 256.491,892.35 212.608,892.35 168.725,892.35 130.721,870.409 108.779,832.405 86.838,794.401 64.896,756.397 64.896,712.514 86.838,674.51 108.779,636.506 130.721,598.502 168.725,576.561 Z" />
    <path
       style="stroke-width:16;stroke-miterlimit:4;stroke-dasharray:none"
       id="path3902"
       d="M 448.086,200.826 448.086,244.709 470.027,282.713 508.031,304.654 551.914,304.654 589.918,282.713 611.86,244.709 611.86,200.826 589.918,162.822 551.914,140.88 508.031,140.88 470.027,162.822 Z" />
    <path
       style="stroke-width:16;stroke-miterlimit:4;stroke-dasharray:none"
       id="path3904"
       d="M 847.338,456.67 803.455,456.67 759.571,456.67 721.568,478.611 699.626,516.615 699.626,560.498 721.568,598.502 743.509,636.506 765.451,674.51 803.455,696.452 847.338,696.452 885.342,674.51 907.283,636.506 929.225,598.502 951.166,560.498 951.166,516.615 929.225,478.611 891.221,456.67 Z" />
    <path
       style="stroke-width:16;stroke-miterlimit:4;stroke-dasharray:none"
       id="path3906"
       d="M 721.568,478.611 699.626,440.607" />
    <path
       style="stroke-width:16;stroke-miterlimit:4;stroke-dasharray:none"
       id="path3908"
       d="M 508.031,772.459 486.09,734.455" />
    <path
       style="stroke-width:16;stroke-miterlimit:4;stroke-dasharray:none"
       id="path3910"
       d="M 486.09,734.455 529.973,734.455 573.856,734.455" />
    <path
       style="stroke-width:16;stroke-miterlimit:4;stroke-dasharray:none"
       id="path3912"
       d="M 995.049,712.514 973.108,674.51 951.166,636.506 929.225,598.502 891.221,576.561 847.338,576.561 803.455,576.561 759.571,576.561 721.568,598.502 699.626,636.506 677.684,674.51 655.743,712.514 655.743,756.397 677.684,794.401 699.626,832.405 721.568,870.409 759.571,892.35 803.455,892.35 847.338,892.35 891.221,892.35 929.225,870.409 951.166,832.405 973.108,794.401 995.049,756.397" />
    <path
       style="stroke-width:16;stroke-miterlimit:4;stroke-dasharray:none"
       id="path3914"
       d="M 573.856,854.346 551.914,816.342 551.914,772.459 573.856,734.455 611.86,712.514 655.743,712.514 699.626,712.514 743.509,712.514 781.513,734.455 803.455,772.459 803.455,816.342 781.513,854.346 759.571,892.35 737.63,930.354 699.626,952.296 655.743,952.296 617.739,930.354 595.797,892.35 Z" />
    <path
       style="stroke-width:16;stroke-miterlimit:4;stroke-dasharray:none"
       id="path3916"
       d="M 404.203,244.709 382.261,282.713 360.319,320.716 338.378,358.72 300.374,380.662 256.491,380.662 212.608,380.662 168.725,380.662 130.721,358.72 108.779,320.716 86.838,282.713 64.896,244.709 64.896,200.826 86.838,162.822 108.779,124.818 130.721,86.814 168.725,64.872 212.608,64.872 256.491,64.872 300.374,64.872 338.378,86.814 360.319,124.818 382.261,162.822 404.203,200.826 Z" />
    <path
       style="stroke-width:16;stroke-miterlimit:4;stroke-dasharray:none"
       id="path3918"
       d="M 21.013,636.506 64.896,636.506 108.779,636.506 152.662,636.506 190.666,614.565 212.608,576.561 234.549,538.557 256.491,500.553 256.491,456.67 234.549,418.666 212.608,380.662 190.666,342.658 152.662,320.716 108.779,320.716 64.896,320.716 21.013,320.716" />
    <path
       style="stroke-width:16;stroke-miterlimit:4;stroke-dasharray:none"
       id="path3920"
       d="M 508.031,260.771 529.973,222.767 551.914,184.763 589.918,162.822 611.86,124.818 633.801,86.814 655.743,48.81 655.743,4.927" />
    <path
       style="stroke-width:16;stroke-miterlimit:4;stroke-dasharray:none"
       id="path3922"
       d="M 404.203,4.927 442.206,26.868 464.148,64.872 486.09,102.876 508.031,140.88 508.031,184.763 529.973,222.767 551.914,260.771" />
    <path
       style="stroke-width:16;stroke-miterlimit:4;stroke-dasharray:none"
       id="path3924"
       d="M 551.914,772.459 508.031,772.459 470.027,794.401 448.086,832.405 426.144,870.409 404.203,908.413 404.203,952.296 426.144,990.3" />
    <path
       style="stroke-width:16;stroke-miterlimit:4;stroke-dasharray:none"
       id="path3926"
       d="M 256.491,652.568 294.495,674.51 316.436,712.514 316.436,756.397 294.495,794.401 256.491,816.342 212.608,816.342 174.604,794.401 152.662,756.397 152.662,712.514 174.604,674.51 212.608,652.568 Z" />
    <path
       style="stroke-width:16;stroke-miterlimit:4;stroke-dasharray:none"
       id="path3928"
       d="M 360.319,4.927 322.315,26.868 300.374,64.872 278.432,102.876 256.491,140.88 256.491,184.763 278.432,222.767 316.436,244.709 360.319,244.709 404.203,244.709 448.086,244.709 486.09,222.767 508.031,184.763" />
    <path
       style="stroke-width:16;stroke-miterlimit:4;stroke-dasharray:none"
       id="path3930"
       d="M 486.09,222.767 529.973,222.767 573.856,222.767" />
    <path
       style="stroke-width:16;stroke-miterlimit:4;stroke-dasharray:none"
       id="path3932"
       d="M 995.049,200.826 973.108,162.822 951.166,124.818 929.225,86.814 891.221,64.872 847.338,64.872 803.455,64.872 759.571,64.872 721.568,86.814 699.626,124.818 677.684,162.822 655.743,200.826 655.743,244.709 677.684,282.713 699.626,320.716 721.568,358.72 759.571,380.662 803.455,380.662 847.338,380.662 891.221,380.662 929.225,358.72 951.166,320.716 973.108,282.713 995.049,244.709" />
    <path
       style="stroke-width:16;stroke-miterlimit:4;stroke-dasharray:none"
       id="path3934"
       d="M 699.626,4.927 737.63,26.868 759.571,64.872 781.513,102.876 803.455,140.88 803.455,184.763 781.513,222.767 743.509,244.709 699.626,244.709 655.743,244.709 611.86,244.709 573.856,222.767 551.914,184.763 551.914,140.88 573.856,102.876 595.797,64.872 617.739,26.868 655.743,4.927" />
    <path
       style="stroke-width:16;stroke-miterlimit:4;stroke-dasharray:none"
       id="path3936"
       d="M 995.049,636.506 951.166,636.506 907.283,636.506 869.279,614.565 847.338,576.561 825.396,538.557 803.455,500.553 803.455,456.67 825.396,418.666 847.338,380.662 869.279,342.658 907.283,320.716 951.166,320.716 995.049,320.716" />
    <path
       style="stroke-width:16;stroke-miterlimit:4;stroke-dasharray:none"
       id="path3938"
       d="M 743.509,712.514 765.451,674.51 803.455,652.568 847.338,652.568 885.342,674.51 907.283,712.514 907.283,756.397 885.342,794.401 847.338,816.342 803.455,816.342 765.451,794.401 743.509,756.397 Z" />
    <path
       style="stroke-width:16;stroke-miterlimit:4;stroke-dasharray:none"
       id="path3940"
       d="M 256.491,696.452 234.549,734.455 212.608,772.459 212.608,816.342 190.666,854.346 168.725,892.35 146.783,930.354 108.779,952.296 64.896,952.296 26.892,930.354 4.951,892.35" />
    <path
       style="stroke-width:16;stroke-miterlimit:4;stroke-dasharray:none"
       id="path3942"
       d="M 294.495,282.713 256.491,304.654 212.608,304.654 174.604,282.713 152.662,244.709 152.662,200.826 174.604,162.822 212.608,140.88 256.491,140.88 294.495,162.822 316.436,200.826 316.436,244.709 Z" />
    <path
       style="stroke-width:16;stroke-miterlimit:4;stroke-dasharray:none"
       id="path3944"
       d="M 4.951,456.67 26.892,418.666 64.896,396.724 108.779,396.724 146.783,418.666 168.725,456.67 168.725,500.553 146.783,538.557 108.779,560.498 64.896,560.498 26.892,538.557 4.951,500.553" />
    <path
       style="stroke-width:16;stroke-miterlimit:4;stroke-dasharray:none"
       id="path3946"
       d="M 404.203,4.927 404.203,48.81 426.144,86.814 448.086,124.818 470.027,162.822 508.031,184.763 551.914,184.763" />
    <path
       style="stroke-width:16;stroke-miterlimit:4;stroke-dasharray:none"
       id="path3948"
       d="M 130.721,990.3 168.725,968.358 212.608,968.358 234.549,930.354 256.491,892.35 278.432,854.346 316.436,832.405 360.319,832.405 404.203,832.405 448.086,832.405 486.09,854.346 508.031,892.35 529.973,930.354 551.914,968.358 595.797,968.358 633.801,990.3" />
    <path
       style="stroke-width:16;stroke-miterlimit:4;stroke-dasharray:none"
       id="path3950"
       d="M 426.144,990.3 464.148,968.358 508.031,968.358 529.973,930.354 551.914,892.35 573.856,854.346 611.86,832.405 655.743,832.405 699.626,832.405 743.509,832.405 781.513,854.346 803.455,892.35 825.396,930.354 847.338,968.358 891.221,968.358 929.225,990.3" />
    <path
       style="stroke-width:16;stroke-miterlimit:4;stroke-dasharray:none"
       id="path3952"
       d="M 64.896,756.397 108.779,756.397 152.662,756.397 190.666,734.455 234.549,734.455 278.432,734.455" />
    <path
       style="stroke-width:16;stroke-miterlimit:4;stroke-dasharray:none"
       id="path3954"
       d="M 803.455,696.452 825.396,734.455 847.338,772.459 847.338,816.342 869.279,854.346 891.221,892.35 913.162,930.354 951.166,952.296" />
    <path
       style="stroke-width:16;stroke-miterlimit:4;stroke-dasharray:none"
       id="path3956"
       d="M 781.513,734.455 825.396,734.455 869.279,734.455 907.283,756.397 951.166,756.397 995.049,756.397" />
    <path
       style="stroke-width:16;stroke-miterlimit:4;stroke-dasharray:none"
       id="path3958"
       d="M 4.951,576.561 26.892,538.557 64.896,516.615 108.779,516.615 146.783,538.557 168.725,576.561 190.666,614.565 212.608,652.568 212.608,696.452 190.666,734.455" />
    <path
       style="stroke-width:16;stroke-miterlimit:4;stroke-dasharray:none"
       id="path3960"
       d="M 256.491,772.459 234.549,734.455 212.608,696.452" />
    <path
       style="stroke-width:16;stroke-miterlimit:4;stroke-dasharray:none"
       id="path3962"
       d="M 64.896,200.826 108.779,200.826 152.662,200.826 190.666,222.767 212.608,260.771 212.608,304.654 190.666,342.658 168.725,380.662 146.783,418.666 108.779,440.607 64.896,440.607" />
    <path
       style="stroke-width:16;stroke-miterlimit:4;stroke-dasharray:none"
       id="path3964"
       d="M 256.491,260.771 234.549,222.767 212.608,184.763 174.604,162.822 152.662,124.818 130.721,86.814 108.779,48.81 108.779,4.927" />
    <path
       style="stroke-width:16;stroke-miterlimit:4;stroke-dasharray:none"
       id="path3966"
       d="M 108.779,516.615 130.721,478.611" />
    <path
       style="stroke-width:16;stroke-miterlimit:4;stroke-dasharray:none"
       id="path3968"
       d="M 130.721,478.611 86.838,478.611 42.954,478.611 4.951,500.553" />
    <path
       style="stroke-width:16;stroke-miterlimit:4;stroke-dasharray:none"
       id="path3970"
       d="M 885.342,162.822 907.283,200.826 907.283,244.709 885.342,282.713 847.338,304.654 803.455,304.654 765.451,282.713 743.509,244.709 743.509,200.826 765.451,162.822 803.455,140.88 847.338,140.88 Z" />
    <path
       style="stroke-width:16;stroke-miterlimit:4;stroke-dasharray:none"
       id="path3972"
       d="M 951.166,560.498 913.162,538.557 891.221,500.553 891.221,456.67 913.162,418.666 951.166,396.724" />
    <path
       style="stroke-width:16;stroke-miterlimit:4;stroke-dasharray:none"
       id="path3974"
       d="M 338.378,990.3 360.319,952.296 360.319,908.413 338.378,870.409 316.436,832.405 294.495,794.401 256.491,772.459 212.608,772.459 174.604,794.401 152.662,832.405 130.721,870.409 108.779,908.413 108.779,952.296 86.838,990.3" />
    <path
       style="stroke-width:16;stroke-miterlimit:4;stroke-dasharray:none"
       id="path3976"
       d="M 869.279,734.455 847.338,696.452 847.338,652.568 869.279,614.565 891.221,576.561 913.162,538.557 951.166,516.615 995.049,516.615" />
    <path
       style="stroke-width:16;stroke-miterlimit:4;stroke-dasharray:none"
       id="path3978"
       d="M 803.455,772.459 825.396,734.455 847.338,696.452" />
    <path
       style="stroke-width:16;stroke-miterlimit:4;stroke-dasharray:none"
       id="path3980"
       d="M 721.568,990.3 699.626,952.296 699.626,908.413 721.568,870.409 743.509,832.405 765.451,794.401 803.455,772.459 847.338,772.459 885.342,794.401 907.283,832.405 929.225,870.409 951.166,908.413 951.166,952.296 929.225,990.3" />
    <path
       style="stroke-width:16;stroke-miterlimit:4;stroke-dasharray:none"
       id="path3982"
       d="M 64.896,712.514 108.779,712.514 152.662,712.514 190.666,734.455 212.608,772.459" />
    <path
       style="stroke-width:16;stroke-miterlimit:4;stroke-dasharray:none"
       id="path3984"
       d="M 212.608,260.771 234.549,222.767 256.491,184.763" />
    <path
       style="stroke-width:16;stroke-miterlimit:4;stroke-dasharray:none"
       id="path3986"
       d="M 190.666,222.767 234.549,222.767 278.432,222.767" />
    <path
       style="stroke-width:16;stroke-miterlimit:4;stroke-dasharray:none"
       id="path3988"
       d="M 64.896,516.615 86.838,478.611 108.779,440.607" />
    <path
       style="stroke-width:16;stroke-miterlimit:4;stroke-dasharray:none"
       id="path3990"
       d="M 529.973,26.868 508.031,64.872 486.09,102.876 448.086,124.818 404.203,124.818 360.319,124.818 316.436,124.818 278.432,102.876 256.491,64.872 234.549,26.868" />
    <path
       style="stroke-width:16;stroke-miterlimit:4;stroke-dasharray:none"
       id="path3992"
       d="M 529.973,26.868 551.914,64.872 573.856,102.876 611.86,124.818 655.743,124.818 699.626,124.818 743.509,124.818 781.513,102.876 803.455,64.872 825.396,26.868" />
    <path
       style="stroke-width:16;stroke-miterlimit:4;stroke-dasharray:none"
       id="path3994"
       d="M 803.455,260.771 825.396,222.767 847.338,184.763 847.338,140.88 869.279,102.876 891.221,64.872 913.162,26.868 951.166,4.927" />
    <path
       style="stroke-width:16;stroke-miterlimit:4;stroke-dasharray:none"
       id="path3996"
       d="M 781.513,222.767 825.396,222.767 869.279,222.767 907.283,200.826 951.166,200.826 995.049,200.826" />
    <path
       style="stroke-width:16;stroke-miterlimit:4;stroke-dasharray:none"
       id="path3998"
       d="M 869.279,222.767 847.338,260.771 847.338,304.654 869.279,342.658 891.221,380.662 913.162,418.666 951.166,440.607 995.049,440.607" />
    <path
       style="stroke-width:16;stroke-miterlimit:4;stroke-dasharray:none"
       id="path4000"
       d="M 995.049,516.615 973.108,478.611 929.225,478.611" />
    <path
       style="stroke-width:16;stroke-miterlimit:4;stroke-dasharray:none"
       id="path4002"
       d="M 212.608,968.358 256.491,968.358 300.374,968.358 322.315,930.354 360.319,908.413 404.203,908.413 442.206,930.354 464.148,968.358" />
    <path
       style="stroke-width:16;stroke-miterlimit:4;stroke-dasharray:none"
       id="path4004"
       d="M 595.797,968.358 617.739,930.354 655.743,908.413 699.626,908.413 737.63,930.354 759.571,968.358 803.455,968.358 847.338,968.358" />
    <path
       style="stroke-width:16;stroke-miterlimit:4;stroke-dasharray:none"
       id="path4006"
       d="M 847.338,772.459 869.279,734.455 907.283,712.514 951.166,712.514 995.049,712.514" />
    <path
       style="stroke-width:16;stroke-miterlimit:4;stroke-dasharray:none"
       id="path4008"
       d="M 108.779,4.927 146.783,26.868 168.725,64.872 190.666,102.876 212.608,140.88 212.608,184.763 190.666,222.767 152.662,244.709 108.779,244.709 64.896,244.709" />
    <path
       style="stroke-width:16;stroke-miterlimit:4;stroke-dasharray:none"
       id="path4010"
       d="M 212.608,184.763 256.491,184.763 294.495,162.822 316.436,124.818 338.378,86.814 360.319,48.81 360.319,4.927" />
    <path
       style="stroke-width:16;stroke-miterlimit:4;stroke-dasharray:none"
       id="path4012"
       d="M 21.013,636.506 42.954,598.502 64.896,560.498 64.896,516.615 42.954,478.611 4.951,456.67" />
    <path
       style="stroke-width:16;stroke-miterlimit:4;stroke-dasharray:none"
       id="path4014"
       d="M 42.954,478.611 64.896,440.607 64.896,396.724 42.954,358.72 21.013,320.716" />
    <path
       style="stroke-width:16;stroke-miterlimit:4;stroke-dasharray:none"
       id="path4016"
       d="M 847.338,260.771 825.396,222.767 803.455,184.763" />
    <path
       style="stroke-width:16;stroke-miterlimit:4;stroke-dasharray:none"
       id="path4018"
       d="M 699.626,4.927 699.626,48.81 721.568,86.814 743.509,124.818 765.451,162.822 803.455,184.763 847.338,184.763 885.342,162.822 907.283,124.818 929.225,86.814 951.166,48.81 951.166,4.927" />
    <path
       style="stroke-width:16;stroke-miterlimit:4;stroke-dasharray:none"
       id="path4020"
       d="M 951.166,516.615 973.108,478.611 995.049,440.607" />
    <path
       style="stroke-width:16;stroke-miterlimit:4;stroke-dasharray:none"
       id="path4022"
       d="M 64.896,4.927 26.892,26.868 4.951,64.872" />
    <path
       style="stroke-width:16;stroke-miterlimit:4;stroke-dasharray:none"
       id="path4024"
       d="M 973.108,478.611 951.166,440.607" />
    <path
       style="stroke-width:16;stroke-miterlimit:4;stroke-dasharray:none"
       id="path4026"
       d="M 913.162,26.868 951.166,48.81" />
    <path
       style="stroke-width:16;stroke-miterlimit:4;stroke-dasharray:none"
       id="path4028"
       d="M 508.031,968.358 551.914,968.358" />
    <path
       style="stroke-width:16;stroke-miterlimit:4;stroke-dasharray:none"
       id="path4030"
       d="M 146.783,26.868 108.779,48.81 64.896,48.81 26.892,26.868" />
    <path
       style="stroke-width:16;stroke-miterlimit:4;stroke-dasharray:none"
       id="path4032"
       d="M 404.203,952.296 382.261,990.3" />
    <path
       style="stroke-width:16;stroke-miterlimit:4;stroke-dasharray:none"
       id="path4034"
       d="M 655.743,952.296 677.684,990.3" />
    <path
       style="stroke-width:16;stroke-miterlimit:4;stroke-dasharray:none"
       id="path4036"
       d="M 21.013,124.818 42.954,86.814 64.896,48.81 64.896,4.927" />
    <path
       style="stroke-width:16;stroke-miterlimit:4;stroke-dasharray:none"
       id="path4038"
       d="M 4.951,576.561 42.954,598.502 64.896,636.506 86.838,674.51 108.779,712.514 108.779,756.397 86.838,794.401 64.896,832.405 42.954,870.409 4.951,892.35" />
    <path
       style="stroke-width:16;stroke-miterlimit:4;stroke-dasharray:none"
       id="path4040"
       d="M 256.491,968.358 234.549,930.354 212.608,892.35 190.666,854.346 152.662,832.405 108.779,832.405 64.896,832.405 21.013,832.405" />
    <path
       style="stroke-width:16;stroke-miterlimit:4;stroke-dasharray:none"
       id="path4042"
       d="M 4.951,380.662 42.954,358.72 64.896,320.716 86.838,282.713 108.779,244.709 108.779,200.826 86.838,162.822 64.896,124.818 42.954,86.814 4.951,64.872" />
    <path
       style="stroke-width:16;stroke-miterlimit:4;stroke-dasharray:none"
       id="path4044"
       d="M 322.315,26.868 360.319,48.81 404.203,48.81 442.206,26.868" />
    <path
       style="stroke-width:16;stroke-miterlimit:4;stroke-dasharray:none"
       id="path4046"
       d="M 617.739,26.868 655.743,48.81 699.626,48.81 737.63,26.868" />
    <path
       style="stroke-width:16;stroke-miterlimit:4;stroke-dasharray:none"
       id="path4048"
       d="M 847.338,184.763 869.279,222.767 907.283,244.709 951.166,244.709 995.049,244.709" />
    <path
       style="stroke-width:16;stroke-miterlimit:4;stroke-dasharray:none"
       id="path4050"
       d="M 360.319,952.296 382.261,990.3" />
    <path
       style="stroke-width:16;stroke-miterlimit:4;stroke-dasharray:none"
       id="path4052"
       d="M 699.626,952.296 677.684,990.3" />
    <path
       style="stroke-width:16;stroke-miterlimit:4;stroke-dasharray:none"
       id="path4054"
       d="M 995.049,832.405 973.108,794.401 951.166,756.397 951.166,712.514 973.108,674.51 995.049,636.506" />
    <path
       style="stroke-width:16;stroke-miterlimit:4;stroke-dasharray:none"
       id="path4056"
       d="M 803.455,968.358 825.396,930.354 847.338,892.35 869.279,854.346 907.283,832.405 951.166,832.405 995.049,832.405" />
    <path
       style="stroke-width:16;stroke-miterlimit:4;stroke-dasharray:none"
       id="path4058"
       d="M 21.013,832.405 42.954,870.409 64.896,908.413 64.896,952.296 86.838,990.3" />
    <path
       style="stroke-width:16;stroke-miterlimit:4;stroke-dasharray:none"
       id="path4060"
       d="M 234.549,26.868 212.608,64.872 190.666,102.876 152.662,124.818 108.779,124.818 64.896,124.818 21.013,124.818" />
    <path
       style="stroke-width:16;stroke-miterlimit:4;stroke-dasharray:none"
       id="path4062"
       d="M 995.049,320.716 973.108,282.713 951.166,244.709 951.166,200.826 973.108,162.822 995.049,124.818" />
    <path
       style="stroke-width:16;stroke-miterlimit:4;stroke-dasharray:none"
       id="path4064"
       d="M 300.374,968.358 338.378,990.3" />
    <path
       style="stroke-width:16;stroke-miterlimit:4;stroke-dasharray:none"
       id="path4066"
       d="M 721.568,990.3 759.571,968.358" />
    <path
       style="stroke-width:16;stroke-miterlimit:4;stroke-dasharray:none"
       id="path4068"
       d="M 168.725,968.358 146.783,930.354 108.779,908.413 64.896,908.413 26.892,930.354" />
    <path
       style="stroke-width:16;stroke-miterlimit:4;stroke-dasharray:none"
       id="path4070"
       d="M 825.396,26.868 847.338,64.872 869.279,102.876 907.283,124.818 951.166,124.818 995.049,124.818" />
    <path
       style="stroke-width:16;stroke-miterlimit:4;stroke-dasharray:none"
       id="path4072"
       d="M 891.221,968.358 913.162,930.354 951.166,908.413" />
    <path
       style="stroke-width:16;stroke-miterlimit:4;stroke-dasharray:none"
       id="path4074"
       d="M 108.779,952.296 130.721,990.3" />
  </g>
</svg>
