<?xml version="1.0" encoding="UTF-8" standalone="no"?>
<svg
   xmlns:dc="http://purl.org/dc/elements/1.1/"
   xmlns:cc="http://creativecommons.org/ns#"
   xmlns:rdf="http://www.w3.org/1999/02/22-rdf-syntax-ns#"
   xmlns:svg="http://www.w3.org/2000/svg"
   xmlns="http://www.w3.org/2000/svg"
   xmlns:sodipodi="http://sodipodi.sourceforge.net/DTD/sodipodi-0.dtd"
   xmlns:inkscape="http://www.inkscape.org/namespaces/inkscape"
   inkscape:version="1.0beta1 (32d4812, 2019-09-19)"
   sodipodi:docname="1-uniform_n9.svg"
   id="C:\1-uniform_9.svg"
   height="1000.0"
   width="1000.0"
   version="1.0">
  <metadata
     id="metadata63813">
    <rdf:RDF>
      <cc:Work
         rdf:about="">
        <dc:format>image/svg+xml</dc:format>
        <dc:type
           rdf:resource="http://purl.org/dc/dcmitype/StillImage" />
        <dc:title></dc:title>
      </cc:Work>
    </rdf:RDF>
  </metadata>
  <defs
     id="defs63811" />
  <sodipodi:namedview
     inkscape:current-layer="C:\1-uniform_9.svg"
     inkscape:window-maximized="1"
     inkscape:window-y="23"
     inkscape:window-x="0"
     inkscape:cy="416.27551"
     inkscape:cx="293.98163"
     inkscape:zoom="0.7066095"
     showgrid="false"
     id="namedview63809"
     inkscape:window-height="1005"
     inkscape:window-width="1680"
     inkscape:pageshadow="2"
     inkscape:pageopacity="0"
     guidetolerance="10"
     gridtolerance="10"
     objecttolerance="10"
     borderopacity="1"
     inkscape:document-rotation="0"
     bordercolor="#666666"
     pagecolor="#ffffff" />
  <!-- X Coordinate transform: fx(x)=(x+143.62335)*0.7728302-->
  <!-- Y Coordinate transform: fy(y)=(1143.6233-y)*0.7728302 -->
  <!-- Flac geometry view -->
  <path
     d="m 901.76,852.765 19.321,-33.465 19.321,33.465 z m 0,38.641 -33.464,-19.321 33.464,-19.32 z M 145.848,89.273 h 38.642 l -19.321,33.465 z M 180.7,901.76 214.164,921.081 180.7,940.402 Z m -38.642,0 19.321,-33.464 19.321,33.464 z M 852.765,93.063 v 38.641 L 819.3,112.384 Z m 38.641,38.641 -19.321,33.465 -19.32,-33.465 z m 0,0 19.321,33.465 h -38.642 z m 19.321,33.465 33.465,19.321 -33.465,19.32 z m 10.354,654.131 33.464,-19.321 -33.464,-19.32 z M 901.76,852.765 882.439,819.3 h 38.642 z m -33.464,19.32 h -38.642 l 19.321,-33.464 z m -38.642,38.642 -33.464,-19.321 33.464,-19.321 z m 0,0 -33.464,19.321 v -38.642 z m -687.596,-8.967 -19.32,-33.464 h 38.641 z M 93.063,180.7 h 38.641 l -19.32,33.464 z m 38.641,-38.642 33.465,19.321 -33.465,19.321 z m 0,0 33.465,-19.32 v 38.641 z m 52.786,-52.785 19.32,33.465 h -38.641 z m -95.217,759.702 33.465,-19.321 v 38.642 z m 0,38.641 v -38.641 l 33.465,19.321 z m 124.891,33.465 h 38.642 l -19.321,33.464 z M 180.7,901.76 214.164,882.439 v 38.642 z m -19.321,-33.464 v -38.642 l 33.465,19.321 z m -38.641,-38.642 19.32,-33.464 19.321,33.464 z m 0,0 -19.321,-33.464 h 38.641 z M 103.417,796.19 69.952,776.869 103.417,757.548 Z M 799.979,78.919 780.659,112.384 761.338,78.919 Z m 0,0 19.321,33.465 h -38.641 z m 52.786,52.785 -33.465,19.321 v -38.641 z m 19.32,33.465 v 38.641 l -33.464,-19.32 z m 38.642,38.641 -19.321,33.465 -19.321,-33.465 z m 0,0 19.321,33.465 h -38.642 z m 10.354,576.849 h -38.642 l 19.321,-33.465 z m -38.642,38.641 -33.464,-19.321 33.464,-19.32 z m 0,0 -33.464,19.321 v -38.642 z m -52.785,52.785 -19.321,-33.464 h 38.642 z m -33.464,19.321 h -38.642 l 19.321,-33.464 z m -38.642,0 v 38.642 L 724.084,910.727 Z M 761.338,78.919 727.873,98.24 V 59.598 Z m -682.419,154.566 33.465,19.321 -33.465,19.321 z m 0,0 33.465,-19.321 v 38.642 z M 689.232,98.24 655.767,78.919 689.232,59.598 Z m -557.528,82.46 19.321,33.464 H 112.384 Z M 655.767,78.919 h -38.641 l 19.321,-33.464 z m -490.598,82.46 h 38.641 l -19.32,33.465 z m 38.641,-38.641 33.465,19.32 -33.465,19.321 z m 0,0 33.465,-19.321 v 38.641 z m 33.465,-19.321 19.321,-33.465 19.32,33.465 z M 78.919,272.127 98.24,305.591 H 59.598 Z M 98.24,344.233 78.919,377.697 59.598,344.233 Z m -19.321,33.464 v 38.642 L 45.455,397.018 Z m 173.887,543.384 v -38.642 l 33.464,19.321 z m -38.642,-38.642 19.321,-33.464 19.321,33.464 z m 0,0 -19.32,-33.464 h 38.641 z m -52.785,-52.785 33.465,-19.321 v 38.642 z M 142.058,796.19 v -38.642 l 33.465,19.321 z m -38.641,-38.642 19.321,-33.464 19.32,33.464 z m 0,0 -19.321,-33.464 h 38.642 z M 84.096,724.084 50.632,704.763 84.096,685.442 Z M 286.27,901.76 h 38.642 l -19.321,33.465 z M 93.063,142.058 V 180.7 L 59.598,161.379 Z M 901.76,747.194 935.225,727.873 901.76,708.553 Z M 780.659,112.384 v 38.641 l -33.465,-19.321 z m -668.275,-3.79 19.32,33.464 H 93.063 Z m 706.916,42.431 -19.321,33.465 -19.32,-33.465 z m 0,0 19.321,33.465 H 799.979 Z M 112.384,108.594 93.063,142.058 73.742,108.594 Z m 759.701,95.216 -33.464,19.321 V 184.49 Z m 19.321,33.465 v 38.641 l -33.464,-19.32 z m 0,38.641 h 38.642 l -19.321,33.465 z M 112.384,108.594 V 69.952 l 33.464,19.321 z m 770.055,672.065 -19.32,-33.465 h 38.641 z m -33.464,19.32 h -38.642 l 19.321,-33.464 z m -38.642,38.642 -33.464,-19.321 33.464,-19.321 z m 0,0 -33.464,19.321 V 819.3 Z m -52.785,52.785 -19.321,-33.464 h 38.642 z m 144.212,0 -33.464,19.321 v -38.642 z m -177.676,19.321 h -38.642 l 19.321,-33.465 z M 727.873,98.24 708.553,131.704 689.232,98.24 Z m 0,0 19.321,33.464 H 708.553 Z M 112.384,252.806 h 38.641 L 131.704,286.27 Z M 689.232,98.24 655.767,117.561 V 78.919 Z m -538.207,115.924 33.465,19.321 -33.465,19.321 z m 0,0 33.465,-19.32 v 38.641 z M 617.126,78.919 v 38.642 L 583.661,98.24 Z m -413.316,82.46 19.321,33.465 H 184.49 Z M 583.661,98.24 H 545.02 l 19.321,-33.465 z m -346.386,43.818 h 38.641 l -19.32,33.465 z m 631.021,768.669 -19.321,33.465 -19.321,-33.465 z m -592.38,-807.31 33.465,19.321 -33.465,19.32 z m 0,0 33.465,-19.321 v 38.642 z m 615.49,-10.354 h -38.641 l 19.32,-33.465 z m -582.025,-8.967 19.321,-33.464 19.32,33.464 z M 98.24,305.591 131.704,324.912 98.24,344.233 Z m 0,0 33.464,-19.321 v 38.642 z m 0,38.642 19.321,33.464 H 78.919 Z m -19.321,72.106 h 38.642 L 98.24,449.803 Z m 19.321,33.464 v 38.642 L 64.775,469.124 Z m 793.166,-356.74 33.465,19.321 -33.465,19.32 z m -638.6,789.376 33.464,-19.32 v 38.641 z m -19.321,-33.464 v -38.642 l 33.465,19.321 z m -38.641,-38.642 19.32,-33.464 19.321,33.464 z m 0,0 -19.321,-33.464 h 38.641 z m -52.786,-52.785 33.465,-19.321 v 38.642 z m -19.32,-33.464 v -38.642 l 33.464,19.321 z m -38.642,-38.642 19.321,-33.464 19.321,33.464 z m 0,0 -19.321,-33.464 h 38.642 z M 324.912,901.76 v -38.641 l 33.464,19.32 z m 52.785,14.144 19.321,-33.465 19.321,33.465 z m 0,0 -19.321,-33.465 h 38.642 z m 38.642,0 33.464,-19.321 v 38.642 z m 72.106,-19.321 33.464,19.321 -33.464,19.321 z m 33.464,19.321 h 38.642 L 541.23,949.368 Z M 901.76,708.553 h -38.641 l 19.32,-33.465 z M 780.659,151.025 747.194,170.346 v -38.642 z m 135.245,504.742 -33.465,-19.32 33.465,-19.321 z m 0,0 -33.465,19.321 V 636.447 Z M 799.979,184.49 v 38.641 L 766.515,203.81 Z m 115.925,432.636 -19.321,-33.465 h 38.642 z M 838.621,223.131 819.3,256.596 799.979,223.131 Z m 0,0 19.321,33.465 H 819.3 Z m 57.962,321.889 19.321,-33.465 19.321,33.465 z m -5.177,-269.104 -33.464,19.321 V 256.596 Z M 108.594,921.081 H 69.952 l 19.321,-33.465 z m 807.31,-409.526 33.464,-19.32 -33.464,-19.321 z m -807.31,409.526 33.464,-19.321 v 38.642 z m 802.133,-611.7 v 38.641 l -33.465,-19.32 z m -47.608,437.813 -33.465,-19.321 33.465,-19.32 z m 0,0 -33.465,19.321 v -38.642 z m -52.786,52.785 -19.32,-33.464 h 38.641 z M 776.869,819.3 h -38.642 l 19.321,-33.464 z m -38.642,38.642 -33.464,-19.321 33.464,-19.321 z m 0,0 -33.464,19.32 v -38.641 z m -52.785,52.785 -19.321,-33.465 h 38.642 z m 23.111,-779.023 v 38.642 l -33.465,-19.321 z m -557.528,121.102 19.321,33.464 h -38.642 z m 504.742,-135.245 -19.32,33.464 -19.321,-33.464 z m 0,0 19.321,33.464 H 636.447 Z M 184.49,233.485 h 38.641 L 203.81,266.95 Z m 432.636,-115.924 -33.465,19.32 V 98.24 Z m -393.995,77.283 33.465,19.32 -33.465,19.321 z m 0,0 33.465,-19.321 v 38.641 z M 545.02,98.24 v 38.641 l -33.465,-19.32 z m -269.104,43.818 19.321,33.465 H 256.596 Z M 492.235,84.096 472.914,117.561 453.593,84.096 Z m 0,0 19.32,33.465 h -38.641 z m -182.854,38.642 h 38.641 l -19.32,33.464 z M 453.593,84.096 420.129,103.417 V 64.775 Z m -105.571,0 33.465,19.321 -33.465,19.321 z m 0,0 33.465,-19.321 v 38.642 z M 131.704,324.912 h 38.642 l -19.321,33.464 z m -14.143,52.785 33.464,19.321 -33.464,19.321 z m 0,0 33.464,-19.321 v 38.642 z m 0,38.642 19.32,33.464 H 98.24 Z M 98.24,488.445 h 38.641 l -19.32,33.464 z m -14.144,52.785 33.465,19.321 -33.465,19.321 z m 0,0 33.465,-19.321 v 38.642 z m 0,38.642 19.321,33.464 H 64.775 Z m 202.174,283.247 19.321,-33.465 19.321,33.465 z m 0,0 -19.32,-33.465 h 38.641 z m -52.785,-52.786 33.465,-19.32 v 38.641 z m -19.321,-33.464 v -38.642 l 33.465,19.321 z m -38.641,-38.642 19.321,-33.464 19.32,33.464 z m 0,0 -19.321,-33.464 h 38.642 z m -52.785,-52.785 33.464,-19.321 v 38.642 z m -19.321,-33.464 v -38.642 l 33.464,19.321 z m 221.495,211.141 33.464,-19.321 v 38.641 z m 72.106,19.32 v -38.641 l 33.465,19.321 z m 52.785,14.144 19.321,-33.464 19.321,33.464 z m 0,0 -19.32,-33.464 h 38.641 z m 38.642,0 33.464,-19.321 v 38.642 z m 72.106,19.321 v -38.642 l 33.464,19.321 z m 72.106,-19.321 -19.321,33.465 -19.321,-33.465 z m 230.462,-188.03 -19.321,-33.465 h 38.641 z M 747.194,170.346 727.873,203.81 708.553,170.346 Z m 0,0 19.321,33.464 h -38.642 z m 135.245,466.101 h -38.641 l 19.321,-33.465 z m -82.46,-413.316 -33.464,19.321 V 203.81 Z m 96.604,360.53 -33.464,-19.32 33.464,-19.321 z m 0,0 -33.464,19.321 V 564.341 Z M 819.3,256.596 v 38.641 l -33.464,-19.321 z m 77.283,288.424 -19.321,-33.465 h 38.642 z M 857.942,295.237 838.621,328.702 819.3,295.237 Z m 0,0 19.32,33.465 h -38.641 z m 57.962,177.677 h -38.642 l 19.321,-33.465 z m -5.177,-124.892 -33.465,19.321 v -38.641 z m -14.144,91.427 33.465,-19.321 -33.465,-19.32 z m -66.929,288.424 h -38.641 l 19.32,-33.464 z m -38.641,38.642 -33.465,-19.321 33.465,-19.321 z m 0,0 -33.465,19.321 v -38.642 z m -52.786,52.785 -19.32,-33.464 h 38.641 z m -33.464,19.321 h -38.642 l 19.321,-33.465 z m -38.642,38.641 -33.464,-19.32 33.464,-19.321 z m 0,0 -33.464,19.321 v -38.641 z m 42.432,-706.916 -33.465,19.321 v -38.642 z m -538.207,115.924 33.464,19.321 -33.464,19.321 z m 0,0 33.464,-19.32 v 38.641 z M 636.447,151.025 v 38.642 l -33.465,-19.321 z m -413.316,82.46 19.321,33.465 H 203.81 Z m 360.53,-96.604 -19.32,33.465 -19.321,-33.465 z m 0,0 19.321,33.465 h -38.641 z m -327.065,77.283 h 38.641 l -19.321,33.465 z m 288.424,-77.283 -33.465,19.321 v -38.641 z m -249.783,38.642 33.465,19.321 -33.465,19.32 z m 0,0 33.465,-19.321 v 38.642 z m 177.677,-57.962 v 38.641 l -33.465,-19.321 z m -124.892,5.177 19.321,33.464 h -38.641 z m 72.107,-19.321 -19.321,33.464 -19.321,-33.464 z m 0,0 19.32,33.464 h -38.641 z m -249.783,221.495 19.321,33.464 h -38.642 z m -19.321,72.106 h 38.642 l -19.321,33.464 z m -14.144,52.785 33.465,19.321 -33.465,19.321 z m 0,0 33.465,-19.321 v 38.642 z m 0,38.642 19.321,33.464 h -38.641 z m -19.32,72.106 h 38.641 l -19.321,33.464 z m -14.144,52.785 33.464,-19.321 v 38.642 z m 202.174,216.318 v -38.641 l 33.465,19.32 z m -38.641,-38.641 19.32,-33.465 19.321,33.465 z m 0,0 -19.321,-33.465 h 38.641 z m -52.786,-52.786 33.465,-19.32 v 38.641 z m -19.32,-33.464 v -38.642 l 33.464,19.321 z m -38.642,-38.642 19.321,-33.464 19.321,33.464 z m 0,0 -19.321,-33.464 h 38.642 z m 202.174,177.677 19.321,-33.465 19.321,33.465 z m 0,0 -19.32,-33.465 h 38.641 z m 38.642,0 33.465,-19.321 v 38.642 z m 72.106,19.321 v -38.642 l 33.465,19.321 z m 52.785,14.143 19.321,-33.464 19.321,33.464 z m 0,0 -19.32,-33.464 h 38.641 z m 38.642,0 33.464,-19.32 v 38.641 z m 283.247,-202.174 -33.465,-19.321 33.465,-19.32 z m 0,0 -33.465,19.321 V 655.767 Z M 727.873,203.81 v 38.642 l -33.464,-19.321 z m 115.925,432.637 -19.321,-33.465 h 38.642 z m -77.283,-393.995 -19.321,33.464 -19.321,-33.464 z m 0,0 19.321,33.464 h -38.642 z m 96.604,321.889 h -38.642 l 19.321,-33.465 z M 819.3,295.237 785.836,314.558 v -38.642 z m 57.962,216.318 -33.464,-19.32 33.464,-19.321 z m 0,0 -33.464,19.321 V 492.235 Z M 838.621,328.702 v 38.641 l -33.465,-19.321 z m 38.641,144.212 -19.32,-33.465 h 38.641 z m 0,-105.571 -19.32,33.465 -19.321,-33.465 z m 0,0 19.321,33.465 h -38.641 z m -86.249,360.53 -19.321,-33.464 h 38.641 z m -33.465,19.321 h -38.641 l 19.32,-33.464 z m -38.641,38.642 -33.465,-19.321 33.465,-19.321 z m 0,0 -33.465,19.32 v -38.641 z m -52.786,52.785 -19.32,-33.465 h 38.641 z m -33.464,19.321 h -38.642 l 19.321,-33.465 z m 42.431,-668.275 -19.321,33.464 -19.32,-33.464 z m 0,0 19.321,33.464 H 655.767 Z M 203.81,305.591 h 38.642 l -19.321,33.465 z m 432.637,-115.924 -33.465,19.32 v -38.641 z m -393.995,77.283 33.464,19.32 -33.464,19.321 z m 0,0 33.464,-19.321 v 38.641 z m 321.889,-96.604 v 38.641 l -33.465,-19.32 z m -269.104,43.818 19.321,33.465 h -38.642 z m 216.318,-57.962 -19.32,33.465 -19.321,-33.465 z m 0,0 19.321,33.465 h -38.641 z m -182.853,38.642 h 38.641 l -19.321,33.464 z m 144.212,-38.642 -33.465,19.321 v -38.642 z m -105.571,0 33.465,19.321 -33.465,19.321 z m 0,0 33.465,-19.321 v 38.642 z m -177.676,202.174 33.464,19.321 -33.464,19.321 z m 0,0 33.464,-19.32 v 38.641 z m 0,38.642 19.32,33.464 h -38.641 z m -19.321,72.106 h 38.641 l -19.32,33.465 z m -14.144,52.785 33.465,19.321 -33.465,19.321 z m 0,0 33.465,-19.32 v 38.641 z m 0,38.642 19.321,33.464 h -38.642 z m 149.389,230.462 33.465,-19.321 v 38.641 z M 286.27,757.548 v -38.641 l 33.465,19.32 z m -38.641,-38.641 19.321,-33.465 19.32,33.465 z m 0,0 -19.321,-33.465 h 38.642 z m -52.785,-52.786 33.464,-19.32 v 38.641 z m -19.321,-33.464 v -38.642 l 33.464,19.321 z m 202.174,177.676 v -38.641 l 33.465,19.321 z m 52.786,14.144 19.32,-33.464 19.321,33.464 z m 0,0 -19.321,-33.464 h 38.641 z m 38.641,0 33.465,-19.321 v 38.642 z m 72.106,19.321 v -38.642 l 33.465,19.321 z m 52.785,14.144 -19.32,-33.465 h 38.641 z M 810.333,655.767 h -38.641 l 19.321,-33.464 z m -82.46,-413.315 -33.464,19.321 v -38.642 z m 96.604,360.53 -33.464,-19.321 33.464,-19.32 z m 0,0 -33.464,19.321 V 583.661 Z M 747.194,275.916 v 38.642 L 713.73,295.237 Z m 77.283,288.425 -19.321,-33.465 h 38.642 z m -38.641,-249.783 -19.321,33.464 -19.321,-33.464 z m 0,0 19.32,33.464 h -38.641 z m 57.962,177.677 h -38.642 l 19.321,-33.465 z m -5.177,-124.892 -33.465,19.321 v -38.642 z m 19.321,72.106 -33.465,-19.321 33.465,-19.32 z m 0,0 -33.465,19.321 v -38.642 z m -86.25,254.96 -33.465,-19.321 33.465,-19.321 z m 0,0 -33.465,19.321 v -38.642 z m -52.785,52.785 -19.321,-33.464 h 38.641 z m -33.465,19.321 h -38.641 l 19.32,-33.465 z m -38.641,38.641 -33.465,-19.32 33.465,-19.321 z m 0,0 -33.465,19.321 v -38.641 z m 8.966,-582.025 v 38.642 l -33.464,-19.321 z m -413.315,82.46 19.321,33.465 h -38.642 z m 360.53,-96.604 -19.321,33.465 -19.32,-33.465 z m 0,0 19.321,33.465 H 583.661 Z M 275.916,286.27 h 38.642 l -19.321,33.465 z m 288.425,-77.283 -33.465,19.321 v -38.641 z m -249.783,38.642 33.464,19.321 -33.464,19.32 z m 0,0 33.464,-19.321 v 38.642 z m 177.677,-57.962 v 38.641 L 458.77,208.987 Z m -124.892,5.177 19.321,33.464 h -38.642 z m 72.106,-19.321 -19.32,33.464 -19.321,-33.464 z m 0,0 19.321,33.464 H 420.129 Z M 223.131,377.697 h 38.642 l -19.321,33.465 z m -14.144,52.785 33.465,19.321 -33.465,19.321 z m 0,0 33.465,-19.32 v 38.641 z m 0,38.642 19.321,33.465 h -38.641 z m -19.32,72.106 h 38.641 l -19.321,33.465 z m -14.144,52.785 33.464,-19.32 v 38.641 z m 182.853,144.212 19.321,33.465 h -38.641 z m 0,0 -19.32,33.465 -19.321,-33.465 z m -38.641,-38.641 v 38.641 l -33.465,-19.32 z m -19.321,-33.465 -33.464,19.321 v -38.641 z m -52.785,-52.785 19.321,33.465 h -38.642 z m 0,0 -19.321,33.465 -19.321,-33.465 z m 163.533,139.035 v 38.642 l -33.465,-19.321 z m 72.106,19.321 -33.465,19.321 v -38.642 z m 38.641,0 19.321,33.464 h -38.641 z m 0,0 -19.32,33.464 -19.321,-33.464 z m 52.786,14.144 v 38.641 L 541.23,805.156 Z M 752.371,622.303 h 38.642 l -19.321,33.464 z M 675.088,295.237 655.767,261.773 h 38.642 z m 0,0 19.321,-33.464 19.321,33.464 z m 96.604,254.96 19.321,33.464 H 752.371 Z M 713.73,333.879 747.194,314.558 713.73,295.237 Z m 57.962,177.676 33.464,-19.32 v 38.641 z m 0,0 33.464,19.321 -33.464,19.321 z M 733.05,367.343 766.515,348.022 v 38.642 z m 52.786,91.427 h 38.641 l -19.321,33.465 z m 0,-38.642 -19.321,-33.464 h 38.641 z m 0,0 19.32,-33.464 19.321,33.464 z m -66.929,221.496 19.32,33.464 h -38.641 z m -52.786,52.785 33.465,-19.321 v 38.642 z m 0,0 33.465,19.321 -33.465,19.32 z M 627.48,733.05 h 38.641 l -19.32,33.465 z m -33.465,19.321 19.321,33.465 h -38.641 z m 28.288,-471.278 33.464,-19.32 -33.464,-19.321 z m -327.066,77.283 -33.464,19.321 v -38.641 z m 0,0 -33.464,-19.32 33.464,-19.321 z m 254.96,-96.603 33.464,-19.321 v 38.641 z m -216.318,57.962 h -38.642 l 19.321,-33.465 z m 177.676,-57.962 -19.32,-33.465 h 38.641 z m 38.642,0 h -38.642 l 19.321,-33.465 z m -163.533,5.177 -19.321,33.464 -19.321,-33.464 z m 72.106,-19.321 33.465,-19.321 -33.465,-19.321 z m -72.106,19.321 v -38.642 l 33.465,19.321 z m 33.465,-19.321 -33.465,-19.321 33.465,-19.321 z M 281.093,411.162 h -38.641 l 19.321,-33.465 z m 0,38.641 -19.32,33.465 -19.321,-33.465 z m -19.32,72.106 -33.465,19.321 v -38.641 z m 0,0 -33.465,-19.32 33.465,-19.321 z m -14.144,52.786 h -38.642 l 19.321,-33.465 z m 110.747,163.532 v -38.641 l 33.465,19.321 z m -38.641,-38.641 19.321,-33.465 19.32,33.465 z m -19.321,-33.465 h 38.642 l -19.321,33.465 z m 0,0 -33.464,-19.32 33.464,-19.321 z m -52.785,-52.785 v -38.641 l 33.464,19.32 z m 202.174,139.035 h -38.641 l 19.321,-33.464 z m -38.641,0 -19.321,-33.464 h 38.642 z m 72.106,19.321 -33.465,-19.321 33.465,-19.321 z m 38.641,0 V 733.05 l 33.465,19.321 z m 72.106,-19.321 -19.32,33.465 -19.321,-33.465 z m 158.356,-168.71 v 38.642 l -33.464,-19.321 z m -33.464,57.963 33.464,-19.321 -33.464,-19.321 z M 675.088,295.237 v 38.642 l -33.464,-19.321 z m 96.604,254.96 -19.321,33.464 -19.321,-33.464 z M 713.73,333.879 694.409,367.343 675.088,333.879 Z m 19.32,33.464 h -38.641 l 19.321,-33.464 z m 38.642,144.212 H 733.05 l 19.321,-33.464 z m -38.642,-144.212 33.465,19.321 -33.465,19.321 z m 52.786,52.785 v 38.642 l -33.465,-19.321 z m 0,38.642 -33.465,19.321 v -38.642 z m -66.929,182.854 -19.321,33.464 -19.321,-33.464 z m -52.786,52.785 H 627.48 l 19.321,-33.465 z M 627.48,733.05 594.015,713.73 627.48,694.409 Z M 594.015,752.371 627.48,733.05 594.015,713.73 Z M 583.661,281.093 h 38.642 l -19.321,33.465 z m 38.642,0 19.321,33.465 h -38.642 z m -327.066,77.283 h 38.642 l -19.321,33.465 z m 254.96,-96.603 33.464,19.32 -33.464,19.321 z m -216.318,57.962 33.464,19.321 -33.464,19.32 z m 0,0 33.464,-19.321 v 38.642 z m 177.676,-57.962 v 38.641 l -33.464,-19.321 z m -124.891,5.177 19.321,33.464 h -38.642 z m 72.106,-19.321 -19.321,33.464 -19.32,-33.464 z m 0,0 19.321,33.464 h -38.642 z m -177.677,163.533 33.465,19.32 -33.465,19.321 z m 0,0 33.465,-19.321 v 38.641 z m 0,38.641 19.321,33.465 h -38.641 z m 0,105.571 -19.32,-33.465 h 38.641 z m 0,0 v 38.641 l -33.464,-19.32 z m 110.748,124.891 v 38.642 l -33.465,-19.321 z m -19.321,-33.464 -33.464,19.32 V 627.48 Z m -52.785,-52.786 19.321,33.465 h -38.642 z m 0,0 -19.321,33.465 -19.321,-33.465 z m 144.212,105.571 -33.464,19.321 v -38.642 z m 38.642,0 19.32,33.464 h -38.641 z m 0,0 -19.321,33.464 -19.321,-33.464 z m 52.785,14.144 v 38.641 L 521.909,733.05 Z m 144.212,-144.212 19.321,33.464 h -38.642 z m -57.962,-216.319 33.464,-19.32 -33.464,-19.321 z m 57.962,177.677 33.464,-19.321 v 38.642 z m 0,0 33.464,19.321 -33.464,19.321 z m -38.642,-144.212 33.465,-19.321 v 38.642 z m 52.786,91.427 h 38.641 l -19.321,33.464 z m 0,-38.642 -19.321,-33.464 h 38.641 z m 0,0 19.32,-33.464 19.321,33.464 z m -66.929,182.854 33.464,-19.321 v 38.642 z m 0,0 33.464,19.321 -33.464,19.32 z m -38.642,38.641 h 38.642 l -19.321,33.465 z m -33.464,19.321 19.32,33.465 h -38.641 z m -5.177,-346.386 33.464,-19.321 v 38.641 z m -216.319,57.962 h -38.641 l 19.321,-33.465 z m 177.677,-57.962 -19.321,-33.465 h 38.642 z m 0,0 19.321,-33.465 19.321,33.465 z M 386.664,372.52 367.343,339.056 h 38.642 z m 91.427,-52.785 33.464,-19.321 -33.464,-19.321 z m -38.642,0 -33.464,19.321 v -38.642 z m 0,0 -33.464,-19.321 33.464,-19.321 z m -105.57,144.212 -19.321,-33.465 h 38.641 z m 0,38.642 -33.465,19.32 v -38.641 z m 0,0 -33.465,-19.321 33.465,-19.321 z m -14.144,52.785 h -38.642 l 19.321,-33.465 z m 91.427,91.427 19.321,33.464 h -38.642 z m 0,0 -19.321,33.464 -19.321,-33.464 z M 372.52,608.159 v 38.642 L 339.056,627.48 Z m -19.321,-33.464 -33.464,19.32 v -38.641 z m 110.748,86.249 v 38.642 l -33.464,-19.321 z m 72.106,19.321 -33.464,19.321 v -38.642 z m 0,0 h 38.642 L 555.374,713.73 Z M 660.944,569.518 h 38.642 l -19.321,33.464 z M 622.303,386.664 602.982,353.199 h 38.642 z m 0,0 19.321,-33.465 19.32,33.465 z m 57.962,110.747 19.321,33.465 h -38.642 z m -19.321,-72.106 33.465,-19.32 -33.465,-19.321 z m 19.321,33.465 33.465,-19.321 v 38.642 z m 0,0 33.465,19.321 -33.465,19.32 z m -52.785,130.068 19.321,33.465 h -38.642 z m -52.785,52.786 33.464,-19.321 v 38.641 z m 0,0 33.464,19.32 -33.464,19.321 z m -5.177,-269.104 33.464,-19.321 -33.464,-19.32 z m -182.854,38.642 -33.465,19.32 v -38.641 z m 0,0 -33.465,-19.321 33.465,-19.321 z m 110.748,-57.963 33.464,-19.32 v 38.641 z m -72.106,19.321 h -38.642 l 19.321,-33.464 z m 33.464,-19.321 -19.321,-33.464 h 38.642 z m 0,0 19.321,-33.464 19.321,33.464 z m -86.25,110.748 h -38.641 l 19.32,-33.465 z m -19.321,72.106 -19.32,-33.464 h 38.641 z m 0,0 v 38.642 l -33.464,-19.321 z m 91.427,91.427 -33.464,19.321 v -38.642 z m -52.785,-52.785 19.321,33.464 H 372.52 Z m 0,0 -19.321,33.464 -19.321,-33.464 z m 91.427,52.785 19.321,33.464 h -38.642 z m 0,0 -19.321,33.464 -19.321,-33.464 z m 52.785,14.144 v 38.641 l -33.464,-19.321 z m 91.427,-91.427 33.464,-19.321 v 38.642 z m 0,0 33.464,19.321 -33.464,19.32 z m -38.642,-144.212 33.465,-19.321 v 38.641 z m 52.786,91.426 h 38.641 l -19.321,33.465 z m 0,-38.641 -19.321,-33.465 h 38.641 z m 0,0 19.32,-33.465 19.321,33.465 z m -52.786,130.068 h 38.642 l -19.321,33.465 z m -33.464,19.321 19.321,33.465 H 536.053 Z M 550.197,405.985 530.876,372.52 h 38.642 z m 0,0 19.321,-33.465 19.32,33.465 z m -144.212,38.641 -19.321,-33.464 h 38.642 z m 91.427,-52.785 33.464,-19.321 -33.464,-19.321 z m -38.642,0 -33.464,19.321 V 372.52 Z m 0,0 -33.464,-19.321 33.464,-19.321 z m -52.785,91.427 -33.465,19.321 v -38.642 z m 0,0 -33.465,-19.321 33.465,-19.321 z m -14.144,52.785 h -38.642 l 19.321,-33.464 z m 52.785,52.785 v 38.642 l -33.464,-19.321 z m -19.32,-33.464 -33.465,19.321 v -38.642 z m 91.426,52.785 -33.464,19.321 v -38.642 z m 0,0 h 38.642 l -19.321,33.465 z m 91.427,-91.427 19.321,33.465 h -38.642 z m -19.321,-72.106 33.465,-19.321 -33.465,-19.32 z m 19.321,33.465 33.465,-19.321 v 38.641 z m 0,0 33.465,19.32 -33.465,19.321 z m -52.785,91.427 33.464,-19.321 v 38.641 z m 0,0 33.464,19.32 -33.464,19.321 z m -38.642,-144.213 33.465,-19.32 v 38.641 z m -72.106,19.321 h -38.641 l 19.321,-33.464 z m 33.465,-19.321 -19.321,-33.464 h 38.642 z m 0,0 19.321,-33.464 19.32,33.464 z m -52.785,91.427 -19.321,-33.464 h 38.641 z m 0,0 v 38.642 l -33.465,-19.321 z m 38.641,38.642 19.321,33.464 h -38.642 z m 0,0 -19.321,33.464 -19.32,-33.464 z m 52.785,14.144 v 38.641 l -33.464,-19.321 z m 52.786,-52.786 h 38.641 l -19.321,33.465 z m 0,-38.641 -19.321,-33.465 h 38.641 z m 0,0 19.32,-33.465 19.321,33.465 z m -33.465,57.962 19.321,33.465 h -38.642 z m -19.321,-72.106 33.465,-19.321 -33.465,-19.321 z m -38.641,0 -33.465,19.321 v -38.642 z m 0,0 -33.465,-19.321 33.465,-19.321 z m -14.144,52.785 h -38.641 l 19.32,-33.464 z m 33.465,19.321 -33.465,19.321 v -38.642 z m 0,0 h 38.641 l -19.321,33.465 z m 38.641,-38.642 33.465,-19.32 v 38.641 z m 0,0 33.465,19.321 -33.465,19.321 z m -38.641,0 -19.321,-33.464 h 38.641 z m 0,0 v 38.642 l -33.465,-19.321 z m 0,0 19.32,-33.464 19.321,33.464 z"
     style="opacity:1;fill:none;fill-opacity:1;stroke:#000000;stroke-width:14;stroke-opacity:0.8;stop-opacity:1;stroke-miterlimit:4;stroke-dasharray:none"
     id="path63316" />
</svg>
