<?xml version="1.0" encoding="UTF-8" standalone="no"?>
<svg
   xmlns:dc="http://purl.org/dc/elements/1.1/"
   xmlns:cc="http://creativecommons.org/ns#"
   xmlns:rdf="http://www.w3.org/1999/02/22-rdf-syntax-ns#"
   xmlns:svg="http://www.w3.org/2000/svg"
   xmlns="http://www.w3.org/2000/svg"
   xmlns:sodipodi="http://sodipodi.sourceforge.net/DTD/sodipodi-0.dtd"
   xmlns:inkscape="http://www.inkscape.org/namespaces/inkscape"
   inkscape:version="1.0beta1 (32d4812, 2019-09-19)"
   sodipodi:docname="1-uniform_n6.svg"
   id="C:\1-uniform_6.svg"
   height="1000.0"
   width="991.22595"
   version="1.0">
  <style
     id="style28955"></style>
  <metadata
     id="metadata28374">
    <rdf:RDF>
      <cc:Work
         rdf:about="">
        <dc:format>image/svg+xml</dc:format>
        <dc:type
           rdf:resource="http://purl.org/dc/dcmitype/StillImage" />
        <dc:title></dc:title>
      </cc:Work>
    </rdf:RDF>
  </metadata>
  <defs
     id="defs28372" />
  <sodipodi:namedview
     inkscape:current-layer="C:\1-uniform_6.svg"
     inkscape:window-maximized="1"
     inkscape:window-y="23"
     inkscape:window-x="0"
     inkscape:cy="521.88671"
     inkscape:cx="353.2334"
     inkscape:zoom="0.90090802"
     showgrid="false"
     id="namedview28370"
     inkscape:window-height="1005"
     inkscape:window-width="1680"
     inkscape:pageshadow="2"
     inkscape:pageopacity="0"
     guidetolerance="10"
     gridtolerance="10"
     objecttolerance="10"
     borderopacity="1"
     inkscape:document-rotation="0"
     bordercolor="#666666"
     pagecolor="#ffffff" />
  <!-- X Coordinate transform: fx(x)=(x+96.90698)*0.8132709-->
  <!-- Y Coordinate transform: fy(y)=(1127.3013-y)*0.8132709 -->
  <!-- Flac geometry view -->
  <path
     d="m 910.955,913.882 h -40.664 l -20.332,-35.216 20.332,-35.215 h 40.664 l 20.331,35.215 z m -810.352,0 -20.332,-35.216 20.332,-35.215 h 40.664 l 20.331,35.215 -20.331,35.216 z m 0,-848.096 h 40.664 l 20.331,35.216 -20.331,35.216 H 100.603 L 80.271,101.002 Z m 810.352,111.095 20.331,35.216 -20.331,35.216 h -40.664 l -20.332,-35.216 20.332,-35.216 z m -96.211,-55.547 20.331,35.215 -20.331,35.216 H 774.08 l -20.332,-35.216 20.332,-35.215 z m -96.211,-55.548 20.331,35.216 -20.331,35.216 h -40.664 l -20.332,-35.216 20.332,-35.216 z m 151.758,0 h 40.664 l 20.331,35.216 -20.331,35.216 h -40.664 l -20.332,-35.216 z m -577.266,0 h 40.664 l 20.331,35.216 -20.331,35.216 h -40.664 l -20.332,-35.216 z m -96.211,55.548 h 40.664 l 20.331,35.215 -20.331,35.216 h -40.664 l -20.332,-35.216 z m -96.211,55.547 h 40.664 l 20.331,35.216 -20.331,35.216 H 100.603 L 80.271,212.097 Z m 810.352,625.906 h -40.664 l -20.332,-35.216 20.332,-35.215 h 40.664 l 20.331,35.215 z M 718.533,913.882 h -40.664 l -20.332,-35.216 20.332,-35.215 h 40.664 l 20.331,35.215 z m 96.211,-55.548 H 774.08 l -20.332,-35.215 20.332,-35.216 h 40.664 l 20.331,35.216 z M 100.603,802.787 80.271,767.571 100.603,732.356 h 40.664 l 20.331,35.215 -20.331,35.216 z m 96.211,55.547 -20.332,-35.215 20.332,-35.216 h 40.664 l 20.331,35.216 -20.331,35.215 z m 96.211,55.548 -20.332,-35.216 20.332,-35.215 h 40.664 l 20.331,35.215 -20.331,35.216 z M 485.447,510.166 h 40.664 l 20.331,35.216 -20.331,35.215 h -40.664 l -20.332,-35.215 z m 425.508,-222.19 20.331,35.216 -20.331,35.215 h -40.664 l -20.332,-35.215 20.332,-35.216 z m 0,403.716 h -40.664 l -20.332,-35.216 20.332,-35.215 h 40.664 l 20.331,35.215 z m 0,-111.095 h -40.664 l -20.332,-35.215 20.332,-35.216 h 40.664 l 20.331,35.216 z m 0,-111.095 h -40.664 l -20.332,-35.215 20.332,-35.216 h 40.664 l 20.331,35.216 z M 526.111,65.786 l 20.331,35.216 -20.331,35.216 h -40.664 l -20.332,-35.216 20.332,-35.216 z m -445.84,257.406 20.332,-35.216 h 40.664 l 20.331,35.216 -20.331,35.215 h -40.664 z m 0,111.095 20.332,-35.216 h 40.664 l 20.331,35.216 -20.331,35.215 h -40.664 z m 0,111.095 20.332,-35.216 h 40.664 l 20.331,35.216 -20.331,35.215 h -40.664 z m 0,111.094 20.332,-35.215 h 40.664 l 20.331,35.215 -20.331,35.216 H 100.603 Z M 774.08,302.86 753.748,267.644 774.08,232.429 h 40.664 l 20.331,35.215 -20.331,35.216 z m -96.211,-55.547 -20.332,-35.216 20.332,-35.216 h 40.664 l 20.331,35.216 -20.331,35.216 z m -96.211,-55.548 -20.332,-35.216 20.332,-35.215 h 40.664 l 20.331,35.215 -20.331,35.216 z m -151.758,0 h -40.664 l -20.332,-35.216 20.332,-35.215 H 429.9 l 20.331,35.215 z m -96.211,55.548 h -40.664 l -20.332,-35.216 20.332,-35.216 h 40.664 l 20.331,35.216 z m -96.211,55.547 h -40.664 l -20.332,-35.216 20.332,-35.215 h 40.664 l 20.331,35.215 z m 247.969,540.591 h 40.664 l 20.331,35.215 -20.331,35.216 H 485.447 L 465.115,878.666 Z M 774.08,676.808 h 40.664 l 20.331,35.216 -20.331,35.216 H 774.08 L 753.748,712.024 Z M 581.658,787.903 h 40.664 l 20.331,35.216 -20.331,35.215 h -40.664 l -20.332,-35.215 z m 136.875,-55.547 20.331,35.215 -20.331,35.216 h -40.664 l -20.332,-35.216 20.332,-35.215 z M 257.809,712.024 237.478,747.24 h -40.664 l -20.332,-35.216 20.332,-35.216 h 40.664 z m 96.211,55.547 -20.331,35.216 h -40.664 l -20.332,-35.216 20.332,-35.215 h 40.664 z m 96.211,55.548 -20.331,35.215 h -40.664 l -20.332,-35.215 20.332,-35.216 H 429.9 Z M 774.08,343.524 h 40.664 l 20.331,35.215 -20.331,35.216 H 774.08 l -20.332,-35.216 z m 0,292.621 -20.332,-35.216 20.332,-35.216 h 40.664 l 20.331,35.216 -20.331,35.216 z m 0,-111.095 -20.332,-35.216 20.332,-35.216 h 40.664 l 20.331,35.216 -20.331,35.216 z M 546.442,212.097 526.111,247.313 h -40.664 l -20.332,-35.216 20.332,-35.216 h 40.664 z m -349.628,201.858 -20.332,-35.216 20.332,-35.215 h 40.664 l 20.331,35.215 -20.331,35.216 z m 0,111.095 -20.332,-35.216 20.332,-35.216 h 40.664 l 20.331,35.216 -20.331,35.216 z m 0,111.095 -20.332,-35.216 20.332,-35.216 h 40.664 l 20.331,35.216 -20.331,35.216 z M 677.869,287.976 h 40.664 l 20.331,35.216 -20.331,35.215 h -40.664 l -20.332,-35.215 z m -96.211,-55.547 h 40.664 l 20.331,35.215 -20.331,35.216 h -40.664 l -20.332,-35.216 z m -192.422,0 H 429.9 l 20.331,35.215 -20.331,35.216 h -40.664 l -20.332,-35.216 z m -96.211,55.547 h 40.664 l 20.331,35.216 -20.331,35.215 h -40.664 l -20.332,-35.215 z m 233.086,514.811 h -40.664 l -20.332,-35.216 20.332,-35.215 h 40.664 l 20.331,35.215 z M 718.533,691.692 h -40.664 l -20.332,-35.216 20.332,-35.215 h 40.664 l 20.331,35.215 z m -96.211,55.548 h -40.664 l -20.332,-35.216 20.332,-35.216 h 40.664 l 20.331,35.216 z m -288.633,-125.979 20.331,35.215 -20.331,35.216 h -40.664 l -20.332,-35.216 20.332,-35.215 z m 96.211,55.547 20.331,35.216 -20.331,35.216 h -40.664 l -20.332,-35.216 20.332,-35.216 z m 227.637,-242.521 20.332,-35.216 h 40.664 l 20.331,35.216 -20.331,35.215 h -40.664 z m 0,111.095 20.332,-35.216 h 40.664 l 20.331,35.216 -20.331,35.215 h -40.664 z m -172.09,-186.975 -20.332,-35.215 20.332,-35.216 h 40.664 l 20.331,35.216 -20.331,35.215 z m -131.427,75.88 -20.331,35.215 h -40.664 l -20.332,-35.215 20.332,-35.216 h 40.664 z m 0,111.095 -20.331,35.215 h -40.664 l -20.332,-35.215 20.332,-35.216 h 40.664 z m 227.638,-131.427 -20.332,-35.216 20.332,-35.215 h 40.664 l 20.331,35.215 -20.331,35.216 z m -151.758,0 h -40.664 l -20.332,-35.216 20.332,-35.215 H 429.9 l 20.331,35.215 z m 55.547,207.306 h 40.664 l 20.331,35.215 -20.331,35.216 h -40.664 l -20.332,-35.216 z m 96.211,-55.548 h 40.664 l 20.331,35.216 -20.331,35.216 h -40.664 l -20.332,-35.216 z m -151.758,0 20.331,35.216 -20.331,35.216 h -40.664 l -20.332,-35.216 20.332,-35.216 z m 131.426,-75.879 20.332,-35.216 h 40.664 l 20.331,35.216 -20.331,35.216 h -40.664 z m -75.879,-20.332 -20.332,-35.215 20.332,-35.216 h 40.664 l 20.331,35.216 -20.331,35.215 z M 450.231,489.834 429.9,525.05 h -40.664 l -20.332,-35.216 20.332,-35.216 H 429.9 Z M 141.267,954.545 v -40.663 l 35.215,20.332 z M 45.056,898.998 v -40.664 l 35.215,20.332 z m 55.547,-762.78 v 40.663 L 65.387,156.549 Z m 769.688,0 v 40.663 L 835.075,156.549 Z M 774.08,80.67 v 40.664 l -35.216,-20.332 z m -577.266,0 v 40.664 l -35.216,-20.332 z m 521.719,873.875 35.215,-20.331 -35.215,-20.332 z m 96.211,-55.547 35.215,-20.332 -35.215,-20.332 z m 96.211,-55.547 35.215,-20.332 -35.215,-20.332 z M 237.478,80.67 l 35.215,20.332 -35.215,20.332 z m -96.211,55.548 35.215,20.331 -35.215,20.332 z m -96.211,55.547 35.215,20.332 -35.215,20.332 z m 825.235,762.78 -35.216,-20.331 35.216,-20.332 z M 849.959,101.002 814.744,121.334 V 80.67 Z m 60.996,35.216 35.215,20.331 -35.215,20.332 z M 65.387,823.119 100.603,802.787 v 40.664 z m 96.211,55.547 35.216,-20.332 v 40.664 z m 96.211,55.548 35.216,-20.332 v 40.663 z M 45.056,80.67 80.271,101.002 45.056,121.334 Z m 632.813,873.875 -35.216,-20.331 35.216,-20.332 z m 96.211,-55.547 -35.216,-20.332 35.216,-20.332 z m 96.211,-55.547 -35.216,-20.332 35.216,-20.332 z M 45.056,302.86 80.271,323.192 45.056,343.524 Z m 0,111.095 35.215,20.332 -35.215,20.331 z m 0,111.095 35.215,20.332 -35.215,20.331 z m 0,111.095 35.215,20.331 -35.215,20.332 z m 0,111.095 35.215,20.331 -35.215,20.332 z m 96.211,96.211 v -40.664 l 35.215,20.332 z m 96.211,55.547 v -40.664 l 35.215,20.332 z m 96.211,55.547 v -40.663 l 35.215,20.332 z m 577.266,-707.232 35.215,20.331 -35.215,20.332 z m -60.996,-35.216 -35.215,20.332 v -40.664 z m -96.211,-55.548 -35.215,20.332 v -40.663 z m -96.211,-55.547 -35.215,20.332 V 80.67 Z m 253.418,631.354 35.215,-20.332 -35.215,-20.332 z m 0,-111.095 35.215,-20.332 -35.215,-20.332 z m 0,-111.095 35.215,-20.332 -35.215,-20.332 z m 0,-111.095 35.215,-20.332 -35.215,-20.332 z M 65.387,934.214 100.603,913.882 v 40.663 z M 389.236,80.67 v 40.664 L 354.02,101.002 Z m -96.211,55.548 v 40.663 l -35.216,-20.332 z m -96.211,55.547 v 40.664 l -35.216,-20.332 z m -96.211,55.548 v 40.663 L 65.387,267.644 Z m -35.216,131.426 35.216,-20.332 v 40.664 z m 0,111.095 35.216,-20.332 v 40.664 z m 0,111.095 35.216,-20.332 v 40.664 z m 0,111.095 35.216,-20.332 v 40.664 z M 910.955,954.545 946.17,934.214 910.955,913.882 Z M 870.291,247.313 v 40.663 L 835.075,267.644 Z M 774.08,191.765 v 40.664 l -35.216,-20.332 z m -96.211,-55.547 v 40.663 L 642.653,156.549 Z M 581.658,80.67 v 40.664 l -35.216,-20.332 z m -55.547,873.875 35.215,-20.331 -35.215,-20.332 z m 96.211,-55.547 35.215,-20.332 -35.215,-20.332 z m 96.211,-55.547 35.215,-20.332 -35.215,-20.332 z m 96.211,-55.548 35.215,-20.332 -35.215,-20.331 z M 429.9,80.67 465.115,101.002 429.9,121.334 Z m -96.211,55.548 35.215,20.331 -35.215,20.332 z m -96.211,55.547 35.215,20.332 -35.215,20.332 z m -96.211,55.548 35.215,20.331 -35.215,20.332 z m 20.331,520.258 35.216,-20.331 v 40.663 z m 96.211,55.548 35.216,-20.332 v 40.664 z m 96.211,55.547 35.216,-20.332 v 40.664 z m 96.211,55.548 35.216,-20.332 v 40.663 z m 420.06,-201.858 -35.216,-20.332 35.216,-20.332 z m 0,-111.095 -35.216,-20.332 35.216,-20.332 z m 0,-111.095 -35.216,-20.332 35.216,-20.332 z m 0,-111.095 -35.216,-20.332 35.216,-20.332 z m -288.633,499.927 -35.216,-20.332 35.216,-20.332 z m 96.211,-55.547 -35.216,-20.332 35.216,-20.332 z M 774.08,787.903 738.864,767.571 774.08,747.24 Z m -632.813,-429.496 35.215,20.332 -35.215,20.332 z m 0,111.095 35.215,20.332 -35.215,20.332 z m 0,111.095 35.215,20.332 -35.215,20.332 z m 0,111.095 35.215,20.332 -35.215,20.332 z m 96.211,96.211 V 747.24 l 35.215,20.331 z m 96.211,55.548 v -40.664 l 35.215,20.332 z M 465.115,878.666 429.9,898.998 V 858.334 Z M 814.744,343.524 849.959,323.192 814.744,302.86 Z m -96.211,-55.548 35.215,-20.332 -35.215,-20.331 z m -96.211,-55.547 35.215,-20.332 -35.215,-20.332 z m -96.211,-55.548 35.215,-20.332 -35.215,-20.331 z m 288.633,459.264 35.215,20.331 -35.215,20.332 z m 0,-111.095 35.215,20.332 -35.215,20.331 z m 0,-111.095 35.215,20.332 -35.215,20.331 z M 485.447,176.881 450.231,156.549 485.447,136.218 Z m -96.211,55.548 -35.216,-20.332 35.216,-20.332 z m -96.211,55.547 -35.216,-20.332 35.216,-20.331 z m -96.211,55.548 -35.216,-20.332 35.216,-20.332 z m 0,111.094 -35.216,-20.331 35.216,-20.332 z m 0,111.095 -35.216,-20.331 35.216,-20.332 z m 0,111.095 -35.216,-20.332 35.216,-20.331 z M 738.864,323.192 774.08,302.86 v 40.664 z m -96.211,-55.548 35.216,-20.331 v 40.663 z m -96.211,-55.547 35.216,-20.332 v 40.664 z m -20.331,590.69 35.215,20.332 -35.215,20.332 z m 96.211,-55.547 35.215,20.331 -35.215,20.332 z m 131.426,-35.216 -35.215,20.332 V 691.692 Z M 429.9,191.765 465.115,212.097 429.9,232.429 Z m -96.211,55.548 35.215,20.331 -35.215,20.332 z m -96.211,55.547 35.215,20.332 -35.215,20.332 z m 55.547,429.496 -35.216,-20.332 35.216,-20.332 z m 96.211,55.547 -35.216,-20.332 35.216,-20.331 z m 96.211,55.548 -35.216,-20.332 35.216,-20.332 z M 774.08,676.808 738.864,656.476 774.08,636.145 Z m 0,-111.095 -35.216,-20.331 35.216,-20.332 z m 0,-111.095 -35.216,-20.331 35.216,-20.332 z M 581.658,787.903 546.442,767.571 581.658,747.24 Z m 96.211,-55.547 -35.216,-20.332 35.216,-20.332 z M 272.693,434.287 237.478,454.618 v -40.663 z m 0,111.095 -35.215,20.331 V 525.05 Z m 0,111.094 -35.215,20.332 v -40.663 z m 96.211,55.548 -35.215,20.332 v -40.664 z m 96.211,55.547 -35.215,20.332 V 747.24 Z m 253.418,-368.5 35.215,-20.332 -35.215,-20.332 z m -96.211,-55.547 35.215,-20.332 -35.215,-20.332 z m -96.211,-55.548 35.215,-20.332 -35.215,-20.331 z m 192.422,292.621 35.215,20.332 -35.215,20.332 z m 0,-111.095 35.215,20.332 -35.215,20.332 z M 485.447,287.976 450.231,267.644 485.447,247.313 Z m -96.211,55.548 -35.216,-20.332 35.216,-20.332 z m -96.211,55.547 -35.216,-20.332 35.216,-20.332 z m 0,111.095 -35.216,-20.332 35.216,-20.332 z m 0,111.095 -35.216,-20.332 35.216,-20.332 z m 349.628,-242.522 35.216,-20.332 v 40.664 z m -96.211,-55.547 35.216,-20.332 v 40.664 z m -20.331,368.5 35.215,20.332 -35.215,20.332 z m 96.211,-55.547 35.215,20.331 -35.215,20.332 z M 429.9,343.524 465.115,323.192 429.9,302.86 Z m -96.211,55.547 35.215,-20.332 -35.215,-20.332 z m 55.547,237.074 v 40.663 L 354.02,656.476 Z m 96.211,55.547 v 40.664 l -35.216,-20.332 z m 157.206,-90.763 35.216,-20.332 v 40.664 z m 0,-111.095 35.216,-20.332 v 40.664 z m -60.995,146.311 v 40.663 L 546.442,656.476 Z M 368.904,489.834 333.689,510.166 v -40.664 z m 0,111.095 -35.215,20.332 v -40.664 z m 96.211,55.547 -35.215,20.332 v -40.663 z m 157.207,-201.858 35.215,-20.331 -35.215,-20.332 z m -96.211,-55.547 35.215,-20.332 -35.215,-20.332 z m 96.211,125.979 35.215,20.332 -35.215,20.331 z M 485.447,399.071 450.231,378.739 485.447,358.407 Z m -96.211,55.547 -35.216,-20.331 35.216,-20.332 z m 0,111.095 -35.216,-20.331 35.216,-20.332 z m 157.206,-131.426 35.216,-20.332 v 40.663 z m -20.331,146.31 35.215,20.332 -35.215,20.332 z M 429.9,454.618 465.115,434.287 429.9,413.955 Z m 55.547,125.979 v 40.664 l -35.216,-20.332 z m 60.995,-35.215 35.216,-20.332 v 40.663 z m -81.327,0 -35.215,20.331 V 525.05 Z m 60.996,-35.216 35.215,-20.332 -35.215,-20.332 z m -40.664,0 -35.216,-20.332 35.216,-20.332 z"
     style="opacity:1;fill:none;fill-opacity:1;stroke:#000000;stroke-width:14;stroke-opacity:0.8;stop-opacity:1;stroke-miterlimit:4;stroke-dasharray:none;stroke-linejoin:round"
     id="path28365" />
</svg>
