<?xml version="1.0" encoding="UTF-8" standalone="no"?>
<svg
   xmlns:dc="http://purl.org/dc/elements/1.1/"
   xmlns:cc="http://creativecommons.org/ns#"
   xmlns:rdf="http://www.w3.org/1999/02/22-rdf-syntax-ns#"
   xmlns:svg="http://www.w3.org/2000/svg"
   xmlns="http://www.w3.org/2000/svg"
   xmlns:sodipodi="http://sodipodi.sourceforge.net/DTD/sodipodi-0.dtd"
   xmlns:inkscape="http://www.inkscape.org/namespaces/inkscape"
   version="1.0"
   width="991.22595"
   height="1000.0"
   id="C:\1-uniform_6.svg"
   sodipodi:docname="1-uniform_n6--invert.svg"
   inkscape:version="1.0 (9f2f71dc58, 2020-08-02)">
  <style
     id="style28955" />
  <metadata
     id="metadata28374">
    <rdf:RDF>
      <cc:Work
         rdf:about="">
        <dc:format>image/svg+xml</dc:format>
        <dc:type
           rdf:resource="http://purl.org/dc/dcmitype/StillImage" />
        <dc:title />
      </cc:Work>
    </rdf:RDF>
  </metadata>
  <defs
     id="defs28372" />
  <sodipodi:namedview
     pagecolor="#ffffff"
     bordercolor="#666666"
     inkscape:document-rotation="0"
     borderopacity="1"
     objecttolerance="10"
     gridtolerance="10"
     guidetolerance="10"
     inkscape:pageopacity="0"
     inkscape:pageshadow="2"
     inkscape:window-width="1600"
     inkscape:window-height="907"
     id="namedview28370"
     showgrid="false"
     inkscape:zoom="0.69159505"
     inkscape:cx="515.44227"
     inkscape:cy="458.42241"
     inkscape:window-x="0"
     inkscape:window-y="27"
     inkscape:window-maximized="0"
     inkscape:current-layer="C:\1-uniform_6.svg" />
  <!-- X Coordinate transform: fx(x)=(x+96.90698)*0.8132709-->
  <!-- Y Coordinate transform: fy(y)=(1127.3013-y)*0.8132709 -->
  <!-- Flac geometry view -->
  <path
     id="path10"
     style="color:#000000;font-style:normal;font-variant:normal;font-weight:normal;font-stretch:normal;font-size:medium;line-height:normal;font-family:sans-serif;font-variant-ligatures:normal;font-variant-position:normal;font-variant-caps:normal;font-variant-numeric:normal;font-variant-alternates:normal;font-variant-east-asian:normal;font-feature-settings:normal;font-variation-settings:normal;text-indent:0;text-align:start;text-decoration:none;text-decoration-line:none;text-decoration-style:solid;text-decoration-color:#000000;letter-spacing:normal;word-spacing:normal;text-transform:none;writing-mode:lr-tb;direction:ltr;text-orientation:mixed;dominant-baseline:auto;baseline-shift:baseline;text-anchor:start;white-space:normal;shape-padding:0;shape-margin:0;inline-size:0;clip-rule:nonzero;display:inline;overflow:visible;visibility:visible;isolation:auto;mix-blend-mode:normal;color-interpolation:sRGB;color-interpolation-filters:linearRGB;solid-color:#000000;solid-opacity:1;vector-effect:none;fill:#000000;fill-opacity:0.8;fill-rule:nonzero;stroke:none;stroke-width:16;stroke-linecap:butt;stroke-linejoin:round;stroke-miterlimit:4;stroke-dasharray:none;stroke-dashoffset:0;stroke-opacity:1;filter-blend-mode:normal;filter-gaussianBlur-deviation:0;color-rendering:auto;image-rendering:auto;shape-rendering:auto;text-rendering:auto;enable-background:accumulate;stop-color:#000000;stop-opacity:1;opacity:1"
     d="m 105.22266,73.785156 h 31.42578 l 15.71289,27.216794 -15.71289,27.2168 h -31.42578 l -15.714848,-27.2168 z m 192.42187,0 h 31.42578 l 15.71289,27.216794 -15.71289,27.2168 h -31.42578 l -15.71484,-27.2168 z m 192.42188,0 h 31.42578 l 15.71289,27.216794 -15.71289,27.2168 h -31.42578 l -15.71289,-27.2168 z m 192.42187,0 h 31.42578 l 15.71289,27.216794 -15.71289,27.2168 h -31.42578 l -15.71289,-27.2168 z m 192.42188,0 h 31.42578 l 15.71289,27.216794 -15.71289,27.2168 h -31.42578 l -15.71289,-27.2168 z m -821.853519,20.740235 11.216797,6.476559 -11.216797,6.47657 z m 135.757809,0 v 12.953129 l -11.21679,-6.47657 z m 56.66407,0 11.21679,6.476559 -11.21679,6.47657 z m 135.75781,0 v 12.953129 l -11.2168,-6.47657 z m 56.66406,0 11.2168,6.476559 -11.2168,6.47657 z m 135.75781,0 v 12.953129 l -11.21679,-6.47657 z m 56.66407,0 11.21679,6.476559 -11.21679,6.47657 z m 135.75781,0 v 12.953129 l -11.2168,-6.47657 z m 56.66406,0 11.2168,6.476559 -11.2168,6.47657 z m -658.21875,17.404299 21.36133,12.33203 -12.33203,21.35937 -21.35938,-12.33203 z m 105.24023,0 12.33204,21.35937 -21.36133,12.33203 -12.33008,-21.35937 z m 87.1836,0 21.35937,12.33203 -12.33203,21.35937 -21.35937,-12.33203 z m 105.23828,0 12.33203,21.35937 -21.35937,12.33203 -12.33204,-21.35937 z m 87.18359,0 21.35938,12.33203 -12.33203,21.35937 -21.35938,-12.33203 z m 105.23829,0 12.33203,21.35937 -21.35938,12.33203 L 633.25,124.26172 Z m 87.18359,0 21.35937,12.33203 -12.33203,21.35937 -21.35937,-12.33203 z m 105.23828,0 12.33203,21.35937 -21.35937,12.33203 -12.33203,-21.35937 z m -645.59961,17.40429 h 31.42774 l 15.71289,27.21485 -15.71289,27.21679 h -31.42579 l -15.71484,-27.21679 z m 192.42383,0 h 31.42578 l 15.71289,27.21485 -15.71289,27.21679 h -31.42578 l -15.71289,-27.21679 z m 192.42187,0 h 31.42578 l 15.7129,27.21485 -15.7129,27.21679 h -31.42578 l -15.71289,-27.21679 z m 192.42188,0 H 810.125 l 15.71289,27.21485 -15.71289,27.21679 h -31.42578 l -15.71289,-27.21679 z m -670.0957,14.88477 h 24.66406 v 24.66211 h -24.66406 z m 192.42187,0 h 24.66406 v 24.66211 h -24.66406 z m 192.42188,0 h 24.66406 v 24.66211 h -24.66406 z m 192.42187,0 h 24.66406 v 24.66211 h -24.66406 z m 192.42188,0 h 24.66406 v 24.66211 h -24.66406 z m -785.687504,5.85547 v 12.95117 l -11.216797,-6.47656 z m 56.664064,0 11.21484,6.47461 -11.21484,6.47656 z m 135.75781,0 v 12.95117 l -11.2168,-6.47656 z m 56.66406,0 11.21485,6.47461 -11.21485,6.47656 z m 135.75782,0 v 12.95117 l -11.2168,-6.47656 z m 56.66406,0 11.21484,6.47461 -11.21484,6.47656 z m 135.75781,0 v 12.95117 l -11.2168,-6.47656 z m 56.66406,0 11.21485,6.47461 -11.21485,6.47656 z m 135.75782,0 v 12.95117 l -11.2168,-6.47656 z m 56.66406,0 11.21484,6.47461 -11.21484,6.47656 z m -745.40039,17.40234 12.33203,21.35938 -21.36133,12.33203 -12.33008,-21.35938 z m 87.18164,0 21.36133,12.33203 -12.33204,21.35938 -21.35937,-12.33203 z m 105.24023,0 12.33203,21.35938 -21.35937,12.33203 -12.33203,-21.35938 z m 87.1836,0 21.35937,12.33203 -12.33203,21.35938 -21.35938,-12.33203 z m 105.23828,0 12.33203,21.35938 -21.35938,12.33203 -12.33203,-21.35938 z m 87.18359,0 21.35938,12.33203 -12.33203,21.35938 L 633.25,188.83594 Z m 105.23828,0 12.33203,21.35938 -21.35937,12.33203 -12.33203,-21.35938 z m 87.1836,0 21.35937,12.33203 -12.33203,21.35938 -21.35937,-12.33203 z m -732.78125,17.4043 h 31.42578 l 15.71289,27.2168 -15.71289,27.21484 H 105.22266 L 89.507812,212.09766 Z m 192.42187,0 h 31.42578 l 15.71289,27.2168 -15.71289,27.21484 h -31.42578 l -15.71484,-27.21484 z m 192.42188,0 h 31.42578 l 15.71289,27.2168 -15.71289,27.21484 h -31.42578 l -15.71289,-27.21484 z m 192.42187,0 h 31.42578 l 15.71289,27.2168 -15.71289,27.21484 h -31.42578 l -15.71289,-27.21484 z m 192.42188,0 h 31.42578 l 15.71289,27.2168 -15.71289,27.21484 h -31.42578 l -15.71289,-27.21484 z m -670.09571,14.88476 h 24.66407 v 24.66407 h -24.66407 z m 192.42188,0 h 24.66406 v 24.66407 h -24.66406 z m 192.42187,0 h 24.66407 v 24.66407 H 589.6582 Z m 192.42188,0 h 24.66406 v 24.66407 h -24.66406 z m -729.023439,5.85547 11.214843,6.47657 -11.214843,6.47461 z m 135.757809,0 v 12.95118 l -11.21484,-6.47461 z m 56.66407,0 11.21484,6.47657 -11.21484,6.47461 z m 135.75781,0 v 12.95118 l -11.21485,-6.47461 z m 56.66406,0 11.21484,6.47657 -11.21484,6.47461 z m 135.75781,0 v 12.95118 l -11.21484,-6.47461 z m 56.66407,0 11.21484,6.47657 -11.21484,6.47461 z m 135.75781,0 v 12.95118 l -11.21485,-6.47461 z m 56.66406,0 11.21484,6.47657 -11.21484,6.47461 z m -658.21875,17.4043 21.36133,12.33203 -12.33203,21.35742 -21.35938,-12.33007 z m 105.24023,0 12.33204,21.35938 -21.36133,12.33007 -12.33008,-21.35742 z m 87.1836,0 21.35937,12.33203 -12.33203,21.35742 -21.35937,-12.33007 z m 105.23828,0 12.33203,21.35938 -21.35937,12.33007 -12.33204,-21.35742 z m 87.18359,0 21.35938,12.33203 -12.33203,21.35742 -21.35938,-12.33007 z m 105.23829,0 12.33203,21.35938 -21.35938,12.33007 L 633.25,235.35742 Z m 87.18359,0 21.35937,12.33203 -12.33203,21.35742 -21.35937,-12.33007 z m 105.23828,0 12.33203,21.35938 -21.35937,12.33007 -12.33203,-21.35742 z m -645.59766,17.4043 h 31.42579 l 15.71289,27.21484 -15.71289,27.21485 h -31.42579 l -15.71484,-27.21485 z m 192.42188,0 h 31.42578 l 15.71289,27.21484 -15.71289,27.21485 h -31.42578 l -15.71289,-27.21485 z m 192.42187,0 h 31.42578 l 15.7129,27.21484 -15.7129,27.21485 h -31.42578 l -15.71289,-27.21485 z m 192.42188,0 H 810.125 l 15.71289,27.21484 -15.71289,27.21485 h -31.42578 l -15.71289,-27.21485 z m -670.0957,14.88281 h 24.66406 v 24.66406 h -24.66406 z m 192.42187,0 h 24.66406 v 24.66406 h -24.66406 z m 192.42188,0 h 24.66406 v 24.66406 h -24.66406 z m 192.42187,0 h 24.66406 v 24.66406 h -24.66406 z m 192.42188,0 h 24.66406 v 24.66406 h -24.66406 z m -785.687504,5.85742 v 12.94922 l -11.214844,-6.47461 z m 56.664064,0 11.21484,6.47461 -11.21484,6.47461 z m 135.75781,0 v 12.94922 l -11.21484,-6.47461 z m 56.66406,0 11.21485,6.47461 -11.21485,6.47461 z m 135.75782,0 v 12.94922 l -11.21485,-6.47461 z m 56.66406,0 11.21484,6.47461 -11.21484,6.47461 z m 135.75781,0 v 12.94922 l -11.21484,-6.47461 z m 56.66406,0 11.21485,6.47461 -11.21485,6.47461 z m 135.75782,0 v 12.94922 l -11.21485,-6.47461 z m 56.66406,0 11.21484,6.47461 -11.21484,6.47461 z m -745.40039,17.40235 12.33203,21.35937 -21.36133,12.33203 -12.33008,-21.35937 z m 87.18164,0 21.36133,12.33203 -12.33204,21.35937 -21.35937,-12.33203 z m 105.24023,0 12.33203,21.35937 -21.35937,12.33203 -12.33203,-21.35937 z m 87.1836,0 21.35937,12.33203 -12.33203,21.35937 -21.35938,-12.33203 z m 105.23828,0 12.33203,21.35937 -21.35938,12.33203 -12.33203,-21.35937 z m 87.18359,0 21.35938,12.33203 -12.33203,21.35937 L 633.25,299.93164 Z m 105.23828,0 12.33203,21.35937 -21.35937,12.33203 -12.33203,-21.35937 z m 87.1836,0 21.35937,12.33203 -12.33203,21.35937 -21.35937,-12.33203 z m -732.78125,17.40429 h 31.42578 l 15.71289,27.21485 -15.71289,27.21484 H 105.22266 L 89.509766,323.19141 Z m 192.41992,0 h 31.42773 l 15.71289,27.21485 -15.71289,27.21484 h -31.42578 l -15.71484,-27.21484 z m 192.42383,0 h 31.42578 l 15.71289,27.21485 -15.71289,27.21484 h -31.42578 l -15.71289,-27.21484 z m 192.42187,0 h 31.42578 l 15.71289,27.21485 -15.71289,27.21484 h -31.42578 l -15.71289,-27.21484 z m 192.42188,0 h 31.42578 l 15.71289,27.21485 -15.71289,27.21484 h -31.42578 l -15.71289,-27.21484 z m -670.09571,14.88282 h 24.66407 v 24.66406 h -24.66407 z m 192.42188,0 h 24.66406 v 24.66406 h -24.66406 z m 192.42187,0 h 24.66407 v 24.66406 H 589.6582 Z m 192.42188,0 h 24.66406 v 24.66406 h -24.66406 z m -729.023439,5.85742 11.214843,6.47461 -11.214843,6.47656 z m 135.757809,0 v 12.95117 l -11.21484,-6.47656 z m 56.66407,0 11.21484,6.47461 -11.21484,6.47656 z m 135.75781,0 v 12.95117 l -11.21485,-6.47656 z m 56.66406,0 11.21484,6.47461 -11.21484,6.47656 z m 135.75781,0 v 12.95117 l -11.21484,-6.47656 z m 56.66407,0 11.21484,6.47461 -11.21484,6.47656 z m 135.75781,0 v 12.95117 l -11.21485,-6.47656 z m 56.66406,0 11.21484,6.47461 -11.21484,6.47656 z m -658.21875,17.40429 21.36133,12.33203 -12.33203,21.35743 -21.35938,-12.33203 z m 105.24023,0 12.33204,21.35743 -21.36133,12.33203 -12.33008,-21.35743 z m 87.18165,0 21.36132,12.33203 -12.33203,21.35743 -21.35937,-12.33203 z m 105.24023,0 12.33203,21.35743 -21.35937,12.33203 -12.33204,-21.35743 z m 87.18164,0 21.36133,12.33203 -12.33203,21.35743 -21.35938,-12.33203 z m 105.24024,0 12.33203,21.35743 -21.35938,12.33203 L 633.25,346.45312 Z m 87.18164,0 21.36132,12.33203 -12.33203,21.35743 -21.35937,-12.33203 z m 105.24023,0 12.33203,21.35743 -21.35937,12.33203 -12.33203,-21.35743 z m -645.59766,17.40235 h 31.42579 l 15.71289,27.21484 -15.71289,27.2168 h -31.42579 l -15.71484,-27.2168 z m 192.42188,0 h 31.42578 l 15.71289,27.21484 -15.71289,27.2168 h -31.42578 l -15.71289,-27.2168 z m 192.42187,0 h 31.42578 l 15.7129,27.21484 -15.7129,27.2168 h -31.42578 l -15.71289,-27.2168 z m 192.42188,0 H 810.125 l 15.71289,27.21484 -15.71289,27.2168 h -31.42578 l -15.71289,-27.2168 z m -670.0957,14.88281 h 24.66406 v 24.66406 h -24.66406 z m 192.42187,0 h 24.66406 v 24.66406 h -24.66406 z m 192.42188,0 h 24.66406 v 24.66406 h -24.66406 z m 192.42187,0 h 24.66406 v 24.66406 h -24.66406 z m 192.42188,0 h 24.66406 v 24.66406 h -24.66406 z m -785.687504,5.85742 v 12.95117 l -11.214844,-6.47656 z m 56.664064,0 11.21484,6.47461 -11.21484,6.47656 z m 135.75781,0 v 12.95117 l -11.21484,-6.47656 z m 56.66406,0 11.21485,6.47461 -11.21485,6.47656 z m 135.75782,0 v 12.95117 l -11.21485,-6.47656 z m 56.66406,0 11.21484,6.47461 -11.21484,6.47656 z m 135.75781,0 v 12.95117 l -11.21484,-6.47656 z m 56.66406,0 11.21485,6.47461 -11.21485,6.47656 z m 135.75782,0 v 12.95117 l -11.21485,-6.47656 z m 56.66406,0 11.21484,6.47461 -11.21484,6.47656 z m -745.40039,17.4043 12.33203,21.35937 -21.36133,12.33204 L 152.19531,402 Z m 87.18164,0 L 282.09766,402 269.76562,423.35938 248.40625,411.02734 Z m 105.24023,0 12.33203,21.35937 -21.35937,12.33204 L 344.61719,402 Z m 87.1836,0 L 474.51953,402 462.1875,423.35938 440.82812,411.02734 Z m 105.23828,0 12.33203,21.35937 -21.35938,12.33204 L 537.03906,402 Z m 87.18359,0 L 666.94141,402 654.60938,423.35938 633.25,411.02734 Z m 105.23828,0 12.33203,21.35937 -21.35937,12.33204 L 729.46094,402 Z m 87.1836,0 L 859.36328,402 847.03125,423.35938 825.67188,411.02734 Z m -732.78125,17.40234 h 31.42578 l 15.71289,27.2168 -15.71289,27.21484 H 105.22266 L 89.507812,434.28711 Z m 192.42187,0 h 31.42578 l 15.71289,27.2168 -15.71289,27.21484 h -31.42578 l -15.71484,-27.21484 z m 192.42188,0 h 31.42578 l 15.71289,27.2168 -15.71289,27.21484 h -31.42578 l -15.71289,-27.21484 z m 192.42187,0 h 31.42578 l 15.71289,27.2168 -15.71289,27.21484 h -31.42578 l -15.71484,-27.21484 z m 192.42188,0 h 31.42578 l 15.71289,27.2168 -15.71289,27.21484 h -31.42578 l -15.71289,-27.21484 z m -670.09571,14.88477 h 24.66407 v 24.66211 h -24.66407 z m 192.42188,0 h 24.66406 v 24.66211 h -24.66406 z m 192.42187,0 h 24.66407 v 24.66211 H 589.6582 Z m 192.42188,0 h 24.66406 v 24.66211 h -24.66406 z m -729.023439,5.85547 11.214843,6.47656 -11.214843,6.47461 z m 135.757809,0 v 12.95117 l -11.21679,-6.47461 z m 56.66407,0 11.21484,6.47656 -11.21484,6.47461 z m 135.75781,0 v 12.95117 l -11.2168,-6.47461 z m 56.66406,0 11.21484,6.47656 -11.21484,6.47461 z m 135.75781,0 v 12.95117 l -11.21679,-6.47461 z m 56.66407,0 11.21484,6.47656 -11.21484,6.47461 z m 135.75781,0 v 12.95117 l -11.2168,-6.47461 z m 56.66406,0 11.21484,6.47656 -11.21484,6.47461 z m -658.21875,17.40429 21.36133,12.33204 -12.33203,21.35937 -21.35938,-12.33203 z m 105.24023,0 12.33204,21.35938 -21.36133,12.33203 -12.33008,-21.35937 z m 87.18165,0 21.36132,12.33204 -12.33203,21.35937 -21.35937,-12.33203 z m 105.24023,0 12.33203,21.35938 -21.35937,12.33203 -12.33204,-21.35937 z m 87.18359,0 21.35938,12.33204 -12.33203,21.35937 -21.35938,-12.33203 z m 105.23829,0 12.33203,21.35938 -21.35938,12.33203 L 633.25,457.54688 Z m 87.18359,0 21.35937,12.33204 -12.33203,21.35937 -21.35937,-12.33203 z m 105.23828,0 12.33203,21.35938 -21.35937,12.33203 -12.33203,-21.35937 z m -645.59766,17.40235 h 31.42579 l 15.71289,27.21679 -15.71289,27.2168 h -31.42579 l -15.71484,-27.2168 z m 192.42188,0 h 31.42578 l 15.71289,27.21679 -15.71289,27.2168 h -31.42578 l -15.71289,-27.2168 z m 192.42187,0 h 31.42578 l 15.7129,27.21679 -15.7129,27.2168 h -31.42578 l -15.71484,-27.2168 z m 192.42188,0 H 810.125 l 15.71289,27.21679 -15.71289,27.2168 h -31.42578 l -15.71289,-27.2168 z m -670.0957,14.88476 h 24.66406 v 24.66407 h -24.66406 z m 192.42187,0 h 24.66406 v 24.66407 h -24.66406 z m 192.42188,0 h 24.66406 v 24.66407 h -24.66406 z m 192.42187,0 h 24.66406 v 24.66407 h -24.66406 z m 192.42188,0 h 24.66406 v 24.66407 h -24.66406 z m -785.687504,5.85547 v 12.95313 l -11.216797,-6.47657 z m 56.664064,0 11.2168,6.47656 -11.2168,6.47657 z m 135.75781,0 v 12.95313 l -11.2168,-6.47657 z m 56.66406,0 11.2168,6.47656 -11.2168,6.47657 z m 135.75782,0 v 12.95313 l -11.2168,-6.47657 z m 56.66406,0 11.21679,6.47656 -11.21679,6.47657 z m 135.75781,0 v 12.95313 l -11.2168,-6.47657 z m 56.66406,0 11.2168,6.47656 -11.2168,6.47657 z m 135.75782,0 v 12.95313 l -11.2168,-6.47657 z m 56.66406,0 11.2168,6.47656 -11.2168,6.47657 z m -745.40039,17.4043 12.33203,21.35937 -21.36133,12.33203 -12.33008,-21.35937 z m 87.18164,0 21.36133,12.33203 -12.33204,21.35937 -21.35937,-12.33203 z m 105.24023,0 12.33203,21.35937 -21.35937,12.33203 -12.33203,-21.35937 z m 87.1836,0 21.35937,12.33203 -12.33203,21.35937 -21.35938,-12.33203 z m 105.23828,0 12.33203,21.35937 -21.35938,12.33203 -12.33203,-21.35937 z m 87.18359,0 21.35938,12.33203 -12.33203,21.35937 L 633.25,522.12109 Z m 105.23828,0 12.33203,21.35937 -21.35937,12.33203 -12.33203,-21.35937 z m 87.1836,0 21.35937,12.33203 -12.33203,21.35937 -21.35937,-12.33203 z m -732.78125,17.4043 h 31.42578 l 15.71289,27.21679 -15.71289,27.21485 H 105.22266 L 89.507812,545.38281 Z m 192.42187,0 h 31.42578 l 15.71289,27.21679 -15.71289,27.21485 h -31.42578 l -15.71484,-27.21485 z m 192.42188,0 h 31.42578 l 15.71289,27.21679 -15.71289,27.21485 h -31.42578 l -15.71289,-27.21485 z m 192.42187,0 h 31.42578 l 15.71289,27.21679 -15.71289,27.21485 h -31.42578 l -15.71484,-27.21485 z m 192.42188,0 h 31.42578 l 15.71289,27.21679 -15.71289,27.21485 h -31.42578 l -15.71289,-27.21485 z m -670.09571,14.88476 h 24.66407 v 24.66211 h -24.66407 z m 192.42188,0 h 24.66406 v 24.66211 h -24.66406 z m 192.42187,0 h 24.66407 v 24.66211 H 589.6582 Z m 192.42188,0 h 24.66406 v 24.66211 h -24.66406 z m -729.023439,5.85547 11.214843,6.47656 -11.214843,6.47461 z m 135.757809,0 v 12.95117 l -11.21484,-6.47461 z m 56.66407,0 11.21484,6.47656 -11.21484,6.47461 z m 135.75781,0 v 12.95117 l -11.21485,-6.47461 z m 56.66406,0 11.21484,6.47656 -11.21484,6.47461 z m 135.75781,0 v 12.95117 l -11.21484,-6.47461 z m 56.66407,0 11.21484,6.47656 -11.21484,6.47461 z m 135.75781,0 v 12.95117 l -11.21485,-6.47461 z m 56.66406,0 11.21484,6.47656 -11.21484,6.47461 z m -658.21875,17.4043 21.36133,12.33007 L 173.55469,590 152.19531,577.66797 Z m 105.24023,0 12.33204,21.35742 L 260.73633,590 248.40625,568.64062 Z m 87.18165,0 21.36132,12.33007 L 365.97656,590 344.61719,577.66797 Z m 105.24023,0 12.33203,21.35742 L 453.16016,590 440.82812,568.64062 Z m 87.18359,0 21.35938,12.33007 L 558.39844,590 537.03906,577.66797 Z m 105.23829,0 12.33203,21.35742 L 645.58203,590 633.25,568.64062 Z m 87.18359,0 21.35937,12.33007 L 750.82031,590 729.46094,577.66797 Z m 105.23828,0 12.33203,21.35742 L 838.00391,590 825.67188,568.64062 Z m -645.59766,17.40234 h 31.42579 l 15.71289,27.2168 -15.71289,27.21484 h -31.42774 l -15.71289,-27.21484 z m 192.42188,0 h 31.42578 l 15.71289,27.2168 -15.71289,27.21484 h -31.42578 l -15.71289,-27.21484 z m 192.42187,0 h 31.42578 l 15.7129,27.2168 -15.7129,27.21484 h -31.42578 l -15.71289,-27.21484 z m 192.42188,0 H 810.125 l 15.71289,27.2168 -15.71289,27.21484 h -31.42578 l -15.71289,-27.21484 z m -670.0957,14.88477 h 24.66406 v 24.66406 h -24.66406 z m 192.42187,0 h 24.66406 v 24.66406 h -24.66406 z m 192.42188,0 h 24.66406 v 24.66406 h -24.66406 z m 192.42187,0 h 24.66406 v 24.66406 h -24.66406 z m 192.42188,0 h 24.66406 v 24.66406 h -24.66406 z m -785.687504,5.85546 v 12.95118 l -11.214844,-6.47461 z m 56.664064,0 11.21484,6.47657 -11.21484,6.47461 z m 135.75781,0 v 12.95118 l -11.21484,-6.47461 z m 56.66406,0 11.21485,6.47657 -11.21485,6.47461 z m 135.75782,0 v 12.95118 l -11.21485,-6.47461 z m 56.66406,0 11.21484,6.47657 -11.21484,6.47461 z m 135.75781,0 v 12.95118 l -11.21484,-6.47461 z m 56.66406,0 11.21485,6.47657 -11.21485,6.47461 z m 135.75782,0 v 12.95118 l -11.21485,-6.47461 z m 56.66406,0 11.21484,6.47657 -11.21484,6.47461 z m -745.40039,17.4043 12.33203,21.35938 -21.36133,12.33008 -12.33008,-21.35743 z m 87.18164,0 21.36133,12.33203 -12.33204,21.35743 -21.35937,-12.33008 z m 105.24023,0 12.33203,21.35938 -21.36132,12.33008 -12.33008,-21.35743 z m 87.1836,0 21.35937,12.33203 -12.33203,21.35743 -21.35938,-12.33008 z m 105.23828,0 12.33203,21.35938 -21.35938,12.33008 -12.33203,-21.35743 z m 87.18359,0 21.35938,12.33203 -12.33203,21.35743 L 633.25,633.2168 Z m 105.23828,0 12.33203,21.35938 -21.35937,12.33008 -12.33203,-21.35743 z m 87.1836,0 21.35937,12.33203 -12.33203,21.35743 -21.35937,-12.33008 z m -732.78125,17.4043 h 31.42578 l 15.71289,27.21484 -15.71289,27.21485 H 105.22266 L 89.509766,656.47656 Z m 192.42187,0 h 31.42578 l 15.71289,27.21484 -15.71289,27.21485 h -31.42578 l -15.71484,-27.21485 z m 192.42188,0 h 31.42578 l 15.71289,27.21484 -15.71289,27.21485 h -31.42578 l -15.71289,-27.21485 z m 192.42187,0 h 31.42578 l 15.71289,27.21484 -15.71289,27.21485 h -31.42578 l -15.71289,-27.21485 z m 192.42188,0 h 31.42578 l 15.71289,27.21484 -15.71289,27.21485 h -31.42578 l -15.71289,-27.21485 z m -670.09571,14.88281 h 24.66407 v 24.66406 h -24.66407 z m 192.42188,0 h 24.66406 v 24.66406 h -24.66406 z m 192.42187,0 h 24.66407 v 24.66406 H 589.6582 Z m 192.42188,0 h 24.66406 v 24.66406 H 782.08008 Z M 53.056641,650 l 11.214843,6.47656 -11.214843,6.47461 z m 192.421879,0 11.21484,6.47656 -11.21484,6.47461 z m 192.42187,0 11.21484,6.47656 -11.21484,6.47461 z m 192.42188,0 11.21484,6.47656 -11.21484,6.47461 z m 192.42187,0 11.21484,6.47656 -11.21484,6.47461 z m -633.92969,0.002 v 12.94922 l -11.21484,-6.47461 z m 192.42188,0 v 12.94922 l -11.21485,-6.47461 z m 192.42187,0 v 12.94922 l -11.21484,-6.47461 z m 192.42188,0 v 12.94922 l -11.21485,-6.47461 z m -601.55469,17.40235 21.36133,12.33203 -12.33203,21.35937 -21.35938,-12.33203 z m 105.24023,0 12.33204,21.35937 -21.36133,12.33203 -12.33008,-21.35937 z m 87.1836,0 21.35937,12.33203 -12.33203,21.35937 -21.35937,-12.33203 z m 105.23828,0 12.33203,21.35937 -21.35937,12.33203 -12.33204,-21.35937 z m 87.18359,0 21.35938,12.33203 -12.33203,21.35937 -21.35938,-12.33203 z m 105.23829,0 12.33203,21.35937 L 645.58203,701.0957 633.25,679.73633 Z m 87.18359,0 21.35937,12.33203 -12.33203,21.35937 -21.35937,-12.33203 z m 105.23828,0 12.33203,21.35937 -21.35937,12.33203 -12.33203,-21.35937 z m -645.59766,17.40429 h 31.42579 l 15.71289,27.21485 -15.71289,27.21679 h -31.42579 l -15.71484,-27.21679 z m 192.42188,0 h 31.42578 l 15.71289,27.21485 -15.71289,27.21679 h -31.42578 l -15.71289,-27.21679 z m 192.42187,0 h 31.42578 l 15.7129,27.21485 -15.7129,27.21679 h -31.42578 l -15.71289,-27.21679 z m 192.42188,0 H 810.125 l 15.71289,27.21485 -15.71289,27.21679 h -31.42578 l -15.71289,-27.21679 z m -670.0957,14.88282 h 24.66406 v 24.66406 h -24.66406 z m 192.42187,0 h 24.66406 v 24.66406 h -24.66406 z m 192.42188,0 h 24.66406 v 24.66406 h -24.66406 z m 192.42187,0 h 24.66406 v 24.66406 h -24.66406 z m 192.42188,0 h 24.66406 v 24.66406 H 878.29102 Z M 92.603516,705.54883 V 718.5 l -11.214844,-6.47656 z m 56.664064,0 11.21484,6.47461 -11.21484,6.47656 z m 135.75781,0 V 718.5 l -11.21484,-6.47656 z m 56.66406,0 11.21485,6.47461 -11.21485,6.47656 z m 135.75782,0 V 718.5 l -11.21485,-6.47656 z m 56.66406,0 11.21484,6.47461 -11.21484,6.47656 z m 135.75781,0 V 718.5 l -11.21484,-6.47656 z m 56.66406,0 11.21485,6.47461 L 726.5332,718.5 Z m 135.75782,0 V 718.5 l -11.21485,-6.47656 z m 56.66406,0 11.21484,6.47461 -11.21484,6.47656 z m -745.40039,17.40429 12.33203,21.35938 -21.36133,12.33008 -12.33008,-21.35938 z m 87.18164,0 21.36133,12.33204 -12.33204,21.35742 -21.35937,-12.33008 z m 105.24023,0 12.33203,21.35938 -21.36132,12.33008 -12.33008,-21.35938 z m 87.1836,0 21.35937,12.33204 -12.33203,21.35742 -21.35938,-12.33008 z m 105.23828,0 12.33203,21.35938 -21.35938,12.33008 -12.33203,-21.35938 z m 87.18359,0 21.35938,12.33204 -12.33203,21.35742 L 633.25,744.3125 Z m 105.23828,0 12.33203,21.35938 -21.35937,12.33008 -12.33203,-21.35938 z m 87.1836,0 21.35937,12.33204 -12.33203,21.35742 -21.35937,-12.33008 z m -732.78125,17.40235 h 31.42578 l 15.71289,27.21484 -15.71289,27.2168 h -31.42578 l -15.714848,-27.2168 z m 192.42187,0 h 31.42578 l 15.71289,27.21484 -15.71289,27.2168 h -31.42578 l -15.71484,-27.2168 z m 192.42188,0 h 31.42578 l 15.71289,27.21484 -15.71289,27.2168 h -31.42578 l -15.71289,-27.2168 z m 192.42187,0 h 31.42578 l 15.71289,27.21484 -15.71289,27.2168 h -31.42578 l -15.71289,-27.2168 z m 192.42188,0 h 31.42578 l 15.71289,27.21484 -15.71289,27.2168 h -31.42578 l -15.71289,-27.2168 z m -670.09571,14.88476 h 24.66407 v 24.66211 h -24.66407 z m 192.42188,0 h 24.66406 v 24.66211 h -24.66406 z m 192.42187,0 h 24.66407 v 24.66211 H 589.6582 Z m 192.42188,0 h 24.66406 v 24.66211 h -24.66406 z m -729.023439,5.85547 11.214843,6.47461 -11.214843,6.47657 z m 135.757809,0 v 12.95118 l -11.21484,-6.47657 z m 56.66407,0 11.21484,6.47461 -11.21484,6.47657 z m 135.75781,0 v 12.95118 l -11.21485,-6.47657 z m 56.66406,0 11.21484,6.47461 -11.21484,6.47657 z m 135.75781,0 v 12.95118 l -11.21484,-6.47657 z m 56.66407,0 11.21484,6.47461 -11.21484,6.47657 z m 135.75781,0 v 12.95118 l -11.21485,-6.47657 z m 56.66406,0 11.21484,6.47461 -11.21484,6.47657 z M 164.52539,778.5 l 21.36133,12.33203 -12.33203,21.35938 -21.35938,-12.33203 z m 105.24023,0 12.33204,21.35938 -21.36133,12.33203 -12.33008,-21.35938 z m 87.1836,0 21.35937,12.33203 -12.33203,21.35938 -21.35937,-12.33203 z m 105.23828,0 12.33203,21.35938 -21.35937,12.33203 -12.33204,-21.35938 z m 87.18359,0 21.35938,12.33203 -12.33203,21.35938 -21.35938,-12.33203 z m 105.23829,0 12.33203,21.35938 -21.35938,12.33203 L 633.25,790.83203 Z m 87.18359,0 21.35937,12.33203 -12.33203,21.35938 -21.35937,-12.33203 z m 105.23828,0 12.33203,21.35938 -21.35937,12.33203 -12.33203,-21.35938 z m -645.59766,17.40234 h 31.42579 l 15.71289,27.2168 -15.71289,27.21484 h -31.42774 l -15.71289,-27.21484 z m 192.42188,0 h 31.42578 l 15.71289,27.2168 -15.71289,27.21484 h -31.42578 l -15.71289,-27.21484 z m 192.42187,0 h 31.42578 l 15.7129,27.2168 -15.7129,27.21484 h -31.42578 l -15.71289,-27.21484 z m 192.42188,0 H 810.125 l 15.71289,27.2168 -15.71289,27.21484 h -31.42578 l -15.71289,-27.21484 z m -670.0957,14.88477 h 24.66406 v 24.66406 h -24.66406 z m 192.42187,0 h 24.66406 v 24.66406 h -24.66406 z m 192.42188,0 h 24.66406 v 24.66406 h -24.66406 z m 192.42187,0 h 24.66406 v 24.66406 h -24.66406 z m 192.42188,0 h 24.66406 v 24.66406 h -24.66406 z m -785.687504,5.85547 v 12.95312 l -11.216797,-6.47656 z m 56.664064,0 11.2168,6.47656 -11.2168,6.47656 z m 135.75781,0 v 12.95312 l -11.2168,-6.47656 z m 56.66406,0 11.2168,6.47656 -11.2168,6.47656 z m 135.75782,0 v 12.95312 l -11.2168,-6.47656 z m 56.66406,0 11.21679,6.47656 -11.21679,6.47656 z m 135.75781,0 v 12.95312 l -11.2168,-6.47656 z m 56.66406,0 11.2168,6.47656 -11.2168,6.47656 z m 135.75782,0 v 12.95312 l -11.2168,-6.47656 z m 56.66406,0 11.2168,6.47656 -11.2168,6.47656 z m -745.40039,17.4043 12.33203,21.35937 -21.36133,12.33203 -12.33008,-21.35937 z m 87.18164,0 21.36133,12.33203 -12.33204,21.35937 -21.35937,-12.33203 z m 105.24023,0 12.33203,21.35937 -21.36132,12.33203 -12.33008,-21.35937 z m 87.1836,0 21.35937,12.33203 -12.33203,21.35937 -21.35938,-12.33203 z m 105.23828,0 12.33203,21.35937 -21.35938,12.33203 -12.33203,-21.35937 z m 87.18359,0 21.35938,12.33203 -12.33203,21.35937 L 633.25,855.40625 Z m 105.23828,0 12.33203,21.35937 -21.35937,12.33203 -12.33203,-21.35937 z m 87.1836,0 21.35937,12.33203 -12.33203,21.35937 -21.35937,-12.33203 z m -732.78125,17.40429 h 31.42578 l 15.71289,27.21485 -15.71289,27.21679 H 105.22266 L 89.507812,878.66602 Z m 192.42187,0 h 31.42578 l 15.71289,27.21485 -15.71289,27.21679 h -31.42578 l -15.71484,-27.21679 z m 192.42188,0 h 31.42578 l 15.71289,27.21485 -15.71289,27.21679 h -31.42578 l -15.71289,-27.21679 z m 192.42187,0 h 31.42578 l 15.71289,27.21485 -15.71289,27.21679 h -31.42578 l -15.71289,-27.21679 z m 192.42188,0 h 31.42578 l 15.71289,27.21485 -15.71289,27.21679 h -31.42578 l -15.71289,-27.21679 z m -821.853519,20.73828 11.216797,6.47657 -11.216797,6.47656 z m 135.757809,0 v 12.95313 l -11.21679,-6.47656 z m 56.66407,0 11.21679,6.47657 -11.21679,6.47656 z m 135.75781,0 v 12.95313 l -11.2168,-6.47656 z m 56.66406,0 11.2168,6.47657 -11.2168,6.47656 z m 135.75781,0 v 12.95313 l -11.21679,-6.47656 z m 56.66407,0 11.21679,6.47657 -11.21679,6.47656 z m 135.75781,0 v 12.95313 l -11.2168,-6.47656 z m 56.66406,0 11.2168,6.47657 -11.2168,6.47656 z M 92.603516,927.73828 v 12.95117 l -11.214844,-6.47461 z m 56.664064,0 11.21484,6.47656 -11.21484,6.47461 z m 135.75781,0 v 12.95117 l -11.21484,-6.47461 z m 56.66406,0 11.21485,6.47656 -11.21485,6.47461 z m 135.75782,0 v 12.95117 l -11.21485,-6.47461 z m 56.66406,0 11.21484,6.47656 -11.21484,6.47461 z m 135.75781,0 v 12.95117 l -11.21484,-6.47461 z m 56.66406,0 11.21485,6.47656 -11.21485,6.47461 z m 135.75782,0 v 12.95117 l -11.21485,-6.47461 z m 56.66406,0 11.21484,6.47656 -11.21484,6.47461 z" />
</svg>
