<?xml version="1.0" encoding="UTF-8" standalone="no"?>
<svg
   xmlns:dc="http://purl.org/dc/elements/1.1/"
   xmlns:cc="http://creativecommons.org/ns#"
   xmlns:rdf="http://www.w3.org/1999/02/22-rdf-syntax-ns#"
   xmlns:svg="http://www.w3.org/2000/svg"
   xmlns="http://www.w3.org/2000/svg"
   xmlns:sodipodi="http://sodipodi.sourceforge.net/DTD/sodipodi-0.dtd"
   xmlns:inkscape="http://www.inkscape.org/namespaces/inkscape"
   inkscape:version="1.0beta1 (32d4812, 2019-09-19)"
   sodipodi:docname="1-uniform_n7.svg"
   id="C:\1-uniform_7.svg"
   height="978.98535"
   width="1000.0"
   version="1.0">
  <metadata
     id="metadata30087">
    <rdf:RDF>
      <cc:Work
         rdf:about="">
        <dc:format>image/svg+xml</dc:format>
        <dc:type
           rdf:resource="http://purl.org/dc/dcmitype/StillImage" />
        <dc:title></dc:title>
      </cc:Work>
    </rdf:RDF>
  </metadata>
  <defs
     id="defs30085" />
  <sodipodi:namedview
     inkscape:current-layer="C:\1-uniform_7.svg"
     inkscape:window-maximized="1"
     inkscape:window-y="23"
     inkscape:window-x="0"
     inkscape:cy="352.44752"
     inkscape:cx="89.712038"
     inkscape:zoom="0.59087846"
     showgrid="false"
     id="namedview30083"
     inkscape:window-height="1005"
     inkscape:window-width="1680"
     inkscape:pageshadow="2"
     inkscape:pageopacity="0"
     guidetolerance="10"
     gridtolerance="10"
     objecttolerance="10"
     borderopacity="1"
     inkscape:document-rotation="0"
     bordercolor="#666666"
     pagecolor="#ffffff" />
  <!-- X Coordinate transform: fx(x)=(x+132.5)*0.7905138-->
  <!-- Y Coordinate transform: fy(y)=(1119.2083-y)*0.7905138 -->
  <!-- Flac geometry view -->
  <path
     d="m 65.217,284.111 -19.762,34.23 19.762,34.231 h 39.526 l 19.763,-34.231 -19.763,-34.23 z m 0,-136.921 -19.762,34.23 19.762,34.231 h 39.526 l 19.763,-34.231 -19.763,-34.23 z m 830.04,753.066 h -39.526 l -19.763,-34.231 19.763,-34.23 h 39.526 l 19.763,34.23 z m 39.526,-68.461 h -39.526 l -19.763,-34.23 19.763,-34.23 h 39.526 l 19.762,34.23 z m -790.514,68.461 -19.763,-34.231 19.763,-34.23 h 39.525 l 19.763,34.23 -19.763,34.231 z M 104.743,78.73 h 39.526 l 19.763,34.23 -19.763,34.23 H 104.743 L 84.98,112.96 Z m 0,753.065 -19.763,-34.23 19.763,-34.23 h 39.526 l 19.763,34.23 -19.763,34.23 z m -39.526,-68.46 -19.762,-34.231 19.762,-34.23 h 39.526 l 19.763,34.23 -19.763,34.231 z M 855.731,78.73 l 19.763,34.23 -19.763,34.23 h -39.525 l -19.763,-34.23 19.763,-34.23 z m 39.526,68.46 19.763,34.23 -19.763,34.231 h -39.526 l -19.763,-34.231 19.763,-34.23 z m 39.526,68.461 19.762,34.23 -19.762,34.23 h -39.526 l -19.763,-34.23 19.763,-34.23 z M 183.794,78.73 h 39.526 l 19.763,34.23 -19.763,34.23 h -39.526 l -19.762,-34.23 z m -39.525,68.46 h 39.525 l 19.763,34.23 -19.763,34.231 H 144.269 L 124.506,181.42 Z m -39.526,68.461 h 39.526 l 19.763,34.23 -19.763,34.23 H 104.743 L 84.98,249.881 Z M 816.206,900.256 H 776.68 l -19.763,-34.231 19.763,-34.23 h 39.526 l 19.762,34.23 z m 39.525,-68.461 h -39.525 l -19.763,-34.23 19.763,-34.23 h 39.525 l 19.763,34.23 z m 39.526,-68.46 h -39.526 l -19.763,-34.231 19.763,-34.23 h 39.526 l 19.763,34.23 z m 39.526,-68.461 h -39.526 l -19.763,-34.23 19.763,-34.23 h 39.526 l 19.762,34.23 z m 0,-616.144 19.762,34.23 -19.762,34.23 h -39.526 l -19.763,-34.23 19.763,-34.23 z m -158.103,0 19.763,34.23 -19.763,34.23 H 737.154 L 717.391,112.96 737.154,78.73 Z M 65.217,900.256 45.455,866.025 65.217,831.795 h 39.526 l 19.763,34.23 -19.763,34.231 z M 262.846,78.73 h 39.526 l 19.762,34.23 -19.762,34.23 h -39.526 l -19.763,-34.23 z m -39.526,821.526 -19.763,-34.231 19.763,-34.23 h 39.526 l 19.763,34.23 -19.763,34.231 z M 65.217,626.414 45.455,592.183 65.217,557.953 h 39.526 l 19.763,34.23 -19.763,34.231 z m 118.577,205.381 -19.762,-34.23 19.762,-34.23 h 39.526 l 19.763,34.23 -19.763,34.23 z M 84.98,660.644 l 19.763,-34.23 h 39.526 l 19.763,34.23 -19.763,34.23 h -39.526 z m 59.289,102.691 -19.763,-34.231 19.763,-34.23 h 39.525 l 19.763,34.23 -19.763,34.231 z m 592.885,136.921 h -39.526 l -19.762,-34.231 19.762,-34.23 h 39.526 l 19.763,34.23 z M 500,489.493 h 39.526 l 19.763,34.23 -19.763,34.23 H 500 l -19.763,-34.23 z m 316.206,-342.303 19.762,34.23 -19.762,34.231 H 776.68 L 756.917,181.42 776.68,147.19 Z m 118.577,205.382 19.762,34.23 -19.762,34.23 h -39.526 l -19.763,-34.23 19.763,-34.23 z m -79.052,-136.921 19.763,34.23 -19.763,34.23 h -39.525 l -19.763,-34.23 19.763,-34.23 z m 59.289,102.69 -19.763,34.231 h -39.526 l -19.763,-34.231 19.763,-34.23 h 39.526 z M 341.897,78.73 h 39.526 l 19.763,34.23 -19.763,34.23 h -39.526 l -19.763,-34.23 z m 355.731,0 19.763,34.23 -19.763,34.23 H 658.103 L 638.34,112.96 658.103,78.73 Z m -276.679,0 h 39.525 l 19.763,34.23 -19.763,34.23 h -39.525 l -19.763,-34.23 z m 197.628,0 19.763,34.23 -19.763,34.23 H 579.051 L 559.289,112.96 579.051,78.73 Z M 500,78.73 h 39.526 l 19.763,34.23 -19.763,34.23 H 500 L 480.237,112.96 Z M 65.217,421.032 h 39.526 l 19.763,34.23 -19.763,34.231 H 65.217 L 45.455,455.262 Z M 223.32,147.19 h 39.526 l 19.763,34.23 -19.763,34.231 H 223.32 L 203.557,181.42 Z m -138.34,239.612 19.763,-34.23 h 39.526 l 19.763,34.23 -19.763,34.23 h -39.526 z m 98.814,-171.151 h 39.526 l 19.763,34.23 -19.763,34.23 h -39.526 l -19.762,-34.23 z m -59.288,102.69 19.763,-34.23 h 39.525 l 19.763,34.23 -19.763,34.231 h -39.525 z m 177.866,581.915 -19.763,-34.231 19.763,-34.23 h 39.525 l 19.763,34.23 -19.763,34.231 z m 355.731,0 h -39.526 l -19.763,-34.231 19.763,-34.23 h 39.526 l 19.763,34.23 z m -276.68,0 -19.763,-34.231 19.763,-34.23 h 39.526 l 19.762,34.23 -19.762,34.231 z m 197.628,0 h -39.525 l -19.763,-34.231 19.763,-34.23 h 39.525 l 19.763,34.23 z m -118.577,0 -19.763,-34.231 19.763,-34.23 H 500 l 19.763,34.23 L 500,900.256 Z M 776.68,831.795 h -39.526 l -19.763,-34.23 19.763,-34.23 h 39.526 l 19.763,34.23 z M 934.783,557.953 h -39.526 l -19.763,-34.23 19.763,-34.23 h 39.526 l 19.762,34.23 z M 816.206,763.335 H 776.68 l -19.763,-34.231 19.763,-34.23 h 39.526 l 19.762,34.23 z m 98.814,-171.152 -19.763,34.231 h -39.526 l -19.763,-34.231 19.763,-34.23 h 39.526 z m -59.289,102.691 h -39.525 l -19.763,-34.23 19.763,-34.23 h 39.525 l 19.763,34.23 z M 737.154,147.19 l 19.763,34.23 -19.763,34.231 H 697.628 L 677.866,181.42 697.628,147.19 Z M 84.98,523.723 l 19.763,-34.23 h 39.526 l 19.763,34.23 -19.763,34.23 H 104.743 Z M 302.372,147.19 h 39.525 l 19.763,34.23 -19.763,34.231 H 302.372 L 282.609,181.42 Z m -39.526,684.605 -19.763,-34.23 19.763,-34.23 h 39.526 l 19.762,34.23 -19.762,34.23 z m -138.34,-239.612 19.763,-34.23 h 39.525 l 19.763,34.23 -19.763,34.231 h -39.525 z m 98.814,171.152 -19.763,-34.231 19.763,-34.23 h 39.526 l 19.763,34.23 -19.763,34.231 z m -59.288,-102.691 19.762,-34.23 h 39.526 l 19.763,34.23 -19.763,34.23 h -39.526 z m 533.596,171.151 h -39.525 l -19.763,-34.23 19.763,-34.23 h 39.525 l 19.763,34.23 z M 915.02,455.262 895.257,489.493 h -39.526 l -19.763,-34.231 19.763,-34.23 h 39.526 z m -138.34,-239.611 19.763,34.23 -19.763,34.23 h -39.526 l -19.763,-34.23 19.763,-34.23 z m 98.814,171.151 -19.763,34.23 h -39.525 l -19.763,-34.23 19.763,-34.23 h 39.525 z m -59.288,-102.691 19.762,34.23 -19.762,34.231 H 776.68 l -19.763,-34.231 19.763,-34.23 z M 381.423,147.19 h 39.526 l 19.762,34.23 -19.762,34.231 H 381.423 L 361.66,181.42 Z m 276.68,0 19.763,34.23 -19.763,34.231 H 618.577 L 598.814,181.42 618.577,147.19 Z M 460.474,215.651 440.711,181.42 460.474,147.19 H 500 L 519.763,181.42 500,215.651 Z m 79.052,0 -19.763,-34.231 19.763,-34.23 h 39.525 l 19.763,34.23 -19.763,34.231 z M 183.794,489.493 h -39.525 l -19.763,-34.231 19.763,-34.23 h 39.525 l 19.763,34.23 z M 302.372,284.111 h -39.526 l -19.763,-34.23 19.763,-34.23 h 39.526 l 19.762,34.23 z M 223.32,421.032 h -39.526 l -19.762,-34.23 19.762,-34.23 h 39.526 l 19.763,34.23 z m 39.526,-68.46 H 223.32 l -19.763,-34.231 19.763,-34.23 h 39.526 l 19.763,34.23 z m 79.051,410.763 h 39.526 l 19.763,34.23 -19.763,34.23 h -39.526 l -19.763,-34.23 z m 276.68,0 19.763,34.23 -19.763,34.23 h -39.526 l -19.762,-34.23 19.762,-34.23 z m -158.103,0 19.763,34.23 -19.763,34.23 h -39.525 l -19.763,-34.23 19.763,-34.23 z m 79.052,0 19.763,34.23 -19.763,34.23 H 500 L 480.237,797.565 500,763.335 Z m 197.628,0 h -39.526 l -19.762,-34.231 19.762,-34.23 h 39.526 l 19.763,34.23 z m 138.34,-239.612 -19.763,34.23 h -39.525 l -19.763,-34.23 19.763,-34.23 h 39.525 z M 776.68,694.874 h -39.526 l -19.763,-34.23 19.763,-34.23 h 39.526 l 19.763,34.23 z m 59.288,-102.691 -19.762,34.231 H 776.68 l -19.763,-34.231 19.763,-34.23 h 39.526 z M 638.34,249.881 l 19.763,-34.23 h 39.525 l 19.763,34.23 -19.763,34.23 H 658.103 Z M 223.32,557.953 h -39.526 l -19.762,-34.23 19.762,-34.23 h 39.526 l 19.763,34.23 z m 98.814,-308.072 19.763,-34.23 h 39.526 l 19.763,34.23 -19.763,34.23 h -39.526 z m 19.763,513.454 h -39.525 l -19.763,-34.231 19.763,-34.23 h 39.525 l 19.763,34.23 z M 223.32,557.953 h 39.526 l 19.763,34.23 -19.763,34.231 H 223.32 l -19.763,-34.231 z m 79.052,136.921 h -39.526 l -19.763,-34.23 19.763,-34.23 h 39.526 l 19.762,34.23 z m 316.205,68.461 -19.763,-34.231 19.763,-34.23 h 39.526 l 19.763,34.23 -19.763,34.231 z m 138.34,-308.073 19.763,-34.23 h 39.526 l 19.762,34.23 -19.762,34.231 H 776.68 Z m -79.051,-136.921 19.762,-34.23 h 39.526 l 19.763,34.23 -19.763,34.231 h -39.526 z m 39.525,68.461 19.763,-34.23 h 39.526 l 19.763,34.23 -19.763,34.23 h -39.526 z m -256.917,-171.151 19.763,34.23 -19.763,34.23 h -39.525 l -19.763,-34.23 19.763,-34.23 z m 118.577,0 h 39.526 l 19.763,34.23 -19.763,34.23 h -39.526 l -19.762,-34.23 z m -39.525,0 19.763,34.23 -19.763,34.23 H 500 L 480.237,249.881 500,215.651 Z M 223.32,421.032 h 39.526 l 19.763,34.23 -19.763,34.231 H 223.32 l -19.763,-34.231 z m 59.289,-102.691 19.763,-34.23 h 39.525 l 19.763,34.23 -19.763,34.231 h -39.525 z m -19.763,34.231 h 39.526 l 19.762,34.23 -19.762,34.23 h -39.526 l -19.763,-34.23 z m 118.577,410.763 -19.763,-34.231 19.763,-34.23 h 39.526 l 19.762,34.23 -19.762,34.231 z m 197.628,0 h -39.525 l -19.763,-34.231 19.763,-34.23 h 39.525 l 19.763,34.23 z m -118.577,0 -19.763,-34.231 19.763,-34.23 H 500 l 19.763,34.23 L 500,763.335 Z M 658.103,626.414 h 39.525 l 19.763,34.23 -19.763,34.23 h -39.525 l -19.763,-34.23 z m 79.051,-136.921 h 39.526 l 19.763,34.23 -19.763,34.23 h -39.526 l -19.763,-34.23 z m -39.526,68.46 h 39.526 l 19.763,34.23 -19.763,34.231 h -39.526 l -19.762,-34.231 z m -79.051,-205.381 -19.763,-34.231 19.763,-34.23 h 39.526 l 19.763,34.23 -19.763,34.231 z m -296.443,171.151 -19.762,34.23 h -39.526 l -19.763,-34.23 19.763,-34.23 h 39.526 z m 98.815,-171.151 h -39.526 l -19.763,-34.231 19.763,-34.23 h 39.526 l 19.762,34.23 z m -19.763,308.072 -19.763,34.23 h -39.526 l -19.763,-34.23 19.763,-34.23 h 39.526 z m -39.526,-68.461 -19.763,34.231 h -39.525 l -19.763,-34.231 19.763,-34.23 h 39.525 z m 256.917,34.231 19.763,34.23 -19.763,34.23 h -39.526 l -19.762,-34.23 19.762,-34.23 z m 79.051,-136.921 -19.762,-34.231 19.762,-34.23 h 39.526 l 19.763,34.23 -19.763,34.231 z m -39.525,-68.461 -19.763,-34.23 19.763,-34.23 h 39.525 l 19.763,34.23 -19.763,34.23 z m -197.629,-68.46 -19.763,-34.231 19.763,-34.23 H 500 l 19.763,34.23 L 500,352.572 Z m 79.052,0 -19.763,-34.231 19.763,-34.23 h 39.525 l 19.763,34.23 -19.763,34.231 z M 341.897,489.493 h -39.525 l -19.763,-34.231 19.763,-34.23 h 39.525 l 19.763,34.23 z m 39.526,-68.461 h -39.526 l -19.763,-34.23 19.763,-34.23 h 39.526 l 19.763,34.23 z m 39.526,205.382 h 39.525 l 19.763,34.23 -19.763,34.23 h -39.525 l -19.763,-34.23 z m 79.051,0 h 39.526 l 19.763,34.23 -19.763,34.23 H 500 l -19.763,-34.23 z m 98.814,-34.231 19.763,-34.23 h 39.526 l 19.763,34.23 -19.763,34.231 h -39.526 z m 39.526,-68.46 19.763,-34.23 h 39.525 l 19.763,34.23 -19.763,34.23 h -39.525 z m -79.051,-136.921 19.762,-34.23 h 39.526 l 19.763,34.23 -19.763,34.23 h -39.526 z m -177.866,102.691 19.763,34.23 -19.763,34.23 h -39.526 l -19.763,-34.23 19.763,-34.23 z m 39.526,-68.461 -19.763,-34.23 19.763,-34.23 h 39.525 l 19.763,34.23 -19.763,34.23 z m 0,136.921 19.762,34.23 -19.762,34.231 h -39.526 l -19.763,-34.231 19.763,-34.23 z m 118.577,0 h 39.525 l 19.763,34.23 -19.763,34.231 h -39.525 l -19.763,-34.231 z m 59.288,-102.691 19.763,-34.23 h 39.526 l 19.763,34.23 -19.763,34.231 h -39.526 z m -59.288,-34.23 H 500 L 480.237,386.802 500,352.572 h 39.526 l 19.763,34.23 z m -98.815,34.23 -19.762,34.231 h -39.526 l -19.763,-34.231 19.763,-34.23 h 39.526 z M 500,557.953 519.763,592.183 500,626.414 h -39.526 l -19.763,-34.231 19.763,-34.23 z m 79.051,-68.46 h 39.526 l 19.763,34.23 -19.763,34.23 h -39.526 l -19.762,-34.23 z m -98.814,34.23 -19.763,34.23 h -39.525 l -19.763,-34.23 19.763,-34.23 h 39.525 z m 59.289,-34.23 -19.763,-34.231 19.763,-34.23 h 39.525 l 19.763,34.23 -19.763,34.231 z m -39.526,0 h -39.526 l -19.763,-34.231 19.763,-34.23 H 500 l 19.763,34.23 z"
     style="opacity:1;fill:none;fill-opacity:1;stroke:#000000;stroke-width:14;stroke-miterlimit:4;stroke-dasharray:none;stroke-opacity:0.8;stop-opacity:1"
     id="path30078" />
</svg>
