<?xml version="1.0" encoding="UTF-8" standalone="no"?>
<svg
   xmlns:dc="http://purl.org/dc/elements/1.1/"
   xmlns:cc="http://creativecommons.org/ns#"
   xmlns:rdf="http://www.w3.org/1999/02/22-rdf-syntax-ns#"
   xmlns:svg="http://www.w3.org/2000/svg"
   xmlns="http://www.w3.org/2000/svg"
   xmlns:sodipodi="http://sodipodi.sourceforge.net/DTD/sodipodi-0.dtd"
   xmlns:inkscape="http://www.inkscape.org/namespaces/inkscape"
   version="1.0"
   width="1000.0"
   height="1000.0"
   id="C:\1-uniform_9.svg"
   sodipodi:docname="1-uniform_n9.svg"
   inkscape:version="1.0beta1 (32d4812, 2019-09-19)">
  <style></style>
  <metadata
     id="metadata63813">
    <rdf:RDF>
      <cc:Work
         rdf:about="">
        <dc:format>image/svg+xml</dc:format>
        <dc:type
           rdf:resource="http://purl.org/dc/dcmitype/StillImage" />
        <dc:title></dc:title>
      </cc:Work>
    </rdf:RDF>
  </metadata>
  <defs
     id="defs63811" />
  <sodipodi:namedview
     pagecolor="#ffffff"
     bordercolor="#666666"
     inkscape:document-rotation="0"
     borderopacity="1"
     objecttolerance="10"
     gridtolerance="10"
     guidetolerance="10"
     inkscape:pageopacity="0"
     inkscape:pageshadow="2"
     inkscape:window-width="1680"
     inkscape:window-height="1005"
     id="namedview63809"
     showgrid="false"
     inkscape:zoom="0.7066095"
     inkscape:cx="293.98163"
     inkscape:cy="416.27551"
     inkscape:window-x="2"
     inkscape:window-y="124"
     inkscape:window-maximized="0"
     inkscape:current-layer="C:\1-uniform_9.svg" />
  <!-- X Coordinate transform: fx(x)=(x+143.62335)*0.7728302-->
  <!-- Y Coordinate transform: fy(y)=(1143.6233-y)*0.7728302 -->
  <!-- Flac geometry view -->
  <path
     id="path2001"
     d="M 636.44727 31.455078 L 612.00195 73.794922 L 586.22266 88.677734 L 564.3418 50.775391 L 539.89648 93.113281 L 514.11719 107.99805 L 500.31836 84.095703 L 504.35938 77.095703 L 496.27539 77.095703 L 492.23438 70.095703 L 488.19336 77.095703 L 455.4707 77.095703 L 413.12891 52.650391 L 413.12891 96.417969 L 388.48633 96.417969 L 388.48633 52.650391 L 350.58398 74.533203 L 328.70312 36.632812 L 304.25586 78.970703 L 278.47852 93.855469 L 256.5957 55.951172 L 232.15039 98.292969 L 206.37305 113.17578 L 192.57227 89.275391 L 196.61523 82.273438 L 188.53125 82.273438 L 184.49023 75.273438 L 180.44922 82.273438 L 147.72461 82.273438 L 105.38477 57.828125 L 105.38477 101.59375 L 61.617188 101.59375 L 83.5 139.49609 L 45.597656 161.37891 L 87.9375 185.82422 L 102.82227 211.60156 L 78.917969 225.40234 L 71.919922 221.36133 L 71.919922 229.44336 L 64.919922 233.48438 L 71.919922 237.52539 L 71.919922 270.25 L 47.472656 312.5918 L 91.240234 312.5918 L 91.240234 337.23242 L 47.472656 337.23242 L 69.357422 375.13477 L 31.455078 397.01758 L 73.794922 421.46289 L 88.677734 447.24023 L 50.775391 469.12305 L 93.115234 493.57031 L 107.99805 519.34766 L 84.095703 533.14648 L 77.095703 529.10547 L 77.095703 537.18945 L 70.095703 541.23047 L 77.095703 545.27148 L 77.095703 577.99414 L 52.650391 620.33594 L 96.417969 620.33594 L 96.417969 644.97852 L 52.650391 644.97852 L 74.533203 682.88086 L 36.632812 704.76367 L 78.972656 729.20898 L 93.855469 754.98633 L 55.951172 776.86914 L 98.292969 801.31445 L 113.17578 827.0918 L 89.271484 840.89258 L 82.273438 836.85156 L 82.273438 844.93359 L 75.273438 848.97461 L 82.273438 853.01562 L 82.273438 885.74023 L 57.828125 928.08008 L 106.7168 928.08008 L 149.05859 952.52734 L 149.05859 908.75977 L 173.69922 908.75977 L 173.69922 952.52734 L 211.60156 930.64258 L 233.48438 968.54492 L 257.92969 926.20508 L 283.70703 911.32227 L 305.5918 949.22461 L 330.03711 906.88477 L 355.81445 892.00195 L 369.61328 915.9043 L 365.57227 922.9043 L 373.65625 922.9043 L 377.69727 929.9043 L 381.73828 922.9043 L 414.46289 922.9043 L 456.80273 947.34961 L 456.80273 903.58203 L 481.44531 903.58203 L 481.44531 947.34961 L 519.34766 925.4668 L 541.23047 963.36719 L 565.67578 921.0293 L 591.45312 906.14453 L 613.33594 944.04883 L 637.78125 901.70703 L 663.55859 886.82422 L 677.35938 910.72852 L 673.31836 917.72656 L 681.40039 917.72656 L 685.44141 924.72656 L 689.48242 917.72656 L 722.20898 917.72656 L 764.54883 942.17188 L 764.54883 898.40625 L 789.18945 898.40625 L 789.18945 942.17188 L 827.0918 920.28906 L 848.97461 958.19141 L 873.41797 915.85352 L 901.75977 899.49023 L 908.75977 903.53125 L 908.75977 895.44727 L 915.75977 891.40625 L 908.75977 887.36523 L 908.75977 859.76562 L 952.52539 859.76562 L 930.64258 821.86328 L 968.54492 799.97852 L 926.20508 775.53516 L 911.32227 749.75586 L 949.22461 727.87305 L 906.88477 703.42969 L 892.00195 677.65039 L 915.9043 663.84961 L 922.9043 667.89062 L 922.9043 659.80859 L 929.9043 655.76758 L 922.9043 651.72656 L 922.9043 619.00391 L 947.34961 576.66016 L 903.58203 576.66016 L 903.58203 552.01953 L 947.34961 552.01953 L 925.4668 514.11719 L 963.36719 492.23438 L 921.0293 467.78906 L 906.14453 442.01172 L 944.04883 420.12695 L 901.70703 395.68359 L 886.82422 369.9043 L 910.72656 356.10547 L 917.72656 360.14648 L 917.72656 352.0625 L 924.72656 348.02148 L 917.72656 343.98047 L 917.72656 311.25586 L 942.17188 268.91602 L 898.40625 268.91602 L 898.40625 244.27539 L 942.17188 244.27539 L 920.28906 206.37305 L 958.19141 184.49023 L 915.85156 160.04492 L 900.96875 134.26562 L 938.87109 112.38477 L 896.53125 87.939453 L 872.08398 45.597656 L 847.64062 87.939453 L 821.86133 102.82227 L 808.0625 78.919922 L 812.10352 71.919922 L 804.02148 71.919922 L 799.97852 64.917969 L 795.93555 71.919922 L 763.21484 71.919922 L 720.87305 47.474609 L 720.87305 91.240234 L 696.23242 91.240234 L 696.23242 47.474609 L 658.33008 69.357422 L 636.44727 31.455078 z M 636.44727 59.455078 L 643.64453 71.919922 L 629.25 71.919922 L 636.44727 59.455078 z M 328.70117 64.632812 L 335.89648 77.095703 L 321.50586 77.095703 L 328.70117 64.632812 z M 682.23242 71.722656 L 682.23242 86.115234 L 669.76758 78.917969 L 682.23242 71.722656 z M 734.87305 71.722656 L 747.33789 78.917969 L 734.87305 86.115234 L 734.87305 71.722656 z M 872.08594 73.597656 L 879.28125 86.0625 L 864.88867 86.0625 L 872.08594 73.597656 z M 374.48633 76.900391 L 374.48633 91.292969 L 362.02148 84.095703 L 374.48633 76.900391 z M 427.12891 76.900391 L 439.59375 84.095703 L 427.12891 91.292969 L 427.12891 76.900391 z M 564.33984 78.775391 L 571.53711 91.240234 L 557.14453 91.240234 L 564.33984 78.775391 z M 119.38477 82.076172 L 131.84766 89.273438 L 119.38477 96.46875 L 119.38477 82.076172 z M 256.5957 83.953125 L 263.79297 96.417969 L 249.40039 96.417969 L 256.5957 83.953125 z M 624.12695 85.919922 L 648.76758 85.919922 L 648.76758 110.56055 L 624.12695 110.56055 L 624.12695 85.919922 z M 773.46289 85.919922 L 787.85352 85.919922 L 780.6582 98.384766 L 773.46289 85.919922 z M 758.77539 88.482422 L 771.0957 109.82227 L 749.75586 122.14062 L 737.43555 100.80273 L 758.77539 88.482422 z M 610.12695 91.042969 L 610.12695 105.43555 L 597.66211 98.240234 L 610.12695 91.042969 z M 662.76758 91.044922 L 675.23047 98.240234 L 662.76758 105.43555 L 662.76758 91.044922 z M 316.38086 91.095703 L 341.02148 91.095703 L 341.02148 115.73828 L 316.38086 115.73828 L 316.38086 91.095703 z M 465.7168 91.095703 L 480.10938 91.095703 L 472.91406 103.56055 L 465.7168 91.095703 z M 799.97852 92.919922 L 807.17578 105.38477 L 792.7832 105.38477 L 799.97852 92.919922 z M 451.03125 93.658203 L 463.35156 114.99805 L 442.00977 127.31836 L 429.68945 105.97852 L 451.03125 93.658203 z M 302.38086 96.220703 L 302.38086 110.61328 L 289.91602 103.41797 L 289.91602 103.41602 L 302.38086 96.220703 z M 355.02148 96.220703 L 367.48633 103.41797 L 355.02148 110.61328 L 355.02148 96.220703 z M 157.97266 96.273438 L 172.36523 96.273438 L 165.16797 108.73828 L 157.97266 96.273438 z M 492.23438 98.097656 L 499.42969 110.56055 L 485.03906 110.56055 L 488.63672 104.32812 L 492.23438 98.097656 z M 143.28516 98.835938 L 155.60742 120.17578 L 134.26562 132.49609 L 121.94727 111.15625 L 143.28516 98.835938 z M 859.76562 100.0625 L 884.40625 100.0625 L 884.40625 124.70312 L 859.76562 124.70312 L 859.76562 100.0625 z M 184.49023 103.27539 L 191.68555 115.73828 L 177.29492 115.73828 L 184.49023 103.27539 z M 845.76562 105.1875 L 845.76562 119.58008 L 833.30078 112.38281 L 845.76562 105.1875 z M 898.40625 105.1875 L 910.87109 112.38281 L 898.40625 119.58008 L 898.40625 105.1875 z M 552.01953 105.24023 L 576.66016 105.24023 L 576.66016 129.88086 L 552.01953 129.88086 L 552.01953 105.24023 z M 701.35742 105.24023 L 715.74805 105.24023 L 708.55273 117.70312 L 701.35742 105.24023 z M 686.66992 107.80273 L 698.99023 129.14258 L 677.65039 141.46289 L 665.33008 120.12305 L 686.66992 107.80273 z M 538.01953 110.36523 L 538.01953 124.75586 L 525.55469 117.56055 L 538.01953 110.36523 z M 590.66016 110.36523 L 603.125 117.56055 L 590.66016 124.75781 L 590.66016 110.36523 z M 244.27539 110.41797 L 268.91602 110.41797 L 268.91602 135.05859 L 244.27539 135.05859 L 244.27539 110.41797 z M 393.61328 110.41797 L 408.00391 110.41797 L 400.80859 122.88086 L 393.61328 110.41797 z M 727.87305 112.24023 L 735.07031 124.70312 L 720.67773 124.70312 L 724.27539 118.47266 L 727.87305 112.24023 z M 378.92578 112.97852 L 391.24609 134.31836 L 369.9043 146.64062 L 357.58398 125.30078 L 378.92578 112.97852 z M 230.27539 115.54102 L 230.27539 129.93359 L 217.81055 122.73828 L 230.27539 115.54102 z M 282.91602 115.54102 L 295.38086 122.73828 L 282.91602 129.93359 L 282.91602 115.54102 z M 85.867188 115.59375 L 100.25977 115.59375 L 93.0625 128.05859 L 85.867188 115.59375 z M 420.12891 117.41797 L 427.32422 129.88086 L 412.93359 129.88086 L 416.53125 123.64844 L 420.12891 117.41797 z M 787.6582 119.38477 L 812.30078 119.38477 L 812.30078 144.02539 L 787.6582 144.02539 L 787.6582 119.38477 z M 112.38281 122.59375 L 112.38477 122.59375 L 119.58008 135.05859 L 105.1875 135.05859 L 108.78516 128.82617 L 112.38281 122.59375 z M 773.6582 124.50781 L 773.6582 138.90039 L 761.19336 131.70312 L 773.6582 124.50781 z M 826.30078 124.50977 L 838.76562 131.70508 L 826.30078 138.90039 L 826.30078 124.50977 z M 479.91406 124.56055 L 504.55469 124.56055 L 504.55469 149.20117 L 479.91406 149.20117 L 479.91406 124.56055 z M 629.25 124.56055 L 643.64258 124.56055 L 636.44727 137.02539 L 629.25 124.56055 z M 614.56445 127.12305 L 626.88477 148.46289 L 605.54297 160.78516 L 593.22266 139.44336 L 614.56445 127.12305 z M 465.91406 129.68555 L 465.91406 144.07812 L 453.44922 136.88086 L 465.91406 129.68555 z M 518.55469 129.68555 L 531.01953 136.88086 L 518.55469 144.07812 L 518.55469 129.68555 z M 172.16992 129.73828 L 196.81055 129.73828 L 196.81055 154.37891 L 172.16992 154.37891 L 172.16992 129.73828 z M 321.50586 129.73828 L 335.89648 129.73828 L 328.70117 142.20117 L 321.50586 129.73828 z M 655.76758 131.56055 L 662.96289 144.02539 L 648.57227 144.02539 L 655.76758 131.56055 z M 306.81836 132.30078 L 319.14062 153.63867 L 297.79883 165.96094 L 285.47852 144.62109 L 306.81836 132.30078 z M 158.16992 134.86133 L 158.16992 149.25391 L 145.70508 142.05859 L 158.16992 134.86133 z M 210.81055 134.86328 L 223.27539 142.05859 L 210.81055 149.25391 L 210.81055 134.86328 z M 348.02148 136.73828 L 355.21875 149.20117 L 340.82812 149.20117 L 348.02148 136.73828 z M 715.55273 138.70312 L 740.19336 138.70312 L 740.19336 163.3457 L 715.55273 163.3457 L 715.55273 138.70312 z M 864.88867 138.70312 L 879.28125 138.70312 L 872.08594 151.16992 L 872.08398 151.16992 L 864.88867 138.70312 z M 850.20312 141.26562 L 862.52148 162.60742 L 841.18359 174.92773 L 828.86328 153.58594 L 850.20312 141.26562 z M 701.55273 143.82812 L 701.55273 158.2207 L 689.08789 151.02539 L 701.55273 143.82812 z M 754.19336 143.82812 L 766.6582 151.02539 L 754.19336 158.2207 L 754.19336 143.82812 z M 407.80859 143.88086 L 432.44922 143.88086 L 432.44922 168.52344 L 407.80859 168.52344 L 407.80859 143.88086 z M 557.14453 143.88086 L 571.53711 143.88086 L 564.33984 156.3457 L 557.14453 143.88086 z M 891.40625 145.70508 L 898.60156 158.16992 L 884.20898 158.16992 L 887.80859 151.9375 L 891.40625 145.70508 z M 542.45898 146.44336 L 554.7793 167.7832 L 533.4375 180.10547 L 521.11719 158.76367 L 542.45898 146.44336 z M 393.80859 149.00586 L 393.80859 163.39844 L 381.34375 156.20312 L 381.34375 156.20117 L 393.80859 149.00586 z M 446.44922 149.00586 L 458.91406 156.20312 L 446.44922 163.39844 L 446.44922 149.00586 z M 100.0625 149.05859 L 124.70312 149.05859 L 124.70312 173.69922 L 100.0625 173.69922 L 100.0625 149.05859 z M 249.40039 149.05859 L 263.79102 149.05859 L 256.5957 161.52344 L 249.40039 149.05859 z M 583.66016 150.88086 L 583.66211 150.88086 L 590.85742 163.3457 L 576.46484 163.3457 L 583.66016 150.88086 z M 234.71289 151.62109 L 247.0332 172.96094 L 225.69336 185.28125 L 213.37305 163.94141 L 234.71289 151.62109 z M 86.0625 154.18359 L 86.0625 168.57617 L 73.597656 161.37891 L 86.0625 154.18359 z M 138.70312 154.18359 L 151.16797 161.37891 L 138.70312 168.57617 L 138.70312 154.18359 z M 275.91602 156.05859 L 283.11328 168.52344 L 268.7207 168.52344 L 275.91602 156.05859 z M 643.44727 158.02539 L 668.08789 158.02539 L 668.08789 182.66797 L 643.44727 182.66797 L 643.44727 158.02539 z M 792.7832 158.02539 L 807.17578 158.02539 L 799.97852 170.49023 L 792.7832 158.02539 z M 778.0957 160.58789 L 790.41602 181.92773 L 769.07617 194.24805 L 756.75586 172.9082 L 778.0957 160.58789 z M 629.44727 163.15039 L 629.44727 177.54297 L 616.98242 170.3457 L 629.44727 163.15039 z M 682.08789 163.15039 L 694.55273 170.3457 L 682.08789 177.54297 L 682.08789 163.15039 z M 335.70117 163.20117 L 360.34375 163.20117 L 360.34375 187.84375 L 335.70117 187.84375 L 335.70117 163.20117 z M 485.03906 163.20117 L 499.42969 163.20117 L 492.23438 175.66602 L 485.03906 163.20117 z M 819.30078 165.02539 L 826.49609 177.49023 L 812.10352 177.49023 L 815.70117 171.25781 L 819.30078 165.02539 z M 470.35156 165.76367 L 482.67188 187.10547 L 461.33203 199.42383 L 449.01172 178.08398 L 470.35156 165.76367 z M 321.70117 168.32617 L 321.70117 182.71875 L 309.23633 175.52344 L 321.70117 168.32617 z M 374.34375 168.32617 L 386.80859 175.52344 L 374.34375 182.71875 L 374.34375 168.32617 z M 177.29297 168.37891 L 191.68555 168.37891 L 184.49023 180.84375 L 177.29297 168.37891 z M 511.55469 170.20312 L 518.75195 182.66797 L 504.35742 182.66797 L 511.55469 170.20312 z M 162.60742 170.94141 L 174.92773 192.28125 L 153.58789 204.60156 L 141.26562 183.26172 L 162.60742 170.94141 z M 879.08594 172.16992 L 903.72656 172.16992 L 903.72656 196.81055 L 879.08594 196.81055 L 879.08594 172.16992 z M 203.81055 175.37891 L 211.00586 187.84375 L 196.61523 187.84375 L 203.81055 175.37891 z M 865.08594 177.29297 L 865.08594 191.6875 L 852.62109 184.49023 L 865.08594 177.29297 z M 917.72656 177.29297 L 930.19141 184.49023 L 917.72656 191.68555 L 917.72656 177.29297 z M 571.3418 177.3457 L 595.98242 177.3457 L 595.98242 201.98633 L 571.3418 201.98633 L 571.3418 177.3457 z M 720.67773 177.3457 L 735.07031 177.3457 L 727.87305 189.81055 L 720.67773 177.3457 z M 705.99023 179.9082 L 718.31055 201.24805 L 696.9707 213.56836 L 684.65039 192.22852 L 705.99023 179.9082 z M 557.3418 182.4707 L 557.3418 196.86133 L 544.87695 189.66602 L 557.3418 182.4707 z M 609.98242 182.4707 L 622.44727 189.66602 L 609.98242 196.86328 L 609.98242 182.4707 z M 263.5957 182.52344 L 288.23633 182.52344 L 288.23633 207.16406 L 263.5957 207.16406 L 263.5957 182.52344 z M 412.93359 182.52344 L 427.32422 182.52344 L 420.12891 194.98633 L 412.93359 182.52344 z M 747.19531 184.3457 L 754.39062 196.81055 L 739.99805 196.81055 L 743.5957 190.57812 L 747.19531 184.3457 z M 398.24609 185.08594 L 410.56641 206.42578 L 389.22656 218.74609 L 376.90625 197.40625 L 398.24609 185.08594 z M 249.5957 187.64844 L 249.5957 202.03906 L 237.13086 194.84375 L 249.5957 187.64844 z M 302.23633 187.64844 L 314.69922 194.84375 L 302.23633 202.03906 L 302.23633 187.64844 z M 105.1875 187.69922 L 119.58008 187.69922 L 112.38281 200.16406 L 105.1875 187.69922 z M 439.44922 189.52344 L 446.64453 201.98633 L 432.25391 201.98633 L 439.44922 189.52344 z M 806.97852 191.49023 L 831.62109 191.49023 L 831.62109 216.13086 L 806.97852 216.13086 L 806.97852 191.49023 z M 131.70312 194.69922 L 131.70508 194.69922 L 138.90039 207.16406 L 124.50781 207.16406 L 131.70312 194.69922 z M 792.97852 196.61523 L 792.97852 211.00586 L 780.51562 203.81055 L 792.97852 196.61523 z M 845.62109 196.61523 L 858.08398 203.81055 L 845.62109 211.00586 L 845.62109 196.61523 z M 499.23438 196.66797 L 523.87695 196.66797 L 523.87695 221.30859 L 499.23438 221.30859 L 499.23438 196.66797 z M 648.57227 196.66797 L 662.96289 196.66797 L 655.76758 209.13086 L 648.57227 196.66797 z M 633.88477 199.23047 L 646.20508 220.56836 L 624.86523 232.88867 L 612.54492 211.54883 L 633.88477 199.23047 z M 485.23438 201.79102 L 485.23438 216.18359 L 472.76953 208.98828 L 472.76953 208.98633 L 485.23438 201.79102 z M 537.87695 201.79297 L 550.3418 208.98828 L 537.87695 216.18359 L 537.87695 201.79297 z M 191.49023 201.84375 L 216.13086 201.84375 L 216.13086 226.48438 L 191.49023 226.48438 L 191.49023 201.84375 z M 340.82617 201.84375 L 355.21875 201.84375 L 348.02148 214.30859 L 340.82617 201.84375 z M 675.08789 203.66797 L 682.28516 216.13086 L 667.89258 216.13086 L 671.49023 209.89844 L 675.08789 203.66797 z M 326.14062 204.40625 L 338.45898 225.74609 L 317.11914 238.06641 L 304.79883 216.72656 L 326.14062 204.40625 z M 177.49023 206.96875 L 177.49023 221.35938 L 165.02734 214.16406 L 177.49023 206.96875 z M 230.13086 206.96875 L 242.5957 214.16406 L 230.13086 221.35938 L 230.13086 206.96875 z M 367.34375 208.84375 L 374.53906 221.30859 L 360.14648 221.30859 L 363.74414 215.07617 L 367.34375 208.84375 z M 734.87305 210.81055 L 759.51562 210.81055 L 759.51562 235.45117 L 734.87305 235.45117 L 734.87305 210.81055 z M 884.20898 210.81055 L 898.60156 210.81055 L 891.40625 223.27539 L 884.20898 210.81055 z M 869.52344 213.37305 L 881.84375 234.71289 L 860.50391 247.0332 L 848.18359 225.69336 L 869.52344 213.37305 z M 720.87305 215.93555 L 720.87305 230.32812 L 708.4082 223.13086 L 720.87305 215.93555 z M 773.51562 215.93555 L 785.97852 223.13086 L 773.51562 230.32812 L 773.51562 215.93555 z M 427.12891 215.98633 L 451.76953 215.98633 L 451.76953 240.62891 L 427.12891 240.62891 L 427.12891 215.98633 z M 576.46484 215.98633 L 590.85742 215.98633 L 583.66016 228.45117 L 576.46484 215.98633 z M 910.72656 217.81055 L 917.92383 230.27539 L 903.53125 230.27539 L 907.12891 224.04297 L 910.72656 217.81055 z M 561.7793 218.54883 L 574.09766 239.89062 L 552.75977 252.21094 L 540.4375 230.86914 L 561.7793 218.54883 z M 413.12891 221.11133 L 413.12891 235.50391 L 400.66406 228.30859 L 413.12891 221.11133 z M 465.76953 221.11133 L 478.23438 228.30859 L 465.76953 235.50391 L 465.76953 221.11133 z M 119.38477 221.16406 L 144.02539 221.16406 L 144.02539 245.80664 L 119.38477 245.80664 L 119.38477 221.16406 z M 268.7207 221.16406 L 283.11328 221.16406 L 275.91602 233.62891 L 268.7207 221.16406 z M 602.98242 222.98633 L 610.17773 235.45117 L 595.78516 235.45117 L 602.98242 222.98633 z M 254.0332 223.72656 L 266.35352 245.06641 L 245.01367 257.38672 L 232.69336 236.04688 L 254.0332 223.72656 z M 105.38477 226.28906 L 105.38477 240.68164 L 92.919922 233.48438 L 105.38477 226.28906 z M 158.02539 226.28906 L 170.49023 233.48438 L 158.02539 240.68164 L 158.02539 226.28906 z M 295.23828 228.16406 L 302.43359 240.62891 L 288.04102 240.62891 L 291.63867 234.39648 L 295.23828 228.16406 z M 662.76758 230.13086 L 687.4082 230.13086 L 687.4082 254.77344 L 662.76758 254.77344 L 662.76758 230.13086 z M 812.10352 230.13086 L 826.49609 230.13086 L 819.30078 242.5957 L 819.29883 242.5957 L 812.10352 230.13086 z M 797.41797 232.69336 L 809.73828 254.0332 L 788.39844 266.35352 L 776.07812 245.01367 L 797.41797 232.69336 z M 648.76758 235.25586 L 648.76758 249.64844 L 636.30273 242.45312 L 636.30273 242.45117 L 648.76758 235.25586 z M 701.4082 235.25586 L 713.87305 242.45312 L 701.4082 249.64844 L 701.4082 235.25586 z M 355.02148 235.30859 L 379.66406 235.30859 L 379.66406 259.94922 L 355.02148 259.94922 L 355.02148 235.30859 z M 504.35938 235.30859 L 518.75195 235.30859 L 515.15234 241.54102 L 511.55469 247.77344 L 504.35938 235.30859 z M 838.62109 237.13281 L 845.81641 249.5957 L 831.42578 249.5957 L 838.62109 237.13281 z M 489.67188 237.87109 L 501.99219 259.21094 L 480.65234 271.53125 L 468.33203 250.19141 L 489.67188 237.87109 z M 341.02148 240.43359 L 341.02148 254.82422 L 328.55859 247.62891 L 341.02148 240.43359 z M 393.66406 240.43359 L 406.12891 247.62891 L 393.66406 254.82617 L 393.66406 240.43359 z M 196.61523 240.48438 L 211.00586 240.48438 L 203.81055 252.94727 L 196.61523 240.48438 z M 530.875 242.30859 L 530.87695 242.30859 L 538.07227 254.77344 L 523.67969 254.77344 L 530.875 242.30859 z M 181.92773 243.04688 L 194.24805 264.38867 L 172.9082 276.70703 L 160.58789 255.36719 L 181.92773 243.04688 z M 85.919922 245.60938 L 98.384766 252.80664 L 85.919922 260.00195 L 85.919922 245.60938 z M 223.13086 247.48438 L 230.32812 259.94922 L 215.93555 259.94922 L 223.13086 247.48438 z M 884.40625 249.40039 L 884.40625 263.79102 L 871.94141 256.5957 L 884.40625 249.40039 z M 590.66016 249.45117 L 615.30273 249.45117 L 615.30273 274.09375 L 590.66016 274.09375 L 590.66016 249.45117 z M 739.99805 249.45117 L 754.39062 249.45117 L 747.19531 261.91602 L 747.19336 261.91602 L 739.99805 249.45117 z M 725.31055 252.01367 L 737.63086 273.35352 L 716.29297 285.67383 L 703.9707 264.33594 L 725.31055 252.01367 z M 576.66016 254.57617 L 576.66016 268.96875 L 564.19727 261.77344 L 576.66016 254.57617 z M 629.30273 254.57617 L 641.76758 261.77344 L 629.30273 268.96875 L 629.30273 254.57617 z M 282.91602 254.62891 L 307.55859 254.62891 L 307.55859 279.26953 L 282.91602 279.26953 L 282.91602 254.62891 z M 432.25391 254.62891 L 446.64453 254.62891 L 439.44922 267.0918 L 432.25391 254.62891 z M 766.51562 256.45117 L 773.71094 268.91602 L 759.31836 268.91602 L 762.91602 262.68359 L 766.51562 256.45117 z M 417.56641 257.19141 L 429.88672 278.53125 L 408.54688 290.85156 L 396.22656 269.51172 L 417.56641 257.19141 z M 268.91602 259.75391 L 268.91602 274.14648 L 256.45117 266.94922 L 268.91602 259.75391 z M 321.55859 259.75391 L 334.02148 266.94922 L 321.55859 274.14453 L 321.55859 259.75391 z M 124.50781 259.80664 L 138.90039 259.80664 L 131.70312 272.27148 L 124.50781 259.80664 z M 458.76953 261.62891 L 465.9668 274.09375 L 451.57422 274.09375 L 455.17188 267.86133 L 458.76953 261.62891 z M 109.82227 262.36914 L 122.14062 283.70703 L 100.80273 296.0293 L 88.482422 274.68945 L 109.82227 262.36914 z M 826.30078 263.5957 L 850.94141 263.5957 L 850.94141 288.23633 L 826.30078 288.23633 L 826.30078 263.5957 z M 151.02539 266.80664 L 158.2207 279.26953 L 143.82812 279.26953 L 147.42578 273.03906 L 151.02539 266.80664 z M 812.30078 268.7207 L 812.30078 283.11328 L 799.83594 275.91602 L 812.30078 268.7207 z M 864.94141 268.7207 L 877.40625 275.91602 L 864.94141 283.11328 L 864.94141 268.7207 z M 518.55469 268.77344 L 543.19727 268.77344 L 543.19727 293.41406 L 518.55469 293.41406 L 518.55469 268.77344 z M 667.89258 268.77344 L 682.2832 268.77344 L 675.08789 281.23633 L 667.89258 268.77344 z M 653.20508 271.33594 L 665.52539 292.67578 L 644.18555 304.99609 L 631.86523 283.6543 L 653.20508 271.33594 z M 504.55469 273.89844 L 504.55469 288.28906 L 492.0918 281.09375 L 504.55469 273.89844 z M 557.19727 273.89844 L 569.66016 281.09375 L 557.19727 288.28906 L 557.19727 273.89844 z M 210.81055 273.94922 L 235.45117 273.94922 L 235.45117 298.5918 L 210.81055 298.5918 L 210.81055 273.94922 z M 360.14648 273.94922 L 374.53906 273.94922 L 367.34375 286.41406 L 367.3418 286.41406 L 360.14648 273.94922 z M 694.41016 275.77148 L 701.60547 288.23633 L 687.21289 288.23633 L 694.41016 275.77148 z M 345.46094 276.51172 L 357.78125 297.85156 L 336.44141 310.17188 L 324.12109 288.83203 L 345.46094 276.51172 z M 196.81055 279.07422 L 196.81055 293.4668 L 184.3457 286.26953 L 196.81055 279.07422 z M 249.45117 279.07422 L 261.91602 286.26953 L 249.45117 293.4668 L 249.45117 279.07422 z M 386.66406 280.94922 L 393.86133 293.41406 L 379.46875 293.41406 L 386.66406 280.94922 z M 754.19336 282.91602 L 778.83594 282.91602 L 778.83594 307.55859 L 754.19336 307.55859 L 754.19336 282.91602 z M 903.53125 282.91602 L 917.92383 282.91602 L 910.72656 295.38086 L 903.53125 282.91602 z M 888.84375 285.47852 L 901.16406 306.81836 L 879.82422 319.14062 L 867.50391 297.79883 L 888.84375 285.47852 z M 78.917969 286.12695 L 86.115234 298.5918 L 71.722656 298.5918 L 78.917969 286.12695 z M 740.19336 288.04102 L 740.19336 302.43359 L 727.72852 295.23828 L 727.72852 295.23633 L 740.19336 288.04102 z M 792.83594 288.04102 L 805.30078 295.23828 L 792.83594 302.43359 L 792.83594 288.04102 z M 446.44922 288.09375 L 471.0918 288.09375 L 471.0918 312.73438 L 446.44922 312.73438 L 446.44922 288.09375 z M 595.78516 288.09375 L 610.17773 288.09375 L 602.98242 300.55859 L 595.78516 288.09375 z M 581.09961 290.65625 L 593.41992 311.99609 L 572.08008 324.31641 L 559.75977 302.97656 L 581.09961 290.65625 z M 432.44922 293.2168 L 432.44922 307.61133 L 419.98438 300.41406 L 432.44922 293.2168 z M 485.0918 293.21875 L 497.55469 300.41406 L 485.0918 307.61133 L 485.0918 293.21875 z M 138.70312 293.26953 L 163.3457 293.26953 L 163.3457 317.91211 L 138.70312 317.91211 L 138.70312 293.26953 z M 288.04102 293.26953 L 302.43359 293.26953 L 298.83594 299.50195 L 295.23828 305.73438 L 295.23633 305.73438 L 288.04102 293.26953 z M 622.30273 295.09375 L 629.5 307.55859 L 615.10742 307.55859 L 618.70508 301.32617 L 622.30273 295.09375 z M 273.35352 295.83203 L 285.67578 317.17383 L 264.33398 329.49414 L 252.01367 308.15234 L 273.35352 295.83203 z M 124.70312 298.39453 L 124.70312 312.78711 L 112.23828 305.58984 L 124.70312 298.39453 z M 177.3457 298.39453 L 189.81055 305.58984 L 189.81055 305.5918 L 177.3457 312.78711 L 177.3457 298.39453 z M 314.55859 300.26953 L 321.75391 312.73438 L 307.36133 312.73438 L 314.55859 300.26953 z M 682.08789 302.23633 L 706.73047 302.23633 L 706.73047 326.87891 L 682.08789 326.87891 L 682.08789 302.23633 z M 831.42383 302.23633 L 845.81641 302.23633 L 838.62109 314.70117 L 831.42383 302.23633 z M 816.73828 304.79883 L 829.05859 326.14062 L 807.71875 338.46094 L 795.39648 317.11914 L 816.73828 304.79883 z M 668.08789 307.36133 L 668.08789 321.75391 L 655.625 314.55859 L 668.08789 307.36133 z M 720.73047 307.36133 L 733.19336 314.55859 L 720.73047 321.75391 L 720.73047 307.36133 z M 374.34375 307.41406 L 398.98438 307.41406 L 398.98438 332.05664 L 374.34375 332.05664 L 374.34375 307.41406 z M 523.67969 307.41406 L 538.07227 307.41406 L 534.47461 313.64648 L 530.875 319.87891 L 523.67969 307.41406 z M 857.94141 309.23828 L 865.13672 321.70117 L 850.74609 321.70117 L 854.34375 315.46875 L 857.94141 309.23828 z M 508.99219 309.97656 L 521.31445 331.31641 L 499.97461 343.63672 L 487.6543 322.29688 L 508.99219 309.97656 z M 360.34375 312.53906 L 360.34375 326.93164 L 347.87891 319.73438 L 360.34375 312.53906 z M 412.98438 312.53906 L 425.44922 319.73438 L 425.44922 319.73633 L 412.98438 326.93164 L 412.98438 312.53906 z M 215.93555 312.5918 L 230.32812 312.5918 L 223.13086 325.05664 L 215.93555 312.5918 z M 550.19727 314.41406 L 557.39258 326.87891 L 543 326.87891 L 550.19727 314.41406 z M 201.24805 315.1543 L 213.56836 336.49414 L 192.22852 348.81445 L 179.9082 327.47461 L 201.24805 315.1543 z M 105.24023 317.71484 L 117.70312 324.91211 L 105.24023 332.10742 L 105.24023 317.71484 z M 242.45312 319.5918 L 249.64844 332.05664 L 235.25586 332.05664 L 238.85352 325.82422 L 242.45312 319.5918 z M 903.72656 321.50586 L 903.72656 335.89648 L 891.26172 328.70117 L 903.72656 321.50586 z M 609.98242 321.55859 L 634.62305 321.55859 L 634.62305 346.19922 L 609.98242 346.19922 L 609.98242 321.55859 z M 759.31836 321.55859 L 773.71094 321.55859 L 766.51562 334.02344 L 766.51367 334.02344 L 759.31836 321.55859 z M 744.63281 324.12109 L 756.95312 345.46094 L 735.61133 357.78125 L 723.29297 336.44141 L 744.63281 324.12109 z M 595.98242 326.68359 L 595.98242 341.07422 L 583.51953 333.87891 L 595.98242 326.68359 z M 648.62305 326.68359 L 661.08789 333.87891 L 648.62305 341.07617 L 648.62305 326.68359 z M 302.23633 326.73438 L 326.87891 326.73438 L 326.87891 351.37695 L 302.23633 351.37695 L 302.23633 326.73438 z M 451.57422 326.73438 L 465.9668 326.73438 L 462.36719 332.9668 L 458.76953 339.19922 L 451.57422 326.73438 z M 785.83594 328.55859 L 793.03125 341.02148 L 778.64062 341.02148 L 785.83594 328.55859 z M 436.88672 329.29688 L 449.20703 350.63672 L 427.86719 362.95703 L 415.54688 341.61719 L 436.88672 329.29688 z M 288.23633 331.85938 L 288.23633 346.25195 L 275.77148 339.05469 L 288.23633 331.85938 z M 340.87891 331.85938 L 353.34375 339.05469 L 353.34375 339.05664 L 340.87891 346.25195 L 340.87891 331.85938 z M 143.82812 331.91211 L 158.2207 331.91211 L 151.02539 344.375 L 143.82812 331.91211 z M 478.08984 333.73438 L 478.0918 333.73438 L 485.28711 346.19922 L 470.89453 346.19922 L 478.08984 333.73438 z M 129.14258 334.47461 L 141.46289 355.81445 L 120.12305 368.13477 L 107.80273 346.79492 L 129.14258 334.47461 z M 845.62109 335.70117 L 870.26172 335.70117 L 870.26172 360.34375 L 845.62109 360.34375 L 845.62109 335.70117 z M 170.3457 338.91211 L 177.54297 351.37695 L 163.15039 351.37695 L 170.3457 338.91211 z M 831.62109 340.82617 L 831.62109 355.21875 L 819.15625 348.02148 L 831.62109 340.82617 z M 884.26172 340.82617 L 896.72461 348.02148 L 884.26172 355.21875 L 884.26172 340.82617 z M 537.87695 340.87891 L 562.51758 340.87891 L 562.51758 365.51953 L 537.87695 365.51953 L 537.87695 340.87891 z M 687.21289 340.87891 L 701.60547 340.87891 L 698.00781 347.11133 L 694.41016 353.34375 L 694.4082 353.34375 L 687.21289 340.87891 z M 672.52539 343.44141 L 684.8457 364.78125 L 663.50586 377.10156 L 651.18555 355.76172 L 672.52539 343.44141 z M 523.87695 346.00195 L 523.87695 360.39453 L 511.41211 353.19922 L 523.87695 346.00195 z M 576.51758 346.00391 L 588.98242 353.19922 L 576.51758 360.39453 L 576.51758 346.00391 z M 230.13086 346.05664 L 254.77344 346.05664 L 254.77344 370.69727 L 230.13086 370.69727 L 230.13086 346.05664 z M 379.4668 346.05664 L 393.85938 346.05664 L 386.66406 358.51953 L 379.4668 346.05664 z M 713.73047 347.87891 L 720.92578 360.34375 L 706.5332 360.34375 L 713.73047 347.87891 z M 364.78125 348.61914 L 377.10156 369.95898 L 355.76172 382.2793 L 343.44141 360.9375 L 364.78125 348.61914 z M 216.13086 351.17969 L 216.13086 365.57227 L 203.66602 358.375 L 216.13086 351.17969 z M 268.77344 351.18164 L 281.23633 358.37695 L 268.77344 365.57227 L 268.77344 351.18164 z M 71.722656 351.23242 L 86.115234 351.23242 L 78.917969 363.69727 L 71.722656 351.23242 z M 405.98438 353.05469 L 405.98633 353.05469 L 413.18164 365.51953 L 398.78906 365.51953 L 405.98438 353.05469 z M 773.51562 355.02148 L 798.15625 355.02148 L 798.15625 379.66406 L 773.51562 379.66406 L 773.51562 355.02148 z M 98.240234 358.23438 L 105.43555 370.69727 L 91.044922 370.69727 L 98.240234 358.23438 z M 759.51562 360.14648 L 759.51562 374.53906 L 747.05078 367.34375 L 747.05078 367.3418 L 759.51562 360.14648 z M 812.15625 360.14648 L 824.62109 367.34375 L 812.15625 374.53906 L 812.15625 360.14648 z M 465.76953 360.19922 L 490.41211 360.19922 L 490.41211 384.8418 L 465.76953 384.8418 L 465.76953 360.19922 z M 615.10742 360.19922 L 629.5 360.19922 L 625.90234 366.43164 L 622.30273 372.66406 L 615.10742 360.19922 z M 600.41992 362.76172 L 612.74023 384.10156 L 591.40039 396.42188 L 579.08008 375.08203 L 600.41992 362.76172 z M 451.76953 365.32422 L 451.76953 379.7168 L 439.30664 372.51953 L 451.76953 365.32422 z M 504.41211 365.32422 L 516.875 372.51953 L 504.41211 379.7168 L 504.41211 365.32422 z M 158.02539 365.37695 L 182.66797 365.37695 L 182.66797 390.01758 L 158.02539 390.01758 L 158.02539 365.37695 z M 307.36133 365.37695 L 321.75391 365.37695 L 314.55859 377.8418 L 307.36133 365.37695 z M 641.62305 367.19922 L 648.82031 379.66406 L 634.42773 379.66406 L 641.62305 367.19922 z M 292.67578 367.9375 L 304.99609 389.2793 L 283.6543 401.59961 L 271.33398 380.25977 L 292.67578 367.9375 z M 144.02539 370.5 L 144.02539 384.89258 L 131.56055 377.69727 L 144.02539 370.5 z M 196.66797 370.50195 L 209.13086 377.69727 L 196.66797 384.89258 L 196.66797 370.50195 z M 333.87891 372.37695 L 341.07422 384.8418 L 326.68359 384.8418 L 330.28125 378.60938 L 333.87891 372.37695 z M 701.4082 374.34375 L 726.05078 374.34375 L 726.05078 398.98438 L 701.4082 398.98438 L 701.4082 374.34375 z M 850.74609 374.34375 L 865.13672 374.34375 L 857.94141 386.80859 L 850.74609 374.34375 z M 836.05859 376.90625 L 848.37891 398.24609 L 827.03906 410.56445 L 814.71875 389.22656 L 836.05859 376.90625 z M 687.4082 379.4668 L 687.4082 393.85938 L 674.94336 386.66406 L 687.4082 379.4668 z M 740.05078 379.4668 L 752.51562 386.66406 L 740.05078 393.85938 L 740.05078 379.4668 z M 393.66406 379.51953 L 418.30664 379.51953 L 418.30664 404.16211 L 393.66406 404.16211 L 393.66406 379.51953 z M 543 379.51953 L 557.39258 379.51953 L 553.79492 385.75195 L 550.19727 391.98438 L 543 379.51953 z M 877.26172 381.34375 L 884.45898 393.80859 L 870.06641 393.80859 L 873.66406 387.57617 L 877.26172 381.34375 z M 528.31445 382.08203 L 540.63477 403.42188 L 519.29492 415.74414 L 506.97266 394.40234 L 528.31445 382.08203 z M 379.66406 384.64453 L 379.66406 399.03711 L 367.19922 391.83984 L 379.66406 384.64453 z M 432.30664 384.64453 L 444.77148 391.83984 L 444.77148 391.8418 L 432.30664 399.03711 L 432.30664 384.64453 z M 85.919922 384.69727 L 110.56055 384.69727 L 110.56055 409.33984 L 85.919922 409.33984 L 85.919922 384.69727 z M 235.25586 384.69727 L 249.64844 384.69727 L 246.05078 390.92969 L 242.45312 397.16211 L 242.45117 397.16211 L 235.25586 384.69727 z M 569.51758 386.52148 L 576.71289 398.98438 L 562.32227 398.98438 L 569.51758 386.52148 z M 220.56836 387.25977 L 232.88867 408.59961 L 211.54883 420.91992 L 199.23047 399.58008 L 220.56836 387.25977 z M 71.919922 389.82227 L 71.919922 404.21484 L 59.455078 397.01758 L 71.919922 389.82227 z M 124.56055 389.82227 L 137.02539 397.01758 L 124.56055 404.21484 L 124.56055 389.82227 z M 261.77344 391.69727 L 268.96875 404.16211 L 254.57617 404.16211 L 261.77344 391.69727 z M 629.30273 393.66406 L 653.94336 393.66406 L 653.94336 418.30469 L 629.30273 418.30469 L 629.30273 393.66406 z M 778.63867 393.66406 L 793.03125 393.66406 L 789.43359 399.89648 L 785.83594 406.12695 L 778.63867 393.66406 z M 763.95312 396.22656 L 776.27344 417.56641 L 754.93359 429.88672 L 742.61328 408.54688 L 763.95312 396.22656 z M 615.30273 398.78906 L 615.30273 413.17969 L 602.83789 405.98438 L 615.30273 398.78906 z M 667.94336 398.78906 L 680.40625 405.98438 L 667.94336 413.17969 L 667.94336 398.78906 z M 321.55859 398.8418 L 346.19922 398.8418 L 346.19922 423.48242 L 321.55859 423.48242 L 321.55859 398.8418 z M 470.89453 398.8418 L 485.28711 398.8418 L 481.68945 405.07422 L 478.08984 411.30664 L 470.89453 398.8418 z M 805.15625 400.66406 L 812.35156 413.12891 L 797.96094 413.12891 L 805.15625 400.66406 z M 456.20703 401.4043 L 468.5293 422.74219 L 447.1875 435.06445 L 434.86914 413.72461 L 456.20703 401.4043 z M 307.55859 403.96484 L 307.55859 418.35742 L 295.09375 411.16211 L 307.55859 403.96484 z M 360.19922 403.9668 L 372.66211 411.16211 L 360.19922 418.35742 L 360.19922 403.9668 z M 163.15039 404.01758 L 177.54297 404.01758 L 170.3457 416.48242 L 163.15039 404.01758 z M 497.41211 405.8418 L 504.60742 418.30469 L 490.21484 418.30469 L 497.41211 405.8418 z M 148.46289 406.58008 L 160.7832 427.91992 L 139.44336 440.24023 L 127.12305 418.90039 L 148.46289 406.58008 z M 864.94141 407.80859 L 889.58203 407.80859 L 889.58203 432.44922 L 864.94141 432.44922 L 864.94141 407.80859 z M 189.66602 411.01758 L 196.86328 423.48242 L 182.4707 423.48242 L 186.06836 417.25 L 189.66602 411.01758 z M 850.94141 412.93164 L 850.94141 427.32422 L 838.47656 420.12891 L 850.94141 412.93164 z M 903.58203 412.93164 L 916.04883 420.12891 L 903.58203 427.32422 L 903.58203 412.93164 z M 557.19727 412.98438 L 581.83789 412.98438 L 581.83789 437.62695 L 557.19727 437.62695 L 557.19727 412.98438 z M 706.5332 412.98438 L 720.92578 412.98438 L 717.32812 419.2168 L 713.73047 425.44922 L 706.5332 412.98438 z M 691.84766 415.54688 L 704.16797 436.88672 L 682.82617 449.20703 L 670.50586 427.86719 L 691.84766 415.54688 z M 543.19727 418.10938 L 543.19727 432.50195 L 530.73242 425.30469 L 543.19727 418.10938 z M 595.83789 418.10938 L 608.30273 425.30469 L 595.83789 432.50195 L 595.83789 418.10938 z M 249.45117 418.16211 L 274.09375 418.16211 L 274.09375 442.80273 L 249.45117 442.80273 L 249.45117 418.16211 z M 398.78906 418.16211 L 413.18164 418.16211 L 405.98633 430.62695 L 405.98438 430.62695 L 398.78906 418.16211 z M 733.05078 419.98438 L 740.24609 432.44922 L 725.85547 432.44922 L 733.05078 419.98438 z M 384.10156 420.72461 L 396.42188 442.06445 L 375.08203 454.38477 L 362.76172 433.04492 L 384.10156 420.72461 z M 235.45117 423.28711 L 235.45117 437.67773 L 222.98828 430.48242 L 235.45117 423.28711 z M 288.09375 423.28711 L 300.55859 430.48242 L 288.09375 437.67773 L 288.09375 423.28711 z M 91.042969 423.33984 L 105.43555 423.33984 L 98.240234 435.80273 L 91.042969 423.33984 z M 425.30664 425.16211 L 432.50391 437.62695 L 418.10938 437.62695 L 425.30664 425.16211 z M 792.83594 427.12891 L 817.47656 427.12891 L 817.47656 451.76953 L 792.83594 451.76953 L 792.83594 427.12891 z M 117.56055 430.33984 L 124.75586 442.80273 L 110.36523 442.80273 L 113.96289 436.57031 L 117.56055 430.33984 z M 778.83594 432.25195 L 778.83594 446.64453 L 766.37109 439.44922 L 778.83594 432.25195 z M 831.47656 432.25195 L 843.94141 439.44922 L 831.47656 446.64453 L 831.47656 432.25195 z M 485.0918 432.30469 L 509.73242 432.30469 L 509.73242 456.94727 L 485.0918 456.94727 L 485.0918 432.30469 z M 634.42773 432.30469 L 648.82031 432.30469 L 645.22266 438.53711 L 641.62305 444.76953 L 634.42773 432.30469 z M 619.74023 434.86719 L 632.0625 456.20703 L 610.7207 468.5293 L 598.40039 447.1875 L 619.74023 434.86719 z M 471.0918 437.42969 L 471.0918 451.82227 L 458.62695 444.625 L 471.0918 437.42969 z M 523.73242 437.42969 L 536.19727 444.625 L 536.19727 444.62695 L 523.73242 451.82227 L 523.73242 437.42969 z M 177.3457 437.48242 L 201.98633 437.48242 L 201.98633 462.12305 L 177.3457 462.12305 L 177.3457 437.48242 z M 326.68359 437.48242 L 341.07422 437.48242 L 333.87891 449.94727 L 326.68359 437.48242 z M 660.94336 439.30469 L 668.14062 451.76953 L 653.74805 451.76953 L 660.94336 439.30469 z M 311.99609 440.04492 L 324.31641 461.38477 L 302.97656 473.70508 L 290.65625 452.36523 L 311.99609 440.04492 z M 163.3457 442.60742 L 163.3457 456.99805 L 150.88281 449.80273 L 163.3457 442.60742 z M 215.98633 442.60742 L 228.45117 449.80273 L 215.98633 457 L 215.98633 442.60742 z M 353.19922 444.48242 L 360.39453 456.94727 L 346.00391 456.94727 L 353.19922 444.48242 z M 720.73047 446.44922 L 745.37109 446.44922 L 745.37109 471.0918 L 720.73047 471.0918 L 720.73047 446.44922 z M 870.06641 446.44922 L 884.45703 446.44922 L 877.26172 458.91211 L 870.06641 446.44922 z M 855.37891 449.01172 L 867.69922 470.35156 L 846.35938 482.67188 L 834.03906 461.33203 L 855.37891 449.01172 z M 706.73047 451.57422 L 706.73047 465.9668 L 694.26562 458.76953 L 706.73047 451.57422 z M 759.37109 451.57422 L 771.83594 458.76953 L 759.37109 465.9668 L 759.37109 451.57422 z M 412.98438 451.62695 L 437.62695 451.62695 L 437.62695 476.26758 L 412.98438 476.26758 L 412.98438 451.62695 z M 562.32227 451.62695 L 576.71289 451.62695 L 569.51758 464.0918 L 562.32227 451.62695 z M 896.58203 453.44922 L 896.58398 453.44922 L 903.7793 465.91406 L 889.38672 465.91406 L 896.58203 453.44922 z M 547.63477 454.18945 L 559.95508 475.5293 L 538.61523 487.84766 L 526.29492 466.50977 L 547.63477 454.18945 z M 398.98438 456.75 L 398.98438 471.14258 L 386.51953 463.94727 L 398.98438 456.75 z M 451.62695 456.75195 L 464.08984 463.94727 L 451.62695 471.14258 L 451.62695 456.75195 z M 105.24023 456.80273 L 129.88086 456.80273 L 129.88086 481.44531 L 105.24023 481.44531 L 105.24023 456.80273 z M 254.57617 456.80273 L 268.96875 456.80273 L 261.77344 469.26758 L 254.57617 456.80273 z M 588.83789 458.62695 L 596.03516 471.0918 L 581.64258 471.0918 L 588.83789 458.62695 z M 239.89062 459.36523 L 252.21094 480.70703 L 230.86914 493.02734 L 218.54883 471.68555 L 239.89062 459.36523 z M 91.240234 461.92773 L 91.240234 476.32031 L 78.775391 469.125 L 91.240234 461.92773 z M 143.88086 461.92773 L 156.3457 469.125 L 143.88086 476.32031 L 143.88086 461.92773 z M 281.09375 463.80273 L 288.28906 476.26758 L 273.89648 476.26758 L 277.49609 470.03516 L 281.09375 463.80273 z M 648.62305 465.76953 L 673.26562 465.76953 L 673.26562 490.41016 L 648.62305 490.41016 L 648.62305 465.76953 z M 797.96094 465.76953 L 812.35156 465.76953 L 808.75391 472.00195 L 805.15625 478.23242 L 797.96094 465.76953 z M 783.27344 468.33203 L 795.59375 489.67188 L 774.25391 501.99219 L 761.93359 480.65234 L 783.27344 468.33203 z M 634.62305 470.89453 L 634.62305 485.28516 L 622.1582 478.08984 L 634.62305 470.89453 z M 687.26562 470.89453 L 699.73047 478.08984 L 699.73047 478.0918 L 687.26562 485.28711 L 687.26562 470.89453 z M 340.87891 470.94727 L 365.51953 470.94727 L 365.51953 495.58984 L 340.87891 495.58984 L 340.87891 470.94727 z M 490.21484 470.94727 L 504.60742 470.94727 L 501.00977 477.17969 L 497.41211 483.41016 L 490.21484 470.94727 z M 824.47656 472.76953 L 831.67383 485.23438 L 817.28125 485.23438 L 820.87891 479.00195 L 824.47656 472.76953 z M 475.5293 473.50977 L 487.84961 494.84961 L 466.50977 507.16992 L 454.1875 485.83008 L 475.5293 473.50977 z M 326.87891 476.07227 L 326.87891 490.46484 L 314.41406 483.26758 L 326.87891 476.07227 z M 379.51953 476.07227 L 391.98438 483.26758 L 379.51953 490.46484 L 379.51953 476.07227 z M 182.4707 476.12305 L 196.86328 476.12305 L 189.66602 488.58984 L 182.4707 476.12305 z M 516.73242 477.94727 L 523.92773 490.41016 L 509.53711 490.41016 L 516.73242 477.94727 z M 167.7832 478.68555 L 180.10547 500.02734 L 158.76367 512.3457 L 146.44336 491.00781 L 167.7832 478.68555 z M 884.26172 479.91406 L 908.9043 479.91406 L 908.9043 504.55469 L 884.26172 504.55469 L 884.26172 479.91406 z M 208.98828 483.12305 L 216.18359 495.58984 L 201.79102 495.58984 L 208.98828 483.12305 z M 870.26172 485.03906 L 870.26172 499.42969 L 857.79883 492.23438 L 870.26172 485.03906 z M 922.9043 485.03906 L 935.36719 492.23438 L 922.9043 499.42969 L 922.9043 485.03906 z M 576.51758 485.0918 L 601.1582 485.0918 L 601.1582 509.73242 L 576.51758 509.73242 L 576.51758 485.0918 z M 725.85547 485.0918 L 740.24609 485.0918 L 736.64844 491.32422 L 733.05078 497.55469 L 725.85547 485.0918 z M 711.16797 487.6543 L 723.48828 508.99219 L 702.14844 521.31445 L 689.82812 499.97266 L 711.16797 487.6543 z M 562.51758 490.21484 L 562.51758 504.60742 L 550.05273 497.41016 L 562.51758 490.21484 z M 615.1582 490.21484 L 627.62305 497.41211 L 615.1582 504.60742 L 615.1582 490.21484 z M 268.77344 490.26758 L 293.41406 490.26758 L 293.41406 514.9082 L 268.77344 514.9082 L 268.77344 490.26758 z M 418.10938 490.26758 L 432.50195 490.26758 L 425.30469 502.73242 L 418.10938 490.26758 z M 752.37109 492.0918 L 759.56641 504.55469 L 745.17578 504.55469 L 752.37109 492.0918 z M 403.42383 492.83008 L 415.74414 514.16992 L 394.40234 526.49219 L 382.08203 505.15039 L 403.42383 492.83008 z M 254.77344 495.39258 L 254.77344 509.78516 L 242.30859 502.58984 L 242.30859 502.58789 L 254.77344 495.39258 z M 307.41406 495.39258 L 319.87891 502.58984 L 307.41406 509.78516 L 307.41406 495.39258 z M 110.36523 495.44531 L 124.75586 495.44531 L 117.56055 507.9082 L 110.36523 495.44531 z M 444.62695 497.26758 L 451.82227 509.73242 L 437.43164 509.73242 L 444.62695 497.26758 z M 812.15625 499.23438 L 836.79883 499.23438 L 836.79883 523.87695 L 812.15625 523.87695 L 812.15625 499.23438 z M 136.88086 502.44531 L 144.07812 514.9082 L 129.68555 514.9082 L 133.2832 508.67578 L 136.88086 502.44531 z M 798.15625 504.35938 L 798.15625 518.75195 L 785.69141 511.55469 L 798.15625 504.35938 z M 850.79883 504.35938 L 863.26172 511.55469 L 850.79883 518.75195 L 850.79883 504.35938 z M 504.41211 504.41016 L 529.05273 504.41016 L 529.05273 529.05273 L 504.41211 529.05273 L 504.41211 504.41016 z M 653.74609 504.41016 L 668.14062 504.41016 L 660.94336 516.87695 L 653.74609 504.41016 z M 639.0625 506.97266 L 651.38281 528.31445 L 630.04102 540.63477 L 617.7207 519.29297 L 639.0625 506.97266 z M 490.41211 509.53516 L 490.41211 523.92773 L 477.94727 516.73242 L 490.41211 509.53516 z M 543.05273 509.53516 L 555.51758 516.73242 L 543.05273 523.92773 L 543.05273 509.53516 z M 196.66797 509.58984 L 221.30859 509.58984 L 221.30859 534.23047 L 196.66797 534.23047 L 196.66797 509.58984 z M 346.00391 509.58984 L 360.39453 509.58984 L 356.79688 515.82031 L 353.19922 522.05273 L 346.00391 509.58984 z M 680.26562 511.41211 L 687.46094 523.87695 L 673.06836 523.87695 L 680.26562 511.41211 z M 331.31641 512.15234 L 343.63672 533.49023 L 322.29688 545.81055 L 309.97656 524.4707 L 331.31641 512.15234 z M 182.66797 514.71094 L 182.66797 529.10547 L 170.20117 521.9082 L 182.66797 514.71094 z M 235.30859 514.71289 L 247.77344 521.91016 L 235.30859 529.10547 L 235.30859 514.71289 z M 372.51953 516.58984 L 379.7168 529.05273 L 365.32422 529.05273 L 372.51953 516.58984 z M 740.05078 518.55469 L 764.69141 518.55469 L 764.69141 543.19727 L 740.05078 543.19727 L 740.05078 518.55469 z M 889.38672 518.55469 L 903.7793 518.55469 L 900.18164 524.78711 L 896.58203 531.01953 L 889.38672 518.55469 z M 874.69922 521.11719 L 887.01953 542.45703 L 865.68164 554.7793 L 853.35938 533.4375 L 874.69922 521.11719 z M 726.05078 523.67969 L 726.05078 538.07227 L 713.58594 530.875 L 726.05078 523.67969 z M 778.69141 523.67969 L 791.15625 530.875 L 791.15625 530.87695 L 778.69141 538.07227 L 778.69141 523.67969 z M 432.30664 523.73242 L 456.94727 523.73242 L 456.94727 548.37305 L 432.30664 548.37305 L 432.30664 523.73242 z M 581.64258 523.73242 L 596.03516 523.73242 L 588.83789 536.19727 L 581.64258 523.73242 z M 915.9043 525.55469 L 923.09961 538.01953 L 908.70703 538.01953 L 915.9043 525.55469 z M 566.95508 526.29492 L 579.27539 547.63477 L 557.93555 559.95508 L 545.61523 538.61523 L 566.95508 526.29492 z M 418.30664 528.85742 L 418.30664 543.25 L 405.8418 536.05273 L 418.30664 528.85742 z M 470.94727 528.85742 L 483.41211 536.05273 L 470.94727 543.25 L 470.94727 528.85742 z M 124.56055 528.9082 L 149.20117 528.9082 L 149.20117 553.55078 L 124.56055 553.55078 L 124.56055 528.9082 z M 273.89648 528.9082 L 288.28906 528.9082 L 284.69141 535.14062 L 281.0918 541.37305 L 273.89648 528.9082 z M 608.16016 530.73242 L 615.35547 543.19727 L 600.96289 543.19727 L 604.56055 536.96484 L 608.16016 530.73242 z M 259.21094 531.4707 L 271.53125 552.8125 L 250.19141 565.13281 L 237.86914 543.79102 L 259.21094 531.4707 z M 110.56055 534.0332 L 110.56055 548.42578 L 98.095703 541.23047 L 110.56055 534.0332 z M 163.20117 534.0332 L 175.66602 541.23047 L 163.20117 548.42578 L 163.20117 534.0332 z M 300.41406 535.9082 L 307.60938 548.37305 L 293.2168 548.37305 L 300.41406 535.9082 z M 667.94336 537.87695 L 692.58594 537.87695 L 692.58594 562.51758 L 667.94336 562.51758 L 667.94336 537.87695 z M 817.28125 537.87695 L 831.67383 537.87695 L 824.47656 550.3418 L 817.28125 537.87695 z M 802.59375 540.43945 L 814.91406 561.7793 L 793.57422 574.09961 L 781.25391 552.75977 L 802.59375 540.43945 z M 653.94336 543 L 653.94336 557.39258 L 641.48047 550.19727 L 653.94336 543 z M 706.58594 543 L 719.05078 550.19727 L 706.58594 557.39258 L 706.58594 543 z M 360.19922 543.05273 L 384.8418 543.05273 L 384.8418 567.69531 L 360.19922 567.69531 L 360.19922 543.05273 z M 509.53711 543.05273 L 523.92773 543.05273 L 516.73242 555.51562 L 509.53711 543.05273 z M 843.79688 544.87695 L 843.79883 544.87695 L 850.99414 557.3418 L 836.60156 557.3418 L 843.79688 544.87695 z M 494.84961 545.61523 L 507.16992 566.95508 L 485.83008 579.27539 L 473.50977 557.93555 L 494.84961 545.61523 z M 346.19922 548.17773 L 346.19922 562.57031 L 333.73438 555.375 L 333.73438 555.37305 L 346.19922 548.17773 z M 398.8418 548.17773 L 411.30664 555.375 L 398.8418 562.57031 L 398.8418 548.17773 z M 201.79102 548.23047 L 216.18359 548.23047 L 212.58594 554.46289 L 208.98828 560.69531 L 208.98633 560.69531 L 201.79102 548.23047 z M 536.05273 550.05273 L 543.25 562.51758 L 528.85742 562.51758 L 532.45508 556.28516 L 536.05273 550.05273 z M 187.10547 550.79297 L 199.42383 572.13281 L 178.08594 584.45312 L 165.76367 563.11328 L 187.10547 550.79297 z M 91.095703 553.35547 L 103.56055 560.55078 L 91.095703 567.74805 L 91.095703 553.35547 z M 228.30859 555.23047 L 235.50391 567.69531 L 221.11133 567.69531 L 228.30859 555.23047 z M 889.58203 557.14453 L 889.58203 571.53711 L 877.11719 564.3418 L 889.58203 557.14453 z M 595.83789 557.19727 L 620.48047 557.19727 L 620.48047 581.83789 L 595.83789 581.83789 L 595.83789 557.19727 z M 745.17383 557.19727 L 759.56641 557.19727 L 752.37109 569.66016 L 745.17383 557.19727 z M 730.48828 559.75977 L 742.80859 581.09961 L 721.46875 593.41992 L 709.14844 572.08008 L 730.48828 559.75977 z M 581.83789 562.32227 L 581.83789 576.71289 L 569.375 569.51758 L 581.83789 562.32227 z M 634.48047 562.32227 L 646.94336 569.51758 L 634.48047 576.71289 L 634.48047 562.32227 z M 288.09375 562.37305 L 312.73438 562.37305 L 312.73438 587.01562 L 288.09375 587.01562 L 288.09375 562.37305 z M 437.42969 562.37305 L 451.82227 562.37305 L 444.62695 574.83789 L 444.625 574.83789 L 437.42969 562.37305 z M 771.69141 564.19727 L 778.88867 576.66016 L 764.49609 576.66016 L 768.09375 570.42969 L 771.69141 564.19727 z M 422.74414 564.93555 L 435.0625 586.27539 L 413.72461 598.5957 L 401.4043 577.25781 L 422.74414 564.93555 z M 274.09375 567.49805 L 274.09375 581.89062 L 261.62891 574.69531 L 274.09375 567.49805 z M 326.73438 567.49805 L 339.19922 574.69531 L 326.73438 581.89062 L 326.73438 567.49805 z M 129.68555 567.55078 L 144.07812 567.55078 L 136.88086 580.01562 L 129.68555 567.55078 z M 463.94727 569.375 L 471.14258 581.83789 L 456.75 581.83789 L 463.94727 569.375 z M 114.99805 570.11328 L 127.31836 591.45312 L 105.97852 603.77344 L 93.658203 582.43359 L 114.99805 570.11328 z M 831.47656 571.3418 L 856.11914 571.3418 L 856.11914 595.98242 L 831.47656 595.98242 L 831.47656 571.3418 z M 156.20312 574.55078 L 163.39844 587.01562 L 149.00586 587.01562 L 152.60352 580.7832 L 156.20312 574.55078 z M 817.47656 576.46484 L 817.47656 590.85742 L 805.01172 583.66016 L 817.47656 576.46484 z M 870.11914 576.4668 L 882.58203 583.66211 L 870.11914 590.85742 L 870.11914 576.4668 z M 523.73242 576.51758 L 548.37305 576.51758 L 548.37305 601.1582 L 523.73242 601.1582 L 523.73242 576.51758 z M 673.06836 576.51758 L 687.46094 576.51758 L 680.26562 588.98242 L 680.26367 588.98242 L 673.06836 576.51758 z M 658.38281 579.08008 L 670.70312 600.41992 L 649.36328 612.74023 L 637.04297 591.40039 L 658.38281 579.08008 z M 562.37305 581.64062 L 574.83789 588.83789 L 562.37305 596.03516 L 562.37305 581.64062 z M 509.73242 581.64258 L 509.73242 596.03516 L 497.26758 588.83789 L 509.73242 581.64258 z M 215.98633 581.69531 L 240.62891 581.69531 L 240.62891 606.33594 L 215.98633 606.33594 L 215.98633 581.69531 z M 365.32422 581.69531 L 379.7168 581.69531 L 372.51953 594.1582 L 365.32422 581.69531 z M 699.58594 583.51758 L 706.7832 595.98242 L 692.39062 595.98242 L 699.58594 583.51758 z M 350.63672 584.25781 L 362.95703 605.59766 L 341.61719 617.91797 L 329.29688 596.57812 L 350.63672 584.25781 z M 201.98633 586.82031 L 201.98633 601.21094 L 189.52344 594.01562 L 201.98633 586.82031 z M 254.62891 586.82031 L 267.09375 594.01562 L 254.62891 601.21094 L 254.62891 586.82031 z M 391.83984 588.69336 L 391.8418 588.69336 L 399.03711 601.1582 L 384.64453 601.1582 L 388.24219 594.92578 L 391.83984 588.69336 z M 759.37109 590.66016 L 784.01367 590.66016 L 784.01367 615.30273 L 759.37109 615.30273 L 759.37109 590.66016 z M 908.70703 590.66016 L 923.09961 590.66016 L 915.9043 603.125 L 908.70703 590.66016 z M 894.02148 593.22266 L 906.3418 614.56445 L 885.00195 626.88477 L 872.68164 605.54492 L 894.02148 593.22266 z M 84.095703 593.87305 L 91.292969 606.33594 L 76.900391 606.33594 L 84.095703 593.87305 z M 745.37109 595.78516 L 745.37109 610.17773 L 732.90625 602.98242 L 745.37109 595.78516 z M 798.01367 595.78516 L 810.47656 602.98242 L 798.01367 610.17773 L 798.01367 595.78516 z M 451.62695 595.83789 L 476.26758 595.83789 L 476.26758 620.48047 L 451.62695 620.48047 L 451.62695 595.83789 z M 600.96289 595.83789 L 615.35547 595.83789 L 608.16016 608.30273 L 608.1582 608.30273 L 600.96289 595.83789 z M 586.27539 598.40039 L 598.5957 619.74023 L 577.25781 632.0625 L 564.93555 610.7207 L 586.27539 598.40039 z M 437.62695 600.96289 L 437.62695 615.35547 L 425.16211 608.16016 L 425.16211 608.1582 L 437.62695 600.96289 z M 490.26758 600.96289 L 502.73242 608.16016 L 490.26758 615.35547 L 490.26758 600.96289 z M 143.88086 601.01562 L 168.52344 601.01562 L 168.52344 625.65625 L 143.88086 625.65625 L 143.88086 601.01562 z M 293.2168 601.01562 L 307.60938 601.01562 L 300.41406 613.48047 L 293.2168 601.01562 z M 627.48047 602.83789 L 634.67578 615.30273 L 620.2832 615.30273 L 627.48047 602.83789 z M 278.53125 603.57812 L 290.85156 624.91797 L 269.51172 637.23828 L 257.19141 615.89844 L 278.53125 603.57812 z M 129.88086 606.13867 L 129.88086 620.53125 L 117.41797 613.33594 L 129.88086 606.13867 z M 182.52344 606.13867 L 194.98633 613.33594 L 182.52344 620.5332 L 182.52344 606.13867 z M 319.73438 608.01562 L 326.93164 620.48047 L 312.53906 620.48047 L 316.13672 614.24805 L 319.73438 608.01562 z M 687.26562 609.98242 L 711.90625 609.98242 L 711.90625 634.62305 L 687.26562 634.62305 L 687.26562 609.98242 z M 836.60156 609.98242 L 850.99414 609.98242 L 847.39648 616.21484 L 843.79688 622.44727 L 836.60156 609.98242 z M 821.91602 612.54492 L 834.23633 633.88477 L 812.89453 646.20508 L 800.57617 624.86523 L 821.91602 612.54492 z M 673.26562 615.10742 L 673.26562 629.5 L 660.80078 622.30273 L 673.26562 615.10742 z M 725.90625 615.10742 L 738.37109 622.30273 L 725.90625 629.5 L 725.90625 615.10742 z M 379.51953 615.1582 L 404.16211 615.1582 L 404.16211 639.80078 L 379.51953 639.80078 L 379.51953 615.1582 z M 528.85742 615.1582 L 543.25 615.1582 L 536.05273 627.62305 L 528.85742 615.1582 z M 863.11914 616.98242 L 870.31445 629.44727 L 855.92188 629.44727 L 863.11914 616.98242 z M 514.16992 617.7207 L 526.49219 639.0625 L 505.15039 651.38281 L 492.83008 630.04297 L 514.16992 617.7207 z M 365.51953 620.2832 L 365.51953 634.67578 L 353.05664 627.48047 L 365.51953 620.2832 z M 418.16211 620.2832 L 430.625 627.48047 L 418.16211 634.67578 L 418.16211 620.2832 z M 221.11133 620.33594 L 235.50391 620.33594 L 228.30859 632.80078 L 221.11133 620.33594 z M 555.375 622.1582 L 562.57031 634.62305 L 548.17773 634.62305 L 551.77539 628.39062 L 555.375 622.1582 z M 206.42578 622.89844 L 218.74609 644.23828 L 197.40625 656.55859 L 185.08594 635.21875 L 206.42578 622.89844 z M 110.41797 625.46094 L 122.88086 632.65625 L 122.88086 632.6582 L 110.41797 639.85352 L 110.41797 625.46094 z M 247.62891 627.33594 L 254.82617 639.80078 L 240.43359 639.80078 L 244.03125 633.56836 L 247.62891 627.33594 z M 908.9043 629.25 L 908.9043 643.64258 L 896.43945 636.44727 L 908.9043 629.25 z M 615.1582 629.30273 L 639.80078 629.30273 L 639.80078 653.94336 L 615.1582 653.94336 L 615.1582 629.30273 z M 764.49609 629.30273 L 778.88867 629.30273 L 771.69141 641.76758 L 764.49609 629.30273 z M 749.80859 631.86523 L 762.12891 653.20508 L 740.78906 665.52539 L 728.46875 644.18555 L 749.80859 631.86523 z M 601.1582 634.42773 L 601.1582 648.81836 L 588.69531 641.62305 L 601.1582 634.42773 z M 653.80078 634.42773 L 666.26562 641.62305 L 653.80078 648.82031 L 653.80078 634.42773 z M 307.41406 634.48047 L 332.05664 634.48047 L 332.05664 659.12109 L 307.41406 659.12109 L 307.41406 634.48047 z M 456.75 634.48047 L 471.14258 634.48047 L 463.94727 646.94336 L 456.75 634.48047 z M 791.01172 636.30273 L 791.01367 636.30273 L 798.20898 648.76758 L 783.81641 648.76758 L 787.41406 642.53516 L 791.01172 636.30273 z M 442.06445 637.04297 L 454.38477 658.38281 L 433.04492 670.70312 L 420.72461 649.36328 L 442.06445 637.04297 z M 293.41406 639.60547 L 293.41406 653.99609 L 280.94922 646.80078 L 293.41406 639.60547 z M 346.05664 639.60547 L 358.51953 646.80078 L 346.05664 653.99609 L 346.05664 639.60547 z M 149.00586 639.65625 L 163.39844 639.65625 L 156.20312 652.12109 L 149.00586 639.65625 z M 483.26758 641.48047 L 490.46484 653.94336 L 476.07227 653.94336 L 479.66992 647.71094 L 483.26758 641.48047 z M 134.31836 642.21875 L 146.63867 663.55859 L 125.30078 675.87891 L 112.98047 654.54102 L 134.31836 642.21875 z M 850.79883 643.44727 L 875.43945 643.44727 L 875.43945 668.08789 L 850.79883 668.08789 L 850.79883 643.44727 z M 175.52344 646.65625 L 182.71875 659.12109 L 168.32617 659.12109 L 175.52344 646.65625 z M 836.79883 648.57227 L 836.79883 662.96289 L 824.33398 655.76758 L 836.79883 648.57227 z M 889.43945 648.57227 L 901.9043 655.76758 L 889.43945 662.96289 L 889.43945 648.57227 z M 543.05273 648.62305 L 567.69531 648.62305 L 567.69531 673.26562 L 543.05273 673.26562 L 543.05273 648.62305 z M 692.38867 648.62305 L 706.7832 648.62305 L 699.58594 661.08789 L 692.38867 648.62305 z M 677.70312 651.1875 L 690.02344 672.52539 L 668.68359 684.8457 L 656.36328 663.50586 L 677.70312 651.1875 z M 529.05273 653.74805 L 529.05273 668.14062 L 516.58789 660.94531 L 516.58789 660.94336 L 529.05273 653.74805 z M 581.69531 653.74805 L 594.16016 660.94531 L 581.69531 668.14062 L 581.69531 653.74805 z M 235.30859 653.80078 L 259.94922 653.80078 L 259.94922 678.44141 L 235.30859 678.44141 L 235.30859 653.80078 z M 384.64453 653.80078 L 399.03711 653.80078 L 391.83984 666.26562 L 384.64453 653.80078 z M 718.90625 655.62305 L 718.9082 655.62305 L 726.10352 668.08789 L 711.71094 668.08789 L 718.90625 655.62305 z M 369.95703 656.36328 L 382.2793 677.70312 L 360.93945 690.02344 L 348.61914 668.68359 L 369.95703 656.36328 z M 221.30859 658.92578 L 221.30859 673.31641 L 208.8457 666.12109 L 221.30859 658.92578 z M 273.94922 658.92578 L 286.41211 666.12109 L 273.94922 673.31641 L 273.94922 658.92578 z M 76.900391 658.97852 L 91.292969 658.97852 L 87.695312 665.21094 L 84.095703 671.44141 L 76.900391 658.97852 z M 411.16211 660.80273 L 418.35742 673.26562 L 403.9668 673.26562 L 411.16211 660.80273 z M 778.69141 662.76758 L 803.33203 662.76758 L 803.33203 687.4082 L 778.69141 687.4082 L 778.69141 662.76758 z M 103.41797 665.97656 L 110.61328 678.44141 L 96.220703 678.44141 L 103.41797 665.97656 z M 764.69141 667.89258 L 764.69141 682.28516 L 752.22656 675.08789 L 764.69141 667.89258 z M 817.33203 667.89258 L 829.79688 675.08789 L 817.33203 682.28516 L 817.33203 667.89258 z M 470.94727 667.94336 L 495.58984 667.94336 L 495.58984 692.58594 L 470.94727 692.58594 L 470.94727 667.94336 z M 620.2832 667.94336 L 634.67578 667.94336 L 631.07812 674.17578 L 627.48047 680.4082 L 620.2832 667.94336 z M 605.59766 670.50586 L 617.91992 691.84766 L 596.57812 704.16797 L 584.25586 682.82617 L 605.59766 670.50586 z M 456.94727 673.06836 L 456.94727 687.46094 L 444.48242 680.26562 L 444.48242 680.26367 L 456.94727 673.06836 z M 509.58984 673.06836 L 522.05469 680.26562 L 509.58984 687.46094 L 509.58984 673.06836 z M 163.20117 673.12109 L 187.84375 673.12109 L 187.84375 697.76367 L 163.20117 697.76367 L 163.20117 673.12109 z M 312.53906 673.12109 L 326.93164 673.12109 L 319.73438 685.58594 L 312.53906 673.12109 z M 646.80078 674.94531 L 653.99609 687.4082 L 639.60547 687.4082 L 643.20312 681.17578 L 646.80078 674.94531 z M 297.85156 675.68359 L 310.17188 697.02344 L 288.83203 709.34375 L 276.51172 688.00391 L 297.85156 675.68359 z M 149.20117 678.24609 L 149.20117 692.63867 L 136.73828 685.44141 L 149.20117 678.24609 z M 201.84375 678.24609 L 214.30859 685.44141 L 201.84375 692.63867 L 201.84375 678.24609 z M 339.05664 680.12109 L 346.25195 692.58594 L 331.85938 692.58594 L 339.05664 680.12109 z M 706.58594 682.08789 L 731.22656 682.08789 L 731.22656 706.73047 L 706.58594 706.73047 L 706.58594 682.08789 z M 855.92188 682.08789 L 870.31445 682.08789 L 866.7168 688.32031 L 863.11914 694.55273 L 855.92188 682.08789 z M 841.23633 684.65039 L 853.55664 705.99023 L 832.2168 718.31055 L 819.89453 696.9707 L 841.23633 684.65039 z M 692.58594 687.21289 L 692.58594 701.60547 L 680.12109 694.41016 L 680.12109 694.4082 L 692.58594 687.21289 z M 745.22656 687.21289 L 757.69141 694.41016 L 745.22656 701.60547 L 745.22656 687.21289 z M 398.8418 687.26562 L 423.48242 687.26562 L 423.48242 711.90625 L 398.8418 711.90625 L 398.8418 687.26562 z M 548.17773 687.26562 L 562.57031 687.26562 L 555.375 699.73047 L 555.37305 699.73047 L 548.17773 687.26562 z M 882.43945 689.08789 L 889.63477 701.55273 L 875.24414 701.55273 L 882.43945 689.08789 z M 533.49023 689.82812 L 545.81055 711.16797 L 524.4707 723.48828 L 512.15234 702.14844 L 533.49023 689.82812 z M 384.8418 692.39062 L 384.8418 706.78125 L 372.37891 699.58594 L 384.8418 692.39062 z M 437.48242 692.39062 L 449.94727 699.58594 L 437.48242 706.7832 L 437.48242 692.39062 z M 91.095703 692.44141 L 115.73828 692.44141 L 115.73828 717.08398 L 91.095703 717.08398 L 91.095703 692.44141 z M 240.43359 692.44141 L 254.82422 692.44141 L 247.62891 704.9043 L 240.43359 692.44141 z M 574.69531 694.26562 L 581.89062 706.73047 L 567.49805 706.73047 L 571.09766 700.49805 L 574.69531 694.26562 z M 225.74609 695.00391 L 238.06641 716.34375 L 216.72656 728.66406 L 204.40625 707.32422 L 225.74609 695.00391 z M 77.095703 697.56641 L 77.095703 711.95898 L 64.630859 704.76172 L 77.095703 697.56641 z M 129.73828 697.56641 L 142.20312 704.76172 L 142.20312 704.76367 L 129.73828 711.95898 L 129.73828 697.56641 z M 266.94922 699.44141 L 274.14648 711.90625 L 259.75391 711.90625 L 266.94922 699.44141 z M 634.48047 701.4082 L 659.12109 701.4082 L 659.12109 726.05078 L 634.48047 726.05078 L 634.48047 701.4082 z M 783.81641 701.4082 L 798.20898 701.4082 L 791.01172 713.87305 L 783.81641 701.4082 z M 769.13086 703.9707 L 781.45117 725.31055 L 760.10938 737.63281 L 747.78906 716.29102 L 769.13086 703.9707 z M 620.48047 706.5332 L 620.48047 720.92578 L 608.01562 713.73047 L 620.48047 706.5332 z M 673.12109 706.5332 L 685.58594 713.73047 L 673.12109 720.92578 L 673.12109 706.5332 z M 326.73438 706.58594 L 351.37695 706.58594 L 351.37695 731.22656 L 326.73438 731.22656 L 326.73438 706.58594 z M 476.07227 706.58594 L 490.46484 706.58594 L 483.26758 719.05078 L 476.07227 706.58594 z M 810.33398 708.4082 L 817.5293 720.87305 L 803.13867 720.87305 L 810.33398 708.4082 z M 461.38477 709.14844 L 473.70508 730.48828 L 452.36523 742.80859 L 440.04492 721.46875 L 461.38477 709.14844 z M 312.73438 711.71094 L 312.73438 726.10352 L 300.26953 718.90625 L 312.73438 711.71094 z M 365.37695 711.71094 L 377.8418 718.90625 L 365.37695 726.10352 L 365.37695 711.71094 z M 168.32617 711.76367 L 182.71875 711.76367 L 179.12109 717.99609 L 175.52344 724.22656 L 168.32617 711.76367 z M 502.58984 713.58594 L 509.78516 726.05078 L 495.39258 726.05078 L 502.58984 713.58594 z M 153.64062 714.32617 L 165.96094 735.66602 L 144.62109 747.98633 L 132.30078 726.64648 L 153.64062 714.32617 z M 870.11914 715.55273 L 894.75977 715.55273 L 894.75977 740.19336 L 870.11914 740.19336 L 870.11914 715.55273 z M 194.84375 718.76367 L 202.03906 731.22656 L 187.64844 731.22656 L 194.84375 718.76367 z M 856.11914 720.67773 L 856.11914 735.06836 L 843.65625 727.87305 L 856.11914 720.67773 z M 908.75977 720.67773 L 921.22461 727.87305 L 908.75977 735.06836 L 908.75977 720.67773 z M 562.37305 720.73047 L 587.01562 720.73047 L 587.01562 745.37109 L 562.37305 745.37109 L 562.37305 720.73047 z M 711.71094 720.73047 L 726.10156 720.73047 L 722.50391 726.96094 L 718.90625 733.19336 L 711.71094 720.73047 z M 697.02344 723.29297 L 709.34375 744.63281 L 688.00391 756.95312 L 675.68359 735.61133 L 697.02344 723.29297 z M 548.37305 725.85352 L 548.37305 740.24609 L 535.9082 733.05078 L 548.37305 725.85352 z M 601.01562 725.85352 L 613.48047 733.05078 L 601.01562 740.24609 L 601.01562 725.85352 z M 254.62891 725.90625 L 279.26953 725.90625 L 279.26953 750.54883 L 254.62891 750.54883 L 254.62891 725.90625 z M 403.96484 725.90625 L 418.35742 725.90625 L 414.75977 732.13867 L 411.16211 738.37109 L 403.96484 725.90625 z M 738.22656 727.73047 L 745.42383 740.19336 L 731.03125 740.19336 L 738.22656 727.73047 z M 389.2793 728.46875 L 401.59961 749.80859 L 380.25977 762.12891 L 367.9375 740.78906 L 389.2793 728.46875 z M 240.62891 731.03125 L 240.62891 745.42383 L 228.16406 738.22656 L 240.62891 731.03125 z M 293.26953 731.03125 L 305.73438 738.22656 L 293.26953 745.42383 L 293.26953 731.03125 z M 96.220703 731.08398 L 110.61328 731.08398 L 107.01562 737.31641 L 103.41797 743.54883 L 103.41602 743.54883 L 96.220703 731.08398 z M 430.48242 732.9082 L 437.67773 745.37109 L 423.28711 745.37109 L 430.48242 732.9082 z M 798.01367 734.87305 L 822.6543 734.87305 L 822.6543 759.51562 L 798.01367 759.51562 L 798.01367 734.87305 z M 122.73828 738.08398 L 129.93359 750.54883 L 115.54102 750.54883 L 122.73828 738.08398 z M 784.01367 739.99805 L 784.01367 754.39062 L 771.54883 747.19336 L 784.01367 739.99805 z M 836.6543 739.99805 L 849.11914 747.19336 L 836.6543 754.39062 L 836.6543 739.99805 z M 490.26758 740.05078 L 514.9082 740.05078 L 514.9082 764.69141 L 490.26758 764.69141 L 490.26758 740.05078 z M 639.60547 740.05078 L 653.99609 740.05078 L 646.80078 752.51562 L 639.60547 740.05078 z M 624.91797 742.61328 L 637.23828 763.95312 L 615.89844 776.27344 L 603.57812 754.93359 L 624.91797 742.61328 z M 476.26758 745.17383 L 476.26758 759.56641 L 463.80273 752.37109 L 476.26758 745.17383 z M 528.9082 745.17578 L 541.37109 752.37109 L 528.9082 759.56641 L 528.9082 745.17578 z M 182.52344 745.22656 L 207.16406 745.22656 L 207.16406 769.86914 L 182.52344 769.86914 L 182.52344 745.22656 z M 331.85938 745.22656 L 346.25195 745.22656 L 339.05664 757.69141 L 331.85938 745.22656 z M 666.12109 747.05078 L 673.31641 759.51562 L 658.92578 759.51562 L 666.12109 747.05078 z M 317.17383 747.78711 L 329.49414 769.13086 L 308.15234 781.45117 L 295.83203 760.10938 L 317.17383 747.78711 z M 168.52344 750.35156 L 168.52344 764.74414 L 156.05859 757.54688 L 168.52344 750.35156 z M 221.16406 750.35156 L 233.62891 757.54688 L 233.62891 757.54883 L 221.16406 764.74414 L 221.16406 750.35156 z M 358.37695 752.22656 L 365.57227 764.69141 L 351.17969 764.69141 L 354.77734 758.45898 L 358.37695 752.22656 z M 725.90625 754.19336 L 750.54883 754.19336 L 750.54883 778.83594 L 725.90625 778.83594 L 725.90625 754.19336 z M 875.24414 754.19336 L 889.63477 754.19336 L 886.03711 760.42578 L 882.43945 766.65625 L 875.24414 754.19336 z M 860.55664 756.75586 L 872.87695 778.09766 L 851.53711 790.41602 L 839.2168 769.07617 L 860.55664 756.75586 z M 711.90625 759.31836 L 711.90625 773.71094 L 699.44141 766.51562 L 711.90625 759.31836 z M 764.54883 759.31836 L 777.01367 766.51562 L 764.54883 773.71094 L 764.54883 759.31836 z M 418.16211 759.37109 L 442.80273 759.37109 L 442.80273 784.01367 L 418.16211 784.01367 L 418.16211 759.37109 z M 567.49805 759.37109 L 581.89062 759.37109 L 574.69531 771.83594 L 567.49805 759.37109 z M 901.75977 761.19336 L 908.95703 773.6582 L 894.56445 773.6582 L 901.75977 761.19336 z M 552.8125 761.93164 L 565.13281 783.27344 L 543.79297 795.59375 L 531.4707 774.25391 L 552.8125 761.93164 z M 404.16211 764.49609 L 404.16211 778.88867 L 391.69727 771.69141 L 404.16211 764.49609 z M 456.80273 764.49609 L 469.26758 771.69141 L 456.80273 778.88867 L 456.80273 764.49609 z M 110.41797 764.54883 L 135.05859 764.54883 L 135.05859 789.18945 L 110.41797 789.18945 L 110.41797 764.54883 z M 259.75391 764.54883 L 274.14453 764.54883 L 266.94922 777.01367 L 259.75391 764.54883 z M 594.01562 766.37109 L 601.21094 778.83594 L 586.82031 778.83594 L 594.01562 766.37109 z M 245.06641 767.11133 L 257.38672 788.45117 L 236.04688 800.76953 L 223.72656 779.43164 L 245.06641 767.11133 z M 96.417969 769.67188 L 96.417969 784.06445 L 83.953125 776.86914 L 96.417969 769.67188 z M 149.05859 769.67188 L 161.52344 776.86914 L 149.05859 784.06445 L 149.05859 769.67188 z M 286.26953 771.54883 L 293.4668 784.01367 L 279.07422 784.01367 L 286.26953 771.54883 z M 653.80078 773.51562 L 678.44141 773.51562 L 678.44141 798.15625 L 653.80078 798.15625 L 653.80078 773.51562 z M 803.13867 773.51562 L 817.5293 773.51562 L 813.93164 779.74609 L 810.33398 785.97852 L 803.13867 773.51562 z M 788.45117 776.07812 L 800.76953 797.41602 L 779.43164 809.73828 L 767.11133 788.39844 L 788.45117 776.07812 z M 639.80078 778.64062 L 639.80078 793.03125 L 627.33594 785.83594 L 639.80078 778.64062 z M 692.44141 778.64062 L 704.9043 785.83594 L 692.44141 793.03125 L 692.44141 778.64062 z M 346.05664 778.69141 L 370.69727 778.69141 L 370.69727 803.33203 L 346.05664 803.33203 L 346.05664 778.69141 z M 495.39258 778.69141 L 509.78516 778.69141 L 502.58984 791.15625 L 502.58789 791.15625 L 495.39258 778.69141 z M 829.6543 780.51562 L 836.84961 792.97852 L 822.45703 792.97852 L 829.6543 780.51562 z M 480.70508 781.25391 L 493.02734 802.59375 L 471.68555 814.91406 L 459.36523 793.57422 L 480.70508 781.25391 z M 332.05664 783.81641 L 332.05664 798.20898 L 319.5918 791.01172 L 332.05664 783.81641 z M 384.69727 783.81641 L 397.16211 791.01172 L 397.16211 791.01367 L 384.69727 798.20898 L 384.69727 783.81641 z M 187.64844 783.86914 L 202.03906 783.86914 L 194.84375 796.33203 L 187.64844 783.86914 z M 521.91016 785.69141 L 529.10547 798.15625 L 514.71289 798.15625 L 521.91016 785.69141 z M 172.96094 786.43164 L 185.28125 807.77148 L 163.94141 820.0918 L 151.62109 798.75195 L 172.96094 786.43164 z M 889.43945 787.6582 L 914.08008 787.6582 L 914.08008 812.30078 L 889.43945 812.30078 L 889.43945 787.6582 z M 214.16406 790.86914 L 221.35938 803.33203 L 206.96875 803.33203 L 214.16406 790.86914 z M 928.08008 792.78125 L 940.54492 799.97852 L 928.08008 807.17578 L 928.08008 792.78125 z M 875.43945 792.7832 L 875.43945 807.17578 L 862.97461 799.97852 L 875.43945 792.7832 z M 581.69531 792.83594 L 606.33594 792.83594 L 606.33594 817.47656 L 581.69531 817.47656 L 581.69531 792.83594 z M 731.03125 792.83594 L 745.42383 792.83594 L 741.82422 799.06836 L 738.22656 805.30078 L 731.03125 792.83594 z M 716.34375 795.39844 L 728.66406 816.73828 L 707.32422 829.05859 L 695.00391 807.71875 L 716.34375 795.39844 z M 567.69531 797.96094 L 567.69531 812.35156 L 555.23242 805.15625 L 567.69531 797.96094 z M 620.33594 797.96094 L 632.80078 805.15625 L 620.33594 812.35156 L 620.33594 797.96094 z M 273.94922 798.01367 L 298.5918 798.01367 L 298.5918 822.6543 L 273.94922 822.6543 L 273.94922 798.01367 z M 423.28711 798.01367 L 437.67773 798.01367 L 430.48242 810.47656 L 423.28711 798.01367 z M 757.54688 799.83594 L 757.54883 799.83594 L 764.74414 812.30078 L 750.35156 812.30078 L 757.54688 799.83594 z M 408.59961 800.57617 L 420.91992 821.91602 L 399.58008 834.23633 L 387.25977 812.89453 L 408.59961 800.57617 z M 259.94922 803.13672 L 259.94922 817.5293 L 247.48438 810.33398 L 259.94922 803.13672 z M 312.5918 803.13867 L 325.05664 810.33398 L 312.5918 817.5293 L 312.5918 803.13867 z M 115.54102 803.18945 L 129.93359 803.18945 L 126.33594 809.42188 L 122.73828 815.6543 L 115.54102 803.18945 z M 449.80273 805.01367 L 457 817.47656 L 442.60742 817.47656 L 449.80273 805.01367 z M 817.33203 806.97852 L 841.97461 806.97852 L 841.97461 831.62109 L 817.33203 831.62109 L 817.33203 806.97852 z M 142.05859 810.18945 L 149.25391 822.6543 L 134.86328 822.6543 L 142.05859 810.18945 z M 803.33203 812.10352 L 803.33203 826.49609 L 790.86914 819.30078 L 790.86914 819.29883 L 803.33203 812.10352 z M 855.97461 812.10352 L 868.43945 819.30078 L 855.97461 826.49609 L 855.97461 812.10352 z M 509.58984 812.15625 L 534.23047 812.15625 L 534.23047 836.79883 L 509.58984 836.79883 L 509.58984 812.15625 z M 658.92578 812.15625 L 673.31641 812.15625 L 669.71875 818.38867 L 666.12109 824.61914 L 658.92578 812.15625 z M 644.23828 814.71875 L 656.55859 836.05859 L 635.21875 848.37891 L 622.89844 827.03906 L 644.23828 814.71875 z M 495.58984 817.28125 L 495.58984 831.67383 L 483.125 824.47656 L 495.58984 817.28125 z M 548.23047 817.28125 L 560.69531 824.47656 L 548.23047 831.67383 L 548.23047 817.28125 z M 201.84375 817.33203 L 226.48438 817.33203 L 226.48438 841.97461 L 201.84375 841.97461 L 201.84375 817.33203 z M 351.17969 817.33203 L 365.57227 817.33203 L 361.97461 823.56641 L 358.37695 829.79883 L 351.17969 817.33203 z M 685.44141 819.15625 L 692.63867 831.62109 L 678.24609 831.62109 L 685.44141 819.15625 z M 336.49414 819.89453 L 348.81445 841.23633 L 327.47461 853.55664 L 315.1543 832.2168 L 336.49414 819.89453 z M 187.84375 822.45703 L 187.84375 836.84961 L 175.37891 829.6543 L 187.84375 822.45703 z M 240.48438 822.45703 L 252.94922 829.6543 L 240.48438 836.84961 L 240.48438 822.45703 z M 377.69727 824.33398 L 384.89258 836.79883 L 370.5 836.79883 L 377.69727 824.33398 z M 745.22656 826.30078 L 769.86914 826.30078 L 769.86914 850.94141 L 745.22656 850.94141 L 745.22656 826.30078 z M 894.56445 826.30078 L 908.95508 826.30078 L 901.75977 838.76367 L 894.56445 826.30078 z M 879.87695 828.86328 L 892.19727 850.20312 L 870.85742 862.52344 L 858.53711 841.18359 L 879.87695 828.86328 z M 731.22656 831.42383 L 731.22656 845.81641 L 718.76367 838.62109 L 731.22656 831.42383 z M 783.86914 831.42578 L 796.33203 838.62109 L 783.86914 845.81641 L 783.86914 831.42578 z M 437.48242 831.47656 L 462.12305 831.47656 L 462.12305 856.11914 L 437.48242 856.11914 L 437.48242 831.47656 z M 586.82031 831.47656 L 601.21094 831.47656 L 597.61328 837.70898 L 594.01562 843.93945 L 586.82031 831.47656 z M 921.08203 833.30078 L 928.27734 845.76562 L 913.88477 845.76562 L 921.08203 833.30078 z M 572.13281 834.03906 L 584.45312 855.37891 L 563.11328 867.69922 L 550.79297 846.35938 L 572.13281 834.03906 z M 423.48242 836.60156 L 423.48242 850.99414 L 411.01758 843.79688 L 423.48242 836.60156 z M 476.12305 836.60156 L 488.58984 843.79688 L 488.58984 843.79883 L 476.12305 850.99414 L 476.12305 836.60156 z M 129.73828 836.6543 L 154.37891 836.6543 L 154.37891 861.29688 L 129.73828 861.29688 L 129.73828 836.6543 z M 279.07422 836.6543 L 293.4668 836.6543 L 286.26953 849.11914 L 279.07422 836.6543 z M 613.33594 838.47656 L 620.5332 850.94141 L 606.14062 850.94141 L 613.33594 838.47656 z M 264.38672 839.2168 L 276.70703 860.55664 L 255.36719 872.87695 L 243.04688 851.53711 L 264.38672 839.2168 z M 115.73828 841.7793 L 115.73828 856.17188 L 103.27344 848.97461 L 115.73828 841.7793 z M 168.37891 841.7793 L 180.84375 848.97461 L 168.37891 856.17188 L 168.37891 841.7793 z M 305.58984 843.6543 L 305.5918 843.6543 L 312.78711 856.11914 L 298.39453 856.11914 L 305.58984 843.6543 z M 673.12109 845.62109 L 697.76367 845.62109 L 697.76367 870.26172 L 673.12109 870.26172 L 673.12109 845.62109 z M 822.45703 845.62109 L 836.84961 845.62109 L 829.6543 858.08398 L 822.45703 845.62109 z M 807.77148 848.18359 L 820.0918 869.52344 L 798.75195 881.84375 L 786.43164 860.50391 L 807.77148 848.18359 z M 659.12109 850.74609 L 659.12109 865.13672 L 646.65625 857.94141 L 659.12109 850.74609 z M 711.76367 850.74609 L 724.22656 857.94141 L 711.76367 865.13672 L 711.76367 850.74609 z M 365.37695 850.79883 L 390.01758 850.79883 L 390.01758 875.43945 L 365.37695 875.43945 L 365.37695 850.79883 z M 514.71289 850.79883 L 529.10547 850.79883 L 525.50781 857.03125 L 521.91016 863.26367 L 521.9082 863.26367 L 514.71289 850.79883 z M 848.97461 852.62109 L 856.17188 865.08594 L 841.7793 865.08594 L 848.97461 852.62109 z M 500.02734 853.36133 L 512.3457 874.69922 L 491.00781 887.01953 L 478.68555 865.68164 L 500.02734 853.36133 z M 351.37695 855.92188 L 351.37695 870.31641 L 338.91211 863.11914 L 351.37695 855.92188 z M 404.01758 855.92188 L 416.48242 863.11914 L 404.01758 870.31445 L 404.01758 855.92188 z M 206.96875 855.97461 L 221.35938 855.97461 L 214.16406 868.4375 L 206.96875 855.97461 z M 541.23047 857.79883 L 548.42578 870.26172 L 534.0332 870.26172 L 541.23047 857.79883 z M 192.28125 858.53711 L 204.60156 879.87695 L 183.26172 892.19727 L 170.94141 870.85742 L 192.28125 858.53711 z M 96.273438 861.09961 L 108.73828 868.29688 L 96.273438 875.49219 L 96.273438 861.09961 z M 233.48438 862.97461 L 233.48633 862.97461 L 240.68164 875.43945 L 226.28906 875.43945 L 233.48438 862.97461 z M 894.75977 864.89062 L 894.75977 879.28125 L 882.29688 872.08594 L 894.75977 864.89062 z M 601.01562 864.94141 L 625.65625 864.94141 L 625.65625 889.58203 L 601.01562 889.58203 L 601.01562 864.94141 z M 750.35156 864.94141 L 764.74414 864.94141 L 761.14648 871.17383 L 757.54688 877.40625 L 750.35156 864.94141 z M 735.66406 867.50391 L 747.98633 888.84375 L 726.64648 901.16406 L 714.32617 879.82422 L 735.66406 867.50391 z M 587.01562 870.06641 L 587.01562 884.45703 L 574.55273 877.26172 L 587.01562 870.06641 z M 639.65625 870.06641 L 652.12109 877.26172 L 639.65625 884.45898 L 639.65625 870.06641 z M 293.26953 870.11914 L 317.91211 870.11914 L 317.91211 894.75977 L 293.26953 894.75977 L 293.26953 870.11914 z M 442.60742 870.11914 L 456.99805 870.11914 L 449.80273 882.58203 L 442.60742 870.11914 z M 776.86914 871.94141 L 784.06445 884.40625 L 769.67188 884.40625 L 776.86914 871.94141 z M 427.92188 872.68164 L 440.24219 894.02148 L 418.90039 906.3418 L 406.58008 885.00195 L 427.92188 872.68164 z M 279.26953 875.24414 L 279.26953 889.63477 L 266.80664 882.43945 L 279.26953 875.24414 z M 331.91211 875.24414 L 344.375 882.43945 L 331.91211 889.63477 L 331.91211 875.24414 z M 134.86328 875.29688 L 149.25391 875.29688 L 145.65625 881.52734 L 142.05859 887.75977 L 134.86328 875.29688 z M 469.125 877.11914 L 476.32031 889.58203 L 461.92773 889.58203 L 469.125 877.11914 z M 120.17578 877.85938 L 132.49609 899.19727 L 111.15625 911.51758 L 98.835938 890.17773 L 120.17578 877.85938 z M 836.6543 879.08594 L 861.29688 879.08594 L 861.29688 903.72656 L 836.6543 903.72656 L 836.6543 879.08594 z M 161.37891 882.29688 L 168.57617 894.75977 L 154.18359 894.75977 L 161.37891 882.29688 z M 822.6543 884.20898 L 822.6543 898.60156 L 810.18945 891.40625 L 822.6543 884.20898 z M 875.29688 884.20898 L 887.75977 891.40625 L 875.29688 898.60156 L 875.29688 884.20898 z M 528.9082 884.26172 L 553.55078 884.26172 L 553.55078 908.9043 L 528.9082 908.9043 L 528.9082 884.26172 z M 678.24609 884.26172 L 692.63867 884.26172 L 685.44141 896.72656 L 678.24609 884.26172 z M 514.9082 889.38672 L 514.9082 903.7793 L 502.44336 896.58203 L 514.9082 889.38672 z M 567.55078 889.38672 L 580.01562 896.58203 L 580.01562 896.58398 L 567.55078 903.7793 L 567.55078 889.38672 z M 221.16406 889.43945 L 245.80664 889.43945 L 245.80664 914.08008 L 221.16406 914.08008 L 221.16406 889.43945 z M 370.5 889.43945 L 384.89258 889.43945 L 381.29492 895.67188 L 377.69727 901.9043 L 370.5 889.43945 z M 704.76172 891.26172 L 704.76367 891.26172 L 711.95898 903.72656 L 697.56641 903.72656 L 704.76172 891.26172 z M 207.16406 894.56445 L 207.16406 908.95508 L 194.70117 901.75977 L 207.16406 894.56445 z M 259.80664 894.56445 L 272.26953 901.75977 L 259.80664 908.95703 L 259.80664 894.56445 z M 397.01758 896.43945 L 404.21484 908.9043 L 389.82227 908.9043 L 397.01758 896.43945 z M 89.273438 901.61523 L 96.46875 914.08008 L 82.076172 914.08008 L 89.273438 901.61523 z M 750.54883 903.53125 L 750.54883 917.92383 L 738.08398 910.72656 L 750.54883 903.53125 z M 803.18945 903.53125 L 815.6543 910.72656 L 803.18945 917.92383 L 803.18945 903.53125 z M 606.14062 903.58203 L 620.5332 903.58203 L 613.33594 916.04688 L 606.14062 903.58203 z M 442.80273 908.70703 L 442.80273 923.09961 L 430.33984 915.9043 L 442.80273 908.70703 z M 495.44531 908.70703 L 507.9082 915.9043 L 495.44531 923.09961 L 495.44531 908.70703 z M 298.39453 908.75977 L 312.78711 908.75977 L 305.58984 921.22461 L 298.39453 908.75977 z M 135.05859 913.88477 L 135.05859 928.27734 L 122.59375 921.08203 L 135.05859 913.88477 z M 187.69922 913.88477 L 200.16406 921.08203 L 187.69922 928.27734 L 187.69922 913.88477 z M 841.7793 917.72656 L 856.17188 917.72656 L 848.97461 930.19141 L 841.7793 917.72656 z M 534.0332 922.9043 L 548.42578 922.9043 L 541.23047 935.36719 L 534.0332 922.9043 z M 226.28906 928.08008 L 240.68164 928.08008 L 233.48438 940.54492 L 226.28906 928.08008 z "
     style="color:#000000;font-style:normal;font-variant:normal;font-weight:normal;font-stretch:normal;font-size:medium;line-height:normal;font-family:sans-serif;font-variant-ligatures:normal;font-variant-position:normal;font-variant-caps:normal;font-variant-numeric:normal;font-variant-alternates:normal;font-variant-east-asian:normal;font-feature-settings:normal;font-variation-settings:normal;text-indent:0;text-align:start;text-decoration:none;text-decoration-line:none;text-decoration-style:solid;text-decoration-color:#000000;letter-spacing:normal;word-spacing:normal;text-transform:none;writing-mode:lr-tb;direction:ltr;text-orientation:mixed;dominant-baseline:auto;baseline-shift:baseline;text-anchor:start;white-space:normal;shape-padding:0;shape-margin:0;inline-size:0;clip-rule:nonzero;display:inline;overflow:visible;visibility:visible;isolation:auto;mix-blend-mode:normal;color-interpolation:sRGB;color-interpolation-filters:linearRGB;solid-color:#000000;solid-opacity:1;vector-effect:none;fill:#000000;fill-opacity:0.8;fill-rule:nonzero;stroke:none;stroke-width:14;stroke-linecap:butt;stroke-linejoin:miter;stroke-miterlimit:4;stroke-dasharray:none;stroke-dashoffset:0;stroke-opacity:1;filter-blend-mode:normal;filter-gaussianBlur-deviation:0;color-rendering:auto;image-rendering:auto;shape-rendering:auto;text-rendering:auto;enable-background:accumulate;stop-color:#000000;stop-opacity:1;opacity:1" />
</svg>
