<?xml version="1.0" encoding="UTF-8" standalone="no"?>
<svg
   xmlns:dc="http://purl.org/dc/elements/1.1/"
   xmlns:cc="http://creativecommons.org/ns#"
   xmlns:rdf="http://www.w3.org/1999/02/22-rdf-syntax-ns#"
   xmlns:svg="http://www.w3.org/2000/svg"
   xmlns="http://www.w3.org/2000/svg"
   xmlns:sodipodi="http://sodipodi.sourceforge.net/DTD/sodipodi-0.dtd"
   xmlns:inkscape="http://www.inkscape.org/namespaces/inkscape"
   inkscape:version="1.0beta1 (32d4812, 2019-09-19)"
   sodipodi:docname="2-uniform_n9.svg"
   id="c:\kuniform\2u\2-uniform_9.svg"
   height="994.11304"
   width="1000.0"
   version="1.0">
  <metadata
     id="metadata84464">
    <rdf:RDF>
      <cc:Work
         rdf:about="">
        <dc:format>image/svg+xml</dc:format>
        <dc:type
           rdf:resource="http://purl.org/dc/dcmitype/StillImage" />
        <dc:title></dc:title>
      </cc:Work>
    </rdf:RDF>
  </metadata>
  <defs
     id="defs84462" />
  <sodipodi:namedview
     inkscape:current-layer="c:\kuniform\2u\2-uniform_9.svg"
     inkscape:window-maximized="1"
     inkscape:window-y="23"
     inkscape:window-x="0"
     inkscape:cy="492.18767"
     inkscape:cx="281.98395"
     inkscape:zoom="0.68751065"
     showgrid="false"
     id="namedview84460"
     inkscape:window-height="1005"
     inkscape:window-width="1680"
     inkscape:pageshadow="2"
     inkscape:pageopacity="0"
     guidetolerance="10"
     gridtolerance="10"
     objecttolerance="10"
     borderopacity="1"
     inkscape:document-rotation="0"
     bordercolor="#666666"
     pagecolor="#ffffff" />
  <!-- X Coordinate transform: fx(x)=(x+65.49719)*0.8700981-->
  <!-- Y Coordinate transform: fy(y)=(1083.7649-y)*0.8700981 -->
  <path
     d="m 919.697,123.779 -21.753,37.676 h -43.505 l -21.752,-37.676 21.752,-37.676 h 43.505 z M 42.627,86.103 h 43.505 l 21.752,37.676 -21.752,37.676 H 42.627 L 20.874,123.779 Z m 162.362,0 h 43.505 l 21.753,37.676 -21.753,37.676 h -43.505 l -21.752,-37.676 z m 530.593,0 21.752,37.676 -21.752,37.676 h -43.505 l -21.753,-37.676 21.753,-37.676 z m -633.526,740.726 21.752,-37.676 h 43.505 l 21.752,37.676 -21.752,37.677 H 123.808 Z M 42.627,723.896 20.874,686.219 42.627,648.543 h 43.505 l 21.752,37.676 -21.752,37.677 z m 449.411,-215.963 21.752,37.676 -21.752,37.676 h -43.505 l -21.752,-37.676 21.752,-37.676 z M 42.627,367.323 h 43.505 l 21.752,37.676 -21.752,37.676 H 42.627 L 20.874,404.999 Z m 81.181,-140.61 h 43.505 l 21.752,37.676 -21.752,37.676 h -43.505 l -21.752,-37.676 z m 692.955,637.793 h -43.505 l -21.752,-37.677 21.752,-37.676 h 43.505 l 21.753,37.676 z m 81.181,-140.61 h -43.505 l -21.752,-37.677 21.752,-37.676 h 43.505 l 21.753,37.676 z m 21.753,-318.897 -21.753,37.676 h -43.505 l -21.752,-37.676 21.752,-37.676 h 43.505 z m -81.181,-140.61 -21.753,37.676 h -43.505 l -21.752,-37.676 21.752,-37.676 h 43.505 z M 410.857,86.103 l 21.752,37.676 -21.752,37.676 h -43.505 l -21.753,-37.676 21.753,-37.676 z m 162.362,0 21.753,37.676 -21.753,37.676 h -43.505 l -21.752,-37.676 21.752,-37.676 z m -287.048,778.403 -21.753,-37.677 21.753,-37.676 h 43.505 l 21.752,37.676 -21.752,37.677 z m -97.106,-318.897 -21.752,37.676 h -43.505 l -21.752,-37.676 21.752,-37.676 h 43.505 z m 421.831,243.544 h 43.505 l 21.752,37.676 -21.752,37.677 h -43.505 l -21.753,-37.677 z m 162.362,-205.868 -21.752,-37.676 21.752,-37.676 h 43.505 l 21.753,37.676 -21.753,37.676 z m -487.087,-281.22 -21.753,-37.676 21.753,-37.676 h 43.505 l 21.752,37.676 -21.752,37.676 z m 324.725,-75.352 h 43.505 l 21.752,37.676 -21.752,37.676 H 610.896 L 589.143,264.389 Z M 248.494,723.896 h -43.505 l -21.752,-37.677 21.752,-37.676 h 43.505 l 21.753,37.676 z m 265.296,102.933 -21.752,37.677 h -43.505 l -21.752,-37.677 21.752,-37.676 h 43.505 z m -330.553,-421.83 21.752,-37.676 h 43.505 l 21.753,37.676 -21.753,37.676 h -43.505 z m 574.097,281.22 -21.752,37.677 h -43.505 l -21.753,-37.677 21.753,-37.676 h 43.505 z m 0,-281.22 -21.752,37.676 h -43.505 l -21.753,-37.676 21.753,-37.676 h 43.505 z M 448.533,302.065 426.781,264.389 448.533,226.713 h 43.505 l 21.752,37.676 -21.752,37.676 z m -37.676,346.478 21.752,37.676 -21.752,37.677 h -43.505 l -21.753,-37.677 21.753,-37.676 z m -59.429,-102.934 -21.752,37.676 h -43.505 l -21.753,-37.676 21.753,-37.676 h 43.505 z m 178.286,102.934 h 43.505 l 21.753,37.676 -21.753,37.677 H 529.714 L 507.962,686.219 Z M 410.857,442.675 h -43.505 l -21.753,-37.676 21.753,-37.676 h 43.505 l 21.752,37.676 z m 178.286,102.934 21.753,-37.676 h 43.505 l 21.752,37.676 -21.752,37.676 h -43.505 z m -59.429,-102.934 -21.752,-37.676 21.752,-37.676 h 43.505 l 21.753,37.676 -21.753,37.676 z M 957.373,945.687 935.621,908.01 h 43.505 z m 0,-800.156 21.753,37.677 H 935.621 Z M 123.808,64.35 h 43.505 l -21.752,37.676 z M 42.627,886.258 64.379,848.582 86.132,886.258 Z M 816.763,64.35 795.011,102.026 773.258,64.35 Z M 204.989,42.598 226.742,4.921 248.494,42.598 Z m 530.593,0 H 692.077 L 713.829,4.921 Z M 42.627,204.96 h 43.505 l -21.753,37.677 z m 81.181,703.05 h 43.505 l -21.752,37.677 z m 774.136,-21.752 h -43.505 l 21.753,-37.676 z m 37.677,-140.61 21.752,-37.676 21.753,37.676 z M 897.944,42.598 H 854.439 L 876.192,4.921 Z m 59.429,340.649 -21.752,-37.677 h 43.505 z M 897.944,204.96 876.192,242.637 854.439,204.96 Z M 410.857,42.598 H 367.352 L 389.104,4.921 Z m 162.362,0 H 529.714 L 551.467,4.921 Z m -427.658,102.933 21.752,37.677 H 123.808 Z M 42.627,767.4 H 86.132 L 64.379,805.077 Z M 795.011,945.687 773.258,908.01 h 43.505 z M 957.373,664.467 935.621,626.79 h 43.505 z m 0,-562.441 -21.752,-37.676 h 43.505 z M 42.627,42.598 64.379,4.921 86.132,42.598 Z m 914.746,384.153 21.753,37.677 H 935.621 Z M 816.763,183.208 h -43.505 l 21.753,-37.677 z M 329.676,64.35 307.923,102.026 286.171,64.35 Z m 324.725,0 -21.753,37.676 L 610.896,64.35 Z M 64.379,286.141 86.132,323.818 H 42.627 Z m 140.61,600.117 21.753,-37.676 21.752,37.676 z M 42.627,605.038 64.379,567.362 86.132,605.038 Z M 876.192,805.077 854.439,767.4 h 43.505 z M 307.923,945.687 286.171,908.01 h 43.505 z m 324.725,0 -21.752,-37.677 h 43.505 z M 897.944,323.818 h -43.505 l 21.753,-37.677 z M 492.038,64.35 470.286,102.026 448.533,64.35 Z M 42.627,486.18 H 86.132 L 64.379,523.857 Z M 204.989,204.96 h 43.505 l -21.752,37.677 z m -81.181,540.688 21.753,-37.676 21.752,37.676 z m 611.774,140.61 h -43.505 l 21.752,-37.676 z m 162.362,-281.22 h -43.505 l 21.753,-37.676 z M 470.286,945.687 448.533,908.01 h 43.505 z M 897.944,486.18 876.192,523.857 854.439,486.18 Z M 735.582,204.96 713.829,242.637 692.077,204.96 Z m -427.659,-59.429 21.753,37.677 h -43.505 z m 324.725,0 21.753,37.677 H 610.896 Z M 123.808,345.57 h 43.505 l -21.752,37.677 z m 81.181,421.83 h 43.505 l -21.752,37.677 z M 123.808,626.79 h 43.505 l -21.752,37.677 z m 692.955,118.858 h -43.505 l 21.753,-37.676 z m -449.411,140.61 21.752,-37.676 21.753,37.676 z m 162.362,0 21.753,-37.676 21.752,37.676 z M 816.763,345.57 795.011,383.247 773.258,345.57 Z M 470.286,145.531 492.038,183.208 H 448.533 Z M 167.313,464.428 h -43.505 l 21.753,-37.677 z m 81.181,-140.61 h -43.505 l 21.753,-37.677 z M 692.077,767.4 h 43.505 l -21.753,37.677 z m 81.181,-140.61 h 43.505 l -21.752,37.677 z m 0,-162.362 21.753,-37.677 21.752,37.677 z m -37.676,-140.61 h -43.505 l 21.752,-37.677 z M 389.104,242.637 367.352,204.96 h 43.505 z m 162.363,0 -21.753,-37.677 h 43.505 z M 329.676,745.648 h -43.505 l 21.752,-37.676 z m -124.687,-140.61 21.753,-37.676 21.752,37.676 z M 389.104,805.077 367.352,767.4 h 43.505 z m 162.363,0 -21.753,-37.677 h 43.505 z M 248.494,486.18 226.742,523.857 204.989,486.18 Z M 307.923,383.247 286.171,345.57 h 43.505 z m 324.725,324.725 21.753,37.676 h -43.505 z m 59.429,-102.934 21.752,-37.676 21.753,37.676 z m 0,-118.858 h 43.505 l -21.753,37.677 z M 632.648,383.247 610.896,345.57 h 43.505 z M 410.857,323.818 h -43.505 l 21.752,-37.677 z m 118.857,0 21.753,-37.677 21.752,37.677 z M 329.676,626.79 307.923,664.467 286.171,626.79 Z m 140.61,81.182 21.752,37.676 H 448.533 Z M 329.676,464.428 h -43.505 l 21.752,-37.677 z m 281.22,162.362 h 43.505 l -21.753,37.677 z m 0,-162.362 21.752,-37.677 21.753,37.677 z M 470.286,383.247 448.533,345.57 h 43.505 z m -81.182,184.115 21.753,37.676 H 367.352 Z M 492.038,626.79 470.286,664.467 448.533,626.79 Z M 410.857,486.18 389.104,523.857 367.352,486.18 Z m 140.61,81.182 21.752,37.676 H 529.714 Z M 529.714,486.18 h 43.505 l -21.752,37.677 z m -37.676,-21.752 h -43.505 l 21.753,-37.677 z M 957.373,102.026 v 43.505 L 919.697,123.779 Z M 86.132,42.598 123.808,64.35 86.132,86.103 Z m 768.307,0 -37.676,21.752 V 20.845 Z m 0,0 V 86.103 L 816.763,64.35 Z m -649.45,0 -37.676,21.752 V 20.845 Z M 773.258,64.35 735.582,42.598 773.258,20.845 Z M 42.627,161.455 V 204.96 L 4.95,183.208 Z m 43.505,768.308 v -43.505 l 37.676,21.752 z m 21.752,37.676 37.677,-21.752 v 43.505 z m 37.677,21.753 v -43.505 l 37.676,21.752 z m 811.812,-43.505 v 43.505 l -37.676,-21.753 z m -21.752,-37.677 -37.677,-21.752 37.677,-21.752 z m 0,0 -37.677,21.753 V 886.258 Z M 42.627,929.763 4.95,908.01 42.627,886.258 Z M 935.621,183.208 897.944,204.96 v -43.505 z m 0,0 v 43.505 L 897.944,204.96 Z M 204.989,42.598 V 86.103 L 167.313,64.35 Z M 773.258,64.35 735.582,86.103 V 42.598 Z m -665.374,59.429 37.677,-21.753 v 43.505 z m -21.752,37.676 37.676,21.753 -37.676,21.752 z m 59.429,-59.429 37.676,21.753 -37.676,21.752 z M 26.703,826.829 64.379,805.077 v 43.505 z m 37.676,21.753 v -43.505 l 37.677,21.752 z m 21.753,37.676 37.676,-21.752 v 43.504 z m 0,-843.66 37.676,-21.753 V 64.35 Z M 42.627,767.4 4.95,745.648 42.627,723.896 Z m 790.06,200.039 -37.676,21.753 v -43.505 z m 21.752,-37.676 -37.676,-21.753 37.676,-21.752 z m -59.428,59.429 -37.677,-21.753 37.677,-21.752 z m 162.362,-281.22 37.676,-21.753 -37.676,-21.752 z m 0,-324.725 37.676,21.752 -37.676,21.752 z M 854.439,161.455 v 43.505 l -37.676,-21.752 z m -21.752,-37.676 -37.676,21.752 v -43.505 z m -37.676,-21.753 v 43.505 L 757.334,123.779 Z M 367.352,42.598 329.676,64.35 V 20.845 Z m -118.858,0 37.677,-21.753 V 64.35 Z m 0,0 37.677,21.752 -37.677,21.753 z m 443.583,0 -37.676,21.752 V 20.845 Z m -118.858,0 37.677,-21.753 V 64.35 Z m 118.858,0 V 86.103 L 654.401,64.35 Z M 26.703,264.389 64.379,242.637 v 43.504 z m 15.924,59.429 v 43.505 L 4.95,345.57 Z M 935.621,64.35 897.944,86.103 V 42.598 Z m 0,0 -37.677,-21.752 37.677,-21.753 z M 86.132,204.96 123.808,183.208 v 43.505 z m -21.753,37.677 37.677,21.752 -37.677,21.752 z m 102.934,665.373 37.676,-21.752 v 43.505 z m 0,0 v -43.504 l 37.676,21.752 z M 42.627,648.543 4.95,626.79 42.627,605.038 Z m 871.241,178.286 -37.676,21.753 v -43.505 z m 21.753,-37.676 -37.677,-21.753 37.677,-21.752 z m -81.182,97.105 -37.676,21.752 v -43.504 z m 21.753,-37.676 -37.676,-21.753 37.676,-21.752 z M 935.621,745.648 897.944,767.4 v -43.504 z m 21.752,-37.676 -37.676,-21.753 37.676,-21.752 z m -649.45,281.22 37.676,-21.753 -37.676,-21.752 z m 0,0 -37.676,-21.753 37.676,-21.752 z m -59.429,-59.429 v -43.505 l 37.677,21.752 z m 708.879,-827.737 37.676,21.753 -37.676,21.752 z m -324.725,887.166 37.676,-21.753 -37.676,-21.752 z m 0,0 -37.676,-21.753 37.676,-21.752 z M 935.621,302.065 v 43.505 l -37.677,-21.752 z m -21.753,-37.676 -37.676,21.752 v -43.504 z m 43.505,118.858 v 43.504 L 919.697,404.999 Z M 935.621,345.57 897.944,367.323 V 323.818 Z M 42.627,42.598 V 86.103 L 4.95,64.35 Z m 833.565,200.039 v 43.504 L 838.516,264.389 Z M 854.439,204.96 816.763,226.713 V 183.208 Z M 529.714,42.598 492.038,64.35 V 20.845 Z m -118.857,0 37.676,-21.753 V 64.35 Z m 0,0 37.676,21.752 -37.676,21.753 z m -43.505,0 V 86.103 L 329.676,64.35 Z m 205.867,0 37.677,21.752 -37.677,21.753 z m -43.505,0 V 86.103 L 492.038,64.35 Z M 42.627,442.675 V 486.18 L 4.95,464.428 Z M 26.703,545.609 64.379,523.857 v 43.505 z m 140.61,-362.401 37.676,21.752 -37.676,21.753 z m 0,0 37.676,-21.753 V 204.96 Z M 86.132,767.4 123.808,745.648 v 43.505 z m 0,0 v -43.504 l 37.676,21.752 z m 687.126,140.61 -37.676,-21.752 37.676,-21.752 z m 0,0 -37.676,21.753 v -43.505 z m -81.181,21.753 -37.676,-21.753 37.676,-21.752 z M 935.621,626.79 897.944,605.038 935.621,583.285 Z m 0,0 -37.677,21.753 v -43.505 z m -465.335,362.402 37.676,-21.753 -37.676,-21.752 z m 0,0 -37.677,-21.753 37.677,-21.752 z M 248.494,886.258 286.171,864.506 v 43.504 z m 687.127,-421.83 -37.677,21.752 v -43.505 z m 0,0 v 43.505 L 897.944,486.18 Z m -21.753,81.181 -37.676,21.753 V 523.857 Z M 773.258,183.208 735.582,204.96 v -43.505 z m 0,0 v 43.505 L 735.582,204.96 Z M 307.923,102.026 v 43.505 l -37.676,-21.752 z m 0,0 37.676,21.753 -37.676,21.752 z m -59.429,59.429 37.677,21.753 -37.677,21.752 z m 384.154,-59.429 v 43.505 l -37.676,-21.752 z m 0,0 37.676,21.753 -37.676,21.752 z m 59.429,59.429 V 204.96 L 654.401,183.208 Z M 86.132,323.818 123.808,345.57 86.132,367.323 Z m 0,0 37.676,-21.753 v 43.505 z m -21.753,200.039 37.677,21.752 -37.677,21.753 z m 102.934,265.296 v -43.505 l 37.676,21.752 z m 21.752,37.676 37.677,-21.752 v 43.505 z m 37.677,21.753 v -43.505 l 37.676,21.752 z M 86.132,648.543 v -43.505 l 37.676,21.752 z m 21.752,37.676 37.677,-21.752 v 43.505 z M 86.132,605.038 123.808,583.285 V 626.79 Z M 854.439,767.4 816.763,745.648 854.439,723.896 Z m 0,0 -37.676,21.753 v -43.505 z m -200.038,140.61 37.676,-21.752 -37.676,-21.752 z m -287.049,21.753 -37.676,-21.753 37.676,-21.752 z m 43.505,0 37.676,-21.753 -37.676,-21.752 z m -81.181,-21.753 37.676,-21.752 -37.676,-21.752 z m 200.038,21.753 -37.676,-21.753 37.676,-21.752 z m 43.505,0 37.677,-21.753 -37.677,-21.752 z m 37.677,-21.753 -37.677,-21.752 37.677,-21.752 z M 854.439,323.818 816.763,345.57 v -43.505 z m 0,0 v 43.505 L 816.763,345.57 Z m 21.753,243.544 -37.676,-21.753 37.676,-21.752 z M 470.286,102.026 v 43.505 l -37.677,-21.752 z m 0,0 37.676,21.753 -37.676,21.752 z m -184.115,81.182 v 43.505 L 248.494,204.96 Z m 405.906,21.752 -37.676,21.753 v -43.505 z m -584.193,200.039 37.677,-21.752 v 43.504 z m -21.752,37.676 37.676,21.753 -37.676,21.752 z m 0,43.505 37.676,-21.752 v 43.505 z m 102.933,-221.791 37.677,-21.752 v 43.504 z m -21.752,37.676 37.676,21.753 -37.676,21.752 z m 59.429,-59.428 37.676,21.752 -37.676,21.752 z m -81.181,465.335 v -43.505 l 37.676,21.752 z m 21.752,37.676 37.676,-21.752 V 767.4 Z m 584.193,81.181 -37.677,21.753 v -43.505 z m 21.752,-37.676 -37.676,-21.753 37.676,-21.752 z m -59.429,59.429 -37.676,-21.753 37.676,-21.752 z m 118.858,-162.363 -37.676,21.753 v -43.505 z m 21.752,-37.676 -37.676,-21.753 37.676,-21.752 z m 0,-43.505 -37.676,21.752 V 583.285 Z M 448.533,908.01 410.857,886.258 448.533,864.506 Z m 43.505,0 37.676,-21.752 -37.676,-21.752 z M 854.439,442.675 v 43.505 l -37.676,-21.752 z m -21.752,-37.676 -37.676,21.752 v -43.504 z m 21.752,81.181 -37.676,21.753 V 464.428 Z M 773.258,302.065 v 43.505 l -37.676,-21.752 z m -21.752,-37.676 -37.677,21.752 v -43.504 z m -37.677,-21.752 v 43.504 l -37.676,-21.752 z m -302.972,-81.182 37.676,21.753 -37.676,21.752 z m -43.505,0 v 43.505 l -37.676,-21.752 z m -37.676,21.753 37.676,21.752 -37.676,21.753 z m 243.543,-21.753 37.677,21.753 -37.677,21.752 z m -43.505,0 v 43.505 l -37.676,-21.752 z m 81.182,65.258 -37.677,-21.753 37.677,-21.752 z m -405.907,140.61 -37.676,-21.753 37.676,-21.752 z m -21.752,37.676 -37.676,21.752 v -43.504 z m 102.934,340.649 v 43.505 L 248.494,767.4 Z m 0,0 -37.677,21.752 v -43.504 z m -81.182,-140.61 v 43.505 L 167.313,626.79 Z m 0,0 -37.676,21.752 v -43.505 z m 530.593,118.858 37.676,21.752 -37.676,21.752 z m 21.752,-37.677 37.677,-21.752 v 43.505 z m -368.23,118.858 37.677,21.752 -37.677,21.753 z m 0,0 v 43.505 l -37.676,-21.753 z m -59.428,-59.429 37.676,21.752 -37.676,21.753 z m 221.791,59.429 37.676,21.752 -37.676,21.753 z m -37.677,21.752 37.677,-21.752 v 43.505 z m 243.544,-421.83 37.677,-21.752 v 43.504 z M 735.582,367.323 773.258,345.57 735.582,323.818 Z M 492.038,226.713 529.714,204.96 492.038,183.208 Z m -43.505,0 -37.676,-21.753 37.676,-21.752 z m -281.22,281.22 v -43.505 l 37.676,21.752 z m 0,-43.505 37.676,-21.753 v 43.505 z m 21.752,81.181 37.677,-21.752 v 43.505 z m 59.429,-221.791 37.677,21.752 -37.677,21.753 z m 37.677,-21.753 V 345.57 L 248.494,323.818 Z M 692.077,767.4 654.401,745.648 692.077,723.896 Z m -37.676,21.753 37.676,-21.753 -37.676,-21.752 z m -43.505,0 -37.677,-21.753 37.677,-21.752 z M 773.258,583.285 v 43.505 l -37.676,-21.752 z m 0,43.505 -37.676,21.753 V 605.038 Z M 329.676,745.648 367.352,723.896 V 767.4 Z m 443.582,-281.22 -37.676,21.752 v -43.505 z m 0,0 v 43.505 L 735.582,486.18 Z m -59.429,59.429 37.677,21.752 -37.677,21.753 z M 654.401,345.57 692.077,323.818 654.401,302.065 Z m 0,0 37.676,-21.752 v 43.505 z m -265.297,-59.429 -37.676,-21.752 37.676,-21.752 z m 0,0 v -43.504 l 37.677,21.752 z m -59.428,59.429 37.676,-21.752 -37.676,-21.753 z m 221.791,-59.429 -37.677,-21.752 37.677,-21.752 z m 0,0 v -43.504 l 37.676,21.752 z m 21.752,37.677 37.677,-21.753 v 43.505 z m -308.801,221.791 -37.676,21.753 v -43.505 z m 21.753,81.181 -37.677,21.753 v -43.505 z m 21.752,37.677 v 43.505 l -37.676,-21.753 z m 37.676,21.752 -37.676,21.753 V 664.467 Z M 286.171,583.285 v 43.505 l -37.677,-21.752 z m 287.048,140.611 37.677,21.752 -37.677,21.752 z m -124.686,21.752 v 43.505 L 410.857,767.4 Z m 43.505,0 37.676,21.752 -37.676,21.753 z m -81.181,-21.752 37.676,21.752 -37.676,21.752 z m 118.857,0 V 767.4 l -37.676,-21.752 z m 146.439,-178.287 37.676,-21.752 v 43.505 z M 367.352,367.323 329.676,345.57 367.352,323.818 Z m 205.867,0 37.677,-21.753 -37.677,-21.752 z m -265.296,59.428 -37.676,-21.752 37.676,-21.752 z m -21.752,37.677 -37.677,21.752 v -43.505 z m 0,43.505 -37.677,-21.753 37.677,-21.752 z m 59.428,-102.934 -37.676,21.752 v -43.504 z m 287.049,259.468 37.676,21.752 -37.676,21.753 z m 21.753,-37.677 37.676,-21.752 v 43.505 z m -59.429,59.429 37.676,-21.752 v 43.505 z m 59.429,-102.934 37.676,21.753 -37.676,21.752 z m 0,-118.857 37.676,-21.753 v 43.505 z m -21.753,-37.677 v -43.504 l 37.676,21.752 z m 21.753,81.182 37.676,-21.753 -37.676,-21.752 z m -59.429,-102.934 37.676,-21.752 v 43.504 z M 492.038,345.57 529.714,323.818 492.038,302.065 Z m -43.505,0 -37.676,-21.752 37.676,-21.753 z m -37.676,21.753 37.676,-21.753 -37.676,-21.752 z m 118.857,0 -37.676,-21.753 37.676,-21.752 z M 367.352,605.038 v 43.505 L 329.676,626.79 Z m 0,0 -37.676,21.752 v -43.505 z m 102.934,59.429 37.676,21.752 -37.676,21.753 z m 0,0 v 43.505 l -37.677,-21.753 z m -21.753,-37.677 -37.676,21.753 v -43.505 z m -81.181,-140.61 -37.676,21.753 v -43.505 z m 0,0 -37.676,-21.752 37.676,-21.753 z m 21.752,81.182 -37.676,-21.753 37.676,-21.752 z m 184.115,37.676 37.677,-21.753 v 43.505 z m 0,0 37.677,21.752 -37.677,21.753 z m -43.505,0 v 43.505 L 492.038,626.79 Z m -81.181,-21.753 v 43.505 l -37.676,-21.752 z m 124.686,-97.105 37.677,-21.752 -37.677,-21.753 z m 0,0 37.677,-21.752 v 43.505 z m -102.933,-59.429 -37.677,-21.752 37.677,-21.752 z m 0,0 v -43.504 l 37.676,21.752 z m -59.429,59.429 37.676,-21.752 -37.676,-21.753 z m 15.924,59.429 -37.677,21.753 v -43.505 z m 124.686,-21.752 37.676,21.752 -37.676,21.753 z m -59.429,59.428 37.676,21.753 -37.676,21.752 z m 0,-118.857 37.676,-21.753 v 43.505 z m -43.505,43.505 -37.676,-21.753 37.676,-21.752 z m 65.257,37.676 37.677,-21.752 v 43.505 z m -21.752,-37.676 37.676,-21.753 -37.676,-21.752 z"
     style="opacity:1;fill:none;stroke:#000000;stroke-width:16;stop-opacity:1;stroke-miterlimit:4;stroke-dasharray:none;stroke-linejoin:round"
     id="path84455" />
</svg>
