<?xml version="1.0" encoding="UTF-8" standalone="no"?>
<svg
   xmlns:dc="http://purl.org/dc/elements/1.1/"
   xmlns:cc="http://creativecommons.org/ns#"
   xmlns:rdf="http://www.w3.org/1999/02/22-rdf-syntax-ns#"
   xmlns:svg="http://www.w3.org/2000/svg"
   xmlns="http://www.w3.org/2000/svg"
   xmlns:sodipodi="http://sodipodi.sourceforge.net/DTD/sodipodi-0.dtd"
   xmlns:inkscape="http://www.inkscape.org/namespaces/inkscape"
   version="1.0"
   width="1000.0"
   height="994.11304"
   id="c:\kuniform\2u\2-uniform_9.svg"
   sodipodi:docname="2-uniform_n9.svg"
   inkscape:version="1.0 (9f2f71dc58, 2020-08-02)">
  <style
     id="style2" />
  <metadata
     id="metadata84464">
    <rdf:RDF>
      <cc:Work
         rdf:about="">
        <dc:format>image/svg+xml</dc:format>
        <dc:type
           rdf:resource="http://purl.org/dc/dcmitype/StillImage" />
        <dc:title></dc:title>
      </cc:Work>
    </rdf:RDF>
  </metadata>
  <defs
     id="defs84462" />
  <sodipodi:namedview
     pagecolor="#ffffff"
     bordercolor="#666666"
     inkscape:document-rotation="0"
     borderopacity="1"
     objecttolerance="10"
     gridtolerance="10"
     guidetolerance="10"
     inkscape:pageopacity="0"
     inkscape:pageshadow="2"
     inkscape:window-width="1920"
     inkscape:window-height="1043"
     id="namedview84460"
     showgrid="false"
     inkscape:zoom="0.5927275"
     inkscape:cx="239.18116"
     inkscape:cy="386.94538"
     inkscape:window-x="0"
     inkscape:window-y="0"
     inkscape:window-maximized="1"
     inkscape:current-layer="c:\kuniform\2u\2-uniform_9.svg" />
  <!-- X Coordinate transform: fx(x)=(x+65.49719)*0.8700981-->
  <!-- Y Coordinate transform: fy(y)=(1083.7649-y)*0.8700981 -->
  <path
     style="color:#000000;font-style:normal;font-variant:normal;font-weight:normal;font-stretch:normal;font-size:medium;line-height:normal;font-family:sans-serif;font-variant-ligatures:normal;font-variant-position:normal;font-variant-caps:normal;font-variant-numeric:normal;font-variant-alternates:normal;font-variant-east-asian:normal;font-feature-settings:normal;font-variation-settings:normal;text-indent:0;text-align:start;text-decoration:none;text-decoration-line:none;text-decoration-style:solid;text-decoration-color:#000000;letter-spacing:normal;word-spacing:normal;text-transform:none;writing-mode:lr-tb;direction:ltr;text-orientation:mixed;dominant-baseline:auto;baseline-shift:baseline;text-anchor:start;white-space:normal;shape-padding:0;shape-margin:0;inline-size:0;clip-rule:nonzero;display:inline;overflow:visible;visibility:visible;isolation:auto;mix-blend-mode:normal;color-interpolation:sRGB;color-interpolation-filters:linearRGB;solid-color:#000000;solid-opacity:1;vector-effect:none;fill:#000000;fill-opacity:1;fill-rule:nonzero;stroke:none;stroke-width:16;stroke-linecap:butt;stroke-linejoin:round;stroke-miterlimit:4;stroke-dasharray:none;stroke-dashoffset:0;stroke-opacity:1;color-rendering:auto;image-rendering:auto;shape-rendering:auto;text-rendering:auto;enable-background:accumulate;stop-color:#000000;stop-opacity:1;opacity:1"
     d="M 64.431641 -3.078125 A 8.0008 8.0008 0 0 0 57.451172 0.921875 L 36.771484 36.742188 L 0.94921875 57.421875 A 8.0008 8.0008 0 0 0 0.94921875 71.277344 L 31.699219 89.03125 L 13.945312 119.7793 A 8.0008 8.0008 0 0 0 13.945312 127.7793 L 31.699219 158.52734 L 0.94921875 176.2793 A 8.0008 8.0008 0 0 0 0.94921875 190.13672 L 36.773438 210.81836 L 53.451172 239.70898 L 22.703125 257.46094 A 8.0008 8.0008 0 0 0 22.703125 271.31641 L 53.451172 289.06836 L 36.771484 317.96289 L 0.94921875 338.64258 A 8.0008 8.0008 0 0 0 0.94921875 352.49805 L 31.699219 370.25195 L 13.945312 400.99805 A 8.0008 8.0008 0 0 0 13.945312 409 L 31.699219 439.74609 L 0.94921875 457.5 A 8.0008 8.0008 0 0 0 0.94921875 471.35547 L 36.771484 492.03516 L 53.451172 520.92969 L 22.703125 538.68164 A 8.0008 8.0008 0 0 0 22.703125 552.53711 L 53.451172 570.29102 L 36.771484 599.18164 L 0.94921875 619.86133 A 8.0008 8.0008 0 0 0 0.94921875 633.71875 L 31.699219 651.4707 L 13.945312 682.21875 A 8.0008 8.0008 0 0 0 13.945312 690.21875 L 31.699219 720.9668 L 0.94921875 738.7207 A 8.0008 8.0008 0 0 0 0.94921875 752.57617 L 36.771484 773.25586 L 53.451172 802.14844 L 22.703125 819.90039 A 8.0008 8.0008 0 0 0 22.703125 833.75781 L 53.451172 851.50977 L 36.771484 880.40234 L 0.94921875 901.08203 A 8.0008 8.0008 0 0 0 0.94921875 914.9375 L 38.626953 936.69141 A 8.0008 8.0008 0 0 0 50.626953 929.76367 L 50.626953 894.25781 L 78.132812 894.25781 L 78.132812 929.76367 A 8.0008 8.0008 0 0 0 90.132812 936.69141 L 120.87891 918.9375 L 134.63281 942.75781 L 103.88477 960.50977 A 8.0008 8.0008 0 0 0 103.88477 974.36719 L 141.51562 996.09375 L 141.56055 996.12109 A 8.0008 8.0008 0 0 0 141.69141 996.19336 A 8.0008 8.0008 0 0 0 141.74219 996.2207 A 8.0008 8.0008 0 0 0 141.83984 996.27344 A 8.0008 8.0008 0 0 0 141.96094 996.33594 A 8.0008 8.0008 0 0 0 141.98047 996.3457 A 8.0008 8.0008 0 0 0 142.14648 996.42578 A 8.0008 8.0008 0 0 0 142.2793 996.48633 A 8.0008 8.0008 0 0 0 142.41211 996.54492 A 8.0008 8.0008 0 0 0 142.58789 996.61914 A 8.0008 8.0008 0 0 0 142.80469 996.70117 A 8.0008 8.0008 0 0 0 143.0293 996.7793 A 8.0008 8.0008 0 0 0 143.25586 996.85156 A 8.0008 8.0008 0 0 0 143.4082 996.89648 A 8.0008 8.0008 0 0 0 143.50195 996.92188 A 8.0008 8.0008 0 0 0 143.53516 996.93164 A 8.0008 8.0008 0 0 0 143.71484 996.97461 A 8.0008 8.0008 0 0 0 143.89453 997.01562 A 8.0008 8.0008 0 0 0 144.00195 997.03711 A 8.0008 8.0008 0 0 0 144.23242 997.08008 A 8.0008 8.0008 0 0 0 144.42969 997.11133 A 8.0008 8.0008 0 0 0 144.64258 997.13672 A 8.0008 8.0008 0 0 0 144.65234 997.13867 A 8.0008 8.0008 0 0 0 144.70312 997.14453 A 8.0008 8.0008 0 0 0 144.88867 997.16211 A 8.0008 8.0008 0 0 0 145.06445 997.17578 A 8.0008 8.0008 0 0 0 145.12695 997.17969 A 8.0008 8.0008 0 0 0 145.17773 997.18164 A 8.0008 8.0008 0 0 0 145.41602 997.18945 A 8.0008 8.0008 0 0 0 145.6543 997.19141 A 8.0008 8.0008 0 0 0 145.70703 997.18945 A 8.0008 8.0008 0 0 0 145.89062 997.18359 A 8.0008 8.0008 0 0 0 146.00195 997.17773 A 8.0008 8.0008 0 0 0 146.07617 997.17383 A 8.0008 8.0008 0 0 0 146.24219 997.16211 A 8.0008 8.0008 0 0 0 146.36523 997.15039 A 8.0008 8.0008 0 0 0 146.60156 997.12305 A 8.0008 8.0008 0 0 0 146.83789 997.08789 A 8.0008 8.0008 0 0 0 147.02148 997.05664 A 8.0008 8.0008 0 0 0 147.07227 997.04688 A 8.0008 8.0008 0 0 0 147.25391 997.00977 A 8.0008 8.0008 0 0 0 147.30469 996.99805 A 8.0008 8.0008 0 0 0 147.53516 996.94336 A 8.0008 8.0008 0 0 0 147.76562 996.88086 A 8.0008 8.0008 0 0 0 147.94336 996.82812 A 8.0008 8.0008 0 0 0 147.99219 996.8125 A 8.0008 8.0008 0 0 0 148.16992 996.75391 A 8.0008 8.0008 0 0 0 148.21875 996.73633 A 8.0008 8.0008 0 0 0 148.44141 996.6543 A 8.0008 8.0008 0 0 0 148.61523 996.58594 A 8.0008 8.0008 0 0 0 148.66211 996.56641 A 8.0008 8.0008 0 0 0 148.83203 996.49219 A 8.0008 8.0008 0 0 0 148.88086 996.4707 A 8.0008 8.0008 0 0 0 149.04883 996.39258 A 8.0008 8.0008 0 0 0 149.0957 996.36914 A 8.0008 8.0008 0 0 0 149.11133 996.36133 A 8.0008 8.0008 0 0 0 149.30664 996.25977 A 8.0008 8.0008 0 0 0 149.56055 996.12109 L 187.23633 974.36719 A 8.0008 8.0008 0 0 0 187.23633 960.51172 L 156.49023 942.75977 L 170.24219 918.93945 L 200.98828 936.69141 A 8.0008 8.0008 0 0 0 212.98828 929.76367 L 212.98828 894.25781 L 240.49414 894.25781 L 240.49414 929.76367 A 8.0008 8.0008 0 0 0 252.49414 936.69141 L 283.24219 918.9375 L 296.99414 942.75977 L 266.24609 960.51172 A 8.0008 8.0008 0 0 0 266.24609 974.36719 L 303.87891 996.09375 L 303.92383 996.12109 A 8.0008 8.0008 0 0 0 304.08594 996.21094 A 8.0008 8.0008 0 0 0 304.23438 996.28906 A 8.0008 8.0008 0 0 0 304.31836 996.33398 A 8.0008 8.0008 0 0 0 304.3418 996.3457 A 8.0008 8.0008 0 0 0 304.50977 996.42578 A 8.0008 8.0008 0 0 0 304.66211 996.49609 A 8.0008 8.0008 0 0 0 304.72656 996.52539 A 8.0008 8.0008 0 0 0 304.77344 996.54492 A 8.0008 8.0008 0 0 0 304.96484 996.625 A 8.0008 8.0008 0 0 0 304.99414 996.63672 A 8.0008 8.0008 0 0 0 305.16797 996.70117 A 8.0008 8.0008 0 0 0 305.39258 996.7793 A 8.0008 8.0008 0 0 0 305.61914 996.85156 A 8.0008 8.0008 0 0 0 305.83594 996.91406 A 8.0008 8.0008 0 0 0 305.84766 996.91797 A 8.0008 8.0008 0 0 0 305.84961 996.91797 A 8.0008 8.0008 0 0 0 306.25781 997.01562 A 8.0008 8.0008 0 0 0 306.31055 997.02734 A 8.0008 8.0008 0 0 0 306.36133 997.03711 A 8.0008 8.0008 0 0 0 306.59375 997.08008 A 8.0008 8.0008 0 0 0 306.7793 997.10938 A 8.0008 8.0008 0 0 0 306.78516 997.10938 A 8.0008 8.0008 0 0 0 306.98828 997.13477 A 8.0008 8.0008 0 0 0 307.02734 997.14062 A 8.0008 8.0008 0 0 0 307.06641 997.14453 A 8.0008 8.0008 0 0 0 307.25195 997.16211 A 8.0008 8.0008 0 0 0 307.42578 997.17578 A 8.0008 8.0008 0 0 0 307.54102 997.18164 A 8.0008 8.0008 0 0 0 307.77734 997.18945 A 8.0008 8.0008 0 0 0 308.01562 997.19141 A 8.0008 8.0008 0 0 0 308.06836 997.18945 A 8.0008 8.0008 0 0 0 308.25391 997.18359 A 8.0008 8.0008 0 0 0 308.36719 997.17773 A 8.0008 8.0008 0 0 0 308.43945 997.17383 A 8.0008 8.0008 0 0 0 308.60547 997.16211 A 8.0008 8.0008 0 0 0 308.72852 997.15039 A 8.0008 8.0008 0 0 0 308.96484 997.12305 A 8.0008 8.0008 0 0 0 309.19922 997.08789 A 8.0008 8.0008 0 0 0 309.38281 997.05664 A 8.0008 8.0008 0 0 0 309.43359 997.04688 A 8.0008 8.0008 0 0 0 309.61523 997.00977 A 8.0008 8.0008 0 0 0 309.66602 996.99805 A 8.0008 8.0008 0 0 0 309.89844 996.94336 A 8.0008 8.0008 0 0 0 310.12695 996.88086 A 8.0008 8.0008 0 0 0 310.30469 996.82812 A 8.0008 8.0008 0 0 0 310.35547 996.8125 A 8.0008 8.0008 0 0 0 310.53125 996.75391 A 8.0008 8.0008 0 0 0 310.58008 996.73633 A 8.0008 8.0008 0 0 0 310.80273 996.6543 A 8.0008 8.0008 0 0 0 310.97656 996.58594 A 8.0008 8.0008 0 0 0 311.02344 996.56641 A 8.0008 8.0008 0 0 0 311.19531 996.49219 A 8.0008 8.0008 0 0 0 311.24219 996.4707 A 8.0008 8.0008 0 0 0 311.41016 996.39258 A 8.0008 8.0008 0 0 0 311.45703 996.36914 A 8.0008 8.0008 0 0 0 311.47266 996.36133 A 8.0008 8.0008 0 0 0 311.66797 996.25977 A 8.0008 8.0008 0 0 0 311.92383 996.12109 L 349.59961 974.36719 A 8.0008 8.0008 0 0 0 349.59961 960.51172 L 318.85156 942.75781 L 332.60352 918.9375 L 363.35156 936.69141 A 8.0008 8.0008 0 0 0 375.35156 929.76367 L 375.35156 894.25781 L 402.85742 894.25781 L 402.85742 929.76367 A 8.0008 8.0008 0 0 0 414.85742 936.69141 L 445.60547 918.9375 L 459.35742 942.75781 L 428.60938 960.50977 A 8.0008 8.0008 0 0 0 428.60938 974.36719 L 466.28516 996.12109 A 8.0008 8.0008 0 0 0 466.44922 996.21094 A 8.0008 8.0008 0 0 0 466.59766 996.28906 A 8.0008 8.0008 0 0 0 466.68164 996.33398 A 8.0008 8.0008 0 0 0 466.70508 996.3457 A 8.0008 8.0008 0 0 0 466.87305 996.42578 A 8.0008 8.0008 0 0 0 466.99609 996.48242 A 8.0008 8.0008 0 0 0 467.13672 996.54492 A 8.0008 8.0008 0 0 0 467.3125 996.61914 A 8.0008 8.0008 0 0 0 467.5293 996.70117 A 8.0008 8.0008 0 0 0 467.75391 996.7793 A 8.0008 8.0008 0 0 0 467.96484 996.8457 A 8.0008 8.0008 0 0 0 467.98633 996.85352 A 8.0008 8.0008 0 0 0 468.19531 996.91406 A 8.0008 8.0008 0 0 0 468.21094 996.91797 A 8.0008 8.0008 0 0 0 468.21289 996.91797 A 8.0008 8.0008 0 0 0 468.62109 997.01562 A 8.0008 8.0008 0 0 0 468.67383 997.02734 A 8.0008 8.0008 0 0 0 468.72461 997.03711 A 8.0008 8.0008 0 0 0 468.95703 997.08008 A 8.0008 8.0008 0 0 0 469.1543 997.11133 A 8.0008 8.0008 0 0 0 469.34766 997.13477 A 8.0008 8.0008 0 0 0 469.39062 997.14062 A 8.0008 8.0008 0 0 0 469.61328 997.16211 A 8.0008 8.0008 0 0 0 469.78906 997.17578 A 8.0008 8.0008 0 0 0 469.85156 997.17969 A 8.0008 8.0008 0 0 0 469.90234 997.18164 A 8.0008 8.0008 0 0 0 470.14062 997.18945 A 8.0008 8.0008 0 0 0 470.37891 997.19141 A 8.0008 8.0008 0 0 0 470.43164 997.18945 A 8.0008 8.0008 0 0 0 470.61719 997.18359 A 8.0008 8.0008 0 0 0 470.73047 997.17773 A 8.0008 8.0008 0 0 0 470.80273 997.17383 A 8.0008 8.0008 0 0 0 470.96875 997.16211 A 8.0008 8.0008 0 0 0 471.0918 997.15039 A 8.0008 8.0008 0 0 0 471.32812 997.12305 A 8.0008 8.0008 0 0 0 471.5625 997.08789 A 8.0008 8.0008 0 0 0 471.74609 997.05664 A 8.0008 8.0008 0 0 0 471.79688 997.04688 A 8.0008 8.0008 0 0 0 471.97852 997.00977 A 8.0008 8.0008 0 0 0 472.0293 996.99805 A 8.0008 8.0008 0 0 0 472.26172 996.94336 A 8.0008 8.0008 0 0 0 472.49023 996.88086 A 8.0008 8.0008 0 0 0 472.66797 996.82812 A 8.0008 8.0008 0 0 0 472.71875 996.8125 A 8.0008 8.0008 0 0 0 472.89453 996.75391 A 8.0008 8.0008 0 0 0 472.94336 996.73633 A 8.0008 8.0008 0 0 0 473.16602 996.6543 A 8.0008 8.0008 0 0 0 473.33984 996.58594 A 8.0008 8.0008 0 0 0 473.38672 996.56641 A 8.0008 8.0008 0 0 0 473.55859 996.49219 A 8.0008 8.0008 0 0 0 473.60547 996.4707 A 8.0008 8.0008 0 0 0 473.77344 996.39258 A 8.0008 8.0008 0 0 0 473.82031 996.36914 A 8.0008 8.0008 0 0 0 473.83594 996.36133 A 8.0008 8.0008 0 0 0 474.03125 996.25977 A 8.0008 8.0008 0 0 0 474.28516 996.12109 L 511.96289 974.36719 A 8.0008 8.0008 0 0 0 511.96289 960.51172 L 481.21484 942.75977 L 494.9668 918.9375 L 525.71484 936.69141 A 8.0008 8.0008 0 0 0 537.71484 929.76367 L 537.71484 894.25781 L 565.21875 894.25781 L 565.21875 929.76367 A 8.0008 8.0008 0 0 0 577.21875 936.69141 L 607.9668 918.9375 L 621.7207 942.75781 L 590.97266 960.51172 A 8.0008 8.0008 0 0 0 590.97266 974.36719 L 628.60352 996.09375 L 628.64844 996.12109 A 8.0008 8.0008 0 0 0 628.81055 996.21094 A 8.0008 8.0008 0 0 0 629.02148 996.32227 A 8.0008 8.0008 0 0 0 629.23438 996.42578 A 8.0008 8.0008 0 0 0 629.38672 996.49609 A 8.0008 8.0008 0 0 0 629.45117 996.52539 A 8.0008 8.0008 0 0 0 629.49805 996.54492 A 8.0008 8.0008 0 0 0 629.68945 996.625 A 8.0008 8.0008 0 0 0 629.71875 996.63672 A 8.0008 8.0008 0 0 0 629.89258 996.70117 A 8.0008 8.0008 0 0 0 630.11719 996.7793 A 8.0008 8.0008 0 0 0 630.34375 996.85156 A 8.0008 8.0008 0 0 0 630.52344 996.9043 A 8.0008 8.0008 0 0 0 630.58789 996.92188 A 8.0008 8.0008 0 0 0 630.62305 996.93164 A 8.0008 8.0008 0 0 0 630.80273 996.97461 A 8.0008 8.0008 0 0 0 630.98047 997.01562 A 8.0008 8.0008 0 0 0 631.08984 997.03711 A 8.0008 8.0008 0 0 0 631.32031 997.08008 A 8.0008 8.0008 0 0 0 631.50391 997.10938 A 8.0008 8.0008 0 0 0 631.50977 997.10938 A 8.0008 8.0008 0 0 0 631.73828 997.13867 A 8.0008 8.0008 0 0 0 631.97656 997.16211 A 8.0008 8.0008 0 0 0 632.15039 997.17578 A 8.0008 8.0008 0 0 0 632.26562 997.18164 A 8.0008 8.0008 0 0 0 632.50195 997.18945 A 8.0008 8.0008 0 0 0 632.74023 997.19141 A 8.0008 8.0008 0 0 0 632.79102 997.18945 A 8.0008 8.0008 0 0 0 632.97852 997.18359 A 8.0008 8.0008 0 0 0 633.08594 997.17773 A 8.0008 8.0008 0 0 0 633.16406 997.17383 A 8.0008 8.0008 0 0 0 633.33594 997.16016 A 8.0008 8.0008 0 0 0 633.40039 997.15625 A 8.0008 8.0008 0 0 0 633.45312 997.15039 A 8.0008 8.0008 0 0 0 633.68945 997.12305 A 8.0008 8.0008 0 0 0 633.92383 997.08789 A 8.0008 8.0008 0 0 0 634.10742 997.05664 A 8.0008 8.0008 0 0 0 634.1582 997.04688 A 8.0008 8.0008 0 0 0 634.19727 997.03906 A 8.0008 8.0008 0 0 0 634.39062 996.99805 A 8.0008 8.0008 0 0 0 634.62305 996.94336 A 8.0008 8.0008 0 0 0 634.85156 996.88086 A 8.0008 8.0008 0 0 0 635.03125 996.82812 A 8.0008 8.0008 0 0 0 635.08008 996.8125 A 8.0008 8.0008 0 0 0 635.25586 996.75391 A 8.0008 8.0008 0 0 0 635.30469 996.73633 A 8.0008 8.0008 0 0 0 635.5293 996.6543 A 8.0008 8.0008 0 0 0 635.70117 996.58594 A 8.0008 8.0008 0 0 0 635.75 996.56641 A 8.0008 8.0008 0 0 0 635.91992 996.49219 A 8.0008 8.0008 0 0 0 635.9668 996.4707 A 8.0008 8.0008 0 0 0 636.13477 996.39258 A 8.0008 8.0008 0 0 0 636.18164 996.36914 A 8.0008 8.0008 0 0 0 636.34766 996.28516 A 8.0008 8.0008 0 0 0 636.39453 996.25977 A 8.0008 8.0008 0 0 0 636.39648 996.25977 A 8.0008 8.0008 0 0 0 636.64844 996.12109 L 674.32422 974.36719 A 8.0008 8.0008 0 0 0 674.32422 960.51172 L 643.57617 942.75781 L 657.33008 918.9375 L 688.07617 936.69141 A 8.0008 8.0008 0 0 0 700.07617 929.76367 L 700.07617 894.25781 L 727.58203 894.25781 L 727.58203 929.76367 A 8.0008 8.0008 0 0 0 739.58203 936.69141 L 770.33008 918.9375 L 784.08203 942.75781 L 753.33398 960.50977 A 8.0008 8.0008 0 0 0 753.33398 974.36719 L 790.9668 996.09375 L 791.01172 996.12109 A 8.0008 8.0008 0 0 0 791.17383 996.21094 A 8.0008 8.0008 0 0 0 791.32227 996.28906 A 8.0008 8.0008 0 0 0 791.40625 996.33398 A 8.0008 8.0008 0 0 0 791.42969 996.3457 A 8.0008 8.0008 0 0 0 791.59766 996.42578 A 8.0008 8.0008 0 0 0 791.75 996.49609 A 8.0008 8.0008 0 0 0 791.81445 996.52539 A 8.0008 8.0008 0 0 0 791.86133 996.54492 A 8.0008 8.0008 0 0 0 792.05273 996.625 A 8.0008 8.0008 0 0 0 792.08203 996.63672 A 8.0008 8.0008 0 0 0 792.25586 996.70117 A 8.0008 8.0008 0 0 0 792.48047 996.7793 A 8.0008 8.0008 0 0 0 792.70703 996.85156 A 8.0008 8.0008 0 0 0 792.92383 996.91406 A 8.0008 8.0008 0 0 0 792.93555 996.91797 A 8.0008 8.0008 0 0 0 792.9375 996.91797 A 8.0008 8.0008 0 0 0 793.34375 997.01562 A 8.0008 8.0008 0 0 0 793.39844 997.02734 A 8.0008 8.0008 0 0 0 793.44922 997.03711 A 8.0008 8.0008 0 0 0 793.68359 997.08008 A 8.0008 8.0008 0 0 0 793.86719 997.10938 A 8.0008 8.0008 0 0 0 793.875 997.10938 A 8.0008 8.0008 0 0 0 794.07617 997.13477 A 8.0008 8.0008 0 0 0 794.11523 997.14062 A 8.0008 8.0008 0 0 0 794.1543 997.14453 A 8.0008 8.0008 0 0 0 794.33984 997.16211 A 8.0008 8.0008 0 0 0 794.51367 997.17578 A 8.0008 8.0008 0 0 0 794.62891 997.18164 A 8.0008 8.0008 0 0 0 794.86523 997.18945 A 8.0008 8.0008 0 0 0 795.10352 997.19141 A 8.0008 8.0008 0 0 0 795.1543 997.18945 A 8.0008 8.0008 0 0 0 795.3418 997.18359 A 8.0008 8.0008 0 0 0 795.45508 997.17773 A 8.0008 8.0008 0 0 0 795.52734 997.17383 A 8.0008 8.0008 0 0 0 795.69336 997.16211 A 8.0008 8.0008 0 0 0 795.81641 997.15039 A 8.0008 8.0008 0 0 0 796.05273 997.12305 A 8.0008 8.0008 0 0 0 796.28711 997.08789 A 8.0008 8.0008 0 0 0 796.4707 997.05664 A 8.0008 8.0008 0 0 0 796.52148 997.04688 A 8.0008 8.0008 0 0 0 796.70312 997.00977 A 8.0008 8.0008 0 0 0 796.75391 996.99805 A 8.0008 8.0008 0 0 0 796.98633 996.94336 A 8.0008 8.0008 0 0 0 797.21484 996.88086 A 8.0008 8.0008 0 0 0 797.39453 996.82812 A 8.0008 8.0008 0 0 0 797.44336 996.8125 A 8.0008 8.0008 0 0 0 797.61914 996.75391 A 8.0008 8.0008 0 0 0 797.66797 996.73633 A 8.0008 8.0008 0 0 0 797.89258 996.6543 A 8.0008 8.0008 0 0 0 798.06445 996.58594 A 8.0008 8.0008 0 0 0 798.11133 996.56641 A 8.0008 8.0008 0 0 0 798.2832 996.49219 A 8.0008 8.0008 0 0 0 798.33008 996.4707 A 8.0008 8.0008 0 0 0 798.49805 996.39258 A 8.0008 8.0008 0 0 0 798.54492 996.36914 A 8.0008 8.0008 0 0 0 798.71094 996.28516 A 8.0008 8.0008 0 0 0 798.75781 996.25977 A 8.0008 8.0008 0 0 0 798.75977 996.25977 A 8.0008 8.0008 0 0 0 799.01172 996.12109 L 836.6875 974.36719 A 8.0008 8.0008 0 0 0 836.6875 960.51172 L 805.93945 942.75781 L 819.69141 918.9375 L 850.43945 936.69141 A 8.0008 8.0008 0 0 0 862.43945 929.76367 L 862.43945 894.25781 L 889.94336 894.25781 L 889.94336 929.76367 A 8.0008 8.0008 0 0 0 901.94336 936.69141 L 932.69336 918.9375 L 946.44531 942.75781 L 915.69727 960.51172 A 8.0008 8.0008 0 0 0 915.69727 974.36719 L 953.37305 996.12109 A 8.0008 8.0008 0 0 0 965.37305 989.19141 L 965.37305 947.83008 L 986.05469 912.00977 A 8.0008 8.0008 0 0 0 979.12695 900.00977 L 943.62109 900.00977 L 943.62109 864.50586 A 8.0008 8.0008 0 0 0 931.62109 857.57812 L 900.87305 875.33008 L 887.12109 851.50977 L 917.86719 833.75781 A 8.0008 8.0008 0 0 0 917.86719 819.90039 L 887.12109 802.14844 L 900.87305 778.32812 L 931.62109 796.08203 A 8.0008 8.0008 0 0 0 943.62109 789.15234 L 943.62109 753.64844 L 979.12695 753.64844 A 8.0008 8.0008 0 0 0 986.05469 741.64844 L 968.30078 710.90039 L 999.04883 693.14648 A 8.0008 8.0008 0 0 0 999.04883 679.29102 L 968.30078 661.53906 L 986.05469 630.78906 A 8.0008 8.0008 0 0 0 979.12695 618.78906 L 943.62109 618.78906 L 943.62109 583.28516 A 8.0008 8.0008 0 0 0 931.62109 576.35742 L 900.87305 594.10938 L 887.12109 570.28906 L 917.86719 552.53711 A 8.0008 8.0008 0 0 0 917.86719 538.68164 L 887.12109 520.92969 L 900.87305 497.10742 L 931.62109 514.86133 A 8.0008 8.0008 0 0 0 943.62109 507.93359 L 943.62109 472.42773 L 979.12695 472.42773 A 8.0008 8.0008 0 0 0 986.05469 460.42773 L 968.30078 429.67969 L 999.04883 411.92773 A 8.0008 8.0008 0 0 0 999.04883 398.07031 L 968.30078 380.31836 L 986.05469 349.57031 A 8.0008 8.0008 0 0 0 979.12695 337.57031 L 943.62109 337.57031 L 943.62109 302.06445 A 8.0008 8.0008 0 0 0 931.62109 295.13672 L 900.87305 312.89062 L 887.12109 289.06836 L 917.86719 271.31641 A 8.0008 8.0008 0 0 0 917.86719 257.46094 L 887.12109 239.70898 L 900.87305 215.88867 L 931.62109 233.64062 A 8.0008 8.0008 0 0 0 943.62109 226.71289 L 943.62109 191.20703 L 979.12695 191.20703 A 8.0008 8.0008 0 0 0 986.05469 179.20703 L 968.30078 148.45898 L 999.04883 130.70703 A 8.0008 8.0008 0 0 0 999.04883 116.85156 L 968.30078 99.097656 L 986.05469 68.349609 A 8.0008 8.0008 0 0 0 979.12695 56.349609 L 943.62109 56.349609 L 943.62109 20.845703 A 8.0008 8.0008 0 0 0 931.62109 13.916016 L 900.87305 31.669922 L 883.12109 0.921875 A 8.0008 8.0008 0 0 0 869.26367 0.921875 L 851.51172 31.669922 L 820.76367 13.916016 A 8.0008 8.0008 0 0 0 808.76367 20.845703 L 808.76367 56.349609 L 781.25781 56.349609 L 781.25781 20.845703 A 8.0008 8.0008 0 0 0 769.25781 13.916016 L 738.50977 31.669922 L 720.75781 0.921875 A 8.0008 8.0008 0 0 0 706.90039 0.921875 L 689.14844 31.669922 L 658.40039 13.916016 A 8.0008 8.0008 0 0 0 646.40039 20.845703 L 646.40039 56.349609 L 618.89648 56.349609 L 618.89648 20.845703 A 8.0008 8.0008 0 0 0 606.89648 13.916016 L 576.14648 31.669922 L 558.39453 0.921875 A 8.0008 8.0008 0 0 0 544.53906 0.921875 L 526.78516 31.669922 L 496.03906 13.916016 A 8.0008 8.0008 0 0 0 484.03711 20.845703 L 484.03711 56.349609 L 456.5332 56.349609 L 456.5332 20.845703 A 8.0008 8.0008 0 0 0 444.5332 13.916016 L 413.78516 31.669922 L 396.03125 0.921875 A 8.0008 8.0008 0 0 0 382.17578 0.921875 L 364.42383 31.669922 L 333.67578 13.916016 A 8.0008 8.0008 0 0 0 321.67578 20.845703 L 321.67578 56.349609 L 294.17188 56.349609 L 294.17188 20.845703 A 8.0008 8.0008 0 0 0 282.17188 13.916016 L 251.42188 31.669922 L 233.66992 0.921875 A 8.0008 8.0008 0 0 0 219.81445 0.921875 L 202.06055 31.669922 L 171.3125 13.916016 A 8.0008 8.0008 0 0 0 159.3125 20.845703 L 159.3125 56.349609 L 131.80859 56.349609 L 131.80859 20.845703 A 8.0008 8.0008 0 0 0 119.80859 13.916016 L 89.060547 31.669922 L 71.306641 0.921875 A 8.0008 8.0008 0 0 0 64.431641 -3.078125 z M 64.378906 20.919922 L 72.275391 34.597656 L 56.482422 34.597656 L 64.378906 20.919922 z M 226.74219 20.919922 L 234.63867 34.597656 L 218.8457 34.597656 L 226.74219 20.919922 z M 551.4668 20.919922 L 559.36328 34.597656 L 543.57031 34.597656 L 551.4668 20.919922 z M 389.10352 20.921875 L 397 34.597656 L 381.20703 34.597656 L 389.10352 20.921875 z M 713.82812 20.921875 L 721.72461 34.597656 L 705.93359 34.597656 L 713.82812 20.921875 z M 876.19336 20.921875 L 884.08789 34.597656 L 868.29688 34.597656 L 876.19336 20.921875 z M 115.80859 34.701172 L 115.80859 50.494141 L 102.13281 42.597656 L 115.80859 34.701172 z M 175.3125 34.701172 L 188.98828 42.597656 L 175.3125 50.494141 L 175.3125 34.701172 z M 278.17188 34.701172 L 278.17188 50.494141 L 264.49414 42.597656 L 278.17188 34.701172 z M 337.67578 34.701172 L 351.35156 42.597656 L 337.67578 50.494141 L 337.67578 34.701172 z M 440.5332 34.701172 L 440.5332 50.494141 L 426.85742 42.597656 L 440.5332 34.701172 z M 500.03711 34.701172 L 513.71484 42.597656 L 500.03711 50.494141 L 500.03711 34.701172 z M 602.89648 34.701172 L 602.89648 50.494141 L 589.21875 42.597656 L 602.89648 34.701172 z M 662.40039 34.701172 L 676.07617 42.597656 L 662.40039 50.494141 L 662.40039 34.701172 z M 765.25781 34.701172 L 765.25781 50.494141 L 751.58203 42.597656 L 765.25781 34.701172 z M 824.76367 34.701172 L 838.43945 42.597656 L 824.76367 50.494141 L 824.76367 34.701172 z M 927.62109 34.701172 L 927.62109 50.494141 L 913.94336 42.597656 L 927.62109 34.701172 z M 50.626953 50.597656 L 78.132812 50.597656 L 78.132812 78.103516 L 50.626953 78.103516 L 50.626953 50.597656 z M 212.98828 50.597656 L 240.49414 50.597656 L 240.49414 78.103516 L 212.98828 78.103516 L 212.98828 50.597656 z M 375.35156 50.597656 L 402.85742 50.597656 L 402.85742 78.103516 L 375.35156 78.103516 L 375.35156 50.597656 z M 537.71484 50.597656 L 565.21875 50.597656 L 565.21875 78.103516 L 537.71484 78.103516 L 537.71484 50.597656 z M 700.07617 50.597656 L 727.58203 50.597656 L 727.58203 78.103516 L 700.07617 78.103516 L 700.07617 50.597656 z M 862.43945 50.597656 L 889.94336 50.597656 L 889.94336 78.103516 L 862.43945 78.103516 L 862.43945 50.597656 z M 34.626953 56.453125 L 34.626953 72.248047 L 20.949219 64.349609 L 34.626953 56.453125 z M 94.132812 56.453125 L 107.81055 64.349609 L 94.132812 72.246094 L 94.132812 56.453125 z M 196.98828 56.453125 L 196.98828 72.246094 L 183.31055 64.349609 L 196.98828 56.453125 z M 256.49414 56.453125 L 270.17188 64.349609 L 256.49414 72.248047 L 256.49414 56.453125 z M 359.35156 56.453125 L 359.35156 72.246094 L 345.67383 64.349609 L 359.35156 56.453125 z M 418.85742 56.453125 L 432.53516 64.349609 L 418.85742 72.246094 L 418.85742 56.453125 z M 521.71484 56.453125 L 521.71484 72.246094 L 508.03711 64.349609 L 521.71484 56.453125 z M 581.21875 56.453125 L 594.89648 64.349609 L 581.21875 72.248047 L 581.21875 56.453125 z M 684.07617 56.453125 L 684.07617 72.246094 L 670.39844 64.349609 L 684.07617 56.453125 z M 743.58203 56.453125 L 757.25977 64.349609 L 743.58203 72.246094 L 743.58203 56.453125 z M 846.43945 56.453125 L 846.43945 72.246094 L 832.76172 64.349609 L 846.43945 56.453125 z M 905.94336 56.453125 L 919.62109 64.349609 L 905.94336 72.248047 L 905.94336 56.453125 z M 137.66406 72.349609 L 153.45703 72.349609 L 145.56055 86.025391 L 137.66406 72.349609 z M 300.02734 72.349609 L 315.81836 72.349609 L 307.92383 86.025391 L 300.02734 72.349609 z M 462.39062 72.349609 L 478.18164 72.349609 L 470.28516 86.025391 L 462.39062 72.349609 z M 624.75195 72.349609 L 640.54492 72.349609 L 632.64844 86.025391 L 624.75195 72.349609 z M 787.11523 72.349609 L 802.90625 72.349609 L 795.00977 86.025391 L 787.11523 72.349609 z M 949.47656 72.349609 L 965.26953 72.349609 L 957.37305 86.025391 L 949.47656 72.349609 z M 120.87891 75.277344 L 134.63281 99.097656 L 110.8125 112.85156 L 97.060547 89.03125 L 120.87891 75.277344 z M 170.24219 75.277344 L 194.06055 89.03125 L 180.30859 112.85156 L 156.48828 99.097656 L 170.24219 75.277344 z M 283.24219 75.277344 L 296.99414 99.097656 L 273.17578 112.85156 L 259.42188 89.03125 L 283.24219 75.277344 z M 332.60352 75.277344 L 356.42383 89.03125 L 342.66992 112.85156 L 318.85156 99.097656 L 332.60352 75.277344 z M 445.60547 75.277344 L 459.35742 99.097656 L 435.53711 112.85156 L 421.78516 89.03125 L 445.60547 75.277344 z M 494.9668 75.277344 L 518.78516 89.03125 L 505.0332 112.85156 L 481.21484 99.097656 L 494.9668 75.277344 z M 607.96875 75.277344 L 621.7207 99.097656 L 597.90039 112.85156 L 584.14648 89.03125 L 607.96875 75.277344 z M 657.33008 75.277344 L 681.14844 89.03125 L 667.39648 112.85156 L 643.57617 99.097656 L 657.33008 75.277344 z M 770.33008 75.277344 L 784.08203 99.097656 L 760.26172 112.85156 L 746.50977 89.03125 L 770.33008 75.277344 z M 819.69141 75.277344 L 843.51172 89.03125 L 829.75781 112.85156 L 805.93945 99.097656 L 819.69141 75.277344 z M 932.69336 75.277344 L 946.44531 99.097656 L 922.625 112.85156 L 908.87305 89.03125 L 932.69336 75.277344 z M 47.246094 94.103516 L 81.513672 94.103516 L 98.646484 123.7793 L 81.513672 153.45508 L 47.246094 153.45508 L 30.111328 123.7793 L 47.246094 94.103516 z M 209.60938 94.103516 L 243.875 94.103516 L 261.00977 123.7793 L 243.875 153.45508 L 209.60742 153.45508 L 192.47461 123.7793 L 209.60938 94.103516 z M 371.9707 94.103516 L 406.23828 94.103516 L 423.37109 123.7793 L 406.23828 153.45508 L 371.9707 153.45508 L 354.83594 123.7793 L 371.9707 94.103516 z M 534.33203 94.103516 L 568.59961 94.103516 L 585.73438 123.7793 L 568.59961 153.45508 L 534.33203 153.45508 L 517.19922 123.7793 L 534.33203 94.103516 z M 696.69531 94.103516 L 730.96289 94.103516 L 748.0957 123.7793 L 730.96289 153.45508 L 696.69531 153.45508 L 679.5625 123.7793 L 696.69531 94.103516 z M 859.05859 94.103516 L 893.32617 94.103516 L 910.46094 123.7793 L 893.32617 153.45508 L 859.05859 153.45508 L 841.92383 123.7793 L 859.05859 94.103516 z M 137.56055 115.88281 L 137.56055 131.67578 L 123.88477 123.7793 L 137.56055 115.88281 z M 153.56055 115.88281 L 167.23633 123.7793 L 153.56055 131.67578 L 153.56055 115.88281 z M 299.92383 115.88281 L 299.92383 131.67578 L 286.24609 123.7793 L 299.92383 115.88281 z M 315.92383 115.88281 L 329.59961 123.7793 L 315.92383 131.67578 L 315.92383 115.88281 z M 462.28516 115.88281 L 462.28516 131.67578 L 448.60938 123.7793 L 462.28516 115.88281 z M 478.28516 115.88281 L 491.96289 123.7793 L 478.28516 131.67578 L 478.28516 115.88281 z M 624.64844 115.88281 L 624.64844 131.67578 L 610.97266 123.7793 L 624.64844 115.88281 z M 640.64844 115.88281 L 654.32422 123.7793 L 640.64844 131.67578 L 640.64844 115.88281 z M 787.01172 115.88281 L 787.01172 131.67578 L 773.33398 123.7793 L 787.01172 115.88281 z M 803.01172 115.88281 L 816.6875 123.7793 L 803.01172 131.67578 L 803.01172 115.88281 z M 949.37305 115.88281 L 949.37305 131.67578 L 935.69727 123.7793 L 949.37305 115.88281 z M 965.37305 115.88281 L 979.04883 123.7793 L 965.37305 131.67578 L 965.37305 115.88281 z M 110.8125 134.70703 L 134.63281 148.45898 L 120.87891 172.2793 L 97.060547 158.52734 L 110.8125 134.70703 z M 180.30859 134.70703 L 194.06055 158.52734 L 170.24219 172.2793 L 156.49023 148.45898 L 180.30859 134.70703 z M 273.17578 134.70703 L 296.99414 148.45898 L 283.24219 172.2793 L 259.42188 158.52734 L 273.17578 134.70703 z M 342.66992 134.70703 L 356.42383 158.52734 L 332.60352 172.2793 L 318.85156 148.45898 L 342.66992 134.70703 z M 435.53711 134.70703 L 459.35742 148.45898 L 445.60547 172.2793 L 421.78516 158.52734 L 435.53711 134.70703 z M 505.0332 134.70703 L 518.78516 158.52734 L 494.9668 172.2793 L 481.21484 148.45898 L 505.0332 134.70703 z M 597.90039 134.70703 L 621.7207 148.45898 L 607.96875 172.2793 L 584.14648 158.52734 L 597.90039 134.70703 z M 667.39648 134.70703 L 681.14844 158.52734 L 657.33008 172.2793 L 643.57617 148.45898 L 667.39648 134.70703 z M 760.26172 134.70703 L 784.08203 148.45898 L 770.33008 172.2793 L 746.50977 158.52734 L 760.26172 134.70703 z M 829.75781 134.70703 L 843.51172 158.52734 L 819.69141 172.2793 L 805.93945 148.45898 L 829.75781 134.70703 z M 922.625 134.70703 L 946.44531 148.45898 L 932.69336 172.2793 L 908.87305 158.52734 L 922.625 134.70703 z M 145.56055 161.53125 L 153.45703 175.20703 L 137.66602 175.20703 L 145.56055 161.53125 z M 307.92383 161.53125 L 315.81836 175.20703 L 300.02734 175.20703 L 307.92383 161.53125 z M 470.28516 161.53125 L 478.18164 175.20703 L 462.39062 175.20703 L 470.28516 161.53125 z M 632.64844 161.53125 L 640.54297 175.20703 L 624.75195 175.20703 L 632.64844 161.53125 z M 795.00977 161.53125 L 802.90625 175.20703 L 787.11523 175.20703 L 795.00977 161.53125 z M 957.37305 161.53125 L 965.26758 175.20703 L 949.47656 175.20703 L 957.37305 161.53125 z M 50.626953 169.45508 L 78.132812 169.45508 L 78.132812 196.96094 L 50.626953 196.96094 L 50.626953 169.45508 z M 212.98828 169.45508 L 240.49414 169.45508 L 240.49414 196.96094 L 212.98828 196.96094 L 212.98828 169.45508 z M 375.35156 169.45508 L 402.85742 169.45508 L 402.85742 196.96094 L 375.35156 196.96094 L 375.35156 169.45508 z M 537.71484 169.45508 L 565.21875 169.45508 L 565.21875 196.96094 L 537.71484 196.96094 L 537.71484 169.45508 z M 700.07617 169.45508 L 727.58203 169.45508 L 727.58203 196.96094 L 700.07617 196.96094 L 700.07617 169.45508 z M 862.43945 169.45508 L 889.94336 169.45508 L 889.94336 196.96094 L 862.43945 196.96094 L 862.43945 169.45508 z M 34.626953 175.31055 L 34.626953 191.10352 L 20.951172 183.20703 L 34.626953 175.31055 z M 256.49414 175.31055 L 270.16992 183.20703 L 256.49414 191.10352 L 256.49414 175.31055 z M 581.21875 175.31055 L 594.89453 183.20703 L 581.21875 191.10352 L 581.21875 175.31055 z M 905.94336 175.31055 L 919.61914 183.20703 L 905.94336 191.10352 L 905.94336 175.31055 z M 94.132812 175.3125 L 107.80859 183.20703 L 94.132812 191.10352 L 94.132812 175.3125 z M 196.98828 175.3125 L 196.98828 191.10352 L 183.3125 183.20703 L 196.98828 175.3125 z M 359.35156 175.3125 L 359.35156 191.10352 L 345.67578 183.20703 L 359.35156 175.3125 z M 418.85742 175.3125 L 432.5332 183.20703 L 418.85742 191.10352 L 418.85742 175.3125 z M 521.71484 175.3125 L 521.71484 191.10352 L 508.03906 183.20898 L 521.71484 175.3125 z M 684.07617 175.3125 L 684.07617 191.10352 L 670.40039 183.20703 L 684.07617 175.3125 z M 743.58203 175.3125 L 757.25781 183.20703 L 743.58203 191.10352 L 743.58203 175.3125 z M 846.43945 175.3125 L 846.43945 191.10352 L 832.76367 183.20703 L 846.43945 175.3125 z M 131.80859 191.20703 L 159.3125 191.20703 L 159.3125 218.71289 L 131.80859 218.71289 L 131.80859 191.20703 z M 294.17188 191.20703 L 321.67578 191.20703 L 321.67578 218.71289 L 294.17188 218.71289 L 294.17188 191.20703 z M 456.5332 191.20703 L 484.03711 191.20703 L 484.03711 218.71289 L 456.5332 218.71289 L 456.5332 191.20703 z M 618.89648 191.20703 L 646.40039 191.20703 L 646.40039 218.71289 L 618.89648 218.71289 L 618.89648 191.20703 z M 781.25781 191.20703 L 808.76367 191.20703 L 808.76367 218.71289 L 781.25781 218.71289 L 781.25781 191.20703 z M 115.80859 197.06445 L 115.80859 212.85547 L 102.13281 204.96094 L 115.80859 197.06445 z M 175.3125 197.06445 L 188.98828 204.96094 L 175.3125 212.85547 L 175.3125 197.06445 z M 278.17188 197.06445 L 278.17188 212.85742 L 264.49414 204.96094 L 278.17188 197.06445 z M 337.67578 197.06445 L 351.35156 204.96094 L 337.67578 212.85547 L 337.67578 197.06445 z M 440.5332 197.06445 L 440.5332 212.85547 L 426.85742 204.96094 L 440.5332 197.06445 z M 500.03711 197.06445 L 513.71289 204.96094 L 500.03711 212.85742 L 500.03711 197.06445 z M 602.89648 197.06445 L 602.89648 212.85742 L 589.2207 204.96094 L 602.89648 197.06445 z M 662.40039 197.06445 L 676.07617 204.96094 L 662.40039 212.85547 L 662.40039 197.06445 z M 765.25781 197.06445 L 765.25781 212.85547 L 751.58203 204.96094 L 765.25781 197.06445 z M 824.76367 197.06445 L 838.43945 204.96094 L 824.76367 212.85547 L 824.76367 197.06445 z M 927.62109 197.06445 L 927.62109 212.85742 L 913.94531 204.96094 L 927.62109 197.06445 z M 56.482422 212.96094 L 72.275391 212.96094 L 64.378906 226.63672 L 56.482422 212.96094 z M 218.8457 212.96094 L 234.63867 212.96094 L 226.74219 226.63672 L 218.8457 212.96094 z M 381.20898 212.96094 L 397 212.96094 L 389.10547 226.63672 L 381.20898 212.96094 z M 543.57031 212.96094 L 559.36328 212.96094 L 551.4668 226.63672 L 543.57031 212.96094 z M 705.93359 212.96094 L 721.72461 212.96094 L 713.83008 226.63672 L 705.93359 212.96094 z M 868.29688 212.96094 L 884.08789 212.96094 L 876.19141 226.63672 L 868.29688 212.96094 z M 89.060547 215.88867 L 112.87891 229.64062 L 99.126953 253.46094 L 75.306641 239.70898 L 89.060547 215.88867 z M 202.06055 215.88867 L 215.81445 239.70898 L 191.99414 253.46094 L 178.24219 229.64062 L 202.06055 215.88867 z M 251.42188 215.88867 L 275.24219 229.64062 L 261.49023 253.46094 L 237.66992 239.70898 L 251.42188 215.88867 z M 364.42383 215.88867 L 378.17578 239.70898 L 354.35547 253.46094 L 340.60352 229.64062 L 364.42383 215.88867 z M 413.78516 215.88867 L 437.60547 229.64062 L 423.85352 253.46094 L 400.03125 239.70898 L 413.78516 215.88867 z M 526.78516 215.88867 L 540.53906 239.70898 L 516.71875 253.46094 L 502.9668 229.64062 L 526.78516 215.88867 z M 576.14648 215.88867 L 599.96875 229.64062 L 586.21484 253.46094 L 562.39453 239.70898 L 576.14648 215.88867 z M 689.14844 215.88867 L 702.90039 239.70898 L 679.08203 253.46094 L 665.33008 229.64062 L 689.14844 215.88867 z M 738.50977 215.88867 L 762.33008 229.64062 L 748.57812 253.46094 L 724.75781 239.70898 L 738.50977 215.88867 z M 851.51172 215.88867 L 865.26367 239.70898 L 841.44336 253.46094 L 827.69141 229.64062 L 851.51172 215.88867 z M 128.42773 234.71289 L 162.69336 234.71289 L 179.82812 264.38867 L 162.69336 294.06445 L 128.42773 294.06445 L 111.29297 264.38867 L 128.42773 234.71289 z M 290.78906 234.71289 L 325.05664 234.71289 L 342.18945 264.38867 L 325.05664 294.06445 L 290.79102 294.06445 L 273.65625 264.38867 L 290.78906 234.71289 z M 453.15234 234.71289 L 487.41992 234.71289 L 504.55273 264.38867 L 487.41992 294.06445 L 453.15234 294.06445 L 436.01953 264.38867 L 453.15234 234.71289 z M 615.51562 234.71289 L 649.78125 234.71289 L 666.91602 264.38867 L 649.78125 294.06445 L 615.51562 294.06445 L 598.38086 264.38867 L 615.51562 234.71289 z M 777.87695 234.71289 L 812.14453 234.71289 L 829.2793 264.38867 L 812.14453 294.06445 L 777.87695 294.06445 L 760.74414 264.38867 L 777.87695 234.71289 z M 56.378906 256.49219 L 56.378906 272.28516 L 42.703125 264.38867 L 56.378906 256.49219 z M 72.378906 256.49219 L 86.056641 264.38867 L 72.378906 272.28516 L 72.378906 256.49219 z M 218.74219 256.49219 L 218.74219 272.28516 L 205.06445 264.38867 L 218.74219 256.49219 z M 234.74219 256.49219 L 248.41797 264.38867 L 234.74219 272.28516 L 234.74219 256.49219 z M 381.10352 256.49219 L 381.10352 272.28516 L 367.42773 264.38867 L 381.10352 256.49219 z M 397.10352 256.49219 L 410.78125 264.38867 L 397.10352 272.28516 L 397.10352 256.49219 z M 543.4668 256.49219 L 543.4668 272.28516 L 529.78906 264.38867 L 543.4668 256.49219 z M 559.4668 256.49219 L 573.14258 264.38867 L 559.4668 272.28516 L 559.4668 256.49219 z M 705.82812 256.49219 L 705.82812 272.28516 L 692.15234 264.38867 L 705.82812 256.49219 z M 721.82812 256.49219 L 735.50586 264.38867 L 721.82812 272.28516 L 721.82812 256.49219 z M 868.19141 256.49219 L 868.19141 272.28516 L 854.51562 264.38867 L 868.19141 256.49219 z M 884.19141 256.49219 L 897.86719 264.38867 L 884.19141 272.28516 L 884.19141 256.49219 z M 99.126953 275.31641 L 112.87891 299.13672 L 89.060547 312.89062 L 75.306641 289.06836 L 99.126953 275.31641 z M 191.99414 275.31641 L 215.81445 289.06836 L 202.06055 312.89062 L 178.24219 299.13672 L 191.99414 275.31641 z M 261.49023 275.31641 L 275.24219 299.13672 L 251.42188 312.89062 L 237.66992 289.06836 L 261.49023 275.31641 z M 354.35547 275.31641 L 378.17578 289.06836 L 364.42383 312.89062 L 340.60352 299.13672 L 354.35547 275.31641 z M 423.85352 275.31641 L 437.60547 299.13672 L 413.78516 312.89062 L 400.03125 289.06836 L 423.85352 275.31641 z M 516.71875 275.31641 L 540.53906 289.06836 L 526.78516 312.89062 L 502.9668 299.13672 L 516.71875 275.31641 z M 586.21484 275.31641 L 599.96875 299.13672 L 576.14648 312.89062 L 562.39453 289.06836 L 586.21484 275.31641 z M 679.08203 275.31641 L 702.90039 289.06836 L 689.14844 312.89062 L 665.33008 299.13672 L 679.08203 275.31641 z M 748.57812 275.31641 L 762.33008 299.13672 L 738.50977 312.89062 L 724.75781 289.06836 L 748.57812 275.31641 z M 841.44336 275.31641 L 865.26367 289.06836 L 851.51172 312.89062 L 827.69141 299.13672 L 841.44336 275.31641 z M 64.378906 302.14062 L 72.275391 315.81836 L 56.482422 315.81836 L 64.378906 302.14062 z M 226.74219 302.14062 L 234.63867 315.81836 L 218.8457 315.81836 L 226.74219 302.14062 z M 389.10547 302.14062 L 397.00195 315.81836 L 381.20703 315.81836 L 389.10547 302.14062 z M 551.4668 302.14062 L 559.36328 315.81836 L 543.57031 315.81836 L 551.4668 302.14062 z M 713.83008 302.14258 L 721.72656 315.81836 L 705.93359 315.81836 L 713.83008 302.14258 z M 876.19141 302.14258 L 884.08789 315.81836 L 868.29492 315.81836 L 876.19141 302.14258 z M 131.80859 310.06445 L 159.3125 310.06445 L 159.3125 337.57031 L 131.80859 337.57031 L 131.80859 310.06445 z M 294.17188 310.06445 L 321.67578 310.06445 L 321.67578 337.57031 L 294.17188 337.57031 L 294.17188 310.06445 z M 456.5332 310.06445 L 484.03711 310.06445 L 484.03711 337.57031 L 456.5332 337.57031 L 456.5332 310.06445 z M 618.89648 310.06445 L 646.40039 310.06445 L 646.40039 337.57031 L 618.89648 337.57031 L 618.89648 310.06445 z M 781.25781 310.06445 L 808.76367 310.06445 L 808.76367 337.57031 L 781.25781 337.57031 L 781.25781 310.06445 z M 500.03711 315.91992 L 513.71484 323.81836 L 500.03711 331.71484 L 500.03711 315.91992 z M 115.80859 315.92188 L 115.80859 331.71484 L 102.13086 323.81836 L 115.80859 315.92188 z M 175.3125 315.92188 L 188.99023 323.81836 L 175.3125 331.71484 L 175.3125 315.92188 z M 278.17188 315.92188 L 278.17188 331.71484 L 264.49414 323.81836 L 278.17188 315.92188 z M 337.67578 315.92188 L 351.35352 323.81836 L 337.67578 331.71484 L 337.67578 315.92188 z M 440.5332 315.92188 L 440.5332 331.71484 L 426.85547 323.81836 L 440.5332 315.92188 z M 602.89648 315.92188 L 602.89648 331.71484 L 589.21875 323.81836 L 602.89648 315.92188 z M 662.40039 315.92188 L 676.07812 323.81836 L 662.40039 331.71484 L 662.40039 315.92188 z M 765.25781 315.92188 L 765.25781 331.71484 L 751.58008 323.81836 L 765.25781 315.92188 z M 824.76367 315.92188 L 838.44141 323.81836 L 824.76367 331.71484 L 824.76367 315.92188 z M 927.62109 315.92188 L 927.62109 331.71484 L 913.94336 323.81836 L 927.62109 315.92188 z M 50.626953 331.81836 L 78.132812 331.81836 L 78.132812 359.32227 L 50.626953 359.32227 L 50.626953 331.81836 z M 212.98828 331.81836 L 240.49414 331.81836 L 240.49414 359.32227 L 212.98828 359.32227 L 212.98828 331.81836 z M 375.35156 331.81836 L 402.85742 331.81836 L 402.85742 359.32227 L 375.35156 359.32227 L 375.35156 331.81836 z M 537.71484 331.81836 L 565.21875 331.81836 L 565.21875 359.32227 L 537.71484 359.32227 L 537.71484 331.81836 z M 700.07617 331.81836 L 727.58203 331.81836 L 727.58203 359.32227 L 700.07617 359.32227 L 700.07617 331.81836 z M 862.43945 331.81836 L 889.94336 331.81836 L 889.94336 359.32227 L 862.43945 359.32227 L 862.43945 331.81836 z M 34.626953 337.67383 L 34.626953 353.4668 L 20.949219 345.57031 L 34.626953 337.67383 z M 94.132812 337.67383 L 107.80859 345.57031 L 94.132812 353.4668 L 94.132812 337.67383 z M 196.98828 337.67383 L 196.98828 353.4668 L 183.3125 345.57031 L 196.98828 337.67383 z M 256.49414 337.67383 L 270.17188 345.57031 L 256.49414 353.4668 L 256.49414 337.67383 z M 359.35156 337.67383 L 359.35156 353.4668 L 345.67578 345.57031 L 359.35156 337.67383 z M 418.85742 337.67383 L 432.5332 345.57031 L 418.85742 353.4668 L 418.85742 337.67383 z M 521.71484 337.67383 L 521.71484 353.4668 L 508.03711 345.57031 L 521.71484 337.67383 z M 581.21875 337.67383 L 594.89648 345.57031 L 581.21875 353.4668 L 581.21875 337.67383 z M 684.07617 337.67383 L 684.07617 353.4668 L 670.40039 345.57031 L 684.07617 337.67383 z M 743.58203 337.67383 L 757.25781 345.57031 L 743.58203 353.4668 L 743.58203 337.67383 z M 846.43945 337.67383 L 846.43945 353.4668 L 832.76367 345.57031 L 846.43945 337.67383 z M 905.94336 337.67383 L 919.62109 345.57031 L 905.94336 353.4668 L 905.94336 337.67383 z M 137.66406 353.57031 L 153.45703 353.57031 L 145.56055 367.24805 L 137.66406 353.57031 z M 300.02734 353.57031 L 315.81836 353.57031 L 307.92188 367.24609 L 300.02734 353.57031 z M 462.39062 353.57031 L 478.18164 353.57031 L 470.28711 367.24609 L 462.39062 353.57031 z M 624.75195 353.57031 L 640.54492 353.57031 L 632.64844 367.24805 L 624.75195 353.57031 z M 787.11523 353.57031 L 802.90625 353.57031 L 795.01172 367.24609 L 787.11523 353.57031 z M 949.47656 353.57031 L 965.26953 353.57031 L 957.37305 367.24805 L 949.47656 353.57031 z M 120.87891 356.49805 L 134.63281 380.31836 L 110.8125 394.07031 L 97.060547 370.25195 L 120.87891 356.49805 z M 283.24219 356.49805 L 296.99414 380.31836 L 273.17578 394.07031 L 259.42188 370.25195 L 283.24219 356.49805 z M 332.60352 356.49805 L 356.42383 370.25195 L 342.66992 394.07031 L 318.85156 380.31836 L 332.60352 356.49805 z M 445.60547 356.49805 L 459.35742 380.31836 L 435.53711 394.07031 L 421.78516 370.25195 L 445.60547 356.49805 z M 494.9668 356.49805 L 518.78516 370.25 L 505.0332 394.07031 L 481.21484 380.31836 L 494.9668 356.49805 z M 607.9668 356.49805 L 621.7207 380.31836 L 597.90039 394.07031 L 584.14648 370.25195 L 607.9668 356.49805 z M 657.33008 356.49805 L 681.14844 370.25195 L 667.39648 394.07031 L 643.57617 380.31836 L 657.33008 356.49805 z M 770.33008 356.49805 L 784.08203 380.31836 L 760.26172 394.07031 L 746.50977 370.25195 L 770.33008 356.49805 z M 819.69141 356.49805 L 843.51172 370.25195 L 829.75977 394.07031 L 805.93945 380.31836 L 819.69141 356.49805 z M 932.69336 356.49805 L 946.44531 380.31836 L 922.625 394.07031 L 908.87305 370.25 L 932.69336 356.49805 z M 170.24219 356.5 L 194.06055 370.25195 L 180.30859 394.07031 L 156.49023 380.31836 L 170.24219 356.5 z M 47.246094 375.32227 L 81.513672 375.32227 L 98.646484 404.99805 L 81.513672 434.67578 L 47.246094 434.67578 L 30.111328 404.99805 L 47.246094 375.32227 z M 209.60742 375.32227 L 243.875 375.32227 L 261.00977 404.99805 L 243.875 434.67578 L 209.60742 434.67578 L 192.47461 405 L 209.60742 375.32227 z M 371.9707 375.32227 L 406.23828 375.32227 L 423.37109 404.99805 L 406.23828 434.67578 L 371.9707 434.67578 L 354.83594 404.99805 L 371.9707 375.32227 z M 534.33203 375.32227 L 568.59961 375.32227 L 585.73438 404.99805 L 568.59961 434.67578 L 534.33398 434.67578 L 517.19922 404.99805 L 534.33203 375.32227 z M 696.69531 375.32227 L 730.96289 375.32227 L 748.09766 405 L 730.96289 434.67578 L 696.69531 434.67578 L 679.5625 404.99805 L 696.69531 375.32227 z M 859.05859 375.32227 L 893.32617 375.32227 L 910.45898 405 L 893.32617 434.67578 L 859.05859 434.67578 L 841.92383 404.99805 L 859.05859 375.32227 z M 137.56055 397.10352 L 137.56055 412.89453 L 123.88477 405 L 137.56055 397.10352 z M 153.56055 397.10352 L 167.23633 405 L 153.56055 412.89453 L 153.56055 397.10352 z M 299.92383 397.10352 L 299.92383 412.89453 L 286.24805 405 L 299.92383 397.10352 z M 315.92383 397.10352 L 329.59961 405 L 315.92383 412.89453 L 315.92383 397.10352 z M 462.28516 397.10352 L 462.28516 412.89453 L 448.60938 405 L 462.28516 397.10352 z M 478.28516 397.10352 L 491.96094 405 L 478.28516 412.89453 L 478.28516 397.10352 z M 624.64844 397.10352 L 624.64844 412.89453 L 610.97266 405 L 624.64844 397.10352 z M 640.64844 397.10352 L 654.32422 405 L 640.64844 412.89453 L 640.64844 397.10352 z M 787.01172 397.10352 L 787.01172 412.89453 L 773.33594 405 L 787.01172 397.10352 z M 803.01172 397.10352 L 816.6875 405 L 803.01172 412.89453 L 803.01172 397.10352 z M 949.37305 397.10352 L 949.37305 412.89453 L 935.69727 405 L 949.37305 397.10352 z M 965.37305 397.10352 L 979.04883 405 L 965.37305 412.89453 L 965.37305 397.10352 z M 110.8125 415.92773 L 134.63281 429.67969 L 120.87891 453.5 L 97.060547 439.74609 L 110.8125 415.92773 z M 180.30859 415.92773 L 194.06055 439.74609 L 170.24219 453.49805 L 156.49023 429.67969 L 180.30859 415.92773 z M 273.17578 415.92773 L 296.99414 429.67969 L 283.24219 453.5 L 259.42188 439.74609 L 273.17578 415.92773 z M 342.66992 415.92773 L 356.42383 439.74609 L 332.60352 453.5 L 318.85156 429.67969 L 342.66992 415.92773 z M 435.53711 415.92773 L 459.35742 429.67969 L 445.60547 453.5 L 421.78516 439.74609 L 435.53711 415.92773 z M 505.0332 415.92773 L 518.78516 439.74805 L 494.9668 453.5 L 481.21484 429.67969 L 505.0332 415.92773 z M 597.90039 415.92773 L 621.7207 429.67969 L 607.9668 453.5 L 584.14648 439.74609 L 597.90039 415.92773 z M 667.39648 415.92773 L 681.14844 439.74609 L 657.33008 453.5 L 643.57617 429.67969 L 667.39648 415.92773 z M 760.26172 415.92773 L 784.08203 429.67969 L 770.33008 453.5 L 746.50977 439.74609 L 760.26172 415.92773 z M 829.75977 415.92773 L 843.51172 439.74609 L 819.69141 453.5 L 805.93945 429.67969 L 829.75977 415.92773 z M 922.625 415.92773 L 946.44531 429.67969 L 932.69336 453.5 L 908.87305 439.74805 L 922.625 415.92773 z M 145.56055 442.75 L 153.45703 456.42773 L 137.66406 456.42773 L 145.56055 442.75 z M 632.64844 442.75 L 640.54492 456.42773 L 624.75195 456.42773 L 632.64844 442.75 z M 957.37305 442.75 L 965.26953 456.42773 L 949.47656 456.42773 L 957.37305 442.75 z M 307.92188 442.75195 L 315.81836 456.42773 L 300.02734 456.42773 L 307.92188 442.75195 z M 470.28711 442.75195 L 478.18164 456.42773 L 462.39062 456.42773 L 470.28711 442.75195 z M 795.01172 442.75195 L 802.90625 456.42773 L 787.11523 456.42773 L 795.01172 442.75195 z M 50.626953 450.67578 L 78.132812 450.67578 L 78.132812 478.17969 L 50.626953 478.17969 L 50.626953 450.67578 z M 212.98828 450.67578 L 240.49414 450.67578 L 240.49414 478.17969 L 212.98828 478.17969 L 212.98828 450.67578 z M 375.35156 450.67578 L 402.85742 450.67578 L 402.85742 478.17969 L 375.35156 478.17969 L 375.35156 450.67578 z M 537.71484 450.67578 L 565.21875 450.67578 L 565.21875 478.17969 L 537.71484 478.17969 L 537.71484 450.67578 z M 700.07617 450.67578 L 727.58203 450.67578 L 727.58203 478.17969 L 700.07617 478.17969 L 700.07617 450.67578 z M 862.43945 450.67578 L 889.94336 450.67578 L 889.94336 478.17969 L 862.43945 478.17969 L 862.43945 450.67578 z M 34.626953 456.53125 L 34.626953 472.32422 L 20.949219 464.42773 L 34.626953 456.53125 z M 94.132812 456.53125 L 107.80859 464.42773 L 94.132812 472.32422 L 94.132812 456.53125 z M 196.98828 456.53125 L 196.98828 472.32422 L 183.3125 464.42773 L 196.98828 456.53125 z M 256.49414 456.53125 L 270.17188 464.42773 L 256.49414 472.32422 L 256.49414 456.53125 z M 359.35156 456.53125 L 359.35156 472.32422 L 345.67578 464.42773 L 359.35156 456.53125 z M 418.85742 456.53125 L 432.5332 464.42773 L 418.85742 472.32422 L 418.85742 456.53125 z M 521.71484 456.53125 L 521.71484 472.32422 L 508.03711 464.42773 L 521.71484 456.53125 z M 581.21875 456.53125 L 594.89648 464.42773 L 581.21875 472.32422 L 581.21875 456.53125 z M 684.07617 456.53125 L 684.07617 472.32422 L 670.40039 464.42773 L 684.07617 456.53125 z M 743.58203 456.53125 L 757.25781 464.42773 L 743.58203 472.32422 L 743.58203 456.53125 z M 846.43945 456.53125 L 846.43945 472.32422 L 832.76367 464.42773 L 846.43945 456.53125 z M 905.94336 456.53125 L 919.62109 464.42773 L 905.94336 472.32422 L 905.94336 456.53125 z M 131.80859 472.42773 L 159.3125 472.42773 L 159.3125 499.93359 L 131.80859 499.93359 L 131.80859 472.42773 z M 294.17188 472.42773 L 321.67578 472.42773 L 321.67578 499.93359 L 294.17188 499.93359 L 294.17188 472.42773 z M 456.5332 472.42773 L 484.03711 472.42773 L 484.03711 499.93359 L 456.5332 499.93359 L 456.5332 472.42773 z M 618.89648 472.42773 L 646.40039 472.42773 L 646.40039 499.93359 L 618.89648 499.93359 L 618.89648 472.42773 z M 781.25781 472.42773 L 808.76367 472.42773 L 808.76367 499.93359 L 781.25781 499.93359 L 781.25781 472.42773 z M 115.80859 478.2832 L 115.80859 494.07617 L 102.13281 486.17969 L 115.80859 478.2832 z M 175.3125 478.2832 L 188.98828 486.17969 L 175.3125 494.07617 L 175.3125 478.2832 z M 278.17188 478.2832 L 278.17188 494.07617 L 264.49414 486.17969 L 278.17188 478.2832 z M 337.67578 478.2832 L 351.35156 486.17969 L 337.67578 494.07617 L 337.67578 478.2832 z M 440.5332 478.2832 L 440.5332 494.07617 L 426.85742 486.17969 L 440.5332 478.2832 z M 500.03711 478.2832 L 513.71484 486.17969 L 500.03711 494.07617 L 500.03711 478.2832 z M 602.89648 478.2832 L 602.89648 494.07617 L 589.21875 486.17969 L 602.89648 478.2832 z M 662.40039 478.2832 L 676.07617 486.17969 L 662.40039 494.07617 L 662.40039 478.2832 z M 765.25781 478.2832 L 765.25781 494.07617 L 751.58203 486.17969 L 765.25781 478.2832 z M 824.76367 478.2832 L 838.43945 486.17969 L 824.76367 494.07617 L 824.76367 478.2832 z M 927.62109 478.2832 L 927.62109 494.07617 L 913.94336 486.17969 L 927.62109 478.2832 z M 56.482422 494.17969 L 72.275391 494.17969 L 64.378906 507.85742 L 56.482422 494.17969 z M 218.8457 494.17969 L 234.63867 494.17969 L 226.74219 507.85742 L 218.8457 494.17969 z M 381.20703 494.17969 L 397.00195 494.17969 L 389.10547 507.85742 L 381.20703 494.17969 z M 543.57031 494.17969 L 559.36328 494.17969 L 551.4668 507.85742 L 543.57031 494.17969 z M 705.93359 494.17969 L 721.72656 494.17969 L 713.83008 507.85547 L 705.93359 494.17969 z M 868.29492 494.17969 L 884.08789 494.17969 L 876.19141 507.85547 L 868.29492 494.17969 z M 89.060547 497.10742 L 112.87891 510.86133 L 99.126953 534.68164 L 75.306641 520.92969 L 89.060547 497.10742 z M 202.06055 497.10742 L 215.81445 520.92969 L 191.99414 534.68164 L 178.24219 510.86133 L 202.06055 497.10742 z M 251.42188 497.10742 L 275.24219 510.86133 L 261.49023 534.68164 L 237.66992 520.92969 L 251.42188 497.10742 z M 364.42383 497.10742 L 378.17578 520.92969 L 354.35547 534.68164 L 340.60352 510.86133 L 364.42383 497.10742 z M 413.78516 497.10742 L 437.60547 510.86133 L 423.85352 534.68164 L 400.03125 520.92969 L 413.78516 497.10742 z M 526.78516 497.10742 L 540.53906 520.92969 L 516.71875 534.68164 L 502.9668 510.86133 L 526.78516 497.10742 z M 576.14648 497.10742 L 599.96875 510.86133 L 586.21484 534.68164 L 562.39453 520.92969 L 576.14648 497.10742 z M 689.14844 497.10742 L 702.90039 520.92969 L 679.08203 534.68164 L 665.33008 510.86133 L 689.14844 497.10742 z M 738.50977 497.10742 L 762.33008 510.86133 L 748.57812 534.68164 L 724.75781 520.92969 L 738.50977 497.10742 z M 851.51172 497.10742 L 865.26367 520.92969 L 841.44336 534.68164 L 827.69141 510.86133 L 851.51172 497.10742 z M 128.42773 515.93359 L 162.69336 515.93359 L 179.82812 545.60938 L 162.69336 575.28516 L 128.42773 575.28516 L 111.29297 545.60938 L 128.42773 515.93359 z M 290.78906 515.93359 L 325.05664 515.93359 L 342.19141 545.60938 L 325.05664 575.28516 L 290.78906 575.28516 L 273.65625 545.60938 L 290.78906 515.93359 z M 453.15234 515.93359 L 487.41797 515.93359 L 504.55273 545.60938 L 487.41992 575.28516 L 453.15234 575.28516 L 436.01953 545.60938 L 453.15234 515.93359 z M 615.51562 515.93359 L 649.78125 515.93359 L 666.91602 545.60938 L 649.78125 575.28516 L 615.51562 575.28516 L 598.38086 545.60938 L 615.51562 515.93359 z M 777.87695 515.93359 L 812.14453 515.93359 L 829.27734 545.60938 L 812.14453 575.28516 L 777.87695 575.28516 L 760.74414 545.60938 L 777.87695 515.93359 z M 56.378906 537.71289 L 56.378906 553.50586 L 42.703125 545.60938 L 56.378906 537.71289 z M 72.378906 537.71289 L 86.056641 545.60938 L 72.378906 553.50586 L 72.378906 537.71289 z M 218.74219 537.71289 L 218.74219 553.50586 L 205.06445 545.60938 L 218.74219 537.71289 z M 234.74219 537.71289 L 248.41797 545.60938 L 234.74219 553.50586 L 234.74219 537.71289 z M 381.10352 537.71289 L 381.10352 553.50586 L 367.42773 545.60938 L 381.10352 537.71289 z M 397.10352 537.71289 L 410.78125 545.60938 L 397.10352 553.50586 L 397.10352 537.71289 z M 543.4668 537.71289 L 543.4668 553.50586 L 529.78906 545.60938 L 543.4668 537.71289 z M 559.4668 537.71289 L 573.14258 545.60938 L 559.4668 553.50586 L 559.4668 537.71289 z M 705.82812 537.71289 L 705.82812 553.50391 L 692.15234 545.60938 L 705.82812 537.71289 z M 721.82812 537.71289 L 735.50586 545.60938 L 721.82812 553.50586 L 721.82812 537.71289 z M 868.19141 537.71289 L 868.19141 553.50586 L 854.51562 545.60938 L 868.19141 537.71289 z M 884.19141 537.71289 L 897.86719 545.60938 L 884.19141 553.50586 L 884.19141 537.71289 z M 99.126953 556.53711 L 112.87891 580.35742 L 89.060547 594.10938 L 75.306641 570.29102 L 99.126953 556.53711 z M 191.99414 556.53711 L 215.81445 570.29102 L 202.06055 594.10938 L 178.24219 580.35742 L 191.99414 556.53711 z M 261.49023 556.53711 L 275.24219 580.35742 L 251.42188 594.10938 L 237.66992 570.29102 L 261.49023 556.53711 z M 354.35547 556.53711 L 378.17578 570.29102 L 364.42383 594.10938 L 340.60352 580.35742 L 354.35547 556.53711 z M 423.85352 556.53711 L 437.60547 580.35742 L 413.78516 594.10938 L 400.03125 570.29102 L 423.85352 556.53711 z M 516.71875 556.53711 L 540.53906 570.29102 L 526.78516 594.10938 L 502.9668 580.35742 L 516.71875 556.53711 z M 586.21484 556.53711 L 599.96875 580.35742 L 576.14648 594.10938 L 562.39453 570.29102 L 586.21484 556.53711 z M 748.57812 556.53711 L 762.33008 580.35742 L 738.50977 594.10938 L 724.75781 570.28906 L 748.57812 556.53711 z M 841.44336 556.53711 L 865.26367 570.29102 L 851.51172 594.10938 L 827.69141 580.35742 L 841.44336 556.53711 z M 679.08203 556.53906 L 702.90039 570.29102 L 689.14844 594.10938 L 665.33008 580.35742 L 679.08203 556.53906 z M 64.378906 583.36133 L 72.273438 597.03711 L 56.482422 597.03711 L 64.378906 583.36133 z M 226.74219 583.36133 L 234.63867 597.03711 L 218.84766 597.03711 L 226.74219 583.36133 z M 389.10352 583.36133 L 397 597.03711 L 381.20703 597.03711 L 389.10352 583.36133 z M 551.4668 583.36133 L 559.36328 597.03711 L 543.57227 597.03711 L 551.4668 583.36133 z M 713.83008 583.36133 L 721.72461 597.03711 L 705.93359 597.03711 L 713.83008 583.36133 z M 876.19141 583.36133 L 884.08789 597.03711 L 868.29688 597.03711 L 876.19141 583.36133 z M 131.80859 591.28516 L 159.3125 591.28516 L 159.3125 618.78906 L 131.80859 618.78906 L 131.80859 591.28516 z M 294.17188 591.28516 L 321.67578 591.28516 L 321.67578 618.78906 L 294.17188 618.78906 L 294.17188 591.28516 z M 456.5332 591.28516 L 484.03711 591.28516 L 484.03711 618.78906 L 456.5332 618.78906 L 456.5332 591.28516 z M 618.89648 591.28516 L 646.40039 591.28516 L 646.40039 618.78906 L 618.89648 618.78906 L 618.89648 591.28516 z M 781.25781 591.28516 L 808.76367 591.28516 L 808.76367 618.78906 L 781.25781 618.78906 L 781.25781 591.28516 z M 278.17188 597.14062 L 278.17188 612.93359 L 264.49414 605.03711 L 278.17188 597.14062 z M 500.03711 597.14062 L 513.71289 605.03711 L 500.03711 612.93359 L 500.03711 597.14062 z M 602.89648 597.14062 L 602.89648 612.93359 L 589.2207 605.03711 L 602.89648 597.14062 z M 927.62109 597.14062 L 927.62109 612.93359 L 913.94531 605.03711 L 927.62109 597.14062 z M 115.80859 597.14258 L 115.80859 612.93359 L 102.13281 605.03711 L 115.80859 597.14258 z M 175.3125 597.14258 L 188.98828 605.03711 L 175.3125 612.93359 L 175.3125 597.14258 z M 337.67578 597.14258 L 351.35156 605.03711 L 337.67578 612.93359 L 337.67578 597.14258 z M 440.5332 597.14258 L 440.5332 612.93359 L 426.85742 605.03711 L 440.5332 597.14258 z M 662.40039 597.14258 L 676.07617 605.03711 L 662.40039 612.93359 L 662.40039 597.14258 z M 765.25781 597.14258 L 765.25781 612.93359 L 751.58203 605.03711 L 765.25781 597.14258 z M 824.76367 597.14258 L 838.43945 605.03711 L 824.76367 612.93359 L 824.76367 597.14258 z M 50.626953 613.03711 L 78.132812 613.03711 L 78.132812 640.54297 L 50.626953 640.54297 L 50.626953 613.03711 z M 212.98828 613.03711 L 240.49414 613.03711 L 240.49414 640.54297 L 212.98828 640.54297 L 212.98828 613.03711 z M 375.35156 613.03711 L 402.85742 613.03711 L 402.85742 640.54297 L 375.35156 640.54297 L 375.35156 613.03711 z M 537.71484 613.03711 L 565.21875 613.03711 L 565.21875 640.54297 L 537.71484 640.54297 L 537.71484 613.03711 z M 700.07617 613.03711 L 727.58203 613.03711 L 727.58203 640.54297 L 700.07617 640.54297 L 700.07617 613.03711 z M 862.43945 613.03711 L 889.94336 613.03711 L 889.94336 640.54297 L 862.43945 640.54297 L 862.43945 613.03711 z M 34.626953 618.89453 L 34.626953 634.6875 L 20.951172 626.79102 L 34.626953 618.89453 z M 94.132812 618.89453 L 107.80859 626.79102 L 94.132812 634.68555 L 94.132812 618.89453 z M 196.98828 618.89453 L 196.98828 634.68555 L 183.3125 626.79102 L 196.98828 618.89453 z M 256.49414 618.89453 L 270.16992 626.79102 L 256.49414 634.6875 L 256.49414 618.89453 z M 359.35156 618.89453 L 359.35156 634.68555 L 345.67578 626.79102 L 359.35156 618.89453 z M 418.85742 618.89453 L 432.5332 626.79102 L 418.85742 634.68555 L 418.85742 618.89453 z M 521.71484 618.89453 L 521.71484 634.68555 L 508.03906 626.78906 L 521.71484 618.89453 z M 581.21875 618.89453 L 594.89453 626.79102 L 581.21875 634.6875 L 581.21875 618.89453 z M 684.07617 618.89453 L 684.07617 634.68555 L 670.40039 626.79102 L 684.07617 618.89453 z M 743.58203 618.89453 L 757.25781 626.79102 L 743.58203 634.68555 L 743.58203 618.89453 z M 846.43945 618.89453 L 846.43945 634.68555 L 832.76367 626.79102 L 846.43945 618.89453 z M 905.94336 618.89453 L 919.61914 626.79102 L 905.94336 634.6875 L 905.94336 618.89453 z M 137.66406 634.78906 L 153.45703 634.78906 L 145.56055 648.4668 L 137.66406 634.78906 z M 300.02734 634.78906 L 315.82031 634.78906 L 307.92383 648.4668 L 300.02734 634.78906 z M 462.38867 634.78906 L 478.18164 634.78906 L 470.28516 648.4668 L 462.38867 634.78906 z M 624.75195 634.78906 L 640.54492 634.78906 L 632.64844 648.4668 L 624.75195 634.78906 z M 787.11328 634.78906 L 802.90625 634.78906 L 795.00977 648.4668 L 787.11328 634.78906 z M 949.47656 634.78906 L 965.26953 634.78906 L 957.37305 648.4668 L 949.47656 634.78906 z M 120.88086 637.71875 L 134.63281 661.53906 L 110.8125 675.29102 L 97.060547 651.4707 L 120.88086 637.71875 z M 170.24219 637.71875 L 194.06055 651.4707 L 180.30859 675.29102 L 156.49023 661.53906 L 170.24219 637.71875 z M 283.24219 637.71875 L 296.99414 661.53906 L 273.17578 675.29102 L 259.42188 651.4707 L 283.24219 637.71875 z M 332.60352 637.71875 L 356.42383 651.4707 L 342.66992 675.29102 L 318.85156 661.53906 L 332.60352 637.71875 z M 445.60547 637.71875 L 459.35742 661.53906 L 435.53711 675.29102 L 421.78516 651.4707 L 445.60547 637.71875 z M 494.9668 637.71875 L 518.78516 651.4707 L 505.0332 675.29102 L 481.21484 661.53906 L 494.9668 637.71875 z M 607.96875 637.71875 L 621.7207 661.53906 L 597.90039 675.29102 L 584.14648 651.4707 L 607.96875 637.71875 z M 657.32812 637.71875 L 681.14844 651.4707 L 667.39648 675.29102 L 643.57617 661.53906 L 657.32812 637.71875 z M 770.33008 637.71875 L 784.08203 661.53906 L 760.26172 675.29102 L 746.50977 651.4707 L 770.33008 637.71875 z M 819.69141 637.71875 L 843.51172 651.4707 L 829.75781 675.29102 L 805.93945 661.53906 L 819.69141 637.71875 z M 932.69336 637.71875 L 946.44531 661.53906 L 922.625 675.29102 L 908.87305 651.4707 L 932.69336 637.71875 z M 47.246094 656.54297 L 81.513672 656.54297 L 98.646484 686.21875 L 81.513672 715.89648 L 47.246094 715.89648 L 30.111328 686.21875 L 47.246094 656.54297 z M 209.60742 656.54297 L 243.875 656.54297 L 261.00977 686.21875 L 243.875 715.89648 L 209.60742 715.89648 L 192.47461 686.21875 L 209.60742 656.54297 z M 371.9707 656.54297 L 406.23828 656.54297 L 423.37109 686.21875 L 406.23828 715.89648 L 371.9707 715.89648 L 354.83594 686.21875 L 371.9707 656.54297 z M 534.33398 656.54297 L 568.59961 656.54297 L 585.73438 686.21875 L 568.59961 715.89648 L 534.33203 715.89648 L 517.19922 686.21875 L 534.33398 656.54297 z M 696.69531 656.54297 L 730.96289 656.54297 L 748.09766 686.21875 L 730.96289 715.89648 L 696.69531 715.89648 L 679.5625 686.21875 L 696.69531 656.54297 z M 859.05859 656.54297 L 893.32617 656.54297 L 910.45898 686.21875 L 893.32422 715.89648 L 859.05859 715.89648 L 841.92383 686.21875 L 859.05859 656.54297 z M 137.56055 678.32227 L 137.56055 694.11523 L 123.88477 686.21875 L 137.56055 678.32227 z M 153.56055 678.32227 L 167.23633 686.21875 L 153.56055 694.11523 L 153.56055 678.32227 z M 299.92383 678.32227 L 299.92383 694.11523 L 286.24609 686.21875 L 299.92383 678.32227 z M 315.92383 678.32227 L 329.59961 686.21875 L 315.92383 694.11523 L 315.92383 678.32227 z M 462.28516 678.32227 L 462.28516 694.11523 L 448.60938 686.21875 L 462.28516 678.32227 z M 478.28516 678.32227 L 491.96289 686.21875 L 478.28516 694.11523 L 478.28516 678.32227 z M 624.64844 678.32227 L 624.64844 694.11523 L 610.97266 686.21875 L 624.64844 678.32227 z M 640.64844 678.32227 L 654.32422 686.21875 L 640.64844 694.11523 L 640.64844 678.32227 z M 787.01172 678.32227 L 787.01172 694.11523 L 773.33398 686.21875 L 787.01172 678.32227 z M 803.01172 678.32227 L 816.6875 686.21875 L 803.01172 694.11523 L 803.01172 678.32227 z M 949.37305 678.32227 L 949.37305 694.11523 L 935.69727 686.21875 L 949.37305 678.32227 z M 965.37305 678.32227 L 979.04883 686.21875 L 965.37305 694.11523 L 965.37305 678.32227 z M 110.8125 697.14648 L 134.63281 710.90039 L 120.87891 734.7207 L 97.060547 720.96875 L 110.8125 697.14648 z M 180.30859 697.14648 L 194.06055 720.96875 L 170.24219 734.7207 L 156.48828 710.90039 L 180.30859 697.14648 z M 273.17578 697.14648 L 296.99414 710.90039 L 283.24219 734.7207 L 259.42188 720.9668 L 273.17578 697.14648 z M 342.66992 697.14648 L 356.42383 720.96875 L 332.60352 734.7207 L 318.85156 710.90039 L 342.66992 697.14648 z M 435.53711 697.14648 L 459.35742 710.90039 L 445.60547 734.7207 L 421.78516 720.96875 L 435.53711 697.14648 z M 505.0332 697.14648 L 518.78516 720.96875 L 494.9668 734.7207 L 481.21484 710.90039 L 505.0332 697.14648 z M 597.90039 697.14648 L 621.7207 710.90039 L 607.96875 734.7207 L 584.14648 720.9668 L 597.90039 697.14648 z M 667.39648 697.14648 L 681.14844 720.96875 L 657.33008 734.7207 L 643.57617 710.90039 L 667.39648 697.14648 z M 760.26172 697.14648 L 784.08203 710.90039 L 770.33008 734.7207 L 746.50977 720.96875 L 760.26172 697.14648 z M 922.625 697.14648 L 946.44531 710.90039 L 932.69336 734.7207 L 908.87305 720.96875 L 922.625 697.14648 z M 829.75781 697.14844 L 843.50977 720.96875 L 819.69141 734.7207 L 805.93945 710.90039 L 829.75781 697.14844 z M 145.56055 723.97266 L 153.45703 737.64844 L 137.66406 737.64844 L 145.56055 723.97266 z M 307.92383 723.97266 L 315.81836 737.64844 L 300.02734 737.64844 L 307.92383 723.97266 z M 470.28516 723.97266 L 478.18164 737.64844 L 462.39062 737.64844 L 470.28516 723.97266 z M 632.64844 723.97266 L 640.54492 737.64844 L 624.75195 737.64844 L 632.64844 723.97266 z M 795.00977 723.97266 L 802.90625 737.64844 L 787.11523 737.64844 L 795.00977 723.97266 z M 957.37305 723.97266 L 965.26953 737.64844 L 949.47656 737.64844 L 957.37305 723.97266 z M 50.626953 731.89648 L 78.132812 731.89648 L 78.132812 759.40039 L 50.626953 759.40039 L 50.626953 731.89648 z M 212.98828 731.89648 L 240.49414 731.89648 L 240.49414 759.40039 L 212.98828 759.40039 L 212.98828 731.89648 z M 375.35156 731.89648 L 402.85742 731.89648 L 402.85742 759.40039 L 375.35156 759.40039 L 375.35156 731.89648 z M 537.71484 731.89648 L 565.21875 731.89648 L 565.21875 759.40039 L 537.71484 759.40039 L 537.71484 731.89648 z M 700.07617 731.89648 L 727.58203 731.89648 L 727.58203 759.40039 L 700.07617 759.40039 L 700.07617 731.89648 z M 862.43945 731.89648 L 889.94336 731.89648 L 889.94336 759.40039 L 862.43945 759.40039 L 862.43945 731.89648 z M 34.626953 737.75195 L 34.626953 753.54492 L 20.949219 745.64844 L 34.626953 737.75195 z M 94.132812 737.75195 L 107.80859 745.64844 L 94.132812 753.54492 L 94.132812 737.75195 z M 196.98828 737.75195 L 196.98828 753.54492 L 183.3125 745.64844 L 196.98828 737.75195 z M 256.49414 737.75195 L 270.17188 745.64844 L 256.49414 753.54492 L 256.49414 737.75195 z M 359.35156 737.75195 L 359.35156 753.54492 L 345.67578 745.64844 L 359.35156 737.75195 z M 418.85742 737.75195 L 432.5332 745.64844 L 418.85742 753.54492 L 418.85742 737.75195 z M 521.71484 737.75195 L 521.71484 753.54492 L 508.03711 745.64844 L 521.71484 737.75195 z M 581.21875 737.75195 L 594.89648 745.64844 L 581.21875 753.54492 L 581.21875 737.75195 z M 684.07617 737.75195 L 684.07617 753.54492 L 670.40039 745.64844 L 684.07617 737.75195 z M 743.58203 737.75195 L 757.25781 745.64844 L 743.58203 753.54492 L 743.58203 737.75195 z M 846.43945 737.75195 L 846.43945 753.54492 L 832.76367 745.64844 L 846.43945 737.75195 z M 905.94336 737.75195 L 919.62109 745.64844 L 905.94336 753.54492 L 905.94336 737.75195 z M 131.80859 753.64844 L 159.3125 753.64844 L 159.3125 781.15234 L 131.80859 781.15234 L 131.80859 753.64844 z M 294.17188 753.64844 L 321.67578 753.64844 L 321.67578 781.15234 L 294.17188 781.15234 L 294.17188 753.64844 z M 456.5332 753.64844 L 484.03711 753.64844 L 484.03711 781.15234 L 456.5332 781.15234 L 456.5332 753.64844 z M 618.89648 753.64844 L 646.40039 753.64844 L 646.40039 781.15234 L 618.89648 781.15234 L 618.89648 753.64844 z M 781.25781 753.64844 L 808.76367 753.64844 L 808.76367 781.15234 L 781.25781 781.15234 L 781.25781 753.64844 z M 115.80859 759.50391 L 115.80859 775.29688 L 102.13281 767.40039 L 115.80859 759.50391 z M 175.3125 759.50391 L 188.98828 767.40039 L 175.3125 775.29688 L 175.3125 759.50391 z M 278.17188 759.50391 L 278.17188 775.29688 L 264.49414 767.40039 L 278.17188 759.50391 z M 337.67578 759.50391 L 351.35156 767.40039 L 337.67578 775.29688 L 337.67578 759.50391 z M 440.5332 759.50391 L 440.5332 775.29688 L 426.85742 767.40039 L 440.5332 759.50391 z M 500.03711 759.50391 L 513.71484 767.40039 L 500.03711 775.29688 L 500.03711 759.50391 z M 602.89648 759.50391 L 602.89648 775.29688 L 589.21875 767.40039 L 602.89648 759.50391 z M 662.40039 759.50391 L 676.07617 767.40039 L 662.40039 775.29688 L 662.40039 759.50391 z M 765.25781 759.50391 L 765.25781 775.29688 L 751.58203 767.40039 L 765.25781 759.50391 z M 824.76367 759.50391 L 838.43945 767.40039 L 824.76367 775.29688 L 824.76367 759.50391 z M 927.62109 759.50391 L 927.62109 775.29688 L 913.94336 767.40039 L 927.62109 759.50391 z M 56.482422 775.40039 L 72.275391 775.40039 L 64.378906 789.07617 L 56.482422 775.40039 z M 218.8457 775.40039 L 234.63867 775.40039 L 226.74219 789.07617 L 218.8457 775.40039 z M 381.20898 775.40039 L 397 775.40039 L 389.10547 789.07617 L 381.20898 775.40039 z M 543.57031 775.40039 L 559.36328 775.40039 L 551.4668 789.07617 L 543.57031 775.40039 z M 705.93359 775.40039 L 721.72461 775.40039 L 713.83008 789.07617 L 705.93359 775.40039 z M 868.29688 775.40039 L 884.08789 775.40039 L 876.19141 789.07617 L 868.29688 775.40039 z M 89.060547 778.32812 L 112.87891 792.08008 L 99.126953 815.90039 L 75.306641 802.14844 L 89.060547 778.32812 z M 202.06055 778.32812 L 215.81445 802.14844 L 191.99414 815.90039 L 178.24219 792.08008 L 202.06055 778.32812 z M 251.42188 778.32812 L 275.24219 792.08008 L 261.49023 815.90039 L 237.66992 802.14844 L 251.42188 778.32812 z M 364.42383 778.32812 L 378.17578 802.14844 L 354.35547 815.90039 L 340.60352 792.08203 L 364.42383 778.32812 z M 413.78516 778.32812 L 437.60547 792.08203 L 423.85352 815.90039 L 400.03125 802.14844 L 413.78516 778.32812 z M 526.78516 778.32812 L 540.53906 802.14844 L 516.71875 815.90039 L 502.9668 792.08203 L 526.78516 778.32812 z M 576.14648 778.32812 L 599.96875 792.08203 L 586.21484 815.90039 L 562.39453 802.14844 L 576.14648 778.32812 z M 689.14844 778.32812 L 702.90039 802.14844 L 679.08203 815.90039 L 665.33008 792.08008 L 689.14844 778.32812 z M 738.50977 778.32812 L 762.33008 792.08203 L 748.57812 815.90039 L 724.75781 802.14844 L 738.50977 778.32812 z M 851.51172 778.32812 L 865.26367 802.14844 L 841.44336 815.90039 L 827.69141 792.08203 L 851.51172 778.32812 z M 128.42773 797.15234 L 162.69336 797.15234 L 179.82812 826.82812 L 162.69336 856.50586 L 128.42773 856.50586 L 111.29297 826.82812 L 128.42773 797.15234 z M 290.78906 797.15234 L 325.05664 797.15234 L 342.19141 826.82812 L 325.05664 856.50586 L 290.79102 856.50586 L 273.65625 826.82812 L 290.78906 797.15234 z M 453.15234 797.15234 L 487.41992 797.15234 L 504.55273 826.82812 L 487.41992 856.50586 L 453.15234 856.50586 L 436.01758 826.82812 L 453.15234 797.15234 z M 615.51562 797.15234 L 649.78125 797.15234 L 666.91602 826.82812 L 649.78125 856.50586 L 615.51562 856.50586 L 598.38086 826.82812 L 615.51562 797.15234 z M 777.87695 797.15234 L 812.14453 797.15234 L 829.2793 826.82812 L 812.14453 856.50586 L 777.87695 856.50586 L 760.74414 826.82812 L 777.87695 797.15234 z M 56.378906 818.93359 L 56.378906 834.72461 L 42.703125 826.83008 L 56.378906 818.93359 z M 72.378906 818.93359 L 86.054688 826.83008 L 72.378906 834.72656 L 72.378906 818.93359 z M 218.74219 818.93359 L 218.74219 834.72656 L 205.06641 826.83008 L 218.74219 818.93359 z M 234.74219 818.93359 L 248.41797 826.83008 L 234.74219 834.72461 L 234.74219 818.93359 z M 381.10352 818.93359 L 381.10352 834.72461 L 367.42773 826.83008 L 381.10352 818.93359 z M 397.10352 818.93359 L 410.7793 826.83008 L 397.10352 834.72656 L 397.10352 818.93359 z M 543.4668 818.93359 L 543.4668 834.72656 L 529.79102 826.83008 L 543.4668 818.93359 z M 559.4668 818.93359 L 573.14258 826.83008 L 559.4668 834.72461 L 559.4668 818.93359 z M 705.82812 818.93359 L 705.82812 834.72461 L 692.15234 826.83008 L 705.82812 818.93359 z M 721.82812 818.93359 L 735.50586 826.83008 L 721.82812 834.72656 L 721.82812 818.93359 z M 868.19141 818.93359 L 868.19141 834.72461 L 854.51562 826.83008 L 868.19141 818.93359 z M 884.19141 818.93359 L 897.86719 826.83008 L 884.19141 834.72461 L 884.19141 818.93359 z M 99.126953 837.75781 L 112.87891 861.57812 L 89.060547 875.33008 L 75.306641 851.50977 L 99.126953 837.75781 z M 191.99414 837.75781 L 215.81445 851.50977 L 202.06055 875.33008 L 178.24219 861.57812 L 191.99414 837.75781 z M 261.49023 837.75781 L 275.24219 861.57812 L 251.42188 875.33008 L 237.66992 851.50977 L 261.49023 837.75781 z M 354.35547 837.75781 L 378.17578 851.50977 L 364.42383 875.33008 L 340.60352 861.57812 L 354.35547 837.75781 z M 423.85352 837.75781 L 437.60547 861.57812 L 413.78516 875.33008 L 400.03125 851.50977 L 423.85352 837.75781 z M 516.71875 837.75781 L 540.53906 851.50977 L 526.78516 875.33008 L 502.9668 861.57812 L 516.71875 837.75781 z M 586.21484 837.75781 L 599.96875 861.57812 L 576.14648 875.33008 L 562.39453 851.50977 L 586.21484 837.75781 z M 679.08203 837.75781 L 702.90039 851.50977 L 689.14844 875.33008 L 665.33008 861.57812 L 679.08203 837.75781 z M 748.57812 837.75781 L 762.33008 861.57812 L 738.50977 875.33008 L 724.75781 851.50977 L 748.57812 837.75781 z M 841.44336 837.75781 L 865.26367 851.50977 L 851.51172 875.33008 L 827.69141 861.57812 L 841.44336 837.75781 z M 389.10352 864.58008 L 397 878.25781 L 381.20703 878.25781 L 389.10352 864.58008 z M 64.378906 864.58203 L 72.275391 878.25781 L 56.482422 878.25781 L 64.378906 864.58203 z M 226.74219 864.58203 L 234.63867 878.25781 L 218.8457 878.25781 L 226.74219 864.58203 z M 551.4668 864.58203 L 559.36328 878.25781 L 543.57031 878.25781 L 551.4668 864.58203 z M 713.83008 864.58203 L 721.72461 878.25781 L 705.93359 878.25781 L 713.83008 864.58203 z M 876.19141 864.58203 L 884.08789 878.25781 L 868.29688 878.25781 L 876.19141 864.58203 z M 131.80859 872.50586 L 159.3125 872.50586 L 159.3125 900.00977 L 131.80859 900.00977 L 131.80859 872.50586 z M 294.17188 872.50586 L 321.67578 872.50586 L 321.67578 900.00977 L 294.17188 900.00977 L 294.17188 872.50586 z M 456.5332 872.50586 L 484.03711 872.50586 L 484.03711 900.00977 L 456.5332 900.00977 L 456.5332 872.50586 z M 618.89648 872.50586 L 646.40039 872.50586 L 646.40039 900.00977 L 618.89648 900.00977 L 618.89648 872.50586 z M 781.25781 872.50586 L 808.76367 872.50586 L 808.76367 900.00977 L 781.25781 900.00977 L 781.25781 872.50586 z M 115.80859 878.36133 L 115.80859 894.1543 L 102.13281 886.25781 L 115.80859 878.36133 z M 175.3125 878.36133 L 188.98828 886.25781 L 175.3125 894.1543 L 175.3125 878.36133 z M 278.17188 878.36133 L 278.17188 894.1543 L 264.49414 886.25781 L 278.17188 878.36133 z M 337.67578 878.36133 L 351.35156 886.25781 L 337.67578 894.1543 L 337.67578 878.36133 z M 440.5332 878.36133 L 440.5332 894.1543 L 426.85742 886.25781 L 440.5332 878.36133 z M 500.03711 878.36133 L 513.71484 886.25781 L 500.03711 894.1543 L 500.03711 878.36133 z M 602.89648 878.36133 L 602.89648 894.1543 L 589.21875 886.25781 L 602.89648 878.36133 z M 662.40039 878.36133 L 676.07617 886.25781 L 662.40039 894.1543 L 662.40039 878.36133 z M 765.25781 878.36133 L 765.25781 894.1543 L 751.58203 886.25781 L 765.25781 878.36133 z M 824.76367 878.36133 L 838.43945 886.25781 L 824.76367 894.1543 L 824.76367 878.36133 z M 927.62109 878.36133 L 927.62109 894.1543 L 913.94336 886.25781 L 927.62109 878.36133 z M 34.626953 900.11328 L 34.626953 915.90625 L 20.949219 908.00977 L 34.626953 900.11328 z M 94.132812 900.11328 L 107.80859 908.00977 L 94.132812 915.90625 L 94.132812 900.11328 z M 196.98828 900.11328 L 196.98828 915.90625 L 183.3125 908.00977 L 196.98828 900.11328 z M 256.49414 900.11328 L 270.17188 908.00977 L 256.49414 915.90625 L 256.49414 900.11328 z M 359.35156 900.11328 L 359.35156 915.90625 L 345.67578 908.00977 L 359.35156 900.11328 z M 418.85742 900.11328 L 432.5332 908.00977 L 418.85742 915.90625 L 418.85742 900.11328 z M 521.71484 900.11328 L 521.71484 915.90625 L 508.03711 908.00977 L 521.71484 900.11328 z M 581.21875 900.11328 L 594.89648 908.00977 L 581.21875 915.90625 L 581.21875 900.11328 z M 684.07617 900.11328 L 684.07617 915.90625 L 670.40039 908.00977 L 684.07617 900.11328 z M 743.58203 900.11328 L 757.25781 908.00977 L 743.58203 915.90625 L 743.58203 900.11328 z M 846.43945 900.11328 L 846.43945 915.90625 L 832.76367 908.00977 L 846.43945 900.11328 z M 905.94336 900.11328 L 919.62109 908.00977 L 905.94336 915.90625 L 905.94336 900.11328 z M 137.66406 916.00977 L 153.45703 916.00977 L 145.56055 929.6875 L 137.66406 916.00977 z M 300.02734 916.00977 L 315.82031 916.00977 L 307.92383 929.68555 L 300.02734 916.00977 z M 462.38867 916.00977 L 478.18164 916.00977 L 470.28516 929.68555 L 462.38867 916.00977 z M 624.75195 916.00977 L 640.54492 916.00977 L 632.64844 929.6875 L 624.75195 916.00977 z M 787.11328 916.00977 L 802.90625 916.00977 L 795.00977 929.68555 L 787.11328 916.00977 z M 949.47656 916.00977 L 965.26953 916.00977 L 957.37305 929.6875 L 949.47656 916.00977 z M 137.56055 959.54297 L 137.56055 975.33594 L 123.88477 967.43945 L 137.56055 959.54297 z M 153.56055 959.54297 L 167.23633 967.43945 L 153.56055 975.33594 L 153.56055 959.54297 z M 299.92383 959.54297 L 299.92383 975.33594 L 286.24609 967.43945 L 299.92383 959.54297 z M 315.92383 959.54297 L 329.59961 967.43945 L 315.92383 975.33594 L 315.92383 959.54297 z M 462.28516 959.54297 L 462.28516 975.33594 L 448.60938 967.43945 L 462.28516 959.54297 z M 478.28516 959.54297 L 491.96289 967.43945 L 478.28516 975.33594 L 478.28516 959.54297 z M 624.64844 959.54297 L 624.64844 975.33594 L 610.97266 967.43945 L 624.64844 959.54297 z M 640.64844 959.54297 L 654.32422 967.43945 L 640.64844 975.33594 L 640.64844 959.54297 z M 787.01172 959.54297 L 787.01172 975.33594 L 773.33398 967.43945 L 787.01172 959.54297 z M 803.01172 959.54297 L 816.6875 967.43945 L 803.01172 975.33594 L 803.01172 959.54297 z M 949.37305 959.54297 L 949.37305 975.33594 L 935.69727 967.43945 L 949.37305 959.54297 z "
     id="path834" />
</svg>
