<?xml version="1.0" encoding="UTF-8" standalone="no"?>
<svg
   xmlns:dc="http://purl.org/dc/elements/1.1/"
   xmlns:cc="http://creativecommons.org/ns#"
   xmlns:rdf="http://www.w3.org/1999/02/22-rdf-syntax-ns#"
   xmlns:svg="http://www.w3.org/2000/svg"
   xmlns="http://www.w3.org/2000/svg"
   xmlns:sodipodi="http://sodipodi.sourceforge.net/DTD/sodipodi-0.dtd"
   xmlns:inkscape="http://www.inkscape.org/namespaces/inkscape"
   inkscape:version="1.0beta1 (32d4812, 2019-09-19)"
   sodipodi:docname="3-uniform_53.svg"
   id="c:\kuniform\3u\3-uniform_53.svg"
   height="988.6106"
   width="1000.0"
   version="1.0">
  <metadata
     id="metadata124435">
    <rdf:RDF>
      <cc:Work
         rdf:about="">
        <dc:format>image/svg+xml</dc:format>
        <dc:type
           rdf:resource="http://purl.org/dc/dcmitype/StillImage" />
        <dc:title></dc:title>
      </cc:Work>
    </rdf:RDF>
  </metadata>
  <defs
     id="defs124433" />
  <sodipodi:namedview
     inkscape:current-layer="c:\kuniform\3u\3-uniform_53.svg"
     inkscape:window-maximized="1"
     inkscape:window-y="23"
     inkscape:window-x="0"
     inkscape:cy="507.55599"
     inkscape:cx="324.28856"
     inkscape:zoom="0.61449171"
     showgrid="false"
     id="namedview124431"
     inkscape:window-height="1005"
     inkscape:window-width="1680"
     inkscape:pageshadow="2"
     inkscape:pageopacity="0"
     guidetolerance="10"
     gridtolerance="10"
     objecttolerance="10"
     borderopacity="1"
     inkscape:document-rotation="0"
     bordercolor="#666666"
     pagecolor="#ffffff" />
  <!-- X Coordinate transform: fx(x)=(x+90.68921)*0.8416962-->
  <!-- Y Coordinate transform: fy(y)=(1090.6222-y)*0.8416962 -->
  <path
     d="m 901.114,89.064 21.042,-36.447 m 21.043,78.532 36.446,-21.043 m -95.446,827.398 21.043,-36.446 M 152.247,56.745 173.29,20.298 M 89.12,135.276 110.163,98.83 m -84.17,114.977 21.042,-36.446 m 88.297,727.824 -21.042,-36.446 m 63.127,78.531 -21.042,36.446 m 685.739,-46.212 v 42.085 M 922.156,167.595 901.114,131.149 M 859.029,89.064 880.072,52.617 M 135.332,947.27 114.29,983.716 m 748.867,-82.658 21.042,36.446 m 21.043,-78.531 21.042,-36.447 M 131.205,135.276 152.247,98.83 M 68.078,213.807 89.12,177.361 M 77.844,847.696 114.29,826.654 m 42.085,42.085 -21.043,36.446 v 42.085 l 21.043,36.446 m 649.293,-67.254 v 42.085 M 958.603,230.722 V 188.637 M 56.801,926.228 93.248,905.185 m 828.908,-695.505 36.447,-21.043 21.042,-36.446 m -99.573,15.404 21.042,-36.446 V 89.064 L 880.072,52.617 m -74.404,905.93 36.446,-21.043 21.043,-36.446 v -42.085 m 21.042,-36.447 21.043,36.447 v 42.085 l 21.042,36.446 m 0,-157.062 21.042,-36.447 M 56.801,884.143 20.355,905.185 M 194.332,98.83 V 56.745 l 21.043,-36.447 m 72.893,42.085 V 20.298 M 366.799,41.341 387.841,4.894 M 408.884,41.341 429.926,4.894 M 56.801,926.228 V 884.143 L 77.844,847.696 V 805.611 M 62.439,748.123 V 706.038 M 173.29,135.276 194.332,98.83 230.779,77.787 M 110.163,213.807 89.12,177.361 V 135.276 L 68.078,98.83 M 47.035,292.339 68.078,255.892 M 110.163,56.745 89.12,20.298 m 88.297,884.887 21.043,-36.446 m 21.042,36.446 H 177.417 135.332 93.248 L 56.801,884.143 20.355,863.1 m 235.594,63.128 v 42.084 m 513.272,-30.808 v -42.085 m 68.766,-727.824 21.042,-36.446 m -42.085,0 h 42.085 42.085 42.085 l 36.446,21.042 M 780.498,110.106 V 68.021 m -72.893,-42.084 36.446,21.042 v 42.085 m -36.446,-21.043 36.446,-21.042 36.447,21.042 36.446,21.043 m 120.617,220.19 v -42.085 m 15.404,141.658 v -42.084 m -26.681,570.761 21.042,-36.446 M 826.71,880.015 V 837.93 m 57.489,-57.488 v 42.084 l -21.042,36.447 -36.447,21.042 -21.042,36.447 -36.447,21.042 -21.042,36.447 M 947.326,901.058 V 858.973 L 926.284,822.526 V 780.442 L 905.242,743.995 M 230.779,119.872 267.225,98.83 M 450.969,83.425 487.415,62.383 M 41.397,826.654 V 784.569 L 62.439,748.123 98.886,727.08 M 83.482,669.591 V 627.506 M 173.29,177.361 V 135.276 L 152.247,98.83 V 56.745 L 131.205,20.298 m 21.042,193.509 -21.042,-36.446 M 943.199,89.064 922.156,52.617 M 816.944,89.064 h 42.085 42.085 42.085 l 36.446,21.042 M 89.12,292.339 110.163,255.892 m 790.951,-9.766 21.042,-36.446 v -42.085 l 21.043,-36.446 V 89.064 L 964.241,52.617 M 690.69,916.462 669.648,952.908 M 549.031,931.866 v 42.085 m 99.574,-57.489 -21.042,36.446 m -21.043,-36.446 21.043,36.446 M 98.886,769.165 135.332,748.123 m 21.043,78.531 21.042,-36.447 m 172.467,141.659 21.042,36.446 M 135.332,790.207 114.29,826.654 v 42.085 l -21.042,36.446 v 42.085 l 21.042,36.446 m 786.824,-695.505 36.447,-21.042 21.042,-36.447 m -99.574,15.404 21.043,-36.446 M 686.562,104.468 665.52,68.021 M 916.518,387.785 V 345.7 m 15.404,141.659 V 445.274 M 790.264,858.973 v -42.085 m 57.489,-15.404 v -42.085 m -114.978,157.063 36.446,-21.043 21.043,-36.446 36.446,-21.043 21.043,-36.446 36.446,-21.042 21.043,-36.447 V 701.91 m 42.084,42.085 V 701.91 L 926.284,665.464 M 194.332,56.745 H 152.247 110.163 68.078 L 31.631,77.787 m 235.594,63.127 V 98.83 l 21.043,-36.447 36.446,-21.042 m 162.701,63.127 V 62.383 l 21.042,-36.446 m -162.7,93.935 21.042,-36.447 m 21.042,36.447 21.043,-36.447 m 21.042,36.447 -21.042,-36.447 V 41.341 L 387.841,4.894 m -267.913,685.74 v -42.085 m 32.319,-392.657 v -42.085 l 21.043,-36.446 36.446,-21.043 m -78.531,136.021 21.042,-36.447 36.447,-21.042 m -84.17,356.21 V 548.975 M 68.078,527.933 47.035,491.486 v -42.085 l 21.043,-36.446 m 0,-42.085 21.042,-36.446 m 0,114.977 -21.042,-36.446 V 370.87 L 47.035,334.424 v -42.085 m 344.934,639.527 -21.043,36.446 m 63.128,-36.446 -21.043,36.446 m 99.574,-57.489 v 42.085 m 57.489,-57.489 36.446,-21.042 M 156.375,711.676 135.332,748.123 v 42.084 l 21.043,36.447 v 42.085 l 21.042,36.446 v 42.085 l 21.043,36.446 m 0,-157.062 21.042,-36.447 m 21.042,36.447 H 198.46 156.375 114.29 L 77.844,805.611 41.397,784.569 4.951,805.611 m 272.04,84.17 v -42.085 m -57.489,99.574 36.447,-21.042 21.042,-36.447 36.447,-21.042 m 0,42.084 36.446,-21.042 M 644.478,104.468 665.52,68.021 m 25.17,806.356 21.042,-36.447 m 89.808,-806.355 36.447,21.042 21.042,36.447 v 42.085 l 21.043,36.446 v 42.085 l 21.042,36.446 v 42.085 l -21.042,36.447 m -63.128,-78.532 21.043,-36.446 m -42.085,0 h 42.085 42.085 42.084 l 36.447,21.042 36.446,-21.042 M 759.456,188.637 v -42.084 m -36.447,21.042 V 125.51 m -36.447,21.043 36.447,-21.043 21.042,-36.446 36.447,-21.043 21.042,-36.446 m 78.532,335.168 36.446,-21.043 21.043,-36.446 36.446,-21.043 M 868.795,722.953 905.242,701.91 926.284,665.464 V 623.379 M 895.476,466.316 V 424.231 M 910.88,565.89 v -42.085 m -99.574,256.637 v -42.085 m -36.446,21.042 36.446,21.043 36.447,21.042 36.446,21.042 h 42.085 42.085 m -214.552,15.404 36.447,-21.042 21.042,-36.446 36.447,-21.043 21.042,-36.446 V 680.868 M 602.393,104.468 623.435,68.021 M 209.736,198.403 v -42.085 l 21.043,-36.446 V 77.787 l 21.042,-36.446 36.447,-21.043 36.446,21.043 h 42.085 42.085 42.085 l 36.446,21.042 36.447,21.042 36.446,21.043 h 42.085 42.085 42.084 l 36.447,21.042 36.447,21.043 36.446,21.042 h 42.085 42.085 42.084 l 36.447,21.042 36.446,21.043 M 523.862,125.51 V 83.425 m -93.936,78.532 36.447,-21.043 M 20.355,863.1 41.397,826.654 77.844,805.611 98.886,769.165 V 727.08 l 21.042,-36.446 36.447,-21.043 M 25.993,684.995 47.035,648.549 83.482,627.506 104.524,591.06 140.971,570.017 M 246.183,219.446 v -42.085 m -57.489,99.574 V 234.85 l 21.042,-36.447 36.447,-21.042 21.042,-36.447 36.447,-21.042 M 131.205,334.424 167.651,313.381 M 89.12,491.486 125.567,470.444 M 110.163,370.87 89.12,334.424 V 292.339 L 68.078,255.892 V 213.807 L 47.035,177.361 V 135.276 L 68.078,98.83 V 56.745 L 89.12,20.298 M 68.078,570.017 V 527.933 L 89.12,491.486 v -42.085 l 21.043,-36.446 V 370.87 l 21.042,-36.446 v -42.085 l -21.042,-36.447 v -42.085 l 21.042,-36.446 V 135.276 L 110.163,98.83 V 56.745 l 21.042,-36.447 m 517.4,854.079 21.043,-36.447 m -157.063,114.978 36.446,-21.042 21.043,-36.447 v -42.084 m 57.489,-15.405 21.042,36.447 v 42.085 l 21.043,36.446 M 177.417,748.123 198.46,711.676 M 391.969,889.781 370.926,853.335 M 837.987,324.658 859.029,288.211 M 665.52,182.999 644.478,146.553 M 623.435,68.021 h 42.085 42.085 l 36.446,21.043 36.447,21.042 36.446,21.043 21.043,36.446 v 42.085 l 21.042,36.446 v 42.085 l 21.043,36.447 v 42.085 l -21.043,36.446 m 0,42.085 36.447,-21.043 21.042,-36.446 36.447,-21.042 21.042,-36.447 m -84.17,314.125 v -42.085 m -15.404,-57.488 v -42.085 m -162.701,293.083 21.043,-36.447 m 99.574,-57.489 v -42.085 m 21.042,-36.446 36.446,-21.043 21.043,-36.446 36.446,-21.042 21.043,-36.447 M 324.714,198.403 345.757,161.957 m 120.616,21.042 v -42.085 l 21.042,-36.446 36.447,-21.043 21.042,-36.446 36.446,-21.042 m -214.551,172.466 21.042,-36.446 m 21.043,36.446 -21.043,-36.446 V 119.872 L 366.799,83.425 V 41.341 L 345.757,4.894 m -168.34,628.251 -21.042,36.446 v 42.085 l 21.042,36.447 v 42.084 l 21.043,36.447 v 42.085 l 21.042,36.446 36.447,21.043 36.446,21.042 36.447,21.042 M 140.971,612.102 177.417,591.06 M 225.14,297.977 v -42.085 m -57.489,99.574 v -42.085 l 21.043,-36.446 36.446,-21.043 21.043,-36.446 36.446,-21.043 m -157.062,314.126 36.446,-21.043 m -51.85,-78.531 36.446,-21.043 m 0,42.085 v -42.085 l 21.042,-36.446 36.447,-21.042 m 208.913,518.911 -21.042,36.446 v 42.085 l 21.042,36.446 m 21.043,-78.531 21.042,-36.446 m 42.085,0 36.446,21.042 36.447,21.042 36.446,21.043 h 42.085 42.085 42.085 l 36.446,21.042 36.447,21.043 36.446,21.042 M 533.627,874.377 v -42.085 m 57.489,-15.404 36.447,-21.042 m -408.061,-47.723 21.042,-36.447 m 21.043,36.447 H 219.502 177.417 135.332 L 98.886,727.08 62.439,706.038 25.993,684.995 m 272.04,126.255 v -42.085 m 36.447,63.127 v -42.085 m 36.446,21.043 -36.446,21.042 -21.042,36.447 v 42.084 L 292.395,947.27 255.949,968.312 219.502,947.27 H 177.417 135.332 93.248 L 56.801,926.228 20.355,905.185 M 508.457,25.937 544.904,46.979 581.35,68.021 h 42.085 l 21.043,36.447 v 42.085 l -21.043,36.446 m 46.213,612.847 21.042,-36.447 m 105.212,-434.741 21.042,-36.447 m -78.531,-21.042 v -42.085 m -36.446,21.042 v -42.084 m -36.447,21.042 36.447,-21.042 21.042,-36.447 36.447,-21.042 21.042,-36.447 36.446,-21.042 m 0,314.125 21.043,-36.446 M 215.375,20.298 l 36.446,21.043 36.447,21.042 36.446,21.042 h 42.085 42.085 42.085 l 36.446,21.043 36.447,21.042 36.446,21.043 h 42.085 42.085 42.084 l 36.447,21.042 36.447,21.042 36.446,21.043 21.042,36.446 v 42.085 l 21.043,36.447 v 42.085 l 21.042,36.446 v 42.085 l -21.042,36.446 m -42.085,199.148 36.447,-21.043 21.042,-36.446 v -42.085 m -15.404,-57.489 36.446,-21.042 21.043,-36.447 36.446,-21.042 21.043,-36.447 m -220.19,308.487 21.042,-36.446 m 63.127,-78.532 36.447,-21.042 21.042,-36.446 36.447,-21.043 21.042,-36.446 36.447,-21.043 M 581.35,182.999 602.393,146.553 M 974.007,288.211 937.561,267.169 901.114,246.126 H 859.029 816.944 774.86 L 738.413,225.084 701.967,204.042 665.52,182.999 H 623.435 581.35 539.266 L 502.819,161.957 466.373,140.914 429.926,119.872 H 387.841 345.757 303.672 L 267.225,98.83 230.779,77.787 194.332,56.745 173.29,20.298 m 329.529,183.744 v -42.085 m -93.935,78.531 36.446,-21.042 M 198.46,669.591 219.502,633.145 M 198.46,554.613 177.417,591.06 v 42.085 l 21.043,36.446 v 42.085 l 21.042,36.447 v 42.084 l 21.042,36.447 36.447,21.042 36.447,21.043 36.446,21.042 h 42.085 42.085 42.084 l 36.447,21.042 36.446,21.043 36.447,21.042 M 162.013,533.571 198.46,512.529 m 105.212,-235.594 21.042,-36.447 m -120.616,136.02 v -42.084 l 21.042,-36.447 36.447,-21.042 M 183.056,455.04 v -42.085 m 465.549,346.444 21.043,36.447 v 42.084 l 21.042,36.447 v 42.085 l 21.042,36.446 36.447,21.043 m -272.041,-42.085 36.447,-21.043 21.042,-36.446 36.447,-21.042 21.042,-36.447 V 774.803 M 413.011,811.25 391.969,774.803 M 644.478,261.53 623.435,225.084 m 151.425,178.105 21.042,-36.446 m 0,114.977 21.042,-36.446 m 0,114.978 21.043,-36.447 V 481.72 L 816.944,445.274 V 403.189 L 795.902,366.743 V 324.658 L 774.86,288.211 m 21.042,350.572 21.042,-36.447 V 560.252 L 795.902,523.805 M 690.69,717.314 711.732,680.868 m 42.085,-42.085 21.043,-36.447 M 974.007,330.296 937.561,309.254 901.114,288.211 H 859.029 816.944 774.86 L 738.413,267.169 701.967,246.126 665.52,225.084 H 623.435 581.35 539.266 L 502.819,204.042 466.373,182.999 429.926,161.957 H 387.841 345.757 303.672 L 267.225,140.914 230.779,119.872 194.332,98.83 H 152.247 110.163 68.078 L 31.631,77.787 m 314.126,199.148 21.042,-36.447 m 78.531,21.042 v -42.084 l 21.043,-36.447 36.446,-21.042 21.043,-36.447 36.446,-21.042 M 387.841,276.935 366.799,240.488 V 198.403 L 345.757,161.957 V 119.872 L 324.714,83.425 m -84.17,586.166 21.043,-36.446 m -42.085,-42.085 21.042,-36.447 m -21.042,-78.531 -21.042,36.447 v 42.084 l 21.042,36.447 v 42.085 l 21.042,36.446 v 42.085 l 21.043,36.447 36.446,21.042 36.447,21.042 36.446,21.043 h 42.085 42.085 42.085 l 36.446,21.042 36.447,21.043 36.446,21.042 h 42.085 42.085 42.085 l 36.446,21.042 36.447,21.043 36.446,21.042 h 42.085 42.085 42.085 m -685.74,-582.038 21.043,-36.447 m -84.17,114.978 -36.446,21.043 -21.043,36.446 v 42.085 l -21.042,36.446 v 42.085 L 119.928,648.549 83.482,669.591 62.439,706.038 25.993,727.08 M 240.544,512.529 219.502,476.082 v -42.085 l 21.042,-36.446 m 193.51,377.252 -21.043,36.447 v 42.085 l 21.043,36.446 v 42.085 l 21.042,36.446 m 0,-157.062 21.042,-36.447 m 172.467,-57.489 v 42.085 l -21.042,36.447 v 42.084 l -21.043,36.447 v 42.085 l -21.042,36.446 m -344.934,-597.442 -36.446,21.042 -21.042,36.447 -36.447,21.042 -21.042,36.447 v 42.085 l -21.043,36.446 -36.446,21.042 -21.043,36.447 v 42.085 l 36.447,21.042 36.446,21.043 36.447,21.042 h 42.085 42.084 42.085 l 36.447,21.042 36.446,21.043 36.447,21.042 h 42.085 42.084 42.085 l 36.447,21.043 36.446,21.042 36.447,21.042 h 42.085 42.084 42.085 l 36.447,21.043 36.446,21.042 36.447,21.043 h 42.085 42.084 l 21.043,36.446 M 554.67,795.846 V 753.761 M 319.076,732.718 v -42.084 m 36.446,63.127 v -42.085 m -114.978,157.063 36.447,-21.043 21.042,-36.446 36.447,-21.043 21.042,-36.446 36.447,-21.043 M 602.393,261.53 623.435,225.084 V 182.999 L 602.393,146.553 V 104.468 L 581.35,68.021 M 732.775,874.377 711.732,837.93 V 795.846 L 690.69,759.399 V 717.314 L 669.648,680.868 M 717.371,345.7 v -42.085 m -36.447,21.043 v -42.085 m -36.446,21.042 36.446,-21.042 21.043,-36.447 36.446,-21.042 21.043,-36.447 36.446,-21.042 M 753.817,481.72 774.86,445.274 m 0,114.978 21.042,-36.447 V 481.72 L 774.86,445.274 v -42.085 l -21.043,-36.446 m 21.043,350.571 21.042,-36.446 V 638.783 L 774.86,602.336 v -42.084 l -21.043,-36.447 m -42.085,114.978 21.043,-36.447 M 560.308,261.53 581.35,225.084 M 989.411,387.785 952.965,366.743 916.518,345.7 880.072,324.658 H 837.987 795.902 753.817 L 717.371,303.615 680.924,282.573 644.478,261.53 H 602.393 560.308 518.223 L 481.777,240.488 445.33,219.446 408.884,198.403 H 366.799 324.714 282.629 L 246.183,177.361 209.736,156.318 173.29,135.276 H 131.205 89.12 47.035 l -36.446,21.042 m 471.188,126.255 v -42.085 m -93.936,78.531 36.447,-21.042 M 261.587,591.06 282.629,554.613 m 0,114.978 -21.042,-36.446 V 591.06 l -21.043,-36.447 v -42.084 l 21.043,-36.447 m 63.127,-120.616 21.043,-36.447 m -84.17,114.978 21.042,-36.446 m 0,114.978 -21.042,-36.447 v -42.085 l -21.043,-36.446 v -42.085 l 21.043,-36.447 M 612.159,738.357 V 696.272 M 25.993,570.017 l 21.042,36.447 36.447,21.042 36.446,21.043 36.447,21.042 h 42.085 42.084 42.085 l 36.447,21.043 36.446,21.042 36.447,21.042 h 42.085 42.084 42.085 l 36.447,21.043 36.446,21.042 36.447,21.043 h 42.085 42.084 42.085 l 36.447,21.042 36.446,21.042 36.447,21.043 h 42.085 42.084 l 21.043,-36.447 M 434.054,732.718 413.011,696.272 m 256.637,-57.489 v 42.085 l -21.043,36.446 -36.446,21.043 -21.043,36.446 -36.446,21.043 -21.043,36.446 -36.446,21.043 H 455.096 413.011 370.926 L 334.48,832.292 298.033,811.25 261.587,790.207 H 219.502 177.417 135.332 L 98.886,769.165 62.439,748.123 25.993,727.08 M 623.435,340.062 602.393,303.615 m 93.935,120.616 v -42.084 m 36.447,178.105 21.042,-36.447 V 481.72 l -21.042,-36.446 m 21.042,350.572 21.043,-36.447 v -42.085 l -21.043,-36.446 v -42.085 l -21.042,-36.447 v -42.084 l -21.043,-36.447 m -21.042,78.531 21.042,36.447 v 42.085 l 21.043,36.446 v 42.085 l 21.042,36.447 v 42.084 l -21.042,36.447 v 42.085 l -21.043,36.446 h -42.084 -42.085 -42.085 l -36.447,21.043 -36.446,-21.043 -36.447,-21.042 H 434.054 391.969 349.884 L 313.438,910.823 276.991,889.781 240.544,868.739 H 198.46 156.375 114.29 L 77.844,847.696 41.397,826.654 4.951,805.611 m 984.46,-417.826 -36.446,21.042 -36.447,-21.042 -36.446,-21.042 H 837.987 795.902 753.817 L 717.371,345.7 680.924,324.658 644.478,303.615 H 602.393 560.308 518.223 L 481.777,282.573 445.33,261.53 408.884,240.488 H 366.799 324.714 282.629 L 246.183,219.446 209.736,198.403 173.29,177.361 H 131.205 89.12 47.035 L 10.589,156.318 m 356.21,199.148 -21.042,-36.447 v -42.084 l -21.043,-36.447 v -42.085 l -21.042,-36.446 m 120.616,178.105 v -42.085 l 21.042,-36.447 36.447,-21.042 21.042,-36.446 36.447,-21.043 M 340.118,654.187 V 612.102 M 303.672,591.06 282.629,554.613 v -42.084 l 21.043,-36.447 m 0,-42.085 21.042,-36.446 m 0,114.978 -21.042,-36.447 v -42.085 l -21.043,-36.446 v -42.085 l -21.042,-36.447 v -42.084 l 21.042,-36.447 M 476.138,889.781 455.096,853.335 V 811.25 l -21.042,-36.447 v -42.085 l 21.042,-36.446 m 21.042,36.446 21.043,-36.446 m 78.531,21.042 v -42.085 m -199.147,0 v -42.084 m -114.978,157.062 36.446,-21.042 21.043,-36.447 36.446,-21.042 21.043,-36.447 36.446,-21.042 M 581.35,340.062 602.393,303.615 V 261.53 L 581.35,225.084 v -42.085 l -21.042,-36.446 m 72.893,513.272 v -42.084 m 26.681,-214.552 v -42.085 m -36.447,21.043 36.447,-21.043 21.042,-36.446 36.447,-21.043 21.042,-36.446 36.447,-21.043 m -99.574,256.637 v -42.085 m -157.063,314.125 36.447,-21.042 21.042,-36.447 36.447,-21.042 21.042,-36.447 36.447,-21.042 21.042,-36.447 v -42.084 m -36.446,21.042 36.446,-21.042 21.042,-36.447 V 481.72 M 539.266,340.062 560.308,303.615 m -193.509,93.936 v -42.085 l 21.042,-36.447 v -42.084 l 21.043,-36.447 v -42.085 l 21.042,-36.446 V 119.872 L 450.969,83.425 V 41.341 L 429.926,4.894 M 968.369,466.316 931.922,445.274 895.476,424.231 859.029,403.189 H 816.944 774.86 732.775 L 696.328,382.147 659.882,361.104 623.435,340.062 H 581.35 539.266 497.181 L 460.734,319.019 424.288,297.977 387.841,276.935 H 345.757 303.672 261.587 L 225.14,255.892 188.694,234.85 152.247,213.807 H 110.163 68.078 25.993 m 434.741,147.297 v -42.085 m -99.573,256.637 v -42.085 m -15.404,-99.574 -21.043,-36.446 v -42.085 l -21.042,-36.447 v -42.084 l -21.043,-36.447 v -42.085 l 21.043,-36.446 V 119.872 L 324.714,83.425 V 41.341 L 345.757,4.894 m 0,471.188 v -42.085 l 21.042,-36.446 36.446,-21.043 M 25.993,527.933 h 42.085 l 36.446,21.042 36.447,21.042 36.446,21.043 h 42.085 42.085 42.085 l 36.446,21.042 36.447,21.043 36.446,21.042 h 42.085 42.085 42.085 l 36.446,21.042 36.447,21.043 36.446,21.042 h 42.085 42.085 42.085 l 36.446,21.043 36.447,21.042 36.446,21.043 h 42.085 42.085 M 455.096,654.187 434.054,617.741 m 162.701,21.042 V 596.698 M 968.369,780.442 947.326,743.995 H 905.242 L 868.795,722.953 832.349,701.91 795.902,680.868 H 753.817 711.732 669.648 L 633.201,659.825 596.755,638.783 560.308,617.741 M 602.393,418.593 581.35,382.147 m 57.489,99.573 v -42.084 m -99.573,256.636 36.446,-21.043 21.043,-36.446 36.446,-21.042 21.043,-36.447 v -42.085 m -36.447,21.043 36.447,-21.043 21.042,-36.446 36.446,-21.043 21.043,-36.446 v -42.085 m -329.53,15.404 v -42.085 l 21.043,-36.446 36.446,-21.043 21.043,-36.446 36.446,-21.043 M 968.369,508.401 931.922,487.359 895.476,466.316 859.029,445.274 H 816.944 774.86 732.775 L 696.328,424.231 659.882,403.189 623.435,382.147 H 581.35 539.266 497.181 L 460.734,361.104 424.288,340.062 387.841,319.019 H 345.757 303.672 261.587 L 225.14,297.977 188.694,276.935 152.247,255.892 H 110.163 68.078 25.993 M 397.607,596.698 V 554.613 M 382.203,497.124 V 455.04 m -57.489,99.573 v -42.084 l 21.043,-36.447 36.446,-21.042 21.042,-36.447 36.447,-21.042 m 57.489,413.699 -21.043,-36.447 v -42.085 l -21.042,-36.446 v -42.085 l 21.042,-36.446 m 21.043,36.446 21.042,-36.446 m -235.594,93.935 36.447,-21.042 21.042,-36.447 36.447,-21.042 21.042,-36.447 36.447,-21.042 M 560.308,418.593 581.35,382.147 V 340.062 L 560.308,303.615 V 261.53 l -21.042,-36.446 m 63.127,235.594 36.446,-21.042 21.043,-36.447 36.446,-21.042 21.043,-36.447 36.446,-21.042 M 25.993,527.933 47.035,491.486 H 89.12 l 36.447,21.043 36.446,21.042 36.447,21.042 h 42.084 42.085 42.085 l 36.447,21.043 36.446,21.042 36.447,21.043 h 42.084 42.085 42.085 l 36.447,-21.043 21.042,-36.446 v -42.085 m -36.447,21.042 36.447,-21.042 21.042,-36.447 36.447,-21.042 21.042,-36.447 36.447,-21.042 21.042,-36.446 v -42.085 l 21.043,-36.447 v -42.085 l 21.042,-36.446 v -42.085 l 21.042,-36.446 V 89.064 l 21.043,-36.447 h 42.085 42.084 42.085 m -446.018,365.976 21.043,-36.446 m -99.574,57.489 v -42.085 l 21.042,-36.447 36.447,-21.042 M 25.993,570.017 h 42.085 l 36.446,21.043 36.447,21.042 36.446,21.043 h 42.085 42.085 42.085 l 36.446,21.042 36.447,21.042 36.446,21.043 h 42.085 42.085 42.085 l 36.446,21.042 36.447,21.043 36.446,21.042 h 42.085 42.085 42.085 l 36.446,-21.042 21.043,-36.447 36.446,-21.042 21.042,-36.447 36.447,-21.042 21.042,-36.447 V 544.848 L 910.88,523.805 874.433,502.763 837.987,481.72 H 795.902 753.817 711.732 L 675.286,460.678 638.839,439.636 602.393,418.593 H 560.308 518.223 476.138 L 439.692,397.551 403.245,376.508 366.799,355.466 H 324.714 282.629 240.544 L 204.098,334.424 167.651,313.381 131.205,292.339 H 89.12 47.035 L 25.993,255.892 M 418.65,518.167 V 476.082 M 303.672,633.145 V 591.06 l 21.042,-36.447 36.447,-21.042 21.042,-36.447 36.447,-21.042 21.042,-36.446 36.446,-21.043 M 25.993,412.955 47.035,449.401 H 89.12 l 36.447,21.043 36.446,21.042 36.447,21.043 h 42.084 42.085 42.085 l 36.447,21.042 36.446,21.042 36.447,21.043 h 42.084 42.085 42.085 l 36.447,21.042 36.446,21.043 36.447,21.042 h 42.084 42.085 42.085 l 36.447,21.042 36.446,21.043 36.447,21.042 h 42.084 l 21.043,-36.446 M 476.138,575.656 455.096,539.209 m 63.127,36.447 21.043,-36.447 m 42.084,-42.085 -21.042,-36.446 m 0,114.978 21.042,-36.447 v -42.085 l 21.043,-36.446 v -42.085 l 21.042,-36.446 v -42.085 l 21.043,-36.447 V 261.53 l 21.042,-36.446 v -42.085 l 21.042,-36.446 V 104.468 L 707.605,68.021 V 25.937 M 25.993,370.87 47.035,334.424 h 42.085 42.085 l 36.446,21.042 36.447,21.042 36.446,21.043 h 42.085 42.085 42.085 l 36.446,21.042 36.447,21.043 36.446,21.042 h 42.085 42.085 42.085 l 36.446,21.042 36.447,21.043 36.446,21.042 h 42.085 42.085 42.085 l 36.446,21.043 36.447,21.042 36.446,21.042 21.043,36.447 M 198.46,983.716 219.502,947.27 v -42.085 l 21.042,-36.446 v -42.085 l 21.043,-36.447 v -42.084 l 21.042,-36.447 v -42.085 l 21.043,-36.446 36.446,-21.043 21.043,-36.446 36.446,-21.043 21.043,-36.446 36.446,-21.043 m -126.254,471.188 21.042,-36.446 v -42.085 l 21.042,-36.446 V 811.25 l 21.043,-36.447 v -42.085 l 21.042,-36.446 v -42.085 l 21.043,-36.446 v -42.085 l 21.042,-36.447 v -42.085 l 21.042,-36.446 m 42.085,272.04 -21.042,-36.446 v -42.085 l -21.043,-36.446 v -42.085 l 21.043,-36.447 M 25.993,412.955 h 42.085 42.085 l 36.446,21.042 36.447,21.043 36.446,21.042 h 42.085 42.085 42.085 l 36.446,21.042 36.447,21.043 36.446,21.042 h 42.085 42.085 42.084 l 36.447,21.043 36.447,21.042 36.446,21.042 h 42.085 42.085 42.084 l 36.447,21.043 36.446,21.042 36.447,21.043 h 42.085 m -429.103,-168.34 21.042,-36.446 v -42.085 l -21.042,-36.446 v -42.085 l -21.043,-36.447 m 21.043,350.572 21.042,-36.446 v -42.085 l -21.042,-36.447 v -42.085 l -21.043,-36.446 m -21.042,36.446 21.042,-36.446 v -42.085 l -21.042,-36.446 m -42.085,586.165 21.042,-36.446 v -42.085 l 21.043,-36.446 V 811.25 l 21.042,-36.447 v -42.085 l 21.043,-36.446 v -42.085 l -21.043,-36.446 v -42.085 l -21.042,-36.447 v -42.085 l -21.043,-36.446 v -42.085 l 21.043,-36.446 v -42.085 l 21.042,-36.447 V 261.53 l 21.043,-36.446 v -42.085 l 21.042,-36.446 V 104.468 L 581.35,68.021 V 25.937 M 968.369,623.379 H 926.284 L 889.837,602.336 853.391,581.294 816.944,560.252 H 774.86 732.775 690.69 L 654.244,539.209 617.797,518.167 581.35,497.124 H 539.266 497.181 455.096 L 418.65,476.082 382.203,455.04 345.757,433.997 H 303.672 261.587 219.502 L 183.056,412.955 146.609,391.912 110.163,370.87 H 68.078 25.993 m 917.206,-239.721 36.446,21.042 -21.042,36.446 -36.447,-21.042 z m 0,-42.085 v 42.085 H 901.114 V 89.064 Z m 4.127,811.994 h -42.084 v -42.085 h 42.084 z M 56.801,884.143 77.844,847.696 114.29,868.739 93.248,905.185 Z m 36.447,63.127 v -42.085 h 42.084 V 947.27 Z M 110.163,56.745 h 42.084 V 98.83 H 110.163 Z M 47.035,135.276 H 89.12 v 42.085 H 47.035 Z m 88.297,811.994 v -42.085 h 42.085 V 947.27 Z M 901.114,89.064 v 42.085 H 859.029 V 89.064 Z M 837.987,52.617 816.944,89.064 780.498,68.021 801.54,31.575 Z M 56.801,884.143 20.355,863.1 41.397,826.654 77.844,847.696 Z m 848.441,16.915 h -42.085 v -42.085 h 42.085 z m -63.128,36.446 -36.446,-21.042 21.042,-36.447 36.447,21.043 z M 152.247,56.745 h 42.085 V 98.83 h -42.085 z m 42.085,0 21.043,-36.447 36.446,21.043 -21.042,36.446 z M 89.12,135.276 h 42.085 v 42.085 H 89.12 Z M 68.078,56.745 h 42.085 V 98.83 H 68.078 Z m -26.681,727.824 21.042,-36.446 36.447,21.042 -21.042,36.446 z m 36.447,21.042 21.042,-36.446 36.446,21.042 -21.042,36.447 z m 36.446,63.128 v -42.085 h 42.085 v 42.085 z m 63.127,78.531 v -42.085 h 42.085 v 42.085 z m 591.804,-9.766 -21.042,36.447 -36.447,-21.043 21.043,-36.446 z M 958.603,230.722 937.561,267.169 901.114,246.126 922.156,209.68 Z M 922.156,167.595 V 209.68 H 880.072 V 167.595 Z M 859.029,89.064 v 42.085 H 816.944 V 89.064 Z m -53.361,827.398 -36.447,-21.043 21.043,-36.446 36.446,21.042 z m 120.616,-93.936 h -42.085 v -42.084 h 42.085 z m -63.127,36.447 -36.447,-21.043 21.043,-36.446 36.446,21.042 z M 251.821,41.341 288.268,62.383 267.225,98.83 230.779,77.787 Z m 72.893,0 h 42.085 v 42.084 h -42.085 z m 42.085,0 h 42.085 v 42.084 h -42.085 z m 42.085,0 h 42.085 V 83.425 H 408.884 Z M 62.439,706.038 25.993,684.995 47.035,648.549 83.482,669.591 Z m 68.766,-570.762 h 42.085 v 42.085 h -42.085 z m 63.127,-36.446 36.447,21.042 -21.043,36.446 -36.446,-21.042 z M 68.078,213.807 h 42.085 v 42.085 H 68.078 Z m 88.297,654.932 v -42.085 h 42.085 v 42.085 z m 63.127,36.446 21.042,-36.446 36.447,21.042 -21.042,36.447 z m 36.447,21.043 21.042,-36.447 36.447,21.042 -21.043,36.447 z m 36.446,21.042 21.043,-36.447 36.446,21.043 -21.042,36.446 z M 880.072,167.595 v 42.085 h -42.085 v -42.085 z m -63.128,-36.446 -21.042,36.446 -36.446,-21.042 21.042,-36.447 z M 780.498,110.106 759.456,146.553 723.009,125.51 744.051,89.064 Z M 744.051,89.064 723.009,125.51 686.562,104.468 707.605,68.021 Z m 193.51,220.19 36.446,21.042 -21.042,36.447 -36.447,-21.043 z m -168.34,586.165 -36.446,-21.042 21.042,-36.447 36.447,21.043 z m 57.489,-57.489 -36.446,-21.042 21.042,-36.446 36.447,21.042 z M 947.326,743.995 H 905.242 V 701.91 h 42.084 z m -63.127,36.447 -36.446,-21.043 21.042,-36.446 36.447,21.042 z M 288.268,62.383 324.714,83.425 303.672,119.872 267.225,98.83 Z M 544.904,46.979 523.862,83.425 487.415,62.383 508.457,25.937 Z M 62.439,706.038 83.482,669.591 119.928,690.634 98.886,727.08 Z m -15.404,-99.574 21.043,-36.447 36.446,21.043 -21.042,36.446 z m 183.744,-486.592 36.446,21.042 -21.042,36.447 -36.447,-21.043 z m -120.616,93.935 h 42.084 v 42.085 h -42.084 z m 63.127,-36.446 36.446,21.042 -21.042,36.447 -36.447,-21.043 z M 47.035,491.486 V 449.401 H 89.12 v 42.085 z m 0,-199.147 H 89.12 v 42.085 H 47.035 Z m 685.74,624.123 H 690.69 v -42.085 h 42.085 z m -147.297,36.446 -36.447,-21.042 21.043,-36.447 36.446,21.043 z M 690.69,916.462 h -42.085 v -42.085 h 42.085 z m -42.085,0 H 606.52 v -42.085 h 42.085 z M 98.886,727.08 l 21.042,-36.446 36.447,21.042 -21.043,36.447 z m 36.446,63.127 v -42.084 h 42.085 v 42.084 z m 63.128,78.532 v -42.085 h 42.084 v 42.085 z M 937.561,309.254 916.518,345.7 880.072,324.658 901.114,288.211 Z m -36.447,-63.128 v 42.085 h -42.085 v -42.085 z m -63.127,-78.531 v 42.085 h -42.085 v -42.085 z m 114.978,241.232 -21.043,36.447 -36.446,-21.043 21.042,-36.446 z m -455.784,88.297 h 42.085 v 42.085 h -42.085 z m 434.741,-9.765 36.447,21.042 -21.043,36.447 -36.446,-21.043 z m -141.658,329.529 -36.447,-21.042 21.043,-36.447 36.446,21.043 z m 57.489,-57.489 -36.447,-21.042 21.043,-36.447 36.446,21.043 z m 57.489,-57.489 -36.447,-21.042 21.042,-36.447 36.447,21.043 z M 544.904,46.979 581.35,68.021 560.308,104.468 523.862,83.425 Z m -93.935,36.446 36.446,21.043 -21.042,36.446 -36.447,-21.042 z m -147.297,36.447 h 42.085 v 42.085 h -42.085 z m 42.085,0 h 42.084 v 42.085 h -42.084 z m 42.084,0 h 42.085 v 42.085 h -42.085 z m -304.359,507.634 21.042,-36.446 36.447,21.042 -21.043,36.447 z m 183.743,-486.592 36.447,21.043 -21.043,36.446 -36.446,-21.042 z m -57.489,57.489 36.447,21.043 -21.043,36.446 -36.446,-21.042 z M 89.12,292.339 h 42.085 v 42.085 H 89.12 Z m 63.127,-36.447 36.447,21.043 -21.043,36.446 -36.446,-21.042 z m -84.169,272.041 21.042,-36.447 36.447,21.043 -21.043,36.446 z m 0,-114.978 V 370.87 h 42.085 v 42.085 z m 281.806,518.911 v -42.085 h 42.085 v 42.085 z m 42.085,0 v -42.085 h 42.085 v 42.085 z m 42.085,0 v -42.085 h 42.084 v 42.085 z m 114.977,0 -36.446,-21.043 21.042,-36.446 36.447,21.042 z M 177.417,790.207 v -42.084 h 42.085 v 42.084 z m 63.127,36.447 21.043,-36.447 36.446,21.043 -21.042,36.446 z m 36.447,21.042 21.042,-36.446 36.447,21.042 -21.042,36.447 z m 36.447,21.043 21.042,-36.447 36.446,21.043 -21.042,36.446 z M 686.562,104.468 v 42.085 h -42.084 v -42.085 z m 67.255,733.462 h -42.085 v -42.084 h 42.085 z M 859.029,246.126 v 42.085 h -42.085 v -42.085 z m -63.127,-36.446 -21.042,36.446 -36.447,-21.042 21.043,-36.447 z m -36.446,-21.043 -21.043,36.447 -36.446,-21.042 21.042,-36.447 z m -36.447,-21.042 -21.042,36.447 -36.447,-21.043 21.042,-36.446 z m 193.509,220.19 -21.042,36.446 -36.447,-21.042 21.043,-36.446 z m -36.446,-63.127 v 42.085 h -42.085 v -42.085 z m 67.254,262.274 -21.042,36.447 -36.447,-21.043 21.043,-36.446 z m -15.404,-99.573 -21.042,36.446 -36.447,-21.042 21.043,-36.447 z m -120.616,250.998 -36.446,-21.043 21.042,-36.446 36.447,21.042 z m 57.489,-57.489 -36.446,-21.043 21.042,-36.446 36.446,21.042 z m -224.317,-576.4 v 42.085 h -42.085 v -42.085 z m -42.085,0 v 42.085 h -42.085 v -42.085 z m -114.978,0 36.447,21.042 -21.043,36.447 -36.446,-21.043 z m -367.487,544.081 21.043,-36.447 36.446,21.043 -21.042,36.446 z m 36.447,63.127 v -42.085 h 42.085 v 42.085 z m -51.851,-162.701 21.043,-36.446 36.446,21.042 -21.042,36.446 z m 141.659,-329.529 36.446,21.042 -21.042,36.447 -36.447,-21.043 z m -57.489,57.489 36.446,21.042 -21.042,36.447 -36.447,-21.043 z m -99.574,172.466 21.043,-36.446 36.446,21.042 -21.042,36.447 z m 42.085,-114.977 36.446,21.042 -21.042,36.446 -36.446,-21.042 z m 381.38,576.399 -36.447,-21.042 21.043,-36.446 36.446,21.042 z M 711.732,837.93 h -42.084 v -42.084 h 42.084 z m -105.212,36.447 -36.446,-21.042 21.042,-36.447 36.447,21.042 z m 63.128,-36.447 h -42.085 v -42.084 h 42.085 z M 219.502,790.207 v -42.084 h 42.085 v 42.084 z M 816.944,246.126 v 42.085 H 774.86 v -42.085 z m 21.043,78.532 v 42.085 h -42.085 v -42.085 z m 57.489,141.658 -21.043,36.447 -36.446,-21.043 21.042,-36.446 z m -36.447,-63.127 v 42.085 h -42.085 v -42.085 z m 51.851,162.701 -21.043,36.446 -36.446,-21.042 21.042,-36.446 z M 774.86,759.399 h -42.085 v -42.085 h 42.085 z m 57.489,-99.574 -36.447,-21.042 21.042,-36.447 36.447,21.043 z M 523.862,125.51 l 36.446,21.043 -21.042,36.446 -36.447,-21.042 z m -241.233,72.893 h 42.085 v 42.085 h -42.085 z m 147.297,-36.446 36.447,21.042 -21.043,36.447 -36.446,-21.043 z m -105.212,36.446 h 42.085 v 42.085 h -42.085 z m 42.085,0 h 42.085 v 42.085 H 366.799 Z M 198.46,711.676 v -42.085 h 42.084 v 42.085 z m -57.489,-141.659 21.042,-36.446 36.447,21.042 -21.043,36.447 z m 36.446,63.128 V 591.06 h 42.085 v 42.085 z m 47.723,-335.168 36.447,21.042 -21.043,36.447 -36.446,-21.042 z m -99.573,172.467 21.042,-36.447 36.447,21.043 -21.043,36.446 z m 42.084,-114.978 36.447,21.042 -21.042,36.447 -36.447,-21.043 z m 245.36,455.784 v 42.085 H 370.926 V 811.25 Z m 42.085,0 v 42.085 H 413.011 V 811.25 Z m 42.085,0 v 42.085 H 455.096 V 811.25 Z m 57.489,-15.404 36.446,21.042 -21.042,36.447 -36.447,-21.043 z m -235.594,-63.128 -21.043,36.447 -36.446,-21.042 21.042,-36.447 z m 36.446,21.043 -21.042,36.446 -36.447,-21.042 21.043,-36.447 z m 36.447,21.042 -21.043,36.447 -36.446,-21.043 21.042,-36.446 z M 623.435,225.084 v -42.085 h 42.085 v 42.085 z m 67.255,492.23 h 42.085 v 42.085 H 690.69 Z m 26.681,-413.699 21.042,-36.446 36.447,21.042 -21.043,36.447 z m -36.447,-21.042 21.043,-36.447 36.446,21.043 -21.042,36.446 z m -36.446,-21.043 21.042,-36.446 36.447,21.042 -21.043,36.447 z m 109.339,105.213 v -42.085 h 42.085 v 42.085 z m 21.043,78.531 v -42.085 h 42.084 v 42.085 z m 42.084,114.978 21.043,-36.447 36.446,21.043 -21.042,36.446 z M 795.902,523.805 V 481.72 h 42.085 v 42.085 z m -42.085,114.978 h 42.085 v 42.085 H 753.817 Z M 581.35,225.084 v -42.085 h 42.085 v 42.085 z m -42.084,0 v -42.085 h 42.084 v 42.085 z m -57.489,15.404 -36.447,-21.042 21.043,-36.447 36.446,21.043 z M 282.629,669.591 v 42.085 H 240.544 V 669.591 Z M 261.587,633.145 H 219.502 V 591.06 h 42.085 z M 219.502,476.082 198.46,512.529 162.013,491.486 183.056,455.04 Z m 21.042,78.531 H 198.46 v -42.084 h 42.084 z m 21.043,-277.678 h 42.085 v 42.084 h -42.085 z m -42.085,157.062 -36.446,-21.042 21.042,-36.447 36.446,21.043 z M 690.69,717.314 v 42.085 h -42.085 v -42.085 z m -136.02,78.532 -21.043,36.446 -36.446,-21.042 21.042,-36.447 z m 36.446,-21.043 21.043,-36.446 36.446,21.042 -21.042,36.447 z M 774.86,445.274 h -42.085 v -42.085 h 42.085 z m 0,157.062 v -42.084 h 42.084 v 42.084 z m 21.042,-78.531 H 753.817 V 481.72 h 42.085 z m -42.085,114.978 v 42.085 h -42.085 v -42.085 z m -272.04,-398.295 21.042,-36.446 36.447,21.042 -21.043,36.446 z m -136.02,36.447 v 42.084 h -42.085 v -42.084 z m 99.573,-15.405 -21.042,36.447 -36.447,-21.042 21.043,-36.447 z m -99.573,15.405 h 42.084 v 42.084 h -42.084 z m -84.17,356.21 V 591.06 h 42.085 v 42.085 z m -21.043,-78.532 v -42.084 h 42.085 v 42.084 z m 42.085,-157.062 h -42.085 v -42.085 h 42.085 z m -63.127,78.531 v -42.085 h 42.085 v 42.085 z m 172.467,298.721 v -42.085 h 42.085 v 42.085 z m 84.169,-42.085 v 42.085 h -42.084 v -42.085 z m 42.085,0 v 42.085 h -42.085 v -42.085 z m 72.893,42.085 -36.446,-21.042 21.042,-36.447 36.447,21.043 z m -308.487,-105.212 21.043,-36.446 36.446,21.042 -21.042,36.447 z m 93.936,5.638 -21.043,36.447 -36.446,-21.042 21.042,-36.447 z m 36.446,21.043 -21.042,36.446 -36.447,-21.042 21.043,-36.447 z M 644.478,261.53 v 42.085 H 602.393 V 261.53 Z m 67.254,419.338 h -42.084 v -42.085 h 42.084 z m -78.531,-21.043 36.447,21.043 -21.043,36.446 -36.446,-21.042 z M 753.817,366.743 732.775,403.189 696.328,382.147 717.371,345.7 Z m -93.935,-5.639 21.042,-36.446 36.447,21.042 -21.043,36.447 z m -36.447,-21.042 21.043,-36.447 36.446,21.043 -21.042,36.446 z M 774.86,602.336 H 732.775 V 560.252 H 774.86 Z M 711.732,523.805 V 481.72 h 42.085 v 42.085 z M 560.308,303.615 V 261.53 h 42.085 v 42.085 z m -42.085,0 V 261.53 h 42.085 v 42.085 z m -72.893,-42.085 36.447,21.043 -21.043,36.446 -36.446,-21.042 z M 324.714,512.529 v 42.084 h -42.085 v -42.084 z m 0,-114.978 h -42.085 v -42.085 h 42.085 z m -21.042,36.446 v 42.085 h -42.085 v -42.085 z m 235.594,262.275 36.446,21.042 -21.042,36.447 -36.447,-21.043 z m 57.489,-57.489 36.446,21.042 -21.042,36.447 -36.447,-21.043 z m 78.531,-178.105 21.042,-36.447 36.447,21.043 -21.043,36.446 z m 15.404,99.574 h 42.085 v 42.084 H 690.69 Z m -36.446,21.042 36.446,21.042 -21.042,36.447 -36.447,-21.042 z M 366.799,397.551 h -42.085 v -42.085 h 42.085 z m 130.382,-57.489 -36.447,-21.043 21.043,-36.446 36.446,21.042 z m -93.936,36.446 -36.446,-21.042 21.042,-36.447 36.447,21.043 z m -42.084,199.148 -21.043,36.446 -36.446,-21.042 21.042,-36.447 z M 345.757,433.997 v 42.085 h -42.085 v -42.085 z m 109.339,220.19 v 42.085 h -42.085 v -42.085 z m 42.085,0 v 42.085 h -42.085 v -42.085 z m 42.085,0 v 42.085 h -42.085 v -42.085 z m -141.659,-57.489 -21.042,36.447 -36.447,-21.043 21.043,-36.446 z m 36.447,21.043 -21.043,36.446 -36.446,-21.042 21.042,-36.447 z M 581.35,382.147 v -42.085 h 42.085 v 42.085 z m -21.042,235.594 36.447,21.042 -21.043,36.446 -36.446,-21.042 z m 78.531,-178.105 21.043,-36.447 36.446,21.042 -21.042,36.447 z m -36.446,-21.043 21.042,-36.446 36.447,21.042 -21.043,36.447 z m 51.851,120.616 21.042,-36.446 36.446,21.042 -21.042,36.447 z m -36.447,21.043 36.447,21.042 -21.043,36.447 -36.446,-21.043 z M 539.266,382.147 v -42.085 h 42.084 v 42.085 z m -42.085,0 v -42.085 h 42.085 v 42.085 z m -57.489,15.404 -36.447,-21.043 21.043,-36.446 36.446,21.042 z m -57.489,99.573 -21.042,36.447 -36.447,-21.042 21.043,-36.447 z m 0,-42.084 -36.446,-21.043 21.042,-36.446 36.446,21.042 z m 235.594,63.127 21.042,-36.447 36.447,21.043 -21.042,36.446 z m -36.447,21.042 36.447,21.043 -21.042,36.446 -36.447,-21.042 z m -105.212,-120.616 -36.446,-21.042 21.042,-36.447 36.447,21.043 z m -57.488,99.574 -21.043,36.446 -36.446,-21.042 21.042,-36.447 z m 0,-42.085 -36.447,-21.042 21.042,-36.447 36.447,21.043 z m 57.488,99.574 v 42.085 h -42.084 v -42.085 z m 42.085,0 v 42.085 h -42.085 v -42.085 z m 0,0 h 42.085 v 42.085 h -42.085 z m -63.127,-36.447 -21.042,36.447 -36.447,-21.043 21.043,-36.446 z m 105.212,-78.531 v -42.085 h 42.085 v 42.085 z m 21.042,36.446 21.043,-36.446 36.446,21.042 -21.042,36.447 z m -63.127,-36.446 v -42.085 h 42.085 v 42.085 z m -42.085,0 v -42.085 h 42.085 v 42.085 z m -21.042,36.446 -36.446,-21.042 21.042,-36.446 36.446,21.042 z m 84.17,0 h 42.084 v 42.085 h -42.084 z m -42.085,0 v 42.085 H 455.096 V 497.124 Z M 922.156,52.617 901.114,89.064 880.072,52.617 Z m 4.128,884.887 h -42.085 l 21.043,-36.446 z M 68.078,98.83 h 42.085 L 89.12,135.276 Z m 25.17,806.355 21.042,-36.446 21.042,36.446 z m 748.866,32.319 v 42.085 l -36.446,-21.042 z m -706.782,9.766 h 42.085 l -21.042,36.446 z M 943.199,131.149 922.156,167.595 901.114,131.149 Z M 901.114,89.064 H 859.029 L 880.072,52.617 Z M 880.072,52.617 859.029,89.064 837.987,52.617 Z m 4.127,884.887 h -42.085 l 21.043,-36.446 z m 0,0 -21.042,-36.446 h 42.085 z m 63.127,-78.531 h -42.084 l 21.042,-36.447 z m 0,0 -21.042,-36.447 h 42.085 z M 152.247,56.745 173.29,20.298 194.332,56.745 Z M 41.397,826.654 4.951,805.611 41.397,784.569 Z M 110.163,98.83 h 42.084 l -21.042,36.446 z m 0,0 21.042,36.446 H 89.12 Z M 47.035,177.361 H 89.12 l -21.042,36.446 z m 0,0 21.043,36.446 H 25.993 Z m -5.638,649.293 36.447,-21.043 v 42.085 z m 0,0 v -42.085 l 36.447,21.042 z m 36.447,21.042 36.446,-21.042 v 42.085 z m 0,0 v -42.085 l 36.446,21.043 z m 36.446,21.043 h 42.085 l -21.043,36.446 z m 21.042,36.446 21.043,-36.446 21.042,36.446 z m 42.085,42.085 h 42.085 l -21.042,36.446 z m 664.697,-9.766 -36.446,21.043 v -42.085 z m -36.446,21.043 -36.447,-21.043 36.447,-21.042 z m 152.935,-769.91 36.446,21.043 -36.446,21.042 z m 0,0 -36.447,21.043 v -42.085 z m 0,0 v 42.085 L 922.156,209.68 Z m -36.447,-21.042 h -42.084 l 21.042,-36.446 z m -21.042,-36.446 -21.042,36.446 -21.043,-36.446 z M 859.029,89.064 h -42.085 l 21.043,-36.447 z m 4.128,811.994 -36.447,-21.043 36.447,-21.042 z m 42.085,-42.085 h -42.085 l 21.042,-36.447 z m 0,0 -21.043,-36.447 h 42.085 z m 21.042,-78.531 21.042,-36.447 21.043,36.447 z M 194.332,56.745 230.779,77.787 194.332,98.83 Z m 57.489,-15.404 36.447,-21.043 v 42.085 z m 36.447,-21.043 36.446,21.043 -36.446,21.042 z m 36.446,21.043 21.043,-36.447 21.042,36.447 z m 42.085,0 21.042,-36.447 21.043,36.447 z M 56.801,926.228 v -42.085 l 36.447,21.042 z M 408.884,41.341 429.926,4.894 450.969,41.341 Z M 62.439,748.123 25.993,727.08 62.439,706.038 Z M 68.078,98.83 89.12,135.276 H 47.035 Z m 84.169,0 h 42.085 l -21.042,36.446 z m 0,0 21.043,36.446 H 131.205 Z M 89.12,177.361 h 42.085 l -21.042,36.446 z m 0,0 21.043,36.446 H 68.078 Z M 47.035,135.276 v 42.085 L 10.589,156.318 Z M 68.078,255.892 47.035,292.339 25.993,255.892 Z m 42.085,-199.147 21.042,-36.447 21.042,36.447 z m 4.127,769.909 21.042,-36.447 21.043,36.447 z m 42.085,42.085 h 42.085 l -21.043,36.446 z m 21.042,36.446 21.043,-36.446 21.042,36.446 z m 42.085,42.085 36.447,-21.042 v 42.084 z m 0,0 v -42.085 l 36.447,21.043 z m 36.447,21.042 v -42.084 l 36.446,21.042 z m 549.719,-51.85 -36.447,21.042 v -42.085 z m -36.447,21.042 -36.446,-21.042 36.446,-21.043 z M 922.156,209.68 901.114,246.126 880.072,209.68 Z m -42.084,-42.085 h -42.085 l 21.042,-36.446 z m -21.043,-36.446 -21.042,36.446 -21.043,-36.446 z M 816.944,89.064 780.498,110.106 V 68.021 Z m 0,0 v 42.085 L 780.498,110.106 Z M 780.498,68.021 744.051,89.064 V 46.979 Z m 0,0 v 42.085 L 744.051,89.064 Z M 744.051,46.979 707.605,68.021 V 25.937 Z m 0,0 V 89.064 L 707.605,68.021 Z m 193.51,220.19 36.446,21.042 -36.446,21.043 z m 15.404,99.574 36.446,21.042 -36.446,21.042 z m -26.681,570.761 -21.042,-36.446 h 42.084 z M 863.157,858.973 826.71,880.015 V 837.93 Z M 826.71,880.015 790.264,858.973 826.71,837.93 Z m 57.489,-57.489 -36.446,-21.042 36.446,-21.042 z m 42.085,-42.084 h -42.085 l 21.043,-36.447 z m 0,0 -21.042,-36.447 h 42.084 z m 0,157.062 21.042,-36.446 21.043,36.446 z M 194.332,98.83 230.779,77.787 v 42.085 z m 36.447,-21.043 36.446,21.043 -36.446,21.042 z M 288.268,62.383 324.714,41.341 V 83.425 Z M 450.969,41.341 487.415,62.383 450.969,83.425 Z M 62.439,748.123 98.886,727.08 v 42.085 z m 0,0 V 706.038 L 98.886,727.08 Z M 47.035,648.549 83.482,627.506 v 42.085 z m 0,0 v -42.085 l 36.447,21.042 z m 126.255,-513.273 36.446,21.042 -36.446,21.043 z m -42.085,42.085 h 42.085 l -21.043,36.446 z m 0,0 21.042,36.446 H 110.163 Z M 47.035,606.464 25.993,570.017 H 68.078 Z M 943.199,89.064 H 901.114 L 922.156,52.617 Z M 47.035,491.486 68.078,527.933 H 25.993 Z m 896.164,-402.422 36.446,21.042 -36.446,21.043 z M 68.078,255.892 h 42.085 L 89.12,292.339 Z m 0,0 21.042,36.447 H 47.035 Z M 943.199,89.064 922.156,52.617 h 42.085 z M 711.732,952.908 h -42.084 l 21.042,-36.446 z m 0,0 -21.042,-36.446 h 42.085 z M 56.801,926.228 93.248,905.185 v 42.085 z m 492.23,47.723 -36.446,-21.043 36.446,-21.042 z m 0,0 36.447,-21.043 -36.447,-21.042 z m 120.617,-21.043 h -42.085 l 21.042,-36.446 z m 0,0 -21.043,-36.446 h 42.085 z m -42.085,0 h -42.085 l 21.042,-36.446 z m 0,0 -21.043,-36.446 h 42.085 z M 98.886,769.165 135.332,748.123 v 42.084 z m 0,0 V 727.08 l 36.446,21.043 z m 36.446,21.042 h 42.085 l -21.042,36.447 z m 21.043,36.447 21.042,-36.447 21.043,36.447 z m 42.085,42.085 h 42.084 l -21.042,36.446 z M 93.248,947.27 h 42.084 l -21.042,36.446 z m 675.973,-51.851 -36.446,21.043 v -42.085 z m 168.34,-628.25 -36.447,21.042 v -42.085 z m 0,0 v 42.085 L 901.114,288.211 Z M 901.114,246.126 H 859.029 L 880.072,209.68 Z M 880.072,209.68 859.029,246.126 837.987,209.68 Z m -42.085,-42.085 h -42.085 l 21.042,-36.446 z M 707.605,68.021 686.562,104.468 665.52,68.021 Z m 245.36,298.722 -36.447,21.042 V 345.7 Z m 0,0 v 42.084 l -36.447,-21.042 z m -21.043,78.531 36.447,21.042 -36.447,21.043 z M 56.801,926.228 20.355,905.185 56.801,884.143 Z M 68.078,56.745 89.12,20.298 110.163,56.745 Z M 826.71,837.93 790.264,858.973 v -42.085 z m -36.446,21.043 -36.447,-21.043 36.447,-21.042 z m 93.935,-78.531 -36.446,21.042 v -42.085 z m -36.446,21.042 -36.447,-21.042 36.447,-21.043 z m 57.489,-57.489 -36.447,-21.042 36.447,-21.043 z m 42.084,-42.085 h -42.084 l 21.042,-36.446 z m 0,0 -21.042,-36.446 h 42.085 z M 68.078,56.745 V 98.83 L 31.631,77.787 Z M 544.904,46.979 581.35,25.937 V 68.021 Z M 230.779,119.872 267.225,98.83 v 42.084 z m 36.446,-21.042 36.447,21.042 -36.447,21.042 z m 220.19,-36.447 36.447,21.042 -36.447,21.043 z m 0,0 v 42.085 L 450.969,83.425 Z M 324.714,83.425 h 42.085 l -21.042,36.447 z m 0,0 21.043,36.447 h -42.085 z m 42.085,0 h 42.085 l -21.043,36.447 z m 0,0 21.042,36.447 h -42.084 z m 42.085,0 h 42.085 l -21.043,36.447 z m 0,0 21.042,36.447 H 387.841 Z M 83.482,669.591 119.928,648.549 v 42.085 z m 0,0 v -42.085 l 36.446,21.043 z m 89.808,-492.23 36.446,-21.043 v 42.085 z m 36.446,-21.043 36.447,21.043 -36.447,21.042 z m -57.489,57.489 36.447,21.043 -36.447,21.042 z m -42.084,42.085 h 42.084 l -21.042,36.447 z m 0,0 21.042,36.447 H 89.12 Z m -42.085,314.125 36.446,-21.042 v 42.085 z m 0,0 v -42.084 l 36.446,21.042 z M 47.035,491.486 H 89.12 l -21.042,36.447 z m 0,-42.085 -21.042,-36.446 h 42.085 z m 0,0 21.043,-36.446 21.042,36.446 z m 0,-114.977 H 89.12 L 68.078,370.87 Z m 0,0 21.043,36.446 H 25.993 Z m 302.849,597.442 h 42.085 l -21.043,36.446 z m 42.085,0 h 42.085 l -21.043,36.446 z m 42.085,0 h 42.084 l -21.042,36.446 z m 78.531,21.042 -36.447,-21.042 36.447,-21.043 z m 0,0 36.446,-21.042 -36.446,-21.043 z m 93.935,-36.446 -36.446,-21.043 36.446,-21.042 z m -471.188,-168.339 21.043,-36.447 21.042,36.447 z m 42.085,42.084 h 42.085 l -21.042,36.447 z m 21.043,36.447 21.042,-36.447 21.042,36.447 z m 42.084,42.085 36.447,-21.043 v 42.085 z m 0,0 v -42.085 l 36.447,21.042 z m 36.447,21.042 36.447,-21.042 v 42.084 z m 0,0 v -42.085 l 36.447,21.043 z m 36.447,21.042 36.446,-21.042 v 42.085 z m 0,0 v -42.084 l 36.446,21.042 z M 665.52,68.021 644.478,104.468 623.435,68.021 Z m 0,0 21.042,36.447 h -42.084 z m 67.255,806.356 H 690.69 l 21.042,-36.447 z m 0,0 -21.043,-36.447 h 42.085 z M 901.114,288.211 880.072,324.658 859.029,288.211 Z M 859.029,246.126 H 816.944 L 837.987,209.68 Z M 837.987,209.68 816.944,246.126 795.902,209.68 Z m -42.085,-42.085 -36.446,21.042 v -42.084 z m 0,0 v 42.085 l -36.446,-21.043 z m -36.446,-21.042 -36.447,21.042 V 125.51 Z m 0,0 v 42.084 l -36.447,-21.042 z m -36.447,-21.043 -36.447,21.043 v -42.085 z m 0,0 v 42.085 l -36.447,-21.042 z m 193.509,220.19 -36.446,21.043 v -42.085 z m 0,0 v 42.085 l -36.446,-21.042 z m 30.808,241.232 21.043,36.447 h -42.085 z m -15.404,-141.658 -36.446,21.042 v -42.085 z m 0,0 v 42.085 l -36.446,-21.043 z m 15.404,99.574 -36.446,21.042 v -42.085 z m 0,0 v 42.084 L 910.88,565.89 Z m -157.062,272.04 -36.447,21.042 v -42.084 z m 57.489,-57.489 -36.447,21.043 v -42.085 z m -36.447,21.043 -36.446,-21.043 36.446,-21.042 z m 93.936,-78.532 -36.447,21.043 v -42.085 z m -36.447,21.043 -36.446,-21.043 36.446,-21.042 z m 57.489,-57.489 -36.447,-21.043 36.447,-21.042 z M 623.435,68.021 602.393,104.468 581.35,68.021 Z m 0,0 21.043,36.447 h -42.085 z m -42.085,0 21.043,36.447 h -42.085 z m -314.125,72.893 36.447,-21.042 v 42.085 z m 256.637,-57.489 36.446,21.043 -36.446,21.042 z m 0,0 v 42.085 l -36.447,-21.042 z m -93.936,36.447 36.447,21.042 -36.447,21.043 z m -309.998,570.762 36.447,-21.043 v 42.085 z m 0,0 v -42.085 l 36.447,21.042 z m -15.404,-99.574 36.447,-21.043 v 42.085 z m 0,0 v -42.085 l 36.447,21.042 z m 105.212,-392.657 36.447,-21.042 v 42.085 z m 36.447,-21.042 36.446,21.042 -36.446,21.043 z m -93.936,78.531 36.447,-21.042 v 42.085 z m 36.447,-21.042 36.446,21.042 -36.446,21.043 z m -57.489,57.489 36.446,21.042 -36.446,21.043 z M 89.12,491.486 125.567,470.444 v 42.085 z m 0,0 v -42.085 l 36.447,21.043 z M 68.078,412.955 h 42.085 L 89.12,449.401 Z M 89.12,334.424 h 42.085 l -21.042,36.446 z m 0,0 21.043,36.446 H 68.078 Z m 387.018,597.442 36.447,-21.043 -36.447,-21.042 z M 690.69,874.377 h -42.085 l 21.043,-36.447 z m 0,0 -21.042,-36.447 h 42.084 z m -120.616,21.042 -36.447,-21.042 36.447,-21.042 z m 0,0 36.446,-21.042 -36.446,-21.042 z m 78.531,-21.042 H 606.52 l 21.043,-36.447 z m 0,0 -21.042,-36.447 h 42.085 z M 156.375,711.676 h 42.085 l -21.043,36.447 z m 21.042,36.447 21.043,-36.447 21.042,36.447 z m 42.085,42.084 h 42.085 l -21.043,36.447 z m 130.382,99.574 21.042,-36.446 21.043,36.446 z M 880.072,324.658 h -42.085 l 21.042,-36.447 z m -21.043,-36.447 -21.042,36.447 -21.043,-36.447 z M 816.944,246.126 H 774.86 L 795.902,209.68 Z M 686.562,146.553 665.52,182.999 644.478,146.553 Z m 193.51,220.19 -21.043,36.446 -21.042,-36.446 z m 15.404,57.488 -36.447,21.043 v -42.085 z m 0,0 v 42.085 l -36.447,-21.042 z m 30.808,199.148 -36.447,21.042 v -42.085 z m -15.404,-99.574 -36.447,21.043 v -42.085 z m 0,0 V 565.89 L 874.433,544.848 Z M 753.817,795.846 h -42.085 l 21.043,-36.447 z m 0,0 -21.042,-36.447 h 42.085 z m 57.489,-57.489 -36.446,21.042 v -42.085 z m 57.489,-57.489 -36.446,21.042 v -42.085 z m -36.446,21.042 -36.447,-21.042 36.447,-21.043 z m 57.488,-57.489 -36.446,-21.042 36.446,-21.043 z M 560.308,104.468 v 42.085 L 523.862,125.51 Z m -256.636,57.489 h 42.085 l -21.043,36.446 z m 0,0 21.042,36.446 h -42.085 z m 162.701,-21.043 36.446,21.043 -36.446,21.042 z m 0,0 v 42.085 l -36.447,-21.042 z m -120.616,21.043 h 42.084 l -21.042,36.446 z m 0,0 21.042,36.446 h -42.085 z m 42.084,0 h 42.085 l -21.042,36.446 z m 0,0 21.043,36.446 h -42.085 z m -231.466,507.634 21.042,-36.446 21.043,36.446 z m -15.404,-57.489 36.446,-21.042 v 42.085 z m 0,0 v -42.085 l 36.446,21.043 z m 105.212,-392.656 36.446,-21.043 v 42.085 z m -57.489,57.489 36.446,-21.043 v 42.085 z m 36.446,-21.043 36.447,21.043 -36.447,21.042 z m -93.935,78.532 36.446,-21.043 v 42.085 z m 36.446,-21.043 36.447,21.043 -36.447,21.042 z m -42.084,199.148 36.446,-21.043 v 42.085 z m 0,0 v -42.085 l 36.446,21.042 z m -15.404,-99.574 36.446,-21.043 v 42.085 z m 0,0 V 370.87 l 36.446,21.042 z m 281.806,476.826 21.042,-36.446 21.043,36.446 z m 0,0 -21.043,-36.446 h 42.085 z m 42.085,0 21.042,-36.446 21.042,36.446 z m 0,0 -21.043,-36.446 h 42.085 z m 42.084,0 -21.042,-36.446 h 42.085 z m 57.489,-15.404 -36.446,-21.042 36.446,-21.043 z m 0,0 36.447,-21.042 -36.447,-21.043 z m 93.936,-36.447 -36.447,-21.042 36.447,-21.042 z M 198.46,711.676 h 42.084 l -21.042,36.447 z m 21.042,36.447 21.042,-36.447 21.043,36.447 z m 42.085,42.084 36.446,-21.042 v 42.085 z m 0,0 v -42.084 l 36.446,21.042 z m 36.446,21.043 36.447,-21.043 v 42.085 z m 0,0 v -42.085 l 36.447,21.042 z m 36.447,21.042 36.446,-21.042 v 42.085 z m 0,0 v -42.085 l 36.446,21.043 z m 309.998,-685.739 -21.043,36.446 -21.042,-36.446 z m 0,0 21.042,36.446 h -42.085 z m 67.254,649.293 h -42.084 l 21.042,-36.447 z m 0,0 -21.042,-36.447 h 42.085 z M 837.987,324.658 h -42.085 l 21.042,-36.447 z m -21.043,-36.447 -21.042,36.447 -21.042,-36.447 z m -42.084,-42.085 -36.447,21.043 v -42.085 z m 0,0 v 42.085 l -36.447,-21.042 z m -36.447,-21.042 -36.446,21.042 v -42.084 z m 0,0 v 42.085 l -36.446,-21.043 z m -36.446,-21.042 -36.447,21.042 v -42.085 z m 0,0 v 42.084 L 665.52,225.084 Z m 157.062,199.147 h -42.085 l 21.043,-36.446 z m -21.042,-36.446 -21.043,36.446 -21.042,-36.446 z m 21.042,78.531 -21.042,36.446 -21.043,-36.446 z m 30.808,157.062 -36.446,21.043 v -42.085 z m -15.404,-99.573 -36.446,21.042 V 481.72 Z m 0,0 v 42.085 L 837.987,523.805 Z M 774.86,717.314 h -42.085 l 21.042,-36.446 z m 0,0 -21.043,-36.446 h 42.085 z m 57.489,-57.489 -36.447,21.043 v -42.085 z m 21.042,-36.446 -36.447,-21.043 36.447,-21.042 z M 602.393,146.553 581.35,182.999 560.308,146.553 Z m 0,0 21.042,36.446 H 581.35 Z m -42.085,0 21.042,36.446 h -42.084 z m -57.489,15.404 36.447,21.042 -36.447,21.043 z m 0,0 v 42.085 l -36.446,-21.043 z m -93.935,36.446 36.446,21.043 -36.446,21.042 z M 177.417,633.145 h 42.085 l -21.042,36.446 z m 21.043,36.446 21.042,-36.446 21.042,36.446 z m -21.043,-78.531 21.043,-36.447 21.042,36.447 z m -15.404,-57.489 36.447,-21.042 v 42.084 z m 0,0 v -42.085 l 36.447,21.043 z M 282.629,240.488 h 42.085 l -21.042,36.447 z m 0,0 21.043,36.447 h -42.085 z m -57.489,57.489 36.447,-21.042 v 42.084 z m -57.489,57.489 36.447,-21.042 v 42.084 z m 36.447,-21.042 36.446,21.042 -36.446,21.042 z m -57.489,99.573 36.447,-21.042 v 42.085 z m 0,0 v -42.085 l 36.447,21.043 z m 350.572,377.253 36.446,21.042 -36.446,21.043 z m 151.424,-51.851 21.043,36.447 h -42.085 z m 0,0 h 42.085 l -21.042,36.447 z m -57.489,15.404 v 42.085 L 554.67,795.846 Z m 0,0 36.447,21.043 -36.447,21.042 z m -308.487,-63.127 -21.042,36.447 -21.043,-36.447 z m 109.34,63.127 21.042,36.447 h -42.085 z m 361.848,-450.145 21.043,-36.447 21.042,36.447 z M 644.478,261.53 623.435,225.084 h 42.085 z m 130.382,141.659 21.042,-36.446 21.042,36.446 z m -21.043,-36.446 h 42.085 l -21.042,36.446 z m 42.085,114.977 21.042,-36.446 21.043,36.446 z M 774.86,445.274 h 42.084 l -21.042,36.446 z m 42.084,114.978 36.447,21.042 -36.447,21.042 z m -21.042,-36.447 h 42.085 l -21.043,36.447 z m -84.17,157.063 21.043,36.446 H 690.69 Z m 0,0 h 42.085 l -21.042,36.446 z m 63.128,-78.532 21.042,36.447 h -42.085 z m 0,0 h 42.084 l -21.042,36.447 z M 539.266,225.084 502.819,204.042 539.266,182.999 Z m -193.509,51.851 -21.043,-36.447 h 42.085 z m 0,0 h -42.085 l 21.042,-36.447 z M 481.777,240.488 445.33,261.53 V 219.446 Z M 445.33,261.53 408.884,240.488 445.33,219.446 Z m -57.489,15.405 -21.042,-36.447 h 42.085 z m -42.084,0 21.042,-36.447 21.042,36.447 z m -84.17,356.21 -21.043,36.446 -21.042,-36.446 z m 0,0 21.042,36.446 H 240.544 Z M 240.544,554.613 219.502,591.06 198.46,554.613 Z m 0,0 21.043,36.447 h -42.085 z m -21.042,-78.531 21.042,36.447 H 198.46 Z m 63.127,-120.616 -21.042,-36.447 h 42.085 z m 0,0 h -42.085 l 21.043,-36.447 z m -42.085,42.085 -36.446,-21.043 36.446,-21.042 z m -21.042,78.531 -36.446,-21.042 36.446,-21.043 z m 0,-42.085 -36.446,21.043 V 412.955 Z M 455.096,811.25 h -42.085 l 21.043,-36.447 z m -63.127,-36.447 h 42.085 l -21.043,36.447 z m 105.212,36.447 h -42.085 l 21.042,-36.447 z m -42.085,0 -21.042,-36.447 h 42.084 z m 42.085,0 -21.043,-36.447 h 42.085 z m 151.424,-51.851 -36.446,-21.042 36.446,-21.043 z m -93.935,36.447 -36.447,-21.043 36.447,-21.042 z m 36.446,-21.043 -36.446,21.043 v -42.085 z m -272.04,-42.085 -36.447,-21.042 36.447,-21.042 z m -36.447,-63.127 36.447,21.043 -36.447,21.042 z m 72.893,84.17 -36.446,-21.043 36.446,-21.042 z m -36.446,-21.043 v -42.084 l 36.446,21.042 z m 72.893,42.085 -36.447,-21.042 36.447,-21.043 z m -36.447,-21.042 v -42.085 l 36.447,21.042 z M 581.35,225.084 h 42.085 l -21.042,36.446 z m 63.128,36.446 h -42.085 l 21.042,-36.446 z m 46.212,455.784 h -42.085 l 21.043,-36.446 z m 21.042,-36.446 -21.042,36.446 -21.042,-36.446 z m 5.639,-377.253 36.446,21.043 -36.446,21.042 z m 36.446,63.128 -36.446,-21.043 36.446,-21.042 z m -72.893,-84.17 36.447,21.042 -36.447,21.043 z m 36.447,21.042 V 345.7 l -36.447,-21.042 z m -72.893,-42.085 36.446,21.043 -36.446,21.042 z m 36.446,21.043 v 42.085 l -36.446,-21.043 z m 72.893,84.17 21.043,36.446 h -42.085 z m 21.043,78.531 21.042,36.446 h -42.085 z m 0,0 -21.043,36.446 -21.042,-36.446 z m 21.042,78.531 21.042,36.447 H 774.86 Z m 0,0 -21.042,36.447 -21.043,-36.447 z m -42.085,114.978 h -42.085 l 21.043,-36.447 z m 21.043,-36.447 -21.043,36.447 -21.042,-36.447 z M 539.266,225.084 h 42.084 l -21.042,36.446 z m 42.084,0 21.043,36.446 h -42.085 z m -42.084,0 21.042,36.446 h -42.085 z m -57.489,15.404 36.446,21.042 -36.446,21.043 z m 0,0 v 42.085 L 445.33,261.53 Z m -93.936,36.447 36.447,21.042 -36.447,21.042 z m -126.254,356.21 h 42.085 l -21.043,36.446 z m -21.043,-78.532 h 42.085 l -21.042,36.447 z m 21.043,36.447 21.042,-36.447 21.043,36.447 z M 219.502,476.082 h 42.085 l -21.043,36.447 z m 21.042,36.447 21.043,-36.447 21.042,36.447 z m 84.17,-157.063 -21.042,-36.447 h 42.085 z m 0,0 h -42.085 l 21.043,-36.447 z m -63.127,78.531 -21.043,-36.446 h 42.085 z m 0,0 h -42.085 l 21.042,-36.446 z m 350.572,262.275 36.446,21.042 -36.446,21.043 z m -93.936,36.446 36.447,21.043 -36.447,21.042 z m 57.489,-15.404 36.447,-21.042 v 42.085 z m -162.701,-21.042 21.043,36.446 h -42.085 z m 220.19,-36.447 36.447,-21.042 v 42.085 z m -9.766,-319.763 -21.042,-36.447 h 42.085 z m 72.893,84.169 v -42.084 l 36.447,21.042 z m 0,0 36.447,-21.042 v 42.085 z m 15.404,57.489 21.043,-36.446 21.042,36.446 z m 21.043,78.532 21.042,-36.447 21.043,36.447 z m -21.043,-36.447 h 42.085 l -21.042,36.447 z m -21.042,78.531 21.042,36.447 h -42.084 z m 0,0 h 42.085 l -21.043,36.447 z M 518.223,303.615 481.777,282.573 518.223,261.53 Z m -151.424,51.851 -21.042,-36.447 h 42.084 z m 0,0 h -42.085 l 21.043,-36.447 z m 57.489,-15.404 v -42.085 l 36.446,21.042 z m 0,0 -36.447,-21.043 36.447,-21.042 z m -84.17,272.04 v 42.085 l -36.446,-21.042 z m 0,0 -36.446,21.043 V 591.06 Z m -15.404,-57.489 -21.042,36.447 -21.043,-36.447 z m -21.042,-78.531 -21.043,36.447 -21.042,-36.447 z m 21.042,36.447 h -42.085 l 21.043,-36.447 z m -21.042,-78.532 -21.043,-36.446 h 42.085 z m 0,0 h -42.085 l 21.042,-36.446 z m 151.424,262.275 21.042,36.446 h -42.084 z m 0,0 -21.042,36.446 -21.043,-36.446 z m 42.085,0 21.042,36.446 h -42.085 z m 0,0 -21.043,36.446 -21.042,-36.446 z m 78.531,-21.043 36.447,21.043 -36.447,21.042 z m -36.446,21.043 -21.043,36.446 -21.042,-36.446 z m 0,0 36.446,-21.043 v 42.085 z M 376.565,633.145 v 42.084 l -36.447,-21.042 z m 0,0 -36.447,21.042 v -42.085 z m 36.446,21.042 v 42.085 l -36.446,-21.043 z m 0,0 -36.446,21.042 V 633.145 Z M 581.35,340.062 560.308,303.615 h 42.085 z m 0,0 21.043,-36.447 21.042,36.447 z m 51.851,277.679 36.447,21.042 -36.447,21.042 z m -36.446,21.042 36.446,-21.042 v 42.084 z m 63.127,-235.594 v -42.085 l 36.446,21.043 z m 0,0 36.446,-21.042 v 42.084 z m -36.447,-21.042 36.447,-21.043 -36.447,-21.042 z m 0,0 36.447,-21.043 v 42.085 z m 51.851,120.616 v -42.085 l 36.446,21.042 z m 0,0 36.446,-21.043 v 42.085 z m 15.404,57.489 21.042,-36.447 21.043,36.447 z m -36.446,21.042 36.446,-21.042 v 42.084 z M 539.266,340.062 518.223,303.615 h 42.085 z m 0,0 21.042,-36.447 21.042,36.447 z m -42.085,0 21.042,-36.447 21.043,36.447 z m -93.936,36.446 -36.446,21.043 v -42.085 z m 57.489,-15.404 v -42.085 l 36.447,21.043 z m 0,0 -36.446,-21.042 36.446,-21.043 z m -99.573,172.467 v 42.085 l -36.447,-21.043 z m 0,0 -36.447,21.042 v -42.084 z m -15.404,-57.489 -21.043,36.447 -21.042,-36.447 z m 0,-42.085 -21.043,-36.446 h 42.085 z m 0,0 h -42.085 l 21.042,-36.446 z m 193.509,220.19 36.446,21.042 -36.446,21.043 z m -105.212,-36.446 21.042,36.446 h -42.085 z m 162.701,-21.043 36.446,21.043 -36.446,21.042 z m -36.447,21.043 36.447,-21.043 v 42.085 z M 602.393,418.593 581.35,382.147 h 42.085 z m 36.446,63.127 v -42.084 l 36.447,21.042 z m 0,0 36.447,-21.042 v 42.085 z m 15.405,57.489 36.446,21.043 -36.446,21.042 z m -36.447,21.043 36.447,-21.043 v 42.085 z M 403.245,418.593 366.799,397.551 403.245,376.508 Z m 93.936,-36.446 -36.447,-21.043 36.447,-21.042 z m -57.489,15.404 -36.447,21.042 v -42.085 z m -42.085,157.062 v 42.085 l -36.446,-21.042 z m 0,0 -36.446,21.043 V 533.571 Z M 382.203,455.04 v 42.084 l -36.446,-21.042 z m 0,0 -36.446,21.042 v -42.085 z m 93.935,162.701 21.043,36.446 h -42.085 z m 0,0 -21.042,36.446 -21.042,-36.446 z m 42.085,0 21.043,36.446 h -42.085 z m 0,0 h 42.085 l -21.042,36.446 z m 0,0 -21.042,36.446 -21.043,-36.446 z m -84.169,-42.085 v 42.085 l -36.447,-21.043 z m 0,0 -36.447,21.042 V 554.613 Z M 560.308,418.593 539.266,382.147 h 42.084 z m 0,0 21.042,-36.446 21.043,36.446 z m 0,157.063 36.447,21.042 -36.447,21.043 z m 42.085,-114.978 36.446,-21.042 -36.446,-21.043 z m 0,0 36.446,-21.042 v 42.084 z m 15.404,57.489 36.447,21.042 -36.447,21.043 z m -36.447,21.042 36.447,-21.042 v 42.085 z M 518.223,418.593 497.181,382.147 h 42.085 z m 0,0 21.043,-36.446 21.042,36.446 z m -78.531,21.043 -36.447,-21.043 36.447,-21.042 z m 36.446,-21.043 21.043,-36.446 21.042,36.446 z m 0,0 -36.446,21.043 v -42.085 z m -57.488,57.489 v 42.085 l -36.447,-21.043 z m 0,0 -36.447,21.042 V 455.04 Z m 36.446,63.127 21.042,36.447 h -42.084 z m 84.17,0 21.042,36.447 h -42.085 z m 0,0 h 42.084 l -21.042,36.447 z m 42.084,-42.085 -21.042,-36.446 h 42.085 z m 0,0 36.447,21.043 -36.447,21.042 z m -105.212,-36.446 -36.446,-21.042 36.446,-21.043 z m -21.042,36.446 v 42.085 L 418.65,518.167 Z m 0,0 -36.446,21.043 v -42.085 z m 42.085,42.085 21.042,36.447 h -42.085 z m 0,0 h 42.085 l -21.043,36.447 z m 0,0 -21.043,36.447 -21.042,-36.447 z m 42.085,-42.085 -21.043,-36.446 h 42.085 z m 0,0 21.042,-36.446 21.042,36.446 z m -42.085,0 -21.043,-36.446 h 42.085 z m 0,0 h -42.085 l 21.042,-36.446 z m 0,0 21.042,-36.446 21.043,36.446 z"
     style="opacity:1;fill-opacity:0;stroke:#000000;stroke-width:16;stroke-opacity:1;stop-opacity:1;fill:none;stroke-miterlimit:4;stroke-dasharray:none"
     id="path124426" />
</svg>
