<?xml version="1.0" encoding="UTF-8" standalone="no"?>
<svg
   xmlns:dc="http://purl.org/dc/elements/1.1/"
   xmlns:cc="http://creativecommons.org/ns#"
   xmlns:rdf="http://www.w3.org/1999/02/22-rdf-syntax-ns#"
   xmlns:svg="http://www.w3.org/2000/svg"
   xmlns="http://www.w3.org/2000/svg"
   xmlns:sodipodi="http://sodipodi.sourceforge.net/DTD/sodipodi-0.dtd"
   xmlns:inkscape="http://www.inkscape.org/namespaces/inkscape"
   inkscape:version="1.0beta1 (32d4812, 2019-09-19)"
   sodipodi:docname="3-uniform_55.svg"
   id="c:\kuniform\3u\3-uniform_55.svg"
   height="988.6753"
   width="1000.0"
   version="1.0">
  <style
     id="style2976"></style>
  <metadata
     id="metadata2974">
    <rdf:RDF>
      <cc:Work
         rdf:about="">
        <dc:format>image/svg+xml</dc:format>
        <dc:type
           rdf:resource="http://purl.org/dc/dcmitype/StillImage" />
        <dc:title></dc:title>
      </cc:Work>
    </rdf:RDF>
  </metadata>
  <defs
     id="defs2972" />
  <sodipodi:namedview
     inkscape:current-layer="c:\kuniform\3u\3-uniform_55.svg"
     inkscape:window-maximized="0"
     inkscape:window-y="23"
     inkscape:window-x="0"
     inkscape:cy="562.85714"
     inkscape:cx="377.14286"
     inkscape:zoom="0.35"
     showgrid="false"
     id="namedview2970"
     inkscape:window-height="907"
     inkscape:window-width="1600"
     inkscape:pageshadow="2"
     inkscape:pageopacity="0"
     guidetolerance="10"
     gridtolerance="10"
     objecttolerance="10"
     borderopacity="1"
     inkscape:document-rotation="0"
     bordercolor="#666666"
     pagecolor="#ffffff" />
  <!-- X Coordinate transform: fx(x)=(x+97.42139)*0.8369302-->
  <!-- Y Coordinate transform: fy(y)=(1090.6558-y)*0.8369302 -->
  <path
     id="path2965"
     d="m 134.594,67.664 20.923,-36.24 M 103.96,890.377 83.037,854.137 m -41.846,0 V 812.291 L 20.267,776.05 M 92.748,109.511 56.507,88.588 m 808.899,832.423 20.923,-36.24 m -772.658,-739.02 20.923,-36.24 m 11.213,780.866 v 41.847 l 20.923,36.24 m -41.846,-114.327 20.923,36.24 36.24,20.924 M 41.191,812.291 62.114,776.05 M 833.27,62.058 V 20.211 m 20.923,78.087 20.923,-36.24 m 104.617,192.413 -20.924,-36.24 m -36.24,603.77 h 41.847 m -57.164,99.01 v 41.847 m -62.769,-78.087 20.923,36.24 M 77.431,208.521 H 35.584 m 850.745,634.403 v 41.847 l 20.923,36.24 36.24,20.923 m -866.061,-775.26 36.24,20.923 m -78.087,-20.923 20.923,-36.24 36.241,-20.923 h 41.846 41.847 m -20.924,36.24 -20.923,-36.24 V 67.664 l -20.923,-36.24 m 140.856,15.317 20.924,-36.24 m -108.721,957.963 36.24,-20.923 20.924,-36.24 m -99.01,-99.01 36.24,20.923 m -99.01,-99.01 -20.923,-36.24 m 782.368,223.047 h 41.847 41.846 l 36.24,-20.923 20.924,-36.24 M 755.183,41.135 776.106,4.894 m 20.924,36.241 36.24,20.923 20.923,36.24 v 41.847 m 20.923,36.24 20.924,-36.24 m 41.846,114.326 20.923,-36.24 v -41.846 l -20.923,-36.24 m -20.923,36.24 20.923,-36.24 V 98.298 l -20.923,-36.24 m -72.48,780.866 20.923,-36.24 m -99.01,99.01 -20.923,36.24 m 192.413,-843.636 36.24,20.923 M 896.04,98.298 916.963,62.058 V 20.211 m -782.369,203.627 20.923,-36.241 m 78.087,-62.769 20.923,-36.24 m 41.847,-41.847 36.24,-20.923 m -66.874,885.483 -20.923,36.24 m -62.77,-78.087 20.923,-36.24 M 83.037,812.291 62.114,776.05 v -41.846 l 20.923,-36.24 M 62.114,890.377 41.191,854.137 M 776.106,119.221 797.03,82.981 m 20.923,36.24 36.24,20.924 20.923,36.24 v 41.846 m 20.924,36.24 20.923,-36.24 m -15.317,525.683 h 41.846 l 20.924,-36.24 m -99.01,57.164 36.24,20.923 m -99.01,57.163 h 41.847 41.846 l 36.24,-20.923 20.923,-36.24 v -41.847 l -20.923,-36.24 m -156.173,156.174 36.24,-20.924 20.923,-36.24 m -99.01,99.01 -20.923,36.24 -36.24,20.924 M 713.337,82.981 V 41.135 L 734.26,4.894 m -57.163,57.164 36.24,-20.923 h 41.846 41.847 l 36.24,-20.924 m -198.02,41.847 20.923,-36.24 m -62.769,36.24 20.923,-36.24 m -510.367,906.406 20.924,36.24 m -89.3,-645.617 20.923,-36.24 h 41.847 m 0,-41.846 36.24,20.923 m -78.087,-20.923 20.924,-36.24 36.24,-20.924 h 41.846 41.847 m 0,-41.846 36.24,20.923 m -57.163,57.164 -20.924,-36.241 v -41.846 l 20.924,-36.24 36.24,-20.923 h 41.846 41.847 m -20.923,36.24 -20.924,-36.24 V 46.741 l -20.923,-36.24 m -57.163,57.163 36.24,-20.923 h 41.846 41.847 l 36.24,20.923 m -276.107,333.27 20.924,-36.24 m -20.924,78.087 -36.24,-20.924 m 83.693,312.347 v 41.846 l 20.924,36.241 v 41.846 l -20.924,36.24 v 41.847 l -20.923,36.24 m 323.559,-41.847 v 41.847 m 0,0 36.241,-20.923 m 41.846,0 -20.923,36.24 m -198.02,-114.327 36.24,20.923 m -78.086,-20.923 20.923,-36.24 m -83.693,-41.847 20.923,-36.24 m -99.01,-99.01 v 41.847 l 20.923,36.24 36.241,20.923 M 62.114,619.877 H 20.267 m 902.302,45.951 20.923,-36.24 M 734.26,119.221 755.183,82.981 m 188.309,504.76 36.241,20.923 M 797.03,197.308 l 20.923,-36.24 m 20.923,36.24 36.24,20.923 20.924,36.24 v 41.847 m 20.923,36.24 20.923,-36.24 m -20.923,-276.107 36.24,20.924 20.923,36.24 M 103.96,776.05 83.037,812.291 v 41.846 l -20.923,36.24 v 41.847 l 20.923,36.24 m 740.522,-203.626 20.924,-36.24 m -119.934,135.25 20.924,-36.24 m -99.01,99.009 -20.923,36.241 M 593.404,103.904 V 62.058 L 572.48,25.818 m -57.163,57.163 20.923,-36.24 36.24,-20.923 m -99.01,57.163 20.924,-36.24 M 145.807,932.224 H 103.96 62.114 l -36.24,-20.923 m 129.643,-609.377 20.924,-36.24 m 78.086,-62.77 20.924,-36.24 m 78.086,-62.77 20.923,-36.24 h 41.847 m -317.953,333.27 20.923,-36.24 m -41.846,114.327 20.923,-36.24 m -20.923,78.086 -36.24,-20.923 -20.924,-36.24 m 41.847,114.327 v 41.846 l 20.923,36.24 36.24,20.924 m 203.626,249.576 20.924,-36.24 m -57.164,57.164 36.24,-20.924 h 41.847 l 20.923,-36.24 m 140.857,15.317 v 41.847 l -20.924,36.24 m 99.01,-57.164 -20.923,36.241 M 244.817,791.367 v 41.847 l 20.923,36.24 v 41.847 l 20.923,36.24 m -83.693,-156.174 20.924,-36.24 m -83.693,-41.846 20.923,-36.24 m -62.77,-78.087 -36.24,-20.923 -20.923,-36.24 m 839.532,124.037 h 41.846 41.847 M 557.163,82.981 593.404,62.058 h 41.846 41.847 l 36.24,20.923 20.923,36.24 v 41.847 m 20.923,36.24 20.923,-36.24 m 125.54,426.673 20.923,-36.24 M 817.953,275.395 838.876,239.154 m 140.857,327.664 -20.924,-36.24 -36.24,-20.923 m -62.77,-234.26 36.241,20.923 20.923,36.24 v 41.846 m 20.923,36.241 20.923,-36.241 v -41.846 l -20.923,-36.24 v -41.847 l -20.923,-36.24 V 176.385 L 896.04,140.145 V 98.298 l -20.924,-36.24 m 5.607,291.423 36.24,20.923 20.923,36.241 v 41.846 m -93.403,234.26 36.24,20.923 m -99.01,57.164 h 41.846 41.847 l 36.24,-20.924 20.923,-36.24 v -41.846 l -20.923,-36.24 m -156.173,156.173 36.24,20.923 m -99.01,57.164 20.923,-36.24 m -57.163,57.163 36.24,20.923 m -26.53,-765.549 20.924,-36.241 m -62.77,36.241 20.923,-36.241 m -218.943,-78.086 36.24,20.923 20.923,36.24 v 41.847 m -354.193,198.019 36.24,20.924 m -78.086,-20.924 20.923,-36.24 36.24,-20.923 h 41.847 41.846 m 0,-41.846 36.24,20.923 m -57.163,57.163 -20.923,-36.24 v -41.846 l 20.923,-36.241 36.24,-20.923 h 41.847 41.846 m 0,-41.846 36.24,20.923 M 140.201,442.781 H 98.354 56.507 l -36.24,20.923 m 99.01,15.317 -20.923,-36.24 v -41.847 l -20.923,-36.24 v -41.847 l -20.924,-36.24 v -41.846 m 41.847,312.346 -20.923,-36.24 v -41.846 l -20.924,-36.24 v -41.847 l -20.923,-36.24 m 350.089,483.837 v 41.846 l 20.923,36.24 36.241,20.924 h 41.846 41.847 l 36.24,-20.924 M 505.606,869.454 H 463.76 421.913 l -36.24,20.923 H 343.827 301.98 l -36.24,20.924 h -41.846 -41.847 l -36.24,20.923 -20.923,36.24 m 317.953,-62.77 h 41.846 41.847 l 36.24,-20.923 h 41.846 41.847 l 36.24,-20.923 h 41.846 41.847 l 36.24,20.923 m -500.656,-36.24 20.923,-36.24 m -99.009,-99.01 v 41.846 l 20.923,36.24 36.24,20.924 m -99.01,-99.01 20.923,-36.24 m -83.693,-41.847 20.924,-36.24 m 557.819,-458.809 36.24,20.923 20.923,36.24 v 41.846 m 104.616,348.587 h 41.847 41.846 l 36.241,-20.923 M 776.106,275.395 797.03,239.154 m 83.693,270.501 20.923,-36.241 m -62.77,-119.933 20.923,-36.24 m 104.617,348.587 -20.924,-36.24 v -41.847 l -20.923,-36.24 v -41.846 l -20.923,-36.241 v -41.846 l -20.923,-36.24 m -78.087,291.423 20.923,-36.24 m -119.933,135.25 20.923,-36.24 m -119.933,135.25 20.924,-36.24 M 437.23,103.904 473.47,82.981 h 41.847 41.846 l 36.241,20.923 20.923,36.241 v 41.846 m -36.24,-20.923 36.24,-20.923 h 41.846 41.847 l 36.24,-20.924 h 41.846 41.847 l 36.24,-20.923 h 41.847 41.846 l 36.24,-20.923 m -437.886,83.693 20.923,-36.24 m -62.769,36.24 20.923,-36.24 m -218.943,78.086 20.923,-36.24 36.24,-20.923 h 41.847 41.846 l 36.24,-20.923 h 41.847 41.846 l 36.241,-20.924 h 41.846 41.847 l 36.24,-20.923 h 41.846 41.847 l 36.24,-20.923 h 41.846 41.847 l 36.24,-20.923 m -776.762,338.876 20.923,-36.24 m 78.087,-62.77 20.923,-36.24 m 78.086,-62.77 20.924,-36.24 m -255.183,255.183 36.24,20.923 m -15.317,99.01 H 119.277 77.431 l -36.24,20.924 m 99.01,15.316 -20.924,-36.24 m 224.55,327.664 20.923,-36.24 m 140.856,15.317 v 41.846 l 20.924,36.24 36.24,20.923 h 41.846 41.847 l 36.24,-20.923 h 41.846 41.847 l 36.24,-20.923 h 41.847 41.846 l 36.24,-20.923 h 41.847 m -479.733,41.846 20.923,-36.24 36.24,-20.923 m 20.924,36.24 20.923,-36.24 m -302.636,-78.087 20.923,-36.24 m -99.01,-99.01 v 41.847 l 20.924,36.24 36.24,20.923 m -99.01,-99.01 20.923,-36.24 m 641.512,9.71 36.24,20.924 M 677.097,218.231 698.02,181.991 m 20.923,36.24 36.24,20.923 20.923,36.241 v 41.846 m 20.924,36.24 20.923,-36.24 m 20.923,192.414 h 41.847 41.846 l 36.24,-20.924 20.924,-36.24 m -119.934,-20.923 20.924,-36.24 v -41.847 l -20.924,-36.24 v -41.846 l -20.923,-36.241 v -41.846 l -20.923,-36.24 V 119.221 L 797.03,82.981 V 41.135 L 776.106,4.894 M 760.79,686.751 h 41.846 41.847 l 36.24,-20.923 20.923,-36.24 v -41.847 l -20.923,-36.24 m -156.174,156.173 36.241,20.924 m -99.01,57.163 h 41.846 41.847 l 36.24,-20.923 20.923,-36.24 m -177.096,78.086 36.24,20.924 m -26.53,-609.377 20.923,-36.24 m -161.779,20.923 v -41.846 l -20.924,-36.24 -36.24,-20.924 h -41.846 -41.847 l -36.24,20.924 h -41.846 -41.847 l -36.24,20.923 h -41.847 -41.846 l -36.24,20.923 H 35.584 m 380.723,15.317 20.923,-36.24 m -198.02,198.02 h -41.846 -41.847 l -36.24,20.923 H 77.431 35.584 m 203.626,-62.77 36.241,20.923 m -57.164,57.164 -20.923,-36.24 v -41.847 l 20.923,-36.24 36.24,-20.923 h 41.847 41.846 m 0,-41.847 36.24,20.924 m -177.096,234.26 20.923,-36.241 m -57.163,57.164 36.24,20.923 m 41.846,156.173 -36.24,-20.923 -20.923,-36.24 v -41.847 l -20.923,-36.24 v -41.846 l -20.923,-36.24 v -41.847 l -20.924,-36.24 V 322.847 L 98.354,286.607 V 244.761 L 77.431,208.521 V 166.674 L 56.507,130.434 V 88.588 L 92.748,67.664 h 41.846 41.847 l 36.24,20.924 m 209.232,780.866 -36.24,-20.923 -20.923,-36.24 v -41.847 m 36.24,20.923 -36.24,20.924 h -41.847 -41.846 l -36.24,20.923 H 202.97 161.124 l -36.24,20.923 H 83.037 41.191 L 4.95,833.214 m 416.963,-5.606 20.924,-36.241 m 20.923,36.241 20.923,-36.241 m 198.02,-41.846 -20.923,36.24 -36.24,20.923 h -41.847 -41.847 l -36.24,20.924 H 463.76 421.913 l -36.24,20.923 H 343.827 301.98 l -36.24,20.923 h -41.846 -41.847 l -36.24,20.923 H 103.96 62.114 l -36.24,20.924 m 297.029,-140.857 20.924,-36.24 m -83.693,-41.847 20.923,-36.24 m -99.01,-99.01 36.24,20.924 m 563.426,30.633 20.923,-36.24 M 698.02,296.318 l 20.923,-36.24 m 83.693,270.5 36.24,20.923 M 797.03,395.328 v -41.847 l -20.924,-36.24 -36.24,-20.923 m 78.087,135.25 20.923,-36.24 m -78.086,-20.924 36.24,20.924 20.923,36.24 v 41.846 l 20.923,36.241 v 41.846 l 20.923,36.24 v 41.847 l 20.924,36.24 v 41.846 l 20.923,36.24 v 41.847 l 20.923,36.24 v 41.847 m -239.866,-156.174 20.923,-36.24 m -119.933,135.25 20.923,-36.24 M 635.25,260.078 v -41.847 l -20.923,-36.24 -36.24,-20.923 H 536.24 494.394 l -36.24,20.923 m 140.856,57.163 36.24,-20.923 h 41.847 41.846 l 36.24,-20.923 h 41.847 41.846 l 36.24,-20.923 h 41.847 41.846 l 36.241,20.923 m -437.887,41.846 20.924,-36.24 m -62.77,36.24 20.923,-36.24 m -218.943,78.087 20.923,-36.24 36.24,-20.923 h 41.847 41.847 l 36.24,-20.924 h 41.846 41.847 l 36.24,-20.923 h 41.846 41.847 l 36.24,-20.923 h 41.846 41.847 l 36.24,-20.923 h 41.847 41.846 l 36.24,-20.924 m -677.752,239.867 20.923,-36.241 m 78.087,-62.769 20.923,-36.24 M 260.134,421.857 h -41.847 -41.846 l -36.24,20.924 -20.924,36.24 v 41.846 l -20.923,36.24 v 41.847 l 20.923,36.24 v 41.847 l 20.924,36.24 v 41.846 l 20.923,36.24 v 41.847 l 20.923,36.24 v 41.847 l 20.923,36.24 h 41.847 m -26.53,-411.357 20.923,-36.24 m 0,114.327 -20.923,-36.24 v -41.847 l -20.923,-36.24 v -41.846 l -20.923,-36.241 v -41.846 l -20.924,-36.24 v -41.847 l -20.923,-36.24 V 223.838 L 113.671,187.597 V 145.751 L 92.748,109.511 V 67.664 l 20.923,-36.24 m 850.745,790.577 -20.924,-36.24 h -41.846 l -36.24,20.923 h -41.847 -41.846 l -36.24,20.924 H 703.626 661.78 l -36.24,20.923 h -41.847 -41.847 l -36.24,-20.923 -20.923,-36.241 v -41.846 m 57.163,57.163 20.924,-36.24 m -41.847,0 -36.24,20.923 H 442.837 400.99 l -36.24,-20.923 -20.923,-36.24 v -41.847 m -41.847,0 20.923,-36.24 m -62.769,-78.086 -20.924,36.24 v 41.846 l 20.924,36.24 v 41.847 l 20.923,36.24 v 41.847 l 20.923,36.24 v 41.846 l 20.923,36.24 v 41.847 m 416.963,-359.8 h 41.847 41.846 l 36.24,-20.923 20.924,-36.24 v -41.846 l -20.924,-36.241 m -203.626,-177.096 20.924,-36.24 m 83.693,270.5 20.923,-36.24 m -62.77,-119.934 20.923,-36.24 m 41.847,114.327 36.24,20.923 m 89.299,489.444 36.24,-20.924 v -41.846 l -20.923,-36.24 -36.24,-20.924 -20.923,-36.24 v -41.846 l -20.923,-36.24 v -41.847 l -20.924,-36.24 v -41.847 l -20.923,-36.24 v -41.846 l -20.923,-36.24 v -41.847 l -20.923,-36.24 m -57.164,213.337 36.24,20.923 m -99.01,57.163 h 41.847 41.846 l 36.241,-20.923 20.923,-36.24 m -177.097,78.087 36.24,20.923 M 515.317,281.001 v -41.847 l -20.923,-36.24 -36.24,-20.923 H 416.307 374.46 l -36.24,20.923 h -41.846 -41.847 l -36.24,20.924 h -41.846 -41.847 l -36.24,20.923 H 56.507 l -20.923,-36.24 m 401.646,51.557 20.924,-36.24 m -198.02,156.173 36.24,20.923 m -57.164,57.164 -20.923,-36.241 v -41.846 l 20.923,-36.24 36.241,-20.924 h 41.846 41.847 m 0,-41.846 36.24,20.923 M 281.057,499.944 H 239.21 197.364 l -36.24,20.923 -20.923,36.24 v 41.847 l 20.923,36.24 v 41.847 l 20.923,36.24 v 41.846 l 20.923,36.24 v 41.847 l 20.924,36.24 v 41.847 l 20.923,36.24 h 41.846 l 36.24,20.923 m 78.087,-218.943 20.923,-36.24 m 20.924,36.24 20.923,-36.24 m 198.02,-41.847 -20.924,36.24 -36.24,20.924 H 562.77 520.923 l -36.24,20.923 H 442.837 400.99 l -36.24,20.923 h -41.847 -41.846 l -36.24,20.923 H 202.97 161.124 l -36.24,20.924 H 83.037 41.191 L 4.95,833.214 m 375.117,-119.933 -36.24,-20.924 -20.924,-36.24 v -41.846 m -41.846,0 20.923,-36.24 M 656.173,338.164 v -41.846 l -20.923,-36.24 -36.24,-20.924 h -41.847 -41.846 l -36.24,20.924 m 198.02,114.326 20.923,-36.24 m 20.923,192.414 h 41.847 41.846 l 36.24,-20.923 20.923,-36.241 v -41.846 l -20.923,-36.24 v -41.847 l -20.923,-36.24 V 275.395 L 797.03,239.154 v -41.846 l -20.924,-36.24 V 119.221 L 755.183,82.981 V 41.135 L 734.26,4.894 m 5.606,447.597 20.924,-36.24 v -41.847 l -20.924,-36.24 v -41.846 l -20.923,-36.24 V 218.231 L 698.02,181.991 V 140.145 L 677.097,103.904 V 62.058 l -20.924,-36.24 m 5.607,603.77 20.923,-36.24 m -119.933,135.25 20.923,-36.241 m -5.606,-375.116 20.923,-36.24 m -62.77,36.24 20.923,-36.24 m -218.943,78.087 20.924,-36.241 36.24,-20.923 h 41.846 41.847 l 36.24,-20.923 h 41.846 41.847 l 36.24,-20.923 h 41.847 41.846 l 36.24,-20.924 h 41.847 41.846 l 36.24,-20.923 h 41.847 41.846 l 36.241,-20.923 m -677.753,239.866 20.923,-36.24 m 78.087,-62.77 20.923,-36.24 m -156.173,156.174 36.24,20.923 m 41.847,156.173 -36.241,-20.923 -20.923,-36.24 v -41.847 l -20.923,-36.24 v -41.846 l -20.923,-36.241 v -41.846 l -20.924,-36.24 v -41.847 l -20.923,-36.24 v -41.846 l -20.923,-36.241 v -41.846 l -20.923,-36.24 V 67.664 l -20.924,-36.24 m 308.243,640.01 v 41.847 l 20.923,36.24 36.24,20.923 h 41.847 41.846 l 36.24,-20.923 h 41.847 41.846 l 36.241,-20.923 h 41.846 41.847 l 36.24,-20.924 h 41.846 41.847 M 500,692.357 463.76,713.281 h -41.847 -41.846 l -36.24,20.923 H 301.98 260.134 l -36.24,20.923 H 182.047 140.201 L 103.96,776.05 H 62.114 20.267 m 500.656,-47.452 20.923,-36.241 m -161.779,-20.923 20.923,-36.24 m -99.01,-99.01 36.24,20.923 m 344.483,-5.606 36.24,20.923 M 677.097,416.251 v -41.847 l -20.924,-36.24 -36.24,-20.923 m 78.087,135.25 20.923,-36.24 m -78.087,-20.923 36.241,20.923 20.923,36.24 v 41.847 l 20.923,36.24 v 41.846 l 20.923,36.24 v 41.847 l 20.924,36.24 v 41.847 l 20.923,36.24 v 41.846 l 20.923,36.24 v 41.847 l 20.923,36.24 v 41.847 M 619.933,629.588 h 41.847 41.846 l 36.24,-20.924 20.924,-36.24 m -177.097,78.087 36.24,20.923 M 536.24,359.088 v -41.847 l -20.923,-36.24 -36.24,-20.923 H 437.23 395.384 l -36.24,20.923 h -41.847 -41.846 l -36.241,20.923 h -41.846 -41.847 l -36.24,20.923 H 77.431 35.584 M 500,338.164 536.24,317.241 h 41.847 41.846 l 36.24,-20.923 h 41.847 41.846 l 36.24,-20.923 h 41.847 41.846 l 36.241,-20.924 h 41.846 41.847 m -521.579,83.693 20.923,-36.24 m -218.943,234.26 -20.924,-36.24 v -41.846 l 20.924,-36.241 36.24,-20.923 h 41.846 41.847 m 0,-41.846 36.24,20.923 m -78.087,135.25 20.924,-36.24 m 0,114.327 -20.924,-36.241 v -41.846 l -20.923,-36.24 v -41.847 l -20.923,-36.24 v -41.846 l -20.923,-36.241 v -41.846 l -20.924,-36.24 v -41.847 l -20.923,-36.24 V 124.828 L 212.681,88.588 V 46.741 l 20.923,-36.24 m 188.309,660.933 20.924,-36.24 m 198.019,-41.846 -20.923,36.24 -36.24,20.923 H 541.846 500 l -36.24,20.923 h -41.847 -41.846 l -36.24,20.923 H 301.98 260.134 l -36.24,20.924 H 182.047 140.201 L 103.96,734.204 H 62.114 20.267 m 443.493,249.577 -20.923,-36.24 v -41.847 l -20.924,-36.24 V 827.608 L 400.99,791.367 v -41.846 l -20.923,-36.24 v -41.847 l -20.923,-36.24 v -41.846 l 20.923,-36.241 m 260.789,-5.606 20.924,-36.24 m -62.77,-119.933 20.923,-36.24 m 41.847,114.326 36.24,20.924 m -57.164,-57.164 20.924,36.24 v 41.847 l 20.923,36.24 v 41.847 l 20.923,36.24 v 41.846 l 20.923,36.24 v 41.847 l 20.924,36.24 v 41.847 l 20.923,36.24 v 41.846 l 20.923,36.24 36.24,20.924 M 541.846,650.511 562.77,614.271 m -5.607,-218.943 20.924,-36.24 m -218.943,78.086 20.923,-36.24 36.24,-20.923 H 458.154 500 l 36.24,-20.923 h 41.847 41.846 l 36.24,-20.924 h 41.847 41.846 l 36.24,-20.923 h 41.847 41.846 l 36.241,-20.923 h 41.846 41.847 m -542.503,119.933 20.924,-36.24 m 5.606,489.443 -20.923,36.24 -36.241,20.923 H 364.75 l -20.923,-36.24 v -41.846 l -20.924,-36.24 v -41.847 l -20.923,-36.24 v -41.847 l -20.923,-36.24 v -41.846 l -20.923,-36.24 v -41.847 l 20.923,-36.24 36.24,-20.923 h 41.847 41.846 m 578.743,129.643 -36.241,20.924 h -41.846 -41.847 l -36.24,20.923 h -41.846 -41.847 l -36.24,20.923 H 661.78 619.933 l -36.24,20.923 H 541.846 500 l -36.24,-20.923 -20.923,-36.24 V 593.348 M 41.191,697.964 h 41.846 l 36.24,-20.923 h 41.847 41.846 l 36.24,-20.924 h 41.847 41.846 l 36.241,-20.923 h 41.846 41.847 l 36.24,-20.923 m 20.923,36.24 20.923,-36.24 M 400.99,593.348 421.913,557.107 m 177.097,-5.606 h 41.846 41.847 l 36.24,-20.923 20.923,-36.24 m 5.607,447.596 -20.924,-36.24 v -41.846 l -20.923,-36.24 v -41.847 l -20.923,-36.24 v -41.847 l -20.923,-36.24 v -41.846 l -20.924,-36.24 v -41.847 l -20.923,-36.24 m 0,-41.847 20.923,-36.24 v -41.846 l -20.923,-36.24 v -41.847 l -20.923,-36.24 v -41.847 l -20.923,-36.24 v -41.846 l -20.924,-36.24 V 82.981 L 536.24,46.741 h -41.846 m 68.376,525.683 36.24,20.924 M 557.163,437.174 V 395.328 L 536.24,359.088 500,338.164 h -41.846 -41.847 l -36.24,20.924 H 338.22 296.374 l -36.24,20.923 h -41.847 -41.846 l -36.24,20.923 H 98.354 56.507 l -36.24,20.923 m 500.656,-5.606 36.24,-20.923 h 41.847 41.846 l 36.241,-20.924 h 41.846 41.847 l 36.24,-20.923 h 41.846 41.847 l 36.24,-20.923 h 41.846 l 20.924,-36.24 M 479.077,416.251 500,380.011 m -99.01,57.163 36.24,20.924 m 464.416,-26.53 36.24,20.923 20.923,36.24 v 41.847 l -36.24,20.923 h -41.846 -41.847 l -36.24,20.923 H 760.79 718.943 l -36.24,20.924 H 640.856 599.01 l -36.24,20.923 h -41.847 -41.846 l -36.24,-20.923 -20.924,-36.241 v -41.846 l -20.923,-36.24 v -41.847 l -20.923,-36.24 v -41.846 l -20.923,-36.241 v -41.846 l -20.924,-36.24 v -41.847 l -20.923,-36.24 V 124.828 L 296.374,88.588 V 46.741 l -20.923,-36.24 m -255.184,609.376 20.924,36.24 h 41.846 l 36.24,-20.923 h 41.847 41.846 l 36.24,-20.923 h 41.847 41.846 l 36.241,-20.923 h 41.846 41.847 l 36.24,-20.924 h 41.846 41.847 l 36.24,-20.923 20.923,-36.24 v -41.847 l -20.923,-36.24 m -177.097,78.087 36.241,20.923 m 119.933,-62.77 20.923,-36.24 v -41.846 l -20.923,-36.24 v -41.847 l -20.924,-36.24 v -41.847 l -20.923,-36.24 v -41.846 l -20.923,-36.24 V 82.981 l -20.923,-36.24 h -41.847 l -36.24,20.923 -20.923,36.24 M 20.267,578.031 41.191,541.791 v -41.847 l 36.24,-20.923 h 41.846 41.847 l 36.24,-20.923 h 41.846 41.847 l 36.24,-20.924 h 41.847 41.846 l 36.24,-20.923 h 41.847 41.846 l 36.24,20.923 20.924,36.24 v 41.847 l 20.923,36.24 v 41.847 l 20.923,36.24 v 41.846 l 20.923,36.24 v 41.847 l 20.924,36.24 v 41.847 l 20.923,36.24 v 41.846 l 20.923,36.24 h 41.847 41.846 l 36.24,-20.923 20.924,-36.24 v -41.847 l -20.924,-36.24 v -41.846 l -20.923,-36.24 v -41.847 l -20.923,-36.24 v -41.847 l -20.923,-36.24 v -41.846 l -20.924,-36.24 v -41.847 l -20.923,-36.24 v -41.847 l -20.923,-36.24 v -41.846 l -20.923,-36.24 v -41.847 l -20.924,-36.24 V 140.145 L 635.25,103.904 V 62.058 l -20.923,-36.24 m -93.404,546.606 20.923,-36.24 m -161.779,-20.923 20.923,-36.24 36.24,-20.923 h 41.847 41.846 l 36.24,-20.924 h 41.847 41.846 l 36.241,-20.923 h 41.846 41.847 l 36.24,-20.923 h 41.846 41.847 l 36.24,-20.924 h 41.846 l 20.924,36.241 m -521.579,83.693 20.923,-36.24 m 0,114.326 -20.923,-36.24 v -41.846 l -20.924,-36.24 v -41.847 l -20.923,-36.24 v -41.847 l -20.923,-36.24 v -41.846 l -20.924,-36.24 v -41.847 l -20.923,-36.24 V 103.904 L 332.614,67.664 V 25.818 m 251.079,937.04 -20.923,-36.241 v -41.846 l -20.924,-36.24 v -41.847 l -20.923,-36.24 V 728.598 L 500,692.357 v -41.846 l -20.923,-36.24 V 572.424 L 500,536.184 m -479.733,198.02 20.924,-36.24 v -41.847 l 20.923,-36.24 36.24,-20.923 h 41.847 41.846 l 36.24,-20.923 h 41.847 41.846 l 36.24,-20.924 h 41.847 41.846 l 36.241,-20.923 H 500 541.846 l 36.241,-20.923 m -36.241,-20.923 36.241,20.923 h 41.846 41.847 l 36.24,-20.923 h 41.846 41.847 l 36.24,-20.924 h 41.846 41.847 l 36.24,-20.923 h 41.847 M 667.386,962.858 646.463,926.617 v -41.846 l -20.923,-36.24 v -41.847 l -20.924,-36.24 v -41.846 l -20.923,-36.241 v -41.846 l -20.923,-36.24 v -41.847 l -20.924,-36.24 v -41.846 l -20.923,-36.24 M 500,494.338 520.923,458.098 V 416.251 L 500,380.011 v -41.847 l -20.923,-36.24 v -41.846 l -20.923,-36.24 V 181.991 L 437.23,145.751 V 103.904 L 416.307,67.664 V 25.818 m 209.233,937.04 -20.924,-36.241 v -41.846 l -20.923,-36.24 v -41.847 l -20.923,-36.24 v -41.846 l -20.924,-36.241 v -41.846 l -20.923,-36.24 V 572.424 L 500,536.184 v -41.846 l -20.923,-36.24 v -41.847 l -20.923,-36.24 v -41.847 l -20.924,-36.24 v -41.846 l -20.923,-36.24 v -41.847 l -20.923,-36.24 V 103.904 L 374.46,67.664 h -41.846 l -36.24,20.924 -20.923,36.24 v 41.846 l 20.923,36.24 v 41.847 l 20.923,36.24 v 41.846 l 20.923,36.241 v 41.846 l 20.924,36.24 v 41.847 l 20.923,36.24 v 41.846 l 20.923,36.241 v 41.846 l 20.923,36.24 v 41.847 l 20.924,36.24 v 41.846 l 20.923,36.241 v 41.846 l 20.923,36.24 v 41.847 l 20.923,36.24 M 979.733,410.645 h -41.847 l -36.24,20.923 h -41.847 -41.846 l -36.24,20.923 H 739.866 698.02 l -36.24,20.923 h -41.847 -41.846 l -36.241,20.924 H 500 458.154 l -36.241,20.923 H 380.067 338.22 l -36.24,20.923 h -41.846 -41.847 l -36.24,20.923 H 140.201 98.354 l -36.24,20.924 H 20.267"
     inkscape:connector-curvature="0"
     style="opacity:1;fill-opacity:0;stroke:#000000;stroke-width:15;stroke-opacity:1;stop-opacity:1;stroke-miterlimit:4;stroke-dasharray:none" />
</svg>
