<?xml version="1.0" encoding="UTF-8" standalone="no"?>
<svg
   xmlns:dc="http://purl.org/dc/elements/1.1/"
   xmlns:cc="http://creativecommons.org/ns#"
   xmlns:rdf="http://www.w3.org/1999/02/22-rdf-syntax-ns#"
   xmlns:svg="http://www.w3.org/2000/svg"
   xmlns="http://www.w3.org/2000/svg"
   xmlns:sodipodi="http://sodipodi.sourceforge.net/DTD/sodipodi-0.dtd"
   xmlns:inkscape="http://www.inkscape.org/namespaces/inkscape"
   inkscape:version="1.0beta1 (32d4812, 2019-09-19)"
   sodipodi:docname="3-uniform_22.svg"
   id="c:\kuniform\3u\3-uniform_22.svg"
   height="1000.0"
   width="1000.0"
   version="1.0">
  <style
     id="style6297"></style>
  <metadata
     id="metadata6295">
    <rdf:RDF>
      <cc:Work
         rdf:about="">
        <dc:format>image/svg+xml</dc:format>
        <dc:type
           rdf:resource="http://purl.org/dc/dcmitype/StillImage" />
        <dc:title></dc:title>
      </cc:Work>
    </rdf:RDF>
  </metadata>
  <defs
     id="defs6293" />
  <sodipodi:namedview
     inkscape:current-layer="c:\kuniform\3u\3-uniform_22.svg"
     inkscape:window-maximized="0"
     inkscape:window-y="23"
     inkscape:window-x="0"
     inkscape:cy="562.85714"
     inkscape:cx="377.14286"
     inkscape:zoom="0.35"
     showgrid="false"
     id="namedview6291"
     inkscape:window-height="907"
     inkscape:window-width="1600"
     inkscape:pageshadow="2"
     inkscape:pageopacity="0"
     guidetolerance="10"
     gridtolerance="10"
     objecttolerance="10"
     borderopacity="1"
     inkscape:document-rotation="0"
     bordercolor="#666666"
     pagecolor="#ffffff" />
  <!-- X Coordinate transform: fx(x)=(x+78.93713)*0.86365163-->
  <!-- Y Coordinate transform: fy(y)=(1078.9371-y)*0.86365163 -->
  <path
     id="path6286"
     d="m 833.89,16.521 37.397,21.592 m 90.6,833.174 21.592,-37.397 M 59.704,209.293 h 43.182 l 37.398,-21.592 21.591,-37.397 21.591,-37.397 37.397,-21.591 h 43.183 43.183 L 344.626,69.724 366.217,32.327 M 209.293,940.296 V 897.114 L 187.701,859.716 150.304,838.125 112.907,816.534 91.316,779.137 V 735.954 692.771 L 69.724,655.374 32.327,633.783 M 59.704,370.452 V 327.27 l 21.591,-37.398 21.591,-37.397 V 209.293 166.11 l 21.592,-37.397 21.591,-37.397 V 48.133 4.95 m -17.356,956.937 37.397,21.592 m 467.673,-15.806 21.591,-37.397 37.397,-21.592 h 43.183 43.183 l 37.397,-21.591 21.591,-37.397 21.591,-37.397 37.398,-21.592 h 43.182 M 370.452,940.296 H 327.27 L 289.872,918.705 252.475,897.114 H 209.293 166.11 L 128.713,875.522 91.316,853.931 H 48.133 4.95 M 16.521,166.11 38.113,128.713 m 935.345,54.753 -21.591,-37.397 V 102.886 59.704 L 930.276,22.307 m 37.397,343.91 -37.397,-21.591 -21.592,-37.397 V 264.046 220.863 L 887.093,183.466 849.696,161.875 812.299,140.284 790.707,102.886 V 59.704 m -161.159,0 h 43.182 l 37.398,21.591 37.397,21.591 h 43.182 43.183 l 37.397,21.592 37.397,21.591 h 43.183 43.182 m -54.753,483.479 v 43.182 l -21.591,37.398 -21.591,37.397 v 43.182 43.183 l -21.592,37.397 -21.591,37.397 v 43.183 43.182 m -37.397,-21.591 37.397,-21.591 h 43.183 43.182 l 37.397,-21.591 M 26.542,816.534 48.133,853.931 v 43.183 43.182 l 21.591,37.397 M 183.466,26.542 146.069,48.133 H 102.886 59.704 L 22.307,69.724 m -5.786,418.705 21.592,-37.397 21.591,-37.397 v -43.183 l 37.397,-21.591 21.591,-37.397 21.592,-37.397 37.397,-21.592 h 43.182 43.183 l 37.397,-21.591 21.591,-37.397 21.592,-37.397 37.397,-21.592 h 43.183 43.182 L 505.785,112.907 527.377,75.51 548.968,38.113 586.365,16.521 M 146.069,4.95 l 37.397,21.592 37.397,21.591 h 43.183 43.183 l 37.397,21.591 37.397,21.592 h 43.183 43.182 l 37.397,21.591 37.398,21.591 h 43.182 43.183 l 37.397,21.592 37.397,21.591 h 43.183 43.182 l 37.398,21.591 37.397,21.591 h 43.182 43.183 l 37.397,21.592 m -972.743,171.18 21.592,37.397 37.397,21.591 37.397,21.592 21.591,37.397 v 43.182 43.183 l 21.592,37.397 37.397,21.592 37.397,21.591 21.591,37.397 v 43.183 43.182 l 21.592,37.397 37.397,21.592 37.397,21.591 21.591,37.397 h 43.183 l 37.397,21.591 37.397,21.592 M 4.95,853.931 26.542,816.534 48.133,779.137 v -43.183 -43.183 l 21.591,-37.397 21.592,-37.397 v -43.183 -43.182 l 21.591,-37.397 21.591,-37.398 v -43.182 -43.183 l 21.592,-37.397 21.591,-37.397 v -43.183 -43.182 l 21.591,-37.398 21.591,-37.397 V 91.316 48.133 l 21.592,-37.397 m 171.18,972.743 37.397,-21.592 21.591,-37.397 21.592,-37.397 37.397,-21.591 h 43.182 43.183 l 37.397,-21.592 21.592,-37.397 21.591,-37.397 37.397,-21.591 h 43.183 43.182 l 37.397,-21.592 21.592,-37.397 21.591,-37.397 37.397,-21.591 v -43.183 l 21.591,-37.397 21.592,-37.397 M 10.736,757.545 48.133,779.137 h 43.183 43.182 l 37.397,21.591 37.398,21.591 h 43.182 43.183 l 37.397,21.591 37.397,21.592 h 43.183 43.182 l 37.398,21.591 37.397,21.591 h 43.182 43.183 l 37.397,21.592 37.397,21.591 h 43.183 43.183 l 37.397,21.591 37.397,21.591 m -342.36,-978.528 37.397,21.592 37.397,21.591 h 43.183 l 21.591,37.397 37.397,21.591 37.397,21.592 21.592,37.397 v 43.182 43.183 l 21.591,37.397 37.397,21.591 37.397,21.592 21.592,37.397 v 43.183 43.182 l 21.591,37.397 37.397,21.592 37.397,21.591 21.592,37.397 m -225.934,402.899 21.592,-37.397 v -43.183 -43.182 l 21.591,-37.397 21.591,-37.398 v -43.182 -43.183 l 21.591,-37.397 21.592,-37.397 v -43.183 -43.182 l 21.591,-37.398 21.591,-37.397 v -43.182 -43.183 l 21.592,-37.397 21.591,-37.397 v -43.183 -43.183 l 21.591,-37.397 21.591,-37.397 M 989.264,328.82 951.867,307.229 H 908.684 865.502 L 828.105,285.637 790.707,264.046 H 747.525 704.342 L 666.945,242.455 629.548,220.863 H 586.365 543.183 L 505.785,199.272 468.388,177.681 H 425.206 382.023 L 344.626,156.09 307.229,134.498 H 264.046 220.863 L 183.466,112.907 146.069,91.316 H 102.886 59.704 L 22.307,69.724 M 328.82,10.736 307.229,48.133 v 43.183 43.182 l -21.592,37.397 -21.591,37.398 v 43.182 43.183 l -21.591,37.397 -21.592,37.397 v 43.183 43.182 l -21.591,37.398 -21.591,37.397 v 43.182 43.183 l -21.591,37.397 -21.592,37.397 v 43.183 43.183 l -21.591,37.397 -21.591,37.397 v 43.183 43.182 L 69.724,977.693 M 10.736,671.18 48.133,692.771 h 43.183 43.182 l 37.397,21.592 37.398,21.591 h 43.182 43.183 l 37.397,21.591 37.397,21.592 h 43.183 43.182 l 37.398,21.591 37.397,21.591 h 43.182 43.183 l 37.397,21.591 37.397,21.592 h 43.183 43.183 l 37.397,21.591 37.397,21.591 h 43.183 43.182 l 37.397,21.592 m -306.513,58.988 21.591,-37.397 v -43.183 -43.182 l 21.592,-37.397 21.591,-37.398 v -43.182 -43.183 l 21.591,-37.397 21.592,-37.397 v -43.183 -43.182 l 21.591,-37.398 21.591,-37.397 v -43.182 -43.183 l 21.591,-37.397 21.592,-37.397 v -43.183 -43.183 l 21.591,-37.397 21.591,-37.397 V 102.886 59.704 L 930.276,22.307 M 53.918,510.021 75.51,472.623 97.101,435.226 134.498,413.635 h 43.183 43.182 l 37.398,-21.591 21.591,-37.398 21.591,-37.397 37.397,-21.591 h 43.183 43.183 l 37.397,-21.591 21.591,-37.398 21.591,-37.397 37.398,-21.591 h 43.182 43.183 l 37.397,-21.591 21.591,-37.398 21.592,-37.397 37.397,-21.591 h 43.182 43.183 l 37.397,-21.591 37.397,21.591 h 43.183 M 510.021,946.082 472.623,924.49 435.226,902.899 413.635,865.502 V 822.319 779.137 L 392.044,741.739 354.646,720.148 317.249,698.557 295.658,661.16 V 617.977 574.794 L 274.067,537.397 236.669,515.806 199.272,494.215 177.681,456.817 V 413.635 370.452 L 156.09,333.055 118.692,311.464 81.295,289.872 59.704,252.475 V 209.293 166.11 L 38.113,128.713 59.704,91.316 V 48.133 M 48.133,940.296 h 43.183 l 37.397,21.591 37.397,-21.591 h 43.183 43.182 l 37.397,-21.591 21.592,-37.397 21.591,-37.398 37.397,-21.591 h 43.183 43.182 l 37.398,-21.591 21.591,-37.397 21.591,-37.398 37.397,-21.591 h 43.183 43.183 l 37.397,-21.591 21.591,-37.397 21.591,-37.398 37.398,-21.591 h 43.182 43.183 l 37.397,-21.591 21.591,-37.397 21.592,-37.398 m -5.786,461.888 V 908.684 L 961.887,871.287 940.296,833.89 V 790.707 747.525 L 918.705,710.128 881.308,688.536 843.91,666.945 822.319,629.548 V 586.365 543.183 L 800.728,505.785 763.331,484.194 725.933,462.603 704.342,425.206 V 382.023 338.84 L 682.751,301.443 645.354,279.852 607.956,258.261 586.365,220.863 V 177.681 134.498 L 564.774,97.101 527.377,75.51 489.979,53.918 M 946.082,403.614 908.684,382.023 H 865.502 822.319 L 784.922,360.432 747.525,338.84 H 704.342 661.16 L 623.762,317.249 586.365,295.658 H 543.183 500 L 462.603,274.067 425.206,252.475 H 382.023 338.84 L 301.443,230.884 264.046,209.293 H 220.863 177.681 L 140.284,187.701 102.886,166.11 H 59.704 16.521 M 403.614,53.918 382.023,91.316 v 43.182 43.183 l -21.591,37.397 -21.592,37.397 v 43.183 43.182 l -21.591,37.398 -21.591,37.397 V 456.817 500 l -21.591,37.397 -21.592,37.397 v 43.183 43.183 l -21.591,37.397 -21.591,37.397 v 43.183 43.182 l -21.592,37.397 -21.591,37.398 v 43.182 43.183 M 53.918,596.386 91.316,617.977 h 43.182 43.183 l 37.397,21.591 37.397,21.592 h 43.183 43.182 l 37.398,21.591 37.397,21.591 H 456.817 500 l 37.397,21.591 37.397,21.592 h 43.183 43.183 l 37.397,21.591 37.397,21.591 h 43.183 43.182 l 37.397,21.592 37.398,21.591 h 43.182 43.183 m -387.093,112.192 21.591,-37.398 v -43.182 -43.183 l 21.591,-37.397 21.592,-37.397 V 704.342 661.16 l 21.591,-37.398 21.591,-37.397 V 543.183 500 l 21.591,-37.397 21.592,-37.397 V 382.023 338.84 l 21.591,-37.397 21.591,-37.397 v -43.183 -43.182 l 21.592,-37.397 21.591,-37.398 V 59.704 16.521 M 59.704,252.475 h 43.182 l 37.398,21.592 37.397,21.591 h 43.182 43.183 l 37.397,21.591 37.397,21.591 h 43.183 43.183 l 37.397,21.592 37.397,21.591 h 43.183 43.182 l 37.397,21.591 37.398,21.592 h 43.182 43.183 l 37.397,21.591 37.397,21.591 h 43.183 43.182 l 37.398,21.591 37.397,21.592 M 10.736,671.18 32.327,633.783 53.918,596.386 91.316,574.794 h 43.182 43.183 l 37.397,-21.591 21.591,-37.397 21.592,-37.397 37.397,-21.592 h 43.182 43.183 L 419.42,435.226 441.012,397.829 462.603,360.432 500,338.84 h 43.183 43.182 l 37.397,-21.591 21.592,-37.397 21.591,-37.397 37.397,-21.592 h 43.183 43.182 l 37.398,-21.591 21.591,-37.397 21.591,-37.397 37.397,-21.592 h 43.183 m -699.392,837.41 v -43.182 l 21.592,-37.398 21.591,-37.397 V 779.137 735.954 L 317.249,698.557 338.84,661.16 V 617.977 574.794 L 360.432,537.397 382.023,500 v -43.183 -43.182 l 21.591,-37.397 21.592,-37.398 v -43.182 -43.183 l 21.591,-37.397 21.591,-37.397 V 134.498 91.316 L 489.979,53.918 511.571,16.521 M 671.18,989.264 633.783,967.673 596.386,946.082 574.794,908.684 V 865.502 822.319 L 553.203,784.922 515.806,763.331 478.409,741.739 456.817,704.342 V 661.16 617.977 L 435.226,580.58 397.829,558.989 360.432,537.397 338.84,500 V 456.817 413.635 L 317.249,376.238 279.852,354.646 242.455,333.055 220.863,295.658 V 252.475 209.293 L 199.272,171.895 161.875,150.304 124.478,128.713 102.886,91.316 V 48.133 m 837.41,699.392 H 897.114 L 859.716,725.933 822.319,704.342 H 779.137 735.954 L 698.557,682.751 661.16,661.16 H 617.977 574.794 L 537.397,639.568 500,617.977 H 456.817 413.635 L 376.238,596.386 338.84,574.794 H 295.658 252.475 L 215.078,553.203 177.681,531.612 H 134.498 91.316 L 53.918,510.021 16.521,488.429 m 31.612,408.685 h 43.183 l 37.397,-21.592 21.591,-37.397 21.591,-37.397 37.398,-21.591 h 43.182 43.183 l 37.397,-21.592 21.591,-37.397 21.592,-37.397 37.397,-21.591 H 456.817 500 l 37.397,-21.592 21.592,-37.397 21.591,-37.397 37.397,-21.591 h 43.183 43.182 l 37.397,-21.592 21.592,-37.397 21.591,-37.397 37.397,-21.591 h 43.183 43.182 l 37.398,-21.592 21.591,-37.397 21.591,-37.397 m -92.15,623.047 V 908.684 L 875.522,871.287 838.125,849.696 800.728,828.105 779.137,790.707 V 747.525 704.342 L 757.545,666.945 720.148,645.354 682.751,623.762 661.16,586.365 V 543.183 500 L 639.568,462.603 602.171,441.012 564.774,419.42 543.183,382.023 V 338.84 295.658 L 521.591,258.261 484.194,236.669 446.797,215.078 425.206,177.681 V 134.498 91.316 L 403.614,53.918 366.217,32.327 328.82,10.736 m 418.705,48.968 v 43.182 l -21.592,37.398 -21.591,37.397 v 43.182 43.183 l -21.591,37.397 -21.591,37.397 v 43.183 43.183 L 639.568,462.603 617.977,500 v 43.183 43.182 l -21.591,37.397 -21.592,37.398 v 43.182 43.183 l -21.591,37.397 -21.591,37.397 v 43.183 43.182 l -21.591,37.398 -21.592,37.397 M 983.479,586.365 H 940.296 L 902.899,564.774 865.502,543.183 H 822.319 779.137 L 741.739,521.591 704.342,500 H 661.16 617.977 L 580.58,478.409 543.183,456.817 H 500 456.817 L 419.42,435.226 382.023,413.635 H 338.84 295.658 L 258.261,392.044 220.863,370.452 H 177.681 134.498 L 97.101,348.861 59.704,327.27 m 267.566,613.026 21.591,-37.397 21.591,-37.397 v -43.183 -43.182 l 21.592,-37.398 21.591,-37.397 V 661.16 617.977 l 21.591,-37.397 21.591,-37.397 V 500 456.817 L 478.409,419.42 500,382.023 V 338.84 295.658 l 21.591,-37.397 21.592,-37.398 V 177.681 134.498 L 564.774,97.101 586.365,59.704 V 16.521 M 940.296,672.73 902.899,651.139 865.502,629.548 H 822.319 779.137 L 741.739,607.956 704.342,586.365 H 661.16 617.977 L 580.58,564.774 543.183,543.183 H 500 456.817 L 419.42,521.591 382.023,500 H 338.84 295.658 L 258.261,478.409 220.863,456.817 H 177.681 134.498 L 97.101,435.226 59.704,413.635 H 16.521 M 672.73,59.704 651.139,97.101 629.548,134.498 v 43.183 43.182 l -21.592,37.398 -21.591,37.397 v 43.182 43.183 l -21.591,37.397 -21.591,37.397 V 500 543.183 L 521.591,580.58 500,617.977 v 43.183 43.182 l -21.591,37.397 -21.592,37.398 v 43.182 43.183 l -21.591,37.397 -21.591,37.397 v 43.183 m 343.91,5.785 -21.591,-37.397 V 908.684 865.502 L 714.363,828.105 676.966,806.513 639.568,784.922 617.977,747.525 V 704.342 661.16 L 596.386,623.762 558.989,602.171 521.591,580.58 500,543.183 V 500 456.817 L 478.409,419.42 441.012,397.829 403.614,376.238 382.023,338.84 V 295.658 252.475 L 360.432,215.078 323.034,193.487 285.637,171.895 264.046,134.498 V 91.316 48.133 L 242.455,10.736 m 746.809,231.719 -37.397,21.591 h -43.183 -43.182 l -37.397,21.591 -21.592,37.397 -21.591,37.398 -37.397,21.591 H 704.342 661.16 L 623.762,403.614 602.171,441.012 580.58,478.409 543.183,500 H 500 456.817 l -37.397,21.591 -21.591,37.398 -21.591,37.397 -37.398,21.591 h -43.182 -43.183 l -37.397,21.591 -21.591,37.398 -21.592,37.397 -37.397,21.591 H 91.316 48.133 l -37.397,21.591"
     inkscape:connector-curvature="0"
     style="opacity:1;fill-opacity:0;stroke:#000000;stroke-width:16;stroke-opacity:1;stop-opacity:1;stroke-miterlimit:4;stroke-dasharray:none" />
</svg>
