<?xml version="1.0" encoding="UTF-8" standalone="no"?>
<svg
   xmlns:dc="http://purl.org/dc/elements/1.1/"
   xmlns:cc="http://creativecommons.org/ns#"
   xmlns:rdf="http://www.w3.org/1999/02/22-rdf-syntax-ns#"
   xmlns:svg="http://www.w3.org/2000/svg"
   xmlns="http://www.w3.org/2000/svg"
   xmlns:sodipodi="http://sodipodi.sourceforge.net/DTD/sodipodi-0.dtd"
   xmlns:inkscape="http://www.inkscape.org/namespaces/inkscape"
   inkscape:version="1.0 (9f2f71dc58, 2020-08-02)"
   sodipodi:docname="3-uniform_22.svg"
   id="c:\kuniform\3u\3-uniform_22.svg"
   height="1000.0"
   width="1000.0"
   version="1.0">
  <style
     id="style6297" />
  <metadata
     id="metadata6295">
    <rdf:RDF>
      <cc:Work
         rdf:about="">
        <dc:format>image/svg+xml</dc:format>
        <dc:type
           rdf:resource="http://purl.org/dc/dcmitype/StillImage" />
        <dc:title></dc:title>
      </cc:Work>
    </rdf:RDF>
  </metadata>
  <defs
     id="defs6293" />
  <sodipodi:namedview
     inkscape:current-layer="c:\kuniform\3u\3-uniform_22.svg"
     inkscape:window-maximized="0"
     inkscape:window-y="23"
     inkscape:window-x="0"
     inkscape:cy="492.32158"
     inkscape:cx="29.888547"
     inkscape:zoom="0.56793893"
     showgrid="false"
     id="namedview6291"
     inkscape:window-height="907"
     inkscape:window-width="1600"
     inkscape:pageshadow="2"
     inkscape:pageopacity="0"
     guidetolerance="10"
     gridtolerance="10"
     objecttolerance="10"
     borderopacity="1"
     inkscape:document-rotation="0"
     bordercolor="#666666"
     pagecolor="#ffffff" />
  <!-- X Coordinate transform: fx(x)=(x+78.93713)*0.86365163-->
  <!-- Y Coordinate transform: fy(y)=(1078.9371-y)*0.86365163 -->
  <g
     id="g831"
     style="opacity:1">
    <path
       style="color:#000000;font-style:normal;font-variant:normal;font-weight:normal;font-stretch:normal;font-size:medium;line-height:normal;font-family:sans-serif;font-variant-ligatures:normal;font-variant-position:normal;font-variant-caps:normal;font-variant-numeric:normal;font-variant-alternates:normal;font-variant-east-asian:normal;font-feature-settings:normal;font-variation-settings:normal;text-indent:0;text-align:start;text-decoration:none;text-decoration-line:none;text-decoration-style:solid;text-decoration-color:#000000;letter-spacing:normal;word-spacing:normal;text-transform:none;writing-mode:lr-tb;direction:ltr;text-orientation:mixed;dominant-baseline:auto;baseline-shift:baseline;text-anchor:start;white-space:normal;shape-padding:0;shape-margin:0;inline-size:0;clip-rule:nonzero;display:inline;overflow:visible;visibility:visible;isolation:auto;mix-blend-mode:normal;color-interpolation:sRGB;color-interpolation-filters:linearRGB;solid-color:#000000;solid-opacity:1;vector-effect:none;fill:#000000;fill-opacity:0;fill-rule:nonzero;stroke:none;stroke-width:16;stroke-linecap:butt;stroke-linejoin:miter;stroke-miterlimit:4;stroke-dasharray:none;stroke-dashoffset:0;stroke-opacity:1.0;color-rendering:auto;image-rendering:auto;shape-rendering:auto;text-rendering:auto;enable-background:accumulate;stop-color:#000000;stop-opacity:1;"
       d="m 833.89,16.521 37.397,21.592 m 90.6,833.174 21.592,-37.397 M 59.704,209.293 h 43.182 l 37.398,-21.592 21.591,-37.397 21.591,-37.397 37.397,-21.591 h 43.183 43.183 L 344.626,69.724 366.217,32.327 M 209.293,940.296 V 897.114 L 187.701,859.716 150.304,838.125 112.907,816.534 91.316,779.137 V 735.954 692.771 L 69.724,655.374 32.327,633.783 M 59.704,370.452 V 327.27 l 21.591,-37.398 21.591,-37.397 V 209.293 166.11 l 21.592,-37.397 21.591,-37.397 V 48.133 4.95 m -17.356,956.937 37.397,21.592 m 467.673,-15.806 21.591,-37.397 37.397,-21.592 h 43.183 43.183 l 37.397,-21.591 21.591,-37.397 21.591,-37.397 37.398,-21.592 h 43.182 M 370.452,940.296 H 327.27 L 289.872,918.705 252.475,897.114 H 209.293 166.11 L 128.713,875.522 91.316,853.931 H 48.133 4.95 M 16.521,166.11 38.113,128.713 m 935.345,54.753 -21.591,-37.397 V 102.886 59.704 L 930.276,22.307 m 37.397,343.91 -37.397,-21.591 -21.592,-37.397 V 264.046 220.863 L 887.093,183.466 849.696,161.875 812.299,140.284 790.707,102.886 V 59.704 m -161.159,0 h 43.182 l 37.398,21.591 37.397,21.591 h 43.182 43.183 l 37.397,21.592 37.397,21.591 h 43.183 43.182 m -54.753,483.479 v 43.182 l -21.591,37.398 -21.591,37.397 v 43.182 43.183 l -21.592,37.397 -21.591,37.397 v 43.183 43.182 m -37.397,-21.591 37.397,-21.591 h 43.183 43.182 l 37.397,-21.591 M 26.542,816.534 48.133,853.931 v 43.183 43.182 l 21.591,37.397 M 183.466,26.542 146.069,48.133 H 102.886 59.704 L 22.307,69.724 m -5.786,418.705 21.592,-37.397 21.591,-37.397 v -43.183 l 37.397,-21.591 21.591,-37.397 21.592,-37.397 37.397,-21.592 h 43.182 43.183 l 37.397,-21.591 21.591,-37.397 21.592,-37.397 37.397,-21.592 h 43.183 43.182 L 505.785,112.907 527.377,75.51 548.968,38.113 586.365,16.521 M 146.069,4.95 l 37.397,21.592 37.397,21.591 h 43.183 43.183 l 37.397,21.591 37.397,21.592 h 43.183 43.182 l 37.397,21.591 37.398,21.591 h 43.182 43.183 l 37.397,21.592 37.397,21.591 h 43.183 43.182 l 37.398,21.591 37.397,21.591 h 43.182 43.183 l 37.397,21.592 m -972.743,171.18 21.592,37.397 37.397,21.591 37.397,21.592 21.591,37.397 v 43.182 43.183 l 21.592,37.397 37.397,21.592 37.397,21.591 21.591,37.397 v 43.183 43.182 l 21.592,37.397 37.397,21.592 37.397,21.591 21.591,37.397 h 43.183 l 37.397,21.591 37.397,21.592 M 4.95,853.931 26.542,816.534 48.133,779.137 v -43.183 -43.183 l 21.591,-37.397 21.592,-37.397 v -43.183 -43.182 l 21.591,-37.397 21.591,-37.398 v -43.182 -43.183 l 21.592,-37.397 21.591,-37.397 v -43.183 -43.182 l 21.591,-37.398 21.591,-37.397 V 91.316 48.133 l 21.592,-37.397 m 171.18,972.743 37.397,-21.592 21.591,-37.397 21.592,-37.397 37.397,-21.591 h 43.182 43.183 l 37.397,-21.592 21.592,-37.397 21.591,-37.397 37.397,-21.591 h 43.183 43.182 l 37.397,-21.592 21.592,-37.397 21.591,-37.397 37.397,-21.591 v -43.183 l 21.591,-37.397 21.592,-37.397 M 10.736,757.545 48.133,779.137 h 43.183 43.182 l 37.397,21.591 37.398,21.591 h 43.182 43.183 l 37.397,21.591 37.397,21.592 h 43.183 43.182 l 37.398,21.591 37.397,21.591 h 43.182 43.183 l 37.397,21.592 37.397,21.591 h 43.183 43.183 l 37.397,21.591 37.397,21.591 m -342.36,-978.528 37.397,21.592 37.397,21.591 h 43.183 l 21.591,37.397 37.397,21.591 37.397,21.592 21.592,37.397 v 43.182 43.183 l 21.591,37.397 37.397,21.591 37.397,21.592 21.592,37.397 v 43.183 43.182 l 21.591,37.397 37.397,21.592 37.397,21.591 21.592,37.397 m -225.934,402.899 21.592,-37.397 v -43.183 -43.182 l 21.591,-37.397 21.591,-37.398 v -43.182 -43.183 l 21.591,-37.397 21.592,-37.397 v -43.183 -43.182 l 21.591,-37.398 21.591,-37.397 v -43.182 -43.183 l 21.592,-37.397 21.591,-37.397 v -43.183 -43.183 l 21.591,-37.397 21.591,-37.397 M 989.264,328.82 951.867,307.229 H 908.684 865.502 L 828.105,285.637 790.707,264.046 H 747.525 704.342 L 666.945,242.455 629.548,220.863 H 586.365 543.183 L 505.785,199.272 468.388,177.681 H 425.206 382.023 L 344.626,156.09 307.229,134.498 H 264.046 220.863 L 183.466,112.907 146.069,91.316 H 102.886 59.704 L 22.307,69.724 M 328.82,10.736 307.229,48.133 v 43.183 43.182 l -21.592,37.397 -21.591,37.398 v 43.182 43.183 l -21.591,37.397 -21.592,37.397 v 43.183 43.182 l -21.591,37.398 -21.591,37.397 v 43.182 43.183 l -21.591,37.397 -21.592,37.397 v 43.183 43.183 l -21.591,37.397 -21.591,37.397 v 43.183 43.182 L 69.724,977.693 M 10.736,671.18 48.133,692.771 h 43.183 43.182 l 37.397,21.592 37.398,21.591 h 43.182 43.183 l 37.397,21.591 37.397,21.592 h 43.183 43.182 l 37.398,21.591 37.397,21.591 h 43.182 43.183 l 37.397,21.591 37.397,21.592 h 43.183 43.183 l 37.397,21.591 37.397,21.591 h 43.183 43.182 l 37.397,21.592 m -306.513,58.988 21.591,-37.397 v -43.183 -43.182 l 21.592,-37.397 21.591,-37.398 v -43.182 -43.183 l 21.591,-37.397 21.592,-37.397 v -43.183 -43.182 l 21.591,-37.398 21.591,-37.397 v -43.182 -43.183 l 21.591,-37.397 21.592,-37.397 v -43.183 -43.183 l 21.591,-37.397 21.591,-37.397 V 102.886 59.704 L 930.276,22.307 M 53.918,510.021 75.51,472.623 97.101,435.226 134.498,413.635 h 43.183 43.182 l 37.398,-21.591 21.591,-37.398 21.591,-37.397 37.397,-21.591 h 43.183 43.183 l 37.397,-21.591 21.591,-37.398 21.591,-37.397 37.398,-21.591 h 43.182 43.183 l 37.397,-21.591 21.591,-37.398 21.592,-37.397 37.397,-21.591 h 43.182 43.183 l 37.397,-21.591 37.397,21.591 h 43.183 M 510.021,946.082 472.623,924.49 435.226,902.899 413.635,865.502 V 822.319 779.137 L 392.044,741.739 354.646,720.148 317.249,698.557 295.658,661.16 V 617.977 574.794 L 274.067,537.397 236.669,515.806 199.272,494.215 177.681,456.817 V 413.635 370.452 L 156.09,333.055 118.692,311.464 81.295,289.872 59.704,252.475 V 209.293 166.11 L 38.113,128.713 59.704,91.316 V 48.133 M 48.133,940.296 h 43.183 l 37.397,21.591 37.397,-21.591 h 43.183 43.182 l 37.397,-21.591 21.592,-37.397 21.591,-37.398 37.397,-21.591 h 43.183 43.182 l 37.398,-21.591 21.591,-37.397 21.591,-37.398 37.397,-21.591 h 43.183 43.183 l 37.397,-21.591 21.591,-37.397 21.591,-37.398 37.398,-21.591 h 43.182 43.183 l 37.397,-21.591 21.591,-37.397 21.592,-37.398 m -5.786,461.888 V 908.684 L 961.887,871.287 940.296,833.89 V 790.707 747.525 L 918.705,710.128 881.308,688.536 843.91,666.945 822.319,629.548 V 586.365 543.183 L 800.728,505.785 763.331,484.194 725.933,462.603 704.342,425.206 V 382.023 338.84 L 682.751,301.443 645.354,279.852 607.956,258.261 586.365,220.863 V 177.681 134.498 L 564.774,97.101 527.377,75.51 489.979,53.918 M 946.082,403.614 908.684,382.023 H 865.502 822.319 L 784.922,360.432 747.525,338.84 H 704.342 661.16 L 623.762,317.249 586.365,295.658 H 543.183 500 L 462.603,274.067 425.206,252.475 H 382.023 338.84 L 301.443,230.884 264.046,209.293 H 220.863 177.681 L 140.284,187.701 102.886,166.11 H 59.704 16.521 M 403.614,53.918 382.023,91.316 v 43.182 43.183 l -21.591,37.397 -21.592,37.397 v 43.183 43.182 l -21.591,37.398 -21.591,37.397 V 456.817 500 l -21.591,37.397 -21.592,37.397 v 43.183 43.183 l -21.591,37.397 -21.591,37.397 v 43.183 43.182 l -21.592,37.397 -21.591,37.398 v 43.182 43.183 M 53.918,596.386 91.316,617.977 h 43.182 43.183 l 37.397,21.591 37.397,21.592 h 43.183 43.182 l 37.398,21.591 37.397,21.591 H 456.817 500 l 37.397,21.591 37.397,21.592 h 43.183 43.183 l 37.397,21.591 37.397,21.591 h 43.183 43.182 l 37.397,21.592 37.398,21.591 h 43.182 43.183 m -387.093,112.192 21.591,-37.398 v -43.182 -43.183 l 21.591,-37.397 21.592,-37.397 V 704.342 661.16 l 21.591,-37.398 21.591,-37.397 V 543.183 500 l 21.591,-37.397 21.592,-37.397 V 382.023 338.84 l 21.591,-37.397 21.591,-37.397 v -43.183 -43.182 l 21.592,-37.397 21.591,-37.398 V 59.704 16.521 M 59.704,252.475 h 43.182 l 37.398,21.592 37.397,21.591 h 43.182 43.183 l 37.397,21.591 37.397,21.591 h 43.183 43.183 l 37.397,21.592 37.397,21.591 h 43.183 43.182 l 37.397,21.591 37.398,21.592 h 43.182 43.183 l 37.397,21.591 37.397,21.591 h 43.183 43.182 l 37.398,21.591 37.397,21.592 M 10.736,671.18 32.327,633.783 53.918,596.386 91.316,574.794 h 43.182 43.183 l 37.397,-21.591 21.591,-37.397 21.592,-37.397 37.397,-21.592 h 43.182 43.183 L 419.42,435.226 441.012,397.829 462.603,360.432 500,338.84 h 43.183 43.182 l 37.397,-21.591 21.592,-37.397 21.591,-37.397 37.397,-21.592 h 43.183 43.182 l 37.398,-21.591 21.591,-37.397 21.591,-37.397 37.397,-21.592 h 43.183 m -699.392,837.41 v -43.182 l 21.592,-37.398 21.591,-37.397 V 779.137 735.954 L 317.249,698.557 338.84,661.16 V 617.977 574.794 L 360.432,537.397 382.023,500 v -43.183 -43.182 l 21.591,-37.397 21.592,-37.398 v -43.182 -43.183 l 21.591,-37.397 21.591,-37.397 V 134.498 91.316 L 489.979,53.918 511.571,16.521 M 671.18,989.264 633.783,967.673 596.386,946.082 574.794,908.684 V 865.502 822.319 L 553.203,784.922 515.806,763.331 478.409,741.739 456.817,704.342 V 661.16 617.977 L 435.226,580.58 397.829,558.989 360.432,537.397 338.84,500 V 456.817 413.635 L 317.249,376.238 279.852,354.646 242.455,333.055 220.863,295.658 V 252.475 209.293 L 199.272,171.895 161.875,150.304 124.478,128.713 102.886,91.316 V 48.133 m 837.41,699.392 H 897.114 L 859.716,725.933 822.319,704.342 H 779.137 735.954 L 698.557,682.751 661.16,661.16 H 617.977 574.794 L 537.397,639.568 500,617.977 H 456.817 413.635 L 376.238,596.386 338.84,574.794 H 295.658 252.475 L 215.078,553.203 177.681,531.612 H 134.498 91.316 L 53.918,510.021 16.521,488.429 m 31.612,408.685 h 43.183 l 37.397,-21.592 21.591,-37.397 21.591,-37.397 37.398,-21.591 h 43.182 43.183 l 37.397,-21.592 21.591,-37.397 21.592,-37.397 37.397,-21.591 H 456.817 500 l 37.397,-21.592 21.592,-37.397 21.591,-37.397 37.397,-21.591 h 43.183 43.182 l 37.397,-21.592 21.592,-37.397 21.591,-37.397 37.397,-21.591 h 43.183 43.182 l 37.398,-21.592 21.591,-37.397 21.591,-37.397 m -92.15,623.047 V 908.684 L 875.522,871.287 838.125,849.696 800.728,828.105 779.137,790.707 V 747.525 704.342 L 757.545,666.945 720.148,645.354 682.751,623.762 661.16,586.365 V 543.183 500 L 639.568,462.603 602.171,441.012 564.774,419.42 543.183,382.023 V 338.84 295.658 L 521.591,258.261 484.194,236.669 446.797,215.078 425.206,177.681 V 134.498 91.316 L 403.614,53.918 366.217,32.327 328.82,10.736 m 418.705,48.968 v 43.182 l -21.592,37.398 -21.591,37.397 v 43.182 43.183 l -21.591,37.397 -21.591,37.397 v 43.183 43.183 L 639.568,462.603 617.977,500 v 43.183 43.182 l -21.591,37.397 -21.592,37.398 v 43.182 43.183 l -21.591,37.397 -21.591,37.397 v 43.183 43.182 l -21.591,37.398 -21.592,37.397 M 983.479,586.365 H 940.296 L 902.899,564.774 865.502,543.183 H 822.319 779.137 L 741.739,521.591 704.342,500 H 661.16 617.977 L 580.58,478.409 543.183,456.817 H 500 456.817 L 419.42,435.226 382.023,413.635 H 338.84 295.658 L 258.261,392.044 220.863,370.452 H 177.681 134.498 L 97.101,348.861 59.704,327.27 m 267.566,613.026 21.591,-37.397 21.591,-37.397 v -43.183 -43.182 l 21.592,-37.398 21.591,-37.397 V 661.16 617.977 l 21.591,-37.397 21.591,-37.397 V 500 456.817 L 478.409,419.42 500,382.023 V 338.84 295.658 l 21.591,-37.397 21.592,-37.398 V 177.681 134.498 L 564.774,97.101 586.365,59.704 V 16.521 M 940.296,672.73 902.899,651.139 865.502,629.548 H 822.319 779.137 L 741.739,607.956 704.342,586.365 H 661.16 617.977 L 580.58,564.774 543.183,543.183 H 500 456.817 L 419.42,521.591 382.023,500 H 338.84 295.658 L 258.261,478.409 220.863,456.817 H 177.681 134.498 L 97.101,435.226 59.704,413.635 H 16.521 M 672.73,59.704 651.139,97.101 629.548,134.498 v 43.183 43.182 l -21.592,37.398 -21.591,37.397 v 43.182 43.183 l -21.591,37.397 -21.591,37.397 V 500 543.183 L 521.591,580.58 500,617.977 v 43.183 43.182 l -21.591,37.397 -21.592,37.398 v 43.182 43.183 l -21.591,37.397 -21.591,37.397 v 43.183 m 343.91,5.785 -21.591,-37.397 V 908.684 865.502 L 714.363,828.105 676.966,806.513 639.568,784.922 617.977,747.525 V 704.342 661.16 L 596.386,623.762 558.989,602.171 521.591,580.58 500,543.183 V 500 456.817 L 478.409,419.42 441.012,397.829 403.614,376.238 382.023,338.84 V 295.658 252.475 L 360.432,215.078 323.034,193.487 285.637,171.895 264.046,134.498 V 91.316 48.133 L 242.455,10.736 m 746.809,231.719 -37.397,21.591 h -43.183 -43.182 l -37.397,21.591 -21.592,37.397 -21.591,37.398 -37.397,21.591 H 704.342 661.16 L 623.762,403.614 602.171,441.012 580.58,478.409 543.183,500 H 500 456.817 l -37.397,21.591 -21.591,37.398 -21.591,37.397 -37.398,21.591 h -43.182 -43.183 l -37.397,21.591 -21.591,37.398 -21.592,37.397 -37.397,21.591 H 91.316 48.133 l -37.397,21.591"
       id="path833" />
    <path
       style="color:#000000;font-style:normal;font-variant:normal;font-weight:normal;font-stretch:normal;font-size:medium;line-height:normal;font-family:sans-serif;font-variant-ligatures:normal;font-variant-position:normal;font-variant-caps:normal;font-variant-numeric:normal;font-variant-alternates:normal;font-variant-east-asian:normal;font-feature-settings:normal;font-variation-settings:normal;text-indent:0;text-align:start;text-decoration:none;text-decoration-line:none;text-decoration-style:solid;text-decoration-color:#000000;letter-spacing:normal;word-spacing:normal;text-transform:none;writing-mode:lr-tb;direction:ltr;text-orientation:mixed;dominant-baseline:auto;baseline-shift:baseline;text-anchor:start;white-space:normal;shape-padding:0;shape-margin:0;inline-size:0;clip-rule:nonzero;display:inline;overflow:visible;visibility:visible;isolation:auto;mix-blend-mode:normal;color-interpolation:sRGB;color-interpolation-filters:linearRGB;solid-color:#000000;solid-opacity:1;vector-effect:none;fill:#000000;fill-opacity:1;fill-rule:nonzero;stroke:none;stroke-width:16;stroke-linecap:butt;stroke-linejoin:miter;stroke-miterlimit:4;stroke-dasharray:none;stroke-dashoffset:0;stroke-opacity:1.0;color-rendering:auto;image-rendering:auto;shape-rendering:auto;text-rendering:auto;enable-background:accumulate;stop-color:#000000;stop-opacity:1;"
       d="M 150.06836 -1.9785156 L 146.06836 4.9492188 L 138.06836 4.9492188 L 138.06836 40.132812 L 102.88672 40.132812 L 57.560547 40.132812 L 18.306641 62.794922 L 22.306641 69.722656 L 18.306641 76.652344 L 48.775391 94.244141 L 31.185547 124.71289 L 28.875 128.71289 L 9.59375 162.10938 L 16.521484 166.10938 L 16.521484 174.10938 L 51.703125 174.10938 L 51.703125 209.29297 L 51.703125 254.61914 L 72.056641 289.87109 L 51.703125 325.12695 L 51.703125 365.83398 L 51.703125 370.45117 L 51.703125 405.63477 L 16.521484 405.63477 L 16.521484 413.63477 L 9.59375 417.63477 L 28.875 451.0332 L 9.59375 484.42969 L 16.521484 488.42969 L 12.521484 495.35742 L 49.917969 516.94922 L 83.316406 536.23047 L 83.316406 570.17578 L 48.0625 590.5293 L 25.398438 629.7832 L 3.8085938 667.17969 L 10.736328 671.17969 L 6.7363281 678.10742 L 40.132812 697.38867 L 40.132812 731.33594 L 6.7363281 750.61719 L 10.736328 757.54492 L 6.7363281 764.47266 L 37.205078 782.06445 L 19.613281 812.5332 L -1.9785156 849.93164 L 4.9492188 853.93164 L 4.9492188 861.93164 L 40.132812 861.93164 L 40.132812 897.11328 L 40.132812 942.43945 L 62.794922 981.69336 L 69.722656 977.69336 L 76.652344 981.69336 L 94.244141 951.22461 L 124.71289 968.81445 L 128.71289 971.125 L 162.10938 990.40625 L 166.10938 983.47852 L 174.10938 983.47852 L 174.10938 948.29688 L 209.29297 948.29688 L 254.61914 948.29688 L 289.87109 927.94336 L 325.12695 948.29688 L 365.83398 948.29688 L 370.45117 948.29688 L 405.63477 948.29688 L 405.63477 983.47852 L 413.63477 983.47852 L 417.63477 990.40625 L 451.0332 971.125 L 484.42969 990.40625 L 488.42969 983.47852 L 495.35742 987.47852 L 516.94922 950.08203 L 536.23047 916.68359 L 570.17578 916.68359 L 590.5293 951.9375 L 629.7832 974.60156 L 667.17969 996.19141 L 671.17969 989.26367 L 678.10742 993.26367 L 697.38867 959.86719 L 731.33594 959.86719 L 750.61719 993.26367 L 757.54492 989.26367 L 764.47266 993.26367 L 782.06445 962.79492 L 812.5332 980.38672 L 849.93164 1001.9766 L 853.93164 995.04883 L 861.93164 995.04883 L 861.93164 959.86719 L 897.11328 959.86719 L 942.43945 959.86719 L 981.69336 937.20508 L 977.69336 930.27734 L 981.69336 923.34766 L 951.22461 905.75586 L 968.81445 875.28711 L 971.125 871.28711 L 990.40625 837.89062 L 983.47852 833.89062 L 983.47852 825.89062 L 948.29688 825.89062 L 948.29688 790.70703 L 948.29688 745.38086 L 927.94336 710.12891 L 948.29688 674.87305 L 948.29688 634.16602 L 948.29688 629.54883 L 948.29688 594.36523 L 983.47852 594.36523 L 983.47852 586.36523 L 990.40625 582.36523 L 971.125 548.9668 L 990.40625 515.57031 L 983.47852 511.57031 L 987.47852 504.64258 L 950.08203 483.05078 L 916.68359 463.76953 L 916.68359 429.82422 L 951.9375 409.4707 L 974.60156 370.2168 L 996.19141 332.82031 L 989.26367 328.82031 L 993.26367 321.89258 L 959.86719 302.61133 L 959.86719 268.66406 L 993.26367 249.38281 L 989.26367 242.45508 L 993.26367 235.52734 L 962.79492 217.93555 L 980.38672 187.4668 L 1001.9766 150.06836 L 995.04883 146.06836 L 995.04883 138.06836 L 959.86719 138.06836 L 959.86719 102.88672 L 959.86719 57.560547 L 937.20508 18.306641 L 930.27734 22.306641 L 923.34766 18.306641 L 905.75586 48.775391 L 875.28711 31.185547 L 871.28711 28.875 L 837.89062 9.59375 L 833.89062 16.521484 L 825.89062 16.521484 L 825.89062 51.703125 L 790.70703 51.703125 L 745.38086 51.703125 L 710.12891 72.056641 L 674.87305 51.703125 L 634.16602 51.703125 L 629.54883 51.703125 L 594.36523 51.703125 L 594.36523 16.521484 L 586.36523 16.521484 L 582.36523 9.59375 L 548.9668 28.875 L 515.57031 9.59375 L 511.57031 16.521484 L 504.64258 12.521484 L 483.05078 49.917969 L 463.76953 83.316406 L 429.82422 83.316406 L 409.4707 48.0625 L 370.2168 25.398438 L 332.82031 3.8085938 L 328.82031 10.736328 L 321.89258 6.7363281 L 302.61133 40.132812 L 268.66406 40.132812 L 249.38281 6.7363281 L 242.45508 10.736328 L 235.52734 6.7363281 L 217.93555 37.205078 L 187.4668 19.613281 L 150.06836 -1.9785156 z M 154.06836 18.806641 L 167.4668 26.542969 L 154.06836 34.277344 L 154.06836 18.806641 z M 331.74805 21.664062 L 355.28906 35.255859 L 341.69727 58.794922 L 318.1582 45.205078 L 331.74805 21.664062 z M 242.45508 26.736328 L 250.18945 40.132812 L 234.7207 40.132812 L 242.45508 26.736328 z M 514.5 27.449219 L 538.03906 41.041016 L 524.44922 64.582031 L 500.90625 50.990234 L 514.5 27.449219 z M 578.36523 30.376953 L 578.36523 45.847656 L 564.9668 38.113281 L 578.36523 30.376953 z M 841.89062 30.376953 L 855.28711 38.113281 L 841.89062 45.845703 L 841.89062 30.376953 z M 183.4668 35.779297 L 212.86328 52.751953 L 212.86328 86.697266 L 183.4668 103.66992 L 154.06836 86.697266 L 154.06836 52.751953 L 183.4668 35.779297 z M 930.27539 38.306641 L 938.00977 51.703125 L 922.54102 51.703125 L 930.27539 38.306641 z M 369.14453 43.255859 L 392.68555 56.847656 L 379.09375 80.388672 L 355.55469 66.794922 L 369.14453 43.255859 z M 871.28711 47.351562 L 900.68359 64.322266 L 900.68359 98.267578 L 871.28516 115.24023 L 841.89062 98.269531 L 841.89062 64.322266 L 871.28711 47.351562 z M 551.89648 49.041016 L 575.4375 62.632812 L 561.8457 86.171875 L 538.30469 72.582031 L 551.89648 49.041016 z M 67.703125 56.132812 L 94.886719 56.132812 L 94.886719 83.316406 L 67.703125 83.316406 L 67.703125 56.132812 z M 110.88672 56.132812 L 138.06836 56.132812 L 138.06836 83.316406 L 110.88672 83.316406 L 110.88672 56.132812 z M 228.86328 56.132812 L 256.04688 56.132812 L 256.04688 83.316406 L 228.86328 83.316406 L 228.86328 56.132812 z M 272.04688 56.132812 L 299.22852 56.132812 L 299.22852 83.316406 L 272.04688 83.316406 L 272.04688 56.132812 z M 315.22852 61.988281 L 328.625 69.724609 L 315.22852 77.460938 L 315.22852 61.988281 z M 51.703125 61.990234 L 51.703125 77.458984 L 38.306641 69.724609 L 51.703125 61.990234 z M 492.90625 64.845703 L 516.44922 78.4375 L 502.85742 101.97852 L 479.31641 88.388672 L 492.90625 64.845703 z M 590.98438 67.703125 L 624.92969 67.703125 L 641.90234 97.101562 L 624.92969 126.49805 L 590.98438 126.49805 L 574.01172 97.101562 L 590.98438 67.703125 z M 643.4043 67.703125 L 658.875 67.703125 L 651.13867 81.101562 L 643.4043 67.703125 z M 755.52539 67.703125 L 782.70703 67.703125 L 782.70703 94.886719 L 755.52539 94.886719 L 755.52539 67.703125 z M 798.70703 67.703125 L 825.89062 67.703125 L 825.89062 94.886719 L 798.70703 94.886719 L 798.70703 67.703125 z M 916.68359 67.703125 L 943.86719 67.703125 L 943.86719 94.886719 L 916.68359 94.886719 L 916.68359 67.703125 z M 403.61328 69.919922 L 411.34961 83.316406 L 395.87891 83.316406 L 403.61328 69.919922 z M 675.6582 70.630859 L 699.19922 84.222656 L 685.60742 107.76367 L 662.06641 94.171875 L 675.6582 70.630859 z M 739.52539 73.558594 L 739.52539 89.03125 L 726.12891 81.294922 L 739.52539 73.558594 z M 344.625 78.962891 L 374.02344 95.935547 L 374.02344 129.87891 L 344.62695 146.85156 L 315.22852 129.87891 L 315.22852 95.935547 L 344.625 78.962891 z M 530.30469 86.4375 L 553.8457 100.0293 L 540.25391 123.57031 L 516.71289 109.97852 L 530.30469 86.4375 z M 713.05664 92.222656 L 736.5957 105.81445 L 723.00391 129.35547 L 699.46484 115.76367 L 713.05664 92.222656 z M 64.322266 99.316406 L 98.267578 99.316406 L 115.24023 128.71484 L 98.269531 158.10938 L 64.322266 158.10938 L 47.351562 128.71289 L 64.322266 99.316406 z M 116.74414 99.316406 L 132.21289 99.316406 L 124.47852 112.71289 L 116.74414 99.316406 z M 228.86328 99.316406 L 256.04688 99.316406 L 256.04688 126.49805 L 228.86328 126.49805 L 228.86328 99.316406 z M 272.04688 99.316406 L 299.22852 99.316406 L 299.22852 126.49805 L 272.04688 126.49805 L 272.04688 99.316406 z M 390.02344 99.316406 L 417.20508 99.316406 L 417.20508 126.49805 L 390.02344 126.49805 L 390.02344 99.316406 z M 433.20508 99.316406 L 460.38867 99.316406 L 460.38867 126.49805 L 433.20508 126.49805 L 433.20508 99.316406 z M 148.99609 102.24414 L 172.53711 115.83594 L 158.94727 139.375 L 135.40625 125.78516 L 148.99609 102.24414 z M 212.86328 105.17188 L 212.86328 120.64258 L 199.4668 112.90625 L 212.86328 105.17188 z M 476.38867 105.17383 L 489.7832 112.90625 L 476.38867 120.64062 L 476.38867 105.17383 z M 654.06641 108.0293 L 677.60742 121.62109 L 664.01562 145.16211 L 640.47656 131.57031 L 654.06641 108.0293 z M 752.14258 110.88672 L 786.08984 110.88672 L 803.0625 140.2832 L 786.08789 169.68164 L 752.14453 169.68164 L 735.16992 140.2832 L 752.14258 110.88672 z M 804.56445 110.88672 L 820.0332 110.88672 L 812.29883 124.2832 L 804.56445 110.88672 z M 916.68359 110.88672 L 943.86719 110.88672 L 943.86719 138.06836 L 916.68359 138.06836 L 916.68359 110.88672 z M 564.77539 113.10156 L 572.50977 126.49805 L 557.03906 126.49805 L 564.77539 113.10156 z M 836.81836 113.81445 L 860.35742 127.40625 L 846.76758 150.94727 L 823.22656 137.35547 L 836.81836 113.81445 z M 900.68359 116.74414 L 900.68359 132.21289 L 887.28711 124.47852 L 900.68359 116.74414 z M 505.78516 122.14453 L 535.18359 139.11719 L 535.18359 173.0625 L 505.78516 190.03516 L 476.38867 173.0625 L 476.38867 139.11719 L 505.78516 122.14453 z M 186.39453 123.83594 L 209.93359 137.42578 L 196.34375 160.9668 L 172.80273 147.375 L 186.39453 123.83594 z M 691.46484 129.62109 L 715.00391 143.21289 L 701.41406 166.75195 L 677.87305 153.16211 L 691.46484 129.62109 z M 874.21484 135.40625 L 897.75586 148.99609 L 884.16406 172.53711 L 860.625 158.94727 L 874.21484 135.40625 z M 127.40625 139.64258 L 150.94727 153.23242 L 137.35547 176.77344 L 113.81445 163.18164 L 127.40625 139.64258 z M 225.48242 142.49805 L 259.42773 142.49805 L 276.40039 171.89453 L 259.42773 201.29297 L 225.48242 201.29297 L 208.50977 171.89453 L 225.48242 142.49805 z M 277.9043 142.49805 L 293.37109 142.49805 L 285.63672 155.89453 L 277.9043 142.49805 z M 390.02344 142.49805 L 417.20508 142.49805 L 417.20508 169.68164 L 390.02344 169.68164 L 390.02344 142.49805 z M 433.20508 142.49805 L 460.38867 142.49805 L 460.38867 169.68164 L 433.20508 169.68164 L 433.20508 142.49805 z M 551.18359 142.49805 L 578.36523 142.49805 L 578.36523 169.68164 L 551.18359 169.68164 L 551.18359 142.49805 z M 594.36523 142.49805 L 621.54883 142.49805 L 621.54883 169.68164 L 594.36523 169.68164 L 594.36523 142.49805 z M 38.113281 144.71289 L 45.845703 158.10938 L 30.376953 158.10938 L 38.113281 144.71289 z M 310.15625 145.42578 L 333.69727 159.01758 L 320.10547 182.55859 L 296.56445 168.9668 L 310.15625 145.42578 z M 374.02344 148.35352 L 374.02344 163.82617 L 360.62695 156.08984 L 374.02344 148.35352 z M 637.54883 148.35547 L 650.94531 156.08984 L 637.54883 163.82422 L 637.54883 148.35547 z M 815.22656 151.21094 L 838.76758 164.80273 L 825.17578 188.34375 L 801.63477 174.75391 L 815.22656 151.21094 z M 913.30273 154.06836 L 947.24805 154.06836 L 964.2207 183.4668 L 947.24805 212.86328 L 913.30273 212.86328 L 896.33008 183.4668 L 913.30273 154.06836 z M 965.72266 154.06836 L 981.19336 154.06836 L 973.45703 167.4668 L 965.72266 154.06836 z M 725.93359 156.2832 L 733.66992 169.68164 L 718.19727 169.68164 L 725.93359 156.2832 z M 164.80273 161.23242 L 188.34375 174.82422 L 174.75391 198.36523 L 151.21094 184.77344 L 164.80273 161.23242 z M 666.94531 165.32812 L 696.3418 182.29883 L 696.3418 216.24609 L 666.94531 233.21875 L 637.54883 216.24609 L 637.54883 182.30078 L 666.94531 165.32812 z M 347.55469 167.01758 L 371.09375 180.60938 L 357.50391 204.14844 L 333.96289 190.55859 L 347.55469 167.01758 z M 852.625 172.80273 L 876.16406 186.39453 L 862.57422 209.93359 L 839.0332 196.34375 L 852.625 172.80273 z M 67.703125 174.10938 L 94.886719 174.10938 L 94.886719 201.29297 L 67.703125 201.29297 L 67.703125 174.10938 z M 110.88672 179.9668 L 124.2832 187.70117 L 110.88672 195.43555 L 110.88672 179.9668 z M 288.56445 182.82422 L 312.10547 196.41602 L 298.51367 219.95508 L 274.97461 206.36523 L 288.56445 182.82422 z M 386.64062 185.68164 L 420.58789 185.68164 L 437.56055 215.07812 L 420.58789 244.47461 L 386.64258 244.47461 L 369.66992 215.07617 L 386.64062 185.68164 z M 439.0625 185.68164 L 454.53125 185.68164 L 446.79688 199.07812 L 439.0625 185.68164 z M 551.18359 185.68164 L 578.36523 185.68164 L 578.36523 212.86328 L 551.18359 212.86328 L 551.18359 185.68164 z M 594.36523 185.68164 L 621.54883 185.68164 L 621.54883 212.86328 L 594.36523 212.86328 L 594.36523 185.68164 z M 712.3418 185.68164 L 739.52539 185.68164 L 739.52539 212.86328 L 712.3418 212.86328 L 712.3418 185.68164 z M 755.52539 185.68164 L 782.70703 185.68164 L 782.70703 212.86328 L 755.52539 212.86328 L 755.52539 185.68164 z M 199.27148 187.89648 L 207.00586 201.29297 L 191.53906 201.29297 L 199.27148 187.89648 z M 471.31641 188.60938 L 494.85547 202.20117 L 481.26562 225.74023 L 457.72461 212.14844 L 471.31641 188.60938 z M 535.18359 191.53711 L 535.18359 207.00781 L 521.78516 199.27148 L 535.18359 191.53711 z M 798.70703 191.53906 L 812.10352 199.27148 L 798.70703 207.00586 L 798.70703 191.53906 z M 140.2832 196.9375 L 169.68164 213.91211 L 169.68164 247.85547 L 140.2832 264.83008 L 110.88672 247.85742 L 110.88672 213.91016 L 140.2832 196.9375 z M 887.09375 199.4668 L 894.82812 212.86328 L 879.35742 212.86328 L 887.09375 199.4668 z M 325.96289 204.41602 L 349.50391 218.00586 L 335.91211 241.54688 L 312.37109 227.95508 L 325.96289 204.41602 z M 828.10547 208.50977 L 857.50195 225.48242 L 857.50195 259.42773 L 828.10547 276.40039 L 798.70703 259.42773 L 798.70703 225.48242 L 828.10547 208.50977 z M 508.71289 210.20117 L 532.25391 223.79102 L 518.66211 247.33203 L 495.12305 233.74023 L 508.71289 210.20117 z M 67.703125 217.29297 L 94.886719 217.29297 L 94.886719 244.47461 L 67.703125 244.47461 L 67.703125 217.29297 z M 185.68164 217.29297 L 212.86328 217.29297 L 212.86328 244.47461 L 185.68164 244.47461 L 185.68164 217.29297 z M 228.86328 217.29297 L 256.04688 217.29297 L 256.04688 244.47461 L 228.86328 244.47461 L 228.86328 217.29297 z M 272.04688 223.15039 L 285.44141 230.88281 L 272.04688 238.61719 L 272.04688 223.15039 z M 449.72461 226.00586 L 473.26562 239.59766 L 459.67578 263.13867 L 436.13477 249.54688 L 449.72461 226.00586 z M 547.80273 228.86328 L 581.74609 228.86328 L 598.71875 258.25977 L 581.74609 287.6582 L 547.80273 287.6582 L 530.83008 258.26172 L 547.80273 228.86328 z M 600.22266 228.86328 L 615.69141 228.86328 L 607.95703 242.25977 L 600.22266 228.86328 z M 712.3418 228.86328 L 739.52539 228.86328 L 739.52539 256.04688 L 712.3418 256.04688 L 712.3418 228.86328 z M 755.52539 228.86328 L 782.70703 228.86328 L 782.70703 256.04688 L 755.52539 256.04688 L 755.52539 228.86328 z M 873.50195 228.86328 L 900.68359 228.86328 L 900.68359 256.04688 L 873.50195 256.04688 L 873.50195 228.86328 z M 916.68359 228.86328 L 943.86719 228.86328 L 943.86719 256.04688 L 916.68359 256.04688 L 916.68359 228.86328 z M 360.43164 231.07617 L 368.16602 244.47461 L 352.69727 244.47461 L 360.43164 231.07617 z M 632.47656 231.79102 L 656.01758 245.38281 L 642.42578 268.92383 L 618.88477 255.33203 L 632.47656 231.79102 z M 696.3418 234.7207 L 696.3418 250.18945 L 682.94336 242.45508 L 696.3418 234.7207 z M 959.86719 234.7207 L 973.26367 242.45508 L 959.86719 250.18945 L 959.86719 234.7207 z M 301.44336 240.12109 L 330.83984 257.09375 L 330.83984 291.03906 L 301.44336 308.01172 L 272.04688 291.03906 L 272.04688 257.09375 L 301.44336 240.12109 z M 487.12305 247.59766 L 510.66211 261.18945 L 497.07227 284.72852 L 473.53125 271.13867 L 487.12305 247.59766 z M 669.87305 253.38281 L 693.41406 266.97461 L 679.82227 290.51367 L 656.28125 276.92383 L 669.87305 253.38281 z M 73.558594 260.47461 L 89.03125 260.47461 L 81.294922 273.87109 L 73.558594 260.47461 z M 185.68164 260.47461 L 212.86328 260.47461 L 212.86328 287.6582 L 185.68164 287.6582 L 185.68164 260.47461 z M 228.86328 260.47461 L 256.04688 260.47461 L 256.04688 287.6582 L 228.86328 287.6582 L 228.86328 260.47461 z M 346.83984 260.47461 L 374.02344 260.47461 L 374.02344 287.6582 L 346.83984 287.6582 L 346.83984 260.47461 z M 390.02344 260.47461 L 417.20508 260.47461 L 417.20508 287.6582 L 390.02344 287.6582 L 390.02344 260.47461 z M 105.81445 263.4043 L 129.35547 276.99609 L 115.76367 300.53516 L 92.222656 286.94336 L 105.81445 263.4043 z M 169.68164 266.33008 L 169.68164 281.80273 L 156.2832 274.06641 L 169.68164 266.33008 z M 433.20508 266.33008 L 446.60352 274.06641 L 433.20508 281.80273 L 433.20508 266.33008 z M 610.88477 269.18945 L 634.42578 282.7793 L 620.83398 306.32031 L 597.29297 292.73047 L 610.88477 269.18945 z M 708.96094 272.04688 L 742.90625 272.04688 L 759.87891 301.44336 L 742.90625 330.83984 L 708.96094 330.83984 L 691.98828 301.44336 L 708.96094 272.04688 z M 761.38281 272.04688 L 776.84961 272.04688 L 769.11719 285.44141 L 761.38281 272.04688 z M 873.50195 272.04688 L 900.68359 272.04688 L 900.68359 299.22852 L 873.50195 299.22852 L 873.50195 272.04688 z M 916.68359 272.04688 L 943.86719 272.04688 L 943.86719 299.22852 L 916.68359 299.22852 L 916.68359 272.04688 z M 521.5918 274.26172 L 529.32812 287.6582 L 513.85547 287.6582 L 521.5918 274.26172 z M 793.63477 274.97461 L 817.17578 288.56445 L 803.58398 312.10547 L 780.04492 298.51367 L 793.63477 274.97461 z M 857.50195 277.9043 L 857.50195 293.37109 L 844.10547 285.63672 L 857.50195 277.9043 z M 462.60352 283.30469 L 492 300.27734 L 492 334.2207 L 462.60352 351.19336 L 433.20508 334.2207 L 433.20508 300.27734 L 462.60352 283.30469 z M 143.21289 284.99609 L 166.75195 298.58594 L 153.16211 322.12695 L 129.62109 308.53516 L 143.21289 284.99609 z M 648.28125 290.7793 L 671.82227 304.37109 L 658.23242 327.91211 L 634.69141 314.32031 L 648.28125 290.7793 z M 831.0332 296.56445 L 854.57422 310.15625 L 840.98242 333.69727 L 817.44141 320.10547 L 831.0332 296.56445 z M 84.222656 300.80078 L 107.76367 314.39258 L 94.171875 337.93359 L 70.630859 324.3418 L 84.222656 300.80078 z M 182.29883 303.6582 L 216.24609 303.6582 L 233.21875 333.05469 L 216.24609 362.45117 L 182.30078 362.45117 L 165.32812 333.05469 L 182.29883 303.6582 z M 234.7207 303.6582 L 250.18945 303.6582 L 242.45508 317.05664 L 234.7207 303.6582 z M 346.83984 303.6582 L 374.02344 303.6582 L 374.02344 330.83984 L 346.83984 330.83984 L 346.83984 303.6582 z M 390.02344 303.6582 L 417.20508 303.6582 L 417.20508 330.83984 L 390.02344 330.83984 L 390.02344 303.6582 z M 508 303.6582 L 535.18359 303.6582 L 535.18359 330.83984 L 508 330.83984 L 508 303.6582 z M 551.18359 303.6582 L 578.36523 303.6582 L 578.36523 330.83984 L 551.18359 330.83984 L 551.18359 303.6582 z M 266.97461 306.58594 L 290.51367 320.17773 L 276.92383 343.71875 L 253.38281 330.12695 L 266.97461 306.58594 z M 330.83984 309.51562 L 330.83984 324.98242 L 317.44336 317.24805 L 330.83984 309.51562 z M 594.36523 309.51562 L 607.76172 317.25 L 594.36523 324.98242 L 594.36523 309.51562 z M 772.04492 312.37109 L 795.58398 325.96289 L 781.99414 349.50391 L 758.45312 335.91211 L 772.04492 312.37109 z M 870.12109 315.22852 L 904.06445 315.22852 L 921.03711 344.625 L 904.06445 374.02344 L 870.12109 374.02344 L 853.14844 344.62695 L 870.12109 315.22852 z M 922.53906 315.22852 L 938.01172 315.22852 L 930.27539 328.625 L 922.53906 315.22852 z M 682.75195 317.44336 L 690.48438 330.83984 L 675.01758 330.83984 L 682.75195 317.44336 z M 954.79492 318.1582 L 978.33594 331.74805 L 964.74414 355.28906 L 941.20508 341.69727 L 954.79492 318.1582 z M 121.62109 322.39258 L 145.16211 335.98438 L 131.57031 359.52344 L 108.0293 345.93359 L 121.62109 322.39258 z M 623.76172 326.48633 L 653.16016 343.45898 L 653.16016 377.4043 L 623.76172 394.37695 L 594.36523 377.4043 L 594.36523 343.45898 L 623.76172 326.48633 z M 304.37109 328.17773 L 327.91211 341.76758 L 314.32031 365.30859 L 290.7793 351.71875 L 304.37109 328.17773 z M 809.44141 333.96289 L 832.98242 347.55469 L 819.39062 371.09375 L 795.85156 357.50391 L 809.44141 333.96289 z M 67.703125 341.125 L 81.101562 348.86133 L 67.703125 356.5957 L 67.703125 341.125 z M 245.38281 343.98242 L 268.92383 357.57422 L 255.33203 381.11523 L 231.79102 367.52344 L 245.38281 343.98242 z M 343.45898 346.83984 L 377.4043 346.83984 L 394.37695 376.23828 L 377.4043 405.63477 L 343.45898 405.63477 L 326.48633 376.23828 L 343.45898 346.83984 z M 395.87891 346.83984 L 411.34961 346.83984 L 403.61523 360.23633 L 395.87891 346.83984 z M 508 346.83984 L 535.18359 346.83984 L 535.18359 374.02344 L 508 374.02344 L 508 346.83984 z M 551.18359 346.83984 L 578.36523 346.83984 L 578.36523 374.02344 L 551.18359 374.02344 L 551.18359 346.83984 z M 669.16016 346.83984 L 696.3418 346.83984 L 696.3418 374.02344 L 669.16016 374.02344 L 669.16016 346.83984 z M 712.3418 346.83984 L 739.52539 346.83984 L 739.52539 374.02344 L 712.3418 374.02344 L 712.3418 346.83984 z M 156.08984 349.05469 L 163.82422 362.45117 L 148.35547 362.45117 L 156.08984 349.05469 z M 428.13477 349.76758 L 451.67578 363.35938 L 438.08398 386.90039 L 414.54297 373.30859 L 428.13477 349.76758 z M 492 352.69727 L 492 368.16602 L 478.60352 360.43164 L 492 352.69727 z M 755.52539 352.69727 L 768.92383 360.43164 L 755.52539 368.16602 L 755.52539 352.69727 z M 933.20508 355.55469 L 956.74414 369.14453 L 943.15234 392.68555 L 919.61133 379.09375 L 933.20508 355.55469 z M 97.101562 358.09766 L 126.49805 375.07031 L 126.49805 409.01562 L 97.101562 425.98828 L 67.703125 409.01562 L 67.703125 375.07031 L 97.101562 358.09766 z M 843.91016 360.62695 L 851.64648 374.02344 L 836.17383 374.02344 L 843.91016 360.62695 z M 282.7793 365.57422 L 306.32031 379.16602 L 292.73047 402.70703 L 269.18945 389.11523 L 282.7793 365.57422 z M 784.92383 369.66992 L 814.31836 386.64062 L 814.31836 420.58789 L 784.92188 437.56055 L 755.52539 420.58789 L 755.52539 386.64258 L 784.92383 369.66992 z M 465.53125 371.35938 L 489.07227 384.95117 L 475.48047 408.49219 L 451.93945 394.90039 L 465.53125 371.35938 z M 142.49805 378.45117 L 169.68164 378.45117 L 169.68164 405.63477 L 142.49805 405.63477 L 142.49805 378.45117 z M 185.68164 378.45117 L 212.86328 378.45117 L 212.86328 405.63477 L 185.68164 405.63477 L 185.68164 378.45117 z M 228.86328 384.30859 L 242.25977 392.04297 L 228.86328 399.77734 L 228.86328 384.30859 z M 406.54297 387.16602 L 430.08398 400.75781 L 416.49219 424.29688 L 392.95117 410.70703 L 406.54297 387.16602 z M 504.61914 390.02344 L 538.56445 390.02344 L 555.53711 419.41992 L 538.56445 448.81641 L 504.61914 448.81641 L 487.64648 419.41992 L 504.61914 390.02344 z M 557.04102 390.02344 L 572.50781 390.02344 L 564.77344 403.41992 L 557.04102 390.02344 z M 669.16016 390.02344 L 696.3418 390.02344 L 696.3418 417.20508 L 669.16016 417.20508 L 669.16016 390.02344 z M 712.3418 390.02344 L 739.52539 390.02344 L 739.52539 417.20508 L 712.3418 417.20508 L 712.3418 390.02344 z M 830.31836 390.02344 L 857.50195 390.02344 L 857.50195 417.20508 L 830.31836 417.20508 L 830.31836 390.02344 z M 873.50195 390.02344 L 900.68359 390.02344 L 900.68359 417.20508 L 873.50195 417.20508 L 873.50195 390.02344 z M 317.25 392.23828 L 324.98242 405.63477 L 309.51562 405.63477 L 317.25 392.23828 z M 589.29297 392.95117 L 612.83398 406.54297 L 599.24219 430.08398 L 575.70312 416.49219 L 589.29297 392.95117 z M 653.16016 395.87891 L 653.16016 411.34961 L 639.76367 403.61523 L 653.16016 395.87891 z M 916.68359 395.87891 L 930.08008 403.61328 L 916.68359 411.34961 L 916.68359 395.87891 z M 258.25977 401.28125 L 287.6582 418.25391 L 287.6582 452.19727 L 258.26172 469.16992 L 228.86328 452.19727 L 228.86328 418.25391 L 258.25977 401.28125 z M 443.93945 408.75781 L 467.48047 422.34766 L 453.88867 445.88867 L 430.34766 432.29688 L 443.93945 408.75781 z M 626.69141 414.54297 L 650.23242 428.13477 L 636.64062 451.67578 L 613.09961 438.08398 L 626.69141 414.54297 z M 30.376953 421.63477 L 45.847656 421.63477 L 38.113281 435.0332 L 30.376953 421.63477 z M 142.49805 421.63477 L 169.68164 421.63477 L 169.68164 448.81641 L 142.49805 448.81641 L 142.49805 421.63477 z M 185.68164 421.63477 L 212.86328 421.63477 L 212.86328 448.81641 L 185.68164 448.81641 L 185.68164 421.63477 z M 303.6582 421.63477 L 330.83984 421.63477 L 330.83984 448.81641 L 303.6582 448.81641 L 303.6582 421.63477 z M 346.83984 421.63477 L 374.02344 421.63477 L 374.02344 448.81641 L 346.83984 448.81641 L 346.83984 421.63477 z M 62.632812 424.5625 L 86.171875 438.1543 L 72.582031 461.69531 L 49.041016 448.10352 L 62.632812 424.5625 z M 126.49805 427.49023 L 126.49805 442.96094 L 113.10156 435.22461 L 126.49805 427.49023 z M 390.02344 427.49219 L 403.41992 435.22656 L 390.02344 442.95898 L 390.02344 427.49219 z M 567.70312 430.34766 L 591.24219 443.93945 L 577.65234 467.48047 L 554.11133 453.88867 L 567.70312 430.34766 z M 665.7793 433.20508 L 699.72266 433.20508 L 716.69531 462.60352 L 699.72266 492 L 665.7793 492 L 648.80664 462.60352 L 665.7793 433.20508 z M 718.19727 433.20508 L 733.66992 433.20508 L 725.93359 446.60352 L 718.19727 433.20508 z M 830.31836 433.20508 L 857.50195 433.20508 L 857.50195 460.38867 L 830.31836 460.38867 L 830.31836 433.20508 z M 873.50195 433.20508 L 900.68359 433.20508 L 900.68359 460.38867 L 873.50195 460.38867 L 873.50195 433.20508 z M 478.4082 435.41992 L 486.14258 448.81641 L 470.67383 448.81641 L 478.4082 435.41992 z M 750.45312 436.13477 L 773.99414 449.72461 L 760.40234 473.26562 L 736.86133 459.67578 L 750.45312 436.13477 z M 814.31836 439.0625 L 814.31836 454.53125 L 800.92188 446.79688 L 814.31836 439.0625 z M 419.41992 444.46289 L 448.81641 461.43555 L 448.81641 495.38086 L 419.41992 512.35352 L 390.02344 495.38086 L 390.02344 461.43555 L 419.41992 444.46289 z M 100.0293 446.1543 L 123.57031 459.74609 L 109.97852 483.28711 L 86.4375 469.69531 L 100.0293 446.1543 z M 605.09961 451.93945 L 628.64062 465.53125 L 615.04883 489.07227 L 591.50781 475.48047 L 605.09961 451.93945 z M 787.85156 457.72461 L 811.39062 471.31641 L 797.79883 494.85547 L 774.25977 481.26562 L 787.85156 457.72461 z M 41.041016 461.96094 L 64.582031 475.55078 L 50.990234 499.09375 L 27.449219 485.5 L 41.041016 461.96094 z M 139.11719 464.81641 L 173.0625 464.81641 L 190.03516 494.21484 L 173.0625 523.61133 L 139.11719 523.61133 L 122.14453 494.21484 L 139.11719 464.81641 z M 191.53711 464.81641 L 207.00781 464.81641 L 199.27148 478.21484 L 191.53711 464.81641 z M 303.6582 464.81641 L 330.83984 464.81641 L 330.83984 492 L 303.6582 492 L 303.6582 464.81641 z M 346.83984 464.81641 L 374.02344 464.81641 L 374.02344 492 L 346.83984 492 L 346.83984 464.81641 z M 464.81641 464.81641 L 492 464.81641 L 492 492 L 464.81641 492 L 464.81641 464.81641 z M 508 464.81641 L 535.18359 464.81641 L 535.18359 492 L 508 492 L 508 464.81641 z M 223.79102 467.74609 L 247.33203 481.33789 L 233.74023 504.87695 L 210.20117 491.28711 L 223.79102 467.74609 z M 287.6582 470.67188 L 287.6582 486.14453 L 274.26172 478.4082 L 287.6582 470.67188 z M 551.18359 470.67383 L 564.58008 478.4082 L 551.18359 486.14258 L 551.18359 470.67383 z M 728.86133 473.53125 L 752.40234 487.12305 L 738.81055 510.66211 L 715.27148 497.07227 L 728.86133 473.53125 z M 826.9375 476.38867 L 860.88281 476.38867 L 877.85547 505.78516 L 860.88281 535.18359 L 826.9375 535.18359 L 809.96484 505.78516 L 826.9375 476.38867 z M 879.35938 476.38867 L 894.82617 476.38867 L 887.09375 489.7832 L 879.35938 476.38867 z M 639.56836 478.60352 L 647.30273 492 L 631.83398 492 L 639.56836 478.60352 z M 911.61133 479.31641 L 935.1543 492.90625 L 921.5625 516.44922 L 898.02148 502.85742 L 911.61133 479.31641 z M 78.4375 483.55078 L 101.97852 497.14258 L 88.388672 520.68359 L 64.845703 507.09375 L 78.4375 483.55078 z M 580.58008 487.64648 L 609.97656 504.61914 L 609.97656 538.56445 L 580.58008 555.53711 L 551.18359 538.56445 L 551.18359 504.61914 L 580.58008 487.64648 z M 261.18945 489.33789 L 284.72852 502.92773 L 271.13867 526.46875 L 247.59766 512.87695 L 261.18945 489.33789 z M 766.25977 495.12305 L 789.79883 508.71289 L 776.20898 532.25391 L 752.66797 518.66211 L 766.25977 495.12305 z M 949.00977 500.90625 L 972.55078 514.5 L 958.95898 538.03906 L 935.41797 524.44922 L 949.00977 500.90625 z M 202.20117 505.14453 L 225.74023 518.73438 L 212.14844 542.27539 L 188.60938 528.68359 L 202.20117 505.14453 z M 300.27734 508 L 334.2207 508 L 351.19336 537.39648 L 334.2207 566.79492 L 300.27734 566.79492 L 283.30469 537.39648 L 300.27734 508 z M 352.69727 508 L 368.16602 508 L 360.43164 521.39648 L 352.69727 508 z M 464.81641 508 L 492 508 L 492 535.18359 L 464.81641 535.18359 L 464.81641 508 z M 508 508 L 535.18359 508 L 535.18359 535.18359 L 508 535.18359 L 508 508 z M 625.97656 508 L 653.16016 508 L 653.16016 535.18359 L 625.97656 535.18359 L 625.97656 508 z M 669.16016 508 L 696.3418 508 L 696.3418 535.18359 L 669.16016 535.18359 L 669.16016 508 z M 112.90625 510.2168 L 120.64062 523.61133 L 105.17383 523.61133 L 112.90625 510.2168 z M 384.95117 510.92773 L 408.49219 524.51953 L 394.90039 548.06055 L 371.35938 534.46875 L 384.95117 510.92773 z M 712.3418 513.85547 L 725.73828 521.5918 L 712.3418 529.32812 L 712.3418 513.85547 z M 448.81641 513.85742 L 448.81641 529.32617 L 435.41992 521.5918 L 448.81641 513.85742 z M 890.02148 516.71289 L 913.5625 530.30469 L 899.9707 553.8457 L 876.42969 540.25391 L 890.02148 516.71289 z M 800.72852 521.78516 L 808.46289 535.18359 L 792.99219 535.18359 L 800.72852 521.78516 z M 239.59766 526.73438 L 263.13867 540.32422 L 249.54688 563.86523 L 226.00586 550.27539 L 239.59766 526.73438 z M 741.73828 530.83008 L 771.13672 547.80273 L 771.13672 581.74609 L 741.74023 598.71875 L 712.3418 581.74609 L 712.3418 547.80273 L 741.73828 530.83008 z M 422.34766 532.51953 L 445.88867 546.11133 L 432.29688 569.65039 L 408.75781 556.06055 L 422.34766 532.51953 z M 927.41797 538.30469 L 950.95898 551.89648 L 937.36719 575.4375 L 913.82812 561.8457 L 927.41797 538.30469 z M 99.316406 539.61133 L 126.49805 539.61133 L 126.49805 566.79492 L 99.316406 566.79492 L 99.316406 539.61133 z M 142.49805 539.61133 L 169.68164 539.61133 L 169.68164 566.79492 L 142.49805 566.79492 L 142.49805 539.61133 z M 185.68164 545.46875 L 199.07812 553.20312 L 185.68164 560.9375 L 185.68164 545.46875 z M 363.35938 548.32422 L 386.90039 561.91797 L 373.30859 585.45703 L 349.76758 571.86523 L 363.35938 548.32422 z M 461.43555 551.18359 L 495.38086 551.18359 L 512.35352 580.58008 L 495.38086 609.97656 L 461.43555 609.97656 L 444.46289 580.58008 L 461.43555 551.18359 z M 513.85742 551.18359 L 529.32617 551.18359 L 521.5918 564.58008 L 513.85742 551.18359 z M 625.97656 551.18359 L 653.16016 551.18359 L 653.16016 578.36523 L 625.97656 578.36523 L 625.97656 551.18359 z M 669.16016 551.18359 L 696.3418 551.18359 L 696.3418 578.36523 L 669.16016 578.36523 L 669.16016 551.18359 z M 787.13672 551.18359 L 814.31836 551.18359 L 814.31836 578.36523 L 787.13672 578.36523 L 787.13672 551.18359 z M 830.31836 551.18359 L 857.50195 551.18359 L 857.50195 578.36523 L 830.31836 578.36523 L 830.31836 551.18359 z M 274.06641 553.39648 L 281.80273 566.79492 L 266.33008 566.79492 L 274.06641 553.39648 z M 546.11133 554.11133 L 569.65039 567.70312 L 556.06055 591.24219 L 532.51953 577.65234 L 546.11133 554.11133 z M 873.50195 557.03906 L 886.89844 564.77539 L 873.50195 572.50977 L 873.50195 557.03906 z M 609.97656 557.04102 L 609.97656 572.50781 L 596.58008 564.77344 L 609.97656 557.04102 z M 215.07812 562.43945 L 244.47461 579.41211 L 244.47461 613.35742 L 215.07617 630.33008 L 185.68164 613.35938 L 185.68164 579.41211 L 215.07812 562.43945 z M 961.88672 564.9668 L 969.62305 578.36523 L 954.15234 578.36523 L 961.88672 564.9668 z M 400.75781 569.91797 L 424.29688 583.50781 L 410.70703 607.04883 L 387.16602 593.45703 L 400.75781 569.91797 z M 902.89844 574.01172 L 932.29688 590.98438 L 932.29688 624.92969 L 902.89844 641.90234 L 873.50195 624.92969 L 873.50195 590.98438 L 902.89844 574.01172 z M 583.50781 575.70312 L 607.04883 589.29297 L 593.45703 612.83398 L 569.91797 599.24219 L 583.50781 575.70312 z M 99.316406 582.79492 L 126.49805 582.79492 L 126.49805 609.97656 L 99.316406 609.97656 L 99.316406 582.79492 z M 142.49805 582.79492 L 169.68164 582.79492 L 169.68164 609.97656 L 142.49805 609.97656 L 142.49805 582.79492 z M 260.47461 582.79492 L 287.6582 582.79492 L 287.6582 609.97656 L 260.47461 609.97656 L 260.47461 582.79492 z M 303.6582 582.79492 L 330.83984 582.79492 L 330.83984 609.97656 L 303.6582 609.97656 L 303.6582 582.79492 z M 83.316406 588.65039 L 83.316406 604.12109 L 69.919922 596.38672 L 83.316406 588.65039 z M 346.83984 588.65039 L 360.23633 596.38477 L 346.83984 604.12109 L 346.83984 588.65039 z M 524.51953 591.50781 L 548.06055 605.09961 L 534.46875 628.64062 L 510.92773 615.04883 L 524.51953 591.50781 z M 622.5957 594.36523 L 656.54102 594.36523 L 673.51367 623.76172 L 656.54102 653.16016 L 622.5957 653.16016 L 605.62305 623.76172 L 622.5957 594.36523 z M 675.01758 594.36523 L 690.48438 594.36523 L 682.75 607.76172 L 675.01758 594.36523 z M 787.13672 594.36523 L 814.31836 594.36523 L 814.31836 621.54883 L 787.13672 621.54883 L 787.13672 594.36523 z M 830.31836 594.36523 L 857.50195 594.36523 L 857.50195 621.54883 L 830.31836 621.54883 L 830.31836 594.36523 z M 435.22656 596.58008 L 442.95898 609.97656 L 427.49219 609.97656 L 435.22656 596.58008 z M 707.26953 597.29297 L 730.81055 610.88477 L 717.2207 634.42578 L 693.67969 620.83398 L 707.26953 597.29297 z M 771.13672 600.22266 L 771.13672 615.69141 L 757.74023 607.95703 L 771.13672 600.22266 z M 376.23828 605.62305 L 405.63477 622.5957 L 405.63477 656.54102 L 376.23828 673.51367 L 346.83984 656.54102 L 346.83984 622.5957 L 376.23828 605.62305 z M 56.847656 607.31445 L 80.388672 620.90625 L 66.794922 644.44531 L 43.255859 630.85547 L 56.847656 607.31445 z M 561.91797 613.09961 L 585.45703 626.69141 L 571.86523 650.23242 L 548.32422 636.64062 L 561.91797 613.09961 z M 744.66797 618.88477 L 768.20898 632.47656 L 754.61719 656.01758 L 731.07617 642.42578 L 744.66797 618.88477 z M 95.935547 625.97656 L 129.87891 625.97656 L 146.85156 655.37305 L 129.87891 684.77148 L 95.935547 684.77148 L 78.962891 655.375 L 95.935547 625.97656 z M 148.35352 625.97656 L 163.82617 625.97656 L 156.08984 639.37305 L 148.35352 625.97656 z M 260.47461 625.97656 L 287.6582 625.97656 L 287.6582 653.16016 L 260.47461 653.16016 L 260.47461 625.97656 z M 303.6582 625.97656 L 330.83984 625.97656 L 330.83984 653.16016 L 303.6582 653.16016 L 303.6582 625.97656 z M 421.63477 625.97656 L 448.81641 625.97656 L 448.81641 653.16016 L 421.63477 653.16016 L 421.63477 625.97656 z M 464.81641 625.97656 L 492 625.97656 L 492 653.16016 L 464.81641 653.16016 L 464.81641 625.97656 z M 180.60938 628.90625 L 204.14844 642.49609 L 190.55859 666.03711 L 167.01758 652.44531 L 180.60938 628.90625 z M 244.47461 631.83398 L 244.47461 647.30273 L 231.07617 639.56836 L 244.47461 631.83398 z M 508 631.83398 L 521.39648 639.56836 L 508 647.30273 L 508 631.83398 z M 685.67969 634.69141 L 709.2207 648.28125 L 695.62891 671.82227 L 672.08789 658.23242 L 685.67969 634.69141 z M 783.75391 637.54883 L 817.69922 637.54883 L 834.67188 666.94531 L 817.70117 696.3418 L 783.75391 696.3418 L 766.78125 666.94531 L 783.75391 637.54883 z M 836.17578 637.54883 L 851.64453 637.54883 L 843.91016 650.94531 L 836.17578 637.54883 z M 596.38477 639.76367 L 604.12109 653.16016 L 588.65039 653.16016 L 596.38477 639.76367 z M 868.42969 640.47656 L 891.9707 654.06641 L 878.37891 677.60742 L 854.83789 664.01562 L 868.42969 640.47656 z M 932.29688 643.4043 L 932.29688 658.875 L 918.89844 651.13867 L 932.29688 643.4043 z M 35.255859 644.71094 L 58.794922 658.30273 L 45.205078 681.8418 L 21.664062 668.25195 L 35.255859 644.71094 z M 537.39648 648.80664 L 566.79492 665.7793 L 566.79492 699.72266 L 537.39648 716.69531 L 508 699.72266 L 508 665.7793 L 537.39648 648.80664 z M 218.00586 650.49609 L 241.54688 664.08789 L 227.95508 687.62891 L 204.41602 674.03711 L 218.00586 650.49609 z M 723.07617 656.28125 L 746.61719 669.87305 L 733.02539 693.41406 L 709.48633 679.82227 L 723.07617 656.28125 z M 905.82812 662.06641 L 929.36914 675.6582 L 915.77734 699.19922 L 892.23633 685.60742 L 905.82812 662.06641 z M 159.01758 666.30273 L 182.55859 679.89453 L 168.9668 703.43555 L 145.42578 689.84375 L 159.01758 666.30273 z M 257.09375 669.16016 L 291.03906 669.16016 L 308.01172 698.55664 L 291.03906 727.95312 L 257.09375 727.95312 L 240.12109 698.55664 L 257.09375 669.16016 z M 309.51562 669.16016 L 324.98242 669.16016 L 317.24805 682.55664 L 309.51562 669.16016 z M 421.63477 669.16016 L 448.81641 669.16016 L 448.81641 696.3418 L 421.63477 696.3418 L 421.63477 669.16016 z M 464.81641 669.16016 L 492 669.16016 L 492 696.3418 L 464.81641 696.3418 L 464.81641 669.16016 z M 582.79492 669.16016 L 609.97656 669.16016 L 609.97656 696.3418 L 582.79492 696.3418 L 582.79492 669.16016 z M 625.97656 669.16016 L 653.16016 669.16016 L 653.16016 696.3418 L 625.97656 696.3418 L 625.97656 669.16016 z M 69.724609 671.375 L 77.460938 684.77148 L 61.988281 684.77148 L 69.724609 671.375 z M 341.76758 672.08789 L 365.30859 685.67969 L 351.71875 709.2207 L 328.17773 695.62891 L 341.76758 672.08789 z M 405.63477 675.01758 L 405.63477 690.48438 L 392.23828 682.75 L 405.63477 675.01758 z M 669.16016 675.01758 L 682.55664 682.75195 L 669.16016 690.48438 L 669.16016 675.01758 z M 846.83789 677.87305 L 870.37891 691.46484 L 856.78711 715.00391 L 833.24805 701.41406 L 846.83789 677.87305 z M 757.54492 682.94336 L 765.2793 696.3418 L 749.81055 696.3418 L 757.54492 682.94336 z M 196.41602 687.89453 L 219.95508 701.48633 L 206.36523 725.02539 L 182.82422 711.43555 L 196.41602 687.89453 z M 698.55664 691.98828 L 727.95312 708.96094 L 727.95312 742.90625 L 698.55664 759.87891 L 669.16016 742.90625 L 669.16016 708.96094 L 698.55664 691.98828 z M 379.16602 693.67969 L 402.70703 707.26953 L 389.11523 730.81055 L 365.57422 717.2207 L 379.16602 693.67969 z M 884.23633 699.46484 L 907.77734 713.05664 L 894.18555 736.5957 L 870.64453 723.00391 L 884.23633 699.46484 z M 56.132812 700.77148 L 83.316406 700.77148 L 83.316406 727.95312 L 56.132812 727.95312 L 56.132812 700.77148 z M 99.316406 700.77148 L 126.49805 700.77148 L 126.49805 727.95312 L 99.316406 727.95312 L 99.316406 700.77148 z M 142.49805 706.62891 L 155.89453 714.36328 L 142.49805 722.0957 L 142.49805 706.62891 z M 320.17773 709.48633 L 343.71875 723.07617 L 330.12695 746.61719 L 306.58594 733.02539 L 320.17773 709.48633 z M 418.25391 712.3418 L 452.19727 712.3418 L 469.16992 741.73828 L 452.19727 771.13672 L 418.25391 771.13672 L 401.28125 741.74023 L 418.25391 712.3418 z M 470.67188 712.3418 L 486.14453 712.3418 L 478.4082 725.73828 L 470.67188 712.3418 z M 582.79492 712.3418 L 609.97656 712.3418 L 609.97656 739.52539 L 582.79492 739.52539 L 582.79492 712.3418 z M 625.97656 712.3418 L 653.16016 712.3418 L 653.16016 739.52539 L 625.97656 739.52539 L 625.97656 712.3418 z M 743.95312 712.3418 L 771.13672 712.3418 L 771.13672 739.52539 L 743.95312 739.52539 L 743.95312 712.3418 z M 787.13672 712.3418 L 814.31836 712.3418 L 814.31836 739.52539 L 787.13672 739.52539 L 787.13672 712.3418 z M 230.88281 714.55859 L 238.61719 727.95312 L 223.15039 727.95312 L 230.88281 714.55859 z M 502.92773 715.27148 L 526.46875 728.86133 L 512.87695 752.40234 L 489.33789 738.81055 L 502.92773 715.27148 z M 566.79492 718.19727 L 566.79492 733.66992 L 553.39648 725.93359 L 566.79492 718.19727 z M 830.31836 718.19727 L 843.7168 725.93359 L 830.31836 733.66992 L 830.31836 718.19727 z M 171.89453 723.59961 L 201.29297 740.57227 L 201.29297 774.51758 L 171.89453 791.49023 L 142.49805 774.51758 L 142.49805 740.57227 L 171.89453 723.59961 z M 918.70508 726.12891 L 926.44141 739.52539 L 910.96875 739.52539 L 918.70508 726.12891 z M 357.57422 731.07617 L 381.11523 744.66797 L 367.52344 768.20898 L 343.98242 754.61719 L 357.57422 731.07617 z M 859.7168 735.16992 L 889.11328 752.14258 L 889.11328 786.08984 L 859.7168 803.0625 L 830.31836 786.08789 L 830.31836 752.14453 L 859.7168 735.16992 z M 540.32422 736.86133 L 563.86523 750.45312 L 550.27539 773.99414 L 526.73438 760.40234 L 540.32422 736.86133 z M 56.132812 743.95312 L 83.316406 743.95312 L 83.316406 771.13672 L 56.132812 771.13672 L 56.132812 743.95312 z M 99.316406 743.95312 L 126.49805 743.95312 L 126.49805 771.13672 L 99.316406 771.13672 L 99.316406 743.95312 z M 217.29297 743.95312 L 244.47461 743.95312 L 244.47461 771.13672 L 217.29297 771.13672 L 217.29297 743.95312 z M 260.47461 743.95312 L 287.6582 743.95312 L 287.6582 771.13672 L 260.47461 771.13672 L 260.47461 743.95312 z M 40.132812 749.81055 L 40.132812 765.2793 L 26.736328 757.54492 L 40.132812 749.81055 z M 303.6582 749.81055 L 317.05664 757.54492 L 303.6582 765.2793 L 303.6582 749.81055 z M 481.33789 752.66797 L 504.87695 766.25977 L 491.28711 789.79883 L 467.74609 776.20898 L 481.33789 752.66797 z M 579.41211 755.52539 L 613.35742 755.52539 L 630.33008 784.92383 L 613.35938 814.31836 L 579.41211 814.31836 L 562.43945 784.92188 L 579.41211 755.52539 z M 631.83398 755.52539 L 647.30273 755.52539 L 639.56836 768.92383 L 631.83398 755.52539 z M 743.95312 755.52539 L 771.13672 755.52539 L 771.13672 782.70703 L 743.95312 782.70703 L 743.95312 755.52539 z M 787.13672 755.52539 L 814.31836 755.52539 L 814.31836 782.70703 L 787.13672 782.70703 L 787.13672 755.52539 z M 905.11328 755.52539 L 932.29688 755.52539 L 932.29688 782.70703 L 905.11328 782.70703 L 905.11328 755.52539 z M 392.04297 757.74023 L 399.77734 771.13672 L 384.30859 771.13672 L 392.04297 757.74023 z M 664.08789 758.45312 L 687.62891 772.04492 L 674.03711 795.58398 L 650.49609 781.99414 L 664.08789 758.45312 z M 727.95312 761.38281 L 727.95312 776.84961 L 714.55859 769.11719 L 727.95312 761.38281 z M 333.05469 766.78125 L 362.45117 783.75391 L 362.45117 817.69922 L 333.05469 834.67188 L 303.6582 817.70117 L 303.6582 783.75391 L 333.05469 766.78125 z M 518.73438 774.25977 L 542.27539 787.85156 L 528.68359 811.39062 L 505.14453 797.79883 L 518.73438 774.25977 z M 701.48633 780.04492 L 725.02539 793.63477 L 711.43555 817.17578 L 687.89453 803.58398 L 701.48633 780.04492 z M 52.751953 787.13672 L 86.697266 787.13672 L 103.66992 816.5332 L 86.697266 845.93164 L 52.751953 845.93164 L 35.779297 816.5332 L 52.751953 787.13672 z M 105.17188 787.13672 L 120.64258 787.13672 L 112.90625 800.5332 L 105.17188 787.13672 z M 217.29297 787.13672 L 244.47461 787.13672 L 244.47461 814.31836 L 217.29297 814.31836 L 217.29297 787.13672 z M 260.47461 787.13672 L 287.6582 787.13672 L 287.6582 814.31836 L 260.47461 814.31836 L 260.47461 787.13672 z M 378.45117 787.13672 L 405.63477 787.13672 L 405.63477 814.31836 L 378.45117 814.31836 L 378.45117 787.13672 z M 421.63477 787.13672 L 448.81641 787.13672 L 448.81641 814.31836 L 421.63477 814.31836 L 421.63477 787.13672 z M 137.42578 790.06641 L 160.9668 803.65625 L 147.375 827.19727 L 123.83594 813.60547 L 137.42578 790.06641 z M 464.81641 792.99219 L 478.21484 800.72852 L 464.81641 808.46289 L 464.81641 792.99219 z M 201.29297 792.99414 L 201.29297 808.46094 L 187.89648 800.72852 L 201.29297 792.99414 z M 642.49609 795.85156 L 666.03711 809.44141 L 652.44531 832.98242 L 628.90625 819.39062 L 642.49609 795.85156 z M 740.57227 798.70703 L 774.51758 798.70703 L 791.49023 828.10547 L 774.51758 857.50195 L 740.57227 857.50195 L 723.59961 828.10547 L 740.57227 798.70703 z M 792.99414 798.70703 L 808.46094 798.70703 L 800.72852 812.10352 L 792.99414 798.70703 z M 905.11328 798.70703 L 932.29688 798.70703 L 932.29688 825.89062 L 905.11328 825.89062 L 905.11328 798.70703 z M 553.20312 800.92188 L 560.9375 814.31836 L 545.46875 814.31836 L 553.20312 800.92188 z M 825.24609 801.63477 L 848.78906 815.22656 L 835.19727 838.76758 L 811.65625 825.17578 L 825.24609 801.63477 z M 889.11328 804.56445 L 889.11328 820.0332 L 875.7168 812.29883 L 889.11328 804.56445 z M 494.21484 809.96484 L 523.61133 826.9375 L 523.61133 860.88281 L 494.21484 877.85547 L 464.81641 860.88281 L 464.81641 826.9375 L 494.21484 809.96484 z M 174.82422 811.65625 L 198.36523 825.24609 L 184.77344 848.78906 L 161.23242 835.19727 L 174.82422 811.65625 z M 679.89453 817.44141 L 703.43555 831.0332 L 689.84375 854.57422 L 666.30273 840.98242 L 679.89453 817.44141 z M 862.64453 823.22656 L 886.18555 836.81836 L 872.59375 860.35742 L 849.05273 846.76758 L 862.64453 823.22656 z M 115.83594 827.46289 L 139.375 841.05273 L 125.78516 864.59375 L 102.24414 851.00391 L 115.83594 827.46289 z M 213.91211 830.31836 L 247.85547 830.31836 L 264.83008 859.7168 L 247.85742 889.11328 L 213.91016 889.11328 L 196.9375 859.7168 L 213.91211 830.31836 z M 266.33008 830.31836 L 281.80273 830.31836 L 274.06641 843.7168 L 266.33008 830.31836 z M 378.45117 830.31836 L 405.63477 830.31836 L 405.63477 857.50195 L 378.45117 857.50195 L 378.45117 830.31836 z M 421.63477 830.31836 L 448.81641 830.31836 L 448.81641 857.50195 L 421.63477 857.50195 L 421.63477 830.31836 z M 539.61133 830.31836 L 566.79492 830.31836 L 566.79492 857.50195 L 539.61133 857.50195 L 539.61133 830.31836 z M 582.79492 830.31836 L 609.97656 830.31836 L 609.97656 857.50195 L 582.79492 857.50195 L 582.79492 830.31836 z M 26.542969 832.5332 L 34.277344 845.93164 L 18.806641 845.93164 L 26.542969 832.5332 z M 298.58594 833.24805 L 322.12695 846.83789 L 308.53516 870.37891 L 284.99609 856.78711 L 298.58594 833.24805 z M 625.97656 836.17383 L 639.37305 843.91016 L 625.97656 851.64648 L 625.97656 836.17383 z M 362.45117 836.17578 L 362.45117 851.64453 L 349.05469 843.91016 L 362.45117 836.17578 z M 803.65625 839.0332 L 827.19727 852.625 L 813.60547 876.16406 L 790.06641 862.57422 L 803.65625 839.0332 z M 901.73047 841.89062 L 935.67773 841.89062 L 952.64844 871.28711 L 935.67773 900.68359 L 901.73242 900.68359 L 884.75977 871.28516 L 901.73047 841.89062 z M 954.1543 841.89062 L 969.62305 841.89062 L 961.88672 855.28711 L 954.1543 841.89062 z M 714.36328 844.10547 L 722.0957 857.50195 L 706.62891 857.50195 L 714.36328 844.10547 z M 153.23242 849.05273 L 176.77344 862.64453 L 163.18164 886.18555 L 139.64258 872.59375 L 153.23242 849.05273 z M 655.37305 853.14844 L 684.77148 870.12109 L 684.77148 904.06445 L 655.375 921.03711 L 625.97656 904.06445 L 625.97656 870.12109 L 655.37305 853.14844 z M 335.98438 854.83789 L 359.52344 868.42969 L 345.93359 891.9707 L 322.39258 878.37891 L 335.98438 854.83789 z M 841.05273 860.625 L 864.59375 874.21484 L 851.00391 897.75586 L 827.46289 884.16406 L 841.05273 860.625 z M 56.132812 861.93164 L 83.316406 861.93164 L 83.316406 889.11328 L 56.132812 889.11328 L 56.132812 861.93164 z M 99.316406 867.78711 L 112.71289 875.52148 L 99.316406 883.25586 L 99.316406 867.78711 z M 276.99609 870.64453 L 300.53516 884.23633 L 286.94336 907.77734 L 263.4043 894.18555 L 276.99609 870.64453 z M 375.07031 873.50195 L 409.01562 873.50195 L 425.98828 902.89844 L 409.01562 932.29688 L 375.07031 932.29688 L 358.09766 902.89844 L 375.07031 873.50195 z M 427.49023 873.50195 L 442.96094 873.50195 L 435.22461 886.89844 L 427.49023 873.50195 z M 539.61133 873.50195 L 566.79492 873.50195 L 566.79492 900.68359 L 539.61133 900.68359 L 539.61133 873.50195 z M 582.79492 873.50195 L 609.97656 873.50195 L 609.97656 900.68359 L 582.79492 900.68359 L 582.79492 873.50195 z M 700.77148 873.50195 L 727.95312 873.50195 L 727.95312 900.68359 L 700.77148 900.68359 L 700.77148 873.50195 z M 743.95312 873.50195 L 771.13672 873.50195 L 771.13672 900.68359 L 743.95312 900.68359 L 743.95312 873.50195 z M 187.70117 875.7168 L 195.43555 889.11328 L 179.9668 889.11328 L 187.70117 875.7168 z M 459.74609 876.42969 L 483.28711 890.02148 L 469.69531 913.5625 L 446.1543 899.9707 L 459.74609 876.42969 z M 787.13672 879.35742 L 800.5332 887.09375 L 787.13672 894.82812 L 787.13672 879.35742 z M 523.61133 879.35938 L 523.61133 894.82617 L 510.2168 887.09375 L 523.61133 879.35938 z M 128.71484 884.75977 L 158.10938 901.73047 L 158.10938 935.67773 L 128.71289 952.64844 L 99.316406 935.67773 L 99.316406 901.73242 L 128.71484 884.75977 z M 875.52148 887.28711 L 883.25586 900.68359 L 867.78711 900.68359 L 875.52148 887.28711 z M 314.39258 892.23633 L 337.93359 905.82812 L 324.3418 929.36914 L 300.80078 915.77734 L 314.39258 892.23633 z M 816.5332 896.33008 L 845.93164 913.30273 L 845.93164 947.24805 L 816.5332 964.2207 L 787.13672 947.24805 L 787.13672 913.30273 L 816.5332 896.33008 z M 497.14258 898.02148 L 520.68359 911.61133 L 507.09375 935.1543 L 483.55078 921.5625 L 497.14258 898.02148 z M 56.132812 905.11328 L 83.316406 905.11328 L 83.316406 932.29688 L 56.132812 932.29688 L 56.132812 905.11328 z M 174.10938 905.11328 L 201.29297 905.11328 L 201.29297 932.29688 L 174.10938 932.29688 L 174.10938 905.11328 z M 217.29297 905.11328 L 244.47461 905.11328 L 244.47461 932.29688 L 217.29297 932.29688 L 217.29297 905.11328 z M 260.47461 910.96875 L 273.87109 918.70508 L 260.47461 926.44141 L 260.47461 910.96875 z M 438.1543 913.82812 L 461.69531 927.41797 L 448.10352 950.95898 L 424.5625 937.36719 L 438.1543 913.82812 z M 588.65039 916.68359 L 604.12109 916.68359 L 596.38672 930.08008 L 588.65039 916.68359 z M 700.77148 916.68359 L 727.95312 916.68359 L 727.95312 943.86719 L 700.77148 943.86719 L 700.77148 916.68359 z M 743.95312 916.68359 L 771.13672 916.68359 L 771.13672 943.86719 L 743.95312 943.86719 L 743.95312 916.68359 z M 861.93164 916.68359 L 889.11328 916.68359 L 889.11328 943.86719 L 861.93164 943.86719 L 861.93164 916.68359 z M 905.11328 916.68359 L 932.29688 916.68359 L 932.29688 943.86719 L 905.11328 943.86719 L 905.11328 916.68359 z M 348.86133 918.89844 L 356.5957 932.29688 L 341.125 932.29688 L 348.86133 918.89844 z M 620.90625 919.61133 L 644.44531 933.20508 L 630.85547 956.74414 L 607.31445 943.15234 L 620.90625 919.61133 z M 684.77148 922.53906 L 684.77148 938.01172 L 671.375 930.27539 L 684.77148 922.53906 z M 948.29688 922.54102 L 961.69336 930.27539 L 948.29688 938.00977 L 948.29688 922.54102 z M 475.55078 935.41797 L 499.09375 949.00977 L 485.5 972.55078 L 461.96094 958.95898 L 475.55078 935.41797 z M 658.30273 941.20508 L 681.8418 954.79492 L 668.25195 978.33594 L 644.71094 964.74414 L 658.30273 941.20508 z M 61.990234 948.29688 L 77.458984 948.29688 L 69.724609 961.69336 L 61.990234 948.29688 z M 421.63477 954.15234 L 435.0332 961.88672 L 421.63477 969.62305 L 421.63477 954.15234 z M 158.10938 954.1543 L 158.10938 969.62305 L 144.71289 961.88672 L 158.10938 954.1543 z M 749.81055 959.86719 L 765.2793 959.86719 L 757.54492 973.26367 L 749.81055 959.86719 z M 845.93164 965.72266 L 845.93164 981.19336 L 832.5332 973.45703 L 845.93164 965.72266 z "
       id="path835" />
  </g>
</svg>
