<?xml version="1.0" encoding="UTF-8" standalone="no"?>
<svg
   xmlns:dc="http://purl.org/dc/elements/1.1/"
   xmlns:cc="http://creativecommons.org/ns#"
   xmlns:rdf="http://www.w3.org/1999/02/22-rdf-syntax-ns#"
   xmlns:svg="http://www.w3.org/2000/svg"
   xmlns="http://www.w3.org/2000/svg"
   xmlns:sodipodi="http://sodipodi.sourceforge.net/DTD/sodipodi-0.dtd"
   xmlns:inkscape="http://www.inkscape.org/namespaces/inkscape"
   inkscape:version="1.0beta1 (32d4812, 2019-09-19)"
   sodipodi:docname="3-uniform_54.svg"
   id="c:\kuniform\3u\3-uniform_54.svg"
   height="1000.00006"
   width="973.986"
   version="1.0">
  <style
     id="style5274"></style>
  <metadata
     id="metadata5272">
    <rdf:RDF>
      <cc:Work
         rdf:about="">
        <dc:format>image/svg+xml</dc:format>
        <dc:type
           rdf:resource="http://purl.org/dc/dcmitype/StillImage" />
        <dc:title></dc:title>
      </cc:Work>
    </rdf:RDF>
  </metadata>
  <defs
     id="defs5270" />
  <sodipodi:namedview
     inkscape:current-layer="c:\kuniform\3u\3-uniform_54.svg"
     inkscape:window-maximized="0"
     inkscape:window-y="23"
     inkscape:window-x="0"
     inkscape:cy="562.85714"
     inkscape:cx="377.14286"
     inkscape:zoom="0.35"
     showgrid="false"
     id="namedview5268"
     inkscape:window-height="907"
     inkscape:window-width="1600"
     inkscape:pageshadow="2"
     inkscape:pageopacity="0"
     guidetolerance="10"
     gridtolerance="10"
     objecttolerance="10"
     borderopacity="1"
     inkscape:document-rotation="0"
     bordercolor="#666666"
     pagecolor="#ffffff" />
  <!-- X Coordinate transform: fx(x)=(x+65.4057)*0.86131597-->
  <!-- Y Coordinate transform: fy(y)=(1077.1577-y)*0.86131597 -->
  <path
     id="path5263"
     d="m 931.868,914.688 37.296,21.533 m -80.362,21.532 -21.533,37.297 M 42.118,122.608 4.822,101.076 M 63.651,42.247 h 43.065 M 85.184,79.543 106.716,42.247 144.013,20.714 M 85.184,914.688 63.651,877.392 M 931.868,122.608 969.164,101.076 M 888.802,79.543 910.335,42.247 m -43.066,0 h 43.066 M 85.184,957.753 63.651,995.05 m 825.151,-80.362 21.533,-37.296 M 63.651,159.904 85.184,122.608 M 128.249,79.543 165.545,58.01 187.078,20.714 M 85.184,840.096 47.888,818.563 H 4.822 m 101.894,58.829 H 63.651 L 26.355,855.859 4.822,818.563 m 123.427,96.125 v 43.065 M 910.335,159.904 888.802,122.608 M 808.44,58.01 845.737,79.543 h 43.065 43.066 l 37.296,21.533 M 845.737,914.688 v 43.065 l 21.532,37.297 m 0,-117.658 h 43.066 l 37.296,-21.533 21.533,-37.296 m -80.362,21.533 37.296,-21.533 m -154.954,139.19 37.296,-21.532 37.297,-21.533 21.532,-37.296 21.533,-37.296 M 706.546,42.247 h 43.065 m -525.237,0 H 267.44 M 42.118,914.688 4.822,936.221 M 47.888,818.563 V 775.497 L 26.355,738.201 4.822,700.905 M 128.249,122.608 V 79.543 M 106.716,159.904 85.184,122.608 V 79.543 L 63.651,42.247 M 47.888,218.733 85.184,197.201 m 0,0 21.532,-37.297 21.533,-37.296 37.296,-21.532 37.297,-21.533 M 47.888,261.799 V 218.733 L 26.355,181.437 4.822,144.141 M 245.907,957.753 224.374,995.05 M 728.079,957.753 706.546,995.05 M 122.48,818.563 85.184,797.03 47.888,775.497 m 117.657,117.658 -37.296,21.533 H 85.184 42.118 L 4.822,893.155 m 198.02,21.533 -37.297,21.533 -37.296,21.532 -21.533,37.297 M 969.164,893.155 947.631,855.859 926.098,818.563 V 775.497 M 128.249,79.543 H 85.184 42.118 L 4.822,101.076 m 883.98,96.125 37.296,21.532 h 43.066 m 0,0 -21.533,-37.296 -37.296,-21.533 H 867.269 M 845.737,122.608 V 79.543 m -74.593,0 37.296,-21.533 21.533,-37.296 m 139.191,315.677 -21.533,-37.296 -21.533,-37.296 v -43.066 m -117.658,674.422 37.297,21.533 h 43.065 43.066 l 37.296,-21.533 m -117.658,-74.592 37.296,-21.533 37.296,-21.533 21.533,-37.296 21.533,-37.296 m -198.02,213.783 37.296,21.533 37.297,21.532 M 728.079,79.543 749.611,42.247 786.908,20.714 M 545.822,42.247 h 43.066 m 58.829,15.763 37.296,21.533 m -439.106,0 21.533,-37.296 37.296,-21.533 m 80.362,21.533 h 43.066 M 288.973,79.543 326.269,58.01 347.802,20.714 M 42.118,679.372 4.822,657.839 m 80.362,96.125 v 43.066 43.066 l 21.532,37.296 21.533,37.296 37.296,21.533 37.297,21.532 M 165.545,144.141 V 101.076 58.01 M 4.822,336.391 26.355,299.095 47.888,261.799 85.184,240.266 122.48,218.733 M 202.842,122.608 165.545,101.076 128.249,79.543 106.716,42.247 85.184,4.95 M 42.118,636.306 4.822,657.839 M 42.118,357.924 4.822,379.457 M 42.118,400.99 4.822,379.457 m 284.151,578.296 37.296,21.533 37.296,-21.533 m 43.066,0 -21.533,37.297 m 64.599,-37.297 37.296,21.533 37.296,-21.533 m 43.066,0 -21.533,37.297 m 64.599,-37.297 37.296,21.533 37.296,-21.533 M 4.822,893.155 26.355,855.859 47.888,818.563 85.184,797.03 122.48,775.497 m 21.533,80.362 21.532,-37.296 m 21.533,37.296 h -43.065 l -37.297,21.533 -21.532,37.296 v 43.065 l 21.532,37.297 M 888.802,840.096 V 797.03 753.964 m 43.066,-74.592 37.296,-21.533 m -37.296,-21.533 37.296,21.533 m -117.658,-439.106 37.296,21.533 37.296,21.533 M 808.44,144.141 V 101.076 58.01 L 786.908,20.714 M 771.144,122.608 808.44,101.076 845.737,79.543 867.269,42.247 888.802,4.95 m 43.066,352.974 37.296,21.533 M 685.013,79.543 h 43.066 43.065 l 37.296,21.533 37.297,21.532 21.532,37.296 21.533,37.297 v 43.065 43.066 m 43.066,117.658 37.296,-21.533 m -117.658,396.04 37.296,21.533 37.296,21.533 h 43.066 m -182.256,37.296 h 43.065 m -101.894,58.829 21.532,-37.296 M 610.421,79.543 647.717,58.01 669.25,20.714 M 567.355,79.543 588.888,42.247 626.184,20.714 M 486.993,58.01 524.289,79.543 m 0,0 h 43.066 43.066 l 37.296,21.533 37.296,21.532 M 449.697,79.543 486.993,58.01 508.526,20.714 M 406.631,79.543 428.164,42.247 465.46,20.714 M 326.269,58.01 363.565,79.543 M 63.651,716.668 85.184,679.372 M 122.48,261.799 85.184,240.266 47.888,218.733 H 4.822 m 139.191,-37.296 h 43.065 M 4.822,218.733 26.355,181.437 63.651,159.904 h 43.065 l 37.297,21.533 21.532,37.296 m 58.829,-58.829 21.533,-37.296 M 85.184,636.306 63.651,599.01 M 85.184,357.924 106.716,320.628 M 63.651,438.286 85.184,400.99 M 47.888,540.181 V 497.115 L 26.355,459.819 4.822,422.523 m 219.552,454.869 h 43.066 m 96.125,37.296 -37.296,21.533 -37.296,21.532 h -43.066 -43.065 l -37.297,21.533 -37.296,-21.533 H 85.184 42.118 L 4.822,936.221 m 444.875,-21.533 37.296,21.533 37.296,21.532 h 43.066 43.066 l 37.296,-21.532 37.296,-21.533 m -519.468,-21.533 37.297,21.533 h 43.065 43.066 l 37.296,-21.533 m 380.277,-15.763 h 43.065 l 37.297,-21.533 21.532,-37.296 m -519.467,96.125 37.296,21.533 37.296,21.532 h 43.066 43.066 l 37.296,-21.532 37.296,-21.533 m 86.132,0 37.296,21.533 37.296,21.532 h 43.066 43.065 l 37.296,21.533 37.297,-21.533 h 43.065 43.066 l 37.296,-21.532 m -321.447,-43.066 37.296,21.533 h 43.066 43.065 L 808.44,893.155 M 165.545,775.497 144.013,738.201 M 245.907,840.096 208.611,818.563 H 165.545 122.48 l -37.296,21.533 -21.533,37.296 -21.533,37.296 v 43.065 L 63.651,995.05 M 867.269,716.668 h 43.066 m 58.829,58.829 -21.533,-37.296 -37.296,-21.533 -21.533,-37.296 m 0,-43.066 21.533,-37.296 m 58.829,15.763 -21.533,-37.296 -21.533,-37.296 v -43.066 m -74.592,-235.316 37.296,-21.533 37.296,-21.533 21.533,-37.296 21.533,-37.296 m -160.724,74.592 21.533,-37.296 m 0,-160.723 37.296,21.533 21.533,37.296 v 43.065 l -21.533,37.296 -37.296,21.533 h -43.065 m -37.297,-21.533 -21.532,-37.296 m 160.723,235.316 21.533,-37.296 m -43.066,0 h 43.066 l 37.296,-21.533 21.533,-37.296 M 910.335,438.286 888.802,400.99 m -80.362,374.507 21.533,-37.296 m -64.598,80.362 -37.296,21.533 -21.533,37.296 -21.533,37.296 v 43.065 l 21.533,37.297 m -96.125,-872.442 37.296,-21.532 37.296,-21.533 m -396.04,43.065 37.296,-21.532 37.296,-21.533 h 43.066 43.066 l 37.296,21.533 37.296,21.532 m 123.428,21.533 V 101.076 58.01 L 626.184,20.714 m -439.106,0 37.296,21.533 21.533,37.296 v 43.065 l 21.533,37.296 m 182.257,-37.296 37.296,-21.532 37.296,-21.533 M 363.565,122.608 326.269,101.076 288.973,79.543 H 245.907 202.842 L 165.545,58.01 144.013,20.714 M 326.269,144.141 V 101.076 58.01 L 304.736,20.714 m -160.723,278.381 21.532,-37.296 m 43.066,-43.066 37.296,-21.532 21.533,-37.297 21.533,-37.296 V 79.543 L 267.44,42.247 245.907,4.95 M 85.184,561.714 47.888,540.181 H 4.822 M 106.716,716.668 85.184,679.372 v -43.066 l 21.532,-37.296 m 21.533,80.362 v -43.066 m 0,-235.316 V 357.924 M 106.716,438.286 85.184,400.99 V 357.924 L 63.651,320.628 m 423.342,572.527 37.296,21.533 h 43.066 43.066 l 37.296,-21.533 m -321.448,0 37.296,21.533 h 43.066 43.066 l 37.296,-21.533 M 385.098,877.392 h 43.066 M 304.736,855.859 h 43.066 m 198.02,21.533 h 43.066 m 37.296,-21.533 H 669.25 M 165.545,700.905 128.249,679.372 H 85.184 42.118 L 4.822,700.905 m 0,74.592 21.533,-37.296 37.296,-21.533 h 43.065 l 37.297,21.533 h 43.065 m 21.533,80.362 V 775.497 M 845.737,636.306 v 43.066 l 21.532,37.296 21.533,37.296 37.296,21.533 h 43.066 M 867.269,599.01 h 43.066 l 37.296,-21.533 21.533,-37.296 m -80.362,21.533 37.296,-21.533 m -37.296,-64.599 37.296,21.533 h 43.066 m 0,0 -21.533,-37.296 -37.296,-21.533 H 867.269 M 829.973,299.095 808.44,261.799 m -80.361,-64.598 37.296,21.532 h 43.065 43.066 l 37.296,-21.532 21.533,-37.297 21.533,-37.296 V 79.543 L 910.335,42.247 888.802,4.95 M 845.737,400.99 V 357.924 M 808.44,893.155 786.908,855.859 765.375,818.563 v -43.066 m 21.533,-37.296 21.532,37.296 v 43.066 l 21.533,37.296 37.296,21.533 21.533,37.296 v 43.065 l 21.533,37.297 M 808.44,700.905 845.737,679.372 m -154.954,139.191 37.296,-21.533 37.296,-21.533 21.533,-37.296 21.532,-37.296 M 486.993,144.141 V 101.076 58.01 L 465.46,20.714 m 123.428,139.19 -21.533,-37.296 m -58.829,-101.894 37.296,21.533 21.533,37.296 v 43.065 l -21.533,37.296 m 80.362,21.533 H 669.25 M 428.164,159.904 406.631,122.608 m -58.829,-101.894 37.296,21.533 21.533,37.296 v 43.065 l -21.533,37.296 m -80.362,21.533 h 43.066 M 208.611,261.799 V 218.733 L 187.078,181.437 165.545,144.141 128.249,122.608 H 85.184 42.118 L 4.822,144.141 m 160.723,192.25 -37.296,21.533 H 85.184 42.118 L 4.822,336.391 m 160.723,0 21.533,-37.296 21.533,-37.296 37.296,-21.533 37.296,-21.533 M 122.48,540.181 85.184,518.648 47.888,497.115 m 117.657,117.658 v 43.066 43.066 l 21.533,37.296 21.533,37.296 37.296,21.533 37.296,21.533 M 165.545,422.523 V 379.457 336.391 M 4.822,614.773 26.355,577.477 47.888,540.181 85.184,518.648 122.48,497.115 m 123.427,417.573 21.533,-37.296 37.296,-21.533 21.533,-37.296 m 139.191,37.296 h 43.066 M 406.631,840.096 369.335,818.563 h -43.066 -43.066 l -37.296,21.533 -21.533,37.296 -21.532,37.296 v 43.065 l 21.532,37.297 m 342.981,-80.362 21.533,-37.296 37.296,-21.533 21.533,-37.296 m -43.066,0 -37.296,21.533 -21.533,37.296 -21.533,37.296 v 43.065 l 21.533,37.297 M 202.842,679.372 165.545,657.839 128.249,636.306 106.716,599.01 85.184,561.714 m 160.723,192.25 v 43.066 43.066 l 21.533,37.296 21.533,37.296 v 43.065 L 267.44,995.05 m -101.895,-101.895 21.533,-37.296 21.533,-37.296 37.296,-21.533 37.296,-21.533 M 808.44,700.905 v -43.066 -43.066 m 43.066,-74.592 37.296,-21.533 37.296,-21.533 21.533,-37.296 21.533,-37.296 m -117.658,74.592 37.296,21.533 37.296,21.533 h 43.066 m -160.724,-203.79 37.297,21.533 h 43.065 43.066 l 37.296,-21.533 M 706.546,159.904 h 43.065 l 37.297,21.533 21.532,37.296 v 43.066 l -21.532,37.296 m -21.533,-37.296 v -43.066 m -74.592,0 37.296,21.533 37.296,21.533 21.533,37.296 21.532,37.296 v 43.066 43.066 M 728.079,840.096 V 797.03 753.964 m 43.065,-74.592 37.296,-21.533 37.297,-21.533 21.532,-37.296 21.533,-37.296 V 518.648 475.582 L 867.269,438.286 845.737,400.99 m -154.954,374.507 37.296,21.533 37.296,21.533 h 43.065 43.066 l 37.296,21.533 21.533,37.296 21.533,37.296 v 43.065 L 910.335,995.05 M 669.25,20.714 l 37.296,21.533 21.533,37.296 v 43.065 l -21.533,37.296 -37.296,21.533 -21.533,37.296 M 465.46,181.437 h 43.066 m 58.829,15.764 37.296,21.532 h 43.066 43.066 l 37.296,-21.532 21.532,-37.297 21.533,-37.296 V 79.543 L 749.611,42.247 728.079,4.95 M 187.078,299.095 165.545,261.799 v -43.066 l 21.533,-37.296 37.296,-21.533 h 43.066 l 37.296,21.533 21.533,37.296 m 43.066,0 37.296,-21.532 21.533,-37.297 21.533,-37.296 V 79.543 L 428.164,42.247 406.631,4.95 m -203.789,631.356 -37.297,21.533 -37.296,21.533 -21.533,37.296 -21.532,37.296 -37.296,21.533 H 4.822 M 245.907,283.332 v -43.066 -43.065 m -43.065,160.723 -37.297,21.533 -37.296,21.533 -21.533,37.296 -21.532,37.296 -37.296,21.533 H 4.822 m 80.362,-299.914 37.296,21.532 h 43.065 43.066 l 37.296,21.533 37.296,21.533 m -139.19,315.678 21.532,-37.296 m 21.533,37.296 H 144.013 L 106.716,599.01 H 63.651 L 26.355,577.477 4.822,540.181 M 202.842,400.99 165.545,379.457 128.249,357.924 106.716,320.628 85.184,283.332 47.888,261.799 H 4.822 m 139.191,198.02 h 43.065 M 4.822,497.115 26.355,459.819 63.651,438.286 h 43.065 l 37.297,21.533 21.532,37.296 m 278.382,321.448 -37.296,21.533 -21.533,37.296 -21.533,37.296 v 43.065 l 21.533,37.297 m 21.533,-80.362 21.533,-37.296 37.296,-21.533 21.533,-37.296 m 43.066,0 37.296,21.533 m -198.02,-64.599 37.296,21.533 37.296,21.533 h 43.066 43.066 m 0,0 37.296,-21.533 37.296,-21.533 m -380.277,-58.829 21.533,-37.296 m 21.533,37.296 h -43.066 l -37.296,21.533 -21.533,37.296 v 43.066 l 21.533,37.296 37.296,21.533 21.533,37.296 v 43.065 l 21.533,37.297 m 58.829,-219.553 -21.533,-37.296 m 466.408,-101.895 37.296,21.533 37.297,21.533 h 43.065 43.066 l 37.296,21.533 M 786.908,577.477 h 43.065 m -21.533,-80.362 21.533,-37.296 m -58.829,-101.895 37.296,21.533 37.297,21.533 M 728.079,283.332 V 240.266 197.201 L 706.546,159.904 685.013,122.608 V 79.543 L 706.546,42.247 728.079,4.95 m -37.296,256.849 37.296,-21.533 37.296,-21.533 21.533,-37.296 21.532,-37.296 37.297,-21.533 h 43.065 43.066 l 37.296,21.533 m -198.02,256.849 37.296,-21.533 37.297,-21.533 21.532,-37.296 21.533,-37.296 37.296,-21.533 h 43.066 M 706.546,716.668 h 43.065 m -21.532,-37.296 21.532,37.296 37.297,21.533 h 43.065 l 37.296,-21.533 21.533,-37.296 V 636.306 L 867.269,599.01 829.973,577.477 808.44,540.181 M 647.717,775.497 669.25,738.201 m -139.191,-519.468 37.296,-21.532 21.533,-37.297 21.533,-37.296 V 79.543 L 588.888,42.247 567.355,4.95 m -160.724,192.251 37.296,21.532 h 43.066 43.066 m -160.724,43.066 37.296,-21.533 37.296,-21.533 M 245.907,636.306 224.374,599.01 m 0,-278.382 h 43.066 m -21.533,37.296 -21.533,-37.296 -37.296,-21.533 h -43.065 l -37.297,21.533 H 63.651 L 26.355,299.095 4.822,261.799 m 299.914,37.296 21.533,-37.296 M 224.374,438.286 245.907,400.99 M 208.611,540.181 V 497.115 L 187.078,459.819 165.545,422.523 128.249,400.99 H 85.184 42.118 L 4.822,422.523 m 364.513,396.04 37.296,-21.533 37.296,-21.533 m 86.132,0 37.296,21.533 37.296,21.533 h 43.066 43.066 l 37.296,21.533 21.532,37.296 21.533,37.296 v 43.065 L 749.611,995.05 M 406.631,753.964 v 43.066 43.066 l 21.533,37.296 21.533,37.296 v 43.065 l -21.533,37.297 m 198.02,-256.849 21.533,37.296 v 43.066 l 21.533,37.296 37.296,21.533 21.533,37.296 v 43.065 l 21.532,37.297 M 567.355,753.964 v 43.066 43.066 l 21.533,37.296 21.533,37.296 v 43.065 L 588.888,995.05 M 326.269,700.905 288.973,679.372 h -43.066 -43.065 l -37.297,21.533 -21.532,37.296 -21.533,37.296 v 43.066 l 21.533,37.296 21.532,37.296 v 43.066 43.065 m 562.534,-342.98 21.532,-37.296 m 15.764,-101.895 v 43.066 l 21.533,37.296 21.532,37.296 37.297,21.533 h 43.065 43.066 l 37.296,-21.533 M 728.079,357.924 749.611,320.628 M 669.25,299.095 647.717,261.799 M 749.611,438.286 728.079,400.99 m -80.362,492.165 -21.533,-37.296 -21.533,-37.296 v -43.066 l 21.533,-37.296 21.533,-37.296 37.296,-21.533 m -198.02,-460.639 21.533,-37.296 37.296,-21.533 h 43.066 l 37.296,21.533 21.533,37.296 v 43.066 l -21.533,37.296 m -96.125,-37.296 37.296,-21.533 37.296,-21.533 M 443.927,261.799 406.631,240.266 369.335,218.733 H 326.269 283.203 L 245.907,197.201 224.374,159.904 202.842,122.608 V 79.543 L 224.374,42.247 245.907,4.95 M 567.355,283.332 V 240.266 197.201 L 545.822,159.904 524.289,122.608 V 79.543 L 545.822,42.247 567.355,4.95 M 406.631,283.332 V 240.266 197.201 L 385.098,159.904 363.565,122.608 V 79.543 L 385.098,42.247 406.631,4.95 M 85.184,561.714 122.48,540.181 h 43.065 43.066 l 37.296,21.533 m 21.533,37.296 -21.533,37.296 v 43.066 l 21.533,37.296 37.296,21.533 h 43.066 m -58.829,-58.829 v -43.066 m 0,-278.382 37.296,-21.533 M 85.184,283.332 122.48,261.799 h 43.065 43.066 l 37.296,21.533 21.533,37.296 21.533,37.296 v 43.066 m 0,235.316 L 267.44,599.01 245.907,561.714 V 518.648 475.582 M 486.993,775.497 465.46,738.201 m 43.066,0 -21.533,37.296 v 43.066 l 21.533,37.296 37.296,21.533 21.533,37.296 v 43.065 l 21.533,37.297 M 385.098,716.668 h 43.066 m 117.658,0 h 43.066 m 96.125,-37.296 v -43.066 m 21.533,-37.296 h 43.065 l 37.297,-21.533 21.532,-37.296 v -43.066 l -21.532,-37.296 m -58.829,101.895 37.296,-21.533 M 706.546,438.286 h 43.065 l 37.297,21.533 h 43.065 l 37.296,-21.533 21.533,-37.296 v -43.066 l -21.533,-37.296 -37.296,-21.533 h -43.065 l -37.297,21.533 H 706.546 M 604.651,261.799 v -43.066 l 21.533,-37.296 21.533,-37.296 37.296,-21.533 h 43.066 43.065 l 37.296,21.533 21.533,37.296 21.533,37.296 v 43.066 l -21.533,37.296 -21.533,37.296 -37.296,21.533 h -43.065 -43.066 l -37.296,-21.533 m 37.296,64.599 v -43.066 m -74.592,321.448 37.296,-21.533 37.296,-21.533 21.533,-37.296 21.533,-37.296 V 518.648 475.582 M 508.526,299.095 486.993,261.799 m -21.533,37.296 21.533,-37.296 V 218.733 L 465.46,181.437 428.164,159.904 h -43.066 l -37.296,21.533 -21.533,37.296 v 43.066 l 21.533,37.296 m 198.02,21.533 h 43.066 m -203.79,0 h 43.066 m -219.553,176.487 37.296,21.533 37.296,21.533 m 43.066,352.974 21.533,-37.296 21.533,-37.296 V 775.497 L 347.802,738.201 326.269,700.905 V 657.839 614.773 M 85.184,475.582 122.48,497.115 h 43.065 43.066 l 37.296,-21.533 21.533,-37.296 21.533,-37.296 37.296,-21.533 37.296,-21.533 m -80.362,139.191 -37.296,21.533 -37.296,21.533 -21.533,37.296 -21.533,37.296 -37.296,21.533 H 85.184 42.118 L 4.822,614.773 m 401.809,64.599 -21.533,37.296 -37.296,21.533 -21.533,37.296 v 43.066 l 21.533,37.296 37.296,21.533 21.533,37.296 v 43.065 l 21.533,37.297 m 58.829,-294.145 -37.296,-21.533 h -43.066 -43.066 l -37.296,21.533 -21.533,37.296 -21.533,37.296 v 43.066 l 21.533,37.296 21.533,37.296 v 43.066 43.065 M 486.993,893.155 465.46,855.859 443.927,818.563 v -43.066 l 21.533,-37.296 21.533,-37.296 37.296,-21.533 m -160.724,-43.066 -37.296,21.533 -37.296,21.533 -21.533,37.296 -21.533,37.296 -37.296,21.533 H 165.545 122.48 L 85.184,753.964 63.651,716.668 42.118,679.372 V 636.306 L 63.651,599.01 85.184,561.714 V 518.648 475.582 L 63.651,438.286 42.118,400.99 V 357.924 L 63.651,320.628 85.184,283.332 V 240.266 197.201 L 63.651,159.904 42.118,122.608 V 79.543 L 63.651,42.247 85.184,4.95 m 562.533,695.955 v -43.066 -43.066 m 43.066,-74.592 37.296,-21.533 37.296,-21.533 21.533,-37.296 21.532,-37.296 37.297,-21.533 h 43.065 43.066 l 37.296,21.533 m -278.381,74.592 37.296,21.533 37.296,21.533 h 43.065 43.066 l 37.296,21.533 21.533,37.296 21.533,37.296 v 43.066 l -21.533,37.296 -21.533,37.296 -37.296,21.533 H 808.44 765.375 l -37.296,-21.533 -21.533,-37.296 -21.533,-37.296 m -74.592,-321.448 37.296,21.533 37.296,21.533 m -74.592,235.316 37.296,21.533 37.296,21.533 h 43.066 43.065 l 37.296,21.533 21.533,37.296 21.533,37.296 v 43.066 l -21.533,37.296 -21.533,37.296 v 43.066 43.065 m -321.447,-642.895 37.296,21.533 m -117.658,0 -21.533,-37.296 -37.296,-21.533 h -43.066 l -37.296,21.533 -21.533,37.296 v 43.066 l 21.533,37.296 m 182.257,-80.362 37.296,-21.533 21.533,-37.296 21.533,-37.296 v -43.066 m -225.323,358.744 21.533,-37.296 m 0,-203.79 21.533,-37.296 21.533,-37.296 v -43.066 l -21.533,-37.296 -21.533,-37.296 -37.296,-21.533 h -43.066 -43.065 l -37.297,21.533 -21.532,37.296 -21.533,37.296 v 43.066 l 21.533,37.296 21.532,37.296 37.297,21.533 h 43.065 43.066 l 37.296,21.533 37.296,21.533 m -58.829,58.829 h 43.066 m -21.533,37.296 -21.533,-37.296 -37.296,-21.533 h -43.066 l -37.296,21.533 -21.533,37.296 v 43.066 l 21.533,37.296 37.296,21.533 h 43.066 l 37.296,-21.533 h 43.066 m 101.895,58.829 37.296,21.533 37.296,21.533 h 43.066 43.066 l 37.296,21.533 21.533,37.296 21.533,37.296 v 43.066 l -21.533,37.296 -21.533,37.296 v 43.066 43.065 m -198.02,-299.914 37.296,-21.533 37.296,-21.533 m -117.658,0 -21.533,-37.296 m 241.086,-21.533 h 43.066 m -21.533,-80.362 21.533,-37.296 m -43.066,0 h 43.066 l 37.296,-21.533 21.533,-37.296 V 357.924 L 706.546,320.628 669.25,299.095 h -43.066 l -37.296,21.533 -21.533,37.296 m 43.066,43.066 37.296,-21.533 37.296,-21.533 21.533,-37.296 21.533,-37.296 37.296,-21.533 h 43.065 43.066 l 37.296,21.533 21.533,37.296 21.533,37.296 v 43.066 l -21.533,37.296 -21.533,37.296 -37.296,21.533 H 808.44 765.375 L 728.079,475.582 706.546,438.286 685.013,400.99 M 567.355,636.306 588.888,599.01 m -262.619,-262.619 37.296,21.533 h 43.066 43.066 l 37.296,21.533 37.296,21.533 m -74.592,0 37.296,-21.533 37.296,-21.533 M 385.098,438.286 406.631,400.99 M 369.335,540.181 V 497.115 L 347.802,459.819 326.269,422.523 288.973,400.99 m 278.382,278.382 -21.533,37.296 -37.296,21.533 H 465.46 l -37.296,-21.533 -21.533,-37.296 v -43.066 l 21.533,-37.296 m 58.829,380.276 v -43.065 -43.066 l 21.533,-37.296 21.533,-37.296 v -43.066 l -21.533,-37.296 -21.533,-37.296 v -43.066 -43.066 m 160.724,-74.592 21.533,37.296 37.296,21.533 21.533,37.296 v 43.066 l -21.533,37.296 -37.296,21.533 H 626.184 L 588.888,716.668 567.355,679.372 V 636.306 L 545.822,599.01 m -176.487,-58.829 37.296,21.533 M 647.717,422.523 685.013,400.99 h 43.066 43.065 l 37.296,21.533 21.533,37.296 21.533,37.296 v 43.066 l -21.533,37.296 -21.533,37.296 -37.296,21.533 H 728.079 685.013 L 647.717,614.773 626.184,577.477 604.651,540.181 V 497.115 M 588.888,438.286 567.355,400.99 m 0,160.724 37.296,-21.533 M 486.993,422.523 V 379.457 336.391 L 465.46,299.095 443.927,261.799 v -43.066 l 21.533,-37.296 21.533,-37.296 37.296,-21.533 h 43.066 43.066 l 37.296,21.533 21.533,37.296 21.533,37.296 v 43.066 l -21.533,37.296 -21.533,37.296 -37.296,21.533 H 567.355 524.289 M 369.335,540.181 h -43.066 -43.066 l -37.296,21.533 -21.533,37.296 -21.532,37.296 v 43.066 l 21.532,37.296 21.533,37.296 37.296,21.533 h 43.066 43.066 l 37.296,-21.533 21.533,-37.296 21.533,-37.296 V 636.306 L 428.164,599.01 406.631,561.714 v -43.066 -43.066 m -37.296,21.533 37.296,-21.533 m 58.829,101.895 h 43.066 M 406.631,475.582 428.164,438.286 449.697,400.99 v -43.066 l -21.533,-37.296 -21.533,-37.296 -37.296,-21.533 h -43.066 -43.066 l -37.296,21.533 -21.533,37.296 -21.532,37.296 v 43.066 l 21.532,37.296 21.533,37.296 37.296,21.533 h 43.066 43.066 l 37.296,21.533 37.296,21.533 m 123.428,-21.533 v -43.066 m 0,0 -21.533,-37.296 -21.533,-37.296 v -43.066 l 21.533,-37.296 21.533,-37.296 37.296,-21.533 h 43.066 43.066 l 37.296,21.533 21.532,37.296 21.533,37.296 v 43.066 l -21.533,37.296 -21.532,37.296 -37.296,21.533 h -43.066 -43.066 z m -37.296,64.599 37.296,-21.533 M 465.46,459.819 h 43.066 m -219.553,176.487 37.296,-21.533 21.533,-37.296 21.533,-37.296 37.296,-21.533 37.296,-21.533 m 0,0 21.533,-37.296 21.533,-37.296 37.296,-21.533 h 43.066 43.066 l 37.296,21.533 21.533,37.296 21.533,37.296 v 43.066 l -21.533,37.296 -21.533,37.296 -37.296,21.533 H 567.355 524.289 L 486.993,614.773 465.46,577.477 443.927,540.181 Z m 101.895,-58.829 h 43.066 l 37.296,21.533 21.533,37.296 v 43.066 l -21.533,37.296 -37.296,21.533 H 545.822 L 508.526,577.477 486.993,540.181 M 363.565,679.372 v -43.066 l 21.533,-37.296 21.533,-37.296 37.296,-21.533 h 43.066 m 43.066,-43.066 37.296,21.533 37.296,21.533 h 43.066 43.066 l 37.296,21.533 21.532,37.296 21.533,37.296 v 43.066 l -21.533,37.296 -21.532,37.296 -37.296,21.533 h -43.066 -43.066 l -37.296,-21.533 -21.533,-37.296 -21.533,-37.296 v -43.066 l 21.533,-37.296 21.533,-37.296 M 530.059,497.115 508.526,459.819 486.993,422.523 449.697,400.99 h -43.066 -43.066 l -37.296,21.533 m 160.724,74.592 21.533,-37.296 37.296,-21.533 21.533,-37.296 V 357.924 L 545.822,320.628 508.526,299.095 H 465.46 l -37.296,21.533 -21.533,37.296 v 43.066 l 21.533,37.296 m 58.829,101.895 -21.533,37.296 -37.296,21.533 h -43.066 l -37.296,-21.533 -21.533,-37.296 v -43.066 l 21.533,-37.296 37.296,-21.533 h 43.066 l 37.296,21.533 21.533,37.296 v 43.066 h 43.066 l 37.296,21.533 m -37.296,-64.599 37.296,-21.533 21.533,-37.296 21.533,-37.296 v -43.066 l -21.533,-37.296 -21.533,-37.296 -37.296,-21.533 h -43.066 -43.066 l -37.296,21.533 -21.533,37.296 -21.533,37.296 v 43.066 l 21.533,37.296 21.533,37.296 37.296,21.533 h 43.066 43.066 v 43.066 l -21.533,37.296 -21.533,37.296 -37.296,21.533 h -43.066 -43.066 l -37.296,-21.533 -21.533,-37.296 -21.533,-37.296 v -43.066 l 21.533,-37.296 21.533,-37.296 v -43.066 -43.066 l -21.533,-37.296 -21.533,-37.296 v -43.066 l 21.533,-37.296 21.533,-37.296 37.296,-21.533 h 43.066 43.066 l 37.296,21.533 21.533,37.296 21.533,37.296 37.296,21.533 37.296,21.533 21.533,37.296 21.533,37.296 v 43.066 43.066 l -21.533,37.296 -21.533,37.296 -37.296,21.533 v 43.066 l 21.533,37.296 21.533,37.296 v 43.066 l -21.533,37.296 -21.533,37.296 -37.296,21.533 H 486.993 443.927 L 406.631,753.964 385.098,716.668 363.565,679.372 326.269,657.839 288.973,636.306 H 245.907 202.842 L 165.545,614.773 144.013,577.477 122.48,540.181 v -43.066 l 21.533,-37.296 21.532,-37.296 37.297,-21.533 h 43.065 43.066"
     inkscape:connector-curvature="0"
     style="opacity:1;fill-opacity:0;stroke:#000000;stroke-width:15;stroke-opacity:1;stop-opacity:1;stroke-miterlimit:4;stroke-dasharray:none" />
</svg>
