<?xml version="1.0" encoding="UTF-8" standalone="no"?>
<svg
   xmlns:dc="http://purl.org/dc/elements/1.1/"
   xmlns:cc="http://creativecommons.org/ns#"
   xmlns:rdf="http://www.w3.org/1999/02/22-rdf-syntax-ns#"
   xmlns:svg="http://www.w3.org/2000/svg"
   xmlns="http://www.w3.org/2000/svg"
   xmlns:sodipodi="http://sodipodi.sourceforge.net/DTD/sodipodi-0.dtd"
   xmlns:inkscape="http://www.inkscape.org/namespaces/inkscape"
   inkscape:version="1.0beta1 (32d4812, 2019-09-19)"
   sodipodi:docname="3-uniform_36.svg"
   id="c:\kuniform\3u\3-uniform_36.svg"
   height="987.2564"
   width="1000.0"
   version="1.0">
  <metadata
     id="metadata117737">
    <rdf:RDF>
      <cc:Work
         rdf:about="">
        <dc:format>image/svg+xml</dc:format>
        <dc:type
           rdf:resource="http://purl.org/dc/dcmitype/StillImage" />
        <dc:title></dc:title>
      </cc:Work>
    </rdf:RDF>
  </metadata>
  <defs
     id="defs117735" />
  <sodipodi:namedview
     inkscape:current-layer="c:\kuniform\3u\3-uniform_36.svg"
     inkscape:window-maximized="1"
     inkscape:window-y="23"
     inkscape:window-x="0"
     inkscape:cy="430.79884"
     inkscape:cx="423.41263"
     inkscape:zoom="0.60678067"
     showgrid="false"
     id="namedview117733"
     inkscape:window-height="1005"
     inkscape:window-width="1680"
     inkscape:pageshadow="2"
     inkscape:pageopacity="0"
     guidetolerance="10"
     gridtolerance="10"
     objecttolerance="10"
     borderopacity="1"
     inkscape:document-rotation="0"
     bordercolor="#666666"
     pagecolor="#ffffff" />
  <!-- X Coordinate transform: fx(x)=(x+95.48352)*0.8576572-->
  <!-- Y Coordinate transform: fy(y)=(1078.9036-y)*0.8576572 -->
  <path
     d="m 57.784,918.045 -37.137,21.441 m 74.275,0 L 57.784,918.045 20.647,896.603 M 957.912,84.908 995.05,106.349 M 899.333,69.212 V 26.329 m -841.549,80.02 -37.137,21.442 m 900.127,833.137 37.138,-21.442 m 0,-42.883 37.138,21.442 m -74.276,0 v 42.883 m -37.137,-21.442 37.137,-21.441 37.138,-21.442 37.138,-21.441 m -74.276,-768.813 37.138,21.442 37.138,21.441 M 782.175,26.329 819.312,47.77 M 57.784,149.232 20.647,127.791 m 0,42.883 37.137,-21.442 37.138,-21.441 21.441,-37.138 V 47.77 4.887 M 233.522,47.77 V 4.887 M 159.246,47.77 196.384,69.212 M 270.659,26.329 233.522,47.77 196.384,69.212 159.246,90.653 H 116.363 L 79.226,69.212 42.088,47.77 M 79.226,69.212 V 26.329 M 42.088,859.466 v -42.883 m 37.138,64.324 37.137,-21.441 m 101.462,58.579 v 42.883 M 957.912,170.674 995.05,149.232 M 862.195,47.77 l 37.138,21.442 21.441,37.137 v 42.883 M 995.05,192.115 957.912,170.674 920.774,149.232 883.637,127.791 862.195,90.653 V 47.77 4.887 M 745.037,47.77 V 4.887 M 936.47,859.466 v -42.883 m -74.275,42.883 37.138,21.441 M 707.899,26.329 l 37.138,21.441 37.138,21.442 37.137,21.441 h 42.883 L 899.333,69.212 936.47,47.77 973.608,26.329 M 760.733,918.045 v 42.883 M 79.226,795.141 v 42.883 42.883 l -21.442,37.138 v 42.883 m -37.137,-64.325 21.441,-37.137 37.138,-21.442 37.137,-21.441 m 42.883,42.883 37.138,21.441 M 936.47,47.77 V 4.887 m -681.507,891.716 37.138,21.442 M 393.563,47.77 V 4.887 M 42.088,250.694 v -42.883 m 37.138,-21.441 37.137,21.441 m 138.6,-122.903 37.138,21.441 m -74.276,42.883 V 106.349 M 57.784,309.273 20.647,330.715 M 57.784,352.156 20.647,330.715 M 42.088,453.618 V 410.735 M 57.784,758.004 20.647,736.562 m 37.137,-21.441 -37.137,21.441 m 21.441,-80.02 V 613.659 M 57.784,512.197 20.647,533.638 M 57.784,555.08 20.647,533.638 m 937.265,245.807 37.138,-21.441 m -37.138,-64.325 37.138,21.442 m -37.138,-427.289 37.138,21.441 m -37.138,64.324 37.138,-21.441 M 957.912,576.521 995.05,555.08 m -37.138,-64.324 37.138,21.441 m -95.717,282.944 v 42.883 42.883 l 21.441,37.138 37.138,21.441 37.138,-21.441 m -212.875,-37.138 37.137,-21.441 m -132.854,58.579 37.138,21.441 37.137,21.442 m -601.487,-144.345 37.138,21.441 37.138,21.442 M 116.363,4.887 79.226,26.329 42.088,47.77 m 292.895,870.275 37.138,21.441 37.138,21.442 M 936.47,250.694 v -42.883 m -74.275,0 37.138,-21.441 M 584.996,47.77 V 4.887 m 175.737,144.345 v -42.883 m -74.275,0 37.138,-21.441 M 430.7,26.329 467.838,47.77 M 430.7,69.212 V 26.329 m -95.717,80.02 37.138,-21.441 M 79.226,272.135 V 229.253 186.37 L 57.784,149.232 V 106.349 L 79.226,69.212 116.363,47.77 m 42.883,160.041 37.138,-21.441 M 292.101,149.232 254.963,127.791 217.825,106.349 196.384,69.212 V 26.329 M 79.226,475.059 v -42.882 -42.883 m -58.579,304.385 37.137,21.442 37.138,21.441 21.441,37.138 v 42.883 42.883 42.883 L 94.922,939.486 57.784,960.928 20.647,939.486 M 79.226,677.983 V 635.1 592.218 m 841.548,165.786 37.138,-21.442 37.138,-21.441 m -132.855,101.462 37.138,-21.442 21.441,-37.137 v -42.883 m 15.696,-58.579 v -42.883 m -15.696,-304.386 37.138,21.442 37.138,21.441 M 936.47,453.618 V 410.735 M 920.774,555.08 957.912,533.638 995.05,512.197 M 20.647,84.908 42.088,47.77 V 4.887 m 527.212,956.041 37.137,-21.442 37.138,-21.441 m 101.462,-58.579 37.138,-21.442 37.137,-21.441 m -585.79,0 v 42.883 l 21.441,37.137 v 42.883 42.883 m 37.138,-21.441 V 918.045 875.162 L 270.659,838.024 233.522,816.583 196.384,795.141 159.246,773.7 H 116.363 L 79.226,795.141 42.088,816.583 4.95,838.024 m 404.309,80.021 v 42.883 m -191.434,0 37.138,-21.442 37.138,-21.441 h 42.882 l 37.138,-21.442 m -191.433,42.883 37.137,-21.441 37.138,-21.442 37.138,-21.441 h 42.882 l 37.138,21.441 37.138,21.442 37.137,21.441 M 899.333,272.135 V 229.253 186.37 l 21.441,-37.138 37.138,-21.441 37.138,-21.442 m -74.276,245.807 v -42.883 l -21.441,-37.138 -37.138,-21.441 m -80.02,-64.324 37.137,21.441 M 510.721,47.77 547.858,69.212 m 58.579,15.696 37.138,21.441 m 80.021,64.325 V 127.791 84.908 L 745.037,47.77 782.175,26.329 819.312,4.887 m -484.329,144.345 37.138,-21.441 37.138,-21.442 M 20.647,373.597 57.784,352.156 94.922,330.715 116.363,293.577 V 250.694 207.811 164.928 L 94.922,127.791 57.784,106.349 20.647,84.908 m 138.599,165.786 37.138,-21.441 37.138,-21.442 M 116.363,410.735 79.226,389.294 57.784,352.156 v -42.883 l 21.442,-37.138 37.137,-21.441 M 20.647,576.521 57.784,555.08 94.922,533.638 116.363,496.501 V 453.618 410.735 367.852 L 94.922,330.715 57.784,309.273 20.647,287.832 m 95.716,368.71 -37.137,21.441 -21.442,37.138 v 42.883 l 21.442,37.137 37.137,21.442 h 42.883 l 37.138,-21.442 M 116.363,613.659 79.226,592.218 57.784,555.08 v -42.883 l 21.442,-37.138 37.137,-21.441 m -95.716,37.138 37.137,21.441 37.138,21.441 21.441,37.138 v 42.883 42.883 42.883 l -21.441,37.137 -37.138,21.442 -37.137,21.441 m 974.403,-107.207 -37.138,21.441 -37.138,21.442 -37.137,21.441 -21.442,37.138 v 42.883 42.883 42.883 l 21.442,37.137 37.137,21.442 37.138,21.441 M 899.333,677.983 V 635.1 592.218 m 0,-117.159 V 432.177 389.294 M 995.05,63.466 973.608,26.329 936.47,4.887 899.333,26.329 862.195,47.77 H 819.312 L 782.175,69.212 M 569.3,918.045 v 42.883 m 37.137,-64.325 37.138,21.442 h 42.883 l 37.138,-21.442 m -191.434,42.883 37.138,-21.441 37.137,-21.442 37.138,-21.441 h 42.883 l 37.138,21.441 37.137,21.442 37.138,21.441 m -15.696,-144.345 37.137,21.442 h 42.883 l 37.138,21.441 37.137,21.442 21.442,37.137 v 42.883 42.883 M 745.037,816.583 v 42.883 l -21.441,37.137 v 42.883 42.883 M 995.05,875.162 973.608,838.024 936.47,816.583 899.333,795.141 862.195,773.7 h -42.883 l -37.137,21.441 -37.138,21.442 -37.138,21.441 -21.441,37.138 v 42.883 42.883 M 995.05,395.039 957.912,373.597 920.774,352.156 883.637,330.715 862.195,293.577 v -42.883 -42.883 -42.883 l 21.442,-37.137 37.137,-21.442 37.138,-21.441 37.138,-21.442 m -250.013,144.345 37.138,21.442 37.137,21.441 M 356.425,26.329 393.563,47.77 430.7,69.212 467.838,90.653 h 42.883 L 547.858,69.212 584.996,47.77 622.134,26.329 m -52.834,80.02 37.137,21.442 37.138,21.441 m -388.612,21.442 37.138,-21.442 h 42.882 l 37.138,21.442 M 467.838,4.887 V 47.77 90.653 l -21.442,37.138 -37.137,21.441 -37.138,21.442 -37.138,21.441 H 292.101 L 254.963,170.674 217.825,149.232 180.688,127.791 159.246,90.653 V 47.77 4.887 m 37.138,267.248 -37.138,-21.441 H 116.363 L 79.226,229.253 42.088,207.811 20.647,170.674 M 159.246,4.887 l 37.138,21.442 37.138,21.441 21.441,37.138 v 42.883 42.883 l -21.441,37.137 v 42.883 M 4.95,229.253 l 37.138,21.441 37.138,21.441 37.137,21.442 h 42.883 l 37.138,-21.442 37.138,-21.441 37.137,-21.441 21.442,-37.138 V 149.232 106.349 63.466 L 270.659,26.329 233.522,4.887 196.384,26.329 159.246,47.77 H 116.363 L 79.226,26.329 42.088,4.887 m 820.107,651.655 37.138,21.441 21.441,37.138 37.138,21.441 37.138,21.442 M 862.195,613.659 899.333,592.218 920.774,555.08 v -42.883 m 74.276,-42.883 -37.138,21.442 -37.138,21.441 -37.137,21.441 -21.442,37.138 v 42.883 42.883 42.883 l 21.442,37.137 37.137,21.442 37.138,21.441 37.138,21.442 m -132.855,-390.152 37.138,-21.441 21.441,-37.138 37.138,-21.441 37.138,-21.442 m -132.855,144.345 37.138,21.441 21.441,37.138 37.138,21.441 37.138,21.442 m 0,42.883 -37.138,-21.442 -37.138,-21.441 -37.137,-21.442 -21.442,-37.137 v -42.883 -42.883 -42.883 l 21.442,-37.137 37.137,-21.442 37.138,-21.441 37.138,-21.442 M 217.825,758.004 v -42.883 m 37.138,64.324 37.138,-21.441 M 430.7,880.907 467.838,859.466 m -74.275,0 V 816.583 M 862.195,4.887 899.333,26.329 936.47,47.77 957.912,84.908 v 42.883 42.883 l -21.442,37.137 -37.137,21.442 -37.138,21.441 h -42.883 l -37.137,21.441 m -95.717,-122.903 37.138,21.442 21.441,37.137 v 42.883 M 686.458,106.349 v 42.883 42.883 l 21.441,37.138 37.138,21.441 37.138,21.441 37.137,21.442 h 42.883 l 37.138,-21.442 37.137,-21.441 37.138,-21.441 21.442,-37.138 M 569.3,149.232 V 106.349 L 547.858,69.212 V 26.329 m 138.6,80.02 V 63.466 l 21.441,-37.137 37.138,-21.442 37.138,21.442 v 42.883 l -21.442,37.137 -37.137,21.442 -37.138,21.441 h -42.883 l -37.138,21.442 M 510.721,4.887 V 47.77 90.653 l 21.441,37.138 37.138,21.441 37.137,21.442 37.138,21.441 h 42.883 l 37.138,-21.441 37.137,-21.442 37.138,-21.441 21.441,-37.138 V 47.77 4.887 m -660.066,405.848 37.138,-21.441 m -37.138,64.324 37.138,21.441 m -37.138,181.483 37.138,21.441 m -37.138,-64.324 37.138,-21.441 m 314.337,267.248 37.137,21.441 m 37.138,-21.441 v -42.883 m 175.737,-58.579 v -42.883 m -505.77,-21.442 v 42.883 42.883 l -21.441,37.138 -37.138,21.441 -37.138,21.442 H 116.363 L 79.226,838.024 42.088,816.583 20.647,779.445 m 314.336,-21.441 37.138,21.441 m 95.717,37.138 -37.138,21.441 -37.137,21.442 -21.442,37.137 v 42.883 42.883 M 430.7,186.37 l 37.138,21.441 m -74.275,42.883 V 207.811 M 217.825,352.156 v -42.883 m 37.138,-21.441 37.138,21.441 m -271.454,64.324 21.441,37.138 37.138,21.442 37.137,21.441 h 42.883 l 37.138,-21.441 37.138,-21.442 M 217.825,555.08 V 512.197 M 20.647,693.679 42.088,656.542 79.226,635.1 116.363,613.659 h 42.883 l 37.138,21.441 37.138,21.442 m 58.579,58.579 -37.138,-21.442 -21.441,-37.137 v -42.883 m 548.653,64.324 37.137,-21.441 m -37.137,-64.324 37.137,21.441 m -37.137,-224.365 37.137,21.441 m -308.591,405.848 37.137,21.441 37.138,21.442 21.441,37.137 v 42.883 42.883 M 430.7,795.141 l 37.138,21.442 h 42.883 l 37.137,-21.442 m 58.579,-15.696 37.138,-21.441 m 80.021,21.441 v -42.883 -42.883 m -388.613,21.442 37.138,21.441 37.138,21.442 M 760.733,352.156 v -42.883 m -74.275,0 37.138,-21.441 M 510.721,207.811 547.858,186.37 m 37.138,64.324 V 207.811 M 467.838,250.694 430.7,229.253 393.563,207.811 372.121,170.674 V 127.791 84.908 L 393.563,47.77 430.7,26.329 m -95.717,282.944 37.138,-21.441 m -351.474,0 21.441,-37.138 37.138,-21.441 37.137,-21.442 h 42.883 l 37.138,21.442 37.138,21.441 21.441,37.138 v 42.883 42.882 m -21.441,80.021 v -42.883 l 21.441,-37.138 37.138,-21.441 M 254.963,576.521 V 533.638 490.756 M 4.95,635.1 42.088,613.659 79.226,592.218 116.363,570.776 h 42.883 l 37.138,21.442 37.138,21.441 37.137,21.441 21.442,37.138 v 42.883 42.883 42.883 l -21.442,37.137 -37.137,21.442 -37.138,21.441 -37.138,21.442 H 116.363 L 79.226,880.907 42.088,859.466 4.95,838.024 M 745.037,656.542 782.175,635.1 819.312,613.659 h 42.883 l 37.138,21.441 37.137,21.442 21.442,37.137 v 42.883 42.883 l -21.442,37.138 -37.137,21.441 -37.138,21.442 h -42.883 l -37.137,-21.442 -37.138,-21.441 -21.441,-37.138 -37.138,-21.441 m 0,-42.883 37.138,-21.442 21.441,-37.137 v -42.883 m 15.696,-58.579 v -42.883 m -15.696,-101.462 37.138,21.442 37.137,21.441 M 643.575,960.928 V 918.045 875.162 L 622.134,838.024 584.996,816.583 547.858,795.141 510.721,773.7 h -42.883 l -37.138,21.441 -37.137,21.442 -37.138,21.441 -21.442,37.138 v 42.883 42.883 M 569.3,758.004 l 37.137,-21.442 37.138,-21.441 m -271.454,-21.442 -37.138,21.442 h -42.882 l -37.138,21.441 -37.138,21.442 -21.441,37.137 v 42.883 42.883 l 21.441,37.138 37.138,21.441 37.138,21.442 m 42.882,0 37.138,-21.442 37.138,-21.441 21.441,-37.138 V 838.024 795.141 L 409.259,758.004 V 715.121 M 180.688,939.486 159.246,902.349 V 859.466 816.583 773.7 l 21.442,-37.138 37.137,-21.441 37.138,-21.442 37.138,-21.441 h 42.882 l 37.138,21.441 37.138,21.442 37.137,21.441 21.442,37.138 v 42.883 42.883 42.883 l -21.442,37.137 -37.137,21.442 -37.138,21.441 -37.138,-21.441 h -42.882 l -37.138,21.441 -37.138,-21.441 z m 601.487,-464.427 37.137,-21.441 h 42.883 l 37.138,-21.441 37.137,-21.442 21.442,-37.138 V 330.715 287.832 L 936.47,250.694 899.333,229.253 862.195,207.811 h -42.883 l -37.137,21.442 -37.138,21.441 -21.441,37.138 v 42.883 42.882 m -37.138,-21.441 37.138,21.441 21.441,37.138 v 42.883 m -138.6,-165.786 37.138,21.441 M 510.721,4.887 l 37.137,21.442 37.138,21.441 21.441,37.138 v 42.883 42.883 l -21.441,37.137 -37.138,21.442 -37.137,21.441 m -80.021,21.441 37.138,-21.441 h 42.883 l 37.137,21.441 m -212.875,80.021 37.138,-21.441 37.138,-21.442 M 4.95,432.177 l 37.138,21.441 37.138,21.441 37.137,21.442 h 42.883 l 37.138,-21.442 37.138,-21.441 37.137,-21.441 21.442,-37.138 V 352.156 309.273 266.39 L 270.659,229.253 233.522,207.811 196.384,186.37 159.246,164.928 H 116.363 L 79.226,186.37 42.088,207.811 4.95,229.253 m 15.697,261.503 21.441,-37.138 37.138,-21.441 37.137,-21.442 h 42.883 l 37.138,21.442 37.138,21.441 21.441,37.138 37.138,21.441 m 0,42.883 -37.138,21.441 -21.441,37.138 -37.138,21.441 -37.138,21.442 H 116.363 L 79.226,635.1 42.088,613.659 20.647,576.521 M 4.95,635.1 l 37.138,21.442 37.138,21.441 37.137,21.442 h 42.883 l 37.138,-21.442 37.138,-21.441 37.137,-21.442 21.442,-37.137 V 555.08 512.197 469.314 L 270.659,432.177 233.522,410.735 196.384,389.294 159.246,367.852 H 116.363 L 79.226,389.294 42.088,410.735 4.95,432.177 M 995.05,672.238 973.608,635.1 936.47,613.659 899.333,592.218 862.195,570.776 h -42.883 l -37.137,21.442 -37.138,21.441 -37.138,21.441 -21.441,37.138 v 42.883 42.883 42.883 l 21.441,37.137 37.138,21.442 37.138,21.441 37.137,21.442 h 42.883 l 37.138,-21.442 37.137,-21.441 37.138,-21.442 21.442,-37.137 M 723.596,576.521 V 533.638 490.756 M 569.3,715.121 v 42.883 l -21.442,37.137 v 42.883 42.883 l 21.442,37.138 37.137,21.441 37.138,21.442 m 42.883,0 37.138,-21.442 37.137,-21.441 21.442,-37.138 V 838.024 795.141 L 760.733,758.004 723.596,736.562 686.458,715.121 H 643.575 L 606.437,693.679 M 510.721,816.583 V 773.7 l 21.441,-37.138 37.138,-21.441 37.137,-21.442 37.138,-21.441 h 42.883 l 37.138,21.441 37.137,21.442 37.138,21.441 21.441,37.138 v 42.883 42.883 42.883 l -21.441,37.137 -37.138,21.442 -37.137,21.441 -37.138,-21.441 H 643.575 L 606.437,982.369 569.3,960.928 532.162,939.486 510.721,902.349 V 859.466 Z M 995.05,266.39 973.608,229.253 936.47,207.811 899.333,186.37 862.195,164.928 h -42.883 l -37.137,21.442 -37.138,21.441 -37.138,21.442 -21.441,37.137 v 42.883 42.883 42.883 l 21.441,37.138 37.138,21.441 37.138,21.441 37.137,21.442 h 42.883 l 37.138,-21.442 37.137,-21.441 37.138,-21.441 21.442,-37.138 m -425.75,-85.766 37.137,21.442 37.138,21.441 M 409.259,149.232 V 106.349 L 430.7,69.212 467.838,47.77 h 42.883 l 37.137,-21.441 37.138,-21.442 37.138,21.442 21.441,37.137 v 42.883 42.883 42.883 l -21.441,37.138 -37.138,21.441 -37.138,21.441 -37.137,21.442 H 467.838 L 430.7,272.135 393.563,250.694 356.425,229.253 334.983,192.115 V 149.232 106.349 63.466 L 356.425,26.329 393.563,4.887 430.7,26.329 467.838,4.887 M 409.259,352.156 V 309.273 L 430.7,272.135 V 229.253 186.37 l -21.441,-37.138 -37.138,-21.441 -37.138,-21.442 h -42.882 l -37.138,21.442 -37.138,21.441 -21.441,37.138 v 42.883 42.882 l 21.441,37.138 37.138,21.442 37.138,21.441 h 42.882 l 37.138,21.441 m -154.296,-21.441 37.138,21.441 37.138,21.442 h 42.882 l 37.138,-21.442 37.138,-21.441 37.137,-21.441 21.442,-37.138 V 250.694 207.811 164.928 L 446.396,127.791 409.259,106.349 372.121,84.908 334.983,63.466 h -42.882 l -37.138,21.442 -37.138,21.441 -37.137,21.442 -21.442,37.137 v 42.883 42.883 42.883 l 21.442,37.138 z m 468.633,160.041 37.138,-21.441 21.441,-37.138 37.138,-21.441 37.137,-21.442 h 42.883 l 37.138,21.442 37.137,21.441 21.442,37.138 v 42.882 42.883 L 936.47,613.659 899.333,635.1 862.195,656.542 H 819.312 L 782.175,635.1 745.037,613.659 723.596,576.521 686.458,555.08 M 995.05,469.314 973.608,432.177 936.47,410.735 899.333,389.294 862.195,367.852 h -42.883 l -37.137,21.442 -37.138,21.441 -37.138,21.442 -21.441,37.137 v 42.883 42.883 42.883 l 21.441,37.137 37.138,21.442 37.138,21.441 37.137,21.442 h 42.883 L 899.333,677.983 936.47,656.542 973.608,635.1 995.05,597.963 M 393.563,656.542 V 613.659 M 569.3,352.156 V 309.273 L 547.858,272.135 V 229.253 186.37 l 21.442,-37.138 37.137,-21.441 37.138,-21.442 h 42.883 l 37.138,21.442 37.137,21.441 21.442,37.138 v 42.883 42.882 l -21.442,37.138 -37.137,21.442 -37.138,21.441 h -42.883 l -37.138,21.441 m -74.275,-42.882 -21.441,-37.138 v -42.883 -42.883 -42.883 l 21.441,-37.137 37.138,-21.442 37.137,-21.441 37.138,-21.442 h 42.883 l 37.138,21.442 37.137,21.441 37.138,21.442 21.441,37.137 v 42.883 42.883 42.883 l -21.441,37.138 -37.138,21.441 -37.137,21.441 -37.138,21.442 H 643.575 L 606.437,373.597 569.3,352.156 Z m -197.179,181.482 37.138,-21.441 m 138.6,165.786 37.137,21.441 m 37.138,-21.441 V 613.659 M 430.7,677.983 V 635.1 592.218 m 80.021,-224.366 h -42.883 l -37.138,21.442 -37.137,21.441 -37.138,21.442 -21.442,37.137 v 42.883 42.883 42.883 l 21.442,37.137 37.138,21.442 37.137,21.441 37.138,21.442 h 42.883 l 37.137,-21.442 37.138,-21.441 37.138,-21.442 21.441,-37.137 V 555.08 512.197 469.314 l -21.441,-37.137 -37.138,-21.442 -37.138,-21.441 z m -80.021,21.442 37.138,21.441 m -132.855,144.345 37.138,-21.442 37.138,-21.441 m 58.579,144.345 -37.138,21.441 -21.441,37.138 -37.138,21.441 -37.138,21.442 H 292.101 L 254.963,736.562 217.825,715.121 196.384,677.983 V 635.1 592.218 l 21.441,-37.138 37.138,-21.442 37.138,-21.441 h 42.882 l 37.138,21.441 37.138,21.442 m 197.178,21.441 37.138,-21.441 m -37.138,-64.324 37.138,21.441 m -132.854,101.462 37.137,21.441 37.138,21.442 21.441,37.137 v 42.883 42.883 l -21.441,37.138 -37.138,21.441 -37.137,21.442 H 467.838 L 430.7,838.024 393.563,816.583 372.121,779.445 V 736.562 693.679 L 393.563,656.542 430.7,635.1 467.838,613.659 M 584.996,453.618 v -42.883 m -74.275,0 37.137,-21.441 m -154.295,64.324 37.137,-21.441 37.138,-21.442 h 42.883 l 37.137,21.442 37.138,21.441 m -191.433,-42.883 37.137,21.442 37.138,21.441 M 430.7,475.059 v -42.882 -42.883 l -21.441,-37.138 -37.138,-21.441 -37.138,-21.442 h -42.882 l -37.138,21.442 -37.138,21.441 -21.441,37.138 v 42.883 42.882 l 21.441,37.138 37.138,21.441 37.138,21.442 h 42.882 l 37.138,21.441 m 74.275,-42.883 21.442,37.138 v 42.883 42.883 42.883 l -21.442,37.137 -37.137,21.442 -37.138,21.441 -37.138,21.442 h -42.882 l -37.138,-21.442 -37.138,-21.441 -37.137,-21.442 -21.442,-37.137 v -42.883 -42.883 -42.883 l 21.442,-37.138 37.137,-21.441 37.138,-21.441 37.138,-21.442 h 42.882 l 37.138,21.442 37.138,21.441 z m 122.904,21.442 37.137,-21.442 37.138,-21.441 h 42.883 l 37.138,21.441 37.137,21.442 21.442,37.138 v 42.882 42.883 l -21.442,37.138 -37.137,21.441 -37.138,21.442 H 643.575 L 606.437,736.562 569.3,715.121 547.858,677.983 V 635.1 592.218 m -37.137,-21.442 h -42.883 l -37.138,21.442 -37.137,21.441 -37.138,21.441 -21.442,37.138 v 42.883 42.883 42.883 l 21.442,37.137 37.138,21.442 37.137,21.441 37.138,21.442 h 42.883 l 37.137,-21.442 37.138,-21.441 37.138,-21.442 21.441,-37.137 V 758.004 715.121 672.238 L 622.134,635.1 584.996,613.659 547.858,592.218 Z m 37.137,-95.717 v -42.882 -42.883 l 21.442,-37.138 37.137,-21.441 37.138,-21.442 h 42.883 l 37.138,21.442 37.137,21.441 21.442,37.138 v 42.883 42.882 l -21.442,37.138 -37.137,21.441 -37.138,21.442 H 643.575 L 606.437,533.638 569.3,512.197 m -58.579,-58.579 37.137,21.441 m 37.138,-21.441 21.441,37.138 v 42.882 42.883 l -21.441,37.138 -37.138,21.441 -37.137,21.442 H 467.838 L 430.7,635.1 393.563,613.659 372.121,576.521 v -42.883 -42.882 l 21.442,-37.138 v -42.883 l -21.442,-37.138 v -42.882 -42.883 l 21.442,-37.138 37.137,-21.441 37.138,-21.442 h 42.883 l 37.137,21.442 37.138,21.441 21.441,37.138 v 42.883 42.882 l -21.441,37.138 -37.138,21.442 -37.137,21.441 h -42.883 l -37.138,21.441 -21.441,37.138 v 42.883 l 21.441,37.138 37.138,21.441 h 42.883 L 547.858,592.218 569.3,555.08 v -42.883 l -21.442,-37.138 m -80.02,21.442 -21.442,37.137 -37.137,21.442 -37.138,21.441 -37.138,21.442 H 292.101 L 254.963,576.521 217.825,555.08 180.688,533.638 159.246,496.501 v -42.883 -42.883 -42.883 l 21.442,-37.137 37.137,-21.442 37.138,-21.441 37.138,-21.442 h 42.882 l 37.138,21.442 37.138,21.441 37.137,21.442 21.442,37.137 v 42.883 42.883 z m 64.324,37.137 -21.441,37.138 v 42.883 42.883 42.883 l 21.441,37.137 37.138,21.442 37.137,21.441 37.138,21.442 h 42.883 l 37.138,-21.442 37.137,-21.441 37.138,-21.442 21.441,-37.137 V 656.542 613.659 570.776 L 797.871,533.638 760.733,512.197 723.596,490.756 686.458,469.314 H 643.575 L 606.437,490.756 569.3,512.197 Z M 510.721,496.501 H 467.838 L 430.7,475.059 393.563,453.618 356.425,432.177 334.983,395.039 V 352.156 309.273 266.39 l 21.442,-37.137 37.138,-21.442 37.137,-21.441 37.138,-21.442 h 42.883 l 37.137,21.442 37.138,21.441 37.138,21.442 21.441,37.137 v 42.883 42.883 42.883 l -21.441,37.138 -37.138,21.441 -37.138,21.441 z m 0,0 21.441,37.137 37.138,21.442 37.137,21.441 37.138,21.442 h 42.883 l 37.138,-21.442 37.137,-21.441 37.138,-21.442 21.441,-37.137 V 453.618 410.735 367.852 L 797.871,330.715 760.733,309.273 723.596,287.832 686.458,266.39 h -42.883 l -37.138,21.442 -37.137,21.441 -37.138,21.442 -21.441,37.137 v 42.883 42.883 z M 57.784,918.045 20.647,896.603 42.088,859.466 79.226,880.907 Z m 0,0 21.442,-37.138 37.137,21.442 -21.441,37.137 z M 936.47,47.77 957.912,84.908 920.774,106.349 899.333,69.212 Z M 79.226,69.212 116.363,90.653 94.922,127.791 57.784,106.349 Z M 116.363,47.77 h 42.883 v 42.883 h -42.883 z m 841.549,848.833 -21.442,-37.137 37.138,-21.442 21.442,37.138 z m 0,0 -37.138,21.442 -21.441,-37.138 37.137,-21.441 z m -37.138,21.442 -37.137,21.441 -21.442,-37.137 37.138,-21.442 z M 899.333,69.212 920.774,106.349 883.637,127.791 862.195,90.653 Z M 862.195,47.77 V 90.653 H 819.312 V 47.77 Z M 57.784,149.232 79.226,186.37 42.088,207.811 20.647,170.674 Z m 0,0 37.138,-21.441 21.441,37.137 -37.137,21.442 z M 270.659,26.329 292.101,63.466 254.963,84.908 233.522,47.77 Z m -37.137,21.441 21.441,37.138 -37.138,21.441 -21.441,-37.137 z m -37.138,21.442 21.441,37.137 -37.137,21.442 -21.442,-37.138 z m -80.021,833.137 v -42.883 h 42.883 v 42.883 z m 64.325,37.137 -21.442,-37.137 37.138,-21.442 21.441,37.138 z m 777.224,-768.812 37.138,21.441 -21.442,37.138 -37.138,-21.442 z m 0,0 -21.442,37.137 -37.137,-21.441 21.441,-37.138 z m -37.138,-21.442 -21.441,37.138 -37.138,-21.442 21.442,-37.137 z M 819.312,90.653 797.871,127.791 760.733,106.349 782.175,69.212 Z M 782.175,69.212 760.733,106.349 723.596,84.908 745.037,47.77 Z M 745.037,47.77 723.596,84.908 686.458,63.466 707.899,26.329 Z M 42.088,816.583 20.647,779.445 57.784,758.004 79.226,795.141 Z m 931.52,21.441 -37.138,-21.441 21.442,-37.138 37.138,21.442 z m -111.413,64.325 h -42.883 v -42.883 h 42.883 z m -64.324,37.137 -37.138,-21.441 21.442,-37.138 37.137,21.442 z m -681.508,-80.02 v -42.883 h 42.883 v 42.883 z m 101.462,58.579 -21.441,-37.138 37.138,-21.441 21.441,37.137 z m 74.276,42.883 v -42.883 h 42.882 v 42.883 z M 973.608,229.253 995.05,266.39 957.912,287.832 936.47,250.694 Z M 42.088,47.77 79.226,69.212 57.784,106.349 20.647,84.908 Z M 356.425,26.329 393.563,47.77 372.121,84.908 334.983,63.466 Z m -64.324,37.137 h 42.882 v 42.883 H 292.101 Z M 42.088,250.694 79.226,272.135 57.784,309.273 20.647,287.832 Z m 74.275,-85.766 h 42.883 v 42.883 h -42.883 z m 64.325,-37.137 37.137,21.441 -21.441,37.138 -37.138,-21.442 z M 57.784,352.156 79.226,389.294 42.088,410.735 20.647,373.597 Z M 42.088,453.618 79.226,475.059 57.784,512.197 20.647,490.756 Z M 79.226,795.141 57.784,758.004 94.922,736.562 116.363,773.7 Z M 57.784,715.121 20.647,693.679 42.088,656.542 79.226,677.983 Z M 42.088,613.659 20.647,576.521 57.784,555.08 79.226,592.218 Z m 894.382,202.924 -37.137,-21.442 21.441,-37.137 37.138,21.441 z M 957.912,693.679 936.47,656.542 973.608,635.1 995.05,672.238 Z m 15.696,-58.579 -37.138,-21.441 21.442,-37.138 37.138,21.442 z m -15.696,-261.503 37.138,21.442 -21.442,37.138 -37.138,-21.442 z m 15.696,58.58 21.442,37.137 -37.138,21.442 -21.442,-37.138 z m -287.15,528.751 h -42.883 v -42.883 h 42.883 z M 862.195,859.466 h -42.883 v -42.883 h 42.883 z m -101.462,58.579 -37.137,-21.442 21.441,-37.137 37.138,21.441 z M 116.363,816.583 V 773.7 h 42.883 v 42.883 z m 138.6,80.02 -21.441,-37.137 37.137,-21.442 21.442,37.138 z M 973.608,26.329 995.05,63.466 957.912,84.908 936.47,47.77 Z M 292.101,918.045 v -42.883 h 42.882 v 42.883 z M 957.912,287.832 920.774,309.273 899.333,272.135 936.47,250.694 Z M 862.195,164.928 v 42.883 h -42.883 v -42.883 z m -64.324,-37.137 21.441,37.137 -37.137,21.442 -21.442,-37.138 z M 622.134,26.329 643.575,63.466 606.437,84.908 584.996,47.77 Z m 64.324,37.137 v 42.883 H 643.575 V 63.466 Z M 393.563,47.77 430.7,69.212 409.259,106.349 372.121,84.908 Z m -101.462,58.579 h 42.882 v 42.883 h -42.882 z m -234.317,202.924 21.442,-37.138 37.137,21.442 -21.441,37.138 z m 58.579,-101.462 h 42.883 v 42.883 h -42.883 z m 101.462,-58.579 37.138,21.442 -21.441,37.137 -37.138,-21.441 z m -160.041,202.924 37.138,-21.441 21.441,37.137 -37.137,21.442 z m 0,160.041 21.442,-37.138 37.137,21.442 -21.441,37.137 z m 0,202.924 21.442,-37.138 37.137,21.442 -21.441,37.137 z m 0,-160.041 37.138,-21.442 21.441,37.138 -37.137,21.442 z m 841.549,240.061 -37.138,-21.441 21.442,-37.138 37.137,21.442 z m 58.579,-101.462 -37.138,21.442 -21.441,-37.138 37.137,-21.441 z m 0,-117.158 -21.442,37.138 -37.137,-21.441 21.441,-37.138 z m 0,-202.924 -21.442,37.138 -37.137,-21.441 21.441,-37.138 z m 0,117.159 -37.138,21.441 -21.441,-37.138 37.137,-21.441 z M 686.458,918.045 h -42.883 v -42.883 h 42.883 z M 862.195,816.583 H 819.312 V 773.7 h 42.883 z m -138.599,80.02 -37.138,-21.441 21.441,-37.138 37.138,21.442 z M 159.246,773.7 l 21.442,-37.138 37.137,21.442 -21.441,37.137 z m 37.138,21.441 21.441,-37.137 37.138,21.441 -21.441,37.138 z m 37.138,21.442 21.441,-37.138 37.138,21.442 -21.442,37.137 z m 212.874,122.903 -37.137,-21.441 21.441,-37.138 37.138,21.442 z m -37.137,-21.441 -37.138,-21.442 21.442,-37.137 37.137,21.441 z m -37.138,-21.442 -37.138,-21.441 21.442,-37.138 37.138,21.442 z m 548.653,-587.33 -37.137,21.442 -21.442,-37.138 37.138,-21.442 z M 862.195,207.811 v 42.883 h -42.883 v -42.883 z m -101.462,-58.579 21.442,37.138 -37.138,21.441 -21.441,-37.137 z M 467.838,47.77 h 42.883 v 42.883 h -42.883 z m 117.158,0 21.441,37.138 -37.137,21.441 -21.442,-37.137 z m 101.462,58.579 v 42.883 H 643.575 V 106.349 Z M 430.7,69.212 l 37.138,21.441 -21.442,37.138 -37.137,-21.442 z m -138.599,80.02 h 42.882 v 42.883 H 292.101 Z M 116.363,250.694 h 42.883 v 42.883 h -42.883 z m 138.6,-80.02 37.138,21.441 -21.442,37.138 -37.137,-21.442 z m -138.6,197.178 h 42.883 v 42.883 h -42.883 z m 0,42.883 h 42.883 v 42.883 h -42.883 z m 0,42.883 h 42.883 v 42.883 h -42.883 z m 0,245.807 v -42.883 h 42.883 v 42.883 z m 0,-42.883 v -42.883 h 42.883 v 42.883 z m 0,-42.883 v -42.883 h 42.883 v 42.883 z m 804.411,101.462 -37.137,21.441 -21.442,-37.137 37.138,-21.442 z m 0,-160.041 -21.441,37.138 -37.138,-21.442 21.442,-37.138 z m 0,-202.924 -21.441,37.138 -37.138,-21.442 21.442,-37.137 z m 0,160.041 -37.137,21.441 -21.442,-37.137 37.138,-21.442 z m -388.612,427.289 -21.441,-37.137 37.137,-21.442 21.442,37.138 z m 37.138,-21.441 -21.442,-37.138 37.138,-21.441 21.441,37.137 z m 37.137,-21.442 -21.441,-37.137 37.138,-21.442 21.441,37.138 z M 819.312,773.7 l -37.137,21.441 -21.442,-37.137 37.138,-21.442 z m -37.137,21.441 -37.138,21.442 -21.441,-37.138 37.137,-21.441 z m -37.138,21.442 -37.138,21.441 -21.441,-37.137 37.138,-21.442 z M 862.195,250.694 v 42.883 h -42.883 v -42.883 z m -138.599,-80.02 21.441,37.137 -37.138,21.442 -21.441,-37.138 z M 547.858,69.212 569.3,106.349 532.162,127.791 510.721,90.653 Z m 138.6,80.02 v 42.883 H 643.575 V 149.232 Z M 446.396,127.791 467.838,164.928 430.7,186.37 409.259,149.232 Z m -37.137,21.441 21.441,37.138 -37.137,21.441 -21.442,-37.137 z m -37.138,21.442 21.442,37.137 -37.138,21.442 -21.442,-37.138 z m -212.875,122.903 37.138,-21.442 21.441,37.138 -37.137,21.442 z m 37.138,-21.442 37.138,-21.441 21.441,37.138 -37.138,21.441 z m 37.138,-21.441 37.137,-21.441 21.442,37.137 -37.138,21.442 z m -52.834,485.868 -21.442,-37.137 37.138,-21.442 21.441,37.138 z m 681.507,-37.137 h -42.883 v -42.883 h 42.883 z m 0,-42.883 h -42.883 v -42.883 h 42.883 z m 0,-42.883 h -42.883 v -42.883 h 42.883 z m 0,-245.807 v 42.883 h -42.883 v -42.883 z m 0,42.883 v 42.883 h -42.883 v -42.883 z m 0,42.883 v 42.883 H 819.312 V 453.618 Z M 467.838,902.349 v -42.883 h 42.883 v 42.883 z M 292.101,800.887 v -42.883 h 42.882 v 42.883 z m 64.324,37.137 -21.442,-37.137 37.138,-21.442 21.442,37.138 z m 462.887,-544.447 -21.441,37.138 -37.138,-21.442 21.442,-37.138 z m -37.137,-21.442 -21.442,37.138 -37.137,-21.441 21.441,-37.138 z m -95.717,-5.745 21.441,-37.137 37.138,21.441 -21.441,37.138 z m -138.6,-80.02 -37.137,-21.442 21.441,-37.137 37.138,21.441 z m 37.138,21.441 -37.138,-21.441 21.442,-37.138 37.137,21.442 z m 37.138,21.442 -37.138,-21.442 21.441,-37.137 37.138,21.441 z m -404.309,122.903 -21.441,37.138 -37.138,-21.442 21.442,-37.137 z m 0,160.041 -37.137,21.441 -21.442,-37.137 37.138,-21.442 z m 0,42.883 -21.441,37.138 -37.138,-21.442 21.442,-37.138 z m 15.697,101.462 21.441,37.137 -37.138,21.442 -21.441,-37.138 z m 548.653,21.441 37.137,21.442 -21.441,37.137 -37.138,-21.441 z m -271.454,138.6 v 42.883 h -42.883 v -42.883 z m 95.716,-37.138 37.138,21.442 -21.441,37.137 -37.138,-21.441 z m 37.138,-21.441 h 42.883 v 42.883 h -42.883 z m -351.474,0 v -42.883 h 42.882 v 42.883 z m 101.462,58.579 -21.442,-37.138 37.138,-21.441 21.441,37.137 z m 388.612,-427.289 -21.442,-37.138 37.138,-21.441 21.441,37.137 z M 467.838,207.811 v -42.883 h 42.883 v 42.883 z m -132.855,58.579 21.442,-37.137 37.138,21.441 -21.442,37.138 z m -42.882,42.883 V 266.39 h 42.882 v 42.883 z m -58.579,101.462 -37.138,-21.441 21.441,-37.138 37.138,21.441 z m -15.697,101.462 -21.441,-37.138 37.138,-21.441 21.441,37.138 z m 15.697,101.462 -37.138,-21.441 21.441,-37.138 37.138,21.441 z m 0,42.883 37.137,-21.442 21.442,37.138 -37.138,21.441 z m 548.653,21.441 -21.442,37.138 -37.137,-21.442 21.441,-37.137 z m 15.696,-144.345 21.441,37.138 -37.137,21.442 -21.442,-37.138 z m 0,0 -37.138,-21.441 21.442,-37.138 37.137,21.442 z M 510.721,816.583 H 467.838 V 773.7 h 42.883 z m 37.137,-21.442 21.442,-37.137 37.137,21.441 -21.441,37.138 z m 95.717,-37.137 v -42.883 h 42.883 v 42.883 z M 334.983,672.238 v 42.883 h -42.882 v -42.883 z m 111.413,64.324 21.442,37.138 -37.138,21.441 -21.441,-37.137 z m 335.779,-347.268 -37.138,21.441 -21.441,-37.138 37.137,-21.441 z M 686.458,266.39 v 42.883 H 643.575 V 266.39 Z m -64.324,-37.137 21.441,37.137 -37.138,21.442 -21.441,-37.138 z M 467.838,207.811 h 42.883 v 42.883 h -42.883 z m -74.275,42.883 37.137,21.441 -21.441,37.138 -37.138,-21.441 z m -101.462,58.579 h 42.882 v 42.883 h -42.882 z m -58.579,101.462 21.441,-37.138 37.138,21.442 -21.442,37.138 z m 0,42.883 37.137,-21.441 21.442,37.137 -37.138,21.442 z m 0,160.041 21.441,-37.138 37.138,21.442 -21.442,37.137 z m 490.074,80.02 -37.138,-21.441 21.441,-37.138 37.138,21.442 z m 58.579,-101.461 -37.138,21.441 -21.441,-37.138 37.137,-21.441 z m 0,-117.159 -21.442,37.138 -37.137,-21.441 21.441,-37.138 z M 547.858,795.141 510.721,773.7 532.162,736.562 569.3,758.004 Z m 95.717,-122.903 h 42.883 v 42.883 H 643.575 Z M 393.563,656.542 372.121,693.679 334.983,672.238 356.425,635.1 Z m 37.137,21.441 -21.441,37.138 -37.138,-21.442 21.442,-37.137 z m 37.138,21.442 -21.442,37.137 -37.137,-21.441 21.441,-37.138 z m 218.62,-304.386 37.138,-21.442 21.441,37.138 -37.138,21.442 z m -42.883,-42.883 v -42.883 h 42.883 v 42.883 z m -74.275,-42.883 -21.442,-37.138 37.138,-21.441 21.441,37.138 z m -58.579,-15.696 h -42.883 v -42.883 h 42.883 z m -64.325,37.138 -37.137,-21.442 21.441,-37.138 37.138,21.442 z m -111.413,64.324 h -42.882 v -42.883 h 42.882 z m 0,117.158 h -42.882 v -42.883 h 42.882 z m 0,42.883 h -42.882 v -42.883 h 42.882 z m 0,42.883 H 292.101 V 555.08 h 42.882 z m 351.475,0 37.138,-21.442 21.441,37.138 -37.138,21.441 z m 0,-128.649 21.441,-37.137 37.138,21.441 -21.441,37.138 z m -138.6,208.669 21.442,37.138 -37.138,21.441 -21.441,-37.137 z m 37.138,-21.441 21.441,37.137 -37.137,21.442 -21.442,-37.138 z m 37.138,-21.442 21.441,37.138 -37.138,21.441 -21.441,-37.137 z m 21.441,-240.061 v -42.883 h 42.883 v 42.883 z m -111.413,-64.324 -21.441,-37.138 37.137,-21.442 21.442,37.138 z m -101.462,58.579 -21.441,-37.138 37.137,-21.441 21.442,37.137 z m -37.137,21.441 -21.442,-37.138 37.138,-21.441 21.441,37.138 z m -37.138,21.442 -21.442,-37.138 37.138,-21.442 21.442,37.138 z m 15.696,144.344 21.442,37.138 -37.138,21.441 -21.442,-37.137 z M 643.575,555.08 h 42.883 v 42.883 h -42.883 z m 0,-42.883 h 42.883 v 42.883 h -42.883 z m 0,-42.883 h 42.883 v 42.883 H 643.575 Z M 510.721,656.542 v 42.883 h -42.883 v -42.883 z m 74.275,-245.807 21.441,-37.138 37.138,21.442 -21.441,37.138 z m -37.138,-21.441 21.442,-37.138 37.137,21.441 -21.441,37.138 z m -37.137,-21.442 21.441,-37.137 37.138,21.441 -21.442,37.138 z m -117.158,85.766 -21.442,37.138 -37.138,-21.442 21.442,-37.137 z m 15.696,101.462 21.441,37.138 -37.137,21.441 -21.442,-37.138 z m 197.178,21.441 37.138,21.442 -21.441,37.137 -37.138,-21.441 z m -95.716,37.138 v 42.883 h -42.883 v -42.883 z m 74.275,-160.041 37.138,-21.441 21.441,37.137 -37.138,21.442 z m -74.275,-42.883 h -42.883 v -42.883 h 42.883 z m -80.021,64.324 -21.441,37.138 -37.138,-21.441 21.442,-37.138 z m 15.696,58.579 21.442,37.138 -37.138,21.442 -21.441,-37.138 z m 122.904,21.442 37.137,21.441 -21.441,37.138 -37.138,-21.441 z m -58.579,15.696 v 42.883 h -42.883 v -42.883 z m 37.137,-95.717 37.138,-21.441 21.441,37.138 -37.137,21.441 z m -37.137,-21.441 h -42.883 v -42.883 h 42.883 z m -42.883,42.883 -21.442,37.137 -37.137,-21.441 21.441,-37.138 z m 64.324,37.137 37.138,21.442 -21.442,37.138 -37.137,-21.442 z m -21.441,-37.137 h -42.883 v -42.883 h 42.883 z m 0,0 37.137,-21.442 21.442,37.138 -37.138,21.441 z M 57.784,960.928 v -42.883 l 37.138,21.441 z M 899.333,26.329 V 69.212 L 862.195,47.77 Z m -702.949,0 -37.138,21.441 V 4.887 Z m 761.528,913.157 -37.138,21.442 v -42.883 z m 0,0 -37.138,-21.441 37.138,-21.442 z m -37.138,21.442 -37.137,-21.442 37.137,-21.441 z m 37.138,-21.442 37.138,-21.441 -37.138,-21.442 z m 0,0 v 42.883 l -37.138,-21.441 z m 0,-854.578 37.138,21.441 -37.138,21.442 z m 0,0 v 42.883 L 920.774,106.349 Z M 899.333,69.212 862.195,90.653 V 47.77 Z M 819.312,47.77 782.175,26.329 819.312,4.887 Z M 57.784,106.349 v 42.883 L 20.647,127.791 Z m 0,0 37.138,21.442 -37.138,21.441 z M 79.226,69.212 116.363,47.77 V 90.653 Z M 233.522,4.887 V 47.77 L 196.384,26.329 Z m 0,0 37.137,21.442 -37.137,21.441 z M 196.384,26.329 V 69.212 L 159.246,47.77 Z m 0,0 37.138,21.441 -37.138,21.442 z M 159.246,47.77 196.384,69.212 159.246,90.653 Z M 79.226,26.329 116.363,47.77 79.226,69.212 Z M 42.088,859.466 4.95,838.024 42.088,816.583 Z m 0,0 v -42.883 l 37.138,21.441 z m 0,0 37.138,-21.442 v 42.883 z m 37.138,21.441 v -42.883 l 37.137,21.442 z m 0,0 37.137,-21.441 v 42.883 z m 101.462,58.579 37.137,-21.441 v 42.883 z m 37.137,21.442 v -42.883 l 37.138,21.441 z m 0,0 37.138,-21.442 v 42.883 z m 37.138,21.441 v -42.883 l 37.138,21.442 z M 899.333,26.329 862.195,47.77 V 4.887 Z m 58.579,101.462 37.138,21.441 -37.138,21.442 z m 0,0 -37.138,21.441 v -42.883 z m 0,0 v 42.883 l -37.138,-21.442 z m -37.138,-21.442 v 42.883 L 883.637,127.791 Z M 819.312,47.77 782.175,69.212 V 26.329 Z m 0,0 V 90.653 L 782.175,69.212 Z M 782.175,26.329 745.037,47.77 V 4.887 Z m 0,0 V 69.212 L 745.037,47.77 Z M 745.037,4.887 V 47.77 L 707.899,26.329 Z M 936.47,47.77 899.333,69.212 V 26.329 Z m 37.138,790.254 -37.138,21.442 v -42.883 z m -37.138,21.442 -37.137,-21.442 37.137,-21.441 z m 0,0 -37.137,21.441 v -42.883 z m -37.137,21.441 -37.138,-21.441 37.138,-21.442 z m 0,0 -37.138,21.442 v -42.883 z m -175.737,101.462 -37.138,-21.441 37.138,-21.442 z m 0,0 37.137,-21.441 -37.137,-21.442 z m 37.137,-21.441 -37.137,-21.442 37.137,-21.441 z m 0,0 37.138,-21.442 -37.138,-21.441 z M 42.088,816.583 79.226,795.141 v 42.883 z m 37.138,21.441 v -42.883 l 37.137,21.442 z m 0,0 37.137,-21.441 v 42.883 z m 80.02,64.325 v -42.883 l 37.138,21.441 z M 936.47,4.887 V 47.77 L 899.333,26.329 Z m -718.645,913.158 37.138,-21.442 v 42.883 z m 37.138,21.441 v -42.883 l 37.138,21.442 z m 0,0 37.138,-21.441 v 42.883 z M 57.784,960.928 20.647,939.486 57.784,918.045 Z M 79.226,26.329 116.363,4.887 V 47.77 Z M 393.563,4.887 430.7,26.329 393.563,47.77 Z m 0,0 V 47.77 L 356.425,26.329 Z M 42.088,207.811 v 42.883 L 4.95,229.253 Z m 0,0 37.138,21.442 -37.138,21.441 z m 0,0 37.138,-21.441 v 42.883 z m 37.138,-21.441 37.137,21.441 -37.137,21.442 z m 0,0 37.137,-21.442 v 42.883 z M 292.101,63.466 v 42.883 L 254.963,84.908 Z m -37.138,21.442 37.138,21.441 -37.138,21.442 z m 0,0 v 42.883 l -37.138,-21.442 z m -37.138,21.441 37.138,21.442 -37.138,21.441 z m 0,0 v 42.883 L 180.688,127.791 Z M 57.784,309.273 v 42.883 L 20.647,330.715 Z M 42.088,410.735 v 42.883 L 4.95,432.177 Z M 57.784,758.004 20.647,736.562 57.784,715.121 Z M 42.088,656.542 4.95,635.1 42.088,613.659 Z M 57.784,512.197 V 555.08 L 20.647,533.638 Z m 900.128,267.248 37.138,-21.441 -37.138,-21.442 z m 0,-42.883 37.138,-21.441 -37.138,-21.442 z m 0,-448.73 37.138,21.441 -37.138,21.442 z m 0,42.883 37.138,21.441 -37.138,21.441 z m 0,245.806 37.138,-21.441 -37.138,-21.442 z m 0,-42.883 37.138,-21.441 -37.138,-21.441 z m -21.442,282.945 -37.137,21.441 v -42.883 z m -37.137,21.441 -37.138,-21.441 37.138,-21.442 z m 0,0 -37.138,21.442 v -42.883 z m -80.021,64.325 -37.137,-21.442 37.137,-21.441 z m -132.854,58.579 37.138,-21.442 -37.138,-21.441 z m 37.138,-21.442 -37.138,-21.441 37.138,-21.442 z m 0,0 37.137,-21.441 -37.137,-21.442 z M 79.226,795.141 116.363,773.7 v 42.883 z m 80.02,64.325 37.138,-21.442 v 42.883 z m 0,0 v -42.883 l 37.138,21.441 z m 37.138,21.441 v -42.883 l 37.138,21.442 z M 42.088,47.77 79.226,26.329 v 42.883 z m 330.033,934.599 -37.138,-21.441 37.138,-21.442 z m 0,0 37.138,-21.441 -37.138,-21.442 z m -37.138,-21.441 37.138,-21.442 -37.138,-21.441 z m -80.02,-64.325 37.138,-21.441 v 42.883 z M 973.608,229.253 936.47,250.694 V 207.811 Z M 936.47,207.811 v 42.883 l -37.137,-21.441 z m 0,0 -37.137,21.442 V 186.37 Z M 899.333,186.37 v 42.883 l -37.138,-21.442 z m 0,0 -37.138,21.441 V 164.928 Z M 584.996,4.887 V 47.77 L 547.858,26.329 Z m 0,0 37.138,21.442 -37.138,21.441 z m 212.875,122.904 -37.138,21.441 v -42.883 z m -37.138,-21.442 v 42.883 l -37.137,-21.441 z m 0,0 -37.137,21.442 V 84.908 Z M 723.596,84.908 v 42.883 l -37.138,-21.442 z m 0,0 -37.138,21.441 V 63.466 Z M 430.7,26.329 467.838,4.887 V 47.77 Z m 0,0 37.138,21.441 -37.138,21.442 z m 0,0 V 69.212 L 393.563,47.77 Z m -95.717,37.137 37.138,21.442 -37.138,21.441 z M 42.088,250.694 79.226,229.253 v 42.882 z m 37.138,-21.441 37.137,21.441 -37.137,21.441 z m 0,0 37.137,-21.442 v 42.883 z m 80.02,-64.325 37.138,21.442 -37.138,21.441 z m 132.855,-58.579 v 42.883 l -37.138,-21.441 z m -37.138,21.442 37.138,21.441 -37.138,21.442 z m 0,0 v 42.883 L 217.825,149.232 Z M 57.784,309.273 94.922,330.715 57.784,352.156 Z m -15.696,101.462 37.138,21.442 -37.138,21.441 z m 0,0 37.138,-21.441 v 42.883 z m 0,42.883 37.138,-21.441 v 42.882 z m 15.696,304.386 v -42.883 l 37.138,21.441 z M 42.088,656.542 V 613.659 L 79.226,635.1 Z m 0,0 37.138,-21.442 v 42.883 z m 0,-42.883 37.138,-21.441 V 635.1 Z M 57.784,512.197 94.922,533.638 57.784,555.08 Z m 900.128,267.248 -37.138,-21.441 37.138,-21.442 z m 0,-42.883 -37.138,21.442 v -42.883 z m 0,0 -37.138,-21.441 37.138,-21.442 z M 973.608,635.1 936.47,656.542 V 613.659 Z M 957.912,287.832 v 42.883 l -37.138,-21.442 z m 0,42.883 -37.138,21.441 v -42.883 z m 0,0 v 42.882 l -37.138,-21.441 z m 15.696,101.462 -37.138,21.441 v -42.883 z m -15.696,144.344 -37.138,-21.441 37.138,-21.442 z m 0,-42.883 -37.138,21.442 v -42.883 z m 0,0 -37.138,-21.441 37.138,-21.441 z M 42.088,47.77 V 4.887 l 37.138,21.442 z m 564.349,934.599 37.138,-21.441 -37.138,-21.442 z m 0,0 -37.137,-21.441 37.137,-21.442 z m 37.138,-21.441 -37.138,-21.442 37.138,-21.441 z M 899.333,795.141 862.195,816.583 V 773.7 Z m -80.021,64.325 -37.137,21.441 v -42.883 z m 0,0 -37.137,-21.442 37.137,-21.441 z m -37.137,21.441 -37.138,-21.441 37.138,-21.442 z m -95.717,37.138 37.138,-21.442 -37.138,-21.441 z M 159.246,816.583 196.384,795.141 v 42.883 z m 0,0 V 773.7 l 37.138,21.441 z m 37.138,21.441 37.138,-21.441 v 42.883 z m 0,0 v -42.883 l 37.138,21.442 z m 37.138,21.442 v -42.883 l 37.137,21.441 z m 175.737,101.462 -37.138,-21.442 37.138,-21.441 z m 0,0 37.137,-21.442 -37.137,-21.441 z m -37.138,-21.442 -37.138,-21.441 37.138,-21.442 z m 0,0 37.138,-21.441 -37.138,-21.442 z m -37.138,-21.441 37.138,-21.442 -37.138,-21.441 z M 936.47,250.694 899.333,272.135 v -42.882 z m -37.137,-21.441 v 42.882 l -37.138,-21.441 z m 0,0 -37.138,21.441 v -42.883 z m -80.021,-64.325 v 42.883 L 782.175,186.37 Z M 547.858,26.329 510.721,47.77 V 4.887 Z m 0,0 V 69.212 L 510.721,47.77 Z m 0,0 37.138,21.441 -37.138,21.442 z m 95.717,37.137 v 42.883 L 606.437,84.908 Z m 117.158,85.766 -37.137,21.442 v -42.883 z m -37.137,-21.441 v 42.883 l -37.138,-21.442 z m 0,0 -37.138,21.441 V 106.349 Z M 467.838,47.77 V 90.653 L 430.7,69.212 Z m -95.717,37.138 v 42.883 l -37.138,-21.442 z m 0,0 37.138,21.441 -37.138,21.442 z m -37.138,21.441 37.138,21.442 -37.138,21.441 z M 79.226,272.135 116.363,250.694 v 42.883 z m 80.02,-64.324 37.138,-21.441 v 42.883 z m 0,0 37.138,21.442 -37.138,21.441 z m 37.138,-21.441 37.138,21.441 -37.138,21.442 z m 95.717,-37.138 v 42.883 l -37.138,-21.441 z m -212.875,240.062 37.137,21.441 -37.137,21.442 z m 0,0 37.137,-21.442 v 42.883 z m 0,42.883 37.137,21.441 -37.137,21.441 z m 0,0 37.137,-21.442 v 42.883 z m 0,42.882 37.137,-21.441 v 42.883 z m 0,202.924 V 635.1 l 37.137,21.442 z m 0,0 37.137,-21.441 v 42.883 z m 0,-42.883 v -42.882 l 37.137,21.441 z m 0,0 37.137,-21.441 v 42.883 z m 0,-42.882 37.137,-21.442 v 42.883 z m 841.548,165.786 -37.137,-21.442 37.137,-21.441 z M 936.47,656.542 899.333,635.1 936.47,613.659 Z m 0,0 -37.137,21.441 V 635.1 Z m 0,-42.883 -37.137,21.441 V 592.218 Z M 920.774,309.273 v 42.883 l -37.137,-21.441 z m 15.696,101.462 v 42.883 l -37.137,-21.441 z m 0,0 -37.137,21.442 v -42.883 z m 0,42.883 -37.137,21.441 V 432.177 Z M 920.774,555.08 883.637,533.638 920.774,512.197 Z M 973.608,26.329 936.47,47.77 V 4.887 Z M 569.3,960.928 606.437,939.486 569.3,918.045 Z m 0,0 -37.138,-21.442 37.138,-21.441 z m 37.137,-21.442 37.138,-21.441 -37.138,-21.442 z m 0,0 -37.137,-21.441 37.137,-21.442 z m 37.138,-21.441 -37.138,-21.442 37.138,-21.441 z m 175.737,-101.462 -37.137,21.441 v -42.883 z m 0,0 -37.137,-21.442 37.137,-21.441 z m -37.137,21.441 -37.138,21.442 v -42.883 z m 0,0 -37.138,-21.441 37.138,-21.442 z m -37.138,21.442 -37.138,-21.442 37.138,-21.441 z m 154.296,-587.331 -37.138,21.442 v -42.883 z m -80.021,-64.324 -37.137,21.442 V 186.37 Z m 0,0 v 42.883 L 782.175,229.253 Z M 782.175,186.37 v 42.883 L 745.037,207.811 Z M 510.721,47.77 547.858,69.212 510.721,90.653 Z m 95.716,37.138 37.138,21.441 -37.138,21.442 z m 0,0 v 42.883 L 569.3,106.349 Z m 37.138,21.441 v 42.883 l -37.138,-21.441 z m 80.021,64.325 -37.138,21.441 V 149.232 Z M 409.259,106.349 v 42.883 l -37.138,-21.441 z m 0,0 37.137,21.442 -37.137,21.441 z m -37.138,21.442 v 42.883 l -37.138,-21.442 z m 0,0 37.138,21.441 -37.138,21.442 z m -37.138,21.441 37.138,21.442 -37.138,21.441 z m -175.737,101.462 37.138,-21.441 v 42.882 z m 0,0 37.138,21.441 -37.138,21.442 z m 37.138,-21.441 37.138,-21.442 v 42.883 z m 0,0 37.138,21.441 -37.138,21.441 z m 37.138,-21.442 37.137,21.442 -37.137,21.441 z M 899.333,677.983 862.195,656.542 899.333,635.1 Z m 0,0 -37.138,21.442 v -42.883 z m 0,-42.883 -37.138,-21.441 37.138,-21.441 z m 0,0 -37.138,21.442 v -42.883 z m 0,-42.882 -37.138,21.441 v -42.883 z m 0,-202.924 v 42.883 l -37.138,-21.442 z m 0,0 -37.138,21.441 v -42.883 z m 0,42.883 v 42.882 l -37.138,-21.441 z m 0,0 -37.138,21.441 v -42.883 z m 0,42.882 -37.138,21.442 v -42.883 z m -718.645,261.503 37.137,-21.441 v 42.883 z m 37.137,21.442 v -42.883 l 37.138,21.441 z m 0,0 37.138,-21.442 v 42.883 z m 37.138,21.441 v -42.883 l 37.138,21.442 z m 0,0 37.138,-21.441 v 42.883 z M 467.838,902.349 430.7,880.907 467.838,859.466 Z M 430.7,880.907 467.838,859.466 430.7,838.024 Z m 0,0 -37.137,-21.441 37.137,-21.442 z M 393.563,859.466 430.7,838.024 393.563,816.583 Z m 0,0 -37.138,-21.442 37.138,-21.441 z m 425.749,-608.772 -37.137,21.441 v -42.882 z m 0,0 v 42.883 l -37.137,-21.442 z m -37.137,-21.441 -37.138,21.441 v -42.883 z m 0,0 v 42.882 l -37.138,-21.441 z m -37.138,-21.442 v 42.883 L 707.899,229.253 Z M 569.3,106.349 606.437,127.791 569.3,149.232 Z m 0,0 v 42.883 l -37.138,-21.441 z m 37.137,21.442 37.138,21.441 -37.138,21.442 z m 0,0 v 42.883 L 569.3,149.232 Z m 37.138,21.441 v 42.883 l -37.138,-21.441 z m -484.329,218.62 37.138,21.442 -37.138,21.441 z m 0,42.883 37.138,-21.441 v 42.883 z m 0,0 37.138,21.442 -37.138,21.441 z m 0,42.883 37.138,-21.441 v 42.882 z m 0,0 37.138,21.441 -37.138,21.442 z m 0,245.807 v -42.883 l 37.138,21.441 z m 0,-42.883 37.138,-21.442 v 42.883 z m 0,0 v -42.883 l 37.138,21.441 z m 0,-42.883 37.138,-21.441 V 635.1 Z m 0,0 v -42.883 l 37.138,21.442 z m 351.475,288.69 37.137,-21.442 -37.137,-21.441 z m 37.137,-21.442 -37.137,-21.441 37.137,-21.442 z m 0,0 37.138,-21.441 -37.138,-21.442 z m 37.138,-21.441 -37.138,-21.442 37.138,-21.441 z m 0,0 37.138,-21.442 -37.138,-21.441 z m 212.875,-122.904 -37.138,21.442 v -42.883 z m -37.138,21.442 -37.137,-21.442 37.137,-21.441 z m 0,0 -37.137,21.441 v -42.883 z m -37.137,21.441 -37.138,-21.441 37.138,-21.442 z m 0,0 -37.138,21.442 v -42.883 z m -505.771,-64.324 37.138,-21.442 v 42.883 z m 37.138,21.441 v -42.883 l 37.138,21.442 z m 0,0 37.138,-21.441 v 42.883 z m 80.02,64.325 v -42.883 l 37.138,21.441 z M 467.838,859.466 430.7,838.024 467.838,816.583 Z M 430.7,838.024 467.838,816.583 430.7,795.141 Z m 0,0 -37.137,-21.441 37.137,-21.442 z M 467.838,207.811 430.7,186.37 467.838,164.928 Z M 430.7,229.253 467.838,207.811 430.7,186.37 Z m 0,0 -37.137,-21.442 37.137,-21.441 z m -37.137,21.441 v -42.883 l 37.137,21.442 z m 0,0 -37.138,-21.441 37.138,-21.442 z m -175.738,101.462 -37.137,-21.441 37.137,-21.442 z m 37.138,-21.441 -37.138,21.441 v -42.883 z m 0,0 -37.138,-21.442 37.138,-21.441 z m 37.138,-21.442 -37.138,21.442 v -42.883 z m 0,0 -37.138,-21.441 37.138,-21.442 z m -58.579,101.462 -37.138,21.442 v -42.883 z m 0,42.883 -37.138,-21.441 37.138,-21.442 z m 0,0 -37.138,21.441 v -42.882 z m -15.697,101.462 -37.137,-21.442 37.137,-21.441 z m 15.697,101.462 -37.138,21.441 V 635.1 Z m 0,-42.883 v 42.883 L 196.384,635.1 Z m 0,0 -37.138,21.441 v -42.882 z m 548.653,64.324 37.137,-21.441 v 42.883 z m 0,-42.883 37.137,21.442 -37.137,21.441 z m 0,0 37.137,-21.441 v 42.883 z m 0,-42.882 37.137,21.441 -37.137,21.441 z m 0,0 37.137,-21.442 v 42.883 z m 0,-202.924 37.137,-21.442 v 42.883 z m 0,0 37.137,21.441 -37.137,21.442 z m 0,42.883 37.137,-21.442 v 42.883 z m 0,0 37.137,21.441 -37.137,21.441 z m 0,42.882 37.137,-21.441 v 42.883 z m -271.454,341.524 37.137,21.441 -37.137,21.442 z m 0,0 37.137,-21.442 v 42.883 z m 37.137,-21.442 37.138,21.442 -37.138,21.441 z m 58.579,-15.696 37.138,-21.441 v 42.883 z m 117.159,-85.766 37.137,21.442 -37.137,21.441 z m 0,0 v 42.883 l -37.138,-21.441 z m 0,42.883 -37.138,21.442 v -42.883 z m -468.633,-42.883 37.138,-21.441 v 42.883 z m 117.158,42.883 v 42.883 l -37.138,-21.441 z m 0,0 -37.138,21.442 v -42.883 z m 37.138,21.442 -37.138,21.441 v -42.883 z m 58.579,15.696 v 42.883 L 430.7,795.141 Z M 760.733,352.156 v -42.883 l 37.138,21.442 z m -37.137,-21.441 37.137,-21.442 v 42.883 z m 0,0 37.137,-21.442 -37.137,-21.441 z m -37.138,-21.442 37.138,-21.441 v 42.883 z m 0,-42.883 37.138,21.442 -37.138,21.441 z m -138.6,-80.02 -37.137,21.441 v -42.883 z m 0,0 v 42.883 l -37.137,-21.442 z m 37.138,21.441 -37.138,21.442 V 186.37 Z m 0,0 v 42.883 l -37.138,-21.441 z m 37.138,21.442 -37.138,21.441 v -42.883 z m -191.434,0 37.138,-21.442 v 42.883 z m 0,0 37.138,21.441 -37.138,21.441 z m -37.137,21.441 37.137,-21.441 v 42.882 z m -58.58,15.696 37.138,21.442 -37.138,21.441 z m -80.02,64.325 v 42.882 l -37.138,-21.441 z m 0,0 37.138,21.441 -37.138,21.441 z m 37.138,-21.442 v 42.883 l -37.138,-21.441 z m -58.579,144.345 v -42.883 l 37.137,21.442 z M 217.825,555.08 v -42.883 l 37.138,21.441 z m 0,-42.883 37.138,-21.441 v 42.882 z m 0,42.883 37.138,-21.442 v 42.883 z m 15.697,58.579 37.137,21.441 -37.137,21.442 z M 782.175,635.1 v 42.883 l -37.138,-21.441 z m 0,0 -37.138,21.442 v -42.883 z m 0,-42.882 V 635.1 l -37.138,-21.441 z m 15.696,-58.58 -37.138,21.442 V 512.197 Z M 782.175,389.294 v 42.883 l -37.138,-21.442 z m 0,42.883 -37.138,21.441 v -42.883 z m 0,0 v 42.882 L 745.037,453.618 Z M 510.721,816.583 547.858,795.141 510.721,773.7 Z m 95.716,-37.138 37.138,-21.441 -37.138,-21.442 z m 0,0 -37.137,-21.441 37.137,-21.442 z m 37.138,-21.441 -37.138,-21.442 37.138,-21.441 z m 80.021,-64.325 -37.138,21.442 v -42.883 z m -351.475,0 v 42.883 l -37.138,-21.441 z m 0,0 -37.138,21.442 v -42.883 z m 37.138,21.442 v 42.883 l -37.138,-21.442 z m 0,0 -37.138,21.441 v -42.883 z m 37.137,21.441 -37.137,21.442 v -42.883 z m 277.2,-362.965 v -42.882 l 37.137,21.441 z m -37.138,-21.441 37.138,-21.441 v 42.882 z m 0,0 37.138,-21.441 -37.138,-21.442 z m -80.021,-64.324 37.138,-21.442 v 42.883 z m -95.716,-37.138 37.137,-21.441 -37.137,-21.442 z m 37.137,21.441 -37.137,-21.441 37.137,-21.441 z m 0,0 v -42.882 l 37.138,21.441 z m -80.02,21.442 -37.138,-21.442 37.138,-21.441 z m -95.717,37.138 -37.138,-21.442 37.138,-21.441 z m 0,0 v -42.883 l 37.138,21.441 z m -37.138,21.441 37.138,-21.441 -37.138,-21.442 z m -42.882,42.883 -37.138,-21.442 37.138,-21.441 z m 0,117.158 -37.138,21.441 v -42.882 z m 0,0 -37.138,-21.441 37.138,-21.442 z m 0,42.883 -37.138,21.441 v -42.883 z m 0,0 -37.138,-21.442 37.138,-21.441 z m 0,42.883 -37.138,-21.442 37.138,-21.441 z m 415.798,37.137 37.138,-21.441 v 42.883 z m 15.697,-101.462 37.137,-21.441 v 42.883 z m 0,0 37.137,21.442 -37.137,21.441 z m 0,-42.882 37.137,21.441 -37.137,21.441 z m -15.697,-58.579 37.138,-21.442 v 42.883 z M 569.3,715.121 606.437,736.562 569.3,758.004 Z m 0,0 v 42.883 l -37.138,-21.442 z m 37.137,-21.442 37.138,21.442 -37.138,21.441 z m 0,0 v 42.883 L 569.3,715.121 Z m 37.138,-21.441 v 42.883 l -37.138,-21.442 z m 42.883,-277.199 37.138,-21.442 -37.138,-21.441 z m -80.021,-64.324 v -42.883 l 37.138,21.441 z m 0,0 37.138,-21.442 v 42.883 z M 569.3,309.273 606.437,287.832 v 42.883 z m -58.579,-15.696 v -42.883 l 37.137,21.441 z m -101.462,58.579 -37.138,-21.441 37.138,-21.442 z m 0,0 v -42.883 l 37.137,21.442 z m -37.138,21.441 -37.138,-21.441 37.138,-21.441 z m 0,0 v -42.882 l 37.138,21.441 z m -37.138,21.442 v -42.883 l 37.138,21.441 z m 351.475,160.041 37.138,-21.442 v 42.883 z m 0,0 37.138,21.441 -37.138,21.442 z m 0,-42.883 37.138,-21.441 v 42.882 z m 0,0 37.138,21.441 -37.138,21.442 z m 0,-42.883 37.138,21.442 -37.138,21.441 z M 393.563,613.659 v 42.883 L 356.425,635.1 Z M 430.7,635.1 393.563,656.542 v -42.883 z m 0,0 v 42.883 l -37.137,-21.441 z m 37.138,21.442 -37.138,21.441 V 635.1 Z m 0,0 v 42.883 L 430.7,677.983 Z m 138.599,-282.945 37.138,-21.441 -37.138,-21.441 z m 0,0 37.138,-21.441 v 42.883 z M 569.3,352.156 v -42.883 l 37.137,21.442 z m 0,0 37.137,-21.441 v 42.882 z M 532.162,330.715 569.3,309.273 v 42.883 z m -160.041,160.041 -37.138,21.441 v -42.883 z m 0,42.882 -37.138,-21.441 37.138,-21.441 z m 0,0 -37.138,21.442 v -42.883 z m 0,42.883 -37.138,-21.441 37.138,-21.442 z m 0,0 -37.138,21.442 V 555.08 Z m 138.6,80.021 37.137,21.441 -37.137,21.442 z M 547.858,635.1 v 42.883 l -37.137,-21.441 z m 0,0 37.138,21.442 -37.138,21.441 z m 37.138,-21.441 v 42.883 L 547.858,635.1 Z m 0,0 37.138,21.441 -37.138,21.442 z M 430.7,592.218 V 635.1 L 393.563,613.659 Z M 467.838,613.659 430.7,635.1 v -42.882 z m 0,0 v 42.883 L 430.7,635.1 Z m 0,-202.924 -37.138,-21.441 37.138,-21.442 z M 430.7,432.177 467.838,410.735 430.7,389.294 Z m 0,0 -37.137,-21.442 37.137,-21.441 z m -37.137,21.441 v -42.883 l 37.137,21.442 z m 0,0 -37.138,-21.441 37.138,-21.442 z m 15.696,58.579 -37.138,21.441 v -42.882 z m 0,42.883 -37.138,-21.442 37.138,-21.441 z m 0,0 -37.138,21.441 v -42.883 z m 197.178,21.441 37.138,-21.441 v 42.883 z m 0,-42.883 37.138,21.442 -37.138,21.441 z m 0,0 37.138,-21.441 v 42.883 z m 0,-42.882 37.138,21.441 -37.138,21.441 z m 0,0 37.138,-21.442 v 42.883 z m -95.716,122.903 37.137,21.441 -37.137,21.442 z m 37.137,-21.441 V 635.1 l -37.137,-21.441 z m 0,0 37.138,21.441 -37.138,21.441 z m -80.02,-21.442 v 42.883 L 430.7,592.218 Z M 584.996,453.618 v -42.883 l 37.138,21.442 z m -37.138,-21.441 37.138,-21.442 v 42.883 z m 0,0 37.138,-21.442 -37.138,-21.441 z m -37.137,-21.442 37.137,-21.441 v 42.883 z m 0,0 37.137,-21.441 -37.137,-21.442 z M 467.838,453.618 430.7,432.177 467.838,410.735 Z M 430.7,475.059 467.838,453.618 430.7,432.177 Z m 0,0 -37.137,-21.441 37.137,-21.441 z m 15.696,58.579 -37.137,21.442 V 512.197 Z M 569.3,555.08 606.437,533.638 v 42.883 z m 0,-42.883 37.137,21.441 -37.137,21.442 z m 0,0 37.137,-21.441 v 42.882 z m -58.579,58.579 37.137,21.442 -37.137,21.441 z m 37.137,-95.717 v -42.882 l 37.138,21.441 z m -37.137,-21.441 37.137,-21.441 v 42.882 z m 0,0 37.137,-21.441 -37.137,-21.442 z m -42.883,42.883 -37.138,-21.442 37.138,-21.441 z m 64.324,37.137 37.138,-21.441 v 42.883 z m -21.441,-37.137 37.137,-21.442 -37.137,-21.441 z"
     style="opacity:1;fill-opacity:0;stroke:#000000;stroke-width:16;stroke-opacity:1;stop-opacity:1;fill:none;stroke-miterlimit:4;stroke-dasharray:none;stroke-linejoin:round"
     id="path117728" />
</svg>
