<?xml version="1.0" encoding="UTF-8" standalone="no"?>
<svg
   xmlns:dc="http://purl.org/dc/elements/1.1/"
   xmlns:cc="http://creativecommons.org/ns#"
   xmlns:rdf="http://www.w3.org/1999/02/22-rdf-syntax-ns#"
   xmlns:svg="http://www.w3.org/2000/svg"
   xmlns="http://www.w3.org/2000/svg"
   xmlns:sodipodi="http://sodipodi.sourceforge.net/DTD/sodipodi-0.dtd"
   xmlns:inkscape="http://www.inkscape.org/namespaces/inkscape"
   inkscape:version="1.0beta1 (32d4812, 2019-09-19)"
   sodipodi:docname="4-uniform_104.svg"
   id="c:\kuniform\4u\4-uniform_104.svg"
   height="1000.0"
   width="975.79144"
   version="1.0">
  <style
     id="style2814"></style>
  <metadata
     id="metadata2812">
    <rdf:RDF>
      <cc:Work
         rdf:about="">
        <dc:format>image/svg+xml</dc:format>
        <dc:type
           rdf:resource="http://purl.org/dc/dcmitype/StillImage" />
        <dc:title></dc:title>
      </cc:Work>
    </rdf:RDF>
  </metadata>
  <defs
     id="defs2810" />
  <sodipodi:namedview
     inkscape:current-layer="c:\kuniform\4u\4-uniform_104.svg"
     inkscape:window-maximized="0"
     inkscape:window-y="23"
     inkscape:window-x="0"
     inkscape:cy="560"
     inkscape:cx="400"
     inkscape:zoom="0.35"
     showgrid="false"
     id="namedview2808"
     inkscape:window-height="907"
     inkscape:window-width="1600"
     inkscape:pageshadow="2"
     inkscape:pageopacity="0"
     guidetolerance="10"
     gridtolerance="10"
     objecttolerance="10"
     borderopacity="1"
     inkscape:document-rotation="0"
     bordercolor="#666666"
     pagecolor="#ffffff" />
  <!-- X Coordinate transform: fx(x)=(x+72.17139)*0.85270905-->
  <!-- Y Coordinate transform: fy(y)=(1077.2158-y)*0.85270905 -->
  <path
     id="path2803"
     d="m 41.754,915.491 h 42.635 m 36.924,21.317 21.318,36.924 m 770.089,-95.165 -21.318,36.924 v 42.635 M 185.266,41.874 163.948,4.951 M 790.525,41.874 769.208,4.951 M 912.72,179.674 891.402,142.75 M 747.89,41.874 769.208,4.951 M 84.389,142.75 H 41.754 L 4.831,121.433 m 116.482,0 21.318,-36.924 M 41.754,216.597 20.436,179.674 41.754,142.75 m 63.953,735.817 -21.318,36.924 v 42.635 m 58.242,-58.241 21.317,36.923 21.318,36.924 M 41.754,841.644 H 84.389 M 142.631,41.874 163.948,4.951 m 684.819,910.54 h 42.635 m -79.559,21.317 -21.318,36.924 m 137.8,-153.406 h 42.636 M 928.325,237.915 h 42.636 M 185.266,84.509 H 142.631 L 105.707,63.192 84.389,26.268 m 843.936,95.165 h 42.636 M 222.189,63.192 243.507,26.268 m 605.26,116.482 h 42.635 l 36.923,-21.317 21.318,-36.924 m -137.8,36.924 -21.318,-36.924 m -42.635,0 h 42.635 l 36.924,-21.317 21.318,-36.924 m -137.8,36.924 -21.318,-36.924 m -547.018,132.088 21.317,-36.923 21.318,-36.924 36.923,-21.317 m -36.923,836.693 -21.318,36.923 -21.317,36.924 m 0,-116.483 -21.318,-36.923 -36.924,-21.318 H 41.754 L 4.831,820.326 M 41.754,915.491 20.436,878.567 41.754,841.644 V 799.008 L 20.436,762.085 m 706.136,174.723 21.318,36.924 m 79.559,-95.165 21.318,36.924 v 42.635 m -58.242,-58.241 -21.317,36.923 -21.318,36.924 M 848.767,841.644 h 42.635 M 41.754,915.491 v 42.635 M 928.325,703.844 h 42.636 M 84.389,216.597 63.072,179.674 41.754,142.75 V 100.115 L 20.436,63.192 M 41.754,26.268 H 84.389 L 121.313,4.951 m 807.012,349.446 h 42.636 M 20.436,296.156 41.754,259.233 v -42.636 l 21.318,-36.923 21.317,-36.924 36.924,-21.317 h 42.635 42.636 M 243.507,100.115 264.825,63.192 286.143,26.268 323.066,4.951 M 344.384,41.874 365.701,4.951 M 222.189,63.192 h 42.636 42.635 m 403.507,0 36.923,21.317 21.318,36.924 21.317,36.923 M 387.019,41.874 365.701,4.951 M 487.896,26.268 524.819,4.951 M 891.402,216.597 870.084,179.674 848.767,142.75 811.843,121.433 H 769.208 726.572 M 610.09,4.951 l 36.923,21.317 21.318,36.924 21.318,36.923 M 588.772,41.874 567.455,4.951 m 58.241,58.241 h 42.635 42.636 M 546.137,41.874 567.455,4.951 M 949.643,84.509 912.72,63.192 891.402,26.268 m -42.635,190.329 21.317,-36.923 21.318,-36.924 V 100.115 L 912.72,63.192 949.643,41.874 m -137.8,-36.923 36.924,21.317 h 42.635 L 928.325,4.951 M 185.266,158.356 163.948,121.433 142.631,84.509 V 41.874 L 121.313,4.951 m 21.318,196.041 -21.318,36.923 -36.924,21.318 H 41.754 L 4.831,237.915 m 100.876,640.652 36.924,-21.318 h 42.635 l 36.923,21.318 21.318,36.924 v 42.635 l 21.318,36.923 m -79.559,-137.8 -21.318,-36.923 -21.317,-36.923 M 20.436,762.085 41.754,725.162 V 682.526 L 20.436,645.603 41.754,608.679 V 566.044 L 20.436,529.121 m 727.454,370.764 21.318,36.923 21.317,36.924 m 137.8,-36.924 21.318,-36.923 v -42.636 l -21.318,-36.923 -36.923,-21.318 h -42.635 l -36.924,21.318 -21.318,36.923 m 137.8,-269.887 h 42.636 m -58.241,58.241 -21.318,36.923 v 42.636 l 21.318,36.923 36.923,21.318 M 344.384,973.732 323.066,936.808 286.143,915.491 h -42.636 l -36.923,21.317 -21.318,36.924 M 20.436,63.192 41.754,26.268 m 568.336,910.54 -21.318,36.924 M 928.325,470.879 h 42.636 M 827.449,179.674 h 42.635 42.636 l 36.923,21.318 21.318,36.923 -21.318,36.923 -36.923,21.318 -21.318,36.923 v 42.636 l 21.318,36.923 M 286.143,100.115 264.825,63.192 243.507,26.268 M 747.89,158.356 769.208,121.433 790.525,84.509 V 41.874 L 811.843,4.951 m 0,232.964 -21.318,-36.923 M 344.384,84.509 h 42.635 L 423.943,63.192 445.26,26.268 m 201.753,73.847 21.318,-36.923 21.318,-36.924 M 408.337,4.951 445.26,26.268 h 42.636 l 21.317,36.924 36.924,21.317 h 42.635 M 20.436,529.121 41.754,492.197 V 449.562 L 20.436,412.638 41.754,375.715 V 333.079 L 20.436,296.156 M 41.754,449.562 63.072,412.638 84.389,375.715 M 105.707,63.192 84.389,100.115 v 42.635 l 21.318,36.924 36.924,21.318 h 42.635 l 36.923,-21.318 21.318,-36.924 V 100.115 L 222.189,63.192 185.266,41.874 h -42.635 z m 36.924,211.646 21.317,-36.923 21.318,-36.923 m -63.953,619.334 h 42.635 42.636 m -21.318,-36.923 -21.318,36.923 -21.317,36.923 v 42.636 l -21.318,36.923 -36.924,21.318 H 41.754 L 4.831,936.808 m 137.8,-196.041 -21.318,-36.923 M 41.754,682.526 63.072,645.603 84.389,608.679 m 21.318,36.924 -21.318,-36.924 m 0,73.847 21.318,-36.923 m 562.624,349.446 21.318,-36.923 v -42.635 l 21.318,-36.924 36.923,-21.318 h 42.635 l 36.924,21.318 h 42.635 42.636 l 36.923,-21.318 21.318,-36.923 -21.318,-36.923 m -201.753,73.846 21.318,-36.923 21.317,-36.923 m 100.877,-174.724 21.318,36.924 36.923,21.317 21.318,36.924 -21.318,36.923 -36.923,21.318 -21.318,36.923 v 42.636 l 21.318,36.923 36.923,21.318 21.318,36.923 m -626.577,-36.923 21.317,36.923 21.318,36.924 m 0,-73.847 -21.318,36.923 -21.317,36.924 M 445.26,915.491 h 42.636 m 100.876,-15.606 -21.317,36.923 -21.318,36.924 m 0,-73.847 21.318,36.923 21.317,36.924 m 302.63,-524.17 21.318,-36.924 36.923,-21.317 21.318,-36.924 -21.318,-36.923 -36.923,-21.318 -21.318,-36.923 v -42.636 l 21.318,-36.923 36.923,-21.318 21.318,-36.923 -21.318,-36.924 V 41.874 L 928.325,4.951 m -605.259,0 21.318,36.923 v 42.635 l -21.318,36.924 -36.923,21.317 H 243.507 L 206.584,121.433 185.266,84.509 V 41.874 L 206.584,4.951 m 620.865,58.241 21.318,36.923 v 42.635 l -21.318,36.924 -36.924,21.318 H 747.89 L 710.967,179.674 689.649,142.75 V 100.115 L 710.967,63.192 747.89,41.874 h 42.635 z M 790.525,274.838 769.208,237.915 747.89,200.992 M 323.066,121.433 h 42.635 42.636 M 610.09,4.951 588.772,41.874 v 42.635 l 21.318,36.924 36.923,21.317 h 42.636 L 726.572,121.433 747.89,84.509 V 41.874 L 726.572,4.951 M 524.819,121.433 h 42.636 42.635 M 84.389,449.562 63.072,412.638 41.754,375.715 m 63.953,36.923 H 63.072 20.436 m 100.877,-58.241 21.318,-36.923 m -21.318,-79.559 h 42.635 42.636 m -21.318,36.923 -21.318,-36.923 -21.317,-36.923 V 158.356 L 121.313,121.433 84.389,100.115 H 41.754 L 4.831,121.433 M 105.707,878.567 84.389,841.644 v -42.636 l 21.318,-36.923 36.924,-21.318 h 42.635 m 36.923,21.318 21.318,36.923 v 42.636 l -21.318,36.923 -36.923,21.318 H 142.631 L 105.707,878.567 H 63.072 20.436 m 122.195,-211.647 21.317,36.924 21.318,36.923 36.923,21.318 M 142.631,624.285 121.313,587.362 84.389,566.044 H 41.754 L 4.831,587.362 m 721.741,232.964 h 42.636 42.635 m -63.953,-36.923 21.318,36.923 21.317,36.923 v 42.636 l 21.318,36.923 36.924,21.318 h 42.635 l 36.923,-21.318 m -137.8,-196.041 21.318,-36.923 m 79.559,-21.318 -21.318,-36.923 -21.317,-36.924 m -21.318,36.924 h 42.635 42.636 l 36.923,-21.318 21.318,-36.923 -21.318,-36.924 -36.923,-21.317 -21.318,-36.924 v -42.635 l -21.318,-36.924 -21.317,-36.923 m -424.824,502.852 21.317,36.924 v 42.635 m 63.953,-79.559 -21.317,36.924 v 42.635 m 180.435,36.923 -21.318,-36.923 v -42.635 l -21.317,-36.924 -36.924,-21.318 h -42.635 l -36.924,21.318 h -42.635 -42.635 l -36.924,-21.318 h -42.635 l -36.924,21.318 -21.317,36.924 v 42.635 l -21.318,36.923 M 243.507,799.008 h 42.636 m 562.624,-349.446 21.317,-36.924 21.318,-36.923 m -42.635,306.811 21.317,-36.923 21.318,-36.924 v -42.635 l 21.318,-36.923 36.923,-21.318 21.318,-36.924 -21.318,-36.923 -36.923,-21.318 H 870.084 827.449 M 811.843,354.397 790.525,317.474 M 344.384,158.356 365.701,121.433 387.019,84.509 M 206.584,4.951 243.507,26.268 h 42.636 l 21.317,36.924 36.924,21.317 21.317,36.924 21.318,36.923 m 339.553,79.559 h 42.636 42.635 m 0,0 36.924,21.318 h 42.635 l 36.923,-21.318 21.318,-36.923 v -42.636 l -21.318,-36.923 -36.923,-21.318 h -42.635 l -36.924,21.318 -21.318,36.923 v 42.636 l -21.317,36.923 -21.318,36.923 M 445.26,142.75 h 42.636 m 100.876,15.606 -21.317,-36.923 -21.318,-36.924 m 0,73.847 21.318,-36.923 21.317,-36.924 36.924,-21.317 21.317,-36.924 h 42.636 L 726.572,4.951 M 142.631,391.321 121.313,354.397 84.389,333.079 H 41.754 L 4.831,354.397 m 137.8,79.559 -21.318,36.923 -36.924,21.318 H 41.754 L 4.831,470.879 M 185.266,317.474 H 142.631 L 105.707,296.156 84.389,259.233 v -42.636 l 21.318,-36.923 m 116.482,116.482 21.318,-36.923 v -42.636 l -21.318,-36.923 -36.923,-21.318 h -42.635 l -36.924,21.318 H 63.072 20.436 m 186.148,524.17 H 163.948 121.313 L 84.389,682.526 H 41.754 L 4.831,703.844 M 344.384,857.249 323.066,820.326 286.143,799.008 264.825,762.085 243.507,725.162 M 142.631,507.803 121.313,470.879 m 0,116.483 21.318,-36.924 m 42.635,116.482 -21.318,36.924 -21.317,36.923 v 42.636 L 121.313,820.326 84.389,841.644 63.072,878.567 41.754,915.491 4.831,936.808 M 747.89,740.767 h 42.635 m 0,0 36.924,21.318 21.318,36.923 v 42.636 l -21.318,36.923 -36.924,21.318 H 747.89 l -36.923,-21.318 -21.318,-36.923 v -42.636 l 21.318,-36.923 m 0,0 36.923,-21.318 21.318,-36.923 21.317,-36.924 m 159.118,0 -21.318,36.924 -36.923,21.318 H 848.767 L 811.843,703.844 790.525,666.92 v -42.635 l 21.318,-36.923 36.924,-21.318 h 42.635 l 36.923,21.318 21.318,36.923 z M 323.066,820.326 h 42.635 42.636 m 36.923,21.318 h 42.636 m 159.117,-42.636 h 42.636 m -164.83,21.318 h 42.636 42.635 M 222.189,762.085 h 42.636 42.635 m 79.559,95.164 -21.318,-36.923 -21.317,-36.923 m 446.141,-392.082 21.318,-36.924 m 0,0 36.924,-21.318 h 42.635 l 36.923,21.318 21.318,36.924 v 42.635 l -21.318,36.923 -36.923,21.318 h -42.635 l -36.924,-21.318 -21.318,-36.923 m 0,0 V 391.321 L 769.208,354.397 747.89,317.474 M 423.943,179.674 445.26,142.75 m 0,0 V 100.115 L 423.943,63.192 387.019,41.874 h -42.635 l -36.924,21.318 -21.317,36.923 v 42.635 l 21.317,36.924 36.924,21.318 h 42.635 m 323.948,95.164 -21.318,-36.923 v -42.636 l 21.318,-36.923 36.923,-21.318 h 42.635 l 36.924,21.318 21.318,36.923 v 42.636 l -21.318,36.923 -36.924,21.318 H 747.89 Z m -323.948,-95.164 36.924,-21.318 h 42.635 42.635 m 36.924,21.318 h 42.635 l 36.924,-21.318 21.317,-36.924 V 100.115 L 625.696,63.192 588.772,41.874 h -42.635 l -36.924,21.318 -21.317,36.923 v 42.635 l 21.317,36.924 z M 185.266,391.321 163.948,354.397 142.631,317.474 V 274.838 L 121.313,237.915 84.389,216.597 H 41.754 L 4.831,237.915 m 180.435,386.37 -21.318,-36.923 -21.317,-36.924 v -42.635 l 21.317,-36.924 21.318,-36.923 m 137.8,-196.041 21.318,-36.923 m -100.877,58.241 h 42.636 M 4.831,354.397 41.754,375.715 h 42.635 l 36.924,-21.318 h 42.635 42.636 m 0,582.411 -21.318,-36.923 v -42.636 l 21.318,-36.923 36.923,-21.318 21.318,-36.923 21.318,-36.923 M 185.266,507.803 163.948,470.879 142.631,433.956 v -42.635 l 21.317,-36.924 21.318,-36.923 36.923,-21.318 M 4.831,703.844 41.754,725.162 h 42.635 l 36.924,-21.318 21.318,-36.924 v -42.635 l 21.317,-36.923 21.318,-36.924 m -79.559,95.165 36.924,-21.318 h 42.635 l 36.923,21.318 21.318,36.923 v 42.636 l -21.318,36.923 -36.923,21.318 H 142.631 L 105.707,762.085 84.389,725.162 V 682.526 L 63.072,645.603 41.754,608.679 M 4.831,587.362 41.754,608.679 h 42.635 l 36.924,-21.317 h 42.635 42.636 m 519.988,116.482 h 42.636 42.635 l 36.924,-21.318 h 42.635 l 36.923,21.318 21.318,36.923 v 42.636 l -21.318,36.923 -36.923,21.318 -21.318,36.923 -21.317,36.924 -36.924,21.317 h -42.635 -42.636 l -36.923,-21.317 h -42.636 l -36.923,21.317 m -21.318,-79.559 21.318,-36.923 36.923,-21.318 21.318,-36.923 21.318,-36.923 M 970.961,936.808 H 928.325 L 891.402,915.491 870.084,878.567 848.767,841.644 811.843,820.326 790.525,783.403 V 740.767 L 769.208,703.844 747.89,666.92 m 63.953,-79.558 -21.318,-36.924 m 0,-42.635 21.318,-36.924 M 747.89,624.285 h 42.635 m -467.459,312.523 21.318,-36.923 v -42.636 l 21.317,-36.923 21.318,-36.923 m 159.118,73.846 -21.318,-36.923 -36.923,-21.318 H 445.26 l -36.923,21.318 -21.318,36.923 v 42.636 l 21.318,36.923 M 4.831,820.326 l 36.923,21.318 21.318,36.923 21.317,36.924 36.924,21.317 h 42.635 42.636 l 36.923,21.318 h 42.636 l 36.923,-21.318 h 42.635 42.636 l 36.923,21.318 h 42.636 l 36.923,-21.318 21.318,-36.923 v -42.636 l 21.318,-36.923 21.317,-36.923 m 36.924,-21.318 h 42.635 42.636 M 610.09,936.808 588.772,899.885 v -42.636 l -21.317,-36.923 -21.318,-36.923 m 201.753,-392.082 21.318,-36.924 21.317,-36.923 m -42.635,306.811 21.318,-36.923 21.317,-36.924 V 507.803 L 769.208,470.879 747.89,433.956 m -21.318,-79.559 h 42.636 42.635 l 36.924,21.318 h 42.635 l 36.923,-21.318 21.318,-36.923 v -42.636 l -21.318,-36.923 -36.923,-21.318 h -42.635 l -36.924,21.318 -21.318,36.923 v 42.636 M 445.26,216.597 466.578,179.674 487.896,142.75 524.819,121.433 546.137,84.509 V 41.874 L 524.819,4.951 m -281.312,328.128 21.318,-36.923 21.318,-36.923 36.923,-21.318 h 42.635 42.636 m 238.676,21.318 h 42.636 M 610.09,237.915 588.772,200.992 m 100.877,132.087 21.318,-36.923 M 487.896,216.597 466.578,179.674 445.26,142.75 408.337,121.433 387.019,84.509 V 41.874 L 408.337,4.951 M 689.649,333.079 668.331,296.156 647.013,259.233 610.09,237.915 H 567.455 524.819 M 206.584,470.879 H 163.948 121.313 L 84.389,449.562 H 41.754 L 4.831,470.879 m 339.553,-196.041 21.317,-36.923 21.318,-36.923 m -164.83,95.164 h 42.636 42.635 m -63.953,36.923 v 42.636 l -21.318,36.923 -36.923,21.318 H 142.631 L 105.707,412.638 84.389,375.715 v -42.636 l 21.318,-36.923 36.924,-21.318 h 42.635 l 36.923,21.318 z M 344.384,740.767 323.066,703.844 M 84.389,608.679 v -42.635 l 21.318,-36.923 36.924,-21.318 h 42.635 l 36.923,21.318 21.318,36.923 v 42.635 l -21.318,36.924 -36.923,21.317 H 142.631 L 105.707,645.603 H 63.072 20.436 m 504.383,291.205 h 42.636 42.635 l 36.923,21.318 h 42.636 l 36.923,-21.318 21.318,-36.923 v -42.636 l -21.318,-36.923 -36.923,-21.318 -21.318,-36.923 -21.318,-36.923 m 100.877,-174.724 21.318,36.924 21.317,36.923 36.924,21.318 21.318,36.923 v 42.636 l -21.318,36.923 -36.924,21.318 H 747.89 l -36.923,-21.318 -21.318,-36.923 v -42.636 l 21.318,-36.923 36.923,-21.318 m 0,-116.482 21.318,-36.924 21.317,-36.923 M 445.26,799.008 423.943,762.085 387.019,740.767 h -42.635 l -36.924,21.318 -21.317,36.923 v 42.636 l 21.317,36.923 36.924,21.318 h 42.635 l 36.924,-21.318 21.317,-36.923 z m 100.877,-58.241 h 42.635 m 137.8,-269.888 h 42.636 42.635 l 36.924,-21.317 h 42.635 l 36.923,21.317 21.318,36.924 v 42.635 l -21.318,36.924 -36.923,21.317 H 848.767 L 811.843,587.362 H 769.208 726.572 M 387.019,274.838 365.701,237.915 344.384,200.992 v -42.636 l -21.318,-36.923 -36.923,-21.318 h -42.636 l -36.923,21.318 -21.318,36.923 v 42.636 l 21.318,36.923 36.923,21.318 21.318,36.923 21.318,36.923 m 339.553,-36.923 h 42.635 42.636 l 36.923,-21.318 h 42.635 l 36.924,21.318 21.318,36.923 v 42.636 l -21.318,36.923 -36.924,21.318 H 747.89 L 710.967,412.638 689.649,375.715 V 333.079 M 588.772,274.838 567.455,237.915 546.137,200.992 m 0,0 -21.318,36.923 -36.923,21.318 H 445.26 l -36.923,-21.318 -21.318,-36.923 v -42.636 l 21.318,-36.923 36.923,-21.318 h 42.636 l 36.923,21.318 21.318,36.923 z m 0,73.846 21.318,-36.923 21.317,-36.923 v -42.636 l 21.318,-36.923 36.923,-21.318 h 42.636 l 36.923,21.318 21.318,36.923 v 42.636 l -21.318,36.923 -36.923,21.318 -21.318,36.923 -21.318,36.923 m -424.824,196.042 21.318,-36.924 m -36.923,-137.8 36.923,21.318 h 42.636 l 36.923,-21.318 21.318,-36.923 v -42.636 l -21.318,-36.923 -36.923,-21.318 h -42.636 l -36.923,21.318 -21.318,36.923 v 42.636 z M 387.019,740.767 365.701,703.844 344.384,666.92 M 286.143,566.044 264.825,529.121 243.507,492.197 m 345.265,291.206 v -42.636 l 21.318,-36.923 36.923,-21.318 h 42.636 l 36.923,21.318 21.318,36.923 v 42.636 l -21.318,36.923 -36.923,21.318 H 647.013 L 610.09,820.326 Z M 689.649,566.044 710.967,529.121 M 323.066,703.844 h 42.635 42.636 m 116.482,0 h 42.636 42.635 m -287.024,0 -36.923,-21.318 h -42.636 l -36.923,21.318 -21.318,36.923 v 42.636 l 21.318,36.923 36.923,21.318 h 42.636 l 36.923,-21.318 21.318,-36.923 v -42.636 l 21.317,-36.923 21.318,-36.924 M 790.525,550.438 H 747.89 l -36.923,-21.317 -21.318,-36.924 v -42.635 l 21.318,-36.924 36.923,-21.317 h 42.635 l 36.924,21.317 21.318,36.924 v 42.635 l -21.318,36.924 z M 344.384,317.474 h 42.635 m 223.071,36.923 -21.318,-36.923 m -79.559,-137.8 -21.317,36.923 v 42.636 l 21.317,36.923 36.924,21.318 h 42.635 l 36.924,-21.318 21.317,-36.923 v -42.636 l -21.317,-36.923 -36.924,-21.318 h -42.635 z m -265.706,386.37 21.318,-36.923 21.318,-36.924 m 58.241,-100.876 21.317,-36.924 21.318,-36.923 M 243.507,492.197 v -42.635 l -21.318,-36.924 -36.923,-21.317 h -42.635 l -36.924,21.317 -21.318,36.924 v 42.635 l 21.318,36.924 36.924,21.317 h 42.635 l 36.923,-21.317 h 42.636 42.635 m 36.924,95.164 -21.318,-36.923 m 223.071,153.405 21.318,-36.923 21.317,-36.924 m 58.241,-100.876 21.318,-36.923 21.318,-36.924 M 445.26,682.526 h 42.636 m 58.241,58.241 -36.924,21.318 -21.317,36.923 v 42.636 l 21.317,36.923 36.924,21.318 h 42.635 l 36.924,-21.318 21.317,-36.923 V 799.008 L 625.696,762.085 588.772,740.767 567.455,703.844 546.137,666.92 M 344.384,624.285 h 42.635 m -42.635,0 -36.924,21.318 -21.317,36.923 v 42.636 l 21.317,36.923 36.924,21.318 h 42.635 l 36.924,-21.318 21.317,-36.923 v -42.636 l -21.317,-36.923 m 265.706,-79.559 -21.318,-36.923 -21.318,-36.924 m -323.947,-137.8 h 42.635 42.636 m 180.435,36.924 -21.317,-36.924 -21.318,-36.923 m -21.318,36.923 h 42.636 42.635 M 387.019,391.321 365.701,354.397 344.384,317.474 307.46,296.156 286.143,259.233 v -42.636 l 21.317,-36.923 36.924,-21.318 h 42.635 l 36.924,21.318 21.317,36.923 v 42.636 l -21.317,36.923 -36.924,21.318 m -63.953,153.405 21.318,-36.923 m 0,73.847 -21.318,-36.924 m 100.877,174.724 -36.924,-21.318 -21.318,-36.923 -21.317,-36.924 m 244.388,73.847 21.318,-36.923 m 15.606,-58.241 h 42.635 42.636 l 36.923,-21.318 h 42.635 l 36.924,21.318 21.318,36.923 v 42.635 l -21.318,36.924 -36.924,21.317 H 747.89 l -36.923,-21.317 -21.318,-36.924 v -42.635 m -265.706,79.559 h 42.635 42.635 m 79.559,137.8 h -42.635 l -36.924,-21.318 -21.317,-36.923 v -42.636 l 21.317,-36.923 36.924,-21.318 h 42.635 l 36.924,21.318 21.317,36.923 v 42.636 l -21.317,36.923 z M 323.066,587.362 h 42.635 42.636 m -21.318,386.37 21.318,-36.924 36.923,-21.317 21.318,-36.924 21.318,-36.923 36.923,-21.318 21.318,-36.923 V 740.767 L 524.819,703.844 487.896,682.526 466.578,645.603 445.26,608.679 m 164.83,-137.8 -21.318,-36.923 m -42.635,-42.635 21.318,-36.924 21.317,-36.923 v -42.636 l 21.318,-36.923 36.923,-21.318 h 42.636 l 36.923,21.318 21.318,36.923 v 42.636 l -21.318,36.923 -36.923,21.318 H 647.013 L 610.09,354.397 m -164.83,21.318 h 42.636 m -63.953,36.923 21.317,-36.923 m -122.194,95.164 -36.923,-21.317 h -42.636 l -36.923,21.317 -21.318,36.924 v 42.635 l 21.318,36.924 36.923,21.317 h 42.636 l 36.923,-21.317 21.318,-36.924 v -42.635 l 21.317,-36.924 21.318,-36.923 m 0,73.847 -21.318,-36.924 -21.317,-36.923 m -21.318,153.406 -36.923,-21.318 h -42.636 l -36.923,21.318 -21.318,36.923 v 42.635 l 21.318,36.924 36.923,21.318 h 42.636 l 36.923,-21.318 21.318,-36.924 v -42.635 l 21.317,-36.923 21.318,-36.924 m 159.118,73.847 21.318,-36.923 21.317,-36.924 m 0,-42.635 21.318,-36.924 36.923,-21.317 h 42.636 l 36.923,21.317 21.318,36.924 v 42.635 l -21.318,36.924 -36.923,21.317 H 647.013 L 610.09,587.362 588.772,550.438 Z M 546.137,973.732 524.819,936.808 487.896,915.491 466.578,878.567 445.26,841.644 408.337,820.326 387.019,783.403 v -42.636 l 21.318,-36.923 36.923,-21.318 21.318,-36.923 21.318,-36.924 m 36.923,-21.317 h 42.636 42.635 M 588.772,507.803 567.455,470.879 546.137,433.956 M 445.26,375.715 v -42.636 l -21.317,-36.923 -36.924,-21.318 h -42.635 l -36.924,21.318 -21.317,36.923 v 42.636 l 21.317,36.923 36.924,21.318 h 42.635 l 36.924,-21.318 h 42.635 42.635 m 0,0 -21.317,-36.923 v -42.636 l 21.317,-36.923 36.924,-21.318 h 42.635 l 36.924,21.318 21.317,36.923 v 42.636 l -21.317,36.923 -36.924,21.318 h -42.635 z m -63.953,36.924 21.318,-36.924 21.318,-36.923 m -143.512,58.241 v -42.635 l -21.318,-36.924 -36.923,-21.318 h -42.636 l -36.923,21.318 -21.318,36.924 v 42.635 l 21.318,36.923 36.923,21.318 h 42.636 l 36.923,-21.318 h 42.635 42.636 m 15.606,58.242 21.317,36.923 v 42.635 l -21.317,36.924 -36.924,21.317 H 344.384 L 307.46,645.603 286.143,608.679 v -42.635 l 21.317,-36.923 36.924,-21.318 h 42.635 z m 186.147,58.241 36.923,-21.318 h 42.636 l 36.923,21.318 21.318,36.923 v 42.635 l -21.318,36.924 -36.923,21.318 H 647.013 L 610.09,703.844 588.772,666.92 v -42.635 l -21.317,-36.923 -21.318,-36.924 m 0,-42.635 21.318,-36.924 21.317,-36.923 M 487.896,566.044 H 445.26 l -36.923,21.318 -21.318,36.923 v 42.635 l 21.318,36.924 36.923,21.318 h 42.636 l 36.923,-21.318 21.318,-36.924 v -42.635 l -21.318,-36.923 z m 36.923,-95.165 h 42.636 42.635 l 36.923,21.318 h 42.636 l 36.923,-21.318 21.318,-36.923 v -42.635 l -21.318,-36.924 -36.923,-21.318 h -42.636 l -36.923,21.318 -21.318,36.924 v 42.635 M 487.896,449.562 466.578,412.638 445.26,375.715 408.337,354.397 387.019,317.474 v -42.636 l 21.318,-36.923 36.923,-21.318 h 42.636 l 36.923,21.318 21.318,36.923 v 42.636 l -21.318,36.923 -36.923,21.318 m 0,73.847 36.923,21.317 21.318,36.924 v 42.635 l -21.318,36.924 -36.923,21.317 H 445.26 l -36.923,-21.317 -21.318,-36.924 v -42.635 l 21.318,-36.924 36.923,-21.317 z m -42.636,42.635 -21.317,36.924 -36.924,21.317 H 344.384 L 307.46,529.121 286.143,492.197 v -42.635 l 21.317,-36.924 36.924,-21.317 h 42.635 l 36.924,21.317 21.317,36.924 z m 63.953,36.924 -21.317,36.923 v 42.635 l 21.317,36.924 36.924,21.317 h 42.635 l 36.924,-21.317 21.317,-36.924 V 566.044 L 625.696,529.121 588.772,507.803 H 546.137 Z M 487.896,492.197 H 445.26 l -36.923,-21.318 -21.318,-36.923 v -42.635 l 21.318,-36.924 36.923,-21.318 h 42.636 l 36.923,21.318 21.318,36.924 v 42.635 l -21.318,36.923 z m 0,0 21.317,36.924 36.924,21.317 h 42.635 l 36.924,-21.317 21.317,-36.924 v -42.635 l -21.317,-36.924 -36.924,-21.317 h -42.635 l -36.924,21.317 -21.317,36.924 z"
     inkscape:connector-curvature="0"
     style="opacity:1;fill-opacity:0;stroke:#000000;stroke-width:15;stroke-opacity:1;stop-opacity:1;stroke-miterlimit:4;stroke-dasharray:none" />
</svg>
