<?xml version="1.0" encoding="UTF-8" standalone="no"?>
<svg
   xmlns:dc="http://purl.org/dc/elements/1.1/"
   xmlns:cc="http://creativecommons.org/ns#"
   xmlns:rdf="http://www.w3.org/1999/02/22-rdf-syntax-ns#"
   xmlns:svg="http://www.w3.org/2000/svg"
   xmlns="http://www.w3.org/2000/svg"
   xmlns:sodipodi="http://sodipodi.sourceforge.net/DTD/sodipodi-0.dtd"
   xmlns:inkscape="http://www.inkscape.org/namespaces/inkscape"
   inkscape:version="1.0beta1 (32d4812, 2019-09-19)"
   sodipodi:docname="4-uniform_102.svg"
   id="c:\kuniform\4u\4-uniform_102.svg"
   height="989.9067"
   width="1000.00006"
   version="1.0">
  <style
     id="style8023"></style>
  <metadata
     id="metadata7460">
    <rdf:RDF>
      <cc:Work
         rdf:about="">
        <dc:format>image/svg+xml</dc:format>
        <dc:type
           rdf:resource="http://purl.org/dc/dcmitype/StillImage" />
        <dc:title></dc:title>
      </cc:Work>
    </rdf:RDF>
  </metadata>
  <defs
     id="defs7458" />
  <sodipodi:namedview
     inkscape:current-layer="c:\kuniform\4u\4-uniform_102.svg"
     inkscape:window-maximized="1"
     inkscape:window-y="23"
     inkscape:window-x="0"
     inkscape:cy="494.95334"
     inkscape:cx="44.301612"
     inkscape:zoom="0.29295691"
     showgrid="false"
     id="namedview7456"
     inkscape:window-height="1005"
     inkscape:window-width="1680"
     inkscape:pageshadow="2"
     inkscape:pageopacity="0"
     guidetolerance="10"
     gridtolerance="10"
     objecttolerance="10"
     borderopacity="1"
     inkscape:document-rotation="0"
     bordercolor="#666666"
     pagecolor="#ffffff" />
  <!-- X Coordinate transform: fx(x)=(x+83.85651)*0.86131597-->
  <!-- Y Coordinate transform: fy(y)=(1065.4972-y)*0.86131597 -->
  <path
     d="M 122.608,63.729 V 20.664 M 957.753,867.348 995.05,845.815 M 781.267,969.243 818.563,947.71 m 139.19,-123.428 v 43.066 l -21.532,37.296 V 947.71 M 144.141,904.644 V 947.71 M 840.096,63.729 877.392,42.197 M 101.076,947.71 h 43.065 l 37.296,21.533 m 717.487,0 37.297,-21.533 M 42.247,202.92 4.951,181.387 M 20.714,283.282 42.247,245.986 V 202.92 159.855 L 20.714,122.558 m 64.598,723.257 37.296,21.533 21.533,37.296 37.296,21.533 m 797.849,-21.533 -21.533,-37.296 -37.296,-21.533 m -101.894,58.829 v 43.066 l 21.533,37.296 M 224.503,969.243 261.799,947.71 m 439.106,0 37.296,21.533 M 920.457,202.92 957.753,181.387 M 979.286,304.815 941.99,283.282 920.457,245.986 V 202.92 159.855 l 21.533,-37.297 37.296,-21.532 M 283.332,63.729 V 20.664 m 396.04,43.065 V 20.664 M 144.141,144.091 106.845,122.558 85.312,85.262 V 42.197 m 58.829,58.829 37.296,21.532 m 43.066,0 V 79.493 l 21.533,-37.296 37.296,-21.533 37.296,21.533 m -198.02,825.151 v -43.066 m 58.829,144.961 V 926.177 883.111 L 159.905,845.815 122.608,824.282 85.312,802.75 H 42.247 L 4.951,824.282 M 42.247,685.092 4.951,706.624 m 15.763,58.829 21.533,-37.296 V 685.092 642.026 L 20.714,604.73 m 760.553,321.447 37.296,-21.533 21.533,-37.296 37.296,-21.533 M 159.905,42.197 122.608,63.729 85.312,85.262 H 42.247 L 4.951,63.729 m 219.552,862.448 37.296,21.533 h 43.066 l 37.296,21.533 m -80.362,-64.599 -37.296,21.533 h -43.066 l -37.296,21.533 -21.533,37.296 m 497.935,-15.763 37.296,-21.533 h 43.066 l 37.296,-21.533 m -37.296,-21.533 37.296,21.533 h 43.066 l 37.296,21.533 h 43.065 l 37.296,21.533 m 58.829,-584.066 v -43.066 m 0,160.724 37.297,21.533 M 840.096,181.387 877.392,202.92 m -58.829,-58.829 v -43.065 m -37.296,21.532 37.296,-21.532 21.533,-37.297 V 20.664 M 979.286,144.091 941.99,122.558 920.457,85.262 V 42.197 L 898.924,4.901 m 21.533,37.296 37.296,21.532 m -154.954,-21.532 37.297,21.532 37.296,21.533 h 43.065 L 957.753,63.729 995.05,42.197 m -352.974,0 37.296,-21.533 37.296,21.533 21.533,37.296 v 43.065 M 979.286,101.026 957.753,63.729 V 20.664 M 20.714,122.558 42.247,85.262 V 42.197 L 63.779,4.901 m 58.829,219.552 v -43.066 m 139.191,-80.361 -37.296,21.532 -21.533,37.297 -37.296,21.532 H 122.608 L 85.312,159.855 H 42.247 L 4.951,181.387 m 80.361,21.533 37.296,-21.533 21.533,-37.296 37.296,-21.533 h 43.066 l 37.296,21.533 M 63.779,883.111 85.312,845.815 V 802.75 l 21.533,-37.297 37.296,-21.532 m 695.955,80.361 37.296,21.533 h 43.065 l 37.296,-21.533 21.533,-37.296 M 781.267,969.243 v -43.066 -43.066 l 21.532,-37.296 37.297,-21.533 37.296,-21.532 h 43.065 l 37.296,21.532 37.297,21.533 m -74.593,-160.723 37.296,21.532 m 21.533,-123.427 -37.296,21.533 -21.533,37.296 v 43.066 43.065 l 21.533,37.296 37.296,21.533 m -556.763,160.724 37.296,21.533 m 43.066,0 37.296,-21.533 m -37.296,-21.533 37.296,21.533 h 43.066 l 37.296,21.533 m -278.382,0 37.296,-21.533 h 43.066 l 37.296,-21.533 m 460.638,-562.533 37.296,-21.533 21.533,-37.296 m -21.533,241.086 v -43.066 l -21.532,-37.296 v -43.066 l 21.532,-37.296 37.297,-21.533 M 979.286,583.197 957.753,545.901 920.457,524.368 M 979.286,261.749 957.753,224.453 920.457,202.92 h -43.065 l -37.296,21.533 m -139.191,-123.427 37.296,21.532 21.533,37.297 37.296,21.532 h 43.066 l 37.296,-21.532 h 43.065 l 37.296,21.532 M 400.99,63.729 V 20.664 m -154.954,21.533 37.296,21.532 37.296,21.533 h 43.066 L 400.99,63.729 438.286,42.197 M 561.714,63.729 V 20.664 m -37.296,21.533 37.296,21.532 37.296,21.533 h 43.066 L 679.372,63.729 716.668,42.197 M 85.312,363.644 v -43.066 l 21.533,-37.296 37.296,-21.533 m 0,43.066 v -43.066 l 21.533,-37.296 V 181.387 L 144.141,144.091 V 101.026 L 122.608,63.729 85.312,42.197 63.779,4.901 m 80.362,782.085 37.296,-21.533 m -58.829,-58.829 v -43.065 m 717.488,43.065 37.296,-21.532 m -58.829,101.894 v -43.065 m -497.935,101.894 -37.296,21.533 -21.533,37.296 v 43.066 l 21.533,37.296 m 0,-117.658 v -43.066 m 139.191,80.362 37.296,21.533 h 43.066 l 37.296,-21.533 m 101.895,-58.829 37.296,21.533 21.533,37.296 v 43.066 l -21.533,37.296 m 0,-117.658 V 824.282 M 224.503,765.453 v 43.066 l 21.533,37.296 37.296,21.533 21.533,37.296 v 43.066 l -21.533,37.296 m 594.06,-621.362 v -43.066 l -21.533,-37.296 -37.296,-21.533 m 0,43.066 V 261.749 L 797.03,224.453 v -43.066 l 21.533,-37.296 37.296,-21.533 21.533,-37.296 V 42.197 L 898.924,4.901 m -58.828,337.21 37.296,21.533 21.532,37.296 37.297,21.533 h 43.065 M 502.885,122.558 540.181,101.026 m -117.658,0 37.296,21.532 M 122.608,385.177 v -43.066 m -37.296,182.257 37.296,21.533 M 63.779,400.94 l 21.533,-37.296 37.296,-21.533 21.533,-37.296 37.296,-21.533 M 283.332,224.453 V 181.387 M 261.799,786.986 224.503,765.453 202.97,728.157 165.674,706.624 H 122.608 L 85.312,728.157 H 42.247 L 4.951,706.624 M 144.141,626.263 106.845,604.73 85.312,567.434 V 524.368 L 63.779,487.072 m 80.362,96.125 v 43.066 l 21.533,37.296 v 43.065 l -21.533,37.297 v 43.065 l -21.533,37.296 -37.296,21.533 H 42.247 L 4.951,824.282 m 835.145,43.066 v -43.066 l -21.533,-37.296 -37.296,-21.533 m 58.829,-101.894 37.296,21.533 h 43.065 l 37.296,-21.533 21.533,-37.296 m -615.592,219.552 37.296,21.533 21.533,37.296 v 43.066 l -21.533,37.296 m 198.02,-139.191 -37.296,21.533 -21.533,37.296 v 43.066 l 21.533,37.296 M 738.201,765.453 v 43.066 l -21.533,37.296 -37.296,21.533 -21.533,37.296 v 43.066 l 21.533,37.296 m -594.06,-299.914 37.296,21.532 21.533,37.297 37.296,21.532 h 43.066 l 37.296,-21.532 m 578.297,-241.086 37.296,21.533 h 43.065 l 37.296,-21.533 21.533,-37.296 M 840.096,385.177 V 342.111 L 818.563,304.815 781.267,283.282 M 363.694,42.197 l 37.296,21.532 21.533,37.297 v 43.065 m 117.658,0 V 101.026 L 561.714,63.729 599.01,42.197 m 80.362,182.256 V 181.387 M 144.141,465.539 v -43.066 m 176.487,-219.553 -37.296,21.533 -21.533,37.296 -37.296,21.533 H 181.437 L 144.141,261.749 122.608,224.453 85.312,202.92 H 42.247 L 4.951,224.453 m 278.381,-43.066 37.296,-21.532 h 43.066 l 37.296,21.532 M 181.437,604.73 144.141,626.263 122.608,663.559 85.312,685.092 H 42.247 L 4.951,663.559 m 695.954,123.427 37.296,-21.533 21.533,-37.296 37.296,-21.533 h 43.066 l 37.296,21.533 h 43.065 l 37.296,-21.533 m -139.19,-80.361 37.296,-21.533 21.533,-37.296 v -43.066 m -58.829,58.829 v 43.066 l -21.533,37.296 v 43.065 l 21.533,37.297 37.296,21.532 21.533,37.297 v 43.065 l 21.532,37.296 37.297,21.533 h 43.065 M 400.99,867.348 v -43.066 m 58.829,144.961 V 926.177 883.111 L 438.286,845.815 400.99,824.282 363.694,802.75 h -43.066 l -37.296,21.532 -37.296,21.533 -21.533,37.296 v 43.066 43.066 M 561.714,867.348 v -43.066 m -58.829,144.961 v -43.066 -43.066 l 21.533,-37.296 37.296,-21.533 37.296,-21.532 h 43.066 l 37.296,21.532 37.296,21.533 21.533,37.296 v 43.066 43.066 m 241.085,-546.77 -21.533,-37.296 -37.296,-21.533 h -43.065 l -37.296,21.533 -21.533,37.296 v 43.066 l 21.533,37.296 v 43.066 m -139.191,-401.81 37.296,-21.533 h 43.066 l 37.296,21.533 21.533,37.296 v 43.066 l -21.533,37.296 -37.296,21.533 H 738.201 L 700.905,261.749 679.372,224.453 642.076,202.92 m 37.296,-21.533 21.533,-37.296 V 101.026 L 679.372,63.729 642.076,42.197 H 599.01 L 561.714,20.664 524.418,42.197 502.885,79.493 v 43.065 l -21.533,37.297 -37.296,21.532 H 400.99 l -37.296,21.533 m 198.02,-21.533 37.296,-21.532 h 43.066 l 37.296,21.532 m -396.04,0 -21.533,-37.296 v -43.065 l 21.533,-37.297 37.296,-21.532 h 43.066 l 37.296,-21.533 37.296,21.533 21.533,37.296 v 43.065 l 21.533,37.297 37.296,21.532 h 43.066 L 599.01,202.92 M 4.951,342.111 42.247,363.644 h 43.065 l 37.296,21.533 21.533,37.296 37.296,21.533 M 4.951,545.901 42.247,567.434 h 43.065 l 37.296,-21.533 37.297,-21.533 21.532,-37.296 V 444.006 400.94 L 159.905,363.644 122.608,342.111 85.312,320.578 H 42.247 L 4.951,342.111 m 219.552,-58.829 37.296,21.533 m 37.296,-21.533 21.533,-37.296 V 202.92 159.855 L 299.095,122.558 261.799,101.026 224.503,79.493 h -43.066 l -37.296,21.533 -37.296,21.532 -21.533,37.297 v 43.065 43.066 l 21.533,37.296 37.296,21.533 37.296,21.533 h 43.066 l 37.296,-21.533 z M 4.951,63.729 42.247,42.197 h 43.065 l 37.296,-21.533 37.297,21.533 21.532,37.296 v 43.065 l 21.533,37.297 37.296,21.532 h 43.066 l 37.296,21.533 h 43.066 l 37.296,21.533 m 380.277,380.277 37.296,-21.533 21.533,-37.296 37.296,-21.533 21.532,-37.296 37.297,-21.533 h 43.065 m -476.401,299.914 37.296,21.533 m -117.658,0 37.296,-21.533 M 283.332,706.624 v -43.065 m 497.935,-219.553 37.296,-21.533 m 176.487,101.895 -37.297,21.533 -37.296,21.533 H 877.392 L 840.096,545.901 802.799,524.368 781.267,487.072 V 444.006 400.94 l 21.532,-37.296 37.297,-21.533 37.296,-21.533 h 43.065 l 37.296,21.533 37.297,21.533 m -294.145,-58.829 37.296,-21.533 m -96.125,-37.296 21.533,37.296 37.296,21.533 37.296,21.533 h 43.066 l 37.296,-21.533 37.296,-21.533 21.533,-37.296 V 202.92 159.855 L 855.859,122.558 818.563,101.026 781.267,79.493 h -43.066 l -37.296,21.533 -37.296,21.532 -21.533,37.297 V 202.92 Z M 561.714,224.453 599.01,202.92 h 43.066 l 37.296,-21.533 h 43.066 l 37.296,-21.532 21.533,-37.297 V 79.493 l 21.532,-37.296 37.297,-21.533 37.296,21.533 h 43.065 l 37.296,-21.533 37.297,21.533 m -711.718,342.98 v -43.066 m -58.829,101.895 37.296,-21.533 m -37.296,182.257 37.296,21.533 21.533,37.296 37.296,21.533 m -58.829,-58.829 v -43.066 m 160.724,160.724 v 43.065 l -21.533,37.296 -37.296,21.533 h -43.066 l -37.296,-21.533 -21.533,-37.296 v -43.065 l 21.533,-37.297 m 256.849,37.297 v 43.065 l 21.533,37.296 37.296,21.533 h 43.066 l 37.296,-21.533 21.533,-37.296 v -43.065 m -21.533,-37.297 v -43.065 m -396.04,43.065 37.296,21.533 h 43.066 L 400.99,706.624 M 679.372,385.177 v -43.066 m 21.533,80.362 37.296,21.533 m -476.402,21.533 -37.296,-21.533 h -43.066 l -37.296,21.533 -21.533,37.296 -37.296,21.533 H 42.247 L 4.951,545.901 M 261.799,261.749 v 43.066 l 21.533,37.296 37.296,21.533 m 101.895,-101.895 37.296,21.533 m -176.487,219.553 -37.296,21.533 -21.533,37.296 v 43.066 l -21.533,37.296 -37.296,21.533 H 122.608 L 85.312,642.026 H 42.247 L 4.951,663.559 m 219.552,-101.895 37.296,21.533 37.296,21.533 21.533,37.296 v 43.066 43.065 l -21.533,37.296 -37.296,21.533 -37.296,21.533 H 181.437 L 144.141,786.986 106.845,765.453 85.312,728.157 v -43.065 -43.066 l 21.533,-37.296 37.296,-21.533 37.296,-21.533 z m 417.573,123.428 37.296,-21.533 21.533,-37.296 37.296,-21.533 h 43.066 l 37.296,21.533 21.533,37.296 v 43.065 l -21.533,37.297 -37.296,21.532 h -43.066 l -37.296,-21.532 -21.533,-37.297 m 21.533,-80.361 v -43.066 m -337.211,101.895 37.296,21.532 h 43.066 l 37.296,21.533 21.533,37.296 v 43.066 l 21.533,37.296 37.296,21.533 21.533,37.296 v 43.066 l -21.533,37.296 m 0,-278.382 37.296,21.533 h 43.066 l 37.296,-21.533 m -80.362,-21.532 -37.296,21.532 h -43.066 l -37.296,21.533 -21.533,37.296 v 43.066 l -21.533,37.296 -37.296,21.533 -21.533,37.296 v 43.066 l 21.533,37.296 m 0,-321.447 -37.296,21.533 h -43.066 l -37.296,21.532 h -43.066 l -37.296,21.533 -21.533,37.296 v 43.066 l -21.532,37.296 -37.297,21.533 -21.532,37.296 v 43.066 l 21.532,37.296 m 578.297,-519.467 37.296,-21.533 h 43.066 l 37.296,21.533 m -176.487,-101.895 37.296,-21.533 21.533,-37.296 v -43.066 m -278.382,43.066 37.296,-21.533 h 43.066 l 37.296,-21.533 21.533,-37.296 v -43.066 l -21.533,-37.296 -37.296,-21.533 h -43.066 l -37.296,21.533 -21.533,37.296 v 43.066 l 21.533,37.296 m 80.362,21.533 37.296,21.533 M 283.332,545.901 v -43.066 l 21.533,-37.296 V 422.473 L 283.332,385.177 246.036,363.644 224.503,326.348 V 283.282 L 202.97,245.986 165.674,224.453 H 122.608 L 85.312,245.986 H 42.247 L 4.951,224.453 m 358.743,139.191 v -43.066 l 21.533,-37.296 37.296,-21.533 m -21.533,80.362 -37.296,21.533 -21.533,37.296 -37.296,21.533 H 261.799 L 224.503,400.94 h -43.066 l -37.296,21.533 H 101.076 L 63.779,400.94 42.247,363.644 V 320.578 L 20.714,283.282 m 658.658,219.553 37.296,21.533 21.533,37.296 v 43.066 m 43.066,-43.066 h -43.066 l -37.296,21.533 -37.296,21.533 -21.533,37.296 v 43.066 43.065 l 21.533,37.296 37.296,21.533 37.296,21.533 h 43.066 l 37.296,-21.533 37.296,-21.533 21.533,-37.296 V 685.092 642.026 L 855.859,604.73 818.563,583.197 Z m -219.553,101.895 37.296,21.533 h 43.066 l 37.296,21.532 h 43.066 l 37.296,21.533 21.533,37.296 v 43.066 l 21.532,37.296 37.297,21.533 21.532,37.296 v 43.066 l -21.532,37.296 M 679.372,545.901 v -43.066 l -21.533,-37.296 v -43.066 l 21.533,-37.296 37.296,-21.533 21.533,-37.296 v -43.066 l 21.533,-37.296 37.296,-21.533 h 43.066 l 37.296,21.533 h 43.065 l 37.296,-21.533 v -43.066 l 21.533,-37.296 M 599.01,363.644 v -43.066 l -21.533,-37.296 -37.296,-21.533 m 21.533,80.362 37.296,21.533 21.533,37.296 37.296,21.533 h 43.066 l 37.296,-21.533 h 43.066 l 37.296,21.533 h 43.065 l 37.296,-21.533 21.533,-37.296 v -43.066 l 21.533,-37.296 37.296,-21.533 m -615.592,-15.763 21.533,37.296 37.296,21.533 37.296,21.533 h 43.066 l 37.296,-21.533 37.296,-21.533 21.533,-37.296 V 202.92 159.855 L 577.477,122.558 540.181,101.026 502.885,79.493 h -43.066 l -37.296,21.533 -37.296,21.532 -21.533,37.297 v 43.065 z m 37.296,139.191 v -43.066 l 21.533,-37.296 v -43.066 l 21.533,-37.296 V 181.387 L 422.523,144.091 385.227,122.558 363.694,85.262 V 42.197 L 342.161,4.901 M 20.714,604.73 42.247,567.434 v -43.066 l 21.532,-37.296 37.297,-21.533 h 43.065 l 37.296,21.533 h 43.066 l 37.296,-21.533 h 43.066 l 37.296,21.533 21.533,37.296 v 43.066 l 21.533,37.296 37.296,21.533 m 219.553,-101.895 37.296,21.533 21.533,37.296 37.296,21.533 21.533,37.296 37.296,21.533 h 43.066 l 37.296,-21.533 h 43.065 l 37.296,21.533 v 43.065 l 21.533,37.297 m -856.678,-241.086 37.297,21.533 21.532,37.296 v 43.066 l 21.533,37.296 37.296,21.533 h 43.066 l 37.296,-21.533 h 43.066 l 37.296,21.533 h 43.066 l 37.296,-21.533 M 422.523,626.263 459.819,604.73 M 561.714,385.177 v -43.066 l -21.533,-37.296 v -43.066 l -21.533,-37.296 v -43.066 l 21.533,-37.296 37.296,-21.533 21.533,-37.296 V 42.197 L 620.543,4.901 M 363.694,524.368 400.99,502.835 m 139.191,123.428 37.296,-21.533 21.533,-37.296 v -43.066 m -176.487,58.829 37.296,21.533 h 43.066 l 37.296,21.533 21.533,37.296 v 43.065 l -21.533,37.297 -37.296,21.532 H 459.819 L 422.523,743.921 400.99,706.624 v -43.065 l 21.533,-37.296 m 80.362,-21.533 37.296,-21.533 M 422.523,422.473 459.819,400.94 h 43.066 l 37.296,21.533 M 400.99,545.901 v -43.066 l 21.533,-37.296 V 422.473 L 400.99,385.177 363.694,363.644 h -43.066 l -37.296,21.533 -21.533,37.296 v 43.066 l 21.533,37.296 37.296,21.533 m 101.895,-58.829 37.296,-21.533 m -21.533,80.362 21.533,37.296 v 43.066 l 21.533,37.296 37.296,21.533 h 43.066 l 37.296,-21.533 h 43.066 l 37.296,21.533 h 43.066 l 37.296,-21.533 21.533,-37.296 v -43.066 l 21.532,-37.296 37.297,-21.533 21.532,-37.296 v -43.066 l -21.532,-37.296 -37.297,-21.533 -21.532,-37.296 v -43.066 l -21.533,-37.296 -37.296,-21.533 h -43.066 l -37.296,21.533 H 599.01 l -37.296,-21.533 h -43.066 l -37.296,21.533 -21.533,37.296 v 43.066 l -21.533,37.296 -37.296,21.533 -21.533,37.296 v 43.066 l 21.533,37.296 z m 123.428,-21.533 37.296,21.533 m -37.296,21.533 37.296,-21.533 21.533,-37.296 37.296,-21.533 h 43.066 l 37.296,21.533 h 43.066 l 37.296,-21.533 h 43.065 l 37.296,21.533 21.533,37.296 v 43.066 l 21.533,37.296 37.296,21.533 M 502.885,561.664 h -43.066 l -37.296,21.533 -37.296,21.533 -21.533,37.296 v 43.066 43.065 l 21.533,37.296 37.296,21.533 37.296,21.533 h 43.066 l 37.296,-21.533 37.296,-21.533 21.533,-37.296 V 685.092 642.026 L 577.477,604.73 540.181,583.197 Z m 96.125,-37.296 h 43.066 l 37.296,-21.533 21.533,-37.296 V 422.473 L 679.372,385.177 642.076,363.644 H 599.01 l -37.296,21.533 -21.533,37.296 v 43.066 l 21.533,37.296 v 43.066 l -21.533,37.296 v 43.066 l -21.533,37.296 v 43.065 l 21.533,37.297 37.296,21.532 21.533,37.297 v 43.065 l 21.533,37.296 37.296,21.533 h 43.066 l 37.296,-21.533 h 43.066 l 37.296,21.533 h 43.065 l 37.296,-21.533 21.533,-37.296 V 802.75 l 21.533,-37.297 37.296,-21.532 M 502.885,444.006 540.181,465.539 M 620.543,4.901 642.076,42.197 v 43.065 l 21.533,37.296 37.296,21.533 21.533,37.296 v 43.066 l -21.533,37.296 -37.296,21.533 -21.533,37.296 v 43.066 l -21.533,37.296 -37.296,21.533 h -43.066 l -37.296,21.533 H 459.819 L 422.523,422.473 H 379.457 L 342.161,400.94 320.628,363.644 v -43.066 l -21.533,-37.296 -37.296,-21.533 -21.533,-37.296 v -43.066 l 21.533,-37.296 37.296,-21.533 21.533,-37.296 V 42.197 L 342.161,4.901 m 117.658,482.171 -21.533,37.296 -37.296,21.533 -37.296,21.533 H 320.628 L 283.332,545.901 246.036,524.368 224.503,487.072 V 444.006 400.94 l 21.533,-37.296 37.296,-21.533 37.296,-21.533 h 43.066 l 37.296,21.533 37.296,21.533 21.533,37.296 v 43.066 z m 21.533,154.954 21.533,-37.296 v -43.066 l 21.533,-37.296 37.296,-21.533 21.533,-37.296 V 422.473 L 561.714,385.177 524.418,363.644 502.885,326.348 V 283.282 L 481.352,245.986 444.056,224.453 H 400.99 l -37.296,21.533 h -43.066 l -37.296,-21.533 h -43.066 l -37.296,21.533 -21.533,37.296 v 43.066 l -21.532,37.296 -37.297,21.533 -21.532,37.296 v 43.066 l 21.532,37.296 v 43.066 l 21.533,37.296 37.296,21.533 h 43.066 l 37.296,-21.533 21.533,-37.296 37.296,-21.533 h 43.066 l 37.296,21.533 21.533,37.296 v 43.066 l 21.533,37.296 v 43.065 l -21.533,37.297 -37.296,21.532 -21.533,37.297 v 43.065 l -21.533,37.296 -37.296,21.533 h -43.066 l -37.296,-21.533 h -43.066 l -37.296,21.533 H 101.076 L 63.779,883.111 42.247,845.815 V 802.75 L 20.714,765.453 M 502.885,487.072 h -43.066 l -37.296,-21.533 h -43.066 l -37.296,21.533 -21.533,37.296 v 43.066 l -21.533,37.296 -37.296,21.533 -21.533,37.296 v 43.065 l 21.533,37.297 37.296,21.532 21.533,37.297 v 43.065 l 21.533,37.296 37.296,21.533 h 43.066 l 37.296,-21.533 h 43.066 l 37.296,21.533 h 43.066 l 37.296,-21.533 21.533,-37.296 V 802.75 l 21.533,-37.297 37.296,-21.532 21.533,-37.297 V 663.559 L 700.905,626.263 663.609,604.73 642.076,567.434 v -43.066 l -21.533,-37.296 -37.296,-21.533 h -43.066 z m 0,0 21.533,37.296 37.296,21.533 37.296,21.533 h 43.066 l 37.296,-21.533 37.296,-21.533 21.533,-37.296 V 444.006 400.94 L 716.668,363.644 679.372,342.111 642.076,320.578 H 599.01 l -37.296,21.533 -37.296,21.533 -21.533,37.296 v 43.066 z"
     style="opacity:1;fill-opacity:0;stroke:#000000;stroke-width:15;stroke-opacity:1;stop-opacity:1;stroke-miterlimit:4;stroke-dasharray:none"
     id="path7451" />
</svg>
