<?xml version="1.0" encoding="UTF-8" standalone="no"?>
<svg
   xmlns:dc="http://purl.org/dc/elements/1.1/"
   xmlns:cc="http://creativecommons.org/ns#"
   xmlns:rdf="http://www.w3.org/1999/02/22-rdf-syntax-ns#"
   xmlns:svg="http://www.w3.org/2000/svg"
   xmlns="http://www.w3.org/2000/svg"
   xmlns:sodipodi="http://sodipodi.sourceforge.net/DTD/sodipodi-0.dtd"
   xmlns:inkscape="http://www.inkscape.org/namespaces/inkscape"
   inkscape:version="1.0beta1 (32d4812, 2019-09-19)"
   sodipodi:docname="4-uniform_144.svg"
   id="c:\kuniform\4u\4-uniform_144.svg"
   height="994.33765"
   width="1000.0"
   version="1.0">
  <style
     id="style2972"></style>
  <metadata
     id="metadata2970">
    <rdf:RDF>
      <cc:Work
         rdf:about="">
        <dc:format>image/svg+xml</dc:format>
        <dc:type
           rdf:resource="http://purl.org/dc/dcmitype/StillImage" />
        <dc:title></dc:title>
      </cc:Work>
    </rdf:RDF>
  </metadata>
  <defs
     id="defs2968" />
  <sodipodi:namedview
     inkscape:current-layer="c:\kuniform\4u\4-uniform_144.svg"
     inkscape:window-maximized="0"
     inkscape:window-y="23"
     inkscape:window-x="0"
     inkscape:cy="466.19839"
     inkscape:cx="544.46012"
     inkscape:zoom="0.68043246"
     showgrid="false"
     id="namedview2966"
     inkscape:window-height="907"
     inkscape:window-width="1600"
     inkscape:pageshadow="2"
     inkscape:pageopacity="0"
     guidetolerance="10"
     gridtolerance="10"
     objecttolerance="10"
     borderopacity="1"
     inkscape:document-rotation="0"
     bordercolor="#666666"
     pagecolor="#ffffff" />
  <!-- X Coordinate transform: fx(x)=(x+97.42139)*0.8369302-->
  <!-- Y Coordinate transform: fy(y)=(1090.6892-y)*0.8369302 -->
  <path
     d="m 937.886,879.193 20.923,-36.241 M 41.191,187.625 62.114,151.385 m 78.087,-62.769 20.923,-36.241 m 723.703,4.105 36.24,20.923 M 161.124,52.375 197.364,31.452 M 73.327,817.925 37.086,797.002 M 848.587,77.403 884.827,56.48 921.067,35.556 m -36.24,62.77 V 56.48 L 863.904,20.239 m 41.846,114.327 36.24,20.923 m 20.924,36.241 -20.924,-36.241 m -45.95,723.704 20.923,-36.241 m -57.164,57.164 36.241,20.923 M 94.25,896.012 58.01,875.088 37.086,838.848 m 4.105,-609.376 v -41.847 l -20.924,-36.24 m 83.693,0 H 62.114 20.267 M 193.26,911.329 v 41.846 l -20.923,36.24 M 58.01,916.935 94.25,896.012 130.49,875.088 h 41.847 m -62.77,-78.086 -36.24,20.923 -36.241,20.923 M 806.74,77.403 l 20.924,-36.24 36.24,-20.924 m 5.606,135.25 36.24,-20.923 36.24,-20.923 20.924,-36.24 m -36.241,135.25 36.241,20.923 m -45.951,567.53 20.923,-36.24 m -99.01,99.01 20.923,36.24 v 41.846 l -20.923,36.24 m -57.163,-57.163 36.24,20.923 m -702.78,-9.71 v 41.846 M 94.25,854.165 v 41.847 l 20.923,36.24 36.24,20.923 M 665.884,62.086 V 20.239 m -603.77,245.473 20.923,-36.24 m 99.01,-140.856 36.24,20.923 m 0,-41.847 36.24,20.924 M 103.96,109.539 140.201,88.616 h 41.846 l 36.24,-20.924 36.24,-20.923 h 41.847 l 36.24,-20.923 m -270.5,281.713 -36.24,-20.924 m 245.472,645.617 -20.923,36.24 m 62.77,-36.24 -20.923,36.24 M 83.037,31.452 l 36.24,20.923 20.924,36.241 v 41.846 l 20.923,36.24 M 140.201,130.462 103.96,109.539 H 62.114 20.267 m 152.07,723.703 v 41.846 l 20.923,36.241 36.24,20.923 m -78.087,-20.923 20.924,-36.241 36.24,-20.923 m -57.164,-57.163 h -41.846 l -36.24,-20.924 m 15.316,-57.163 -36.24,20.923 -36.24,-20.923 m 36.24,-20.923 v 41.846 l 20.924,36.24 v 41.847 l 20.923,36.24 36.24,20.923 m 807.396,-152.069 36.24,20.924 M 749.577,20.239 l 36.24,20.924 20.923,36.24 v 41.846 M 62.114,109.539 41.191,73.299 m 786.473,82.19 20.923,-36.24 m 41.846,114.327 36.24,-20.923 36.241,-20.923 m -87.798,609.376 h 41.847 41.846 l 36.241,20.923 m -156.174,0 36.24,20.923 m -150.567,62.77 20.924,36.24 36.24,20.924 36.24,-20.924 h 41.846 l 36.241,-20.923 h 41.846 M 686.807,98.326 707.73,62.086 h 41.847 m -198.02,0 36.24,20.923 m -483.837,182.703 20.924,-36.24 m 0,-41.847 36.24,20.924 M 275.451,124.856 254.527,88.616 V 46.769 l 20.924,-36.24 m 20.923,36.24 36.24,20.923 M 83.037,343.799 103.96,307.559 m -20.923,78.086 -36.24,-20.923 -20.923,-36.24 m 20.923,192.413 20.923,-36.24 m -9.71,432.28 -20.924,36.24 m 276.107,-62.77 v 41.847 l 20.923,36.24 m 0,0 36.24,-20.923 20.924,-36.24 m 57.163,15.316 36.24,20.924 M 229.5,890.405 l 20.923,-36.24 m -99.01,-99.01 36.24,20.923 m -78.086,-20.923 20.923,-36.24 M 67.72,640.828 31.48,619.905 m 864.56,103.114 20.923,-36.24 m 57.163,15.317 -20.923,-36.24 -36.24,-20.923 M 770.5,98.326 l 36.24,20.923 20.924,36.24 v 41.847 m 146.462,348.587 -20.923,-36.24 M 848.587,233.576 869.51,197.336 m 41.847,114.327 36.24,-20.924 36.24,20.924 m -165.884,588.453 20.923,-36.24 v -41.847 l -20.923,-36.24 m -20.923,36.24 h 41.846 l 36.24,-20.923 20.924,-36.24 M 760.79,884.799 v -41.847 m -36.241,20.924 36.241,20.923 20.923,36.24 v 41.847 m -135.25,-36.241 -20.923,36.241 m 4.104,-921.723 36.24,20.923 20.923,36.24 v 41.847 M 608.72,119.249 587.797,83.009 V 41.163 L 608.72,4.922 m -93.403,78.087 36.24,-20.923 36.24,-20.923 h 41.847 l 36.24,-20.924 m -192.414,62.77 20.924,-36.24 36.24,-20.923 M 20.267,109.539 41.191,73.299 h 41.846 m 99.01,171.49 -20.923,-36.24 v -41.847 l 20.923,-36.24 m 20.923,78.087 h -41.846 l -36.24,20.923 H 83.037 41.191 m 161.779,-62.77 36.24,20.923 m 0,-41.846 36.241,20.923 m 78.086,-62.77 20.923,-36.24 h 41.847 m -390.433,416.963 20.923,36.24 v 41.847 l 20.923,36.24 v 41.846 l 20.923,36.241 v 41.846 l 20.924,36.24 v 41.847 l 20.923,36.24 v 41.846 l 20.923,36.241 v 41.846 l 20.924,36.24 M 145.807,307.559 H 103.96 62.114 l -36.24,20.923 m 78.086,93.403 -20.923,-36.24 V 343.799 L 62.114,307.559 V 265.712 L 41.191,229.472 4.95,208.549 m 99.01,255.183 -36.24,-20.923 m 0,156.173 20.923,-36.24 m 182.703,327.663 20.924,-36.24 m 99.01,15.317 36.24,20.923 m 99.01,15.317 v 41.847 l -20.924,36.24 m 99.01,-57.164 -20.923,36.241 M 208.577,812.319 229.5,776.078 m -99.01,-99.009 36.24,20.923 m -78.087,-20.923 20.924,-36.241 m 744.626,82.191 h 41.847 41.846 l 36.24,-20.923 m -99.01,-15.317 20.924,36.24 v 41.847 l 20.923,36.24 v 41.846 l 20.923,36.241 v 41.846 l -20.923,36.24 M 749.577,176.413 770.5,140.173 m 104.616,504.76 20.924,-36.241 m 83.693,270.501 -20.924,-36.241 v -41.846 l -20.923,-36.24 v -41.847 l -20.923,-36.24 V 644.933 L 896.04,608.692 v -41.846 m -104.617,-390.433 36.241,20.923 20.923,36.24 v 41.847 m 20.923,36.24 20.923,-36.24 m 41.847,270.5 20.923,-36.24 v -41.847 l -20.923,-36.24 m 0,-41.847 36.24,20.924 M 728.654,98.326 l 20.923,-36.24 36.24,-20.923 h 41.847 l 20.923,36.24 v 41.846 l 20.923,36.24 v 41.847 l 20.923,36.24 v 41.847 l 20.924,36.24 v 41.846 l 20.923,36.24 v 41.847 l -20.923,36.24 m -93.404,276.107 36.24,20.923 m -186.807,198.02 36.24,-20.924 20.923,-36.24 v -41.846 l -20.923,-36.241 m -57.163,57.164 36.24,20.923 m 25.027,-729.309 20.924,-36.24 m -156.174,0 36.24,20.923 m -192.413,-135.25 36.24,20.923 20.923,36.24 v 41.847 m -36.24,-20.924 36.24,-20.923 h 41.847 l 36.24,20.923 m -405.75,161.78 36.24,20.923 m 114.327,-83.693 -20.923,-36.24 v -41.846 l 20.923,-36.24 m 20.923,36.24 36.24,20.923 M 166.73,385.645 H 124.884 83.037 l -36.24,20.923 m 99.01,15.317 -20.923,-36.24 m 0,114.327 20.923,-36.24 m -57.164,57.163 36.241,20.924 m 167.386,270.5 v 41.846 l 20.923,36.24 36.24,20.924 m 0,-41.847 20.923,-36.24 m 57.164,15.317 v 41.846 l 20.923,36.24 v 41.847 m 36.24,-62.77 20.923,-36.24 m -255.183,-57.163 20.923,-36.241 m -83.693,-41.846 20.924,-36.24 m -99.01,-99.01 36.24,20.923 m 687.463,25.028 h 41.846 41.847 l 36.24,-20.924 20.923,-36.24 m -119.933,-20.923 20.923,-36.24 M 770.5,254.499 l 20.923,-36.24 m 83.693,270.5 36.241,20.924 m -99.01,-255.184 36.24,20.924 20.923,36.24 v 41.846 m 20.923,36.24 20.924,-36.24 m -78.087,-20.923 36.24,20.923 20.923,36.24 v 41.847 m -478.23,515.973 36.24,-20.924 36.24,-20.923 h 41.847 l 36.24,-20.923 h 41.846 41.847 l 36.24,-20.923 h 41.846 l 36.241,-20.924 36.24,-20.923 20.923,-36.24 V 743.943 L 797.03,707.702 m -20.924,36.241 h 41.847 l 36.24,-20.924 20.923,-36.24 v -41.846 l -20.923,-36.241 m -114.327,156.174 36.24,20.923 m -72.48,0 36.24,20.923 m -135.25,78.087 20.924,-36.24 m 25.027,-729.31 36.24,20.924 20.923,36.24 v 41.846 m -78.086,-20.923 20.923,-36.24 M 905.75,176.413 V 134.566 L 884.827,98.326 848.587,77.403 H 806.74 L 770.5,98.326 h -41.846 -41.847 l -36.24,20.923 H 608.72 l -36.24,20.924 -36.24,20.923 m -41.846,0 20.923,-36.24 M 202.97,322.875 182.047,286.635 v -41.846 l 20.923,-36.24 36.24,-20.924 36.241,-20.923 h 41.846 m -192.413,177.097 20.923,-36.24 36.24,-20.924 h 41.847 m 0,-41.846 36.24,20.923 m 0,-41.846 36.24,20.923 m 78.086,-62.77 20.924,-36.24 m -228.654,198.02 36.24,20.923 m -15.317,99.01 H 145.807 103.96 L 67.72,484.655 H 25.874 m 119.933,93.404 20.923,-36.24 m 203.626,249.576 36.24,20.924 m 99.01,15.316 v 41.847 l 20.924,36.24 36.24,20.923 m 0,-41.846 20.923,-36.24 M 271.346,734.232 v 41.846 l 20.924,36.241 36.24,20.923 m -99.01,-99.01 20.923,-36.24 m -83.693,-41.847 20.923,-36.24 m 609.377,45.951 36.24,20.923 m -104.616,-432.28 20.923,-36.24 m 62.77,348.587 h 41.846 41.847 l 36.24,-20.923 h 41.846 m -140.856,-57.164 20.923,-36.24 m -62.77,-119.933 20.924,-36.24 M 932.28,587.769 v -41.846 l -20.923,-36.24 v -41.847 l -20.924,-36.24 -36.24,-20.923 m -171.49,453.203 20.923,-36.241 v -41.846 l -20.923,-36.24 m -57.163,57.163 36.24,20.923 m -68.376,-609.376 36.24,20.923 m -135.25,-36.24 v -41.846 l -20.924,-36.24 -36.24,-20.924 h -41.846 -41.847 l -36.24,20.924 h -41.846 l -36.241,20.923 -36.24,20.923 h -41.846 l -36.24,20.923 H 83.037 41.191 L 4.95,208.549 m 453.204,-26.53 36.24,-20.923 h 41.846 l 36.24,20.923 m -156.173,0 20.923,-36.24 m -119.933,135.25 -20.923,-36.24 v -41.847 l 20.923,-36.24 36.24,-20.923 h 41.847 41.846 l 36.24,-20.923 h 41.847 l 36.24,-20.924 36.24,-20.923 h 41.847 M 338.22,202.942 374.46,223.866 M 223.894,400.962 202.97,364.722 v -41.847 l 20.924,-36.24 36.24,-20.923 36.24,-20.923 h 41.846 m -150.567,177.096 36.241,20.924 m -36.241,135.25 20.924,-36.24 m 119.933,249.576 20.923,-36.24 M 46.797,406.568 67.72,442.809 v 41.846 l 20.923,36.24 v 41.847 l 20.924,36.24 v 41.846 l 20.923,36.241 v 41.846 l 20.923,36.24 v 41.847 l 20.924,36.24 36.24,20.923 h 41.846 41.847 l 36.24,-20.923 h 41.846 l 36.24,-20.923 36.241,-20.924 m 20.923,36.24 20.923,-36.24 m -177.096,-36.24 -36.241,-20.923 -20.923,-36.24 v -41.847 m -41.846,0 20.923,-36.24 m 432.28,165.884 h 41.846 l 36.24,-20.923 36.24,-20.923 20.924,-36.241 v -41.846 l -20.924,-36.24 m -47.452,-333.27 v -41.847 l -20.924,-36.24 -36.24,-20.923 m 104.616,390.433 36.241,20.923 m -62.77,-276.106 20.923,-36.24 m 20.923,192.413 h 41.847 41.846 l 36.241,-20.923 h 41.846 l 36.24,20.923 M 812.347,410.673 833.27,374.432 m -114.327,312.347 36.24,20.923 m -72.48,0 36.24,20.924 m -135.25,78.086 20.923,-36.24 m 45.951,-495.049 20.923,-36.241 m -114.327,0 36.241,-20.923 36.24,-20.923 h 41.846 l 36.24,-20.923 h 41.847 41.846 l 36.241,-20.924 h 41.846 l 36.24,20.924 20.923,36.24 v 41.846 m -411.356,-15.317 20.923,-36.24 m -291.423,119.933 36.24,20.924 m 0,-41.847 36.24,20.923 m 78.087,-62.769 20.923,-36.24 M 286.663,677.069 250.423,656.145 229.5,619.905 v -41.846 l -20.923,-36.24 v -41.847 l -20.924,-36.24 v -41.847 l -20.923,-36.24 v -41.846 l -20.923,-36.24 v -41.847 l -20.923,-36.24 V 187.625 L 103.96,151.385 V 109.539 L 83.037,73.299 V 31.452 m 161.78,447.597 -20.923,-36.24 v -41.847 l 20.923,-36.24 m -36.24,135.25 36.24,20.923 m 104.616,192.414 36.24,20.923 m 99.01,15.317 v 41.846 l 20.923,36.24 36.24,20.924 m -135.25,-78.087 36.241,20.923 h 41.846 l 36.24,-20.923 m 20.923,36.24 20.924,-36.24 m -255.183,-57.163 20.923,-36.24 m -99.01,-99.01 36.24,20.923 m 489.443,66.874 20.923,-36.24 v -41.847 l -20.923,-36.24 m 0,-41.846 36.24,20.923 m -99.01,-255.183 36.241,20.923 20.923,36.24 v 41.846 m 20.923,36.241 20.923,-36.241 m -78.086,-20.923 36.24,20.923 20.923,36.241 v 41.846 l 20.923,36.24 v 41.847 l 20.924,36.24 v 41.846 l 20.923,36.241 v 41.846 l 20.923,36.24 v 41.847 l 20.923,36.24 v 41.846 l 20.924,36.241 v 41.846 l 20.923,36.24 M 661.78,671.462 l 20.923,36.24 v 41.847 l -20.923,36.24 -36.24,20.923 h -41.847 -41.847 l -36.24,20.923 H 463.76 l -36.24,20.924 -36.24,20.923 h -41.847 l -36.24,20.923 H 271.346 229.5 l -36.24,20.924 h -41.847 l -36.24,20.923 -36.24,20.923 H 37.086 m 603.77,-245.473 h 41.847 l 36.24,-20.923 36.24,-20.923 h 41.847 l 36.24,-20.923 20.923,-36.241 v -41.846 l -20.923,-36.24 m -228.654,198.02 36.24,20.923 m -26.529,-453.203 36.24,20.923 m -135.25,-36.24 v -41.847 l -20.923,-36.24 -36.24,-20.923 H 416.307 374.46 l -36.24,20.923 h -41.846 l -36.24,20.924 -36.24,20.923 h -41.847 l -36.24,20.923 H 103.96 62.114 l -36.24,20.923 m 453.203,-26.529 36.24,-20.924 h 41.846 l 36.241,20.924 m -156.174,0 20.924,-36.24 M 338.22,359.116 317.297,322.875 v -41.846 l 20.923,-36.24 36.24,-20.923 h 41.847 41.847 l 36.24,-20.924 h 41.846 l 36.24,-20.923 36.24,-20.923 h 41.847 l 36.24,-20.923 h 41.847 41.846 l 36.24,-20.924 h 41.847 l 36.24,-20.923 36.24,-20.923 h 41.847 M 166.73,499.972 145.807,463.732 v -41.847 l 20.923,-36.24 36.24,-20.923 h 41.847 l 36.24,-20.923 36.24,-20.924 h 41.847 m 0,-41.846 36.24,20.923 M 265.74,557.135 244.817,520.895 v -41.846 l 20.923,-36.24 m 0,-41.847 36.24,20.923 m -15.317,213.337 -20.923,-36.24 v -41.847 l 20.923,-36.24 m -156.173,312.347 20.923,-36.24 36.24,-20.924 h 41.847 41.846 l 36.241,-20.923 h 41.846 l 36.24,-20.923 36.24,-20.923 m 20.924,36.24 20.923,-36.24 m -135.25,-78.087 36.24,20.923 m -57.163,-57.163 -20.924,36.24 v 41.847 l 20.924,36.24 v 41.846 l 20.923,36.24 v 41.847 l 20.923,36.24 v 41.847 l 20.923,36.24 h 41.847 m 285.817,-338.877 36.24,20.924 m -62.77,-276.107 20.923,-36.24 m 41.847,270.5 20.923,-36.24 V 509.683 L 734.26,473.442 m 0,-41.846 36.24,20.923 m -57.163,57.164 20.923,-36.241 v -41.846 l -20.923,-36.24 m -51.557,234.26 36.24,20.923 m -135.25,78.087 20.923,-36.241 m -5.606,-375.116 36.24,-20.923 36.24,-20.923 h 41.846 l 36.241,-20.924 h 41.846 41.847 l 36.24,-20.923 h 41.846 l 36.24,20.923 20.924,36.24 v 41.847 m -411.357,-15.317 20.923,-36.24 m -255.183,99.01 36.24,20.923 m 78.087,-62.77 20.923,-36.24 M 307.587,557.135 v 41.847 l 20.923,36.24 v 41.847 l 20.923,36.24 v 41.846 l 20.923,36.24 v 41.847 l 20.924,36.24 v 41.847 l 20.923,36.24 36.24,20.923 36.24,-20.923 h 41.847 l 36.24,-20.924 h 41.846 41.847 l 36.24,-20.923 h 41.846 l 36.241,-20.923 36.24,-20.923 h 41.846 l 36.24,-20.924 h 41.847 41.846 l 36.241,-20.923 m -708.387,-342.98 36.24,20.923 m 140.857,171.49 v 41.847 l 20.923,36.24 36.24,20.923 h 41.847 41.846 l 36.24,-20.923 h 41.847 l 36.24,-20.923 36.24,-20.924 h 41.847 l 36.24,-20.923 h 41.846 41.847 l 36.24,-20.923 v -41.847 l -20.923,-36.24 -36.24,-20.923 -20.924,-36.24 v -41.847 l -20.923,-36.24 V 410.673 L 833.27,374.432 v -41.846 l -20.923,-36.24 v -41.847 l -20.924,-36.24 V 176.413 L 770.5,140.173 V 98.326 L 749.577,62.086 V 20.239 m -363.904,672.146 36.24,20.924 H 463.76 L 500,692.385 m 20.923,36.241 20.923,-36.241 m -140.856,-57.163 -36.24,20.923 -36.24,20.924 h -41.847 l -36.24,20.923 H 208.577 166.73 l -36.24,20.923 H 88.643 L 52.403,697.992 31.48,661.752 m 432.28,207.73 -36.24,-20.923 -20.924,-36.24 v -41.847 l -20.923,-36.24 V 692.385 L 364.75,656.145 V 614.299 M 83.037,187.625 62.114,151.385 v -41.846 l 20.923,-36.24 36.24,-20.924 h 41.847 l 20.923,36.241 v 41.846 l 20.923,36.24 v 41.847 l 20.924,36.24 v 41.846 l 20.923,36.24 v 41.847 l 20.923,36.24 v 41.847 l 20.923,36.24 v 41.846 l 20.924,36.24 36.24,20.924 m 291.423,-203.627 36.24,20.924 m 5.607,135.25 36.24,20.923 m -20.924,-119.933 20.924,-36.24 v -41.847 l -20.924,-36.24 V 275.423 L 671.49,239.182 v -41.846 l -20.923,-36.24 V 119.249 L 629.644,83.009 V 41.163 L 608.72,4.922 m 32.136,588.454 20.924,36.24 v 41.846 l -20.924,36.24 -36.24,20.924 H 562.77 520.923 l -36.24,20.923 h -41.846 l -36.241,20.923 -36.24,20.923 H 328.51 l -36.24,20.924 h -41.847 -41.846 l -36.24,20.923 H 130.49 l -36.24,20.923 -36.24,20.923 v 41.847 l 20.923,36.24 36.24,20.923 36.24,-20.923 h 41.847 l 36.24,-20.923 h 41.846 41.847 l 36.24,-20.923 h 41.847 l 36.24,-20.924 36.24,-20.923 h 41.846 l 36.24,-20.923 h 41.847 41.847 l 36.24,-20.924 h 41.846 l 36.24,-20.923 36.24,-20.923 h 41.847 l 36.24,-20.923 h 41.847 41.846 l 36.24,-20.923 M 619.933,629.616 h 41.847 l 36.24,-20.924 36.24,-20.923 h 41.846 l 36.241,-20.923 20.923,-36.24 v -41.847 l -20.923,-36.24 m -228.654,198.02 36.24,20.923 M 536.24,359.116 v -41.847 l -20.923,-36.24 -36.24,-20.923 H 437.23 395.384 l -36.24,20.923 h -41.847 l -36.24,20.923 -36.24,20.923 H 202.97 l -36.24,20.924 H 124.884 83.037 l -36.24,20.923 v 41.846 L 25.874,442.809 M 500,338.192 536.24,317.269 h 41.847 l 36.24,20.923 m -156.173,0 20.923,-36.24 m -119.933,135.25 -20.924,-36.24 v -41.846 l 20.924,-36.241 36.24,-20.923 h 41.846 41.847 l 36.24,-20.923 h 41.846 l 36.241,-20.923 36.24,-20.924 h 41.846 l 36.24,-20.923 h 41.847 41.846 l 36.241,-20.923 h 41.846 l 36.24,-20.923 36.24,-20.924 V 113.643 L 921.067,77.403 V 35.556 m -541,365.406 H 338.22 l -36.24,20.923 -36.24,20.924 h -41.846 l -36.241,20.923 -20.923,36.24 v 41.847 l 20.923,36.24 v 41.846 l 20.924,36.24 v 41.847 l 20.923,36.24 v 41.846 l 20.923,36.241 v 41.846 l 20.923,36.24 v 41.847 l 20.924,36.24 m 87.797,-609.376 36.24,20.923 m -93.404,78.087 36.241,20.923 m 62.769,192.413 20.924,-36.24 m -99.01,-99.01 36.24,20.923 m 260.789,-5.606 36.241,20.923 m -78.087,-177.096 36.24,-20.924 36.24,-20.923 h 41.847 l 36.24,-20.923 h 41.846 41.847 l 36.24,-20.923 h 41.847 l 36.24,20.923 20.923,36.24 m -333.27,47.453 v -41.847 l -20.923,-36.24 v -41.846 l -20.923,-36.24 V 218.259 L 572.48,182.019 V 140.173 L 551.557,103.932 V 62.086 l -20.923,-36.24 m 125.539,426.673 36.24,20.923 20.924,36.241 v 41.846 l 20.923,36.24 v 41.847 l 20.923,36.24 v 41.846 l 20.923,36.241 v 41.846 l 20.924,36.24 v 41.847 M 541.846,650.539 562.77,614.299 m -5.607,-218.943 20.924,-36.24 m -140.857,57.163 20.924,-36.24 m 47.452,603.77 -20.923,-36.24 v -41.847 l -20.923,-36.24 v -41.847 l -20.923,-36.24 v -41.846 l -20.924,-36.24 v -41.847 l -20.923,-36.24 v -41.846 l -20.923,-36.241 v -41.846 l -20.923,-36.24 v -41.847 l 20.923,-36.24 36.24,-20.923 H 458.154 500 l 36.24,-20.923 h 41.847 l 36.24,-20.924 36.24,-20.923 h 41.846 l 36.241,-20.923 h 41.846 41.847 l 36.24,-20.923 h 41.846 l 36.24,-20.924 36.241,-20.923 m -582.847,281.713 20.923,-36.24 m 573.136,108.72 H 932.28 l -36.24,20.923 h -41.847 -41.846 l -36.241,20.924 H 734.26 l -36.24,20.923 -36.24,20.923 h -41.847 l -36.24,20.923 H 541.846 500 l -36.24,-20.923 -20.923,-36.24 V 593.376 M 197.364,31.452 l 20.923,36.24 v 41.847 l 20.923,36.24 v 41.846 l 20.924,36.241 v 41.846 l 20.923,36.24 v 41.847 l 20.923,36.24 v 41.846 l 20.923,36.241 v 41.846 l 20.924,36.24 v 41.847 l 20.923,36.24 36.24,20.923 h 41.847 l 36.24,-20.923 m 20.923,36.24 20.923,-36.24 M 400.99,593.376 421.913,557.135 m -384.827,239.867 36.241,-20.924 36.24,-20.923 h 41.846 l 36.24,-20.923 h 41.847 41.846 l 36.241,-20.923 h 41.846 l 36.24,-20.924 36.24,-20.923 H 463.76 L 500,650.539 h 41.846 41.847 l 36.24,-20.923 20.923,-36.24 v -41.847 l -20.923,-36.24 m 0,-41.847 36.24,20.924 m -57.163,57.163 20.923,-36.24 v -41.847 l -20.923,-36.24 v -41.846 l -20.923,-36.24 v -41.847 l -20.924,-36.24 v -41.847 l -20.923,-36.24 v -41.846 l -20.923,-36.24 V 83.009 l -20.923,-36.24 h -41.847 l -36.24,20.923 -20.923,36.24 m 167.386,468.52 36.24,20.924 M 557.163,437.202 V 395.356 L 536.24,359.116 500,338.192 h -41.846 -41.847 l -36.24,20.924 H 338.22 l -36.24,20.923 -36.24,20.923 h -41.846 l -36.241,20.923 H 145.807 103.96 L 67.72,442.809 H 25.874 m 495.049,-26.53 36.24,-20.923 h 41.847 l 36.24,20.923 20.923,36.24 v 41.847 l 20.924,36.24 v 41.846 l 20.923,36.24 v 41.847 l 20.923,36.24 v 41.847 l 20.923,36.24 v 41.846 l 20.924,36.24 36.24,20.924 20.923,36.24 v 41.846 l 20.923,36.24 M 479.077,416.279 500,380.039 m -99.01,57.163 36.24,20.924 m 552.213,30.633 -36.24,20.924 h -41.846 l -36.241,20.923 H 833.27 791.423 l -36.24,20.923 h -41.846 l -36.24,20.923 -36.241,20.924 H 599.01 l -36.24,20.923 h -41.847 -41.846 l -36.24,-20.923 -20.924,-36.241 v -41.846 m 270.5,-41.847 v -41.846 l -20.923,-36.24 v -41.847 l -20.923,-36.24 v -41.846 l -20.923,-36.241 v -41.846 l -20.924,-36.24 v -41.847 l 20.924,-36.24 36.24,-20.923 h 41.846 l 20.924,36.24 v 41.847 l 20.923,36.24 v 41.846 l 20.923,36.24 v 41.847 l 20.923,36.24 v 41.846 l 20.924,36.241 v 41.846 l -20.924,36.24 -36.24,20.924 h -41.846 l -36.24,20.923 -36.241,20.923 H 599.01 l -36.24,20.923 h -41.847 -41.846 l -36.24,20.924 H 400.99 l -36.24,20.923 -36.24,20.923 h -41.847 l -36.24,20.923 H 208.577 166.73 l -36.24,20.924 H 88.643 l -36.24,20.923 -36.24,20.923 m 259.288,-708.386 20.923,36.24 v 41.847 l 20.923,36.24 v 41.846 l 20.923,36.24 v 41.847 l 20.924,36.24 v 41.846 l 20.923,36.241 v 41.846 l 20.923,36.24 v 41.847 l 20.923,36.24 36.241,20.923 m 119.933,-62.77 20.923,-36.24 m -20.923,78.087 v -41.847 l -20.924,-36.24 -36.24,-20.923 H 479.077 437.23 l -36.24,20.923 h -41.846 l -36.241,20.924 -36.24,20.923 h -41.846 l -36.24,20.923 H 166.73 124.884 L 88.643,520.895 H 46.797 l -36.24,20.924 m 510.366,30.633 20.923,-36.24 m 441.991,-224.549 -36.24,20.923 -36.24,20.923 H 869.51 l -36.24,20.923 h -41.847 -41.846 l -36.24,20.924 H 671.49 l -36.24,20.923 -36.24,20.923 h -41.847 l -36.24,20.924 H 479.077 437.23 l -36.24,20.923 h -41.846 l -36.241,20.923 -36.24,20.923 h -41.846 l -36.24,20.924 H 166.73 124.884 L 88.643,562.742 H 46.797 l -36.24,-20.923 m 447.597,-47.453 20.923,-36.24 m 0,114.326 -20.923,-36.24 v -41.846 l -20.924,-36.24 v -41.847 l -20.923,-36.24 v -41.847 l -20.923,-36.24 v -41.846 l -20.924,-36.24 v -41.847 l -20.923,-36.24 V 103.932 L 332.614,67.692 V 25.846 m 251.079,937.04 -20.923,-36.241 v -41.846 l -20.924,-36.24 v -41.847 l -20.923,-36.24 V 728.626 L 500,692.385 v -41.846 l -20.923,-36.24 V 572.452 L 500,536.212 m 468.52,-125.539 -36.24,20.923 h -41.847 l -36.24,20.923 H 812.347 770.5 l -36.24,20.923 h -41.847 l -36.24,20.924 -36.24,20.923 h -41.846 l -36.241,20.923 H 500 458.154 l -36.241,20.923 h -41.846 l -36.24,20.924 -36.24,20.923 H 265.74 l -36.24,20.923 h -41.847 -41.846 l -36.24,20.923 H 67.72 l -36.24,20.924 m 510.366,-167.386 36.241,20.923 20.923,36.24 v 41.847 l 20.923,36.24 v 41.846 l 20.923,36.24 v 41.847 l 20.924,36.24 v 41.846 l 20.923,36.241 v 41.846 l 20.923,36.24 h 41.847 l 36.24,-20.923 36.24,-20.923 h 41.846 l 36.241,-20.923 h 41.846 41.847 m -312.347,83.693 -20.923,-36.241 v -41.846 l -20.923,-36.24 v -41.847 l -20.924,-36.24 v -41.846 l -20.923,-36.241 v -41.846 l -20.923,-36.24 v -41.847 l -20.924,-36.24 v -41.846 l -20.923,-36.24 M 500,494.366 520.923,458.126 V 416.279 L 500,380.039 v -41.847 l -20.923,-36.24 v -41.846 l -20.923,-36.24 V 182.019 L 437.23,145.779 V 103.932 L 416.307,67.692 V 25.846 m 209.233,937.04 -20.924,-36.241 v -41.846 l -20.923,-36.24 v -41.847 l -20.923,-36.24 v -41.846 l -20.924,-36.241 v -41.846 l -20.923,-36.24 V 572.452 L 500,536.212 v -41.846 l -20.923,-36.24 v -41.847 l -20.923,-36.24 v -41.847 l -20.924,-36.24 v -41.846 l -20.923,-36.24 v -41.847 l -20.923,-36.24 V 103.932 L 374.46,67.692 h -41.846 l -36.24,20.924 h -41.847 l -36.24,20.923 -36.24,20.923 h -41.846 l -36.241,20.923 -20.923,36.24 v 41.847 l 20.923,36.24 v 41.847 l 20.924,36.24 v 41.846 l -20.924,36.24 v 41.847 l 20.924,36.24 v 41.847 l 20.923,36.24 v 41.846 l 20.923,36.24 v 41.847 l 20.923,36.24 v 41.846 l 20.924,36.241 v 41.846 l 20.923,36.24 v 41.847 l 20.923,36.24 M 968.52,368.826 932.28,389.749 h -41.847 l -36.24,20.924 H 812.347 770.5 l -36.24,20.923 h -41.847 l -36.24,20.923 -36.24,20.923 h -41.846 l -36.241,20.924 H 500 458.154 l -36.241,20.923 h -41.846 l -36.24,20.923 -36.24,20.923 H 265.74 l -36.24,20.924 h -41.847 -41.846 l -36.24,20.923 H 67.72 l -36.24,20.923"
     style="opacity:1;fill-opacity:0;stroke:#000000;stroke-width:14;stroke-opacity:1;stop-opacity:1;stroke-miterlimit:4;stroke-dasharray:none"
     id="path2961" />
</svg>
