<?xml version="1.0" encoding="UTF-8" standalone="no"?>
<svg
   xmlns:dc="http://purl.org/dc/elements/1.1/"
   xmlns:cc="http://creativecommons.org/ns#"
   xmlns:rdf="http://www.w3.org/1999/02/22-rdf-syntax-ns#"
   xmlns:svg="http://www.w3.org/2000/svg"
   xmlns="http://www.w3.org/2000/svg"
   xmlns:sodipodi="http://sodipodi.sourceforge.net/DTD/sodipodi-0.dtd"
   xmlns:inkscape="http://www.inkscape.org/namespaces/inkscape"
   inkscape:version="1.0beta1 (32d4812, 2019-09-19)"
   sodipodi:docname="4-uniform_84.svg"
   id="c:\kuniform\4u\4-uniform_84.svg"
   height="1000.0"
   width="959.798"
   version="1.0">
  <style
     id="style4201"></style>
  <metadata
     id="metadata4199">
    <rdf:RDF>
      <cc:Work
         rdf:about="">
        <dc:format>image/svg+xml</dc:format>
        <dc:type
           rdf:resource="http://purl.org/dc/dcmitype/StillImage" />
        <dc:title></dc:title>
      </cc:Work>
    </rdf:RDF>
  </metadata>
  <defs
     id="defs4197" />
  <sodipodi:namedview
     inkscape:current-layer="c:\kuniform\4u\4-uniform_84.svg"
     inkscape:window-maximized="0"
     inkscape:window-y="23"
     inkscape:window-x="0"
     inkscape:cy="560"
     inkscape:cx="400"
     inkscape:zoom="0.35"
     showgrid="false"
     id="namedview4195"
     inkscape:window-height="907"
     inkscape:window-width="1600"
     inkscape:pageshadow="2"
     inkscape:pageopacity="0"
     guidetolerance="10"
     gridtolerance="10"
     objecttolerance="10"
     borderopacity="1"
     inkscape:document-rotation="0"
     bordercolor="#666666"
     pagecolor="#ffffff" />
  <!-- X Coordinate transform: fx(x)=(x+47.046387)*0.8576572-->
  <!-- Y Coordinate transform: fy(y)=(1095.4835-y)*0.8576572 -->
  <path
     id="path4190"
     d="m 859.33,920.774 37.137,21.442 m -811.695,0 37.138,-21.442 m 774.557,-767.273 37.138,21.441 M 859.33,877.891 896.467,856.45 m 0,0 37.138,21.441 M 106.213,979.353 84.772,942.216 47.634,920.774 H 4.751 M 84.772,856.45 121.91,877.891 M 859.33,174.942 896.467,153.501 917.909,116.363 939.35,79.226 M 896.467,856.45 917.909,819.312 939.35,782.175 M 730.681,100.667 V 57.784 l 21.442,-37.137 m -95.717,37.137 37.138,-21.441 37.137,21.441 m -480.123,0 37.138,-21.441 37.137,21.441 m -240.061,95.717 37.138,21.441 m -74.276,42.883 v -42.883 m 848.833,767.274 37.138,-21.442 v -42.883 m -37.138,64.325 21.442,37.137 M 4.751,760.733 l 37.138,21.442 21.442,37.137 21.441,37.138 v 42.883 42.883 l -21.441,37.137 m 571.633,-21.441 37.138,-21.442 h 42.883 l 37.138,21.442 m -523.006,0 37.137,-21.442 h 42.883 l 37.138,21.442 M 859.33,217.825 896.467,196.384 933.605,174.942 M 837.888,20.647 875.026,42.088 h 42.883 M 63.331,979.353 h 42.882 l 37.138,-21.441 21.441,-37.138 V 877.891 L 143.351,840.754 106.213,819.312 H 63.331 L 26.193,840.754 4.751,877.891 v 42.883 l 21.442,37.138 z m 593.075,15.697 37.138,-21.442 21.441,-37.138 21.441,-37.137 37.138,-21.442 h 42.883 42.883 l 37.137,21.442 37.138,21.441 21.442,37.138 M 432.041,20.647 469.178,42.088 h 42.883 L 549.199,20.647 M 693.544,122.109 V 79.226 36.343 M 896.467,239.267 V 196.384 153.501 L 875.026,116.363 853.585,79.226 816.447,57.784 h -42.883 -42.883 l -37.137,21.442 -37.138,21.441 m -331.573,0 -37.137,-21.441 -37.138,-21.442 h -42.883 -42.883 l -37.137,21.442 -21.442,37.137 -21.441,37.138 -37.138,21.441 H 4.751 M 287.696,122.109 V 79.226 36.343 M 121.91,217.825 84.772,196.384 47.634,174.942 26.193,137.805 4.751,100.667 V 57.784 L 26.193,20.647 m 58.579,218.62 V 196.384 153.501 L 63.331,116.363 41.889,79.226 4.751,57.784 m 42.883,394.358 v -42.883 m 0,511.515 V 877.891 L 26.193,840.754 4.751,803.616 V 760.733 L 26.193,723.596 47.634,686.458 V 643.575 M 143.351,20.647 106.213,42.088 H 63.331 L 26.193,20.647 M 4.751,100.667 41.889,79.226 63.331,42.088 84.772,4.95 m 870.275,835.804 -37.138,-21.442 h -42.883 l -37.138,21.442 -21.441,37.137 v 42.883 l 21.441,37.138 37.138,21.441 h 42.883 l 37.138,-21.441 M 939.35,79.226 917.909,42.088 896.467,4.95 M 324.833,995.05 287.696,973.608 266.254,936.47 244.813,899.333 207.675,877.891 H 164.792 121.91 l -37.138,21.442 -37.138,21.441 -21.441,37.138 m 928.854,-702.949 -37.138,21.441 h -42.883 l -37.138,-21.441 -21.441,-37.138 v -42.883 l 21.441,-37.137 37.138,-21.442 h 42.883 l 37.138,21.442 m -58.58,250.012 37.138,21.442 m -37.138,212.875 37.138,21.441 m -37.138,64.324 37.138,-21.441 V 643.575 M 634.964,20.647 613.523,57.784 v 42.883 l 21.441,37.138 37.138,21.441 h 42.883 l 37.138,-21.441 21.441,-37.138 V 57.784 L 752.123,20.647 m -405.848,0 21.441,37.137 v 42.883 l -21.441,37.138 -37.138,21.441 H 266.254 L 229.117,137.805 207.675,100.667 V 57.784 L 229.117,20.647 M 63.331,116.363 h 42.882 l 37.138,21.442 21.441,37.137 v 42.883 l -21.441,37.138 -37.138,21.441 H 63.331 L 26.193,254.963 4.751,217.825 v -42.883 l 21.442,-37.137 z m 21.441,357.22 V 430.7 387.817 m 0,320.082 v -42.882 -42.883 m 405.848,320.082 37.137,-21.442 m -74.275,0 37.138,21.442 21.441,37.137 M 939.35,313.542 917.909,276.404 896.467,239.267 859.33,217.825 H 816.447 773.564 L 736.426,196.384 714.985,159.246 693.544,122.109 656.406,100.667 H 613.523 570.64 L 533.503,79.226 512.061,42.088 490.62,4.95 M 955.047,489.279 933.605,452.142 896.467,430.7 859.33,409.259 m 0,42.883 37.137,-21.442 37.138,-21.441 m 21.442,314.337 -21.442,-37.138 -37.138,-21.441 -37.137,-21.442 m 0,42.883 37.137,-21.441 37.138,-21.442 21.442,-37.138 M 693.544,825.058 730.681,803.616 M 490.62,4.95 469.178,42.088 447.737,79.226 410.599,100.667 h -42.883 -42.883 l -37.137,21.442 -21.442,37.137 -21.441,37.138 -37.138,21.441 H 164.792 121.91 L 84.772,239.267 63.331,276.404 41.889,313.542 4.751,334.983 m 42.883,351.475 37.138,-21.441 37.138,-21.442 m 0,42.883 L 84.772,665.017 47.634,643.575 26.193,606.437 4.751,569.3 V 526.417 L 26.193,489.279 47.634,452.142 84.772,430.7 121.91,409.259 M 287.696,825.058 250.558,803.616 H 207.675 164.792 L 127.655,782.175 106.213,745.037 84.772,707.899 47.634,686.458 H 4.751 m 950.296,-197.179 -37.138,21.442 h -42.883 l -37.138,-21.442 -21.441,-37.137 v -42.883 l 21.441,-37.138 37.138,-21.441 h 42.883 l 37.138,21.441 m 0,234.316 -37.138,-21.441 h -42.883 l -37.138,21.441 -21.441,37.138 v 42.883 l 21.441,37.138 37.138,21.441 h 42.883 l 37.138,-21.441 m -298.641,80.02 37.138,21.442 21.441,37.137 21.441,37.138 37.138,21.441 h 42.883 42.883 l 37.137,-21.441 37.138,-21.442 21.442,-37.137 M 730.681,760.733 v 42.883 l 21.442,37.138 21.441,37.137 v 42.883 l -21.441,37.138 -21.442,37.138 M 250.558,100.667 287.696,79.226 324.833,57.784 h 42.883 42.883 l 37.138,21.442 21.441,37.137 21.442,37.138 37.137,21.441 m -74.275,0 37.138,-21.441 M 4.751,409.259 v 42.883 l 21.442,37.137 37.138,21.442 h 42.882 l 37.138,-21.442 21.441,-37.137 V 409.259 L 143.351,372.121 106.213,350.68 H 63.331 l -37.138,21.441 z m 160.041,277.199 -21.441,37.138 -37.138,21.441 H 63.331 L 26.193,723.596 4.751,686.458 v -42.883 l 21.442,-37.138 37.138,-21.441 h 42.882 l 37.138,21.441 21.441,37.138 z m 288.69,191.433 37.138,-21.441 m 0,0 37.137,21.441 m -480.123,0 37.138,21.442 37.138,21.441 h 42.882 42.883 l 37.138,-21.441 21.441,-37.138 21.442,-37.137 37.137,-21.442 m -74.275,0 v -42.883 m 442.986,-490.074 37.137,21.442 h 42.883 42.883 l 37.138,21.441 21.441,37.138 21.441,37.137 v 42.883 42.883 m -58.579,484.329 21.442,-37.138 v -42.883 l -21.442,-37.137 -21.441,-37.138 v -42.883 l 21.441,-37.137 21.442,-37.138 V 643.575 L 837.888,606.437 816.447,569.3 v -42.883 l 21.441,-37.138 21.442,-37.137 v -42.883 l -21.442,-37.138 -21.441,-37.138 v -42.882 l 21.441,-37.138 21.442,-37.138 V 174.942 L 837.888,137.805 816.447,100.667 V 57.784 l 21.441,-37.137 m -587.33,974.403 37.138,-21.442 21.441,-37.138 21.442,-37.137 37.137,-21.442 h 42.883 42.883 l 37.138,21.442 37.137,21.441 h 42.883 42.883 l 37.138,-21.441 21.441,-37.138 21.442,-37.137 V 782.175 739.292 M 4.751,409.259 h 42.883 l 37.138,-21.442 21.441,-37.137 21.442,-37.138 37.137,-21.441 h 42.883 42.883 l 37.138,-21.442 M 143.351,957.912 121.91,920.774 v -42.883 l 21.441,-37.137 21.441,-37.138 V 760.733 L 143.351,723.596 121.91,686.458 V 643.575 L 143.351,606.437 164.792,569.3 V 526.417 L 143.351,489.279 121.91,452.142 v -42.883 l 21.441,-37.138 21.441,-37.138 V 292.101 L 143.351,254.963 121.91,217.825 v -42.883 l 21.441,-37.137 21.441,-37.138 V 57.784 L 143.351,20.647 m 368.71,798.665 h -42.883 l -37.137,21.442 -21.442,37.137 v 42.883 l 21.442,37.138 37.137,21.441 h 42.883 l 37.138,-21.441 21.441,-37.138 v -42.883 l -21.441,-37.137 z m -187.228,-58.579 -37.137,21.442 -37.138,21.441 -21.441,37.138 -21.442,37.137 v 42.883 l 21.442,37.138 21.441,37.138 m 37.138,-255.758 v 42.883 42.883 l 21.441,37.137 21.442,37.138 37.137,21.441 h 42.883 42.883 l 37.138,-21.441 37.137,-21.442 h 42.883 42.883 l 37.138,21.442 21.441,37.137 21.442,37.138 37.137,21.442 M 955.047,254.963 933.605,217.825 896.467,196.384 859.33,174.942 h -42.883 -42.883 l -37.138,21.442 -21.441,37.138 -21.441,37.137 -37.138,21.442 m 74.275,42.882 v -42.882 m -15.696,410.053 h -42.883 l -37.138,21.442 -21.441,37.137 v 42.883 l 21.441,37.138 37.138,21.441 h 42.883 l 37.138,-21.441 21.441,-37.138 V 760.733 L 752.123,723.596 Z M 121.91,452.142 84.772,430.7 47.634,409.259 26.193,372.121 4.751,334.983 v -42.882 l 21.442,-37.138 21.441,-37.138 37.138,-21.441 37.138,-21.442 h 42.882 42.883 l 37.138,21.442 21.441,37.138 21.442,37.137 37.137,21.442 m -74.275,42.882 v -42.882 m 240.062,564.349 21.441,-37.138 21.442,-37.137 37.137,-21.442 h 42.883 42.883 l 37.138,-21.441 21.441,-37.138 21.441,-37.137 37.138,-21.442 h 42.883 42.883 l 37.137,-21.441 21.442,-37.138 21.441,-37.138 M 469.178,979.353 490.62,942.216 V 899.333 856.45 L 469.178,819.312 447.737,782.175 410.599,760.733 H 367.716 324.833 L 287.696,739.292 266.254,702.154 244.813,665.017 207.675,643.575 H 164.792 121.91 L 84.772,622.134 63.331,584.996 41.889,547.858 4.751,526.417 m 224.366,197.179 37.137,-21.442 h 42.883 l 37.138,21.442 21.441,37.137 v 42.883 l -21.441,37.138 -37.138,21.441 h -42.883 l -37.137,-21.441 -21.442,-37.138 v -42.883 z m 427.289,-388.613 37.138,-21.441 37.137,-21.441 21.442,-37.138 21.441,-37.138 V 174.942 L 752.123,137.805 730.681,100.667 693.544,79.226 656.406,57.784 H 613.523 570.64 l -37.137,21.442 -21.442,37.137 -21.441,37.138 v 42.883 42.883 m -37.138,-21.442 37.138,-21.441 37.137,-21.442 h 42.883 42.883 l 37.138,21.442 21.441,37.138 21.442,37.137 v 42.883 42.883 M 730.681,569.3 v -42.883 m -320.082,-308.592 21.442,37.138 37.137,21.441 h 42.883 l 37.138,-21.441 21.441,-37.138 v -42.883 l -21.441,-37.137 -37.138,-21.442 h -42.883 l -37.137,21.442 -21.442,37.137 z m -85.766,117.158 -37.137,-21.441 -37.138,-21.441 -21.441,-37.138 -21.442,-37.138 v -42.883 l 21.442,-37.137 21.441,-37.138 V 57.784 L 229.117,20.647 m 58.579,335.778 v -42.883 -42.883 l 21.441,-37.137 21.442,-37.138 37.137,-21.442 h 42.883 42.883 l 37.138,21.442 37.137,21.441 M 250.558,569.3 v -42.883 m 384.406,-271.454 -21.441,37.138 v 42.882 l 21.441,37.138 37.138,21.442 h 42.883 l 37.138,-21.442 21.441,-37.138 v -42.882 l -21.441,-37.138 -37.138,-21.441 h -42.883 z m 21.442,505.77 37.138,21.442 37.137,21.441 h 42.883 42.883 l 37.138,-21.441 21.441,-37.138 21.441,-37.138 v -42.882 -42.883 l -21.441,-37.138 -21.441,-37.138 -37.138,-21.441 h -42.883 -42.883 l -37.137,-21.441 m 0,85.765 37.137,-21.441 M 939.35,547.858 917.909,510.721 896.467,473.583 859.33,452.142 H 816.447 773.564 L 736.426,430.7 714.985,393.563 693.544,356.425 656.406,334.983 H 613.523 570.64 L 533.503,313.542 512.061,276.404 490.62,239.267 453.482,217.825 H 410.599 367.716 L 330.579,196.384 309.137,159.246 287.696,122.109 250.558,100.667 H 207.675 164.792 L 127.655,79.226 106.213,42.088 84.772,4.95 M 4.751,569.3 41.889,547.858 63.331,510.721 84.772,473.583 121.91,452.142 h 42.882 42.883 l 37.138,-21.442 21.441,-37.137 21.442,-37.138 37.137,-21.442 h 42.883 42.883 l 37.138,-21.441 21.441,-37.138 21.442,-37.137 37.137,-21.442 h 42.883 42.883 l 37.138,-21.441 21.441,-37.138 21.442,-37.137 37.137,-21.442 h 42.883 42.883 L 853.585,79.226 875.026,42.088 896.467,4.95 m -688.792,330.033 21.442,37.138 37.137,21.442 h 42.883 l 37.138,-21.442 21.441,-37.138 v -42.882 l -21.441,-37.138 -37.138,-21.441 h -42.883 l -37.137,21.441 -21.442,37.138 z M 4.751,643.575 h 42.883 l 37.138,-21.441 21.441,-37.138 21.442,-37.138 37.137,-21.441 h 42.883 42.883 l 37.138,-21.441 M 4.751,452.142 h 42.883 l 37.138,21.441 21.441,37.138 21.442,37.137 37.137,21.442 h 42.883 42.883 l 37.138,21.441 m 202.924,117.158 37.137,-21.441 m -74.275,0 37.138,21.441 21.441,37.138 21.442,37.138 37.137,21.441 h 42.883 42.883 l 37.138,-21.441 37.137,-21.442 21.442,-37.137 21.441,-37.138 V 643.575 L 752.123,606.437 730.681,569.3 m -74.275,-42.883 37.138,21.441 37.137,21.442 h 42.883 42.883 l 37.138,-21.442 21.441,-37.137 21.441,-37.138 37.138,-21.441 v -42.883 l 21.442,-37.138 M 656.406,995.05 634.964,957.912 613.523,920.774 v -42.883 l 21.441,-37.137 21.442,-37.138 v -42.883 l -21.442,-37.137 -21.441,-37.138 v -42.883 l 21.441,-37.138 21.442,-37.137 v -42.883 l -21.442,-37.138 -21.441,-37.137 v -42.883 l 21.441,-37.138 21.442,-37.138 v -42.882 l -21.442,-37.138 -21.441,-37.138 v -42.883 l 21.441,-37.137 21.442,-37.138 V 57.784 L 634.964,20.647 m -21.441,548.653 21.441,37.137 37.138,21.442 h 42.883 l 37.138,-21.442 21.441,-37.137 v -42.883 l -21.441,-37.138 -37.138,-21.441 h -42.883 l -37.138,21.441 -21.441,37.138 z M 490.62,387.817 l 37.137,21.442 h 42.883 42.883 l 37.138,21.441 21.441,37.138 21.442,37.138 v 42.882 42.883 l -21.442,37.138 -21.441,37.138 -37.138,21.441 H 570.64 527.757 L 490.62,665.017 453.482,643.575 m 0,-234.316 37.138,-21.442 21.441,-37.137 21.442,-37.138 37.137,-21.441 h 42.883 42.883 l 37.138,21.441 37.137,21.441 21.442,37.138 21.441,37.138 v 42.883 l -21.441,37.137 -21.442,37.138 -37.137,21.441 -37.138,21.442 m -331.573,425.75 21.442,-37.138 21.441,-37.138 v -42.883 l -21.441,-37.137 -21.442,-37.138 v -42.883 l 21.442,-37.137 21.441,-37.138 V 643.575 L 346.275,606.437 324.833,569.3 v -42.883 l 21.442,-37.138 21.441,-37.137 v -42.883 l -21.441,-37.138 -21.442,-37.138 v -42.882 l 21.442,-37.138 21.441,-37.138 V 174.942 L 346.275,137.805 324.833,100.667 V 57.784 l 21.442,-37.137 m 21.441,548.653 -21.441,37.137 -37.138,21.442 H 266.254 L 229.117,606.437 207.675,569.3 v -42.883 l 21.442,-37.138 37.137,-21.441 h 42.883 l 37.138,21.441 21.441,37.138 z m -42.883,-42.883 -37.137,21.441 -37.138,21.442 -21.441,37.137 -21.442,37.138 v 42.883 l 21.442,37.138 21.441,37.137 37.138,21.442 37.137,21.441 h 42.883 42.883 l 37.138,-21.441 21.441,-37.138 21.442,-37.138 v -42.882 -42.883 m 37.137,21.441 -37.137,21.442 -37.138,21.441 h -42.883 -42.883 l -37.137,-21.441 -21.442,-37.138 -21.441,-37.138 v -42.883 -42.882 l 21.441,-37.138 21.442,-37.138 37.137,-21.441 h 42.883 42.883 l 37.138,21.441 37.137,21.442 m -74.275,0 37.138,-21.442 37.137,-21.441 m -58.579,175.737 h 42.883 l 37.138,21.441 21.441,37.138 v 42.883 l -21.441,37.138 -37.138,21.441 h -42.883 l -37.137,-21.441 -21.442,-37.138 v -42.883 l 21.442,-37.138 z m 80.021,372.916 -21.442,-37.138 v -42.883 l 21.442,-37.137 21.441,-37.138 V 760.733 L 549.199,723.596 527.757,686.458 V 643.575 L 549.199,606.437 570.64,569.3 v -42.883 l -21.441,-37.138 -21.442,-37.137 v -42.883 l 21.442,-37.138 21.441,-37.138 v -42.882 l -21.441,-37.138 -21.442,-37.138 v -42.883 l 21.442,-37.137 21.441,-37.138 V 57.784 L 549.199,20.647 m 390.151,292.895 -21.441,37.138 -21.442,37.137 -37.137,21.442 h -42.883 -42.883 l -37.138,21.441 -21.441,37.138 -21.441,37.138 -37.138,21.441 H 613.523 570.64 l -37.137,21.441 -21.442,37.138 -21.441,37.138 -37.138,21.441 h -42.883 -42.883 l -37.137,21.442 -21.442,37.137 -21.441,37.138 -37.138,21.441 h -42.883 -42.883 l -37.137,21.442 -21.442,37.137 -21.441,37.138 -37.138,21.441 H 4.751 M 490.62,473.583 V 430.7 387.817 L 469.178,350.68 447.737,313.542 410.599,292.101 h -42.883 -42.883 l -37.137,21.441 -37.138,21.441 -21.441,37.138 -21.442,37.138 v 42.883 l 21.442,37.137 21.441,37.138 37.138,21.441 37.137,21.442 m 107.208,388.612 21.441,-37.138 v -42.883 l -21.441,-37.137 -21.442,-37.138 v -42.883 l 21.442,-37.137 21.441,-37.138 V 643.575 L 432.041,606.437 410.599,569.3 v -42.883 l 21.442,-37.138 21.441,-37.137 v -42.883 l -21.441,-37.138 -21.442,-37.138 v -42.882 l 21.442,-37.138 21.441,-37.138 V 174.942 L 432.041,137.805 410.599,100.667 V 57.784 l 21.442,-37.137 m -427.29,271.454 37.138,21.441 21.442,37.138 21.441,37.137 37.138,21.442 h 42.882 42.883 l 37.138,21.441 21.441,37.138 21.442,37.138 37.137,21.441 h 42.883 42.883 l 37.138,21.441 21.441,37.138 21.442,37.138 37.137,21.441 h 42.883 42.883 l 37.138,21.442 21.441,37.137 21.442,37.138 37.137,21.441 h 42.883 42.883 l 37.138,21.442 21.441,37.137 21.441,37.138 v 42.883 42.883 l -21.441,37.137 M 939.35,782.175 917.909,745.037 896.467,707.899 859.33,686.458 H 816.447 773.564 L 736.426,665.017 714.985,627.879 693.544,590.741 656.406,569.3 H 613.523 570.64 L 533.503,547.858 512.061,510.721 490.62,473.583 453.482,452.142 H 410.599 367.716 L 330.579,430.7 309.137,393.563 287.696,356.425 250.558,334.983 H 207.675 164.792 L 127.655,313.542 106.213,276.404 84.772,239.267 47.634,217.825 H 4.751 m 0,585.791 37.138,-21.441 21.442,-37.138 21.441,-37.138 37.138,-21.441 h 42.882 42.883 l 37.138,-21.441 21.441,-37.138 21.442,-37.138 37.137,-21.441 h 42.883 42.883 l 37.138,-21.442 21.441,-37.137 21.442,-37.138 37.137,-21.441 h 42.883 42.883 l 37.138,-21.442 21.441,-37.137 21.442,-37.138 37.137,-21.442 h 42.883 42.883 l 37.138,-21.441 21.441,-37.138 21.441,-37.137 37.138,-21.442 v -42.883 l 21.442,-37.137 M 469.178,510.721 h 42.883 l 37.138,-21.442 21.441,-37.137 V 409.259 L 549.199,372.121 512.061,350.68 h -42.883 l -37.137,21.441 -21.442,37.138 v 42.883 l 21.442,37.137 z"
     inkscape:connector-curvature="0"
     style="opacity:1;fill-opacity:0;stroke:#000000;stroke-width:16;stroke-opacity:1;stop-opacity:1;stroke-miterlimit:4;stroke-dasharray:none" />
</svg>
