<?xml version="1.0" encoding="UTF-8" standalone="no"?>
<svg
   xmlns:dc="http://purl.org/dc/elements/1.1/"
   xmlns:cc="http://creativecommons.org/ns#"
   xmlns:rdf="http://www.w3.org/1999/02/22-rdf-syntax-ns#"
   xmlns:svg="http://www.w3.org/2000/svg"
   xmlns="http://www.w3.org/2000/svg"
   xmlns:sodipodi="http://sodipodi.sourceforge.net/DTD/sodipodi-0.dtd"
   xmlns:inkscape="http://www.inkscape.org/namespaces/inkscape"
   inkscape:version="1.0beta1 (32d4812, 2019-09-19)"
   sodipodi:docname="4-uniform_82.svg"
   id="c:\kuniform\4u\4-uniform_82.svg"
   height="1000.0"
   width="1000.0"
   version="1.0">
  <style
     id="style2822"></style>
  <metadata
     id="metadata2820">
    <rdf:RDF>
      <cc:Work
         rdf:about="">
        <dc:format>image/svg+xml</dc:format>
        <dc:type
           rdf:resource="http://purl.org/dc/dcmitype/StillImage" />
        <dc:title></dc:title>
      </cc:Work>
    </rdf:RDF>
  </metadata>
  <defs
     id="defs2818" />
  <sodipodi:namedview
     inkscape:current-layer="c:\kuniform\4u\4-uniform_82.svg"
     inkscape:window-maximized="0"
     inkscape:window-y="23"
     inkscape:window-x="0"
     inkscape:cy="560"
     inkscape:cx="400"
     inkscape:zoom="0.35"
     showgrid="false"
     id="namedview2816"
     inkscape:window-height="907"
     inkscape:window-width="1600"
     inkscape:pageshadow="2"
     inkscape:pageopacity="0"
     guidetolerance="10"
     gridtolerance="10"
     objecttolerance="10"
     borderopacity="1"
     inkscape:document-rotation="0"
     bordercolor="#666666"
     pagecolor="#ffffff" />
  <!-- X Coordinate transform: fx(x)=(x+78.93713)*0.86365163-->
  <!-- Y Coordinate transform: fy(y)=(1078.9371-y)*0.86365163 -->
  <path
     id="path2811"
     d="M 146.069,48.133 183.466,26.542 M 59.704,166.11 81.295,128.713 102.886,91.316 M 48.133,853.931 26.542,816.534 m 64.774,80.58 37.397,21.591 37.397,21.591 M 973.458,183.466 951.867,146.069 M 833.89,59.704 l 37.397,21.591 37.397,21.591 m -92.15,870.572 37.397,-21.591 m 43.183,-43.183 21.591,-37.397 21.591,-37.397 M 146.069,91.316 V 48.133 4.95 m 37.397,21.592 37.397,21.591 m -96.385,80.58 -21.592,-37.397 V 48.133 m 0,117.977 L 81.295,128.713 59.704,91.316 M 91.316,853.931 H 48.133 4.95 m 21.592,-37.397 21.591,-37.397 m 0,117.977 h 43.183 l 37.397,-21.592 m -37.397,64.774 37.397,-21.591 37.397,-21.591 M 908.684,146.069 h 43.183 43.182 M 871.287,124.478 V 81.295 38.113 M 833.89,102.886 871.287,81.295 908.684,59.704 M 833.89,16.521 871.287,38.113 m -17.356,870.571 v 43.183 43.182 m 21.591,-123.762 h 43.183 43.182 L 983.479,833.89 M 940.296,908.684 918.705,871.287 897.114,833.89 M 264.046,48.133 285.637,10.736 M 307.229,48.133 285.637,10.736 M 48.133,735.954 10.736,714.363 M 48.133,692.771 10.736,714.363 M 146.069,4.95 183.466,26.542 v 43.182 43.183 m -80.58,96.386 37.398,-21.592 M 16.521,327.27 38.113,289.872 59.704,252.475 m 676.25,699.392 -21.591,37.397 m -21.592,-37.397 21.592,37.397 M 4.95,853.931 26.542,816.534 h 43.182 43.183 m 96.386,80.58 -21.592,-37.398 m 64.774,80.58 37.397,21.591 37.398,21.592 m 624.597,-719.433 37.397,21.591 m -37.397,21.592 37.397,-21.592 M 887.093,183.466 h 43.183 43.182 M 812.299,140.284 790.707,102.886 M 672.73,16.521 l 37.398,21.592 37.397,21.591 m 69.009,827.389 v 43.183 43.182 m 43.182,-161.159 37.398,-21.592 m 43.182,-43.182 21.591,-37.397 21.592,-37.398 M 307.229,91.316 344.626,69.724 m 58.988,-15.806 h 43.183 43.182 M 91.316,692.771 69.724,655.374 M 53.918,596.386 v -43.183 -43.182 m 48.968,-257.546 37.398,-21.591 37.397,-21.591 M 81.295,289.872 H 38.113 M 59.704,327.27 38.113,289.872 16.521,252.475 m 638.853,677.801 37.397,-21.592 m -182.75,37.398 h 43.182 43.183 M 252.475,897.114 230.884,859.716 209.293,822.319 m 80.579,96.386 v 43.182 m -37.397,21.592 37.397,-21.592 37.398,-21.591 m 603.006,-595.67 -21.592,-37.397 m 37.398,182.75 V 446.797 403.614 M 951.867,220.863 930.276,183.466 908.684,146.069 871.287,124.478 833.89,102.886 H 790.707 747.525 M 710.128,81.295 V 38.113 M 672.73,59.704 710.128,38.113 747.525,16.521 m 31.612,935.346 37.397,-21.591 37.397,-21.592 21.591,-37.397 21.592,-37.397 v -43.183 -43.182 m 21.591,-37.397 h 43.182 m 21.592,37.397 -21.592,-37.397 -21.591,-37.398 m -161.159,235.954 37.397,21.592 37.397,21.591 h 43.183 43.182 l 37.397,-21.591 M 307.229,134.498 V 91.316 48.133 L 328.82,10.736 m 96.386,80.58 21.591,-37.398 21.591,-37.397 m 0,74.795 -21.591,-37.398 -21.591,-37.397 m 483.478,204.342 21.592,-37.397 21.591,-37.397 V 102.886 59.704 L 930.276,22.307 M 134.498,692.771 H 91.316 48.133 L 10.736,671.18 M 91.316,574.794 53.918,553.203 16.521,531.612 m 74.795,0 -37.398,21.591 -37.397,21.591 m 204.342,-365.501 21.592,-37.398 21.591,-37.397 M 59.704,209.293 h 43.182 l 37.398,21.591 37.397,21.591 M 16.521,488.429 38.113,451.032 59.704,413.635 v -43.183 l 37.397,-21.591 m -5.785,430.276 -21.592,37.397 -21.591,37.397 v 43.183 43.182 l 21.591,37.397 M 692.771,865.502 v 43.182 43.183 l -21.591,37.397 m -53.203,-80.58 37.397,21.592 37.397,21.591 h 43.183 43.183 l 37.397,21.591 37.397,21.591 m -279.137,-86.365 -21.591,37.398 -21.591,37.397 m 0,-74.795 21.591,37.398 21.591,37.397 m -440.296,-247.525 37.397,21.591 37.398,21.592 m 0,161.159 v -43.182 l 21.591,-37.398 21.591,-37.397 m 96.386,80.58 21.591,37.397 h 43.183 l 37.397,21.591 37.397,21.592 M 220.863,91.316 183.466,69.724 146.069,48.133 H 102.886 59.704 L 22.307,69.724 m 843.195,237.505 h 43.182 43.183 l 37.397,21.591 m -80.58,53.203 21.592,-37.397 21.591,-37.397 v -43.183 -43.183 l 21.591,-37.397 21.591,-37.397 m -86.365,279.137 37.398,21.591 37.397,21.591 m -74.795,0 37.398,-21.591 37.397,-21.591 m -192.772,-204.343 37.398,21.592 37.397,21.591 m -117.977,-86.365 21.591,-37.397 21.591,-37.398 V 59.704 m -279.136,-43.183 37.397,21.592 37.397,21.591 h 43.183 l 21.591,37.397 m 84.815,768.401 21.591,-37.397 21.592,-37.398 m 43.182,-43.182 37.397,21.591 37.398,21.591 h 43.182 m -37.397,-139.568 37.397,-21.591 v -43.183 l 21.591,-37.397 21.592,-37.397 M 199.272,171.895 h 43.183 43.182 M 344.626,156.09 V 112.907 69.724 l 21.591,-37.397 m -225.933,241.74 v -43.183 -43.183 l 21.591,-37.397 21.591,-37.397 37.397,-21.591 h 43.183 43.183 l 37.397,21.591 37.397,21.591 m 86.365,0 37.397,-21.591 M 171.895,800.728 V 757.545 714.363 M 156.09,655.374 H 112.907 69.724 L 32.327,633.783 m 102.171,-15.806 -21.591,37.397 -21.591,37.397 v 43.183 43.183 l 21.591,37.397 37.397,21.591 37.397,21.591 h 43.183 43.183 M 134.498,531.612 112.907,494.215 M 264.046,209.293 242.455,171.895 220.863,134.498 M 59.704,413.635 97.101,392.044 134.498,370.452 m 579.865,457.653 h 43.182 43.183 M 655.374,843.91 v 43.183 43.183 l -21.591,37.397 m -15.806,-102.171 37.397,21.591 37.397,21.591 h 43.183 43.183 l 37.397,-21.591 21.591,-37.397 21.591,-37.397 v -43.183 -43.183 m -365.501,161.16 37.397,-21.591 m -397.114,-86.365 37.397,-21.592 37.398,-21.591 m 161.159,129.548 21.592,37.397 21.591,37.397 m 414.47,-654.659 v -43.182 -43.183 m 15.805,145.354 h 43.183 43.183 l 37.397,21.591 M 725.933,140.284 h 43.183 43.183 l 37.397,21.591 37.397,21.591 21.591,37.397 v 43.183 43.183 l -21.591,37.397 -21.591,37.397 m 21.591,123.762 -21.591,-37.397 m -74.795,-204.342 37.398,-21.591 37.397,-21.592 M 629.548,134.498 607.956,97.101 586.365,59.704 m 192.772,805.798 -21.592,-37.397 -21.591,-37.398 m 129.548,-161.159 37.397,-21.592 37.397,-21.591 M 790.707,177.681 769.116,140.284 747.525,102.886 710.128,81.295 672.73,59.704 h -43.182 l -21.592,37.397 -21.591,37.397 m -117.977,43.183 37.397,-21.591 37.398,-21.592 M 134.498,413.635 97.101,392.044 59.704,370.452 V 327.27 l 21.591,-37.398 21.591,-37.397 V 209.293 166.11 l 21.592,-37.397 21.591,-37.397 37.397,-21.592 37.397,-21.591 h 43.183 43.183 l 37.397,21.591 37.397,21.592 M 177.681,531.612 156.09,494.215 134.498,456.817 m 129.548,-204.342 37.397,-21.591 m -123.762,139.568 21.591,-37.397 21.591,-37.397 m 192.772,569.844 -21.591,37.397 -21.592,37.397 H 327.27 L 289.872,918.705 252.475,897.114 H 209.293 166.11 L 128.713,875.522 91.316,853.931 69.724,816.534 48.133,779.137 v -43.183 -43.183 l 21.591,-37.397 21.592,-37.397 m 365.501,247.525 37.398,-21.592 37.397,-21.591 M 252.475,735.954 230.884,698.557 m 64.774,80.58 37.397,21.591 37.397,21.591 m 451.867,-31.612 37.397,-21.591 37.398,-21.591 21.591,-37.397 21.591,-37.398 v -43.182 l -37.397,-21.592 -37.397,-21.591 m 0,-43.182 -21.592,-37.398 -21.591,-37.397 M 769.116,301.443 747.525,264.046 m -117.977,-86.365 37.397,21.591 37.397,21.591 m -5.785,548.253 37.397,-21.591 m 43.183,-43.183 21.591,-37.397 21.591,-37.397 M 360.432,215.078 h 43.182 43.183 m 58.988,-15.806 V 156.09 112.907 L 527.377,75.51 548.968,38.113 586.365,16.521 M 215.078,639.568 V 596.386 553.203 M 199.272,494.215 H 156.09 112.907 L 75.51,472.623 38.113,451.032 16.521,413.635 M 264.046,295.658 v -43.183 -43.182 l 21.591,-37.398 21.592,-37.397 37.397,-21.591 37.397,-21.591 h 43.183 43.182 l 37.397,21.591 37.398,21.591 h 43.182 43.183 l 37.397,21.592 37.397,21.591 M 156.09,333.055 h 43.182 43.183 m -21.592,37.397 -21.591,-37.397 -21.591,-37.397 m 375.522,489.264 h 43.183 43.182 m -225.933,198.557 37.397,-21.592 21.591,-37.397 21.592,-37.397 V 843.91 800.728 M 295.658,735.954 H 252.475 209.293 L 171.895,714.363 134.498,692.771 112.907,655.374 91.316,617.977 v -43.183 -43.182 l 21.591,-37.397 21.591,-37.398 v -43.182 -43.183 l 21.592,-37.397 21.591,-37.397 v -43.183 -43.182 l 21.591,-37.398 21.591,-37.397 V 91.316 48.133 l 21.592,-37.397 m 90.6,833.174 v -43.182 -43.183 m -37.397,64.774 37.397,-21.591 37.397,-21.591 m 414.47,-332.34 v -43.183 -43.182 m 15.806,145.353 h 43.182 43.183 l 37.397,21.592 37.397,21.591 21.592,37.397 M 704.342,264.046 h 43.183 43.182 l 37.398,21.591 37.397,21.592 21.591,37.397 21.591,37.397 v 43.183 43.182 l -21.591,37.397 -21.591,37.398 v 43.182 43.183 l -21.592,37.397 -21.591,37.397 M 666.945,242.455 V 199.272 156.09 m -37.397,64.773 37.397,-21.591 37.397,-21.591 h 43.183 43.182 l 37.398,21.591 37.397,21.591 h 43.182 43.183 l 37.397,21.592 m -978.528,515.09 37.397,21.592 h 43.183 43.182 l 37.397,21.591 37.398,21.591 h 43.182 43.183 l 37.397,21.591 37.397,21.592 h 43.183 43.182 l 37.398,21.591 37.397,21.591 h 43.182 43.183 l 37.397,-21.591 37.397,-21.591 21.592,-37.397 21.591,-37.398 v -43.182 -43.183 m 21.591,-37.397 h 43.183 43.182 m -86.365,322.319 21.592,-37.397 v -43.183 -43.182 l 21.591,-37.397 21.591,-37.398 V 747.525 704.342 L 800.728,666.945 779.137,629.548 M 382.023,252.475 403.614,215.078 425.206,177.681 M 747.525,338.84 725.933,301.443 704.342,264.046 666.945,242.455 629.548,220.863 H 586.365 543.183 L 505.785,199.272 468.388,177.681 H 425.206 382.023 L 344.626,156.09 307.229,134.498 H 264.046 220.863 L 183.466,112.907 146.069,91.316 H 102.886 59.704 L 22.307,69.724 m 402.899,182.751 -21.592,-37.397 -21.591,-37.397 m -204.342,397.113 37.397,21.592 37.397,21.591 m 86.365,-365.502 -37.397,21.592 -37.397,21.591 -21.591,37.397 -21.592,37.397 v 43.183 43.182 l -21.591,37.398 -21.591,37.397 v 43.182 43.183 l -21.591,37.397 -21.592,37.397 v 43.183 43.183 l -21.591,37.397 -21.591,37.397 v 43.183 43.182 l -21.592,37.397 m 107.957,-359.716 37.397,-21.591 37.397,-21.592 m 48.968,-257.545 v -43.182 -43.183 l 21.591,-37.397 21.592,-37.397 37.397,-21.592 h 43.183 43.182 l 37.397,21.592 37.398,21.591 M 97.101,435.226 v -43.182 -43.183 l 21.591,-37.397 21.592,-37.397 37.397,-21.592 h 43.182 43.183 l 37.397,21.592 37.397,21.591 m -117.977,117.977 37.398,-21.591 m 316.533,430.275 21.592,-37.397 21.591,-37.397 m -365.502,-86.365 21.592,37.397 21.591,37.397 37.397,21.591 37.397,21.592 h 43.183 43.182 l 37.398,21.591 37.397,21.591 h 43.182 43.183 l 37.397,21.591 37.397,21.592 h 43.183 43.183 l 37.397,21.591 37.397,21.591 h 43.183 43.182 l 37.397,21.592 M 617.977,822.319 596.386,784.922 574.794,747.525 M 177.681,456.817 156.09,494.215 134.498,531.612 v 43.182 43.183 l 21.592,37.397 37.397,21.592 37.397,21.591 h 43.183 43.182 m -21.591,-37.397 -21.591,37.397 -21.592,37.397 v 43.183 43.182 l 21.592,37.397 37.397,21.592 37.397,21.591 h 43.183 43.182 M 413.635,779.137 392.044,741.739 m 355.481,-359.716 37.397,21.591 37.397,21.592 m -161.159,322.319 37.397,-21.592 37.397,-21.591 21.591,-37.397 21.592,-37.397 v -43.183 -43.182 l 21.591,-37.398 21.591,-37.397 v -43.182 -43.183 l 21.591,-37.397 21.592,-37.397 v -43.183 -43.183 l 21.591,-37.397 21.591,-37.397 V 102.886 59.704 l 21.592,-37.397 m -182.751,402.899 37.397,-21.592 37.397,-21.591 m 0,161.16 21.591,-37.398 21.592,-37.397 V 425.206 382.023 L 843.91,344.626 806.513,323.034 769.116,301.443 H 725.933 682.751 M 564.774,97.101 h 43.182 43.183 l 37.397,21.591 37.397,21.592 21.592,37.397 v 43.182 43.183 l -21.592,37.397 -21.591,37.397 m -96.386,-80.579 -21.591,-37.398 m -129.548,601.456 37.398,21.591 37.397,21.592 h 43.182 43.183 l 37.397,-21.592 21.592,-37.397 21.591,-37.397 v -43.183 -43.182 m -37.397,21.591 37.397,21.591 37.397,21.592 h 43.183 43.182 l 37.397,-21.592 21.592,-37.397 21.591,-37.397 v -43.183 -43.182 m -161.16,43.182 37.398,-21.591 M 425.206,295.658 462.603,274.067 M 295.658,574.794 274.067,537.397 m -53.204,-80.58 37.398,-21.591 37.397,-21.591 m 241.739,312.298 37.397,-21.591 M 456.817,779.137 435.226,741.739 413.635,704.342 M 725.933,462.603 704.342,425.206 M 586.365,295.658 564.774,258.261 543.183,220.863 m 161.159,365.502 37.397,-21.591 37.398,-21.591 M 543.183,295.658 564.774,258.261 586.365,220.863 V 177.681 134.498 L 564.774,97.101 527.377,75.51 489.979,53.918 468.388,16.521 M 425.206,338.84 v -43.182 -43.183 l 21.591,-37.397 21.591,-37.397 V 134.498 91.316 L 489.979,53.918 511.571,16.521 M 661.16,338.84 623.762,317.249 586.365,295.658 H 543.183 500 L 462.603,274.067 425.206,252.475 H 382.023 338.84 L 301.443,230.884 264.046,209.293 H 220.863 177.681 L 140.284,187.701 102.886,166.11 H 59.704 16.521 M 295.658,456.817 258.261,435.226 220.863,413.635 H 177.681 134.498 L 97.101,435.226 75.51,472.623 53.918,510.021 16.521,531.612 M 338.84,574.794 H 295.658 252.475 L 215.078,553.203 177.681,531.612 H 134.498 91.316 L 53.918,510.021 16.521,488.429 M 338.84,338.84 317.249,376.238 295.658,413.635 V 456.817 500 l -21.591,37.397 -21.592,37.397 v 43.183 43.183 l -21.591,37.397 -21.591,37.397 v 43.183 43.182 l -21.592,37.397 -21.591,37.398 v 43.182 43.183 m 172.73,-569.844 21.592,-37.397 21.591,-37.398 m 74.794,365.502 -21.591,37.397 -21.591,37.398 v 43.182 43.183 l 21.591,37.397 37.397,21.591 37.398,21.592 21.591,37.397 M 574.794,661.16 v 43.182 43.183 l -21.591,37.397 -21.591,37.397 v 43.183 43.182 l -21.591,37.398 -21.592,37.397 M 338.84,661.16 l 37.398,21.591 37.397,21.591 H 456.817 500 l 37.397,21.591 37.397,21.592 h 43.183 43.183 l 37.397,21.591 37.397,21.591 h 43.183 43.182 l 37.397,21.592 37.398,21.591 h 43.182 43.183 M 338.84,617.977 l 37.398,21.591 37.397,21.592 m 290.707,-117.977 37.397,21.591 37.398,21.591 h 43.182 43.183 l 37.397,-21.591 21.591,-37.397 21.592,-37.398 37.397,-21.591 M 661.16,425.206 h 43.182 43.183 l 37.397,21.591 37.397,21.591 h 43.183 43.182 l 37.398,21.591 37.397,21.592 M 661.16,661.16 682.751,623.762 704.342,586.365 V 543.183 500 l 21.591,-37.397 21.592,-37.397 V 382.023 338.84 l 21.591,-37.397 21.591,-37.397 v -43.183 -43.182 l 21.592,-37.397 21.591,-37.398 V 59.704 16.521 m -247.525,322.319 37.397,21.592 37.398,21.591 M 617.977,661.16 639.568,623.762 661.16,586.365 M 317.249,376.238 h 43.183 43.182 m 58.989,-15.806 v -43.183 -43.182 l 21.591,-37.398 21.591,-37.397 37.398,-21.591 h 43.182 43.183 l 37.397,-21.591 21.591,-37.398 21.592,-37.397 37.397,-21.591 h 43.182 43.183 l 37.397,-21.591 37.397,21.591 h 43.183 M 258.261,478.409 v -43.183 -43.182 l 21.591,-37.398 21.591,-37.397 37.397,-21.591 h 43.183 43.183 L 462.603,317.249 500,338.84 M 376.238,682.751 V 639.568 596.386 M 360.432,537.397 H 317.249 274.067 L 236.669,515.806 199.272,494.215 177.681,456.817 V 413.635 370.452 L 156.09,333.055 118.692,311.464 81.295,289.872 59.704,252.475 V 209.293 166.11 L 38.113,128.713 59.704,91.316 V 48.133 M 478.409,741.739 H 435.226 392.044 L 354.646,720.148 317.249,698.557 295.658,661.16 V 617.977 574.794 L 317.249,537.397 338.84,500 M 382.023,413.635 360.432,376.238 338.84,338.84 v -43.182 -43.183 l 21.592,-37.397 21.591,-37.397 V 134.498 91.316 l 21.591,-37.398 21.592,-37.397 m 171.18,607.241 h 43.182 43.183 M 48.133,940.296 h 43.183 l 37.397,21.591 37.397,-21.591 h 43.183 43.182 l 37.397,-21.591 21.592,-37.397 21.591,-37.398 37.397,-21.591 h 43.183 43.182 l 37.398,-21.591 21.591,-37.397 21.591,-37.398 V 682.751 639.568 M 500,661.16 l 37.397,21.591 37.397,21.591 h 43.183 43.183 l 37.397,-21.591 21.591,-37.397 21.591,-37.398 v -43.182 -43.183 m -725.218,53.203 37.397,21.592 37.398,21.591 h 43.182 43.183 l 37.397,21.591 37.397,21.592 h 43.183 43.182 l 37.398,-21.592 37.397,-21.591 M 623.762,403.614 V 360.432 317.249 M 940.296,951.867 V 908.684 L 961.887,871.287 940.296,833.89 V 790.707 747.525 L 918.705,710.128 881.308,688.536 843.91,666.945 822.319,629.548 V 586.365 543.183 L 800.728,505.785 763.331,484.194 725.933,462.603 H 682.751 639.568 M 661.16,500 682.751,462.603 704.342,425.206 V 382.023 338.84 l -21.591,-37.397 -37.397,-21.591 -37.398,-21.591 h -43.182 -43.183 m 64.774,123.762 37.397,-21.591 37.398,-21.592 h 43.182 43.183 l 37.397,21.592 37.397,21.591 h 43.183 43.182 l 37.398,21.591 37.397,21.592 m -408.685,558.273 21.592,-37.397 21.591,-37.398 v -43.182 -43.183 l 21.591,-37.397 21.592,-37.397 V 704.342 661.16 L 639.568,623.762 617.977,586.365 M 704.342,500 682.751,462.603 661.16,425.206 623.762,403.614 586.365,382.023 H 543.183 500 L 462.603,360.432 425.206,338.84 H 382.023 338.84 L 301.443,317.249 264.046,295.658 H 220.863 177.681 L 140.284,274.067 102.886,252.475 H 59.704 16.521 M 500,295.658 l -37.397,21.591 -37.397,21.591 -21.592,37.398 -21.591,37.397 V 456.817 500 l -21.591,37.397 -21.592,37.397 v 43.183 43.183 l -21.591,37.397 -21.591,37.397 v 43.183 43.182 l -21.591,37.397 -21.592,37.398 v 43.182 43.183 M 382.023,456.817 419.42,435.226 M 295.658,500 l 21.591,37.397 21.591,37.397 37.398,21.592 37.397,21.591 H 456.817 500 l 37.397,21.591 37.397,21.592 h 43.183 43.183 l 37.397,21.591 37.397,21.591 h 43.183 43.182 l 37.397,21.591 37.398,21.592 h 43.182 43.183 M 456.817,617.977 435.226,580.58 M 500,704.342 l 37.397,-21.591 37.397,-21.591 21.592,-37.398 21.591,-37.397 V 543.183 500 l 21.591,-37.397 21.592,-37.397 V 382.023 338.84 l 21.591,-37.397 21.591,-37.397 v -43.183 -43.182 l 21.591,-37.397 21.592,-37.398 V 59.704 16.521 M 564.774,419.42 543.183,382.023 m 37.397,182.751 37.397,-21.591 M 478.409,419.42 h 43.182 43.183 l 37.397,21.592 37.397,21.591 L 661.16,500 v 43.183 43.182 l 21.591,37.397 37.397,21.592 37.397,21.591 21.592,37.397 v 43.183 43.182 l 21.591,37.398 37.397,21.591 37.397,21.591 21.592,37.397 v 43.183 M 419.42,521.591 V 478.409 435.226 L 441.012,397.829 462.603,360.432 500,338.84 h 43.183 43.182 l 37.397,-21.591 21.592,-37.397 21.591,-37.397 37.397,-21.592 h 43.183 43.182 l 37.398,-21.591 21.591,-37.397 21.591,-37.397 37.397,-21.592 h 43.183 M 382.023,500 419.42,478.409 456.817,456.817 M 16.521,166.11 38.113,128.713 h 43.182 43.183 l 37.397,21.591 37.397,21.591 21.591,37.398 v 43.182 43.183 l 21.592,37.397 37.397,21.591 37.397,21.592 21.591,37.397 V 456.817 500 l 21.592,37.397 37.397,21.592 37.397,21.591 h 43.183 43.182 M 500,617.977 478.409,580.58 456.817,543.183 M 166.11,983.479 128.713,961.887 v -43.182 -43.183 l 21.591,-37.397 21.591,-37.397 37.398,-21.591 h 43.182 43.183 l 37.397,-21.592 21.591,-37.397 21.592,-37.397 37.397,-21.591 H 456.817 500 l 37.397,-21.592 21.592,-37.397 21.591,-37.397 V 521.591 478.409 M 543.183,456.817 521.591,419.42 500,382.023 M 543.183,543.183 580.58,521.591 617.977,500 M 500,456.817 521.591,419.42 543.183,382.023 V 338.84 295.658 L 521.591,258.261 484.194,236.669 446.797,215.078 425.206,177.681 V 134.498 91.316 L 403.614,53.918 366.217,32.327 328.82,10.736 M 983.479,586.365 H 940.296 L 902.899,564.774 865.502,543.183 H 822.319 779.137 L 741.739,521.591 704.342,500 H 661.16 617.977 L 580.58,478.409 543.183,456.817 H 500 456.817 L 419.42,435.226 382.023,413.635 H 338.84 295.658 L 258.261,392.044 220.863,370.452 H 177.681 134.498 L 97.101,348.861 59.704,327.27 H 16.521 m -5.785,343.91 21.591,-37.397 21.591,-37.397 37.398,-21.592 h 43.182 43.183 l 37.397,-21.591 21.591,-37.397 21.592,-37.397 37.397,-21.592 h 43.182 43.183 L 419.42,478.409 456.817,500 M 586.365,16.521 v 43.183 l -21.591,37.397 -21.591,37.397 v 43.183 43.182 L 521.591,258.261 500,295.658 v 43.182 43.183 l -21.591,37.397 -21.592,37.397 V 500 543.183 l -21.591,37.397 -21.591,37.397 v 43.183 43.182 l -21.591,37.397 -21.592,37.398 v 43.182 43.183 l -21.591,37.397 -21.591,37.397 v 43.183 m 343.91,5.785 -37.397,-21.591 -37.397,-21.591 -21.592,-37.398 V 865.502 822.319 L 553.203,784.922 515.806,763.331 478.409,741.739 456.817,704.342 V 661.16 617.977 L 478.409,580.58 500,543.183 M 16.521,413.635 h 43.183 l 37.397,21.591 37.397,21.591 h 43.183 43.182 l 37.398,21.592 37.397,21.591 h 43.182 43.183 l 37.397,21.591 37.397,21.592 H 500 543.183 l 37.397,21.591 37.397,21.591 h 43.183 43.182 l 37.397,21.591 37.398,21.592 h 43.182 43.183 l 37.397,21.591 37.397,21.591 h 43.183 M 543.183,500 l 37.397,21.591 37.397,21.592 h 43.183 43.182 l 37.397,-21.592 21.592,-37.397 21.591,-37.397 37.397,-21.591 h 43.183 43.182 l 37.398,-21.592 21.591,-37.397 21.591,-37.397 M 413.635,983.479 v -43.183 l 21.591,-37.397 21.591,-37.397 V 822.319 779.137 L 478.409,741.739 500,704.342 V 661.16 617.977 l 21.591,-37.397 21.592,-37.397 V 500 456.817 l 21.591,-37.397 21.591,-37.397 V 338.84 295.658 l 21.591,-37.397 21.592,-37.398 V 177.681 134.498 L 651.139,97.101 672.73,59.704 V 16.521 m 84.815,972.743 -21.591,-37.397 V 908.684 865.502 L 714.363,828.105 676.966,806.513 639.568,784.922 617.977,747.525 V 704.342 661.16 L 596.386,623.762 558.989,602.171 521.591,580.58 500,543.183 V 500 456.817 L 478.409,419.42 441.012,397.829 403.614,376.238 382.023,338.84 V 295.658 252.475 L 360.432,215.078 323.034,193.487 285.637,171.895 264.046,134.498 V 91.316 48.133 L 242.455,10.736 m 746.809,231.719 -37.397,21.591 h -43.183 -43.182 l -37.397,21.591 -21.592,37.397 -21.591,37.398 -37.397,21.591 H 704.342 661.16 L 623.762,403.614 602.171,441.012 580.58,478.409 543.183,500 H 500 456.817 l -37.397,21.591 -21.591,37.398 -21.591,37.397 -37.398,21.591 h -43.182 -43.183 l -37.397,21.591 -21.591,37.398 -21.592,37.397 -37.397,21.591 H 91.316 48.133 l -37.397,21.591"
     inkscape:connector-curvature="0"
     style="opacity:1;fill-opacity:0;stroke:#000000;stroke-width:15;stroke-opacity:1;stop-opacity:1;stroke-miterlimit:4;stroke-dasharray:none" />
</svg>
