<?xml version="1.0" encoding="UTF-8" standalone="no"?>
<svg
   xmlns:dc="http://purl.org/dc/elements/1.1/"
   xmlns:cc="http://creativecommons.org/ns#"
   xmlns:rdf="http://www.w3.org/1999/02/22-rdf-syntax-ns#"
   xmlns:svg="http://www.w3.org/2000/svg"
   xmlns="http://www.w3.org/2000/svg"
   xmlns:sodipodi="http://sodipodi.sourceforge.net/DTD/sodipodi-0.dtd"
   xmlns:inkscape="http://www.inkscape.org/namespaces/inkscape"
   inkscape:version="1.0beta1 (32d4812, 2019-09-19)"
   sodipodi:docname="4-uniform_147.svg"
   id="c:\kuniform\4u\4-uniform_147.svg"
   height="1000.0"
   width="955.8065"
   version="1.0">
  <style
     id="style3084"></style>
  <metadata
     id="metadata3082">
    <rdf:RDF>
      <cc:Work
         rdf:about="">
        <dc:format>image/svg+xml</dc:format>
        <dc:type
           rdf:resource="http://purl.org/dc/dcmitype/StillImage" />
        <dc:title></dc:title>
      </cc:Work>
    </rdf:RDF>
  </metadata>
  <defs
     id="defs3080" />
  <sodipodi:namedview
     inkscape:current-layer="c:\kuniform\4u\4-uniform_147.svg"
     inkscape:window-maximized="0"
     inkscape:window-y="23"
     inkscape:window-x="0"
     inkscape:cy="615.77026"
     inkscape:cx="541.88915"
     inkscape:zoom="0.34011739"
     showgrid="false"
     id="namedview3078"
     inkscape:window-height="907"
     inkscape:window-width="1600"
     inkscape:pageshadow="2"
     inkscape:pageopacity="0"
     guidetolerance="10"
     gridtolerance="10"
     objecttolerance="10"
     borderopacity="1"
     inkscape:document-rotation="0"
     bordercolor="#666666"
     pagecolor="#ffffff" />
  <!-- X Coordinate transform: fx(x)=(x+60.45282)*0.85270905-->
  <!-- Y Coordinate transform: fy(y)=(1095.5171-y)*0.85270905 -->
  <path
     d="M 908.439,100.115 887.122,63.192 865.804,26.268 M 26.049,179.674 47.367,142.75 m 861.072,772.741 21.318,-36.924 21.318,-36.923 m -824.149,95.164 21.318,36.924 M 90.003,915.491 68.685,878.567 47.367,841.644 m 781.513,95.164 -21.317,36.924 m 58.241,-58.241 h 42.635 42.636 M 844.486,63.192 h 42.636 42.635 m -63.953,36.923 21.318,-36.923 21.317,-36.924 M 929.757,179.674 908.439,142.75 M 190.879,41.874 212.197,4.951 M 126.926,121.433 148.244,84.509 V 41.874 L 169.561,4.951 M 47.367,216.597 68.685,179.674 90.003,142.75 m 775.801,815.376 21.318,36.923 m -738.878,-95.164 21.317,36.923 21.318,36.924 M 111.32,878.567 90.003,841.644 M 47.367,799.008 26.049,762.085 m 781.514,137.8 -21.318,36.923 -21.318,36.924 m 79.559,-95.165 h 42.636 42.635 m -21.318,-79.559 21.318,-36.923 M 47.367,915.491 26.049,878.567 4.732,841.644 M 764.927,41.874 743.609,4.951 M 828.88,121.433 807.563,84.509 V 41.874 L 786.245,4.951 m 79.559,137.799 h 42.635 42.636 m -802.831,15.606 21.317,-36.923 21.318,-36.924 M 4.732,216.597 26.049,179.674 H 68.685 111.32 M 26.049,296.156 47.367,259.233 m 42.636,698.893 21.317,36.923 m 79.559,-95.164 21.318,36.923 21.318,36.924 36.923,21.317 M 148.244,857.249 126.926,820.326 M 90.003,799.008 68.685,762.085 47.367,725.162 m 638.001,269.887 36.924,-21.317 21.317,-36.924 21.318,-36.923 m 42.636,-42.636 21.317,-36.923 m 36.924,-21.318 h 42.635 42.636 m 0,0 -21.318,-36.923 -21.318,-36.923 M 807.563,158.356 786.245,121.433 764.927,84.509 m 186.148,132.088 -21.318,-36.923 h -42.635 -42.636 m 21.318,36.923 21.318,-36.923 21.317,-36.924 v -42.635 l 21.318,-36.923 m 0,232.964 -21.318,-36.923 M 685.368,63.192 664.051,26.268 m 58.241,58.241 h 42.635 42.636 M 477.903,41.874 456.585,4.951 M 270.438,63.192 291.756,26.268 M 148.244,84.509 h 42.635 42.636 M 111.32,63.192 H 68.685 26.049 M 47.367,682.526 26.049,645.603 m 164.83,-487.247 21.318,-36.923 21.318,-36.924 36.923,-21.317 h 42.635 42.636 42.635 M 126.926,237.915 148.244,200.992 V 158.356 L 126.926,121.433 90.003,100.115 H 47.367 4.732 m 0,349.447 21.317,-36.924 21.318,-36.923 m 0,-42.636 21.318,-36.923 21.318,-36.923 m 201.753,698.893 21.317,36.923 M 254.832,936.808 H 212.197 169.561 126.926 L 90.003,915.491 H 47.367 4.732 m 329.659,42.635 21.318,36.923 m 21.318,-36.923 -21.318,36.923 M 47.367,100.115 68.685,63.192 90.003,26.268 M 951.075,100.115 929.757,63.192 908.439,26.268 m -244.388,931.858 -21.318,36.923 m 58.241,-58.241 h 42.635 42.636 42.635 l 36.924,-21.317 21.318,-36.924 21.317,-36.923 m -287.024,116.482 -21.318,36.923 m -21.317,-36.923 21.317,36.923 m -366.582,-95.164 -21.318,36.923 -21.318,36.924 m 0,-116.483 -21.318,-36.923 -21.317,-36.923 M 111.32,762.085 H 68.685 26.049 L 4.732,725.162 m 861.072,116.482 21.318,36.923 21.317,36.924 v 42.635 l -21.317,36.923 m 21.317,-312.523 21.318,-36.923 m -207.465,254.282 21.317,36.923 21.318,36.924 m 0,-116.483 21.318,-36.923 21.318,-36.923 m 36.923,-21.318 h 42.636 42.635 l 21.318,-36.923 m 0,190.329 -21.318,-36.924 -21.318,-36.923 V 799.008 L 887.122,762.085 865.804,725.162 M 557.462,63.192 h 42.635 42.636 42.635 l 36.924,21.317 21.317,36.924 21.318,36.923 m 63.953,79.559 -21.317,-36.923 v -42.636 l 21.317,-36.923 36.924,-21.318 h 42.635 42.636 m -85.271,159.118 h 42.635 42.636 m 0,190.329 -21.318,-36.924 -21.318,-36.923 m 0,-42.636 21.318,-36.923 21.318,-36.923 M 664.051,100.115 642.733,63.192 621.415,26.268 M 908.439,216.597 887.122,179.674 865.804,142.75 828.88,121.433 H 786.245 743.609 700.974 M 621.415,100.115 600.097,63.192 578.78,26.268 m 0,73.847 21.317,-36.923 21.318,-36.924 M 435.268,84.509 h 42.635 42.636 m -228.783,15.606 21.317,-36.923 21.318,-36.924 m -79.559,95.165 H 212.197 169.561 126.926 L 90.003,142.75 H 47.367 4.732 m 329.659,-42.635 21.318,-36.923 21.318,-36.924 m 0,73.847 L 355.709,63.192 334.391,26.268 M 4.732,100.115 26.049,63.192 M 4.732,682.526 26.049,645.603 47.367,608.679 m 0,-42.635 -21.318,-36.923 M 233.515,158.356 212.197,121.433 190.879,84.509 V 41.874 L 169.561,4.951 M 4.732,566.044 26.049,529.121 47.367,492.197 m 0,-42.635 -21.318,-36.924 m 122.195,-137.8 21.317,-36.923 21.318,-36.923 M 4.732,333.079 26.049,296.156 h 42.636 42.635 m -21.317,36.923 21.317,-36.923 m 302.63,640.652 21.318,36.924 M 291.756,915.491 h 42.635 42.636 m 201.753,0 h 42.635 42.636 M 233.515,857.249 h -42.636 -42.635 l -36.924,21.318 -21.317,36.924 v 42.635 l -21.318,36.923 m 164.83,-137.8 36.923,21.318 21.318,36.924 v 42.635 l -21.318,36.923 m -36.923,-137.8 -21.318,-36.923 -21.318,-36.923 M 4.732,682.526 h 42.635 42.636 l 36.923,21.318 21.318,36.923 v 42.636 l -21.318,36.923 -36.923,21.318 H 47.367 4.732 M 951.075,682.526 929.757,645.603 908.439,608.679 m 0,-42.635 21.318,-36.923 m -63.953,153.405 h 42.635 42.636 M 722.292,857.249 h 42.635 42.636 l 36.923,21.318 21.318,36.924 v 42.635 l -21.318,36.923 m -122.194,-137.8 -36.924,21.318 -21.317,36.924 v 42.635 l 21.317,36.923 m 36.924,-137.8 21.317,-36.923 21.318,-36.923 m 63.953,-79.559 -21.317,36.923 v 42.636 l 21.317,36.923 36.924,21.318 h 42.635 42.636 M 722.292,158.356 743.609,121.433 764.927,84.509 V 41.874 L 786.245,4.951 m 164.83,561.093 -21.318,-36.923 -21.318,-36.924 m 0,-42.635 21.318,-36.924 m -122.194,-137.8 -21.318,-36.923 -21.318,-36.923 m 186.148,132.087 -21.318,-36.923 h -42.635 -42.636 m 21.318,36.923 21.318,-36.923 21.317,-36.923 v -42.636 l 21.318,-36.923 21.318,-36.924 M 541.856,121.433 520.539,84.509 V 41.874 L 499.221,4.951 M 578.78,142.75 h 42.635 42.636 m -372.295,0 h 42.635 42.636 M 90.003,566.044 68.685,529.121 47.367,492.197 V 449.562 L 68.685,412.638 90.003,375.715 M 111.32,645.603 H 68.685 26.049 L 4.732,608.679 M 90.003,100.115 111.32,63.192 148.244,41.874 h 42.635 42.636 l 36.923,21.318 21.318,36.923 v 42.635 l -21.318,36.924 m -122.194,21.318 h 42.635 42.636 M 90.003,449.562 68.685,412.638 47.367,375.715 V 333.079 L 26.049,296.156 4.732,259.233 M 111.32,412.638 H 68.685 26.049 L 4.732,375.715 m 0,0 h 42.635 42.636 l 36.923,-21.318 21.318,-36.923 V 274.838 L 126.926,237.915 90.003,216.597 H 47.367 4.732 m 430.536,683.288 21.317,36.923 21.318,36.924 m 0,-73.847 21.318,36.923 21.318,36.924 36.923,21.317 m -36.923,-95.164 -21.318,36.923 -21.318,36.924 M 334.391,915.491 313.073,878.567 291.756,841.644 M 254.832,820.326 H 212.197 169.561 126.926 L 90.003,799.008 H 47.367 4.732 m 228.783,-15.605 -21.318,36.923 -21.318,36.923 v 42.636 l -21.318,36.923 -21.317,36.924 M 190.879,740.767 169.561,703.844 148.244,666.92 m 717.56,-100.876 21.318,-36.923 21.317,-36.924 v -42.635 l -21.317,-36.924 -21.318,-36.923 m -21.318,269.888 h 42.636 42.635 l 21.318,-36.924 m -329.66,306.812 21.318,-36.924 21.318,-36.923 m 36.923,-21.318 h 42.635 42.636 42.635 l 36.924,-21.318 21.318,-36.923 21.317,-36.923 v -42.636 l -21.317,-36.923 -21.318,-36.924 m -143.512,174.724 21.317,36.923 21.318,36.923 v 42.636 l 21.318,36.923 21.318,36.924 M 764.927,740.767 786.245,703.844 807.563,666.92 M 685.368,179.674 664.051,142.75 m 58.241,58.242 h 42.635 42.636 m 21.317,502.852 36.924,-21.318 21.318,-36.923 21.317,-36.924 v -42.635 l -21.317,-36.923 -21.318,-36.924 m -21.318,-79.559 h 42.636 42.635 l 21.318,-36.923 m 0,0 H 908.439 865.804 L 828.88,354.397 807.563,317.474 v -42.636 l 21.317,-36.923 36.924,-21.318 h 42.635 42.636 M 520.539,158.356 499.221,121.433 477.903,84.509 M 764.927,274.838 743.609,237.915 722.292,200.992 685.368,179.674 H 642.733 600.097 557.462 M 477.903,158.356 456.585,121.433 435.268,84.509 398.344,63.192 377.027,26.268 m 58.241,132.088 21.317,-36.923 21.318,-36.924 V 41.874 L 499.221,4.951 m -308.342,269.887 21.318,-36.923 21.318,-36.923 36.923,-21.318 h 42.635 42.636 42.635 M 111.32,529.121 H 68.685 26.049 L 4.732,492.197 m 122.194,211.647 21.318,-36.924 v -42.635 l -21.318,-36.923 m 164.83,-370.765 21.317,-36.923 21.318,-36.924 m -79.559,95.165 H 212.197 169.561 126.926 L 90.003,259.233 H 47.367 4.732 m 228.783,15.605 -21.318,-36.923 -21.318,-36.923 V 158.356 L 169.561,121.433 148.244,84.509 111.32,63.192 90.003,26.268 m 58.241,407.688 -21.318,36.923 -36.923,21.318 H 47.367 4.732 m 143.512,-100.876 21.317,-36.924 21.318,-36.923 m 143.512,524.17 21.318,36.923 21.318,36.924 36.923,21.317 h 42.635 42.636 42.635 m -164.829,-95.164 -21.318,36.923 -21.318,36.924 v 42.635 l -21.318,36.923 m 207.466,-137.8 h -42.636 -42.635 l -36.924,21.318 -21.317,36.924 v 42.635 l 21.317,36.923 m 122.195,-137.8 36.923,21.318 21.318,36.924 v 42.635 l -21.318,36.923 M 435.268,973.732 h 42.635 42.636 l 21.317,-36.924 36.924,-21.317 21.317,-36.924 21.318,-36.923 m -42.635,0 21.317,36.923 21.318,36.924 v 42.635 l 21.318,36.923 M 270.438,878.567 291.756,841.644 V 799.008 L 270.438,762.085 M 148.244,740.767 h 42.635 42.636 M 844.486,529.121 h 42.636 42.635 l 21.318,-36.924 M 828.88,703.844 807.563,666.92 V 624.285 L 828.88,587.362 M 685.368,878.567 664.051,841.644 v -42.636 l 21.317,-36.923 m 36.924,-21.318 h 42.635 42.636 M 664.051,216.597 642.733,179.674 621.415,142.75 m 244.389,306.812 21.318,-36.924 21.317,-36.923 V 333.079 L 887.122,296.156 865.804,259.233 828.88,237.915 h -42.635 -42.636 -42.635 m 21.318,36.923 21.317,-36.923 21.318,-36.923 v -42.636 l 21.318,-36.923 21.318,-36.924 36.923,-21.317 21.318,-36.924 m -58.241,407.688 21.317,36.923 36.924,21.318 h 42.635 42.636 M 807.563,391.321 786.245,354.397 764.927,317.474 M 413.95,121.433 h 42.635 42.636 42.635 l 36.924,21.317 21.317,36.924 21.318,36.923 m -42.635,0 21.317,-36.923 21.318,-36.924 V 100.115 L 642.733,63.192 664.051,26.268 M 435.268,200.992 h 42.635 42.636 m -186.148,15.605 21.318,-36.923 21.318,-36.924 36.923,-21.317 21.318,-36.924 V 41.874 L 456.585,4.951 M 377.027,216.597 355.709,179.674 334.391,142.75 V 100.115 L 313.073,63.192 291.756,26.268 m -143.512,524.17 -21.318,36.924 -36.923,21.317 H 47.367 4.732 M 148.244,507.803 126.926,470.879 m 63.953,153.406 -21.318,-36.923 -21.317,-36.924 V 507.803 M 90.003,216.597 111.32,179.674 148.244,158.356 h 42.635 42.636 l 36.923,21.318 21.318,36.923 v 42.636 l -21.318,36.923 m -122.194,21.318 h 42.635 42.636 m -85.271,190.329 21.317,-36.924 21.318,-36.923 M 435.268,857.249 413.95,820.326 M 291.756,799.008 h 42.635 42.636 m 201.753,0 h 42.635 42.636 m -329.66,0 -21.318,-36.923 -21.317,-36.923 m -201.753,0 36.923,-21.318 h 42.635 42.636 42.635 M 47.367,958.126 h 42.636 l 36.923,-21.318 21.318,-36.923 v -42.636 l 21.317,-36.923 21.318,-36.923 v -42.636 l 21.318,-36.923 21.318,-36.924 m 717.56,-58.241 H 908.439 865.804 L 828.88,587.362 807.563,550.438 m 0,-42.635 21.317,-36.924 m -63.953,153.406 21.318,-36.923 21.318,-36.924 v -42.635 m -186.148,291.205 21.318,-36.923 21.318,-36.923 m 36.923,-21.318 h 42.635 42.636 42.635 l 36.924,21.318 h 42.635 42.636 m -228.783,-58.242 21.317,36.924 21.318,36.923 v 42.636 l 21.318,36.923 21.318,36.923 v 42.636 l 21.317,36.923 36.924,21.318 h 42.635 M 685.368,296.156 664.051,259.233 m 58.241,58.241 h 42.635 42.636 m 0,190.329 -21.318,-36.924 -21.318,-36.923 M 541.856,237.915 520.539,200.992 m 58.241,58.241 h 42.635 42.636 m -372.295,0 h 42.635 42.636 m -228.783,365.052 21.317,-36.923 21.318,-36.924 m 0,-42.635 -21.318,-36.924 -21.317,-36.923 v -42.635 l -21.318,-36.924 m 164.83,-21.318 21.317,-36.923 21.318,-36.923 M 4.732,333.079 h 42.635 42.636 l 36.923,21.318 h 42.635 42.636 42.635 m -21.317,269.888 -21.318,-36.923 -21.318,-36.924 v -42.635 l 21.318,-36.924 21.318,-36.923 m 0,-42.635 -21.318,-36.924 -21.318,-36.923 V 274.838 L 169.561,237.915 148.244,200.992 111.32,179.674 90.003,142.75 V 100.115 L 68.685,63.192 47.367,26.268 M 477.903,857.249 456.585,820.326 435.268,783.403 M 190.879,666.92 l 21.318,36.924 21.318,36.923 36.923,21.318 h 42.635 42.636 42.635 m 122.195,95.164 -21.318,-36.923 -21.318,-36.923 m -79.559,211.646 36.924,-21.317 21.317,-36.924 21.318,-36.923 v -42.636 l 21.318,-36.923 21.318,-36.923 m 79.558,-21.318 21.318,36.923 v 42.636 l 21.318,36.923 21.318,36.924 36.923,21.317 21.318,36.924 h 42.635 42.636 l 36.923,21.317 M 557.462,762.085 h 42.635 42.636 42.635 l 36.924,-21.318 21.317,-36.923 21.318,-36.924 M 541.856,820.326 H 499.221 456.585 413.95 L 377.027,799.008 355.709,762.085 334.391,725.162 M 90.003,682.526 111.32,645.603 148.244,624.285 h 42.635 42.636 l 36.923,21.318 21.318,36.923 v 42.636 l -21.318,36.923 -36.923,21.318 H 190.879 148.244 L 111.32,762.085 90.003,725.162 H 47.367 4.732 M 807.563,624.285 786.245,587.362 764.927,550.438 m 0,-42.635 21.318,-36.924 21.318,-36.923 V 391.321 L 828.88,354.397 M 600.097,762.085 621.415,725.162 M 722.292,624.285 h 42.635 42.636 l 36.923,21.318 21.318,36.923 v 42.636 l -21.318,36.923 -36.923,21.318 h -42.636 -42.635 l -36.924,-21.318 -21.317,-36.923 v -42.636 l 21.317,-36.923 M 664.051,333.079 642.733,296.156 621.415,259.233 m 79.559,95.164 h 42.635 42.636 42.635 l 36.924,-21.318 h 42.635 42.636 m -265.707,312.524 36.924,-21.318 21.317,-36.923 21.318,-36.924 V 507.803 L 743.609,470.879 722.292,433.956 M 664.051,142.75 v -42.635 l 21.317,-36.923 36.924,-21.318 h 42.635 42.636 l 36.923,21.318 21.318,36.923 v 42.635 l -21.318,36.924 -36.923,21.318 -21.318,36.923 -21.318,36.923 v 42.636 l -21.318,36.923 -21.317,36.924 M 520.539,274.838 499.221,237.915 477.903,200.992 M 764.927,391.321 743.609,354.397 722.292,317.474 685.368,296.156 H 642.733 600.097 557.462 M 477.903,274.838 456.585,237.915 435.268,200.992 398.344,179.674 377.027,142.75 v -42.635 l 21.317,-36.923 36.924,-21.318 h 42.635 42.636 l 36.923,21.318 21.318,36.923 v 42.635 l -21.318,36.924 -36.923,21.318 m -85.271,73.846 21.317,-36.923 21.318,-36.923 V 158.356 L 499.221,121.433 520.539,84.509 557.462,63.192 578.78,26.268 M 355.709,296.156 334.391,259.233 V 216.597 L 313.073,179.674 291.756,142.75 254.832,121.433 233.515,84.509 V 41.874 L 212.197,4.951 m -21.318,386.37 21.318,-36.924 21.318,-36.923 36.923,-21.318 h 42.635 42.636 42.635 m -164.829,254.282 -21.318,36.924 -21.318,36.923 v 42.635 l -21.318,36.924 -21.317,36.923 -36.924,21.318 -21.317,36.923 v 42.636 l -21.318,36.923 -21.318,36.924 v 42.635 l 21.318,36.923 M 233.515,507.803 212.197,470.879 190.879,433.956 V 391.321 L 169.561,354.397 148.244,317.474 111.32,296.156 90.003,259.233 V 216.597 L 68.685,179.674 47.367,142.75 V 100.115 L 26.049,63.192 47.367,26.268 M 254.832,587.362 H 212.197 169.561 126.926 L 90.003,566.044 H 47.367 4.732 M 334.391,333.079 355.709,296.156 M 254.832,470.879 H 212.197 169.561 126.926 L 90.003,449.562 H 47.367 4.732 M 111.32,296.156 148.244,274.838 h 42.635 42.636 l 36.923,21.318 21.318,36.923 v 42.636 l -21.318,36.923 -36.923,21.318 H 190.879 148.244 L 111.32,412.638 90.003,375.715 V 333.079 L 68.685,296.156 47.367,259.233 V 216.597 L 26.049,179.674 4.732,142.75 m 106.588,852.299 36.924,-21.317 h 42.635 42.636 l 21.317,-36.924 36.924,-21.317 21.317,-36.924 21.318,-36.923 v -42.636 l 21.318,-36.923 21.318,-36.923 m 21.317,153.405 -21.317,-36.923 v -42.636 l 21.317,-36.923 36.924,-21.318 h 42.635 42.636 M 334.391,682.526 313.073,645.603 291.756,608.679 m 265.706,269.888 h 42.635 42.636 42.635 l 36.924,21.318 h 42.635 42.636 l 36.923,-21.318 21.318,-36.923 V 799.008 L 844.486,762.085 807.563,740.767 786.245,703.844 764.927,666.92 V 624.285 L 743.609,587.362 722.292,550.438 M 664.051,259.233 v -42.636 l 21.317,-36.923 36.924,-21.318 h 42.635 42.636 l 36.923,21.318 21.318,36.923 v 42.636 l -21.318,36.923 -36.923,21.318 -21.318,36.923 -21.318,36.924 v 42.635 l -21.318,36.923 -21.317,36.924 m -21.318,79.559 h 42.635 42.636 42.635 l 36.924,-21.318 h 42.635 42.636 m -329.66,116.482 21.318,-36.923 21.318,-36.924 M 413.95,237.915 h 42.635 42.636 42.635 l 36.924,21.318 21.317,36.923 21.318,36.923 m 79.559,137.8 h 42.635 42.636 42.635 l 36.924,-21.317 h 42.635 42.636 M 764.927,433.956 h -42.635 l -36.924,-21.318 -21.317,-36.923 v -42.636 l 21.317,-36.923 36.924,-21.318 h 42.635 42.636 l 36.923,21.318 21.318,36.923 v 42.636 l -21.318,36.923 -36.923,21.318 z M 578.78,333.079 l 21.317,-36.923 21.318,-36.923 v -42.636 l 21.318,-36.923 21.318,-36.924 36.923,-21.317 21.318,-36.924 V 41.874 L 743.609,4.951 M 435.268,317.474 h 42.635 42.636 m -250.101,328.129 21.318,-36.924 v -42.635 l -21.318,-36.923 m -180.435,-36.924 21.317,36.924 36.924,21.317 h 42.635 42.636 l 36.923,-21.317 21.318,-36.924 m 0,-42.635 21.317,-36.924 21.318,-36.923 M 435.268,740.767 413.95,703.844 M 291.756,682.526 h 42.635 42.636 m 201.753,0 h 42.635 42.636 M 541.856,703.844 H 499.221 456.585 413.95 l -36.923,-21.318 -21.318,-36.923 -21.318,-36.924 m 329.66,-42.635 21.317,-36.923 m -106.588,196.041 21.317,36.923 -21.317,36.923 -36.924,21.318 -21.317,36.923 v 42.636 l 21.317,36.923 36.924,21.318 h 42.635 42.636 l 36.923,-21.318 21.318,-36.923 v -42.636 l -21.318,-36.923 -36.923,-21.318 -21.318,-36.923 -21.318,-36.923 v -42.636 l -21.318,-36.923 m 0,0 21.318,-36.924 m 63.953,-79.558 -21.317,-36.924 m 0,-42.635 -21.318,-36.924 -21.318,-36.923 m -79.559,-21.318 -21.317,-36.923 m 58.241,58.241 h 42.635 42.636 m -164.83,-21.318 -21.318,-36.923 m -186.147,58.241 h 42.635 42.636 m -42.636,190.329 -21.318,-36.923 -21.317,-36.924 v -42.635 l -21.318,-36.924 m 21.318,153.406 21.317,-36.923 21.318,-36.924 m 0,-42.635 21.318,-36.924 M 477.903,740.767 456.585,703.844 435.268,666.92 m -345.265,-58.241 21.317,36.924 36.924,21.317 h 42.635 42.636 l 36.923,-21.317 h 42.635 42.636 42.635 m 159.118,0 h 42.635 42.636 42.635 m -164.829,21.317 -21.318,36.924 -21.318,36.923 v 42.636 l -21.318,36.923 -21.317,36.923 v 42.636 l -21.318,36.923 -36.923,21.318 h -42.636 -42.635 l -36.924,-21.318 -21.317,-36.923 v -42.636 l 21.317,-36.923 36.924,-21.318 21.317,-36.923 21.318,-36.923 v -42.636 l 21.318,-36.923 21.318,-36.924 m 244.388,-42.635 21.318,-36.923 21.318,-36.924 v -42.635 l 21.317,-36.924 m -21.317,153.406 -21.318,-36.923 -21.318,-36.924 m 0,-42.635 -21.318,-36.924 -21.317,-36.923 -36.924,-21.318 H 499.221 456.585 413.95 m 106.589,36.924 21.317,-36.924 m 15.606,58.241 h 42.635 42.636 42.635 l 36.924,-21.317 h 42.635 42.636 l 36.923,21.317 21.318,36.924 v 42.635 l -21.318,36.924 -36.923,21.317 h -42.636 -42.635 l -36.924,-21.317 m -207.465,-137.8 21.318,-36.924 M 26.049,878.567 47.367,841.644 V 799.008 L 68.685,762.085 90.003,725.162 V 682.526 L 68.685,645.603 47.367,608.679 v -42.635 l 21.318,-36.923 21.318,-36.924 v -42.635 l 21.317,-36.924 36.924,-21.317 h 42.635 42.636 l 36.923,21.317 h 42.635 42.636 42.635 m -21.317,153.406 -21.318,-36.923 -21.318,-36.924 v -42.635 l -21.318,-36.924 -21.317,-36.923 -36.924,-21.318 -21.317,-36.923 v -42.636 l 21.317,-36.923 36.924,-21.318 h 42.635 42.636 l 36.923,21.318 21.318,36.923 v 42.636 l -21.318,36.923 -36.923,21.318 -21.318,36.923 m 122.194,254.282 -21.318,36.924 -21.317,36.923 v 42.636 l -21.318,36.923 -36.923,21.318 h -42.636 -42.635 l -36.924,-21.318 -21.317,-36.923 v -42.636 l 21.317,-36.923 36.924,-21.318 21.317,-36.923 21.318,-36.924 v -42.635 l 21.318,-36.923 21.318,-36.924 m 0,-42.635 -21.318,-36.924 -21.318,-36.923 v -42.636 l -21.318,-36.923 -21.317,-36.923 -36.924,-21.318 -21.317,-36.923 v -42.636 l 21.317,-36.923 36.924,-21.318 h 42.635 42.636 l 36.923,21.318 21.318,36.923 v 42.636 l -21.318,36.923 -36.923,21.318 -21.318,36.923 21.318,36.923 m 58.241,291.206 h 42.635 42.636 m -287.024,0 21.317,-36.923 36.924,-21.318 h 42.635 42.636 l 36.923,21.318 21.318,36.923 v 42.635 l -21.318,36.924 -36.923,21.318 H 334.391 291.756 L 254.832,703.844 233.515,666.92 Z m 287.024,0 21.317,-36.923 m 36.924,-21.318 21.317,-36.923 21.318,-36.924 v -42.635 l 21.318,-36.924 21.318,-36.923 36.923,-21.318 21.318,-36.923 V 274.838 L 700.974,237.915 664.051,216.597 H 621.415 578.78 l -36.924,21.318 -21.317,36.923 v 42.636 m 58.241,291.205 21.317,36.924 -21.317,36.923 -36.924,21.318 -21.317,36.923 v 42.636 l 21.317,36.923 36.924,21.318 h 42.635 42.636 l 36.923,-21.318 21.318,-36.923 V 740.767 L 700.974,703.844 664.051,682.526 642.733,645.603 621.415,608.679 V 566.044 L 600.097,529.121 578.78,492.197 m 0,-42.635 21.317,-36.924 21.318,-36.923 v -42.636 l 21.318,-36.923 21.318,-36.923 36.923,-21.318 21.318,-36.923 V 158.356 L 700.974,121.433 664.051,100.115 H 621.415 578.78 l -36.924,21.318 -21.317,36.923 v 42.636 l -21.318,36.923 -21.318,36.923 v 42.636 l -21.318,36.923 -21.317,36.924 m 0,42.635 h 42.635 42.636 M 4.732,799.008 26.049,762.085 47.367,725.162 v -42.636 l 21.318,-36.923 21.318,-36.924 v -42.635 l 21.317,-36.923 36.924,-21.318 h 42.635 42.636 l 36.923,21.318 h 42.635 42.636 42.635 M 291.756,333.079 h 42.635 42.636 l 36.923,21.318 21.318,36.924 v 42.635 l -21.318,36.923 -36.923,21.318 h -42.636 -42.635 l -36.924,-21.318 -21.317,-36.923 v -42.635 l 21.317,-36.924 z m 186.147,291.206 -21.318,-36.923 m -42.635,0 h 42.635 42.636 42.635 l 36.924,-21.318 h 42.635 42.636 l 36.923,21.318 21.318,36.923 v 42.635 l -21.318,36.924 -36.923,21.318 H 621.415 578.78 L 541.856,703.844 520.539,666.92 V 624.285 M 413.95,587.362 435.268,550.438 M 4.732,915.491 26.049,878.567 h 42.636 42.635 l 36.924,21.318 h 42.635 42.636 l 36.923,-21.318 h 42.635 42.636 42.635 l 36.924,21.318 h 42.635 42.636 l 36.923,-21.318 21.318,-36.923 V 799.008 L 557.462,762.085 520.539,740.767 499.221,703.844 477.903,666.92 v -42.635 l 21.318,-36.923 21.318,-36.924 m 36.923,-21.317 h 42.635 42.636 42.635 l 36.924,-21.318 h 42.635 42.636 l 36.923,21.318 21.318,36.923 v 42.635 l -21.318,36.924 -36.923,21.317 h -42.636 -42.635 l -36.924,-21.317 -21.317,-36.924 v -42.635 m -228.783,-58.241 21.317,-36.924 21.318,-36.923 m -21.318,153.406 21.318,-36.924 m 0,0 h -42.635 l -36.924,-21.317 -21.317,-36.924 v -42.635 l 21.317,-36.924 36.924,-21.317 h 42.635 42.636 l 36.923,21.317 21.318,36.924 v 42.635 l -21.318,36.924 -36.923,21.317 z M 413.95,470.879 h 42.635 42.636 42.635 l -21.317,36.924 v 42.635 l 21.317,36.924 36.924,21.317 h 42.635 42.636 l 36.923,-21.317 21.318,-36.924 V 507.803 L 700.974,470.879 664.051,449.562 H 621.415 578.78 l -36.924,21.317 m -63.953,36.924 21.318,-36.924 m 0,0 21.318,-36.923 36.923,-21.318 21.318,-36.923 v -42.636 l -21.318,-36.923 -36.923,-21.318 h -42.636 -42.635 l -36.924,21.318 -21.317,36.923 v 42.636 l 21.317,36.923 36.924,21.318 21.317,36.923 21.318,36.924 v 42.635 l 21.318,36.924 21.318,36.923 36.923,21.318 21.318,36.923 v 42.636 l -21.318,36.923 -36.923,21.318 h -42.636 -42.635 l -36.924,-21.318 -21.317,-36.923 v -42.636 l 21.317,-36.923 36.924,-21.318 21.317,-36.923 -21.317,-36.924 V 507.803 L 413.95,470.879 377.027,449.562 h -42.636 -42.635 l -36.924,21.317 -21.317,36.924 v 42.635 l 21.317,36.924 36.924,21.317 h 42.635 42.636 L 413.95,587.362 M 541.856,354.397 578.78,333.079 h 42.635 42.636 l 36.923,21.318 21.318,36.924 v 42.635 l -21.318,36.923 -36.923,21.318 H 621.415 578.78 l -36.924,-21.318 -21.317,-36.923 v -42.635 l -21.318,-36.924 21.318,-36.923 36.923,-21.318 21.318,-36.923 v -42.636 l -21.318,-36.923 -36.923,-21.318 h -42.636 -42.635 l -36.924,21.318 -21.317,36.923 v 42.636 l 21.317,36.923 36.924,21.318 21.317,36.923 21.318,36.924 v 42.635 l 21.318,36.923 21.318,36.924 h -42.636 -42.635 l -36.924,21.318 -21.317,36.923 v 42.635 l 21.317,36.924 36.924,21.317 h 42.635 42.636 l 36.923,-21.317 21.318,-36.924 v -42.635 l -21.318,-36.923 -36.923,-21.318"
     style="opacity:1;fill-opacity:0;stroke:#000000;stroke-width:15;stroke-opacity:1;stop-opacity:1;stroke-miterlimit:4;stroke-dasharray:none"
     id="path3073" />
</svg>
