<?xml version="1.0" encoding="UTF-8" standalone="no"?>
<svg
   xmlns:dc="http://purl.org/dc/elements/1.1/"
   xmlns:cc="http://creativecommons.org/ns#"
   xmlns:rdf="http://www.w3.org/1999/02/22-rdf-syntax-ns#"
   xmlns:svg="http://www.w3.org/2000/svg"
   xmlns="http://www.w3.org/2000/svg"
   xmlns:sodipodi="http://sodipodi.sourceforge.net/DTD/sodipodi-0.dtd"
   xmlns:inkscape="http://www.inkscape.org/namespaces/inkscape"
   inkscape:version="1.0beta1 (32d4812, 2019-09-19)"
   sodipodi:docname="5-uniform_250.svg"
   id="c:\kuniform\5u\5-uniform_250.svg"
   height="1000.0"
   width="978.98517"
   version="1.0">
  <metadata
     id="metadata2424">
    <rdf:RDF>
      <cc:Work
         rdf:about="">
        <dc:format>image/svg+xml</dc:format>
        <dc:type
           rdf:resource="http://purl.org/dc/dcmitype/StillImage" />
        <dc:title></dc:title>
      </cc:Work>
    </rdf:RDF>
  </metadata>
  <defs
     id="defs2422" />
  <sodipodi:namedview
     inkscape:current-layer="c:\kuniform\5u\5-uniform_250.svg"
     inkscape:window-maximized="0"
     inkscape:window-y="23"
     inkscape:window-x="0"
     inkscape:cy="458.16026"
     inkscape:cx="429.18109"
     inkscape:zoom="0.46037735"
     showgrid="false"
     id="namedview2420"
     inkscape:window-height="907"
     inkscape:window-width="1661"
     inkscape:pageshadow="2"
     inkscape:pageopacity="0"
     guidetolerance="10"
     gridtolerance="10"
     objecttolerance="10"
     borderopacity="1"
     inkscape:document-rotation="0"
     bordercolor="#666666"
     pagecolor="#ffffff" />
  <!-- X Coordinate transform: fx(x)=(x+68.545654)*0.86095566-->
  <!-- Y Coordinate transform: fy(y)=(1080.75-y)*0.86095566 -->
  <path
     d="m 862.297,973.526 37.281,21.523 M 42.127,844.382 4.846,865.906 m 932.012,64.572 37.281,-21.524 m -857.451,64.572 37.28,21.523 M 42.127,112.57 4.846,134.094 M 116.688,69.522 V 26.474 m 820.17,860.956 v 43.048 43.048 m 0,-86.096 37.281,21.524 M 42.127,758.287 4.846,779.811 M 42.127,801.334 4.846,779.811 M 79.407,908.954 V 865.906 M 116.688,930.478 79.407,908.954 42.127,887.43 4.846,865.906 m 932.012,-667.24 37.281,-21.524 M 79.407,47.998 42.127,26.474 m 782.89,21.524 V 4.95 m -37.281,21.524 37.281,21.524 37.28,21.524 M 42.127,155.618 4.846,134.094 M 116.688,69.522 79.407,47.998 V 4.95 m 111.842,64.572 37.28,-21.524 37.281,-21.524 m -149.122,0 L 79.407,47.998 42.127,69.522 4.846,91.046 m 745.61,860.956 v 43.047 m 74.561,-86.095 37.28,-21.524 m 74.561,-602.669 37.281,-21.524 m -37.281,-21.524 37.281,21.524 M 862.297,69.522 899.578,47.998 936.858,26.474 974.139,47.998 M 675.895,4.95 l 37.28,21.524 m 186.403,150.668 v -43.048 m -37.281,21.524 37.281,-21.524 37.28,-21.524 37.281,-21.524 m -111.842,21.524 37.281,21.524 37.28,21.524 37.281,21.524 M 303.09,4.95 340.371,26.474 M 228.529,91.046 V 47.998 m -111.841,107.62 37.28,-21.524 37.281,-21.524 37.28,-21.524 37.281,-21.524 m 633.768,753.336 37.28,-21.524 m 0,-731.812 37.281,-21.524 m -260.964,925.528 37.281,-21.524 37.28,-21.524 37.281,-21.524 v -43.048 m -111.842,64.572 37.281,21.524 37.28,21.524 37.281,21.523 M 42.127,629.143 4.846,650.667 m 37.281,150.667 37.28,-21.523 37.281,-21.524 m 74.561,215.239 37.28,-21.524 37.281,-21.524 m -37.281,21.524 v -43.048 m -111.841,21.524 37.28,-21.524 37.281,-21.524 m 596.487,0 37.281,-21.524 37.28,-21.524 37.281,-21.524 v -43.047 m 37.28,-64.572 37.281,-21.524 m -37.281,-21.524 37.281,21.524 M 116.688,887.43 79.407,908.954 42.127,930.478 4.846,952.002 m 37.281,-710.289 37.28,-21.524 m 74.561,-43.047 V 134.094 M 79.407,263.237 v -43.048 l 37.281,-21.523 37.28,-21.524 37.281,-21.524 M 42.127,327.809 4.846,349.333 M 42.127,370.857 4.846,349.333 M 42.127,543.048 4.846,564.572 M 42.127,586.096 4.846,564.572 m 857.451,236.762 37.281,-21.523 37.28,-21.524 37.281,-21.524 m -410.085,236.763 37.28,-21.524 37.281,-21.524 m 149.121,-86.096 37.281,21.524 37.28,21.524 37.281,21.524 37.28,21.524 37.281,21.524 M 79.407,693.715 v -43.048 m 820.171,344.382 37.28,-21.523 37.281,-21.524 m -596.488,0 v 43.047 M 116.688,672.191 79.407,693.715 42.127,715.239 4.846,736.763 M 116.688,715.239 79.407,693.715 42.127,672.191 4.846,650.667 m 335.525,279.811 37.28,21.524 37.281,21.524 m -223.683,-43.048 37.28,21.524 37.281,21.524 37.28,-21.524 37.281,-21.524 M 153.968,822.858 V 779.811 M 42.127,887.43 l 37.28,-21.524 37.281,-21.524 37.28,-21.524 37.281,-21.524 m 0,43.048 -37.281,-21.524 -37.28,-21.524 L 79.407,779.811 42.127,758.287 4.846,736.763 m 820.171,258.286 37.28,-21.523 V 930.478 887.43 844.382 801.334 758.287 m 0,0 37.281,21.524 37.28,21.523 37.281,21.524 M 936.858,500 974.139,478.476 m -37.281,-21.524 37.281,21.524 M 42.127,155.618 V 112.57 69.522 26.474 l 37.28,-21.524 37.281,21.524 37.28,21.524 37.281,21.524 37.28,21.524 37.281,21.524 m 596.487,172.191 37.281,-21.524 37.28,-21.524 M 713.175,112.57 l 37.281,-21.524 37.28,-21.524 37.281,-21.524 37.28,-21.524 37.281,21.524 37.28,21.524 37.281,21.524 M 750.456,134.094 V 91.046 m 37.28,64.572 37.281,-21.524 37.28,-21.524 M 452.212,47.998 V 4.95 M 116.688,241.713 79.407,263.237 42.127,284.761 4.846,306.285 M 340.371,112.57 377.651,91.046 414.932,69.522 452.212,47.998 489.493,26.474 M 191.249,198.666 V 155.618 112.57 69.522 26.474 m 0,172.192 -37.281,-21.524 -37.28,-21.524 L 79.407,134.094 42.127,112.57 4.846,91.046 M 116.688,284.761 79.407,263.237 42.127,241.713 4.846,220.189 M 79.407,478.476 V 435.428 M 42.127,973.526 4.846,952.002 m 484.647,21.524 37.28,21.523 m 74.561,-43.047 v -43.048 m -37.28,21.524 37.28,-21.524 37.281,-21.524 37.28,-21.524 37.28,-21.524 M 899.578,607.619 v -43.047 m 0,-172.191 V 349.333 M 564.054,69.522 601.334,47.998 638.615,26.474 M 601.334,91.046 V 47.998 m 260.963,322.859 37.281,-21.524 37.28,-21.524 37.281,-21.524 m -111.842,21.524 37.281,21.524 37.28,21.524 37.281,21.524 M 489.493,26.474 l 37.28,21.524 37.281,21.524 37.28,21.524 37.281,21.524 m 0,0 37.28,-21.524 37.28,-21.524 37.281,21.524 37.28,21.524 m 37.281,150.667 v -43.048 m -37.281,21.524 37.281,-21.524 37.28,-21.523 37.281,-21.524 37.28,-21.524 m -149.122,43.048 37.281,21.523 37.28,21.524 37.281,21.524 37.28,21.524 37.281,21.524 M 377.651,4.95 l 37.281,21.524 37.28,21.524 37.281,21.524 m 0,0 37.28,-21.524 37.281,-21.524 37.28,21.524 37.281,21.524 M 377.651,134.094 V 91.046 m -111.841,107.62 37.28,-21.524 37.281,-21.524 37.28,-21.524 37.281,-21.524 M 116.688,456.952 79.407,478.476 42.127,500 4.846,521.524 M 116.688,500 79.407,478.476 42.127,456.952 4.846,435.428 m 559.208,452.002 37.28,21.524 37.281,21.524 37.28,21.524 37.28,21.524 m -37.28,-107.62 v -43.048 m 74.561,-43.047 37.28,-21.524 m -372.804,129.143 37.28,21.524 m -335.524,-193.715 37.28,-21.524 37.281,-21.524 m 149.122,172.191 -37.281,21.524 -37.28,21.524 -37.281,21.524 -37.28,21.524 -37.281,-21.524 -37.28,-21.524 -37.281,-21.524 -37.28,-21.524 m 260.963,21.524 v -43.048 m -111.841,21.524 37.28,-21.524 37.281,-21.524 M 825.017,693.715 v -43.048 m 37.28,-64.571 37.281,-21.524 37.28,-21.524 37.281,-21.524 m -111.842,21.524 37.281,21.524 37.28,21.524 37.281,21.523 M 116.688,284.761 V 241.713 198.666 155.618 112.57 69.522 l 37.28,-21.524 37.281,-21.524 37.28,21.524 37.281,21.524 37.28,21.524 37.281,21.524 37.28,21.524 37.281,21.524 M 303.09,220.189 v -43.047 m -111.841,107.619 37.28,-21.524 m -74.561,129.144 v -43.048 m 0,258.286 v -43.047 m 37.281,322.858 37.28,21.524 37.281,21.524 37.28,21.524 37.281,21.524 37.28,-21.524 37.281,-21.524 37.28,-21.524 37.281,-21.524 m -37.281,-21.524 v 43.048 l 37.281,21.524 37.28,-21.524 37.281,-21.524 m 74.561,-43.048 37.28,-21.524 37.28,-21.524 37.281,-21.523 v -43.048 m -111.841,64.571 37.28,21.524 37.28,21.524 37.281,21.524 37.28,21.524 37.281,21.524 37.28,21.524 37.281,-21.524 37.28,-21.524 v -43.048 -43.048 -43.047 -43.048 -43.048 m -223.683,86.096 37.281,-21.524 37.28,-21.524 37.281,-21.524 37.28,-21.524 m -820.17,0 37.28,-21.524 37.281,-21.524 37.28,-21.524 37.281,-21.523 m 0,43.047 -37.281,-21.524 -37.28,-21.523 L 79.407,564.572 42.127,543.048 4.846,521.524 m 410.086,322.858 37.28,21.524 37.281,21.524 37.28,21.524 37.281,21.524 37.28,21.524 37.281,21.524 37.28,-21.524 37.28,-21.524 m -447.365,-86.096 37.28,21.524 37.281,21.524 37.28,-21.524 37.281,-21.524 M 228.529,736.763 v -43.048 m -111.841,107.619 37.28,-21.523 37.281,-21.524 37.28,-21.524 37.281,-21.524 m 0,43.048 -37.281,-21.524 -37.28,-21.524 -37.281,-21.524 -37.28,-21.524 -37.281,-21.524 -37.28,-21.524 m 745.609,43.048 37.281,-21.524 37.28,-21.524 37.281,-21.524 37.28,-21.523 m -149.122,43.047 37.281,21.524 37.28,21.524 37.281,21.524 37.28,21.524 37.281,21.524 M 825.017,478.476 v -43.048 m -298.244,-301.334 37.281,21.524 m 223.682,215.239 37.281,-21.524 37.28,-21.524 m -223.682,-129.143 37.28,-21.524 37.28,-21.524 37.281,-21.524 37.28,-21.524 37.281,21.524 37.28,21.524 37.281,21.524 37.28,21.524 m -260.963,21.523 v -43.047 m 37.28,64.571 37.281,-21.524 37.28,-21.523 m -298.243,-43.048 37.28,-21.524 37.281,-21.524 37.28,-21.524 37.281,-21.524 37.28,21.524 37.28,21.524 37.281,21.524 37.28,21.524 m -372.804,0 37.28,-21.524 37.281,-21.524 37.28,21.524 v 43.048 M 228.529,306.285 v -43.048 l 37.281,-21.524 37.28,-21.524 37.281,-21.523 M 42.127,370.857 v -43.048 -43.048 -43.048 -43.047 -43.048 l 37.28,-21.524 37.281,-21.524 37.28,21.524 37.281,21.524 37.28,21.524 37.281,21.524 37.28,21.523 37.281,21.524 m -223.683,129.144 37.28,-21.524 37.281,-21.524 37.28,-21.524 37.281,-21.524 m -223.683,172.191 37.28,-21.524 37.281,-21.524 37.28,-21.523 37.281,-21.524 M 4.846,306.285 l 37.281,21.524 37.28,21.524 37.281,21.524 37.28,21.524 37.281,21.523 m 74.561,387.43 37.28,21.524 37.281,21.524 37.28,21.524 37.281,21.524 37.28,-21.524 37.281,-21.524 37.28,-21.524 37.281,-21.524 m 223.682,43.048 v 43.048 43.048 43.048 l -37.28,21.523 -37.281,-21.523 V 930.478 887.43 844.382 801.334 758.287 715.239 m 0,0 37.281,21.524 37.28,21.524 37.281,21.524 37.28,21.523 37.281,21.524 37.28,21.524 37.281,-21.524 m -186.403,-365.906 37.281,-21.524 37.28,-21.524 37.281,-21.523 37.28,-21.524 m -149.122,43.047 37.281,21.524 37.28,21.524 37.281,21.524 37.28,21.524 37.281,21.524 M 265.81,112.57 l 37.28,-21.524 37.281,-21.524 37.28,21.524 37.281,21.524 37.28,21.524 37.281,21.524 37.28,21.524 37.281,21.524 m 0,0 37.28,-21.524 37.281,-21.524 37.28,21.524 37.28,21.524 m 37.281,150.667 v -43.048 m -37.281,21.524 37.281,-21.524 37.28,-21.524 37.281,-21.524 37.28,-21.524 m -149.122,43.048 37.281,21.524 37.28,21.524 37.281,21.524 37.28,21.524 37.281,21.524 37.28,21.523 37.281,-21.523 m -559.207,-150.668 37.28,-21.524 37.281,-21.523 37.28,-21.524 37.281,-21.524 37.28,21.524 37.281,21.524 37.28,21.523 37.28,21.524 M 265.81,327.809 V 284.761 241.713 198.666 155.618 112.57 69.522 26.474 L 303.09,4.95 m -37.28,322.859 -37.281,-21.524 -37.28,-21.524 -37.281,-21.524 -37.28,-21.524 -37.281,-21.524 -37.28,-21.523 -37.281,21.523 m 223.683,301.335 v -43.048 m 298.244,344.382 v -43.047 m -37.28,21.523 37.28,-21.523 37.281,-21.524 37.28,-21.524 37.281,-21.524 m -447.366,-86.096 37.28,-21.524 37.281,-21.523 m -149.122,172.191 37.28,21.524 37.281,21.523 37.28,21.524 37.281,21.524 37.28,-21.524 37.281,-21.524 37.28,-21.523 37.281,-21.524 m -37.281,21.524 v -43.048 m -37.28,-21.524 37.28,21.524 37.281,21.524 37.28,21.524 37.281,21.523 37.28,21.524 37.281,21.524 37.28,-21.524 37.281,-21.524 M 265.81,758.287 303.09,736.763 340.371,715.239 M 750.456,564.572 V 521.524 M 452.212,263.237 v -43.048 m -111.841,107.62 37.28,-21.524 37.281,-21.524 37.28,-21.524 37.281,-21.524 m -372.805,344.383 37.28,-21.524 37.281,-21.524 37.28,-21.524 L 265.81,500 m 0,43.048 L 228.529,521.524 191.249,500 153.968,478.476 116.688,456.952 79.407,435.428 42.127,413.904 4.846,435.428 m 484.647,322.859 37.28,21.524 37.281,21.523 37.28,21.524 37.281,21.524 37.28,21.524 37.28,21.524 37.281,-21.524 37.28,-21.524 v -43.048 -43.047 -43.048 -43.048 -43.048 m -447.365,129.144 37.28,21.524 37.281,21.523 37.28,-21.523 37.281,-21.524 m 111.841,-21.524 v -43.048 m 74.561,-43.048 37.28,-21.524 M 303.09,650.667 v -43.048 m -111.841,107.62 37.28,-21.524 37.281,-21.524 37.28,-21.524 37.281,-21.524 m -298.244,-43.047 37.28,-21.524 37.281,-21.524 37.28,21.524 37.281,21.524 37.28,21.523 37.281,21.524 37.28,21.524 37.281,21.524 m 223.683,43.048 37.28,-21.524 37.281,-21.524 37.28,-21.524 v -43.048 m 37.28,-64.571 37.281,-21.524 37.28,-21.524 37.281,-21.524 37.28,-21.524 M 713.175,500 l 37.281,21.524 37.28,21.524 37.281,21.524 37.28,21.524 37.281,21.523 37.28,21.524 37.281,-21.524 m -410.085,-322.858 37.28,-21.524 37.281,-21.524 37.28,-21.524 37.28,-21.523 37.281,21.523 37.28,21.524 37.281,21.524 37.28,21.524 m -260.963,21.524 v -43.048 m -260.963,-21.524 37.28,-21.524 37.281,-21.523 37.28,21.523 37.281,21.524 37.28,21.524 37.281,21.524 37.28,21.524 37.281,21.524 m 0,0 37.28,-21.524 37.28,-21.524 M 191.249,413.904 v -43.047 -43.048 -43.048 -43.048 -43.047 l 37.28,-21.524 37.281,-21.524 37.28,21.524 37.281,21.524 37.28,21.523 37.281,21.524 37.28,21.524 37.281,21.524 m 0,0 37.28,-21.524 37.281,-21.524 37.28,21.524 37.281,21.524 M 377.651,349.333 V 306.285 M 265.81,413.904 303.09,392.381 m 0,43.047 v -43.047 l 37.281,-21.524 37.28,-21.524 37.281,-21.524 m 149.122,344.382 37.28,21.524 37.281,21.524 37.28,21.524 37.28,21.524 37.281,21.524 37.28,21.523 37.281,-21.523 37.28,-21.524 v -43.048 -43.048 -43.048 -43.047 -43.048 m -223.682,86.095 37.28,-21.524 37.28,-21.523 37.281,-21.524 37.28,-21.524 m -372.804,129.143 37.28,21.524 M 638.615,973.526 V 930.478 887.43 844.382 801.334 758.287 715.239 672.191 629.143 586.096 m 0,0 37.28,21.523 37.28,21.524 37.281,21.524 37.28,21.524 37.281,21.524 37.28,21.524 37.281,-21.524 37.28,-21.524 V 629.143 586.096 543.048 500 456.952 M 675.895,435.428 v -43.047 m -37.28,21.523 37.28,-21.523 37.28,-21.524 37.281,-21.524 37.28,-21.524 m -149.121,43.048 37.28,21.524 37.28,21.523 37.281,21.524 37.28,21.524 37.281,21.524 37.28,21.524 37.281,-21.524 37.28,-21.524 V 413.904 370.857 327.809 284.761 241.713 198.666 155.618 112.57 69.522 26.474 M 116.688,500 v -43.048 -43.048 -43.047 -43.048 -43.048 l 37.28,-21.524 37.281,-21.524 37.28,21.524 37.281,21.524 37.28,21.524 37.281,21.524 37.28,21.524 37.281,21.524 M 191.249,500 l 37.28,-21.524 37.281,-21.524 37.28,-21.524 37.281,-21.524 m 0,43.048 V 413.904 370.857 327.809 284.761 241.713 198.666 155.618 112.57 69.522 26.474 L 377.651,4.95 m -37.28,452.002 -37.281,-21.524 -37.28,-21.524 -37.281,-21.523 -37.28,-21.524 -37.281,-21.524 -37.28,-21.524 -37.281,21.524 -37.28,21.524 v 43.047 43.048 43.048 43.048 43.048 43.047 43.048 43.048 43.048 43.047 43.048 43.048 43.048 43.048 l 37.28,21.523 m 111.842,-322.858 37.28,21.524 37.281,21.524 37.28,21.524 37.281,21.524 37.28,-21.524 37.281,-21.524 37.28,-21.524 37.281,-21.524 m 74.561,0 -37.281,21.524 -37.28,21.524 -37.281,-21.524 v -43.048 m -37.28,-21.524 37.28,21.524 37.281,21.524 37.28,21.524 37.281,21.524 37.28,21.524 37.281,21.524 37.28,-21.524 37.28,-21.524 V 672.191 629.143 586.096 543.048 500 m -372.804,172.191 37.28,-21.524 37.281,-21.524 m 111.841,-279.81 37.281,21.524 m -74.561,0 37.28,-21.524 37.281,-21.524 37.28,-21.524 37.281,-21.524 37.28,21.524 37.28,21.524 37.281,21.524 37.28,21.524 m -260.963,21.524 v -43.048 l -37.28,-21.524 -37.281,21.524 -37.28,21.524 m -37.281,193.715 v -43.048 m -111.841,64.572 37.28,21.523 37.281,21.524 37.28,21.524 37.281,21.524 37.28,-21.524 37.281,-21.524 37.28,-21.524 37.281,-21.523 m -298.244,43.047 37.28,-21.524 37.281,-21.523 37.28,-21.524 37.281,-21.524 M 79.407,995.049 116.688,973.526 V 930.478 887.43 844.382 801.334 758.287 715.239 672.191 629.143 586.096 543.048 500 l 37.28,-21.524 37.281,-21.524 37.28,21.524 37.281,21.524 37.28,21.524 37.281,21.524 37.28,21.524 37.281,21.524 M 601.334,521.524 V 478.476 M 265.81,543.048 V 500 456.952 413.904 370.857 327.809 l 37.28,-21.524 37.281,-21.524 37.28,21.524 37.281,21.524 37.28,21.524 37.281,21.524 37.28,21.524 37.281,21.523 m 0,0 37.28,-21.523 37.281,-21.524 m -223.683,86.095 37.28,-21.524 37.281,-21.524 37.28,-21.523 37.281,-21.524 37.28,21.524 37.281,21.523 37.28,21.524 37.28,21.524 37.281,-21.524 37.28,-21.524 M 526.773,607.619 v -43.047 m -37.28,21.524 37.28,-21.524 37.281,-21.524 37.28,-21.524 L 638.615,500 m 37.28,-495.05 -37.28,21.524 v 43.048 43.048 43.048 43.048 43.047 43.048 43.048 43.048 43.047 43.048 43.048 43.048 43.048 l -37.281,21.523 -37.28,21.524 -37.281,-21.524 -37.28,-21.523 -37.281,-21.524 -37.28,-21.524 -37.281,-21.524 -37.28,-21.524 -37.281,21.524 -37.28,21.524 v 43.048 43.047 43.048 43.048 43.048 43.047 43.048 43.048 43.048 43.048 M 564.054,500 l 37.28,-21.524 37.281,-21.524 37.28,-21.524 37.28,-21.524 M 526.773,995.049 564.054,973.526 V 930.478 887.43 844.382 801.334 758.287 715.239 672.191 629.143 586.096 543.048 500 456.952 m 0,0 37.28,21.524 37.281,21.524 37.28,21.524 37.28,21.524 37.281,21.524 37.28,21.524 37.281,-21.524 37.28,-21.524 V 500 456.952 413.904 370.857 327.809 284.761 241.713 198.666 155.618 112.57 69.522 26.474 L 825.017,4.95 787.736,26.474 M 452.212,478.476 v -43.048 m -111.841,107.62 37.28,-21.524 37.281,-21.524 37.28,-21.524 37.281,-21.524 m 0,86.096 37.28,21.524 37.281,21.524 37.28,21.523 37.281,21.524 37.28,21.524 37.28,21.524 37.281,-21.524 37.28,-21.524 V 586.096 543.048 500 456.952 413.904 370.857 327.809 284.761 241.713 198.666 155.618 112.57 69.522 26.474 L 750.456,4.95 m -335.524,581.146 37.28,-21.524 37.281,-21.524 m -74.561,430.478 -37.281,21.523 -37.28,-21.523 V 930.478 887.43 844.382 801.334 758.287 715.239 672.191 629.143 586.096 543.048 500 456.952 l 37.28,-21.524 37.281,-21.524 37.28,21.524 37.281,21.524 37.28,21.524 37.281,21.524 37.28,21.524 37.281,21.524 37.28,-21.524 L 713.175,500 V 456.952 413.904 370.857 327.809 284.761 241.713 198.666 155.618 112.57 69.522 26.474 L 750.456,4.95 M 489.493,500 V 456.952 413.904 370.857 327.809 284.761 241.713 198.666 155.618 112.57 69.522 26.474 L 452.212,4.95 414.932,26.474 v 43.048 43.048 43.048 43.048 43.047 43.048 43.048 43.048 43.047 43.048 43.048 43.048 43.048 43.047 43.048 43.048 43.048 43.047 43.048 43.048 43.048 43.048 l 37.28,21.523 m -298.244,0 37.281,-21.523 V 930.478 887.43 844.382 801.334 758.287 715.239 672.191 629.143 586.096 543.048 500 456.952 413.904 l 37.28,-21.523 37.281,-21.524 37.28,21.524 37.281,21.523 37.28,21.524 37.281,21.524 37.28,21.524 37.281,21.524 m -37.281,495.049 37.281,-21.523 V 930.478 887.43 844.382 801.334 758.287 715.239 672.191 629.143 586.096 543.048 500 l 37.28,-21.524 37.281,-21.524 V 413.904 370.857 327.809 284.761 241.713 198.666 155.618 112.57 69.522 26.474 M 42.127,69.522 79.407,47.998 116.688,69.522 V 112.57 L 79.407,134.094 42.127,112.57 Z m 820.17,904.004 -37.28,21.523 -37.281,-21.523 v -43.048 l 37.281,-21.524 37.28,21.524 z m -745.609,0 v -43.048 l 37.28,-21.524 37.281,21.524 v 43.048 l -37.281,21.523 z M 936.858,69.522 v 43.048 l -37.28,21.524 -37.281,-21.524 V 69.522 l 37.281,-21.524 z m -820.17,0 37.28,-21.524 37.281,21.524 v 43.048 l -37.281,21.524 -37.28,-21.524 z m 820.17,817.908 -37.28,21.524 -37.281,-21.524 v -43.048 l 37.281,-21.524 37.28,21.524 z M 42.127,844.382 v -43.048 l 37.28,-21.523 37.281,21.523 v 43.048 L 79.407,865.906 Z M 787.736,26.474 V 69.522 L 750.456,91.046 713.175,69.522 V 26.474 L 750.456,4.95 Z m 37.281,21.524 37.28,21.524 v 43.048 l -37.28,21.524 -37.281,-21.524 V 69.522 Z m -782.89,107.62 37.28,-21.524 37.281,21.524 v 43.048 L 79.407,220.189 42.127,198.666 Z M 265.81,26.474 303.09,4.95 340.371,26.474 V 69.522 L 303.09,91.046 265.81,69.522 Z m 671.048,947.052 -37.28,21.523 -37.281,-21.523 v -43.048 l 37.281,-21.524 37.28,21.524 z M 750.456,952.002 713.175,930.478 V 887.43 l 37.281,-21.524 37.28,21.524 v 43.048 z M 42.127,758.287 v -43.048 l 37.28,-21.524 37.281,21.524 v 43.048 l -37.281,21.524 z m 74.561,129.143 v -43.048 l 37.28,-21.524 37.281,21.524 v 43.048 l -37.281,21.524 z M 713.175,26.474 v 43.048 l -37.28,21.524 -37.28,-21.524 V 26.474 L 675.895,4.95 Z m 223.683,172.192 v 43.047 l -37.28,21.524 -37.281,-21.524 v -43.047 l 37.281,-21.524 z M 42.127,973.526 v -43.048 l 37.28,-21.524 37.281,21.524 v 43.048 L 79.407,995.049 Z M 340.371,26.474 377.651,4.95 414.932,26.474 V 69.522 L 377.651,91.046 340.371,69.522 Z M 228.529,91.046 265.81,112.57 v 43.048 l -37.281,21.524 -37.28,-21.524 V 112.57 Z M 489.493,500 526.773,478.476 564.054,500 v 43.048 l -37.281,21.524 -37.28,-21.524 z m 186.402,452.002 -37.28,-21.524 V 887.43 l 37.28,-21.524 37.28,21.524 v 43.048 z m 186.402,-107.62 -37.28,21.524 -37.281,-21.524 v -43.048 l 37.281,-21.523 37.28,21.523 z M 303.09,952.002 265.81,930.478 V 887.43 l 37.28,-21.524 37.281,21.524 v 43.048 z m -74.561,-43.048 -37.28,-21.524 v -43.048 l 37.28,-21.524 37.281,21.524 v 43.048 z m 708.329,-150.667 -37.28,21.524 -37.281,-21.524 v -43.048 l 37.281,-21.524 37.28,21.524 z m 0,-86.096 -37.28,21.524 -37.281,-21.524 v -43.048 l 37.281,-21.524 37.28,21.524 z m 0,-387.43 v 43.048 l -37.28,21.524 -37.281,-21.524 v -43.048 l 37.281,-21.524 z M 862.297,155.618 v 43.048 l -37.28,21.523 -37.281,-21.523 v -43.048 l 37.281,-21.524 z M 303.09,91.046 340.371,112.57 v 43.048 L 303.09,177.142 265.81,155.618 V 112.57 Z m -186.402,107.62 37.28,-21.524 37.281,21.524 v 43.047 l -37.281,21.524 -37.28,-21.524 z m -74.561,86.095 37.28,-21.524 37.281,21.524 v 43.048 l -37.281,21.524 -37.28,-21.524 z m 0,86.096 37.28,-21.524 37.281,21.524 v 43.047 l -37.281,21.524 -37.28,-21.524 z m 0,258.286 v -43.047 l 37.28,-21.524 37.281,21.524 v 43.047 L 79.407,650.667 Z M 42.127,500 79.407,478.476 116.688,500 v 43.048 l -37.281,21.524 -37.28,-21.524 z m 521.927,473.526 -37.281,21.523 -37.28,-21.523 v -43.048 l 37.28,-21.524 37.281,21.524 z m -149.122,0 v -43.048 l 37.28,-21.524 37.281,21.524 v 43.048 l -37.281,21.523 z m 372.804,-129.144 -37.28,21.524 -37.281,-21.524 v -43.048 l 37.281,-21.523 37.28,21.523 z m -410.085,107.62 -37.28,-21.524 V 887.43 l 37.28,-21.524 37.281,21.524 v 43.048 z M 116.688,758.287 v -43.048 l 37.28,-21.524 37.281,21.524 v 43.048 l -37.281,21.524 z m 745.609,0 -37.28,21.524 -37.281,-21.524 v -43.048 l 37.281,-21.524 37.28,21.524 z m 74.561,-215.239 -37.28,21.524 -37.281,-21.524 V 500 l 37.281,-21.524 37.28,21.524 z m 0,-86.096 -37.28,21.524 -37.281,-21.524 v -43.048 l 37.281,-21.523 37.28,21.523 z M 675.895,91.046 l 37.28,21.524 v 43.048 l -37.28,21.524 -37.28,-21.524 V 112.57 Z m 74.561,43.048 37.28,21.524 v 43.048 l -37.28,21.523 -37.281,-21.523 V 155.618 Z M 452.212,47.998 489.493,69.522 v 43.048 l -37.281,21.524 -37.28,-21.524 V 69.522 Z m 74.561,0 37.281,21.524 v 43.048 l -37.281,21.524 -37.28,-21.524 V 69.522 Z m -335.524,150.668 37.28,-21.524 37.281,21.524 v 43.047 l -37.281,21.524 -37.28,-21.524 z m -74.561,86.095 37.28,-21.524 37.281,21.524 v 43.048 l -37.281,21.524 -37.28,-21.524 z m 484.646,624.193 -37.28,-21.524 v -43.048 l 37.28,-21.524 37.281,21.524 V 887.43 Z M 116.688,672.191 v -43.048 l 37.28,-21.524 37.281,21.524 v 43.048 l -37.281,21.524 z m 74.561,129.143 v -43.047 l 37.28,-21.524 37.281,21.524 v 43.047 l -37.281,21.524 z M 601.334,91.046 638.615,112.57 v 43.048 l -37.281,21.524 -37.28,-21.524 V 112.57 Z m 260.963,193.715 v 43.048 l -37.28,21.524 -37.281,-21.524 v -43.048 l 37.281,-21.524 z m -484.646,-150.667 37.281,21.524 v 43.048 l -37.281,21.523 -37.28,-21.523 v -43.048 z m -186.402,322.858 -37.281,21.524 -37.28,-21.524 v -43.048 l 37.28,-21.523 37.281,21.523 z m 0,86.096 -37.281,21.524 -37.28,-21.524 V 500 l 37.28,-21.524 37.281,21.524 z m 335.524,279.81 37.281,21.524 v 43.048 l -37.281,21.524 -37.28,-21.524 v -43.048 z m 149.122,-86.095 37.28,21.524 v 43.047 l -37.28,21.524 -37.28,-21.524 v -43.047 z m -298.244,43.048 37.281,21.523 v 43.048 l -37.281,21.524 -37.28,-21.524 v -43.048 z m -74.561,-43.048 37.281,21.524 v 43.047 l -37.281,21.524 -37.28,-21.524 v -43.047 z m 484.646,-150.667 37.281,-21.524 37.28,21.524 v 43.047 l -37.28,21.524 -37.281,-21.524 z m 0,-43.048 V 500 l 37.281,-21.524 37.28,21.524 v 43.048 l -37.28,21.524 z m 0,-129.144 v -43.047 l 37.281,-21.524 37.28,21.524 v 43.047 l -37.28,21.524 z m 0,-172.191 v 43.048 l -37.28,21.524 -37.281,-21.524 v -43.048 l 37.281,-21.524 z m -335.524,-107.619 37.281,21.524 v 43.048 l -37.281,21.523 -37.28,-21.523 V 155.618 Z M 265.81,284.761 v -43.048 l 37.28,-21.524 37.281,21.524 v 43.048 l -37.281,21.524 z m 149.122,516.573 37.28,-21.523 37.281,21.523 v 43.048 l -37.281,21.524 -37.28,-21.524 z m 223.683,-43.047 v 43.047 l -37.281,21.524 -37.28,-21.524 v -43.047 l 37.28,-21.524 z m 111.841,-107.62 37.28,21.524 v 43.048 l -37.28,21.524 -37.281,-21.524 v -43.048 z m -484.646,21.524 -37.281,21.524 -37.28,-21.524 v -43.048 l 37.28,-21.524 37.281,21.524 z m 484.646,-21.524 -37.281,-21.524 v -43.047 l 37.281,-21.524 37.28,21.524 v 43.047 z m -186.402,-452.001 37.28,-21.524 37.281,21.524 v 43.047 l -37.281,21.524 -37.28,-21.524 z m 111.841,107.619 -37.28,-21.524 v -43.048 l 37.28,-21.524 37.28,21.524 v 43.048 z M 564.054,198.666 v 43.047 l -37.281,21.524 -37.28,-21.524 v -43.047 l 37.28,-21.524 z m -223.683,43.047 37.28,-21.524 37.281,21.524 v 43.048 l -37.281,21.524 -37.28,-21.524 z M 191.249,370.857 v -43.048 l 37.28,-21.524 37.281,21.524 v 43.048 l -37.281,21.524 z m 0,86.095 v -43.048 l 37.28,-21.523 37.281,21.523 v 43.048 l -37.281,21.524 z m 37.28,150.667 -37.28,-21.523 v -43.048 l 37.28,-21.524 37.281,21.524 v 43.048 z m 447.366,129.144 -37.28,-21.524 v -43.048 l 37.28,-21.524 37.28,21.524 v 43.048 z m -372.805,0 -37.28,-21.524 v -43.048 l 37.28,-21.524 37.281,21.524 v 43.048 z m 484.646,-322.859 -37.28,21.524 -37.281,-21.524 v -43.047 l 37.281,-21.524 37.28,21.524 z m 0,86.096 -37.28,21.524 L 713.175,500 v -43.048 l 37.281,-21.524 37.28,21.524 z M 340.371,370.857 303.09,392.381 265.81,370.857 v -43.048 l 37.28,-21.524 37.281,21.524 z m 186.402,322.858 37.281,21.524 v 43.048 l -37.281,21.524 -37.28,-21.524 v -43.048 z m -74.561,0 37.281,21.524 v 43.048 l -37.281,21.524 -37.28,-21.524 v -43.048 z m -74.561,-43.048 37.281,21.524 v 43.048 l -37.281,21.524 -37.28,-21.524 v -43.048 z m 260.964,-279.81 v -43.048 l 37.28,-21.524 37.28,21.524 v 43.048 l -37.28,21.524 z m -186.403,-21.524 -37.28,-21.524 v -43.048 l 37.28,-21.524 37.281,21.524 v 43.048 z m 74.561,0 -37.28,-21.524 v -43.048 l 37.28,-21.524 37.281,21.524 v 43.048 z M 340.371,543.048 v 43.048 l -37.281,21.523 -37.28,-21.523 v -43.048 l 37.28,-21.524 z M 340.371,500 303.09,521.524 265.81,500 v -43.048 l 37.28,-21.524 37.281,21.524 z m 260.963,107.619 37.281,21.524 v 43.048 l -37.281,21.524 -37.28,-21.524 v -43.048 z m 37.281,-64.571 37.28,-21.524 37.28,21.524 v 43.048 l -37.28,21.523 -37.28,-21.523 z m 0,-86.096 37.28,-21.524 37.28,21.524 V 500 L 675.895,521.524 638.615,500 Z m -37.281,-64.571 -37.28,-21.524 v -43.048 l 37.28,-21.524 37.281,21.524 v 43.048 z m -223.683,43.047 -37.28,-21.524 v -43.047 l 37.28,-21.524 37.281,21.524 v 43.047 z m 149.122,172.191 37.281,21.524 v 43.048 l -37.281,21.524 -37.28,-21.524 V 629.143 Z M 414.932,586.096 v 43.047 l -37.281,21.524 -37.28,-21.524 v -43.047 l 37.28,-21.524 z m 149.122,-43.048 37.28,-21.524 37.281,21.524 v 43.048 l -37.281,21.523 -37.28,-21.523 z m -111.842,-107.62 -37.28,-21.524 v -43.047 l 37.28,-21.524 37.281,21.524 v 43.047 z M 414.932,500 377.651,521.524 340.371,500 v -43.048 l 37.28,-21.524 37.281,21.524 z m 37.28,64.572 37.281,21.524 v 43.047 l -37.281,21.524 -37.28,-21.524 v -43.047 z m 111.842,-107.62 v -43.048 l 37.28,-21.523 37.281,21.523 v 43.048 l -37.281,21.524 z m -37.281,21.524 -37.28,-21.524 v -43.048 l 37.28,-21.523 37.281,21.523 v 43.048 z M 489.493,500 v 43.048 l -37.281,21.524 -37.28,-21.524 V 500 l 37.28,-21.524 z M 42.127,887.43 4.846,865.906 42.127,844.382 Z m 0,43.048 V 887.43 l 37.28,21.524 z m 37.28,-882.48 37.281,-21.524 v 43.048 z m 37.281,-21.524 37.28,21.524 -37.28,21.524 z m 820.17,904.004 37.281,-21.524 -37.281,-21.524 z m 0,0 -37.28,-21.524 37.28,-21.524 z M 42.127,758.287 v 43.047 L 4.846,779.811 Z m 0,129.143 37.28,-21.524 v 43.048 z m 0,0 v -43.048 l 37.28,21.524 z m 37.28,21.524 v -43.048 l 37.281,21.524 z m 0,0 37.281,-21.524 v 43.048 z m 857.451,-753.336 37.281,21.524 -37.281,21.524 z M 825.017,4.95 l 37.28,21.524 -37.28,21.524 z m 0,0 V 47.998 L 787.736,26.474 Z m 111.841,107.62 v 43.048 l -37.28,-21.524 z M 862.297,26.474 v 43.048 l -37.28,-21.524 z m 0,0 37.281,21.524 -37.281,21.524 z M 42.127,112.57 v 43.048 L 4.846,134.094 Z m 0,0 37.28,21.524 -37.28,21.524 z M 79.407,4.95 116.688,26.474 79.407,47.998 Z m 111.842,21.524 37.28,21.524 -37.28,21.524 z m 0,0 V 69.522 L 153.968,47.998 Z m 708.329,882.48 -37.281,21.524 V 887.43 Z M 42.127,69.522 V 112.57 L 4.846,91.046 Z m 708.329,925.527 -37.281,-21.523 37.281,-21.524 z m 0,0 37.28,-21.523 -37.28,-21.524 z m 111.841,-64.571 -37.28,-21.524 37.28,-21.524 z m -74.561,43.048 -37.28,-21.524 37.28,-21.524 z M 42.127,758.287 4.846,736.763 42.127,715.239 Z m 0,0 37.28,21.524 -37.28,21.523 z m 0,-731.813 37.28,21.524 -37.28,21.524 z m 37.28,839.432 37.281,-21.524 v 43.048 z m 111.842,107.62 37.28,-21.524 -37.28,-21.524 z m -74.561,-86.096 37.28,21.524 -37.28,21.524 z m 820.17,-43.048 37.281,-21.524 -37.281,-21.524 z m 0,-559.621 37.281,-21.524 -37.281,-21.524 z m 0,-129.143 -37.28,21.524 v -43.048 z m 0,0 v 43.048 l -37.28,-21.524 z M 787.736,26.474 825.017,47.998 787.736,69.522 Z m 111.842,107.62 v 43.048 l -37.281,-21.524 z m 0,0 -37.281,21.524 V 112.57 Z m 37.28,-64.572 -37.28,-21.524 37.28,-21.524 z M 79.407,134.094 116.688,112.57 v 43.048 z M 265.81,26.474 V 69.522 L 228.529,47.998 Z m -37.281,21.524 37.281,21.524 -37.281,21.524 z m 0,0 v 43.048 l -37.28,-21.524 z m -111.841,64.572 37.28,21.524 -37.28,21.524 z m 74.561,-43.048 37.28,21.524 -37.28,21.524 z M 42.127,198.666 v 43.047 L 4.846,220.189 Z m 894.731,645.716 -37.28,-21.524 37.28,-21.524 z m 0,-774.86 37.281,-21.524 -37.281,-21.524 z m -74.561,817.908 -37.28,21.524 v -43.048 z m 0,0 -37.28,-21.524 37.28,-21.524 z m -149.122,86.096 37.281,-21.524 -37.281,-21.524 z m 0,0 -37.28,-21.524 37.28,-21.524 z m 111.842,-64.572 -37.281,-21.524 37.281,-21.524 z m 0,0 -37.281,21.524 V 887.43 Z M 42.127,672.191 4.846,650.667 42.127,629.143 Z m 0,43.048 v -43.048 l 37.28,21.524 z M 936.858,69.522 974.139,91.046 936.858,112.57 Z M 79.407,779.811 116.688,758.287 v 43.047 z M 265.81,973.526 228.529,952.002 265.81,930.478 Z m 0,0 37.28,-21.524 -37.28,-21.524 z m -37.281,-21.524 -37.28,-21.524 37.28,-21.524 z m 0,0 37.281,-21.524 -37.281,-21.524 z M 116.688,844.382 v -43.048 l 37.28,21.524 z m 74.561,86.096 37.28,-21.524 -37.28,-21.524 z m 0,0 -37.281,-21.524 37.281,-21.524 z m 745.609,-129.144 -37.28,21.524 v -43.047 z m 0,0 -37.28,-21.523 37.28,-21.524 z m 0,-43.047 37.281,-21.524 -37.281,-21.524 z m 0,-43.048 37.281,-21.524 -37.281,-21.524 z m 0,-430.478 37.281,21.524 -37.281,21.524 z m 0,0 -37.28,-21.524 37.28,-21.524 z m -37.28,-107.619 -37.281,21.524 V 155.618 Z M 787.736,69.522 v 43.048 l -37.28,-21.524 z m 74.561,86.096 -37.28,-21.524 37.28,-21.524 z m -820.17,43.048 37.28,21.523 -37.28,21.524 z m 74.561,-43.048 37.28,-21.524 v 43.048 z m 0,0 37.28,21.524 -37.28,21.524 z M 265.81,69.522 V 112.57 L 228.529,91.046 Z m 0,0 37.28,21.524 -37.28,21.524 z m -111.842,64.572 37.281,21.524 -37.281,21.524 z m 0,0 37.281,-21.524 v 43.048 z M 42.127,241.713 79.407,220.189 v 43.048 z m 0,0 37.28,21.524 -37.28,21.524 z m 0,43.048 v 43.048 L 4.846,306.285 Z m 0,43.048 v 43.048 L 4.846,349.333 Z m 0,86.095 v 43.048 L 4.846,435.428 Z m 0,86.096 v 43.048 L 4.846,521.524 Z m 0,43.048 v 43.048 L 4.846,564.572 Z m 857.451,279.81 -37.281,-21.524 37.281,-21.523 z m 0,0 -37.281,21.524 v -43.048 z m -260.963,150.668 -37.281,-21.524 37.281,-21.524 z m 0,0 37.28,-21.524 -37.28,-21.524 z m 186.402,-107.62 -37.281,21.524 v -43.048 z m -37.281,21.524 -37.28,-21.524 37.28,-21.524 z M 42.127,672.191 79.407,650.667 v 43.048 z m 0,0 v -43.048 l 37.28,21.524 z m 894.731,301.335 37.281,-21.524 -37.281,-21.524 z m -559.207,21.523 -37.28,-21.523 37.28,-21.524 z m 0,0 37.281,-21.523 -37.281,-21.524 z M 79.407,693.715 v -43.048 l 37.281,21.524 z m 0,0 37.281,-21.524 v 43.048 z m 260.964,279.811 37.28,-21.524 -37.28,-21.524 z m 0,0 -37.281,-21.524 37.281,-21.524 z m -223.683,-172.192 37.28,-21.523 v 43.047 z m 0,0 v -43.047 l 37.28,21.524 z M 265.81,930.478 228.529,908.954 265.81,887.43 Z M 153.968,822.858 v -43.047 l 37.281,21.523 z m 0,0 37.281,-21.524 v 43.048 z m 745.61,-43.047 -37.281,21.523 v -43.047 z m 37.28,-64.572 -37.28,-21.524 37.28,-21.524 z m 0,-86.096 37.281,-21.524 -37.281,-21.523 z m 0,-86.095 37.281,-21.524 L 936.858,500 Z m 0,-43.048 37.281,-21.524 -37.281,-21.524 z m 0,-129.143 37.281,21.524 -37.281,21.523 z M 42.127,26.474 79.407,4.95 v 43.048 z m 894.731,301.335 v 43.048 l -37.28,-21.524 z M 638.615,26.474 V 69.522 L 601.334,47.998 Z m 260.963,236.763 -37.281,21.524 V 241.713 Z M 713.175,69.522 750.456,91.046 713.175,112.57 Z m 0,0 v 43.048 l -37.28,-21.524 z m 37.281,21.524 37.28,21.524 -37.28,21.524 z m 0,0 v 43.048 L 713.175,112.57 Z m 111.841,107.62 v 43.047 l -37.28,-21.524 z M 787.736,112.57 v 43.048 l -37.28,-21.524 z m 0,0 37.281,21.524 -37.281,21.524 z M 452.212,4.95 489.493,26.474 452.212,47.998 Z m 0,0 v 43.048 l -37.28,-21.524 z m -37.28,21.524 37.28,21.524 -37.28,21.524 z m -335.525,193.715 37.281,21.524 -37.281,21.524 z m 0,0 37.281,-21.523 v 43.047 z m 260.964,-150.667 37.28,21.524 -37.28,21.524 z m 0,0 V 112.57 L 303.09,91.046 Z m -186.403,107.62 37.281,-21.524 v 43.048 z m 37.281,-21.524 37.28,21.524 -37.28,21.524 z M 79.407,263.237 116.688,241.713 v 43.048 z m -37.28,64.572 37.28,21.524 -37.28,21.524 z m 0,86.095 37.28,21.524 -37.28,21.524 z m 0,43.048 37.28,-21.524 v 43.048 z m 0,0 37.28,21.524 L 42.127,500 Z m 0,86.096 37.28,21.524 -37.28,21.524 z m 0,430.478 -37.281,-21.524 37.281,-21.524 z m 521.927,0 37.28,-21.524 -37.28,-21.524 z m 37.28,-21.524 -37.28,-21.524 37.28,-21.524 z m 0,0 37.281,-21.524 -37.281,-21.524 z m 260.963,-150.668 -37.28,-21.523 37.28,-21.524 z M 638.615,930.478 601.334,908.954 638.615,887.43 Z m 74.56,-43.048 -37.28,-21.524 37.28,-21.524 z m 0,0 37.281,-21.524 -37.281,-21.524 z M 79.407,650.667 116.688,629.143 v 43.048 z m 335.525,322.859 -37.281,-21.524 37.281,-21.524 z m -298.244,-301.335 37.28,21.524 -37.28,21.524 z m 37.28,107.62 37.281,-21.524 v 43.047 z M 265.81,887.43 303.09,865.906 265.81,844.382 Z m -74.561,-86.096 37.28,21.524 -37.28,21.524 z m 708.329,-107.619 -37.281,21.524 v -43.048 z m 37.28,-64.572 -37.28,-21.524 37.28,-21.523 z m 0,-43.047 -37.28,21.523 v -43.047 z m 0,0 -37.28,-21.524 37.28,-21.524 z m 0,-86.096 -37.28,-21.524 37.28,-21.524 z m 0,-129.143 -37.28,21.524 v -43.048 z m 0,0 v 43.047 l -37.28,-21.523 z M 564.054,26.474 l 37.28,21.524 -37.28,21.524 z m 0,0 V 69.522 L 526.773,47.998 Z m 37.28,21.524 37.281,21.524 -37.281,21.524 z m 0,0 v 43.048 l -37.28,-21.524 z m 298.244,301.335 v 43.048 l -37.281,-21.524 z m 0,0 -37.281,21.524 V 327.809 Z M 638.615,69.522 V 112.57 L 601.334,91.046 Z m 0,0 37.28,21.524 -37.28,21.524 z m 223.682,172.191 -37.28,21.524 v -43.048 z m 0,0 v 43.048 l -37.28,-21.524 z M 713.175,112.57 l 37.281,21.524 -37.281,21.524 z m 111.842,107.619 v 43.048 l -37.281,-21.524 z m 0,0 -37.281,21.524 V 198.666 Z M 489.493,26.474 V 69.522 L 452.212,47.998 Z m 0,0 37.28,21.524 -37.28,21.524 z M 414.932,69.522 V 112.57 L 377.651,91.046 Z m -37.281,21.524 37.281,21.524 -37.281,21.524 z m 0,0 v 43.048 l -37.28,-21.524 z m -260.963,150.667 37.28,21.524 -37.28,21.524 z m 223.683,-129.143 37.28,21.524 -37.28,21.524 z m -74.561,43.048 37.28,21.524 -37.28,21.524 z m 0,0 v 43.048 L 228.529,177.142 Z M 79.407,349.333 116.688,327.809 v 43.048 z m 0,86.095 37.281,21.524 -37.281,21.524 z m 0,0 37.281,-21.524 v 43.048 z m 0,43.048 37.281,-21.524 V 500 Z m 0,86.096 37.281,-21.524 v 43.048 z m 484.647,365.906 37.28,-21.524 -37.28,-21.524 z m 0,0 -37.281,-21.524 37.281,-21.524 z m 260.963,-150.667 -37.281,21.523 v -43.047 z m -186.402,107.619 37.28,-21.524 -37.28,-21.524 z m 37.28,-21.524 -37.28,-21.524 37.28,-21.524 z m 0,0 37.28,-21.524 -37.28,-21.524 z m 111.841,-64.572 -37.28,-21.523 37.28,-21.524 z m -74.561,43.048 -37.28,-21.524 37.28,-21.524 z M 116.688,629.143 v -43.047 l 37.28,21.523 z m 298.244,301.335 37.28,-21.524 -37.28,-21.524 z M 153.968,693.715 191.249,672.191 v 43.048 z M 340.371,887.43 303.09,865.906 340.371,844.382 Z m 0,0 37.28,-21.524 -37.28,-21.524 z m -37.281,-21.524 -37.28,-21.524 37.28,-21.524 z m 0,0 37.281,-21.524 -37.281,-21.524 z M 191.249,758.287 v -43.048 l 37.28,21.524 z m 74.561,86.095 37.28,-21.524 -37.28,-21.524 z m 0,0 -37.281,-21.524 37.281,-21.524 z m 596.487,-129.143 -37.28,-21.524 37.28,-21.524 z m 0,-43.048 -37.28,21.524 v -43.048 z m 0,0 -37.28,-21.524 37.28,-21.524 z m 37.281,-64.572 -37.281,-21.523 37.281,-21.524 z m 0,0 -37.281,21.524 v -43.047 z m 0,-43.047 -37.281,21.524 v -43.048 z m 0,-86.096 L 862.297,500 v -43.048 z m 0,-86.095 -37.281,21.523 V 370.857 Z M 564.054,69.522 l 37.28,21.524 -37.28,21.524 z m 298.243,301.335 -37.28,-21.524 37.28,-21.524 z m -37.28,-107.62 -37.281,21.524 V 241.713 Z M 713.175,155.618 v 43.048 l -37.28,-21.524 z m 74.561,86.095 -37.28,-21.524 37.28,-21.523 z M 414.932,112.57 v 43.048 l -37.281,-21.524 z m 0,0 37.28,21.524 -37.28,21.524 z m -260.964,150.667 37.281,-21.524 v 43.048 z M 340.371,155.618 v 43.048 L 303.09,177.142 Z m -37.281,21.524 37.281,21.524 -37.281,21.523 z m 0,0 v 43.047 l -37.28,-21.523 z m -111.841,64.571 37.28,21.524 -37.28,21.524 z m 74.561,-43.047 37.28,21.523 -37.28,21.524 z m -149.122,129.143 37.28,21.524 -37.28,21.524 z m 0,43.048 37.28,-21.524 v 43.048 z m 0,0 37.28,21.524 -37.28,21.523 z m 0,86.095 37.28,21.524 -37.28,21.524 z m 0,129.144 37.28,-21.524 v 43.047 z m 0,0 v -43.048 l 37.28,21.524 z m 372.805,344.382 -37.281,-21.524 37.281,-21.524 z m 0,0 37.28,-21.524 -37.28,-21.524 z m -37.281,-21.524 -37.28,-21.524 37.28,-21.524 z m 0,0 37.281,-21.524 -37.281,-21.524 z m 335.524,-150.667 -37.28,21.524 v -43.048 z m 0,0 -37.28,-21.524 37.28,-21.524 z m -149.121,86.095 37.28,-21.524 -37.28,-21.524 z m 0,0 -37.281,-21.524 37.281,-21.524 z m 111.841,-64.571 -37.281,-21.524 37.281,-21.524 z m 0,0 -37.281,21.523 V 758.287 Z M 153.968,607.619 v -43.047 l 37.281,21.524 z m 0,0 37.281,-21.523 v 43.047 z m 260.964,279.811 37.28,-21.524 -37.28,-21.524 z m 0,0 -37.281,-21.524 37.281,-21.524 z m -223.683,-172.191 37.28,-21.524 v 43.048 z m 0,0 v -43.048 l 37.28,21.524 z M 340.371,844.382 303.09,822.858 340.371,801.334 Z M 228.529,736.763 v -43.048 l 37.281,21.524 z m 0,0 37.281,-21.524 v 43.048 z m 596.488,-43.048 -37.281,-21.524 37.281,-21.524 z m 0,0 -37.281,21.524 v -43.048 z m 0,-43.048 -37.281,21.524 v -43.048 z m 37.28,-64.571 -37.28,-21.524 37.28,-21.524 z m 0,-86.096 -37.28,-21.524 37.28,-21.524 z m 0,-43.048 -37.28,21.524 v -43.048 z m 0,0 -37.28,-21.524 37.28,-21.524 z M 564.054,112.57 v 43.048 l -37.281,-21.524 z m 260.963,236.763 -37.281,21.524 v -43.048 z m -186.402,-193.715 37.28,21.524 -37.28,21.524 z m 0,0 v 43.048 l -37.281,-21.524 z m 37.28,21.524 37.28,21.524 -37.28,21.523 z m 0,0 v 43.047 l -37.28,-21.523 z m 111.841,107.619 v 43.048 l -37.28,-21.524 z m -74.561,-86.095 v 43.047 l -37.28,-21.524 z m 0,0 37.281,21.523 -37.281,21.524 z m -223.682,-86.096 37.28,21.524 -37.28,21.524 z m 0,0 v 43.048 l -37.281,-21.524 z m 37.28,21.524 37.281,21.524 -37.281,21.524 z m 0,0 v 43.048 l -37.28,-21.524 z m -298.244,172.191 -37.28,-21.524 37.28,-21.524 z m 0,0 -37.28,21.524 v -43.048 z m 111.842,-64.572 -37.281,-21.524 37.281,-21.523 z m 0,0 v -43.047 l 37.28,21.523 z m -74.561,43.048 -37.281,21.524 v -43.048 z m 0,0 -37.281,-21.524 37.281,-21.524 z m -74.561,86.096 -37.281,21.524 v -43.048 z m 0,0 -37.281,-21.524 37.281,-21.524 z m 0,43.047 -37.281,-21.523 37.281,-21.524 z m 0,86.096 -37.281,-21.524 37.281,-21.524 z m 0,43.048 v 43.048 l -37.281,-21.524 z m 298.244,301.334 v 43.048 l -37.281,-21.524 z m 74.561,-43.048 v 43.048 l -37.281,-21.524 z m 0,0 37.28,21.524 -37.28,21.524 z m 149.121,-86.095 37.281,21.524 -37.281,21.524 z m -37.28,21.524 37.28,-21.524 v 43.048 z m -447.366,-129.144 -37.28,21.524 v -43.047 z m 37.281,64.572 v 43.048 l -37.281,-21.524 z m 74.561,86.096 37.28,21.524 -37.28,21.523 z m -37.281,-21.524 -37.28,21.524 v -43.048 z m 447.366,-86.096 37.28,-21.524 v 43.048 z m 37.28,-64.571 37.281,-21.524 -37.281,-21.524 z m 0,-129.144 37.281,-21.524 v 43.048 z m 0,43.048 37.281,-21.524 -37.281,-21.524 z m 0,-43.048 37.281,-21.524 -37.281,-21.524 z M 564.054,198.666 526.773,177.142 564.054,155.618 Z m 0,0 v -43.048 l 37.28,21.524 z m 186.402,150.667 37.28,-21.524 -37.28,-21.524 z m 0,0 37.28,-21.524 v 43.048 z m -111.841,-150.667 37.28,21.523 -37.28,21.524 z m 111.841,150.667 -37.281,-21.524 37.281,-21.524 z m 0,-43.048 -37.281,21.524 V 284.761 Z M 489.493,198.666 v -43.048 l 37.28,21.524 z m -74.561,43.047 37.28,-21.524 -37.28,-21.523 z m 0,0 -37.281,-21.524 37.281,-21.523 z M 265.81,284.761 v 43.048 l -37.281,-21.524 z m 0,0 37.28,21.524 -37.28,21.524 z m -74.561,129.143 v -43.047 l 37.28,21.524 z m 0,86.096 v -43.048 l 37.28,21.524 z m 0,0 37.28,-21.524 v 43.048 z m 0,43.048 V 500 l 37.28,21.524 z m 335.524,279.81 -37.28,21.524 v -43.048 z m 0,0 -37.28,-21.524 37.28,-21.523 z m 37.281,-21.524 -37.281,21.524 v -43.047 z m 0,0 -37.281,-21.523 37.281,-21.524 z m 74.561,-43.047 -37.281,-21.524 37.281,-21.524 z m 37.28,-21.524 -37.28,21.524 V 715.239 Z M 228.529,607.619 265.81,586.096 v 43.047 z m 149.122,172.192 37.281,-21.524 v 43.047 z m 37.281,21.523 37.28,-21.523 -37.28,-21.524 z m -74.561,-43.047 37.28,-21.524 v 43.048 z m 37.28,21.524 37.281,-21.524 -37.281,-21.524 z M 265.81,672.191 v -43.048 l 37.28,21.524 z m 74.561,86.096 37.28,-21.524 -37.28,-21.524 z m -37.281,-21.524 37.281,-21.524 v 43.048 z m 447.366,-86.096 -37.281,21.524 v -43.048 z m 37.28,-64.571 -37.28,-21.524 37.28,-21.524 z m 0,-43.048 -37.28,21.524 v -43.048 z m 0,0 -37.28,-21.524 37.28,-21.524 z m 0,-86.096 -37.28,-21.524 37.28,-21.524 z m -37.28,-107.619 -37.281,21.524 v -43.048 z m -111.841,-64.572 -37.281,-21.524 37.281,-21.524 z m 37.28,21.524 37.28,-21.524 v 43.048 z m -186.402,-64.572 -37.281,-21.524 37.281,-21.523 z m -37.281,21.524 37.281,-21.524 -37.281,-21.524 z m 0,0 -37.28,-21.524 37.28,-21.524 z m -37.28,21.524 v -43.048 l 37.28,21.524 z m -74.561,43.048 37.28,-21.524 -37.28,-21.524 z m 0,0 -37.281,-21.524 37.281,-21.524 z m -74.561,86.095 -37.281,-21.523 37.281,-21.524 z m 0,86.096 -37.281,21.524 v -43.048 z m 0,0 -37.281,-21.524 37.281,-21.524 z m 0,43.048 L 228.529,521.524 265.81,500 Z m 223.683,215.239 37.28,21.524 -37.28,21.523 z m 0,0 v 43.047 l -37.281,-21.523 z m 74.561,-43.048 37.28,21.524 -37.28,21.524 z m 37.28,-21.524 v 43.048 l -37.28,-21.524 z m 0,0 37.281,21.524 -37.281,21.524 z m 74.561,-43.048 37.28,-21.524 v 43.048 z m -37.28,21.524 v 43.048 L 601.334,693.715 Z M 303.09,607.619 v 43.048 l -37.28,-21.524 z m 0,0 -37.28,21.524 v -43.047 z m 111.842,107.62 v 43.048 l -37.281,-21.524 z m -74.561,-86.096 -37.281,21.524 v -43.048 z m 0,43.048 -37.281,-21.524 37.281,-21.524 z m 335.524,-64.572 37.28,21.524 -37.28,21.524 z m 0,0 37.28,-21.523 v 43.047 z m 37.28,-64.571 37.281,-21.524 v 43.048 z m 0,0 37.281,21.524 -37.281,21.524 z m 0,-43.048 37.281,21.524 -37.281,21.524 z m 0,-43.048 v -43.048 l 37.281,21.524 z m -149.121,-172.191 37.28,-21.524 -37.28,-21.524 z m 0,0 -37.281,-21.524 37.281,-21.524 z m 37.28,21.524 37.281,-21.524 -37.281,-21.524 z m 0,0 -37.28,-21.524 37.28,-21.524 z m 74.561,86.096 37.28,-21.524 v 43.047 z m -37.28,-64.572 -37.281,-21.524 37.281,-21.524 z m 0,0 v -43.048 l 37.28,21.524 z m -149.122,-43.048 -37.281,-21.524 37.281,-21.524 z m 0,0 v -43.048 l 37.28,21.524 z m -74.561,43.048 -37.281,-21.524 37.281,-21.524 z m -37.281,21.524 37.281,-21.524 -37.281,-21.524 z m 0,0 -37.28,-21.524 37.28,-21.524 z m -74.561,43.048 -37.28,21.523 v -43.047 z m 37.281,-21.524 v -43.048 l 37.28,21.524 z m -37.281,64.571 -37.28,-21.524 37.28,-21.523 z m 0,0 -37.28,21.524 v -43.048 z m 0,86.096 -37.28,21.524 V 500 Z m 260.964,150.667 37.28,21.524 -37.28,21.524 z m 0,0 v 43.048 l -37.281,-21.524 z m 74.561,-43.048 37.28,-21.524 v 43.048 z m 0,0 37.28,21.524 -37.28,21.524 z M 340.371,586.096 v 43.047 L 303.09,607.619 Z m 74.561,86.095 37.28,21.524 -37.28,21.524 z m -37.281,-21.524 -37.28,21.524 v -43.048 z m 260.964,-64.571 37.28,21.523 -37.28,21.524 z m 37.28,-64.572 37.28,-21.524 v 43.048 z m 0,-86.096 37.28,-21.524 -37.28,-21.523 z m 0,0 37.28,-21.524 v 43.048 z M 564.054,327.809 v -43.048 l 37.28,21.524 z m 74.561,86.095 37.28,-21.523 v 43.047 z m 0,-43.047 37.28,21.524 -37.28,21.523 z m -223.683,0 -37.281,-21.524 37.281,-21.524 z m 0,0 v -43.048 l 37.28,21.524 z m -74.561,43.047 -37.281,21.524 v -43.047 z m 0,0 -37.281,-21.523 37.281,-21.524 z m 0,43.048 -37.281,-21.524 37.281,-21.524 z m 0,43.048 v 43.048 L 303.09,521.524 Z m 149.122,172.191 v 43.048 l -37.281,-21.524 z m 0,0 37.28,21.524 -37.28,21.524 z m -37.281,-21.524 v 43.048 l -37.28,-21.524 z m 0,0 37.281,21.524 -37.281,21.524 z m 149.122,-43.048 37.281,-21.523 v 43.047 z m -223.683,-43.047 -37.28,21.524 v -43.048 z m 37.281,64.571 37.28,21.524 -37.28,21.524 z m 0,0 v 43.048 L 377.651,650.667 Z M 638.615,500 l 37.28,21.524 -37.28,21.524 z m 0,-43.048 37.28,-21.524 -37.28,-21.524 z m -74.561,-86.095 -37.281,-21.524 37.281,-21.524 z m 37.28,21.524 37.281,-21.524 v 43.047 z m -111.841,-21.524 37.28,-21.524 -37.28,-21.524 z m 0,0 -37.281,-21.524 37.281,-21.524 z m 37.28,21.524 37.281,-21.524 -37.281,-21.524 z m 0,0 -37.28,-21.524 37.28,-21.524 z m -149.122,43.047 -37.28,21.524 v -43.048 z m 0,86.096 v 43.048 l -37.28,-21.524 z m 0,0 -37.28,21.524 V 500 Z m 111.842,107.619 v 43.048 l -37.281,-21.524 z m 74.561,-43.047 v 43.047 l -37.281,-21.524 z m 0,0 37.28,21.523 -37.28,21.524 z m -149.122,-43.048 -37.281,21.524 v -43.048 z m 0,43.048 -37.281,-21.524 37.281,-21.524 z M 601.334,521.524 638.615,500 v 43.048 z m 0,-43.048 37.281,21.524 -37.281,21.524 z m 0,0 37.281,-21.524 V 500 Z m -37.28,-64.572 -37.281,-21.523 37.281,-21.524 z m 0,0 v -43.047 l 37.28,21.524 z m -74.561,0 v -43.047 l 37.28,21.524 z m -74.561,43.048 37.28,-21.524 -37.28,-21.524 z m 0,0 -37.281,-21.524 37.281,-21.524 z m 0,43.048 v 43.048 l -37.281,-21.524 z m 74.561,86.096 37.28,21.523 -37.28,21.524 z m 37.28,-21.524 v 43.047 l -37.28,-21.523 z m 0,0 37.281,21.524 -37.281,21.523 z m 0,0 37.281,-21.524 v 43.048 z m -74.561,0 -37.28,21.524 V 543.048 Z M 564.054,500 l 37.28,-21.524 v 43.048 z m 0,0 37.28,21.524 -37.28,21.524 z m 0,-43.048 37.28,21.524 -37.28,21.524 z m -74.561,0 -37.281,-21.524 37.281,-21.524 z m -37.281,21.524 37.281,-21.524 -37.281,-21.524 z m 0,0 -37.28,-21.524 37.28,-21.524 z m 0,0 -37.28,21.524 v -43.048 z m 37.281,64.572 37.28,21.524 -37.28,21.524 z m 0,0 v 43.048 l -37.281,-21.524 z m 37.28,-64.572 37.281,-21.524 V 500 Z M 489.493,500 452.212,478.476 489.493,456.952 Z m 0,0 v -43.048 l 37.28,21.524 z"
     style="opacity:1;fill-opacity:0;stroke:#000000;stroke-width:18;stroke-opacity:1;stop-opacity:1;stroke-miterlimit:4;stroke-dasharray:none"
     id="path2415" />
</svg>
