<?xml version="1.0" encoding="UTF-8" standalone="no"?>
<svg
   xmlns:dc="http://purl.org/dc/elements/1.1/"
   xmlns:cc="http://creativecommons.org/ns#"
   xmlns:rdf="http://www.w3.org/1999/02/22-rdf-syntax-ns#"
   xmlns:svg="http://www.w3.org/2000/svg"
   xmlns="http://www.w3.org/2000/svg"
   xmlns:sodipodi="http://sodipodi.sourceforge.net/DTD/sodipodi-0.dtd"
   xmlns:inkscape="http://www.inkscape.org/namespaces/inkscape"
   inkscape:version="1.0beta1 (32d4812, 2019-09-19)"
   sodipodi:docname="5-uniform_229.svg"
   id="c:\kuniform\5u\5-uniform_229.svg"
   height="978.98517"
   width="1000.0"
   version="1.0">
  <metadata
     id="metadata5265">
    <rdf:RDF>
      <cc:Work
         rdf:about="">
        <dc:format>image/svg+xml</dc:format>
        <dc:type
           rdf:resource="http://purl.org/dc/dcmitype/StillImage" />
        <dc:title></dc:title>
      </cc:Work>
    </rdf:RDF>
  </metadata>
  <defs
     id="defs5263" />
  <sodipodi:namedview
     inkscape:current-layer="c:\kuniform\5u\5-uniform_229.svg"
     inkscape:window-maximized="1"
     inkscape:window-y="23"
     inkscape:window-x="0"
     inkscape:cy="489.49258"
     inkscape:cx="49.329241"
     inkscape:zoom="0.29622512"
     showgrid="false"
     id="namedview5261"
     inkscape:window-height="1005"
     inkscape:window-width="1680"
     inkscape:pageshadow="2"
     inkscape:pageopacity="0"
     guidetolerance="10"
     gridtolerance="10"
     objecttolerance="10"
     borderopacity="1"
     inkscape:document-rotation="0"
     bordercolor="#666666"
     pagecolor="#ffffff" />
  <!-- X Coordinate transform: fx(x)=(x+80.75)*0.86095566-->
  <!-- Y Coordinate transform: fy(y)=(1068.5457-y)*0.86095566 -->
  <path
     d="m 887.43,42.127 h 43.048 m 21.524,111.841 h 43.047 m -21.523,37.281 -21.524,-37.281 -21.524,-37.28 m 21.524,782.89 -21.524,-37.281 m 21.524,-37.28 h 43.047 m -107.619,111.841 21.524,-37.28 21.524,-37.281 21.524,-37.28 21.524,-37.281 M 112.57,42.127 h 43.048 M 47.998,153.968 h 43.048 m -43.048,74.561 -21.524,-37.28 m 64.572,708.329 21.524,-37.281 m -64.572,-37.28 h 43.048 m -64.572,-37.281 21.524,-37.28 m 904.004,-521.927 -21.524,-37.28 m -64.572,708.329 21.524,-37.281 m 64.572,-111.841 h 43.047 M 26.474,340.371 47.998,303.09 m 43.048,-74.561 21.524,-37.28 m 64.572,708.329 -21.524,-37.281 M 91.046,750.456 H 47.998 4.95 M 47.998,675.895 26.474,638.615 M 112.57,116.688 H 69.522 26.474 M 952.002,303.09 h 43.047 M 758.287,936.858 h 43.047 m 0,0 21.524,-37.28 21.524,-37.281 21.524,-37.28 21.524,-37.281 M 758.287,42.127 h 43.047 m 0,74.561 21.524,-37.281 M 629.143,42.127 h 43.048 m 322.858,857.451 -21.523,-37.281 -21.524,-37.28 -21.524,-37.281 21.524,-37.28 M 241.713,42.127 h 43.048 m 215.239,0 h 43.048 m -172.191,0 h 43.047 M 241.713,116.688 220.189,79.407 m 710.289,37.281 21.524,-37.281 h 43.047 M 91.046,303.09 H 47.998 4.95 m 107.62,-37.28 21.524,-37.281 21.524,-37.28 m 774.86,74.561 21.524,-37.281 21.524,-37.28 21.523,-37.281 -21.523,-37.28 L 952.002,79.407 930.478,42.127 908.954,4.846 M 241.713,936.858 h 43.048 M 47.998,899.578 26.474,862.297 m 129.144,-74.561 21.524,37.281 21.524,37.28 21.523,37.281 21.524,37.28 M 26.474,564.054 47.998,526.773 m 43.048,223.683 21.524,37.28 -21.524,37.281 -21.524,37.28 -21.524,37.281 -21.524,37.28 m 344.383,0 h 43.047 M 26.474,116.688 47.998,79.407 m 581.145,857.451 h 43.048 M 112.57,116.688 91.046,79.407 H 47.998 4.95 m 817.908,74.561 h 43.048 m 0,74.561 21.524,-37.28 m 64.572,186.402 h 43.047 m 0,74.561 -21.523,-37.28 -21.524,-37.281 -21.524,-37.28 m 0,0 21.524,-37.281 M 887.43,265.81 865.906,228.529 844.382,191.249 822.858,153.968 801.334,116.688 779.811,79.407 758.287,42.127 M 887.43,265.81 h 43.048 m -107.62,633.768 -21.524,-37.281 m -64.571,37.281 21.524,37.28 m 64.571,-111.841 h 43.048 m 0,-74.561 -21.524,37.28 -21.524,37.281 -21.524,37.28 -21.523,37.281 -21.524,37.28 21.524,37.281 M 887.43,787.736 865.906,750.456 M 112.57,265.81 91.046,228.529 69.522,191.249 47.998,153.968 26.474,116.688 4.95,79.407 26.474,42.127 m 925.528,559.207 h 43.047 m -43.047,-74.561 h 43.047 m -43.047,149.122 -21.524,-37.28 m -258.287,298.243 21.524,-37.28 m 64.572,-782.89 -21.524,-37.281 m -452.002,37.281 21.524,-37.281 m -129.143,74.561 h 43.047 m -43.047,74.561 -21.524,-37.28 21.524,-37.281 21.524,-37.28 21.523,-37.281 21.524,-37.28 M 47.998,452.212 26.474,414.932 M 47.998,377.651 H 91.046 M 112.57,340.371 91.046,303.09 m 64.572,-37.28 21.524,-37.281 21.524,-37.28 21.523,-37.281 21.524,-37.28 21.524,-37.281 21.524,-37.28 M 26.474,414.932 47.998,377.651 69.522,340.371 91.046,303.09 112.57,265.81 h 43.048 m 64.571,633.768 21.524,-37.281 m 43.048,74.561 21.524,-37.28 M 177.142,825.017 h 43.047 m -64.571,-37.281 21.524,-37.28 M 47.998,601.334 h 43.048 m 0,-74.561 H 47.998 4.95 m 86.096,149.122 21.524,-37.28 m 236.763,260.963 21.524,37.28 m 236.762,-37.28 h 43.048 43.048 m 129.143,-671.049 -21.524,-37.28 m 150.668,260.963 -21.524,-37.28 M 758.287,862.297 h 43.047 43.048 43.048 43.048 43.048 m -236.763,37.281 21.524,-37.281 m 43.047,-74.561 21.524,-37.28 m 107.62,-260.963 21.524,-37.281 21.524,-37.28 m 21.523,260.963 -21.523,-37.28 -21.524,-37.281 -21.524,-37.28 m 0,0 21.524,-37.281 m -86.096,149.122 21.524,-37.28 m -215.239,223.682 21.524,37.281 h 43.048 43.048 43.047 43.048 43.048 43.048 43.047 M 672.191,116.688 693.715,79.407 m 43.048,74.561 21.524,-37.28 21.524,-37.281 21.523,-37.28 M 629.143,116.688 607.619,79.407 M 370.857,116.688 349.333,79.407 m -43.048,74.561 -21.524,-37.28 -21.524,-37.281 -21.524,-37.28 21.524,-37.281 m 150.667,111.842 21.524,-37.281 m -215.239,149.122 21.524,-37.28 M 91.046,452.212 112.57,414.932 M 284.761,862.297 H 241.713 198.666 155.618 112.57 69.522 26.474 m 279.811,37.281 -21.524,-37.281 m -43.048,-74.561 -21.524,-37.28 M 112.57,489.493 91.046,452.212 69.522,414.932 47.998,377.651 26.474,340.371 M 112.57,564.054 91.046,526.773 m 86.096,149.122 -21.524,-37.28 m 193.715,260.963 21.524,-37.281 m 64.571,37.281 -21.524,-37.281 M 478.476,899.578 500,862.297 m 129.143,0 -21.524,37.281 H 564.572 521.524 478.476 435.428 392.381 349.333 306.285 263.237 220.189 177.142 134.094 91.046 47.998 4.95 m 559.622,0 -21.524,-37.281 m -172.191,0 h 43.047 43.048 43.048 43.048 43.048 43.047 43.048 M 995.049,228.529 973.526,191.249 H 930.478 887.43 844.382 801.334 758.287 M 887.43,489.493 h 43.048 M 693.715,825.017 h 43.048 M 693.715,153.968 672.191,116.688 650.667,79.407 629.143,42.127 m 64.572,111.841 h 43.048 m -172.191,0 h 43.047 M 284.761,191.249 H 241.713 198.666 155.618 112.57 69.522 26.474 m 322.859,-37.281 21.524,-37.28 21.524,-37.281 21.523,-37.28 M 306.285,153.968 h 43.048 m 86.095,0 h 43.048 m -365.906,335.525 21.524,-37.281 21.524,-37.28 m -129.144,223.683 21.524,-37.281 21.524,-37.28 21.524,-37.281 21.524,-37.28 h 43.048 m 150.667,335.524 h 43.048 m 86.095,0 h 43.048 m 86.096,0 h 43.047 m 129.144,-596.488 21.524,-37.28 m 0,74.561 h 43.047 m 0,74.561 21.524,-37.281 m 43.048,149.122 21.524,-37.28 m -64.572,-37.281 h 43.048 m 21.524,111.842 -21.524,-37.281 -21.524,-37.28 -21.524,-37.281 -21.524,-37.28 -21.523,-37.281 -21.524,-37.28 -21.524,-37.281 m 21.524,559.207 -21.524,-37.28 m 21.524,-37.281 h 43.047 m 21.524,-37.28 -21.524,-37.28 m 21.524,-37.281 h 43.048 m -172.191,223.683 21.524,-37.281 21.524,-37.28 21.524,-37.281 21.524,-37.28 21.523,-37.28 21.524,-37.281 21.524,-37.28 21.524,-37.281 21.524,-37.28 21.524,-37.281 21.524,-37.28 21.524,-37.281 21.524,-37.28 M 306.285,228.529 284.761,191.249 m -43.048,74.561 h 43.048 m -43.048,74.561 -21.524,-37.281 m -43.047,149.122 -21.524,-37.28 21.524,-37.281 21.524,-37.28 21.523,-37.281 21.524,-37.28 21.524,-37.281 21.524,-37.28 21.524,-37.281 21.524,-37.28 21.524,-37.281 21.524,-37.28 M 177.142,377.651 h 43.047 m -64.571,111.842 21.524,-37.281 21.524,-37.28 21.523,-37.281 21.524,-37.28 21.524,-37.281 21.524,-37.28 21.524,-37.281 m -21.524,559.207 21.524,-37.28 m -64.572,-37.281 h 43.048 m -64.572,-37.28 21.524,-37.28 m -64.571,-37.281 h 43.047 m 129.144,223.683 -21.524,-37.281 -21.524,-37.28 -21.524,-37.281 -21.524,-37.28 -21.524,-37.28 -21.524,-37.281 -21.523,-37.28 -21.524,-37.281 -21.524,-37.28 L 134.094,452.212 112.57,414.932 91.046,377.651 69.522,340.371 47.998,303.09 26.474,265.81 4.95,228.529 26.474,191.249 47.998,153.968 69.522,116.688 91.046,79.407 112.57,42.127 134.094,4.846 m 279.81,932.012 21.524,-37.28 21.524,-37.281 21.524,-37.28 L 500,787.736 m 43.048,0 h 43.048 43.047 m 0,149.122 -21.524,-37.28 -21.523,-37.281 -21.524,-37.28 -21.524,-37.281 M 758.287,340.371 736.763,303.09 m 86.095,149.122 -21.524,-37.28 m -129.143,372.804 21.524,-37.28 m 64.572,-111.841 h 43.047 43.048 43.048 43.048 43.048 m -236.763,37.28 21.524,-37.28 m 43.047,-74.561 21.524,-37.281 m 172.191,223.683 -21.523,37.28 H 930.478 887.43 844.382 801.334 758.287 715.239 672.191 629.143 l -21.524,-37.28 m 0,-521.927 21.524,-37.28 m -64.571,37.28 -21.524,-37.28 m -64.572,37.28 21.524,-37.28 m -64.572,37.28 -21.524,-37.28 m 581.145,37.28 H 952.002 908.954 865.906 822.858 779.811 736.763 693.715 650.667 607.619 564.572 521.524 478.476 435.428 392.381 349.333 306.285 263.237 220.189 177.142 134.094 91.046 47.998 4.95 m 279.811,111.842 21.524,-37.281 m -86.096,149.122 21.524,-37.28 m 129.144,372.804 -21.524,-37.28 m -43.048,-74.561 -21.524,37.28 -21.524,37.281 -21.524,37.28 -21.524,37.281 -21.523,37.28 -21.524,37.281 -21.524,37.28 H 112.57 L 91.046,899.578 69.522,862.297 47.998,825.017 26.474,787.736 M 284.761,638.615 H 241.713 198.666 155.618 112.57 69.522 26.474 l -21.524,37.28 21.524,37.28 21.524,37.281 21.524,37.28 21.524,37.281 21.524,37.28 21.524,37.281 21.524,37.28 m 150.667,-260.963 -21.524,-37.28 m -43.048,-74.561 -21.524,-37.281 m 193.715,260.963 21.524,-37.28 m -258.286,0 h 43.047 43.048 43.048 43.048 43.048 43.047 43.048 m 21.524,37.28 -21.524,-37.28 m 86.096,0 h 43.047 43.048 43.048 43.048 43.048 43.047 43.048 l 21.524,-37.281 21.524,-37.28 21.524,-37.28 21.524,-37.281 21.524,-37.28 m -408.954,186.402 -21.524,37.28 H 500 456.952 413.904 370.857 327.809 284.761 241.713 198.666 155.618 112.57 69.522 26.474 l -21.524,-37.28 21.524,-37.281 21.524,-37.28 21.524,-37.28 21.524,-37.281 21.524,-37.28 M 543.048,116.688 564.572,79.407 h 43.047 43.048 43.048 43.048 43.048 43.047 43.048 l 21.524,37.281 -21.524,37.28 -21.524,37.281 -21.524,37.28 -21.524,37.281 -21.523,37.28 -21.524,37.281 -21.524,37.28 m 64.571,111.842 -21.523,-37.281 -21.524,-37.28 m 0,0 h 43.047 43.048 43.048 43.048 43.048 L 995.049,377.651 973.526,340.371 952.002,303.09 930.478,265.81 908.954,228.529 887.43,191.249 865.906,153.968 844.382,116.688 822.858,79.407 801.334,42.127 779.811,4.846 m -21.524,484.647 h 43.047 l 21.524,37.28 21.524,37.281 21.524,37.28 21.524,37.281 21.524,37.28 21.524,37.28 21.524,37.281 21.524,37.28 21.523,37.281 -21.523,37.28 -21.524,37.281 -21.524,37.28 H 887.43 l -21.524,-37.28 -21.524,-37.281 -21.524,-37.28 -21.524,-37.281 -21.523,-37.28 -21.524,-37.281 -21.524,-37.28 m -107.62,37.28 h 43.048 M 629.143,265.81 h 43.048 m -129.143,0 21.524,-37.281 21.524,-37.28 21.523,-37.281 21.524,-37.28 21.524,-37.281 21.524,-37.28 M 500,265.81 478.476,228.529 456.952,191.249 435.428,153.968 413.904,116.688 392.381,79.407 370.857,42.127 392.381,4.846 M 500,265.81 h 43.048 m -172.191,0 h 43.047 m -172.191,223.683 21.524,-37.281 21.524,-37.28 m 0,0 H 241.713 198.666 155.618 112.57 69.522 26.474 l -21.524,37.28 21.524,37.281 21.524,37.28 21.524,37.281 21.524,37.28 21.524,37.281 21.524,37.28 21.524,37.28 21.524,37.281 21.524,37.28 21.523,37.281 21.524,37.28 21.524,37.281 21.524,37.28 -21.524,37.281 m 430.478,-298.244 -21.524,37.28 -21.524,37.281 -21.524,37.28 -21.524,37.281 -21.523,37.28 -21.524,37.281 -21.524,37.28 H 500 l -21.524,-37.28 -21.524,-37.281 -21.524,-37.28 -21.524,-37.281 -21.523,-37.28 -21.524,-37.281 M 26.474,936.858 4.95,899.578 l 21.524,-37.281 21.524,-37.28 21.524,-37.281 21.524,-37.28 21.524,-37.281 21.524,-37.28 21.524,-37.28 21.524,-37.281 21.524,-37.28 21.523,-37.281 21.524,-37.28 h 43.048 m 64.572,186.402 21.524,37.28 h 43.047 M 672.191,340.371 693.715,303.09 m 0,74.561 -21.524,-37.28 -21.524,-37.281 -21.524,-37.28 -21.524,-37.281 -21.523,-37.28 -21.524,-37.281 -21.524,-37.28 m 150.667,260.963 h 43.048 m 0,74.561 21.524,37.281 21.524,37.28 21.523,37.281 21.524,37.28 21.524,37.281 21.524,37.28 21.524,37.28 h 43.048 l 21.524,-37.28 21.524,-37.28 21.523,-37.281 -21.523,-37.28 -21.524,-37.281 -21.524,-37.28 -21.524,-37.281 -21.524,-37.28 -21.524,-37.281 -21.524,-37.28 -21.524,-37.281 -21.524,-37.28 -21.523,-37.281 -21.524,-37.28 -21.524,-37.281 -21.524,-37.28 L 693.715,79.407 672.191,42.127 650.667,4.846 m 86.096,447.366 21.524,-37.28 -21.524,-37.281 -21.524,-37.28 -21.524,-37.281 -21.524,-37.28 -21.524,-37.281 -21.524,-37.28 -21.524,-37.281 -21.523,-37.28 L 564.572,79.407 543.048,42.127 521.524,4.846 M 500,936.858 l 21.524,-37.28 21.524,-37.281 21.524,-37.28 21.524,-37.281 21.523,-37.28 21.524,-37.281 21.524,-37.28 21.524,-37.28 m 21.524,37.28 -21.524,-37.28 m 86.096,-74.561 -21.524,-37.281 M 370.857,340.371 349.333,303.09 m 0,74.561 21.524,-37.28 21.524,-37.281 21.523,-37.28 21.524,-37.281 21.524,-37.28 21.524,-37.281 L 500,116.688 478.476,79.407 h -43.048 -43.047 -43.048 -43.048 -43.048 -43.048 -43.047 l -21.524,37.281 21.524,37.28 21.524,37.281 21.523,37.28 21.524,37.281 21.524,37.28 21.524,37.281 21.524,37.28 m 0,0 h 43.048 m -322.859,186.403 21.524,37.28 21.524,37.281 21.524,37.28 21.524,37.28 h 43.048 l 21.524,-37.28 21.524,-37.28 21.523,-37.281 21.524,-37.28 21.524,-37.281 21.524,-37.28 21.524,-37.281 m 0,0 -21.524,-37.28 21.524,-37.281 21.524,-37.28 21.524,-37.281 21.524,-37.28 21.524,-37.281 21.523,-37.28 21.524,-37.281 21.524,-37.28 L 478.476,79.407 500,42.127 521.524,4.846 m 21.524,932.012 -21.524,-37.28 -21.524,-37.281 -21.524,-37.28 -21.524,-37.281 -21.524,-37.28 -21.524,-37.281 -21.523,-37.28 -21.524,-37.28 m -21.524,37.28 21.524,-37.28 m -86.096,-74.561 21.524,-37.281 M 435.428,675.895 H 392.381 349.333 306.285 263.237 220.189 177.142 134.094 91.046 47.998 4.95 M 629.143,340.371 607.619,303.09 m 0,372.805 21.524,-37.28 m 43.048,-74.561 21.524,-37.281 m -129.143,149.122 -21.524,-37.28 m 0,-298.244 h 43.048 43.047 43.048 43.048 43.048 43.047 43.048 43.048 43.048 43.048 l 21.523,-37.281 m -581.145,37.281 21.524,-37.281 m -21.524,335.525 21.524,37.28 h 43.048 43.048 43.048 43.047 43.048 43.048 43.048 43.048 43.047 43.048 43.048 43.048 43.047 M 370.857,564.054 349.333,526.773 M 478.476,675.895 500,638.615 m 473.526,-521.927 -21.524,37.28 -21.524,37.281 -21.524,37.28 -21.524,37.281 -21.524,37.28 -21.524,37.281 -21.524,37.28 -21.524,37.281 -21.523,37.28 -21.524,37.281 -21.524,37.28 -21.524,37.281 -21.524,37.28 -21.524,37.281 H 629.143 586.096 543.048 500 456.952 413.904 370.857 l -21.524,-37.281 -21.524,-37.28 -21.524,-37.281 -21.524,-37.28 -21.524,-37.281 -21.524,-37.28 -21.524,-37.281 -21.523,-37.28 L 177.142,303.09 155.618,265.81 134.094,228.529 112.57,191.249 91.046,153.968 69.522,116.688 47.998,79.407 26.474,42.127 M 607.619,377.651 586.096,340.371 564.572,303.09 543.048,265.81 521.524,228.529 500,191.249 478.476,153.968 456.952,116.688 435.428,79.407 413.904,42.127 392.381,4.846 m 236.762,484.647 h 43.048 M 564.572,601.334 h 43.047 M 564.572,377.651 h 43.047 l 21.524,37.281 21.524,37.28 21.524,37.281 21.524,37.28 21.524,37.281 21.524,37.28 21.524,37.281 21.524,37.28 21.523,37.28 21.524,37.281 21.524,37.28 21.524,37.281 21.524,37.28 21.524,37.281 21.524,37.28 M 435.428,377.651 h 43.048 m -365.906,559.207 21.524,-37.28 21.524,-37.281 21.524,-37.28 21.524,-37.281 21.523,-37.28 21.524,-37.281 21.524,-37.28 21.524,-37.28 21.524,-37.281 21.524,-37.28 21.524,-37.281 21.524,-37.28 21.524,-37.281 21.523,-37.28 21.524,-37.281 21.524,-37.28 21.524,-37.281 21.524,-37.28 21.524,-37.281 21.524,-37.28 21.524,-37.281 21.524,-37.28 21.523,-37.281 21.524,-37.28 21.524,-37.281 m -279.81,484.647 h 43.047 m 21.524,111.841 h 43.048 m 129.143,-149.122 21.524,-37.28 m -86.095,-74.561 21.524,-37.281 h 43.047 43.048 43.048 43.048 43.048 43.047 43.048 l 21.524,37.281 -21.524,37.28 -21.524,37.281 -21.524,37.28 -21.524,37.281 -21.523,37.28 -21.524,37.281 -21.524,37.28 h -43.048 l -21.524,-37.28 -21.524,-37.281 -21.524,-37.28 -21.524,-37.281 -21.523,-37.28 m 43.047,149.122 -21.524,-37.281 m -215.238,447.366 -21.524,-37.281 21.524,-37.28 21.523,-37.281 21.524,-37.28 21.524,-37.281 21.524,-37.28 21.524,-37.281 21.524,-37.28 21.524,-37.28 21.524,-37.281 21.524,-37.28 21.523,-37.281 21.524,-37.28 21.524,-37.281 21.524,-37.28 21.524,-37.281 21.524,-37.28 21.524,-37.281 21.524,-37.28 21.524,-37.281 21.523,-37.28 21.524,-37.281 21.524,-37.28 21.524,-37.281 21.524,-37.28 21.524,-37.281 m -258.287,969.293 -21.524,-37.281 21.524,-37.28 21.524,-37.281 21.524,-37.28 -21.524,-37.281 -21.524,-37.28 -21.524,-37.281 -21.524,-37.28 -21.523,-37.28 -21.524,-37.281 -21.524,-37.28 m 0,-149.122 h 43.048 m -150.668,37.28 -21.524,-37.28 m 21.524,37.28 -21.524,37.281 -21.523,37.28 -21.524,37.281 -21.524,37.28 h -43.048 l -21.524,-37.28 -21.524,-37.281 -21.524,-37.28 -21.524,-37.281 -21.523,-37.28 -21.524,-37.281 -21.524,-37.28 21.524,-37.281 h 43.047 43.048 43.048 43.048 43.048 43.047 43.048 l 21.524,37.281 -21.524,37.28 -21.524,37.281 z m -21.524,111.842 21.524,-37.281 m 215.239,447.366 21.524,-37.281 -21.524,-37.28 -21.524,-37.281 -21.524,-37.28 -21.523,-37.281 -21.524,-37.28 -21.524,-37.281 -21.524,-37.28 -21.524,-37.28 -21.524,-37.281 -21.524,-37.28 -21.524,-37.281 -21.524,-37.28 -21.523,-37.281 -21.524,-37.28 -21.524,-37.281 -21.524,-37.28 -21.524,-37.281 -21.524,-37.28 -21.524,-37.281 -21.524,-37.28 -21.524,-37.281 -21.523,-37.28 L 177.142,79.407 155.618,42.127 134.094,4.846 m -21.524,335.525 -21.524,37.28 -21.524,37.281 -21.524,37.28 -21.524,37.281 -21.524,37.28 21.524,37.281 h 43.048 43.048 43.048 43.048 43.047 43.048 43.048 43.048 43.047 43.048 H 500 m -107.619,410.085 21.523,-37.281 -21.523,-37.28 -21.524,-37.281 -21.524,-37.28 21.524,-37.281 21.524,-37.28 21.523,-37.281 21.524,-37.28 21.524,-37.28 21.524,-37.281 21.524,-37.28 m 64.572,-111.842 -21.524,-37.28 H 500 456.952 413.904 370.857 l -21.524,37.28 21.524,37.281 21.524,37.28 21.523,37.281 21.524,37.28 21.524,37.281 21.524,37.28 21.524,37.28 h 43.048 l 21.524,-37.28 21.524,-37.28 21.523,-37.281 21.524,-37.28 21.524,-37.281 21.524,-37.28 21.524,-37.281 -21.524,-37.28 h -43.048 -43.047 l -21.524,-37.281 -21.524,-37.28 H 500 456.952 413.904 370.857 327.809 284.761 241.713 198.666 155.618 112.57 69.522 26.474 L 4.95,303.09 l 21.524,-37.28 21.524,-37.281 21.524,-37.28 21.524,-37.281 21.524,-37.28 h 43.048 43.048 43.047 43.048 43.048 43.048 43.047 43.048 43.048 43.048 43.048 43.047 43.048 43.048 43.048 43.047 43.048 43.048 43.048 43.048 L 995.049,79.407 M 564.572,526.773 h 43.047 43.048 43.048 43.048 43.048 43.047 43.048 l 21.524,37.281 -21.524,37.28 -21.524,37.281 -21.524,37.28 -21.524,37.28 -21.523,37.281 -21.524,37.28 -21.524,37.281 M 543.048,564.054 564.572,526.773 M 478.476,452.212 500,414.932 m 495.049,37.28 H 952.002 908.954 865.906 822.858 779.811 736.763 693.715 650.667 607.619 564.572 521.524 478.476 435.428 392.381 349.333 306.285 263.237 220.189 177.142 134.094 91.046 47.998 4.95 m 301.335,372.805 -21.524,-37.281 -21.524,-37.28 -21.524,-37.281 -21.524,-37.28 -21.523,-37.28 -21.524,-37.281 -21.524,-37.28 21.524,-37.281 h 43.047 43.048 43.048 43.048 43.048 43.047 43.048 m 516.573,0 -21.523,37.281 H 930.478 887.43 844.382 801.334 758.287 715.239 672.191 629.143 586.096 543.048 500 L 478.476,526.773 M 543.048,489.493 521.524,452.212 500,414.932 478.476,377.651 456.952,340.371 435.428,303.09 413.904,265.81 392.381,228.529 370.857,191.249 349.333,153.968 327.809,116.688 306.285,79.407 284.761,42.127 263.237,4.846 M 500,489.493 l 21.524,-37.281 21.524,-37.28 21.524,-37.281 21.524,-37.28 21.523,-37.281 21.524,-37.28 21.524,-37.281 21.524,-37.28 21.524,-37.281 21.524,-37.28 21.524,-37.281 21.524,-37.28 21.524,-37.281 M 500,489.493 l -21.524,-37.281 -21.524,-37.28 -21.524,-37.281 -21.524,-37.28 -21.523,-37.281 -21.524,-37.28 -21.524,-37.281 21.524,-37.28 h 43.047 43.048 43.048 43.048 43.048 43.047 43.048 l 21.524,37.28 -21.524,37.281 -21.524,37.28 -21.524,37.281 -21.524,37.28 -21.523,37.281 -21.524,37.28 -21.524,37.281 m -279.811,484.646 -21.524,-37.281 21.524,-37.28 21.524,-37.281 21.524,-37.28 21.524,-37.281 21.524,-37.28 21.524,-37.281 21.524,-37.28 21.523,-37.28 21.524,-37.281 21.524,-37.28 21.524,-37.281 21.524,-37.28 h 43.048 l 21.524,37.28 21.524,37.281 21.523,37.28 21.524,37.281 21.524,37.28 21.524,37.28 21.524,37.281 21.524,37.28 21.524,37.281 21.524,37.28 21.524,37.281 21.523,37.28 -21.523,37.281 m 150.667,-857.451 21.524,37.28 -21.524,37.281 H 887.43 l -21.524,-37.281 21.524,-37.28 z M 112.57,42.127 h 43.048 l 21.524,37.28 -21.524,37.281 H 112.57 L 91.046,79.407 Z m 817.908,820.17 H 887.43 l -21.524,-37.28 21.524,-37.281 h 43.048 l 21.524,37.281 z M 112.57,116.688 h 43.048 l 21.524,37.28 -21.524,37.281 H 112.57 L 91.046,153.968 Z m 817.908,-74.561 21.524,37.28 -21.524,37.281 H 887.43 L 865.906,79.407 887.43,42.127 Z M 26.474,265.81 47.998,228.529 H 91.046 L 112.57,265.81 91.046,303.09 H 47.998 Z m 86.096,596.487 -21.524,-37.28 21.524,-37.281 h 43.048 l 21.524,37.281 -21.524,37.28 z M 47.998,750.456 26.474,713.175 47.998,675.895 h 43.048 l 21.524,37.28 -21.524,37.281 z m 882.48,37.28 H 887.43 l -21.524,-37.28 21.524,-37.281 h 43.048 l 21.524,37.281 z m -817.908,0 -21.524,-37.28 21.524,-37.281 h 43.048 l 21.524,37.281 -21.524,37.28 z M 952.002,303.09 930.478,340.371 H 887.43 L 865.906,303.09 887.43,265.81 h 43.048 z M 500,489.493 h 43.048 l 21.524,37.28 -21.524,37.281 H 500 l -21.524,-37.281 z m 43.048,-447.366 21.524,37.28 -21.524,37.281 H 500 L 478.476,79.407 500,42.127 Z M 91.046,303.09 112.57,265.81 h 43.048 l 21.524,37.28 -21.524,37.281 H 112.57 Z M 26.474,489.493 47.998,452.212 h 43.048 l 21.524,37.281 -21.524,37.28 H 47.998 Z m 774.86,-372.805 21.524,37.28 -21.524,37.281 h -43.047 l -21.524,-37.281 21.524,-37.28 z m 64.572,111.841 21.524,37.281 -21.524,37.28 h -43.048 l -21.524,-37.28 21.524,-37.281 z m 86.096,149.122 -21.524,37.281 H 887.43 l -21.524,-37.281 21.524,-37.28 h 43.048 z M 801.334,862.297 h -43.047 l -21.524,-37.28 21.524,-37.281 h 43.047 l 21.524,37.281 z m 64.572,-111.841 h -43.048 l -21.524,-37.281 21.524,-37.28 h 43.048 l 21.524,37.28 z m 86.096,-149.122 -21.524,37.281 H 887.43 l -21.524,-37.281 21.524,-37.28 h 43.048 z M 736.763,899.578 h -43.048 l -21.524,-37.281 21.524,-37.28 h 43.048 l 21.524,37.28 z m -495.05,-782.89 h 43.048 l 21.524,37.28 -21.524,37.281 h -43.048 l -21.524,-37.281 z m -64.571,111.841 h 43.047 l 21.524,37.281 -21.524,37.28 h -43.047 l -21.524,-37.28 z m -86.096,149.122 21.524,-37.28 h 43.048 l 21.524,37.28 -21.524,37.281 H 112.57 Z m 150.667,484.646 -21.524,-37.28 21.524,-37.281 h 43.048 l 21.524,37.281 -21.524,37.28 z m -64.571,-111.841 -21.524,-37.281 21.524,-37.28 h 43.047 l 21.524,37.28 -21.524,37.281 z M 91.046,601.334 112.57,564.054 h 43.048 l 21.524,37.28 -21.524,37.281 H 112.57 Z m 215.239,298.244 -21.524,-37.281 21.524,-37.28 h 43.048 l 21.524,37.28 -21.524,37.281 z M 952.002,526.773 930.478,564.054 H 887.43 l -21.524,-37.281 21.524,-37.28 h 43.048 z M 672.191,862.297 h -43.048 l -21.524,-37.28 21.524,-37.281 h 43.048 l 21.524,37.281 z m 0,-745.609 21.524,37.28 -21.524,37.281 h -43.048 l -21.524,-37.281 21.524,-37.28 z m -129.143,0 21.524,37.28 -21.524,37.281 H 500 L 478.476,153.968 500,116.688 Z m -129.144,74.561 h -43.047 l -21.524,-37.281 21.524,-37.28 h 43.047 l 21.524,37.28 z M 177.142,526.773 155.618,564.054 H 112.57 l -21.524,-37.281 21.524,-37.28 h 43.048 z m 236.762,260.963 21.524,37.281 -21.524,37.28 h -43.047 l -21.524,-37.28 21.524,-37.281 z m 129.144,0 21.524,37.281 -21.524,37.28 H 500 L 478.476,825.017 500,787.736 Z m 150.667,-559.207 -21.524,-37.28 21.524,-37.281 h 43.048 l 21.524,37.281 -21.524,37.28 z m 107.619,260.964 21.524,-37.281 h 43.048 l 21.524,37.281 -21.524,37.28 H 822.858 Z M 349.333,228.529 h -43.048 l -21.524,-37.28 21.524,-37.281 h 43.048 l 21.524,37.281 z m -129.144,223.683 21.524,37.281 -21.524,37.28 h -43.047 l -21.524,-37.28 21.524,-37.281 z M 736.763,303.09 h -43.048 l -21.524,-37.28 21.524,-37.281 h 43.048 l 21.524,37.281 z m 64.571,111.842 h -43.047 l -21.524,-37.281 21.524,-37.28 h 43.047 l 21.524,37.28 z m -64.571,260.963 21.524,37.28 -21.524,37.281 h -43.048 l -21.524,-37.281 21.524,-37.28 z m 64.571,-111.841 21.524,37.28 -21.524,37.281 h -43.047 l -21.524,-37.281 21.524,-37.28 z m -452.001,-335.525 21.524,37.281 -21.524,37.28 h -43.048 l -21.524,-37.28 21.524,-37.281 z m -64.572,111.842 21.524,37.28 -21.524,37.281 h -43.048 l -21.524,-37.281 21.524,-37.28 z m 0,372.804 21.524,-37.28 h 43.048 l 21.524,37.28 -21.524,37.281 h -43.048 z m -64.572,-111.841 21.524,-37.28 h 43.048 l 21.524,37.28 -21.524,37.281 H 241.713 Z M 543.048,787.736 H 500 L 478.476,750.456 500,713.175 h 43.048 l 21.524,37.281 z m 215.239,-149.121 -21.524,37.28 h -43.048 l -21.524,-37.28 21.524,-37.281 h 43.048 z M 607.619,750.456 h -43.047 l -21.524,-37.281 21.524,-37.28 h 43.047 l 21.524,37.28 z M 564.572,228.529 h 43.047 l 21.524,37.281 -21.524,37.28 h -43.047 l -21.524,-37.28 z m -86.096,0 21.524,37.281 -21.524,37.28 h -43.048 l -21.524,-37.28 21.524,-37.281 z m -172.191,447.366 -21.524,-37.28 21.524,-37.281 h 43.048 l 21.524,37.281 -21.524,37.28 z m 172.191,0 21.524,37.28 -21.524,37.281 h -43.048 l -21.524,-37.281 21.524,-37.28 z m 215.239,-223.683 -21.524,-37.28 21.524,-37.281 h 43.048 l 21.524,37.281 -21.524,37.28 z m -21.524,37.281 21.524,-37.281 h 43.048 l 21.524,37.281 -21.524,37.28 H 693.715 Z M 500,340.371 478.476,303.09 500,265.81 h 43.048 l 21.524,37.28 -21.524,37.281 z M 349.333,452.212 h -43.048 l -21.524,-37.28 21.524,-37.281 h 43.048 l 21.524,37.281 z m 21.524,37.281 -21.524,37.28 h -43.048 l -21.524,-37.28 21.524,-37.281 h 43.048 z m 258.286,-74.561 -21.524,-37.281 21.524,-37.28 h 43.048 l 21.524,37.28 -21.524,37.281 z m 0,149.122 h 43.048 l 21.524,37.28 -21.524,37.281 H 629.143 L 607.619,601.334 Z M 413.904,414.932 h -43.047 l -21.524,-37.281 21.524,-37.28 h 43.047 l 21.524,37.28 z m 0,149.122 21.524,37.28 -21.524,37.281 h -43.047 l -21.524,-37.281 21.524,-37.28 z M 500,414.932 478.476,377.651 500,340.371 h 43.048 l 21.524,37.28 -21.524,37.281 z m 0,149.122 h 43.048 l 21.524,37.28 -21.524,37.281 H 500 l -21.524,-37.281 z m 43.048,-74.561 21.524,-37.281 h 43.047 l 21.524,37.281 -21.524,37.28 h -43.047 z m -43.048,0 -21.524,37.28 h -43.048 l -21.524,-37.28 21.524,-37.281 h 43.048 z m 473.526,-372.805 -21.524,37.28 -21.524,-37.28 z m 21.523,37.28 -21.523,37.281 -21.524,-37.281 z m -64.571,782.89 H 887.43 l 21.524,-37.28 z m 21.524,-37.28 h -43.048 l 21.524,-37.281 z m 21.524,-37.281 h -43.048 l 21.524,-37.28 z m -947.052,0 21.524,-37.28 21.524,37.28 z m 968.575,-37.28 h -43.047 l 21.524,-37.281 z m -947.051,74.561 21.524,-37.281 21.524,37.281 z m 21.524,-782.89 h 43.048 l -21.524,37.28 z m -21.524,37.28 h 43.048 l -21.524,37.281 z m -21.524,37.281 h 43.048 l -21.524,37.28 z M 4.95,228.529 H 47.998 L 26.474,265.81 Z m 43.048,-74.561 21.524,37.281 H 26.474 Z m 64.572,782.89 21.524,-37.28 21.524,37.28 z m 0,0 -21.524,-37.28 h 43.048 z M 91.046,899.578 69.522,862.297 h 43.048 z m 0,0 21.524,-37.281 21.524,37.281 z M 69.522,862.297 47.998,825.017 h 43.048 z m 0,0 21.524,-37.28 21.524,37.28 z M 47.998,825.017 26.474,787.736 h 43.048 z m 0,0 21.524,-37.281 21.524,37.281 z m -21.524,-37.281 21.524,-37.28 21.524,37.28 z m 0,0 -21.524,-37.28 h 43.048 z m 0,-596.487 21.524,37.28 H 4.95 Z M 4.95,750.456 26.474,713.175 47.998,750.456 Z m 947.052,-596.488 21.524,37.281 h -43.048 z m 21.524,37.281 -21.524,37.28 -21.524,-37.28 z m 0,0 21.523,37.28 h -43.047 z m -86.096,745.609 -21.524,-37.28 h 43.048 z m 21.524,-37.28 h -43.048 l 21.524,-37.281 z m 0,0 -21.524,-37.281 h 43.048 z m 43.048,-74.561 -21.524,-37.281 h 43.048 z m 21.524,-37.281 -21.524,-37.28 h 43.047 z m 0,0 h -43.048 l 21.524,-37.28 z M 69.522,116.688 91.046,153.968 H 47.998 Z M 4.95,303.09 h 43.048 l -21.524,37.281 z m 0,0 21.524,-37.28 21.524,37.28 z M 91.046,153.968 112.57,191.249 H 69.522 Z m -21.524,37.281 h 43.048 l -21.524,37.28 z m 0,0 21.524,37.28 H 47.998 Z m 86.096,745.609 -21.524,-37.28 h 43.048 z m -21.524,-37.28 21.524,-37.281 21.524,37.281 z m 0,0 -21.524,-37.281 h 43.048 z M 91.046,825.017 69.522,787.736 H 112.57 Z M 69.522,787.736 47.998,750.456 h 43.048 z m 0,0 21.524,-37.28 21.524,37.28 z M 91.046,79.407 112.57,116.688 H 69.522 Z M 4.95,675.895 l 21.524,-37.28 21.524,37.28 z m 0,0 h 43.048 l -21.524,37.28 z M 865.906,79.407 887.43,116.688 h -43.048 z m 0,0 -21.524,37.281 -21.524,-37.281 z m 21.524,37.281 -21.524,37.28 -21.524,-37.28 z m -860.956,0 h 43.048 l -21.524,37.28 z M 973.526,340.371 952.002,303.09 h 43.047 z m -43.048,-149.122 -21.524,37.28 -21.524,-37.28 z m 0,0 21.524,37.28 h -43.048 z m 21.524,37.28 -21.524,37.281 -21.524,-37.281 z M 801.334,936.858 779.811,974.139 758.287,936.858 Z M 47.998,79.407 h 43.048 l -21.524,37.281 z m 817.908,820.171 -21.524,-37.281 h 43.048 z m 0,0 h -43.048 l 21.524,-37.281 z m 21.524,-37.281 h -43.048 l 21.524,-37.28 z M 112.57,42.127 134.094,4.846 155.618,42.127 Z m 860.956,596.488 21.523,37.28 H 952.002 Z M 801.334,42.127 H 758.287 L 779.811,4.846 Z m 172.192,820.17 -21.524,-37.28 h 43.047 z M 801.334,42.127 779.811,79.407 758.287,42.127 Z m 0,0 21.524,37.28 h -43.047 z m 21.524,37.28 -21.524,37.281 -21.523,-37.281 z m 0,0 21.524,37.281 h -43.048 z m 129.144,820.171 -21.524,-37.281 h 43.048 z M 672.191,42.127 H 629.143 L 650.667,4.846 Z m 258.287,894.731 -21.524,-37.28 h 43.048 z M 241.713,42.127 263.237,4.846 284.761,42.127 Z m 710.289,857.451 21.524,-37.281 21.523,37.281 z M 241.713,42.127 h 43.048 l -21.524,37.28 z m 0,0 21.524,37.28 h -43.048 z m 301.335,0 H 500 L 521.524,4.846 Z m 408.954,37.28 21.524,37.281 H 930.478 Z M 370.857,42.127 392.381,4.846 413.904,42.127 Z m 602.669,74.561 21.523,37.28 h -43.047 z m -796.384,-37.281 21.524,37.281 h -43.048 z m 0,0 h 43.047 l -21.523,37.281 z m 43.047,0 h 43.048 l -21.524,37.281 z m 0,0 21.524,37.281 h -43.047 z m -64.571,37.281 h 43.048 l -21.524,37.28 z M 952.002,79.407 h 43.047 l -21.523,37.281 z M 26.474,340.371 h 43.048 l -21.524,37.28 z m 0,0 21.524,-37.281 21.524,37.281 z M 47.998,303.09 H 91.046 L 69.522,340.371 Z M 112.57,191.249 h 43.048 l -21.524,37.28 z m 0,0 21.524,37.28 H 91.046 Z m -21.524,37.28 h 43.048 L 112.57,265.81 Z M 930.478,42.127 H 887.43 L 908.954,4.846 Z M 241.713,936.858 h 43.048 l -21.524,37.281 z M 47.998,899.578 26.474,862.297 h 43.048 z m 129.144,0 -21.524,-37.281 h 43.048 z m 0,0 21.524,-37.281 21.523,37.281 z m -21.524,-37.281 21.524,-37.28 21.524,37.28 z M 4.95,526.773 h 43.048 l -21.524,37.281 z m 0,0 21.524,-37.28 21.524,37.28 z m 21.524,111.842 h 43.048 l -21.524,37.28 z m 0,0 21.524,-37.281 21.524,37.281 z m 21.524,37.28 21.524,-37.28 21.524,37.28 z m 322.859,260.963 h 43.047 l -21.523,37.281 z M 4.95,899.578 26.474,862.297 47.998,899.578 Z M 47.998,79.407 69.522,116.688 H 26.474 Z m 624.193,857.451 -21.524,37.281 -21.524,-37.281 z M 4.95,79.407 h 43.048 l -21.524,37.281 z m 839.432,37.281 21.524,37.28 h -43.048 z m 0,0 -21.524,37.28 -21.524,-37.28 z m 21.524,37.28 -21.524,37.281 -21.524,-37.281 z m 0,0 21.524,37.281 h -43.048 z m 21.524,37.281 21.524,37.28 h -43.048 z m 0,0 -21.524,37.28 -21.524,-37.28 z M 4.95,899.578 h 43.048 l -21.524,37.28 z M 995.049,377.651 h -43.047 l 21.524,-37.28 z m 0,0 -21.523,37.281 -21.524,-37.281 z m -21.523,-37.28 -21.524,37.28 -21.524,-37.28 z m 0,0 H 930.478 L 952.002,303.09 Z M 908.954,228.529 887.43,265.81 865.906,228.529 Z m 0,0 21.524,37.281 H 887.43 Z m -107.62,708.329 -21.523,-37.28 h 43.047 z m 0,0 h -43.047 l 21.524,-37.28 z m 21.524,-37.28 h -43.047 l 21.523,-37.281 z m 0,0 -21.524,-37.281 h 43.048 z m -64.571,37.28 -21.524,-37.28 h 43.048 z m 86.095,-74.561 -21.524,-37.28 h 43.048 z m 0,0 h -43.048 l 21.524,-37.28 z m 21.524,-37.28 -21.524,-37.281 h 43.048 z m 0,0 h -43.048 l 21.524,-37.281 z m 21.524,-37.281 h -43.048 l 21.524,-37.28 z M 4.95,79.407 26.474,42.127 47.998,79.407 Z m 990.099,521.927 h -43.047 l 21.524,-37.28 z m 0,0 -21.523,37.281 -21.524,-37.281 z m -21.523,-37.28 -21.524,-37.281 h 43.047 z M 930.478,713.175 H 887.43 l 21.524,-37.28 z m 0,0 -21.524,-37.28 h 43.048 z m 43.048,-74.56 -21.524,37.28 -21.524,-37.28 z m -21.524,37.28 h -43.048 l 21.524,-37.28 z m 21.524,-37.28 h -43.048 l 21.524,-37.281 z M 758.287,42.127 l 21.524,37.28 h -43.048 z m 21.524,37.28 -21.524,37.281 -21.524,-37.281 z m 0,0 21.523,37.281 h -43.047 z m -107.62,-37.28 -21.524,37.28 -21.524,-37.28 z m 0,0 21.524,37.28 h -43.048 z m -43.048,0 21.524,37.28 h -43.048 z m -344.382,0 21.524,37.28 h -43.048 z m -21.524,37.28 h 43.048 l -21.524,37.281 z m 0,0 21.524,37.281 h -43.048 z m 107.62,-37.28 h 43.047 l -21.523,37.28 z m 0,0 21.524,37.28 h -43.048 z m 43.047,0 21.524,37.28 h -43.047 z m -215.238,74.561 21.523,37.28 h -43.047 z m 0,0 h 43.047 l -21.524,37.28 z m -21.524,37.28 h 43.047 l -21.523,37.281 z m 0,0 21.524,37.281 h -43.048 z m -21.524,37.281 21.524,37.28 h -43.048 z m 0,0 h 43.048 l -21.524,37.28 z M 4.95,452.212 l 21.524,-37.28 21.524,37.28 z m 0,0 h 43.048 l -21.524,37.281 z m 21.524,-37.28 h 43.048 l -21.524,37.28 z m 0,0 21.524,-37.281 21.524,37.281 z m 21.524,-37.281 21.524,-37.28 21.524,37.28 z m 0,0 h 43.048 l -21.524,37.281 z m 21.524,-37.28 h 43.048 l -21.524,37.28 z m 0,0 21.524,-37.281 21.524,37.281 z m 64.572,-111.842 h 43.048 l -21.524,37.281 z m 0,0 21.524,37.281 H 112.57 Z m 107.619,708.329 -21.524,-37.28 h 43.048 z m 0,0 21.524,-37.28 21.524,37.28 z m -21.524,-37.28 21.524,-37.281 21.524,37.281 z m 0,0 -21.523,-37.281 h 43.047 z m 64.572,37.28 -21.524,-37.28 h 43.048 z m -86.095,-74.561 -21.524,-37.28 h 43.047 z m 0,0 21.523,-37.28 21.524,37.28 z m -21.524,-37.28 21.524,-37.281 21.523,37.281 z m 0,0 -21.524,-37.281 h 43.048 z m -21.524,-37.281 21.524,-37.28 21.524,37.28 z M 26.474,564.054 h 43.048 l -21.524,37.28 z m 0,0 21.524,-37.281 21.524,37.281 z m 21.524,37.28 21.524,-37.28 21.524,37.28 z m 0,0 h 43.048 l -21.524,37.281 z m 0,-74.561 h 43.048 l -21.524,37.281 z m 64.572,186.402 21.524,-37.28 21.524,37.28 z m 0,0 -21.524,-37.28 h 43.048 z m -43.048,-74.56 h 43.048 l -21.524,37.28 z m 21.524,37.28 21.524,-37.28 21.524,37.28 z m -21.524,-37.28 21.524,-37.281 21.524,37.281 z m 301.335,298.243 21.524,-37.28 21.523,37.28 z m 0,0 -21.524,-37.28 h 43.048 z m 43.047,0 -21.523,-37.28 h 43.047 z m 258.287,0 -21.524,-37.28 h 43.048 z m 0,0 h -43.048 l 21.524,-37.28 z m -43.048,0 -21.524,-37.28 h 43.048 z m -86.095,0 -21.524,-37.28 h 43.048 z m 0,0 H 500 l 21.524,-37.28 z m -43.048,0 -21.524,-37.28 h 43.048 z m 322.858,-782.89 21.524,37.281 h -43.048 z m 21.524,37.281 -21.524,37.28 -21.524,-37.28 z m 0,0 21.524,37.28 h -43.048 z m 129.144,223.683 21.523,37.28 h -43.047 z m 0,0 -21.524,37.28 -21.524,-37.28 z m 0,0 h -43.048 l 21.524,-37.281 z M 779.811,899.578 758.287,862.297 h 43.047 z m 0,0 h -43.048 l 21.524,-37.281 z m 43.047,-74.561 -21.524,-37.281 h 43.048 z m 21.524,-37.281 h -43.048 l 21.524,-37.28 z m 0,0 -21.524,-37.28 h 43.048 z m 129.144,-223.682 -21.524,37.28 -21.524,-37.28 z m 0,0 h -43.048 l 21.524,-37.281 z m -86.096,149.121 -21.524,-37.28 h 43.048 z m 21.524,-37.28 h -43.048 l 21.524,-37.28 z m 0,0 -21.524,-37.28 h 43.048 z M 693.715,899.578 h -43.048 l 21.524,-37.281 z M 736.763,79.407 715.239,116.688 693.715,79.407 Z m 0,0 21.524,37.281 h -43.048 z m -43.048,0 21.524,37.281 h -43.048 z m 0,0 -21.524,37.281 -21.524,-37.281 z m 64.572,37.281 -21.524,37.28 -21.524,-37.28 z M 650.667,79.407 629.143,116.688 607.619,79.407 Z m 0,0 21.524,37.281 h -43.048 z m -43.048,0 -21.523,37.281 -21.524,-37.281 z m 0,0 21.524,37.281 h -43.047 z m -43.047,0 21.524,37.281 h -43.048 z m -258.287,0 h 43.048 l -21.524,37.281 z m 0,0 21.524,37.281 h -43.048 z m 43.048,0 21.524,37.281 h -43.048 z m 0,0 h 43.048 l -21.524,37.281 z m -64.572,37.281 h 43.048 l -21.524,37.28 z M 478.476,79.407 500,116.688 h -43.048 z m 0,0 -21.524,37.281 -21.524,-37.281 z m -86.095,0 h 43.047 l -21.524,37.281 z m 43.047,0 21.524,37.281 h -43.048 z m -43.047,0 21.523,37.281 h -43.047 z m -172.192,74.561 21.524,37.281 h -43.047 z m -21.523,37.281 h 43.047 l -21.524,37.28 z m 0,0 21.523,37.28 h -43.047 z m -150.668,260.963 21.524,-37.28 21.524,37.28 z m 21.524,-37.28 h 43.048 l -21.524,37.28 z m 0,0 21.524,-37.281 21.524,37.281 z m 193.715,484.646 -21.524,-37.281 h 43.048 z m 0,0 21.524,-37.281 21.524,37.281 z m -43.048,-74.561 -21.523,-37.281 h 43.047 z m -21.523,-37.281 21.523,-37.28 21.524,37.28 z m 0,0 -21.524,-37.28 h 43.047 z M 69.522,564.054 h 43.048 l -21.524,37.28 z m 0,0 21.524,-37.281 21.524,37.281 z m 86.096,149.121 -21.524,-37.28 h 43.048 z m -21.524,-37.28 21.524,-37.28 21.524,37.28 z m 0,0 -21.524,-37.28 h 43.048 z m 215.239,223.683 21.524,-37.281 21.524,37.281 z m 43.048,0 21.523,-37.281 21.524,37.281 z m 0,0 -21.524,-37.281 h 43.047 z m 43.047,0 -21.524,-37.281 h 43.048 z m 0,0 21.524,-37.281 21.524,37.281 z m 43.048,0 -21.524,-37.281 H 500 Z m 0,0 21.524,-37.281 21.524,37.281 z m 172.191,0 h -43.048 l 21.524,-37.281 z m 0,0 -21.524,-37.281 h 43.048 z m -43.048,0 -21.523,-37.281 h 43.047 z m 0,0 h -43.047 l 21.524,-37.281 z m -43.047,0 -21.524,-37.281 h 43.048 z m 0,0 h -43.048 l 21.524,-37.281 z m -43.048,0 L 500,862.297 h 43.048 z m 279.81,-708.329 -21.523,37.28 -21.524,-37.28 z m 0,0 21.524,37.28 h -43.047 z m 21.524,37.28 -21.524,37.281 -21.523,-37.281 z m 129.144,223.683 h -43.048 l 21.524,-37.28 z m 0,0 -21.524,37.281 -21.524,-37.281 z m -21.524,-37.28 -21.524,37.28 -21.524,-37.28 z m -43.048,-74.561 -21.524,37.28 -21.524,-37.28 z m 0,0 H 844.382 L 865.906,303.09 Z M 865.906,303.09 844.382,340.371 822.858,303.09 Z m -64.572,484.646 -21.523,-37.28 h 43.047 z m 0,0 h -43.047 l 21.524,-37.28 z m 21.524,-37.28 h -43.047 l 21.523,-37.281 z M 930.478,489.493 H 887.43 l 21.524,-37.281 z m -64.572,186.402 -21.524,-37.28 h 43.048 z m 0,0 h -43.048 l 21.524,-37.28 z m 21.524,-37.28 h -43.048 l 21.524,-37.281 z m -172.191,-521.927 -21.524,37.28 -21.524,-37.28 z m 0,0 21.524,37.28 h -43.048 z m -86.096,0 -21.524,37.28 -21.523,-37.28 z m -43.047,0 21.523,37.28 h -43.047 z m 0,0 -21.524,37.28 -21.524,-37.28 z m -258.287,0 h 43.048 l -21.524,37.28 z m 0,0 21.524,37.28 h -43.048 z m 172.191,0 -21.524,37.28 -21.524,-37.28 z m -43.048,0 21.524,37.28 h -43.048 z m 0,0 -21.524,37.28 -21.524,-37.28 z m -215.239,74.561 21.524,37.28 h -43.048 z m 0,0 h 43.048 l -21.524,37.28 z m -21.524,37.28 h 43.048 L 241.713,265.81 Z M 91.046,452.212 h 43.048 l -21.524,37.281 z m 0,0 21.524,-37.28 21.524,37.28 z m 21.524,-37.28 h 43.048 l -21.524,37.28 z m 43.048,-74.561 h 43.048 l -21.524,37.28 z m 0,0 21.524,-37.281 21.524,37.281 z m 21.524,-37.281 h 43.047 l -21.523,37.281 z m 64.571,484.646 -21.524,-37.28 h 43.048 z m 0,0 21.524,-37.28 21.524,37.28 z m -21.524,-37.28 21.524,-37.281 21.524,37.281 z M 112.57,489.493 l 21.524,-37.281 21.524,37.281 z m 64.572,186.402 -21.524,-37.28 h 43.048 z m 0,0 21.524,-37.28 21.523,37.28 z m -21.524,-37.28 21.524,-37.281 21.524,37.281 z m 258.286,223.682 21.524,-37.28 21.524,37.28 z m 43.048,0 -21.524,-37.28 h 43.048 z m 0,0 21.524,-37.28 21.524,37.28 z m 172.191,0 h -43.047 l 21.523,-37.28 z m -43.047,0 -21.524,-37.28 h 43.047 z m 0,0 h -43.048 l 21.524,-37.28 z m 172.191,-671.048 21.524,37.28 h -43.048 z m 21.524,37.28 21.523,37.281 h -43.047 z m 0,0 -21.524,37.281 -21.524,-37.281 z m 21.523,37.281 -21.523,37.28 -21.524,-37.28 z m 0,0 21.524,37.28 h -43.047 z m 21.524,37.28 -21.524,37.281 -21.523,-37.281 z m 0,0 21.524,37.281 h -43.048 z m 86.096,149.122 h -43.048 l 21.524,-37.28 z m 0,0 -21.524,37.281 -21.524,-37.281 z m -21.524,-37.28 -21.524,37.28 -21.524,-37.28 z m 0,0 h -43.048 l 21.524,-37.281 z m -21.524,-37.281 -21.524,37.281 -21.524,-37.281 z m 0,0 h -43.048 l 21.524,-37.28 z m -21.524,-37.28 -21.524,37.28 -21.524,-37.28 z M 736.763,825.017 h -43.048 l 21.524,-37.281 z m 0,0 -21.524,-37.281 h 43.048 z m 21.524,-37.281 -21.524,-37.28 h 43.048 z m 0,0 h -43.048 l 21.524,-37.28 z m 21.524,-37.28 -21.524,-37.281 h 43.047 z m 0,0 h -43.048 l 21.524,-37.281 z m 21.523,-37.281 -21.523,-37.28 h 43.047 z m 0,0 h -43.047 l 21.524,-37.28 z m 21.524,-37.28 h -43.047 l 21.523,-37.28 z m 0,0 -21.524,-37.28 h 43.048 z M 887.43,564.054 h -43.048 l 21.524,-37.281 z m 0,0 -21.524,37.28 -21.524,-37.28 z m -43.048,74.561 -21.524,-37.281 h 43.048 z m 21.524,-37.281 h -43.048 l 21.524,-37.28 z m -21.524,37.281 h -43.048 l 21.524,-37.281 z M 693.715,825.017 672.191,787.736 h 43.048 z m -86.096,-671.049 -21.523,37.281 -21.524,-37.281 z m 0,0 21.524,37.281 h -43.047 z m -43.047,0 21.524,37.281 h -43.048 z m -258.287,74.561 h -43.048 l 21.524,-37.28 z m 150.667,-37.28 -21.524,-37.281 h 43.048 z m 0,0 21.524,-37.281 21.524,37.281 z m -43.048,0 21.524,-37.281 21.524,37.281 z M 284.761,265.81 h -43.048 l 21.524,-37.281 z m 0,0 -21.524,-37.281 h 43.048 z m -21.524,37.28 -21.524,-37.28 h 43.048 z m 0,0 h -43.048 l 21.524,-37.28 z m -21.524,37.281 -21.524,-37.281 h 43.048 z m 0,0 h -43.047 l 21.523,-37.281 z m -64.571,111.841 h -43.048 l 21.524,-37.28 z m 0,0 -21.524,37.281 -21.524,-37.281 z m 21.524,-37.28 -21.524,37.28 -21.524,-37.28 z m 0,0 h -43.048 l 21.524,-37.281 z m 21.523,-37.281 -21.523,37.281 -21.524,-37.281 z m 0,0 h -43.047 l 21.524,-37.28 z m 0,0 -21.523,-37.28 h 43.047 z m 107.62,410.085 21.524,37.281 h -43.048 z m 0,0 -21.524,37.281 -21.524,-37.281 z m -21.524,-37.28 -21.524,37.28 -21.524,-37.28 z m 0,0 21.524,37.28 h -43.048 z m -21.524,-37.281 -21.524,37.281 -21.524,-37.281 z m 0,0 21.524,37.281 h -43.048 z m -21.524,-37.28 -21.524,37.28 -21.524,-37.28 z m 0,0 21.524,37.28 h -43.048 z m -21.524,-37.28 21.524,37.28 h -43.048 z m 0,0 -21.524,37.28 -21.523,-37.28 z m -43.047,-74.561 h -43.048 l 21.524,-37.281 z m 0,0 -21.524,37.28 -21.524,-37.28 z m 21.523,37.28 -21.523,37.281 -21.524,-37.281 z m 0,0 h -43.047 l 21.524,-37.28 z m 0,0 21.524,37.281 h -43.047 z m 150.668,186.402 -21.524,37.281 -21.524,-37.281 z m 86.095,0 -21.524,37.281 -21.524,-37.281 z m 0,0 21.524,37.281 h -43.048 z m 43.048,0 -21.524,37.281 -21.524,-37.281 z m 86.096,0 h 43.047 l -21.524,37.281 z m 0,0 21.523,37.281 h -43.047 z m -43.048,0 h 43.048 l -21.524,37.281 z m 193.715,-484.646 21.524,-37.28 21.524,37.28 z m 21.524,37.281 -21.524,-37.281 h 43.048 z m 0,0 21.524,-37.281 21.523,37.281 z m 64.571,111.841 21.524,-37.28 21.524,37.28 z m -21.524,-37.28 h 43.048 l -21.524,37.28 z m 0,0 21.524,-37.281 21.524,37.281 z m -107.619,335.524 21.524,37.28 h -43.048 z m 0,0 h 43.048 l -21.524,37.28 z m 43.048,-74.561 h 43.048 l -21.524,37.28 z m 21.524,-37.28 h 43.047 l -21.523,37.28 z m 0,0 21.524,37.28 h -43.048 z m 64.571,-111.842 h 43.048 l -21.524,37.281 z m -21.524,37.281 21.524,-37.281 21.524,37.281 z m 0,0 h 43.048 l -21.524,37.28 z M 650.667,750.456 h 43.048 l -21.524,37.28 z m 0,0 21.524,37.28 h -43.048 z m -43.048,0 21.524,37.28 h -43.047 z m 0,0 h 43.048 l -21.524,37.28 z m 43.048,-521.927 21.524,-37.28 21.524,37.28 z m 0,0 -21.524,-37.28 h 43.048 z m -43.048,0 -21.523,-37.28 h 43.047 z m 0,0 21.524,-37.28 21.524,37.28 z m -43.047,0 -21.524,-37.28 h 43.048 z m 0,0 21.524,-37.28 21.523,37.28 z m -43.048,0 L 500,191.249 h 43.048 z m 0,0 21.524,-37.28 21.524,37.28 z m 0,0 H 478.476 L 500,191.249 Z m -43.048,0 -21.524,-37.28 H 500 Z m -129.143,0 21.524,-37.28 21.524,37.28 z m 43.048,0 -21.524,-37.28 h 43.047 z m 43.047,0 -21.524,-37.28 h 43.048 z m -43.047,0 21.523,-37.28 21.524,37.28 z m 86.095,0 h -43.048 l 21.524,-37.28 z M 306.285,303.09 h -43.048 l 21.524,-37.28 z m 0,0 -21.524,37.281 -21.524,-37.281 z m -21.524,37.281 h -43.048 l 21.524,-37.281 z m -64.572,111.841 h -43.047 l 21.524,-37.28 z m 0,0 -21.523,-37.28 h 43.047 z m 21.524,-37.28 h -43.047 l 21.523,-37.281 z m 129.144,372.804 h -43.048 l 21.524,-37.28 z m -64.572,-37.28 h 43.048 l -21.524,37.28 z m -43.048,-74.561 h 43.048 l -21.524,37.28 z m -21.524,-37.28 h 43.048 l -21.524,37.28 z m 21.524,37.28 21.524,-37.28 21.524,37.28 z M 198.666,564.054 177.142,526.773 h 43.047 z m 0,0 21.523,-37.281 21.524,37.281 z m 21.523,37.28 -21.523,-37.28 h 43.047 z m 150.668,186.402 -21.524,-37.28 h 43.048 z m 43.047,0 h -43.047 l 21.524,-37.28 z m 43.048,0 h -43.048 l 21.524,-37.28 z m -43.048,0 -21.523,-37.28 h 43.047 z m 43.048,0 -21.524,-37.28 h 43.048 z m 43.048,0 h -43.048 l 21.524,-37.28 z m 107.619,-37.28 -21.523,37.28 -21.524,-37.28 z m -64.571,37.28 21.524,-37.28 21.524,37.28 z M 650.667,228.529 h 43.048 l -21.524,37.281 z m 86.096,74.561 -21.524,37.281 -21.524,-37.281 z m 21.524,37.281 h -43.048 l 21.524,-37.281 z m 0,0 -21.524,37.28 -21.524,-37.28 z m 43.047,149.122 -21.523,-37.281 h 43.047 z m 0,-74.561 21.524,37.28 h -43.047 z m 0,0 -21.523,37.28 -21.524,-37.28 z m -150.667,335.524 21.524,-37.281 21.524,37.281 z M 801.334,564.054 779.811,526.773 h 43.047 z m 0,-74.561 21.524,37.28 h -43.047 z m 0,74.561 h -43.047 l 21.524,-37.281 z m 0,-74.561 h -43.047 l 21.524,-37.281 z m 0,0 -21.523,37.28 -21.524,-37.28 z M 650.667,750.456 629.143,713.175 h 43.048 z m -43.048,0 21.524,-37.281 21.524,37.281 z m 43.048,-521.927 21.524,37.281 h -43.048 z m -43.048,0 h 43.048 l -21.524,37.281 z m -86.095,0 h 43.048 l -21.524,37.281 z m 0,0 L 500,265.81 478.476,228.529 Z m 0,0 21.524,37.281 H 500 Z m -172.191,0 h 43.048 l -21.524,37.281 z m 43.048,0 21.523,37.281 h -43.047 z m 0,0 h 43.047 l -21.524,37.281 z m -86.096,74.561 h 43.048 l -21.524,37.281 z m 0,0 21.524,37.281 h -43.048 z m -21.524,37.281 h 43.048 l -21.524,37.28 z m -64.572,111.841 h 43.048 l -21.524,37.281 z m 0,0 21.524,-37.28 21.524,37.28 z m 21.524,-37.28 h 43.048 l -21.524,37.28 z m 107.62,335.524 21.524,-37.281 21.524,37.281 z M 220.189,526.773 h 43.048 l -21.524,37.281 z m 0,0 21.524,-37.28 21.524,37.28 z m 64.572,37.281 h -43.048 l 21.524,-37.281 z m 0,-74.561 h -43.048 l 21.524,-37.281 z m 0,0 -21.524,37.28 -21.524,-37.28 z m 129.143,223.682 -21.523,37.281 -21.524,-37.281 z m 0,0 21.524,37.281 H 392.381 Z M 650.667,303.09 629.143,265.81 h 43.048 z m 0,0 21.524,-37.28 21.524,37.28 z m 21.524,37.281 21.524,-37.281 21.524,37.281 z m 0,0 -21.524,-37.281 h 43.048 z m 21.524,37.28 -21.524,-37.28 h 43.048 z m 0,0 21.524,-37.28 21.524,37.28 z m 43.048,74.561 h 43.048 l -21.524,37.281 z m 0,0 21.524,-37.28 21.524,37.28 z m -86.096,223.683 h 43.048 l -21.524,37.28 z m 0,0 21.524,37.28 h -43.048 z m 21.524,-37.28 21.524,37.28 h -43.048 z m 43.048,-74.561 21.524,37.28 h -43.048 z m 0,0 h 43.048 l -21.524,37.28 z m 21.524,-37.281 h 43.048 l -21.524,37.281 z m 0,0 21.524,37.281 h -43.048 z m 0,0 21.524,-37.28 21.524,37.28 z M 607.619,675.895 h 43.048 l -21.524,37.28 z m 0,-372.805 21.524,-37.28 21.524,37.28 z m -215.238,0 -21.524,-37.28 h 43.047 z m 0,0 h -43.048 l 21.524,-37.28 z m 43.047,0 h -43.047 l 21.523,-37.28 z m -64.571,37.281 h -43.048 l 21.524,-37.281 z m 0,0 -21.524,-37.281 h 43.048 z m -21.524,37.28 -21.524,-37.28 h 43.048 z m 0,0 h -43.048 l 21.524,-37.28 z m -43.048,74.561 -21.524,37.281 -21.524,-37.281 z m 0,0 h -43.048 l 21.524,-37.28 z m 86.096,223.683 21.523,37.28 h -43.047 z m 0,0 -21.524,37.28 -21.524,-37.28 z m -21.524,-37.28 21.524,37.28 h -43.048 z m -43.048,-74.561 21.524,37.28 h -43.048 z m 0,0 -21.524,37.28 -21.524,-37.28 z m -21.524,-37.281 -21.524,37.281 -21.524,-37.281 z m 0,0 21.524,37.281 h -43.048 z m 0,0 h -43.048 l 21.524,-37.28 z m 129.143,149.122 -21.524,37.28 -21.523,-37.28 z m 86.096,0 -21.524,37.28 -21.524,-37.28 z m 0,0 21.524,37.28 H 500 Z m 0,0 h 43.048 l -21.524,37.28 z M 629.143,340.371 607.619,303.09 h 43.048 z m 0,0 21.524,-37.281 21.524,37.281 z m 0,298.244 21.524,37.28 h -43.048 z m 0,0 h 43.048 l -21.524,37.28 z m 43.048,-74.561 h 43.048 l -21.524,37.28 z m 21.524,-37.281 21.524,37.281 h -43.048 z m 0,0 h 43.048 l -21.524,37.281 z M 586.096,638.615 h 43.047 l -21.524,37.28 z m 0,0 21.523,37.28 h -43.047 z m -43.048,0 h 43.048 l -21.524,37.28 z m 0,0 21.524,37.28 H 521.524 Z M 586.096,340.371 564.572,303.09 h 43.047 z m 0,0 21.523,-37.281 21.524,37.281 z m -43.048,0 21.524,-37.281 21.524,37.281 z m -86.096,0 21.524,-37.281 21.524,37.281 z m 0,0 -21.524,-37.281 h 43.048 z m -43.048,0 -21.523,-37.281 h 43.047 z m 0,0 21.524,-37.281 21.524,37.281 z m 0,0 h -43.047 l 21.524,-37.281 z m 0,298.244 21.524,37.28 h -43.047 z m 0,0 -21.523,37.28 -21.524,-37.28 z m -43.047,-74.561 -21.524,37.28 -21.524,-37.28 z m -21.524,-37.281 21.524,37.281 h -43.048 z m 0,0 -21.524,37.281 -21.524,-37.281 z m 107.619,111.842 -21.524,37.28 -21.524,-37.28 z m 0,0 21.524,37.28 h -43.048 z m 43.048,0 -21.524,37.28 -21.524,-37.28 z m 0,0 21.524,37.28 h -43.048 z m 0,0 h 43.048 l -21.524,37.28 z m 107.619,-260.964 -21.523,-37.28 h 43.047 z m 43.048,74.561 -21.524,-37.28 h 43.048 z m 0,0 21.524,-37.28 21.524,37.28 z m 0,0 h 43.048 l -21.524,37.281 z m -43.048,149.122 21.524,37.281 h -43.047 z m 43.048,-74.561 h 43.048 l -21.524,37.281 z m 0,0 21.524,-37.28 21.524,37.28 z m 0,0 21.524,37.281 h -43.048 z m -21.524,-37.28 h 43.048 l -21.524,37.28 z m 0,0 21.524,-37.281 21.524,37.281 z m -64.571,111.841 h 43.047 l -21.523,37.281 z m 0,0 21.524,37.281 h -43.048 z m 0,-223.683 21.524,-37.28 21.523,37.28 z m 0,0 -21.524,-37.28 h 43.048 z m -86.096,0 -21.524,-37.28 H 500 Z m -43.048,0 21.524,-37.28 21.524,37.28 z m 0,0 -21.524,-37.28 h 43.048 z m -43.047,74.561 -21.524,-37.28 h 43.047 z m 0,0 h -43.048 l 21.524,-37.28 z m 0,0 -21.524,37.281 -21.524,-37.281 z m 43.047,149.122 21.524,37.281 h -43.048 z m -43.047,-74.561 -21.524,37.281 -21.524,-37.281 z m 0,0 h -43.048 l 21.524,-37.28 z m 0,0 21.523,37.281 h -43.047 z m 21.523,-37.28 -21.523,37.28 -21.524,-37.28 z m 0,0 h -43.047 l 21.524,-37.281 z m 64.572,111.841 -21.524,37.281 -21.524,-37.281 z m 0,0 21.524,37.281 h -43.048 z m 107.62,-186.402 -21.524,-37.281 h 43.047 z m 0,0 21.523,-37.281 21.524,37.281 z m 21.523,37.28 -21.523,-37.28 h 43.047 z m 0,0 21.524,-37.28 21.524,37.28 z m 0,0 h 43.048 l -21.524,37.281 z m -21.523,111.842 h 43.047 l -21.524,37.28 z m 0,0 21.523,37.28 h -43.047 z m 21.523,-37.281 21.524,37.281 h -43.047 z m 0,0 h 43.048 l -21.524,37.281 z m 0,0 21.524,-37.28 21.524,37.28 z m -64.571,37.281 h 43.048 l -21.524,37.28 z m 0,-149.122 21.524,-37.281 21.524,37.281 z m -86.096,0 -21.524,-37.281 h 43.048 z m 0,0 h -43.048 l 21.524,-37.281 z m 0,0 21.524,-37.281 21.524,37.281 z m -21.524,37.28 -21.524,-37.28 h 43.048 z m 0,0 h -43.047 l 21.523,-37.28 z m 0,0 -21.524,37.281 -21.523,-37.281 z m 21.524,111.842 -21.524,37.28 -21.524,-37.28 z m 0,0 21.524,37.28 h -43.048 z m -21.524,-37.281 21.524,37.281 h -43.048 z m 0,0 -21.524,37.281 -21.523,-37.281 z m 0,0 h -43.047 l 21.523,-37.28 z m 64.572,37.281 -21.524,37.28 -21.524,-37.28 z m 64.572,-111.842 -21.524,-37.28 h 43.048 z m 0,0 21.524,-37.28 21.523,37.28 z m 0,74.561 h 43.047 l -21.523,37.281 z m 0,0 21.524,37.281 H 543.048 Z M 521.524,452.212 500,414.932 h 43.048 z m 0,0 21.524,-37.28 21.524,37.28 z m -43.048,0 21.524,-37.28 21.524,37.28 z m 0,0 -21.524,-37.28 H 500 Z m 0,0 h -43.048 l 21.524,-37.28 z m 0,74.561 -21.524,37.281 -21.524,-37.281 z m 0,0 21.524,37.281 h -43.048 z m 64.572,-37.28 -21.524,-37.281 h 43.048 z m -43.048,0 -21.524,-37.281 h 43.048 z m 0,0 21.524,-37.281 21.524,37.281 z"
     style="opacity:1;fill-opacity:0;stroke:#000000;stroke-width:16;stroke-opacity:1;stop-opacity:1;stroke-miterlimit:4;stroke-dasharray:none"
     id="path5256" />
</svg>
