<?xml version="1.0" encoding="UTF-8" standalone="no"?>
<svg
   xmlns:dc="http://purl.org/dc/elements/1.1/"
   xmlns:cc="http://creativecommons.org/ns#"
   xmlns:rdf="http://www.w3.org/1999/02/22-rdf-syntax-ns#"
   xmlns:svg="http://www.w3.org/2000/svg"
   xmlns="http://www.w3.org/2000/svg"
   xmlns:sodipodi="http://sodipodi.sourceforge.net/DTD/sodipodi-0.dtd"
   xmlns:inkscape="http://www.inkscape.org/namespaces/inkscape"
   inkscape:version="1.0beta1 (32d4812, 2019-09-19)"
   sodipodi:docname="5-uniform_316.svg"
   id="c:\kuniform\5u\5-uniform_316.svg"
   height="999.99994"
   width="977.5618"
   version="1.0">
  <style
     id="style6577"></style>
  <metadata
     id="metadata6575">
    <rdf:RDF>
      <cc:Work
         rdf:about="">
        <dc:format>image/svg+xml</dc:format>
        <dc:type
           rdf:resource="http://purl.org/dc/dcmitype/StillImage" />
        <dc:title></dc:title>
      </cc:Work>
    </rdf:RDF>
  </metadata>
  <defs
     id="defs6573" />
  <sodipodi:namedview
     inkscape:current-layer="c:\kuniform\5u\5-uniform_316.svg"
     inkscape:window-maximized="0"
     inkscape:window-y="23"
     inkscape:window-x="0"
     inkscape:cy="482.54076"
     inkscape:cx="328.55812"
     inkscape:zoom="0.50453751"
     showgrid="false"
     id="namedview6571"
     inkscape:window-height="907"
     inkscape:window-width="1600"
     inkscape:pageshadow="2"
     inkscape:pageopacity="0"
     guidetolerance="10"
     gridtolerance="10"
     objecttolerance="10"
     borderopacity="1"
     inkscape:document-rotation="0"
     bordercolor="#666666"
     pagecolor="#ffffff" />
  <!-- X Coordinate transform: fx(x)=(x+78.93713)*0.84427285-->
  <!-- Y Coordinate transform: fy(y)=(1088.8762-y)*0.84427285 -->
  <path
     d="M 930.509,78.067 951.616,41.509 M 47.053,120.28 H 4.839 M 83.611,99.173 104.718,62.615 V 20.402 m 0,880.425 21.107,36.558 21.107,36.558 M 47.053,843.162 H 4.839 M 909.402,41.509 h 42.214 m -78.772,859.318 -21.107,36.558 -21.107,36.558 m 99.879,-130.781 h 42.213 M 930.509,120.28 h 42.213 M 893.951,99.173 872.844,62.615 m 57.665,853.663 21.107,-36.558 M 183.49,41.509 204.597,4.95 m -99.879,57.665 h 42.214 M 68.16,156.838 H 25.946 m 21.107,36.558 H 4.839 m 889.112,743.989 -21.107,36.558 m -704.806,-36.558 -21.106,36.558 m 0,-73.116 -21.107,36.558 -21.107,36.558 M 83.611,937.385 104.718,900.827 V 858.613 L 83.611,822.055 62.504,785.497 m 846.898,94.223 21.107,36.558 v 42.213 m -99.879,-57.664 21.107,36.558 21.107,36.558 m 21.107,-36.558 36.558,-21.107 h 42.213 m -99.878,-57.665 21.107,-36.558 21.106,-36.558 M 794.072,41.509 772.965,4.95 m 57.665,57.665 h 42.214 L 909.402,41.509 930.509,4.95 m -21.107,151.888 h 42.214 m -21.107,36.558 21.107,-36.558 21.106,-36.558 M 872.844,135.731 851.737,99.173 830.63,62.615 794.072,41.509 H 751.858 709.645 667.431 M 104.718,135.731 125.825,99.173 146.932,62.615 183.49,41.509 h 42.213 42.214 42.214 m -226.52,895.876 21.107,36.558 M 47.053,727.832 H 4.839 M 204.597,78.067 225.703,41.509 246.81,4.95 M 168.038,99.173 146.932,62.615 V 20.402 M 62.504,251.061 83.611,214.503 104.718,177.945 V 135.731 L 83.611,99.173 m 0,838.212 -36.558,21.106 m 0,-649.765 H 4.839 M 246.81,958.491 225.703,995.05 M 68.16,879.72 47.053,916.278 v 42.213 m 683.699,0 -21.107,36.559 M 47.053,916.278 H 4.839 m 178.651,-36.558 21.107,36.558 v 42.213 l 21.106,36.559 M 146.932,858.613 125.825,822.055 104.718,785.497 83.611,748.939 m 710.461,130.781 -21.107,36.558 v 42.213 L 751.858,995.05 M 47.053,78.067 H 4.839 m 925.67,649.765 h 42.213 m -142.092,130.781 21.107,-36.558 21.107,-36.558 21.107,-36.558 M 772.965,78.067 751.858,41.509 730.752,4.95 M 830.63,135.731 851.737,99.173 872.844,62.615 V 20.402 m 42.213,230.659 -21.106,-36.558 -21.107,-36.558 M 83.611,99.173 47.053,78.067 25.946,41.509 m 904.563,267.217 h 42.213 M 730.752,78.067 751.858,41.509 772.965,4.95 M 688.538,78.067 709.645,41.509 730.752,4.95 M 552.101,41.509 530.995,4.95 m 57.664,57.665 h 42.214 M 425.46,41.509 h 42.214 42.214 42.213 l 36.558,21.106 M 246.81,78.067 267.917,41.509 289.024,4.95 m 0,73.117 L 267.917,41.509 246.81,4.95 m 99.879,57.665 h 42.213 L 425.46,41.509 446.567,4.95 M 68.16,41.509 47.053,4.95 m 0,607.552 H 4.839 M 83.611,706.725 62.504,670.167 25.946,649.06 m 78.772,-471.115 h 42.214 m 0,-157.543 36.558,21.107 21.107,36.558 v 42.213 l -21.107,36.558 m -99.879,130.781 21.107,-36.558 21.107,-36.558 21.107,-36.558 36.558,-21.107 M 146.932,135.731 125.825,99.173 104.718,62.615 68.16,41.509 H 25.946 M 47.053,424.056 H 4.839 m 78.772,-94.223 -21.107,36.558 -36.558,21.107 m 178.651,528.78 h 42.213 42.214 m 36.558,21.107 21.107,36.558 M 488.781,958.491 467.674,995.05 M 972.722,78.067 951.616,41.509 930.509,4.95 M 688.538,916.278 h 42.214 42.213 M 651.98,937.385 630.873,973.943 M 83.611,822.055 h 42.214 42.213 m -142.092,57.665 21.107,-36.558 36.558,-21.107 21.107,-36.558 21.107,-36.558 m 804.684,-136.437 21.107,-36.558 m -220.864,340.334 21.106,-36.558 21.107,-36.558 m 36.558,-21.107 h 42.214 42.214 m 21.106,-151.888 -21.106,36.558 v 42.214 l 21.106,36.558 36.559,21.107 m -78.772,-786.202 36.558,21.107 21.107,36.558 v 42.213 l -21.107,36.558 -36.558,21.107 H 830.63 M 794.072,156.838 772.965,120.28 V 78.067 L 794.072,41.509 830.63,20.402 m -36.558,136.436 36.558,21.107 21.107,36.558 21.107,36.558 21.107,36.558 M 4.839,78.067 25.946,41.509 47.053,4.95 M 951.616,460.614 930.509,424.056 M 809.523,99.173 h 42.214 42.214 l 36.558,21.107 21.107,36.558 21.106,36.558 -21.106,36.558 -36.559,21.107 -21.106,36.558 v 42.214 l 21.106,36.558 M 688.538,120.28 h 42.214 42.213 M 651.98,99.173 630.873,62.615 V 20.402 M 530.995,78.067 509.888,41.509 488.781,4.95 m 0,73.117 L 509.888,41.509 530.995,4.95 M 446.567,78.067 467.674,41.509 488.781,4.95 M 204.597,120.28 h 42.213 42.214 M 325.582,99.173 346.689,62.615 V 20.402 M 47.053,539.386 H 4.839 M 47.053,497.172 H 4.839 M 68.16,575.944 H 25.946 m 99.879,130.781 -21.107,-36.558 -21.107,-36.558 m 0,-419.106 h 42.214 42.213 m 36.559,-21.107 21.106,-36.558 21.107,-36.558 M 125.825,287.619 104.718,251.061 83.611,214.503 47.053,193.396 25.946,156.838 4.839,120.28 M 68.16,460.614 H 25.946 m 57.665,-57.665 21.107,-36.558 21.107,-36.558 m 184.306,549.887 -21.107,36.558 v 42.213 l -21.107,36.559 m 78.772,-94.223 21.107,36.558 21.106,36.558 m 0,-73.116 -21.106,36.558 -21.107,36.558 m 42.213,-73.116 21.107,36.558 m 36.558,-21.107 h 42.214 42.214 m 136.436,-36.558 21.107,36.558 v 42.213 l 21.107,36.559 m -78.772,-94.223 -21.107,36.558 -21.107,36.558 m 0,-73.116 21.107,36.558 21.107,36.558 M 189.145,785.497 H 146.932 104.718 62.504 L 25.946,764.39 m 199.757,42.214 21.107,36.558 21.107,36.558 21.107,36.558 36.558,21.107 m -220.864,-78.772 21.107,-36.558 21.107,-36.558 21.106,-36.558 m 747.019,-78.772 36.559,-21.107 21.106,-36.558 -21.106,-36.558 -21.107,-36.558 m -15.452,-172.995 36.559,21.107 21.106,36.558 -21.106,36.558 -21.107,36.558 m -21.107,78.772 h 42.214 l 21.106,-36.558 M 567.553,937.385 h 42.213 42.214 l 36.558,-21.107 21.107,-36.558 21.107,-36.558 21.106,-36.558 m 99.879,-99.879 21.107,-36.558 21.107,-36.558 m -84.428,115.33 21.107,36.558 21.107,36.558 21.107,36.558 v 42.214 l 21.107,36.558 M 809.523,214.503 h 42.214 42.214 M 772.965,193.396 751.858,156.838 730.752,120.28 m 241.97,376.892 -21.106,-36.558 H 909.402 M 893.951,402.949 872.844,366.391 851.737,329.833 M 667.431,156.838 h 42.214 42.213 42.214 M 630.873,135.731 609.766,99.173 588.659,62.615 m 0,73.116 L 609.766,99.173 630.873,62.615 667.431,41.509 688.538,4.95 M 446.567,120.28 h 42.214 42.214 M 183.49,156.838 h 42.213 42.214 42.214 m 36.558,-21.107 21.107,-36.558 21.106,-36.558 m 0,73.116 L 367.796,99.173 346.689,62.615 310.131,41.509 289.024,4.95 M 62.504,670.167 83.611,633.609 104.718,597.051 V 554.837 L 83.611,518.279 M 25.946,764.39 47.053,727.832 83.611,706.725 h 42.214 42.213 M 189.145,251.061 H 146.932 104.718 62.504 l -36.558,21.107 m 199.757,-42.214 21.107,-36.558 21.107,-36.558 21.107,-36.558 36.558,-21.107 h 42.214 42.213 M 168.038,287.619 146.932,251.061 125.825,214.503 104.718,177.945 68.16,156.838 47.053,120.28 V 78.067 L 68.16,41.509 104.718,20.402 M 25.946,649.06 4.839,612.502 25.946,575.944 47.053,539.386 83.611,518.279 104.718,481.721 V 439.507 L 83.611,402.949 62.504,366.391 m 42.214,73.116 21.107,-36.558 21.107,-36.558 21.106,-36.558 m 36.559,513.329 h 42.213 42.214 m 136.436,36.558 21.107,36.558 v 42.213 l 21.107,36.559 m 84.427,-115.33 -21.106,36.558 v 42.213 l -21.107,36.559 m 178.65,-151.888 h 42.214 42.213 l 36.558,-21.107 21.107,-36.558 21.107,-36.558 M 4.839,916.278 25.946,879.72 H 68.16 l 36.558,-21.107 h 42.214 l 36.558,21.107 h 42.213 42.214 42.214 l 36.558,-21.107 h 42.213 l 36.558,21.107 h 42.214 42.214 42.213 l 36.558,-21.107 h 42.214 l 36.558,21.107 h 42.214 42.213 42.214 l 36.558,-21.107 h 42.214 l 36.558,21.107 h 42.214 l 21.106,-36.558 -21.106,-36.558 M 225.703,764.39 204.597,727.832 m 505.048,78.772 21.107,36.558 21.106,36.558 21.107,36.558 36.558,21.107 21.107,36.558 m 84.427,-303.776 -21.106,-36.558 -21.107,-36.558 m 0,-42.214 21.107,-36.558 m -84.428,188.446 21.107,-36.558 21.107,-36.558 21.107,-36.558 v -42.214 m -120.986,209.553 21.107,-36.558 36.558,-21.107 h 42.214 42.214 M 567.553,99.173 h 42.213 42.214 l 36.558,21.107 21.107,36.558 21.107,36.558 21.106,36.558 m 57.665,57.665 21.107,-36.558 21.107,-36.558 21.107,-36.558 v -42.214 l 21.107,-36.558 36.558,-21.106 h 42.213 m -99.878,361.44 21.107,-36.558 21.106,-36.558 m -42.213,115.33 21.107,36.558 36.558,21.107 h 42.213 M 872.844,481.721 V 439.507 L 851.737,402.949 830.63,366.391 809.523,329.833 M 851.737,287.619 830.63,251.061 809.523,214.503 772.965,193.396 H 730.752 688.538 M 552.101,156.838 530.995,120.28 V 78.067 l 21.106,-36.558 36.558,-21.107 m 42.214,0 36.558,21.107 21.107,36.558 v 42.213 l -21.107,36.558 -36.558,21.107 H 588.659 M 425.46,156.838 h 42.214 42.214 42.213 l 36.558,21.107 M 289.024,193.396 267.917,156.838 246.81,120.28 V 78.067 L 225.703,41.509 204.597,4.95 m 184.305,15.452 36.558,21.107 21.107,36.558 v 42.213 l -21.107,36.558 -36.558,21.107 H 346.689 L 310.131,156.838 289.024,120.28 V 78.067 l 21.107,-36.558 36.558,-21.107 m -199.757,576.649 -21.107,36.558 -21.107,36.558 -21.107,36.558 v 42.214 L 62.504,785.497 25.946,806.604 M 146.932,554.837 125.825,518.279 104.718,481.721 m 63.32,151.888 H 125.825 83.611 L 47.053,612.502 25.946,575.944 4.839,539.386 M 189.145,670.167 H 146.932 104.718 62.504 l -36.558,21.107 m 0,-461.32 21.107,-36.558 21.107,-36.558 36.558,-21.107 h 42.214 l 36.558,21.107 21.107,36.558 21.106,36.558 v 42.214 l -21.106,36.558 -36.559,21.107 H 125.825 83.611 L 47.053,308.726 25.946,272.168 M 146.932,439.507 125.825,402.949 104.718,366.391 83.611,329.833 V 287.619 L 62.504,251.061 25.946,229.954 m 78.772,324.883 21.107,-36.558 21.107,-36.558 M 4.839,497.172 25.946,460.614 47.053,424.056 83.611,402.949 h 42.214 42.213 m 21.107,-36.558 H 146.932 104.718 62.504 L 25.946,345.284 m 299.636,476.771 h 42.214 42.213 m 36.558,21.107 h 42.214 42.214 m 36.558,-21.107 h 42.213 42.214 M 346.689,858.613 325.582,822.055 304.475,785.497 M 267.917,764.39 h -42.214 l -36.558,21.107 -21.107,36.558 -21.106,36.558 v 42.214 l 21.106,36.558 m 462.835,-78.772 21.107,-36.558 21.107,-36.558 m 36.558,-21.107 h 42.213 m 78.772,-167.339 21.107,36.558 21.107,36.558 21.107,36.558 36.558,21.107 21.107,36.558 v 42.214 l -21.107,36.558 -21.107,36.558 -36.558,21.107 H 830.63 L 794.072,879.72 772.965,843.162 751.858,806.604 V 764.39 m 78.772,-209.553 21.107,-36.558 21.107,-36.558 m -63.321,151.888 h 42.214 42.214 l 36.558,-21.107 h 42.213 M 788.417,785.497 h 42.213 42.214 42.213 l 36.559,-21.107 21.106,-36.558 -21.106,-36.558 -36.559,-21.107 H 872.844 830.63 788.417 M 709.645,229.954 730.752,193.396 751.858,156.838 772.965,120.28 809.523,99.173 830.63,62.615 V 20.402 m -78.772,251.766 21.107,36.558 36.558,21.107 h 42.214 42.214 M 751.858,272.168 v -42.214 l 21.107,-36.558 21.107,-36.558 36.558,-21.107 h 42.214 l 36.558,21.107 21.107,36.558 21.107,36.558 v 42.214 l -21.107,36.558 -36.558,21.107 -21.107,36.558 -21.107,36.558 -21.107,36.558 m 42.214,115.33 -21.107,-36.558 -21.107,-36.558 m -21.107,-78.772 h 42.214 42.214 l 36.558,21.107 h 42.213 M 788.417,251.061 h 42.213 42.214 42.213 l 36.559,21.107 21.106,36.558 -21.106,36.558 -36.559,21.107 H 872.844 830.63 788.417 M 530.995,193.396 509.888,156.838 488.781,120.28 m 78.772,94.223 h 42.213 42.214 M 446.567,193.396 467.674,156.838 488.781,120.28 V 78.067 L 467.674,41.509 446.567,4.95 M 325.582,214.503 h 42.214 42.213 M 168.038,518.279 H 125.825 83.611 L 47.053,497.172 25.946,460.614 4.839,424.056 25.946,387.498 M 225.703,649.06 204.597,612.502 183.49,575.944 m 120.985,-324.883 21.107,-36.558 21.107,-36.558 m -120.986,94.223 h 42.214 m -84.427,188.446 21.107,-36.558 21.106,-36.558 m 241.971,419.106 21.107,36.558 21.107,36.558 21.107,36.558 36.558,21.107 21.106,36.558 M 431.116,785.497 H 388.902 346.689 304.475 L 267.917,764.39 246.81,727.832 225.703,691.274 m 284.185,115.33 -21.107,36.558 -21.107,36.558 -21.107,36.558 -36.558,21.107 -21.107,36.558 M 546.446,785.497 h 42.213 42.214 42.214 l 36.558,-21.107 21.107,-36.558 21.106,-36.558 M 388.902,858.613 367.796,822.055 346.689,785.497 325.582,748.939 m -57.665,-57.665 -21.107,36.558 -21.107,36.558 v 42.214 l -21.106,36.558 -21.107,36.558 -36.558,21.107 H 104.718 L 68.16,879.72 47.053,843.162 25.946,806.604 M 809.523,518.279 h 42.214 42.214 l 36.558,-21.107 h 42.213 m -384.063,361.441 21.107,-36.558 21.107,-36.558 21.107,-36.558 m 36.558,-21.107 h 42.214 42.213 m 36.558,209.553 21.107,-36.558 V 858.613 L 809.523,822.055 788.417,785.497 751.858,764.39 730.752,727.832 709.645,691.274 m 42.213,-42.214 21.107,-36.558 21.107,-36.558 M 673.087,251.061 651.98,214.503 630.873,177.945 m 78.772,94.223 h 42.213 m 42.214,188.446 -21.107,-36.558 -21.107,-36.558 M 509.888,229.954 488.781,193.396 467.674,156.838 446.567,120.28 410.009,99.173 388.902,62.615 V 20.402 m 157.544,230.659 h 42.213 42.214 42.214 l 36.558,21.107 21.107,36.558 21.106,36.558 m -284.184,-115.33 21.107,-36.558 21.107,-36.558 21.107,-36.558 36.558,-21.107 21.106,-36.558 V 20.402 m -362.956,324.882 21.107,-36.558 21.107,-36.558 36.558,-21.107 h 42.214 42.213 42.214 m -326.398,345.99 h 42.214 l 36.558,-21.107 21.107,-36.558 m 0,-42.214 -21.107,-36.558 -36.558,-21.107 H 104.718 L 68.16,460.614 47.053,497.172 v 42.214 l 21.107,36.558 36.558,21.107 21.107,36.558 21.107,36.558 21.106,36.558 36.559,21.107 h 42.213 42.214 M 267.917,649.06 246.81,612.502 225.703,575.944 204.597,539.386 v -42.214 m 120.985,-209.553 21.107,-36.558 21.107,-36.558 21.106,-36.558 M 204.597,308.726 h 42.213 42.214 m -84.427,188.446 21.106,-36.558 21.107,-36.558 21.107,-36.558 m -21.107,528.78 21.107,-36.558 21.107,-36.558 36.558,-21.107 21.107,-36.558 21.107,-36.558 m -42.214,188.446 21.107,-36.558 v -42.214 l 21.107,-36.558 21.106,-36.558 21.107,-36.558 m -241.971,188.446 36.559,21.106 h 42.213 42.214 l 36.558,-21.106 h 42.214 42.213 l 36.558,21.106 h 42.214 42.214 l 36.558,-21.106 21.106,-36.558 V 858.613 L 567.553,822.055 546.446,785.497 509.888,764.39 h -42.214 l -36.558,21.107 -21.107,36.558 -21.107,36.558 v 42.214 m 99.879,15.451 21.107,-36.558 21.107,-36.558 36.558,-21.107 21.106,-36.558 21.107,-36.558 m -42.213,0 21.106,36.558 21.107,36.558 21.107,36.558 v 42.214 l 21.107,36.558 36.558,21.106 h 42.214 42.213 l 36.558,-21.106 h 42.214 42.214 l 36.558,21.106 M 267.917,649.06 l 36.558,21.107 21.107,36.558 v 42.214 l -21.107,36.558 -36.558,21.107 h -42.214 l -36.558,-21.107 -21.107,-36.558 v -42.214 l 21.107,-36.558 36.558,-21.107 z m 526.155,-73.116 -21.107,-36.558 m 21.107,36.558 36.558,21.107 h 42.214 l 36.558,-21.107 21.107,-36.558 V 497.172 L 909.402,460.614 872.844,439.507 H 830.63 l -36.558,21.107 -21.107,36.558 M 651.98,706.725 673.087,670.167 m 36.558,-21.107 21.107,-36.558 21.106,-36.558 21.107,-36.558 V 497.172 M 651.98,287.619 630.873,251.061 609.766,214.503 588.659,177.945 m 99.879,130.781 h 42.214 42.213 m 0,188.446 -21.107,-36.558 -21.106,-36.558 -21.107,-36.558 m -99.879,-99.879 21.107,-36.558 21.107,-36.558 36.558,-21.107 21.107,-36.558 21.107,-36.558 V 78.067 L 709.645,41.509 688.538,4.95 m -120.985,282.669 21.106,-36.558 21.107,-36.558 21.107,-36.558 V 135.731 L 651.98,99.173 688.538,78.067 h 42.214 42.213 l 36.558,21.106 21.107,36.558 v 42.214 l -21.107,36.558 -21.106,36.558 -36.559,21.107 -21.106,36.558 -21.107,36.558 m -278.529,-94.223 36.558,21.107 h 42.214 l 36.558,-21.107 21.107,-36.558 21.106,-36.558 V 135.731 L 567.553,99.173 530.995,78.067 h -42.214 -42.214 l -36.558,21.106 -21.107,36.558 v 42.214 l 21.107,36.558 z M 267.917,345.284 246.81,308.726 225.703,272.168 189.145,251.061 168.038,214.503 146.932,177.945 v -42.214 l 21.106,-36.558 36.559,-21.106 h 42.213 42.214 l 36.558,21.106 21.107,36.558 v 42.214 l 21.107,36.558 21.106,36.558 21.107,36.558 m -205.412,324.883 21.106,-36.558 21.107,-36.558 m 0,-42.214 -21.107,-36.558 -21.106,-36.558 M 325.582,287.619 v 42.214 l -21.107,36.558 -36.558,21.107 h -42.214 l -36.558,-21.107 -21.107,-36.558 v -42.214 l 21.107,-36.558 36.558,-21.107 h 42.214 l 36.558,21.107 z M 289.024,612.502 267.917,575.944 246.81,539.386 v -42.214 l 21.107,-36.558 21.107,-36.558 m 36.558,282.669 h 42.214 42.213 m 57.665,57.665 -21.107,-36.558 m 120.986,-21.107 h 42.213 42.214 m -284.184,0 -21.107,-36.558 -21.107,-36.558 m 447.383,-21.107 -21.107,-36.558 -21.106,-36.558 m 0,-42.214 21.106,-36.558 21.107,-36.558 M 609.766,706.725 630.873,670.167 651.98,633.609 M 751.858,387.498 H 709.645 L 673.087,366.391 651.98,329.833 v -42.214 l 21.107,-36.558 36.558,-21.107 h 42.213 l 36.559,21.107 21.106,36.558 v 42.214 l -21.106,36.558 z m -63.32,225.004 21.107,-36.558 21.107,-36.558 V 497.172 L 709.645,460.614 688.538,424.056 M 567.553,329.833 h 42.213 42.214 M 530.995,308.726 509.888,272.168 m -184.306,57.665 h 42.214 42.213 m -120.985,209.553 -21.107,36.558 -21.107,36.558 -21.107,36.558 v 42.214 l -21.106,36.558 -36.559,21.107 H 125.825 83.611 L 47.053,727.832 25.946,691.274 m 0,-345.99 21.107,-36.558 36.558,-21.107 h 42.214 42.213 l 36.559,21.107 21.106,36.558 v 42.214 l 21.107,36.558 21.107,36.558 21.107,36.558 m -21.107,309.432 -21.107,36.558 -21.107,36.558 -21.106,36.558 -36.559,21.107 H 125.825 83.611 L 47.053,916.278 25.946,879.72 4.839,843.162 25.946,806.604 V 764.39 L 4.839,727.832 25.946,691.274 V 649.06 l 21.107,-36.558 21.107,-36.558 36.558,-21.107 h 42.214 l 36.558,21.107 h 42.213 42.214 42.214 m 15.451,-172.995 21.107,-36.558 21.107,-36.558 M 267.917,229.954 246.81,193.396 225.703,156.838 204.597,120.28 168.038,99.173 H 125.825 83.611 L 47.053,120.28 25.946,156.838 4.839,193.396 25.946,229.954 v 42.214 l -21.107,36.558 21.107,36.558 v 42.214 l 21.107,36.558 21.107,36.558 36.558,21.107 h 42.214 l 36.558,-21.107 h 42.213 42.214 42.214 m -5.656,209.553 h 42.214 42.213 42.214 m 78.772,94.223 -21.107,-36.558 -21.107,-36.558 m 120.985,-21.107 21.107,36.558 v 42.214 l 21.107,36.558 21.107,36.558 36.558,21.107 21.107,36.558 21.107,36.558 v 42.213 l 21.106,36.559 M 546.446,670.167 h 42.213 42.214 42.214 l 36.558,-21.107 h 42.213 l 36.559,21.107 21.106,36.558 v 42.214 l -21.106,36.558 -36.559,21.107 H 709.645 L 673.087,785.497 651.98,748.939 v -42.214 m -120.985,21.107 h -42.214 -42.214 l -36.558,-21.107 -21.107,-36.558 -21.106,-36.558 -21.107,-36.558 m 384.063,15.451 -21.107,-36.558 -21.107,-36.558 m 0,-42.214 21.107,-36.558 21.107,-36.558 m -142.093,246.111 21.107,-36.558 21.107,-36.558 m 36.558,-21.107 h 42.214 42.213 42.214 l 36.558,-21.107 h 42.214 l 36.558,21.107 21.107,36.558 21.107,36.558 v 42.214 l -21.107,36.558 -36.558,21.107 H 851.737 809.523 L 772.965,727.832 751.858,691.274 V 649.06 L 730.752,612.502 M 651.98,402.949 630.873,366.391 609.766,329.833 m 57.665,130.781 h 42.214 42.213 42.214 l 36.558,21.107 h 42.214 l 36.558,-21.107 21.107,-36.558 21.107,-36.558 v -42.214 l -21.107,-36.558 -36.558,-21.107 h -42.214 -42.214 l -36.558,21.107 -21.107,36.558 v 42.214 l -21.106,36.558 M 546.446,366.391 h 42.213 42.214 42.214 M 509.888,345.284 488.781,308.726 467.674,272.168 m -163.199,94.223 h 42.214 42.213 m -42.213,188.446 -21.107,-36.558 m 21.107,-78.772 21.107,-36.558 21.106,-36.558 M 204.597,539.386 h 42.213 42.214 l 36.558,-21.107 21.107,-36.558 v -42.214 l -21.107,-36.558 -21.107,-36.558 -36.558,-21.107 h -42.214 l -36.558,21.107 -21.107,36.558 -21.106,36.558 v 42.214 l 21.106,36.558 z m 205.412,94.223 H 367.796 325.582 L 289.024,612.502 H 246.81 204.597 l -36.559,21.107 -21.106,36.558 -21.107,36.558 v 42.214 l 21.107,36.558 21.106,36.558 36.559,21.107 21.106,36.558 21.107,36.558 v 42.213 l 21.107,36.559 M 509.888,649.06 h -42.214 l -36.558,21.107 -21.107,36.558 v 42.214 l 21.107,36.558 36.558,21.107 h 42.214 l 36.558,-21.107 21.107,-36.558 v -42.214 l -21.107,-36.558 z m 0,42.214 -21.107,36.558 -21.107,36.558 v 42.214 l -21.107,36.558 -21.107,36.558 -36.558,21.107 H 346.689 L 310.131,879.72 289.024,843.162 267.917,806.604 V 764.39 l 21.107,-36.558 36.558,-21.107 21.107,-36.558 21.107,-36.558 21.106,-36.558 m 178.651,36.558 21.106,36.558 -21.106,36.558 -36.558,21.107 -21.107,36.558 v 42.214 l 21.107,36.558 21.106,36.558 36.558,21.107 h 42.214 l 36.558,-21.107 21.107,-36.558 21.107,-36.558 V 764.39 L 688.538,727.832 651.98,706.725 630.873,670.167 609.766,633.609 588.659,597.051 m 42.214,-42.214 21.107,-36.558 m -21.107,-78.772 -21.107,-36.558 -21.107,-36.558 -21.106,-36.558 -36.558,-21.107 h -42.214 -42.214 m 305.291,36.558 h -42.213 l -36.558,21.107 -21.107,36.558 -21.107,36.558 v 42.214 l 21.107,36.558 36.558,21.107 h 42.214 42.213 l 36.558,-21.107 21.107,-36.558 v -42.214 l -21.107,-36.558 -21.106,-36.558 z m -184.305,57.665 h 42.213 42.214 l 36.558,21.107 h 42.214 42.213 l 36.558,-21.107 21.107,-36.558 21.107,-36.558 v -42.214 l 21.107,-36.558 21.107,-36.558 36.558,-21.107 h 42.213 M 467.674,387.498 h 42.214 l 36.558,-21.107 21.107,-36.558 v -42.214 l -21.107,-36.558 -36.558,-21.107 h -42.214 l -36.558,21.107 -21.107,36.558 v 42.214 l 21.107,36.558 m -42.214,188.446 -21.106,-36.558 -21.107,-36.558 m 42.213,-42.214 -21.106,-36.558 -21.107,-36.558 -21.107,-36.558 -36.558,-21.107 -21.107,-36.558 v -42.214 l 21.107,-36.558 21.107,-36.558 36.558,-21.107 h 42.213 l 36.558,21.107 21.107,36.558 21.107,36.558 v 42.214 l -21.107,36.558 -36.558,21.107 -21.107,36.558 21.107,36.558 m -63.32,151.888 21.107,-36.558 21.106,-36.558 m 57.665,130.781 h 42.214 42.214 M 467.674,649.06 446.567,612.502 425.46,575.944 m 84.428,73.116 21.107,-36.558 21.106,-36.558 m 36.558,-21.107 21.107,-36.558 21.107,-36.558 m -42.214,-42.214 21.107,-36.558 21.107,-36.558 21.107,-36.558 36.558,-21.107 21.107,-36.558 v -42.214 l -21.107,-36.558 -21.107,-36.558 -36.558,-21.107 h -42.214 l -36.558,21.107 -21.106,36.558 -21.107,36.558 v 42.214 l -21.107,36.558 -21.107,36.558 M 630.873,554.837 609.766,518.279 588.659,481.721 M 446.567,424.056 h 42.214 42.214 M 346.689,554.837 v 42.214 l -21.107,36.558 -21.107,36.558 -36.558,21.107 h -42.214 l -36.558,-21.107 -21.107,-36.558 -21.106,-36.558 v -42.214 l 21.106,-36.558 36.559,-21.107 h 42.213 42.214 l 36.558,21.107 h 42.214 42.213 m 15.451,-57.665 21.107,-36.558 21.107,-36.558 m 0,188.446 h 42.214 m -42.214,0 H 425.46 l -36.558,-21.107 h -42.213 l -36.558,21.107 -21.107,36.558 -21.107,36.558 v 42.214 l 21.107,36.558 36.558,21.107 h 42.214 42.213 l 36.558,-21.107 21.107,-36.558 V 649.06 l 21.107,-36.558 21.107,-36.558 21.107,-36.558 m 36.558,-21.107 h 42.213 42.214 l 36.558,-21.107 h 42.214 42.213 l 36.558,21.107 21.107,36.558 v 42.214 l -21.107,36.558 -21.106,36.558 -36.559,21.107 H 709.645 L 673.087,670.167 651.98,633.609 630.873,597.051 v -42.214 m -78.772,-94.223 -21.106,-36.558 -21.107,-36.558 m -63.321,109.674 21.107,-36.558 21.107,-36.558 21.107,-36.558 v -42.214 l 21.107,-36.558 36.558,-21.107 h 42.213 42.214 l 36.558,21.107 21.107,36.558 v 42.214 l -21.107,36.558 -21.107,36.558 -36.558,21.107 H 588.659 L 552.101,460.614 M 446.567,497.172 425.46,460.614 388.902,439.507 h -42.213 l -36.558,21.107 -21.107,36.558 v 42.214 l 21.107,36.558 36.558,21.107 h 42.213 l 36.558,-21.107 21.107,-36.558 z M 509.888,995.05 488.781,958.491 V 916.278 L 467.674,879.72 446.567,843.162 410.009,822.055 388.902,785.497 367.796,748.939 v -42.214 l 21.106,-36.558 21.107,-36.558 36.558,-21.107 21.107,-36.558 21.107,-36.558 m 21.107,36.558 h 42.213 l 36.558,-21.107 h 42.214 l 36.558,21.107 21.107,36.558 21.107,36.558 v 42.214 l -21.107,36.558 -36.558,21.107 H 609.766 567.553 L 530.995,727.832 509.888,691.274 V 649.06 l -21.107,-36.558 -21.107,-36.558 -21.107,-36.558 h 42.214 42.214 l 36.558,-21.107 21.106,-36.558 v -42.214 l -21.106,-36.558 -21.107,-36.558 -36.558,-21.107 h -42.214 l -36.558,21.107 -21.107,36.558 -21.107,36.558 v 42.214 l 21.107,36.558 36.558,21.107 m 21.107,-78.772 h 42.214 42.213 l -21.106,36.558 v 42.214 l 21.106,36.558 36.558,21.107 h 42.214 l 36.558,-21.107 21.107,-36.558 v -42.214 l -21.107,-36.558 -36.558,-21.107 h -42.214 l -36.558,21.107 m -63.32,36.558 21.107,-36.558 21.107,-36.558 36.558,-21.107 21.106,-36.558 21.107,-36.558 v -42.214 l -21.107,-36.558 -21.106,-36.558 -36.558,-21.107 h -42.214 -42.214 l -36.558,21.107 -21.107,36.558 -21.106,36.558 M 972.722,916.278 951.616,879.72 930.509,843.162 893.951,822.055 872.844,785.497 851.737,748.939 V 706.725 L 830.63,670.167 809.523,633.609 772.965,612.502 h -42.213 -42.214 l -36.558,21.107 h -42.214 -42.213 l -36.558,-21.107 -21.107,-36.558 -21.107,-36.558 v -42.214 l -21.107,-36.558 -21.107,-36.558 -36.558,-21.107 h -42.213 -42.214 l -36.558,21.107 H 246.81 204.597 l -36.559,-21.107 -21.106,-36.558 -21.107,-36.558 v -42.214 l 21.107,-36.558 21.106,-36.558 36.559,-21.107 h 42.213 42.214 l 36.558,21.107 21.107,36.558 21.107,36.558 v 42.214 l 21.106,36.558 h 42.214 l 36.558,21.107 m 63.321,109.674 36.558,21.107 21.106,36.558 v 42.214 l -21.106,36.558 -21.107,36.558 -36.558,21.107 h -42.214 l -36.558,-21.107 -21.107,-36.558 -21.107,-36.558 v -42.214 l 21.107,-36.558 36.558,-21.107 h 42.214 42.214 l -21.107,-36.558 -21.107,-36.558 -21.107,-36.558 v -42.214 l -21.107,-36.558 -36.558,-21.107 h -42.213 -42.214 l -36.558,21.107 -21.107,36.558 v 42.214 l 21.107,36.558 21.107,36.558 36.558,21.107 h 42.213 l 36.558,-21.107 h 42.214 M 909.402,41.509 930.509,78.067 893.951,99.173 872.844,62.615 Z M 47.053,120.28 83.611,99.173 104.718,135.731 68.16,156.838 Z m 883.456,795.998 -36.558,21.107 -21.107,-36.558 36.558,-21.107 z M 68.16,879.72 47.053,843.162 83.611,822.055 104.718,858.613 Z M 47.053,843.162 25.946,806.604 62.504,785.497 83.611,822.055 Z m 862.349,36.558 -36.558,-21.107 21.107,-36.558 36.558,21.107 z m 21.107,-36.558 -36.558,-21.107 21.106,-36.558 36.559,21.107 z m 0,-722.882 -21.107,36.558 -36.558,-21.107 21.107,-36.558 z M 183.49,41.509 204.597,78.067 168.038,99.173 146.932,62.615 Z M 68.16,156.838 104.718,177.945 83.611,214.503 47.053,193.396 Z m -21.107,36.558 36.558,21.107 -21.107,36.558 -36.558,-21.107 z m 0,722.882 21.107,-36.558 36.558,21.107 -21.107,36.558 z m 57.665,-15.451 v -42.214 h 42.214 v 42.214 z m 63.32,36.558 -21.106,-36.558 36.558,-21.107 21.107,36.558 z M 25.946,764.39 47.053,727.832 83.611,748.939 62.504,785.497 Z m 783.577,172.995 -36.558,-21.107 21.107,-36.558 36.558,21.107 z m 63.321,-36.558 H 830.63 v -42.214 h 42.214 z M 68.16,41.509 104.718,62.615 83.611,99.173 47.053,78.067 Z m 883.456,722.881 -36.559,21.107 -21.106,-36.558 36.558,-21.107 z M 794.072,41.509 830.63,62.615 809.523,99.173 772.965,78.067 Z m 115.33,115.329 21.107,36.558 -36.558,21.107 -21.107,-36.558 z m 21.107,36.558 21.107,36.558 -36.559,21.107 -21.106,-36.558 z M 25.946,691.274 62.504,670.167 83.611,706.725 47.053,727.832 Z m 78.772,-555.543 h 42.214 v 42.214 h -42.214 z m 63.32,-36.558 36.559,21.107 -21.107,36.558 -36.558,-21.107 z M 25.946,272.168 62.504,251.061 83.611,287.619 47.053,308.726 Z m 0,73.116 21.107,-36.558 36.558,21.107 -21.107,36.558 z m 178.651,613.207 v -42.213 h 42.213 v 42.213 z m 42.213,0 v -42.213 h 42.214 v 42.213 z m 526.155,0 h -42.213 v -42.213 h 42.213 z m -42.213,0 h -42.214 v -42.213 h 42.214 z m -583.82,-99.878 21.106,-36.558 36.559,21.107 -21.107,36.558 z m 647.14,21.107 -21.107,-36.558 36.558,-21.107 21.107,36.558 z m 157.544,-188.446 -21.107,36.558 -36.558,-21.107 21.106,-36.558 z M 872.844,135.731 v 42.214 H 830.63 v -42.214 z m -63.321,-36.558 21.107,36.558 -36.558,21.107 -21.107,-36.558 z m 142.093,172.995 -21.107,36.558 -36.558,-21.107 21.106,-36.558 z m 0,73.116 -36.559,21.107 -21.106,-36.558 36.558,-21.107 z M 772.965,78.067 V 120.28 H 730.752 V 78.067 Z m -42.213,0 V 120.28 H 688.538 V 78.067 Z M 667.431,41.509 688.538,78.067 651.98,99.173 630.873,62.615 Z m -115.33,0 36.558,21.106 -21.106,36.558 -36.558,-21.106 z M 204.597,78.067 h 42.213 v 42.213 h -42.213 z m 42.213,0 h 42.214 V 120.28 H 246.81 Z m 63.321,-36.558 36.558,21.106 -21.107,36.558 -36.558,-21.106 z m 115.329,0 21.107,36.558 -36.558,21.106 -21.107,-36.558 z M 25.946,649.06 47.053,612.502 83.611,633.609 62.504,670.167 Z m 57.665,99.879 v -42.214 h 42.214 v 42.214 z m 63.321,-570.994 36.558,-21.107 21.107,36.558 -36.559,21.107 z M 25.946,387.498 62.504,366.391 83.611,402.949 47.053,424.056 Z m 57.665,-99.879 h 42.214 v 42.214 H 83.611 Z m 205.413,628.659 21.107,-36.558 36.558,21.107 -21.107,36.558 z m 157.543,42.213 v -42.213 h 42.214 v 42.213 z m 42.214,0 v -42.213 h 42.214 v 42.213 z m 199.757,-42.213 -36.558,21.107 -21.107,-36.558 36.558,-21.107 z m -520.5,-94.223 21.107,-36.558 36.558,21.107 -21.106,36.558 z M 488.781,497.172 h 42.214 v 42.214 h -42.214 z m 462.835,151.888 -36.559,21.107 -21.106,-36.558 36.558,-21.107 z m -178.651,194.102 -21.107,-36.558 36.559,-21.107 21.106,36.558 z m 120.986,-94.223 h -42.214 v -42.214 h 42.214 z m -63.321,-570.994 -21.107,36.558 -36.558,-21.107 21.107,-36.558 z m 120.986,209.553 -21.107,36.558 -36.558,-21.107 21.106,-36.558 z m -57.665,-99.879 v 42.214 H 851.737 V 287.619 Z M 688.538,120.28 667.431,156.838 630.873,135.731 651.98,99.173 Z M 530.995,78.067 V 120.28 H 488.781 V 78.067 Z m -42.214,0 V 120.28 H 446.567 V 78.067 Z m -199.757,42.213 36.558,-21.107 21.107,36.558 -36.558,21.107 z M 47.053,612.502 68.16,575.944 l 36.558,21.107 -21.107,36.558 z m 0,-73.116 36.558,-21.107 21.107,36.558 -36.558,21.107 z m 78.772,209.553 v -42.214 h 42.213 v 42.214 z m 42.213,-534.436 36.559,-21.107 21.106,36.558 -36.558,21.107 z M 47.053,424.056 83.611,402.949 104.718,439.507 68.16,460.614 Z m 0,73.116 21.107,-36.558 36.558,21.107 -21.107,36.558 z m 78.772,-209.553 h 42.213 v 42.214 h -42.213 z m 284.184,649.766 -21.107,-36.558 36.558,-21.107 21.107,36.558 z m -63.32,-36.558 v -42.214 h 42.213 v 42.214 z m 220.864,36.558 -36.558,-21.107 21.106,-36.558 36.558,21.107 z m 63.32,-36.558 h -42.214 v -42.214 h 42.214 z m -441.728,-115.33 -21.107,-36.558 36.559,-21.107 21.106,36.558 z m 741.364,-172.995 -36.558,21.107 -21.107,-36.558 36.558,-21.107 z m 0,-73.116 -21.107,36.558 -36.558,-21.107 21.107,-36.558 z m -78.772,209.553 h -42.214 v -42.214 h 42.214 z m -63.32,36.558 -36.559,-21.107 21.107,-36.558 36.558,21.107 z m 21.106,-570.994 -21.106,36.558 -36.559,-21.107 21.107,-36.558 z m 120.986,209.553 -21.107,36.558 -36.558,-21.107 21.107,-36.558 z m 0,73.116 -36.558,21.107 -21.107,-36.558 36.558,-21.107 z M 851.737,287.619 v 42.214 H 809.523 V 287.619 Z M 567.553,99.173 l 21.106,36.558 -36.558,21.107 -21.106,-36.558 z m 63.32,36.558 v 42.214 H 588.659 V 135.731 Z M 410.009,99.173 446.567,120.28 425.46,156.838 388.902,135.731 Z m -63.32,36.558 h 42.213 v 42.214 h -42.213 z m -241.971,461.32 v -42.214 h 42.214 v 42.214 z m 84.427,-345.99 36.558,21.107 -21.106,36.558 -36.559,-21.107 z m -84.427,188.446 h 42.214 v 42.214 h -42.214 z m 205.413,440.213 -21.107,-36.558 36.558,-21.107 21.107,36.558 z m 115.329,0 -36.558,-21.107 21.107,-36.558 36.558,21.107 z m 241.971,0 -36.558,-21.107 21.107,-36.558 36.558,21.107 z m -115.33,0 -21.106,-36.558 36.558,-21.107 21.106,36.558 z m -263.077,-36.558 -21.107,-36.558 36.558,-21.107 21.107,36.558 z M 225.703,806.604 V 764.39 h 42.214 v 42.214 z m -57.665,-99.879 21.107,-36.558 36.558,21.107 -21.106,36.558 z m 520.5,136.437 -36.558,-21.107 21.107,-36.558 36.558,21.107 z m 63.32,-36.558 H 709.645 V 764.39 h 42.213 z M 872.844,597.051 H 830.63 v -42.214 h 42.214 z m -63.321,109.674 -36.558,21.107 -21.107,-36.558 36.559,-21.107 z m -21.106,-455.664 21.106,36.558 -36.558,21.107 -21.107,-36.558 z m 84.427,188.446 v 42.214 H 830.63 v -42.214 z m -205.413,-282.669 21.107,36.558 -36.558,21.107 -21.107,-36.558 z m -115.33,0 36.558,21.107 -21.106,36.558 -36.558,-21.107 z m -241.97,0 36.558,21.107 -21.107,36.558 -36.558,-21.107 z m 115.329,0 21.107,36.558 -36.558,21.107 -21.107,-36.558 z m -278.528,440.213 36.558,-21.107 21.107,36.558 -36.559,21.107 z m 21.106,36.558 36.559,-21.107 21.106,36.558 -36.558,21.107 z m 120.986,-440.213 36.558,21.107 -21.107,36.558 -36.558,-21.107 z m -63.321,36.558 h 42.214 v 42.214 h -42.214 z m -57.665,99.879 36.559,-21.107 21.106,36.558 -36.558,21.107 z m -21.106,109.674 21.106,-36.558 36.559,21.107 -21.107,36.558 z m 21.106,-36.558 21.107,-36.558 36.558,21.107 -21.106,36.558 z m 278.529,440.213 -36.558,-21.107 21.107,-36.558 36.558,21.107 z m 99.879,-57.665 21.107,36.558 -36.558,21.107 -21.107,-36.558 z m -257.422,-57.665 36.558,21.107 -21.107,36.558 -36.558,-21.107 z m 399.514,0 21.107,36.558 -36.558,21.107 -21.107,-36.558 z m 84.427,-115.33 21.107,-36.558 36.558,21.107 -21.107,36.558 z m -21.107,36.558 21.107,-36.558 36.558,21.107 -21.106,36.558 z m -78.771,-397.999 -21.107,-36.558 36.558,-21.107 21.107,36.558 z m 36.558,21.107 v -42.214 h 42.213 v 42.214 z m 42.213,73.116 21.107,-36.558 36.558,21.107 -21.106,36.558 z m 21.107,78.772 36.558,-21.107 21.107,36.558 -36.558,21.107 z m -21.107,-36.558 36.559,-21.107 21.106,36.558 -36.558,21.107 z m -205.412,-136.437 -36.558,-21.107 21.107,-36.558 36.558,21.107 z m -115.33,0 -21.107,-36.558 36.558,-21.107 21.107,36.558 z m -226.519,288.325 -21.107,36.558 -36.558,-21.107 21.106,-36.558 z m 0,-42.214 -36.559,21.107 -21.106,-36.558 36.558,-21.107 z m 63.32,151.888 v 42.214 H 225.703 V 649.06 Z m 57.665,-361.441 -36.558,21.107 -21.107,-36.558 36.558,-21.107 z m -57.665,57.665 v 42.214 H 225.703 V 345.284 Z M 509.888,764.39 v 42.214 H 467.674 V 764.39 Z m -241.971,-73.116 36.558,-21.107 21.107,36.558 -36.558,21.107 z m 526.155,-115.33 -21.107,-36.558 36.558,-21.107 21.107,36.558 z m 0,-115.33 36.558,21.107 -21.107,36.558 -36.558,-21.107 z m -84.427,230.66 -21.107,36.558 -36.558,-21.107 21.107,-36.558 z m 42.213,-42.214 v 42.214 H 709.645 V 649.06 Z m -42.213,-376.892 -21.107,36.558 -36.558,-21.107 21.107,-36.558 z m 42.213,115.33 h -42.213 v -42.214 h 42.213 z M 467.674,229.954 h 42.214 v 42.214 H 467.674 Z M 204.597,497.172 h 42.213 v 42.214 h -42.213 z m 84.427,-188.446 36.558,21.107 -21.107,36.558 -36.558,-21.107 z m 36.558,440.213 v -42.214 h 42.214 v 42.214 z m 42.214,0 v -42.214 h 42.213 v 42.214 z m 78.771,-21.107 21.107,36.558 -36.558,21.107 -21.107,-36.558 z m 99.879,57.665 -36.558,-21.107 21.107,-36.558 36.558,21.107 z M 651.98,748.939 h -42.214 v -42.214 h 42.214 z m -84.427,-42.214 h 42.213 v 42.214 h -42.213 z m -299.636,-57.665 21.107,-36.558 36.558,21.107 -21.107,36.558 z M 730.752,497.172 h 42.213 v 42.214 h -42.213 z m -42.214,115.33 21.107,36.558 -36.558,21.107 -21.107,-36.558 z m -15.451,-246.111 -21.107,-36.558 36.558,-21.107 21.107,36.558 z m -63.321,-36.558 v -42.214 h 42.214 v 42.214 z m -42.213,0 v -42.214 h 42.213 v 42.214 z m -21.107,-78.772 21.107,36.558 -36.558,21.107 -21.107,-36.558 z m -115.33,0 36.558,21.107 -21.107,36.558 -36.558,-21.107 z m -105.534,36.558 h 42.214 v 42.214 h -42.214 z m 84.427,42.214 h -42.213 v -42.214 h 42.213 z M 289.024,497.172 v 42.214 H 246.81 v -42.214 z m -21.107,-109.674 36.558,-21.107 21.107,36.558 -36.558,21.107 z m 199.757,303.776 -21.107,36.558 -36.558,-21.107 21.107,-36.558 z m 78.772,-21.107 21.107,36.558 -36.558,21.107 -21.107,-36.558 z m -199.757,-73.116 -21.107,36.558 -36.558,-21.107 21.107,-36.558 z m 341.849,-99.879 h 42.214 v 42.214 h -42.214 z m -21.107,78.772 21.107,36.558 -36.558,21.107 -21.107,-36.558 z m -15.451,-172.995 21.107,-36.558 36.558,21.107 -21.107,36.558 z m -142.092,-57.665 21.107,-36.558 36.558,21.107 -21.107,36.558 z m -78.772,21.107 -21.107,-36.558 36.558,-21.107 21.107,36.558 z m -84.427,188.446 -36.558,21.107 -21.107,-36.558 36.558,-21.107 z m 0,-115.33 -36.558,21.107 -21.107,-36.558 36.558,-21.107 z m 0,42.214 -21.107,36.558 -36.558,-21.107 21.107,-36.558 z M 509.888,649.06 v 42.214 H 467.674 V 649.06 Z m 120.985,-94.223 21.107,-36.558 36.558,21.107 -21.107,36.558 z m 0,-115.33 21.107,-36.558 36.558,21.107 -21.107,36.558 z m 0,42.214 36.558,-21.107 21.107,36.558 -36.558,21.107 z M 467.674,387.498 v -42.214 h 42.214 v 42.214 z m -78.772,167.339 v 42.214 h -42.213 v -42.214 z m 0,-73.116 h -42.213 v -42.214 h 42.213 z m 57.665,130.781 21.107,36.558 -36.558,21.107 -21.107,-36.558 z m 84.428,0 36.558,21.107 -21.107,36.558 -36.558,-21.107 z m -105.535,-36.558 21.107,36.558 -36.558,21.107 -21.107,-36.558 z m 126.641,0 36.558,21.107 -21.106,36.558 -36.558,-21.107 z m 36.558,-21.107 h 42.214 v 42.214 h -42.214 z m 0,-73.116 v -42.214 h 42.214 v 42.214 z m -57.664,-57.665 -21.107,-36.558 36.558,-21.107 21.107,36.558 z m -84.428,0 -36.558,-21.107 21.107,-36.558 36.558,21.107 z m -21.107,36.558 -36.558,-21.107 21.107,-36.558 36.558,21.107 z m 21.107,78.772 -21.107,36.558 -36.558,-21.107 21.107,-36.558 z m 120.986,-21.107 21.106,36.558 -36.558,21.107 -21.106,-36.558 z m -15.452,-57.665 -21.106,-36.558 36.558,-21.107 21.106,36.558 z m -105.534,36.558 -36.558,21.107 -21.107,-36.558 36.558,-21.107 z m 84.428,0 21.106,-36.558 36.558,21.107 -21.106,36.558 z m -42.214,0 v 42.214 H 446.567 V 497.172 Z M 47.053,78.067 83.611,99.173 47.053,120.28 Z m 0,42.213 L 25.946,156.838 4.839,120.28 Z m 36.558,817.105 21.107,-36.558 21.107,36.558 z M 25.946,879.72 47.053,843.162 68.16,879.72 Z M 4.839,843.162 25.946,806.604 47.053,843.162 Z M 951.616,41.509 930.509,78.067 909.402,41.509 Z m -57.665,895.876 h -42.214 l 21.107,-36.558 z m 57.665,-57.665 h -42.214 l 21.107,-36.558 z m 21.106,-36.558 h -42.213 l 21.107,-36.558 z M 909.402,41.509 872.844,62.615 V 20.402 Z m 21.107,36.558 V 120.28 L 893.951,99.173 Z m 0,42.213 h 42.213 l -21.106,36.558 z m 0,795.998 -21.107,-36.558 h 42.214 z m 21.107,-36.558 -21.107,-36.558 h 42.213 z M 183.49,41.509 146.932,62.615 V 20.402 Z m -78.772,21.106 21.107,36.558 H 83.611 Z m 0,0 h 42.214 L 125.825,99.173 Z M 47.053,120.28 68.16,156.838 H 25.946 Z M 83.611,99.173 h 42.214 l -21.107,36.558 z m -57.665,57.665 21.107,36.558 H 4.839 Z m 0,0 H 68.16 L 47.053,193.396 Z M 4.839,193.396 h 42.214 l -21.107,36.558 z m 889.112,743.989 -21.107,36.558 -21.107,-36.558 z m -768.126,0 h 42.213 l -21.106,36.558 z m 0,0 21.107,-36.558 21.106,36.558 z m 0,0 -21.107,-36.558 h 42.214 z M 68.16,879.72 104.718,858.613 v 42.214 z M 25.946,806.604 V 764.39 l 36.558,21.107 z m 904.563,109.674 v 42.213 l -36.558,-21.106 z m -78.772,21.107 -21.107,36.558 -21.107,-36.558 z m 0,0 -21.107,-36.558 h 42.214 z m 0,0 h -42.214 l 21.107,-36.558 z m 78.772,-21.107 21.107,-36.558 21.106,36.558 z m -21.107,-36.558 -36.558,21.107 v -42.214 z m 42.214,-73.116 -36.559,-21.107 36.559,-21.107 z M 794.072,41.509 830.63,20.402 V 62.615 Z M 872.844,62.615 851.737,99.173 830.63,62.615 Z m 0,0 21.107,36.558 h -42.214 z m 57.665,57.665 21.107,36.558 H 909.402 Z M 893.951,99.173 872.844,135.731 851.737,99.173 Z m 57.665,57.665 21.106,36.558 h -42.213 z m 0,0 -21.107,36.558 -21.107,-36.558 z m 21.106,36.558 -21.106,36.558 -21.107,-36.558 z M 47.053,916.278 25.946,879.72 H 68.16 Z M 794.072,41.509 H 751.858 L 772.965,4.95 Z m -42.214,0 H 709.645 L 730.752,4.95 Z m -42.213,0 H 667.431 L 688.538,4.95 Z m -526.155,0 21.107,-36.559 21.106,36.559 z m 42.213,0 21.107,-36.559 21.107,36.559 z m 42.214,0 21.107,-36.559 21.107,36.559 z M 25.946,879.72 4.839,843.162 h 42.214 z m 57.665,57.665 h 42.214 l -21.107,36.558 z M 4.839,727.832 25.946,691.274 47.053,727.832 Z m 0,0 H 47.053 L 25.946,764.39 Z M 183.49,41.509 h 42.213 l -21.106,36.558 z m -36.558,21.106 21.106,36.558 h -42.213 z m -21.107,36.558 h 42.213 l -21.106,36.558 z m 0,0 21.107,36.558 h -42.214 z m -57.665,57.665 36.558,-21.107 v 42.214 z m -42.214,73.116 36.558,21.107 -36.558,21.107 z M 4.839,308.726 h 42.214 l -21.107,36.558 z m 0,0 21.107,-36.558 21.107,36.558 z m 199.758,649.765 h 42.213 l -21.107,36.559 z m 42.213,0 h 42.214 L 267.917,995.05 Z M 47.053,916.278 83.611,937.385 47.053,958.491 Z m 725.912,42.213 -21.107,36.559 -21.106,-36.559 z m -42.213,0 -21.107,36.559 -21.107,-36.559 z M 47.053,916.278 H 4.839 L 25.946,879.72 Z m 157.544,42.213 -36.559,-21.106 36.559,-21.107 z m -57.665,-57.664 v -42.214 l 36.558,21.107 z m -42.214,-42.214 21.107,-36.558 21.107,36.558 z m 0,0 -21.107,-36.558 h 42.214 z m -21.107,-36.558 21.107,-36.558 21.107,36.558 z m 0,0 -21.107,-36.558 h 42.214 z m -21.107,-36.558 21.107,-36.558 21.107,36.558 z m 710.461,172.994 36.558,-21.106 -36.558,-21.107 z M 830.63,900.827 794.072,879.72 830.63,858.613 Z M 972.722,727.832 h -42.213 l 21.107,-36.558 z m 0,0 -21.106,36.558 -21.107,-36.558 z M 872.844,858.613 H 830.63 l 21.107,-36.558 z m 0,0 -21.107,-36.558 h 42.214 z m 21.107,-36.558 h -42.214 l 21.107,-36.558 z m 0,0 -21.107,-36.558 h 42.213 z m 21.106,-36.558 h -42.213 l 21.107,-36.558 z M 794.072,41.509 772.965,78.067 751.858,41.509 Z m 36.558,21.106 21.107,36.558 h -42.214 z m 21.107,36.558 -21.107,36.558 -21.107,-36.558 z m 0,0 21.107,36.558 H 830.63 Z m 57.665,57.665 -36.558,21.107 v -42.214 z m 42.214,73.116 v 42.214 L 915.057,251.061 Z M 68.16,41.509 104.718,20.402 v 42.213 z m 904.562,267.217 -21.106,36.558 -21.107,-36.558 z m 0,0 h -42.213 l 21.107,-36.558 z M 751.858,41.509 730.752,78.067 709.645,41.509 Z m 0,0 21.107,36.558 h -42.213 z m -42.213,0 21.107,36.558 h -42.214 z m 0,0 -21.107,36.558 -21.107,-36.558 z m -42.214,0 -36.558,21.106 V 20.402 Z m -115.33,0 36.558,-21.107 v 42.213 z m 0,0 H 509.888 L 530.995,4.95 Z m -42.213,0 H 467.674 L 488.781,4.95 Z m -42.214,0 H 425.46 L 446.567,4.95 Z m -241.971,0 h 42.214 L 246.81,78.067 Z m 0,0 21.107,36.558 h -42.213 z m 42.214,0 21.107,36.558 H 246.81 Z m 0,0 h 42.214 l -21.107,36.558 z m 42.214,0 36.558,-21.107 v 42.213 z m 115.329,0 -36.558,21.106 V 20.402 Z M 4.839,612.502 25.946,575.944 47.053,612.502 Z m 0,0 H 47.053 L 25.946,649.06 Z m 21.107,36.558 36.558,21.107 -36.558,21.107 z m 21.107,78.772 36.558,-21.107 v 42.214 z M 204.597,78.067 V 120.28 L 168.038,99.173 Z m -57.665,57.664 36.558,21.107 -36.558,21.107 z m -42.214,42.214 h 42.214 l -21.107,36.558 z m 0,0 21.107,36.558 H 83.611 Z m -21.107,36.558 h 42.214 l -21.107,36.558 z m 0,0 21.107,36.558 H 62.504 Z m -21.107,36.558 h 42.214 L 83.611,287.619 Z M 25.946,41.509 H 68.16 L 47.053,78.067 Z M 4.839,424.056 h 42.214 l -21.107,36.558 z m 0,0 21.107,-36.558 21.107,36.558 z m 21.107,-36.558 v -42.214 l 36.558,21.107 z m 21.107,-78.772 36.558,-21.107 v 42.214 z m 241.971,649.765 v -42.213 l 36.558,21.107 z m 36.558,-21.106 h 42.214 l -21.107,36.558 z M 951.616,41.509 H 909.402 L 930.509,4.95 Z m -583.82,895.876 h 42.213 l -21.107,36.558 z m 78.771,21.106 h 42.214 l -21.107,36.559 z m 42.214,0 h 42.214 L 509.888,995.05 Z M 951.616,41.509 972.722,78.067 H 930.509 Z M 688.538,958.491 651.98,937.385 688.538,916.278 Z m -36.558,-21.106 -21.107,36.558 -21.107,-36.558 z m -42.214,0 -21.107,36.558 -21.106,-36.558 z M 204.597,916.278 183.49,879.72 h 42.213 z m 0,0 21.106,-36.558 21.107,36.558 z m -57.665,-57.665 -21.107,-36.558 h 42.213 z m 36.558,21.107 21.107,-36.558 21.106,36.558 z m -57.665,-57.665 21.107,-36.558 21.106,36.558 z m 0,0 -21.107,-36.558 h 42.214 z m -21.107,-36.558 21.107,-36.558 21.107,36.558 z m 0,0 -21.107,-36.558 h 42.214 z M 772.965,916.278 751.858,879.72 h 42.214 z m 0,0 H 730.752 L 751.858,879.72 Z M 25.946,41.509 47.053,4.95 68.16,41.509 Z m 946.776,570.993 h -42.213 l 21.107,-36.558 z m 0,0 -21.106,36.558 -21.107,-36.558 z M 794.072,879.72 h -42.214 l 21.107,-36.558 z m 36.558,-21.107 -21.107,-36.558 h 42.214 z M 951.616,649.06 v 42.214 l -36.559,-21.107 z m -21.107,78.772 -36.558,21.107 v -42.214 z m -78.772,94.223 -21.107,-36.558 h 42.214 z m 0,0 h -42.214 l 21.107,-36.558 z m 21.107,-36.558 H 830.63 l 21.107,-36.558 z m 0,0 -21.107,-36.558 h 42.214 z m -99.879,-707.43 36.558,21.106 -36.558,21.107 z m 57.665,57.664 v 42.214 l -36.558,-21.107 z m 42.214,42.214 -21.107,36.558 -21.107,-36.558 z m 0,0 21.107,36.558 h -42.214 z m 21.107,36.558 -21.107,36.558 -21.107,-36.558 z m 0,0 21.106,36.558 h -42.213 z m 21.106,36.558 -21.106,36.558 -21.107,-36.558 z M 25.946,41.509 47.053,78.067 H 4.839 Z m 946.776,382.547 -21.106,36.558 -21.107,-36.558 z m 0,0 h -42.213 l 21.107,-36.558 z m -21.106,-36.558 -36.559,-21.107 36.559,-21.107 z m -21.107,-78.772 -36.558,21.107 V 287.619 Z M 688.538,78.067 V 120.28 L 651.98,99.173 Z M 630.873,62.615 609.766,99.173 588.659,62.615 Z m 0,0 21.107,36.558 H 609.766 Z M 552.101,41.509 530.995,78.067 509.888,41.509 Z m 36.558,21.106 21.107,36.558 H 567.553 Z M 509.888,41.509 488.781,78.067 467.674,41.509 Z m 0,0 21.107,36.558 h -42.214 z m -42.214,0 21.107,36.558 h -42.214 z m 0,0 -21.107,36.558 -21.107,-36.558 z m -178.65,36.558 36.558,21.106 -36.558,21.107 z m 57.665,-15.452 21.107,36.558 h -42.214 z m 0,0 h 42.213 l -21.106,36.558 z m 42.213,0 21.107,36.558 H 367.796 Z M 25.946,575.944 4.839,539.386 h 42.214 z m 0,-115.33 21.107,36.558 H 4.839 Z m 0,115.33 H 68.16 l -21.107,36.558 z m 0,0 21.107,-36.558 21.107,36.558 z m 36.558,94.223 h 42.214 l -21.107,36.558 z m 0,0 21.107,-36.558 21.107,36.558 z m 21.107,36.558 21.107,-36.558 21.107,36.558 z M 204.597,120.28 225.703,156.838 H 183.49 Z m 0,0 h 42.213 l -21.107,36.558 z m -57.665,57.665 21.106,36.558 h -42.213 z m 36.558,-21.107 h 42.213 l -21.106,36.558 z m -57.665,57.665 21.107,36.558 h -42.214 z m 0,0 h 42.213 l -21.106,36.558 z m -21.107,36.558 h 42.214 l -21.107,36.558 z m 0,0 21.107,36.558 H 83.611 Z M 25.946,460.614 47.053,424.056 68.16,460.614 Z m 0,0 H 68.16 l -21.107,36.558 z m 36.558,-94.223 21.107,-36.558 21.107,36.558 z m 0,0 h 42.214 l -21.107,36.558 z m 21.107,-36.558 h 42.214 l -21.107,36.558 z M 246.81,916.278 225.703,879.72 h 42.214 z m 0,0 21.107,-36.558 21.107,36.558 z m 42.214,0 -21.107,-36.558 h 42.214 z m 36.558,21.107 21.107,-36.558 21.107,36.558 z m 42.214,0 -21.107,-36.558 h 42.213 z m 0,0 21.106,-36.558 21.107,36.558 z m 78.771,21.106 -36.558,-21.106 36.558,-21.107 z m 84.428,0 36.558,-21.106 -36.558,-21.107 z m 199.757,-42.213 h -42.214 l 21.107,-36.558 z m 0,0 -21.107,-36.558 h 42.213 z m -42.214,0 -21.107,-36.558 h 42.214 z m -36.558,21.107 h -42.214 l 21.107,-36.558 z m -42.214,0 -21.107,-36.558 h 42.214 z m 0,0 h -42.213 l 21.106,-36.558 z M 225.703,879.72 246.81,843.162 267.917,879.72 Z m 0,0 -21.106,-36.558 h 42.213 z m -57.665,-57.665 -21.106,-36.558 h 42.213 z m 36.559,21.107 21.106,-36.558 21.107,36.558 z m -57.665,-57.665 -21.107,-36.558 h 42.213 z m 0,0 21.106,-36.558 21.107,36.558 z M 951.616,575.944 930.509,539.386 h 42.213 z m 0,-115.33 21.106,36.558 H 930.509 Z M 751.858,879.72 730.752,843.162 h 42.213 z m 0,0 h -42.213 l 21.107,-36.558 z m 199.758,-303.776 -21.107,36.558 -21.107,-36.558 z m 0,0 h -42.214 l 21.107,-36.558 z M 772.965,843.162 h -42.213 l 21.106,-36.558 z m 36.558,-21.107 -21.106,-36.558 h 42.213 z m 105.534,-151.888 -21.106,36.558 -21.107,-36.558 z m 0,0 h -42.213 l 21.107,-36.558 z m -21.106,36.558 h -42.214 l 21.107,-36.558 z m -63.321,78.772 -21.107,-36.558 h 42.214 z m 0,0 h -42.213 l 21.106,-36.558 z m -57.665,-665.217 21.107,36.558 h -42.214 z m 0,0 -21.107,36.558 -21.106,-36.558 z m 57.665,57.665 21.107,36.558 h -42.214 z m -36.558,-21.107 -21.107,36.558 -21.107,-36.558 z m 57.665,57.665 -21.107,36.558 -21.107,-36.558 z m 0,0 21.107,36.558 H 830.63 Z m 21.107,36.558 -21.107,36.558 -21.107,-36.558 z m 0,0 21.107,36.558 h -42.214 z m 78.772,209.553 h -42.214 l 21.107,-36.558 z m 0,0 -21.107,36.558 -21.107,-36.558 z m -36.559,-94.223 h -42.213 l 21.107,-36.558 z m 0,0 -21.106,36.558 -21.107,-36.558 z m -21.106,-36.558 -21.107,36.558 -21.107,-36.558 z M 730.752,120.28 l 21.106,36.558 h -42.213 z m 0,0 -21.107,36.558 -21.107,-36.558 z m -42.214,0 21.107,36.558 H 667.431 Z M 651.98,99.173 630.873,135.731 609.766,99.173 Z m -42.214,0 21.107,36.558 h -42.214 z m 0,0 -21.107,36.558 -21.106,-36.558 z m -78.771,-21.106 36.558,21.106 -36.558,21.107 z m -84.428,0 V 120.28 L 410.009,99.173 Z M 246.81,120.28 h 42.214 l -21.107,36.558 z m 0,0 21.107,36.558 h -42.214 z m 42.214,0 21.107,36.558 h -42.214 z m 36.558,-21.107 h 42.214 l -21.107,36.558 z m 42.214,0 21.106,36.558 h -42.213 z m 0,0 h 42.213 l -21.107,36.558 z M 47.053,539.386 v -42.214 l 36.558,21.107 z m 21.107,36.558 36.558,-21.107 v 42.214 z m 15.451,57.665 21.107,-36.558 21.107,36.558 z m 0,0 h 42.214 l -21.107,36.558 z m 21.107,36.558 h 42.214 l -21.107,36.558 z m 0,0 21.107,-36.558 21.107,36.558 z m 21.107,36.558 21.107,-36.558 21.106,36.558 z m 99.878,-549.887 21.107,36.558 h -42.213 z m 0,0 h 42.214 l -21.107,36.558 z m -57.665,57.665 21.107,36.558 h -42.213 z m 36.559,-21.107 h 42.213 l -21.107,36.558 z m -57.665,57.665 21.106,36.558 h -42.213 z m 0,0 h 42.213 l -21.107,36.558 z M 68.16,460.614 104.718,439.507 v 42.214 z m 15.451,-57.665 h 42.214 l -21.107,36.558 z m 0,0 21.107,-36.558 21.107,36.558 z m 21.107,-36.558 h 42.214 l -21.107,36.558 z m 0,0 21.107,-36.558 21.107,36.558 z m 21.107,-36.558 h 42.213 l -21.106,36.558 z M 267.917,879.72 246.81,843.162 h 42.214 z m 0,0 21.107,-36.558 21.107,36.558 z m 42.214,0 36.558,-21.107 v 42.214 z m 78.771,21.107 36.558,-21.107 -36.558,-21.107 z m 57.665,15.451 -21.107,-36.558 h 42.214 z m 0,0 21.107,-36.558 21.107,36.558 z m 42.214,0 -21.107,-36.558 h 42.214 z m 0,0 21.107,-36.558 21.107,36.558 z m 42.214,0 -21.107,-36.558 h 42.213 z m 178.65,-36.558 -21.107,-36.558 h 42.214 z m 0,0 h -42.214 l 21.107,-36.558 z m -42.214,0 -36.558,21.107 v -42.214 z m -78.772,21.107 -36.558,-21.107 36.558,-21.107 z m -341.849,-57.665 21.107,-36.558 21.107,36.558 z m 0,0 -21.107,-36.558 h 42.214 z m -57.665,-57.665 36.558,-21.107 v 42.214 z m -21.107,-36.558 v -42.214 l 36.559,21.107 z M 930.509,539.386 893.951,518.279 930.509,497.172 Z M 730.752,843.162 h -42.214 l 21.107,-36.558 z m 0,0 -21.107,-36.558 h 42.213 z m 178.65,-267.218 -36.558,21.107 v -42.214 z m -15.451,57.665 h -42.214 l 21.107,-36.558 z m 0,0 -21.107,36.558 -21.107,-36.558 z M 751.858,806.604 788.417,785.497 751.858,764.39 Z M 872.844,670.167 H 830.63 l 21.107,-36.558 z m 0,0 -21.107,36.558 -21.107,-36.558 z m -21.107,36.558 h -42.214 l 21.107,-36.558 z m -42.214,42.214 -36.558,-21.107 36.558,-21.107 z m -57.665,-592.101 -21.106,36.558 -21.107,-36.558 z m 0,0 21.107,36.558 h -42.213 z m 57.665,57.665 21.107,36.558 h -42.213 z m -36.558,-21.107 -21.107,36.558 -21.106,-36.558 z m 57.665,57.665 21.107,36.558 h -42.214 z m 0,0 -21.107,36.558 -21.106,-36.558 z m 78.772,209.553 -36.558,21.107 v -42.214 z m -15.451,-57.665 -21.107,36.558 -21.107,-36.558 z m 0,0 h -42.214 l 21.107,-36.558 z M 872.844,366.391 H 830.63 l 21.107,-36.558 z m 0,0 -21.107,36.558 -21.107,-36.558 z m -21.107,-36.558 -21.107,36.558 -21.107,-36.558 z m -142.092,-172.995 21.107,36.558 h -42.214 z m 0,0 -21.107,36.558 -21.107,-36.558 z m -42.214,0 -36.558,21.107 v -42.214 z m -78.772,-21.107 v 42.214 l -36.558,-21.107 z m -57.664,-15.451 21.106,36.558 h -42.213 z m 0,0 -21.107,36.558 -21.107,-36.558 z m -42.214,0 21.107,36.558 h -42.214 z m 0,0 -21.107,36.558 -21.107,-36.558 z m -42.214,0 21.107,36.558 H 425.46 Z m -178.65,36.558 21.107,36.558 H 246.81 Z m 0,0 h 42.214 l -21.107,36.558 z m 42.214,0 36.558,-21.107 v 42.214 z m 78.771,-21.107 36.558,21.107 -36.558,21.107 z M 83.611,518.279 h 42.214 l -21.107,36.558 z m 0,0 21.107,-36.558 21.107,36.558 z m 21.107,78.772 h 42.214 l -21.107,36.558 z m 0,-42.214 21.107,-36.558 21.107,36.558 z m 21.107,78.772 h 42.213 l -21.106,36.558 z m 0,0 21.107,-36.558 21.106,36.558 z m 21.107,36.558 21.106,-36.558 21.107,36.558 z m 0,0 h 42.213 l -21.107,36.558 z M 246.81,193.396 h 42.214 l -21.107,36.558 z m 0,0 21.107,36.558 h -42.214 z m -57.665,57.665 36.558,-21.107 v 42.214 z m -21.107,36.558 36.559,21.107 -36.559,21.107 z m -63.32,151.888 21.107,-36.558 21.107,36.558 z m 0,42.214 h 42.214 l -21.107,36.558 z m 21.107,-78.772 21.107,-36.558 21.106,36.558 z m 0,0 h 42.213 l -21.106,36.558 z m 21.107,-36.558 h 42.213 l -21.107,36.558 z m 0,0 21.106,-36.558 21.107,36.558 z m 199.757,492.222 21.107,-36.558 21.106,36.558 z m 0,0 -21.107,-36.558 h 42.214 z m 78.771,21.107 21.107,-36.558 21.107,36.558 z m -36.558,-21.107 -21.106,-36.558 h 42.213 z m 78.772,21.107 21.107,-36.558 21.107,36.558 z m 0,0 -21.107,-36.558 h 42.214 z m 42.214,0 -21.107,-36.558 h 42.214 z m 0,0 21.107,-36.558 21.106,36.558 z m 120.985,-21.107 h -42.214 l 21.107,-36.558 z m 0,0 -21.107,-36.558 h 42.214 z m -42.214,0 -21.106,-36.558 h 42.213 z M 267.917,806.604 304.475,785.497 267.917,764.39 Z m -42.214,-42.214 21.107,-36.558 21.107,36.558 z m 0,0 -21.106,-36.558 h 42.213 z m -21.106,-36.558 21.106,-36.558 21.107,36.558 z M 893.951,518.279 h -42.214 l 21.107,-36.558 z m 0,0 -21.107,36.558 -21.107,-36.558 z M 709.645,806.604 673.087,785.497 709.645,764.39 Z M 872.844,597.051 851.737,633.609 830.63,597.051 Z m 0,-42.214 H 830.63 l 21.107,-36.558 z m -21.107,78.772 -21.107,36.558 -21.107,-36.558 z m 0,0 H 809.523 L 830.63,597.051 Z M 751.858,764.39 730.752,727.832 h 42.213 z m 0,0 h -42.213 l 21.107,-36.558 z m 78.772,-94.223 h -42.213 l 21.106,-36.558 z m 0,0 -21.107,36.558 -21.106,-36.558 z m -57.665,57.665 h -42.213 l 21.106,-36.558 z m -42.213,-534.436 -21.107,36.558 -21.107,-36.558 z m 0,0 21.106,36.558 h -42.213 z m 57.665,57.665 -36.559,21.107 v -42.214 z m 21.106,36.558 v 42.214 l -36.558,-21.107 z m 63.321,151.888 H 830.63 l 21.107,-36.558 z m 0,42.214 -21.107,36.558 -21.107,-36.558 z m -21.107,-78.772 h -42.214 l 21.107,-36.558 z m 0,0 -21.107,36.558 -21.107,-36.558 z m -21.107,-36.558 -21.107,36.558 -21.106,-36.558 z m 0,0 h -42.213 l 21.106,-36.558 z M 630.873,177.945 609.766,214.503 588.659,177.945 Z m 0,0 21.107,36.558 h -42.214 z m -78.772,-21.107 -21.106,36.558 -21.107,-36.558 z m 36.558,21.107 21.107,36.558 h -42.213 z m -78.771,-21.107 -21.107,36.558 -21.107,-36.558 z m 0,0 21.107,36.558 h -42.214 z m -42.214,0 21.107,36.558 h -42.214 z m 0,0 -21.107,36.558 -21.107,-36.558 z m -120.985,21.107 h 42.213 l -21.106,36.558 z m 0,0 21.107,36.558 h -42.214 z m 42.213,0 21.107,36.558 h -42.213 z m -263.077,340.334 21.107,-36.558 21.106,36.558 z m 0,0 h 42.213 l -21.106,36.558 z m 21.107,78.772 v -42.214 l 36.558,21.107 z m 42.213,73.116 36.558,-21.107 v 42.214 z m 78.772,-440.213 36.558,21.107 -36.558,21.107 z m -42.214,42.214 21.107,36.558 h -42.213 z m 0,0 h 42.214 l -21.107,36.558 z m -21.106,36.558 h 42.213 l -21.107,36.558 z m -57.665,130.781 36.558,21.107 -36.558,21.107 z m 42.213,-73.116 36.558,-21.107 v 42.214 z m 136.437,455.664 -21.107,-36.558 h 42.214 z m 0,0 21.107,-36.558 21.107,36.558 z m 42.214,0 21.106,-36.558 21.107,36.558 z m 0,0 -21.107,-36.558 h 42.213 z m 78.771,21.107 21.107,-36.558 21.107,36.558 z m -36.558,-21.107 -21.107,-36.558 h 42.214 z m 78.772,21.107 21.107,-36.558 21.107,36.558 z m 0,0 -21.107,-36.558 h 42.214 z m 142.092,-57.665 21.107,36.558 h -42.214 z m 0,0 h 42.214 l -21.107,36.558 z m -42.214,0 h 42.214 l -21.107,36.558 z m 0,0 21.107,36.558 h -42.213 z m -42.213,0 h 42.213 l -21.106,36.558 z m -220.864,-36.558 21.107,36.558 H 304.475 Z M 289.024,727.832 267.917,764.39 246.81,727.832 Z m -21.107,-36.558 21.107,36.558 H 246.81 Z m 0,0 -21.107,36.558 -21.107,-36.558 z m 541.606,-172.995 21.107,-36.558 21.107,36.558 z m 0,0 h 42.214 l -21.107,36.558 z m -157.543,230.66 21.107,36.558 h -42.214 z m 36.558,-21.107 h 42.214 L 709.645,764.39 Z M 794.072,575.944 830.63,554.837 v 42.214 z m -84.427,115.33 h 42.213 l -21.106,36.558 z m 0,0 21.107,36.558 h -42.214 z m 42.213,-42.214 36.559,21.107 -36.559,21.107 z m -42.213,-376.892 -36.558,-21.107 36.558,-21.107 z m 21.107,36.558 -21.107,-36.558 h 42.213 z m 0,0 21.106,-36.558 21.107,36.558 z m 21.106,36.558 -21.106,-36.558 h 42.213 z m 42.214,115.33 36.558,-21.107 v 42.214 z m -42.214,-73.116 36.559,-21.107 -36.559,-21.107 z m -120.985,-136.437 21.107,-36.558 21.107,36.558 z m 0,0 -21.107,-36.558 h 42.214 z m -42.214,0 -21.106,-36.558 h 42.213 z m 0,0 21.107,-36.558 21.107,36.558 z m -78.771,-21.107 -21.107,-36.558 h 42.214 z m 36.558,21.107 21.107,-36.558 21.106,36.558 z m -78.772,-21.107 -21.107,-36.558 h 42.214 z m 0,0 21.107,-36.558 21.107,36.558 z m -120.985,21.107 -21.107,-36.558 h 42.214 z m 0,0 h -42.214 l 21.107,-36.558 z m 42.213,0 h -42.213 l 21.107,-36.558 z m 0,0 -21.106,-36.558 h 42.213 z m 42.214,0 h -42.214 l 21.107,-36.558 z M 204.597,497.172 v 42.214 l -36.559,-21.107 z m 0,42.214 21.106,36.558 H 183.49 Z m 21.106,36.558 -21.106,36.558 -21.107,-36.558 z m 0,0 21.107,36.558 h -42.213 z m 21.107,36.558 -21.107,36.558 -21.106,-36.558 z m 0,0 21.107,36.558 h -42.214 z m 99.879,-361.441 -21.107,36.558 -21.107,-36.558 z m -57.665,57.665 H 246.81 l 21.107,-36.558 z m 0,0 -21.107,36.558 -21.107,-36.558 z m -21.107,36.558 h -42.214 l 21.107,-36.558 z m -63.32,151.888 -21.107,-36.558 h 42.213 z m 21.106,-36.558 H 183.49 l 21.107,-36.558 z m 0,0 -21.106,-36.558 h 42.213 z m 21.107,-36.558 h -42.213 l 21.106,-36.558 z m 0,0 -21.107,-36.558 h 42.214 z m 120.986,324.883 21.106,36.558 h -42.213 z m -42.214,0 h 42.214 l -21.107,36.558 z m 42.214,0 h 42.213 l -21.107,36.558 z m 42.213,0 21.107,36.558 h -42.214 z m 57.665,15.451 v 42.214 l -36.558,-21.107 z m 78.772,21.107 -36.558,21.107 V 764.39 Z m 42.213,0 21.107,-36.558 21.107,36.558 z m 63.321,-36.558 -21.107,36.558 -21.107,-36.558 z m -63.321,36.558 -21.106,-36.558 h 42.213 z m -42.213,0 21.107,-36.558 21.106,36.558 z m -257.422,-57.665 36.558,-21.107 v 42.214 z m -21.107,-78.772 36.558,21.107 -36.558,21.107 z M 809.523,518.279 772.965,539.386 V 497.172 Z M 688.538,727.832 651.98,748.939 V 706.725 Z M 794.072,575.944 h -42.214 l 21.107,-36.558 z m -21.107,36.558 -21.107,-36.558 h 42.214 z m 0,0 h -42.213 l 21.106,-36.558 z m -21.107,36.558 -21.106,-36.558 h 42.213 z m -42.213,42.214 -36.558,-21.107 36.558,-21.107 z m 42.213,-42.214 h -42.213 l 21.107,-36.558 z M 630.873,251.061 h 42.214 l -21.107,36.558 z m 99.879,57.665 h -42.214 l 21.107,-36.558 z m 0,0 -21.107,36.558 -21.107,-36.558 z m 21.106,36.558 h -42.213 l 21.107,-36.558 z m 42.214,115.33 -21.107,36.558 -21.107,-36.558 z m -21.107,-36.558 21.107,36.558 h -42.214 z m 0,0 -21.107,36.558 -21.106,-36.558 z m -21.107,-36.558 21.107,36.558 h -42.213 z m 0,0 -21.106,36.558 -21.107,-36.558 z M 588.659,251.061 h 42.214 l -21.107,36.558 z m 42.214,0 21.107,36.558 h -42.214 z m -42.214,0 21.107,36.558 h -42.213 z m -42.213,0 h 42.213 l -21.106,36.558 z m 0,0 -36.558,21.107 v -42.214 z m -115.33,0 36.558,-21.107 v 42.214 z m -42.214,0 -21.106,36.558 -21.107,-36.558 z m -42.213,0 21.107,36.558 h -42.214 z m 42.213,0 21.107,36.558 h -42.213 z m 42.214,0 -21.107,36.558 -21.107,-36.558 z M 204.597,539.386 h 42.213 l -21.107,36.558 z m 0,-42.214 21.106,-36.558 21.107,36.558 z m 21.106,78.772 h 42.214 l -21.107,36.558 z m 0,0 21.107,-36.558 21.107,36.558 z m 21.107,36.558 21.107,-36.558 21.107,36.558 z m 0,0 h 42.214 l -21.107,36.558 z m 78.772,-324.883 v 42.214 l -36.558,-21.107 z m -57.665,57.665 36.558,21.107 -36.558,21.107 z m -42.214,115.33 h 42.214 l -21.107,36.558 z m 0,0 21.107,-36.558 21.107,36.558 z m 21.107,-36.558 h 42.214 l -21.107,36.558 z m 0,0 21.107,-36.558 21.107,36.558 z m 199.757,303.776 -36.558,21.107 v -42.214 z m 42.214,0 21.107,36.558 h -42.214 z m 0,0 -21.107,36.558 -21.107,-36.558 z m 42.214,0 -21.107,36.558 -21.107,-36.558 z m 36.558,-21.107 v 42.214 l -36.558,-21.107 z m -220.864,-36.558 -21.107,36.558 -21.107,-36.558 z m 0,0 21.107,36.558 h -42.214 z m -21.107,-36.558 21.107,36.558 h -42.214 z m 405.17,-94.223 h 42.213 l -21.107,36.558 z m 0,-42.214 21.106,-36.558 21.107,36.558 z m -99.879,172.995 h 42.214 l -21.107,36.558 z m 0,0 21.107,36.558 h -42.214 z m 21.107,-36.558 21.107,36.558 h -42.214 z m 57.665,-57.665 21.107,-36.558 21.106,36.558 z m 0,0 h 42.213 l -21.106,36.558 z m -21.107,36.558 21.107,-36.558 21.107,36.558 z m 0,0 h 42.214 L 709.645,649.06 Z M 651.98,329.833 v -42.214 l 36.558,21.107 z m 21.107,36.558 36.558,-21.107 v 42.214 z m 36.558,94.223 21.107,-36.558 21.106,36.558 z m 0,0 h 42.213 l -21.106,36.558 z m -21.107,-36.558 h 42.214 l -21.107,36.558 z m 0,0 21.107,-36.558 21.107,36.558 z m -157.543,-115.33 36.558,-21.107 v 42.214 z m -42.214,0 -21.107,-36.558 h 42.214 z m 0,0 21.107,-36.558 21.107,36.558 z m -42.214,0 21.107,-36.558 21.107,36.558 z m -36.558,21.107 v -42.214 l 36.558,21.107 z M 289.024,539.386 267.917,575.944 246.81,539.386 Z m 0,-42.214 H 246.81 l 21.107,-36.558 z m 21.107,78.772 -21.107,36.558 -21.107,-36.558 z m 0,0 h -42.214 l 21.107,-36.558 z m 36.558,-209.553 h -42.214 l 21.107,-36.558 z m 0,0 -21.107,-36.558 h 42.214 z m -21.107,36.558 -21.107,-36.558 h 42.214 z m -15.451,57.665 h -42.214 l 21.107,-36.558 z m 0,0 -21.107,36.558 -21.107,-36.558 z m 78.771,209.553 -21.106,36.558 -21.107,-36.558 z m 0,0 21.107,36.558 h -42.213 z m 42.214,0 -21.107,36.558 -21.107,-36.558 z m 36.558,21.107 21.107,36.558 h -42.214 z m 42.214,0 -21.107,36.558 -21.107,-36.558 z m 0,0 21.107,36.558 h -42.214 z m 78.771,-21.107 21.107,36.558 h -42.213 z m 0,0 h 42.214 l -21.107,36.558 z m -42.213,0 h 42.213 l -21.106,36.558 z m -178.65,-36.558 21.106,36.558 h -42.213 z m 0,0 -21.107,36.558 -21.107,-36.558 z m -21.107,-36.558 21.107,36.558 h -42.214 z m 341.849,-57.665 h 42.214 l -21.107,36.558 z m 0,-42.214 21.107,-36.558 21.107,36.558 z m -78.772,136.437 h 42.214 l -21.107,36.558 z m 0,0 21.107,36.558 h -42.214 z m 21.107,-36.558 21.107,36.558 h -42.214 z m 36.558,-21.107 h 42.214 l -21.107,36.558 z m 0,0 21.107,-36.558 21.107,36.558 z m -36.558,-209.553 21.107,-36.558 21.107,36.558 z m 0,0 -21.107,-36.558 h 42.214 z m 21.107,36.558 -21.107,-36.558 h 42.214 z m 15.451,57.665 21.107,-36.558 21.107,36.558 z m 0,0 h 42.214 l -21.107,36.558 z m -78.772,-94.223 21.107,-36.558 21.107,36.558 z m 0,0 -21.106,-36.558 h 42.213 z m -42.213,0 21.107,-36.558 21.106,36.558 z m -36.558,-21.107 -21.107,-36.558 h 42.214 z m -42.214,0 21.107,-36.558 21.107,36.558 z m 0,0 -21.107,-36.558 h 42.214 z m -78.772,21.107 -21.106,-36.558 h 42.213 z m 0,0 h -42.213 l 21.107,-36.558 z m 42.214,0 h -42.214 l 21.107,-36.558 z m -105.534,151.888 -36.558,21.107 v -42.214 z m 21.107,36.558 v 42.214 l -36.558,-21.107 z m 21.107,-151.888 h -42.214 l 21.107,-36.558 z m 0,0 -21.107,-36.558 h 42.213 z m -21.107,36.558 -21.107,-36.558 h 42.214 z m 0,42.214 -36.558,-21.107 36.558,-21.107 z m 63.32,151.888 -21.107,36.558 -21.106,-36.558 z m 0,0 21.107,36.558 h -42.214 z m 57.665,15.451 v 42.214 l -36.558,-21.107 z m 42.214,0 36.558,21.107 -36.558,21.107 z m 57.665,-15.451 h 42.213 l -21.107,36.558 z m 0,0 21.106,36.558 h -42.213 z m -178.651,-36.558 21.107,36.558 h -42.213 z m 0,0 -21.106,36.558 -21.107,-36.558 z m 263.078,-78.772 36.558,-21.107 v 42.214 z m -63.321,78.772 21.107,36.558 h -42.213 z m 0,0 h 42.214 l -21.107,36.558 z m 42.214,-42.214 36.558,21.107 -36.558,21.107 z M 609.766,402.949 588.659,366.391 h 42.214 z m 0,0 21.107,-36.558 21.107,36.558 z m 21.107,36.558 -21.107,-36.558 h 42.214 z m 0,42.214 v -42.214 l 36.558,21.107 z m -63.32,-78.772 21.106,-36.558 21.107,36.558 z m 0,0 -21.107,-36.558 h 42.213 z m -57.665,-15.451 36.558,-21.107 -36.558,-21.107 z m -42.214,0 -36.558,-21.107 36.558,-21.107 z m -57.665,15.451 h -42.213 l 21.106,-36.558 z m 0,0 -21.107,-36.558 h 42.214 z m -42.213,115.33 -21.107,36.558 -21.107,-36.558 z m 0,0 h -42.214 l 21.107,-36.558 z m 21.106,36.558 h -42.213 l 21.107,-36.558 z m 0,-115.33 -21.106,-36.558 h 42.213 z m 0,0 h -42.213 l 21.107,-36.558 z m 0,42.214 -21.106,36.558 -21.107,-36.558 z m 99.879,130.781 -21.107,36.558 -21.107,-36.558 z m 0,0 21.107,36.558 h -42.214 z m 42.214,0 -21.107,36.558 -21.107,-36.558 z M 425.46,575.944 388.902,597.051 v -42.214 z m 184.306,-57.665 21.107,-36.558 21.107,36.558 z m 0,0 h 42.214 l -21.107,36.558 z m -21.107,36.558 v 42.214 l -36.558,-21.107 z m 0,0 21.107,-36.558 21.107,36.558 z m 0,-115.33 -21.106,-36.558 h 42.213 z m 0,0 21.107,-36.558 21.107,36.558 z m 0,42.214 h 42.214 l -21.107,36.558 z m -99.878,-57.665 21.107,-36.558 21.107,36.558 z m 0,0 -21.107,-36.558 h 42.214 z m -42.214,0 21.107,-36.558 21.107,36.558 z m -36.558,94.223 h -42.213 l 21.106,-36.558 z m 0,0 -21.107,36.558 -21.106,-36.558 z m 15.451,-57.665 -36.558,21.107 v -42.214 z m 42.214,115.33 -21.107,36.558 -21.107,-36.558 z m 0,0 21.107,36.558 h -42.214 z m 42.214,0 21.107,36.558 h -42.214 z m 0,0 h 42.213 l -21.106,36.558 z m 0,0 -21.107,36.558 -21.107,-36.558 z m -63.321,-36.558 21.107,36.558 H 425.46 Z m 84.428,0 21.106,36.558 h -42.213 z m 36.558,-21.107 21.106,-36.558 21.107,36.558 z m 0,0 h 42.213 l -21.107,36.558 z m -15.452,-57.665 36.558,-21.107 v 42.214 z m -42.213,0 21.107,-36.558 21.106,36.558 z m 0,0 -21.107,-36.558 h 42.214 z m -42.214,0 -21.107,-36.558 h 42.214 z m 0,0 H 425.46 l 21.107,-36.558 z m 0,0 21.107,-36.558 21.107,36.558 z m -21.107,36.558 v 42.214 l -36.558,-21.107 z m 0,0 -21.107,-36.558 h 42.214 z m 42.214,42.214 21.107,36.558 h -42.214 z m 0,0 h 42.214 l -21.107,36.558 z m 0,0 -21.107,36.558 -21.107,-36.558 z m 42.214,-42.214 36.558,21.107 -36.558,21.107 z m 0,0 -21.107,-36.558 h 42.213 z m -42.214,0 -21.107,-36.558 h 42.214 z m 0,0 h -42.214 l 21.107,-36.558 z m 0,0 21.107,-36.558 21.107,36.558 z"
     style="opacity:1;fill-opacity:0;stroke:#000000;stroke-width:15;stroke-opacity:1;stop-opacity:1;stroke-miterlimit:4;stroke-dasharray:none"
     id="path6566" />
</svg>
