<?xml version="1.0" encoding="UTF-8" standalone="no"?>
<svg
   xmlns:dc="http://purl.org/dc/elements/1.1/"
   xmlns:cc="http://creativecommons.org/ns#"
   xmlns:rdf="http://www.w3.org/1999/02/22-rdf-syntax-ns#"
   xmlns:svg="http://www.w3.org/2000/svg"
   xmlns="http://www.w3.org/2000/svg"
   xmlns:sodipodi="http://sodipodi.sourceforge.net/DTD/sodipodi-0.dtd"
   xmlns:inkscape="http://www.inkscape.org/namespaces/inkscape"
   inkscape:version="1.0beta1 (32d4812, 2019-09-19)"
   sodipodi:docname="5-uniform_216.svg"
   id="c:\kuniform\5u\5-uniform_216.svg"
   height="989.9067"
   width="1000.00006"
   version="1.0">
  <metadata
     id="metadata41017">
    <rdf:RDF>
      <cc:Work
         rdf:about="">
        <dc:format>image/svg+xml</dc:format>
        <dc:type
           rdf:resource="http://purl.org/dc/dcmitype/StillImage" />
        <dc:title></dc:title>
      </cc:Work>
    </rdf:RDF>
  </metadata>
  <defs
     id="defs41015" />
  <sodipodi:namedview
     inkscape:current-layer="c:\kuniform\5u\5-uniform_216.svg"
     inkscape:window-maximized="1"
     inkscape:window-y="23"
     inkscape:window-x="0"
     inkscape:cy="505.01561"
     inkscape:cx="429.26502"
     inkscape:zoom="0.81873653"
     showgrid="false"
     id="namedview41013"
     inkscape:window-height="1005"
     inkscape:window-width="1680"
     inkscape:pageshadow="2"
     inkscape:pageopacity="0"
     guidetolerance="10"
     gridtolerance="10"
     objecttolerance="10"
     borderopacity="1"
     inkscape:document-rotation="0"
     bordercolor="#666666"
     pagecolor="#ffffff" />
  <!-- X Coordinate transform: fx(x)=(x+83.85651)*0.86131597-->
  <!-- Y Coordinate transform: fy(y)=(1065.4972-y)*0.86131597 -->
  <path
     d="m 101.076,947.71 h 43.065 l 37.296,21.533 M 122.608,63.729 159.905,42.197 M 840.096,63.729 V 20.664 M 144.141,904.644 H 101.076 L 63.779,883.111 42.247,845.815 V 802.75 L 20.714,765.453 m 123.427,182.257 37.296,-21.533 m 797.849,-21.533 -21.533,-37.296 -37.296,-21.533 m -139.19,123.428 37.296,-21.533 m -594.06,-21.533 v 43.066 M 979.286,261.749 957.753,224.453 920.457,202.92 M 20.714,283.282 42.247,245.986 V 202.92 l 21.532,-37.296 37.297,-21.533 h 43.065 m 0,-43.065 37.296,21.532 m -58.829,744.79 h 43.066 l 37.296,21.533 21.533,37.296 37.296,21.533 m 556.764,-43.066 h 43.065 l 37.296,-21.533 21.533,-37.296 V 802.75 l 21.533,-37.297 37.296,-21.532 m -198.019,182.256 37.296,21.533 h 43.065 l 37.296,21.533 m -198.019,-21.533 37.296,21.533 m -513.698,0 37.296,-21.533 h 43.066 l 37.296,21.533 m 278.382,0 37.296,-21.533 h 43.066 l 37.296,-21.533 m 160.723,43.066 37.297,-21.533 M 122.608,824.282 v 43.066 l -21.532,37.296 v 43.066 l 21.532,37.296 M 957.753,545.901 995.05,524.368 M 818.563,144.091 h 43.065 l 37.296,21.533 21.533,37.296 v 43.066 l 21.533,37.296 37.296,21.533 M 802.799,42.197 l 37.297,21.532 21.532,37.297 v 43.065 l -21.532,37.296 m -58.829,-58.829 37.296,-21.532 M 642.076,42.197 620.543,4.901 m 58.829,58.828 V 20.664 m 21.533,80.362 37.296,21.532 M 85.312,42.197 H 42.247 m 278.381,0 21.533,-37.296 M 363.694,42.197 342.161,4.901 M 283.332,63.729 V 20.664 m -58.829,101.894 37.296,-21.532 M 122.608,224.453 V 181.387 L 101.076,144.091 V 101.026 L 122.608,63.729 V 20.664 M 920.457,42.197 898.924,4.901 m 80.362,96.125 -21.533,-37.297 -37.296,-21.532 h -43.065 m 80.361,21.532 V 20.664 m -872.441,664.428 37.296,21.532 m 21.533,80.362 -37.296,-21.533 -21.533,-37.296 V 685.092 L 63.779,647.796 m 0,235.315 21.533,-37.296 V 802.75 l 21.533,-37.297 37.296,-21.532 m 695.955,80.361 37.296,21.533 m -37.296,21.533 H 797.03 l -37.296,21.533 -21.533,37.296 v 43.066 M 979.286,743.921 957.753,706.624 920.457,685.092 M 422.523,947.71 459.819,969.243 M 283.332,867.348 h -43.066 l -37.296,21.533 -21.533,37.296 v 43.066 m 160.724,0 37.296,-21.533 h 43.066 l 37.296,-21.533 m 43.066,43.066 37.296,-21.533 m -37.296,-21.533 37.296,21.533 h 43.066 l 37.296,21.533 m 299.914,-605.599 37.296,-21.533 21.533,-37.296 M 840.096,224.453 877.392,202.92 M 561.714,63.729 V 20.664 M 400.99,63.729 V 20.664 M 144.141,304.815 106.845,283.282 85.312,245.986 V 202.92 L 63.779,165.624 m 21.533,198.02 v -43.066 l 21.533,-37.296 37.296,-21.533 M 85.312,524.368 H 42.247 m 637.125,342.98 h 43.066 l 37.296,21.533 21.533,37.296 v 43.066 m 37.296,-182.257 v -43.065 m 58.829,-58.829 v 43.065 l -21.533,37.296 -37.296,21.533 -21.533,37.296 v 43.066 l 21.533,37.296 v 43.066 l 21.533,37.296 m 0,-278.382 37.296,-21.532 21.532,-37.296 37.297,-21.533 h 43.065 M 283.332,824.282 v 43.066 l 21.533,37.296 v 43.066 l -21.533,37.296 m -21.533,-80.362 21.533,-37.296 37.296,-21.533 M 877.392,524.368 h 43.065 m -80.361,-182.257 37.296,21.533 m -58.829,-101.895 37.296,21.533 21.533,37.296 v 43.066 l 21.532,37.296 37.297,21.533 h 43.065 M 818.563,304.815 V 261.749 L 797.03,224.453 v -43.066 l 21.533,-37.296 V 101.026 L 840.096,63.729 877.392,42.197 898.924,4.901 m -219.552,176.486 21.533,-37.296 m -198.02,-21.533 37.296,-21.532 m -117.658,0 37.296,-21.533 h 43.066 l 37.296,21.533 h 43.066 l 37.296,-21.533 21.533,-37.296 37.296,-21.533 37.296,21.533 21.533,37.296 v 43.065 l 21.533,37.297 37.296,21.532 h 43.066 l 37.296,21.533 h 43.065 l 37.296,-21.533 21.533,-37.296 m -856.678,37.296 h 43.066 l 37.296,-21.532 21.533,-37.297 V 79.493 l 21.533,-37.296 37.296,-21.533 37.296,21.533 21.533,37.296 37.296,21.533 h 43.066 l 37.296,21.532 M 283.332,181.387 261.799,144.091 M 122.608,545.901 V 502.835 M 20.714,765.453 42.247,728.157 v -43.065 l 21.532,-37.296 37.297,-21.533 h 43.065 m 0,-43.066 v 43.066 l 21.533,37.296 v 43.065 l -21.533,37.297 v 43.065 l 21.533,37.296 v 43.066 l -21.533,37.296 v 43.066 l -21.533,37.296 M 224.503,765.453 202.97,802.75 165.674,824.282 H 122.608 L 85.312,802.75 H 42.247 L 4.951,824.282 M 261.799,786.986 224.503,765.453 202.97,728.157 165.674,706.624 H 122.608 L 85.312,728.157 H 42.247 L 4.951,706.624 m 695.954,198.02 -21.533,-37.296 -37.296,-21.533 M 400.99,867.348 h 43.066 l 37.296,21.533 21.533,37.296 v 43.066 M 320.628,802.75 283.332,824.282 H 240.266 L 202.97,802.75 181.437,765.453 m 139.191,37.297 v 43.065 l 21.533,37.296 37.296,21.533 h 43.066 m 139.191,-37.296 h -43.066 l -37.296,21.533 -21.533,37.296 v 43.066 m 80.362,-64.599 21.533,-37.296 37.296,-21.533 m 241.086,-299.914 37.296,-21.533 21.532,-37.296 37.297,-21.533 h 43.065 M 679.372,224.453 v -43.066 l -21.533,-37.296 v -43.065 l 21.533,-37.297 37.296,-21.532 m -470.632,0 37.296,21.532 21.533,37.297 v 43.065 l -21.533,37.296 v 43.066 m -101.895,58.829 h 43.066 m 37.296,-21.533 -37.296,21.533 -21.533,37.296 -37.296,21.533 H 122.608 L 85.312,320.578 H 42.247 L 4.951,342.111 m 139.19,80.362 H 101.076 L 63.779,400.94 42.247,363.644 V 320.578 L 20.714,283.282 m 123.427,182.257 v -43.066 l 21.533,-37.296 v -43.066 l -21.533,-37.296 v -43.066 l 21.533,-37.296 V 181.387 L 144.141,144.091 V 101.026 L 122.608,63.729 85.312,42.197 63.779,4.901 M 181.437,604.73 144.141,583.197 122.608,545.901 85.312,524.368 63.779,487.072 m 235.316,278.381 -37.296,21.533 -21.533,37.296 v 43.066 l 21.533,37.296 v 43.066 l 21.533,37.296 m 454.869,-219.553 21.533,37.297 37.296,21.532 h 43.066 l 37.296,-21.532 h 43.065 l 37.296,21.532 v 43.066 l -21.532,37.296 v 43.066 m -235.316,-160.724 37.296,-21.533 21.533,-37.296 37.296,-21.533 h 43.066 l 37.296,21.533 h 43.065 l 37.296,-21.533 v -43.065 l -21.532,-37.296 v -43.066 l 21.532,-37.296 V 502.835 M 840.096,663.559 818.563,626.263 m 0,-43.066 v 43.066 l -21.533,37.296 v 43.065 l 21.533,37.297 37.296,21.532 21.533,37.297 v 43.065 l 21.532,37.296 37.297,21.533 h 43.065 M 363.694,845.815 400.99,824.282 m -315.678,21.533 37.296,21.533 21.533,37.296 37.296,21.533 h 43.066 l 37.296,-21.533 h 43.066 l 37.296,-21.533 21.533,-37.296 V 802.75 m 198.02,21.532 37.296,21.533 h 43.066 l 37.296,-21.533 M 818.563,465.539 V 422.473 L 797.03,385.177 v -43.066 l 21.533,-37.296 37.296,-21.533 21.533,-37.296 V 202.92 l 21.532,-37.296 37.297,-21.533 h 43.065 m -241.085,139.191 21.533,-37.296 37.296,-21.533 h 43.066 l 37.296,21.533 h 43.065 l 37.296,-21.533 V 181.387 L 936.221,144.091 V 101.026 L 957.753,63.729 995.05,42.197 m -294.145,219.552 37.296,21.533 21.533,37.296 37.296,21.533 h 43.066 l 37.296,-21.533 h 43.065 l 37.296,21.533 v 43.066 l -21.532,37.296 v 43.066 l 21.532,37.296 37.297,21.533 M 561.714,181.387 540.181,144.091 M 599.01,202.92 561.714,181.387 H 518.648 L 481.352,159.855 459.819,122.558 V 79.493 L 438.286,42.197 400.99,20.664 363.694,42.197 342.161,79.493 304.865,101.026 H 261.799 L 224.503,79.493 h -43.066 l -37.296,21.533 H 101.076 L 63.779,79.493 42.247,42.197 63.779,4.901 M 363.694,202.92 400.99,181.387 h 43.066 l 37.296,-21.532 21.533,-37.297 V 79.493 l 21.533,-37.296 37.296,-21.533 37.296,21.533 21.533,37.296 37.296,21.533 h 43.066 l 37.296,-21.533 h 43.066 l 37.296,21.533 h 43.065 L 898.924,79.493 920.457,42.197 957.753,20.664 995.05,42.197 M 261.799,304.815 v -43.066 l 21.533,-37.296 37.296,-21.533 m -256.849,358.744 21.533,-37.296 37.296,-21.533 21.533,-37.296 37.296,-21.533 M 4.951,824.282 42.247,845.815 h 43.065 l 37.296,-21.533 21.533,-37.296 37.296,-21.533 21.533,-37.296 37.296,-21.533 h 43.066 l 37.296,21.533 m -21.533,37.296 -37.296,-21.532 -21.533,-37.297 v -43.065 l 21.533,-37.296 M 122.608,342.111 v 43.066 l -21.532,37.296 v 43.066 l 21.532,37.296 37.297,21.533 21.532,37.296 v 43.066 l 21.533,37.296 37.296,21.533 h 43.066 m 396.04,321.447 -21.533,-37.296 v -43.066 l 21.533,-37.296 v -43.066 l 21.533,-37.296 v -43.065 m 80.362,-139.191 37.296,-21.533 21.533,-37.296 v -43.066 m -380.277,262.618 21.533,37.297 37.296,21.532 h 43.066 L 599.01,802.75 h 43.066 l 37.296,21.532 h 43.066 l 37.296,-21.532 21.533,-37.297 m 0,-321.447 37.296,21.533 21.533,37.296 37.296,21.533 21.532,37.296 37.297,21.533 h 43.065 m -337.21,-380.277 37.296,21.533 21.533,37.296 v 43.066 M 561.714,224.453 599.01,202.92 h 43.066 l 37.296,-21.533 h 43.066 l 37.296,-21.532 21.533,-37.297 V 79.493 l 21.532,-37.296 37.297,-21.533 37.296,21.533 21.532,37.296 37.297,21.533 h 43.065 M 63.779,79.493 85.312,42.197 l 37.296,-21.533 37.297,21.533 21.532,37.296 v 43.065 l 21.533,37.297 37.296,21.532 h 43.066 l 37.296,21.533 h 43.066 l 37.296,21.533 m -139.191,519.468 -37.296,21.532 h -43.066 l -37.296,-21.532 -21.533,-37.297 v -43.065 l -21.532,-37.296 v -43.066 l 21.532,-37.296 37.297,-21.533 21.532,-37.296 v -43.066 l 21.533,-37.296 37.296,-21.533 h 43.066 m -21.533,37.296 -21.533,-37.296 v -43.066 l 21.533,-37.296 37.296,-21.533 21.533,-37.296 V 202.92 l 21.533,-37.296 37.296,-21.533 h 43.066 m -198.02,460.639 37.296,-21.533 m 58.829,144.96 v -43.065 m 358.744,-21.533 h 43.066 l 37.296,-21.533 21.533,-37.296 v -43.066 l 21.532,-37.296 37.297,-21.533 21.532,-37.296 V 422.473 L 840.096,385.177 M 422.523,786.986 v -43.065 m 117.658,43.065 V 743.921 M 363.694,685.092 v 43.065 l 21.533,37.296 37.296,21.533 21.533,37.296 v 43.066 l -21.533,37.296 V 947.71 L 400.99,985.006 M 502.885,765.453 H 459.819 L 422.523,743.921 400.99,706.624 M 700.905,422.473 722.438,385.177 V 342.111 L 700.905,304.815 663.609,283.282 642.076,245.986 V 202.92 l -21.533,-37.296 -37.296,-21.533 h -43.066 l -37.296,-21.533 h -43.066 l -37.296,21.533 m 80.362,139.191 -21.533,-37.296 -37.296,-21.533 H 400.99 l -37.296,21.533 h -43.066 l -37.296,-21.533 h -43.066 l -37.296,21.533 -21.533,37.296 -37.296,21.533 -21.533,37.296 -37.296,21.533 -21.533,37.296 m 754.784,21.533 21.533,-37.296 v -43.066 l -21.533,-37.296 -37.296,-21.533 -21.533,-37.296 -37.296,-21.533 h -43.066 l -37.296,21.533 H 599.01 l -37.296,-21.533 h -43.066 l -37.296,21.533 -21.533,37.296 m -176.487,58.829 37.296,21.533 m -96.125,80.362 37.296,21.533 m 43.066,-43.066 -21.533,-37.296 V 342.111 L 261.799,304.815 224.503,283.282 202.97,245.986 165.674,224.453 H 122.608 L 85.312,245.986 H 42.247 L 4.951,224.453 m 117.657,160.724 21.533,37.296 37.296,21.533 h 43.066 l 37.296,-21.533 h 43.066 M 122.608,663.559 h 43.066 l 37.296,-21.533 21.533,-37.296 v -43.066 l 21.533,-37.296 37.296,-21.533 m 0,43.066 -37.296,-21.533 -21.533,-37.296 V 444.006 L 202.97,406.71 165.674,385.177 H 122.608 L 85.312,363.644 H 42.247 L 4.951,342.111 M 400.99,706.624 363.694,685.092 342.161,647.796 304.865,626.263 H 261.799 L 224.503,604.73 h -43.066 l -37.296,21.533 -21.533,37.296 -37.296,21.533 H 42.247 L 4.951,706.624 m 637.125,-21.532 v 43.065 l 21.533,37.296 37.296,21.533 21.533,37.296 v 43.066 l -21.533,37.296 v 43.066 l -21.533,37.296 m 21.533,-401.809 37.296,21.533 M 400.99,706.624 h 43.066 l 37.296,21.533 21.533,37.296 37.296,21.533 21.533,37.296 v 43.066 l 21.533,37.296 v 43.066 l -21.533,37.296 m 0,-278.382 37.296,21.533 h 43.066 l 37.296,-21.533 h 43.066 l 37.296,21.533 21.533,37.296 37.296,21.533 21.533,37.296 v 43.066 l 21.532,37.296 v 43.066 l -21.532,37.296 M 599.01,685.092 561.714,706.624 h -43.066 l -37.296,21.533 -21.533,37.296 -37.296,21.533 -21.533,37.296 v 43.066 l -21.533,37.296 v 43.066 l 21.533,37.296 m 299.915,-519.467 37.296,-21.533 m -96.125,-80.362 v -43.066 l 21.533,-37.296 37.296,-21.533 21.533,-37.296 V 181.387 L 700.905,144.091 V 101.026 L 679.372,63.729 642.076,42.197 H 599.01 M 540.181,304.815 V 261.749 M 422.523,304.815 V 261.749 M 85.312,202.92 l 37.296,21.533 21.533,37.296 37.296,21.533 21.533,37.296 37.296,21.533 h 43.066 l 37.296,-21.533 h 43.066 l 37.296,21.533 m -37.296,21.533 v -43.066 l 21.533,-37.296 37.296,-21.533 21.533,-37.296 v -43.066 l -21.533,-37.296 m -21.533,37.296 21.533,-37.296 V 101.026 L 400.99,63.729 363.694,42.197 h -43.066 l -37.296,21.532 -21.533,37.297 v 43.065 l -21.533,37.296 v 43.066 l 21.533,37.296 37.296,21.533 21.533,37.296 v 43.066 l 21.533,37.296 m -58.829,305.684 v -43.065 l 21.533,-37.296 v -43.066 l -21.533,-37.296 v -43.066 l 21.533,-37.296 M 561.714,985.006 540.181,947.71 v -43.066 l -21.533,-37.296 v -43.066 l 21.533,-37.296 37.296,-21.533 21.533,-37.296 v -43.065 l 21.533,-37.296 37.296,-21.533 h 43.066 l 37.296,-21.533 h 43.066 l 37.296,21.533 h 43.065 l 37.296,21.533 21.533,37.296 v 43.065 l 21.533,37.296 37.296,21.533 m -299.914,-241.085 37.296,-21.533 21.533,-37.296 v -43.066 l 21.533,-37.296 37.296,-21.533 h 43.066 l 37.296,-21.533 h 43.065 l 37.296,21.533 21.533,37.296 M 679.372,706.624 v -43.065 l -21.533,-37.296 v -43.066 l 21.533,-37.296 v -43.066 m 0,-160.724 v 43.066 l -21.533,37.296 v 43.066 l 21.533,37.296 37.296,21.533 21.533,37.296 v 43.066 l 21.533,37.296 37.296,21.533 h 43.066 l 37.296,21.533 h 43.065 l 37.296,-21.533 21.533,-37.296 M 599.01,363.644 v -43.066 l -21.533,-37.296 -37.296,-21.533 -21.533,-37.296 v -43.066 l 21.533,-37.296 V 101.026 L 561.714,63.729 599.01,42.197 620.543,4.901 m -58.829,337.21 37.296,21.533 21.533,37.296 37.296,21.533 h 43.066 l 37.296,21.533 h 43.066 l 37.296,-21.533 h 43.065 l 37.296,-21.533 21.533,-37.296 v -43.066 l 21.533,-37.296 37.296,-21.533 m -198.019,21.533 -21.533,37.296 -37.296,21.533 H 679.372 L 642.076,320.578 H 599.01 l -37.296,21.533 H 518.648 L 481.352,320.578 459.819,283.282 422.523,261.749 400.99,224.453 V 181.387 L 379.457,144.091 V 101.026 L 400.99,63.729 438.286,42.197 m -96.125,358.743 21.533,-37.296 37.296,-21.533 h 43.066 l 37.296,-21.533 21.533,-37.296 37.296,-21.533 21.533,-37.296 v -43.066 l 21.533,-37.296 V 101.026 L 561.714,63.729 524.418,42.197 M 379.457,422.473 400.99,385.177 m -37.296,139.191 -21.533,-37.296 m 219.553,176.487 -21.533,-37.296 m -117.658,0 V 583.197 M 583.247,422.473 561.714,385.177 m -256.849,80.362 h -43.066 l -37.296,21.533 h -43.066 l -37.296,-21.533 h -43.065 l -37.297,21.533 -21.532,37.296 21.532,37.296 37.297,21.533 h 43.065 l 37.296,-21.533 h 43.066 l 37.296,21.533 h 43.066 l 37.296,-21.533 21.533,-37.296 37.296,-21.533 m 198.02,21.533 h 43.066 m 337.21,262.618 -21.533,37.296 -37.296,21.533 h -43.065 l -37.296,21.533 -21.533,37.296 -37.296,21.533 H 738.201 L 700.905,904.644 H 657.839 L 620.543,883.111 599.01,845.815 V 802.75 l -21.533,-37.297 -37.296,-21.532 -21.533,-37.297 v -43.065 l 21.533,-37.296 v -43.066 m -219.553,-58.829 21.533,37.296 37.296,21.533 h 43.066 l 37.296,-21.533 m 241.086,64.599 -21.533,37.296 -37.296,21.533 H 599.01 L 561.714,663.559 H 518.648 L 481.352,642.026 459.819,604.73 v -43.066 m 80.362,-139.191 21.533,-37.296 v -43.066 l -21.533,-37.296 -37.296,-21.533 h -43.066 l -37.296,21.533 -21.533,37.296 v 43.066 l 21.533,37.296 m -43.066,0 h 43.066 l 37.296,21.533 m -37.296,21.533 v -43.066 l 21.533,-37.296 V 342.111 L 422.523,304.815 385.227,283.282 363.694,245.986 V 202.92 l -21.533,-37.296 -37.296,-21.533 h -43.066 l -37.296,-21.533 h -43.066 l -37.296,21.533 -21.533,37.296 -37.296,21.533 H 42.247 L 4.951,224.453 m 556.763,321.448 37.296,-21.533 21.533,-37.296 37.296,-21.533 h 43.066 l 37.296,21.533 h 43.066 l 37.296,-21.533 h 43.065 l 37.296,21.533 21.533,37.296 37.296,21.533 21.533,37.296 m -417.572,-80.362 37.296,21.533 21.533,37.296 37.296,21.533 h 43.066 l 37.296,-21.533 h 43.066 l 37.296,21.533 h 43.065 l 37.296,-21.533 21.533,-37.296 37.296,-21.533 21.533,-37.296 M 400.99,663.559 h 43.066 l 37.296,-21.533 21.533,-37.296 v -43.066 m 0,0 37.296,21.533 h 43.066 l 37.296,-21.533 21.533,-37.296 37.296,-21.533 21.533,-37.296 v -43.066 l -21.533,-37.296 m -176.487,58.829 37.296,21.533 M 400.99,545.901 v -43.066 l 21.533,-37.296 37.296,-21.533 h 43.066 l 37.296,-21.533 h 43.066 m -80.362,182.257 37.296,21.533 h 43.066 l 37.296,21.533 21.533,37.296 37.296,21.532 21.533,37.297 37.296,21.532 h 43.066 l 37.296,-21.532 21.533,-37.297 v -43.065 l 21.532,-37.296 V 583.197 L 840.096,545.901 802.799,524.368 781.267,487.072 V 444.006 L 759.734,406.71 722.438,385.177 H 679.372 L 642.076,363.644 H 599.01 l -37.296,21.533 h -43.066 l -37.296,21.533 -21.533,37.296 v 43.066 l -21.533,37.296 -37.296,21.533 -21.533,37.296 v 43.066 l 21.533,37.296 m 123.428,-139.191 37.296,21.533 21.533,37.296 v 43.066 l -21.533,37.296 v 43.065 l -21.533,37.297 -37.296,21.532 -21.533,37.297 -37.296,21.532 H 400.99 L 363.694,802.75 m 160.724,-278.382 37.296,-21.533 21.533,-37.296 m -123.428,139.191 -37.296,21.533 -21.533,37.296 -37.296,21.533 h -43.066 l -37.296,-21.533 -21.533,-37.296 v -43.066 l 21.533,-37.296 37.296,-21.533 21.533,-37.296 37.296,-21.533 h 43.066 l 37.296,21.533 h 43.066 l 37.296,-21.533 h 43.066 M 400.99,663.559 v 43.065 l -37.296,21.533 h -43.066 l -21.533,37.296 21.533,37.297 h 43.066 l 21.533,-37.297 37.296,-21.532 21.533,-37.297 v -43.065 l -21.533,-37.296 h -43.066 l -37.296,21.533 -21.533,37.296 -37.296,21.532 -21.533,37.297 v 43.065 l 21.533,37.296 37.296,21.533 h 43.066 l 37.296,21.533 21.533,37.296 37.296,21.533 h 43.066 l 37.296,-21.533 h 43.066 l 37.296,-21.533 21.533,-37.296 V 802.75 l 21.533,-37.297 37.296,-21.532 21.533,-37.297 v -43.065 l -21.533,-37.296 v -43.066 l -21.533,-37.296 -37.296,-21.533 -21.533,-37.296 -37.296,-21.533 v -43.066 l 37.296,-21.533 21.533,-37.296 37.296,-21.533 21.533,-37.296 37.296,-21.533 h 43.066 l 37.296,-21.533 21.533,-37.296 v -43.066 l -21.533,-37.296 -37.296,-21.533 h -43.066 l -37.296,21.533 h -43.066 l -37.296,21.533 -21.533,37.296 v 43.066 l -21.533,37.296 -37.296,21.533 -21.533,37.296 v 43.066 l 21.533,37.296 v 43.066 l 21.533,37.296 v 43.066 l -21.533,37.296 -37.296,21.533 H 459.819 L 422.523,583.197 400.99,545.901 363.694,524.368 h -43.066 l -37.296,-21.533 -21.533,-37.296 v -43.066 l 21.533,-37.296 37.296,-21.533 h 43.066 l 37.296,21.533 h 43.066 l 37.296,21.533 21.533,37.296 v 43.066 l 21.533,37.296 -21.533,37.296 H 459.819 L 438.286,524.368 400.99,502.835 379.457,465.539 v -43.066 l -37.296,-21.533 -37.296,21.533 v 43.066 l 37.296,21.533 M 122.608,63.729 159.905,42.197 181.437,79.493 144.141,101.026 Z M 42.247,845.815 V 802.75 h 43.065 v 43.065 z m 58.829,101.895 v -43.066 h 43.065 v 43.066 z m -37.297,-64.599 21.533,-37.296 37.296,21.533 -21.532,37.296 z m 872.442,21.533 -37.297,-21.533 21.533,-37.296 37.296,21.533 z m 21.532,-80.362 -37.296,-21.532 21.533,-37.297 37.296,21.533 z m -21.532,-680.191 21.532,37.296 -37.296,21.533 -21.533,-37.296 z m 21.532,80.362 21.533,37.296 -37.296,21.533 -21.533,-37.296 z M 840.096,63.729 818.563,101.026 781.267,79.493 802.799,42.197 Z m 58.828,15.764 -37.296,21.533 -21.532,-37.297 37.296,-21.532 z m -797.848,21.533 h 43.065 v 43.065 h -43.065 z m -37.297,64.598 37.297,-21.533 21.532,37.296 -37.296,21.533 z M 42.247,202.92 h 43.065 v 43.066 H 42.247 Z m 101.894,701.724 21.533,-37.296 37.296,21.533 -21.533,37.296 z m 717.487,43.066 h -43.065 v -43.066 h 43.065 z m 37.296,-64.599 -37.296,21.533 -21.532,-37.296 37.296,-21.533 z m 21.533,-37.296 H 877.392 V 802.75 h 43.065 z m 21.533,-80.362 -21.533,-37.296 37.296,-21.533 21.533,37.297 z m 0,-482.171 37.296,21.533 -21.533,37.296 -37.296,-21.533 z M 920.457,202.92 v 43.066 H 877.392 V 202.92 Z M 861.628,101.026 v 43.065 h -43.065 v -43.065 z m 37.296,64.598 -21.532,37.296 -37.296,-21.533 21.532,-37.296 z M 781.267,79.493 v 43.065 H 738.201 V 79.493 Z M 716.668,42.197 738.201,79.493 700.905,101.026 679.372,63.729 Z M 63.779,79.493 85.312,42.197 122.608,63.729 101.076,101.026 Z M 957.753,63.729 936.221,101.026 898.924,79.493 920.457,42.197 Z M 181.437,79.493 h 43.066 v 43.065 h -43.066 z m 64.599,-37.296 37.296,21.532 -21.533,37.297 -37.296,-21.533 z m -101.895,101.894 37.296,-21.533 21.533,37.297 -37.296,21.532 z M 42.247,728.157 v -43.065 h 43.065 v 43.065 z m 43.065,74.593 21.533,-37.297 37.296,21.533 -21.533,37.296 z m 0,-74.593 37.296,-21.533 21.533,37.297 -37.296,21.532 z m 37.296,139.191 v -43.066 h 43.066 v 43.066 z m 101.895,58.829 -21.533,-37.296 37.296,-21.533 21.533,37.296 z m 594.06,-21.533 -37.296,21.533 -21.533,-37.296 37.296,-21.533 z M 261.799,947.71 v -43.066 h 43.066 v 43.066 z m 439.106,0 h -43.066 v -43.066 h 43.066 z M 818.563,144.091 797.03,181.387 759.734,159.855 781.267,122.558 Z M 642.076,42.197 679.372,63.729 657.839,101.026 620.543,79.493 Z m -321.448,0 21.533,37.296 -37.296,21.533 -21.533,-37.297 z m -235.316,203.789 37.296,-21.533 21.533,37.296 -37.296,21.533 z m 37.296,-64.599 h 43.066 v 43.066 h -43.066 z m 101.895,-58.829 37.296,21.533 -21.533,37.296 -37.296,-21.532 z M 42.247,320.578 h 43.065 v 43.066 H 42.247 Z m 64.598,-37.296 37.296,21.533 -21.533,37.296 -37.296,-21.533 z m -21.533,401.81 -21.533,-37.296 37.297,-21.533 21.532,37.296 z m 58.829,101.894 37.296,-21.533 21.533,37.297 -37.296,21.532 z m 733.251,15.764 -37.296,21.532 -21.533,-37.296 37.296,-21.533 z m -37.296,64.598 H 797.03 v -43.066 h 43.066 z m -101.895,58.829 -37.296,-21.533 21.533,-37.296 37.296,21.533 z m 182.256,-198.02 h -43.065 v -43.065 h 43.065 z m -64.598,37.296 -37.296,-21.532 21.533,-37.297 37.296,21.533 z m 101.894,-101.894 -37.296,21.533 -21.533,-37.296 37.297,-21.533 z m 0,-117.658 -21.532,37.296 -37.297,-21.533 21.533,-37.296 z M 422.523,947.71 h -43.066 v -43.066 h 43.066 z M 240.266,867.348 v -43.066 h 43.066 v 43.066 z m 64.599,37.296 -21.533,-37.296 37.296,-21.533 21.533,37.296 z m 235.316,43.066 v -43.066 h 43.066 V 947.71 Z M 920.457,320.578 v 43.066 h -43.065 v -43.066 z m 37.296,64.599 -21.532,37.296 -37.297,-21.533 21.533,-37.296 z m 0,117.658 -37.296,21.533 -21.533,-37.296 37.297,-21.533 z m -80.361,-256.849 -21.533,37.296 -37.296,-21.533 21.533,-37.296 z m 0,74.592 -37.296,21.533 -21.533,-37.296 37.296,-21.533 z M 840.096,181.387 v 43.066 H 797.03 v -43.066 z m -101.895,-58.829 21.533,37.297 -37.296,21.532 -21.533,-37.296 z M 524.418,42.197 561.714,63.729 540.181,101.026 502.885,79.493 Z m 74.592,0 21.533,37.296 -37.296,21.533 -21.533,-37.297 z m 101.895,58.829 v 43.065 H 657.839 V 101.026 Z M 438.286,42.197 459.819,79.493 422.523,101.026 400.99,63.729 Z m 64.599,37.296 v 43.065 H 459.819 V 79.493 Z M 363.694,42.197 400.99,63.729 379.457,101.026 342.161,79.493 Z m -101.895,58.829 h 43.066 v 43.065 h -43.066 z m -117.658,160.723 21.533,-37.296 37.296,21.533 -21.533,37.296 z m -58.829,101.895 37.296,21.533 -21.532,37.296 -37.297,-21.533 z m -21.533,198.02 21.533,-37.296 37.296,21.533 -21.532,37.296 z m 0,-74.592 37.297,-21.533 21.532,37.296 -37.296,21.533 z m 58.829,219.552 v -43.065 h 43.066 v 43.065 z m -21.532,-80.361 v -43.066 h 43.065 v 43.066 z m 43.065,117.658 21.533,-37.297 37.296,21.533 -21.533,37.296 z m 58.829,58.829 21.533,-37.297 37.296,21.533 -21.533,37.296 z m 615.593,-15.764 -21.533,37.296 -37.296,-21.532 21.533,-37.297 z m -160.724,117.658 -37.296,-21.533 21.533,-37.296 37.296,21.533 z m 64.599,-37.296 h -43.066 v -43.066 h 43.066 z m 154.954,-182.256 -37.296,-21.533 21.532,-37.296 37.296,21.533 z m -417.573,241.085 -37.296,-21.533 21.533,-37.296 37.296,21.533 z m -80.362,-21.533 -37.296,-21.533 21.533,-37.296 37.296,21.533 z m 123.428,21.533 -21.533,-37.296 37.296,-21.533 21.533,37.296 z m 80.362,-21.533 -21.533,-37.296 37.296,-21.533 21.533,37.296 z m 294.145,-541 21.532,37.296 -37.296,21.533 -21.532,-37.296 z m 21.532,198.02 -37.296,21.533 -21.532,-37.296 37.296,-21.533 z m 0,-74.592 -21.532,37.296 -37.296,-21.533 21.532,-37.296 z M 818.563,261.749 781.267,283.282 759.734,245.986 797.03,224.453 Z M 540.181,101.026 h 43.066 v 43.065 h -43.066 z m 182.257,80.361 v 43.066 h -43.066 v -43.066 z m -64.599,-37.296 21.533,37.296 -37.296,21.533 -21.533,-37.296 z M 422.523,101.026 v 43.065 h -43.066 v -43.065 z m -182.257,80.361 h 43.066 v 43.066 h -43.066 z m 64.599,-37.296 37.296,21.533 -21.533,37.296 -37.296,-21.533 z m -160.724,160.724 37.296,-21.533 21.533,37.296 -37.296,21.533 z m 58.829,-58.829 37.296,-21.533 21.533,37.296 -37.296,21.533 z m -80.362,96.125 h 43.066 v 43.066 h -43.066 z m -21.532,80.362 h 43.065 v 43.066 h -43.065 z m 64.598,241.086 -21.533,-37.296 37.296,-21.533 21.533,37.296 z m -43.066,-117.658 37.297,-21.533 21.532,37.296 -37.296,21.533 z m 80.362,182.256 37.296,-21.533 21.533,37.297 -37.296,21.532 z m 80.362,96.125 -21.533,-37.296 37.296,-21.533 21.533,37.297 z m 535.231,-80.361 -37.296,21.532 -21.533,-37.296 37.296,-21.533 z m -58.829,58.829 -37.296,21.532 -21.533,-37.296 37.296,-21.533 z m 80.362,-96.126 H 797.03 v -43.065 h 43.066 z M 818.563,583.197 h 43.065 v 43.066 H 818.563 Z M 400.99,824.282 h 43.066 v 43.066 H 400.99 Z M 363.694,802.75 v 43.065 H 320.628 V 802.75 Z m 198.02,21.532 v 43.066 H 518.648 V 824.282 Z M 599.01,802.75 h 43.066 v 43.065 H 599.01 Z M 797.03,385.177 v -43.066 h 43.066 v 43.066 z m 21.533,80.362 v -43.066 h 43.065 v 43.066 z m -58.829,-144.961 21.533,-37.296 37.296,21.533 -21.533,37.296 z m -58.829,-58.829 21.533,-37.296 37.296,21.533 -21.533,37.296 z m -182.257,-80.362 -37.296,-21.532 21.533,-37.297 37.296,21.533 z m 80.362,21.533 -37.296,-21.533 21.533,-37.296 37.296,21.533 z m -154.954,-21.533 -21.533,-37.296 37.296,-21.533 21.533,37.297 z m -80.362,21.533 -21.533,-37.296 37.296,-21.533 21.533,37.296 z m -101.895,101.895 -21.533,37.296 -37.296,-21.533 21.533,-37.296 z m 37.296,-21.533 -37.296,-21.533 21.533,-37.296 37.296,21.533 z m -117.658,160.724 -37.296,-21.533 21.533,-37.296 37.296,21.533 z m 0,43.066 -21.532,37.296 -37.297,-21.533 21.533,-37.296 z m 43.066,74.592 v 43.066 h -43.066 v -43.066 z m 58.829,144.96 37.296,21.533 -21.533,37.296 -37.296,-21.532 z m -58.829,-101.894 37.296,21.533 -21.533,37.296 -37.296,-21.533 z m 58.829,101.894 h -43.066 v -43.065 h 43.066 z m 439.106,0 37.296,21.533 -21.533,37.296 -37.296,-21.532 z m -58.829,58.829 37.296,21.533 -21.533,37.296 -37.296,-21.532 z m 96.125,-123.427 21.533,-37.296 37.296,21.533 -21.533,37.296 z m 21.533,-80.362 21.532,-37.296 37.297,21.533 -21.533,37.296 z M 422.523,786.986 400.99,824.282 363.694,802.75 385.227,765.453 Z m 176.487,15.764 -37.296,21.532 -21.533,-37.296 37.296,-21.533 z m -117.658,0 -37.296,21.532 -21.533,-37.296 37.296,-21.533 z m 0,0 21.533,-37.297 37.296,21.533 -21.533,37.296 z M 818.563,422.473 781.267,444.006 759.734,406.71 797.03,385.177 Z m -15.764,101.895 -21.532,-37.296 37.296,-21.533 21.533,37.296 z m -64.598,-241.086 21.533,37.296 -37.296,21.533 -21.533,-37.296 z m -96.125,-37.296 37.296,-21.533 21.533,37.296 -37.296,21.533 z m -80.362,-64.599 v 43.066 h -43.066 v -43.066 z m 80.362,64.599 H 599.01 V 202.92 h 43.066 z M 400.99,181.387 h 43.066 v 43.066 H 400.99 Z m -80.362,64.599 V 202.92 h 43.066 v 43.066 z m -21.533,37.296 21.533,37.296 -37.296,21.533 -21.533,-37.296 z m -117.658,203.79 v -43.066 h 43.066 v 43.066 z m 58.829,-101.895 v -43.066 h 43.066 v 43.066 z m 0,0 21.533,37.296 -37.296,21.533 -21.533,-37.296 z m 460.639,358.744 -37.296,21.532 -21.533,-37.296 37.296,-21.533 z M 781.267,604.73 h -43.066 v -43.066 h 43.066 z m -58.829,101.894 h -43.066 v -43.065 h 43.066 z m 37.296,-64.598 -37.296,21.533 -21.533,-37.296 37.296,-21.533 z m -439.106,86.131 v -43.065 h 43.066 v 43.065 z m 64.599,37.296 -21.533,-37.296 37.296,-21.533 21.533,37.297 z M 738.201,487.072 v -43.066 h 43.066 v 43.066 z m -96.125,-166.494 21.533,-37.296 37.296,21.533 -21.533,37.296 z m 58.829,101.895 21.533,-37.296 37.296,21.533 -21.533,37.296 z m -21.533,-37.296 v -43.066 h 43.066 v 43.066 z m -101.895,-101.895 -37.296,-21.533 21.533,-37.296 37.296,21.533 z m -192.25,0 -21.533,-37.296 37.296,-21.533 21.533,37.296 z m 117.658,0 -21.533,-37.296 37.296,-21.533 21.533,37.296 z m -43.066,0 -37.296,-21.533 21.533,-37.296 37.296,21.533 z m -176.487,219.553 -37.296,21.533 -21.533,-37.296 37.296,-21.533 z m -58.829,58.829 21.533,-37.296 37.296,21.533 -21.533,37.296 z m 37.296,64.599 v -43.066 h 43.066 v 43.066 z m 21.533,37.296 21.533,-37.296 37.296,21.533 -21.533,37.296 z m 160.724,43.065 37.296,21.533 -21.533,37.296 -37.296,-21.532 z m 117.658,0 37.296,21.533 -21.533,37.296 -37.296,-21.532 z m 37.296,-21.532 h 43.066 v 43.065 H 599.01 Z m -80.362,21.532 21.533,37.297 -37.296,21.532 -21.533,-37.296 z M 400.99,342.111 l -37.296,-21.533 21.533,-37.296 37.296,21.533 z m -37.296,21.533 h -43.066 v -43.066 h 43.066 z m -21.533,37.296 -37.296,21.533 -21.533,-37.296 37.296,-21.533 z m -37.296,64.599 h -43.066 v -43.066 h 43.066 z m 37.296,96.125 -37.296,21.533 -21.533,-37.296 37.296,-21.533 z m 37.296,64.599 21.533,37.296 -37.296,21.533 -21.533,-37.296 z m 241.086,21.533 37.296,-21.533 21.533,37.296 -37.296,21.533 z m 58.829,-101.895 37.296,-21.533 21.533,37.296 -37.296,21.533 z m 0,-43.066 21.533,-37.296 37.296,21.533 -21.533,37.296 z m -21.533,80.362 h 43.066 v 43.066 h -43.066 z m -213.783,80.362 v 43.065 H 400.99 v -43.065 z m 74.592,0 h 43.066 v 43.065 h -43.066 z m 139.191,-198.02 v -43.066 h 43.066 v 43.066 z M 599.01,363.644 v -43.066 h 43.066 v 43.066 z m -37.296,-21.533 -21.533,-37.296 37.296,-21.533 21.533,37.296 z m 58.829,58.829 21.533,-37.296 37.296,21.533 -21.533,37.296 z m -101.895,-58.829 -37.296,-21.533 21.533,-37.296 37.296,21.533 z m -74.592,0 -21.533,-37.296 37.296,-21.533 21.533,37.296 z m -64.599,80.362 -37.296,-21.533 21.533,-37.296 37.296,21.533 z m -37.296,64.599 -21.533,37.296 -37.296,-21.533 21.533,-37.296 z m 241.086,139.191 37.296,21.533 -21.533,37.296 -37.296,-21.533 z m 37.296,-64.599 21.533,-37.296 37.296,21.533 -21.533,37.296 z m -198.02,21.533 v 43.066 h -43.066 v -43.066 z m 37.296,21.533 21.533,37.296 -37.296,21.533 -21.533,-37.296 z m 160.724,-117.658 37.296,-21.533 21.533,37.296 -37.296,21.533 z m -37.296,-64.599 -21.533,-37.296 37.296,-21.533 21.533,37.296 z m -64.599,-37.296 v -43.066 h 43.066 v 43.066 z m -74.592,0 H 400.99 v -43.066 h 43.066 z m -43.066,117.658 -37.296,21.533 -21.533,-37.296 37.296,-21.533 z m 0,43.066 -21.533,37.296 -37.296,-21.533 21.533,-37.296 z m 101.895,58.829 37.296,21.533 -21.533,37.296 -37.296,-21.533 z m 37.296,-21.533 h 43.066 v 43.066 h -43.066 z m -80.362,-139.191 -37.296,-21.533 21.533,-37.296 37.296,21.533 z m -37.296,21.533 h -43.066 v -43.066 h 43.066 z m 15.763,58.829 21.533,37.296 -37.296,21.533 -21.533,-37.296 z m 123.428,21.533 37.296,-21.533 21.533,37.296 -37.296,21.533 z m 0,-43.066 21.533,-37.296 37.296,21.533 -21.533,37.296 z m -58.829,58.829 v 43.066 h -43.066 v -43.066 z m 37.296,-96.125 v -43.066 h 43.066 v 43.066 z m -37.296,-21.533 -21.533,-37.296 37.296,-21.533 21.533,37.296 z m -43.066,43.066 -21.533,37.296 -37.296,-21.533 21.533,-37.296 z m 64.599,37.296 37.296,21.533 -21.533,37.296 -37.296,-21.533 z m -21.533,-37.296 h -43.066 v -43.066 h 43.066 z m 0,0 37.296,-21.533 21.533,37.296 -37.296,21.533 z m 433.336,417.572 21.532,-37.296 21.533,37.296 z M 42.247,845.815 4.951,824.282 42.247,802.75 Z M 936.221,144.091 h 43.065 l -21.533,37.296 z M 840.096,20.664 V 63.729 L 802.799,42.197 Z m -717.488,0 37.297,21.533 -37.297,21.532 z m -21.532,80.362 21.532,-37.297 21.533,37.297 z M 42.247,202.92 v 43.066 L 4.951,224.453 Z M 63.779,883.111 42.247,845.815 h 43.065 z m 37.297,21.533 21.532,-37.296 21.533,37.296 z m 43.065,43.066 v -43.066 l 37.296,21.533 z m 0,0 37.296,-21.533 v 43.066 z m 813.612,-80.362 -37.296,-21.533 37.296,-21.533 z m -96.125,80.362 -21.532,37.296 -21.533,-37.296 z m 96.125,-123.428 -37.296,21.533 V 802.75 Z m -733.25,101.895 37.296,21.533 -37.296,21.533 z m 733.25,-744.79 v 43.066 L 920.457,202.92 Z m 0,43.066 -37.296,21.533 V 202.92 Z M 861.628,101.026 H 818.563 L 840.096,63.729 Z M 877.392,42.197 840.096,63.729 V 20.664 Z M 63.779,165.624 85.312,202.92 H 42.247 Z m 37.297,-21.533 h 43.065 l -21.533,37.296 z m 43.065,-43.065 37.296,21.532 -37.296,21.533 z m 0,0 37.296,-21.533 v 43.065 z M 920.457,42.197 898.924,79.493 877.392,42.197 Z M 42.247,728.157 4.951,706.624 42.247,685.092 Z m 43.065,117.658 37.296,-21.533 v 43.066 z m 0,0 V 802.75 l 37.296,21.532 z m 58.829,58.829 -21.533,-37.296 h 43.066 z m 37.296,21.533 21.533,-37.296 21.533,37.296 z m 717.487,-43.066 -21.532,-37.296 h 43.065 z m -37.296,21.533 h -43.065 l 21.533,-37.296 z m -43.065,43.066 -37.296,-21.533 37.296,-21.533 z m 0,0 -37.296,21.533 v -43.066 z m -117.658,0 37.296,-21.533 v 43.066 z m -439.106,0 h 43.066 l -21.533,37.296 z m -37.296,-21.533 37.296,-21.533 v 43.066 z m 476.402,21.533 -21.533,37.296 -21.533,-37.296 z m -599.829,0 h 43.065 l -21.533,37.296 z M 957.753,545.901 995.05,524.368 957.753,502.835 Z m -58.829,-380.277 21.533,37.296 h -43.065 z m -37.296,-21.533 -21.532,37.296 -21.533,-37.296 z m -43.065,-43.065 v 43.065 l -37.296,-21.533 z m 0,0 -37.296,21.532 V 79.493 Z M 85.312,42.197 122.608,20.664 v 43.065 z m 556.764,0 H 599.01 L 620.543,4.901 Z M 679.372,20.664 V 63.729 L 642.076,42.197 Z m 0,0 37.296,21.533 -37.296,21.532 z m 58.829,58.829 v 43.065 L 700.905,101.026 Z M 42.247,42.197 H 85.312 L 63.779,79.493 Z m 278.381,0 21.533,-37.296 21.533,37.296 z m -37.296,-21.533 37.296,21.533 -37.296,21.532 z m 0,0 V 63.729 L 246.036,42.197 Z m -58.829,58.829 37.296,21.533 -37.296,21.532 z M 85.312,202.92 122.608,181.387 v 43.066 z m 0,0 37.296,21.533 -37.296,21.533 z m 58.829,-58.829 21.533,37.296 h -43.066 z m 37.296,-21.533 h 43.066 l -21.533,37.297 z m -139.19,198.02 v 43.066 L 4.951,342.111 Z M 920.457,42.197 H 877.392 L 898.924,4.901 Z m -878.21,642.895 21.532,-37.296 21.533,37.296 z m 915.506,-621.363 21.533,37.297 h -43.065 z m 0,-43.065 V 63.729 L 920.457,42.197 Z M 85.312,728.157 v -43.065 l 37.296,21.532 z m 21.533,37.296 37.296,-21.532 v 43.065 z m 15.763,58.829 21.533,-37.296 21.533,37.296 z m 754.784,21.533 -37.296,21.533 v -43.066 z m 0,0 -37.296,-21.533 37.296,-21.532 z m -58.829,58.829 -21.533,-37.296 h 43.066 z m -37.296,21.533 h -43.066 l 21.533,-37.296 z m -80.362,21.533 37.296,-21.533 -37.296,-21.533 z m 256.848,-241.086 -37.296,-21.532 37.296,-21.533 z m 0,0 -37.296,21.533 v -43.065 z m 0,-43.065 -21.532,-37.296 h 43.065 z m 0,-117.658 21.533,37.296 H 936.221 Z M 422.523,947.71 400.99,985.006 379.457,947.71 Z m -160.724,-43.066 21.533,-37.296 21.533,37.296 z m 0,0 -21.533,-37.296 h 43.066 z m 160.724,43.066 37.296,-21.533 v 43.066 z m 117.658,0 -37.296,21.533 v -43.066 z m 0,0 h 43.066 l -21.533,37.296 z M 957.753,342.111 v 43.066 l -37.296,-21.533 z m 0,0 -37.296,21.533 v -43.066 z m 0,43.066 21.533,37.296 h -43.065 z m 0,117.658 -21.532,-37.296 h 43.065 z m 0,43.066 -37.296,-21.533 37.296,-21.533 z M 877.392,202.92 840.096,224.453 v -43.066 z m 0,0 v 43.066 l -37.296,-21.533 z m -58.829,-58.829 21.533,37.296 H 797.03 Z m -37.296,-21.533 -21.533,37.297 -21.533,-37.297 z M 561.714,20.664 599.01,42.197 561.714,63.729 Z m 0,0 V 63.729 L 524.418,42.197 Z M 642.076,42.197 620.543,79.493 599.01,42.197 Z m 37.296,21.532 21.533,37.297 h -43.066 z m 58.829,58.829 -37.296,21.533 V 101.026 Z M 400.99,20.664 V 63.729 L 363.694,42.197 Z m 0,0 37.296,21.533 -37.296,21.532 z m -80.362,21.533 h 43.066 l -21.533,37.296 z m -37.296,21.532 21.533,37.297 h -43.066 z m -58.829,58.829 37.296,-21.532 v 43.065 z M 122.608,224.453 h 43.066 l -21.533,37.296 z m -15.763,58.829 37.296,-21.533 v 43.066 z m -21.533,37.296 37.296,21.533 -37.296,21.533 z M 42.247,363.644 H 85.312 L 63.779,400.94 Z m 0,-321.447 L 63.779,4.901 85.312,42.197 Z M 957.753,20.664 995.05,42.197 957.753,63.729 Z M 42.247,524.368 63.779,487.072 85.312,524.368 Z m 0,0 h 43.065 l -21.533,37.296 z m 43.065,160.724 37.296,-21.533 v 43.065 z m 37.296,21.532 h 43.066 l -21.533,37.297 z m 21.533,80.362 v -43.065 l 37.296,21.532 z m 695.955,37.296 H 797.03 l 21.533,-37.296 z m -139.191,80.362 -21.533,-37.296 h 43.066 z m 0,0 h -43.066 l 21.533,-37.296 z m 154.954,-139.191 -37.296,21.533 v -43.065 z m 21.533,-37.296 -37.296,-21.533 37.296,-21.532 z m 43.065,-43.065 h -43.065 l 21.532,-37.296 z M 422.523,947.71 459.819,926.177 422.523,904.644 Z M 283.332,867.348 v -43.066 l 37.296,21.533 z m 176.487,58.829 21.533,-37.296 21.533,37.296 z m 80.362,21.533 -37.296,-21.533 37.296,-21.533 z M 920.457,363.644 898.924,400.94 877.392,363.644 Z m 0,160.724 h -43.065 l 21.532,-37.296 z m 0,0 -21.533,37.296 -21.532,-37.296 z m -43.065,-203.79 v 43.066 l -37.296,-21.533 z m -21.533,-37.296 -37.296,21.533 V 261.749 Z M 840.096,224.453 818.563,261.749 797.03,224.453 Z M 561.714,63.729 l 21.533,37.297 h -43.066 z m 139.191,80.362 -21.533,37.296 -21.533,-37.296 z m 0,0 21.533,37.296 h -43.066 z m -198.02,-64.598 37.296,21.533 -37.296,21.532 z m -43.066,0 v 43.065 l -37.296,-21.532 z m -58.829,-15.764 21.533,37.297 h -43.066 z m -139.191,80.362 h 43.066 l -21.533,37.296 z m 0,0 21.533,37.296 h -43.066 z m -117.658,117.658 37.296,21.533 -37.296,21.533 z m 0,43.066 21.533,37.296 h -43.066 z m -58.829,58.829 37.296,-21.533 v 43.066 z m 0,160.724 37.296,-21.533 v 43.066 z m 37.296,139.191 21.533,-37.296 21.533,37.296 z m 0,0 -21.532,-37.296 h 43.065 z m -21.532,-80.362 21.532,-37.296 21.533,37.296 z m 80.361,182.256 21.533,-37.296 21.533,37.296 z m 0,0 h 43.066 L 202.97,802.75 Z m 58.829,58.829 21.533,-37.296 21.533,37.296 z m 578.297,-37.296 -37.296,-21.533 37.296,-21.532 z m -139.191,80.362 -37.296,-21.533 37.296,-21.533 z M 818.563,743.921 797.03,706.624 h 43.066 z m 58.829,-58.829 -37.296,21.532 V 663.559 Z M 422.523,904.644 400.99,867.348 h 43.066 z m 0,0 h -43.066 l 21.533,-37.296 z m -80.362,-21.533 -21.533,-37.296 h 43.066 z m -58.829,-58.829 37.296,-21.532 v 43.065 z m 256.849,80.362 -21.533,-37.296 h 43.066 z m 0,0 21.533,-37.296 21.533,37.296 z m 80.362,-21.533 -21.533,-37.296 h 43.066 z m 256.849,-519.467 -37.296,21.533 v -43.066 z m 0,160.724 -37.296,21.533 V 502.835 Z M 840.096,342.111 H 797.03 l 21.533,-37.296 z m -21.533,-80.362 v 43.066 L 781.267,283.282 Z M 540.181,101.026 v 43.065 l -37.296,-21.533 z m 139.191,80.361 v 43.066 L 642.076,202.92 Z m -176.487,-58.829 -21.533,37.297 -21.533,-37.297 z m -80.362,-21.532 37.296,21.532 -37.296,21.533 z m -139.191,80.361 37.296,21.533 -37.296,21.533 z M 181.437,283.282 h 43.066 l -21.533,37.296 z m 0,0 21.533,-37.296 21.533,37.296 z m 58.829,-58.829 h 43.066 l -21.533,37.296 z M 122.608,385.177 h 43.066 l -21.533,37.296 z m 0,0 21.533,37.296 h -43.065 z m -21.532,80.362 h 43.065 l -21.533,37.296 z m 21.532,80.362 v -43.066 l 37.297,21.533 z m 21.533,80.362 v -43.066 l 37.296,21.533 z m 0,-43.066 37.296,-21.533 v 43.066 z m 80.362,182.256 37.296,-21.532 v 43.065 z m 37.296,21.533 v -43.065 l 37.296,21.532 z m 519.468,-21.533 h -43.066 l 21.533,-37.296 z m 0,0 -21.533,37.297 -21.533,-37.297 z m -58.829,58.829 h -43.066 l 21.533,-37.296 z m -80.362,21.533 37.296,-21.533 -37.296,-21.532 z m 176.487,-219.552 21.533,37.296 H 797.03 Z m 0,0 h 43.065 l -21.532,37.296 z m 0,-43.066 21.533,-37.296 21.532,37.296 z M 400.99,824.282 v 43.066 l -37.296,-21.533 z m -37.296,-21.532 37.296,21.532 -37.296,21.533 z m 198.02,21.532 37.296,21.533 -37.296,21.533 z M 599.01,802.75 v 43.065 L 561.714,824.282 Z M 818.563,422.473 797.03,385.177 h 43.066 z m 0,0 21.533,-37.296 21.532,37.296 z m 0,43.066 h 43.065 l -21.532,37.296 z m -15.764,58.829 37.297,-21.533 v 43.066 z M 738.201,283.282 h 43.066 l -21.533,37.296 z m 0,0 21.533,-37.296 21.533,37.296 z m -37.296,-21.533 -21.533,-37.296 h 43.066 z M 561.714,181.387 h -43.066 l 21.533,-37.296 z m 0,0 -21.533,-37.296 h 43.066 z m 37.296,21.533 21.533,-37.296 21.533,37.296 z m 43.066,43.066 37.296,-21.533 -37.296,-21.533 z m -241.086,-64.599 21.533,-37.296 21.533,37.296 z m 0,0 -21.533,-37.296 h 43.066 z m -37.296,21.533 h -43.066 l 21.533,-37.296 z m -43.066,43.066 -37.296,-21.533 37.296,-21.533 z m -58.829,58.829 -37.296,-21.533 37.296,-21.533 z m 37.296,-21.533 -37.296,21.533 v -43.066 z m -117.658,160.724 -37.296,21.533 v -43.066 z m 0,43.066 -37.296,-21.533 37.296,-21.533 z M 224.503,604.73 202.97,642.026 181.437,604.73 Z m 58.829,101.894 -21.533,37.297 -21.533,-37.297 z m -21.533,-80.361 21.533,37.296 h -43.066 z m 439.106,117.658 37.296,21.532 -37.296,21.533 z m 0,0 v 43.065 l -37.296,-21.533 z m 80.362,-139.191 37.296,-21.533 v 43.066 z m 0,0 37.296,-21.533 -37.296,-21.533 z m -358.744,182.256 21.533,37.296 H 400.99 Z m 139.191,37.296 h -43.066 l 21.533,-37.296 z M 481.352,802.75 459.819,765.453 h 43.066 z m 337.211,-337.211 -37.296,-21.533 37.296,-21.533 z m 0,0 -37.296,21.533 v -43.066 z m -117.658,-203.79 37.296,21.533 -37.296,21.533 z m 0,0 v 43.066 L 663.609,283.282 Z M 599.01,202.92 561.714,224.453 v -43.066 z m 0,0 v 43.066 l -37.296,-21.533 z m -235.316,0 37.296,-21.533 v 43.066 z m 0,0 37.296,21.533 -37.296,21.533 z m -101.895,101.895 21.533,37.296 h -43.066 z m -80.362,139.191 21.533,-37.296 21.533,37.296 z m 58.829,-58.829 h 43.066 l -21.533,37.296 z m -15.763,219.553 37.296,-21.533 v 43.066 z m 0,-43.066 37.296,21.533 -37.296,21.533 z m 58.829,144.96 v -43.065 l 37.296,21.533 z m 0,0 37.296,-21.532 v 43.065 z m -21.533,-80.361 h 43.066 l -21.533,37.296 z m 460.639,80.361 -21.533,37.297 -21.533,-37.297 z m 37.296,-64.598 -21.533,-37.296 h 43.066 z m -37.296,21.533 h -43.066 l 21.533,-37.296 z m -299.915,123.427 37.296,-21.533 -37.296,-21.532 z m 0,0 -37.296,-21.533 37.296,-21.532 z m 117.658,-43.065 v 43.065 l -37.296,-21.533 z m 0,0 37.296,21.532 -37.296,21.533 z m -58.829,-15.764 21.533,37.296 h -43.066 z m -80.362,-21.533 -37.296,21.533 v -43.065 z m 337.211,-262.618 21.533,-37.296 21.533,37.296 z m -58.829,-101.895 21.533,-37.296 21.533,37.296 z m 0,43.066 h 43.066 l -21.533,37.296 z M 540.181,261.749 518.648,224.453 h 43.066 z m -117.658,0 -21.533,-37.296 h 43.066 z m 37.296,21.533 21.533,-37.296 21.533,37.296 z m -139.191,80.362 -37.296,21.533 v -43.066 z m 0,0 -37.296,-21.533 37.296,-21.533 z m -58.829,101.895 -37.296,-21.533 37.296,-21.533 z m 0,0 -37.296,21.533 v -43.066 z m 43.066,-43.066 h -43.066 l 21.533,-37.296 z m -21.533,123.428 -37.296,-21.533 37.296,-21.533 z m 21.533,37.296 h -43.066 l 21.533,-37.296 z m 37.296,64.599 21.533,37.296 h -43.066 z m 299.915,37.296 37.296,-21.533 v 43.065 z m 0,0 37.296,21.532 -37.296,21.533 z m 58.829,-101.895 37.296,21.533 -37.296,21.533 z m 0,0 37.296,-21.533 v 43.066 z m -43.066,43.066 h 43.066 l -21.533,37.296 z M 444.056,706.624 422.523,743.921 400.99,706.624 Z M 599.01,685.092 v 43.065 l -37.296,-21.533 z m -80.362,21.532 h 43.066 l -21.533,37.297 z M 400.99,663.559 v 43.065 l -37.296,-21.532 z m 299.915,-198.02 37.296,-21.533 -37.296,-21.533 z m 0,0 37.296,-21.533 v 43.066 z m -58.829,-101.895 37.296,-21.533 v 43.066 z m 0,0 37.296,-21.533 -37.296,-21.533 z m 15.763,58.829 21.533,-37.296 21.533,37.296 z M 540.181,304.815 502.885,283.282 540.181,261.749 Z m 0,0 v -43.066 l 37.296,21.533 z m -117.658,0 v -43.066 l 37.296,21.533 z m 0,0 -37.296,-21.533 37.296,-21.533 z m 58.829,15.763 -21.533,-37.296 h 43.066 z m -117.658,43.066 37.296,-21.533 -37.296,-21.533 z m -21.533,37.296 -21.533,-37.296 h 43.066 z m -37.296,64.599 -21.533,37.296 -21.533,-37.296 z m 15.763,58.829 -37.296,21.533 v -43.066 z m 299.915,123.428 21.533,37.296 H 599.01 Z m 58.829,-144.961 37.296,21.533 -37.296,21.533 z m -21.533,80.362 21.533,-37.296 21.533,37.296 z m -96.125,80.362 37.296,21.533 -37.296,21.532 z m -139.191,-37.296 21.533,37.296 H 400.99 Z m 0,0 -21.533,37.296 -21.533,-37.296 z M 657.839,465.539 h 43.066 l -21.533,37.296 z M 561.714,342.111 599.01,320.578 v 43.066 z m 58.829,58.829 -21.533,-37.296 h 43.066 z m -101.895,-58.829 21.533,-37.296 21.533,37.296 z m -74.592,0 H 400.99 l 21.533,-37.296 z m -43.066,43.066 -37.296,-21.533 37.296,-21.533 z m -37.296,139.191 -21.533,37.296 -21.533,-37.296 z m 0,0 h -43.066 l 21.533,-37.296 z m 278.382,0 37.296,-21.533 v 43.066 z M 540.181,626.263 h 43.066 l -21.533,37.296 z m 0,0 21.533,37.296 H 518.648 Z M 459.819,604.73 422.523,626.263 V 583.197 Z M 561.714,385.177 599.01,363.644 561.714,342.111 Z m -139.191,37.296 h -43.066 l 21.533,-37.296 z m 0,0 -21.533,-37.296 h 43.066 z M 400.99,545.901 363.694,524.368 400.99,502.835 Z m 0,0 21.533,37.296 h -43.066 z m 198.02,-21.533 21.533,-37.296 21.533,37.296 z m 0,0 h 43.066 l -21.533,37.296 z m -96.125,80.362 -21.533,37.296 -21.533,-37.296 z m 37.296,-21.533 v 43.066 L 502.885,604.73 Z m -80.362,-21.533 v 43.066 l -37.296,-21.533 z m 80.362,-139.191 -21.533,-37.296 h 43.066 z m 0,0 21.533,-37.296 21.533,37.296 z m -117.658,43.066 37.296,-21.533 -37.296,-21.533 z m 0,0 -21.533,37.296 -21.533,-37.296 z m 15.763,58.829 -37.296,21.533 v -43.066 z m 123.428,21.533 21.533,37.296 h -43.066 z m 0,-43.066 37.296,21.533 -37.296,21.533 z m -58.829,58.829 37.296,21.533 -37.296,21.533 z m 37.296,-96.125 h 43.066 l -21.533,37.296 z m -37.296,-21.533 37.296,-21.533 v 43.066 z m 0,0 h -43.066 l 21.533,-37.296 z m -43.066,43.066 -37.296,-21.533 37.296,-21.533 z m 64.599,37.296 37.296,-21.533 v 43.066 z m -21.533,-37.296 37.296,-21.533 -37.296,-21.533 z"
     style="opacity:1;fill-opacity:0;stroke:#000000;stroke-width:16;stroke-opacity:1;stop-opacity:1;fill:none;stroke-miterlimit:4;stroke-dasharray:none;stroke-linejoin:round"
     id="path41008" />
</svg>
