<?xml version="1.0" encoding="UTF-8" standalone="no"?>
<svg
   xmlns:dc="http://purl.org/dc/elements/1.1/"
   xmlns:cc="http://creativecommons.org/ns#"
   xmlns:rdf="http://www.w3.org/1999/02/22-rdf-syntax-ns#"
   xmlns:svg="http://www.w3.org/2000/svg"
   xmlns="http://www.w3.org/2000/svg"
   xmlns:sodipodi="http://sodipodi.sourceforge.net/DTD/sodipodi-0.dtd"
   xmlns:inkscape="http://www.inkscape.org/namespaces/inkscape"
   inkscape:version="1.0beta1 (32d4812, 2019-09-19)"
   sodipodi:docname="5-uniform_260.svg"
   id="c:\kuniform\5u\5-uniform_260.svg"
   height="1000.0"
   width="978.98517"
   version="1.0">
  <metadata
     id="metadata146275">
    <rdf:RDF>
      <cc:Work
         rdf:about="">
        <dc:format>image/svg+xml</dc:format>
        <dc:type
           rdf:resource="http://purl.org/dc/dcmitype/StillImage" />
        <dc:title></dc:title>
      </cc:Work>
    </rdf:RDF>
  </metadata>
  <defs
     id="defs146273" />
  <sodipodi:namedview
     inkscape:current-layer="c:\kuniform\5u\5-uniform_260.svg"
     inkscape:window-maximized="1"
     inkscape:window-y="23"
     inkscape:window-x="0"
     inkscape:cy="452.78179"
     inkscape:cx="391.22874"
     inkscape:zoom="0.61028663"
     showgrid="false"
     id="namedview146271"
     inkscape:window-height="1005"
     inkscape:window-width="1680"
     inkscape:pageshadow="2"
     inkscape:pageopacity="0"
     guidetolerance="10"
     gridtolerance="10"
     objecttolerance="10"
     borderopacity="1"
     inkscape:document-rotation="0"
     bordercolor="#666666"
     pagecolor="#ffffff" />
  <!-- X Coordinate transform: fx(x)=(x+68.545654)*0.86095566-->
  <!-- Y Coordinate transform: fy(y)=(1080.75-y)*0.86095566 -->
  <path
     d="m 936.858,69.522 37.281,-21.524 m -74.561,0 V 4.95 m -37.281,21.524 37.281,21.524 37.28,21.524 M 42.127,112.57 4.846,134.094 M 42.127,930.478 4.846,908.954 m 894.732,0 37.28,-21.524 37.281,-21.524 M 79.407,908.954 42.127,887.43 4.846,865.906 m 932.012,-753.336 37.281,21.524 m -894.732,0 -37.28,21.524 -37.281,21.524 m 932.012,753.336 37.281,-21.524 m -111.842,-21.524 37.281,21.524 37.28,21.524 M 825.017,908.954 v 43.048 43.047 m -111.842,-21.523 37.281,-21.524 37.28,-21.524 37.281,-21.524 37.28,-21.524 37.281,-21.524 37.28,-21.524 37.281,-21.524 M 42.127,801.334 4.846,822.858 m 37.281,107.62 37.28,-21.524 37.281,-21.524 m 37.28,21.524 v 43.048 43.047 M 265.81,973.526 228.529,952.002 191.249,930.478 153.968,908.954 116.688,887.43 79.407,865.906 42.127,844.382 4.846,822.858 m 894.732,-688.764 37.28,21.524 37.281,21.524 M 79.407,47.998 V 4.95 m 857.451,796.384 37.281,21.524 M 42.127,241.713 4.846,220.189 M 116.688,155.618 79.407,134.094 42.127,112.57 m 111.841,21.524 V 91.046 47.998 M 42.127,69.522 79.407,47.998 116.688,26.474 M 303.09,47.998 V 4.95 m -186.402,64.572 37.28,-21.524 37.281,-21.524 37.28,21.524 37.281,21.524 m 74.561,-43.048 -37.281,21.524 -37.28,21.524 -37.281,21.524 -37.28,21.524 -37.281,21.524 -37.28,21.524 -37.281,21.524 -37.28,21.524 -37.281,21.523 M 42.127,758.287 4.846,736.763 M 42.127,284.761 4.846,306.285 m 708.329,667.241 37.281,21.523 37.28,-21.523 37.281,-21.524 37.28,-21.524 37.281,-21.524 v -43.048 -43.048 m -37.281,21.524 37.281,-21.524 37.28,-21.524 m -149.122,86.096 37.281,21.524 37.28,21.524 m -223.682,43.048 37.28,21.523 m 74.561,-86.095 v 43.048 43.047 m -37.281,-64.571 37.281,-21.524 37.28,-21.524 M 79.407,822.858 v 43.048 43.048 l 37.281,21.524 37.28,21.524 37.281,21.524 M 116.688,844.382 79.407,822.858 42.127,801.334 m 74.561,129.144 37.28,-21.524 37.281,-21.524 M 42.127,69.522 4.846,47.998 M 303.09,995.049 340.371,973.526 M 228.529,908.954 v 43.048 43.047 m -37.28,-107.619 37.28,21.524 37.281,21.524 m 671.048,-688.765 37.281,-21.524 m -111.842,-64.571 37.281,-21.524 37.28,-21.524 M 825.017,134.094 V 91.046 47.998 m -149.122,0 V 4.95 m 37.28,64.572 37.281,-21.524 37.28,-21.524 37.281,21.524 37.28,21.524 m 74.561,688.765 37.281,-21.524 m -37.281,-452.002 37.281,21.524 M 79.407,220.189 v -43.047 -43.048 l 37.281,-21.524 37.28,-21.524 37.281,-21.524 37.28,-21.524 m -186.402,193.715 37.28,-21.524 37.281,-21.523 m 0,-86.096 37.28,21.524 37.281,21.524 M 377.651,47.998 V 4.95 m -111.841,21.524 37.28,21.524 37.281,21.524 m 0,0 37.28,-21.524 37.281,-21.524 M 228.529,134.094 V 91.046 47.998 L 265.81,26.474 m -74.561,129.144 37.28,-21.524 37.281,-21.524 M 42.127,629.143 4.846,650.667 M 42.127,586.096 4.846,564.572 M 42.127,413.904 4.846,392.381 M 42.127,586.096 V 543.048 500 456.952 m 0,0 -37.281,21.524 m 820.171,344.382 37.28,-21.524 m -745.609,0 37.28,21.524 37.281,21.524 m -149.122,129.144 37.28,21.523 m 671.049,-947.051 37.28,21.524 37.281,21.524 37.28,21.524 37.281,21.524 v 43.048 43.047 m -37.281,-21.523 37.281,21.523 37.28,21.524 m -149.122,-86.095 37.281,-21.524 37.28,-21.524 m 37.281,882.479 37.28,-21.523 M 601.334,47.998 V 4.95 m 37.281,64.572 37.28,-21.524 37.28,-21.524 m -149.121,0 37.28,21.524 37.281,21.524 m 74.56,-43.048 37.281,21.524 v 43.048 43.048 m -37.281,-21.524 37.281,21.524 37.28,21.524 m 111.842,581.145 37.28,-21.524 37.281,-21.524 m -37.281,-64.572 37.281,21.524 m -37.281,-64.571 37.281,-21.524 M 936.858,413.904 974.139,392.381 M 936.858,586.096 V 543.048 500 456.952 m 0,0 37.281,21.524 m -857.451,-236.763 37.28,-21.524 37.281,-21.523 M 42.127,758.287 79.407,736.763 116.688,715.239 M 79.407,736.763 V 693.715 650.667 M 116.688,327.809 79.407,306.285 42.127,284.761 m 37.28,107.62 v -43.048 -43.048 m 0,258.287 v -43.048 -43.048 m 74.561,344.382 v -43.047 -43.048 m 74.561,86.095 -37.28,-21.524 -37.281,-21.523 -37.28,-21.524 L 79.407,736.763 42.127,715.239 4.846,693.715 m 820.171,-473.526 37.28,21.524 M 414.932,69.522 l 37.28,-21.524 37.281,-21.524 37.28,21.524 37.281,21.524 m 298.243,645.717 37.281,21.524 37.28,21.524 m -149.122,86.095 37.281,-21.524 v -43.047 -43.048 m -74.561,86.095 37.28,-21.524 37.281,-21.523 37.28,-21.524 37.281,-21.524 v -43.048 -43.048 m -37.281,-322.858 37.281,-21.524 37.28,-21.524 m -37.28,107.62 v -43.048 -43.048 m 0,258.287 V 521.524 478.476 M 153.968,306.285 v -43.048 -43.048 m 74.561,0 -37.28,21.524 -37.281,21.524 -37.28,21.524 -37.281,21.524 -37.28,21.524 -37.281,21.524 M 116.688,672.191 79.407,650.667 42.127,629.143 m 74.561,-86.095 -37.281,21.524 -37.28,21.524 v 43.047 43.048 43.048 43.048 43.047 43.048 43.048 43.048 43.048 m 0,-559.622 37.28,-21.523 37.281,-21.524 m 0,129.143 -37.281,-21.524 -37.28,-21.524 V 413.904 370.857 327.809 284.761 241.713 198.666 155.618 112.57 69.522 26.474 m 484.646,882.48 v 43.048 43.047 m -74.561,-86.095 v 43.048 43.047 m 260.963,-193.715 37.281,21.524 37.28,21.524 m -111.841,64.572 v -43.048 -43.048 m -111.841,64.572 37.28,21.524 37.281,21.524 37.28,-21.524 37.28,-21.524 m -298.243,86.096 37.28,-21.524 37.281,-21.524 37.28,-21.524 37.281,-21.524 37.28,-21.524 37.281,-21.524 37.28,-21.524 37.28,-21.524 37.281,-21.523 37.28,-21.524 37.281,-21.524 37.28,-21.524 37.281,-21.524 37.28,-21.524 37.281,-21.524 m -857.451,107.62 37.28,-21.524 37.281,-21.524 m 0,129.143 37.28,-21.524 37.281,-21.524 m 37.28,107.62 v -43.048 -43.048 m -37.28,64.572 37.28,21.524 37.281,21.524 37.28,-21.524 37.281,-21.524 m 186.402,107.619 -37.28,-21.523 -37.281,-21.524 -37.28,-21.524 -37.281,-21.524 -37.28,-21.524 -37.281,-21.524 -37.28,-21.524 -37.281,-21.524 -37.28,-21.524 -37.281,-21.523 -37.28,-21.524 -37.281,-21.524 -37.28,-21.524 L 79.407,693.715 42.127,672.191 4.846,650.667 m 782.89,-452.001 37.281,21.523 v 43.048 43.048 m 37.28,365.906 37.281,-21.524 37.28,-21.524 m -149.122,86.096 37.281,21.524 37.28,21.524 m 0,-215.239 37.281,21.524 37.28,21.524 v 43.047 43.048 43.048 43.048 43.047 43.048 43.048 43.048 43.048 m -74.561,-602.669 37.281,21.524 37.28,21.523 M 862.297,500 l 37.281,-21.524 37.28,-21.524 V 413.904 370.857 327.809 284.761 241.713 198.666 155.618 112.57 69.522 26.474 M 452.212,134.094 V 91.046 47.998 m 74.561,86.096 V 91.046 47.998 m -410.085,236.763 37.28,21.524 37.281,21.524 m 0,-129.143 37.28,21.523 37.281,21.524 m 37.28,-21.524 v -43.047 -43.048 m -37.28,21.524 37.28,-21.524 37.281,-21.524 37.28,21.524 37.281,21.524 m -298.244,473.525 37.28,21.524 37.281,21.524 m -37.281,-21.524 v -43.048 -43.047 m 0,-86.096 v -43.048 -43.047 m -37.28,21.523 37.28,-21.523 37.281,-21.524 m 298.244,516.573 37.28,21.524 37.281,21.524 m -149.122,0 37.28,-21.524 37.281,-21.524 m 111.841,21.524 37.281,-21.524 37.28,-21.524 37.28,-21.524 37.281,-21.524 v -43.047 -43.048 m -37.281,21.524 37.281,-21.524 37.28,-21.524 m -149.121,86.095 37.28,21.524 37.28,21.524 m -298.243,129.144 37.28,21.523 37.281,-21.523 37.28,-21.524 37.281,-21.524 37.28,-21.524 v -43.048 -43.048 m -37.28,21.524 37.28,-21.524 37.281,-21.524 M 228.529,736.763 v 43.048 43.047 l 37.281,21.524 37.28,21.524 37.281,21.524 37.28,21.524 m -186.402,-193.715 37.28,21.524 37.281,21.524 m 0,86.095 37.28,-21.524 37.281,-21.524 m 37.28,21.524 v 43.048 43.048 l 37.281,21.524 37.28,21.524 37.281,21.524 m -149.122,-172.192 37.28,21.524 37.281,21.524 m 372.804,-516.573 37.281,-21.524 37.28,-21.524 m -149.122,-43.048 37.281,-21.524 37.28,-21.523 m -111.841,21.523 v -43.047 -43.048 m -111.841,21.524 37.28,-21.524 37.281,-21.524 37.28,21.524 37.28,21.524 m 111.842,495.049 37.28,-21.524 m -74.561,43.048 37.281,-21.524 v -43.048 -43.047 m 0,-86.096 v -43.048 -43.047 m -37.281,-21.524 37.281,21.524 37.28,21.523 M 414.932,112.57 l 37.28,21.524 37.281,21.524 m 0,0 37.28,-21.524 37.281,-21.524 M 228.529,306.285 v -43.048 -43.048 l 37.281,-21.523 37.28,-21.524 37.281,-21.524 37.28,-21.524 m -186.402,193.715 37.28,-21.524 37.281,-21.524 m 0,-86.095 37.28,21.523 37.281,21.524 m 37.28,-21.524 v -43.047 -43.048 l 37.281,-21.524 37.28,-21.524 37.281,-21.524 37.28,-21.524 37.281,-21.524 m -223.683,215.239 37.28,-21.524 37.281,-21.523 m -298.244,387.43 37.28,-21.524 37.281,-21.524 m 0,-43.048 v -43.048 -43.048 -43.047 m -74.561,86.095 37.28,21.524 37.281,21.524 m 484.646,236.763 37.28,-21.524 m -447.365,0 37.28,21.524 m 111.842,64.571 37.28,21.524 37.281,21.524 37.28,-21.524 37.281,-21.524 M 750.456,306.285 v -43.048 -43.048 m -37.281,64.572 37.281,21.524 37.28,21.524 m -149.121,-86.096 37.28,-21.524 37.28,-21.523 m -111.841,21.523 v -43.047 -43.048 m -37.28,64.572 37.28,21.523 37.281,21.524 m 111.841,408.954 37.28,-21.524 37.281,-21.524 37.28,-21.523 37.281,-21.524 37.28,-21.524 37.281,-21.524 m -186.403,21.524 37.281,21.524 37.28,21.524 M 787.736,500 v -43.048 -43.048 -43.047 m 0,129.143 37.281,-21.524 37.28,-21.524 M 265.81,327.809 303.09,306.285 m -111.841,365.906 37.28,-21.524 37.281,-21.524 m -37.281,21.524 v -43.048 -43.047 m 0,-86.096 v -43.048 -43.047 m 37.281,21.523 -37.281,-21.523 -37.28,-21.524 V 327.809 284.761 241.713 198.666 155.618 112.57 69.522 26.474 M 377.651,736.763 340.371,715.239 303.09,693.715 265.81,672.191 228.529,650.667 191.249,629.143 153.968,607.619 116.688,586.096 79.407,564.572 42.127,543.048 4.846,521.524 M 303.09,650.667 v 43.048 43.048 l 37.281,21.524 m 335.524,-452.002 37.28,21.524 m -298.243,-86.096 37.28,-21.524 37.281,-21.523 37.28,21.523 37.281,21.524 m 149.121,387.43 37.281,21.524 37.28,21.524 m -186.402,64.572 37.281,-21.524 37.28,-21.524 37.28,-21.524 37.281,-21.524 v -43.048 -43.047 m 0,-86.096 v -43.048 -43.047 m -37.281,21.523 37.281,-21.523 37.28,-21.524 V 327.809 284.761 241.713 198.666 155.618 112.57 69.522 26.474 m -149.121,731.813 37.28,-21.524 v -43.048 -43.048 m -298.244,-344.382 -37.28,21.524 -37.281,21.524 -37.28,21.524 -37.281,21.524 -37.28,21.523 -37.281,21.524 -37.28,21.524 L 79.407,478.476 42.127,500 4.846,521.524 m 186.403,21.524 37.28,21.524 37.281,21.524 m 0,-129.144 -37.281,21.524 -37.28,21.524 v 43.048 43.048 43.047 43.048 43.048 43.048 43.047 43.048 43.048 43.048 43.048 l 37.28,21.523 37.281,-21.523 m 0,-473.526 v -43.048 -43.048 -43.047 m 37.28,21.524 v -43.048 -43.048 l 37.281,-21.524 m 186.402,538.097 v -43.047 -43.048 m -74.561,86.095 v -43.047 -43.048 m 111.842,-21.524 37.28,21.524 37.281,21.524 m -559.208,236.762 37.281,-21.523 37.28,-21.524 37.281,-21.524 37.28,-21.524 37.281,-21.524 37.28,-21.524 37.281,-21.524 37.28,-21.524 37.281,-21.524 37.28,-21.523 37.281,-21.524 37.28,-21.524 37.281,-21.524 37.28,-21.524 37.281,-21.524 37.28,-21.524 37.28,-21.524 37.281,-21.524 37.28,-21.523 37.281,-21.524 37.28,-21.524 37.281,-21.524 37.28,-21.524 37.281,-21.524 m -633.768,279.811 37.28,-21.524 37.281,-21.524 M 4.846,478.476 42.127,500 l 37.28,21.524 37.281,21.524 37.28,21.524 37.281,21.524 37.28,21.523 37.281,21.524 37.28,21.524 37.281,21.524 37.28,21.524 37.281,21.524 37.28,21.524 37.281,21.524 37.28,21.524 37.281,21.523 37.28,21.524 37.281,21.524 37.28,21.524 37.28,21.524 37.281,21.524 37.28,21.524 37.281,21.524 37.28,21.524 37.281,21.523 M 265.81,672.191 l 37.28,-21.524 37.281,-21.524 m 260.963,-322.858 37.281,21.524 37.28,21.524 37.28,21.524 37.281,21.524 37.28,21.523 37.281,21.524 37.28,21.524 37.281,21.524 37.28,21.524 37.281,21.524 m -260.964,64.572 37.281,-21.524 37.28,-21.524 m -74.561,-86.096 37.281,21.524 37.28,21.524 v 43.048 43.048 43.047 43.048 43.048 43.048 43.047 43.048 43.048 43.048 43.048 M 713.175,500 v -43.048 -43.048 -43.047 m -37.28,21.524 v -43.048 -43.048 l -37.28,-21.524 m 0,344.382 37.28,21.524 37.28,21.524 M 452.212,306.285 v -43.048 -43.048 m 74.561,86.096 v -43.048 -43.048 m -186.402,64.572 37.28,21.524 37.281,21.524 M 4.846,564.572 42.127,543.048 79.407,521.524 116.688,500 l 37.28,-21.524 37.281,-21.524 37.28,-21.524 37.281,-21.524 37.28,-21.523 37.281,-21.524 37.28,-21.524 37.281,-21.524 37.28,-21.524 37.281,-21.524 37.28,-21.524 37.281,-21.524 37.28,-21.524 37.281,-21.523 37.28,-21.524 37.28,-21.524 37.281,-21.524 37.28,-21.524 37.281,-21.524 37.28,-21.524 37.281,-21.524 37.28,-21.524 M 303.09,564.572 V 521.524 478.476 M 340.371,413.904 303.09,392.381 265.81,370.857 V 327.809 284.761 241.713 198.666 155.618 112.57 69.522 26.474 l 37.28,-21.524 37.281,21.524 37.28,21.524 37.281,21.524 37.28,21.524 37.281,21.524 37.28,21.524 37.281,21.524 37.28,21.524 37.281,21.524 37.28,21.523 37.28,21.524 37.281,21.524 37.28,21.524 37.281,21.524 37.28,21.524 37.281,21.524 37.28,21.524 37.281,21.524 m -484.646,322.858 37.28,21.524 37.281,21.524 m -149.122,0 37.28,-21.524 37.281,-21.524 m 111.841,-64.572 v 43.048 43.048 l -37.28,21.524 -37.281,21.524 -37.28,21.523 -37.281,21.524 -37.28,21.524 -37.281,21.524 -37.28,21.524 -37.281,21.524 -37.28,21.524 -37.281,21.524 -37.28,21.524 -37.281,21.523 -37.28,-21.523 V 930.478 887.43 844.382 801.334 758.287 715.239 672.191 629.143 586.096 543.048 500 456.952 413.904 370.857 327.809 284.761 241.713 198.666 155.618 112.57 69.522 26.474 m 447.366,645.717 37.28,-21.524 37.281,-21.524 m -260.964,21.524 v 43.048 43.048 l 37.281,21.524 37.28,21.524 37.281,21.523 37.28,21.524 37.281,21.524 37.28,21.524 37.281,21.524 37.28,21.524 37.28,21.524 37.281,21.524 37.28,21.524 37.281,21.523 37.28,-21.523 V 930.478 887.43 844.382 801.334 758.287 715.239 672.191 629.143 586.096 543.048 500 456.952 413.904 370.857 327.809 284.761 241.713 198.666 155.618 112.57 69.522 26.474 m -521.926,602.669 37.28,21.524 37.281,21.524 M 265.81,543.048 l 37.28,21.524 37.281,21.524 m 223.683,-258.287 37.28,-21.524 37.281,-21.524 M 974.139,564.572 936.858,543.048 899.578,521.524 862.297,500 l -37.28,-21.524 -37.281,-21.524 -37.28,-21.524 -37.281,-21.524 -37.28,-21.523 -37.28,-21.524 -37.281,-21.524 -37.28,-21.524 -37.281,-21.524 -37.28,-21.524 -37.281,-21.524 -37.28,-21.524 -37.281,-21.524 -37.28,-21.523 L 303.09,177.142 265.81,155.618 228.529,134.094 191.249,112.57 153.968,91.046 116.688,69.522 79.407,47.998 42.127,26.474 m 633.768,538.098 v -43.048 -43.048 m -37.28,-64.572 37.28,-21.523 37.28,-21.524 V 327.809 284.761 241.713 198.666 155.618 112.57 69.522 26.474 l -37.28,-21.524 -37.28,21.524 -37.281,21.524 -37.28,21.524 -37.281,21.524 -37.28,21.524 -37.281,21.524 -37.28,21.524 -37.281,21.524 -37.28,21.524 -37.281,21.523 -37.28,21.524 -37.281,21.524 -37.28,21.524 -37.281,21.524 -37.28,21.524 -37.281,21.524 -37.28,21.524 -37.281,21.524 m 633.769,193.715 37.28,-21.524 37.28,-21.524 m -298.243,-258.287 37.28,21.524 37.281,21.524 m 0,0 37.28,-21.524 37.281,-21.524 m -186.403,107.62 v -43.048 -43.048 l 37.281,-21.524 37.28,-21.524 37.281,-21.524 37.28,-21.524 37.281,-21.523 37.28,-21.524 37.281,-21.524 37.28,-21.524 37.28,-21.524 37.281,-21.524 37.28,-21.524 37.281,-21.524 37.28,-21.524 37.281,-21.524 37.28,21.524 37.281,21.524 m -633.768,365.906 37.28,-21.523 37.281,-21.524 M 340.371,586.096 V 543.048 500 456.952 m 0,0 L 303.09,478.476 265.81,500 v 43.048 43.048 43.047 43.048 43.048 43.048 43.047 43.048 43.048 43.048 43.048 l 37.28,21.523 m 111.842,-365.906 37.28,21.524 37.281,21.524 37.28,-21.524 37.281,-21.524 m 37.28,-236.762 v -43.048 -43.048 l -37.28,-21.524 -37.281,-21.524 -37.28,-21.524 -37.281,-21.524 -37.28,-21.523 -37.281,-21.524 -37.28,-21.524 L 303.09,134.094 265.81,112.57 228.529,91.046 191.249,69.522 153.968,47.998 116.688,26.474 79.407,4.95 42.127,26.474 4.846,47.998 m 559.208,322.859 37.28,21.524 37.281,21.523 m 0,172.192 V 543.048 500 456.952 m 0,0 37.28,21.524 37.28,21.524 v 43.048 43.048 43.047 43.048 43.048 43.048 43.047 43.048 43.048 43.048 43.048 l -37.28,21.523 m -74.561,-430.477 37.281,-21.524 37.28,-21.524 37.28,-21.524 37.281,-21.524 37.28,-21.524 37.281,-21.524 37.28,-21.524 37.281,-21.523 37.28,-21.524 37.281,-21.524 M 414.932,413.904 V 370.857 327.809 284.761 241.713 198.666 155.618 112.57 69.522 26.474 M 377.651,564.572 V 521.524 478.476 M 4.846,349.333 l 37.281,21.524 37.28,21.524 37.281,21.523 37.28,21.524 37.281,21.524 37.28,21.524 37.281,21.524 37.28,21.524 37.281,21.524 37.28,21.524 37.281,21.524 37.28,21.523 37.281,21.524 37.28,21.524 M 377.651,995.049 340.371,973.526 V 930.478 887.43 844.382 801.334 758.287 715.239 672.191 629.143 586.096 l 37.28,-21.524 37.281,-21.524 m 111.841,-150.667 37.281,21.523 m -111.842,236.763 37.281,-21.524 37.28,-21.524 37.281,-21.523 37.28,-21.524 v -43.048 -43.048 m -37.28,64.572 37.28,21.524 37.281,21.524 v 43.047 43.048 43.048 43.048 43.047 43.048 43.048 43.048 43.048 l -37.281,21.523 M 4.846,693.715 l 37.281,-21.524 37.28,-21.524 37.281,-21.524 37.28,-21.524 37.281,-21.523 37.28,-21.524 37.281,-21.524 37.28,-21.524 37.281,-21.524 37.28,-21.524 37.281,-21.524 37.28,-21.524 37.281,-21.524 37.28,-21.523 37.281,-21.524 37.28,-21.524 37.281,-21.524 37.28,-21.524 37.28,-21.524 37.281,-21.524 37.28,-21.524 37.281,-21.524 37.28,-21.523 37.281,-21.524 37.28,-21.524 37.281,-21.524 m 0,215.239 -37.281,-21.524 -37.28,-21.524 -37.281,-21.524 -37.28,-21.524 -37.281,-21.524 -37.28,-21.524 -37.281,-21.523 -37.28,-21.524 -37.28,-21.524 L 601.334,134.094 564.054,112.57 526.773,91.046 489.493,69.522 452.212,47.998 414.932,26.474 377.651,4.95 340.371,26.474 v 43.048 43.048 43.048 43.048 43.047 43.048 43.048 43.048 43.047 43.048 l 37.28,21.524 37.281,21.524 m 559.207,408.954 -37.281,-21.524 -37.28,-21.524 -37.281,-21.524 -37.28,-21.524 -37.281,-21.524 -37.28,-21.523 -37.281,-21.524 -37.28,-21.524 -37.28,-21.524 -37.281,-21.524 -37.28,-21.524 -37.281,-21.524 v -43.048 -43.047 m 447.366,-258.287 -37.281,21.524 -37.28,21.524 -37.281,21.524 -37.28,21.524 -37.281,21.523 -37.28,21.524 -37.281,21.524 -37.28,21.524 -37.28,21.524 -37.281,21.524 -37.28,21.524 -37.281,21.524 -37.28,21.524 -37.281,21.523 -37.28,21.524 -37.281,21.524 -37.28,21.524 -37.281,21.524 -37.28,21.524 -37.281,21.524 -37.28,21.524 -37.281,21.524 -37.28,21.523 -37.281,21.524 -37.28,21.524 -37.281,21.524 m 0,43.048 37.281,-21.524 37.28,-21.524 37.281,-21.524 37.28,-21.524 37.281,-21.524 37.28,-21.523 37.281,-21.524 37.28,-21.524 37.281,-21.524 37.28,-21.524 37.281,-21.524 37.28,-21.524 V 607.619 564.572 M 4.846,306.285 l 37.281,21.524 37.28,21.524 37.281,21.524 37.28,21.524 37.281,21.523 37.28,21.524 37.281,21.524 37.28,21.524 37.281,21.524 37.28,21.524 37.281,21.524 37.28,21.524 37.281,21.524 37.28,21.523 37.281,21.524 37.28,21.524 37.281,21.524 37.28,21.524 37.28,21.524 37.281,21.524 37.28,21.524 37.281,21.524 37.28,21.523 37.281,21.524 37.28,21.524 37.281,21.524 m -521.927,-473.525 37.281,21.523 37.28,21.524 37.281,21.524 37.28,21.524 37.281,21.524 37.28,21.524 37.28,21.524 37.281,21.524 37.28,21.524 37.281,21.523 37.28,21.524 37.281,21.524 37.28,21.524 37.281,21.524 M 564.054,500 l 37.28,-21.524 37.281,-21.524 V 413.904 370.857 327.809 284.761 241.713 198.666 155.618 112.57 69.522 26.474 M 452.212,478.476 v -43.048 -43.047 l -37.28,-21.524 -37.281,-21.524 -37.28,-21.524 -37.281,-21.524 -37.28,-21.524 -37.281,-21.524 -37.28,-21.524 -37.281,-21.524 -37.28,-21.523 L 79.407,177.142 42.127,155.618 4.846,134.094 m 0,602.669 37.281,-21.524 37.28,-21.524 37.281,-21.524 37.28,-21.524 37.281,-21.524 37.28,-21.524 37.281,-21.523 37.28,-21.524 37.281,-21.524 37.28,-21.524 37.281,-21.524 37.28,-21.524 37.281,-21.524 37.28,-21.524 37.281,-21.524 37.28,-21.523 37.281,-21.524 37.28,-21.524 37.28,-21.524 37.281,-21.524 37.28,-21.524 37.281,-21.524 37.28,-21.524 37.281,-21.524 37.28,-21.523 37.281,-21.524 m -484.646,365.906 37.28,21.524 37.281,21.524 m -149.122,0 37.28,-21.524 37.281,-21.524 m 37.28,-64.572 37.281,-21.524 m 410.085,279.811 -37.281,-21.524 -37.28,-21.524 -37.281,-21.524 -37.28,-21.524 -37.281,-21.524 -37.28,-21.524 -37.281,-21.523 -37.28,-21.524 -37.28,-21.524 -37.281,-21.524 -37.28,-21.524 -37.281,-21.524 -37.28,-21.524 -37.281,-21.524 -37.28,-21.524 -37.281,-21.523 -37.28,-21.524 -37.281,-21.524 -37.28,-21.524 -37.281,-21.524 -37.28,-21.524 -37.281,-21.524 -37.28,-21.524 L 79.407,220.189 42.127,198.666 4.846,177.142 M 489.493,500 V 456.952 413.904 370.857 327.809 284.761 241.713 198.666 155.618 112.57 69.522 26.474 m -74.561,430.478 37.28,21.524 L 489.493,500 M 377.651,995.049 414.932,973.526 V 930.478 887.43 844.382 801.334 758.287 715.239 672.191 629.143 586.096 543.048 500 456.952 413.904 l 37.28,-21.523 37.281,-21.524 37.28,21.524 v 43.047 43.048 L 489.493,500 v 43.048 43.048 43.047 43.048 43.048 43.048 43.047 43.048 43.048 43.048 43.048 l 37.28,21.523 37.281,-21.523 V 930.478 887.43 844.382 801.334 758.287 715.239 672.191 629.143 586.096 543.048 500 456.952 413.904 370.857 327.809 284.761 241.713 198.666 155.618 112.57 69.522 26.474 l 37.28,-21.524 37.281,21.524 37.28,21.524 37.28,21.524 37.281,21.524 37.28,21.524 37.281,21.524 37.28,21.524 37.281,21.524 37.28,21.524 37.281,21.523 M 42.127,69.522 79.407,47.998 116.688,69.522 V 112.57 L 79.407,134.094 42.127,112.57 Z m 894.731,0 v 43.048 l -37.28,21.524 -37.281,-21.524 V 69.522 l 37.281,-21.524 z m -74.561,817.908 -37.28,21.524 -37.281,-21.524 v -43.048 l 37.281,-21.524 37.28,21.524 z m -149.122,86.096 -37.28,21.523 -37.28,-21.523 v -43.048 l 37.28,-21.524 37.28,21.524 z M 42.127,801.334 v -43.047 l 37.28,-21.524 37.281,21.524 v 43.047 l -37.281,21.524 z m 74.561,86.096 v -43.048 l 37.28,-21.524 37.281,21.524 v 43.048 l -37.281,21.524 z m -74.561,43.048 37.28,-21.524 37.281,21.524 v 43.048 l -37.281,21.523 -37.28,-21.523 z m 223.683,43.048 v -43.048 l 37.28,-21.524 37.281,21.524 v 43.048 l -37.281,21.523 z m 671.048,-43.048 v 43.048 l -37.28,21.523 -37.281,-21.523 v -43.048 l 37.281,-21.524 z m 0,-129.144 -37.28,21.524 -37.281,-21.524 v -43.047 l 37.281,-21.524 37.28,21.524 z M 42.127,241.713 l 37.28,-21.524 37.281,21.524 v 43.048 l -37.281,21.524 -37.28,-21.524 z m 74.561,-86.095 37.28,-21.524 37.281,21.524 v 43.048 l -37.281,21.523 -37.28,-21.523 z M 303.09,47.998 340.371,69.522 V 112.57 L 303.09,134.094 265.81,112.57 V 69.522 Z M 489.493,500 526.773,478.476 564.054,500 v 43.048 l -37.281,21.524 -37.28,-21.524 z m 298.243,387.43 -37.28,21.524 -37.281,-21.524 v -43.048 l 37.281,-21.524 37.28,21.524 z m -149.121,86.096 -37.281,21.523 -37.28,-21.523 v -43.048 l 37.28,-21.524 37.281,21.524 z M 191.249,887.43 v -43.048 l 37.28,-21.524 37.281,21.524 v 43.048 l -37.281,21.524 z m 149.122,86.096 v -43.048 l 37.28,-21.524 37.281,21.524 v 43.048 l -37.281,21.523 z M 936.858,241.713 v 43.048 l -37.28,21.524 -37.281,-21.524 v -43.048 l 37.281,-21.524 z m -74.561,-86.095 v 43.048 l -37.28,21.523 -37.281,-21.523 v -43.048 l 37.281,-21.524 z m -186.402,-107.62 37.28,21.524 v 43.048 l -37.28,21.524 -37.28,-21.524 V 69.522 Z m -484.646,107.62 37.28,-21.524 37.281,21.524 v 43.048 l -37.281,21.523 -37.28,-21.523 z m 186.402,-107.62 37.281,21.524 v 43.048 l -37.281,21.524 -37.28,-21.524 V 69.522 Z M 42.127,629.143 v -43.047 l 37.28,-21.524 37.281,21.524 v 43.047 l -37.281,21.524 z m 0,-215.239 37.28,-21.523 37.281,21.523 v 43.048 L 79.407,478.476 42.127,456.952 Z M 787.736,155.618 v 43.048 l -37.28,21.523 -37.281,-21.523 v -43.048 l 37.281,-21.524 z M 601.334,47.998 638.615,69.522 v 43.048 l -37.281,21.524 -37.28,-21.524 V 69.522 Z m 335.524,581.145 -37.28,21.524 -37.281,-21.524 v -43.047 l 37.281,-21.524 37.28,21.524 z m 0,-215.239 v 43.048 l -37.28,21.524 -37.281,-21.524 v -43.048 l 37.281,-21.523 z m -820.17,301.335 v -43.048 l 37.28,-21.524 37.281,21.524 v 43.048 l -37.281,21.524 z m 0,-387.43 37.28,-21.524 37.281,21.524 v 43.048 l -37.281,21.524 -37.28,-21.524 z m 745.609,387.43 -37.28,21.524 -37.281,-21.524 v -43.048 l 37.281,-21.524 37.28,21.524 z m 0,-387.43 v 43.048 l -37.28,21.524 -37.281,-21.524 v -43.048 l 37.281,-21.524 z M 116.688,543.048 V 500 l 37.28,-21.524 37.281,21.524 v 43.048 l -37.281,21.524 z m 410.085,365.906 -37.28,-21.524 v -43.048 l 37.28,-21.524 37.281,21.524 v 43.048 z m -74.561,0 -37.28,-21.524 v -43.048 l 37.28,-21.524 37.281,21.524 v 43.048 z m 260.963,-107.62 -37.28,21.524 -37.28,-21.524 v -43.047 l 37.28,-21.524 37.28,21.524 z M 340.371,758.287 v 43.047 l -37.281,21.524 -37.28,-21.524 v -43.047 l 37.28,-21.524 z M 265.81,672.191 v 43.048 l -37.281,21.524 -37.28,-21.524 v -43.048 l 37.28,-21.524 z M 787.736,500 825.017,478.476 862.297,500 v 43.048 l -37.28,21.524 -37.281,-21.524 z m -74.561,172.191 37.281,-21.524 37.28,21.524 v 43.048 l -37.28,21.524 -37.281,-21.524 z M 452.212,220.189 414.932,198.666 v -43.048 l 37.28,-21.524 37.281,21.524 v 43.048 z m 74.561,0 -37.28,-21.523 v -43.048 l 37.28,-21.524 37.281,21.524 v 43.048 z M 303.09,306.285 265.81,284.761 v -43.048 l 37.28,-21.524 37.281,21.524 v 43.048 z m -37.28,21.524 v 43.048 l -37.281,21.524 -37.28,-21.524 v -43.048 l 37.28,-21.524 z m 372.805,473.525 -37.281,21.524 -37.28,-21.524 v -43.047 l 37.28,-21.524 37.281,21.524 z m -223.683,0 -37.281,21.524 -37.28,-21.524 v -43.047 l 37.28,-21.524 37.281,21.524 z m 223.683,-559.621 37.28,-21.524 37.28,21.524 v 43.048 l -37.28,21.524 -37.28,-21.524 z m 111.841,150.668 -37.281,-21.524 v -43.048 l 37.281,-21.524 37.28,21.524 v 43.048 z M 340.371,284.761 v -43.048 l 37.28,-21.524 37.281,21.524 v 43.048 l -37.281,21.524 z M 228.529,564.572 191.249,543.048 V 500 L 228.529,478.476 265.81,500 v 43.048 z m 372.805,-344.383 37.281,21.524 v 43.048 l -37.281,21.524 -37.28,-21.524 V 241.713 Z M 787.736,500 v 43.048 l -37.28,21.524 -37.281,-21.524 V 500 l 37.281,-21.524 z M 265.81,629.143 v -43.047 l 37.28,-21.524 37.281,21.524 v 43.047 l -37.281,21.524 z m 372.805,-43.047 37.28,-21.524 37.28,21.524 v 43.047 l -37.28,21.524 -37.28,-21.524 z M 340.371,456.952 303.09,478.476 265.81,456.952 v -43.048 l 37.28,-21.523 37.281,21.523 z m 186.402,193.715 37.281,21.524 v 43.048 l -37.281,21.524 -37.28,-21.524 v -43.048 z m -74.561,0 37.281,21.524 v 43.048 l -37.281,21.524 -37.28,-21.524 V 672.191 Z M 638.615,456.952 v -43.048 l 37.28,-21.523 37.28,21.523 v 43.048 l -37.28,21.524 z m -186.403,-64.571 -37.28,-21.524 v -43.048 l 37.28,-21.524 37.281,21.524 v 43.048 z m 111.842,193.715 37.28,-21.524 37.281,21.524 v 43.047 l -37.281,21.524 -37.28,-21.524 z m -149.122,0 v 43.047 l -37.281,21.524 -37.28,-21.524 v -43.047 l 37.28,-21.524 z m 111.841,-193.715 -37.28,-21.524 v -43.048 l 37.28,-21.524 37.281,21.524 v 43.048 z m -111.841,64.571 -37.281,21.524 -37.28,-21.524 v -43.048 l 37.28,-21.523 37.281,21.523 z m 149.122,0 v -43.048 l 37.28,-21.523 37.281,21.523 v 43.048 l -37.281,21.524 z M 489.493,500 v 43.048 l -37.281,21.524 -37.28,-21.524 V 500 l 37.28,-21.524 z M 899.578,4.95 V 47.998 L 862.297,26.474 Z m 37.28,21.524 v 43.048 l -37.28,-21.524 z m -820.17,0 37.28,21.524 -37.28,21.524 z m 820.17,904.004 -37.28,-21.524 37.28,-21.524 z m -111.841,64.571 -37.281,-21.523 37.281,-21.524 z m 37.28,-21.523 -37.28,-21.524 37.28,-21.524 z M 42.127,930.478 4.846,908.954 42.127,887.43 Z m 0,0 V 887.43 l 37.28,21.524 z m 782.89,64.571 37.28,-21.523 -37.28,-21.524 z m -671.049,0 37.281,-21.523 -37.281,-21.524 z m 0,0 -37.28,-21.523 37.28,-21.524 z m -37.28,-21.523 v -43.048 l 37.28,21.524 z M 862.297,26.474 v 43.048 l -37.28,-21.524 z m 0,0 37.281,21.524 -37.281,21.524 z M 42.127,112.57 v 43.048 L 4.846,134.094 Z m 0,0 37.28,21.524 -37.28,21.524 z M 936.858,930.478 974.139,908.954 936.858,887.43 Z M 191.249,26.474 l 37.28,21.524 -37.28,21.524 z m 0,0 V 69.522 L 153.968,47.998 Z m -37.281,21.524 37.281,21.524 -37.281,21.524 z m -37.28,21.524 37.28,21.524 -37.28,21.524 z m 37.28,-21.524 v 43.048 l -37.28,-21.524 z m 782.89,839.432 37.281,-21.524 -37.281,-21.524 z m 0,0 -37.28,21.524 v -43.048 z m 0,0 -37.28,-21.524 37.28,-21.524 z m -37.28,21.524 -37.281,-21.524 37.281,-21.524 z m 0,0 -37.281,21.524 V 887.43 Z m -37.281,21.524 -37.28,21.524 v -43.048 z m 0,0 -37.28,-21.524 37.28,-21.524 z m -111.841,64.571 -37.281,-21.523 37.281,-21.524 z m 0,0 37.28,-21.523 -37.28,-21.524 z m 37.28,-21.523 37.281,-21.524 -37.281,-21.524 z m 37.281,-21.524 -37.281,-21.524 37.281,-21.524 z m -37.281,21.524 -37.28,-21.524 37.28,-21.524 z M 42.127,887.43 4.846,865.906 42.127,844.382 Z m 0,-43.048 -37.281,-21.524 37.281,-21.524 z m 0,43.048 37.28,-21.524 v 43.048 z m 0,0 v -43.048 l 37.28,21.524 z m 37.28,21.524 v -43.048 l 37.281,21.524 z m 0,0 37.281,-21.524 v 43.048 z m 37.281,21.524 37.28,-21.524 v 43.048 z m 0,0 V 887.43 l 37.28,21.524 z m 111.841,64.571 37.281,-21.523 -37.281,-21.524 z m 0,0 -37.28,-21.523 37.28,-21.524 z m -37.28,-21.523 -37.281,-21.524 37.281,-21.524 z m -37.281,-21.524 v -43.048 l 37.281,21.524 z m 37.281,21.524 37.28,-21.524 -37.28,-21.524 z m 745.609,-860.956 37.281,21.524 -37.281,21.524 z m 0,0 v 43.048 l -37.28,-21.524 z M 787.736,26.474 v 43.048 l -37.28,-21.524 z m 0,0 37.281,21.524 -37.281,21.524 z m 37.281,21.524 V 91.046 L 787.736,69.522 Z m 0,0 37.28,21.524 -37.28,21.524 z m 37.28,21.524 v 43.048 l -37.28,-21.524 z m 74.561,774.86 37.281,-21.524 -37.281,-21.524 z M 42.127,155.618 v 43.048 L 4.846,177.142 Z m 0,43.048 v 43.047 L 4.846,220.189 Z m 0,-43.048 37.28,-21.524 v 43.048 z m 0,0 37.28,21.524 -37.28,21.524 z m 37.28,-21.524 37.281,21.524 -37.281,21.524 z m 0,0 37.281,-21.524 v 43.048 z m 37.281,-21.524 37.28,-21.524 v 43.048 z m 0,0 37.28,21.524 -37.28,21.524 z m 0,-86.096 V 69.522 L 79.407,47.998 Z M 303.09,4.95 V 47.998 L 265.81,26.474 Z m 0,0 37.281,21.524 -37.281,21.524 z M 265.81,26.474 V 69.522 L 228.529,47.998 Z m 0,0 37.28,21.524 -37.28,21.524 z m -37.281,21.524 37.281,21.524 -37.281,21.524 z m 0,0 v 43.048 l -37.28,-21.524 z m -37.28,21.524 V 112.57 L 153.968,91.046 Z m -37.281,21.524 37.281,21.524 -37.281,21.524 z m 37.281,-21.524 37.28,21.524 -37.28,21.524 z m 745.609,774.86 -37.28,21.524 v -43.048 z m 0,0 -37.28,-21.524 37.28,-21.524 z m -37.28,21.524 -37.281,-21.524 37.281,-21.524 z m 0,0 -37.281,21.524 v -43.048 z m -74.561,43.048 -37.281,21.524 V 887.43 Z M 79.407,4.95 116.688,26.474 79.407,47.998 Z m 633.768,968.576 37.281,-21.524 -37.281,-21.524 z m 37.281,-21.524 -37.281,-21.524 37.281,-21.524 z m 0,0 37.28,-21.524 -37.28,-21.524 z m 37.28,-21.524 -37.28,-21.524 37.28,-21.524 z M 42.127,844.382 79.407,822.858 v 43.048 z m 0,0 v -43.048 l 37.28,21.524 z m 37.28,21.524 v -43.048 l 37.281,21.524 z m 0,0 37.281,-21.524 v 43.048 z m 74.561,43.048 37.281,-21.524 v 43.048 z m 111.842,64.572 -37.281,-21.524 37.281,-21.524 z m -37.281,-21.524 37.281,-21.524 -37.281,-21.524 z m 0,0 -37.28,-21.524 37.28,-21.524 z m -37.28,-21.524 V 887.43 l 37.28,21.524 z m 745.609,-774.86 37.281,21.524 -37.281,21.524 z m 0,43.048 37.281,21.523 -37.281,21.524 z m 0,-43.048 -37.28,21.524 v -43.048 z m 0,0 v 43.048 l -37.28,-21.524 z m -37.28,-21.524 v 43.048 l -37.281,-21.524 z m 0,0 -37.281,21.524 V 112.57 Z m -37.281,-21.524 -37.28,21.524 V 91.046 Z m 0,0 v 43.048 l -37.28,-21.524 z M 42.127,26.474 79.407,47.998 42.127,69.522 Z M 675.895,4.95 l 37.28,21.524 -37.28,21.524 z m 0,0 v 43.048 l -37.28,-21.524 z m 37.28,21.524 37.281,21.524 -37.281,21.524 z m 0,0 v 43.048 l -37.28,-21.524 z m 37.281,21.524 V 91.046 L 713.175,69.522 Z m 0,0 37.28,21.524 -37.28,21.524 z m 37.28,21.524 37.281,21.524 -37.281,21.524 z m 37.281,21.524 v 43.048 L 787.736,112.57 Z M 787.736,69.522 V 112.57 L 750.456,91.046 Z M 42.127,198.666 79.407,177.142 v 43.047 z m 0,0 37.28,21.523 -37.28,21.524 z m 37.28,-21.524 37.281,21.524 -37.281,21.523 z m 0,0 37.281,-21.524 v 43.048 z m 74.561,-43.048 37.281,-21.524 v 43.048 z M 899.578,4.95 l 37.28,21.524 -37.28,21.524 z m -521.927,0 37.281,21.524 -37.281,21.524 z m 0,0 v 43.048 l -37.28,-21.524 z m -37.28,21.524 V 69.522 L 303.09,47.998 Z m 0,0 37.28,21.524 -37.28,21.524 z M 265.81,69.522 V 112.57 L 228.529,91.046 Z m -37.281,21.524 37.281,21.524 -37.281,21.524 z m 0,0 v 43.048 l -37.28,-21.524 z m -37.28,21.524 37.28,21.524 -37.28,21.524 z M 42.127,758.287 4.846,736.763 42.127,715.239 Z m 0,0 v -43.048 l 37.28,21.524 z m 0,-43.048 -37.281,-21.524 37.281,-21.524 z m 0,-43.048 -37.281,-21.524 37.281,-21.524 z m 0,-387.43 v 43.048 L 4.846,306.285 Z m 0,0 37.28,21.524 -37.28,21.524 z m 0,43.048 v 43.048 L 4.846,349.333 Z m 0,43.048 v 43.047 L 4.846,392.381 Z m 0,215.239 -37.281,-21.524 37.281,-21.524 z m 0,-43.048 L 4.846,521.524 42.127,500 Z M 42.127,500 4.846,478.476 42.127,456.952 Z m 857.451,322.858 -37.281,21.524 v -43.048 z m -37.281,21.524 -37.28,-21.524 37.28,-21.524 z m 74.561,-817.908 37.281,21.524 -37.281,21.524 z m -223.683,904.004 -37.28,-21.524 37.28,-21.524 z m 0,0 37.281,-21.524 -37.281,-21.524 z M 79.407,822.858 116.688,801.334 v 43.048 z m 37.281,21.524 v -43.048 l 37.28,21.524 z m 149.122,86.096 37.28,-21.524 -37.28,-21.524 z m 0,0 -37.281,-21.524 37.281,-21.524 z m 671.048,-731.812 -37.28,21.523 v -43.047 z m 0,0 v 43.047 l -37.28,-21.524 z m -37.28,-21.524 v 43.047 l -37.281,-21.523 z m 0,0 -37.281,21.524 v -43.048 z m -74.561,-43.048 -37.281,21.524 V 112.57 Z M 601.334,4.95 v 43.048 l -37.28,-21.524 z m 0,0 37.281,21.524 -37.281,21.524 z m 37.281,21.524 37.28,21.524 -37.28,21.524 z m 0,0 V 69.522 L 601.334,47.998 Z m 74.56,43.048 37.281,21.524 -37.281,21.524 z m 37.281,21.524 v 43.048 L 713.175,112.57 Z m 0,0 37.28,21.524 -37.28,21.524 z m 37.28,21.524 v 43.048 l -37.28,-21.524 z m 149.122,645.717 37.281,-21.524 -37.281,-21.524 z m 0,0 -37.28,-21.524 37.28,-21.524 z m 0,-43.048 37.281,-21.524 -37.281,-21.524 z m 0,-43.048 37.281,-21.524 -37.281,-21.524 z m 0,-387.43 37.281,21.524 -37.281,21.524 z m 0,0 v 43.048 l -37.28,-21.524 z m 0,43.048 37.281,21.524 -37.281,21.524 z m 0,43.048 37.281,21.524 -37.281,21.523 z m 0,215.239 37.281,-21.524 -37.281,-21.524 z m 0,-43.048 37.281,-21.524 L 936.858,500 Z m 0,-43.048 37.281,-21.524 -37.281,-21.524 z M 79.407,4.95 V 47.998 L 42.127,26.474 Z m 0,215.239 37.281,-21.523 v 43.047 z m 37.281,-21.523 37.28,21.523 -37.28,21.524 z m 298.244,-172.192 37.28,21.524 -37.28,21.524 z m 0,0 V 69.522 L 377.651,47.998 Z m -149.122,86.096 37.28,21.524 -37.28,21.524 z m 0,0 v 43.048 L 228.529,134.094 Z M 42.127,715.239 79.407,693.715 v 43.048 z m 0,0 v -43.048 l 37.28,21.524 z m 37.28,21.524 v -43.048 l 37.281,21.524 z m 0,0 37.281,-21.524 v 43.048 z m -37.28,-64.572 37.28,-21.524 v 43.048 z m 0,0 v -43.048 l 37.28,21.524 z m 0,-86.095 v -43.048 l 37.28,21.524 z m 0,-258.287 37.28,-21.524 v 43.048 z m 0,0 37.28,21.524 -37.28,21.524 z m 37.28,-21.524 37.281,21.524 -37.281,21.524 z m 0,0 37.281,-21.524 v 43.048 z m -37.28,64.572 37.28,-21.524 v 43.048 z m 0,0 37.28,21.524 -37.28,21.523 z m 0,172.191 37.28,-21.524 v 43.048 z m 0,0 V 500 l 37.28,21.524 z m 0,-43.048 37.28,-21.524 v 43.048 z m 0,0 v -43.048 l 37.28,21.524 z m 0,-473.526 V 69.522 L 4.846,47.998 Z m 484.646,968.575 37.281,-21.523 -37.281,-21.524 z m 0,0 -37.28,-21.523 37.28,-21.524 z m -74.561,0 -37.28,-21.523 37.28,-21.524 z m 0,0 37.281,-21.523 -37.281,-21.524 z m 410.085,-193.715 -37.28,-21.523 37.28,-21.524 z m 0,0 -37.28,21.524 v -43.047 z m -37.28,21.524 -37.281,21.524 v -43.048 z m 0,0 -37.281,-21.524 37.281,-21.523 z m -37.281,21.524 -37.28,-21.524 37.28,-21.524 z m -223.682,129.144 -37.281,-21.524 37.281,-21.524 z m 74.561,-43.048 -37.281,-21.524 37.281,-21.524 z m 0,0 37.28,-21.524 -37.28,-21.524 z m 37.28,-21.524 -37.28,-21.524 37.28,-21.524 z m 37.28,-21.524 -37.28,-21.524 37.28,-21.524 z m -37.28,21.524 37.28,-21.524 -37.28,-21.524 z m -559.207,-107.62 37.28,-21.523 v 43.047 z m 0,0 v -43.047 l 37.28,21.524 z m 0,-43.047 37.28,-21.524 v 43.048 z m 0,0 v -43.048 l 37.28,21.524 z m 37.28,64.571 37.281,-21.524 v 43.048 z m 0,0 v -43.047 l 37.281,21.523 z m 37.281,21.524 v -43.048 l 37.28,21.524 z m 223.683,129.144 37.28,-21.524 -37.28,-21.524 z m -74.561,-43.048 37.28,-21.524 -37.28,-21.524 z m 0,0 -37.281,-21.524 37.281,-21.524 z M 303.09,908.954 340.371,887.43 303.09,865.906 Z m 0,0 -37.28,-21.524 37.28,-21.524 z M 265.81,887.43 v -43.048 l 37.28,21.524 z m 633.768,-667.241 -37.281,21.524 v -43.047 z m -37.281,-21.523 v 43.047 l -37.28,-21.524 z M 564.054,26.474 V 69.522 L 526.773,47.998 Z m 0,0 37.28,21.524 -37.28,21.524 z m 149.121,86.096 v 43.048 l -37.28,-21.524 z m 0,0 37.281,21.524 -37.281,21.524 z m 223.683,602.669 -37.28,21.524 v -43.048 z m 0,0 -37.28,-21.524 37.28,-21.524 z m -37.28,21.524 -37.281,-21.524 37.281,-21.524 z m 0,0 -37.281,21.524 v -43.048 z m -37.281,21.524 -37.28,21.524 v -43.048 z m 0,0 -37.28,-21.524 37.28,-21.524 z m 74.561,-86.096 -37.28,21.524 v -43.048 z m 0,0 -37.28,-21.524 37.28,-21.524 z m 0,-86.095 -37.28,-21.524 37.28,-21.524 z m 0,-258.287 -37.28,21.524 v -43.048 z m 0,0 v 43.048 l -37.28,-21.524 z m -37.28,-21.524 v 43.048 l -37.281,-21.524 z m 0,0 -37.281,21.524 v -43.048 z m 37.28,64.572 -37.28,21.524 v -43.048 z m 0,0 v 43.047 l -37.28,-21.523 z m 0,172.191 -37.28,21.524 v -43.048 z m 0,0 -37.28,-21.524 37.28,-21.524 z m 0,-43.048 -37.28,21.524 v -43.048 z m 0,0 -37.28,-21.524 37.28,-21.524 z M 489.493,26.474 l 37.28,21.524 -37.28,21.524 z m 0,0 V 69.522 L 452.212,47.998 Z m -37.281,21.524 v 43.048 l -37.28,-21.524 z m 0,0 37.281,21.524 -37.281,21.524 z m 74.561,0 37.281,21.524 -37.281,21.524 z m 0,0 v 43.048 l -37.28,-21.524 z m -410.085,193.715 37.28,21.524 -37.28,21.524 z m 0,0 37.28,-21.524 v 43.048 z m 0,43.048 37.28,-21.524 v 43.048 z m 0,0 37.28,21.524 -37.28,21.524 z m 37.28,-64.572 37.281,-21.523 v 43.047 z m 0,0 37.281,21.524 -37.281,21.524 z m 37.281,-21.523 37.28,21.523 -37.28,21.524 z m 223.683,-129.144 37.28,21.524 -37.28,21.524 z m -74.561,43.048 37.28,21.524 -37.28,21.524 z m 0,0 v 43.048 L 303.09,134.094 Z m -37.281,21.524 37.281,21.524 -37.281,21.524 z m -37.28,21.524 37.28,21.524 -37.28,21.524 z m 37.28,-21.524 v 43.048 L 265.81,155.618 Z M 79.407,693.715 v -43.048 l 37.281,21.524 z m 0,0 37.281,-21.524 v 43.048 z m 0,-43.048 37.281,-21.524 v 43.048 z m 0,-86.095 v -43.048 l 37.281,21.524 z m 0,0 37.281,-21.524 v 43.048 z m 0,-215.239 37.281,21.524 -37.281,21.524 z m 0,0 37.281,-21.524 v 43.048 z m 0,43.048 37.281,-21.524 v 43.047 z m 0,129.143 V 478.476 L 116.688,500 Z m 0,-43.048 37.281,-21.524 V 500 Z m 0,43.048 L 116.688,500 v 43.048 z m 410.086,452.002 37.28,-21.524 -37.28,-21.524 z m 0,0 -37.281,-21.524 37.281,-21.524 z m 37.28,-21.524 37.281,-21.524 -37.281,-21.524 z m 0,0 -37.28,-21.524 37.28,-21.524 z m -74.561,0 -37.28,-21.524 37.28,-21.524 z m 0,0 37.281,-21.524 -37.281,-21.524 z m 372.805,-172.191 -37.281,21.523 v -43.047 z m 0,0 -37.281,-21.524 37.281,-21.524 z m -37.281,21.523 -37.28,21.524 v -43.047 z m 0,0 -37.28,-21.523 37.28,-21.524 z m -37.28,21.524 -37.281,-21.524 37.281,-21.523 z m 0,0 -37.281,21.524 v -43.048 z m -37.281,21.524 -37.28,21.524 v -43.048 z m 0,0 -37.28,-21.524 37.28,-21.524 z m -149.121,86.096 37.28,-21.524 -37.28,-21.524 z m 0,0 -37.281,-21.524 37.281,-21.524 z m 37.28,-21.524 -37.28,-21.524 37.28,-21.524 z m 0,0 37.281,-21.524 -37.281,-21.524 z m 37.281,-21.524 37.28,-21.524 -37.28,-21.524 z m 37.28,-21.524 -37.28,-21.524 37.28,-21.524 z m -37.28,21.524 -37.281,-21.524 37.281,-21.524 z M 153.968,779.811 191.249,758.287 v 43.047 z m 0,0 v -43.048 l 37.281,21.524 z m 0,-43.048 37.281,-21.524 v 43.048 z m 37.281,64.571 37.28,-21.523 v 43.047 z m 0,0 v -43.047 l 37.28,21.524 z m 37.28,21.524 v -43.047 l 37.281,21.523 z m 0,0 37.281,-21.524 v 43.048 z m 37.281,21.524 37.28,-21.524 v 43.048 z m 0,0 v -43.048 l 37.28,21.524 z m 149.122,86.096 -37.281,-21.524 37.281,-21.524 z m 0,0 37.28,-21.524 -37.28,-21.524 z m -37.281,-21.524 37.281,-21.524 -37.281,-21.524 z m 0,0 -37.28,-21.524 37.28,-21.524 z M 340.371,887.43 303.09,865.906 340.371,844.382 Z M 303.09,865.906 v -43.048 l 37.281,21.524 z m 37.281,21.524 37.28,-21.524 -37.28,-21.524 z m 521.926,-645.717 -37.28,21.524 v -43.048 z m 0,0 v 43.048 l -37.28,-21.524 z m 0,43.048 -37.28,21.524 v -43.048 z m 0,0 v 43.048 l -37.28,-21.524 z m -37.28,-64.572 -37.281,21.524 v -43.047 z m 0,0 v 43.048 l -37.281,-21.524 z m -37.281,-21.523 v 43.047 l -37.28,-21.524 z M 564.054,69.522 V 112.57 L 526.773,91.046 Z m 74.561,43.048 v 43.048 l -37.281,-21.524 z m 0,0 37.28,21.524 -37.28,21.524 z m 37.28,21.524 v 43.048 l -37.28,-21.524 z m 0,0 37.28,21.524 -37.28,21.524 z m 37.28,21.524 v 43.048 l -37.28,-21.524 z m 186.403,538.097 -37.281,-21.524 37.281,-21.524 z m 0,0 -37.281,21.524 v -43.048 z m -74.561,43.048 -37.281,21.524 v -43.048 z m 74.561,-86.096 -37.281,21.524 v -43.048 z m 0,-86.095 -37.281,-21.524 37.281,-21.524 z m 0,0 -37.281,21.524 v -43.048 z m 0,-215.239 v 43.048 l -37.281,-21.524 z m 0,0 -37.281,21.524 v -43.048 z m 0,43.048 -37.281,21.523 v -43.047 z m 0,129.143 L 862.297,500 899.578,478.476 Z m 0,-43.048 L 862.297,500 v -43.048 z m 0,43.048 -37.281,21.524 V 500 Z M 489.493,69.522 V 112.57 L 452.212,91.046 Z m 0,0 37.28,21.524 -37.28,21.524 z m -37.281,21.524 v 43.048 l -37.28,-21.524 z m 0,0 37.281,21.524 -37.281,21.524 z m 74.561,0 37.281,21.524 -37.281,21.524 z m 0,0 v 43.048 l -37.28,-21.524 z m -372.805,172.191 37.281,-21.524 v 43.048 z m 0,0 37.281,21.524 -37.281,21.524 z m 0,43.048 37.281,-21.524 v 43.048 z m 37.281,-64.572 37.28,-21.524 v 43.048 z m 0,0 37.28,21.524 -37.28,21.524 z m 37.28,-21.524 37.281,21.524 -37.281,21.524 z m 0,0 37.281,-21.523 v 43.047 z m 37.281,-21.523 37.28,-21.524 v 43.047 z m 0,0 37.28,21.523 -37.28,21.524 z M 414.932,112.57 v 43.048 l -37.281,-21.524 z m 0,0 37.28,21.524 -37.28,21.524 z m -37.281,21.524 37.281,21.524 -37.281,21.524 z m 0,0 v 43.048 l -37.28,-21.524 z m -37.28,21.524 v 43.048 L 303.09,177.142 Z m -37.281,21.524 37.281,21.524 -37.281,21.523 z m 37.281,-21.524 37.28,21.524 -37.28,21.524 z M 116.688,672.191 v -43.048 l 37.28,21.524 z m 0,-43.048 37.28,-21.524 v 43.048 z m 0,0 v -43.047 l 37.28,21.523 z m 0,-43.047 37.28,-21.524 v 43.047 z m 0,0 v -43.048 l 37.28,21.524 z m 0,-215.239 37.28,21.524 -37.28,21.523 z m 0,43.047 37.28,21.524 -37.28,21.524 z m 0,0 37.28,-21.523 v 43.047 z m 0,43.048 37.28,-21.524 v 43.048 z m 0,0 37.28,21.524 -37.28,21.524 z m 372.805,473.526 37.28,-21.524 -37.28,-21.524 z m 0,0 -37.281,-21.524 37.281,-21.524 z m 298.243,-172.191 -37.28,21.524 v -43.048 z m 0,0 -37.28,-21.524 37.28,-21.524 z m -37.28,21.524 -37.281,-21.524 37.281,-21.524 z m 0,0 -37.281,21.523 v -43.047 z m -74.561,43.047 -37.28,21.524 v -43.048 z m -111.841,64.572 37.28,-21.524 -37.28,-21.524 z m 37.28,-21.524 -37.28,-21.524 37.28,-21.524 z m 0,0 37.281,-21.524 -37.281,-21.524 z m 37.281,-21.524 -37.281,-21.524 37.281,-21.524 z m -447.366,-86.095 37.28,-21.524 v 43.048 z m 0,0 v -43.048 l 37.28,21.524 z m 37.28,21.524 v -43.048 l 37.281,21.524 z m 0,0 37.281,-21.524 v 43.047 z m 74.561,43.047 37.281,-21.524 v 43.048 z m 111.842,64.572 -37.281,-21.524 37.281,-21.524 z m -37.281,-21.524 37.281,-21.524 -37.281,-21.524 z m 0,0 -37.28,-21.524 37.28,-21.524 z m -37.28,-21.524 v -43.048 l 37.28,21.524 z m 484.646,-581.145 -37.281,21.524 v -43.048 z m 0,0 v 43.048 l -37.281,-21.524 z m 0,43.048 -37.281,21.524 v -43.048 z m -37.281,-64.572 -37.28,21.524 v -43.048 z m 0,0 v 43.048 l -37.28,-21.524 z m -37.28,-21.524 v 43.048 l -37.281,-21.524 z m 0,0 -37.281,21.524 v -43.047 z m -37.281,-21.523 -37.28,21.523 v -43.047 z m 0,0 v 43.047 l -37.28,-21.524 z m -149.121,-86.096 37.28,21.524 -37.28,21.524 z m 0,0 v 43.048 l -37.281,-21.524 z m 37.28,21.524 v 43.048 l -37.28,-21.524 z m 0,0 37.281,21.524 -37.281,21.524 z m 37.281,21.524 37.28,21.524 -37.28,21.524 z m 37.28,21.524 v 43.047 l -37.28,-21.523 z m -37.28,-21.524 v 43.048 l -37.281,-21.524 z m 223.682,516.573 -37.28,-21.524 37.28,-21.524 z m 0,-43.048 -37.28,-21.524 37.28,-21.523 z m 0,0 -37.28,21.524 v -43.048 z m 0,-43.047 -37.28,21.523 v -43.047 z m 0,0 -37.28,-21.524 37.28,-21.524 z m 0,-215.239 v 43.047 l -37.28,-21.523 z m 0,43.047 -37.28,21.524 v -43.047 z m 0,0 v 43.048 l -37.28,-21.524 z m 0,43.048 -37.28,21.524 v -43.048 z m 0,0 V 500 l -37.28,-21.524 z M 489.493,112.57 v 43.048 l -37.281,-21.524 z m 0,0 37.28,21.524 -37.28,21.524 z m -298.244,172.191 37.28,-21.524 v 43.048 z m 0,0 37.28,21.524 -37.28,21.524 z m 37.28,-21.524 37.281,21.524 -37.281,21.524 z m 0,0 37.281,-21.524 v 43.048 z m 74.561,-43.048 37.281,-21.523 v 43.047 z m 111.842,-64.571 v 43.048 l -37.281,-21.524 z m -37.281,21.524 37.281,21.524 -37.281,21.523 z m 0,0 v 43.047 l -37.28,-21.523 z m -37.28,21.524 37.28,21.523 -37.28,21.524 z m -186.403,452.001 37.281,-21.524 v 43.048 z m 0,0 v -43.048 l 37.281,21.524 z m 37.281,21.524 v -43.048 l 37.28,21.524 z m -37.281,-64.572 37.281,-21.523 v 43.047 z m 0,0 v -43.047 l 37.281,21.524 z m 0,-43.047 37.281,-21.524 v 43.048 z m 0,-172.191 37.281,-21.524 v 43.047 z m 0,0 37.281,21.523 -37.281,21.524 z m 0,43.047 37.281,-21.524 v 43.048 z m 0,0 37.281,21.524 -37.281,21.524 z m 0,43.048 37.281,-21.524 V 500 Z m 37.281,-107.619 37.28,21.524 -37.28,21.523 z m 559.207,365.906 -37.281,21.524 v -43.048 z m -37.281,21.524 -37.28,-21.524 37.28,-21.524 z m -149.121,86.095 -37.281,-21.524 37.281,-21.524 z m 0,0 37.28,-21.524 -37.28,-21.524 z M 228.529,736.763 265.81,715.239 v 43.048 z m 74.561,0 -37.28,21.524 v -43.048 z m 111.842,64.571 37.28,21.524 -37.28,21.524 z m 0,0 v 43.048 L 377.651,822.858 Z M 750.456,306.285 v -43.048 l 37.28,21.524 z m 0,0 37.28,-21.524 v 43.048 z m -37.281,-21.524 37.281,-21.524 v 43.048 z m 0,0 37.281,-21.524 -37.281,-21.524 z m -74.56,-43.048 v -43.047 l 37.28,21.523 z m -74.561,-43.047 37.28,-21.524 -37.28,-21.524 z m 37.28,21.523 -37.28,-21.523 37.28,-21.524 z m 0,0 v -43.047 l 37.281,21.524 z m 0,0 37.281,-21.523 v 43.047 z m 186.402,408.954 37.281,21.524 -37.281,21.524 z m 0,0 37.281,-21.524 v 43.048 z m -37.28,21.524 37.28,-21.524 v 43.048 z m 37.28,-64.571 37.281,21.523 -37.281,21.524 z m 0,0 37.281,-21.524 v 43.047 z m 0,-43.048 37.281,21.524 -37.281,21.524 z m 0,-129.144 v -43.047 l 37.281,21.524 z m 0,0 37.281,-21.523 v 43.047 z m 0,43.048 v -43.048 l 37.281,21.524 z m 0,0 37.281,-21.524 v 43.048 z m 0,43.048 v -43.048 l 37.281,21.524 z m -37.28,-107.619 37.28,-21.524 v 43.047 z M 265.81,327.809 228.529,306.285 265.81,284.761 Z m 37.28,-21.524 -37.28,21.524 v -43.048 z m 149.122,-86.096 -37.28,21.524 v -43.047 z m -37.28,21.524 -37.281,-21.524 37.281,-21.523 z M 228.529,607.619 v 43.048 l -37.28,-21.524 z m 0,0 -37.28,21.524 v -43.047 z m 0,0 37.281,21.524 -37.281,21.524 z m 37.281,21.524 v 43.048 l -37.281,-21.524 z m -37.281,-21.524 -37.28,-21.523 37.28,-21.524 z m 0,-43.047 -37.28,21.524 v -43.048 z m 0,-129.144 -37.28,-21.524 37.28,-21.523 z m 0,0 -37.28,21.524 v -43.048 z m 0,0 v 43.048 l -37.28,-21.524 z m 0,43.048 -37.28,21.524 v -43.048 z m 0,-43.048 v -43.047 l 37.281,21.523 z m 0,-43.047 37.281,-21.524 v 43.047 z m 260.964,452.001 -37.281,-21.524 37.281,-21.524 z m 0,0 37.28,-21.524 -37.28,-21.524 z m 37.28,-64.571 37.281,21.523 -37.281,21.524 z m 0,0 v 43.047 l -37.28,-21.524 z m -111.841,21.523 37.28,-21.523 v 43.047 z m 37.28,-21.523 37.281,21.523 -37.281,21.524 z m 260.963,-107.62 v 43.048 l -37.28,-21.524 z m -37.28,21.524 37.28,21.524 -37.28,21.524 z m -37.28,21.524 37.28,21.524 -37.28,21.524 z m 0,0 37.28,-21.524 v 43.048 z m -37.281,21.524 37.281,-21.524 v 43.048 z m -37.28,21.524 v 43.047 L 526.773,779.811 Z M 303.09,736.763 265.81,715.239 303.09,693.715 Z m -37.28,-64.572 37.28,21.524 -37.28,21.524 z m 74.561,86.096 -37.281,-21.524 37.281,-21.524 z M 303.09,736.763 v -43.048 l 37.281,21.524 z m 37.281,21.524 v -43.048 l 37.28,21.524 z m 74.561,43.047 37.28,-21.523 -37.28,-21.524 z M 265.81,672.191 303.09,650.667 v 43.048 z m 0,-43.048 37.28,21.524 -37.28,21.524 z m 447.365,-344.382 37.281,21.524 -37.281,21.524 z m 0,0 v 43.048 l -37.28,-21.524 z m -186.402,-64.572 37.281,-21.523 v 43.047 z m 74.561,0 -37.28,21.524 v -43.047 z m 149.122,430.478 37.28,-21.524 -37.28,-21.524 z m 37.28,-64.571 v 43.047 l -37.28,-21.524 z m -37.28,64.571 -37.281,-21.524 37.281,-21.524 z m -37.281,21.524 37.281,-21.524 -37.281,-21.524 z m 74.561,-86.095 -37.28,21.523 v -43.047 z m 0,-43.048 v 43.048 l -37.28,-21.524 z m -37.28,-150.667 37.28,21.523 -37.28,21.524 z m 37.28,64.571 -37.28,-21.524 37.28,-21.524 z m 0,0 -37.28,21.524 v -43.048 z m 0,43.048 -37.28,-21.524 37.28,-21.524 z m -37.28,-107.619 v 43.047 l -37.281,-21.524 z m 0,0 -37.281,21.523 v -43.047 z m -37.281,279.81 -37.28,21.524 v -43.048 z m 0,0 -37.28,-21.524 37.28,-21.524 z m -186.402,-452.002 -37.28,21.524 v -43.047 z m -74.561,0 37.281,-21.523 v 43.047 z m 0,0 v 43.048 l -37.28,-21.524 z m 0,0 37.281,21.524 -37.281,21.524 z m 74.561,0 37.281,21.524 -37.281,21.524 z m 0,0 v 43.048 l -37.28,-21.524 z m -260.963,107.62 37.28,21.524 -37.28,21.524 z m 37.28,-21.524 v 43.048 l -37.28,-21.524 z m 0,0 37.281,-21.524 v 43.048 z m 0,0 37.281,21.524 -37.281,21.524 z m 37.281,-21.524 37.28,21.524 -37.28,21.524 z m 74.561,-43.048 37.28,21.524 -37.28,21.524 z M 228.529,607.619 v -43.047 l 37.281,21.524 z m 0,0 37.281,-21.523 v 43.047 z m 0,-43.047 37.281,-21.524 v 43.048 z m 0,-129.144 37.281,21.524 -37.281,21.524 z m 0,43.048 37.281,-21.524 V 500 Z m 0,-43.048 37.281,-21.524 v 43.048 z m 74.561,-43.047 -37.28,-21.524 37.28,-21.524 z m 0,0 -37.28,21.523 v -43.047 z m 186.403,365.906 37.28,21.524 -37.28,21.523 z m 0,0 v 43.047 l -37.281,-21.523 z m 37.28,-21.524 37.281,21.524 -37.281,21.524 z m 0,0 v 43.048 l -37.28,-21.524 z m -74.561,0 v 43.048 l -37.28,-21.524 z m 0,0 37.281,21.524 -37.281,21.524 z m 186.403,-64.572 37.28,21.524 -37.28,21.524 z m 0,0 37.28,-21.524 v 43.048 z m -37.281,21.524 37.281,21.524 -37.281,21.524 z m 0,0 37.281,-21.524 v 43.048 z m -37.28,21.524 37.28,-21.524 v 43.048 z m 0,0 37.28,21.524 -37.28,21.524 z m 0,0 v 43.048 L 526.773,736.763 Z M 340.371,672.191 v 43.048 L 303.09,693.715 Z m 0,0 -37.281,21.524 v -43.048 z m 37.28,21.524 v 43.048 l -37.28,-21.524 z m 0,0 -37.28,21.524 v -43.048 z m 37.281,21.524 -37.281,21.524 v -43.048 z m 0,0 v 43.048 l -37.281,-21.524 z m 0,0 37.28,21.524 -37.28,21.524 z m -74.561,-86.096 v 43.048 L 303.09,650.667 Z m 335.524,-279.81 v -43.048 l 37.28,21.524 z m 0,0 37.28,-21.524 v 43.048 z m -37.28,-21.524 v -43.048 l 37.28,21.524 z m 0,0 37.28,-21.524 v 43.048 z m -37.281,-21.524 37.281,-21.524 v 43.048 z m -37.28,-21.524 -37.281,-21.524 37.281,-21.524 z m 149.121,301.335 37.281,-21.524 v 43.047 z m 0,0 37.281,21.523 -37.281,21.524 z m 0,-43.048 37.281,21.524 -37.281,21.524 z m 0,-86.096 37.281,-21.524 v 43.048 z m 0,0 37.281,21.524 L 713.175,500 Z m 0,0 37.281,-21.524 -37.281,-21.524 z m -37.28,-64.571 37.28,-21.524 -37.28,-21.524 z m 0,0 37.28,-21.524 v 43.047 z m -37.28,236.762 37.28,21.524 -37.28,21.524 z M 489.493,284.761 452.212,263.237 489.493,241.713 Z m 0,0 v -43.048 l 37.28,21.524 z m -37.281,21.524 -37.28,-21.524 37.28,-21.524 z m 0,0 v -43.048 l 37.281,21.524 z m 74.561,0 37.281,-21.524 -37.281,-21.524 z m 0,0 -37.28,-21.524 37.28,-21.524 z m -186.402,64.572 -37.281,-21.524 37.281,-21.524 z m 0,0 -37.281,21.524 v -43.048 z m 37.28,-21.524 -37.28,-21.524 37.28,-21.524 z m 0,0 -37.28,21.524 v -43.048 z m 37.281,-21.524 -37.281,21.524 v -43.048 z m 0,0 -37.281,-21.524 37.281,-21.524 z m 0,0 v -43.048 l 37.28,21.524 z M 303.09,564.572 265.81,586.096 v -43.048 z m 0,-43.048 v 43.048 l -37.28,-21.524 z m 0,0 -37.28,21.524 V 500 Z m 0,-43.048 v 43.048 L 265.81,500 Z m 0,0 L 265.81,500 v -43.048 z m 37.281,-64.572 -37.281,-21.523 37.281,-21.524 z m 149.122,301.335 37.28,21.524 -37.28,21.524 z m 0,0 v 43.048 l -37.281,-21.524 z m 111.841,-64.572 37.281,21.524 -37.281,21.524 z m 0,0 37.281,-21.524 v 43.048 z m -37.28,21.524 37.28,-21.524 v 43.048 z m 0,0 37.28,21.524 -37.28,21.524 z M 377.651,650.667 v 43.048 l -37.28,-21.524 z m 0,0 -37.28,21.524 v -43.048 z m 37.281,21.524 -37.281,21.524 v -43.048 z m 0,0 v 43.048 L 377.651,693.715 Z M 638.615,370.857 v -43.048 l 37.28,21.524 z m 0,0 37.28,-21.524 v 43.048 z m -37.281,-21.524 v -43.048 l 37.281,21.524 z m 0,0 37.281,-21.524 v 43.048 z m -37.28,-21.524 37.28,-21.524 v 43.048 z m 0,0 37.28,-21.524 -37.28,-21.524 z m 0,0 -37.281,-21.524 37.281,-21.524 z m 111.841,236.763 37.28,-21.524 v 43.048 z m 0,-43.048 37.28,-21.524 v 43.048 z m 0,0 37.28,21.524 -37.28,21.524 z m 0,-43.048 37.28,21.524 -37.28,21.524 z m 0,0 37.28,-21.524 V 500 Z m -37.28,-64.572 v -43.047 l 37.28,21.524 z m -149.122,-86.095 -37.281,-21.524 37.281,-21.524 z m 0,0 v -43.048 l 37.28,21.524 z m -111.842,64.572 -37.28,-21.524 37.28,-21.524 z m 0,0 -37.28,21.523 v -43.047 z m 37.281,-21.524 -37.281,21.524 v -43.048 z m 0,0 -37.281,-21.524 37.281,-21.524 z m -74.561,172.191 v 43.048 L 303.09,564.572 Z m 0,0 -37.281,21.524 v -43.048 z m 0,-43.048 v 43.048 L 303.09,521.524 Z m 0,0 -37.281,21.524 v -43.048 z m 0,-43.048 V 500 L 303.09,478.476 Z m 223.683,172.191 37.28,21.524 -37.28,21.524 z m -37.281,21.524 37.281,-21.524 v 43.048 z M 414.932,629.143 v 43.048 l -37.281,-21.524 z m 37.28,21.524 -37.28,21.524 v -43.048 z m -74.561,-86.095 -37.28,21.524 V 543.048 Z M 601.334,392.381 v -43.048 l 37.281,21.524 z m 0,0 37.281,-21.524 v 43.047 z m -37.28,-21.524 37.28,-21.524 v 43.048 z m 0,0 37.28,-21.524 -37.28,-21.524 z m 74.561,172.191 37.28,21.524 -37.28,21.524 z m 0,0 37.28,-21.524 v 43.048 z m 0,-43.048 37.28,21.524 -37.28,21.524 z m 0,0 37.28,-21.524 v 43.048 z m 0,-43.048 37.28,21.524 -37.28,21.524 z m -37.281,107.62 37.281,-21.524 v 43.048 z M 414.932,413.904 377.651,392.381 414.932,370.857 Z m 37.28,-21.523 -37.28,21.523 v -43.047 z m -74.561,129.143 v 43.048 l -37.28,-21.524 z m 0,0 -37.28,21.524 V 500 Z m 0,-43.048 v 43.048 L 340.371,500 Z m 0,0 -37.28,21.524 v -43.048 z m 111.842,150.667 v 43.048 l -37.281,-21.524 z m 0,0 37.28,21.524 -37.28,21.524 z m 37.28,-21.524 37.281,21.524 -37.281,21.524 z m 0,0 v 43.048 l -37.28,-21.524 z m 0,0 37.281,-21.523 v 43.047 z m -74.561,0 v 43.048 l -37.28,-21.524 z m 0,0 37.281,21.524 -37.281,21.524 z m 0,0 -37.28,21.524 v -43.047 z m -37.28,-64.571 -37.281,21.524 v -43.048 z m 0,0 v 43.048 L 377.651,564.572 Z M 564.054,413.904 v -43.047 l 37.28,21.524 z m -37.281,-21.523 37.281,-21.524 v 43.047 z m 74.561,129.143 37.281,21.524 -37.281,21.524 z m 0,0 L 638.615,500 v 43.048 z m 0,-43.048 37.281,21.524 -37.281,21.524 z m 0,0 37.281,-21.524 V 500 Z m -37.28,64.572 37.28,-21.524 v 43.048 z m 0,0 37.28,21.524 -37.28,21.524 z m -74.561,-129.144 37.28,-21.523 -37.28,-21.524 z m 0,0 -37.281,-21.523 37.281,-21.524 z m -37.281,21.524 -37.28,-21.524 37.28,-21.523 z m 0,0 v -43.047 l 37.281,21.523 z m 0,0 -37.28,21.524 V 413.904 Z M 414.932,500 377.651,521.524 v -43.048 z m 0,0 -37.281,-21.524 37.281,-21.524 z m 0,0 v 43.048 l -37.281,-21.524 z m 74.561,86.096 37.28,21.523 -37.28,21.524 z m 0,0 v 43.047 l -37.281,-21.524 z m 37.28,-21.524 37.281,21.524 -37.281,21.523 z m 0,0 v 43.047 l -37.28,-21.523 z m 0,0 37.281,-21.524 v 43.048 z m -74.561,0 v 43.047 l -37.28,-21.523 z m 0,0 37.281,21.524 -37.281,21.523 z m 0,0 -37.28,21.524 v -43.048 z m 74.561,-129.144 37.281,-21.524 -37.281,-21.523 z m 0,0 -37.28,-21.524 37.28,-21.523 z m 0,0 37.281,-21.524 v 43.048 z m 37.281,64.572 37.28,-21.524 v 43.048 z m 0,0 37.28,-21.524 -37.28,-21.524 z m 0,0 37.28,21.524 -37.28,21.524 z m -74.561,-43.048 -37.281,-21.524 37.281,-21.524 z m 0,0 v -43.048 l 37.28,21.524 z m -37.281,21.524 -37.28,-21.524 37.28,-21.524 z m 0,0 v -43.048 l 37.281,21.524 z m 0,0 -37.28,21.524 v -43.048 z m 37.281,64.572 37.28,21.524 -37.28,21.524 z m 0,0 v 43.048 l -37.281,-21.524 z m 37.28,-64.572 37.281,-21.524 -37.281,-21.524 z m 0,0 -37.28,-21.524 37.28,-21.524 z m 0,0 37.281,-21.524 V 500 Z M 489.493,500 452.212,478.476 489.493,456.952 Z m 0,0 v -43.048 l 37.28,21.524 z"
     style="opacity:1;fill-opacity:0;stroke:#000000;stroke-width:16;stroke-opacity:1;stop-opacity:1;fill:none;stroke-miterlimit:4;stroke-dasharray:none"
     id="path146266" />
</svg>
