<?xml version="1.0" encoding="UTF-8" standalone="no"?>
<svg
   xmlns:dc="http://purl.org/dc/elements/1.1/"
   xmlns:cc="http://creativecommons.org/ns#"
   xmlns:rdf="http://www.w3.org/1999/02/22-rdf-syntax-ns#"
   xmlns:svg="http://www.w3.org/2000/svg"
   xmlns="http://www.w3.org/2000/svg"
   xmlns:sodipodi="http://sodipodi.sourceforge.net/DTD/sodipodi-0.dtd"
   xmlns:inkscape="http://www.inkscape.org/namespaces/inkscape"
   inkscape:version="1.0 (9f2f71dc58, 2020-08-02)"
   sodipodi:docname="5-uniform_220.svg"
   id="c:\kuniform\5u\5-uniform_220.svg"
   height="994.2065"
   width="1000.00006"
   version="1.0">
  <style
     id="style2" />
  <metadata
     id="metadata2522">
    <rdf:RDF>
      <cc:Work
         rdf:about="">
        <dc:format>image/svg+xml</dc:format>
        <dc:type
           rdf:resource="http://purl.org/dc/dcmitype/StillImage" />
        <dc:title></dc:title>
      </cc:Work>
    </rdf:RDF>
  </metadata>
  <defs
     id="defs2520" />
  <sodipodi:namedview
     inkscape:current-layer="c:\kuniform\5u\5-uniform_220.svg"
     inkscape:window-maximized="0"
     inkscape:window-y="23"
     inkscape:window-x="0"
     inkscape:cy="522.92749"
     inkscape:cx="429.56438"
     inkscape:zoom="0.59971603"
     showgrid="false"
     id="namedview2518"
     inkscape:window-height="907"
     inkscape:window-width="1600"
     inkscape:pageshadow="2"
     inkscape:pageopacity="0"
     guidetolerance="10"
     gridtolerance="10"
     objecttolerance="10"
     borderopacity="1"
     inkscape:document-rotation="0"
     bordercolor="#666666"
     pagecolor="#ffffff" />
  <!-- X Coordinate transform: fx(x)=(x+83.88995)*0.85632586-->
  <!-- Y Coordinate transform: fy(y)=(1083.8564-y)*0.85632586 -->
  <g
     id="g450"
     style="opacity:1">
    <path
       style="color:#000000;font-style:normal;font-variant:normal;font-weight:normal;font-stretch:normal;font-size:medium;line-height:normal;font-family:sans-serif;font-variant-ligatures:normal;font-variant-position:normal;font-variant-caps:normal;font-variant-numeric:normal;font-variant-alternates:normal;font-variant-east-asian:normal;font-feature-settings:normal;font-variation-settings:normal;text-indent:0;text-align:start;text-decoration:none;text-decoration-line:none;text-decoration-style:solid;text-decoration-color:#000000;letter-spacing:normal;word-spacing:normal;text-transform:none;writing-mode:lr-tb;direction:ltr;text-orientation:mixed;dominant-baseline:auto;baseline-shift:baseline;text-anchor:start;white-space:normal;shape-padding:0;shape-margin:0;inline-size:0;clip-rule:nonzero;display:inline;overflow:visible;visibility:visible;isolation:auto;mix-blend-mode:normal;color-interpolation:sRGB;color-interpolation-filters:linearRGB;solid-color:#000000;solid-opacity:1;vector-effect:none;fill:#000000;fill-opacity:0;fill-rule:nonzero;stroke:none;stroke-width:15;stroke-linecap:butt;stroke-linejoin:miter;stroke-miterlimit:4;stroke-dasharray:none;stroke-dashoffset:0;stroke-opacity:1.0;color-rendering:auto;image-rendering:auto;shape-rendering:auto;text-rendering:auto;enable-background:accumulate;stop-color:#000000;stop-opacity:1;"
       d="M 813.849,42.002 792.441,4.922 M 57.702,127.634 20.622,106.226 M 63.439,893.717 42.03,856.637 V 813.82 L 20.622,776.74 m 85.633,116.977 37.08,21.408 m -79.896,21.408 v -42.816 l 21.408,-37.08 M 930.825,158.978 h 42.816 m -21.408,37.08 37.08,21.408 m -52.752,590.618 h 42.817 m 0,0 -21.408,-37.08 m -79.897,138.384 v -42.816 m -138.384,79.896 37.08,21.409 m 85.633,0 37.079,-21.409 37.08,-21.408 M 84.847,813.82 v 42.817 l 21.408,37.08 v 42.816 l 21.408,37.08 m 154.056,-21.408 21.409,37.08 M 143.335,872.308 106.255,893.717 H 63.439 l -37.08,21.408 m 58.488,-101.305 37.08,21.408 21.408,37.08 37.08,21.409 21.408,37.08 v 42.816 M 755.361,100.49 792.441,79.082 m 0,42.816 V 79.082 l 21.408,-37.08 37.08,-21.408 m 64.224,196.872 37.08,21.408 m -52.752,707.594 37.08,21.409 M 654.056,42.002 691.136,63.41 m 149.857,824.57 37.08,21.408 21.408,37.08 v 42.817 M 217.495,84.818 l 37.08,21.408 m -95.568,-79.896 37.08,21.408 21.408,37.08 v 42.816 M 116.19,186.123 V 143.306 L 94.782,106.226 57.702,84.818 M 79.11,207.531 42.03,186.123 20.622,149.043 M 42.03,696.844 20.622,659.764 m 37.08,-574.946 -37.08,21.408 m 0,42.817 37.08,-21.409 37.08,-21.408 21.408,-37.08 V 26.33 m 740.475,803.162 h 42.816 m -574.945,122.713 -21.408,37.08 M 798.177,887.98 h 42.816 l 37.08,-21.408 21.408,-37.08 37.08,-21.408 21.409,-37.08 v -42.816 l 21.408,-37.08 m -261.097,218.28 h 42.816 m -79.896,21.409 -21.408,37.08 -37.08,21.408 M 121.927,835.228 h 42.816 m 808.898,-516.457 -37.08,-21.409 -21.408,-37.079 v -42.817 l -21.408,-37.08 V 137.57 l 21.408,-37.08 37.08,-21.408 M 712.544,100.49 733.953,63.41 m 79.896,95.568 37.08,21.408 m 21.408,37.08 21.408,-37.08 m 58.488,-101.304 37.08,21.408 M 771.033,42.002 h 42.816 l 37.08,21.408 h 42.816 l 37.08,-21.408 M 654.056,84.818 V 42.002 M 414.367,63.41 435.776,26.33 M 79.11,47.738 57.702,10.658 m 276.769,74.16 21.408,-37.08 37.08,-21.408 m -116.976,116.976 21.408,-37.08 M 79.11,281.691 42.03,303.099 m 154.057,-138.385 21.408,-37.08 37.08,-21.408 h 42.816 l 37.08,-21.408 h 42.816 M 57.702,244.611 79.11,207.531 116.19,186.123 h 42.817 m -79.897,-21.409 37.08,21.409 21.409,37.08 M 79.11,324.507 v -42.816 l 21.409,-37.08 M 57.702,84.818 79.11,47.738 116.19,26.33 m 116.977,0 -37.08,21.408 -37.08,21.408 H 116.19 L 79.11,47.738 H 36.294 M 20.622,776.74 42.03,739.66 v -42.816 l 21.409,-37.08 m 21.408,79.896 v -42.816 m 894.531,-5.736 -21.408,-37.08 v -42.817 l -21.409,-37.08 m 0,-159.792 37.08,21.408 m -15.671,58.488 -21.409,-37.08 v -42.816 l -21.408,-37.08 v -42.816 l 21.408,-37.081 37.08,-21.408 m -95.568,516.458 37.08,-21.408 m -37.08,-21.408 37.08,21.408 h 42.817 l 37.08,-21.408 m -79.897,-138.385 21.408,-37.08 v -42.816 l 21.409,-37.08 M 462.92,989.285 500,967.877 M 100.519,244.611 79.11,207.531 V 164.714 L 57.702,127.634 V 84.818 L 36.294,47.738 57.702,10.658 m 346.73,920.139 37.08,21.408 m 159.793,0 37.08,-21.408 m 255.36,-910.203 37.08,21.408 21.408,37.08 v 42.816 m -808.898,676.25 v -42.816 m 159.793,159.793 37.079,-21.408 m -95.568,79.896 37.08,-21.408 21.409,-37.08 V 872.308 M 616.976,63.41 l 37.08,21.408 21.408,37.08 M 733.953,20.594 V 63.41 l 21.408,37.08 v 42.816 l 21.408,37.08 37.08,21.408 21.408,37.08 37.08,21.409 h 42.816 l 37.08,-21.409 37.08,-21.408 M 457.184,63.41 l 37.08,21.408 m 138.384,37.08 h 42.816 l 37.08,21.408 h 42.817 l 37.08,-21.408 37.08,-21.408 21.408,-37.08 V 20.594 m -532.13,122.712 37.08,-21.408 m -255.36,282.505 v -42.816 m 79.896,-138.384 37.08,-21.409 m 21.408,-37.08 h -42.816 l -37.08,21.409 -21.408,37.08 v 42.816 l -21.409,37.08 -37.08,21.408 -37.08,21.408 m 21.409,154.056 37.08,-21.408 m 21.408,239.689 v -42.816 m 771.818,-261.097 21.408,-37.08 M 819.585,850.9 v -42.816 l 21.408,-37.08 37.08,-21.408 37.08,-21.408 h 42.817 l 37.08,21.408 M 856.665,712.516 V 669.7 m -495.049,261.097 21.408,-37.08 m 356.665,-64.225 37.08,21.408 m -37.08,-21.408 37.08,-21.408 h 42.816 l 37.08,21.408 21.408,37.08 37.08,21.408 21.408,37.08 v 42.817 l -37.08,21.408 -37.079,-21.408 -21.409,-37.08 V 887.98 L 819.585,850.9 m -378.073,58.488 v 42.817 l 21.408,37.08 m 138.385,-79.897 v 42.817 l -21.409,37.08 m -37.08,-21.408 21.408,-37.08 37.081,-21.409 37.08,-21.408 h 42.816 l 37.08,21.408 21.408,37.08 v 42.817 m -495.05,-175.465 37.08,21.408 m -79.896,-21.408 21.408,-37.08 m 569.21,-537.866 h 42.816 m 37.08,138.385 v -42.816 l -21.408,-37.081 -37.08,-21.408 M 318.799,26.33 l 37.08,21.408 21.408,37.08 37.08,21.408 h 42.817 l 37.08,-21.408 37.08,-21.408 m -15.672,58.488 37.08,21.408 M 100.519,521.38 v -42.817 l 21.408,-37.08 m 0,0 -21.408,-37.08 -37.08,-21.408 -21.409,-37.08 V 303.099 M 392.959,26.33 414.367,63.41 v 42.816 l -21.408,37.08 -37.08,21.408 -37.08,21.409 h -42.816 l -37.08,-21.409 -21.408,-37.08 -37.08,-21.408 -21.408,-37.08 V 26.33 M 137.599,382.995 100.519,361.587 79.11,324.507 42.03,303.099 20.622,266.019 m 79.897,-21.408 37.08,-21.408 h 42.816 l 37.08,21.408 m -196.873,21.408 37.08,-21.408 h 42.817 l 37.08,21.408 h 42.816 l 37.08,-21.408 37.08,-21.408 21.408,-37.08 v -42.817 l -21.408,-37.08 V 63.41 L 233.167,26.33 m -169.728,590.618 37.08,21.408 21.408,37.08 37.08,21.408 21.408,37.08 v 42.816 l 21.408,37.08 v 42.817 l -21.408,37.08 -37.08,21.408 -37.08,21.408 H 63.439 L 26.359,915.125 M 121.927,601.276 V 558.46 m -21.408,79.896 h 42.816 m 713.33,-42.817 37.08,-21.408 m -37.08,-21.408 37.08,21.408 h 42.816 l 37.08,-21.408 m -138.384,-154.056 37.08,-21.408 h 42.816 l 37.08,-21.408 21.408,-37.08 M 819.585,691.108 v 42.816 l 21.408,37.08 37.08,21.408 21.408,37.08 37.08,21.408 M 835.257,632.62 h 42.816 M 579.896,989.285 542.816,967.877 H 500 l -21.408,-37.08 -37.08,-21.409 -21.408,-37.08 -37.08,-21.408 h -42.817 l -37.079,21.408 -37.081,21.409 -21.408,37.08 v 42.816 M 223.231,733.924 v 42.816 l 21.408,37.08 v 42.817 l 21.408,37.08 37.081,21.408 21.408,37.08 37.08,21.408 m -79.897,-181.201 -37.08,21.408 h -42.816 l -37.08,21.408 -21.408,37.08 v 42.817 l 21.408,37.08 37.08,21.408 m 21.408,-239.689 37.08,21.408 21.408,37.08 37.08,21.408 21.408,37.08 v 42.817 l 21.409,37.08 v 42.816 m 255.36,-793.227 37.08,-21.408 m 159.793,42.816 v -42.816 l -21.408,-37.08 -37.08,-21.408 h -42.817 l -37.08,21.408 -21.408,37.08 v 42.816 m 122.713,95.568 37.08,21.409 M 515.672,164.714 V 121.898 L 494.264,84.818 V 42.002 m 79.896,138.384 21.408,-37.08 M 159.007,420.075 137.599,382.995 V 340.179 L 116.19,303.099 79.11,281.691 57.702,244.611 20.622,223.203 m 42.817,319.585 37.08,-21.408 37.08,-21.409 21.408,-37.08 v -42.816 l 21.408,-37.08 M 159.007,579.868 121.927,558.46 100.519,521.38 63.439,499.971 H 20.622 m 64.225,239.689 37.08,-21.408 37.08,-21.408 21.408,-37.08 v -42.816 l -21.408,-37.08 v -42.817 l -21.408,-37.08 -37.08,-21.408 -21.409,-37.08 -37.08,-21.408 m 793.227,95.568 v -42.816 m -21.408,-37.08 h 42.816 m -79.896,255.361 h 42.816 l 37.08,-21.408 21.408,-37.08 37.08,-21.409 h 42.817 l 37.08,21.409 M 718.281,792.412 v -42.816 m 21.408,122.712 v -42.816 l -21.408,-37.08 -37.08,-21.408 m -101.305,58.488 37.08,21.408 21.409,37.08 v 42.817 l 21.408,37.08 h 42.816 l 37.08,-21.409 21.408,-37.08 37.08,-21.408 21.408,-37.08 m -276.769,0 37.08,21.408 m -452.233,101.305 37.08,-21.408 37.08,-21.408 h 42.816 l 37.08,21.408 h 42.817 l 37.08,-21.408 h 42.816 l 37.08,-21.409 21.408,-37.08 L 500,850.9 h 42.816 l 37.08,-21.408 m -319.585,-74.16 h 42.817 m 670.513,-479.378 -21.408,-37.08 v -42.816 l -21.408,-37.08 -37.08,-21.408 h -42.816 l -37.08,21.408 -37.08,21.408 -21.408,37.08 v 42.817 l 21.408,37.079 v 42.817 l 21.408,37.08 37.08,21.408 21.408,37.08 37.08,21.408 h 42.816 l 37.08,-21.408 m -298.177,-196.873 37.08,21.409 m 21.409,37.079 21.408,-37.079 m -261.097,-58.489 21.408,-37.08 37.08,-21.408 h 42.816 l 37.08,-21.408 21.408,-37.08 37.08,-21.408 h 42.817 l 37.08,-21.408 21.408,-37.08 m -255.361,196.872 -21.408,-37.08 -37.08,-21.408 -21.408,-37.08 V 63.41 L 435.776,26.33 m -58.489,175.464 37.08,21.409 M 201.823,462.891 v -42.816 m 175.464,-175.464 -37.08,-21.408 -21.408,-37.08 v -42.817 l -21.408,-37.08 V 63.41 l 21.408,-37.08 m -79.896,255.361 37.08,21.408 m -37.08,21.408 v -42.816 l -21.408,-37.08 v -42.817 l 21.408,-37.08 37.08,-21.408 h 42.816 l 37.08,21.408 M 79.11,441.483 l 21.409,-37.08 37.08,-21.408 h 42.816 l 37.08,-21.408 21.408,-37.08 m -58.488,292.441 21.408,-37.08 m 21.408,79.896 v -42.816 m 750.41,-224.017 -21.408,-37.08 -37.08,-21.408 h -42.816 l -37.08,21.408 -37.08,21.408 -21.408,37.08 v 42.816 l 21.408,37.08 v 42.816 l 21.408,37.08 37.08,21.408 21.408,37.081 37.08,21.408 h 42.817 l 37.08,-21.408 m -298.177,79.896 h 42.816 m -298.177,122.712 37.08,-21.408 m -58.488,58.488 21.408,-37.08 v -42.816 m 196.873,-21.408 h 42.816 l 37.08,-21.408 21.408,-37.08 37.08,-21.408 21.408,-37.08 m -218.281,175.464 21.409,-37.08 m -42.817,0 h 42.817 l 37.08,-21.408 21.408,-37.08 M 500,850.9 521.408,813.82 M 281.719,718.252 v -42.816 m 452.234,-654.842 37.08,21.408 21.408,37.08 37.08,21.408 21.408,37.08 v 42.816 l 21.408,37.08 v 42.817 l -21.408,37.079 -37.08,21.409 -37.08,21.408 h -42.816 l -37.08,-21.408 -21.409,-37.08 -37.079,-21.408 -21.409,-37.08 v -42.817 l -21.408,-37.08 V 100.49 l 21.408,-37.08 37.08,-21.408 37.08,-21.408 m -255.36,239.689 21.408,-37.08 m -335.257,218.28 37.08,-21.408 h 42.816 l 37.08,-21.408 m 116.976,-116.976 21.408,-37.08 37.08,-21.408 h 42.817 l 37.08,-21.409 h 42.816 l 37.08,21.409 h 42.816 l 37.08,-21.409 37.08,-21.408 21.408,-37.08 V 100.49 L 691.136,63.41 V 20.594 m -393.745,319.585 21.408,-37.08 m -58.488,58.488 -21.408,-37.08 m 21.408,313.849 v -42.817 m 495.05,-101.304 21.408,-37.08 m -58.488,218.281 37.08,-21.408 m 42.816,-159.793 37.08,21.408 21.408,37.08 v 42.816 l -21.408,37.081 -37.08,21.408 h -42.816 l -37.08,-21.408 m -335.257,101.304 37.08,21.408 m 159.792,0 37.08,-21.408 M 404.432,973.613 v -42.816 l -21.408,-37.08 V 850.9 l 21.408,-37.08 37.08,-21.408 37.08,-21.408 h 42.816 l 37.08,21.408 21.408,37.08 v 42.816 l 21.409,37.08 37.08,21.409 h 42.816 l 37.08,-21.409 21.408,-37.08 37.08,-21.408 h 42.816 l 37.08,-21.408 21.408,-37.08 v -42.816 l -21.408,-37.08 -37.08,-21.408 -21.408,-37.08 v -42.817 l 21.408,-37.08 37.08,-21.408 37.08,-21.408 h 42.816 l 37.08,21.408 M 654.056,318.771 h 42.817 m -21.409,37.08 37.08,21.408 21.409,37.08 v 42.816 m -255.361,-196.872 37.08,-21.409 m 0,42.817 v -42.817 l 21.408,-37.08 37.08,-21.408 h 42.816 l 37.08,21.408 21.408,37.08 v 42.817 M 260.311,521.38 v -42.817 m 79.896,-138.384 37.08,-21.408 M 20.622,223.203 42.03,186.123 79.11,164.714 116.19,143.306 h 42.817 l 37.08,21.408 21.408,37.08 37.08,21.409 21.408,37.08 v 42.816 l 21.408,37.08 v 42.816 l -21.408,37.08 -37.08,21.408 -37.08,21.408 m -21.408,313.849 -37.08,-21.408 -21.408,-37.08 -37.08,-21.408 -21.408,-37.08 v -42.816 l 21.408,-37.08 37.08,-21.408 37.08,-21.409 h 42.816 l 37.08,21.409 21.408,37.079 37.08,21.409 21.408,37.08 v 42.816 l 21.408,37.08 v 42.816 l -21.408,37.08 -37.08,21.408 -37.08,21.409 h -42.816 l -37.08,-21.409 -21.408,-37.08 -37.08,-21.408 -21.408,-37.08 H 42.03 L 4.95,718.252 M 238.903,558.46 h 42.816 m 473.642,52.751 -37.08,21.409 -37.08,21.408 -21.408,37.08 v 42.816 l 21.408,37.08 v 42.816 l 21.408,37.08 37.08,21.408 21.408,37.08 37.08,21.409 h 42.816 l 37.08,-21.409 37.08,-21.408 21.408,-37.08 v -42.816 l -21.408,-37.08 v -42.816 l -21.408,-37.08 -37.08,-21.408 -21.408,-37.08 -37.08,-21.409 z M 696.873,595.539 V 552.723 M 420.104,712.516 v 42.816 l 21.408,37.08 37.08,21.408 h 42.816 l 37.08,-21.408 21.408,-37.08 v -42.816 m 159.793,116.976 -37.08,21.408 -21.408,37.08 v 42.817 l 21.408,37.08 37.08,21.408 37.08,-21.408 21.408,-37.08 V 887.98 L 776.769,850.9 v -42.816 l -21.408,-37.08 -37.08,-21.408 -21.408,-37.08 -37.08,-21.408 h -42.817 l -37.08,21.408 -37.08,21.408 -21.408,37.08 v 42.816 l 21.408,37.08 v 42.817 l 21.408,37.08 37.081,21.408 21.408,37.08 M 462.92,872.308 441.512,835.228 404.432,813.82 383.024,776.74 v -42.816 l -21.408,-37.08 v -42.816 m 42.816,319.585 37.08,-21.408 37.08,-21.408 L 500,893.717 V 850.9 l -21.408,-37.08 v -42.816 l -21.408,-37.08 -37.08,-21.408 -21.408,-37.08 -37.08,-21.408 m 276.769,-276.769 37.079,21.408 m -298.177,-154.056 21.409,37.08 37.08,21.408 h 42.816 l 37.08,-21.408 37.08,-21.408 21.408,-37.08 v -42.817 l -21.408,-37.08 V 100.49 L 531.344,63.41 494.264,42.002 457.184,63.41 h -42.817 l -37.08,21.408 -21.408,37.08 v 42.816 l 21.408,37.08 z m 159.793,74.16 37.08,21.408 m -276.769,159.792 -37.08,21.409 -21.408,37.08 -37.08,21.408 h -42.816 l -37.08,21.408 -21.408,37.08 -37.08,21.408 H 20.622 M 238.903,441.483 v -42.816 l 21.408,-37.08 37.08,-21.408 h 42.816 l 37.08,21.408 m -154.056,298.177 37.08,-21.408 37.08,-21.408 21.408,-37.08 v -42.817 l -21.408,-37.08 v -42.816 l -21.408,-37.08 -37.08,-21.408 -21.408,-37.08 m 442.298,95.568 37.08,21.408 21.408,37.08 37.08,21.408 h 42.816 l 37.08,-21.408 37.08,-21.408 21.408,-37.08 v -42.816 l -21.408,-37.08 -37.08,-21.408 M 675.464,515.643 h 42.817 M 398.696,675.436 h 42.816 m 218.281,-218.281 -21.408,-37.08 v -42.816 l -21.409,-37.08 v -42.817 l 21.409,-37.079 37.079,-21.409 37.08,-21.408 h 42.817 l 37.08,21.408 21.408,37.08 v 42.817 l 21.408,37.08 v 42.816 l -21.408,37.08 -37.08,21.408 h -42.816 l -37.08,21.408 m -101.305,-101.304 21.408,-37.08 m -298.177,196.872 21.408,-37.08 m 21.409,79.897 v -42.817 m 378.073,175.465 -21.408,-37.08 -37.08,-21.408 -21.408,-37.08 v -42.817 l -21.408,-37.08 v -42.816 l 21.408,-37.08 37.08,-21.408 37.08,-21.408 h 42.816 l 37.08,21.408 21.408,37.08 37.08,21.408 21.408,37.08 v 42.816 l 21.408,37.08 v 42.817 l -21.408,37.08 -37.08,21.408 -37.08,21.408 H 776.769 Z M 616.976,574.131 638.385,537.051 M 558.488,675.436 V 632.62 m -37.08,21.408 37.08,21.408 21.408,37.08 37.08,21.408 h 42.817 l 37.08,-21.408 21.408,-37.08 V 632.62 l -21.408,-37.081 -37.08,-21.408 M 420.104,638.356 V 595.539 M 558.488,398.667 537.08,361.587 500,340.179 478.592,303.099 v -42.816 l -21.408,-37.08 v -42.817 l 21.408,-37.08 37.08,-21.408 37.08,-21.408 h 42.816 l 37.08,21.408 21.408,37.08 37.08,21.408 21.408,37.08 v 42.817 l 21.409,37.079 v 42.817 l -21.409,37.08 -37.08,21.408 -37.079,21.408 h -42.817 z m -42.816,0 h 42.816 m -159.792,0 37.08,21.408 m -37.08,21.408 v -42.816 l -21.409,-37.08 v -42.816 l 21.409,-37.08 37.08,-21.408 h 42.816 l 37.08,21.408 21.408,37.08 v 42.816 M 398.696,558.46 v -42.817 m 79.896,138.385 h 42.816 l 37.08,-21.408 21.408,-37.081 m -42.816,0 h 42.816 l 37.08,-21.408 h 42.817 l 37.08,-21.408 21.408,-37.08 37.08,-21.408 h 42.816 l 37.08,-21.408 21.408,-37.08 37.08,-21.408 h 42.816 l 37.08,-21.408 M 340.207,733.924 h 42.817 l 37.08,-21.408 21.408,-37.08 37.08,-21.408 21.408,-37.08 m -138.384,-37.08 21.408,37.08 37.08,21.408 21.408,37.08 37.08,21.408 h 42.816 l 37.08,-21.408 37.08,-21.408 21.408,-37.08 v -42.817 l -21.408,-37.08 v -42.816 l -21.408,-37.08 -37.08,-21.408 -21.408,-37.08 -37.08,-21.408 h -42.816 l -37.08,21.408 -37.08,21.408 -21.409,37.08 v 42.816 l 21.409,37.08 37.08,21.409 21.408,37.079 37.08,21.409 m -79.897,-138.385 21.409,-37.08 37.08,-21.408 h 42.816 m -21.408,37.08 21.408,-37.08 37.08,-21.408 21.408,-37.08 37.08,-21.408 h 42.816 l 37.08,-21.408 21.408,-37.08 37.08,-21.408 h 42.817 l 37.08,-21.409 21.408,-37.08 37.08,-21.408 h 42.816 l 37.08,-21.408 21.408,-37.08 37.08,-21.408 M 398.696,281.691 h -42.817 l -37.08,21.408 h -42.816 l -37.08,21.408 -37.08,-21.408 -21.408,-37.08 v -42.816 l -21.408,-37.08 v -42.817 l 21.408,-37.08 37.08,-21.408 37.08,-21.408 h 42.816 l 37.08,21.408 21.408,37.08 37.08,21.408 21.408,37.08 v 42.817 l 21.409,37.08 v 42.816 l -21.409,37.08 -37.08,21.408 -37.08,21.408 h -42.816 l -37.08,-21.408 h -42.816 l -37.08,-21.408 h -42.816 l -37.08,21.408 -37.08,21.408 -21.409,37.08 v 42.816 l 21.409,37.08 v 42.817 l 21.408,37.08 37.08,21.408 21.408,37.08 37.08,21.408 h 42.816 l 21.408,37.08 37.08,21.408 21.409,37.08 37.079,21.408 h 42.817 l 37.08,-21.408 37.08,-21.408 21.408,-37.08 v -42.816 l -21.408,-37.08 v -42.817 l -21.408,-37.08 -37.08,-21.408 -21.409,-37.08 -37.08,-21.408 h -42.816 l -37.08,21.408 -37.08,21.408 -21.408,37.08 v 42.817 l 21.408,37.08 37.08,21.408 21.408,37.08 37.08,21.408 m 239.689,-181.201 37.08,21.408 m -95.568,37.08 37.08,21.408 21.408,37.081 37.08,21.408 21.408,37.08 v 42.816 l 21.409,37.08 v 42.816 l -21.409,37.08 -37.08,21.408 -37.08,21.409 H 500 l -37.08,-21.409 h -42.816 l -37.08,21.409 h -42.817 l -37.079,-21.409 -21.409,-37.08 v -42.816 l 21.409,-37.08 37.079,-21.408 21.409,-37.08 M 537.08,478.563 v -42.816 m -37.08,21.408 37.08,21.408 21.408,37.08 V 558.46 M 4.95,718.252 42.03,696.844 h 42.817 l 37.08,-21.408 21.408,-37.08 37.08,-21.408 h 42.816 l 37.08,-21.409 21.408,-37.079 37.08,-21.409 h 42.817 l 37.08,-21.408 21.408,-37.08 37.08,-21.408 H 500 l 37.08,-21.408 21.408,-37.08 37.08,-21.408 h 42.817 l 37.079,-21.408 21.409,-37.08 37.08,-21.409 h 42.816 l 37.08,-21.408 21.408,-37.08 37.08,-21.408 h 42.816 l 37.08,-21.408 21.408,-37.08 -21.408,-37.08 -37.08,-21.408 -21.408,-37.08 V 20.594 M 20.622,499.971 42.03,462.891 79.11,441.483 h 42.817 l 37.08,21.408 h 42.816 l 21.408,37.08 37.08,21.409 21.408,37.08 37.08,21.408 h 42.817 l 37.08,-21.408 37.08,-21.409 21.408,-37.08 v -42.816 l -21.408,-37.08 v -42.816 l -21.409,-37.08 -37.08,-21.408 -21.408,-37.08 -37.08,-21.408 h -42.816 l -37.08,21.408 -37.08,21.408 -21.408,37.08 v 42.816 l 21.408,37.08 37.08,21.408 21.408,37.08 37.08,21.408 h 42.816 l 37.08,-21.408 h 42.817 m 101.304,58.488 37.08,-21.408 37.08,-21.408 h 42.817 l 37.079,21.408 21.409,37.08 37.08,21.408 21.408,37.08 v 42.817 l 21.408,37.08 v 42.816 l -21.408,37.08 -37.08,21.408 -37.08,21.408 h -42.816 l -37.08,-21.408 -21.409,-37.08 -37.08,-21.408 -21.408,-37.08 V 654.028 L 500,616.948 v -42.817 m 21.408,-37.08 37.08,21.409 21.408,37.079 37.08,21.409 h 42.817 l 37.08,-21.409 37.08,-21.408 21.408,-37.08 v -42.816 l -21.408,-37.08 -37.08,-21.408 M 500,499.971 h -42.816 l -37.08,-21.408 -21.408,-37.08 -37.08,-21.408 -21.409,-37.08 v -42.816 l -21.408,-37.08 v -42.816 l 21.408,-37.08 37.08,-21.409 37.08,-21.408 h 42.817 l 37.08,21.408 21.408,37.08 37.08,21.409 21.408,37.079 v 42.817 l 21.408,37.08 v 42.816 l -21.408,37.08 -37.08,21.408 z m 0,0 21.408,37.08 -21.408,37.08 h -42.816 l -37.08,21.408 -37.08,21.409 -21.408,37.08 h -42.817 l -37.08,21.408 -37.08,21.408 -21.408,37.08 h -42.816 l -37.08,21.408 -37.08,21.408 -21.408,37.08 H 42.03 l -37.08,21.408 37.08,21.409 h 42.817 l 37.08,-21.409 21.408,-37.08 37.08,-21.408 h 42.816 l 37.08,-21.408 21.408,-37.08 37.08,-21.408 h 42.817 l 37.08,-21.408 21.408,-37.08 37.08,-21.408 H 500 l 37.08,-21.409 21.408,-37.079 37.08,-21.409 h 42.817 l 37.079,-21.408 21.409,-37.08 v -42.816 l -21.409,-37.08 v -42.816 l -21.408,-37.08 -37.08,-21.409 H 574.16 l -37.08,21.409 -37.08,21.408 -21.408,37.08 v 42.816 L 500,457.155 Z"
       id="path452" />
    <path
       style="color:#000000;font-style:normal;font-variant:normal;font-weight:normal;font-stretch:normal;font-size:medium;line-height:normal;font-family:sans-serif;font-variant-ligatures:normal;font-variant-position:normal;font-variant-caps:normal;font-variant-numeric:normal;font-variant-alternates:normal;font-variant-east-asian:normal;font-feature-settings:normal;font-variation-settings:normal;text-indent:0;text-align:start;text-decoration:none;text-decoration-line:none;text-decoration-style:solid;text-decoration-color:#000000;letter-spacing:normal;word-spacing:normal;text-transform:none;writing-mode:lr-tb;direction:ltr;text-orientation:mixed;dominant-baseline:auto;baseline-shift:baseline;text-anchor:start;white-space:normal;shape-padding:0;shape-margin:0;inline-size:0;clip-rule:nonzero;display:inline;overflow:visible;visibility:visible;isolation:auto;mix-blend-mode:normal;color-interpolation:sRGB;color-interpolation-filters:linearRGB;solid-color:#000000;solid-opacity:1;vector-effect:none;fill:#000000;fill-opacity:1;fill-rule:nonzero;stroke:none;stroke-width:15;stroke-linecap:butt;stroke-linejoin:miter;stroke-miterlimit:4;stroke-dasharray:none;stroke-dashoffset:0;stroke-opacity:1.0;color-rendering:auto;image-rendering:auto;shape-rendering:auto;text-rendering:auto;enable-background:accumulate;stop-color:#000000;stop-opacity:1;"
       d="M 785.94531 1.171875 L 768.28711 31.757812 L 737.70312 14.099609 L 733.95312 20.59375 L 726.45312 20.59375 L 726.45312 55.910156 L 698.63672 55.910156 L 698.63672 20.59375 L 691.13672 20.59375 L 687.38672 14.099609 L 650.30664 35.505859 L 611.48633 57.919922 L 591.23828 92.990234 L 557.08203 92.990234 L 536.83398 57.919922 L 494.26367 33.341797 L 459.92969 53.164062 L 442.27148 22.580078 L 435.77734 26.330078 L 429.28125 22.580078 L 414.36719 48.410156 L 399.45508 22.580078 L 392.95898 26.330078 L 389.20898 19.833984 L 355.87891 39.078125 L 322.54883 19.833984 L 318.79883 26.330078 L 312.30469 22.580078 L 293.06055 55.910156 L 258.9043 55.910156 L 239.66211 22.580078 L 233.16797 26.330078 L 229.41797 19.833984 L 196.08789 39.078125 L 162.75781 19.833984 L 159.00781 26.330078 L 151.50781 26.330078 L 151.50781 61.646484 L 123.68945 61.646484 L 123.68945 26.330078 L 116.18945 26.330078 L 112.43945 19.833984 L 81.855469 37.492188 L 64.197266 6.9082031 L 57.703125 10.658203 L 51.207031 6.9082031 L 27.632812 47.738281 L 47.455078 82.072266 L 16.871094 99.730469 L 20.621094 106.22656 L 16.871094 112.7207 L 42.701172 127.63477 L 16.871094 142.54883 L 20.621094 149.04297 L 14.126953 152.79297 L 33.369141 186.12305 L 14.126953 219.45312 L 20.621094 223.20312 L 16.871094 229.69727 L 42.701172 244.61133 L 16.871094 259.52344 L 20.621094 266.01953 L 14.126953 269.76953 L 34.529297 305.10938 L 34.529297 347.92383 L 54.779297 382.99414 L 34.529297 418.06445 L 34.529297 460.88086 L 14.126953 496.2207 L 20.621094 499.9707 L 20.621094 507.4707 L 55.939453 507.4707 L 55.939453 544.79688 L 76.1875 579.86719 L 55.939453 614.9375 L 55.939453 652.26367 L 20.621094 652.26367 L 20.621094 659.76367 L 14.126953 663.51367 L 31.785156 694.09766 L 1.1992188 711.75586 L 4.9492188 718.25195 L 1.1992188 724.74805 L 31.783203 742.40625 L 14.126953 772.99023 L 20.621094 776.74023 L 14.126953 780.49023 L 31.783203 811.07422 L -10.050781 835.22852 L 36.539062 862.12695 L 53.193359 890.97266 L 22.609375 908.62891 L 26.359375 915.125 L 22.609375 921.62109 L 61.429688 944.0332 L 101.92578 944.0332 L 121.16797 977.36328 L 127.66211 973.61328 L 131.41211 980.10742 L 164.74219 960.86523 L 198.07227 980.10742 L 201.82227 973.61328 L 209.32227 973.61328 L 209.32227 938.29688 L 237.13867 938.29688 L 237.13867 973.61328 L 244.63867 973.61328 L 248.38867 980.10742 L 278.97461 962.44922 L 296.63281 993.03516 L 303.12891 989.28516 L 309.62305 993.03516 L 327.28125 962.45117 L 357.86523 980.10742 L 361.61523 973.61328 L 369.11523 973.61328 L 369.11523 938.29688 L 396.93164 938.29688 L 396.93164 973.61328 L 404.43164 973.61328 L 408.18164 980.10742 L 438.76562 962.45117 L 456.42383 993.03516 L 462.91992 989.28516 L 466.66992 995.7793 L 502.01172 975.37695 L 540.80664 975.37695 L 576.14648 995.7793 L 579.89648 989.28516 L 586.39062 993.03516 L 601.30469 967.20508 L 616.21875 993.03516 L 622.71289 989.28516 L 626.46289 995.7793 L 661.80273 975.37695 L 700.59961 975.37695 L 739.68945 997.94531 L 782.25977 973.36719 L 802.50781 938.29688 L 836.66211 938.29688 L 856.91211 973.36719 L 899.48047 997.94531 L 944.06055 972.20703 L 944.06055 923.05078 L 923.8125 887.98047 L 944.06055 852.91016 L 944.06055 815.58398 L 979.37891 815.58398 L 979.37891 808.08398 L 985.87305 804.33398 L 968.21484 773.75 L 998.80078 756.0918 L 995.05078 749.59766 L 998.80078 743.10156 L 968.21484 725.44336 L 985.87305 694.85742 L 979.37891 691.10742 L 985.87305 687.35742 L 968.2168 656.77344 L 998.80078 639.11523 L 995.05078 632.62109 L 998.80078 626.125 L 963.46094 605.7207 L 946.80664 576.875 L 977.39062 559.21875 L 973.64062 552.72266 L 977.39062 546.22852 L 946.80664 528.57031 L 964.46484 497.98438 L 957.96875 494.23438 L 964.46484 490.48438 L 946.80664 459.90039 L 977.39062 442.24219 L 973.64062 435.74609 L 977.39062 429.25195 L 951.56055 414.33984 L 977.39062 399.42578 L 973.64062 392.93164 L 980.13672 389.18164 L 960.89258 355.85156 L 980.13672 322.52148 L 973.64062 318.77148 L 977.39062 312.27539 L 951.56055 297.36133 L 977.39062 282.44922 L 973.64062 275.95312 L 980.13672 272.20312 L 962.47656 241.61914 L 993.0625 223.96094 L 989.3125 217.46484 L 993.0625 210.9707 L 962.47852 193.3125 L 982.30078 158.97852 L 962.47656 124.64258 L 993.0625 106.98438 L 989.3125 100.48828 L 993.0625 93.994141 L 957.72266 73.589844 L 936.31445 36.511719 L 897.49414 14.099609 L 893.74414 20.59375 L 886.24414 20.59375 L 886.24414 55.910156 L 858.42969 55.910156 L 858.42969 20.59375 L 850.92969 20.59375 L 847.17969 14.099609 L 816.59375 31.757812 L 798.93555 1.171875 L 792.44141 4.921875 L 785.94531 1.171875 z M 792.44141 19.921875 L 800.85742 34.501953 L 784.02344 34.501953 L 792.44141 19.921875 z M 57.703125 25.658203 L 66.119141 40.238281 L 49.285156 40.238281 L 57.703125 25.658203 z M 741.45312 33.583984 L 756.0332 42.001953 L 741.45312 50.419922 L 741.45312 33.583984 z M 843.42969 33.583984 L 843.42969 50.419922 L 828.84961 42.001953 L 843.42969 33.583984 z M 901.24414 33.583984 L 915.82422 42.001953 L 901.24414 50.419922 L 901.24414 33.583984 z M 683.63672 33.585938 L 683.63672 50.417969 L 669.05859 42.001953 L 683.63672 33.585938 z M 230.42188 36.576172 L 244.32812 60.664062 L 220.24023 74.572266 L 206.33203 50.482422 L 230.42188 36.576172 z M 321.54492 36.576172 L 345.63477 50.484375 L 331.72656 74.574219 L 307.63672 60.664062 L 321.54492 36.576172 z M 390.21289 36.576172 L 404.12109 60.664062 L 380.03125 74.574219 L 366.12305 50.484375 L 390.21289 36.576172 z M 108.68945 39.320312 L 108.68945 56.15625 L 94.109375 47.738281 L 108.68945 39.320312 z M 166.50781 39.322266 L 181.08594 47.738281 L 166.50781 56.15625 L 166.50781 39.322266 z M 435.77539 41.330078 L 444.19336 55.910156 L 427.35742 55.910156 L 435.77539 41.330078 z M 784.02344 49.501953 L 800.85938 49.501953 L 792.44141 64.082031 L 784.02344 49.501953 z M 768.28906 52.246094 L 782.19531 76.335938 L 758.10547 90.244141 L 744.19922 66.15625 L 768.28906 52.246094 z M 816.59375 52.248047 L 840.68359 66.15625 L 826.77539 90.246094 L 802.6875 76.337891 L 816.59375 52.248047 z M 928.08008 52.248047 L 941.98633 76.335938 L 917.89648 90.244141 L 903.99023 66.15625 L 928.08008 52.248047 z M 486.76367 54.992188 L 486.76367 71.826172 L 472.18359 63.410156 L 486.76367 54.992188 z M 501.76367 54.992188 L 516.34375 63.410156 L 501.76367 71.826172 L 501.76367 54.992188 z M 646.55664 54.992188 L 646.55664 71.828125 L 631.97656 63.410156 L 646.55664 54.992188 z M 661.55664 54.992188 L 676.13672 63.410156 L 661.55664 71.828125 L 661.55664 54.992188 z M 49.285156 55.238281 L 66.119141 55.238281 L 57.701172 69.818359 L 49.285156 55.238281 z M 81.853516 57.984375 L 105.94336 71.892578 L 92.037109 95.980469 L 67.947266 82.072266 L 81.853516 57.984375 z M 193.3418 57.984375 L 207.24805 82.072266 L 183.16016 95.980469 L 169.25391 71.890625 L 193.3418 57.984375 z M 355.87891 62.738281 L 364.29688 77.318359 L 347.46094 77.318359 L 355.87891 62.738281 z M 262.07422 70.910156 L 289.89062 70.910156 L 289.89062 98.726562 L 262.07422 98.726562 L 262.07422 70.910156 z M 421.86719 70.910156 L 449.68359 70.910156 L 449.68359 98.726562 L 421.86719 98.726562 L 421.86719 70.910156 z M 704.12695 70.910156 L 720.96094 70.910156 L 712.54492 85.490234 L 704.12695 70.910156 z M 855.25977 70.910156 L 889.41406 70.910156 L 906.49219 100.49023 L 889.41406 130.07031 L 855.25977 130.07031 L 838.18164 100.49023 L 855.25977 70.910156 z M 528.59766 73.654297 L 542.50586 97.744141 L 518.41602 111.65234 L 504.50781 87.5625 L 528.59766 73.654297 z M 619.72266 73.654297 L 643.8125 87.5625 L 629.9043 111.6543 L 605.81445 97.744141 L 619.72266 73.654297 z M 688.39062 73.65625 L 702.29883 97.744141 L 678.20898 111.65234 L 664.30078 87.564453 L 688.39062 73.65625 z M 247.07422 76.400391 L 247.07422 93.234375 L 232.49414 84.818359 L 247.07422 76.400391 z M 304.89062 76.400391 L 319.4707 84.818359 L 304.89062 93.236328 L 304.89062 76.400391 z M 406.86719 76.400391 L 406.86719 93.236328 L 392.28711 84.818359 L 406.86719 76.400391 z M 464.68359 76.400391 L 479.26367 84.818359 L 464.68359 93.236328 L 464.68359 76.400391 z M 120.51953 76.646484 L 154.67773 76.646484 L 171.75391 106.22656 L 154.67773 135.80664 L 120.51953 135.80664 L 103.44141 106.22656 L 120.51953 76.646484 z M 733.95312 78.410156 L 742.37109 92.990234 L 725.53516 92.990234 L 733.95312 78.410156 z M 784.94141 92.072266 L 784.94141 108.9082 L 770.36133 100.49023 L 784.94141 92.072266 z M 799.94141 92.072266 L 814.52148 100.49023 L 799.94141 108.9082 L 799.94141 92.072266 z M 944.73242 92.072266 L 944.73242 108.9082 L 930.15234 100.49023 L 944.73242 92.072266 z M 959.73242 92.072266 L 974.3125 100.49023 L 959.73242 108.9082 L 959.73242 92.072266 z M 347.46094 92.318359 L 364.29688 92.318359 L 355.87891 106.89844 L 347.46094 92.318359 z M 380.0332 95.0625 L 404.12109 108.97266 L 390.21289 133.0625 L 366.125 119.1543 L 380.0332 95.0625 z M 491.51758 95.0625 L 505.42578 119.15234 L 481.33594 133.06055 L 467.42969 108.9707 L 491.51758 95.0625 z M 331.72656 95.064453 L 345.63281 119.15234 L 321.54297 133.06055 L 307.63672 108.97266 L 331.72656 95.064453 z M 50.201172 97.808594 L 50.201172 114.64258 L 35.621094 106.22656 L 50.201172 97.808594 z M 65.201172 97.808594 L 79.78125 106.22656 L 65.201172 114.64453 L 65.201172 97.808594 z M 209.99414 97.808594 L 209.99414 114.64258 L 195.41602 106.22656 L 209.99414 97.808594 z M 224.99414 97.808594 L 239.57422 106.22656 L 224.99414 114.64453 L 224.99414 97.808594 z M 654.05664 99.818359 L 662.47461 114.39844 L 645.63867 114.39844 L 654.05664 99.818359 z M 560.25195 107.99023 L 588.06836 107.99023 L 588.06836 135.80664 L 560.25195 135.80664 L 560.25195 107.99023 z M 720.04492 107.99023 L 747.86133 107.99023 L 747.86133 135.80664 L 720.04492 135.80664 L 720.04492 107.99023 z M 826.77539 110.73438 L 840.68359 134.82422 L 816.59375 148.73242 L 802.68555 124.64258 L 826.77539 110.73438 z M 917.89844 110.73438 L 941.98828 124.64258 L 928.08008 148.73438 L 903.99023 134.82422 L 917.89844 110.73438 z M 545.25195 113.48047 L 545.25195 130.31445 L 530.67188 121.89844 L 545.25195 113.48047 z M 603.06836 113.48047 L 617.64844 121.89844 L 603.06836 130.31641 L 603.06836 113.48047 z M 705.04492 113.48047 L 705.04492 130.31641 L 690.46289 121.89844 L 705.04492 113.48047 z M 762.86133 113.48047 L 777.44141 121.89844 L 762.86133 130.31641 L 762.86133 113.48047 z M 267.56445 113.72656 L 284.40039 113.72656 L 275.98242 128.30664 L 267.56445 113.72656 z M 418.69727 113.72656 L 452.85352 113.72656 L 469.93164 143.30664 L 452.85352 172.88672 L 418.69727 172.88672 L 401.61914 143.30664 L 418.69727 113.72656 z M 92.035156 116.4707 L 105.94336 140.56055 L 81.853516 154.46875 L 67.945312 130.37891 L 92.035156 116.4707 z M 183.16016 116.47266 L 207.25 130.38086 L 193.3418 154.46875 L 169.25391 140.56055 L 183.16016 116.47266 z M 251.82812 116.47266 L 265.73633 140.56055 L 241.64648 154.46875 L 227.74023 130.38086 L 251.82812 116.47266 z M 297.39062 121.22656 L 305.80859 135.80664 L 288.97461 135.80664 L 297.39062 121.22656 z M 645.63867 129.39844 L 662.47266 129.39844 L 654.05664 143.97852 L 645.63867 129.39844 z M 629.9043 132.14258 L 643.81055 156.23242 L 619.7207 170.14062 L 605.81445 146.05273 L 629.9043 132.14258 z M 789.69531 132.14258 L 803.60352 156.23242 L 779.51367 170.14062 L 765.60742 146.05078 L 789.69531 132.14258 z M 678.20898 132.14453 L 702.29883 146.05273 L 688.39062 170.14258 L 664.30273 156.23438 L 678.20898 132.14453 z M 348.37891 134.88867 L 348.37891 151.72461 L 333.79883 143.30664 L 348.37891 134.88867 z M 363.37891 134.88867 L 377.95898 143.30664 L 363.37891 151.72461 L 363.37891 134.88867 z M 508.17188 134.88867 L 508.17188 151.72266 L 493.5918 143.30664 L 508.17188 134.88867 z M 523.17188 134.88867 L 537.75195 143.30664 L 523.17188 151.72266 L 523.17188 134.88867 z M 952.23242 136.89844 L 960.65039 151.47852 L 943.81445 151.47852 L 952.23242 136.89844 z M 54.955078 137.87891 L 68.865234 161.96875 L 44.775391 175.87695 L 30.867188 151.78906 L 54.955078 137.87891 z M 217.49414 142.63672 L 225.91211 157.21484 L 209.07812 157.21484 L 217.49414 142.63672 z M 858.42969 145.07031 L 886.24414 145.07031 L 886.24414 172.88672 L 858.42969 172.88672 L 858.42969 145.07031 z M 843.42969 150.56055 L 843.42969 167.39453 L 828.84961 158.97852 L 843.42969 150.56055 z M 901.24414 150.56055 L 915.82422 158.97852 L 901.24414 167.39648 L 901.24414 150.56055 z M 123.68945 150.80664 L 151.50781 150.80664 L 151.50781 178.62305 L 123.68945 178.62305 L 123.68945 150.80664 z M 283.48242 150.80664 L 311.29883 150.80664 L 311.29883 178.62305 L 283.48242 178.62305 L 283.48242 150.80664 z M 565.74219 150.80664 L 582.57617 150.80664 L 574.16016 165.38672 L 565.74219 150.80664 z M 716.875 150.80664 L 751.03125 150.80664 L 768.10938 180.38672 L 751.03125 209.9668 L 716.875 209.9668 L 699.79688 180.38672 L 716.875 150.80664 z M 390.21289 153.55078 L 404.12109 177.64062 L 380.03125 191.54883 L 366.12305 167.45898 L 390.21289 153.55078 z M 481.33789 153.55078 L 505.42578 167.45898 L 491.51953 191.54883 L 467.42969 177.64062 L 481.33789 153.55078 z M 550.00586 153.55273 L 563.91406 177.64062 L 539.82617 191.54883 L 525.91797 167.45898 L 550.00586 153.55273 z M 108.68945 156.29688 L 108.68945 173.13281 L 94.109375 164.71484 L 108.68945 156.29688 z M 166.50781 156.29688 L 181.08789 164.71484 L 166.50781 173.13281 L 166.50781 156.29688 z M 268.48242 156.29688 L 268.48242 173.13281 L 253.90234 164.71484 L 268.48242 156.29688 z M 326.29883 156.29688 L 340.87891 164.71484 L 326.29883 173.13281 L 326.29883 156.29688 z M 595.56836 158.30664 L 603.98633 172.88672 L 587.15039 172.88672 L 595.56836 158.30664 z M 943.81445 166.47852 L 960.65039 166.47852 L 952.23242 181.05859 L 943.81445 166.47852 z M 928.07812 169.22266 L 941.98633 193.31445 L 917.89844 207.2207 L 903.99023 183.13281 L 928.07812 169.22266 z M 646.55664 171.96875 L 646.55664 188.80273 L 631.97656 180.38672 L 646.55664 171.96875 z M 661.55664 171.96875 L 676.13672 180.38672 L 661.55664 188.80469 L 661.55664 171.96875 z M 806.34961 171.96875 L 806.34961 188.80273 L 791.76953 180.38672 L 806.34961 171.96875 z M 821.34961 171.96875 L 835.92969 180.38672 L 821.34961 188.80273 L 821.34961 171.96875 z M 209.08008 172.21484 L 225.91211 172.21484 L 217.49609 186.79297 L 209.08008 172.21484 z M 241.64648 174.95898 L 265.73633 188.86914 L 251.83008 212.95703 L 227.74023 199.04688 L 241.64648 174.95898 z M 353.13477 174.95898 L 367.04297 199.04883 L 342.95117 212.95703 L 329.04492 188.86719 L 353.13477 174.95898 z M 193.3418 174.96094 L 207.24805 199.04883 L 183.16016 212.95703 L 169.25195 188.86914 L 193.3418 174.96094 z M 71.609375 177.70508 L 71.609375 194.54102 L 57.029297 186.12305 L 71.609375 177.70508 z M 86.609375 177.70508 L 101.18945 186.12305 L 86.609375 194.54102 L 86.609375 177.70508 z M 515.67188 179.71484 L 524.08984 194.29492 L 507.25391 194.29492 L 515.67188 179.71484 z M 421.86719 187.88672 L 449.68359 187.88672 L 449.68359 215.70312 L 421.86719 215.70312 L 421.86719 187.88672 z M 581.66016 187.88672 L 609.47656 187.88672 L 609.47656 215.70312 L 581.66016 215.70312 L 581.66016 187.88672 z M 863.91992 187.88672 L 880.75391 187.88672 L 872.33789 202.4668 L 863.91992 187.88672 z M 688.39062 190.63086 L 702.29883 214.7207 L 678.20898 228.62891 L 664.30273 204.53906 L 688.39062 190.63086 z M 779.51562 190.63086 L 803.60352 204.53906 L 789.69531 228.62891 L 765.60742 214.7207 L 779.51562 190.63086 z M 848.18359 190.63281 L 862.0918 214.7207 L 838.00391 228.62891 L 824.0957 204.53906 L 848.18359 190.63281 z M 406.86719 193.37695 L 406.86719 210.21094 L 392.28711 201.79492 L 406.86719 193.37695 z M 464.68359 193.37695 L 479.26367 201.79492 L 464.68359 210.21289 L 464.68359 193.37695 z M 566.66016 193.37695 L 566.66016 210.21289 L 552.08008 201.79492 L 566.66016 193.37695 z M 624.47656 193.37695 L 639.05664 201.79492 L 624.47656 210.21289 L 624.47656 193.37695 z M 129.17969 193.62305 L 146.01562 193.62305 L 137.59766 208.20312 L 129.17969 193.62305 z M 280.3125 193.62305 L 314.46875 193.62305 L 331.54688 223.20312 L 314.46875 252.7832 L 280.3125 252.7832 L 263.23438 223.20312 L 280.3125 193.62305 z M 893.74414 195.38672 L 902.16211 209.9668 L 885.32812 209.9668 L 893.74414 195.38672 z M 44.775391 196.36719 L 68.865234 210.27539 L 54.957031 234.36523 L 30.867188 220.45703 L 44.775391 196.36719 z M 113.44531 196.36719 L 127.35352 220.45898 L 103.26367 234.36523 L 89.355469 210.27539 L 113.44531 196.36719 z M 159.00781 201.12305 L 167.42383 215.70312 L 150.58984 215.70312 L 159.00781 201.12305 z M 944.73242 209.04883 L 944.73242 225.88281 L 930.15234 217.4668 L 944.73242 209.04883 z M 959.73242 209.04883 L 974.3125 217.46484 L 959.73242 225.88281 L 959.73242 209.04883 z M 507.25586 209.29492 L 524.08984 209.29492 L 515.67188 223.87305 L 507.25586 209.29492 z M 539.82422 212.03906 L 563.91406 225.94922 L 550.00781 250.03711 L 525.91797 236.12891 L 539.82422 212.03906 z M 651.31055 212.03906 L 665.2207 236.12891 L 641.12891 250.03711 L 627.22266 225.94727 L 651.31055 212.03906 z M 491.51953 212.04102 L 505.42578 236.12891 L 481.33594 250.03711 L 467.42969 225.94922 L 491.51953 212.04102 z M 209.99414 214.78516 L 209.99414 231.62109 L 195.41406 223.20312 L 209.99414 214.78516 z M 224.99414 214.78516 L 239.57422 223.20312 L 224.99414 231.62109 L 224.99414 214.78516 z M 369.78711 214.78516 L 369.78711 231.62109 L 355.20703 223.20312 L 369.78711 214.78516 z M 384.78711 214.78516 L 399.36719 223.20312 L 384.78711 231.62109 L 384.78711 214.78516 z M 813.84961 216.79492 L 822.26562 231.37305 L 805.43359 231.37305 L 813.84961 216.79492 z M 79.109375 222.53125 L 87.527344 237.11133 L 70.691406 237.11133 L 79.109375 222.53125 z M 720.04492 224.9668 L 747.86133 224.9668 L 747.86133 252.7832 L 720.04492 252.7832 L 720.04492 224.9668 z M 879.83789 224.9668 L 907.65234 224.9668 L 907.65234 252.7832 L 879.83789 252.7832 L 879.83789 224.9668 z M 705.04492 230.45703 L 705.04492 247.29102 L 690.46484 238.875 L 705.04492 230.45703 z M 762.86133 230.45703 L 777.44141 238.875 L 762.86133 247.29297 L 762.86133 230.45703 z M 864.83789 230.45703 L 864.83789 247.29297 L 850.25781 238.875 L 864.83789 230.45703 z M 922.65234 230.45703 L 937.23242 238.875 L 922.65234 247.29297 L 922.65234 230.45703 z M 145.09961 230.70312 L 172.91406 230.70312 L 172.91406 258.51953 L 145.09961 258.51953 L 145.09961 230.70312 z M 427.35742 230.70312 L 444.19336 230.70312 L 435.77539 245.2832 L 427.35742 230.70312 z M 578.49023 230.70312 L 612.64648 230.70312 L 629.72461 260.2832 L 612.64648 289.86133 L 578.49023 289.86133 L 561.41211 260.2832 L 578.49023 230.70312 z M 251.82812 233.44727 L 265.73633 257.53711 L 241.64648 271.44531 L 227.73828 247.35547 L 251.82812 233.44727 z M 342.95312 233.44727 L 367.04297 247.35547 L 353.13477 271.44727 L 329.04492 257.53711 L 342.95312 233.44727 z M 411.62109 233.44922 L 425.5293 257.53711 L 401.43945 271.44727 L 387.53125 247.35742 L 411.62109 233.44922 z M 130.09961 236.19336 L 130.09961 253.0293 L 115.51953 244.61133 L 130.09961 236.19336 z M 187.91406 236.19336 L 202.49414 244.61133 L 187.91406 253.0293 L 187.91406 236.19336 z M 457.18359 238.20312 L 465.60156 252.7832 L 448.76758 252.7832 L 457.18359 238.20312 z M 805.43164 246.37305 L 822.26758 246.37305 L 813.84961 260.95312 L 805.43164 246.37305 z M 789.69727 249.11914 L 803.60352 273.20898 L 779.51367 287.11523 L 765.60742 263.02734 L 789.69727 249.11914 z M 949.48828 249.11914 L 963.39648 273.20898 L 939.30469 287.11719 L 925.39844 263.02734 L 949.48828 249.11914 z M 838.00195 249.12109 L 862.0918 263.0293 L 848.18555 287.11719 L 824.0957 273.20898 L 838.00195 249.12109 z M 508.17188 251.86523 L 508.17188 268.70117 L 493.5918 260.2832 L 508.17188 251.86523 z M 523.17188 251.86523 L 537.75195 260.2832 L 523.17188 268.70117 L 523.17188 251.86523 z M 667.96484 251.86523 L 667.96484 268.70117 L 653.38477 260.2832 L 667.96484 251.86523 z M 682.96484 251.86523 L 697.54492 260.2832 L 682.96484 268.70117 L 682.96484 251.86523 z M 70.693359 252.11133 L 87.527344 252.11133 L 79.109375 266.69141 L 70.693359 252.11133 z M 54.957031 254.85547 L 68.863281 278.94531 L 44.773438 292.85352 L 30.867188 268.76367 L 54.957031 254.85547 z M 103.26367 254.85547 L 127.35352 268.76367 L 113.44531 292.85547 L 89.355469 278.94727 L 103.26367 254.85547 z M 214.74805 254.85547 L 228.65625 278.94531 L 204.56641 292.85352 L 190.66016 268.76367 L 214.74805 254.85547 z M 377.28711 259.61133 L 385.70508 274.19141 L 368.86914 274.19141 L 377.28711 259.61133 z M 283.48242 267.7832 L 311.29883 267.7832 L 311.29883 295.59961 L 283.48242 295.59961 L 283.48242 267.7832 z M 443.27539 267.7832 L 471.0918 267.7832 L 471.0918 295.59961 L 443.27539 295.59961 L 443.27539 267.7832 z M 725.53516 267.7832 L 742.36914 267.7832 L 733.95312 282.36133 L 725.53516 267.7832 z M 876.66797 267.7832 L 910.82227 267.7832 L 927.90039 297.36133 L 910.82227 326.94336 L 876.66797 326.94336 L 859.58984 297.36133 L 876.66797 267.7832 z M 550.00781 270.52734 L 563.91406 294.61719 L 539.82422 308.52539 L 525.91602 284.43555 L 550.00781 270.52734 z M 641.12891 270.52734 L 665.21875 284.43555 L 651.3125 308.52539 L 627.22266 294.61719 L 641.12891 270.52734 z M 709.79883 270.52734 L 723.70703 294.61719 L 699.61719 308.52539 L 685.70898 284.43555 L 709.79883 270.52734 z M 268.48242 273.27344 L 268.48242 290.10742 L 253.90234 281.69141 L 268.48242 273.27344 z M 326.29883 273.27344 L 340.87891 281.69141 L 326.29883 290.10938 L 326.29883 273.27344 z M 428.27539 273.27344 L 428.27539 290.10938 L 413.69531 281.69141 L 428.27539 273.27344 z M 486.0918 273.27344 L 500.67188 281.69141 L 486.0918 290.10938 L 486.0918 273.27344 z M 141.92969 273.51953 L 176.08398 273.51953 L 193.16211 303.09961 L 176.08398 332.67969 L 141.92969 332.67969 L 124.84961 303.09961 L 141.92969 273.51953 z M 755.36133 275.28125 L 763.7793 289.86133 L 746.94336 289.86133 L 755.36133 275.28125 z M 821.34961 288.94336 L 835.92969 297.36133 L 821.34961 305.7793 L 821.34961 288.94336 z M 806.34961 288.94531 L 806.34961 305.7793 L 791.76953 297.36133 L 806.34961 288.94531 z M 368.86914 289.19141 L 385.70508 289.19141 L 377.28711 303.77148 L 368.86914 289.19141 z M 401.44141 291.93555 L 425.5293 305.8457 L 411.62109 329.93555 L 387.5332 316.02734 L 401.44141 291.93555 z M 512.92578 291.93555 L 526.83398 316.02539 L 502.74414 329.93359 L 488.83789 305.84375 L 512.92578 291.93555 z M 353.13477 291.9375 L 367.04102 316.02539 L 342.95117 329.93359 L 329.04492 305.8457 L 353.13477 291.9375 z M 71.609375 294.68164 L 71.609375 311.51562 L 57.029297 303.09961 L 71.609375 294.68164 z M 86.609375 294.68164 L 101.18945 303.09961 L 86.609375 311.51758 L 86.609375 294.68164 z M 231.40234 294.68164 L 231.40234 311.51758 L 216.82227 303.09961 L 231.40234 294.68164 z M 246.40234 294.68164 L 260.98242 303.09961 L 246.40234 311.51758 L 246.40234 294.68164 z M 675.46484 296.69141 L 683.88281 311.27148 L 667.04688 311.27148 L 675.46484 296.69141 z M 581.66016 304.86133 L 609.47656 304.86133 L 609.47656 332.67969 L 581.66016 332.67969 L 581.66016 304.86133 z M 741.45312 304.86133 L 769.26953 304.86133 L 769.26953 332.67969 L 741.45312 332.67969 L 741.45312 304.86133 z M 848.18359 307.60742 L 862.0918 331.69727 L 838.00195 345.60547 L 824.09375 321.51562 L 848.18359 307.60742 z M 939.30664 307.60742 L 963.39648 321.51562 L 949.48828 345.60742 L 925.39648 331.69727 L 939.30664 307.60742 z M 566.66016 310.35156 L 566.66016 327.1875 L 552.08008 318.76953 L 566.66016 310.35156 z M 624.47656 310.35156 L 639.05664 318.77148 L 624.47656 327.18945 L 624.47656 310.35156 z M 726.45312 310.35156 L 726.45312 327.18945 L 711.87305 318.77148 L 726.45312 310.35156 z M 784.26953 310.35352 L 798.84961 318.77148 L 784.26953 327.18945 L 784.26953 310.35352 z M 288.97266 310.59961 L 305.80859 310.59961 L 297.39062 325.17969 L 288.97266 310.59961 z M 440.10547 310.59961 L 474.26172 310.59961 L 491.33984 340.17969 L 474.26172 369.75977 L 440.10547 369.75977 L 423.02734 340.17969 L 440.10547 310.59961 z M 113.44531 313.34375 L 127.35352 337.43359 L 103.26562 351.3418 L 89.355469 327.25195 L 113.44531 313.34375 z M 204.56836 313.34375 L 228.6582 327.25391 L 214.74805 351.3418 L 190.66016 337.43359 L 204.56836 313.34375 z M 273.23633 313.3457 L 287.14453 337.43359 L 263.05664 351.3418 L 249.14844 327.25195 L 273.23633 313.3457 z M 49.529297 316.08984 L 64.109375 324.50781 L 49.529297 332.92383 L 49.529297 316.08984 z M 318.79883 318.09961 L 327.2168 332.67969 L 310.38281 332.67969 L 318.79883 318.09961 z M 667.04688 326.27148 L 683.88281 326.27148 L 675.46484 340.85156 L 667.04688 326.27148 z M 651.31055 329.01562 L 665.21875 353.10742 L 641.13086 367.01367 L 627.22266 342.92578 L 651.31055 329.01562 z M 699.61719 329.01562 L 723.70703 342.92383 L 709.79883 367.01367 L 685.71094 353.10547 L 699.61719 329.01562 z M 811.10352 329.01562 L 825.01172 353.10547 L 800.92188 367.01367 L 787.01562 342.92383 L 811.10352 329.01562 z M 369.78711 331.76172 L 369.78711 348.59766 L 355.20703 340.17969 L 369.78711 331.76172 z M 384.78711 331.76172 L 399.36719 340.17969 L 384.78711 348.59766 L 384.78711 331.76172 z M 529.58008 331.76172 L 529.58008 348.5957 L 515 340.17969 L 529.58008 331.76172 z M 544.58008 331.76172 L 559.16016 340.17969 L 544.58008 348.5957 L 544.58008 331.76172 z M 76.363281 334.75195 L 90.273438 358.8418 L 66.183594 372.75 L 52.273438 348.66016 L 76.363281 334.75195 z M 238.9043 339.50781 L 247.32031 354.08789 L 230.48633 354.08789 L 238.9043 339.50781 z M 879.83789 341.94336 L 907.65234 341.94336 L 907.65234 369.75977 L 879.83789 369.75977 L 879.83789 341.94336 z M 864.83789 347.43359 L 864.83789 364.26953 L 850.25781 355.85156 L 864.83789 347.43359 z M 922.65234 347.43359 L 937.23242 355.85156 L 922.65234 364.26953 L 922.65234 347.43359 z M 145.09961 347.67969 L 172.91406 347.67969 L 172.91406 375.49414 L 145.09961 375.49414 L 145.09961 347.67969 z M 304.89062 347.67969 L 332.70703 347.67969 L 332.70703 375.49414 L 304.89062 375.49414 L 304.89062 347.67969 z M 587.15039 347.67969 L 603.98438 347.67969 L 595.56836 362.25977 L 587.15039 347.67969 z M 738.2832 347.67969 L 772.43945 347.67969 L 789.51758 377.25977 L 772.43945 406.83984 L 738.2832 406.83984 L 721.20508 377.25977 L 738.2832 347.67969 z M 411.62109 350.42383 L 425.5293 374.51367 L 401.43945 388.42188 L 387.53125 364.33203 L 411.62109 350.42383 z M 502.74609 350.42383 L 526.83398 364.33203 L 512.92578 388.42188 L 488.83789 374.51367 L 502.74609 350.42383 z M 571.41406 350.42578 L 585.32227 374.51367 L 561.23242 388.42188 L 547.32617 364.33203 L 571.41406 350.42578 z M 130.09961 353.16992 L 130.09961 370.00391 L 115.51953 361.58594 L 130.09961 353.16992 z M 187.91406 353.16992 L 202.49414 361.58594 L 187.91406 370.00391 L 187.91406 353.16992 z M 289.89062 353.16992 L 289.89062 370.00391 L 275.31055 361.58789 L 289.89062 353.16992 z M 347.70703 353.16992 L 362.28711 361.58594 L 347.70703 370.00391 L 347.70703 353.16992 z M 616.97656 355.17969 L 625.39453 369.75977 L 608.55859 369.75977 L 616.97656 355.17969 z M 949.48828 366.0957 L 963.39648 390.18555 L 939.30664 404.09375 L 925.39844 380.00586 L 949.48828 366.0957 z M 667.96484 368.8418 L 667.96484 385.67578 L 653.38477 377.25977 L 667.96484 368.8418 z M 682.96484 368.8418 L 697.54297 377.25977 L 682.96484 385.67578 L 682.96484 368.8418 z M 827.75781 368.8418 L 827.75781 385.67578 L 813.17773 377.25977 L 827.75781 368.8418 z M 842.75781 368.8418 L 857.33789 377.25977 L 842.75781 385.67773 L 842.75781 368.8418 z M 230.48633 369.08789 L 247.32031 369.08789 L 238.90234 383.66602 L 230.48633 369.08789 z M 214.75 371.83203 L 228.65625 395.92188 L 204.56641 409.83008 L 190.6582 385.74023 L 214.75 371.83203 z M 263.05469 371.83203 L 287.14648 385.74023 L 273.23828 409.83008 L 249.14844 395.92188 L 263.05469 371.83203 z M 374.54102 371.83203 L 388.45117 395.92188 L 364.36133 409.83008 L 350.45312 385.74023 L 374.54102 371.83203 z M 93.019531 374.57812 L 93.019531 391.41211 L 78.441406 382.99414 L 93.019531 374.57812 z M 108.01953 374.57812 L 122.59961 382.99414 L 108.01953 391.41211 L 108.01953 374.57812 z M 537.08008 376.58789 L 545.49805 391.16797 L 528.66211 391.16797 L 537.08008 376.58789 z M 443.27539 384.75977 L 471.0918 384.75977 L 471.0918 412.57422 L 443.27539 412.57422 L 443.27539 384.75977 z M 603.06836 384.75977 L 630.88477 384.75977 L 630.88477 412.57422 L 603.06836 412.57422 L 603.06836 384.75977 z M 885.32812 384.75977 L 902.16211 384.75977 L 893.74414 399.33984 L 885.32812 384.75977 z M 800.92188 387.50391 L 825.01172 401.41211 L 811.10352 425.50195 L 787.01367 411.59375 L 800.92188 387.50391 z M 869.5918 387.50391 L 883.5 411.59375 L 859.41016 425.5 L 845.50391 401.41211 L 869.5918 387.50391 z M 709.79883 387.50586 L 723.70703 411.59375 L 699.61719 425.50195 L 685.70898 401.41211 L 709.79883 387.50586 z M 428.27539 390.25 L 428.27539 407.08398 L 413.69531 398.66797 L 428.27539 390.25 z M 486.0918 390.25 L 500.66992 398.66797 L 486.0918 407.08398 L 486.0918 390.25 z M 588.06836 390.25 L 588.06836 407.08398 L 573.48828 398.66797 L 588.06836 390.25 z M 645.88477 390.25 L 660.46484 398.66602 L 645.88477 407.08398 L 645.88477 390.25 z M 150.58984 390.49414 L 167.42578 390.49414 L 159.00781 405.07422 L 150.58984 390.49414 z M 301.7207 390.49414 L 335.87695 390.49414 L 352.95508 420.07422 L 335.87695 449.6543 L 301.7207 449.6543 L 284.64258 420.07422 L 301.7207 390.49414 z M 915.15234 392.25977 L 923.57031 406.83984 L 906.73633 406.83984 L 915.15234 392.25977 z M 66.183594 393.24023 L 90.273438 407.14844 L 76.365234 431.23828 L 52.275391 417.33008 L 66.183594 393.24023 z M 134.85352 393.24023 L 148.76172 417.33008 L 124.67188 431.23828 L 110.76367 407.14844 L 134.85352 393.24023 z M 180.41406 397.99609 L 188.83203 412.57422 L 171.99805 412.57422 L 180.41406 397.99609 z M 528.66406 406.16797 L 545.49609 406.16797 L 537.08008 420.74609 L 528.66406 406.16797 z M 512.92578 408.91211 L 526.83398 433.00195 L 502.74609 446.9082 L 488.83789 422.82031 L 512.92578 408.91211 z M 561.23438 408.91211 L 585.32227 422.82031 L 571.41406 446.91016 L 547.32617 433.00195 L 561.23438 408.91211 z M 672.7207 408.91211 L 686.62891 433.00195 L 662.53906 446.9082 L 648.63086 422.82031 L 672.7207 408.91211 z M 231.40234 411.65625 L 231.40234 428.49219 L 216.82227 420.07422 L 231.40234 411.65625 z M 391.19531 411.65625 L 391.19531 428.49219 L 376.61523 420.07422 L 391.19531 411.65625 z M 246.40234 411.6582 L 260.98242 420.07422 L 246.40234 428.49219 L 246.40234 411.6582 z M 406.19531 411.6582 L 420.77539 420.07422 L 406.19531 428.49219 L 406.19531 411.6582 z M 835.25781 413.66797 L 843.67383 428.24609 L 826.83984 428.24609 L 835.25781 413.66797 z M 100.51953 419.40234 L 108.9375 433.98242 L 92.101562 433.98242 L 100.51953 419.40234 z M 741.45312 421.83984 L 769.26953 421.83984 L 769.26953 449.6543 L 741.45312 449.6543 L 741.45312 421.83984 z M 901.24414 421.83984 L 929.06055 421.83984 L 929.06055 449.6543 L 901.24414 449.6543 L 901.24414 421.83984 z M 726.45312 427.33008 L 726.45312 444.16406 L 711.87305 435.74805 L 726.45312 427.33008 z M 784.26953 427.33008 L 798.84766 435.74609 L 784.26953 444.16406 L 784.26953 427.33008 z M 886.24414 427.33008 L 886.24414 444.16406 L 871.66602 435.74609 L 886.24414 427.33008 z M 944.06055 427.33008 L 958.64062 435.74609 L 944.06055 444.16406 L 944.06055 427.33008 z M 166.50781 427.57422 L 194.32227 427.57422 L 194.32227 455.39062 L 166.50781 455.39062 L 166.50781 427.57422 z M 448.76562 427.57422 L 465.60156 427.57422 L 457.18359 442.1543 L 448.76562 427.57422 z M 599.89844 427.57422 L 634.05469 427.57422 L 651.13281 457.1543 L 634.05469 486.73438 L 599.89844 486.73438 L 582.82031 457.1543 L 599.89844 427.57422 z M 364.36133 430.31836 L 388.45117 444.22656 L 374.54102 468.31641 L 350.45312 454.4082 L 364.36133 430.31836 z M 273.23828 430.32031 L 287.14453 454.41016 L 263.05664 468.31836 L 249.14844 444.22852 L 273.23828 430.32031 z M 433.0293 430.32031 L 446.9375 454.4082 L 422.84766 468.31836 L 408.93945 444.22852 L 433.0293 430.32031 z M 49.529297 433.06445 L 64.109375 441.48242 L 49.529297 449.90039 L 49.529297 433.06445 z M 151.50781 433.06445 L 151.50781 449.90039 L 136.92773 441.48242 L 151.50781 433.06445 z M 209.32227 433.06445 L 223.9043 441.48242 L 209.32227 449.90039 L 209.32227 433.06445 z M 478.5918 435.07422 L 487.00977 449.6543 L 470.17383 449.6543 L 478.5918 435.07422 z M 826.83984 443.24609 L 843.67383 443.24609 L 835.25781 457.82617 L 826.83984 443.24609 z M 811.10352 445.99219 L 825.01172 470.08203 L 800.92383 483.98828 L 787.01562 459.90039 L 811.10352 445.99219 z M 859.41016 445.99414 L 883.5 459.89844 L 869.5918 483.98828 L 845.50391 470.08203 L 859.41016 445.99414 z M 689.37305 448.73633 L 689.37305 465.57227 L 674.79297 457.1543 L 689.37305 448.73633 z M 704.37305 448.73633 L 718.95312 457.1543 L 704.37305 465.57227 L 704.37305 448.73633 z M 529.58008 448.73828 L 529.58008 465.57227 L 515 457.1543 L 529.58008 448.73828 z M 544.58008 448.73828 L 559.16016 457.1543 L 544.58008 465.57227 L 544.58008 448.73828 z M 92.099609 448.98242 L 108.9375 448.98242 L 100.51953 463.5625 L 92.099609 448.98242 z M 76.365234 451.72656 L 90.275391 475.81836 L 66.185547 489.72656 L 52.275391 465.63477 L 76.365234 451.72656 z M 124.67188 451.72656 L 148.76172 465.63672 L 134.85352 489.72656 L 110.76367 475.81836 L 124.67188 451.72656 z M 236.1582 451.72852 L 250.06641 475.81836 L 225.97656 489.72656 L 212.06836 465.63672 L 236.1582 451.72852 z M 398.69531 456.48242 L 407.11328 471.0625 L 390.27734 471.0625 L 398.69531 456.48242 z M 304.89062 464.6543 L 332.70703 464.6543 L 332.70703 492.4707 L 304.89062 492.4707 L 304.89062 464.6543 z M 464.68359 464.6543 L 492.5 464.6543 L 492.5 492.4707 L 464.68359 492.4707 L 464.68359 464.6543 z M 746.94336 464.6543 L 763.77734 464.6543 L 755.36133 479.23438 L 746.94336 464.6543 z M 898.07422 464.6543 L 932.23047 464.6543 L 949.30859 494.23438 L 932.23047 523.81445 L 898.07422 523.81445 L 880.99805 494.23438 L 898.07422 464.6543 z M 571.41602 467.40039 L 585.32227 491.49023 L 561.23438 505.39844 L 547.32617 481.30859 L 571.41602 467.40039 z M 662.53711 467.40039 L 686.62695 481.30664 L 672.71875 505.39844 L 648.63086 491.48828 L 662.53711 467.40039 z M 731.20898 467.40039 L 745.11523 491.48828 L 721.02539 505.39844 L 707.11914 481.30859 L 731.20898 467.40039 z M 289.89062 470.14453 L 289.89062 486.98047 L 275.31055 478.5625 L 289.89062 470.14453 z M 347.70703 470.14453 L 362.28711 478.5625 L 347.70703 486.98047 L 347.70703 470.14453 z M 449.68359 470.14453 L 449.68359 486.98047 L 435.10352 478.5625 L 449.68359 470.14453 z M 507.5 470.14453 L 522.08008 478.5625 L 507.5 486.98047 L 507.5 470.14453 z M 163.33789 470.39062 L 197.49219 470.39062 L 214.57031 499.9707 L 197.49219 529.55078 L 163.33789 529.55078 L 146.25977 499.9707 L 163.33789 470.39062 z M 776.76953 472.1543 L 785.1875 486.73438 L 768.35156 486.73438 L 776.76953 472.1543 z M 42.029297 477.89062 L 50.449219 492.4707 L 33.611328 492.4707 L 42.029297 477.89062 z M 827.75781 485.81836 L 827.75781 502.65234 L 813.17773 494.23438 L 827.75781 485.81836 z M 842.75781 485.81836 L 857.33594 494.23438 L 842.75781 502.65234 L 842.75781 485.81836 z M 390.27734 486.0625 L 407.11328 486.0625 L 398.69531 500.64258 L 390.27734 486.0625 z M 422.84766 488.80664 L 446.9375 502.7168 L 433.0293 526.80664 L 408.93945 512.89844 L 422.84766 488.80664 z M 374.54297 488.80859 L 388.45117 512.89648 L 364.35938 526.80469 L 350.45312 502.7168 L 374.54297 488.80859 z M 534.33594 488.80859 L 548.24414 512.89844 L 524.1543 526.80664 L 510.24609 502.7168 L 534.33594 488.80859 z M 108.01953 491.55273 L 122.59961 499.9707 L 108.01953 508.38867 L 108.01953 491.55273 z M 252.81055 491.55273 L 252.81055 508.39062 L 238.23047 499.9707 L 252.81055 491.55273 z M 267.81055 491.55273 L 282.39258 499.9707 L 267.81055 508.39062 L 267.81055 491.55273 z M 93.019531 491.55469 L 93.019531 508.39062 L 78.439453 499.9707 L 93.019531 491.55469 z M 696.87305 493.5625 L 705.29102 508.14258 L 688.45508 508.14258 L 696.87305 493.5625 z M 603.06836 501.73438 L 630.88477 501.73438 L 630.88477 529.55078 L 603.06836 529.55078 L 603.06836 501.73438 z M 762.86133 501.73438 L 790.67773 501.73438 L 790.67773 529.55078 L 762.86133 529.55078 L 762.86133 501.73438 z M 869.5918 504.48047 L 883.5 528.57031 L 859.41016 542.47852 L 845.50195 518.38867 L 869.5918 504.48047 z M 588.06836 507.22461 L 588.06836 524.06055 L 573.48828 515.64258 L 588.06836 507.22461 z M 645.88477 507.22461 L 660.46484 515.64258 L 645.88477 524.06055 L 645.88477 507.22461 z M 747.86133 507.22461 L 747.86133 524.06055 L 733.28125 515.64258 L 747.86133 507.22461 z M 805.67773 507.22461 L 820.25781 515.64258 L 805.67773 524.06055 L 805.67773 507.22461 z M 310.38086 507.4707 L 327.2168 507.4707 L 318.79883 522.05078 L 310.38086 507.4707 z M 461.51367 507.4707 L 495.66992 507.4707 L 512.74805 537.05078 L 495.66992 566.63086 L 461.51367 566.63086 L 444.43555 537.05078 L 461.51367 507.4707 z M 134.85547 510.2168 L 148.76172 534.30664 L 124.67383 548.21484 L 110.76367 524.125 L 134.85547 510.2168 z M 225.97461 510.2168 L 250.06641 524.125 L 236.1582 548.21484 L 212.06836 534.30469 L 225.97461 510.2168 z M 294.64648 510.2168 L 308.55273 534.30469 L 284.46289 548.21484 L 270.55469 524.125 L 294.64648 510.2168 z M 70.939453 512.96094 L 85.519531 521.38086 L 70.939453 529.79688 L 70.939453 512.96094 z M 340.20703 514.9707 L 348.625 529.55078 L 331.79102 529.55078 L 340.20703 514.9707 z M 688.45508 523.14258 L 705.29102 523.14258 L 696.87305 537.72266 L 688.45508 523.14258 z M 672.7207 525.88672 L 686.62891 549.97656 L 662.53906 563.88477 L 648.63086 539.79688 L 672.7207 525.88672 z M 721.02539 525.88672 L 745.11523 539.79688 L 731.20703 563.88672 L 707.11719 549.97852 L 721.02539 525.88672 z M 832.51367 525.88867 L 846.41992 549.97852 L 822.33008 563.88477 L 808.42383 539.79688 L 832.51367 525.88867 z M 391.19531 528.63281 L 391.19531 545.46875 L 376.61523 537.05078 L 391.19531 528.63281 z M 406.19531 528.63281 L 420.77539 537.05078 L 406.19531 545.46875 L 406.19531 528.63281 z M 550.98828 528.63477 L 550.98828 545.46875 L 536.4082 537.05078 L 550.98828 528.63477 z M 565.98828 528.63477 L 580.56836 537.05078 L 565.98828 545.46875 L 565.98828 528.63477 z M 97.773438 531.625 L 111.68164 555.71484 L 87.591797 569.62305 L 73.683594 545.5332 L 97.773438 531.625 z M 260.31055 536.38086 L 268.72852 550.96094 L 251.89258 550.96094 L 260.31055 536.38086 z M 901.24414 538.81445 L 929.06055 538.81445 L 929.06055 566.63086 L 901.24414 566.63086 L 901.24414 538.81445 z M 886.24414 544.30469 L 886.24414 561.14062 L 871.66406 552.72266 L 886.24414 544.30469 z M 944.06055 544.30469 L 958.64062 552.72266 L 944.06055 561.14062 L 944.06055 544.30469 z M 166.50781 544.55078 L 194.32227 544.55078 L 194.32227 572.36719 L 166.50781 572.36719 L 166.50781 544.55078 z M 326.29883 544.55078 L 354.11523 544.55078 L 354.11523 572.36719 L 326.29883 572.36719 L 326.29883 544.55078 z M 608.55859 544.55078 L 625.39453 544.55078 L 616.97656 559.13086 L 608.55859 544.55078 z M 759.69141 544.55078 L 793.84766 544.55078 L 810.92383 574.13086 L 793.84766 603.71094 L 759.69141 603.71094 L 742.61328 574.13086 L 759.69141 544.55078 z M 433.03125 547.29688 L 446.9375 571.38477 L 422.84766 585.29297 L 408.94141 561.20508 L 433.03125 547.29688 z M 524.15234 547.29688 L 548.24219 561.20508 L 534.33398 585.29492 L 510.24414 571.38672 L 524.15234 547.29688 z M 592.82422 547.29688 L 606.73047 571.38477 L 582.64062 585.29297 L 568.73438 561.20508 L 592.82422 547.29688 z M 151.50781 550.04102 L 151.50781 566.87695 L 136.92773 558.45898 L 151.50781 550.04102 z M 209.32227 550.04102 L 223.90234 558.45898 L 209.32227 566.87695 L 209.32227 550.04102 z M 311.29883 550.04102 L 311.29883 566.87695 L 296.71875 558.45898 L 311.29883 550.04102 z M 369.11523 550.04102 L 383.69531 558.45898 L 369.11523 566.87695 L 369.11523 550.04102 z M 638.38477 552.05078 L 646.80273 566.63086 L 629.9668 566.63086 L 638.38477 552.05078 z M 689.37305 565.71289 L 689.37305 582.54883 L 674.79297 574.13086 L 689.37305 565.71289 z M 704.37305 565.71289 L 718.95312 574.13086 L 704.37305 582.54883 L 704.37305 565.71289 z M 864.16406 565.71289 L 878.74414 574.13086 L 864.16406 582.54883 L 864.16406 565.71289 z M 849.16406 565.71484 L 849.16406 582.54688 L 834.58594 574.13086 L 849.16406 565.71484 z M 251.89453 565.96094 L 268.72656 565.96094 L 260.31055 580.53906 L 251.89453 565.96094 z M 236.15625 568.70508 L 250.06445 592.79492 L 225.97461 606.70117 L 212.06836 582.61328 L 236.15625 568.70508 z M 284.46484 568.70508 L 308.55273 582.61328 L 294.64453 606.70312 L 270.55469 592.79492 L 284.46484 568.70508 z M 395.94922 568.70508 L 409.85742 592.79297 L 385.76953 606.70117 L 371.86133 582.61133 L 395.94922 568.70508 z M 114.42773 571.44922 L 114.42773 588.28516 L 99.847656 579.86719 L 114.42773 571.44922 z M 129.42773 571.45117 L 144.00781 579.86719 L 129.42773 588.28516 L 129.42773 571.45117 z M 558.48828 573.46094 L 566.90625 588.03906 L 550.07031 588.03906 L 558.48828 573.46094 z M 464.68359 581.63086 L 492.5 581.63086 L 492.5 609.44727 L 464.68359 609.44727 L 464.68359 581.63086 z M 624.47656 581.63086 L 652.29297 581.63086 L 652.29297 609.44727 L 624.47656 609.44727 L 624.47656 581.63086 z M 906.73438 581.63086 L 923.57031 581.63086 L 915.15234 596.21094 L 906.73438 581.63086 z M 731.20703 584.375 L 745.11719 608.4668 L 721.02539 622.375 L 707.11719 598.2832 L 731.20703 584.375 z M 822.33008 584.37695 L 846.41797 598.2832 L 832.51172 622.37305 L 808.42383 608.46484 L 822.33008 584.37695 z M 891 584.37695 L 904.90625 608.46484 L 880.81836 622.375 L 866.91016 598.28516 L 891 584.37695 z M 449.68359 587.12109 L 449.68359 603.95703 L 435.10156 595.53906 L 449.68359 587.12109 z M 507.5 587.12109 L 522.08008 595.53906 L 507.5 603.95703 L 507.5 587.12109 z M 609.47656 587.12109 L 609.47656 603.95703 L 594.89648 595.53906 L 609.47656 587.12109 z M 667.29297 587.12109 L 681.87305 595.53906 L 667.29297 603.95703 L 667.29297 587.12109 z M 171.99805 587.36719 L 188.83203 587.36719 L 180.41406 601.94727 L 171.99805 587.36719 z M 323.12891 587.36719 L 357.28516 587.36719 L 374.36328 616.94727 L 357.28516 646.52734 L 323.12891 646.52734 L 306.05078 616.94727 L 323.12891 587.36719 z M 936.56055 589.13086 L 944.98047 603.71094 L 928.14258 603.71094 L 936.56055 589.13086 z M 87.59375 590.11133 L 111.68359 604.01953 L 97.773438 628.11133 L 73.683594 614.20312 L 87.59375 590.11133 z M 156.26172 590.11328 L 170.16992 614.20312 L 146.08008 628.10938 L 132.17188 604.02148 L 156.26172 590.11328 z M 201.82227 594.86719 L 210.24023 609.44727 L 193.40625 609.44727 L 201.82227 594.86719 z M 550.07031 603.03906 L 566.90625 603.03906 L 558.48828 617.61914 L 550.07031 603.03906 z M 534.33398 605.7832 L 548.24219 629.875 L 524.1543 643.78125 L 510.24609 619.69336 L 534.33398 605.7832 z M 582.64062 605.7832 L 606.73047 619.69336 L 592.82227 643.7832 L 568.73438 629.875 L 582.64062 605.7832 z M 694.12695 605.7832 L 708.03711 629.875 L 683.94727 643.7832 L 670.03906 619.69141 L 694.12695 605.7832 z M 252.81055 608.5293 L 252.81055 625.36523 L 238.23047 616.94727 L 252.81055 608.5293 z M 267.81055 608.5293 L 282.39062 616.94727 L 267.81055 625.36523 L 267.81055 608.5293 z M 412.60352 608.5293 L 412.60352 625.36523 L 398.02344 616.94727 L 412.60352 608.5293 z M 427.60352 608.5293 L 442.18359 616.94727 L 427.60352 625.36523 L 427.60352 608.5293 z M 856.66406 610.53906 L 865.08203 625.11914 L 848.24805 625.11914 L 856.66406 610.53906 z M 121.92773 616.27539 L 130.34375 630.85547 L 113.50977 630.85547 L 121.92773 616.27539 z M 762.86133 618.71094 L 790.67773 618.71094 L 790.67773 646.52734 L 762.86133 646.52734 L 762.86133 618.71094 z M 922.65234 618.71094 L 950.4707 618.71094 L 950.4707 646.52734 L 922.65234 646.52734 L 922.65234 618.71094 z M 805.67773 624.20117 L 820.25586 632.61914 L 805.67773 641.03711 L 805.67773 624.20117 z M 907.65234 624.20117 L 907.65234 641.03711 L 893.07227 632.61914 L 907.65234 624.20117 z M 965.4707 624.20117 L 980.05078 632.61914 L 965.4707 641.03711 L 965.4707 624.20117 z M 747.86133 624.20312 L 747.86133 641.03711 L 733.28125 632.61914 L 747.86133 624.20312 z M 187.91406 624.44727 L 215.73047 624.44727 L 215.73047 652.26367 L 187.91406 652.26367 L 187.91406 624.44727 z M 470.17383 624.44727 L 487.00977 624.44727 L 478.5918 639.02734 L 470.17383 624.44727 z M 621.30664 624.44727 L 655.46289 624.44727 L 672.54102 654.02734 L 655.46289 683.60742 L 621.30664 683.60742 L 604.22852 654.02734 L 621.30664 624.44727 z M 385.76953 627.19141 L 409.85938 641.09961 L 395.94922 665.19141 L 371.85938 651.2832 L 385.76953 627.19141 z M 294.64648 627.19336 L 308.55273 651.2832 L 284.46484 665.19141 L 270.55664 641.10156 L 294.64648 627.19336 z M 454.4375 627.19336 L 468.3457 651.2832 L 444.25586 665.19141 L 430.34766 641.10156 L 454.4375 627.19336 z M 70.939453 629.9375 L 85.519531 638.35547 L 70.939453 646.77344 L 70.939453 629.9375 z M 172.91406 629.9375 L 172.91406 646.77344 L 158.33594 638.35547 L 172.91406 629.9375 z M 230.73047 629.9375 L 245.3125 638.35547 L 230.73047 646.77344 L 230.73047 629.9375 z M 500 631.94727 L 508.41797 646.52734 L 491.58203 646.52734 L 500 631.94727 z M 848.24805 640.11914 L 865.08203 640.11914 L 856.66406 654.69727 L 848.24805 640.11914 z M 832.51172 642.86523 L 846.41992 666.95508 L 822.33008 680.86133 L 808.42383 656.77344 L 832.51172 642.86523 z M 880.81641 642.86523 L 904.90625 656.77344 L 891 680.86133 L 866.91016 666.95312 L 880.81641 642.86523 z M 710.78125 645.60938 L 710.78125 662.44531 L 696.20117 654.02734 L 710.78125 645.60938 z M 725.78125 645.60938 L 740.36133 654.02734 L 725.78125 662.44531 L 725.78125 645.60938 z M 550.98828 645.61133 L 550.98828 662.44531 L 536.4082 654.02734 L 550.98828 645.61133 z M 565.98828 645.61133 L 580.56836 654.02734 L 565.98828 662.44531 L 565.98828 645.61133 z M 113.50977 645.85547 L 130.34375 645.85547 L 121.92773 660.43555 L 113.50977 645.85547 z M 97.775391 648.59961 L 111.68359 672.68945 L 87.591797 686.59766 L 73.685547 662.50977 L 97.775391 648.59961 z M 146.08008 648.60156 L 170.16992 662.50781 L 156.26172 686.59961 L 132.17188 672.69141 L 146.08008 648.60156 z M 257.56641 648.60156 L 271.47461 672.69141 L 247.38477 686.59961 L 233.47656 662.50977 L 257.56641 648.60156 z M 420.10352 653.35547 L 428.52148 667.93555 L 411.68555 667.93555 L 420.10352 653.35547 z M 326.29883 661.52734 L 354.11523 661.52734 L 354.11523 689.34375 L 326.29883 689.34375 L 326.29883 661.52734 z M 486.0918 661.52734 L 513.9082 661.52734 L 513.9082 689.34375 L 486.0918 689.34375 L 486.0918 661.52734 z M 768.35156 661.52734 L 785.1875 661.52734 L 776.76953 676.10742 L 768.35156 661.52734 z M 919.48242 661.52734 L 953.64062 661.52734 L 970.71875 691.10742 L 953.64062 720.6875 L 919.48242 720.6875 L 902.40625 691.10742 L 919.48242 661.52734 z M 683.94727 664.27148 L 708.03516 678.17969 L 694.12695 702.27148 L 670.03906 688.36133 L 683.94727 664.27148 z M 592.82422 664.27344 L 606.73047 688.36328 L 582.64258 702.27148 L 568.73438 678.18164 L 592.82422 664.27344 z M 752.61719 664.27344 L 766.52344 688.36328 L 742.43359 702.27148 L 728.52734 678.18164 L 752.61719 664.27344 z M 311.29883 667.01758 L 311.29883 683.85352 L 296.71875 675.43555 L 311.29883 667.01758 z M 369.11523 667.01758 L 383.69531 675.43555 L 369.11523 683.85352 L 369.11523 667.01758 z M 471.0918 667.01758 L 471.0918 683.85352 L 456.51172 675.43555 L 471.0918 667.01758 z M 528.9082 667.01758 L 543.48828 675.43555 L 528.9082 683.85352 L 528.9082 667.01758 z M 33.613281 667.26367 L 50.447266 667.26367 L 42.029297 681.84375 L 33.613281 667.26367 z M 184.74414 667.26367 L 218.90039 667.26367 L 235.97852 696.84375 L 218.90039 726.42383 L 184.74414 726.42383 L 167.66797 696.84375 L 184.74414 667.26367 z M 798.17773 669.02734 L 806.59375 683.60742 L 789.75977 683.60742 L 798.17773 669.02734 z M 63.439453 674.76172 L 71.857422 689.34375 L 55.019531 689.34375 L 63.439453 674.76172 z M 849.16406 682.68945 L 849.16406 699.52344 L 834.58594 691.10742 L 849.16406 682.68945 z M 864.16406 682.68945 L 878.74414 691.10742 L 864.16406 699.52539 L 864.16406 682.68945 z M 411.68555 682.93555 L 428.52148 682.93555 L 420.10352 697.51562 L 411.68555 682.93555 z M 395.95117 685.67969 L 409.85938 709.76953 L 385.76953 723.67773 L 371.86133 699.58984 L 395.95117 685.67969 z M 444.25586 685.67969 L 468.3457 699.58984 L 454.4375 723.67969 L 430.34766 709.77148 L 444.25586 685.67969 z M 555.74414 685.68164 L 569.65234 709.77148 L 545.5625 723.67969 L 531.6543 699.58984 L 555.74414 685.68164 z M 114.42773 688.42578 L 114.42773 705.26172 L 99.847656 696.84375 L 114.42773 688.42578 z M 129.42773 688.42578 L 144.00781 696.84375 L 129.42773 705.26172 L 129.42773 688.42578 z M 274.21875 688.42578 L 274.21875 705.26172 L 259.63867 696.84375 L 274.21875 688.42578 z M 289.21875 688.42578 L 303.79883 696.84375 L 289.21875 705.26172 L 289.21875 688.42578 z M 718.28125 690.43555 L 726.69922 705.01562 L 709.86328 705.01562 L 718.28125 690.43555 z M 624.47656 698.60742 L 652.29297 698.60742 L 652.29297 726.42383 L 624.47656 726.42383 L 624.47656 698.60742 z M 784.26953 698.60742 L 812.08594 698.60742 L 812.08594 726.42383 L 784.26953 726.42383 L 784.26953 698.60742 z M 891 701.35352 L 904.90625 725.44336 L 880.81836 739.35156 L 866.91016 715.26172 L 891 701.35352 z M 609.47656 704.09766 L 609.47656 720.93359 L 594.89648 712.51562 L 609.47656 704.09766 z M 667.29297 704.09766 L 681.87305 712.51562 L 667.29297 720.93359 L 667.29297 704.09766 z M 769.26953 704.09766 L 769.26953 720.93359 L 754.68945 712.51562 L 769.26953 704.09766 z M 827.08594 704.09961 L 841.66602 712.51562 L 827.08594 720.93359 L 827.08594 704.09961 z M 49.529297 704.34375 L 77.347656 704.34375 L 77.347656 732.16016 L 49.529297 732.16016 L 49.529297 704.34375 z M 331.78906 704.34375 L 348.625 704.34375 L 340.20703 718.92383 L 331.78906 704.34375 z M 482.92188 704.34375 L 517.07812 704.34375 L 534.15625 733.92383 L 517.07812 763.50391 L 482.92188 763.50391 L 465.84375 733.92383 L 482.92188 704.34375 z M 247.38477 707.08789 L 271.47461 720.99609 L 257.56445 745.08789 L 233.47461 731.17969 L 247.38477 707.08789 z M 156.26172 707.08984 L 170.16992 731.17969 L 146.08008 745.08594 L 132.17383 720.99805 L 156.26172 707.08984 z M 316.05273 707.08984 L 329.96094 731.17969 L 305.87305 745.08594 L 291.96484 720.99609 L 316.05273 707.08984 z M 34.529297 709.83398 L 34.529297 726.66992 L 19.951172 718.25195 L 34.529297 709.83398 z M 92.347656 709.83398 L 106.92773 718.25195 L 92.347656 726.66797 L 92.347656 709.83398 z M 361.61523 711.84375 L 370.0332 726.42383 L 353.19727 726.42383 L 361.61523 711.84375 z M 709.86328 720.01562 L 726.69922 720.01562 L 718.28125 734.5957 L 709.86328 720.01562 z M 694.12891 722.75977 L 708.03711 746.84961 L 683.94727 760.75781 L 670.03906 736.66992 L 694.12891 722.75977 z M 742.43359 722.76172 L 766.52344 736.66992 L 752.61523 760.75977 L 728.52539 746.85156 L 742.43359 722.76172 z M 853.91992 722.76172 L 867.82812 746.85156 L 843.73828 760.75977 L 829.83008 736.66797 L 853.91992 722.76172 z M 412.60352 725.50586 L 412.60352 742.3418 L 398.02344 733.92383 L 412.60352 725.50586 z M 427.60352 725.50586 L 442.18359 733.92383 L 427.60352 742.3418 L 427.60352 725.50586 z M 572.39648 725.50586 L 572.39648 742.3418 L 557.81641 733.92383 L 572.39648 725.50586 z M 587.39648 725.50586 L 601.97656 733.92383 L 587.39648 742.3418 L 587.39648 725.50586 z M 119.18359 728.49805 L 133.08984 752.58594 L 109 766.49414 L 95.091797 742.4043 L 119.18359 728.49805 z M 281.71875 733.25195 L 290.13672 747.83203 L 273.30078 747.83203 L 281.71875 733.25195 z M 922.65234 735.6875 L 950.4707 735.6875 L 950.4707 763.50391 L 922.65234 763.50391 L 922.65234 735.6875 z M 907.65234 741.17773 L 907.65234 758.01367 L 893.07227 749.5957 L 907.65234 741.17773 z M 965.4707 741.17773 L 980.05078 749.5957 L 965.4707 758.01367 L 965.4707 741.17773 z M 187.91406 741.42383 L 215.73047 741.42383 L 215.73047 769.24023 L 187.91406 769.24023 L 187.91406 741.42383 z M 347.70703 741.42383 L 375.52344 741.42383 L 375.52344 769.24023 L 347.70703 769.24023 L 347.70703 741.42383 z M 629.9668 741.42383 L 646.80273 741.42383 L 638.38477 756.00391 L 629.9668 741.42383 z M 781.09961 741.42383 L 815.25586 741.42383 L 832.33203 771.00391 L 815.25586 800.58398 L 781.09961 800.58398 L 764.02148 771.00391 L 781.09961 741.42383 z M 545.5625 744.16797 L 569.65039 758.07617 L 555.74219 782.16797 L 531.6543 768.25781 L 545.5625 744.16797 z M 454.43945 744.16992 L 468.3457 768.25781 L 444.25586 782.16602 L 430.34961 758.07812 L 454.43945 744.16992 z M 614.23242 744.16992 L 628.13867 768.25977 L 604.04883 782.16602 L 590.14258 758.07812 L 614.23242 744.16992 z M 172.91406 746.91406 L 172.91406 763.74805 L 158.33594 755.33203 L 172.91406 746.91406 z M 230.73047 746.91406 L 245.31055 755.33203 L 230.73047 763.75 L 230.73047 746.91406 z M 332.70703 746.91406 L 332.70703 763.75 L 318.12891 755.33203 L 332.70703 746.91406 z M 390.52344 746.91602 L 405.10156 755.33203 L 390.52344 763.75 L 390.52344 746.91602 z M 46.359375 747.16016 L 80.517578 747.16016 L 97.59375 776.74023 L 80.517578 806.32031 L 46.359375 806.32031 L 29.28125 776.74023 L 46.359375 747.16016 z M 659.79297 748.92383 L 668.21094 763.50391 L 651.375 763.50391 L 659.79297 748.92383 z M 710.78125 762.58594 L 710.78125 779.42188 L 696.20117 771.00391 L 710.78125 762.58594 z M 725.78125 762.58594 L 740.36133 771.00391 L 725.78125 779.42188 L 725.78125 762.58594 z M 870.57227 762.58594 L 870.57227 779.42188 L 855.99219 771.00391 L 870.57227 762.58594 z M 885.57227 762.58594 L 900.15234 771.00391 L 885.57227 779.42188 L 885.57227 762.58594 z M 273.30078 762.83203 L 290.13672 762.83203 L 281.71875 777.41211 L 273.30078 762.83203 z M 257.56641 765.57617 L 271.47266 789.66602 L 247.38477 803.57422 L 233.47656 779.48633 L 257.56641 765.57617 z M 305.87305 765.57812 L 329.96094 779.48633 L 316.05273 803.57617 L 291.96484 789.66797 L 305.87305 765.57812 z M 417.35938 765.57812 L 431.26562 789.66602 L 407.17578 803.57422 L 393.26953 779.48633 L 417.35938 765.57812 z M 135.83594 768.32227 L 135.83594 785.1582 L 121.25586 776.74023 L 135.83594 768.32227 z M 150.83594 768.32227 L 165.41602 776.74023 L 150.83594 785.1582 L 150.83594 768.32227 z M 579.89648 770.33203 L 588.31445 784.91211 L 571.47852 784.91211 L 579.89648 770.33203 z M 486.0918 778.50391 L 513.9082 778.50391 L 513.9082 806.32031 L 486.0918 806.32031 L 486.0918 778.50391 z M 645.88477 778.50391 L 673.70117 778.50391 L 673.70117 806.32031 L 645.88477 806.32031 L 645.88477 778.50391 z M 928.14258 778.50391 L 944.98047 778.50391 L 936.56055 793.08398 L 928.14258 778.50391 z M 752.61523 781.24805 L 766.52344 805.33789 L 742.43359 819.24609 L 728.52539 795.15625 L 752.61523 781.24805 z M 843.73828 781.24805 L 867.82617 795.15625 L 853.91992 819.24609 L 829.83008 805.33984 L 843.73828 781.24805 z M 912.4082 781.25 L 926.31445 805.33984 L 902.22461 819.24805 L 888.31641 795.15625 L 912.4082 781.25 z M 471.0918 783.99414 L 471.0918 800.83008 L 456.51172 792.41211 L 471.0918 783.99414 z M 528.9082 783.99414 L 543.48828 792.41211 L 528.9082 800.83008 L 528.9082 783.99414 z M 630.88477 783.99414 L 630.88477 800.83008 L 616.30469 792.41211 L 630.88477 783.99414 z M 688.70117 783.99414 L 703.28125 792.41211 L 688.70117 800.83008 L 688.70117 783.99414 z M 193.4043 784.24023 L 210.24023 784.24023 L 201.82227 798.82031 L 193.4043 784.24023 z M 344.53711 784.24023 L 378.69336 784.24023 L 395.77148 813.82031 L 378.69336 843.40039 L 344.53711 843.40039 L 327.45898 813.82031 L 344.53711 784.24023 z M 957.9707 786.00391 L 966.38672 800.58398 L 949.55078 800.58398 L 957.9707 786.00391 z M 109 786.98633 L 133.08984 800.89453 L 119.18164 824.98242 L 95.09375 811.07422 L 109 786.98633 z M 177.66797 786.98633 L 191.57617 811.07422 L 167.48828 824.98242 L 153.58008 800.89258 L 177.66797 786.98633 z M 223.23047 791.74023 L 231.64844 806.32031 L 214.81445 806.32031 L 223.23047 791.74023 z M 571.47852 799.91211 L 588.31445 799.91211 L 579.89648 814.49219 L 571.47852 799.91211 z M 555.74219 802.65625 L 569.65039 826.74609 L 545.5625 840.6543 L 531.6543 816.56641 L 555.74219 802.65625 z M 715.53516 802.65625 L 729.44336 826.74609 L 705.35352 840.6543 L 691.44727 816.56445 L 715.53516 802.65625 z M 604.05078 802.6582 L 628.13867 816.56641 L 614.23242 840.6543 L 590.14062 826.74609 L 604.05078 802.6582 z M 274.21875 805.40234 L 274.21875 822.23633 L 259.63867 813.82031 L 274.21875 805.40234 z M 289.21875 805.40234 L 303.79883 813.82031 L 289.21875 822.23828 L 289.21875 805.40234 z M 434.01172 805.40234 L 434.01172 822.23828 L 419.43164 813.82031 L 434.01172 805.40234 z M 449.01172 805.40234 L 463.5918 813.82031 L 449.01172 822.23633 L 449.01172 805.40234 z M 878.07227 807.41211 L 886.49023 821.99219 L 869.65625 821.99219 L 878.07227 807.41211 z M 143.33594 813.15039 L 151.75195 827.72852 L 134.91797 827.72852 L 143.33594 813.15039 z M 784.26953 815.58398 L 812.08594 815.58398 L 812.08594 843.40039 L 784.26953 843.40039 L 784.26953 815.58398 z M 769.26953 821.07422 L 769.26953 837.9082 L 754.68945 829.49219 L 769.26953 821.07422 z M 827.08594 821.07422 L 841.66406 829.49219 L 827.08594 837.91016 L 827.08594 821.07422 z M 929.06055 821.07422 L 929.06055 837.91016 L 914.48047 829.49219 L 929.06055 821.07422 z M 49.529297 821.32031 L 77.347656 821.32031 L 77.347656 849.13672 L 49.529297 849.13672 L 49.529297 821.32031 z M 209.32227 821.32031 L 237.13867 821.32031 L 237.13867 849.13672 L 209.32227 849.13672 L 209.32227 821.32031 z M 491.58203 821.32031 L 508.41602 821.32031 L 500 835.90039 L 491.58203 821.32031 z M 642.71484 821.32031 L 676.87109 821.32031 L 693.94922 850.90039 L 676.87109 880.48047 L 642.71484 880.48047 L 625.63672 850.90039 L 642.71484 821.32031 z M 316.05273 824.06445 L 329.96094 848.1543 L 305.87305 862.0625 L 291.96289 837.97266 L 316.05273 824.06445 z M 407.17773 824.06445 L 431.26758 837.97266 L 417.35938 862.06445 L 393.26953 848.1543 L 407.17773 824.06445 z M 475.8457 824.06445 L 489.75391 848.1543 L 465.66602 862.0625 L 451.75586 837.97266 L 475.8457 824.06445 z M 34.529297 826.81055 L 34.529297 843.64648 L 19.949219 835.22852 L 34.529297 826.81055 z M 92.347656 826.81055 L 106.92773 835.22852 L 92.347656 843.64648 L 92.347656 826.81055 z M 194.32227 826.81055 L 194.32227 843.64648 L 179.74219 835.22852 L 194.32227 826.81055 z M 252.13867 826.81055 L 266.71875 835.22852 L 252.13867 843.64648 L 252.13867 826.81055 z M 521.4082 828.82031 L 529.82617 843.40039 L 512.99023 843.40039 L 521.4082 828.82031 z M 869.65625 836.99219 L 886.49023 836.99219 L 878.07227 851.57227 L 869.65625 836.99219 z M 902.22656 839.73633 L 926.31641 853.64453 L 912.40625 877.73633 L 888.31641 863.82812 L 902.22656 839.73633 z M 853.91992 839.73828 L 867.82812 863.82617 L 843.73828 877.73438 L 829.83008 853.64453 L 853.91992 839.73828 z M 572.39648 842.48242 L 572.39648 859.31641 L 557.81641 850.90039 L 572.39648 842.48242 z M 587.39648 842.48242 L 601.97656 850.90039 L 587.39648 859.31836 L 587.39648 842.48242 z M 732.18945 842.48242 L 732.18945 859.31836 L 717.60938 850.90039 L 732.18945 842.48242 z M 747.18945 842.48242 L 761.76953 850.90039 L 747.18945 859.31836 L 747.18945 842.48242 z M 134.91797 842.72852 L 151.75195 842.72852 L 143.33594 857.30859 L 134.91797 842.72852 z M 119.18164 845.47266 L 133.08984 869.5625 L 109 883.4707 L 95.09375 859.38281 L 119.18164 845.47266 z M 167.48828 845.47266 L 191.57617 859.38281 L 177.66992 883.4707 L 153.58008 869.5625 L 167.48828 845.47266 z M 278.97266 845.47266 L 292.88281 869.56445 L 268.79297 883.47266 L 254.88477 859.38086 L 278.97266 845.47266 z M 441.51172 850.22852 L 449.92969 864.80859 L 433.09375 864.80859 L 441.51172 850.22852 z M 347.70703 858.40039 L 375.52344 858.40039 L 375.52344 886.2168 L 347.70703 886.2168 L 347.70703 858.40039 z M 507.5 858.40039 L 535.31641 858.40039 L 535.31641 886.2168 L 507.5 886.2168 L 507.5 858.40039 z M 789.75977 858.40039 L 806.5957 858.40039 L 798.17773 872.98047 L 789.75977 858.40039 z M 614.23047 861.14453 L 628.13867 885.23438 L 604.04883 899.14258 L 590.14062 875.05273 L 614.23047 861.14453 z M 705.35547 861.14453 L 729.44531 875.05273 L 715.53711 899.14453 L 691.44727 885.23438 L 705.35547 861.14453 z M 774.02344 861.14648 L 787.93164 885.23633 L 763.8418 899.14453 L 749.93359 875.05469 L 774.02344 861.14648 z M 332.70703 863.89062 L 332.70703 880.72656 L 318.12695 872.30859 L 332.70703 863.89062 z M 390.52344 863.89062 L 405.10352 872.30859 L 390.52344 880.72656 L 390.52344 863.89062 z M 492.5 863.89062 L 492.5 880.72656 L 477.91992 872.30859 L 492.5 863.89062 z M 550.31641 863.89062 L 564.89648 872.30859 L 550.31641 880.72656 L 550.31641 863.89062 z M 55.019531 864.13672 L 71.857422 864.13672 L 63.439453 878.7168 L 55.019531 864.13672 z M 206.15234 864.13672 L 240.30859 864.13672 L 257.38672 893.7168 L 240.30859 923.29688 L 206.15234 923.29688 L 189.07617 893.7168 L 206.15234 864.13672 z M 819.58398 865.90039 L 828.00195 880.48047 L 811.16797 880.48047 L 819.58398 865.90039 z M 84.847656 871.63672 L 93.265625 886.2168 L 76.429688 886.2168 L 84.847656 871.63672 z M 870.57227 879.5625 L 870.57227 896.39844 L 855.99219 887.98047 L 870.57227 879.5625 z M 885.57227 879.5625 L 900.15234 887.98047 L 885.57227 896.39844 L 885.57227 879.5625 z M 433.09375 879.80859 L 449.92969 879.80859 L 441.51172 894.38867 L 433.09375 879.80859 z M 577.15039 882.55273 L 591.05859 906.64258 L 566.96875 920.55078 L 553.0625 896.46094 L 577.15039 882.55273 z M 417.35938 882.55469 L 431.26758 906.64258 L 407.17773 920.55078 L 393.26953 896.46289 L 417.35938 882.55469 z M 465.66406 882.55469 L 489.75391 896.46289 L 475.8457 920.55273 L 451.75586 906.64453 L 465.66406 882.55469 z M 295.62891 885.29688 L 295.62891 902.13477 L 281.04688 893.7168 L 295.62891 885.29688 z M 135.83594 885.29883 L 135.83594 902.13477 L 121.25586 893.7168 L 135.83594 885.29883 z M 150.83594 885.30078 L 165.41406 893.7168 L 150.83594 902.13281 L 150.83594 885.30078 z M 310.62891 885.30078 L 325.20703 893.7168 L 310.62891 902.13477 L 310.62891 885.30078 z M 739.68945 887.30859 L 748.10742 901.88867 L 731.27148 901.88867 L 739.68945 887.30859 z M 645.88477 895.48047 L 673.70117 895.48047 L 673.70117 923.29688 L 645.88477 923.29688 L 645.88477 895.48047 z M 805.67773 895.48047 L 833.49219 895.48047 L 833.49219 923.29688 L 805.67773 923.29688 L 805.67773 895.48047 z M 912.40625 898.22461 L 926.31445 922.31445 L 902.22461 936.22266 L 888.31641 912.13281 L 912.40625 898.22461 z M 630.88477 900.9707 L 630.88477 917.80664 L 616.30469 909.38867 L 630.88477 900.9707 z M 688.70117 900.9707 L 703.28125 909.38867 L 688.70117 917.80664 L 688.70117 900.9707 z M 790.67773 900.9707 L 790.67773 917.80664 L 776.09766 909.38867 L 790.67773 900.9707 z M 848.49219 900.9707 L 863.07227 909.38867 L 848.49219 917.80664 L 848.49219 900.9707 z M 70.939453 901.2168 L 98.755859 901.2168 L 98.755859 929.0332 L 70.939453 929.0332 L 70.939453 901.2168 z M 353.19727 901.2168 L 370.0332 901.2168 L 361.61523 915.79688 L 353.19727 901.2168 z M 504.33008 901.2168 L 538.48633 901.2168 L 555.56445 930.79688 L 538.48633 960.37695 L 504.33008 960.37695 L 487.25195 930.79688 L 504.33008 901.2168 z M 268.79297 903.96094 L 292.88281 917.87109 L 278.97461 941.96094 L 254.88477 928.05078 L 268.79297 903.96094 z M 177.66992 903.96289 L 191.57617 928.05078 L 167.48633 941.95898 L 153.58203 917.87109 L 177.66992 903.96289 z M 337.46289 903.96289 L 351.36914 928.05273 L 327.28125 941.95898 L 313.375 917.87109 L 337.46289 903.96289 z M 55.939453 906.70703 L 55.939453 923.54297 L 41.361328 915.125 L 55.939453 906.70703 z M 113.75586 906.70898 L 128.33398 915.125 L 113.75586 923.54297 L 113.75586 906.70898 z M 383.02344 908.7168 L 391.44141 923.29688 L 374.60742 923.29688 L 383.02344 908.7168 z M 731.27148 916.88867 L 748.10742 916.88867 L 739.68945 931.46875 L 731.27148 916.88867 z M 715.53516 919.63281 L 729.44336 943.72461 L 705.35352 957.63086 L 691.44727 933.54297 L 715.53516 919.63281 z M 763.8418 919.63281 L 787.93164 933.54297 L 774.02344 957.63281 L 749.93555 943.72266 L 763.8418 919.63281 z M 875.32617 919.63281 L 889.23438 943.72266 L 865.14648 957.63281 L 851.23828 933.54102 L 875.32617 919.63281 z M 434.01172 922.37891 L 434.01172 939.21484 L 419.43164 930.79688 L 434.01172 922.37891 z M 449.01172 922.37891 L 463.5918 930.79688 L 449.01172 939.21484 L 449.01172 922.37891 z M 593.80469 922.37891 L 593.80469 939.21484 L 579.22461 930.79688 L 593.80469 922.37891 z M 608.80469 922.37891 L 623.38477 930.79688 L 608.80469 939.21484 L 608.80469 922.37891 z M 140.58984 925.37109 L 154.49609 949.45898 L 130.4082 963.36719 L 116.5 939.27734 L 140.58984 925.37109 z M 303.12695 930.125 L 311.54492 944.70508 L 294.70898 944.70508 L 303.12695 930.125 z M 929.06055 938.05078 L 929.06055 954.88672 L 914.48047 946.46875 L 929.06055 938.05078 z M 651.375 938.29688 L 668.21094 938.29688 L 659.79297 952.87695 L 651.375 938.29688 z M 475.84766 941.04102 L 489.75391 965.13086 L 465.66602 979.03906 L 451.75781 954.95117 L 475.84766 941.04102 z M 566.96875 941.04102 L 591.05859 954.94922 L 577.15039 979.03906 L 553.06055 965.13086 L 566.96875 941.04102 z M 635.64062 941.04297 L 649.54688 965.13086 L 625.45898 979.03906 L 611.55078 954.95117 L 635.64062 941.04297 z M 194.32227 943.78711 L 194.32227 960.62305 L 179.74219 952.20508 L 194.32227 943.78711 z M 252.13867 943.78711 L 266.71875 952.20508 L 252.13867 960.62305 L 252.13867 943.78711 z M 354.11523 943.78711 L 354.11523 960.62109 L 339.53516 952.20508 L 354.11523 943.78711 z M 411.93164 943.78906 L 426.50977 952.20508 L 411.93164 960.62109 L 411.93164 943.78906 z M 681.20117 945.79688 L 689.61914 960.37695 L 672.7832 960.37695 L 681.20117 945.79688 z M 732.18945 959.45898 L 732.18945 976.29492 L 717.60938 967.87695 L 732.18945 959.45898 z M 747.18945 959.45898 L 761.76953 967.87695 L 747.18945 976.29492 L 747.18945 959.45898 z M 891.98047 959.45898 L 891.98047 976.29492 L 877.40234 967.87695 L 891.98047 959.45898 z M 906.98047 959.45898 L 921.56055 967.87695 L 906.98047 976.29492 L 906.98047 959.45898 z M 294.71094 959.70508 L 311.54492 959.70508 L 303.12891 974.28516 L 294.71094 959.70508 z "
       id="path454" />
  </g>
</svg>
