<?xml version="1.0" encoding="UTF-8" standalone="no"?>
<svg
   xmlns:dc="http://purl.org/dc/elements/1.1/"
   xmlns:cc="http://creativecommons.org/ns#"
   xmlns:rdf="http://www.w3.org/1999/02/22-rdf-syntax-ns#"
   xmlns:svg="http://www.w3.org/2000/svg"
   xmlns="http://www.w3.org/2000/svg"
   xmlns:sodipodi="http://sodipodi.sourceforge.net/DTD/sodipodi-0.dtd"
   xmlns:inkscape="http://www.inkscape.org/namespaces/inkscape"
   inkscape:version="1.0beta1 (32d4812, 2019-09-19)"
   sodipodi:docname="5-uniform_150.svg"
   id="c:\kuniform\5u\5-uniform_150.svg"
   height="989.39795"
   width="1000.0"
   version="1.0">
  <metadata
     id="metadata8145">
    <rdf:RDF>
      <cc:Work
         rdf:about="">
        <dc:format>image/svg+xml</dc:format>
        <dc:type
           rdf:resource="http://purl.org/dc/dcmitype/StillImage" />
        <dc:title></dc:title>
      </cc:Work>
    </rdf:RDF>
  </metadata>
  <defs
     id="defs8143" />
  <sodipodi:namedview
     inkscape:current-layer="c:\kuniform\5u\5-uniform_150.svg"
     inkscape:window-maximized="1"
     inkscape:window-y="23"
     inkscape:window-x="0"
     inkscape:cy="494.69897"
     inkscape:cx="44.535772"
     inkscape:zoom="0.29310754"
     showgrid="false"
     id="namedview8141"
     inkscape:window-height="1005"
     inkscape:window-width="1680"
     inkscape:pageshadow="2"
     inkscape:pageopacity="0"
     guidetolerance="10"
     gridtolerance="10"
     objecttolerance="10"
     borderopacity="1"
     inkscape:document-rotation="0"
     bordercolor="#666666"
     pagecolor="#ffffff" />
  <!-- X Coordinate transform: fx(x)=(x+72.204895)*0.8687279-->
  <!-- Y Coordinate transform: fy(y)=(1081.9521-y)*0.8687279 -->
  <path
     d="m 86.004,42.515 h 43.436 l 21.718,37.617 -21.718,37.617 H 86.004 L 64.286,80.132 Z m 865.609,882.65 h -43.436 l -21.718,-37.617 21.718,-37.617 h 43.436 l 21.718,37.617 z m -865.609,0 -21.718,-37.617 21.718,-37.617 h 43.436 l 21.718,37.617 -21.718,37.617 z m 865.609,-882.65 21.718,37.617 -21.718,37.617 H 908.177 L 886.459,80.132 908.177,42.515 Z m 0,807.416 h -43.436 l -21.718,-37.617 21.718,-37.617 h 43.436 l 21.718,37.617 z m -865.609,0 -21.718,-37.617 21.718,-37.617 h 43.436 l 21.718,37.617 -21.718,37.617 z m 865.609,-613.511 21.718,37.617 -21.718,37.617 H 908.177 L 886.459,274.037 908.177,236.42 Z M 746.07,42.515 767.788,80.132 746.07,117.749 H 702.634 L 680.915,80.132 702.634,42.515 Z m 102.772,59.335 21.718,37.617 -21.718,37.617 H 805.405 L 783.687,139.467 805.405,101.85 Z M 291.547,42.515 h 43.437 l 21.718,37.617 -21.718,37.617 H 291.547 L 269.829,80.132 Z M 188.776,101.85 h 43.436 l 21.718,37.617 -21.718,37.617 H 188.776 L 167.057,139.467 Z M 86.004,236.42 h 43.436 l 21.718,37.617 -21.718,37.617 H 86.004 L 64.286,274.037 Z M 497.09,505.558 h 43.437 l 21.718,37.617 -21.718,37.617 H 497.09 l -21.718,-37.617 z m 476.241,-156.287 -21.718,37.617 h -43.436 l -21.718,-37.617 21.718,-37.617 h 43.436 z M 746.07,925.165 h -43.436 l -21.719,-37.617 21.719,-37.617 h 43.436 l 21.718,37.617 z m 227.261,-306.756 -21.718,37.617 h -43.436 l -21.718,-37.617 21.718,-37.617 h 43.436 z m 0,-75.234 -21.718,37.617 h -43.436 l -21.718,-37.617 21.718,-37.617 h 43.436 z M 540.527,42.515 562.245,80.132 540.527,117.749 H 497.09 L 475.372,80.132 497.09,42.515 Z m 308.315,134.569 21.718,37.617 -21.718,37.617 h -43.437 l -21.718,-37.617 21.718,-37.617 z M 64.286,349.271 86.004,311.654 h 43.436 l 21.718,37.617 -21.718,37.617 H 86.004 Z m 124.49,-172.187 h 43.436 l 21.718,37.617 -21.718,37.617 h -43.436 l -21.719,-37.617 z m 102.771,748.081 -21.718,-37.617 21.718,-37.617 h 43.437 l 21.718,37.617 -21.718,37.617 z M 64.286,618.409 86.004,580.792 h 43.436 l 21.718,37.617 -21.718,37.617 H 86.004 Z m 0,-75.234 21.718,-37.617 h 43.436 l 21.718,37.617 -21.718,37.617 H 86.004 Z m 784.556,247.42 h -43.437 l -21.718,-37.617 21.718,-37.617 h 43.437 l 21.718,37.617 z M 643.298,101.85 l 21.719,37.617 -21.719,37.617 h -43.436 l -21.718,-37.617 21.718,-37.617 z m -248.979,0 h 43.436 l 21.718,37.617 -21.718,37.617 h -43.436 l -21.718,-37.617 z m -205.543,688.745 -21.719,-37.617 21.719,-37.617 h 43.436 l 21.718,37.617 -21.718,37.617 z m 351.751,134.57 H 497.09 l -21.718,-37.617 21.718,-37.617 h 43.437 l 21.718,37.617 z M 702.634,774.697 h 43.436 l 21.718,37.617 -21.718,37.617 h -43.436 l -21.719,-37.617 z m 102.771,-134.57 h 43.437 l 21.718,37.617 -21.718,37.617 h -43.437 l -21.718,-37.617 z m -470.421,134.57 21.718,37.617 -21.718,37.617 h -43.437 l -21.718,-37.617 21.718,-37.617 z m -81.054,-96.953 -21.718,37.617 h -43.436 l -21.719,-37.617 21.719,-37.617 h 43.436 z M 805.405,370.989 h 43.437 l 21.718,37.617 -21.718,37.617 h -43.437 l -21.718,-37.617 z m 0,150.468 -21.718,-37.617 21.718,-37.617 h 43.437 l 21.718,37.617 -21.718,37.617 z M 578.144,214.701 599.862,177.084 h 43.436 l 21.719,37.617 -21.719,37.617 h -43.436 z m 167.926,96.953 h -43.436 l -21.719,-37.617 21.719,-37.617 h 43.436 l 21.718,37.617 z m -286.597,-96.953 -21.718,37.617 h -43.436 l -21.718,-37.617 21.718,-37.617 h 43.436 z m -227.261,156.288 21.718,37.617 -21.718,37.617 h -43.436 l -21.719,-37.617 21.719,-37.617 z m 59.335,-59.335 -21.718,-37.617 21.718,-37.617 h 43.437 l 21.718,37.617 -21.718,37.617 z M 188.776,446.223 h 43.436 l 21.718,37.617 -21.718,37.617 H 188.776 L 167.057,483.84 Z m 373.469,366.091 -21.718,37.617 H 497.09 l -21.718,-37.617 21.718,-37.617 h 43.437 z m 81.053,-21.719 h -43.436 l -21.718,-37.617 21.718,-37.617 h 43.436 l 21.719,37.617 z m -248.979,0 -21.718,-37.617 21.718,-37.617 h 43.436 l 21.718,37.617 -21.718,37.617 z m 351.751,-478.941 21.718,37.617 -21.718,37.617 h -43.436 l -21.719,-37.617 21.719,-37.617 z m -43.436,269.138 h 43.436 l 21.718,37.617 -21.718,37.617 H 702.634 L 680.915,618.409 Z M 497.09,311.654 475.372,274.037 497.09,236.42 h 43.437 l 21.718,37.617 -21.718,37.617 z m -205.543,0 h 43.437 l 21.718,37.617 -21.718,37.617 h -43.437 l -21.718,-37.617 z m 43.437,269.138 21.718,37.617 -21.718,37.617 h -43.437 l -21.718,-37.617 21.718,-37.617 z m 345.931,-37.617 21.719,-37.617 h 43.436 l 21.718,37.617 -21.718,37.617 h -43.436 z m -81.053,96.952 h 43.436 l 21.719,37.617 -21.719,37.617 h -43.436 l -21.718,-37.617 z m -243.16,-96.952 -21.718,37.617 h -43.437 l -21.718,-37.617 21.718,-37.617 h 43.437 z m 81.053,96.952 21.718,37.617 -21.718,37.617 h -43.436 l -21.718,-37.617 21.718,-37.617 z M 497.09,386.888 475.372,349.271 497.09,311.654 h 43.437 l 21.718,37.617 -21.718,37.617 z m 102.772,59.335 -21.718,-37.617 21.718,-37.617 h 43.436 l 21.719,37.617 -21.719,37.617 z m -162.107,0 h -43.436 l -21.718,-37.617 21.718,-37.617 h 43.436 l 21.718,37.617 z m 59.335,134.569 h 43.437 l 21.718,37.617 -21.718,37.617 H 497.09 l -21.718,-37.617 z m 81.054,-96.952 21.718,-37.617 h 43.436 l 21.719,37.617 -21.719,37.617 h -43.436 z m -118.671,0 -21.718,37.617 h -43.436 l -21.718,-37.617 21.718,-37.617 h 43.436 z M 42.568,849.931 4.95,828.212 26.669,790.595 64.286,812.314 Z m 909.045,-732.182 37.617,21.718 -21.718,37.617 -37.617,-21.718 z m 15.899,59.335 21.718,37.617 -37.617,21.719 -21.718,-37.617 z M 26.669,101.85 64.286,80.132 86.004,117.749 48.387,139.467 Z M 864.74,42.515 886.459,80.132 848.842,101.85 827.123,64.233 Z m 21.719,37.617 21.718,37.617 -37.617,21.718 -21.718,-37.617 z M 172.877,42.515 210.494,64.233 188.776,101.85 151.158,80.132 Z m -124.49,96.952 37.617,-21.718 21.718,37.617 -37.617,21.718 z M 151.158,80.132 188.776,101.85 167.057,139.467 129.44,117.749 Z M 70.105,177.084 107.722,198.803 86.004,236.42 48.387,214.701 Z M 26.669,252.318 64.286,274.037 42.568,311.654 4.95,289.935 Z M 48.387,214.701 86.004,236.42 64.286,274.037 26.669,252.318 Z m 59.335,748.081 21.718,-37.617 37.617,21.718 -21.718,37.617 z M 26.669,790.595 48.387,752.978 86.004,774.697 64.286,812.314 Z M 929.895,962.782 892.278,984.5 870.56,946.883 908.177,925.165 Z m -21.718,-845.033 21.718,37.617 -37.617,21.718 -21.718,-37.617 z m 0,807.416 -37.617,21.718 -21.718,-37.617 37.617,-21.718 z m -124.49,21.718 -21.718,37.617 -37.617,-21.718 21.718,-37.617 z m -735.3,0 -21.718,-37.617 37.617,-21.718 21.718,37.617 z M 26.669,909.266 4.95,871.649 42.568,849.931 64.286,887.548 Z m 924.944,-134.569 -21.718,-37.617 37.617,-21.719 21.718,37.617 z m 15.899,-59.336 -37.617,-21.718 21.718,-37.617 37.617,21.718 z M 789.506,42.515 827.123,64.233 805.405,101.85 767.788,80.132 Z m -541.395,0 21.718,37.617 -37.617,21.718 -21.718,-37.617 z M 48.387,946.883 86.004,925.165 107.722,962.782 70.105,984.5 Z M 26.669,370.989 4.95,333.372 42.568,311.654 64.286,349.271 Z m 102.771,-253.24 37.617,21.718 -21.718,37.617 -37.617,-21.718 z m 0,807.416 21.718,-37.617 37.618,21.718 -21.719,37.617 z m 124.49,21.718 37.617,-21.718 21.718,37.617 -37.617,21.718 z M 26.669,521.457 64.286,543.175 42.568,580.792 4.95,559.074 Z m 0,118.67 L 4.95,602.51 42.568,580.792 64.286,618.409 Z m 21.718,112.851 21.718,-37.617 37.617,21.719 -21.718,37.617 z m 21.718,-37.617 -21.718,-37.617 37.617,-21.718 21.718,37.617 z M 26.669,640.127 64.286,618.409 86.004,656.026 48.387,677.744 Z M 724.352,962.782 686.735,984.5 665.017,946.883 702.634,925.165 Z M 42.568,42.515 64.286,80.132 26.669,101.85 4.95,64.233 Z m 270.697,920.267 21.719,-37.617 37.617,21.718 -21.719,37.617 z m 616.63,-763.979 -21.718,37.617 -37.617,-21.719 21.718,-37.617 z m -43.436,688.745 -37.617,21.718 -21.719,-37.617 37.617,-21.718 z m -102.772,59.335 -37.617,-21.718 21.718,-37.617 37.617,21.718 z m 81.053,-96.952 -37.617,-21.719 21.719,-37.617 37.617,21.719 z m 21.719,-37.617 -37.617,-21.719 21.718,-37.617 37.617,21.719 z m 21.718,-37.617 -37.617,-21.719 21.718,-37.617 37.617,21.719 z M 659.197,42.515 680.915,80.132 643.298,101.85 621.58,64.233 Z m -75.234,0 37.617,21.718 -21.718,37.617 -37.617,-21.718 z m 183.825,37.617 37.617,21.718 -21.718,37.617 -37.617,-21.718 z M 378.42,42.515 416.037,64.233 394.319,101.85 356.702,80.132 Z m 75.234,0 21.718,37.617 -37.617,21.718 -21.718,-37.617 z M 269.829,80.132 291.547,117.749 253.93,139.467 232.212,101.85 Z M 26.669,521.457 48.387,483.84 86.004,505.558 64.286,543.175 Z m 0,-150.468 37.617,-21.718 21.718,37.617 -37.617,21.718 z m 81.053,-172.186 37.617,-21.719 21.718,37.617 -37.617,21.719 z m 43.436,688.745 21.719,-37.617 37.617,21.718 -21.718,37.617 z m 102.772,59.335 -21.718,-37.617 37.617,-21.718 21.718,37.617 z m -81.053,-96.952 -21.719,-37.617 37.618,-21.719 21.718,37.617 z m -21.719,-37.617 -21.718,-37.617 37.617,-21.719 21.719,37.617 z m -21.718,-37.617 -21.718,-37.617 37.617,-21.719 21.718,37.617 z m 389.369,188.085 21.718,-37.617 37.617,21.718 -21.718,37.617 z m 0,0 -37.617,21.718 -21.719,-37.617 37.617,-21.718 z m 146.208,-15.899 -21.719,-37.617 37.617,-21.718 21.719,37.617 z m -292.416,0 -37.617,-21.718 21.718,-37.617 37.617,21.718 z m 594.911,-500.66 -37.617,-21.718 21.718,-37.617 37.617,21.718 z m 0,0 21.718,37.617 -37.617,21.718 -21.718,-37.617 z M 908.177,236.42 886.459,274.037 848.842,252.318 870.56,214.701 Z m -102.772,672.846 -37.617,-21.718 21.718,-37.617 37.617,21.718 z m 124.49,-215.623 -37.617,21.718 -21.718,-37.617 37.617,-21.718 z m -248.98,-613.511 21.719,37.617 -37.617,21.718 -21.719,-37.617 z m -118.67,0 37.617,21.718 -21.718,37.617 -37.617,-21.718 z m 183.825,37.617 37.617,21.718 -21.718,37.617 -37.617,-21.718 z m -389.368,-37.617 37.617,21.718 -21.718,37.617 -37.617,-21.718 z m 118.67,0 21.718,37.617 -37.617,21.718 -21.718,-37.617 z m -183.825,37.617 21.718,37.617 -37.617,21.718 -21.718,-37.617 z m -243.16,290.857 37.617,-21.718 21.718,37.617 -37.617,21.718 z m 0,75.234 21.718,-37.617 37.617,21.718 -21.718,37.617 z m 81.053,-247.42 37.617,-21.719 21.719,37.617 -37.618,21.719 z m 102.772,672.846 -21.718,-37.617 37.617,-21.718 21.718,37.617 z m -124.49,-215.623 21.718,-37.617 37.617,21.718 -21.718,37.617 z m 470.422,253.24 -37.617,-21.718 21.718,-37.617 37.617,21.718 z m -118.671,0 -21.718,-37.617 37.617,-21.718 21.718,37.617 z m 183.825,-37.617 -21.718,-37.617 37.617,-21.718 21.718,37.617 z m -248.979,0 -37.617,-21.718 21.718,-37.617 37.617,21.718 z M 929.895,467.941 908.177,505.558 870.56,483.84 892.278,446.223 Z m 0,-43.436 -37.617,21.718 -21.718,-37.617 37.617,-21.718 z m -43.436,-150.468 -21.719,37.617 -37.617,-21.719 21.719,-37.617 z m -21.719,37.617 21.719,37.617 -37.617,21.718 -21.719,-37.617 z m 43.437,75.234 -37.617,21.718 -21.718,-37.617 37.617,-21.718 z m -81.054,441.324 -37.617,21.719 -21.718,-37.617 37.617,-21.719 z m 81.054,-172.186 -37.617,21.718 -21.718,-37.617 37.617,-21.718 z m 0,-150.468 -21.718,37.617 -37.617,-21.718 21.718,-37.617 z m -205.543,-387.809 21.718,37.617 -37.617,21.718 -21.718,-37.617 z m -162.107,0 37.617,21.718 -21.718,37.617 -37.617,-21.718 z m 221.442,59.335 21.718,37.617 -37.617,21.719 -21.718,-37.617 z m 21.718,37.617 21.718,37.617 -37.617,21.719 -21.718,-37.617 z m -448.703,-96.952 37.617,21.718 -21.719,37.617 -37.617,-21.718 z m 162.106,0 21.719,37.617 -37.617,21.718 -21.719,-37.617 z m -221.442,59.335 37.617,21.719 -21.718,37.617 -37.617,-21.719 z m -167.926,290.857 37.617,-21.718 21.718,37.617 -37.617,21.718 z m 0,-43.436 21.718,-37.617 37.617,21.718 -21.718,37.617 z m 43.436,-150.468 37.618,-21.719 21.718,37.617 -37.617,21.719 z m 21.719,37.617 37.617,21.718 -21.718,37.617 -37.618,-21.718 z m -43.437,75.234 21.718,-37.617 37.618,21.718 -21.719,37.617 z m 124.49,-172.187 37.617,21.719 -21.718,37.617 -37.617,-21.719 z m -43.436,613.511 21.718,-37.617 37.617,21.719 -21.718,37.617 z m -81.054,-172.186 21.718,-37.617 37.618,21.718 -21.719,37.617 z m 0,-150.468 37.617,-21.718 21.719,37.617 -37.618,21.718 z m 470.422,403.708 -37.617,-21.718 21.718,-37.617 37.617,21.718 z m -162.107,0 -21.718,-37.617 37.617,-21.718 21.718,37.617 z m 351.751,-597.612 -21.718,-37.617 37.617,-21.719 21.718,37.617 z m -43.436,463.043 37.617,-21.719 21.718,37.617 -37.617,21.719 z m -102.772,15.898 37.617,21.719 -21.718,37.617 -37.617,-21.719 z m 183.825,-188.085 37.617,-21.718 21.719,37.617 -37.617,21.718 z m 0,-43.436 21.719,-37.617 37.617,21.718 -21.719,37.617 z M 702.634,236.42 l -37.617,-21.719 21.718,-37.617 37.617,21.719 z m -367.65,0 -21.719,-37.617 37.617,-21.719 21.719,37.617 z m -86.873,75.234 -37.617,-21.719 21.718,-37.617 37.617,21.719 z m 43.436,463.043 -21.718,37.617 -37.617,-21.719 21.718,-37.617 z m 102.772,15.898 21.718,37.617 -37.617,21.719 -21.718,-37.617 z M 210.494,602.51 l -21.718,37.617 -37.618,-21.718 21.719,-37.617 z m 0,-43.436 -37.617,21.718 -21.719,-37.617 37.618,-21.718 z m 351.751,253.24 37.617,-21.719 21.718,37.617 -37.617,21.719 z m -86.873,0 -21.718,37.617 -37.617,-21.719 21.718,-37.617 z m 330.033,-441.325 -37.617,-21.718 21.718,-37.617 37.617,21.718 z m -43.436,344.372 21.718,37.617 -37.617,21.719 -21.718,-37.617 z m -118.671,75.234 21.719,-37.617 37.617,21.719 -21.719,37.617 z m 140.389,-112.851 -21.718,37.617 -37.617,-21.718 21.718,-37.617 z m 21.718,-37.617 -37.617,-21.718 21.718,-37.617 37.617,21.718 z m 0,0 -21.718,37.617 -37.617,-21.718 21.718,-37.617 z m 0,-118.67 21.718,37.617 -37.617,21.718 -21.718,-37.617 z M 578.144,214.701 540.527,236.42 518.809,198.803 556.426,177.084 Z m -118.671,0 21.719,-37.617 37.617,21.719 -21.719,37.617 z m 243.161,21.719 -21.719,37.617 -37.617,-21.719 21.719,-37.617 z m -367.65,0 37.617,-21.719 21.718,37.617 -37.617,21.719 z m -102.772,134.569 -21.718,-37.617 37.617,-21.718 21.718,37.617 z m 43.436,344.372 37.617,21.719 -21.718,37.617 -37.617,-21.719 z m 118.671,75.234 -37.617,21.719 -21.718,-37.617 37.617,-21.719 z m -118.671,-75.234 -21.718,-37.617 37.617,-21.718 21.718,37.617 z m -65.154,-112.851 37.617,-21.718 21.718,37.617 -37.617,21.718 z m 43.436,75.234 -21.718,-37.617 37.617,-21.718 21.718,37.617 z m -43.436,-118.67 21.718,-37.617 37.617,21.718 -21.718,37.617 z m 351.751,253.24 -21.718,-37.617 37.617,-21.719 21.718,37.617 z m -86.873,0 -37.617,-21.719 21.718,-37.617 37.617,21.719 z m 330.033,-441.325 -21.718,37.617 -37.617,-21.718 21.718,-37.617 z m -102.771,403.708 -37.617,-21.719 21.718,-37.617 37.617,21.719 z m 102.771,-253.24 -37.617,21.718 -21.718,-37.617 37.617,-21.718 z m -227.261,-306.756 21.718,37.617 -37.617,21.719 -21.718,-37.617 z m -118.671,0 37.617,21.719 -21.718,37.617 -37.617,-21.719 z m 199.724,96.953 -37.617,-21.719 21.718,-37.617 37.617,21.719 z m -280.777,0 -21.718,-37.617 37.617,-21.719 21.718,37.617 z m -146.208,59.335 37.617,-21.718 21.718,37.617 -37.617,21.718 z m 102.772,403.708 -21.719,-37.617 37.617,-21.719 21.719,37.617 z m -102.772,-253.24 21.718,-37.617 37.617,21.718 -21.718,37.617 z m 324.214,193.904 21.718,37.617 -37.617,21.719 -21.718,-37.617 z m -75.234,0 37.617,21.719 -21.719,37.617 -37.617,-21.719 z m 243.16,-290.856 21.718,-37.617 37.617,21.718 -21.718,37.617 z m 0,43.436 37.617,-21.718 21.718,37.617 -37.617,21.718 z m -59.335,209.803 37.617,-21.718 21.718,37.617 -37.617,21.718 z m -81.054,-366.09 -21.718,-37.617 37.617,-21.719 21.718,37.617 z m -130.309,0 -37.617,-21.719 21.718,-37.617 37.617,21.719 z m 189.644,59.335 -21.718,-37.617 37.617,-21.718 21.718,37.617 z m -330.033,53.516 -37.617,21.718 -21.718,-37.617 37.617,-21.718 z m 0,43.436 -21.718,37.617 -37.617,-21.718 21.718,-37.617 z m 81.054,-96.952 -37.617,-21.718 21.718,-37.617 37.617,21.718 z m -21.718,306.755 -21.719,37.617 -37.617,-21.718 21.719,-37.617 z m 292.416,-269.138 37.617,-21.718 21.718,37.617 -37.617,21.718 z m 0,0 -21.719,-37.617 37.617,-21.718 21.719,37.617 z m -21.719,231.521 37.617,-21.718 21.719,37.617 -37.617,21.718 z m 21.719,-156.287 21.718,-37.617 37.617,21.718 -21.718,37.617 z m -124.49,172.186 37.617,21.718 -21.718,37.617 -37.617,-21.718 z m 59.335,-285.037 -37.617,-21.718 21.718,-37.617 37.617,21.718 z m -162.107,0 -21.718,-37.617 37.617,-21.718 21.718,37.617 z m -65.154,37.617 -21.719,37.617 -37.617,-21.718 21.719,-37.617 z m 0,0 -37.617,-21.718 21.718,-37.617 37.617,21.718 z m 21.718,231.521 -21.718,37.617 -37.617,-21.718 21.718,-37.617 z m -21.718,-156.287 -37.617,21.718 -21.719,-37.617 37.617,-21.718 z m 124.489,172.186 21.719,37.617 -37.617,21.718 -21.719,-37.617 z m 124.49,-53.516 37.617,-21.718 21.718,37.617 -37.617,21.718 z m 21.718,-81.053 37.617,21.718 -21.718,37.617 -37.617,-21.718 z m 0,0 21.719,-37.617 37.617,21.718 -21.719,37.617 z m -81.053,96.952 37.617,21.718 -21.718,37.617 -37.617,-21.718 z m 15.899,-209.803 -37.617,-21.718 21.718,-37.617 37.617,21.718 z m -118.671,0 -21.718,-37.617 37.617,-21.718 21.718,37.617 z m -43.436,193.904 -21.718,37.617 -37.617,-21.718 21.718,-37.617 z m -21.718,-81.053 21.718,37.617 -37.617,21.718 -21.718,-37.617 z m 0,0 -37.617,21.718 -21.718,-37.617 37.617,-21.718 z m 81.053,96.952 21.718,37.617 -37.617,21.718 -21.718,-37.617 z m 108.591,-37.617 37.617,21.718 -21.718,37.617 -37.617,-21.718 z m -27.537,-134.569 -37.617,-21.718 21.718,-37.617 37.617,21.718 z m -75.234,0 -21.719,-37.617 37.617,-21.718 21.719,37.617 z m -27.538,134.569 21.718,37.617 -37.617,21.718 -21.718,-37.617 z m 108.591,-37.617 37.617,-21.718 21.718,37.617 -37.617,21.718 z m -86.873,0 -21.718,37.617 -37.617,-21.718 21.718,-37.617 z m 65.155,-37.617 -21.718,-37.617 37.617,-21.718 21.718,37.617 z m 0,0 37.617,-21.718 21.718,37.617 -37.617,21.718 z m -43.437,0 -37.617,-21.718 21.719,-37.617 37.617,21.718 z m 0,0 -21.718,37.617 -37.617,-21.718 21.718,-37.617 z m 497.96,344.373 h -43.437 l 21.718,-37.617 z M 908.177,42.515 886.459,80.132 864.74,42.515 Z m -778.737,0 h 43.437 l -21.719,37.617 z m -81.053,96.952 21.718,37.617 H 26.669 Z M 26.669,177.084 H 70.105 L 48.387,214.701 Z M 107.722,962.782 86.004,925.165 H 129.44 Z M 64.286,887.548 42.568,849.931 h 43.436 z m -21.718,-37.617 21.718,-37.617 21.718,37.617 z m 909.045,-732.182 -21.718,37.617 -21.718,-37.617 z m 15.899,59.335 -37.617,21.719 V 155.366 Z M 129.44,42.515 151.158,4.898 172.877,42.515 Z m 660.066,0 H 746.07 L 767.788,4.898 Z m -130.309,0 21.718,-37.617 21.719,37.617 z M 827.123,20.797 V 64.233 L 789.506,42.515 Z m 0,0 37.617,21.718 -37.617,21.718 z M 248.111,42.515 269.829,4.898 291.547,42.515 Z m 130.309,0 H 334.984 L 356.702,4.898 Z M 210.494,20.797 248.111,42.515 210.494,64.233 Z m 0,0 V 64.233 L 172.877,42.515 Z m -124.49,96.952 h 43.436 l -21.718,37.617 z m -15.899,59.335 37.617,-21.718 v 43.437 z M 908.177,42.515 H 864.74 L 886.459,4.898 Z m 65.154,845.033 -21.718,-37.617 h 43.437 z m -43.436,75.234 -21.718,-37.617 h 43.436 z M 48.387,752.978 26.669,715.361 H 70.105 Z M 26.669,715.361 48.387,677.744 70.105,715.361 Z M 929.895,155.366 v 43.437 l -37.617,-21.719 z m 0,43.437 21.718,37.617 h -43.436 z m 65.155,112.851 -21.719,37.617 -21.718,-37.617 z m 0,0 h -43.437 l 21.718,-37.617 z M 886.459,887.548 864.74,849.931 h 43.437 z m 21.718,-37.617 H 864.74 l 21.719,-37.617 z m 43.436,-75.234 h -43.436 l 21.718,-37.617 z m 15.899,-59.336 -37.617,21.719 V 693.643 Z M 583.963,42.515 H 540.527 L 562.245,4.898 Z m -130.309,0 21.718,-37.617 21.718,37.617 z M 621.58,20.797 V 64.233 L 583.963,42.515 Z m 0,0 37.617,21.718 -37.617,21.718 z M 789.506,42.515 767.788,80.132 746.07,42.515 Z m -130.309,0 h 43.437 l -21.719,37.617 z m 167.926,21.718 21.719,37.617 h -43.437 z m 43.437,75.234 21.718,37.617 H 848.842 Z M 416.037,20.797 453.654,42.515 416.037,64.233 Z m 0,0 V 64.233 L 378.42,42.515 Z M 248.111,42.515 h 43.436 l -21.718,37.617 z m 130.309,0 -21.718,37.617 -21.718,-37.617 z m -167.926,21.718 21.718,37.617 h -43.436 z m -102.772,91.133 37.617,21.718 -37.617,21.719 z m 59.335,-15.899 21.719,37.617 h -43.437 z m -59.335,59.336 21.718,37.617 H 86.004 Z M 42.568,311.654 h 43.436 l -21.718,37.617 z m 0,0 21.718,-37.617 21.718,37.617 z m 108.59,575.894 -21.718,-37.617 h 43.437 z m -21.718,-37.617 21.718,-37.617 21.719,37.617 z M 86.004,774.697 107.722,737.08 129.44,774.697 Z M 70.105,715.361 107.722,693.643 V 737.08 Z M 42.568,42.515 H 86.004 L 64.286,80.132 Z M 724.352,962.782 702.634,925.165 H 746.07 Z M 42.568,42.515 64.286,4.898 86.004,42.515 Z m 270.697,920.267 -21.718,-37.617 h 43.437 z M 951.613,42.515 h 43.437 l -21.719,37.617 z m -59.335,134.569 -21.718,37.617 -21.718,-37.617 z m -43.436,732.182 h -43.437 l 21.718,-37.617 z m 15.898,-59.335 -37.617,21.718 V 828.212 Z M 995.05,580.792 h -43.437 l 21.718,-37.617 z m 0,0 -21.719,37.617 -21.718,-37.617 z m -65.155,156.288 -37.617,-21.719 37.617,-21.718 z m 0,-43.437 -21.718,-37.617 h 43.436 z M 583.963,42.515 562.245,80.132 540.527,42.515 Z m -130.309,0 h 43.436 l -21.718,37.617 z m 167.926,21.718 21.718,37.617 h -43.436 z m -205.543,0 21.718,37.617 H 394.319 Z M 26.669,446.223 H 70.105 L 48.387,483.84 Z m 0,0 21.718,-37.617 21.718,37.617 z m 118.67,-269.139 h 43.437 l -21.719,37.617 z m 43.437,732.182 21.718,-37.617 21.718,37.617 z m -15.899,-59.335 37.617,-21.719 v 43.437 z M 42.568,580.792 64.286,543.175 86.004,580.792 Z m 0,0 h 43.436 l -21.718,37.617 z m 65.154,156.288 v -43.437 l 37.617,21.718 z m 0,-43.437 -21.718,-37.617 H 129.44 Z M 518.809,962.782 497.09,925.165 h 43.437 z m 448.703,-516.559 -37.617,21.718 v -43.436 z m -15.899,59.335 h -43.436 l 21.718,-37.617 z m 0,-118.67 -21.718,37.617 -21.718,-37.617 z m -65.154,-112.851 21.718,37.617 H 864.74 Z m 21.718,37.617 -21.718,37.617 -21.719,-37.617 z m -81.054,559.995 -37.617,-21.718 37.617,-21.719 z m -59.335,15.899 -21.718,-37.617 h 43.436 z m 59.335,-59.336 -21.718,-37.617 h 43.437 z m 43.437,-75.234 -21.718,-37.617 h 43.436 z m 21.718,-37.617 H 848.842 L 870.56,677.744 Z M 746.07,117.749 724.352,155.366 702.634,117.749 Z m 37.617,21.718 21.718,37.617 h -43.436 z m 21.718,37.617 -21.718,37.617 -21.718,-37.617 z M 291.547,117.749 h 43.437 l -21.719,37.617 z m -37.617,21.718 21.718,37.617 h -43.436 z m -21.718,37.617 h 43.436 L 253.93,214.701 Z M 70.105,446.223 107.722,424.505 v 43.436 z m 15.899,59.335 21.718,-37.617 21.718,37.617 z m 0,-118.67 h 43.436 l -21.718,37.617 z m 65.154,-112.851 21.719,37.617 H 129.44 Z m -21.718,37.617 h 43.437 l -21.719,37.617 z m 81.054,559.995 v -43.437 l 37.617,21.719 z m 59.335,15.899 -21.718,-37.617 h 43.436 z m -59.335,-59.336 -21.718,-37.617 h 43.436 z m -43.437,-75.234 -21.718,-37.617 h 43.437 z m -21.718,-37.617 21.718,-37.617 21.719,37.617 z m 497.959,193.905 h -43.436 l 21.718,-37.617 z m 37.617,-21.718 -21.718,-37.617 h 43.437 z m -286.596,21.718 21.718,-37.617 21.718,37.617 z M 356.702,887.548 334.984,849.931 H 378.42 Z M 929.895,424.505 v 43.436 l -37.617,-21.718 z m -81.053,-172.187 -21.719,37.617 -21.718,-37.617 z m 15.898,59.336 -37.617,21.718 V 289.935 Z M 789.506,849.931 H 746.07 l 21.718,-37.617 z m -86.872,0 h -43.437 l 21.718,-37.617 z M 908.177,580.792 H 864.74 l 21.719,-37.617 z m 0,0 -21.718,37.617 -21.719,-37.617 z M 540.527,117.749 518.809,155.366 497.09,117.749 Z m 124.49,21.718 21.718,37.617 h -43.437 z m -86.873,0 21.718,37.617 h -43.436 z m 146.208,15.899 v 43.437 l -37.617,-21.719 z m 0,0 37.617,21.718 -37.617,21.719 z m -351.751,-15.899 21.718,37.617 h -43.437 z m 86.872,0 21.719,37.617 h -43.437 z m -146.208,15.899 37.617,21.718 -37.617,21.719 z m 0,0 v 43.437 l -37.617,-21.719 z m -205.543,269.139 37.617,21.718 -37.617,21.718 z m 81.054,-172.187 h 43.436 l -21.718,37.617 z m -15.899,59.336 37.617,-21.719 v 43.437 z m 75.234,538.277 21.718,-37.617 21.718,37.617 z m 86.873,0 21.718,-37.617 21.718,37.617 z M 129.44,580.792 l 21.718,-37.617 21.719,37.617 z m 0,0 h 43.437 l -21.719,37.617 z m 432.805,306.756 -21.718,-37.617 h 43.436 z m -86.873,0 -21.718,-37.617 H 497.09 Z M 621.58,871.649 583.963,849.931 621.58,828.212 Z m 0,0 37.617,-21.718 -37.617,-21.719 z m -205.543,0 37.617,-21.718 -37.617,-21.719 z m 0,0 -37.617,-21.718 37.617,-21.719 z M 848.842,446.223 h 43.436 L 870.56,483.84 Z m 0,0 21.718,-37.617 21.718,37.617 z m -59.336,-134.569 37.617,-21.719 v 43.437 z m 15.899,59.335 21.718,-37.617 21.719,37.617 z m -43.436,344.372 h 43.436 l -21.718,37.617 z m 21.718,-37.617 21.718,37.617 h -43.436 z m 43.436,-118.67 37.617,21.718 -37.617,21.718 z m -21.718,81.053 21.718,-37.617 21.719,37.617 z m 0,-118.67 h 43.437 l -21.719,37.617 z M 518.809,198.803 481.192,177.084 518.809,155.366 Z m 0,0 v -43.437 l 37.617,21.718 z m 146.208,15.898 -21.719,-37.617 h 43.437 z m -86.873,0 -21.718,-37.617 h 43.436 z m 124.49,21.719 21.718,-37.617 21.718,37.617 z m 43.436,75.234 21.718,-37.617 21.718,37.617 z M 372.601,214.701 350.882,177.084 h 43.437 z m 86.872,0 -21.718,-37.617 h 43.437 z M 334.984,236.42 h -43.437 l 21.718,-37.617 z M 188.776,446.223 167.057,483.84 145.339,446.223 Z m 0,0 h -43.437 l 21.718,-37.617 z m 59.335,-134.569 -37.617,21.718 v -43.437 z m -15.899,59.335 h -43.436 l 21.718,-37.617 z m 59.335,-59.335 h -43.436 l 21.718,-37.617 z m -15.899,403.707 -21.718,37.617 -21.718,-37.617 z m 0,0 H 232.212 L 253.93,677.744 Z M 210.494,602.51 172.877,580.792 210.494,559.074 Z m 0,0 21.718,37.617 h -43.436 z m 0,-43.436 -21.718,-37.617 h 43.436 z m 351.751,253.24 21.718,37.617 h -43.436 z m -86.873,0 21.718,37.617 h -43.436 z m 167.926,-21.719 -21.718,37.617 -21.718,-37.617 z m -248.979,0 h 43.436 l -21.718,37.617 z M 746.07,311.654 h 43.436 l -21.718,37.617 z m -43.436,463.043 21.718,-37.617 21.718,37.617 z m 59.335,-59.336 -37.617,21.719 V 693.643 Z M 827.123,559.074 V 602.51 L 789.506,580.792 Z M 518.809,198.803 540.527,236.42 H 497.09 Z m -227.262,112.851 -21.718,37.617 -21.718,-37.617 z m 43.437,463.043 h -43.437 l 21.718,-37.617 z m -59.336,-59.336 37.617,-21.718 V 737.08 Z M 210.494,602.51 v -43.436 l 37.617,21.718 z M 805.405,446.223 783.687,483.84 761.969,446.223 Z m 0,0 h -43.436 l 21.718,-37.617 z m -118.67,269.138 37.617,-21.718 v 43.437 z m -43.437,0 h 43.437 l -21.718,37.617 z m 59.336,-59.335 h 43.436 l -21.718,37.617 z m 43.436,-75.234 21.718,-37.617 21.718,37.617 z m 0,0 h 43.436 l -21.718,37.617 z M 621.58,289.935 599.862,252.318 h 43.436 z m 37.617,21.719 21.718,-37.617 21.719,37.617 z m 21.718,37.617 -21.718,-37.617 h 43.437 z M 416.037,289.935 394.319,252.318 h 43.436 z m -37.617,21.719 h -43.436 l 21.718,-37.617 z M 275.648,446.223 253.93,483.84 232.212,446.223 Z m 0,0 h -43.436 l 21.718,-37.617 z m 81.054,-96.952 -21.718,-37.617 h 43.436 z m -5.82,366.09 -37.617,21.719 v -43.437 z m 43.437,0 -21.718,37.617 -21.719,-37.617 z m -59.335,-59.335 -21.719,37.617 -21.718,-37.617 z m -43.437,-75.234 h -43.436 l 21.718,-37.617 z m 0,0 -21.718,37.617 -21.718,-37.617 z m 227.262,156.288 21.718,37.617 H 497.09 Z m 37.617,-21.719 h 43.436 l -21.718,37.617 z m -118.671,0 h 43.437 l -21.719,37.617 z m 286.597,-247.42 v -43.436 l 37.617,21.718 z m -21.718,-81.053 h 43.436 l -21.718,37.617 z m -37.617,290.856 21.718,37.617 h -43.437 z m 37.617,-172.186 21.718,-37.617 21.718,37.617 z m -124.49,172.186 21.718,37.617 h -43.436 z m -37.617,-366.09 21.718,-37.617 21.718,37.617 z m -43.437,0 h -43.436 l 21.718,-37.617 z m 124.49,21.718 -37.617,-21.718 37.617,-21.719 z m 0,0 v -43.437 l 37.617,21.719 z m -205.543,0 v -43.437 l 37.617,21.719 z m 0,0 -37.617,-21.718 37.617,-21.719 z m -102.772,134.569 -37.617,-21.718 37.617,-21.718 z m 21.719,-81.053 -21.719,37.617 -21.718,-37.617 z m 37.617,290.856 21.718,37.617 H 350.882 Z M 334.984,505.558 h -43.437 l 21.718,-37.617 z m 183.825,188.085 v 43.437 l -37.617,-21.719 z m 0,0 37.617,21.718 -37.617,21.719 z m -59.336,-15.899 21.719,37.617 h -43.437 z m 227.262,-231.521 37.617,-21.718 v 43.436 z m -27.538,134.569 h 43.437 l -21.719,37.617 z m 21.718,-37.617 21.719,37.617 H 659.197 Z M 562.245,349.271 540.527,311.654 h 43.436 z m -86.873,0 -21.718,-37.617 h 43.436 z m 124.49,21.718 21.718,-37.617 21.718,37.617 z m -162.107,0 h -43.436 l 21.718,-37.617 z m -86.873,75.234 -37.617,21.718 v -43.436 z m 27.538,134.569 -21.718,37.617 -21.718,-37.617 z m -21.718,-37.617 21.718,37.617 H 334.984 Z M 497.09,656.026 h 43.437 l -21.718,37.617 z M 643.298,446.223 h 43.437 l -21.718,37.617 z m 0,0 21.719,-37.617 21.718,37.617 z m -21.718,156.287 21.718,37.617 h -43.436 z m 0,-43.436 37.617,21.718 -37.617,21.718 z M 394.319,446.223 372.601,483.84 350.882,446.223 Z m 0,0 h -43.437 l 21.719,-37.617 z m 21.718,156.287 21.718,37.617 h -43.436 z m 0,-43.436 V 602.51 L 378.42,580.792 Z m 167.926,21.718 37.617,-21.718 v 43.436 z m 15.899,-59.335 h 43.436 l -21.718,37.617 z m -59.335,59.335 h 43.436 l -21.718,37.617 z M 518.809,424.505 497.09,386.888 h 43.437 z m 37.617,21.718 21.718,-37.617 21.718,37.617 z m -118.671,0 21.718,-37.617 21.719,37.617 z m 15.899,134.569 -37.617,21.718 v -43.436 z m -15.899,-59.335 -21.718,37.617 -21.718,-37.617 z m 59.335,59.335 -21.718,37.617 -21.718,-37.617 z m 81.054,-96.952 -21.718,-37.617 h 43.436 z m -15.899,59.335 21.718,37.617 h -43.436 z m -43.436,-75.234 -37.617,-21.718 37.617,-21.718 z m 0,0 v -43.436 l 37.617,21.718 z m -59.336,15.899 -21.718,-37.617 h 43.437 z m 15.899,59.335 21.718,37.617 h -43.436 z m 21.718,-37.617 21.719,-37.617 21.718,37.617 z"
     style="opacity:1;fill:none;fill-opacity:1;stroke:#000000;stroke-width:16;stroke-opacity:0.8;stop-opacity:1;stroke-miterlimit:4;stroke-dasharray:none"
     id="path7800" />
</svg>
