<?xml version="1.0" encoding="UTF-8" standalone="no"?>
<svg
   xmlns:dc="http://purl.org/dc/elements/1.1/"
   xmlns:cc="http://creativecommons.org/ns#"
   xmlns:rdf="http://www.w3.org/1999/02/22-rdf-syntax-ns#"
   xmlns:svg="http://www.w3.org/2000/svg"
   xmlns="http://www.w3.org/2000/svg"
   xmlns:sodipodi="http://sodipodi.sourceforge.net/DTD/sodipodi-0.dtd"
   xmlns:inkscape="http://www.inkscape.org/namespaces/inkscape"
   inkscape:version="1.0beta1 (32d4812, 2019-09-19)"
   sodipodi:docname="great-dodecahedron__3-uniform_57.svg"
   id="svg5765"
   version="1.1"
   data-reactroot=""
   viewBox="-643.0079115533701 0 1286.0158231067405 467.1753334437094">
  <style
     id="style6334"></style>
  <metadata
     id="metadata5771">
    <rdf:RDF>
      <cc:Work
         rdf:about="">
        <dc:format>image/svg+xml</dc:format>
        <dc:type
           rdf:resource="http://purl.org/dc/dcmitype/StillImage" />
        <dc:title></dc:title>
      </cc:Work>
    </rdf:RDF>
  </metadata>
  <defs
     id="defs5769" />
  <sodipodi:namedview
     inkscape:current-layer="svg5765"
     inkscape:window-maximized="1"
     inkscape:window-y="23"
     inkscape:window-x="0"
     inkscape:cy="568.28333"
     inkscape:cx="795.92601"
     inkscape:zoom="0.42664762"
     inkscape:snap-grids="false"
     inkscape:snap-others="false"
     inkscape:guide-bbox="true"
     showguides="true"
     inkscape:snap-bbox-edge-midpoints="true"
     inkscape:snap-bbox="true"
     inkscape:snap-global="true"
     inkscape:snap-smooth-nodes="true"
     inkscape:snap-intersection-paths="false"
     showgrid="false"
     id="namedview5767"
     inkscape:window-height="1005"
     inkscape:window-width="1680"
     inkscape:pageshadow="2"
     inkscape:pageopacity="0"
     guidetolerance="10"
     gridtolerance="10"
     objecttolerance="10"
     borderopacity="1"
     inkscape:document-rotation="0"
     bordercolor="#666666"
     pagecolor="#ffffff">
    <sodipodi:guide
       id="guide6348"
       orientation="1,0"
       position="643.00789,467.17533" />
  </sodipodi:namedview>
  <path
     transform="translate(-643.00791)"
     d="M 643.00781 1.2519531 L 632.30859 19.783203 L 653.70508 19.783203 L 648.35547 10.517578 L 643.00781 1.2519531 z M 624.14648 42.082031 L 624.14648 79.802734 L 661.86719 79.802734 L 661.86719 42.082031 L 624.14648 42.082031 z M 601.84766 50.244141 L 583.31641 60.941406 L 601.84766 71.640625 L 601.84766 50.244141 z M 684.16602 50.244141 L 684.16602 71.640625 L 702.69727 60.943359 L 702.69727 60.941406 L 684.16602 50.244141 z M 543.7832 72.091797 L 512.14648 95.076172 L 512.14648 109.8125 L 549.86914 109.8125 L 549.86914 72.091797 L 543.7832 72.091797 z M 736.14453 72.091797 L 736.14453 109.8125 L 773.86719 109.8125 L 773.86719 95.076172 L 742.23242 72.091797 L 736.14453 72.091797 z M 572.16797 80.253906 L 572.16797 101.65039 L 590.69922 90.953125 L 572.16797 80.253906 z M 713.8457 80.253906 L 695.31641 90.953125 L 713.8457 101.65039 L 713.8457 80.253906 z M 632.30859 102.10156 L 643.00586 120.63281 L 643.00781 120.63281 L 648.35547 111.36719 L 653.70508 102.10156 L 632.30859 102.10156 z M 608.91602 106.18359 L 592.08789 115.89844 L 576.24805 125.04297 L 595.10938 157.71094 L 627.77734 138.84961 L 608.91602 106.18359 z M 677.09766 106.18359 L 658.23633 138.84961 L 690.9043 157.71094 L 709.76562 125.04297 L 677.09766 106.18359 z M 477.48438 120.25977 L 444.07812 144.53125 L 466.90625 157.71094 L 485.76758 125.04297 L 477.48438 120.25977 z M 808.53125 120.26172 L 800.24609 125.04492 L 819.10742 157.71094 L 841.93555 144.53125 L 808.53125 120.26172 z M 520.31055 132.11328 L 525.6582 141.37891 L 531.00781 150.64258 L 541.70508 132.11328 L 520.31055 132.11328 z M 744.30859 132.11328 L 755.00586 150.64258 L 760.35547 141.37891 L 765.70312 132.11328 L 744.30859 132.11328 z M 500.99805 143.26172 L 490.29688 161.79297 L 511.69531 161.79297 L 507.2793 154.14062 L 500.99805 143.26172 z M 561.01758 143.26172 L 550.31836 161.79297 L 571.7168 161.79297 L 561.01758 143.26172 z M 724.99609 143.26172 L 714.29688 161.79297 L 735.69531 161.79297 L 731.27734 154.14062 L 724.99609 143.26172 z M 785.01758 143.26172 L 774.31836 161.79297 L 795.7168 161.79297 L 785.01758 143.26172 z M 430.1582 162.24414 L 430.1582 183.63867 L 439.42188 178.29102 L 448.6875 172.94141 L 430.1582 162.24414 z M 631.85742 162.24414 L 613.32812 172.94141 L 631.85742 183.64062 L 631.85742 162.24414 z M 654.15625 162.24414 L 654.15625 183.64062 L 658.77539 180.97266 L 672.68555 172.94141 L 654.15625 162.24414 z M 855.85547 162.24414 L 837.32617 172.94141 L 846.58984 178.29102 L 855.85547 183.63867 L 855.85547 162.24414 z M 407.85938 170.8457 L 398.04688 177.97461 L 407.85938 183.64062 L 407.85938 170.8457 z M 878.1543 170.8457 L 878.1543 183.64062 L 887.9668 177.97461 L 878.1543 170.8457 z M 490.29883 184.0918 L 500.99609 202.62305 L 500.99805 202.62305 L 506.34766 193.35547 L 511.69531 184.0918 L 490.29883 184.0918 z M 550.32031 184.0918 L 561.01758 202.62109 L 566.36719 193.35547 L 571.71484 184.0918 L 550.32031 184.0918 z M 714.29883 184.0918 L 719.64648 193.35547 L 724.99609 202.62109 L 730.34375 193.35547 L 735.69336 184.0918 L 714.29883 184.0918 z M 774.31836 184.0918 L 785.01562 202.62305 L 785.01758 202.62305 L 795.71484 184.0918 L 774.31836 184.0918 z M 466.90625 188.17188 L 450.57227 197.60156 L 434.23828 207.0332 L 453.09961 239.70117 L 485.76758 220.83984 L 466.90625 188.17188 z M 595.10938 188.17188 L 576.24805 220.83984 L 608.91602 239.70117 L 618.34766 223.36719 L 627.77734 207.0332 L 595.10938 188.17188 z M 690.9043 188.17188 L 658.23828 207.03125 L 658.23828 207.0332 L 677.09766 239.70117 L 709.76562 220.83984 L 690.9043 188.17188 z M 819.10742 188.17383 L 800.24609 220.83984 L 832.91406 239.70117 L 842.34375 223.36719 L 851.77539 207.0332 L 819.10742 188.17383 z M 378.30078 192.32227 L 361.78906 204.31836 L 352.25 220.83984 L 384.91602 239.69922 L 403.77734 207.0332 L 378.30078 192.32227 z M 907.71484 192.32227 L 882.23633 207.0332 L 901.0957 239.70117 L 933.76367 220.83984 L 924.22656 204.31836 L 907.71484 192.32227 z M 531.00781 195.24023 L 520.30859 213.77148 L 541.70508 213.77148 L 536.35547 204.50586 L 531.00781 195.24023 z M 755.00586 195.24219 L 744.30859 213.77148 L 765.70508 213.77148 L 760.35547 204.50586 L 755.00586 195.24219 z M 643.00586 225.25 L 632.30859 243.78125 L 653.70508 243.78125 L 643.00781 225.25 L 643.00586 225.25 z M 419.00781 225.25195 L 408.31055 243.78125 L 429.70703 243.78125 L 419.00781 225.25195 z M 867.00586 225.25195 L 856.30664 243.78125 L 877.70312 243.78125 L 867.00586 225.25195 z M 318.08789 236.07031 L 288.14844 257.82227 L 288.14844 273.79102 L 325.86914 273.79102 L 325.86914 236.07031 L 318.08789 236.07031 z M 512.14648 236.07031 L 512.14648 273.79102 L 549.86914 273.79102 L 549.86914 236.07031 L 512.14648 236.07031 z M 736.14453 236.07031 L 736.14453 273.79102 L 773.86719 273.79102 L 773.86719 236.07031 L 736.14453 236.07031 z M 960.14453 236.07031 L 960.14453 273.79102 L 997.86328 273.79102 L 997.86328 257.82031 L 967.92773 236.07031 L 960.14453 236.07031 z M 937.8457 244.23047 L 919.3125 254.92969 L 919.3125 254.93164 L 928.57812 260.28125 L 930.23633 261.23828 L 937.8457 265.63086 L 937.8457 244.23047 z M 348.16797 244.23242 L 348.16797 265.63086 L 355.77734 261.23828 L 366.69922 254.93164 L 348.16797 244.23242 z M 489.84766 244.23242 L 471.31641 254.92969 L 489.84766 265.62891 L 489.84766 244.23242 z M 572.16797 244.23242 L 572.16797 265.62891 L 583.08984 259.32227 L 590.69922 254.92969 L 572.16797 244.23242 z M 713.8457 244.23242 L 695.31445 254.92969 L 704.58203 260.28125 L 713.8457 265.62891 L 713.8457 244.23242 z M 796.16602 244.23242 L 796.16602 265.62891 L 805.42969 260.28125 L 814.69727 254.92969 L 796.16602 244.23242 z M 400.14844 266.08008 L 400.14844 303.80078 L 437.86914 303.80078 L 437.86914 266.08008 L 400.14844 266.08008 z M 624.14648 266.08008 L 624.14648 303.80078 L 661.86719 303.80078 L 661.86719 266.08008 L 624.14648 266.08008 z M 848.14453 266.08008 L 848.14453 303.80078 L 885.86523 303.80078 L 885.86523 266.08008 L 848.14453 266.08008 z M 377.84766 274.24219 L 369.29102 279.18164 L 368.58203 279.5918 L 359.31836 284.94141 L 377.84766 295.63867 L 377.84766 274.24219 z M 460.16797 274.24219 L 460.16797 295.63867 L 478.69727 284.94141 L 460.16797 274.24219 z M 601.84766 274.24219 L 583.31836 284.94141 L 601.84766 295.63867 L 601.84766 274.24219 z M 684.16602 274.24219 L 684.16602 295.63867 L 702.69727 284.94141 L 693.43164 279.5918 L 684.16602 274.24219 z M 908.16406 274.24219 L 908.16406 295.63867 L 926.69531 284.94141 L 908.16406 274.24219 z M 825.8457 274.24414 L 807.31641 284.94141 L 825.8457 295.63867 L 825.8457 274.24414 z M 252.53906 283.69336 L 236.16992 295.58789 L 236.16992 295.63867 L 245.43359 290.28906 L 254.69922 284.94141 L 252.53906 283.69336 z M 1033.4746 283.69336 L 1031.3125 284.94141 L 1049.8438 295.64062 L 1049.8438 295.58594 L 1033.4746 283.69336 z M 296.31055 296.08984 L 307.00977 314.62109 L 312.35938 305.35547 L 317.70703 296.08984 L 296.31055 296.08984 z M 520.30859 296.08984 L 531.00781 314.62109 L 541.70508 296.08984 L 520.30859 296.08984 z M 744.30859 296.08984 L 755.00586 314.62109 L 760.35547 305.35547 L 765.70508 296.08984 L 744.30859 296.08984 z M 968.30469 296.08984 L 979.00391 314.62109 L 984.35156 305.35547 L 989.70117 296.08984 L 968.30469 296.08984 z M 272.91797 300.17188 L 240.25195 319.0332 L 259.11133 351.69922 L 291.7793 332.83789 L 272.91797 300.17188 z M 341.09961 300.17188 L 322.24023 332.83789 L 354.90625 351.69922 L 354.9082 351.69922 L 364.33594 335.36719 L 373.76758 319.0332 L 341.10156 300.17188 L 341.09961 300.17188 z M 496.91602 300.17188 L 464.25 319.03125 L 464.25 319.0332 L 483.10938 351.69922 L 515.77734 332.83789 L 496.91602 300.17188 z M 565.09961 300.17188 L 546.23828 332.83789 L 546.23828 332.83984 L 578.90625 351.69922 L 597.76562 319.0332 L 565.09961 300.17188 z M 720.91406 300.17188 L 688.24805 319.0332 L 707.10742 351.69922 L 707.10938 351.69922 L 720.16992 344.1582 L 739.77539 332.83789 L 720.91602 300.17188 L 720.91406 300.17188 z M 789.09766 300.17188 L 770.23633 332.83789 L 802.9043 351.69922 L 821.76367 319.0332 L 789.09766 300.17188 z M 944.91211 300.17188 L 912.24414 319.0332 L 931.10547 351.69922 L 963.77344 332.83789 L 944.91211 300.17188 z M 1013.0938 300.17188 L 1003.6641 316.50391 L 994.23438 332.83789 L 994.23438 332.83984 L 1026.9023 351.69922 L 1045.7617 319.0332 L 1013.0938 300.17188 z M 194.16992 326.10156 L 187.22656 331.14844 L 195.00977 344.63086 L 200.35938 335.36719 L 201.31641 333.70898 L 205.70703 326.10156 L 194.16992 326.10156 z M 408.31055 326.10156 L 419.00781 344.63086 L 419.00977 344.63086 L 429.70703 326.10156 L 408.31055 326.10156 z M 632.30859 326.10156 L 643.00586 344.63086 L 643.00781 344.63086 L 648.35547 335.36719 L 653.70508 326.10156 L 632.30859 326.10156 z M 856.30664 326.10156 L 861.65625 335.36719 L 867.00586 344.63086 L 877.70312 326.10156 L 856.30664 326.10156 z M 1080.3047 326.10156 L 1091.002 344.63086 L 1096.3516 335.36719 L 1098.7891 331.14648 L 1091.8457 326.10156 L 1080.3047 326.10156 z M 225.01953 337.25 L 219.67188 346.51562 L 218.73828 348.12891 L 214.32227 355.78125 L 235.71875 355.78125 L 225.01953 337.25 z M 388.99805 337.25 L 378.29883 355.78125 L 399.69727 355.78125 L 398.3418 353.43164 L 394.34766 346.51562 L 388.99805 337.25 z M 449.01758 337.25 L 438.32031 355.78125 L 459.71875 355.78125 L 449.01758 337.25 z M 612.99609 337.25 L 602.29688 355.78125 L 623.69531 355.78125 L 618.34766 346.51562 L 612.99609 337.25 z M 673.01758 337.25 L 662.31836 355.78125 L 683.7168 355.78125 L 673.01758 337.25 z M 836.99609 337.25 L 826.29492 355.78125 L 847.69336 355.78125 L 836.99609 337.25 z M 897.01562 337.25 L 891.66602 346.51562 L 886.31641 355.78125 L 907.71484 355.78125 L 897.01562 337.25 z M 1060.9941 337.25195 L 1050.2949 355.78125 L 1071.6914 355.78125 L 1066.3418 346.51562 L 1060.9941 337.25195 z M 1116.9277 344.32617 L 1115.6641 346.51562 L 1110.3145 355.78125 L 1131.7129 355.78125 L 1131.0039 354.55078 L 1116.9277 344.32617 z M 169.08398 344.32812 L 155.00977 354.55469 L 154.30078 355.78125 L 175.69727 355.78125 L 169.08398 344.32812 z M 542.15625 356.23047 L 542.15625 377.62891 L 560.6875 366.92969 L 542.15625 356.23047 z M 743.85742 356.23047 L 725.32617 366.92969 L 743.85742 377.62891 L 743.85742 356.23047 z M 295.85938 356.23242 L 277.33008 366.92969 L 280.97461 369.0332 L 295.85938 377.62695 L 295.85938 356.23242 z M 318.1582 356.23242 L 318.1582 377.62891 L 327.42383 372.2793 L 336.68945 366.92969 L 318.1582 356.23242 z M 519.85742 356.23242 L 501.32812 366.92969 L 519.85742 377.62695 L 519.85742 356.23242 z M 766.15625 356.23242 L 766.15625 377.62891 L 784.68555 366.92969 L 766.15625 356.23242 z M 967.85352 356.23242 L 949.32422 366.92969 L 958.58984 372.2793 L 967.85352 377.62695 L 967.85352 356.23242 z M 990.15234 356.23242 L 990.15234 377.62891 L 1008.6836 366.92969 L 990.15234 356.23242 z M 154.30273 378.08008 L 165 396.60938 L 175.69727 378.08008 L 154.30273 378.08008 z M 214.32227 378.08008 L 225.01953 396.60938 L 235.71875 378.08008 L 214.32227 378.08008 z M 378.30078 378.08008 L 388.99805 396.60938 L 393.95703 388.02148 L 399.69727 378.08008 L 378.30078 378.08008 z M 438.32031 378.08008 L 449.01758 396.61133 L 449.01953 396.61133 L 454.36719 387.34375 L 459.7168 378.08008 L 438.32031 378.08008 z M 602.29883 378.08008 L 612.99609 396.61133 L 612.99805 396.61133 L 618.34766 387.34375 L 623.69531 378.08008 L 602.29883 378.08008 z M 662.31836 378.08008 L 673.01758 396.60938 L 678.36719 387.34375 L 683.71484 378.08008 L 662.31836 378.08008 z M 826.29688 378.08008 L 836.99414 396.61133 L 836.99609 396.61133 L 842.34375 387.34375 L 847.69336 378.08008 L 826.29688 378.08008 z M 886.31836 378.08008 L 897.01562 396.60938 L 907.71289 378.08008 L 886.31836 378.08008 z M 1050.2949 378.08008 L 1060.9922 396.60938 L 1066.3418 387.34375 L 1071.6914 378.08008 L 1050.2949 378.08008 z M 1110.3145 378.08008 L 1121.0117 396.61133 L 1121.0137 396.61133 L 1131.7109 378.08008 L 1110.3145 378.08008 z M 259.11133 382.16016 L 249.67969 398.49414 L 240.25 414.82812 L 272.91797 433.68945 L 282.34766 417.35547 L 291.7793 401.02148 L 259.11133 382.16016 z M 354.90625 382.16016 L 338.57422 391.58984 L 322.24023 401.02148 L 341.10156 433.68945 L 373.76758 414.82812 L 354.90625 382.16016 z M 483.10938 382.16016 L 464.24805 414.82812 L 496.91602 433.68945 L 506.34766 417.35547 L 515.77734 401.02148 L 483.10938 382.16016 z M 578.90625 382.16016 L 565.84375 389.70117 L 546.23828 401.02148 L 565.09961 433.68945 L 597.76562 414.82812 L 578.90625 382.16016 z M 707.10938 382.16016 L 688.24805 414.82812 L 720.91406 433.68945 L 739.77539 401.02148 L 707.10938 382.16016 z M 802.9043 382.16016 L 770.23633 401.02148 L 789.09766 433.68945 L 821.76562 414.82812 L 802.9043 382.16016 z M 931.10547 382.16016 L 912.24414 414.82812 L 944.91211 433.68945 L 944.91406 433.68945 L 963.77344 401.02148 L 931.10547 382.16016 z M 1026.9023 382.16016 L 1013.2363 390.05078 L 994.23438 401.02148 L 1013.0938 433.68945 L 1045.7617 414.82812 L 1026.9023 382.16016 z M 1155.1035 382.16016 L 1145.3887 398.98828 L 1136.2441 414.82812 L 1168.9102 433.68945 L 1187.7715 401.02148 L 1155.1035 382.16016 z M 130.91016 382.16211 L 112.15234 392.99023 L 98.242188 401.02148 L 117.10156 433.68945 L 149.76953 414.82812 L 130.91016 382.16211 z M 643.00781 389.22852 L 632.30859 407.75977 L 653.70508 407.75977 L 648.35547 398.49414 L 643.00781 389.22852 z M 867.00586 389.22852 L 861.65625 398.49414 L 856.30664 407.75977 L 877.70312 407.75977 L 867.00586 389.22852 z M 1091.002 389.22852 L 1080.3047 407.75977 L 1101.7012 407.75977 L 1096.3516 398.49414 L 1091.0039 389.22852 L 1091.002 389.22852 z M 195.00977 389.23047 L 184.3125 407.75977 L 205.70703 407.75977 L 200.35938 398.49414 L 195.00977 389.23047 z M 419.00781 389.23047 L 408.31055 407.75977 L 429.70703 407.75977 L 419.00781 389.23047 z M 83.009766 419.24023 L 72.314453 437.76953 L 93.708984 437.76953 L 83.011719 419.24023 L 83.009766 419.24023 z M 307.00977 419.24023 L 296.31055 437.76953 L 317.70703 437.76953 L 307.00977 419.24023 z M 531.00781 419.24023 L 520.30859 437.76953 L 541.70508 437.76953 L 531.00781 419.24023 z M 755.00586 419.24023 L 749.65625 428.50391 L 744.30859 437.76953 L 765.70508 437.76953 L 755.00586 419.24023 z M 979.00391 419.24023 L 968.30664 437.76953 L 989.70117 437.76953 L 979.00391 419.24023 z M 1203.002 419.24023 L 1192.3047 437.76953 L 1213.6992 437.76953 L 1203.002 419.24023 z M 176.14844 430.05859 L 176.14844 467.17578 L 213.87109 467.17578 L 213.87109 430.05859 L 176.14844 430.05859 z M 400.14844 430.05859 L 400.14844 467.17578 L 437.86914 467.17578 L 437.86914 430.05859 L 400.14844 430.05859 z M 624.14648 430.05859 L 624.14648 467.17578 L 661.86719 467.17578 L 661.86719 430.05859 L 624.14648 430.05859 z M 848.14453 430.05859 L 848.14453 467.17578 L 885.86523 467.17578 L 885.86523 430.05859 L 848.14453 430.05859 z M 1072.1426 430.05859 L 1072.1426 467.17578 L 1109.8633 467.17578 L 1109.8633 430.05859 L 1072.1426 430.05859 z M 1235.0469 430.14453 L 1241.1738 440.75781 L 1282.4746 464.60352 L 1235.0469 430.14453 z M 50.964844 430.14648 L 47.34375 432.7793 L 48.919922 433.68945 L 50.964844 430.14648 z M 1049.8438 438.21875 L 1031.3105 448.91797 L 1049.8438 459.61914 L 1049.8438 438.21875 z M 153.84961 438.2207 L 135.31836 448.91797 L 135.31836 448.91992 L 144.58594 454.26953 L 146.19922 455.20117 L 153.84961 459.61719 L 153.84961 438.2207 z M 236.16992 438.2207 L 236.16992 459.61719 L 243.77734 455.22656 L 254.70117 448.91992 L 254.70117 448.91797 L 236.16992 438.2207 z M 377.84766 438.2207 L 359.31641 448.91797 L 377.84766 459.61719 L 377.84766 438.2207 z M 460.16797 438.2207 L 460.16797 459.61719 L 478.69922 448.91992 L 478.69922 448.91797 L 460.16797 438.2207 z M 601.84766 438.2207 L 583.31641 448.91797 L 601.84766 459.61719 L 601.84766 438.2207 z M 684.16602 438.2207 L 684.16602 459.61719 L 693.43164 454.26953 L 702.69727 448.91992 L 702.69727 448.91797 L 684.16602 438.2207 z M 825.8457 438.2207 L 807.31445 448.91797 L 825.8457 459.61719 L 825.8457 438.2207 z M 908.16406 438.2207 L 908.16406 459.61719 L 915.00586 455.66797 L 926.69531 448.91992 L 926.69531 448.91797 L 908.16406 438.2207 z M 1132.1621 438.2207 L 1132.1621 459.61719 L 1140.4688 454.82227 L 1150.6934 448.91992 L 1150.6934 448.91797 L 1132.1621 438.2207 z M 27.597656 447.125 L 12.171875 458.33203 L 12.171875 459.61719 L 30.703125 448.91797 L 27.597656 447.125 z M 64.150391 460.06836 L 64.150391 467.17578 L 101.87109 467.17578 L 101.87109 460.06836 L 64.150391 460.06836 z M 288.14844 460.06836 L 288.14844 467.17578 L 325.86914 467.17578 L 325.86914 460.06836 L 288.14844 460.06836 z M 512.14648 460.06836 L 512.14648 467.17578 L 549.86914 467.17578 L 549.86914 460.06836 L 512.14648 460.06836 z M 736.14453 460.06836 L 736.14453 467.17578 L 773.86719 467.17578 L 773.86719 460.06836 L 736.14453 460.06836 z M 960.14453 460.06836 L 960.14453 467.17578 L 997.86328 467.17578 L 997.86328 460.06836 L 960.14453 460.06836 z M 1184.1406 460.06836 L 1184.1406 467.17578 L 1221.8633 467.17578 L 1221.8633 460.06836 L 1184.1406 460.06836 z "
     id="path5763" />
  <g
     transform="matrix(1.3936846,0,0,1.3936846,-730.63689,-273.8974)"
     id="g2055"
     style="opacity:0.63141;stop-opacity:1" />
  <g
     transform="matrix(1.3936846,0,0,1.3936846,-730.63689,-273.8974)"
     id="g7116"
     style="opacity:0.63141;stop-opacity:1" />
</svg>
