<?xml version="1.0" encoding="UTF-8" standalone="no"?>
<svg
   xmlns:dc="http://purl.org/dc/elements/1.1/"
   xmlns:cc="http://creativecommons.org/ns#"
   xmlns:rdf="http://www.w3.org/1999/02/22-rdf-syntax-ns#"
   xmlns:svg="http://www.w3.org/2000/svg"
   xmlns="http://www.w3.org/2000/svg"
   xmlns:sodipodi="http://sodipodi.sourceforge.net/DTD/sodipodi-0.dtd"
   xmlns:inkscape="http://www.inkscape.org/namespaces/inkscape"
   inkscape:version="1.0beta1 (32d4812, 2019-09-19)"
   sodipodi:docname="great-disdyakisdodecahedron__4-uniform_145.svg"
   id="svg5158"
   version="1.1"
   data-reactroot=""
   viewBox="0 0 189.70565776674235 237.6994932952969">
  <style
     id="style5727"></style>
  <metadata
     id="metadata5164">
    <rdf:RDF>
      <cc:Work
         rdf:about="">
        <dc:format>image/svg+xml</dc:format>
        <dc:type
           rdf:resource="http://purl.org/dc/dcmitype/StillImage" />
        <dc:title></dc:title>
      </cc:Work>
    </rdf:RDF>
  </metadata>
  <defs
     id="defs5162" />
  <sodipodi:namedview
     inkscape:current-layer="svg5158"
     inkscape:window-maximized="1"
     inkscape:window-y="23"
     inkscape:window-x="0"
     inkscape:cy="159.71787"
     inkscape:cx="158.42781"
     inkscape:zoom="1.8879085"
     inkscape:snap-center="true"
     showgrid="false"
     id="namedview5160"
     inkscape:window-height="1005"
     inkscape:window-width="1680"
     inkscape:pageshadow="2"
     inkscape:pageopacity="0"
     guidetolerance="10"
     gridtolerance="10"
     objecttolerance="10"
     borderopacity="1"
     inkscape:document-rotation="0"
     bordercolor="#666666"
     pagecolor="#ffffff" />
  <path
     d="M 2.7578125 3.4550781 L 1.28125 4.3164062 L 3.6601562 12.333984 L 7.8808594 9.8730469 L 2.7578125 3.4550781 z M 9.4238281 14.181641 L 5.2890625 16.59375 L 9.4238281 19.005859 L 9.4238281 14.181641 z M 13.923828 17.447266 L 13.923828 20.673828 L 16.5 20.673828 L 13.923828 17.447266 z M 6.71875 22.638672 L 6.8632812 23.125 L 7.2089844 22.923828 L 6.71875 22.638672 z M 15.550781 25.173828 L 17.9375 29.349609 L 20.226562 25.34375 L 20.091797 25.173828 L 15.550781 25.173828 z M 10.847656 26.011719 L 8.1816406 27.566406 L 10.5625 35.585938 L 14.878906 33.066406 L 10.847656 26.011719 z M 23.248047 29.128906 L 21.814453 31.636719 L 25.248047 31.636719 L 23.248047 29.128906 z M 21.816406 36.136719 L 24.201172 40.3125 L 26.587891 36.136719 L 21.816406 36.136719 z M 17.111328 36.974609 L 11.878906 40.025391 L 14.259766 48.042969 L 21.142578 44.029297 L 17.111328 36.974609 z M 30.466797 38.421875 L 28.080078 42.599609 L 32.853516 42.599609 L 30.466797 38.421875 z M 26.453125 47.099609 L 26.453125 55.257812 L 34.478516 55.257812 L 34.478516 47.099609 L 26.453125 47.099609 z M 21.951172 48.767578 L 17.818359 51.179688 L 21.951172 53.589844 L 21.951172 48.767578 z M 38.980469 48.841797 L 38.980469 55.257812 L 44.101562 55.257812 L 38.980469 48.841797 z M 16.509766 55.626953 L 17.462891 58.835938 L 19.736328 57.507812 L 16.509766 55.626953 z M 28.080078 59.757812 L 30.466797 63.935547 L 32.853516 59.757812 L 28.080078 59.757812 z M 40.607422 59.757812 L 42.994141 63.935547 L 45.380859 59.757812 L 40.607422 59.757812 z M 23.375 60.595703 L 18.779297 63.275391 L 21.160156 71.294922 L 27.40625 67.652344 L 23.375 60.595703 z M 49.257812 62.042969 L 46.871094 66.220703 L 51.644531 66.220703 L 49.257812 62.042969 z M 36.728516 62.044922 L 34.34375 66.220703 L 39.115234 66.220703 L 36.728516 62.044922 z M 34.341797 70.720703 L 36.728516 74.898438 L 39.115234 70.720703 L 34.341797 70.720703 z M 46.869141 70.720703 L 49.257812 74.898438 L 51.644531 70.720703 L 46.869141 70.720703 z M 29.638672 71.558594 L 22.675781 75.619141 L 26.707031 82.675781 L 33.669922 78.615234 L 29.638672 71.558594 z M 55.521484 73.005859 L 53.134766 77.183594 L 57.908203 77.183594 L 55.521484 73.005859 z M 42.994141 73.007812 L 40.607422 77.183594 L 45.378906 77.183594 L 42.994141 73.007812 z M 38.980469 81.683594 L 38.980469 89.84375 L 47.007812 89.84375 L 47.007812 81.683594 L 38.980469 81.683594 z M 51.507812 81.683594 L 51.507812 89.84375 L 59.535156 89.84375 L 59.535156 81.683594 L 51.507812 81.683594 z M 34.478516 83.351562 L 30.34375 85.763672 L 34.478516 88.175781 L 34.478516 83.351562 z M 64.035156 83.351562 L 64.035156 88.175781 L 68.169922 85.763672 L 64.035156 83.351562 z M 71.195312 89.207031 L 64.84375 92.912109 L 68.875 99.96875 L 75.837891 95.90625 L 74.064453 92.800781 L 71.195312 89.207031 z M 28.130859 89.681641 L 28.130859 94.505859 L 32.265625 92.09375 L 28.130859 89.681641 z M 40.607422 94.34375 L 42.994141 98.519531 L 45.378906 94.34375 L 40.607422 94.34375 z M 53.134766 94.34375 L 55.521484 98.521484 L 57.908203 94.34375 L 53.134766 94.34375 z M 35.902344 95.181641 L 29.378906 98.986328 L 30.011719 101.11523 L 32.970703 106.29883 L 39.933594 102.23633 L 35.902344 95.181641 z M 49.257812 96.628906 L 46.869141 100.80664 L 51.644531 100.80664 L 49.257812 96.628906 z M 61.785156 96.628906 L 59.396484 100.80664 L 64.171875 100.80664 L 61.785156 96.628906 z M 78.070312 99.814453 L 71.107422 103.875 L 75.140625 110.93164 L 82.101562 106.87109 L 78.070312 99.814453 z M 46.871094 105.30664 L 49.257812 109.48438 L 51.644531 105.30664 L 46.871094 105.30664 z M 59.398438 105.30664 L 61.785156 109.48438 L 64.171875 105.30664 L 59.398438 105.30664 z M 42.166016 106.14453 L 35.203125 110.20508 L 39.234375 117.25977 L 46.197266 113.19922 L 42.166016 106.14453 z M 55.521484 107.58984 L 53.134766 111.76953 L 57.910156 111.76953 L 55.521484 107.58984 z M 68.048828 107.5918 L 65.662109 111.76953 L 70.435547 111.76953 L 68.048828 107.5918 z M 87.412109 109.93945 L 87.412109 118.09766 L 94.251953 118.09766 L 87.742188 109.93945 L 87.412109 109.93945 z M 82.912109 111.60742 L 78.779297 114.01953 L 82.912109 116.42969 L 82.912109 111.60742 z M 51.507812 116.26953 L 51.507812 124.42773 L 59.535156 124.42773 L 59.535156 116.26953 L 51.507812 116.26953 z M 64.035156 116.26953 L 64.035156 124.42773 L 72.0625 124.42773 L 72.0625 116.26953 L 64.035156 116.26953 z M 47.007812 117.9375 L 42.875 120.34766 L 47.007812 122.75977 L 47.007812 117.9375 z M 76.5625 117.9375 L 76.5625 122.75977 L 80.697266 120.34766 L 76.5625 117.9375 z M 89.039062 122.59961 L 91.425781 126.77734 L 93.8125 122.59961 L 89.039062 122.59961 z M 84.335938 123.4375 L 77.373047 127.49805 L 81.404297 134.55273 L 88.367188 130.49219 L 84.335938 123.4375 z M 40.658203 124.26758 L 40.658203 129.08984 L 44.791016 126.67773 L 40.658203 124.26758 z M 97.689453 124.88477 L 95.302734 129.06055 L 100.07617 129.06055 L 97.689453 124.88477 z M 53.134766 128.92773 L 55.521484 133.10742 L 57.910156 128.92773 L 53.134766 128.92773 z M 65.662109 128.92773 L 68.048828 133.10742 L 70.4375 128.92773 L 65.662109 128.92773 z M 48.429688 129.76562 L 41.46875 133.82617 L 45.5 140.88281 L 52.460938 136.82031 L 48.429688 129.76562 z M 61.785156 131.21289 L 59.398438 135.39062 L 64.171875 135.39062 L 61.785156 131.21289 z M 74.3125 131.21484 L 71.925781 135.39062 L 76.699219 135.39062 L 74.3125 131.21484 z M 95.300781 133.56055 L 97.689453 137.74023 L 100.07812 133.56055 L 95.300781 133.56055 z M 90.599609 134.39844 L 83.636719 138.46094 L 87.667969 145.51562 L 94.628906 141.45508 L 90.599609 134.39844 z M 103.95312 135.84766 L 101.56836 140.02344 L 106.33984 140.02344 L 103.95312 135.84766 z M 59.398438 139.89062 L 61.785156 144.06836 L 64.173828 139.89062 L 59.398438 139.89062 z M 71.925781 139.89062 L 74.3125 144.06836 L 76.701172 139.89062 L 71.925781 139.89062 z M 54.693359 140.72852 L 47.732422 144.79102 L 51.763672 151.8457 L 58.724609 147.7832 L 54.693359 140.72852 z M 68.048828 142.17578 L 65.662109 146.35352 L 70.435547 146.35352 L 68.048828 142.17578 z M 80.576172 142.17773 L 78.191406 146.35352 L 82.962891 146.35352 L 80.576172 142.17773 z M 99.939453 144.52539 L 99.939453 152.68359 L 107.9668 152.68359 L 107.9668 144.52539 L 99.939453 144.52539 z M 112.46875 144.52539 L 112.46875 152.68359 L 120.49609 152.68359 L 120.49609 150.98047 L 115.34375 144.52539 L 112.46875 144.52539 z M 95.439453 146.19336 L 91.306641 148.60352 L 95.439453 151.01562 L 95.439453 146.19336 z M 44.671875 148.50391 L 44.279297 149.18945 L 45.316406 152.68359 L 47.058594 152.68359 L 44.671875 148.50391 z M 64.035156 150.85352 L 64.035156 159.01367 L 72.0625 159.01367 L 72.0625 150.85352 L 64.035156 150.85352 z M 76.5625 150.85352 L 76.5625 159.01367 L 84.589844 159.01367 L 84.589844 150.85352 L 76.5625 150.85352 z M 59.535156 152.52148 L 55.402344 154.93359 L 59.535156 157.34375 L 59.535156 152.52148 z M 89.091797 152.52344 L 89.091797 157.3457 L 93.224609 154.93359 L 89.091797 152.52344 z M 46.652344 157.18359 L 48.685547 164.03516 L 48.685547 157.18359 L 46.652344 157.18359 z M 101.56641 157.18359 L 103.95312 161.35938 L 106.33984 157.18359 L 101.56641 157.18359 z M 114.0957 157.18359 L 116.48242 161.35938 L 118.86719 157.18359 L 114.0957 157.18359 z M 96.863281 158.02148 L 89.902344 162.08203 L 93.931641 169.13672 L 100.89453 165.07617 L 96.863281 158.02148 z M 53.185547 158.85156 L 53.185547 163.67578 L 57.320312 161.26367 L 53.185547 158.85156 z M 110.2168 159.46875 L 107.83008 163.64648 L 112.60352 163.64648 L 110.2168 159.46875 z M 122.74609 159.46875 L 120.35742 163.64648 L 125.13281 163.64648 L 122.74609 159.46875 z M 129.5918 162.37695 L 129.83789 162.80859 L 129.9043 162.76953 L 129.5918 162.37695 z M 65.662109 163.51367 L 68.048828 167.69141 L 70.435547 163.51367 L 65.662109 163.51367 z M 78.189453 163.51367 L 80.576172 167.68945 L 82.962891 163.51367 L 78.189453 163.51367 z M 60.957031 164.35156 L 53.996094 168.41211 L 58.027344 175.4668 L 64.988281 171.40625 L 60.957031 164.35156 z M 74.3125 165.79883 L 71.925781 169.97461 L 76.699219 169.97461 L 74.3125 165.79883 z M 86.839844 165.79883 L 84.455078 169.97461 L 89.226562 169.97461 L 86.839844 165.79883 z M 132.74219 166.32422 L 132.07031 166.7168 L 136.09961 173.77148 L 137.86328 172.74219 L 132.74219 166.32422 z M 107.83203 168.14648 L 110.21875 172.32227 L 112.60352 168.14648 L 107.83203 168.14648 z M 120.35938 168.14648 L 122.74609 172.32227 L 125.13086 168.14648 L 120.35938 168.14648 z M 103.12695 168.98438 L 96.166016 173.04492 L 100.19531 180.09961 L 107.15625 176.03906 L 103.12695 168.98438 z M 116.48242 170.43164 L 114.0957 174.60938 L 118.86914 174.60938 L 116.48242 170.43164 z M 129.00977 170.43164 L 126.62305 174.60938 L 131.39648 174.60938 L 129.00977 170.43164 z M 51.251953 172.68164 L 52.326172 176.30469 L 53.322266 176.30469 L 51.251953 172.68164 z M 71.925781 174.47656 L 74.3125 178.6543 L 76.699219 174.47656 L 71.925781 174.47656 z M 84.455078 174.47656 L 86.841797 178.65234 L 89.226562 174.47656 L 84.455078 174.47656 z M 67.222656 175.31445 L 60.259766 179.375 L 64.291016 186.42969 L 71.251953 182.36914 L 67.222656 175.31445 z M 140.70117 176.29688 L 139.73828 176.85938 L 142.37891 178.40039 L 140.70117 176.29688 z M 80.576172 176.76172 L 78.191406 180.9375 L 82.962891 180.9375 L 80.576172 176.76172 z M 93.103516 176.76172 L 90.71875 180.9375 L 95.490234 180.9375 L 93.103516 176.76172 z M 112.46875 179.10938 L 112.46875 187.26758 L 120.49609 187.26758 L 120.49609 179.10938 L 112.46875 179.10938 z M 124.99609 179.10938 L 124.99609 187.26758 L 133.02344 187.26758 L 133.02344 179.10938 L 124.99609 179.10938 z M 107.9668 180.77734 L 103.83398 183.18945 L 107.9668 185.59961 L 107.9668 180.77734 z M 137.52344 180.77734 L 137.52344 185.59961 L 141.65625 183.1875 L 137.52344 180.77734 z M 57.199219 183.0918 L 55.318359 186.38477 L 55.580078 187.26758 L 59.585938 187.26758 L 57.199219 183.0918 z M 76.5625 185.43945 L 76.5625 193.59766 L 84.589844 193.59766 L 84.589844 185.43945 L 76.5625 185.43945 z M 89.091797 185.43945 L 89.091797 193.59766 L 97.119141 193.59766 L 97.119141 185.43945 L 89.091797 185.43945 z M 145.29492 186.27539 L 138.33398 190.33789 L 142.36328 197.39258 L 149.32617 193.33203 L 145.29492 186.27539 z M 72.0625 187.10742 L 67.929688 189.51758 L 72.0625 191.92969 L 72.0625 187.10742 z M 101.61914 187.10742 L 101.61914 191.92969 L 105.75195 189.51758 L 101.61914 187.10742 z M 56.916016 191.76758 L 59.337891 199.92773 L 61.212891 199.92773 L 61.212891 191.76758 L 56.916016 191.76758 z M 114.0957 191.76758 L 116.48242 195.94531 L 118.86914 191.76758 L 114.0957 191.76758 z M 126.62305 191.76758 L 129.00977 195.94531 L 131.39648 191.76758 L 126.62305 191.76758 z M 109.39062 192.60547 L 102.42773 196.66797 L 106.45898 203.72266 L 113.42188 199.66211 L 109.39062 192.60547 z M 65.712891 193.43555 L 65.712891 198.25977 L 69.847656 195.84766 L 65.712891 193.43555 z M 135.27344 194.05273 L 132.88672 198.23047 L 137.66016 198.23047 L 135.27344 194.05273 z M 122.74609 194.05469 L 120.35938 198.23047 L 125.13086 198.23047 L 122.74609 194.05469 z M 156.26367 196.40234 L 158.65039 200.58008 L 159.24805 199.53516 L 156.74609 196.40234 L 156.26367 196.40234 z M 151.55859 197.23828 L 144.5957 201.30078 L 148.62891 208.35547 L 155.58984 204.29492 L 151.55859 197.23828 z M 78.189453 198.09766 L 80.576172 202.27539 L 82.962891 198.09766 L 78.189453 198.09766 z M 90.71875 198.09766 L 93.105469 202.27539 L 95.490234 198.09766 L 90.71875 198.09766 z M 73.486328 198.93555 L 66.523438 202.99805 L 70.554688 210.05273 L 77.517578 205.99219 L 73.486328 198.93555 z M 86.839844 200.38477 L 84.455078 204.56055 L 89.226562 204.56055 L 86.839844 200.38477 z M 99.369141 200.38477 L 96.982422 204.56055 L 101.75391 204.56055 L 99.369141 200.38477 z M 120.35938 202.73047 L 122.74609 206.9082 L 125.13281 202.73047 L 120.35938 202.73047 z M 132.88672 202.73047 L 135.27344 206.9082 L 137.66211 202.73047 L 132.88672 202.73047 z M 115.6543 203.56836 L 108.69141 207.63086 L 112.72266 214.68555 L 119.68555 210.62305 L 115.6543 203.56836 z M 141.53711 205.01562 L 139.15039 209.19336 L 143.92383 209.19336 L 141.53711 205.01562 z M 129.00977 205.01758 L 126.62305 209.19336 L 131.39648 209.19336 L 129.00977 205.01758 z M 63.462891 206.71289 L 62.074219 209.14453 L 62.591797 210.89062 L 65.849609 210.89062 L 63.462891 206.71289 z M 160.90039 207.36523 L 160.90039 215.52344 L 168.92773 215.52344 L 168.92773 211.66602 L 165.49609 207.36523 L 160.90039 207.36523 z M 156.40039 209.03125 L 152.26562 211.44336 L 156.40039 213.85547 L 156.40039 209.03125 z M 84.455078 209.06055 L 86.839844 213.23633 L 89.226562 209.06055 L 84.455078 209.06055 z M 96.982422 209.06055 L 99.367188 213.23633 L 101.75391 209.06055 L 96.982422 209.06055 z M 79.75 209.89844 L 72.787109 213.95898 L 76.818359 221.01562 L 83.779297 216.95508 L 79.75 209.89844 z M 93.105469 211.34766 L 90.71875 215.52344 L 95.492188 215.52344 L 93.105469 211.34766 z M 105.63281 211.34766 L 103.24609 215.52344 L 108.01953 215.52344 L 105.63281 211.34766 z M 124.99609 213.69336 L 124.99609 221.85352 L 133.02344 221.85352 L 133.02344 213.69336 L 124.99609 213.69336 z M 137.52344 213.69336 L 137.52344 221.85352 L 145.55078 221.85352 L 145.55078 213.69336 L 137.52344 213.69336 z M 120.49609 215.36133 L 116.35938 217.77344 L 120.49609 220.18555 L 120.49609 215.36133 z M 150.05078 215.36133 L 150.05078 220.18555 L 154.18555 217.77344 L 150.05078 215.36133 z M 63.927734 215.39062 L 64.583984 217.60352 L 65.849609 215.39062 L 63.927734 215.39062 z M 69.726562 217.67578 L 67.339844 221.85352 L 72.113281 221.85352 L 69.726562 217.67578 z M 89.091797 220.02344 L 89.091797 228.18164 L 97.119141 228.18164 L 97.119141 220.02344 L 89.091797 220.02344 z M 101.61914 220.02344 L 101.61914 228.18164 L 109.64648 228.18164 L 109.64648 220.02344 L 101.61914 220.02344 z M 162.52734 220.02344 L 164.91406 224.20117 L 167.30078 220.02344 L 162.52734 220.02344 z M 175.05469 220.02344 L 177.44141 224.20117 L 178.0625 223.11328 L 175.59766 220.02344 L 175.05469 220.02344 z M 157.82227 220.86133 L 150.86133 224.92383 L 154.89258 231.97852 L 161.85547 227.91797 L 157.82227 220.86133 z M 84.589844 221.69141 L 80.457031 224.10352 L 84.589844 226.51367 L 84.589844 221.69141 z M 114.14648 221.69141 L 114.14648 226.51367 L 118.2793 224.10352 L 114.14648 221.69141 z M 171.17773 222.30859 L 168.79102 226.48633 L 173.56445 226.48633 L 171.17773 222.30859 z M 67.181641 226.35352 L 69.603516 234.51172 L 73.740234 234.51172 L 73.740234 226.35352 L 67.181641 226.35352 z M 126.62305 226.35352 L 129.00977 230.5293 L 131.39648 226.35352 L 126.62305 226.35352 z M 139.15039 226.35352 L 141.53711 230.53125 L 143.92383 226.35352 L 139.15039 226.35352 z M 121.91797 227.19141 L 114.95703 231.25195 L 118.63867 237.69922 L 120.02734 237.69922 L 125.94922 234.24609 L 121.91797 227.19141 z M 78.242188 228.02148 L 78.242188 232.84375 L 82.375 230.43164 L 78.242188 228.02148 z M 135.27344 228.63867 L 132.88477 232.81641 L 137.66016 232.81641 L 135.27344 228.63867 z M 147.80078 228.63867 L 145.41211 232.81641 L 150.1875 232.81641 L 147.80078 228.63867 z M 168.79102 230.98633 L 171.17773 235.16406 L 173.56641 230.98633 L 168.79102 230.98633 z M 181.31836 230.98633 L 183.70703 235.16406 L 185.36523 232.26172 L 184.34766 230.98633 L 181.31836 230.98633 z M 164.08789 231.82422 L 157.125 235.88672 L 158.16016 237.69922 L 167.44336 237.69922 L 164.08789 231.82422 z M 90.71875 232.68359 L 93.105469 236.85938 L 95.490234 232.68359 L 90.71875 232.68359 z M 103.24609 232.68359 L 105.63281 236.85938 L 108.01953 232.68359 L 103.24609 232.68359 z M 177.44141 233.27344 L 175.05469 237.44922 L 179.82812 237.44922 L 177.44141 233.27344 z M 86.013672 233.52148 L 79.052734 237.58203 L 79.119141 237.69922 L 88.400391 237.69922 L 86.013672 233.52148 z M 111.89648 234.9668 L 110.33594 237.69922 L 113.45703 237.69922 L 111.89648 234.9668 z M 99.369141 234.96875 L 97.808594 237.69922 L 100.92773 237.69922 L 99.369141 234.96875 z M 188.38477 236.04492 L 187.58398 237.44922 L 189.50586 237.44922 L 188.38477 236.04492 z M 132.88672 237.31641 L 133.10547 237.69922 L 137.44141 237.69922 L 137.66016 237.31641 L 132.88672 237.31641 z M 145.41406 237.31641 L 145.63281 237.69922 L 149.96875 237.69922 L 150.1875 237.31641 L 145.41406 237.31641 z "
     id="path5156" />
  <style
     id="style5610" />
</svg>
