<?xml version="1.0" encoding="UTF-8" standalone="no"?>
<svg
   xmlns:dc="http://purl.org/dc/elements/1.1/"
   xmlns:cc="http://creativecommons.org/ns#"
   xmlns:rdf="http://www.w3.org/1999/02/22-rdf-syntax-ns#"
   xmlns:svg="http://www.w3.org/2000/svg"
   xmlns="http://www.w3.org/2000/svg"
   xmlns:sodipodi="http://sodipodi.sourceforge.net/DTD/sodipodi-0.dtd"
   xmlns:inkscape="http://www.inkscape.org/namespaces/inkscape"
   inkscape:version="1.0beta1 (32d4812, 2019-09-19)"
   sodipodi:docname="great-dodecicosacron__3-uniform_53.svg"
   id="svg837"
   version="1.1"
   data-reactroot=""
   viewBox="0 0 287.55999727833085 249.16705491145694">
  <style
     id="style845"></style>
  <metadata
     id="metadata843">
    <rdf:RDF>
      <cc:Work
         rdf:about="">
        <dc:format>image/svg+xml</dc:format>
        <dc:type
           rdf:resource="http://purl.org/dc/dcmitype/StillImage" />
        <dc:title></dc:title>
      </cc:Work>
    </rdf:RDF>
  </metadata>
  <defs
     id="defs841" />
  <sodipodi:namedview
     inkscape:current-layer="svg837"
     inkscape:window-maximized="0"
     inkscape:window-y="23"
     inkscape:window-x="0"
     inkscape:cy="126.42249"
     inkscape:cx="33.878612"
     inkscape:zoom="1.1028286"
     inkscape:snap-global="false"
     showgrid="false"
     id="namedview839"
     inkscape:window-height="907"
     inkscape:window-width="1600"
     inkscape:pageshadow="2"
     inkscape:pageopacity="0"
     guidetolerance="10"
     gridtolerance="10"
     objecttolerance="10"
     borderopacity="1"
     inkscape:document-rotation="0"
     bordercolor="#666666"
     pagecolor="#ffffff" />
  <path
     d="M 0.17773438 0.15429688 L 0.0859375 0.2578125 L 4.0605469 12.060547 L 5.1113281 12.970703 L 5.1132812 12.970703 L 9.3398438 8.0917969 L 0.17773438 0.15429688 z M 14.958984 12.962891 L 12.515625 15.783203 L 19.074219 17.046875 L 18.816406 16.304688 L 14.958984 12.962891 z M 11.107422 23.085938 L 12.199219 26.242188 L 13.292969 29.396484 L 17.666016 24.349609 L 11.107422 23.085938 z M 25.068359 27.164062 L 25.064453 27.169922 L 23.664062 28.785156 L 23.287109 29.220703 L 17.130859 36.324219 L 17.130859 36.326172 L 26.291016 44.263672 L 26.292969 44.263672 L 32.449219 37.158203 L 34.230469 35.101562 L 29.650391 31.132812 L 29.517578 31.017578 L 25.070312 27.164062 L 25.068359 27.164062 z M 45.097656 39.597656 L 47.28125 45.908203 L 49.726562 43.085938 L 45.871094 39.746094 L 45.097656 39.597656 z M 38.068359 42.029297 L 33.695312 47.076172 L 40.253906 48.341797 L 38.068359 42.029297 z M 14.892578 44.226562 L 16.529297 49.083984 L 19.363281 48.101562 L 15.078125 44.386719 L 14.892578 44.226562 z M 55.347656 47.958984 L 55.089844 48.255859 L 52.902344 50.779297 L 51.119141 52.835938 L 51.119141 52.837891 L 60.28125 60.775391 L 62.064453 58.71875 L 64.509766 55.896484 L 55.347656 47.958984 z M 24.369141 54.240234 L 18.902344 56.132812 L 22.771484 67.621094 L 28.333984 65.697266 L 28.333984 65.695312 L 24.369141 54.240234 z M 32.287109 54.380859 L 34.472656 60.691406 L 38.845703 55.644531 L 35.566406 55.011719 L 32.287109 54.380859 z M 46.25 58.457031 L 44.466797 60.513672 L 38.310547 67.619141 L 47.470703 75.558594 L 47.472656 75.558594 L 51.441406 70.976562 L 53.628906 68.453125 L 54.503906 67.443359 L 55.412109 66.396484 L 46.25 58.457031 z M 70.130859 60.767578 L 67.685547 63.587891 L 70.964844 64.220703 L 74.242188 64.853516 L 73.984375 64.105469 L 70.130859 60.767578 z M 66.277344 70.892578 L 68.460938 77.203125 L 68.462891 77.203125 L 70.648438 74.679688 L 72.835938 72.15625 L 68.201172 71.261719 L 66.277344 70.892578 z M 59.248047 73.324219 L 54.875 78.371094 L 61.433594 79.634766 L 59.25 73.324219 L 59.248047 73.324219 z M 28.195312 73.615234 L 25.144531 74.669922 L 26.955078 80.042969 L 28.195312 73.615234 z M 80.238281 74.96875 L 78.455078 77.025391 L 74.082031 82.074219 L 72.298828 84.130859 L 75.117188 86.572266 L 81.460938 92.070312 L 83.244141 90.013672 L 87.619141 84.964844 L 89.400391 82.908203 L 86.34375 80.259766 L 81.070312 75.689453 L 80.238281 74.96875 z M 35.498047 75.023438 L 34.232422 81.580078 L 40.544922 79.396484 L 40.544922 79.394531 L 35.498047 75.023438 z M 45.548828 85.533203 L 34.09375 89.498047 L 34.603516 90.974609 L 36.330078 95.964844 L 38.056641 100.95508 L 38.058594 100.95508 L 40.630859 100.06445 L 45.90625 98.238281 L 49.513672 96.990234 L 49.208984 96.111328 L 45.548828 85.533203 z M 53.466797 85.673828 L 54.558594 88.830078 L 55.652344 91.984375 L 60.025391 86.9375 L 53.466797 85.673828 z M 100.26562 87.404297 L 102.45117 93.714844 L 104.63672 91.191406 L 104.89648 90.892578 L 101.04492 87.554688 L 100.26562 87.404297 z M 67.427734 89.751953 L 66.023438 91.373047 L 65.646484 91.808594 L 62.246094 95.732422 L 59.490234 98.912109 L 59.490234 98.914062 L 61.111328 100.31836 L 68.644531 106.84766 L 68.650391 106.85156 L 68.652344 106.85156 L 74.808594 99.748047 L 76.589844 97.689453 L 67.429688 89.751953 L 67.427734 89.751953 z M 93.238281 89.833984 L 91.050781 92.359375 L 88.863281 94.882812 L 95.423828 96.148438 L 94.332031 92.992188 L 93.238281 89.833984 z M 110.51758 95.761719 L 108.07031 98.585938 L 106.28906 100.64258 L 115.45117 108.58203 L 116.82227 106.99805 L 117.23242 106.52539 L 119.67969 103.70117 L 110.51758 95.761719 z M 87.457031 102.18555 L 89.640625 108.49805 L 94.015625 103.44922 L 88.855469 102.45508 L 87.457031 102.18555 z M 80.429688 104.61719 L 76.054688 109.66602 L 82.613281 110.92969 L 81.521484 107.77344 L 80.429688 104.61719 z M 49.373047 104.9082 L 46.21875 106 L 43.0625 107.09375 L 48.109375 111.4668 L 48.742188 108.1875 L 48.898438 107.37891 L 48.980469 106.94922 L 49.373047 104.9082 z M 101.41797 106.26367 L 99.636719 108.31836 L 99.636719 108.32031 L 97.449219 110.84375 L 95.261719 113.36719 L 93.478516 115.42383 L 93.478516 115.42578 L 99.912109 121 L 102.64062 123.36328 L 104.42383 121.30664 L 108.79883 116.25781 L 110.58008 114.20312 L 110.58008 114.20117 L 107.60547 111.62305 L 104.46289 108.90234 L 101.41797 106.26367 z M 56.675781 106.31641 L 55.414062 112.875 L 56.306641 112.56445 L 58.568359 111.78125 L 61.722656 110.68945 L 56.677734 106.31641 L 56.675781 106.31641 z M 125.30078 108.57031 L 122.85352 111.39453 L 129.41211 112.6582 L 129.15234 111.9082 L 125.30078 108.57031 z M 38.191406 112.71484 L 38.105469 113.1582 L 39.826172 118.26953 L 40.083984 118.17969 L 43.240234 117.08789 L 40.714844 114.90039 L 38.191406 112.71484 z M 66.728516 116.82812 L 59.667969 119.27148 L 57.84375 119.90234 L 55.273438 120.79297 L 59.222656 132.20898 L 59.236328 132.25 L 59.238281 132.25 L 61.808594 131.35938 L 62.808594 131.01367 L 64.964844 130.26758 L 70.693359 128.28516 L 66.728516 116.82812 z M 74.646484 116.9668 L 75.738281 120.125 L 76.832031 123.2793 L 81.207031 118.23242 L 77.925781 117.59961 L 74.646484 116.9668 z M 121.44531 118.69727 L 123.63086 125.00977 L 128.00391 119.96094 L 121.44531 118.69727 z M 88.607422 121.04492 L 86.826172 123.10156 L 80.669922 130.20703 L 85.25 134.17578 L 89.830078 138.14648 L 89.832031 138.14648 L 94.074219 133.25 L 95.988281 131.04102 L 97.769531 128.98438 L 88.609375 121.04492 L 88.607422 121.04492 z M 114.41797 121.12891 L 110.04492 126.17578 L 116.60156 127.44141 L 114.61523 121.70117 L 114.41797 121.12891 z M 135.40625 122.77539 L 131.4375 127.35547 L 129.25 129.87891 L 129.08789 130.06836 L 127.46875 131.9375 L 132.04883 135.90625 L 136.62891 139.875 L 136.63086 139.875 L 138.41211 137.82031 L 138.41211 137.81836 L 144.56836 130.71484 L 144.56836 130.71289 L 135.4082 122.77539 L 135.40625 122.77539 z M 48.244141 123.22461 L 45.671875 124.11523 L 42.199219 125.31641 L 46.068359 136.80664 L 49.636719 135.57227 L 52.208984 134.68164 L 49.337891 126.38477 L 48.244141 123.22461 z M 108.63672 133.47852 L 109.72852 136.63672 L 110.4082 138.59961 L 110.82031 139.79102 L 113.00781 137.26758 L 115.19531 134.74414 L 111.91602 134.11133 L 108.63672 133.47852 z M 155.17578 134.45703 L 157.05469 139.88867 L 158.50977 144.09375 L 164.07422 142.16797 L 155.17578 134.45703 z M 101.60742 135.91211 L 97.234375 140.95898 L 100.51367 141.5918 L 103.79102 142.22266 L 101.60742 135.91211 z M 70.554688 136.20312 L 64.242188 138.38672 L 64.242188 138.38867 L 69.289062 142.76172 L 69.921875 139.48242 L 70.078125 138.67383 L 70.554688 136.20312 z M 122.59766 137.55664 L 120.81445 139.61328 L 116.44141 144.66211 L 114.6582 146.71875 L 117.47656 149.16016 L 118.66016 150.1875 L 123.82031 154.6582 L 125.60352 152.60156 L 129.97852 147.55273 L 131.75977 145.49609 L 128.70312 142.84766 L 124.24219 138.98242 L 122.59766 137.55664 z M 77.857422 137.61133 L 76.591797 144.16797 L 82.904297 141.98438 L 77.857422 137.61133 z M 148.40625 137.64062 L 144.0332 142.68945 L 149.09961 143.66602 L 149.19336 143.68359 L 150.5918 143.95312 L 148.59375 138.18359 L 148.40625 137.64062 z M 52.068359 142.59961 L 48.443359 143.85547 L 49.990234 148.45312 L 50.804688 149.1582 L 51.4375 145.87891 L 51.59375 145.07031 L 51.675781 144.64062 L 52.068359 142.59961 z M 59.371094 144.00781 L 59.154297 145.13477 L 59.083984 145.5 L 58.107422 150.56641 L 61.263672 149.47266 L 64.419922 148.38086 L 59.371094 144.00781 z M 169.82617 148.04688 L 165 149.7168 L 163.51562 150.23047 L 166.03906 152.41797 L 168.5625 154.60547 L 169.19531 151.32422 L 169.82617 148.04688 z M 87.908203 148.12109 L 86.695312 148.54102 L 82.431641 150.01758 L 79.023438 151.19727 L 79.021484 151.19727 L 76.451172 152.08789 L 80.337891 163.31641 L 80.416016 163.54297 L 80.417969 163.54297 L 91.873047 159.57812 L 91.021484 157.11719 L 88.070312 148.58984 L 87.908203 148.12109 z M 95.826172 148.26172 L 98.011719 154.57422 L 102.38477 149.52734 L 95.826172 148.26172 z M 142.625 149.99219 L 144.81055 156.30273 L 149.18359 151.25586 L 146.71289 150.7793 L 142.625 149.99219 z M 109.78711 152.33984 L 108.00586 154.39648 L 103.06641 160.0957 L 101.84961 161.50195 L 102.89648 162.4082 L 107.65039 166.5293 L 111.00977 169.44141 L 111.01172 169.44141 L 117.16797 162.33594 L 118.94922 160.2793 L 114.36914 156.30859 L 109.78906 152.33984 L 109.78711 152.33984 z M 135.59766 152.42188 L 131.22266 157.4707 L 137.78125 158.73633 L 135.59766 152.42188 z M 176.46484 152.9043 L 175.86523 156.01172 L 178.85547 154.97656 L 176.46484 152.9043 z M 156.58594 154.06836 L 152.61719 158.64844 L 150.42969 161.17383 L 148.64844 163.23047 L 153.22852 167.19922 L 154.23828 168.07617 L 157.80859 171.16992 L 157.81055 171.16992 L 159.30859 169.43945 L 159.5918 169.11328 L 165.74805 162.00781 L 158.67383 155.87695 L 156.58789 154.06836 L 156.58594 154.06836 z M 69.423828 154.51953 L 67.691406 155.11914 L 66.851562 155.41016 L 63.695312 156.50195 L 60.539062 157.59375 L 57.966797 158.48438 L 58.486328 159.98438 L 61.931641 169.94141 L 64.296875 169.12305 L 64.503906 169.05078 L 70.816406 166.86719 L 73.388672 165.97656 L 72.642578 163.82031 L 69.423828 154.51953 z M 185.3457 160.60156 L 184.60938 160.85547 L 181.45312 161.94727 L 175.72461 163.92969 L 177.125 167.97656 L 179.68945 175.38672 L 188.57422 172.3125 L 191.14648 171.42188 L 188.28125 163.14258 L 185.3457 160.60156 z M 129.81641 164.77344 L 132 171.08594 L 136.37305 166.03711 L 129.81641 164.77344 z M 122.78711 167.20703 L 119.14648 171.4082 L 118.41406 172.25391 L 124.97266 173.51758 L 122.78711 167.20703 z M 91.732422 167.49609 L 85.421875 169.68164 L 90.46875 174.05469 L 90.839844 172.13086 L 91.101562 170.77734 L 91.732422 167.49609 z M 143.77734 168.85156 L 141.99414 170.9082 L 139.80859 173.43164 L 137.62109 175.95508 L 135.83789 178.01172 L 135.83789 178.01367 L 139.52344 181.20703 L 145 185.95117 L 146.7832 183.89453 L 151.1582 178.84766 L 152.93945 176.79102 L 151.35742 175.41992 L 143.77734 168.85156 z M 99.035156 168.9043 L 98.818359 170.03125 L 98.748047 170.39648 L 97.771484 175.46289 L 104.08203 173.2793 L 99.035156 168.9043 z M 169.58789 168.93555 L 165.21289 173.98242 L 167.68359 174.45898 L 168.49219 174.61523 L 171.77148 175.24805 L 170.67969 172.08984 L 169.94141 169.95703 L 169.58789 168.93555 z M 73.25 173.89453 L 66.9375 176.07812 L 71.984375 180.45312 L 72.617188 177.17383 L 72.773438 176.36523 L 73.25 173.89453 z M 80.550781 175.30273 L 79.904297 178.66016 L 79.287109 181.85938 L 85.597656 179.67578 L 80.552734 175.30273 L 80.550781 175.30273 z M 191.00586 179.33984 L 187.84961 180.43359 L 184.69336 181.52539 L 187.21875 183.71094 L 188.13672 184.50781 L 189.74219 185.89844 L 190.375 182.61914 L 191.00586 179.33984 z M 109.08789 179.41602 L 100.20312 182.49023 L 97.632812 183.38086 L 101.59766 194.83789 L 104.16992 193.94727 L 109.9082 191.96094 L 113.05273 190.87305 L 111.07031 185.14453 L 109.08789 179.41602 z M 117.00586 179.55664 L 119.19141 185.86719 L 123.56445 180.82031 L 117.00586 179.55664 z M 198.30859 180.74805 L 197.67578 184.02734 L 197.04297 187.30664 L 200.19922 186.21484 L 203.35742 185.12109 L 198.30859 180.74805 z M 163.80469 181.28516 L 165.99023 187.59766 L 170.36328 182.55078 L 170.36328 182.54883 L 163.80469 181.28516 z M 62.066406 181.69922 L 61.746094 183.36133 L 63.125 187.45312 L 63.958984 187.16406 L 67.115234 186.07227 L 62.066406 181.69922 z M 130.9668 183.63281 L 129.18555 185.68945 L 128.8457 186.08203 L 126.99805 188.21484 L 123.0293 192.79492 L 123.0293 192.79688 L 132.19141 200.73438 L 138.34766 193.62891 L 138.4082 193.55859 L 140.12891 191.57227 L 135.58984 187.63867 L 130.96875 183.63281 L 130.9668 183.63281 z M 156.77734 183.7168 L 154.58984 186.24219 L 152.40234 188.76562 L 155.60352 189.38281 L 158.96289 190.0293 L 156.77734 183.7168 z M 177.76562 185.36328 L 173.79688 189.94336 L 171.60938 192.46875 L 171.44727 192.65625 L 169.82812 194.52539 L 174.4082 198.49414 L 178.98828 202.46289 L 178.99023 202.46289 L 180.39453 200.8418 L 180.77148 200.40625 L 182.95898 197.88281 L 186.92773 193.30273 L 186.92773 193.30078 L 177.76758 185.36328 L 177.76562 185.36328 z M 90.603516 185.8125 L 88.03125 186.70312 L 81.71875 188.88867 L 79.148438 189.77734 L 79.148438 189.7793 L 79.658203 191.25391 L 81.976562 197.95312 L 83.111328 201.23438 L 83.113281 201.23438 L 85.683594 200.3457 L 87.537109 199.70312 L 91.996094 198.16016 L 94.568359 197.26953 L 90.605469 185.8125 L 90.603516 185.8125 z M 217.19922 188.20117 L 215.38867 188.82812 L 219.35352 200.2832 L 221.92578 199.39453 L 227.7793 197.36719 L 217.19922 188.20117 z M 208.35938 191.25977 L 205.78906 192.15039 L 202.63281 193.24219 L 200.04883 194.13672 L 196.9043 195.22461 L 200.86914 206.68164 L 209.75391 203.60742 L 212.32422 202.7168 L 208.36133 191.25977 L 208.35938 191.25977 z M 72.119141 192.21094 L 70.386719 192.81055 L 69.546875 193.10156 L 65.498047 194.50195 L 69.367188 205.99219 L 73.511719 204.55664 L 73.513672 204.55664 L 76.083984 203.66602 L 72.119141 192.21094 z M 150.99609 196.06836 L 153.17969 202.37891 L 157.55273 197.33203 L 150.99609 196.06836 z M 143.9668 198.5 L 139.59375 203.54688 L 146.15234 204.8125 L 143.96875 198.5 L 143.9668 198.5 z M 112.91211 198.79102 L 109.75781 199.88281 L 106.60156 200.97461 L 106.60156 200.97656 L 111.64844 205.34766 L 112.28125 202.07031 L 112.91211 198.79102 z M 164.95703 200.14453 L 160.98828 204.72656 L 158.80078 207.25 L 157.01758 209.30664 L 166.17969 217.24609 L 167.96289 215.18945 L 172.33594 210.14062 L 174.11914 208.08398 L 164.95703 200.14453 z M 120.21484 200.19922 L 118.95117 206.75781 L 119.8457 206.44727 L 125.26367 204.57227 L 120.21484 200.19922 z M 190.76562 200.23047 L 186.39258 205.27734 L 191.20898 206.20508 L 191.45898 206.25391 L 192.95117 206.54102 L 190.76562 200.23047 z M 230.66992 204.23633 L 224.35742 206.42188 L 229.40625 210.79492 L 230.66992 204.23633 z M 94.427734 205.1875 L 91.273438 206.28125 L 88.117188 207.37305 L 90.640625 209.55859 L 93.164062 211.74609 L 94.427734 205.1875 z M 237.88086 206.12109 L 236.70898 212.20312 L 239.86523 211.11133 L 242.5625 210.17773 L 237.88086 206.12109 z M 101.73242 206.5957 L 100.4668 213.1543 L 103.62305 212.0625 L 106.7793 210.96875 L 101.73242 206.5957 z M 212.18555 210.63477 L 209.0293 211.72656 L 207.35938 212.30469 L 205.875 212.81836 L 210.92188 217.19141 L 211.55469 213.91406 L 212.18555 210.63477 z M 130.26758 210.70898 L 121.38281 213.78516 L 118.8125 214.67578 L 122.77539 226.13086 L 122.77734 226.13086 L 125.26758 225.26953 L 125.34766 225.24219 L 126.74805 224.75781 L 134.23242 222.16797 L 134.23242 222.16602 L 130.26758 210.70898 z M 138.18555 210.84961 L 140.37109 217.16211 L 142.55859 214.63867 L 144.74609 212.11523 L 138.18555 210.84961 z M 75.943359 211.58594 L 71.740234 213.04102 L 72.955078 216.65039 L 74.679688 218.14258 L 75.943359 211.58594 z M 219.48828 212.04297 L 218.22461 218.60156 L 221.38086 217.50781 L 224.53516 216.41602 L 219.48828 212.04297 z M 184.98438 212.58008 L 187.16992 218.89062 L 191.54297 213.84375 L 188.26367 213.21094 L 184.98438 212.58008 z M 83.246094 212.99414 L 81.982422 219.55078 L 85.138672 218.45898 L 86.261719 218.07031 L 88.292969 217.36719 L 83.246094 212.99414 z M 152.14648 214.92773 L 150.36523 216.98438 L 144.20898 224.08984 L 146.33008 225.92773 L 149.22461 228.4375 L 153.36914 232.0293 L 153.37109 232.0293 L 159.52734 224.92383 L 161.30859 222.86719 L 155.71875 218.02148 L 152.14844 214.92773 L 152.14648 214.92773 z M 177.95703 215.01172 L 173.58203 220.05859 L 180.14258 221.32422 L 179.05078 218.16797 L 177.95703 215.01172 z M 248.02539 216.15625 L 245.45312 217.04688 L 242.29688 218.13867 L 239.14062 219.23047 L 236.56836 220.12109 L 240.5332 231.57812 L 241.11523 231.37695 L 243.10547 230.6875 L 249.41797 228.50391 L 251.99023 227.61328 L 248.02539 216.15625 z M 198.94727 216.65625 L 195.25 220.92188 L 192.78906 223.76172 L 191.00781 225.81836 L 200.16797 233.75781 L 200.16992 233.75781 L 201.66797 232.02734 L 201.95117 231.70117 L 203.86719 229.49219 L 208.10938 224.5957 L 198.94727 216.65625 z M 111.7832 217.10742 L 110.05078 217.70703 L 109.21094 217.99805 L 102.89844 220.18164 L 100.32617 221.07227 L 100.37695 221.2168 L 104.29102 232.5293 L 104.29297 232.5293 L 106.86328 231.63867 L 110.01953 230.54688 L 113.17578 229.45508 L 115.74805 228.56445 L 112.30078 218.59961 L 111.78516 217.10742 L 111.7832 217.10742 z M 229.54102 222.55469 L 226.96875 223.44336 L 225.66406 223.89453 L 218.08398 226.51953 L 220.83984 234.47852 L 220.98047 234.88867 L 222.04883 237.97461 L 230.93359 234.90039 L 233.50586 234.00977 L 232.45312 230.9668 L 230.06055 224.05273 L 229.54102 222.55469 z M 93.298828 223.50586 L 90.726562 224.39453 L 83.626953 226.85156 L 82.84375 227.12305 L 81.84375 227.46875 L 85.806641 238.92578 L 85.808594 238.92578 L 94.691406 235.85156 L 97.263672 234.96094 L 94.009766 225.55664 L 93.298828 223.50586 z M 258.65039 224.11719 L 259.01758 225.17969 L 259.63086 224.9668 L 258.65039 224.11719 z M 172.17578 227.36133 L 174.35938 233.67383 L 178.73242 228.62695 L 178.73242 228.625 L 176.26367 228.15039 L 172.17578 227.36133 z M 165.14844 229.79492 L 160.77344 234.8418 L 164.05273 235.47461 L 167.33203 236.10547 L 165.14844 229.79492 z M 134.09375 230.08398 L 130.9375 231.17578 L 127.78125 232.26953 L 132.82812 236.64258 L 133.46094 233.36328 L 134.09375 230.08398 z M 266.12109 230.5918 L 264.02148 231.31836 L 269.07031 235.69141 L 269.49023 233.50977 L 266.12109 230.5918 z M 186.13672 231.43945 L 184.35547 233.49609 L 182.16797 236.01953 L 179.98047 238.54492 L 178.19922 240.60156 L 180.86719 242.91602 L 187.35938 248.54102 L 189.14258 246.48438 L 193.51758 241.43555 L 195.29883 239.37891 L 195.29883 239.37695 L 186.13867 231.43945 L 186.13672 231.43945 z M 141.39648 231.49219 L 140.13086 238.05078 L 143.28711 236.95898 L 144.95703 236.38086 L 146.44336 235.86719 L 143.91992 233.67969 L 141.39648 231.49219 z M 211.94531 231.52344 L 209.75977 234.04688 L 207.57227 236.57031 L 214.13086 237.83594 L 211.94531 231.52344 z M 251.84961 235.53125 L 248.69336 236.62305 L 245.53906 237.71484 L 250.58594 242.08984 L 251.21875 238.81055 L 251.84961 235.53125 z M 115.60938 236.48242 L 112.45312 237.57422 L 109.29688 238.66602 L 109.29688 238.66797 L 114.34375 243.04102 L 114.66406 241.38477 L 115.60938 236.48242 z M 259.15234 236.93945 L 257.88867 243.49805 L 261.04492 242.40625 L 264.19922 241.3125 L 259.15234 236.93945 z M 122.91016 237.89062 L 121.64844 244.44922 L 124.80273 243.35547 L 127.95898 242.26367 L 122.91211 237.89062 L 122.91016 237.89062 z M 233.36523 241.92773 L 230.20898 243.01953 L 227.05273 244.11328 L 228.82227 245.64648 L 232.10156 248.48633 L 233.36523 241.92773 z M 151.44727 242.00391 L 144.19531 244.51367 L 142.5625 245.07812 L 139.99023 245.96875 L 141.09766 249.16797 L 153.92773 249.16797 L 151.44922 242.00391 L 151.44727 242.00391 z M 159.36523 242.14453 L 160.45703 245.30078 L 161.55078 248.45508 L 165.92383 243.41016 L 165.92383 243.4082 L 159.36523 242.14453 z M 97.123047 242.87891 L 96.144531 243.21875 L 93.96875 243.97266 L 90.8125 245.0625 L 90.8125 245.06445 L 95.548828 249.16797 L 95.912109 249.16797 L 97.123047 242.87891 z M 240.66797 243.33594 L 240.03516 246.61523 L 239.54297 249.16797 L 241.50195 249.16797 L 245.71484 247.71094 L 245.71484 247.70898 L 240.66797 243.33594 z M 280.90625 243.40039 L 278.80469 244.12891 L 276.23438 245.01953 L 277.66992 249.16797 L 287.56055 249.16797 L 280.90625 243.40039 z M 206.16406 243.87305 L 207.99805 249.16797 L 209.23047 249.16797 L 212.72266 245.13867 L 206.16406 243.87305 z M 104.42578 244.28711 L 103.48633 249.16797 L 108.00977 249.16797 L 109.47461 248.66016 L 104.42578 244.28711 z M 173.32617 246.22266 L 171.92188 247.84375 L 171.54492 248.2793 L 170.77344 249.16797 L 176.72656 249.16797 L 173.32812 246.22266 L 173.32617 246.22266 z M 199.13672 246.30664 L 196.6582 249.16797 L 200.12695 249.16797 L 199.13672 246.30664 z M 269.20508 247.45117 L 268.32617 247.75586 L 264.24414 249.16797 L 269.79883 249.16797 L 269.72461 248.95117 L 269.20508 247.45117 z M 220.125 247.95117 L 219.07031 249.16797 L 221.53125 249.16797 L 220.12695 247.95117 L 220.125 247.95117 z M 132.96289 248.40234 L 130.74609 249.16797 L 133.22852 249.16797 L 132.96289 248.40234 z M 83.882812 248.90234 L 83.835938 248.95703 L 83.90625 249.16797 L 84.191406 249.16797 L 83.884766 248.90234 L 83.882812 248.90234 z "
     id="path835" />
</svg>
