<?xml version="1.0" encoding="UTF-8" standalone="no"?>
<svg
   xmlns:dc="http://purl.org/dc/elements/1.1/"
   xmlns:cc="http://creativecommons.org/ns#"
   xmlns:rdf="http://www.w3.org/1999/02/22-rdf-syntax-ns#"
   xmlns:svg="http://www.w3.org/2000/svg"
   xmlns="http://www.w3.org/2000/svg"
   xmlns:sodipodi="http://sodipodi.sourceforge.net/DTD/sodipodi-0.dtd"
   xmlns:inkscape="http://www.inkscape.org/namespaces/inkscape"
   inkscape:version="1.0beta1 (32d4812, 2019-09-19)"
   sodipodi:docname="small-icosacronic-hexecontahedron__5-uniform_216.svg"
   id="svg15068"
   version="1.1"
   data-reactroot=""
   viewBox="0 0 480.0773416302003 355.01226963825025">
  <metadata
     id="metadata15074">
    <rdf:RDF>
      <cc:Work
         rdf:about="">
        <dc:format>image/svg+xml</dc:format>
        <dc:type
           rdf:resource="http://purl.org/dc/dcmitype/StillImage" />
        <dc:title></dc:title>
      </cc:Work>
    </rdf:RDF>
  </metadata>
  <defs
     id="defs15072" />
  <sodipodi:namedview
     inkscape:current-layer="svg15068"
     inkscape:window-maximized="1"
     inkscape:window-y="23"
     inkscape:window-x="0"
     inkscape:cy="216.43739"
     inkscape:cx="331.61307"
     inkscape:zoom="1.0012842"
     inkscape:snap-smooth-nodes="true"
     inkscape:object-nodes="true"
     inkscape:snap-page="true"
     inkscape:snap-center="true"
     showgrid="false"
     id="namedview15070"
     inkscape:window-height="1005"
     inkscape:window-width="1680"
     inkscape:pageshadow="2"
     inkscape:pageopacity="0"
     guidetolerance="10"
     gridtolerance="10"
     objecttolerance="10"
     borderopacity="1"
     inkscape:document-rotation="0"
     bordercolor="#666666"
     pagecolor="#ffffff" />
  <path
     d="M 0.93164062 8.5195312 L 0.5234375 9.4453125 L 0.89453125 16.144531 L 6.1015625 15.576172 L 0.93164062 8.5195312 z M 11.591797 8.5722656 L 14.867188 13.042969 L 16.257812 12.023438 L 11.591797 8.5722656 z M 23.474609 17.359375 L 22.462891 18.101562 L 27.443359 20.294922 L 23.474609 17.359375 z M 10.148438 23.755859 L 1.3710938 24.712891 L 2.203125 39.732422 L 11.779297 38.6875 L 10.148438 23.755859 z M 19.007812 25.943359 L 19.957031 34.640625 L 27.013672 29.46875 L 19.007812 25.943359 z M 43.515625 32.179688 L 48.548828 39.050781 L 49.595703 36.673828 L 43.515625 32.179688 z M 34.611328 34.527344 L 22.492188 43.40625 L 31.371094 55.523438 L 43.490234 46.644531 L 34.611328 34.527344 z M 56.658203 41.898438 L 55.126953 45.375 L 68.875 51.429688 L 69.041016 51.054688 L 56.658203 41.898438 z M 9.5917969 47.546875 L 2.6796875 48.300781 L 2.8378906 51.146484 L 6.0664062 55.554688 L 9.5917969 47.546875 z M 17.433594 51.001953 L 13.908203 59.007812 L 22.603516 58.058594 L 17.433594 51.001953 z M 50.017578 52.488281 L 34.976562 63.507812 L 37 82.039062 L 54.060547 89.554688 L 69.101562 78.535156 L 67.078125 60.003906 L 50.017578 52.488281 z M 81.476562 60.251953 L 75.792969 60.873047 L 77.425781 75.804688 L 92.357422 74.175781 L 91.658203 67.78125 L 81.476562 60.251953 z M 26.652344 66.238281 L 11.720703 67.869141 L 13.351562 82.800781 L 28.285156 81.169922 L 26.652344 66.238281 z M 4.4492188 80.224609 L 4.4707031 80.603516 L 4.4921875 80.613281 L 4.4492188 80.224609 z M 90.169922 83.035156 L 81.474609 83.984375 L 86.644531 91.041016 L 90.169922 83.035156 z M 99.277344 83.617188 L 93.220703 97.365234 L 106.96875 103.41992 L 113.02539 89.673828 L 99.277344 83.617188 z M 72.705078 86.519531 L 60.587891 95.398438 L 69.466797 107.51562 L 81.583984 98.636719 L 72.705078 86.519531 z M 26.095703 90.029297 L 17.398438 90.978516 L 22.570312 98.037109 L 26.095703 90.029297 z M 35.203125 90.613281 L 29.148438 104.36133 L 42.896484 110.41602 L 48.951172 96.667969 L 35.203125 90.613281 z M 123.42383 91.271484 L 121.5957 91.470703 L 114.08203 108.5332 L 125.10156 123.57227 L 143.63477 121.54688 L 148.72852 109.98242 L 123.42383 91.271484 z M 8.6328125 93.513672 L 5.3222656 95.939453 L 6.3144531 113.83789 L 17.511719 105.63281 L 8.6328125 93.513672 z M 55.529297 102.99414 L 52.003906 111 L 60.699219 110.04883 L 55.529297 102.99414 z M 92.638672 106.47266 L 93.587891 115.16992 L 100.64453 109.99805 L 92.638672 106.47266 z M 84.119141 107.40234 L 77.0625 112.57422 L 85.070312 116.09961 L 84.119141 107.40234 z M 28.566406 113.46875 L 29.513672 122.16602 L 36.572266 116.99609 L 28.566406 113.46875 z M 20.044922 114.39844 L 12.990234 119.57031 L 20.996094 123.0957 L 20.044922 114.39844 z M 108.24023 115.05859 L 96.123047 123.9375 L 105.00195 136.05273 L 117.11914 127.17578 L 108.24023 115.05859 z M 155.79297 115.20703 L 152.20898 123.34375 L 165.95703 129.39844 L 168.17383 124.36328 L 155.79297 115.20703 z M 61.630859 118.56836 L 52.933594 119.51953 L 58.103516 126.57617 L 61.630859 118.56836 z M 70.738281 119.15234 L 64.683594 132.90039 L 78.429688 138.95508 L 84.486328 125.20703 L 70.738281 119.15234 z M 44.166016 122.05273 L 32.048828 130.93359 L 40.929688 143.04883 L 53.044922 134.17188 L 44.166016 122.05273 z M 7.0058594 126.29883 L 7.9394531 143.125 L 14.357422 145.95117 L 20.412109 132.20312 L 7.0058594 126.29883 z M 175.23828 129.58594 L 175.06445 129.98242 L 175.68164 129.91406 L 175.23828 129.58594 z M 142.76562 130.26172 L 127.83203 131.89453 L 129.46289 146.82617 L 144.39648 145.19727 L 142.76562 130.26172 z M 91.064453 131.5332 L 87.539062 139.53711 L 96.234375 138.58789 L 91.064453 131.5332 z M 151.62695 132.45117 L 152.57617 141.14844 L 159.63281 135.97656 L 151.62695 132.45117 z M 119.6543 135.94336 L 112.59766 141.11328 L 120.60352 144.63867 L 119.6543 135.94336 z M 185.83984 137.42578 L 172.875 138.8418 L 174.50781 153.77539 L 189.43945 152.14453 L 188.00781 139.0293 L 185.83984 137.42578 z M 26.990234 138.52734 L 23.464844 146.5332 L 32.162109 145.58594 L 26.990234 138.52734 z M 59.572266 140.01367 L 44.533203 151.0332 L 46.556641 169.56641 L 63.619141 177.08203 L 78.658203 166.0625 L 76.632812 147.52734 L 59.572266 140.01367 z M 164.69727 142.89062 L 157.64062 148.06055 L 165.64648 151.58594 L 164.69727 142.89062 z M 197.38477 145.96484 L 198.15625 153.01562 L 215.21875 160.5293 L 216.1543 159.84375 L 197.38477 145.96484 z M 100.2832 146.76758 L 85.349609 148.39844 L 86.980469 163.33203 L 101.91406 161.70117 L 100.2832 146.76758 z M 109.14258 148.95508 L 110.0918 157.65234 L 117.14844 152.48047 L 109.14258 148.95508 z M 36.208984 153.76367 L 21.277344 155.39453 L 22.90625 170.32812 L 37.841797 168.69727 L 36.208984 153.76367 z M 142.20898 154.05664 L 133.51172 155.00586 L 138.68164 162.0625 L 142.20898 154.05664 z M 151.31641 154.63867 L 145.25977 168.38672 L 159.00781 174.44141 L 165.06445 160.69531 L 151.31641 154.63867 z M 124.74414 157.54102 L 112.62891 166.41992 L 121.50781 178.53711 L 133.62305 169.6582 L 124.74414 157.54102 z M 13.097656 159.44141 L 9.0097656 162.4375 L 9.2070312 166.00781 L 14.046875 168.13867 L 13.097656 159.44141 z M 187.25 161.00586 L 178.55664 161.95508 L 183.72461 169.01172 L 187.25 161.00586 z M 196.35938 161.58789 L 190.30273 175.33594 L 204.05078 181.39062 L 210.10742 167.64258 L 196.35938 161.58789 z M 223.37305 165.18164 L 221.74609 166.37305 L 230.62305 178.48828 L 236.01953 174.5332 L 223.37305 165.18164 z M 171.64258 167.01953 L 168.11719 175.02539 L 176.8125 174.07617 L 171.64258 167.01953 z M 99.724609 170.56055 L 91.029297 171.50977 L 96.199219 178.56641 L 99.724609 170.56055 z M 216.68555 173.96875 L 213.16016 181.97461 L 221.85742 181.02539 L 216.68555 173.96875 z M 107.56836 174.01562 L 104.04297 182.02148 L 112.73828 181.07227 L 107.56836 174.01562 z M 82.261719 174.04492 L 70.144531 182.92383 L 79.023438 195.04102 L 91.140625 186.16211 L 82.261719 174.04492 z M 140.15039 175.5 L 125.11133 186.51953 L 127.13477 205.05469 L 144.19727 212.56836 L 159.23633 201.54883 L 157.21289 183.01562 L 140.15039 175.5 z M 9.7402344 175.60547 L 10.238281 184.57422 L 13.464844 177.24609 L 9.7402344 175.60547 z M 35.652344 177.55664 L 26.955078 178.50586 L 32.126953 185.5625 L 35.652344 177.55664 z M 44.759766 178.13867 L 38.705078 191.88672 L 52.453125 197.94336 L 58.507812 184.19531 L 44.759766 178.13867 z M 243.23828 179.87109 L 238.21875 183.54688 L 246.22461 187.07227 L 245.63086 181.64062 L 243.23828 179.87109 z M 180.86133 182.25391 L 165.92773 183.88477 L 167.55859 198.81836 L 182.49219 197.1875 L 180.86133 182.25391 z M 20.042969 183.57031 L 16.517578 191.57617 L 25.212891 190.62695 L 20.042969 183.57031 z M 189.7207 184.44336 L 190.66992 193.14062 L 197.72656 187.96875 L 189.7207 184.44336 z M 255.00977 188.57617 L 255.08398 189.26172 L 255.82617 189.17969 L 255.00977 188.57617 z M 225.9043 189.20312 L 210.9707 190.83398 L 212.60156 205.76758 L 227.53516 204.13477 L 225.9043 189.20312 z M 116.78906 189.25 L 101.85352 190.88086 L 103.48633 205.81445 L 118.41797 204.18359 L 116.78906 189.25 z M 65.085938 190.51953 L 61.560547 198.52539 L 70.255859 197.57617 L 65.085938 190.51953 z M 234.76367 191.39062 L 235.71289 200.08594 L 242.76953 194.91602 L 234.76367 191.39062 z M 202.79102 194.88281 L 195.73633 200.05273 L 203.74023 203.57812 L 202.79102 194.88281 z M 93.675781 194.92969 L 86.619141 200.10156 L 94.625 203.625 L 93.675781 194.92969 z M 265.98438 196.69141 L 259.13086 197.43945 L 264.30273 204.49805 L 267.30859 197.67188 L 265.98438 196.69141 z M 29.261719 198.80664 L 14.328125 200.4375 L 15.960938 215.37109 L 30.892578 213.74023 L 29.261719 198.80664 z M 250.36523 199.97656 L 238.24805 208.85352 L 247.12695 220.9707 L 259.24414 212.09375 L 250.36523 199.97656 z M 38.123047 200.99414 L 39.072266 209.69141 L 46.128906 204.52148 L 38.123047 200.99414 z M 274.37305 202.89453 L 270.88086 210.82227 L 284.62891 216.87695 L 286.75391 212.05078 L 274.37305 202.89453 z M 74.304688 205.75586 L 59.371094 207.38477 L 61.001953 222.31836 L 75.935547 220.6875 L 74.304688 205.75586 z M 180.30469 206.04688 L 171.60547 206.99805 L 176.77734 214.05469 L 180.30469 206.04688 z M 189.41016 206.63086 L 183.35547 220.37891 L 197.10352 226.43359 L 203.1582 212.68555 L 189.41016 206.63086 z M 83.164062 207.94336 L 84.113281 216.64062 L 91.171875 211.46875 L 83.164062 207.94336 z M 162.83984 209.5332 L 150.72266 218.41211 L 159.60156 230.52734 L 171.71875 221.65039 L 162.83984 209.5332 z M 51.193359 211.43359 L 44.136719 216.60352 L 52.142578 220.13086 L 51.193359 211.43359 z M 230.26562 212.45898 L 211.73242 214.48242 L 204.2168 231.54492 L 215.23633 246.58398 L 233.76953 244.56055 L 241.28516 227.49805 L 230.26562 212.45898 z M 116.23047 213.04297 L 107.53516 213.99219 L 112.70508 221.04883 L 116.23047 213.04297 z M 125.33789 213.62695 L 119.2832 227.37305 L 133.0293 233.42969 L 139.08594 219.68164 L 125.33789 213.62695 z M 98.765625 216.52734 L 86.648438 225.40625 L 95.527344 237.52344 L 107.64453 228.64648 L 98.765625 216.52734 z M 293.81836 217.27539 L 293.73633 217.46094 L 294.02734 217.42969 L 293.81836 217.27539 z M 270.29883 219.92969 L 271.24805 228.62695 L 278.30469 223.45508 L 270.29883 219.92969 z M 261.7793 220.85938 L 254.72266 226.03125 L 262.72852 229.55664 L 261.7793 220.85938 z M 28.705078 222.59961 L 20.009766 223.54883 L 25.179688 230.60547 L 28.705078 222.59961 z M 37.8125 223.18164 L 31.755859 236.92969 L 45.503906 242.98633 L 51.560547 229.23828 L 37.8125 223.18164 z M 303.36328 225.0293 L 294.66602 225.98047 L 299.83789 233.03711 L 303.36328 225.0293 z M 145.66406 226.00781 L 142.13867 234.01172 L 150.83398 233.0625 L 145.66406 226.00781 z M 12.646484 228.00391 L 13.482422 243.06445 L 20.119141 238.20117 L 12.646484 228.00391 z M 285.90039 228.51367 L 273.7832 237.39258 L 282.66211 249.50977 L 294.7793 240.63086 L 285.90039 228.51367 z M 78.666016 229.00977 L 60.130859 231.03516 L 52.617188 248.09766 L 63.636719 263.13672 L 82.171875 261.11133 L 89.685547 244.04883 L 78.666016 229.00977 z M 182.77344 229.48633 L 183.72266 238.18359 L 190.7793 233.01172 L 182.77344 229.48633 z M 310.6582 229.72852 L 306.41602 239.36133 L 320.16406 245.41602 L 323.04102 238.88477 L 310.6582 229.72852 z M 174.25391 230.41602 L 167.19727 235.58594 L 175.20312 239.11133 L 174.25391 230.41602 z M 248.39844 232.60938 L 242.34375 246.35742 L 256.0918 252.41211 L 262.14648 238.66406 L 248.39844 232.60938 z M 118.69922 236.48047 L 119.64844 245.17773 L 126.70508 240.00781 L 118.69922 236.48047 z M 110.17969 237.41211 L 103.12305 242.58203 L 111.13086 246.10938 L 110.17969 237.41211 z M 198.37305 238.07227 L 186.25781 246.94922 L 195.13477 259.06641 L 207.25195 250.1875 L 198.37305 238.07227 z M 151.76562 241.58203 L 143.06836 242.53125 L 148.24023 249.58789 L 151.76562 241.58203 z M 160.87305 242.16406 L 154.81641 255.91211 L 168.56445 261.96875 L 174.61914 248.21875 L 160.87305 242.16406 z M 330.10352 244.10742 L 329.27148 246 L 332.22656 245.67773 L 330.10352 244.10742 z M 268.72461 244.98828 L 265.19727 252.99414 L 273.89648 252.04492 L 268.72461 244.98828 z M 134.30078 245.06641 L 122.18359 253.94531 L 131.0625 266.0625 L 143.17969 257.18359 L 134.30078 245.06641 z M 31.171875 246.03711 L 32.123047 254.73633 L 39.179688 249.56445 L 31.171875 246.03711 z M 301.30664 246.47461 L 286.26562 257.49414 L 288.29102 276.0293 L 305.35352 283.54297 L 320.39258 272.52344 L 318.36719 253.99023 L 301.30664 246.47461 z M 22.654297 246.9668 L 15.597656 252.13867 L 23.605469 255.66406 L 22.654297 246.9668 z M 96.798828 249.16016 L 90.744141 262.9082 L 104.49219 268.96484 L 110.54688 255.2168 L 96.798828 249.16016 z M 342.01562 253.22852 L 327.08203 254.85938 L 328.71484 269.79297 L 343.64648 268.16211 L 342.01562 253.22852 z M 232.90039 253.27734 L 217.9668 254.90625 L 219.59766 269.83984 L 234.53125 268.20898 L 232.90039 253.27734 z M 181.19727 254.54492 L 177.67188 262.55078 L 186.36914 261.60156 L 181.19727 254.54492 z M 46.775391 254.62305 L 34.658203 263.50195 L 43.537109 275.61914 L 55.654297 266.74023 L 46.775391 254.62305 z M 241.75977 255.46484 L 242.70898 264.16211 L 249.76562 258.99023 L 241.75977 255.46484 z M 209.78906 258.95508 L 202.73242 264.125 L 210.73828 267.65234 L 209.78906 258.95508 z M 351.35742 259.82422 L 351.82617 264.11328 L 354.50391 262.15039 L 351.35742 259.82422 z M 277.94336 260.22461 L 263.00977 261.85547 L 264.64062 276.78906 L 279.57422 275.1582 L 277.94336 260.22461 z M 14.476562 261.00977 L 15.410156 277.83398 L 16.966797 278.51953 L 23.021484 264.77344 L 14.476562 261.00977 z M 117.125 261.54102 L 113.59961 269.54688 L 122.29688 268.59766 L 117.125 261.54102 z M 149.70508 263.02539 L 134.66602 274.04688 L 136.69141 292.58008 L 153.75195 300.09375 L 168.79297 289.07422 L 166.76758 270.53906 L 149.70508 263.02539 z M 254.83008 265.90234 L 247.77344 271.07422 L 255.7793 274.59961 L 254.83008 265.90234 z M 361.7207 267.48828 L 354.36133 272.88086 L 363.24023 284.99805 L 374.37109 276.8418 L 361.7207 267.48828 z M 190.41797 269.78125 L 175.48438 271.41016 L 177.11523 286.34375 L 192.04883 284.71289 L 190.41797 269.78125 z M 81.300781 269.82812 L 66.367188 271.45898 L 67.998047 286.39258 L 82.931641 284.76172 L 81.300781 269.82812 z M 29.597656 271.09766 L 26.072266 279.10352 L 34.769531 278.1543 L 29.597656 271.09766 z M 199.27734 271.96875 L 200.22852 280.66406 L 207.2832 275.49414 L 199.27734 271.96875 z M 90.162109 272.01758 L 91.111328 280.71289 L 98.167969 275.54297 L 90.162109 272.01758 z M 58.189453 275.50781 L 51.130859 280.67773 L 59.138672 284.20312 L 58.189453 275.50781 z M 126.34375 276.77734 L 111.41016 278.40625 L 113.04102 293.33984 L 127.97461 291.70898 L 126.34375 276.77734 z M 341.45898 277.02148 L 332.76367 277.9707 L 337.93359 285.02734 L 341.45898 277.02148 z M 232.3418 277.06836 L 223.64453 278.01953 L 228.81641 285.07617 L 232.3418 277.06836 z M 241.44922 277.65234 L 235.39453 291.40039 L 249.14258 297.45508 L 255.19727 283.70703 L 241.44922 277.65234 z M 349.30273 280.47461 L 345.77539 288.48242 L 354.47266 287.5332 L 349.30273 280.47461 z M 323.99609 280.50586 L 311.87891 289.38477 L 320.75781 301.50195 L 332.875 292.62305 L 323.99609 280.50586 z M 214.87891 280.55469 L 202.76172 289.43164 L 211.64062 301.54883 L 223.75781 292.66992 L 214.87891 280.55469 z M 381.58594 282.17773 L 366.84375 292.98047 L 368.86719 311.51367 L 385.92969 319.0293 L 400.96875 308.00977 L 399.60352 295.50195 L 381.58594 282.17773 z M 103.23242 282.45508 L 96.175781 287.625 L 104.18164 291.15039 L 103.23242 282.45508 z M 277.38672 284.01758 L 268.68945 284.9668 L 273.85938 292.02344 L 277.38672 284.01758 z M 286.49414 284.59961 L 280.4375 298.34766 L 294.18555 304.4043 L 300.24023 290.6543 L 286.49414 284.59961 z M 38.818359 286.33203 L 23.884766 287.96289 L 25.515625 302.89648 L 40.449219 301.26562 L 38.818359 286.33203 z M 47.677734 288.52148 L 48.628906 297.21875 L 55.685547 292.04688 L 47.677734 288.52148 z M 261.77539 290.0332 L 258.25 298.03711 L 266.94727 297.08789 L 261.77539 290.0332 z M 189.85938 293.57422 L 181.16211 294.52344 L 186.33398 301.58008 L 189.85938 293.57422 z M 80.744141 293.62109 L 72.046875 294.57031 L 77.216797 301.62695 L 80.744141 293.62109 z M 89.851562 294.20312 L 83.794922 307.95117 L 97.542969 314.00781 L 103.59961 300.25977 L 89.851562 294.20312 z M 358.52148 295.71094 L 343.58789 297.3418 L 345.21875 312.27344 L 360.15234 310.64453 L 358.52148 295.71094 z M 306.81836 296.98047 L 303.29297 304.98633 L 311.99023 304.03711 L 306.81836 296.98047 z M 197.70312 297.02734 L 194.17578 305.03516 L 202.875 304.08398 L 197.70312 297.02734 z M 172.39648 297.05664 L 160.2793 305.93555 L 169.1582 318.05273 L 181.27344 309.17383 L 172.39648 297.05664 z M 63.279297 297.10547 L 51.162109 305.98438 L 60.041016 318.10156 L 72.158203 309.22266 L 63.279297 297.10547 z M 230.28516 298.51367 L 215.24414 309.5332 L 217.26953 328.06641 L 234.33008 335.58008 L 249.37109 324.56055 L 247.3457 306.0293 L 230.28516 298.51367 z M 125.78516 300.57031 L 117.08984 301.51953 L 122.25977 308.57617 L 125.78516 300.57031 z M 16.703125 301.13672 L 16.960938 305.79688 L 17.193359 305.62695 L 16.703125 301.13672 z M 134.89453 301.15234 L 128.83789 314.90039 L 142.58594 320.95508 L 148.64258 307.20703 L 134.89453 301.15234 z M 335.4082 301.38867 L 328.35156 306.56055 L 336.35938 310.08594 L 335.4082 301.38867 z M 408.98242 302.4375 L 409.29297 305.2793 L 412.37109 304.94336 L 408.98242 302.4375 z M 270.99609 305.26758 L 256.06055 306.89844 L 257.69336 321.83008 L 272.62695 320.19922 L 270.99609 305.26758 z M 110.17578 306.58398 L 106.65039 314.58984 L 115.34766 313.64062 L 110.17578 306.58398 z M 279.85547 307.45508 L 280.80469 316.15234 L 287.86133 310.98242 L 279.85547 307.45508 z M 38.259766 310.125 L 29.564453 311.07422 L 34.734375 318.13281 L 38.259766 310.125 z M 316.03906 312.21484 L 301.10547 313.8457 L 302.73633 328.7793 L 317.66797 327.14844 L 316.03906 312.21484 z M 206.92188 312.26367 L 191.98828 313.89453 L 193.61914 328.82617 L 208.55273 327.19531 L 206.92188 312.26367 z M 422.03711 312.50781 L 413.33984 313.45703 L 418.50977 320.51367 L 422.03711 312.50781 z M 155.2207 313.53125 L 151.69336 321.53711 L 160.39062 320.58984 L 155.2207 313.53125 z M 46.103516 313.58008 L 42.578125 321.58594 L 51.273438 320.63672 L 46.103516 313.58008 z M 20.796875 313.60938 L 17.527344 316.00391 L 18.519531 333.90039 L 29.675781 325.72656 L 20.796875 313.60938 z M 324.89844 314.4043 L 325.84766 323.09961 L 332.9043 317.92773 L 324.89844 314.4043 z M 78.683594 315.06445 L 63.644531 326.08398 L 65.669922 344.61914 L 82.732422 352.13281 L 97.771484 341.11328 L 95.746094 322.57812 L 78.683594 315.06445 z M 404.57422 315.99219 L 392.45508 324.87109 L 401.33594 336.98828 L 413.45312 328.10938 L 404.57422 315.99219 z M 429.24023 317.41797 L 425.08984 326.83984 L 438.83594 332.89453 L 441.62109 326.57227 L 429.24023 317.41797 z M 292.92578 317.89453 L 285.86914 323.06445 L 293.875 326.58984 L 292.92578 317.89453 z M 183.81055 317.94141 L 176.75391 323.11328 L 184.75977 326.63867 L 183.81055 317.94141 z M 357.96289 319.50391 L 349.26562 320.45312 L 354.4375 327.50977 L 357.96289 319.50391 z M 367.07031 320.08594 L 361.01562 333.83398 L 374.76367 339.89062 L 380.81836 326.14258 L 367.07031 320.08594 z M 119.39648 321.81836 L 104.46289 323.44922 L 106.09375 338.38281 L 121.02734 336.75195 L 119.39648 321.81836 z M 340.5 322.98828 L 328.38281 331.86719 L 337.26172 343.98438 L 349.37891 335.10547 L 340.5 322.98828 z M 128.25586 324.00781 L 129.20508 332.70508 L 136.26172 327.5332 L 128.25586 324.00781 z M 164.43945 328.76758 L 149.50586 330.39844 L 151.13672 345.33008 L 166.07031 343.69922 L 164.43945 328.76758 z M 55.322266 328.81445 L 40.388672 330.44531 L 42.019531 345.37891 L 56.953125 343.74805 L 55.322266 328.81445 z M 270.4375 329.06055 L 261.74023 330.00977 L 266.91211 337.06641 L 270.4375 329.06055 z M 279.54492 329.64258 L 273.49023 343.39062 L 287.23828 349.44531 L 293.29297 335.69922 L 279.54492 329.64258 z M 173.29883 330.95703 L 174.24805 339.65039 L 181.30469 334.48047 L 173.29883 330.95703 z M 448.68359 331.79688 L 445.94922 338.00586 L 456.9707 353.04492 L 474.78711 351.09961 L 448.68359 331.79688 z M 387.39648 332.4668 L 383.87109 340.47266 L 392.56836 339.52344 L 387.39648 332.4668 z M 252.97461 332.54492 L 240.85742 341.42383 L 249.73633 353.54102 L 261.85352 344.66211 L 252.97461 332.54492 z M 141.32617 334.44531 L 134.26953 339.61719 L 142.27734 343.14258 L 141.32617 334.44531 z M 32.210938 334.49414 L 25.154297 339.66406 L 33.160156 343.18945 L 32.210938 334.49414 z M 320.40039 335.4707 L 301.86523 337.49609 L 294.35156 354.55469 L 294.68555 355.01172 L 329.4375 355.01172 L 331.41992 350.50977 L 320.40039 335.4707 z M 424.50586 335.94727 L 425.45703 344.64258 L 432.51172 339.47266 L 424.50586 335.94727 z M 206.36328 336.05664 L 197.66797 337.00586 L 202.83789 344.06055 L 206.36328 336.05664 z M 215.47266 336.63867 L 209.41602 350.38672 L 219.91797 355.01172 L 223.79297 355.01172 L 229.21875 342.69336 L 215.47266 336.63867 z M 415.98633 336.87695 L 408.93164 342.04688 L 416.9375 345.57227 L 415.98633 336.87695 z M 188.90039 339.54102 L 176.7832 348.41992 L 181.61328 355.01172 L 193.20312 355.01172 L 197.7793 351.6582 L 188.90039 339.54102 z M 360.43164 342.94141 L 361.38281 351.63867 L 368.43945 346.46875 L 360.43164 342.94141 z M 351.91211 343.87305 L 344.85742 349.04297 L 352.86133 352.56836 L 351.91211 343.87305 z M 440.10742 344.53125 L 427.99023 353.41016 L 429.16406 355.01172 L 447.78711 355.01172 L 440.10742 344.53125 z M 118.83789 345.61133 L 110.14258 346.56055 L 115.3125 353.61914 L 118.83789 345.61133 z M 127.94531 346.19531 L 124.0625 355.01172 L 140.47656 355.01172 L 141.69336 352.25 L 127.94531 346.19531 z M 21.699219 347.50781 L 22.517578 355.01172 L 24.275391 355.01172 L 29.705078 351.0332 L 21.699219 347.50781 z M 393.49609 348.04297 L 384.80078 348.99219 L 389.21289 355.01172 L 390.42969 355.01172 L 393.49609 348.04297 z M 402.60547 348.625 L 399.79297 355.01172 L 416.20898 355.01172 L 416.35352 354.68164 L 402.60547 348.625 z M 235.79883 349.01758 L 233.1582 355.01172 L 240.18945 355.01172 L 235.79883 349.01758 z M 101.375 349.0957 L 93.300781 355.01172 L 105.71094 355.01172 L 101.375 349.0957 z M 376.03516 351.52734 L 371.2793 355.01172 L 378.58789 355.01172 L 376.03516 351.52734 z M 168.80078 352.02344 L 150.26562 354.04688 L 149.83984 355.01172 L 170.99023 355.01172 L 168.80078 352.02344 z M 272.90625 352.49805 L 273.18164 355.01172 L 278.61523 355.01172 L 272.90625 352.49805 z M 54.763672 352.60938 L 46.068359 353.55859 L 47.132812 355.01172 L 53.705078 355.01172 L 54.763672 352.60938 z M 63.873047 353.19141 L 63.070312 355.01172 L 68.005859 355.01172 L 63.873047 353.19141 z M 264.38672 353.42773 L 262.22461 355.01172 L 264.56055 355.01172 L 264.38672 353.42773 z "
     style="fill:#ffff00;stroke:#000000;stroke-width:1px;stroke-linecap:butt;stroke-linejoin:miter;stroke-opacity:1"
     id="path15637" />
</svg>
