<?xml version="1.0" encoding="UTF-8" standalone="no"?>
<svg
   xmlns:dc="http://purl.org/dc/elements/1.1/"
   xmlns:cc="http://creativecommons.org/ns#"
   xmlns:rdf="http://www.w3.org/1999/02/22-rdf-syntax-ns#"
   xmlns:svg="http://www.w3.org/2000/svg"
   xmlns="http://www.w3.org/2000/svg"
   xmlns:sodipodi="http://sodipodi.sourceforge.net/DTD/sodipodi-0.dtd"
   xmlns:inkscape="http://www.inkscape.org/namespaces/inkscape"
   inkscape:version="1.0beta1 (32d4812, 2019-09-19)"
   sodipodi:docname="small-icosacronic-hexecontahedron__3-uniform_22.svg"
   id="svg837"
   version="1.1"
   data-reactroot=""
   viewBox="0 0 480.0773416302003 355.01226963825025">
  <style
     id="style845"></style>
  <metadata
     id="metadata843">
    <rdf:RDF>
      <cc:Work
         rdf:about="">
        <dc:format>image/svg+xml</dc:format>
        <dc:type
           rdf:resource="http://purl.org/dc/dcmitype/StillImage" />
        <dc:title></dc:title>
      </cc:Work>
    </rdf:RDF>
  </metadata>
  <defs
     id="defs841" />
  <sodipodi:namedview
     inkscape:current-layer="svg837"
     inkscape:window-maximized="0"
     inkscape:window-y="23"
     inkscape:window-x="0"
     inkscape:cy="20.979883"
     inkscape:cx="-91.081724"
     inkscape:zoom="0.77804329"
     inkscape:snap-global="false"
     showgrid="false"
     id="namedview839"
     inkscape:window-height="907"
     inkscape:window-width="1600"
     inkscape:pageshadow="2"
     inkscape:pageopacity="0"
     guidetolerance="10"
     gridtolerance="10"
     objecttolerance="10"
     borderopacity="1"
     inkscape:document-rotation="0"
     bordercolor="#666666"
     pagecolor="#ffffff" />
  <path
     d="M 0 0 L 0.47265625 8.5195312 L 11.884766 9.8164062 L 11.992188 8.8691406 L 0 0 z M 1.1132812 20.0625 L 1.515625 27.341797 L 6.4511719 20.669922 L 1.1132812 20.0625 z M 18.095703 24.09375 L 6.5800781 39.664062 L 22.148438 51.179688 L 33.664062 35.609375 L 18.095703 24.09375 z M 42.828125 42.388672 L 31.3125 57.958984 L 46.880859 69.474609 L 58.398438 53.90625 L 42.828125 42.388672 z M 2.8320312 51.066406 L 4.1855469 75.462891 L 15.371094 60.341797 L 2.8320312 51.066406 z M 68.994141 58.748047 L 54.613281 78.189453 L 64.259766 100.36523 L 88.289062 103.09961 L 102.66992 83.65625 L 97.708984 72.253906 L 81.34375 60.152344 L 68.994141 58.748047 z M 24.535156 67.121094 L 13.019531 82.689453 L 28.587891 94.205078 L 40.103516 78.636719 L 24.535156 67.121094 z M 46.787109 88.771484 L 40.234375 97.628906 L 51.183594 98.875 L 46.787109 88.771484 z M 5.0449219 90.970703 L 7.4726562 134.7207 L 21.011719 128.83203 L 23.746094 104.80273 L 5.0449219 90.970703 z M 110.40234 92.371094 L 98.884766 107.94141 L 114.45312 119.45703 L 125.96875 103.88672 L 110.40234 92.371094 z M 34.798828 108.48438 L 32.611328 127.72461 L 51.851562 129.91602 L 54.041016 110.67383 L 34.798828 108.48438 z M 135.13281 110.66602 L 123.61719 126.23438 L 139.18555 137.75 L 150.70117 122.18164 L 135.13281 110.66602 z M 65.367188 111.96289 L 63.175781 131.20312 L 82.417969 133.39258 L 84.607422 114.15039 L 65.367188 111.96289 z M 95.460938 119.58594 L 94.216797 130.53516 L 104.32031 126.13867 L 95.460938 119.58594 z M 165.49609 122.38086 L 174.86133 143.91016 L 198.19727 146.56445 L 165.49609 122.38086 z M 157.38477 132.31445 L 150.83008 141.17578 L 161.7832 142.42188 L 157.38477 132.31445 z M 114.90234 133.96484 L 92.728516 143.61133 L 89.994141 167.64062 L 109.43555 182.02148 L 131.61133 172.375 L 134.34375 148.3457 L 114.90234 133.96484 z M 31.322266 139.05078 L 29.132812 158.29297 L 48.373047 160.48047 L 50.564453 141.24023 L 31.322266 139.05078 z M 19.525391 141.9082 L 9.4199219 146.30469 L 18.277344 152.85742 L 19.525391 141.9082 z M 61.888672 142.52734 L 59.699219 161.76953 L 78.941406 163.95898 L 81.128906 144.71875 L 61.888672 142.52734 z M 145.39844 152.0293 L 143.21094 171.26953 L 162.45117 173.45898 L 164.64062 154.2168 L 145.39844 152.0293 z M 175.96484 155.50781 L 173.77539 174.74805 L 193.01562 176.9375 L 195.20508 157.69531 L 175.96484 155.50781 z M 8.8789062 160.08398 L 9.5234375 171.71094 L 14.855469 164.50391 L 8.8789062 160.08398 z M 206.05859 163.12891 L 204.8125 174.08008 L 214.91992 169.68359 L 206.05859 163.12891 z M 25.451172 169.3457 L 11.070312 188.78711 L 20.716797 210.96289 L 44.744141 213.69727 L 59.125 194.25391 L 49.478516 172.07812 L 25.451172 169.3457 z M 62.556641 173.56641 L 66.953125 183.67188 L 73.507812 174.8125 L 62.556641 173.56641 z M 225.50195 177.50977 L 203.32617 187.1582 L 200.59375 211.18555 L 220.03516 225.56641 L 242.21094 215.91797 L 244.94336 191.89062 L 225.50195 177.50977 z M 85.152344 178.23633 L 73.636719 193.80469 L 89.205078 205.32031 L 100.7207 189.75195 L 85.152344 178.23633 z M 141.92188 182.5957 L 139.73242 201.83789 L 158.97266 204.02539 L 161.16211 184.78516 L 141.92188 182.5957 z M 130.12305 185.45117 L 120.01562 189.84766 L 128.87891 196.40234 L 130.12305 185.45117 z M 172.48828 186.07227 L 170.29883 205.31445 L 189.54102 207.50195 L 191.72852 188.26172 L 172.48828 186.07227 z M 255.99609 195.57422 L 253.80859 214.81445 L 273.04883 217.00391 L 274.63281 203.08789 L 266.01172 196.71289 L 255.99609 195.57422 z M 109.88477 196.53125 L 98.369141 212.09961 L 113.9375 223.61719 L 125.45312 208.04883 L 109.88477 196.53125 z M 66.857422 202.96875 L 55.341797 218.53711 L 70.910156 230.05273 L 82.425781 214.48438 L 66.857422 202.96875 z M 285.21289 210.91211 L 284.37305 218.29102 L 297.16016 219.74609 L 285.21289 210.91211 z M 136.05078 212.89062 L 121.66992 232.33203 L 131.31641 254.50781 L 155.34375 257.24023 L 169.72461 237.79883 L 160.07812 215.62109 L 136.05078 212.89062 z M 173.15625 217.11133 L 177.55273 227.21875 L 184.10742 218.35547 L 173.15625 217.11133 z M 91.589844 221.26367 L 80.074219 236.83203 L 95.644531 248.34961 L 107.16016 232.78125 L 91.589844 221.26367 z M 195.75195 221.78125 L 184.23438 237.34961 L 199.80273 248.86523 L 211.32031 233.29688 L 195.75195 221.78125 z M 21.824219 222.55859 L 19.634766 241.80273 L 38.876953 243.99023 L 41.064453 224.75 L 21.824219 222.55859 z M 252.51953 226.13867 L 250.33203 245.38086 L 269.57227 247.56836 L 271.76172 228.32812 L 252.51953 226.13867 z M 240.72461 228.99609 L 230.61719 233.39258 L 239.47852 239.94727 L 240.72461 228.99609 z M 283.08594 229.61719 L 280.89648 248.85742 L 300.14062 251.04688 L 302.32812 231.80664 L 283.08594 229.61719 z M 51.917969 230.18164 L 50.671875 241.13086 L 60.779297 236.73633 L 51.917969 230.18164 z M 313.77344 232.03125 L 311.19141 254.73047 L 330.63281 269.11133 L 351.58789 259.99414 L 313.77344 232.03125 z M 220.48438 240.07422 L 208.9668 255.64453 L 224.53711 267.16016 L 236.05273 251.5918 L 220.48438 240.07422 z M 113.8418 242.91211 L 107.28906 251.77344 L 118.23828 253.01953 L 113.8418 242.91211 z M 71.359375 244.5625 L 49.183594 254.21094 L 46.451172 278.23828 L 65.892578 292.61914 L 88.068359 282.97266 L 90.802734 258.94336 L 71.359375 244.5625 z M 177.45703 246.51367 L 165.94141 262.08203 L 181.50977 273.59766 L 193.02539 258.0293 L 177.45703 246.51367 z M 18.347656 253.125 L 16.15625 272.36719 L 35.398438 274.55469 L 37.587891 255.31445 L 18.347656 253.125 z M 246.65039 256.43359 L 232.26953 275.87695 L 241.91406 298.05078 L 265.94336 300.78516 L 280.32422 281.3418 L 270.67773 259.16602 L 246.65039 256.43359 z M 283.75586 260.6543 L 288.15234 270.76172 L 294.70703 261.90039 L 283.75586 260.6543 z M 101.85547 262.62695 L 99.667969 281.86719 L 118.9082 284.05664 L 121.0957 264.81445 L 101.85547 262.62695 z M 202.18945 264.80859 L 190.67383 280.37695 L 206.24219 291.89258 L 217.75781 276.32422 L 202.18945 264.80859 z M 306.35156 265.32617 L 294.83594 280.89453 L 310.4043 292.41016 L 321.91992 276.8418 L 306.35156 265.32617 z M 132.42188 266.10547 L 130.23242 285.3457 L 149.47461 287.53516 L 151.66211 268.29297 L 132.42188 266.10547 z M 363.11914 269.68359 L 360.92969 288.92578 L 380.16992 291.11328 L 381.21875 281.90625 L 364.97461 269.89453 L 363.11914 269.68359 z M 351.32227 272.54102 L 341.21484 276.9375 L 350.07617 283.49219 L 351.32227 272.54102 z M 162.51562 273.72656 L 161.27148 284.67773 L 171.37695 280.28125 L 162.51562 273.72656 z M 331.08398 283.61914 L 319.56836 299.1875 L 335.13672 310.70312 L 346.65234 295.13477 L 331.08398 283.61914 z M 19.015625 284.16211 L 23.412109 294.26758 L 29.964844 285.4082 L 19.015625 284.16211 z M 224.44141 286.45703 L 217.88867 295.31641 L 228.83789 296.5625 L 224.44141 286.45703 z M 181.95898 288.10938 L 159.7832 297.75391 L 157.04883 321.7832 L 176.49219 336.16406 L 198.66797 326.51758 L 201.40039 302.49023 L 181.95898 288.10938 z M 41.609375 288.83203 L 30.09375 304.40234 L 45.662109 315.91797 L 57.179688 300.34961 L 41.609375 288.83203 z M 391.80078 289.73047 L 391.49609 292.40234 L 396.125 292.92969 L 391.80078 289.73047 z M 288.05664 290.05859 L 276.53906 305.62695 L 292.10742 317.14258 L 303.625 301.57422 L 288.05664 290.05859 z M 98.378906 293.19336 L 96.189453 312.43359 L 115.43164 314.62305 L 117.61914 295.38086 L 98.378906 293.19336 z M 86.580078 296.04883 L 76.476562 300.44531 L 85.335938 306.99805 L 86.580078 296.04883 z M 128.94531 296.66992 L 126.75586 315.91016 L 145.99609 318.10156 L 148.18555 298.85938 L 128.94531 296.66992 z M 357.24805 299.97852 L 342.86719 319.41797 L 352.51562 341.59375 L 376.54102 344.32812 L 390.92383 324.88672 L 381.27539 302.71094 L 357.24805 299.97852 z M 394.35352 304.19922 L 398.75 314.30469 L 405.30273 305.44531 L 394.35352 304.19922 z M 212.45312 306.17188 L 210.26562 325.41211 L 229.50586 327.60156 L 231.69531 308.35938 L 212.45312 306.17188 z M 66.34375 307.12891 L 54.826172 322.69727 L 70.396484 334.21484 L 81.912109 318.64453 L 66.34375 307.12891 z M 312.78906 308.35156 L 301.27148 323.92188 L 316.83984 335.4375 L 328.35742 319.86719 L 312.78906 308.35156 z M 416.94922 308.86914 L 405.43164 324.43945 L 421.00195 335.95508 L 432.51758 320.38477 L 416.94922 308.86914 z M 243.01953 309.64844 L 240.83008 328.89062 L 260.07227 331.07812 L 262.26172 311.83789 L 243.01953 309.64844 z M 23.314453 313.56445 L 17.804688 321.01172 L 18.533203 334.11328 L 27.369141 340.65039 L 38.884766 325.08203 L 23.314453 313.56445 z M 273.11523 317.27148 L 271.86914 328.2207 L 281.97461 323.82617 L 273.11523 317.27148 z M 92.509766 323.48633 L 78.126953 342.92969 L 83.382812 355.01172 L 121.28906 355.01172 L 126.18359 348.39453 L 116.53711 326.21875 L 92.509766 323.48633 z M 441.68164 327.16406 L 430.16602 342.73438 L 445.73438 354.25 L 457.25 338.67969 L 441.68164 327.16406 z M 129.61523 327.70703 L 134.00977 337.8125 L 140.5625 328.95312 L 129.61523 327.70703 z M 335.04102 330 L 328.48633 338.86133 L 339.4375 340.10742 L 335.04102 330 z M 292.55664 331.65234 L 270.38281 341.29883 L 268.82227 355.01172 L 310.97852 355.01172 L 312 346.03516 L 292.55664 331.65234 z M 48.048828 331.86133 L 36.533203 347.42773 L 46.785156 355.01172 L 55.013672 355.01172 L 63.619141 343.37695 L 48.048828 331.86133 z M 152.20703 332.37891 L 140.69141 347.94727 L 150.24414 355.01172 L 159.55469 355.01172 L 167.77734 343.89453 L 152.20703 332.37891 z M 398.6543 333.60156 L 387.13867 349.16992 L 395.03711 355.01172 L 406.90625 355.01172 L 414.22461 345.11719 L 398.6543 333.60156 z M 208.97656 336.73828 L 206.89844 355.01172 L 226.38867 355.01172 L 228.21875 338.92578 L 208.97656 336.73828 z M 197.17969 339.5957 L 187.07422 343.99023 L 195.93555 350.54492 L 197.17969 339.5957 z M 239.54297 340.21484 L 237.85938 355.01172 L 257.35156 355.01172 L 258.78516 342.4043 L 239.54297 340.21484 z M 466.67773 345.10352 L 459.34961 355.01172 L 480.07812 355.01172 L 466.67773 345.10352 z M 323.05273 349.7168 L 322.45117 355.01172 L 341.94141 355.01172 L 342.29492 351.9043 L 323.05273 349.7168 z M 176.94141 350.67383 L 173.73242 355.01172 L 182.80664 355.01172 L 176.94141 350.67383 z M 423.38867 351.89648 L 421.08398 355.01172 L 427.59961 355.01172 L 423.38867 351.89648 z M 353.61914 353.19336 L 353.41211 355.01172 L 369.61328 355.01172 L 353.61914 353.19336 z M 70.300781 353.50977 L 69.189453 355.01172 L 70.955078 355.01172 L 70.300781 353.50977 z "
     id="path835" />
  <style
     id="style6297" />
</svg>
