<?xml version="1.0" encoding="UTF-8" standalone="no"?>
<svg
   xmlns:dc="http://purl.org/dc/elements/1.1/"
   xmlns:cc="http://creativecommons.org/ns#"
   xmlns:rdf="http://www.w3.org/1999/02/22-rdf-syntax-ns#"
   xmlns:svg="http://www.w3.org/2000/svg"
   xmlns="http://www.w3.org/2000/svg"
   xmlns:sodipodi="http://sodipodi.sourceforge.net/DTD/sodipodi-0.dtd"
   xmlns:inkscape="http://www.inkscape.org/namespaces/inkscape"
   inkscape:version="1.0beta1 (32d4812, 2019-09-19)"
   sodipodi:docname="1-uniform_n10.svg"
   id="svg70217"
   height="978.98535"
   width="1000.0"
   version="1.0">
  <metadata
     id="metadata70223">
    <rdf:RDF>
      <cc:Work
         rdf:about="">
        <dc:format>image/svg+xml</dc:format>
        <dc:type
           rdf:resource="http://purl.org/dc/dcmitype/StillImage" />
        <dc:title></dc:title>
      </cc:Work>
    </rdf:RDF>
  </metadata>
  <defs
     id="defs70221" />
  <sodipodi:namedview
     inkscape:current-layer="svg70217"
     inkscape:window-maximized="1"
     inkscape:window-y="23"
     inkscape:window-x="0"
     inkscape:cy="483.52064"
     inkscape:cx="345.33937"
     inkscape:zoom="0.81422485"
     showgrid="false"
     id="namedview70219"
     inkscape:window-height="1005"
     inkscape:window-width="1680"
     inkscape:pageshadow="2"
     inkscape:pageopacity="0"
     guidetolerance="10"
     gridtolerance="10"
     objecttolerance="10"
     borderopacity="1"
     inkscape:document-rotation="0"
     bordercolor="#666666"
     pagecolor="#ffffff" />
  <!-- X Coordinate transform: fx(x)=(x+132.5)*0.7905138-->
  <!-- Y Coordinate transform: fy(y)=(1119.2083-y)*0.7905138 -->
  <!-- Flac geometry view -->
  <path
     d="M 934.783,78.73 915.02,112.96 895.257,78.73 Z m -39.526,821.526 h -39.526 l 19.763,-34.231 z M 65.217,147.19 h 39.526 L 84.98,181.42 Z M 45.455,181.42 H 84.98 l -19.763,34.231 z m 0,616.145 19.762,-34.23 19.763,34.23 z m 19.762,34.23 19.763,-34.23 19.763,34.23 z m 39.526,68.461 19.763,-34.231 19.763,34.231 z M 934.783,147.19 915.02,181.42 895.257,147.19 Z m 0,0 H 895.257 L 915.02,112.96 Z M 895.257,78.73 h -39.526 l 19.763,-34.231 z m -39.526,0 h -39.525 l 19.762,-34.231 z m 79.052,753.065 h -39.526 l 19.763,-34.23 z m 0,0 -19.763,-34.23 h 39.525 z m -79.052,68.461 -19.763,-34.231 h 39.526 z m 19.763,-34.231 -19.763,-34.23 h 39.526 z M 183.794,78.73 203.557,44.499 223.32,78.73 Z m 0,0 19.763,34.23 h -39.525 z m -59.288,34.23 h 39.526 l -19.763,34.23 z m 0,0 19.763,34.23 h -39.526 z m -39.526,68.46 19.763,34.231 H 65.217 Z m -19.763,34.231 19.763,34.23 H 45.455 Z m 39.526,684.605 h 39.526 l -19.763,34.23 z M 45.455,249.881 H 84.98 l -19.763,34.23 z m 0,479.223 19.762,-34.23 19.763,34.23 z m 0,0 H 84.98 l -19.763,34.231 z m 39.525,68.461 h 39.526 l -19.763,34.23 z m 19.763,34.23 h 39.526 l -19.763,34.23 z m 39.526,68.461 19.763,-34.231 19.762,34.231 z m -19.763,-34.231 19.763,-34.23 19.763,34.23 z m 59.288,34.231 h 39.526 l -19.763,34.23 z m 750.989,-684.605 19.762,34.23 H 915.02 Z m 0,0 H 895.257 L 915.02,181.42 Z M 915.02,181.42 895.257,215.651 875.494,181.42 Z m -19.763,-34.23 -19.763,34.23 -19.763,-34.23 z M 855.731,78.73 835.968,112.96 816.206,78.73 Z m -39.525,0 -19.763,34.23 -19.763,-34.23 z m -39.526,0 h -39.526 l 19.763,-34.231 z m 118.577,753.065 h -39.526 l 19.763,-34.23 z m 19.763,-34.23 h -39.526 l 19.763,-34.23 z m 0,-68.461 19.763,-34.23 19.762,34.23 z m -138.34,171.152 -19.763,34.23 -19.763,-34.23 z m 0,0 -19.763,-34.231 h 39.526 z m 59.288,-34.231 h -39.525 l 19.763,-34.23 z m 0,0 -19.762,-34.23 h 39.525 z M 262.846,78.73 282.609,44.499 302.372,78.73 Z m -39.526,0 h 39.526 l -19.763,34.23 z m 0,0 19.763,34.23 h -39.526 z m -59.288,34.23 h 39.525 l -19.763,34.23 z m -19.763,34.23 h 39.525 l -19.762,34.23 z m -39.526,68.461 h 39.526 l -19.763,34.23 z m 0,0 19.763,34.23 H 84.98 Z m -39.526,68.46 19.763,34.23 H 45.455 Z M 84.98,112.96 104.743,147.19 H 65.217 Z M 45.455,660.644 H 84.98 l -19.763,34.23 z m 19.762,34.23 19.763,-34.23 19.763,34.23 z m 19.763,34.23 19.763,-34.23 19.763,34.23 z m 39.526,68.461 19.763,-34.23 19.763,34.23 z m 0,0 h 39.526 l -19.763,34.23 z m 59.288,102.691 -19.762,-34.231 h 39.525 z m 39.526,0 -19.763,-34.231 h 39.526 z M 104.743,78.73 124.506,112.96 H 84.98 Z m 0,0 L 84.98,112.96 65.217,78.73 Z m 830.04,273.842 -19.763,-34.231 h 39.525 z m -19.763,-102.691 -19.763,34.23 -19.763,-34.23 z m 0,0 h -39.526 l 19.763,-34.23 z M 875.494,181.42 h -39.526 l 19.763,-34.23 z m -19.763,-34.23 h -39.525 l 19.762,-34.23 z m -19.763,-34.23 -19.762,34.23 -19.763,-34.23 z m -59.288,-34.23 19.763,34.23 h -39.526 z m -39.526,0 19.763,34.23 h -39.526 z m 138.34,718.835 -19.763,-34.23 h 39.526 z m 19.763,-34.23 -19.763,-34.231 h 39.526 z m 19.763,-34.231 h -39.526 l 19.763,-34.23 z m 19.763,-34.23 h -39.526 l 19.763,-34.23 z M 954.545,112.96 H 915.02 l 19.763,-34.23 z m -256.917,787.296 -19.762,34.23 -19.763,-34.23 z m 39.526,0 h -39.526 l 19.763,-34.231 z m 0,0 -19.763,-34.231 h 39.526 z m 59.289,-34.231 h -39.526 l 19.763,-34.23 z m 19.763,-34.23 H 776.68 l 19.763,-34.23 z M 618.577,78.73 h -39.526 l 19.763,-34.231 z m -39.526,0 h -39.525 l 19.763,-34.231 z m -79.051,0 h -39.526 l 19.763,-34.231 z m -197.628,0 19.762,-34.231 19.763,34.231 z m -39.526,0 h 39.526 l -19.763,34.23 z m -19.763,34.23 h 39.526 l -19.763,34.23 z m -59.289,34.23 19.763,34.23 h -39.525 z m -19.762,34.23 19.762,34.231 h -39.525 z m -19.763,34.231 h 39.525 l -19.762,34.23 z m -19.763,34.23 h 39.526 l -19.763,34.23 z m -39.526,68.46 h 39.526 l -19.763,34.231 z m 0,0 19.763,34.231 H 65.217 Z M 65.217,900.256 h 39.526 l -19.763,34.23 z m 0,-479.224 19.763,34.23 H 45.455 Z m 0,136.921 -19.762,-34.23 H 84.98 Z m 0,0 h 39.526 l -19.763,34.23 z m 0,68.461 19.763,-34.231 19.763,34.231 z m 0,0 h 39.526 l -19.763,34.23 z m 39.526,68.46 h 39.526 l -19.763,34.23 z m 19.763,34.23 h 39.526 l -19.763,34.231 z m 19.763,34.231 19.763,-34.231 19.762,34.231 z m 19.763,34.23 19.762,-34.23 19.763,34.23 z m 39.525,68.46 19.763,-34.23 19.763,34.23 z m 39.526,0 19.763,-34.23 19.763,34.23 z m 59.289,34.231 -19.763,-34.231 h 39.525 z m 0,0 19.762,-34.231 19.763,34.231 z m 39.525,0 h 39.526 l -19.763,34.23 z m 39.526,0 h 39.526 l -19.763,34.23 z m 79.051,0 H 500 l -19.763,34.23 z m 474.309,0 -19.763,34.23 -19.763,-34.23 z m -276.68,0 -19.763,34.23 -19.763,-34.23 z M 934.783,352.572 H 895.257 L 915.02,318.341 Z M 915.02,318.341 h -39.526 l 19.763,-34.23 z m -19.763,-34.23 -19.763,34.23 -19.763,-34.23 z m -19.763,-34.23 -19.763,34.23 -19.763,-34.23 z M 835.968,181.42 816.206,215.651 796.443,181.42 Z m 0,0 h -39.525 l 19.763,-34.23 z m -79.051,-68.46 -19.763,34.23 -19.763,-34.23 z m -39.526,0 -19.763,34.23 -19.762,-34.23 z m -59.288,-34.23 19.763,34.23 H 638.34 Z m 0,0 -19.763,34.23 -19.763,-34.23 z m 197.628,684.605 h -39.525 l 19.762,-34.231 z m 0,0 -19.763,-34.231 h 39.526 z m 39.526,-68.461 -19.763,-34.23 h 39.526 z m 19.763,-34.23 -19.763,-34.23 h 39.526 z m 39.525,-68.461 H 915.02 l 19.763,-34.23 z m -19.762,34.231 h -39.526 l 19.763,-34.231 z m 19.762,-102.691 -19.762,34.23 -19.763,-34.23 z m 0,0 H 915.02 l 19.763,-34.23 z m 0,-68.461 -19.762,34.231 -19.763,-34.231 z m -19.762,-34.23 -19.763,34.23 -19.763,-34.23 z M 697.628,900.256 h -39.525 l 19.763,-34.231 z m 19.763,-34.231 h -39.525 l 19.762,-34.23 z m 59.289,-34.23 -19.763,-34.23 h 39.526 z m 19.763,-34.23 -19.763,-34.23 h 39.526 z M 579.051,78.73 559.289,112.96 539.526,78.73 Z m -39.525,0 -19.763,34.23 L 500,78.73 Z m -39.526,0 19.763,34.23 h -39.526 z m -39.526,0 19.763,34.23 h -39.526 z m -79.051,0 19.763,34.23 H 361.66 Z m 0,0 -19.763,34.23 -19.763,-34.23 z m -98.814,34.23 19.763,34.23 h -39.526 z m -19.763,34.23 19.763,34.23 h -39.526 z m -59.289,34.23 h 39.526 l -19.763,34.231 z m 0,0 19.763,34.231 h -39.526 z m -39.525,68.461 19.762,34.23 h -39.525 z m -19.763,34.23 19.763,34.23 h -39.526 z m -19.763,34.23 h 39.526 l -19.763,34.231 z m -19.763,34.231 h 39.526 l -19.763,34.23 z m -39.526,68.46 h 39.526 l -19.763,34.23 z m 19.763,34.23 h 39.526 l -19.763,34.231 z m 0,68.461 19.763,-34.23 19.763,34.23 z m 0,0 h 39.526 l -19.763,34.23 z m 0,68.46 19.763,-34.23 19.763,34.23 z m 19.763,34.231 19.763,-34.231 19.763,34.231 z m 39.526,68.46 19.763,-34.23 19.762,34.23 z m 0,0 h 39.525 l -19.762,34.23 z m 39.525,68.461 h 39.526 l -19.763,34.23 z m 19.763,34.23 h 39.526 l -19.763,34.23 z m 19.763,34.23 19.763,-34.23 19.763,34.23 z m 59.289,34.23 -19.763,-34.23 h 39.526 z m 39.525,0 -19.762,-34.23 h 39.525 z m 59.289,34.231 19.763,-34.231 19.763,34.231 z m 39.526,0 19.762,-34.231 19.763,34.231 z m 39.525,0 -19.763,-34.231 h 39.526 z m 39.526,0 -19.763,-34.231 h 39.526 z m 79.051,0 -19.762,-34.231 h 39.525 z m 0,0 19.763,-34.231 19.763,34.231 z m 316.206,-547.684 -19.763,34.23 -19.763,-34.23 z m 0,0 h -39.526 l 19.763,-34.231 z m -39.526,-68.461 h -39.525 l 19.762,-34.23 z m -19.763,-34.23 h -39.525 l 19.763,-34.23 z M 796.443,181.42 776.68,215.651 756.917,181.42 Z m 19.763,34.231 -19.763,34.23 -19.763,-34.23 z m -79.052,-68.461 19.763,34.23 h -39.526 z m 0,0 -19.763,34.23 -19.763,-34.23 z m -59.288,-34.23 19.762,34.23 h -39.525 z m -39.526,0 19.763,34.23 H 618.577 Z M 816.206,763.335 H 776.68 l 19.763,-34.231 z m 19.762,-34.231 h -39.525 l 19.763,-34.23 z m 39.526,-68.46 h -39.526 l 19.763,-34.23 z m 0,0 -19.763,-34.23 h 39.526 z m 59.289,-102.691 -19.763,34.23 -19.763,-34.23 z m -19.763,-34.23 -19.763,34.23 -19.763,-34.23 z m 0,-68.461 h -39.526 l 19.763,-34.23 z m -19.763,-34.23 h -39.526 l 19.763,-34.23 z m -217.391,444.993 -19.763,-34.23 h 39.525 z m 19.762,-34.23 -19.762,-34.23 h 39.525 z m 59.289,-34.23 h -39.526 l 19.763,-34.23 z m 0,0 -19.763,-34.23 H 776.68 Z M 559.289,112.96 l 19.762,34.23 h -39.525 z m 0,0 -19.763,34.23 -19.763,-34.23 z m -79.052,0 -19.763,34.23 -19.763,-34.23 z m -39.526,0 -19.762,34.23 -19.763,-34.23 z m -79.051,0 19.763,34.23 h -39.526 z m 39.526,0 19.763,34.23 h -39.526 z m -98.814,34.23 h 39.525 l -19.763,34.23 z m 0,0 19.762,34.23 h -39.525 z m -59.289,34.23 h 39.526 l -19.763,34.231 z m -19.763,34.231 h 39.526 l -19.763,34.23 z m -39.526,68.46 h 39.526 l -19.763,34.23 z m 0,0 19.763,34.23 h -39.525 z m -39.525,68.461 19.763,34.23 h -39.526 z m -19.763,34.23 19.763,34.23 h -39.526 z m -19.763,34.23 h 39.526 l -19.763,34.23 z m 0,68.461 19.763,-34.231 19.763,34.231 z m 19.763,34.23 19.763,-34.23 19.763,34.23 z m 0,68.46 h 39.526 l -19.763,34.231 z m 19.763,34.231 h 39.525 l -19.762,34.23 z m 19.763,34.23 19.762,-34.23 19.763,34.23 z m 19.762,34.23 19.763,-34.23 19.763,34.23 z m 39.526,68.461 19.763,-34.231 19.763,34.231 z m 0,0 h 39.526 l -19.763,34.23 z m 79.052,68.46 19.762,-34.23 19.763,34.23 z m 39.525,0 19.763,-34.23 19.763,34.23 z m 59.289,34.23 -19.763,-34.23 h 39.526 z m 0,0 19.763,-34.23 19.762,34.23 z m 79.051,0 19.763,-34.23 19.763,34.23 z m 39.526,0 19.763,-34.23 19.763,34.23 z m 79.051,0 -19.763,-34.23 h 39.526 z m -39.525,0 -19.763,-34.23 h 39.525 z m 316.205,-479.223 -19.763,34.23 -19.763,-34.23 z m -19.763,-34.23 -19.763,34.23 -19.762,-34.23 z m -39.525,-68.461 -19.763,34.23 -19.763,-34.23 z m 0,0 H 776.68 l 19.763,-34.23 z M 756.917,181.42 776.68,215.651 h -39.526 z m -39.526,0 19.763,34.231 h -39.526 z m -59.288,-34.23 -19.763,34.23 -19.763,-34.23 z m -39.526,0 -19.763,34.23 -19.763,-34.23 z m 177.866,581.914 -19.763,-34.23 h 39.526 z m 19.763,-34.23 -19.763,-34.23 h 39.525 z m 19.762,-34.23 h -39.525 l 19.763,-34.23 z m 19.763,-34.23 h -39.525 l 19.762,-34.231 z m 39.526,-68.461 h -39.526 l 19.763,-34.23 z m -19.763,-34.23 h -39.526 l 19.763,-34.23 z m 0,-68.461 -19.763,34.231 -19.763,-34.231 z m 0,0 h -39.526 l 19.763,-34.23 z M 658.103,831.795 h -39.526 l 19.763,-34.23 z m 0,0 -19.763,-34.23 h 39.526 z m 59.288,-34.23 h -39.525 l 19.762,-34.23 z m 19.763,-34.23 h -39.526 l 19.763,-34.231 z M 579.051,147.19 l 19.763,34.23 h -39.525 z m -39.525,0 19.763,34.23 h -39.526 z m -79.052,0 19.763,34.23 h -39.526 z m 0,0 -19.763,34.23 -19.762,-34.23 z m -118.577,0 h 39.526 l -19.763,34.23 z m -19.763,34.23 h 39.526 l -19.763,34.231 z m -59.288,34.231 19.763,34.23 h -39.526 z m -19.763,34.23 19.763,34.23 H 223.32 Z m -19.763,34.23 h 39.526 l -19.763,34.23 z m -19.763,34.23 h 39.526 l -19.763,34.231 z m -39.525,68.461 h 39.525 l -19.763,34.23 z m 0,0 19.762,34.23 h -39.525 z m -19.763,102.691 h 39.525 l -19.762,34.23 z m 19.763,34.23 h 39.525 l -19.763,34.23 z m 0,68.46 19.762,-34.23 19.763,34.23 z m 0,0 h 39.525 l -19.763,34.231 z m 39.525,68.461 h 39.526 l -19.763,34.23 z m 19.763,34.23 h 39.526 l -19.763,34.23 z m 39.526,68.461 19.763,-34.231 19.763,34.231 z m -19.763,-34.231 19.763,-34.23 19.763,34.23 z m 79.051,68.461 -19.762,-34.23 h 39.525 z m 0,0 19.763,-34.23 19.763,34.23 z m 59.289,34.23 -19.763,-34.23 h 39.526 z m 39.526,0 -19.763,-34.23 h 39.525 z m 79.051,0 -19.763,-34.23 h 39.526 z m 0,0 19.763,-34.23 19.763,34.23 z m 118.577,0 h -39.526 l 19.763,-34.23 z M 835.968,386.802 h -39.525 l 19.763,-34.23 z m -19.762,-34.23 H 776.68 l 19.763,-34.231 z m -19.763,-34.231 -19.763,34.231 -19.763,-34.231 z m -19.763,-34.23 -19.763,34.23 -19.763,-34.23 z m -39.526,-68.46 -19.763,34.23 -19.763,-34.23 z m -39.526,0 -19.762,34.23 -19.763,-34.23 z m -59.288,-34.231 19.763,34.231 h -39.526 z m 0,0 -19.763,34.231 -19.763,-34.231 z m 138.34,513.454 h -39.526 l 19.763,-34.23 z m 0,0 -19.763,-34.23 h 39.526 z m 39.526,-68.46 -19.763,-34.231 h 39.525 z m 19.762,-34.231 -19.762,-34.23 h 39.525 z m 19.763,-34.23 h -39.525 l 19.762,-34.23 z m 0,-68.46 -19.763,34.23 -19.762,-34.23 z m -19.763,-34.231 -19.762,34.231 -19.763,-34.231 z M 638.34,797.565 h -39.526 l 19.763,-34.23 z m 59.288,-34.23 -19.762,-34.231 h 39.525 z m 19.763,-34.231 -19.763,-34.23 h 39.526 z M 559.289,181.42 539.526,215.651 519.763,181.42 Z m -39.526,0 L 500,215.651 480.237,181.42 Z m -39.526,0 19.763,34.231 h -39.526 z m -39.526,0 19.763,34.231 h -39.525 z m -79.051,0 19.763,34.231 h -39.526 z m -19.763,34.231 19.763,34.23 h -39.526 z m -59.288,34.23 h 39.525 l -19.762,34.23 z m 0,0 19.763,34.23 h -39.526 z m -39.526,68.46 19.763,34.231 H 223.32 Z m -19.763,34.231 19.763,34.23 h -39.526 z m -39.526,68.46 h 39.526 l -19.763,34.23 z m 19.763,-34.23 h 39.526 l -19.763,34.23 z m 19.763,102.691 h -39.526 l 19.763,-34.231 z m 0,0 -19.763,34.23 -19.763,-34.23 z m 0,68.46 h -39.526 l 19.763,-34.23 z m 19.763,34.23 h -39.526 l 19.763,-34.23 z m 39.526,68.461 h -39.526 l 19.763,-34.23 z m 0,0 -19.763,34.23 -19.763,-34.23 z m 39.525,68.46 -19.762,34.231 -19.763,-34.231 z m 39.526,0 -19.763,34.231 -19.763,-34.231 z m 59.289,34.231 19.762,34.23 h -39.525 z m 39.525,0 19.763,34.23 h -39.526 z m 39.526,0 -19.763,34.23 -19.763,-34.23 z m 39.526,0 -19.763,34.23 L 500,763.335 Z m 39.525,0 h 39.526 l -19.763,34.23 z M 756.917,386.802 h 39.526 l -19.763,34.23 z m 0,0 19.763,-34.23 19.763,34.23 z m -39.526,-68.461 19.763,-34.23 19.763,34.23 z m -19.763,-34.23 19.763,-34.23 19.763,34.23 z m 0,0 -19.762,-34.23 h 39.525 z m -59.288,-34.23 19.763,-34.23 19.763,34.23 z m -39.526,0 19.763,-34.23 19.763,34.23 z m 118.577,410.763 19.763,34.23 h -39.526 z m 19.763,-34.23 19.763,34.23 h -39.526 z m 39.526,-68.461 19.763,34.23 h -39.526 z m 0,0 h 39.526 l -19.763,34.23 z m 0,-68.46 19.763,-34.231 19.763,34.231 z m -19.763,-34.231 19.763,-34.23 19.763,34.23 z M 598.814,729.104 h 39.526 l -19.763,34.231 z m 59.289,-34.23 19.763,34.23 H 638.34 Z m 0,0 h 39.525 l -19.762,34.23 z M 559.289,249.881 h -39.526 l 19.763,-34.23 z m -39.526,0 L 500,215.651 h 39.526 z m -79.052,0 -19.762,-34.23 h 39.525 z m -39.525,0 -19.763,-34.23 h 39.526 z m 0,0 H 361.66 l 19.763,-34.23 z m -59.289,34.23 -19.763,-34.23 h 39.526 z m 0,0 -19.763,34.23 -19.762,-34.23 z m -39.525,68.461 -19.763,34.23 -19.763,-34.23 z m -39.526,0 19.763,34.23 h -39.526 z m -19.763,102.69 h -39.526 l 19.763,-34.23 z m -19.763,34.231 19.763,-34.231 19.763,34.231 z m 19.763,102.69 -19.763,-34.23 h 39.526 z m 19.763,34.231 -19.763,-34.231 h 39.526 z m 0,0 19.763,-34.231 19.763,34.231 z m 19.763,34.23 19.763,-34.23 19.762,34.23 z m 79.051,68.46 h -39.526 l 19.763,-34.23 z m 0,0 19.763,-34.23 19.763,34.23 z m 59.289,34.231 -19.763,-34.231 h 39.525 z m 39.525,0 h -39.525 l 19.762,-34.231 z m 79.052,0 H 500 l 19.763,-34.231 z m 39.525,0 h -39.525 l 19.763,-34.231 z m 19.763,-34.231 -19.763,34.231 -19.762,-34.231 z m 158.103,-273.842 -19.763,-34.23 h 39.526 z m 0,-68.46 -19.763,34.23 -19.763,-34.23 z m -39.526,-68.461 -19.763,34.231 -19.762,-34.231 z m -19.763,-34.23 19.763,34.23 h -39.525 z m -98.814,-34.23 h 39.526 l -19.763,34.23 z m -39.525,0 h 39.525 l -19.763,34.23 z m 177.865,376.533 -19.763,34.23 -19.763,-34.23 z m 19.763,-34.231 -19.763,34.231 -19.763,-34.231 z m 19.763,-34.23 h -39.526 l 19.763,-34.23 z m -19.763,34.23 h -39.526 l 19.763,-34.23 z m 19.763,-102.69 -19.763,34.23 -19.763,-34.23 z m -19.763,-34.231 19.763,34.231 h -39.526 z m -158.103,273.842 19.763,-34.23 19.763,34.23 z m 59.289,-34.23 h -39.526 l 19.763,-34.23 z m -98.814,-444.993 19.762,34.23 h -39.525 z m -39.526,0 19.763,34.23 H 500 Z m -79.052,0 19.763,34.23 h -39.525 z m 0,0 -19.762,34.23 -19.763,-34.23 z m -98.814,34.23 19.763,34.23 h -39.526 z m -19.763,34.23 19.763,34.231 h -39.525 z m -19.762,34.231 h 39.525 l -19.763,34.23 z m 0,68.46 -19.763,-34.23 h 39.525 z m -19.763,34.23 -19.763,34.231 -19.763,-34.231 z m 19.763,34.231 -19.763,34.23 -19.763,-34.23 z m 0,68.46 h -39.526 l 19.763,-34.23 z m 0,0 -19.763,34.23 -19.763,-34.23 z m 39.525,68.461 -19.763,34.23 -19.762,-34.23 z m 19.763,34.23 -19.763,34.23 -19.763,-34.23 z m 0,0 19.763,34.23 h -39.526 z m 59.289,34.23 -19.763,34.23 -19.763,-34.23 z m 39.525,0 -19.763,34.23 -19.762,-34.23 z m 79.052,0 -19.763,34.23 L 500,694.874 Z m 0,0 19.763,34.23 h -39.526 z m 158.102,-273.842 19.763,-34.23 19.763,34.23 z m -19.762,-34.23 19.762,-34.23 19.763,34.23 z m -19.763,-34.23 -19.763,-34.231 h 39.526 z m 0,0 h 39.525 l -19.762,34.23 z m -59.289,-34.231 19.763,-34.23 19.763,34.23 z m 0,0 -19.763,-34.23 h 39.526 z m 79.052,273.842 19.762,34.231 h -39.525 z m 0,0 h 39.525 l -19.763,34.231 z m 39.525,-68.46 h 39.526 l -19.763,34.23 z m -19.763,-34.23 h 39.526 l -19.763,34.23 z m -98.814,171.151 h 39.526 l -19.763,34.23 z m 19.763,-34.23 h 39.526 l -19.763,34.23 z M 519.763,318.341 500,284.111 h 39.526 z m -39.526,0 -19.763,-34.23 H 500 Z m -39.526,0 h -39.525 l 19.763,-34.23 z m 0,0 19.763,-34.23 19.763,34.23 z m -59.288,34.231 -19.763,-34.231 h 39.526 z m 0,0 h -39.526 l 19.763,-34.231 z m -39.526,68.46 h -39.525 l 19.762,-34.23 z m -19.763,34.23 h -39.525 l 19.763,-34.23 z m 0,0 -19.762,34.231 -19.763,-34.231 z m 0,68.461 h -39.525 l 19.763,-34.23 z m 19.763,34.23 h -39.525 l 19.762,-34.23 z m 39.526,68.461 h -39.526 l 19.763,-34.231 z m 0,0 -19.763,34.23 -19.763,-34.23 z m 59.288,34.23 19.763,34.23 h -39.525 z m 39.526,0 19.763,34.23 h -39.526 z m 39.526,0 h 39.526 l -19.763,34.23 z m 0,0 -19.763,34.23 -19.763,-34.23 z m 138.34,-239.612 h 39.525 l -19.762,34.23 z m 0,0 19.763,-34.23 19.762,34.23 z m -39.526,-68.46 19.763,-34.231 19.763,34.231 z m -39.526,0 19.763,-34.231 19.763,34.231 z m 59.289,239.611 19.763,34.231 h -39.526 z m 19.763,-34.23 19.763,34.23 H 638.34 Z m 19.763,-34.23 19.762,-34.23 19.763,34.23 z m -19.763,-34.23 19.763,-34.231 19.762,34.231 z m -79.052,136.921 19.763,34.23 h -39.525 z m 0,0 h 39.526 l -19.763,34.23 z M 500,352.572 l 19.763,-34.231 19.763,34.231 z m 0,0 -19.763,-34.231 h 39.526 z m -79.051,0 -19.763,-34.231 h 39.525 z m -19.763,34.23 -19.763,-34.23 h 39.526 z m -39.526,68.46 -19.763,-34.23 h 39.526 z m 0,0 h -39.526 l 19.763,-34.23 z m 0,68.461 -19.763,34.23 -19.763,-34.23 z m 19.763,34.23 -19.763,34.23 -19.763,-34.23 z m 19.763,34.23 19.763,34.231 h -39.526 z m 0,0 H 361.66 l 19.763,-34.23 z m 59.288,34.231 -19.763,34.23 -19.762,-34.23 z m 0,0 19.763,34.23 h -39.526 z m 79.052,0 19.763,34.23 H 519.763 Z M 638.34,455.262 h 39.526 l -19.763,34.231 z m -19.763,-34.23 h 39.526 l -19.763,34.23 z m -19.763,-34.23 -19.763,-34.23 h 39.526 z m -39.525,0 -19.763,-34.23 h 39.525 z m 59.288,171.151 h 39.526 l -19.763,34.23 z m 19.763,-34.23 h 39.526 l -19.763,34.23 z m 0,0 19.763,-34.23 19.763,34.23 z m -79.051,68.46 19.762,34.231 h -39.525 z m -39.526,-205.381 19.763,-34.23 19.763,34.23 z m -39.526,0 19.763,-34.23 19.763,34.23 z m -39.526,0 h -39.525 l 19.763,-34.23 z m -19.762,34.23 h -39.526 l 19.763,-34.23 z m -19.763,34.23 -19.763,34.231 -19.763,-34.231 z m 0,0 -19.763,-34.23 h 39.526 z m 0,68.461 H 361.66 l 19.763,-34.23 z m 0,0 -19.763,34.23 -19.763,-34.23 z m 39.525,68.46 -19.762,34.231 -19.763,-34.231 z m 39.526,0 -19.763,34.231 -19.763,-34.231 z m 39.526,0 h 39.526 l -19.763,34.231 z m 79.051,-136.921 19.763,-34.23 19.763,34.23 z m -19.763,-34.23 19.763,-34.23 19.763,34.23 z m 0,0 -19.762,-34.23 h 39.525 z m 19.763,102.691 19.763,34.23 h -39.526 z m 0,0 h 39.526 l -19.763,34.23 z m -59.288,34.23 h 39.525 l -19.762,34.23 z M 500,421.032 480.237,386.802 h 39.526 z m -39.526,0 -19.763,-34.23 h 39.526 z m 0,0 h -39.525 l 19.762,-34.23 z m -39.525,68.461 h -39.526 l 19.763,-34.231 z m 19.762,34.23 h -39.525 l 19.763,-34.23 z m 19.763,34.23 19.763,34.23 h -39.526 z m 39.526,0 19.763,34.23 h -39.526 z m 0,0 h 39.526 l -19.763,34.23 z m 59.289,-102.691 h 39.525 l -19.763,34.231 z m 0,0 19.762,-34.23 19.763,34.23 z m 0,68.461 19.762,-34.23 19.763,34.23 z m 0,0 19.762,34.23 h -39.525 z m -79.052,-68.461 19.763,-34.23 19.763,34.23 z m 0,0 -19.763,-34.23 H 500 Z m -19.763,34.231 -19.763,34.23 -19.762,-34.23 z m 19.763,34.23 -19.763,34.23 -19.763,-34.23 z m 0,0 19.763,34.23 h -39.526 z m 59.289,-34.23 -19.763,-34.231 h 39.526 z m 0,0 h 39.525 l -19.762,34.23 z m -39.526,0 h -39.526 l 19.763,-34.231 z m 0,0 -19.763,34.23 -19.763,-34.23 z m 0,0 19.763,-34.231 19.763,34.231 z"
     style="opacity:1;fill:none;stroke:#000000;stroke-width:14;stop-opacity:1;stroke-miterlimit:4;stroke-dasharray:none"
     id="path69747" />
</svg>
