<?xml version="1.0" encoding="UTF-8" standalone="no"?>
<svg
   xmlns:dc="http://purl.org/dc/elements/1.1/"
   xmlns:cc="http://creativecommons.org/ns#"
   xmlns:rdf="http://www.w3.org/1999/02/22-rdf-syntax-ns#"
   xmlns:svg="http://www.w3.org/2000/svg"
   xmlns="http://www.w3.org/2000/svg"
   xmlns:sodipodi="http://sodipodi.sourceforge.net/DTD/sodipodi-0.dtd"
   xmlns:inkscape="http://www.inkscape.org/namespaces/inkscape"
   inkscape:version="1.0beta1 (32d4812, 2019-09-19)"
   sodipodi:docname="2-uniform_n16.svg"
   id="svg99720"
   height="1000.00006"
   width="978.4113"
   version="1.0">
  <metadata
     id="metadata99726">
    <rdf:RDF>
      <cc:Work
         rdf:about="">
        <dc:format>image/svg+xml</dc:format>
        <dc:type
           rdf:resource="http://purl.org/dc/dcmitype/StillImage" />
        <dc:title></dc:title>
      </cc:Work>
    </rdf:RDF>
  </metadata>
  <defs
     id="defs99724" />
  <sodipodi:namedview
     inkscape:current-layer="svg99720"
     inkscape:window-maximized="1"
     inkscape:window-y="23"
     inkscape:window-x="0"
     inkscape:cy="559.86181"
     inkscape:cx="326.77525"
     inkscape:zoom="0.60180038"
     showgrid="false"
     id="namedview99722"
     inkscape:window-height="1005"
     inkscape:window-width="1680"
     inkscape:pageshadow="2"
     inkscape:pageopacity="0"
     guidetolerance="10"
     gridtolerance="10"
     objecttolerance="10"
     borderopacity="1"
     inkscape:document-rotation="0"
     bordercolor="#666666"
     pagecolor="#ffffff" />
  <!-- X Coordinate transform: fx(x)=(x+72.17139)*0.85499847-->
  <!-- Y Coordinate transform: fy(y)=(1072.2964-y)*0.85499847 -->
  <path
     d="m 41.866,84.723 h 42.75 v 42.75 h -42.75 z m 894.679,851.929 h -42.75 v -42.75 h 42.75 z m -851.929,0 v -42.75 h 42.75 v 42.75 z M 936.545,84.723 v 42.75 h -42.75 v -42.75 z m -42.75,851.929 h -42.75 v -42.75 h 42.75 z M 84.616,84.723 h 42.75 v 42.75 h -42.75 z m 79.772,873.304 v -42.75 h 42.75 v 42.75 z M 63.241,856.88 v -42.75 h 42.75 v 42.75 z M 893.795,84.723 v 42.75 h -42.75 v -42.75 z m -79.772,873.304 h -42.75 v -42.75 h 42.75 z M 915.17,856.88 h -42.75 v -42.75 h 42.75 z M 164.388,63.348 h 42.75 v 42.75 h -42.75 z M 63.241,164.495 h 42.75 v 42.75 h -42.75 z m 101.147,750.782 v -42.75 h 42.75 v 42.75 z M 63.241,814.13 v -42.75 h 42.75 v 42.75 z M 814.023,63.348 v 42.75 h -42.75 V 63.348 Z M 915.17,164.495 v 42.75 h -42.75 v -42.75 z M 814.023,915.277 h -42.75 v -42.75 h 42.75 z M 915.17,814.13 h -42.75 v -42.75 h 42.75 z M 41.866,936.652 v -42.75 h 42.75 v 42.75 z M 164.388,106.098 h 42.75 v 42.75 h -42.75 z M 63.241,207.245 h 42.75 v 42.75 h -42.75 z m 180.92,729.407 v -42.75 h 42.75 v 42.75 z M 41.866,734.357 v -42.75 h 42.75 v 42.75 z m 101.148,101.148 v -42.75 h 42.749 v 42.75 z M 814.023,106.098 v 42.75 h -42.75 v -42.75 z M 915.17,207.245 v 42.75 h -42.75 v -42.75 z M 734.25,936.652 H 691.5 v -42.75 h 42.75 z M 936.545,734.357 h -42.75 v -42.75 h 42.75 z M 835.398,835.505 h -42.75 v -42.75 h 42.75 z M 244.161,84.723 h 42.75 v 42.75 h -42.75 z M 41.866,287.018 h 42.75 v 42.75 H 41.866 Z M 143.014,185.87 h 42.749 v 42.75 h -42.749 z m 143.897,750.782 v -42.75 h 42.75 v 42.75 z m 79.772,21.375 v -42.75 h 42.75 v 42.75 z M 691.5,936.652 h -42.749 v -42.75 H 691.5 Z m -79.772,21.375 h -42.75 v -42.75 h 42.75 z M 84.616,734.357 v -42.75 h 42.75 v 42.75 z m 101.147,101.148 v -42.75 h 42.75 v 42.75 z M 734.25,84.723 v 42.75 H 691.5 v -42.75 z m 202.295,202.295 v 42.75 h -42.75 v -42.75 z M 835.398,185.87 v 42.75 h -42.75 V 185.87 Z M 489.206,489.313 h 42.75 v 42.749 h -42.75 z m 404.589,245.044 h -42.75 v -42.75 h 42.75 z M 792.648,835.505 h -42.75 v -42.75 h 42.75 z M 691.5,84.723 v 42.75 H 648.751 V 84.723 Z M 611.728,63.348 v 42.75 h -42.75 V 63.348 Z M 286.911,84.723 h 42.75 v 42.75 h -42.75 z m 79.772,-21.375 h 42.75 v 42.75 h -42.75 z M 63.241,654.585 v -42.75 h 42.75 v 42.75 z M 84.616,287.018 h 42.75 v 42.75 H 84.616 Z M 185.763,185.87 h 42.75 v 42.75 h -42.75 z M 63.241,611.835 v -42.75 h 42.75 v 42.75 z m 0,-245.045 h 42.75 v 42.75 h -42.75 z m 0,42.75 h 42.75 v 42.75 H 63.241 Z M 41.866,532.062 v -42.749 h 42.75 v 42.749 z m 324.817,383.215 v -42.75 h 42.75 v 42.75 z m 245.045,0 h -42.75 v -42.75 h 42.75 z m -165.272,21.375 v -42.75 h 42.75 v 42.75 z m 42.75,0 v -42.75 h 42.75 v 42.75 z M 265.536,856.88 v -42.75 h 42.75 v 42.75 z M 164.388,755.732 v -42.75 h 42.75 v 42.75 z M 915.17,654.585 h -42.75 v -42.75 h 42.75 z M 893.795,287.018 v 42.75 h -42.75 v -42.75 z M 792.648,185.87 v 42.75 h -42.75 V 185.87 Z M 915.17,611.835 h -42.75 v -42.75 h 42.75 z m 0,-245.045 v 42.75 h -42.75 v -42.75 z m 0,42.75 v 42.75 h -42.75 v -42.75 z m 21.375,122.522 h -42.75 v -42.749 h 42.75 z M 712.875,856.88 h -42.75 v -42.75 h 42.75 z M 814.023,755.732 h -42.75 v -42.75 h 42.75 z M 611.728,106.098 v 42.75 h -42.75 v -42.75 z m -245.045,0 h 42.75 v 42.75 h -42.75 z M 531.956,84.723 v 42.75 h -42.75 v -42.75 z m -42.75,0 v 42.75 h -42.75 v -42.75 z m -223.67,79.772 h 42.75 v 42.75 h -42.75 z M 164.388,265.643 h 42.75 v 42.75 h -42.75 z M 84.616,532.062 v -42.749 h 42.75 v 42.749 z m 180.92,282.068 v -42.75 h 42.75 v 42.75 z M 164.388,712.982 v -42.75 h 42.75 v 42.75 z M 712.875,164.495 v 42.75 h -42.75 v -42.75 z m 101.148,101.148 v 42.75 h -42.75 v -42.75 z m 79.772,266.419 h -42.75 v -42.749 h 42.75 z M 712.875,814.13 h -42.75 v -42.75 h 42.75 z M 814.023,712.982 h -42.75 v -42.75 h 42.75 z M 143.014,633.21 v -42.75 h 42.749 v 42.75 z M 265.536,207.245 h 42.75 v 42.75 h -42.75 z M 164.388,308.393 h 42.75 v 42.75 h -42.75 z m 21.375,122.522 h -42.749 v -42.75 h 42.749 z m 202.295,361.84 v 42.75 h -42.75 v -42.75 z m 42.75,0 v 42.75 h -42.75 v -42.75 z m 159.545,0 h 42.75 v 42.75 h -42.75 z m -42.75,0 h 42.75 v 42.75 h -42.75 z m -37.022,21.375 v 42.75 h -42.75 V 814.13 Z M 286.911,691.607 v 42.75 h -42.75 v -42.75 z M 792.648,590.46 h 42.75 v 42.75 h -42.75 z M 670.125,249.995 v -42.75 h 42.75 v 42.75 z m 101.148,101.148 v -42.75 h 42.75 v 42.75 z m 21.375,79.772 v -42.75 h 42.75 v 42.75 z M 691.5,691.607 h 42.75 v 42.75 H 691.5 Z M 590.353,228.62 v -42.75 h 42.75 v 42.75 z m -42.75,0 v -42.75 h 42.75 v 42.75 z m -159.545,0 h -42.75 v -42.75 h 42.75 z m 0,0 v -42.75 h 42.75 v 42.75 z m 122.523,-21.375 h -42.75 v -42.75 h 42.75 z M 228.513,590.46 v 42.75 h -42.75 v -42.75 z m 58.398,-260.692 h -42.75 v -42.75 h 42.75 z m -58.398,58.397 v 42.75 h -42.75 v -42.75 z m -21.375,165.272 h -42.75 v -42.749 h 42.75 z m -42.75,-85.499 h 42.75 v 42.75 h -42.75 z M 510.581,814.13 h -42.75 v -42.75 h 42.75 z M 286.911,691.607 h 42.75 v 42.75 h -42.75 z M 749.898,633.21 v -42.75 h 42.75 v 42.75 z M 734.25,329.768 H 691.5 v -42.75 h 42.75 z m 58.398,101.147 h -42.75 v -42.75 h 42.75 z m 21.375,79.773 v 42.749 h -42.75 v -42.749 z m 0,-42.75 v 42.75 h -42.75 v -42.75 z M 691.5,691.607 v 42.75 h -42.749 v -42.75 z M 510.581,207.245 v 42.75 h -42.75 v -42.75 z m -180.92,79.773 v 42.75 h -42.75 v -42.75 z m 37.022,468.714 v -42.75 h 42.75 v 42.75 z m 245.045,0 h -42.75 v -42.75 h 42.75 z M 265.536,654.585 v -42.75 h 42.75 v 42.75 z M 691.5,287.018 v 42.75 h -42.749 v -42.75 z m 21.375,367.567 h -42.75 v -42.75 h 42.75 z M 568.978,308.393 v -42.75 h 42.75 v 42.75 z m -202.295,-42.75 h 42.75 v 42.75 h -42.75 z m -58.397,303.442 v 42.75 h -42.75 v -42.75 z M 265.536,366.79 h 42.75 v 42.75 h -42.75 z m 42.75,85.5 h -42.75 v -42.75 h 42.75 z m -21.375,37.023 v 42.749 h -42.75 v -42.749 z m 122.522,180.919 v 42.75 h -42.75 v -42.75 z m 159.545,0 h 42.75 v 42.75 h -42.75 z m -79.772,21.375 v 42.75 h -42.75 v -42.75 z m 42.75,0 v 42.75 h -42.75 v -42.75 z M 670.125,569.085 h 42.75 v 42.75 h -42.75 z m 0,-159.545 v -42.75 h 42.75 v 42.75 z m 0,42.75 v -42.75 h 42.75 v 42.75 z m 21.375,37.023 h 42.75 v 42.749 H 691.5 Z M 568.978,351.143 v -42.75 h 42.75 v 42.75 z m -159.545,0 h -42.75 v -42.75 h 42.75 z m 79.773,-21.375 v -42.75 h 42.75 v 42.75 z m -42.75,0 v -42.75 h 42.75 v 42.75 z M 329.661,489.313 v 42.749 h -42.75 v -42.749 z m 58.397,101.147 v 42.75 h -42.75 V 590.46 Z M 648.751,489.313 H 691.5 v 42.749 H 648.751 Z M 590.353,590.46 h 42.75 v 42.75 h -42.75 z M 388.058,430.915 h -42.75 v -42.75 h 42.75 z m 42.75,159.545 v 42.75 h -42.75 v -42.75 z m 116.795,0 h 42.75 v 42.75 h -42.75 z m -37.022,21.375 v 42.75 h -42.75 v -42.75 z m 79.772,-180.92 v -42.75 h 42.75 v 42.75 z m -42.75,0 v -42.75 h 42.75 v 42.75 z m -116.795,0 h -42.75 v -42.75 h 42.75 z m 37.023,-21.375 v -42.75 h 42.75 v 42.75 z m -58.398,101.148 v 42.749 h -42.75 v -42.749 z m 0,-42.75 v 42.75 h -42.75 v -42.75 z m 101.148,101.147 v 42.75 h -42.75 v -42.75 z m 58.397,-58.397 h 42.75 v 42.749 h -42.75 z m 0,-42.75 h 42.75 v 42.75 h -42.75 z M 467.831,452.29 v -42.75 h 42.75 v 42.75 z m 21.375,37.023 v 42.749 h -42.75 V 489.313 Z M 872.42,47.7 835.398,26.325 872.42,4.95 Z m 42.75,0 L 893.795,84.723 872.42,47.7 Z m -851.929,0 h 42.75 L 84.616,84.723 Z m 42.75,0 V 4.95 l 37.023,21.375 z m 58.397,910.327 h 42.75 l -21.375,37.023 z m -37.022,-21.375 v -42.75 l 37.022,21.375 z M 26.219,835.505 v -42.75 L 63.241,814.13 Z M 84.616,893.902 63.241,856.88 h 42.75 z m 729.407,64.125 -21.375,37.023 -21.375,-37.023 z m 37.022,-21.375 -37.022,-21.375 37.022,-21.375 z M 952.193,835.505 915.17,814.13 952.193,792.755 Z M 893.795,893.902 872.42,856.88 h 42.75 z m 42.75,-809.179 37.023,21.375 -37.023,21.375 z M 185.763,26.325 207.138,63.348 h -42.75 z m -58.397,58.398 37.022,21.375 -37.022,21.375 z M 26.219,185.87 63.241,207.245 26.219,228.62 Z m 58.397,-58.397 21.375,37.022 H 63.241 Z M 792.648,26.325 814.023,63.348 h -42.75 z m 58.397,58.398 v 42.75 L 814.023,106.098 Z M 952.193,185.87 v 42.75 L 915.17,207.245 Z m -58.398,-58.397 21.375,37.022 H 872.42 Z M 228.513,26.325 265.536,4.95 V 47.7 Z M 41.866,734.357 4.844,712.982 41.866,691.607 Z m 165.272,180.92 37.023,-21.375 v 42.75 z M 63.241,771.38 84.616,734.357 105.991,771.38 Z m 101.147,101.147 21.375,-37.022 21.375,37.022 z m -58.397,-58.397 37.023,-21.375 v 42.75 z M 749.898,26.325 712.875,47.7 V 4.95 Z m 186.647,708.032 37.023,-21.375 -37.023,-21.375 z m -165.272,180.92 -37.023,21.375 v -42.75 z M 915.17,771.38 h -42.75 l 21.375,-37.023 z M 814.023,872.527 h -42.75 l 21.375,-37.022 z m 58.397,-58.397 -37.022,21.375 v -42.75 z M 670.125,47.7 633.103,26.325 670.125,4.95 Z m -361.839,0 V 4.95 l 37.022,21.375 z m -42.75,0 h 42.75 L 286.911,84.723 Z M 41.866,287.018 v 42.75 L 4.844,308.393 Z m 165.272,-180.92 37.023,-21.375 v 42.75 z M 63.241,249.995 h 42.75 L 84.616,287.018 Z M 164.388,148.848 h 42.75 l -21.375,37.022 z m -58.397,58.397 37.023,-21.375 v 42.75 z M 41.866,84.723 v 42.75 L 4.844,106.098 Z m 894.679,851.929 37.023,-21.375 -37.023,-21.375 z m -569.862,21.375 h 42.75 L 388.058,995.05 Z M 952.193,26.325 915.17,47.7 V 4.95 Z M 611.728,958.027 590.353,995.05 568.978,958.027 Z M 712.875,47.7 691.5,84.723 670.125,47.7 Z m 223.67,239.318 37.023,21.375 -37.023,21.375 z M 771.273,106.098 734.25,127.473 V 84.723 Z M 915.17,249.995 893.795,287.018 872.42,249.995 Z M 814.023,148.848 792.648,185.87 771.273,148.848 Z m 58.397,58.397 -37.022,21.375 V 185.87 Z M 41.866,936.652 4.844,915.277 41.866,893.902 Z M 26.219,26.325 63.241,4.95 V 47.7 Z m 564.134,0 21.375,37.023 h -42.75 z m -42.75,0 L 510.581,47.7 V 4.95 Z m -159.545,0 21.375,37.023 h -42.75 z m 42.75,0 L 467.831,4.95 V 47.7 Z M 26.219,633.21 v -42.75 l 37.022,21.375 z m 0,-245.045 37.022,21.375 -37.022,21.375 z M 41.866,532.062 4.844,510.688 41.866,489.313 Z m 287.795,404.59 v -42.75 l 37.022,21.375 z m 319.09,0 -37.023,-21.375 37.023,-21.375 z m -361.84,-42.75 -21.375,-37.022 h 42.75 z M 84.616,691.607 63.241,654.585 h 42.75 z m 143.897,143.898 v -42.75 l 37.023,21.375 z M 127.366,734.357 v -42.75 l 37.022,21.375 z m 58.397,58.398 -21.375,-37.023 h 42.75 z M 952.193,633.21 915.17,611.835 952.193,590.46 Z m 0,-245.045 v 42.75 L 915.17,409.54 Z m -15.648,143.897 37.023,-21.374 -37.023,-21.375 z M 691.5,893.902 670.125,856.88 h 42.75 z M 893.795,691.607 872.42,654.585 h 42.75 z M 749.898,835.505 712.875,814.13 749.898,792.755 Z m 101.147,-101.148 -37.022,-21.375 37.022,-21.375 z m -58.397,58.398 -21.375,-37.023 h 42.75 z M 648.751,84.723 v 42.75 l -37.023,-21.375 z m -319.09,0 37.022,21.375 -37.022,21.375 z M 510.581,47.7 489.206,84.723 467.831,47.7 Z m -223.67,79.773 21.375,37.022 h -42.75 z M 84.616,329.768 105.991,366.79 h -42.75 z m 143.897,-143.898 37.023,21.375 -37.023,21.375 z m -101.147,101.148 37.022,21.375 -37.022,21.375 z m 58.397,-58.398 21.375,37.023 h -42.75 z m -122.522,340.465 21.375,-37.023 21.375,37.023 z m 0,-116.795 h 42.75 l -21.375,37.023 z m 346.192,462.987 37.023,-21.375 v 42.75 z m 159.545,0 -37.022,21.375 v -42.75 z M 691.5,127.473 l 21.375,37.022 h -42.75 z M 893.795,329.768 915.17,366.79 H 872.42 Z M 749.898,185.87 v 42.75 l -37.023,-21.375 z m 101.147,101.148 v 42.75 l -37.022,-21.375 z m -58.397,-58.398 21.375,37.023 h -42.75 z M 915.17,569.085 h -42.75 l 21.375,-37.023 z m 0,-116.795 -21.375,37.023 L 872.42,452.29 Z M 568.978,106.098 531.956,127.473 v -42.75 z m -159.545,0 37.023,-21.375 v 42.75 z M 105.991,611.835 143.014,590.46 v 42.75 z m 0,-202.295 37.023,-21.375 v 42.75 z m 260.692,462.987 21.375,-37.022 21.375,37.022 z m 245.045,0 h -42.75 l 21.375,-37.022 z M 489.206,893.902 467.831,856.88 h 42.75 z m -180.92,-79.772 37.022,-21.375 v 42.75 z m -143.898,-143.898 21.375,-37.022 21.375,37.022 z m 101.148,101.148 21.375,-37.023 21.375,37.023 z m -58.398,-58.398 37.023,-21.375 v 42.75 z M 872.42,611.835 835.398,633.21 v -42.75 z m 0,-202.295 -37.022,21.375 v -42.75 z m -202.295,404.59 -37.022,21.375 v -42.75 z M 814.023,670.232 h -42.75 L 792.648,633.21 Z M 712.875,771.38 h -42.75 L 691.5,734.357 Z m 58.398,-58.398 -37.023,21.375 v -42.75 z M 611.728,148.848 590.353,185.87 568.978,148.848 Z m -245.045,0 h 42.75 l -21.375,37.022 z m 122.523,-21.375 21.375,37.022 h -42.75 z m -180.92,79.772 37.022,-21.375 v 42.75 z M 164.388,351.143 h 42.75 l -21.375,37.022 z M 265.536,249.995 h 42.75 l -21.375,37.023 z m -58.398,58.398 37.023,-21.375 v 42.75 z m -79.772,223.669 v -42.749 l 37.022,21.375 z m 340.465,282.068 -37.023,21.375 v -42.75 z m 42.75,0 37.022,-21.375 v 42.75 z M 633.103,228.62 670.125,207.245 633.103,185.87 Z m 159.545,159.545 -21.375,-37.022 h 42.75 z M 691.5,287.018 670.125,249.995 h 42.75 z m 42.75,42.75 37.023,-21.375 -37.023,-21.375 z m 79.773,180.92 37.022,-21.375 v 42.749 z M 510.581,207.245 547.603,185.87 v 42.75 z m -79.773,21.375 v -42.75 l 37.023,21.375 z m -223.67,324.817 -21.375,37.023 -21.375,-37.023 z m -42.75,-85.499 21.375,-37.023 21.375,37.023 z m 202.295,287.794 h 42.75 l -21.375,37.023 z m 245.045,0 -21.375,37.023 -21.375,-37.023 z M 329.661,734.357 v -42.75 l 37.022,21.375 z M 228.513,590.46 l 37.023,21.375 -37.023,21.375 z m 37.023,64.125 h 42.75 l -21.375,37.022 z M 814.023,553.437 792.648,590.46 771.273,553.437 Z m 0,-85.499 h -42.75 l 21.375,-37.023 z M 648.751,734.357 611.728,712.982 648.751,691.607 Z M 749.898,633.21 712.875,611.835 749.898,590.46 Z M 712.875,654.585 691.5,691.607 670.125,654.585 Z M 590.353,228.62 l 21.375,37.023 h -42.75 z m -202.295,0 21.375,37.023 h -42.75 z m -58.397,58.398 37.022,21.375 -37.022,21.375 z m -101.148,101.147 37.023,21.375 -37.023,21.375 z m 58.398,-58.397 21.375,37.022 h -42.75 z m -42.75,159.545 v 42.749 l -37.023,-21.374 z m 245.045,245.044 21.375,37.023 h -42.75 z m 122.522,-425.964 37.023,-21.375 v 42.75 z m 101.147,101.147 37.023,-21.375 v 42.75 z m -42.75,-42.75 21.375,-37.022 21.375,37.022 z m 64.125,122.523 37.023,21.375 -37.023,21.374 z M 489.206,287.018 467.831,249.995 h 42.75 z m -202.295,245.044 21.375,37.023 h -42.75 z m 0,-42.749 -21.375,-37.023 h 42.75 z m 159.545,202.294 v 42.75 l -37.023,-21.375 z m 85.5,0 37.022,21.375 -37.022,21.375 z m -143.898,-58.397 21.375,37.022 h -42.75 z m -42.75,-42.75 v 42.75 l -37.022,-21.375 z m 346.192,-58.398 21.375,37.023 h -42.75 z m 0,-42.749 -21.375,-37.023 h 42.75 z m -101.147,143.897 21.375,37.022 h -42.75 z m 42.75,-42.75 37.022,21.375 -37.022,21.375 z M 531.956,329.768 568.978,308.393 531.956,287.018 Z m -85.5,0 -37.023,-21.375 37.023,-21.375 z m -58.398,58.397 -21.375,-37.022 h 42.75 z m -42.75,42.75 -37.022,-21.375 37.022,-21.375 z m 165.273,223.67 -21.375,37.022 -21.375,-37.022 z m 79.772,-266.42 -21.375,-37.022 h 42.75 z m 42.75,42.75 37.022,-21.375 -37.022,-21.375 z m -165.272,-64.125 21.375,-37.022 21.375,37.022 z m -101.148,143.898 -37.022,21.374 v -42.749 z m 101.148,101.147 -37.023,21.375 v -42.75 z m 42.75,0 37.022,-21.375 v 42.75 z M 409.433,553.437 388.058,590.46 366.683,553.437 Z m 202.295,-42.749 37.023,-21.375 v 42.749 z m -42.75,42.749 h 42.75 L 590.353,590.46 Z M 510.581,409.54 547.603,388.165 v 42.75 z m -42.75,0 -37.023,21.375 v -42.75 z m -58.398,58.398 h -42.75 l 21.375,-37.023 z m 159.545,0 21.375,-37.023 21.375,37.023 z m -122.522,21.375 v 42.749 l -37.023,-21.374 z m 42.75,42.749 21.375,37.023 h -42.75 z m 42.75,-42.749 37.022,21.375 -37.022,21.374 z m -42.75,0 -21.375,-37.023 h 42.75 z M 41.866,893.902 63.241,856.88 84.616,893.902 Z m 894.679,0 h -42.75 L 915.17,856.88 Z M 105.991,47.7 127.366,84.723 h -42.75 z m 37.023,-21.375 h 42.749 L 164.388,63.348 Z M 41.866,127.473 h 42.75 l -21.375,37.022 z m 85.5,809.179 37.022,-21.375 v 42.75 z M 26.219,835.505 63.241,814.13 v 42.75 z m 58.397,58.397 21.375,-37.022 21.375,37.022 z m 809.179,42.75 -21.375,37.023 -21.375,-37.023 z M 872.42,47.7 893.795,84.723 h -42.75 z M 835.398,26.325 814.023,63.348 792.648,26.325 Z M 936.545,127.473 915.17,164.495 893.795,127.473 Z M 915.17,47.7 936.545,84.723 h -42.75 z m -64.125,888.952 -37.022,21.375 v -42.75 z M 952.193,835.505 915.17,856.88 v -42.75 z m -58.398,58.397 h -42.75 L 872.42,856.88 Z M 185.763,26.325 h 42.75 l -21.375,37.023 z m -58.397,58.398 37.022,-21.375 v 42.75 z M 26.219,185.87 63.241,164.495 v 42.75 z m 58.397,-58.397 h 42.75 l -21.375,37.022 z m 122.522,830.554 v -42.75 l 37.023,21.375 z M 26.219,792.755 63.241,771.38 v 42.75 z m 101.147,101.147 37.022,-21.375 v 42.75 z M 105.991,856.88 v -42.75 l 37.023,21.375 z M 792.648,26.325 771.273,63.348 749.898,26.325 Z m 58.397,58.398 -37.022,21.375 V 63.348 Z M 952.193,185.87 915.17,207.245 v -42.75 z M 893.795,127.473 872.42,164.495 851.045,127.473 Z M 771.273,958.027 734.25,936.652 771.273,915.277 Z M 952.193,792.755 915.17,814.13 v -42.75 z m -101.148,101.147 -37.022,21.375 v -42.75 z M 872.42,856.88 835.398,835.505 872.42,814.13 Z M 207.138,63.348 244.161,84.723 207.138,106.098 Z M 26.219,228.62 63.241,207.245 v 42.75 z m 101.147,-101.147 37.022,-21.375 v 42.75 z m -21.375,37.022 37.023,21.375 -37.023,21.375 z m 138.17,772.157 h 42.75 l -21.375,37.023 z m -37.023,-21.375 v -42.75 l 37.023,21.375 z M 63.241,771.38 41.866,734.357 h 42.75 z m 101.147,101.147 -21.374,-37.022 h 42.749 z M 105.991,814.13 v -42.75 l 37.023,21.375 z M 771.273,63.348 v 42.75 L 734.25,84.723 Z m 180.92,165.272 -37.023,21.375 v -42.75 z M 851.045,127.473 814.023,148.848 v -42.75 z m 21.375,37.022 v 42.75 L 835.398,185.87 Z M 734.25,936.652 712.875,973.675 691.5,936.652 Z m 37.023,-21.375 -37.023,-21.375 37.023,-21.375 z M 915.17,771.38 893.795,734.357 h 42.75 z M 814.023,872.527 792.648,835.505 h 42.75 z M 872.42,814.13 835.398,792.755 872.42,771.38 Z M 84.616,936.652 h 42.75 l -21.375,37.023 z M 63.241,47.7 84.616,84.723 h -42.75 z m 202.295,0 21.375,37.023 h -42.75 z m -58.398,58.398 37.023,21.375 -37.023,21.375 z M 63.241,249.995 84.616,287.018 h -42.75 z m 101.147,-101.147 21.375,37.022 h -42.749 z m -58.397,58.397 37.023,21.375 -37.023,21.375 z m 180.92,729.407 h 42.75 l -21.375,37.023 z m 649.634,0 -21.375,37.023 -21.375,-37.023 z m -245.045,0 -21.375,37.023 -21.374,-37.023 z M 41.866,691.607 63.241,654.585 84.616,691.607 Z m 165.272,180.92 -21.375,-37.022 h 42.75 z m 37.023,21.375 21.375,-37.022 21.375,37.022 z M 105.991,771.38 84.616,734.357 h 42.75 z m 37.023,21.375 21.374,-37.023 21.375,37.023 z M 41.866,936.652 h 42.75 L 63.241,973.675 Z M 712.875,47.7 734.25,84.723 H 691.5 Z m 58.398,58.398 v 42.75 L 734.25,127.473 Z m 143.897,143.897 21.375,37.023 h -42.75 z M 814.023,148.848 835.398,185.87 h -42.75 z m 58.397,58.397 v 42.75 L 835.398,228.62 Z m 64.125,484.362 h -42.75 l 21.375,-37.022 z m -165.272,180.92 -21.375,-37.022 h 42.75 z M 734.25,893.902 H 691.5 L 712.875,856.88 Z M 872.42,771.38 851.045,734.357 h 42.75 z m -37.022,21.375 h -42.75 l 21.375,-37.023 z M 670.125,47.7 691.5,84.723 H 648.751 Z M 633.103,26.325 611.728,63.348 590.353,26.325 Z m -42.75,0 -21.375,37.023 -21.375,-37.023 z M 308.286,47.7 329.661,84.723 h -42.75 z m 37.022,-21.375 h 42.75 l -21.375,37.023 z m 42.75,0 h 42.75 L 409.433,63.348 Z M 26.219,633.21 63.241,611.835 v 42.75 z M 41.866,329.768 h 42.75 L 63.241,366.79 Z m 165.272,-180.92 21.375,37.022 h -42.75 z m 37.023,-21.375 h 42.75 l -21.375,37.022 z m -138.17,122.522 21.375,37.023 h -42.75 z m 37.023,-21.375 h 42.749 l -21.375,37.023 z M 26.219,590.46 63.241,569.085 v 42.75 z m 0,-202.295 37.022,-21.375 v 42.75 z m 0,42.75 37.022,-21.375 v 42.75 z m 303.442,505.737 37.022,-21.375 v 42.75 z m 79.772,21.375 v -42.75 l 37.023,21.375 z m 239.318,-21.375 -37.023,21.375 v -42.75 z m -202.295,0 h 42.75 l -21.375,37.023 z m 122.522,21.375 -37.022,-21.375 37.022,-21.375 z m -79.772,-21.375 h 42.75 l -21.375,37.023 z m -202.295,-42.75 21.375,-37.022 21.375,37.022 z M 84.616,691.607 l 21.375,-37.022 21.375,37.022 z m 143.897,143.898 37.023,-21.375 v 42.75 z M 127.366,734.357 164.388,712.982 v 42.75 z m 58.397,58.398 21.375,-37.023 21.375,37.023 z M 952.193,633.21 915.17,654.585 v -42.75 z M 936.545,329.768 915.17,366.79 893.795,329.768 Z m -165.272,-180.92 21.375,37.022 h -42.75 z M 734.25,127.473 712.875,164.495 691.5,127.473 Z m 138.17,122.522 21.375,37.023 h -42.75 z M 835.398,228.62 814.023,265.643 792.648,228.62 Z m 116.795,361.84 -37.023,21.375 v -42.75 z m 0,-202.295 -37.023,21.375 v -42.75 z m 0,42.75 -37.023,21.375 V 409.54 Z M 691.5,893.902 H 648.751 L 670.125,856.88 Z M 893.795,691.607 h -42.75 L 872.42,654.585 Z M 749.898,835.505 712.875,856.88 v -42.75 z m 101.147,-101.148 -37.022,21.375 v -42.75 z m -58.397,58.398 h -42.75 l 21.375,-37.023 z M 648.751,84.723 611.728,106.098 V 63.348 Z M 568.978,63.348 v 42.75 L 531.956,84.723 Z M 329.661,84.723 366.683,63.348 v 42.75 z M 510.581,47.7 531.956,84.723 h -42.75 z m -101.148,15.648 37.023,21.375 -37.023,21.375 z M 467.831,47.7 489.206,84.723 h -42.75 z m -180.92,79.773 h 42.75 l -21.375,37.022 z M 84.616,329.768 h 42.75 L 105.991,366.79 Z M 228.513,185.87 265.536,164.495 v 42.75 z m -101.147,101.148 37.022,-21.375 v 42.75 z m 58.397,-58.398 h 42.75 l -21.375,37.023 z M 63.241,569.085 41.866,532.062 h 42.75 z m 0,-116.795 21.375,37.023 h -42.75 z m 266.42,441.612 37.022,-21.375 v 42.75 z m 79.772,21.375 v -42.75 l 37.023,21.375 z m 239.318,-21.375 -37.023,21.375 v -42.75 z m -79.773,21.375 -37.022,-21.375 37.022,-21.375 z M 308.286,856.88 v -42.75 l 37.022,21.375 z m -180.92,-165.273 37.022,-21.375 v 42.75 z m -21.375,-37.022 v -42.75 l 37.023,21.375 z m 122.522,138.17 37.023,-21.375 v 42.75 z m -21.375,-37.023 v -42.75 l 37.023,21.375 z M 691.5,127.473 670.125,164.495 648.751,127.473 Z M 893.795,329.768 872.42,366.79 851.045,329.768 Z M 749.898,185.87 712.875,207.245 v -42.75 z m 101.147,101.148 -37.022,21.375 v -42.75 z M 792.648,228.62 771.273,265.643 749.898,228.62 Z M 915.17,569.085 893.795,532.062 h 42.75 z m 0,-116.795 21.375,37.023 h -42.75 z M 670.125,856.88 633.103,835.505 670.125,814.13 Z m 180.92,-165.273 -37.022,21.375 v -42.75 z M 872.42,654.585 835.398,633.21 872.42,611.835 Z m -122.522,138.17 -37.023,21.375 v -42.75 z m 21.375,-37.023 -37.023,-21.375 37.023,-21.375 z M 648.751,127.473 611.728,148.848 v -42.75 z m -79.773,-21.375 v 42.75 l -37.022,-21.375 z m -239.317,21.375 37.022,-21.375 v 42.75 z m 79.772,-21.375 37.023,21.375 -37.023,21.375 z M 105.991,611.835 v -42.75 l 37.023,21.375 z m 202.295,-447.34 37.022,21.375 -37.022,21.375 z m -180.92,165.273 37.022,-21.375 v 42.75 z m -21.375,37.022 37.023,21.375 -37.023,21.375 z m 122.522,-138.17 37.023,-21.375 v 42.75 z m -21.375,37.023 37.023,21.375 -37.023,21.375 z M 105.991,569.085 84.616,532.062 h 42.75 z m 0,-159.545 37.023,21.375 -37.023,21.375 z m 0,42.75 21.375,37.023 h -42.75 z m 260.692,420.237 -21.375,-37.022 h 42.75 z m 42.75,0 -21.375,-37.022 h 42.75 z m 37.023,21.375 21.375,-37.022 21.375,37.022 z m 165.272,-21.375 -21.375,-37.022 h 42.75 z m -42.75,0 -21.375,-37.022 h 42.75 z m -79.772,21.375 21.375,-37.022 21.375,37.022 z M 308.286,814.13 v -42.75 l 37.022,21.375 z M 164.388,670.232 143.014,633.21 h 42.749 z M 265.536,771.38 244.161,734.357 h 42.75 z m -58.398,-58.398 v -42.75 l 37.023,21.375 z M 872.42,611.835 835.398,590.46 872.42,569.085 Z M 670.125,164.495 v 42.75 L 633.103,185.87 Z m 180.92,165.273 -37.022,21.375 v -42.75 z m 21.375,37.022 v 42.75 L 835.398,388.165 Z M 749.898,228.62 712.875,249.995 v -42.75 z m 21.375,37.023 v 42.75 L 734.25,287.018 Z M 872.42,569.085 851.045,532.062 h 42.75 z m 0,-159.545 v 42.75 l -37.022,-21.375 z m 0,42.75 21.375,37.023 h -42.75 z M 670.125,814.13 633.103,792.755 670.125,771.38 Z M 814.023,670.232 792.648,633.21 h 42.75 z M 712.875,771.38 691.5,734.357 h 42.75 z m 58.398,-58.398 -37.023,-21.375 37.023,-21.375 z M 611.728,148.848 633.103,185.87 h -42.75 z m -42.75,0 21.375,37.022 h -42.75 z m -37.022,-21.375 -21.375,37.022 -21.375,-37.022 z m -165.273,21.375 21.375,37.022 h -42.75 z m 42.75,0 21.375,37.022 h -42.75 z m 79.773,-21.375 -21.375,37.022 -21.375,-37.022 z m -346.192,462.987 21.374,-37.023 21.375,37.023 z m 165.272,-383.215 37.022,21.375 -37.022,21.375 z m -143.898,143.898 21.375,37.022 h -42.749 z m 101.148,-101.148 21.375,37.023 h -42.75 z m -58.398,58.398 37.023,21.375 -37.023,21.375 z m -79.772,223.669 37.022,-21.374 v 42.749 z m 37.022,-64.124 -21.374,-37.023 h 42.749 z m 0,0 v 42.75 L 127.366,489.313 Z M 467.831,814.13 v 42.75 l -37.023,-21.375 z m 42.75,0 37.022,21.375 -37.022,21.375 z m -180.92,-79.773 -21.375,37.023 -21.375,-37.023 z m 37.022,21.375 21.375,37.023 h -42.75 z M 228.513,633.21 207.138,670.232 185.763,633.21 Z m 37.023,21.375 21.375,37.022 h -42.75 z m 548.487,-101.148 21.375,37.023 h -42.75 z M 633.103,228.62 670.125,207.245 v 42.75 z m 159.545,159.545 21.375,-37.022 21.375,37.022 z M 691.5,287.018 l 21.375,-37.023 21.375,37.023 z m 42.75,42.75 37.023,-21.375 v 42.75 z m 79.773,180.92 37.022,21.374 -37.022,21.375 z m 0,-42.75 -21.375,-37.023 h 42.75 z m 0,0 37.022,21.375 -37.022,21.375 z M 648.751,734.357 H 691.5 l -21.375,37.023 z m -37.023,21.375 21.375,37.023 h -42.75 z M 749.898,633.21 h 42.75 l -21.375,37.022 z m -37.023,21.375 21.375,37.022 H 691.5 Z M 510.581,207.245 547.603,185.87 510.581,164.495 Z m -42.75,0 -37.023,-21.375 37.023,-21.375 z M 228.513,590.46 h -42.75 l 21.375,-37.023 z M 329.661,287.018 h -42.75 l 21.375,-37.023 z M 388.058,228.62 366.683,265.643 345.308,228.62 Z M 228.513,388.165 h -42.75 l 21.375,-37.022 z m 58.398,-58.397 -21.375,37.022 -21.375,-37.022 z M 185.763,430.915 h 42.75 l -21.375,37.023 z m 245.045,361.84 h -42.75 l 21.375,-37.023 z m 37.023,21.375 -37.023,-21.375 37.023,-21.375 z m 79.772,-21.375 21.375,-37.023 21.375,37.023 z M 510.581,814.13 547.603,792.755 510.581,771.38 Z M 366.683,755.732 329.661,734.357 366.683,712.982 Z M 265.536,654.585 228.513,633.21 265.536,611.835 Z m 21.375,37.022 21.375,-37.022 21.375,37.022 z M 792.648,590.46 h -42.75 l 21.375,-37.023 z M 691.5,287.018 h -42.749 l 21.374,-37.023 z M 590.353,228.62 h 42.75 l -21.375,37.023 z m 202.295,159.545 h -42.75 l 21.375,-37.022 z M 734.25,329.768 712.875,366.79 691.5,329.768 Z m 58.398,101.147 -21.375,37.023 -21.375,-37.023 z m -180.92,324.817 37.023,-21.375 -37.023,-21.375 z M 712.875,654.585 749.898,633.21 712.875,611.835 Z M 691.5,691.607 h -42.749 l 21.374,-37.022 z M 547.603,228.62 h 42.75 l -21.375,37.023 z m -37.022,-21.375 37.022,21.375 -37.022,21.375 z M 388.058,228.62 h 42.75 l -21.375,37.023 z m 42.75,0 37.023,-21.375 v 42.75 z m -202.295,361.84 37.023,-21.375 v 42.75 z m -21.375,-37.023 v -42.749 l 37.023,21.374 z m 122.523,-266.419 37.022,-21.375 v 42.75 z M 228.513,388.165 265.536,366.79 v 42.75 z m 58.398,-58.397 h 42.75 L 308.286,366.79 Z M 265.536,452.29 228.513,430.915 265.536,409.54 Z m -21.375,37.023 -37.023,21.375 v -42.75 z m 202.295,245.044 -37.023,21.375 v -42.75 z m 42.75,0 -21.375,37.023 -21.375,-37.023 z m 42.75,0 37.022,-21.375 v 42.75 z m 0,0 -21.375,37.023 -21.375,-37.023 z M 366.683,670.232 v 42.75 l -37.022,-21.375 z m -21.375,-37.022 -37.022,21.375 v -42.75 z m 367.567,-64.125 37.023,21.375 -37.023,21.375 z m 21.375,-37.023 37.023,-21.374 v 42.749 z M 611.728,308.393 648.751,287.018 611.728,265.643 Z M 712.875,409.54 749.898,388.165 712.875,366.79 Z m -42.75,-42.75 -21.374,-37.022 H 691.5 Z m 42.75,85.5 37.023,-21.375 -37.023,-21.375 z m 21.375,37.023 37.023,-21.375 v 42.75 z m -122.522,180.919 37.023,21.375 -37.023,21.375 z m 21.375,-37.022 37.022,-21.375 v 42.75 z M 531.956,287.018 568.978,265.643 v 42.75 z m -42.75,0 21.375,-37.023 21.375,37.023 z m -42.75,0 -37.023,21.375 v -42.75 z m 0,0 21.375,-37.023 21.375,37.023 z m -159.545,245.044 -21.375,37.023 -21.375,-37.023 z m 79.772,-180.919 -37.022,-21.375 37.022,-21.375 z m -21.375,37.022 -37.022,21.375 v -42.75 z m -58.397,101.148 h -42.75 l 21.375,-37.023 z m 159.545,202.294 -37.023,21.375 v -42.75 z m 85.5,0 37.022,-21.375 v 42.75 z M 388.058,633.21 366.683,670.232 345.308,633.21 Z m -42.75,-42.75 -37.022,21.375 v -42.75 z M 691.5,532.062 h 42.75 l -21.375,37.023 z m -79.772,-180.919 37.023,-21.375 -37.023,-21.375 z m 21.375,37.022 37.022,-21.375 v 42.75 z M 691.5,489.313 712.875,452.29 734.25,489.313 Z M 590.353,633.21 h 42.75 l -21.375,37.022 z m 42.75,-42.75 37.022,-21.375 v 42.75 z M 531.956,329.768 568.978,308.393 v 42.75 z m -85.5,0 -37.023,21.375 v -42.75 z m -116.795,202.294 -21.375,37.023 -21.375,-37.023 z m 58.397,-143.897 h -42.75 l 21.375,-37.022 z m -42.75,42.75 -37.022,21.375 v -42.75 z m -15.647,58.398 h -42.75 L 308.286,452.29 Z M 430.808,633.21 409.433,670.232 388.058,633.21 Z m 37.023,21.375 21.375,37.022 h -42.75 z m 79.772,-21.375 h 42.75 l -21.375,37.022 z m -37.022,21.375 21.375,37.022 h -42.75 z M 366.683,553.437 388.058,590.46 h -42.75 z M 648.751,532.062 H 691.5 l -21.375,37.023 z m -58.398,-143.897 21.375,-37.022 21.375,37.022 z m 42.75,42.75 37.022,-21.375 v 42.75 z m 15.648,58.398 21.374,-37.023 21.375,37.023 z m -37.023,64.124 21.375,37.023 h -42.75 z m -64.125,-165.272 21.375,-37.022 21.375,37.022 z M 510.581,366.79 489.206,329.768 h 42.75 z m -79.773,21.375 h -42.75 l 21.375,-37.022 z m 37.023,-21.375 -21.375,-37.022 h 42.75 z M 366.683,510.688 v 42.749 l -37.022,-21.375 z m 0,-42.75 -21.375,-37.023 h 42.75 z m 0,0 v 42.75 l -37.022,-21.375 z m 101.148,143.897 v 42.75 L 430.808,633.21 Z m 42.75,0 37.022,21.375 -37.022,21.375 z m -101.148,-58.398 21.375,37.023 h -42.75 z m 202.295,-42.749 37.023,21.374 -37.023,21.375 z m 0,-42.75 -21.375,-37.023 h 42.75 z m 0,0 37.023,21.375 -37.023,21.375 z m -42.75,85.499 21.375,37.023 h -42.75 z M 510.581,409.54 547.603,388.165 510.581,366.79 Z m -42.75,0 -37.023,-21.375 37.023,-21.375 z m -58.398,58.398 -21.375,-37.023 h 42.75 z m 58.398,101.147 v 42.75 L 430.808,590.46 Z m 42.75,0 37.022,21.375 -37.022,21.375 z m -64.125,-37.023 -37.023,21.375 v -42.749 z m 122.522,-64.124 -21.375,-37.023 h 42.75 z m -37.022,64.124 37.022,-21.374 v 42.749 z M 510.581,452.29 547.603,430.915 510.581,409.54 Z m -42.75,0 -37.023,-21.375 37.023,-21.375 z m -21.375,37.023 -37.023,21.375 v -42.75 z m 42.75,42.749 h 42.75 l -21.375,37.023 z m 0,0 -21.375,37.023 -21.375,-37.023 z m 42.75,-42.749 37.022,-21.375 v 42.75 z m -42.75,0 h -42.75 l 21.375,-37.023 z m 0,0 21.375,-37.023 21.375,37.023 z"
     style="opacity:1;fill:none;stroke:#000000;stroke-width:14;stop-opacity:1;stroke-miterlimit:4;stroke-dasharray:none"
     id="path99534" />
</svg>
