<?xml version="1.0" encoding="UTF-8" standalone="no"?>
<svg
   xmlns:dc="http://purl.org/dc/elements/1.1/"
   xmlns:cc="http://creativecommons.org/ns#"
   xmlns:rdf="http://www.w3.org/1999/02/22-rdf-syntax-ns#"
   xmlns:svg="http://www.w3.org/2000/svg"
   xmlns="http://www.w3.org/2000/svg"
   xmlns:sodipodi="http://sodipodi.sourceforge.net/DTD/sodipodi-0.dtd"
   xmlns:inkscape="http://www.inkscape.org/namespaces/inkscape"
   inkscape:version="1.0beta1 (32d4812, 2019-09-19)"
   sodipodi:docname="2-uniform_n14.svg"
   id="svg91181"
   height="987.9319"
   width="1000.0"
   version="1.0">
  <metadata
     id="metadata91187">
    <rdf:RDF>
      <cc:Work
         rdf:about="">
        <dc:format>image/svg+xml</dc:format>
        <dc:type
           rdf:resource="http://purl.org/dc/dcmitype/StillImage" />
        <dc:title></dc:title>
      </cc:Work>
    </rdf:RDF>
  </metadata>
  <defs
     id="defs91185" />
  <sodipodi:namedview
     inkscape:current-layer="svg91181"
     inkscape:window-maximized="1"
     inkscape:window-y="23"
     inkscape:window-x="0"
     inkscape:cy="556.94916"
     inkscape:cx="377.06585"
     inkscape:zoom="0.62512029"
     showgrid="false"
     id="namedview91183"
     inkscape:window-height="1005"
     inkscape:window-width="1680"
     inkscape:pageshadow="2"
     inkscape:pageopacity="0"
     guidetolerance="10"
     gridtolerance="10"
     objecttolerance="10"
     borderopacity="1"
     inkscape:document-rotation="0"
     bordercolor="#666666"
     pagecolor="#ffffff" />
  <!-- X Coordinate transform: fx(x)=(x+80.75)*0.86095566-->
  <!-- Y Coordinate transform: fy(y)=(1095.3921-y)*0.86095566 -->
  <path
     d="M 26.474,908.48 V 865.432 H 69.522 V 908.48 Z M 930.478,42.171 V 85.219 H 887.43 V 42.171 Z m 43.048,866.309 h -43.048 v -43.048 h 43.048 z M 112.57,42.171 h 43.048 V 85.219 H 112.57 Z M 26.474,159.78 h 43.048 v 43.048 H 26.474 Z m 43.048,748.7 V 865.432 H 112.57 V 908.48 Z M 887.43,42.171 V 85.219 H 844.382 V 42.171 Z M 930.478,908.48 H 887.43 v -43.048 h 43.048 z m 43.048,-748.7 v 43.048 H 930.478 V 159.78 Z M 69.522,42.171 H 112.57 V 85.219 H 69.522 Z m 86.096,0 h 43.048 V 85.219 H 155.618 Z M 69.522,159.78 h 43.048 v 43.048 H 69.522 Z m 43.048,748.7 v -43.048 h 43.048 V 908.48 Z M 26.474,790.871 v -43.047 h 43.048 v 43.047 z M 844.382,42.171 V 85.219 H 801.334 V 42.171 Z M 887.43,908.48 h -43.048 v -43.048 h 43.048 z m 43.048,-748.7 v 43.048 H 887.43 V 159.78 Z m 43.048,631.091 h -43.048 v -43.047 h 43.048 z m -774.86,-748.7 h 43.047 V 85.219 H 198.666 Z M 112.57,159.78 h 43.048 v 43.048 H 112.57 Z M 26.474,277.389 h 43.048 v 43.048 H 26.474 Z M 155.618,908.48 v -43.048 h 43.048 V 908.48 Z M 69.522,790.871 v -43.047 h 43.048 v 43.047 z M 973.526,42.171 V 85.219 H 930.478 V 42.171 Z m -172.192,0 V 85.219 H 758.287 V 42.171 Z m 43.048,866.309 h -43.048 v -43.048 h 43.048 z m 43.048,-748.7 v 43.048 H 844.382 V 159.78 Z m 43.048,631.091 H 887.43 v -43.047 h 43.048 z m 43.048,-513.482 v 43.048 H 930.478 V 277.389 Z M 241.713,42.171 h 43.048 V 85.219 H 241.713 Z M 155.618,159.78 h 43.048 v 43.048 H 155.618 Z M 69.522,277.389 h 43.048 v 43.048 H 69.522 Z M 26.474,42.171 H 69.522 V 85.219 H 26.474 Z M 198.666,908.48 v -43.048 h 43.047 V 908.48 Z M 112.57,790.871 v -43.047 h 43.048 v 43.047 z M 26.474,673.263 v -43.048 h 43.048 v 43.048 z M 758.287,42.171 V 85.219 H 715.239 V 42.171 Z m 43.047,866.309 h -43.047 v -43.048 h 43.047 z m 43.048,-748.7 v 43.048 H 801.334 V 159.78 Z m 43.048,631.091 h -43.048 v -43.047 h 43.048 z m 43.048,-513.482 v 43.048 H 887.43 v -43.048 z m 43.048,395.874 h -43.048 v -43.048 h 43.048 z M 715.239,42.171 V 85.219 H 672.191 V 42.171 Z m -43.048,0 V 85.219 H 629.143 V 42.171 Z m -43.048,0 V 85.219 H 586.096 V 42.171 Z m -43.047,0 V 85.219 H 543.048 V 42.171 Z m -43.048,0 V 85.219 H 500 V 42.171 Z m -43.048,0 V 85.219 H 456.952 V 42.171 Z m -43.048,0 V 85.219 H 413.904 V 42.171 Z m -43.048,0 V 85.219 H 370.857 V 42.171 Z m -43.047,0 V 85.219 H 327.809 V 42.171 Z m -86.096,0 h 43.048 V 85.219 H 284.761 Z M 198.666,159.78 h 43.047 v 43.048 H 198.666 Z M 112.57,277.389 h 43.048 v 43.048 H 112.57 Z M 26.474,394.997 h 43.048 v 43.048 H 26.474 Z M 241.713,908.48 v -43.048 h 43.048 V 908.48 Z M 155.618,790.871 v -43.047 h 43.048 v 43.047 z M 69.522,673.263 v -43.048 h 43.048 v 43.048 z M 758.287,908.48 h -43.048 v -43.048 h 43.048 z m 43.047,-748.7 v 43.048 H 758.287 V 159.78 Z m 43.048,631.091 h -43.048 v -43.047 h 43.048 z M 887.43,277.389 v 43.048 h -43.048 v -43.048 z m 43.048,395.874 H 887.43 v -43.048 h 43.048 z m 43.048,-278.266 v 43.048 H 930.478 V 394.997 Z M 500,512.606 h 43.048 v 43.048 H 500 Z M 241.713,159.78 h 43.048 v 43.048 h -43.048 z m -86.095,117.609 h 43.048 v 43.048 H 155.618 Z M 69.522,394.997 h 43.048 v 43.048 H 69.522 Z M 26.474,555.654 v -43.048 h 43.048 v 43.048 z M 284.761,908.48 v -43.048 h 43.048 V 908.48 Z M 198.666,790.871 v -43.047 h 43.047 v 43.047 z M 112.57,673.263 v -43.048 h 43.048 v 43.048 z M 715.239,908.48 h -43.048 v -43.048 h 43.048 z m 43.048,-748.7 v 43.048 H 715.239 V 159.78 Z m 43.047,631.091 h -43.047 v -43.047 h 43.047 z m 43.048,-513.482 v 43.048 h -43.048 v -43.048 z m 43.048,395.874 h -43.048 v -43.048 h 43.048 z m 43.048,-278.266 v 43.048 H 887.43 v -43.048 z m 43.048,160.657 h -43.048 v -43.048 h 43.048 z M 284.761,159.78 h 43.048 v 43.048 h -43.048 z m -86.095,117.609 h 43.047 v 43.048 H 198.666 Z M 112.57,394.997 h 43.048 v 43.048 H 112.57 Z M 69.522,555.654 v -43.048 h 43.048 v 43.048 z M 327.809,908.48 v -43.048 h 43.048 v 43.048 z m 43.048,0 v -43.048 h 43.047 v 43.048 z m 43.047,0 v -43.048 h 43.048 v 43.048 z m 43.048,0 V 865.432 H 500 v 43.048 z m 43.048,0 v -43.048 h 43.048 v 43.048 z m 43.048,0 v -43.048 h 43.048 v 43.048 z m 43.048,0 v -43.048 h 43.047 v 43.048 z m 86.095,0 h -43.048 v -43.048 h 43.048 z M 241.713,790.871 v -43.047 h 43.048 v 43.047 z M 155.618,673.263 v -43.048 h 43.048 v 43.048 z M 715.239,159.78 v 43.048 H 672.191 V 159.78 Z m 43.048,631.091 h -43.048 v -43.047 h 43.048 z m 43.047,-513.482 v 43.048 h -43.047 v -43.048 z m 43.048,395.874 h -43.048 v -43.048 h 43.048 z M 887.43,394.997 v 43.048 h -43.048 v -43.048 z m 0,117.609 h 43.048 v 43.048 H 887.43 Z M 629.143,202.828 V 159.78 h 43.048 v 43.048 z m -43.047,0 V 159.78 h 43.047 v 43.048 z m -43.048,0 V 159.78 h 43.048 v 43.048 z m -43.048,0 V 159.78 h 43.048 v 43.048 z m -43.048,0 V 159.78 H 500 v 43.048 z m -43.048,0 V 159.78 h 43.048 v 43.048 z m -43.047,0 V 159.78 h 43.047 v 43.048 z m 0,0 H 327.809 V 159.78 h 43.048 z m -86.096,117.609 h -43.048 v -43.048 h 43.048 z m -86.095,117.608 h -43.048 v -43.048 h 43.048 z m -43.048,74.561 v 43.048 H 112.57 v -43.048 z m 172.191,235.218 v 43.047 H 284.761 V 747.824 Z M 241.713,630.215 v 43.048 h -43.047 v -43.048 z m 430.478,117.609 h 43.048 v 43.047 h -43.048 z m 43.048,-427.387 v -43.048 h 43.048 v 43.048 z m 43.048,309.778 h 43.047 v 43.048 h -43.047 z m 43.047,-192.17 v -43.048 h 43.048 v 43.048 z m 43.048,74.561 h 43.048 v 43.048 H 844.382 Z M 327.809,320.437 h -43.048 v -43.048 h 43.048 z M 198.666,438.045 v -43.048 h 43.047 v 43.048 z m 0,117.609 h -43.048 v -43.048 h 43.048 z m 129.143,192.17 h 43.048 v 43.047 H 327.809 Z M 241.713,630.215 h 43.048 v 43.048 h -43.048 z m 430.478,117.609 v 43.047 h -43.048 v -43.047 z m 43.048,-427.387 h -43.048 v -43.048 h 43.048 z m 43.048,309.778 v 43.048 h -43.048 v -43.048 z m 43.047,-192.17 h -43.047 v -43.048 h 43.047 z m 43.048,74.561 v 43.048 H 801.334 V 512.606 Z M 370.857,277.389 v 43.048 H 327.809 V 277.389 Z M 241.713,394.997 h 43.048 v 43.048 h -43.048 z m -43.047,160.657 v -43.048 h 43.047 v 43.048 z m 172.191,235.217 v -43.047 h 43.047 v 43.047 z m 86.095,-43.047 v 43.047 h -43.048 v -43.047 z m 43.048,0 v 43.047 h -43.048 v -43.047 z m 43.048,0 v 43.047 H 500 v -43.047 z m 43.048,0 v 43.047 h -43.048 v -43.047 z m 43.047,43.047 h -43.047 v -43.047 h 43.047 z M 284.761,673.263 v -43.048 h 43.048 v 43.048 z m 387.43,-395.874 v 43.048 h -43.048 v -43.048 z m 43.048,395.874 h -43.048 v -43.048 h 43.048 z m 43.048,-278.266 v 43.048 h -43.048 v -43.048 z m 43.047,160.657 h -43.047 v -43.048 h 43.047 z M 586.096,320.437 v -43.048 h 43.047 v 43.048 z m -43.048,0 v -43.048 h 43.048 v 43.048 z m -43.048,0 v -43.048 h 43.048 v 43.048 z m -43.048,0 V 277.389 H 500 v 43.048 z m -43.048,0 v -43.048 h 43.048 v 43.048 z m -43.047,-43.048 h 43.047 v 43.048 h -43.047 z m -86.096,117.608 h 43.048 v 43.048 h -43.048 z m 0,117.609 v 43.048 h -43.048 v -43.048 z m 86.096,117.609 v 43.048 h -43.048 v -43.048 z m 258.286,0 h 43.048 v 43.048 h -43.048 z m 43.048,-192.17 v -43.048 h 43.048 v 43.048 z m 43.048,74.561 h 43.048 v 43.048 H 715.239 Z M 370.857,438.045 h -43.048 v -43.048 h 43.048 z m -43.048,74.561 v 43.048 h -43.048 v -43.048 z m 86.095,117.609 v 43.048 h -43.047 v -43.048 z m 172.192,0 h 43.047 v 43.048 h -43.047 z m 43.047,-192.17 v -43.048 h 43.048 v 43.048 z m 43.048,74.561 h 43.048 v 43.048 H 672.191 Z M 413.904,438.045 h -43.047 v -43.048 h 43.047 z m -43.047,74.561 v 43.048 h -43.048 v -43.048 z m 86.095,117.609 v 43.048 h -43.048 v -43.048 z m 43.048,0 v 43.048 h -43.048 v -43.048 z m 43.048,0 v 43.048 H 500 v -43.048 z m 0,0 h 43.048 v 43.048 h -43.048 z m 43.048,-192.17 v -43.048 h 43.047 v 43.048 z m 43.047,74.561 h 43.048 v 43.048 h -43.048 z m -86.095,-74.561 v -43.048 h 43.048 v 43.048 z m -43.048,0 v -43.048 h 43.048 v 43.048 z m -43.048,0 V 394.997 H 500 v 43.048 z m 0,0 h -43.048 v -43.048 h 43.048 z m -43.048,74.561 v 43.048 h -43.047 v -43.048 z m 172.192,0 h 43.047 v 43.048 h -43.047 z m -129.144,0 v 43.048 h -43.048 v -43.048 z m 86.096,0 h 43.048 v 43.048 h -43.048 z m -43.048,0 v 43.048 H 456.952 V 512.606 Z M 952.002,945.761 H 908.954 L 930.478,908.48 Z M 995.049,122.5 973.526,159.78 952.002,122.5 Z M 47.998,945.761 69.522,908.48 91.046,945.761 Z m 0,-823.261 h 43.048 l -21.524,37.28 z m 64.572,860.541 -21.524,-37.28 h 43.048 z m -21.524,-37.28 21.524,-37.281 21.524,37.281 z M 26.474,865.432 4.95,828.152 H 47.998 Z M 4.95,828.152 26.474,790.871 47.998,828.152 Z m 882.48,154.889 -21.524,-37.28 h 43.048 z M 930.478,85.219 952.002,122.5 H 908.954 Z M 908.954,945.761 H 865.906 L 887.43,908.48 Z M 952.002,122.5 930.478,159.78 908.954,122.5 Z m 21.524,742.932 -21.524,-37.28 h 43.047 z m 21.523,-37.28 h -43.047 l 21.524,-37.281 z M 4.95,122.5 H 47.998 L 26.474,159.78 Z M 112.57,85.219 134.094,122.5 H 91.046 Z M 91.046,122.5 h 43.048 l -21.524,37.28 z m -64.572,80.328 21.524,37.28 H 4.95 Z M 4.95,240.108 H 47.998 L 26.474,277.389 Z M 69.522,85.219 91.046,122.5 H 47.998 Z m 86.096,897.822 -21.524,-37.28 h 43.048 z m -21.524,-37.28 21.524,-37.281 21.524,37.281 z M 69.522,865.432 47.998,828.152 h 43.048 z m -21.524,-37.28 21.524,-37.281 21.524,37.281 z m 796.384,154.889 -21.524,-37.28 h 43.048 z M 887.43,85.219 908.954,122.5 H 865.906 Z M 865.906,945.761 H 822.858 L 844.382,908.48 Z M 908.954,122.5 887.43,159.78 865.906,122.5 Z m 21.524,742.932 -21.524,-37.28 h 43.048 z m 43.048,-662.604 21.523,37.28 h -43.047 z m -21.524,625.324 h -43.048 l 21.524,-37.281 z m 43.047,-588.044 -21.523,37.281 -21.524,-37.281 z M 155.618,85.219 177.142,122.5 H 134.094 Z M 134.094,122.5 h 43.048 l -21.524,37.28 z m -64.572,80.328 21.524,37.28 H 47.998 Z m -21.524,37.28 h 43.048 l -21.524,37.281 z m 150.668,742.933 -21.524,-37.28 h 43.047 z m -21.524,-37.28 21.524,-37.281 21.523,37.281 z M 112.57,865.432 91.046,828.152 h 43.048 z m -21.524,-37.28 21.524,-37.281 21.524,37.281 z M 26.474,747.824 4.95,710.543 H 47.998 Z M 4.95,710.543 l 21.524,-37.28 21.524,37.28 z m 990.099,235.218 h -43.047 l 21.524,-37.281 z m -193.715,37.28 -21.523,-37.28 h 43.047 z M 844.382,85.219 865.906,122.5 H 822.858 Z M 822.858,945.761 H 779.811 L 801.334,908.48 Z M 865.906,122.5 844.382,159.78 822.858,122.5 Z m 21.524,742.932 -21.524,-37.28 h 43.048 z m 43.048,-662.604 21.524,37.28 h -43.048 z m -21.524,625.324 h -43.048 l 21.524,-37.281 z m 43.048,-588.044 -21.524,37.281 -21.524,-37.281 z m 21.524,507.716 -21.524,-37.281 h 43.047 z m 21.523,-37.281 h -43.047 l 21.524,-37.28 z m -64.571,272.498 -21.524,-37.28 h 43.048 z M 198.666,85.219 220.189,122.5 H 177.142 Z M 177.142,122.5 h 43.047 l -21.523,37.28 z m -64.572,80.328 21.524,37.28 H 91.046 Z m -21.524,37.28 h 43.048 l -21.524,37.281 z m -64.572,80.329 21.524,37.28 H 4.95 Z M 4.95,357.717 h 43.048 l -21.524,37.28 z M 973.526,85.219 995.049,122.5 h -43.047 z m -731.813,897.822 -21.524,-37.28 h 43.048 z m -21.524,-37.28 21.524,-37.281 21.524,37.281 z m -64.571,-80.329 -21.524,-37.28 h 43.048 z m -21.524,-37.28 21.524,-37.281 21.524,37.281 z M 69.522,747.824 47.998,710.543 h 43.048 z m -21.524,-37.281 21.524,-37.28 21.524,37.28 z m 710.289,272.498 -21.524,-37.28 h 43.048 z M 801.334,85.219 822.858,122.5 H 779.811 Z M 779.811,945.761 H 736.763 L 758.287,908.48 Z M 822.858,122.5 801.334,159.78 779.811,122.5 Z m 21.524,742.932 -21.524,-37.28 h 43.048 z m 43.048,-662.604 21.524,37.28 h -43.048 z m -21.524,625.324 h -43.048 l 21.524,-37.281 z m 43.048,-588.044 -21.524,37.281 -21.524,-37.281 z m 21.524,507.716 -21.524,-37.281 h 43.048 z m 43.048,-427.387 21.523,37.28 h -43.047 z m -21.524,390.106 h -43.048 l 21.524,-37.28 z m 43.047,-352.826 -21.523,37.28 -21.524,-37.28 z M 241.713,85.219 263.237,122.5 H 220.189 Z M 220.189,122.5 h 43.048 l -21.524,37.28 z m -64.571,80.328 21.524,37.28 h -43.048 z m -21.524,37.28 h 43.048 l -21.524,37.281 z m -64.572,80.329 21.524,37.28 H 47.998 Z m -21.524,37.28 h 43.048 l -21.524,37.28 z M 4.95,945.761 26.474,908.48 47.998,945.761 Z m 64.572,37.28 -21.524,-37.28 H 91.046 Z M 26.474,85.219 47.998,122.5 H 4.95 Z m 258.287,897.822 -21.524,-37.28 h 43.048 z m -21.524,-37.28 21.524,-37.281 21.524,37.281 z m -64.571,-80.329 -21.524,-37.28 h 43.047 z m -21.524,-37.28 21.524,-37.281 21.523,37.281 z M 112.57,747.824 91.046,710.543 h 43.048 z m -21.524,-37.281 21.524,-37.28 21.524,37.28 z M 26.474,630.215 4.95,592.934 H 47.998 Z M 4.95,592.934 l 21.524,-37.28 21.524,37.28 z m 710.289,390.107 -21.524,-37.28 h 43.048 z M 758.287,85.219 779.811,122.5 H 736.763 Z M 736.763,945.761 H 693.715 L 715.239,908.48 Z M 779.811,122.5 758.287,159.78 736.763,122.5 Z m 21.523,742.932 -21.523,-37.28 h 43.047 z m 43.048,-662.604 21.524,37.28 h -43.048 z m -21.524,625.324 h -43.047 l 21.523,-37.281 z m 43.048,-588.044 -21.524,37.281 -21.524,-37.281 z m 21.524,507.716 -21.524,-37.281 h 43.048 z m 43.048,-427.387 21.524,37.28 h -43.048 z m -21.524,390.106 h -43.048 l 21.524,-37.28 z m 43.048,-352.826 -21.524,37.28 -21.524,-37.28 z m 21.524,625.324 -21.524,-37.28 h 43.047 z m 0,-352.826 -21.524,-37.281 h 43.047 z m 21.523,-37.281 h -43.047 l 21.524,-37.28 z M 284.761,85.219 306.285,122.5 H 263.237 Z M 263.237,122.5 h 43.048 l -21.524,37.28 z m -64.571,80.328 21.523,37.28 h -43.047 z m -21.524,37.28 h 43.047 l -21.523,37.281 z m -64.572,80.329 21.524,37.28 H 91.046 Z m -21.524,37.28 h 43.048 l -21.524,37.28 z m -64.572,80.328 21.524,37.281 H 4.95 Z M 4.95,475.326 h 43.048 l -21.524,37.28 z M 26.474,983.041 4.95,945.761 h 43.048 z m 301.335,0 -21.524,-37.28 h 43.048 z m 43.048,0 -21.524,-37.28 h 43.048 z m 43.047,0 -21.523,-37.28 h 43.047 z m 43.048,0 -21.524,-37.28 h 43.048 z m 43.048,0 -21.524,-37.28 h 43.048 z m 43.048,0 -21.524,-37.28 h 43.048 z m 43.048,0 -21.524,-37.28 h 43.047 z m 86.095,0 -21.524,-37.28 h 43.048 z m -43.048,0 -21.524,-37.28 h 43.048 z m -322.858,-37.28 21.524,-37.281 21.524,37.281 z m -64.572,-80.329 -21.524,-37.28 h 43.048 z m -21.524,-37.28 21.524,-37.281 21.524,37.281 z m -64.571,-80.328 -21.524,-37.281 h 43.048 z m -21.524,-37.281 21.524,-37.28 21.524,37.28 z M 69.522,630.215 47.998,592.934 h 43.048 z m -21.524,-37.281 21.524,-37.28 21.524,37.28 z M 715.239,85.219 736.763,122.5 H 693.715 Z M 693.715,945.761 H 650.667 L 672.191,908.48 Z M 736.763,122.5 715.239,159.78 693.715,122.5 Z m 21.524,742.932 -21.524,-37.28 h 43.048 z m 43.047,-662.604 21.524,37.28 h -43.047 z m -21.523,625.324 h -43.048 l 21.524,-37.281 z m 43.047,-588.044 -21.524,37.281 -21.523,-37.281 z m 21.524,507.716 -21.524,-37.281 h 43.048 z m 43.048,-427.387 21.524,37.28 h -43.048 z m -21.524,390.106 h -43.048 l 21.524,-37.28 z m 43.048,-352.826 -21.524,37.28 -21.524,-37.28 z m 21.524,272.498 -21.524,-37.281 h 43.048 z m 43.048,-192.17 21.523,37.281 h -43.047 z m -21.524,154.889 h -43.048 l 21.524,-37.28 z m 43.047,-117.608 -21.523,37.28 -21.524,-37.28 z M 672.191,85.219 693.715,122.5 h -43.048 z m -43.048,0 21.524,37.281 h -43.048 z m -43.047,0 21.523,37.281 h -43.047 z m -43.048,0 21.524,37.281 h -43.048 z m -43.048,0 21.524,37.281 h -43.048 z m -43.048,0 21.524,37.281 h -43.048 z m -43.048,0 21.524,37.281 h -43.047 z m -86.095,0 21.524,37.281 h -43.048 z m 43.048,0 21.524,37.281 H 349.333 Z M 306.285,122.5 h 43.048 l -21.524,37.28 z m -64.572,80.328 21.524,37.28 h -43.048 z m -21.524,37.28 h 43.048 l -21.524,37.281 z m -64.571,80.329 21.524,37.28 h -43.048 z m -21.524,37.28 h 43.048 l -21.524,37.28 z m -64.572,80.328 21.524,37.281 H 47.998 Z m -21.524,37.281 h 43.048 l -21.524,37.28 z m 301.335,470.435 21.524,-37.281 21.524,37.281 z m 43.048,0 21.523,-37.281 21.524,37.281 z m 43.047,0 21.524,-37.281 21.524,37.281 z m 43.048,0 21.524,-37.281 21.524,37.281 z m 43.048,0 21.524,-37.281 21.524,37.281 z m 43.048,0 21.524,-37.281 21.523,37.281 z m 43.047,0 21.524,-37.281 21.524,37.281 z m -322.858,-80.329 -21.524,-37.28 h 43.048 z m -21.524,-37.28 21.524,-37.281 21.524,37.281 z m -64.571,-80.328 -21.524,-37.281 h 43.047 z m -21.524,-37.281 21.524,-37.28 21.523,37.28 z M 112.57,630.215 91.046,592.934 h 43.048 z m -21.524,-37.281 21.524,-37.28 21.524,37.28 z M 693.715,122.5 672.191,159.78 650.667,122.5 Z m 21.524,742.932 -21.524,-37.28 h 43.048 z m 43.048,-662.604 21.524,37.28 h -43.048 z m -21.524,625.324 h -43.048 l 21.524,-37.281 z m 43.048,-588.044 -21.524,37.281 -21.524,-37.281 z m 21.523,507.716 -21.523,-37.281 h 43.047 z m 43.048,-427.387 21.524,37.28 h -43.048 z m -21.524,390.106 h -43.047 l 21.523,-37.28 z m 43.048,-352.826 -21.524,37.28 -21.524,-37.28 z m 21.524,272.498 -21.524,-37.281 h 43.048 z m 43.048,-192.17 21.524,37.281 h -43.048 z m -21.524,154.889 h -43.048 l 21.524,-37.28 z m 43.048,-117.608 -21.524,37.28 -21.524,-37.28 z M 650.667,122.5 629.143,159.78 607.619,122.5 Z m -43.048,0 -21.523,37.28 -21.524,-37.28 z m -43.047,0 -21.524,37.28 -21.524,-37.28 z m -43.048,0 L 500,159.78 478.476,122.5 Z m -43.048,0 -21.524,37.28 -21.524,-37.28 z m -43.048,0 -21.524,37.28 -21.523,-37.28 z m -43.047,0 -21.524,37.28 -21.524,-37.28 z m -107.62,80.328 21.524,37.28 h -43.048 z m -21.524,37.28 h 43.048 l -21.524,37.281 z m -64.571,80.329 21.523,37.28 h -43.047 z m -21.524,37.28 h 43.047 l -21.523,37.28 z m -64.572,80.328 21.524,37.281 H 91.046 Z m -21.524,37.281 h 43.048 l -21.524,37.28 z m 236.763,390.106 -21.524,-37.28 h 43.048 z m -21.524,-37.28 21.524,-37.281 21.524,37.281 z m -64.572,-80.328 -21.524,-37.281 h 43.048 z m -21.524,-37.281 21.524,-37.28 21.524,37.28 z m -64.571,-80.328 -21.524,-37.281 h 43.048 z m -21.524,-37.281 21.524,-37.28 21.524,37.28 z m 538.097,272.498 -21.524,-37.28 h 43.048 z m 43.048,-662.604 21.524,37.28 h -43.048 z m -21.524,625.324 h -43.048 l 21.524,-37.281 z m 43.048,-588.044 -21.524,37.281 -21.524,-37.281 z m 21.524,507.716 -21.524,-37.281 h 43.048 z m 43.047,-427.387 21.524,37.28 h -43.047 z m -21.523,390.106 h -43.048 l 21.524,-37.28 z m 43.047,-352.826 -21.524,37.28 -21.523,-37.28 z m 0,235.217 h 43.048 l -21.524,37.281 z m 43.048,-117.608 21.524,-37.281 21.524,37.281 z m -21.524,80.328 21.524,37.28 h -43.048 z m 43.048,-43.048 -21.524,-37.28 h 43.048 z M 349.333,240.108 h -43.048 l 21.524,-37.28 z m -21.524,37.281 -21.524,-37.281 h 43.048 z m -64.572,80.328 h -43.048 l 21.524,-37.28 z m -21.524,37.28 -21.524,-37.28 h 43.048 z m -64.571,80.329 h -43.048 l 21.524,-37.281 z m -21.524,37.28 -21.524,-37.28 h 43.048 z m 236.763,315.546 -21.524,37.28 -21.524,-37.28 z m 43.047,0 -21.524,37.28 -21.523,-37.28 z m 43.048,0 -21.524,37.28 -21.524,-37.28 z m 43.048,0 -21.524,37.28 -21.524,-37.28 z m 43.048,0 -21.524,37.28 -21.524,-37.28 z m 43.047,0 h 43.048 l -21.524,37.28 z m 0,0 -21.523,37.28 -21.524,-37.28 z m -236.762,-37.281 21.524,37.281 h -43.048 z m -64.572,-80.328 -21.524,37.281 -21.524,-37.281 z m -21.524,-37.28 21.524,37.28 h -43.048 z m -64.572,-80.329 -21.523,37.281 -21.524,-37.281 z m -21.523,-37.28 21.523,37.28 h -43.047 z m 452.001,-315.546 21.524,-37.28 21.524,37.28 z m -21.524,550.763 21.524,37.281 h -43.048 z m 43.048,-513.482 -21.524,-37.281 h 43.048 z m 21.524,433.154 h 43.048 l -21.524,37.281 z m 43.048,-352.826 21.524,-37.28 21.524,37.28 z m -21.524,315.546 21.524,37.28 h -43.048 z m 43.048,-278.266 -21.524,-37.28 h 43.048 z m 21.524,197.937 h 43.047 l -21.524,37.281 z m 43.047,-117.608 21.524,-37.281 21.524,37.281 z m -21.524,80.328 21.524,37.28 h -43.047 z m 43.048,-43.048 -21.524,-37.28 h 43.048 z m -236.763,-272.498 21.524,-37.28 21.524,37.28 z m 0,0 h -43.047 l 21.524,-37.28 z m -43.047,0 h -43.048 l 21.524,-37.28 z m -43.048,0 H 478.476 L 500,202.828 Z m -43.048,0 h -43.048 l 21.524,-37.28 z m -86.095,0 h -43.048 l 21.524,-37.28 z m 43.047,0 h -43.047 l 21.523,-37.28 z m -43.047,0 -21.524,37.281 -21.524,-37.281 z m -129.144,117.609 21.524,-37.28 21.524,37.28 z m 0,0 h 43.048 l -21.524,37.28 z m -86.095,117.609 21.524,-37.281 21.523,37.281 z m 0,0 h 43.047 l -21.523,37.28 z m 258.286,352.826 h -43.047 l 21.523,-37.281 z m 43.048,0 h -43.048 l 21.524,-37.281 z m 43.048,0 H 478.476 L 500,790.871 Z m 43.048,0 h -43.048 l 21.524,-37.281 z m 43.047,0 h -43.047 l 21.524,-37.281 z M 306.285,710.543 h 43.048 l -21.524,37.281 z m 0,0 21.524,-37.28 21.524,37.28 z M 220.189,592.934 h 43.048 l -21.524,37.281 z m 0,0 21.524,-37.28 21.524,37.28 z m 387.43,-352.826 h 43.048 l -21.524,37.281 z m 86.096,470.435 -21.524,37.281 -21.524,-37.281 z m 43.048,-352.826 h -43.048 l 21.524,-37.28 z m -43.048,352.826 h -43.048 l 21.524,-37.28 z m 43.048,-352.826 -21.524,37.28 -21.524,-37.28 z m 43.048,235.217 -21.524,37.281 -21.524,-37.281 z m 43.047,-117.608 h -43.047 l 21.523,-37.281 z m -43.047,117.608 h -43.048 l 21.524,-37.28 z m 43.047,-117.608 -21.524,37.28 -21.523,-37.28 z M 607.619,240.108 586.096,277.389 564.572,240.108 Z m -43.047,0 -21.524,37.281 -21.524,-37.281 z m -43.048,0 L 500,277.389 478.476,240.108 Z m -43.048,0 -21.524,37.281 -21.524,-37.281 z m -43.048,0 -21.524,37.281 -21.523,-37.281 z m -107.619,80.329 21.524,37.28 h -43.048 z m -21.524,37.28 h 43.048 l -21.524,37.28 z m -64.572,80.328 21.524,37.281 h -43.048 z m -21.524,37.281 h 43.048 l -21.524,37.28 z m 172.192,235.217 -21.524,37.281 -21.524,-37.281 z m -21.524,-37.28 21.524,37.28 h -43.048 z m -64.572,-80.329 -21.524,37.281 -21.524,-37.281 z m -21.524,-37.28 21.524,37.28 h -43.048 z m 322.858,154.889 h 43.048 l -21.524,37.281 z m 43.048,-352.826 21.524,-37.28 21.524,37.28 z m -21.524,315.546 21.524,37.28 h -43.048 z m 43.048,-278.266 -21.524,-37.28 h 43.048 z m 21.524,197.937 h 43.048 l -21.524,37.281 z m 43.048,-117.608 21.524,-37.281 21.524,37.281 z m -21.524,80.328 21.524,37.28 h -43.048 z m 43.048,-43.048 -21.524,-37.28 h 43.048 z M 392.381,357.717 h -43.048 l 21.524,-37.28 z m -21.524,37.28 -21.524,-37.28 h 43.048 z m -64.572,80.329 h -43.048 l 21.524,-37.281 z m -21.524,37.28 -21.524,-37.28 h 43.048 z m 150.667,197.937 -21.524,37.281 -21.523,-37.281 z m 43.048,0 -21.524,37.281 -21.524,-37.281 z m 43.048,0 L 500,747.824 478.476,710.543 Z m 43.048,0 h 43.047 l -21.523,37.281 z m 0,0 -21.524,37.281 -21.524,-37.281 z m -150.668,-37.28 21.524,37.28 h -43.047 z m -64.571,-80.329 -21.524,37.281 -21.524,-37.281 z m -21.524,-37.28 21.524,37.28 h -43.048 z m 279.81,-197.937 21.524,-37.28 21.524,37.28 z m -21.523,315.546 21.523,37.28 h -43.047 z m 43.047,-278.266 -21.524,-37.28 h 43.048 z m 21.524,197.937 h 43.048 l -21.524,37.281 z m 43.048,-117.608 21.524,-37.281 21.524,37.281 z m -21.524,80.328 21.524,37.28 h -43.048 z m 43.048,-43.048 -21.524,-37.28 h 43.048 z m -150.667,-154.889 21.524,-37.28 21.523,37.28 z m -43.048,0 21.524,-37.28 21.524,37.28 z m -43.048,0 21.524,-37.28 21.524,37.28 z m -43.048,0 h -43.047 l 21.523,-37.28 z m 0,0 21.524,-37.28 21.524,37.28 z m -21.524,37.28 -21.523,-37.28 h 43.047 z m -64.571,80.329 h -43.048 l 21.524,-37.281 z m -21.524,37.28 -21.524,-37.28 h 43.048 z m 129.143,160.657 21.524,37.28 h -43.048 z m 43.048,0 21.524,37.28 h -43.048 z m 43.048,0 21.524,37.28 h -43.048 z m -150.667,-80.329 -21.524,37.281 -21.524,-37.281 z m -21.524,-37.28 21.524,37.28 h -43.048 z m 215.239,-160.657 -21.524,-37.28 h 43.047 z m 21.523,197.937 h 43.048 l -21.524,37.281 z m 43.048,-117.608 21.524,-37.281 21.524,37.281 z m -21.524,80.328 21.524,37.28 h -43.048 z m 43.048,-43.048 -21.524,-37.28 h 43.048 z M 543.048,394.997 521.524,357.717 h 43.048 z m -43.048,0 -21.524,-37.28 h 43.048 z m -43.048,0 -21.524,-37.28 h 43.048 z m -64.571,80.329 h -43.048 l 21.524,-37.281 z m -21.524,37.28 -21.524,-37.28 h 43.048 z m 64.571,80.328 -21.524,37.281 -21.523,-37.281 z m -21.524,-37.28 21.524,37.28 h -43.047 z m 150.668,37.28 h 43.047 l -21.523,37.281 z m 43.047,-117.608 21.524,-37.281 21.524,37.281 z m -21.523,80.328 21.523,37.28 h -43.047 z m 43.047,-43.048 -21.524,-37.28 h 43.048 z m -193.715,-37.28 h -43.047 l 21.523,-37.281 z m -21.524,37.28 -21.523,-37.28 h 43.047 z m 64.572,80.328 -21.524,37.281 -21.524,-37.281 z m 43.048,0 h 43.048 l -21.524,37.281 z m 0,0 L 500,630.215 478.476,592.934 Z m -64.572,-37.28 21.524,37.28 h -43.048 z m 107.62,-80.328 21.524,-37.281 21.523,37.281 z m -21.524,80.328 21.524,37.28 h -43.048 z m 43.048,-43.048 -21.524,-37.28 h 43.047 z m -64.572,-37.28 21.524,-37.281 21.524,37.281 z m -43.048,0 h -43.048 l 21.524,-37.281 z m 0,0 21.524,-37.281 21.524,37.281 z m -21.524,37.28 -21.524,-37.28 h 43.048 z m 43.048,43.048 21.524,37.28 h -43.048 z m 43.048,-43.048 -21.524,-37.28 h 43.048 z m -43.048,0 -21.524,-37.28 h 43.048 z"
     style="opacity:1;fill:none;stroke:#000000;stroke-width:14;stop-opacity:1;stroke-miterlimit:4;stroke-dasharray:none"
     id="path91177" />
</svg>
