<?xml version="1.0" encoding="UTF-8" standalone="no"?>
<svg
   xmlns:dc="http://purl.org/dc/elements/1.1/"
   xmlns:cc="http://creativecommons.org/ns#"
   xmlns:rdf="http://www.w3.org/1999/02/22-rdf-syntax-ns#"
   xmlns:svg="http://www.w3.org/2000/svg"
   xmlns="http://www.w3.org/2000/svg"
   xmlns:sodipodi="http://sodipodi.sourceforge.net/DTD/sodipodi-0.dtd"
   xmlns:inkscape="http://www.inkscape.org/namespaces/inkscape"
   inkscape:version="1.0beta1 (32d4812, 2019-09-19)"
   sodipodi:docname="2-uniform_n5.svg"
   id="svg76025"
   height="1000.0"
   width="980.2866"
   version="1.0">
  <metadata
     id="metadata76031">
    <rdf:RDF>
      <cc:Work
         rdf:about="">
        <dc:format>image/svg+xml</dc:format>
        <dc:type
           rdf:resource="http://purl.org/dc/dcmitype/StillImage" />
        <dc:title></dc:title>
      </cc:Work>
    </rdf:RDF>
  </metadata>
  <defs
     id="defs76029" />
  <sodipodi:namedview
     inkscape:current-layer="svg76025"
     inkscape:window-maximized="1"
     inkscape:window-y="23"
     inkscape:window-x="0"
     inkscape:cy="465.4712"
     inkscape:cx="333.65052"
     inkscape:zoom="0.64318509"
     showgrid="false"
     id="namedview76027"
     inkscape:window-height="1005"
     inkscape:window-width="1680"
     inkscape:pageshadow="2"
     inkscape:pageopacity="0"
     guidetolerance="10"
     gridtolerance="10"
     objecttolerance="10"
     borderopacity="1"
     inkscape:document-rotation="0"
     bordercolor="#666666"
     pagecolor="#ffffff" />
  <!-- X Coordinate transform: fx(x)=(x+-2.4469452)*1.983149-->
  <!-- Y Coordinate transform: fy(y)=(506.70227-y)*1.983149 -->
  <path
     d="m 73.222,916.102 39.473,22.791 -22.789,39.472 -39.472,-22.79 z m 363.001,39.473 -39.474,22.79 -22.788,-39.472 39.472,-22.791 z M 697.487,503.052 h -45.58 v -45.579 h 45.58 z M 73.222,418.001 50.434,378.526 89.906,355.738 112.695,395.21 Z m 862.739,124.524 39.473,22.79 -22.789,39.473 -39.474,-22.789 z m -68.369,-39.473 v -45.579 h 45.579 v 45.579 z m -709.317,141.21 v 45.579 h -45.58 v -45.579 z m 62.263,107.842 -22.79,39.472 -39.473,-22.788 22.791,-39.475 z m 45.579,78.945 v 45.581 h -45.579 v -45.581 z m 255.158,-475.311 22.79,39.472 -39.472,22.791 -22.791,-39.475 z m 199.001,186.787 39.474,22.79 -22.79,39.473 -39.473,-22.789 z m -284.053,-334.103 -39.474,22.79 -22.788,-39.473 39.472,-22.79 z m 0,-78.946 v -45.58 h 45.579 v 45.58 z m 45.579,78.946 22.791,-39.473 39.472,22.79 -22.79,39.473 z m 107.842,186.788 22.79,-39.472 39.473,22.788 -22.789,39.475 z m -45.579,-78.947 v -45.578 h 45.579 v 45.578 z m -62.263,639.312 22.791,-39.473 39.472,22.791 -22.79,39.472 z m 238.474,-537.574 -22.789,-39.475 39.473,-22.788 22.79,39.472 z m -130.632,-226.262 39.474,-22.79 22.789,39.473 -39.473,22.79 z m 39.474,350.786 22.789,39.474 -39.473,22.789 -22.79,-39.473 z m 22.789,413.05 -39.473,22.79 -22.79,-39.472 39.474,-22.791 z m -454.159,-39.473 22.79,39.473 -39.472,22.79 -22.791,-39.472 z m 669.844,39.473 -39.472,22.79 -22.791,-39.472 39.473,-22.791 z M 373.961,395.21 l 22.788,-39.472 39.474,22.788 -22.79,39.475 z M 328.38,316.263 v -45.578 h 45.581 v 45.578 z m 107.843,186.789 v -45.579 h 45.579 v 45.579 z m -170.106,-294.63 22.79,-39.473 39.473,22.79 -22.789,39.473 z m -45.579,-78.946 v -45.58 h 45.579 v 45.58 z m 624.264,288.525 -39.473,-22.791 22.791,-39.472 39.472,22.788 z M 89.906,729.313 112.695,768.788 73.222,791.576 50.434,752.104 Z M 805.329,270.685 v 45.578 H 759.75 V 270.685 Z M 759.75,689.841 v -45.579 h 45.579 v 45.579 z m -493.633,-311.315 39.474,-22.788 22.789,39.472 -39.473,22.791 z m 62.263,560.367 -22.789,39.472 -39.474,-22.79 22.79,-39.473 z M 697.487,83.896 v 45.58 h -45.58 V 83.896 Z M 436.223,876.63 v -45.581 h 45.579 v 45.581 z m 499.738,-458.629 -22.79,-39.475 39.474,-22.788 22.789,39.472 z M 759.75,191.739 l -22.79,39.473 -39.473,-22.79 22.789,-39.473 z m -277.948,390.26 22.791,-39.474 39.472,22.79 -22.79,39.473 z m 363,-39.474 22.79,39.474 -39.472,22.789 -22.791,-39.473 z M 697.487,831.049 v 45.581 h -45.58 v -45.581 z m 147.315,-662.1 22.79,39.473 -39.472,22.79 -22.791,-39.473 z m 22.79,707.681 v -45.581 h 45.579 V 876.63 Z M 328.38,565.315 l -22.789,39.473 -39.474,-22.789 22.79,-39.474 z M 220.538,503.052 v -45.579 h 45.579 v 45.579 z m 692.633,249.052 39.474,-22.791 22.789,39.475 -39.473,22.788 z m -647.054,0 39.474,-22.791 22.789,39.475 -39.473,22.788 z m 539.212,16.684 22.791,-39.475 39.472,22.791 -22.79,39.472 z M 112.695,565.315 89.906,604.788 50.434,581.999 73.222,542.525 Z M 759.75,768.788 720.276,791.576 697.487,752.104 736.96,729.313 Z M 544.065,689.841 v -45.579 h 45.579 v 45.579 z m -323.527,-311.315 -22.79,39.475 -39.473,-22.791 22.791,-39.472 z m 369.106,390.262 22.79,-39.475 39.473,22.791 -22.789,39.472 z m 346.317,-599.839 39.473,22.79 -22.789,39.473 -39.474,-22.79 z m -22.79,786.626 22.79,-39.473 39.473,22.791 -22.789,39.472 z m -732.105,-724.363 -22.791,-39.473 39.473,-22.79 22.79,39.473 z m 516.421,724.363 22.789,-39.473 39.474,22.791 -22.79,39.472 z M 913.171,83.896 v 45.58 h -45.579 v -45.58 z m -754.896,481.419 39.473,-22.79 22.79,39.474 -39.472,22.789 z m 238.474,39.473 -22.788,-39.473 39.472,-22.79 22.79,39.474 z M 112.695,191.739 89.906,231.212 50.434,208.422 73.222,168.949 Z m 323.528,560.365 -22.79,39.472 -39.472,-22.788 22.788,-39.475 z m 85.052,-22.791 22.79,39.475 -39.472,22.788 -22.791,-39.472 z M 373.961,644.262 v 45.579 H 328.38 V 644.262 Z M 158.275,270.685 v 45.578 h -45.58 v -45.578 z m 539.212,311.314 39.473,22.789 -22.79,39.474 -39.473,-22.79 z m 215.684,0 39.474,22.789 -22.79,39.474 -39.472,-22.79 z m -45.579,0 22.791,39.473 -39.473,22.79 -22.79,-39.474 z M 328.38,21.633 351.17,61.107 311.698,83.896 288.907,44.423 Z m 277.948,481.419 22.79,39.473 -39.474,22.79 -22.788,-39.473 z m -170.105,-124.526 -39.474,-22.788 22.79,-39.475 39.473,22.791 z M 373.961,270.685 h 45.578 v 45.578 h -45.578 z m 107.841,186.788 h 45.579 v 45.579 H 481.802 Z M 328.38,191.739 l -39.473,-22.79 22.791,-39.473 39.472,22.789 z m 85.053,-22.79 -39.472,22.79 -22.791,-39.474 39.473,-22.789 z m 45.579,78.945 -39.473,22.791 -22.79,-39.473 39.474,-22.79 z m 85.053,147.316 22.791,39.473 -39.475,22.79 -22.788,-39.472 z m -22.79,-39.472 -39.473,22.788 -22.79,-39.472 39.474,-22.791 z M 266.117,83.896 h 45.581 v 45.58 h -45.581 z m 385.79,498.103 22.79,39.473 -39.472,22.79 -22.791,-39.474 z M 311.698,503.052 h -45.581 v -45.579 h 45.581 z m 408.578,39.473 22.79,-39.473 39.473,22.79 -22.789,39.473 z M 436.223,129.476 h -45.58 v -45.58 h 45.58 z m -45.58,-45.58 -39.473,-22.789 22.791,-39.474 39.472,22.79 z m 261.264,373.577 v 45.579 h -45.579 v -45.579 z m -85.051,-22.79 22.788,-39.473 39.474,22.791 -22.79,39.472 z m -22.791,-118.42 h -45.579 v -45.578 h 45.579 z m -85.053,-68.369 22.79,-39.472 39.473,22.79 -22.789,39.473 z M 158.275,21.633 197.748,44.423 174.957,83.896 135.485,61.107 Z m 539.212,481.419 v -45.579 h 45.579 v 45.579 z m 85.052,396.368 39.474,-22.79 22.789,39.472 -39.473,22.791 z m 0,0 -22.789,39.473 -39.474,-22.791 22.79,-39.472 z m -215.683,0 39.472,-22.79 22.79,39.472 -39.474,22.791 z M 929.855,689.841 v -45.579 h 45.579 v 45.579 z m -124.526,0 v -45.579 h 45.581 v 45.579 z m 16.684,-186.789 v -45.579 h 45.579 v 45.579 z m 136.739,0 h -45.581 v -45.579 h 45.581 z M 481.802,129.476 v -45.58 h 45.579 v 45.58 z m 22.791,39.473 22.788,-39.473 39.475,22.789 -22.791,39.474 z m 107.841,186.789 22.791,-39.475 39.472,22.791 -22.79,39.472 z m -22.79,-39.475 v -45.578 h 45.581 v 45.578 z M 390.643,876.63 v -45.581 h 45.58 V 876.63 Z M 714.17,689.841 v -45.579 h 45.58 v 45.579 z m -124.526,0 v -45.579 h 45.581 v 45.579 z M 481.802,831.049 h 45.579 v 45.581 h -45.579 z m 124.526,0 h 45.579 v 45.581 h -45.579 z m -448.053,-265.734 -22.79,-39.473 39.472,-22.79 22.791,39.473 z m 663.738,-107.842 -39.474,-22.79 22.79,-39.473 39.473,22.791 z m -78.947,0 -22.79,-39.472 39.474,-22.791 22.789,39.473 z m -647.054,0 -22.79,-39.472 39.473,-22.791 22.79,39.473 z m 408.581,-413.05 39.472,-22.79 22.791,39.474 -39.475,22.789 z m 192.894,334.103 -22.79,-39.472 39.473,-22.791 22.79,39.475 z m 147.315,163.999 -39.473,22.79 -22.79,-39.473 39.474,-22.79 z m -578.685,209.579 -22.788,-39.473 39.472,-22.79 22.79,39.472 z m -238.474,-413.05 39.473,-22.791 22.79,39.475 -39.472,22.788 z m 284.055,491.995 -22.791,-39.473 39.473,-22.788 22.79,39.473 z m 78.945,45.581 22.79,39.472 -39.472,22.791 -22.791,-39.473 z m 153.422,-311.315 -39.472,-22.79 22.788,-39.473 39.475,22.79 z m 238.474,242.946 -39.473,22.788 -22.79,-39.473 39.474,-22.788 z m 0,0 22.79,-39.473 39.473,22.788 -22.789,39.473 z M 135.485,61.107 96.012,83.896 73.222,44.423 112.695,21.633 Z m 794.37,255.156 22.79,39.475 -39.474,22.788 -22.788,-39.472 z m -362.999,-163.998 39.472,-22.789 22.79,39.473 -39.474,22.79 z m 68.369,118.42 -22.791,-39.473 39.473,-22.79 22.79,39.472 z m 62.262,560.364 h 45.579 v 45.581 h -45.579 z m -130.631,-22.788 22.788,-39.473 39.474,22.788 -22.79,39.473 z m 300.736,68.369 h -45.579 v -45.581 h 45.579 z m 91.16,-45.581 V 876.63 H 913.171 V 831.049 Z M 351.17,525.842 l -22.79,39.473 -39.473,-22.79 22.791,-39.473 z m -192.895,-334.103 -22.79,-39.474 39.472,-22.789 22.791,39.473 z m -45.58,373.576 -39.473,-22.79 22.79,-39.473 39.473,22.79 z M 50.434,457.473 h 45.578 v 45.579 H 50.434 Z m 170.104,294.631 -39.472,-22.791 22.788,-39.472 39.475,22.79 z M 158.275,644.262 h 45.579 v 45.579 h -45.579 z m -107.841,-435.84 39.472,22.79 -22.79,39.473 -39.473,-22.791 z m 232.367,481.419 v -45.579 h 45.579 v 45.579 z m -16.684,141.208 h 45.581 V 876.63 H 266.117 Z M 850.91,316.263 890.383,339.054 867.592,378.526 828.12,355.738 Z M 651.907,83.896 v 45.58 H 606.328 V 83.896 Z M 629.118,44.423 606.328,83.896 566.856,61.107 589.644,21.633 Z m 85.052,226.262 h 45.58 v 45.578 h -45.58 z m 22.79,-39.473 -22.79,39.473 -39.473,-22.791 22.79,-39.472 z M 112.695,316.263 H 67.116 v -45.578 h 45.579 z m 45.58,78.947 39.473,22.791 -22.791,39.472 -39.472,-22.79 z m 107.842,186.789 39.474,22.789 -22.79,39.474 -39.472,-22.79 z m -45.579,-78.947 h -45.581 v -45.579 h 45.581 z m 153.423,-107.842 39.472,22.791 -22.79,39.472 -39.473,-22.79 z M 328.38,316.263 h -45.579 v -45.578 h 45.579 z m 62.263,186.789 v -45.579 h 45.58 v 45.579 z m 91.159,78.947 39.473,22.789 -22.789,39.474 -39.474,-22.79 z m -215.685,-373.577 39.474,22.79 -22.79,39.473 -39.472,-22.791 z m 539.212,62.263 h 45.581 v 45.578 H 805.329 Z M 220.538,129.476 h -45.581 v -45.58 h 45.581 z m 669.845,583.155 39.472,-22.79 22.79,39.472 -39.474,22.791 z m 0,0 -22.791,39.473 -39.472,-22.791 22.79,-39.472 z m -391.897,-22.79 22.789,39.472 -39.473,22.791 -22.79,-39.473 z m 176.211,22.79 39.473,-22.79 22.79,39.472 -39.473,22.791 z m -300.736,56.157 39.472,22.788 -22.79,39.473 -39.473,-22.788 z M 929.855,270.685 h 45.579 v 45.578 H 929.855 Z M 743.066,83.896 v 45.58 h -45.579 v -45.58 z m 39.473,68.369 -22.789,39.474 -39.474,-22.79 22.79,-39.473 z M 498.486,689.841 v -45.579 h 45.579 v 45.579 z m 68.37,209.579 -22.791,39.473 -39.472,-22.791 22.788,-39.472 z m 107.841,-186.789 -22.79,39.473 -39.473,-22.791 22.791,-39.472 z M 67.116,644.262 27.643,621.472 50.434,581.999 89.906,604.788 Z m 0,0 h 45.579 v 45.579 H 67.116 Z m 352.423,0 -22.79,-39.474 39.474,-22.789 22.789,39.473 z m -244.582,186.787 -39.472,-22.788 22.79,-39.473 39.473,22.788 z m 738.214,-622.627 39.474,22.79 -22.79,39.473 -39.472,-22.791 z m -45.579,0 22.791,39.472 -39.473,22.791 -22.79,-39.473 z M 174.957,831.049 h 45.581 V 876.63 H 174.957 Z M 759.75,21.633 782.539,61.107 743.066,83.896 720.276,44.423 Z m -555.896,622.629 -22.788,-39.474 39.472,-22.789 22.791,39.473 z m 0,-373.577 -22.788,-39.473 39.472,-22.79 22.791,39.472 z m 618.159,-141.209 22.789,39.473 -39.473,22.79 -22.79,-39.474 z M 50.434,83.896 h 45.578 v 45.58 H 50.434 Z m 277.946,854.997 -39.473,-22.791 22.791,-39.472 39.472,22.79 z m -62.263,-560.367 -22.788,-39.472 39.472,-22.791 22.79,39.475 z m 85.053,147.316 39.473,-22.79 22.79,39.473 -39.472,22.79 z M 89.906,729.313 50.434,752.104 27.643,712.631 67.116,689.841 Z M 867.592,83.896 v 45.58 h -45.579 v -45.58 z m -22.79,-39.473 -22.789,39.473 -39.474,-22.789 22.79,-39.474 z m -732.107,147.316 -39.473,-22.79 22.79,-39.473 39.473,22.789 z m 323.528,560.365 -39.474,-22.791 22.79,-39.472 39.473,22.79 z M 96.012,876.63 H 50.434 v -45.581 h 45.578 z m 470.844,-68.369 -39.475,22.788 -22.788,-39.473 39.472,-22.788 z m -431.371,0 -39.473,22.788 -22.79,-39.473 39.473,-22.788 z M 373.961,644.262 h 45.578 v 45.579 H 373.961 Z M 913.171,83.896 h 45.581 v 45.58 h -45.581 z m -715.423,832.206 -39.473,22.791 -22.79,-39.473 39.472,-22.79 z M 158.275,270.685 h 45.579 v 45.578 h -45.579 z m 62.263,107.841 -39.472,-22.788 22.788,-39.475 39.475,22.791 z m -147.316,537.576 22.79,-39.472 39.473,22.79 -22.79,39.473 z M 328.38,395.21 l 22.79,39.473 -39.472,22.79 -22.791,-39.472 z m 0,-78.947 -22.789,39.475 -22.79,-39.475 z m 62.263,186.789 h 45.58 l -22.79,39.473 z m 45.58,78.947 h 45.579 l -22.79,39.473 z M 266.117,208.422 243.329,247.894 220.538,208.422 Z m -45.579,-78.946 -22.79,39.473 -22.791,-39.473 z m 669.845,583.155 22.788,39.473 h -45.579 z m -215.686,0 22.79,39.473 h -45.58 z m -85.053,-22.79 h 45.581 l -22.791,39.472 z m 124.526,0 h 45.58 l -22.79,39.472 z m 91.159,0 h 45.581 l -22.79,39.472 z m 124.526,0 h 45.579 l -22.789,39.472 z M 197.748,44.423 l 22.79,39.473 h -45.581 z m 323.527,560.365 22.79,39.474 H 498.486 Z M 305.591,231.212 328.38,270.685 h -45.579 z m 107.842,186.789 22.79,39.472 h -45.58 z m 85.053,271.84 h 45.579 l -22.79,39.472 z M 158.275,21.633 135.485,61.107 112.695,21.633 Z M 782.539,808.261 759.75,768.788 h 45.579 z m -170.105,-203.473 22.791,39.474 h -45.581 z m -300.736,-475.312 -22.791,39.473 -22.79,-39.473 z m 170.104,373.576 h 45.579 l -22.788,39.473 z m -62.263,-186.789 -22.79,39.475 -22.788,-39.475 z m -153.422,141.21 22.79,-39.472 22.791,39.472 z m 85.053,68.369 22.791,39.473 H 328.38 Z m -130.632,-147.316 22.791,-39.472 22.788,39.472 z m -62.263,-107.841 22.791,-39.473 22.788,39.473 z m -45.58,-78.946 22.79,-39.474 22.79,39.474 z m 601.475,452.523 22.79,-39.474 22.79,39.474 z m 91.159,0 22.791,-39.474 22.79,39.474 z M 50.434,83.896 73.222,44.423 96.012,83.896 Z m 879.421,560.366 22.79,-39.474 22.789,39.474 z M 266.117,83.896 l 22.79,-39.473 22.791,39.473 z m 62.263,107.843 22.79,-39.474 22.791,39.474 z m 215.685,373.576 22.791,-39.473 22.788,39.473 z m -62.263,-107.842 22.791,-39.472 22.788,39.472 z m -107.841,-186.788 22.788,-39.473 22.79,39.473 z m 62.262,107.841 22.789,-39.472 22.79,39.472 z m 522.529,452.523 h -45.581 l 22.79,-39.473 z m -136.739,0 22.789,-39.473 22.79,39.473 z m -124.526,0 22.789,-39.473 22.79,39.473 z m -91.159,0 22.79,-39.473 22.789,39.473 z M 288.907,542.525 266.117,503.052 h 45.581 z M 158.275,316.263 h 45.579 l -22.788,39.475 z m 539.212,265.736 -22.79,39.473 -22.79,-39.473 z M 396.749,729.313 373.961,689.841 h 45.578 z M 913.171,581.999 890.383,621.472 867.592,581.999 Z M 373.961,21.633 351.17,61.107 328.38,21.633 Z m 277.946,481.419 -22.789,39.473 -22.79,-39.473 z M 50.434,129.476 h 45.578 l -22.79,39.473 z m 431.368,701.573 22.791,-39.473 22.788,39.473 z M 805.329,565.315 H 759.75 l 22.789,-39.473 z m -630.372,-107.842 22.791,-39.472 22.79,39.472 z m 238.476,-288.524 -22.79,-39.473 h 45.58 z m 45.579,78.945 -22.789,-39.472 h 45.579 z m 85.053,147.316 h 45.579 l -22.788,39.473 z m -22.79,-39.472 -22.789,-39.475 h 45.579 z m -238.474,288.524 22.79,-39.474 22.789,39.474 z M 67.116,270.685 l 22.79,-39.473 22.789,39.473 z m 323.527,560.364 22.79,-39.473 22.79,39.473 z m 545.318,85.053 -22.79,-39.472 h 45.581 z m -68.369,-39.472 -22.79,39.472 -22.789,-39.472 z m -170.105,0 h 45.579 l -22.79,39.472 z m -91.159,0 h 45.579 l -22.789,39.472 z m -124.526,0 h 45.579 l -22.788,39.472 z M 720.276,542.525 697.487,503.052 h 45.579 z m 238.476,-39.473 -22.791,39.473 -22.79,-39.473 z M 390.643,83.896 l 22.79,-39.473 22.79,39.473 z m 261.264,373.577 h -45.579 l 22.79,-39.472 z m -153.421,-186.788 22.789,-39.473 22.79,39.473 z m -277.948,232.367 -22.79,39.473 -22.791,-39.473 z m 0,78.947 h 45.579 l -22.788,39.473 z m -62.263,-186.789 -22.79,39.473 -22.79,-39.473 z m -45.58,-78.947 -22.789,39.475 -22.79,-39.475 z m 170.106,373.578 h 45.579 l -22.789,39.472 z M 743.066,457.473 h -45.579 l 22.789,-39.472 z M 504.593,168.949 481.802,129.476 h 45.579 z m 107.841,186.789 -22.79,-39.475 h 45.581 z m -562,-147.316 -22.791,39.472 -22.79,-39.472 z m 732.105,690.998 22.79,39.473 H 759.75 Z m 85.053,-441.947 h -45.579 l 22.789,-39.472 z m 91.16,0 h -45.581 l 22.79,-39.472 z M 481.802,83.896 504.593,44.423 527.381,83.896 Z m 62.263,107.843 22.791,-39.474 22.788,39.474 z m 153.422,186.787 h -45.58 l 22.79,-39.472 z M 635.225,270.685 h -45.581 l 22.79,-39.473 z M 390.643,876.63 h 45.58 l -22.79,39.472 z m 45.58,78.945 h 45.579 l -22.79,39.474 z M 782.539,434.683 759.75,395.21 h 45.579 z m -669.844,130.632 22.79,-39.473 22.79,39.473 z M 566.856,61.107 544.065,21.633 h 45.579 z M 736.96,355.738 714.17,316.263 h 45.58 z m -686.526,101.735 22.788,-39.472 22.79,39.472 z m 794.368,85.052 -22.789,-39.473 h 45.579 z m -624.264,209.579 22.791,-39.473 22.788,39.473 z M 27.643,339.054 50.434,378.526 H 4.853 Z m 238.474,491.995 22.79,-39.473 22.791,39.473 z M 73.222,916.102 50.434,876.63 h 45.578 z m 817.161,-577.048 22.788,39.472 h -45.579 z m -238.476,-209.578 -22.789,39.473 -22.79,-39.473 z m 45.58,78.946 -22.79,39.472 -22.79,-39.472 z M 566.856,808.261 544.065,768.788 h 45.579 z M 50.434,503.052 h 45.578 l -22.79,39.473 z m 130.632,226.261 -22.791,-39.472 h 45.579 z m 107.841,186.789 -22.79,-39.472 h 45.581 z M 850.91,316.263 828.12,355.738 805.329,316.263 Z m 124.524,0 -22.789,39.475 -22.79,-39.475 z M 651.907,83.896 h -45.579 l 22.79,-39.473 z m 85.053,147.316 22.79,39.473 h -45.58 z m -362.999,413.05 22.788,-39.474 22.79,39.474 z m 369.105,-514.786 -22.79,39.473 -22.789,-39.473 z m 85.054,101.736 22.79,39.473 h -45.581 z m -391.897,520.892 22.789,-39.473 22.79,39.473 z M 67.116,644.262 l 22.79,-39.474 22.789,39.474 z m 107.841,186.787 22.791,-39.473 22.79,39.473 z M 328.38,768.788 h 45.581 l -22.791,39.473 z m 624.265,-537.576 22.789,39.473 H 929.855 Z M 743.066,83.896 h -45.579 l 22.789,-39.473 z m 62.263,107.843 H 759.75 l 22.789,-39.474 z M 566.856,899.42 589.644,938.893 H 544.065 Z M 27.643,621.472 4.853,581.999 h 45.581 z m 62.263,107.841 -22.79,-39.472 h 45.579 z m 45.579,78.948 -22.79,-39.473 h 45.58 z M 913.171,208.422 890.383,247.894 867.592,208.422 Z M 197.748,916.102 174.957,876.63 h 45.581 z M 805.329,21.633 782.539,61.107 759.75,21.633 Z M 220.538,955.575 h 45.579 l -22.788,39.474 z m 692.633,0 -22.788,39.474 -22.791,-39.474 z m -215.684,0 -22.79,39.474 -22.79,-39.474 z m 170.105,-826.099 -22.79,39.473 -22.789,-39.473 z m -709.317,514.786 22.791,-39.474 22.788,39.474 z m 170.105,294.631 22.79,-39.473 22.791,39.473 z M 913.171,129.476 h 45.581 l -22.791,39.473 z M 867.592,83.896 H 822.013 L 844.802,44.423 Z M 27.643,712.631 50.434,752.104 H 4.853 Z m 45.579,78.945 22.79,39.473 H 50.434 Z M 935.961,44.423 958.752,83.896 h -45.581 z m -800.476,854.997 22.79,39.473 h -45.58 z M 328.38,395.21 h 45.581 l -22.791,39.473 z"
     style="opacity:1;fill:none;stroke:#000000;stroke-width:16;stop-opacity:1;stroke-miterlimit:4;stroke-dasharray:none;stroke-linejoin:round"
     id="path75897" />
</svg>
