<?xml version="1.0" encoding="UTF-8" standalone="no"?>
<svg
   xmlns:dc="http://purl.org/dc/elements/1.1/"
   xmlns:cc="http://creativecommons.org/ns#"
   xmlns:rdf="http://www.w3.org/1999/02/22-rdf-syntax-ns#"
   xmlns:svg="http://www.w3.org/2000/svg"
   xmlns="http://www.w3.org/2000/svg"
   xmlns:sodipodi="http://sodipodi.sourceforge.net/DTD/sodipodi-0.dtd"
   xmlns:inkscape="http://www.inkscape.org/namespaces/inkscape"
   inkscape:version="1.0beta1 (32d4812, 2019-09-19)"
   sodipodi:docname="3-uniform_25.svg"
   id="c:\kuniform\3u\3-uniform_25.svg"
   height="980.762"
   width="1000.0"
   version="1.0">
  <metadata
     id="metadata105309">
    <rdf:RDF>
      <cc:Work
         rdf:about="">
        <dc:format>image/svg+xml</dc:format>
        <dc:type
           rdf:resource="http://purl.org/dc/dcmitype/StillImage" />
        <dc:title></dc:title>
      </cc:Work>
    </rdf:RDF>
  </metadata>
  <defs
     id="defs105307" />
  <sodipodi:namedview
     inkscape:current-layer="c:\kuniform\3u\3-uniform_25.svg"
     inkscape:window-maximized="1"
     inkscape:window-y="23"
     inkscape:window-x="0"
     inkscape:cy="508.56347"
     inkscape:cx="284.91874"
     inkscape:zoom="0.60494589"
     showgrid="false"
     id="namedview105305"
     inkscape:window-height="1005"
     inkscape:window-width="1680"
     inkscape:pageshadow="2"
     inkscape:pageopacity="0"
     guidetolerance="10"
     gridtolerance="10"
     objecttolerance="10"
     borderopacity="1"
     inkscape:document-rotation="0"
     bordercolor="#666666"
     pagecolor="#ffffff" />
  <!-- X Coordinate transform: fx(x)=(x+83.79846)*0.8700981-->
  <!-- Y Coordinate transform: fy(y)=(1045.2915-y)*0.8700981 -->
  <path
     d="m 935.621,878.802 37.676,21.752 M 42.627,242.57 4.95,220.818 M 42.627,199.066 4.95,220.818 m 118.858,701.489 v -43.505 m 671.203,81.181 37.676,-21.753 h 43.505 l 37.676,21.753 m -768.307,0 37.676,-21.753 h 43.505 l 37.676,21.753 m 671.203,-814.518 37.676,-21.752 21.752,-37.677 m -15.923,717.413 -21.753,37.676 -21.752,37.677 -37.677,21.752 -21.752,37.676 -21.753,37.677 m 0,-927.547 V 4.855 M 42.627,825.201 4.95,803.449 M 145.561,959.983 123.808,922.307 86.132,900.554 64.379,862.878 42.627,825.201 V 781.696 M 204.989,48.36 V 4.855 m -81.181,140.61 V 101.96 M 42.627,587.486 4.95,609.239 M 42.627,630.991 4.95,609.239 M 204.989,975.907 183.237,938.23 161.484,900.554 123.808,878.802 102.056,841.125 80.303,803.449 42.627,781.696 20.874,744.02 m 611.774,215.963 37.676,-21.753 h 43.505 l 37.677,21.753 m -443.583,0 37.676,-21.753 h 43.505 l 37.677,21.753 M 979.126,220.818 957.373,183.142 935.621,145.465 897.944,123.713 876.192,86.036 854.439,48.36 816.763,26.608 M 995.049,744.02 973.297,706.344 935.621,684.591 m 0,43.505 37.676,-21.752 21.752,-37.677 M 64.379,938.23 102.056,959.983 M 692.077,48.36 V 4.855 M 367.352,48.36 V 4.855 M 42.627,436.781 4.95,415.028 M 42.627,393.276 4.95,415.028 M 20.874,280.247 42.627,242.57 80.303,220.818 102.056,183.142 123.808,145.465 161.484,123.713 183.237,86.036 204.989,48.36 242.666,26.608 M 123.808,728.096 v -43.505 m 346.478,275.392 37.676,-21.753 h 43.505 l 37.676,21.753 m 184.115,-81.181 -37.676,21.752 -21.753,37.676 -21.752,37.677 m 81.181,-97.105 37.677,21.752 21.752,37.676 21.752,37.677 m -568.268,-97.105 37.676,21.752 21.752,37.676 21.753,37.677 m -81.181,-97.105 -37.677,21.752 -21.752,37.676 -21.753,37.677 M 42.627,48.36 4.95,26.608 M 20.874,86.036 42.627,48.36 80.303,26.608 m 855.318,313.068 37.676,-21.753 21.752,-37.676 m 0,75.352 -21.752,-37.676 -37.676,-21.752 m -81.182,529.03 V 781.696 M 529.714,48.36 V 4.855 M 123.808,339.676 v -43.505 m 81.181,529.03 v -43.505 m 405.907,97.106 -37.677,21.752 -21.752,37.676 -21.753,37.677 m 81.182,-97.105 37.676,21.752 21.752,37.676 21.753,37.677 m -243.544,-97.105 37.676,21.752 21.753,37.676 21.752,37.677 m -81.181,-97.105 -37.676,21.752 -21.753,37.676 -21.752,37.677 M 995.049,549.81 973.297,512.133 935.621,490.381 m 0,43.505 37.676,-21.753 21.752,-37.676 m -140.61,-231.887 37.677,-21.752 21.752,-37.676 21.753,-37.677 V 101.96 m -162.363,776.842 21.753,-37.677 21.752,-37.676 37.676,-21.753 21.753,-37.676 21.752,-37.676 37.677,-21.753 21.752,-37.676 21.753,-37.676 M 995.049,86.036 957.373,64.284 H 913.868 L 876.192,86.036 H 832.687 L 795.011,64.284 H 751.506 L 713.829,86.036 H 670.324 L 632.648,64.284 H 589.143 L 551.467,86.036 H 507.962 L 470.286,64.284 H 426.781 L 389.104,86.036 H 345.599 L 307.923,64.284 H 264.418 L 226.742,86.036 H 183.237 L 145.561,64.284 H 102.056 L 64.379,86.036 H 20.874 m 102.934,447.85 V 490.381 M 204.989,242.57 167.313,220.818 145.561,183.142 123.808,145.465 86.132,123.713 64.379,86.036 42.627,48.36 V 4.855 M 286.171,878.802 264.418,841.125 242.666,803.449 204.989,781.696 183.237,744.02 161.484,706.344 123.808,684.591 102.056,646.915 80.303,609.239 42.627,587.486 20.874,549.81 m 974.175,313.068 -37.676,-21.753 h -43.505 l -37.676,21.753 h -43.505 l -37.676,-21.753 h -43.505 l -37.677,21.753 h -43.505 l -37.676,-21.753 h -43.505 l -37.676,21.753 h -43.505 l -37.676,-21.753 h -43.505 l -37.677,21.753 h -43.505 l -37.676,-21.753 h -43.505 l -37.676,21.753 H 183.237 L 145.561,841.125 H 102.056 L 64.379,862.878 H 20.874 m 633.527,-836.27 37.676,21.752 21.752,37.676 21.753,37.677 37.676,21.752 21.753,37.677 21.752,37.676 37.676,21.752 21.753,37.677 21.752,37.676 37.677,21.753 21.752,37.676 21.753,37.676 m -205.868,507.279 37.677,-21.753 21.752,-37.676 21.752,-37.677 37.677,-21.752 21.752,-37.676 21.753,-37.677 V 684.591 L 913.868,646.915 892.116,609.239 854.439,587.486 M 448.533,145.465 V 101.96 m -427.659,372.497 21.753,-37.676 37.676,-21.753 21.753,-37.676 21.752,-37.676 37.676,-21.753 21.753,-37.676 21.752,-37.677 37.677,-21.752 21.752,-37.676 21.753,-37.677 37.676,-21.752 21.752,-37.677 21.753,-37.676 37.676,-21.752 M 204.989,587.486 167.313,609.239 145.561,646.915 123.808,684.591 86.132,706.344 64.379,744.02 42.627,781.696 4.95,803.449 M 204.989,630.991 167.313,609.239 145.561,571.562 123.808,533.886 86.132,512.133 64.379,474.457 42.627,436.781 v -43.505 l 21.752,-37.677 21.753,-37.676 37.676,-21.752 21.753,-37.677 21.752,-37.676 37.676,-21.752 m 487.088,626.135 v -43.505 m -324.725,43.505 v -43.505 m 487.087,-582.63 37.677,21.752 21.752,37.676 21.753,37.677 v 43.505 l -21.753,37.676 -21.752,37.676 -37.677,21.753 m 0,194.21 37.677,-21.752 21.752,-37.677 21.753,-37.676 v -43.505 l -21.753,-37.676 -21.752,-37.677 -37.677,-21.752 m -81.181,291.315 37.677,21.753 21.752,37.676 21.752,37.676 37.677,21.753 21.752,37.676 21.753,37.677 v 43.505 l -21.753,37.676 m 81.181,-798.594 -37.676,21.753 h -43.505 l -37.676,-21.753 h -43.505 l -37.676,21.753 h -43.505 l -37.677,-21.753 h -43.505 l -37.676,21.753 h -43.505 l -37.676,-21.753 h -43.505 l -37.676,21.753 h -43.505 l -37.677,-21.753 h -43.505 l -37.676,21.753 h -43.505 l -37.676,-21.753 h -43.505 l -37.676,21.753 H 102.056 L 64.379,161.389 H 20.874 m 184.115,275.392 v -43.505 m -140.61,544.954 21.753,-37.676 37.676,-21.752 21.753,-37.677 21.752,-37.676 37.676,-21.753 21.753,-37.676 21.752,-37.676 37.677,-21.753 m 243.543,140.61 v -43.505 m 243.544,-679.736 37.677,21.753 21.752,37.676 21.752,37.677 v 43.504 l -21.752,37.677 -21.752,37.676 -37.677,21.753 m -162.362,539.126 21.752,-37.677 21.753,-37.676 37.676,-21.753 21.752,-37.676 21.753,-37.676 37.676,-21.753 21.753,-37.676 21.752,-37.676 37.676,-21.753 21.753,-37.676 21.752,-37.677 37.677,-21.752 21.752,-37.676 21.753,-37.677 M 692.077,242.57 V 199.066 M 367.352,242.57 v -43.504 m -81.181,140.61 -37.677,-21.753 -21.752,-37.676 -21.753,-37.677 v -43.504 l 21.753,-37.677 21.752,-37.676 37.677,-21.753 m 0,194.211 -37.677,21.752 -21.752,37.676 -21.753,37.677 -37.676,21.752 -21.752,37.677 -21.753,37.676 -37.676,21.752 -21.753,37.677 -21.752,37.676 v 43.505 l 21.752,37.676 21.753,37.677 37.676,21.752 21.753,37.677 21.752,37.676 37.676,21.752 21.753,37.677 21.752,37.676 37.677,21.753 M 448.533,878.802 426.781,841.125 405.028,803.449 367.352,781.696 345.599,744.02 323.847,706.344 286.171,684.591 264.418,646.915 242.666,609.239 204.989,587.486 183.237,549.81 161.484,512.133 123.808,490.381 102.056,452.705 80.303,415.028 42.627,393.276 20.874,355.599 M 995.049,744.02 957.373,765.773 H 913.868 L 876.192,744.02 h -43.505 l -37.676,21.753 H 751.506 L 713.829,744.02 h -43.505 l -37.676,21.753 H 589.143 L 551.467,744.02 h -43.505 l -37.676,21.753 H 426.781 L 389.104,744.02 h -43.505 l -37.676,21.753 H 264.418 L 226.742,744.02 h -43.505 l -37.676,21.753 H 102.056 L 64.379,744.02 H 20.874 m 752.384,-15.924 37.677,-21.752 21.752,-37.677 21.752,-37.676 V 587.486 L 832.687,549.81 810.935,512.133 773.258,490.381 m 0,43.505 37.677,-21.753 21.752,-37.676 21.752,-37.676 V 393.276 L 832.687,355.599 810.935,317.923 773.258,296.171 M 979.126,609.239 957.373,571.562 935.621,533.886 897.944,512.133 876.192,474.457 854.439,436.781 816.763,415.028 795.011,377.352 773.258,339.676 735.582,317.923 713.829,280.247 692.077,242.57 654.401,220.818 632.648,183.142 610.896,145.465 573.219,123.713 551.467,86.036 529.714,48.36 492.038,26.608 m 37.676,215.962 v -43.504 m -243.543,291.315 -37.677,21.752 -21.752,37.677 -21.753,37.676 v 43.505 l 21.753,37.676 21.752,37.677 37.677,21.752 m -265.297,-59.429 21.753,-37.676 37.676,-21.752 21.753,-37.677 21.752,-37.676 37.676,-21.753 21.753,-37.676 21.752,-37.676 37.677,-21.753 21.752,-37.676 21.753,-37.676 37.676,-21.753 21.752,-37.676 21.753,-37.677 37.676,-21.752 21.753,-37.676 21.752,-37.677 37.676,-21.752 21.753,-37.677 21.752,-37.676 37.677,-21.752 m 43.505,701.488 v -43.505 m -162.363,43.505 v -43.505 m 243.544,-97.105 37.676,21.753 21.753,37.676 21.752,37.676 v 43.505 l -21.752,37.677 -21.753,37.676 -37.676,21.752 -21.753,37.677 -21.752,37.676 -37.676,21.753 m 384.153,-642.06 -37.676,-21.753 h -43.505 l -37.676,21.753 h -43.505 l -37.676,-21.753 h -43.505 l -37.677,21.753 h -43.505 l -37.676,-21.753 h -43.505 l -37.676,21.753 h -43.505 l -37.676,-21.753 h -43.505 l -37.677,21.753 h -43.505 l -37.676,-21.753 h -43.505 l -37.676,21.753 H 183.237 L 145.561,258.494 H 102.056 L 64.379,280.247 H 20.874 m 427.659,642.06 -37.676,-21.753 -21.753,-37.676 -21.752,-37.677 -37.676,-21.752 -21.753,-37.676 -21.752,-37.677 v -43.505 l 21.752,-37.676 21.753,-37.676 37.676,-21.753 m 627.697,81.181 -37.676,-21.752 h -43.505 l -37.676,21.752 h -43.505 l -37.676,-21.752 h -43.505 l -37.677,21.752 h -43.505 l -37.676,-21.752 h -43.505 l -37.676,21.752 h -43.505 l -37.676,-21.752 h -43.505 l -37.677,21.752 h -43.505 l -37.676,-21.752 h -43.505 l -37.676,21.752 H 183.237 L 145.561,646.915 H 102.056 L 64.379,668.667 H 20.874 m 671.203,-231.886 37.676,-21.753 21.753,-37.676 21.752,-37.676 V 296.171 L 751.506,258.494 729.753,220.818 692.077,199.066 670.324,161.389 648.572,123.713 610.896,101.96 m 81.181,291.316 37.676,21.752 21.753,37.677 21.752,37.676 v 43.505 l -21.752,37.676 -21.753,37.677 -37.676,21.752 M 470.286,959.983 448.533,922.307 v -43.505 l 21.753,-37.677 21.752,-37.676 37.676,-21.753 21.753,-37.676 21.752,-37.676 37.677,-21.753 21.752,-37.676 21.753,-37.676 37.676,-21.753 21.752,-37.676 21.753,-37.677 37.676,-21.752 21.753,-37.676 21.752,-37.677 37.676,-21.752 21.753,-37.677 21.752,-37.676 37.677,-21.752 21.752,-37.677 21.753,-37.676 M 610.896,339.676 V 296.171 M 448.533,339.676 V 296.171 M 610.896,145.465 V 101.96 L 589.143,64.284 567.391,26.608 529.714,4.855 l -37.676,21.753 -21.752,37.676 -21.753,37.676 -37.676,21.753 -21.753,37.676 -21.752,37.677 -37.676,21.752 -21.753,37.676 -21.752,37.677 v 43.505 l 21.752,37.676 21.753,37.676 37.676,21.753 m -81.181,97.105 v -43.505 l 21.752,-37.676 21.753,-37.677 37.676,-21.752 m 221.791,566.707 21.753,-37.676 V 878.802 L 589.143,841.125 567.391,803.449 529.714,781.696 507.962,744.02 486.209,706.344 448.533,684.591 426.781,646.915 405.028,609.239 367.352,587.486 345.599,549.81 323.847,512.133 286.171,490.381 264.418,452.705 242.666,415.028 204.989,393.276 183.237,355.599 161.484,317.923 123.808,296.171 102.056,258.494 80.303,220.818 42.627,199.066 20.874,161.389 M 979.126,803.449 957.373,765.773 935.621,728.096 897.944,706.344 876.192,668.667 854.439,630.991 816.763,609.239 795.011,571.562 773.258,533.886 735.582,512.133 713.829,474.457 692.077,436.781 654.401,415.028 632.648,377.352 610.896,339.676 573.219,317.923 551.467,280.247 529.714,242.57 492.038,220.818 470.286,183.142 448.533,145.465 410.857,123.713 389.104,86.036 367.352,48.36 329.676,26.608 m 665.373,328.991 -37.676,21.753 h -43.505 l -37.676,-21.753 h -43.505 l -37.676,21.753 h -43.505 l -37.677,-21.753 h -43.505 l -37.676,21.753 h -43.505 l -37.676,-21.753 h -43.505 l -37.676,21.753 h -43.505 l -37.677,-21.753 h -43.505 l -37.676,21.753 h -43.505 l -37.676,-21.753 h -43.505 l -37.676,21.753 H 102.056 L 64.379,355.599 H 20.874 m 0,507.279 21.753,-37.677 37.676,-21.752 21.753,-37.676 21.752,-37.677 37.676,-21.752 21.753,-37.677 21.752,-37.676 37.677,-21.752 21.752,-37.677 21.753,-37.676 37.676,-21.753 21.752,-37.676 21.753,-37.676 37.676,-21.753 21.753,-37.676 21.752,-37.676 37.676,-21.753 21.753,-37.676 21.752,-37.677 37.677,-21.752 21.752,-37.676 21.753,-37.677 37.676,-21.752 21.752,-37.677 21.753,-37.676 37.676,-21.752 M 529.714,630.991 v -43.505 m 81.182,-97.105 37.676,21.752 21.752,37.677 21.753,37.676 v 43.505 l -21.753,37.676 -21.752,37.677 -37.676,21.752 -21.753,37.677 -21.752,37.676 -37.677,21.752 -21.752,37.677 -21.753,37.676 -37.676,21.753 -21.752,37.676 m 184.115,-426.097 37.676,-21.753 21.752,-37.676 21.753,-37.676 V 393.276 L 670.324,355.599 648.572,317.923 610.896,296.171 589.143,258.494 567.391,220.818 529.714,199.066 507.962,161.389 486.209,123.713 448.533,101.96 426.781,64.284 405.028,26.608 367.352,4.855 329.676,26.608 307.923,64.284 286.171,101.96 v 43.505 m 81.181,485.526 v -43.505 l 21.752,-37.676 21.753,-37.677 37.676,-21.752 M 773.258,145.465 V 101.96 L 751.506,64.284 729.753,26.608 692.077,4.855 l -37.676,21.753 -21.753,37.676 -21.752,37.676 -37.677,21.753 -21.752,37.676 -21.753,37.677 -37.676,21.752 -21.752,37.676 -21.753,37.677 -37.676,21.752 -21.753,37.676 -21.752,37.677 v 43.505 l 21.752,37.676 21.753,37.676 37.676,21.753 m 546.516,15.924 -37.676,21.752 H 913.868 L 876.192,549.81 h -43.505 l -37.676,21.752 H 751.506 L 713.829,549.81 h -43.505 l -37.676,21.752 H 589.143 L 551.467,549.81 h -43.505 l -37.676,21.752 H 426.781 L 389.104,549.81 h -43.505 l -37.676,21.752 H 264.418 L 226.742,549.81 h -43.505 l -37.676,21.752 H 102.056 L 64.379,549.81 H 20.874 m 508.84,-156.534 37.677,21.752 21.752,37.677 21.753,37.676 v 43.505 l -21.753,37.676 -21.752,37.677 -37.677,21.752 -21.752,37.676 -21.753,37.677 -37.676,21.752 -21.752,37.677 -21.753,37.676 -37.676,21.752 -21.753,37.677 -21.752,37.676 -37.676,21.753 -21.753,37.676 m 43.505,0 -21.752,-37.676 v -43.505 l 21.752,-37.677 21.753,-37.676 37.676,-21.753 21.752,-37.676 21.753,-37.676 37.676,-21.753 21.753,-37.676 21.752,-37.676 37.676,-21.753 21.753,-37.676 21.752,-37.677 37.677,-21.752 21.752,-37.676 21.753,-37.677 37.676,-21.752 21.752,-37.677 21.753,-37.676 37.676,-21.752 21.753,-37.677 21.752,-37.676 37.676,-21.752 21.753,-37.677 21.752,-37.676 37.677,-21.753 21.752,-37.676 M 529.714,436.781 V 393.276 L 507.962,355.599 486.209,317.923 448.533,296.171 426.781,258.494 405.028,220.818 367.352,199.066 345.599,161.389 323.847,123.713 286.171,101.96 264.418,64.284 242.666,26.608 204.989,4.855 167.313,26.608 145.561,64.284 123.808,101.96 86.132,123.713 64.379,161.389 42.627,199.066 v 43.504 l 21.752,37.677 21.753,37.676 37.676,21.753 21.753,37.676 21.752,37.676 37.676,21.753 21.753,37.676 21.752,37.676 37.677,21.753 21.752,37.676 21.753,37.677 37.676,21.752 21.752,37.676 21.753,37.677 37.676,21.752 21.753,37.677 21.752,37.676 37.676,21.752 21.753,37.677 21.752,37.676 37.677,21.753 21.752,37.676 M 995.049,161.389 973.297,123.713 935.621,101.96 913.868,64.284 892.116,26.608 854.439,4.855 l -37.676,21.753 -21.752,37.676 -21.753,37.676 -37.676,21.753 -21.753,37.676 -21.752,37.677 -37.676,21.752 -21.753,37.676 -21.752,37.677 -37.677,21.752 -21.752,37.676 -21.753,37.677 -37.676,21.752 -21.752,37.677 -21.753,37.676 v 43.505 l 21.753,37.676 21.752,37.677 37.676,21.752 21.753,37.676 21.752,37.677 37.677,21.752 21.752,37.677 21.753,37.676 37.676,21.752 21.752,37.677 21.753,37.676 37.676,21.753 21.753,37.676 m -43.505,0 21.752,-37.676 V 878.802 L 751.506,841.125 729.753,803.449 692.077,781.696 670.324,744.02 648.572,706.344 610.896,684.591 589.143,646.915 567.391,609.239 529.714,587.486 507.962,549.81 486.209,512.133 448.533,490.381 426.781,452.705 405.028,415.028 367.352,393.276 345.599,355.599 323.847,317.923 286.171,296.171 264.418,258.494 242.666,220.818 204.989,199.066 183.237,161.389 161.484,123.713 123.808,101.96 102.056,64.284 80.303,26.608 42.627,4.855 4.95,26.608 m 162.363,0 37.676,21.752 21.753,37.676 21.752,37.677 37.677,21.752 21.752,37.677 21.753,37.676 37.676,21.752 21.752,37.677 21.753,37.676 37.676,21.753 21.753,37.676 21.752,37.676 37.676,21.753 21.753,37.676 21.752,37.676 37.677,21.753 21.752,37.676 21.753,37.677 37.676,21.752 21.752,37.676 21.753,37.677 37.676,21.752 21.753,37.677 21.752,37.676 37.676,21.752 21.753,37.677 21.752,37.676 37.677,21.753 37.676,-21.753 21.752,-37.676 M 892.116,26.608 854.439,48.36 l -21.752,37.676 -21.752,37.677 -37.677,21.752 -21.752,37.677 -21.753,37.676 -37.676,21.752 -21.753,37.677 -21.752,37.676 -37.676,21.753 -21.753,37.676 -21.752,37.676 -37.677,21.753 -21.752,37.676 -21.753,37.676 -37.676,21.753 -21.752,37.676 -21.753,37.677 -37.676,21.752 -21.753,37.676 -21.752,37.677 -37.676,21.752 -21.753,37.677 -21.752,37.676 -37.677,21.752 -21.752,37.677 -21.753,37.676 -37.676,21.753 -21.752,37.676 M 995.049,474.457 957.373,452.705 h -43.505 l -37.676,21.752 h -43.505 l -37.676,-21.752 h -43.505 l -37.677,21.752 h -43.505 l -37.676,-21.752 h -43.505 l -37.676,21.752 h -43.505 l -37.676,-21.752 h -43.505 l -37.677,21.752 h -43.505 l -37.676,-21.752 h -43.505 l -37.676,21.752 H 183.237 L 145.561,452.705 H 102.056 L 64.379,474.457 H 20.874 m 952.423,-350.744 21.752,37.676 -37.676,21.753 -21.752,-37.677 z m 0,0 -37.676,-21.753 21.752,-37.676 37.676,21.752 z m -37.676,798.594 -21.753,37.676 -37.676,-21.753 21.752,-37.676 z m -871.242,-59.429 37.677,-21.753 21.752,37.677 -37.676,21.752 z m -21.752,-37.677 37.676,-21.752 21.753,37.676 -37.677,21.753 z M 892.116,26.608 913.868,64.284 876.192,86.036 854.439,48.36 Z m -849.489,172.458 21.752,-37.677 37.677,21.753 -21.753,37.676 z m 21.752,-37.677 21.753,-37.676 37.676,21.752 -21.752,37.677 z m 0,-75.353 37.677,-21.752 21.752,37.676 -37.676,21.753 z M 167.313,26.608 204.989,48.36 183.237,86.036 145.561,64.284 Z M 42.627,781.696 64.379,744.02 l 37.677,21.753 -21.753,37.676 z m 81.181,140.611 37.676,-21.753 21.753,37.676 -37.676,21.753 z m 708.879,15.923 -37.676,21.753 -21.753,-37.676 37.677,-21.753 z m -605.945,0 21.752,-37.676 37.677,21.753 -21.753,37.676 z M 913.868,64.284 935.621,101.96 897.944,123.713 876.192,86.036 Z m 59.429,642.06 -37.676,-21.753 21.752,-37.676 37.676,21.752 z m 0,0 21.752,37.676 -37.676,21.753 -21.752,-37.677 z m -37.676,172.458 -37.677,21.752 -21.752,-37.676 37.676,-21.753 z M 42.627,48.36 80.303,26.608 102.056,64.284 64.379,86.036 Z m 930.67,852.194 -37.676,-21.752 21.752,-37.677 37.676,21.753 z m -887.165,0 37.676,21.753 -21.752,37.676 L 64.379,938.23 Z M 816.763,26.608 854.439,48.36 832.687,86.036 795.011,64.284 Z m -574.097,0 21.752,37.676 L 226.742,86.036 204.989,48.36 Z M 42.627,242.57 80.303,220.818 102.056,258.494 64.379,280.247 Z M 145.561,64.284 183.237,86.036 161.484,123.713 123.808,101.96 Z m -102.934,566.707 37.676,-21.752 21.753,37.676 -37.677,21.752 z m 21.752,37.676 37.677,-21.752 21.752,37.676 -37.676,21.753 z m 0,75.353 21.753,-37.676 37.676,21.752 -21.752,37.677 z m 59.429,134.782 21.753,-37.677 37.676,21.753 -21.753,37.676 z m 590.021,59.428 21.753,-37.676 37.676,21.753 -21.752,37.676 z m -43.505,0 -37.676,21.753 -21.752,-37.676 37.676,-21.753 z m -324.725,0 -37.676,21.753 -21.752,-37.676 37.676,-21.753 z m 43.505,0 21.753,-37.676 37.676,21.753 -21.752,37.676 z m 584.193,-620.307 21.752,37.676 -37.676,21.753 -21.752,-37.676 z m 0,0 -37.676,-21.752 21.752,-37.677 37.676,21.753 z m -37.676,-172.458 -21.753,37.677 -37.676,-21.753 21.752,-37.676 z m 0,582.631 -21.753,37.677 -37.676,-21.753 21.752,-37.676 z m -21.753,37.677 -21.752,37.676 -37.677,-21.753 21.753,-37.676 z m 0,75.352 -37.676,21.753 -21.753,-37.677 37.677,-21.752 z m -102.933,59.429 -37.677,-21.752 21.753,-37.677 37.676,21.753 z M 729.753,26.608 751.506,64.284 713.829,86.036 692.077,48.36 Z m -75.352,0 37.676,21.752 -21.753,37.676 -37.676,-21.752 z m 140.61,37.676 37.676,21.752 -21.752,37.677 -37.677,-21.753 z M 329.676,26.608 367.352,48.36 345.599,86.036 307.923,64.284 Z m 75.352,0 21.753,37.676 -37.677,21.752 -21.752,-37.676 z m -140.61,37.676 21.753,37.676 -37.677,21.753 -21.752,-37.677 z m -221.791,328.992 21.752,-37.677 37.677,21.753 -21.753,37.676 z m 21.752,-37.677 21.753,-37.676 37.676,21.753 -21.752,37.676 z m 0,-75.352 37.677,-21.753 21.752,37.677 -37.676,21.752 z m 59.429,-134.782 37.676,-21.752 21.753,37.676 -37.676,21.753 z m -81.181,442.021 21.752,-37.676 37.677,21.752 -21.753,37.677 z m 81.181,140.61 37.676,-21.752 21.753,37.676 -37.676,21.753 z m 21.753,37.677 37.676,-21.753 21.752,37.676 -37.676,21.753 z m 0,75.352 21.752,-37.676 37.676,21.752 -21.752,37.677 z m 102.933,59.429 -21.752,-37.676 37.676,-21.753 21.753,37.677 z m 302.973,37.676 21.752,-37.676 37.677,21.753 -21.753,37.676 z m -43.505,0 -37.676,21.753 -21.753,-37.676 37.676,-21.753 z m 227.62,-37.676 -21.753,-37.676 37.677,-21.753 21.752,37.677 z m -411.735,0 -37.676,-21.752 21.752,-37.677 37.676,21.753 z m 649.45,-388.421 -37.676,-21.752 21.752,-37.676 37.676,21.752 z m 0,0 21.752,37.677 -37.676,21.752 -21.752,-37.676 z m -37.676,-215.962 -37.677,21.752 -21.752,-37.676 37.676,-21.753 z m -21.753,-37.677 -37.676,21.753 -21.753,-37.677 37.677,-21.752 z m 0,-75.352 -21.752,37.676 -37.677,-21.752 21.753,-37.677 z m 21.753,501.449 -37.677,21.753 -21.752,-37.677 37.676,-21.752 z m -102.934,178.287 -37.676,-21.753 21.752,-37.676 37.676,21.752 z M 567.391,26.608 589.143,64.284 551.467,86.036 529.714,48.36 Z m -75.353,0 37.676,21.752 -21.752,37.676 -37.676,-21.752 z m 259.468,37.676 21.752,37.676 -37.676,21.753 -21.753,-37.677 z m -118.858,0 37.676,21.752 -21.752,37.677 -37.676,-21.753 z m 178.287,59.429 21.752,37.676 -37.676,21.753 -21.753,-37.677 z M 307.923,64.284 345.599,86.036 323.847,123.713 286.171,101.96 Z m 118.858,0 21.752,37.676 -37.676,21.753 -21.753,-37.677 z m -384.154,372.497 37.676,-21.753 21.753,37.677 -37.677,21.752 z m 21.752,37.676 37.677,-21.752 21.752,37.676 -37.676,21.752 z m 0,75.353 21.753,-37.677 37.676,21.753 -21.752,37.676 z m 59.429,-253.639 21.753,-37.677 37.676,21.753 -21.753,37.676 z m 21.753,-37.677 21.752,-37.676 37.676,21.752 -21.752,37.677 z m 0,-75.352 37.676,-21.753 21.752,37.677 -37.676,21.752 z m 102.933,-59.429 37.677,21.752 -21.753,37.677 -37.676,-21.753 z m -124.686,560.878 21.753,-37.676 37.676,21.752 -21.753,37.677 z m 102.934,178.287 -21.753,-37.677 37.677,-21.752 21.752,37.676 z m 421.83,37.676 -37.676,-21.752 21.752,-37.677 37.676,21.753 z m -75.353,0 -21.752,-37.676 37.676,-21.753 21.753,37.677 z m 140.61,-37.676 -21.752,-37.677 37.676,-21.752 21.753,37.676 z m -302.972,37.676 -21.753,-37.676 37.677,-21.753 21.752,37.677 z m 75.352,0 -37.676,-21.752 21.753,-37.677 37.676,21.753 z m -140.61,-37.676 -37.676,-21.753 21.753,-37.676 37.676,21.752 z m 590.022,-523.202 -21.753,37.676 -37.676,-21.753 21.752,-37.676 z m -102.934,-178.287 21.752,37.677 -37.676,21.752 -21.752,-37.676 z m 102.934,372.497 -21.753,37.676 -37.676,-21.752 21.752,-37.677 z m -21.753,37.676 -21.752,37.677 -37.677,-21.753 21.753,-37.676 z m 0,75.353 -37.676,21.752 -21.753,-37.676 37.677,-21.752 z m -59.429,134.781 -37.676,21.753 -21.752,-37.676 37.676,-21.753 z M 589.143,64.284 610.896,101.96 573.219,123.713 551.467,86.036 Z m -118.857,0 37.676,21.752 -21.753,37.677 -37.676,-21.753 z m 265.296,59.429 37.676,21.752 -21.752,37.677 -37.677,-21.753 z m -411.735,0 21.752,37.676 -37.676,21.753 -21.752,-37.677 z m -200.039,215.963 37.676,-21.753 21.753,37.676 -37.676,21.753 z m 102.934,-178.287 37.676,21.753 -21.752,37.676 -37.677,-21.752 z m -102.934,372.497 37.676,-21.753 21.753,37.677 -37.676,21.752 z m 21.753,37.676 37.676,-21.752 21.752,37.676 -37.676,21.753 z m 0,75.353 21.752,-37.676 37.676,21.752 -21.752,37.676 z m 59.428,134.781 21.753,-37.676 37.676,21.753 -21.752,37.676 z m 465.335,81.182 -37.676,-21.753 21.753,-37.676 37.676,21.752 z m -118.857,0 -21.753,-37.677 37.677,-21.752 21.752,37.676 z m -162.363,0 -21.752,-37.677 37.676,-21.752 21.753,37.676 z m 118.858,0 -37.676,-21.753 21.752,-37.676 37.676,21.752 z m 427.659,-372.497 -37.677,21.752 -21.752,-37.676 37.676,-21.752 z m -21.753,-37.676 -37.676,21.752 -21.753,-37.676 37.677,-21.753 z m 0,-75.353 -21.752,37.676 -37.677,-21.752 21.753,-37.677 z m -59.429,-134.782 -21.752,37.677 -37.676,-21.753 21.752,-37.676 z m -37.676,366.669 37.676,21.752 -21.752,37.676 -37.676,-21.752 z m -43.505,75.352 21.753,-37.676 37.676,21.752 -21.752,37.677 z m 0,43.505 37.677,-21.752 21.752,37.676 -37.676,21.753 z m -59.429,15.924 37.677,21.753 -21.753,37.676 -37.676,-21.753 z m -81.181,-560.878 -21.752,-37.677 37.676,-21.752 21.752,37.676 z m -43.505,0 -37.676,-21.753 21.752,-37.676 37.677,21.752 z m 140.61,37.676 -37.676,-21.752 21.752,-37.677 37.677,21.753 z m -302.972,-37.676 -37.677,-21.753 21.753,-37.676 37.676,21.752 z m 43.505,0 -21.753,-37.677 37.676,-21.752 21.753,37.676 z m -140.61,37.676 -21.753,-37.676 37.676,-21.753 21.753,37.677 z m -146.439,253.639 -21.753,37.676 -37.676,-21.752 21.753,-37.676 z m 21.752,-37.676 -21.752,37.676 -37.676,-21.752 21.752,-37.677 z m 0,-43.505 -37.676,21.752 -21.752,-37.676 37.676,-21.753 z m 59.429,-134.782 -37.676,21.753 -21.753,-37.677 37.677,-21.752 z m 0,388.421 -37.676,21.752 -21.753,-37.676 37.677,-21.752 z m 21.753,37.676 -37.677,21.753 -21.752,-37.677 37.676,-21.752 z m 0,43.505 -21.753,37.677 -37.676,-21.753 21.752,-37.676 z m 59.428,15.924 21.753,37.676 -37.676,21.753 -21.753,-37.676 z m 287.049,21.753 37.676,-21.753 21.753,37.676 -37.676,21.753 z m -205.867,0 -21.753,37.676 -37.676,-21.753 21.752,-37.676 z m 389.982,-350.745 -21.752,-37.676 37.676,-21.753 21.752,37.677 z m 15.924,-59.429 -37.676,21.753 -21.753,-37.676 37.677,-21.753 z m 0,-75.352 -21.752,37.676 -37.677,-21.752 21.753,-37.677 z m -15.924,328.992 -21.752,-37.677 37.676,-21.752 21.752,37.676 z m -102.934,134.781 21.753,-37.676 37.676,21.752 -21.752,37.677 z m -21.752,-544.954 -37.676,21.752 -21.753,-37.676 37.676,-21.753 z m -102.934,-15.924 -21.752,37.676 -37.677,-21.752 21.753,-37.677 z m 162.363,75.352 -37.677,21.753 -21.752,-37.677 37.676,-21.752 z m -384.154,-59.428 21.752,-37.677 37.677,21.753 -21.753,37.676 z m 102.934,-15.924 37.676,-21.753 21.752,37.677 -37.676,21.752 z m -243.544,172.457 37.676,21.753 -21.752,37.676 -37.677,-21.752 z m 21.752,-37.676 37.677,21.753 -21.753,37.676 -37.676,-21.753 z m 15.924,-59.429 21.753,37.677 -37.677,21.752 -21.752,-37.676 z m 43.505,0 21.753,-37.676 37.676,21.752 -21.753,37.677 z m -65.257,350.745 -37.677,-21.753 21.753,-37.676 37.676,21.752 z m 102.933,134.781 -37.676,21.753 -21.752,-37.677 37.676,-21.752 z m 184.115,37.676 21.753,-37.676 37.676,21.753 -21.752,37.676 z m 0,0 -37.676,21.753 -21.752,-37.676 37.676,-21.753 z m 102.934,-15.923 -21.752,-37.677 37.676,-21.752 21.752,37.676 z m -205.867,0 -37.677,-21.753 21.753,-37.676 37.676,21.752 z m 405.906,-291.316 -37.676,-21.752 21.752,-37.677 37.676,21.753 z m 0,0 -21.752,37.676 -37.677,-21.752 21.753,-37.676 z m -21.752,37.676 21.752,37.677 -37.676,21.752 -21.753,-37.676 z m -59.429,-253.639 21.752,37.677 -37.676,21.752 -21.753,-37.676 z m 21.752,426.097 -37.676,21.753 -21.753,-37.677 37.677,-21.752 z m -102.934,-404.344 -37.676,-21.753 21.753,-37.676 37.676,21.752 z m -281.22,0 -21.752,-37.677 37.676,-21.752 21.753,37.676 z m -184.115,156.534 37.677,-21.753 21.752,37.677 -37.676,21.752 z m 81.182,53.6 -37.677,21.752 -21.752,-37.676 37.676,-21.752 z m -59.429,59.429 21.752,-37.677 37.677,21.753 -21.753,37.676 z m 81.181,-291.316 37.676,21.753 -21.752,37.676 -37.676,-21.752 z m -21.752,426.097 21.752,-37.676 37.676,21.752 -21.752,37.677 z m 302.972,81.182 -37.676,-21.753 21.752,-37.676 37.677,21.752 z m -118.857,0 -21.753,-37.677 37.676,-21.752 21.753,37.676 z m 243.543,-410.174 21.753,-37.676 37.676,21.753 -21.752,37.676 z m 0,194.211 21.753,-37.677 37.676,21.753 -21.752,37.676 z m -21.752,37.676 21.752,-37.676 37.677,21.752 -21.753,37.677 z m 0,43.505 37.676,-21.752 21.753,37.676 -37.677,21.752 z m -59.429,15.924 37.676,21.752 -21.752,37.677 -37.676,-21.753 z m -81.181,-366.668 -21.753,-37.677 37.677,-21.752 21.752,37.676 z m -43.505,0 -37.676,-21.753 21.752,-37.676 37.676,21.752 z m 140.61,37.676 -37.676,-21.752 21.752,-37.677 37.676,21.753 z m -237.715,0 -21.753,-37.676 37.677,-21.753 21.752,37.677 z m -65.258,37.676 -37.676,21.753 -21.752,-37.676 37.676,-21.753 z m 0,194.211 -37.676,21.752 -21.752,-37.676 37.676,-21.753 z m 21.753,37.676 -37.676,21.753 -21.753,-37.677 37.676,-21.752 z m 0,43.505 -21.753,37.676 -37.676,-21.752 21.753,-37.676 z m 59.429,15.924 21.752,37.676 -37.676,21.753 -21.753,-37.677 z m 162.362,0 21.753,37.676 -37.677,21.753 -21.752,-37.677 z m -118.857,0 37.676,21.752 -21.753,37.677 -37.676,-21.753 z m 243.543,-172.458 37.677,-21.752 21.752,37.676 -37.676,21.752 z m -21.752,-37.676 37.676,-21.753 21.753,37.677 -37.677,21.752 z m 0,-43.505 21.752,-37.677 37.677,21.753 -21.753,37.676 z m -37.676,215.963 37.676,21.752 -21.753,37.676 -37.676,-21.752 z m -81.182,-291.316 -21.752,-37.676 37.676,-21.753 21.753,37.677 z m -87.01,0 -37.676,-21.752 21.753,-37.677 37.676,21.753 z m 146.439,59.429 -21.752,-37.676 37.676,-21.753 21.752,37.676 z m -287.049,97.105 -21.752,37.676 -37.676,-21.752 21.752,-37.676 z m 21.753,-37.676 -21.753,37.676 -37.676,-21.752 21.753,-37.677 z m 0,-43.505 -37.676,21.752 -21.753,-37.676 37.676,-21.753 z m 59.429,-15.924 -37.677,-21.753 21.753,-37.676 37.676,21.753 z m -21.753,231.887 21.753,37.676 -37.677,21.752 -21.752,-37.676 z m 162.363,0 21.752,37.676 -37.676,21.752 -21.753,-37.676 z m -75.353,0 37.676,21.752 -21.752,37.676 -37.676,-21.752 z m 162.363,-194.211 -21.753,-37.676 37.676,-21.753 21.753,37.677 z m -21.753,156.534 37.676,-21.752 21.753,37.676 -37.676,21.753 z m -43.505,-194.21 -37.676,-21.753 21.752,-37.676 37.677,21.753 z m -118.857,0 -21.753,-37.676 37.676,-21.753 21.753,37.676 z m -65.258,37.676 -37.676,-21.752 21.752,-37.677 37.677,21.753 z m 21.753,156.534 -21.753,37.677 -37.676,-21.753 21.752,-37.676 z m 205.867,-118.857 21.753,-37.677 37.676,21.753 -21.753,37.676 z m -21.752,37.676 21.752,-37.676 37.676,21.752 -21.752,37.676 z m 0,43.505 37.676,-21.753 21.752,37.677 -37.676,21.752 z m -59.429,15.924 37.676,21.752 -21.752,37.677 -37.677,-21.753 z m 15.924,-134.782 -37.677,-21.752 21.753,-37.677 37.676,21.753 z m -75.353,0 -21.752,-37.676 37.676,-21.753 21.752,37.677 z m -65.257,37.677 -37.677,21.752 -21.752,-37.676 37.676,-21.753 z m 21.752,37.676 -37.676,21.752 -21.753,-37.676 37.677,-21.752 z m 0,43.505 -21.752,37.676 -37.677,-21.752 21.753,-37.677 z m 59.429,15.924 21.752,37.676 -37.676,21.753 -21.752,-37.677 z m 65.257,-37.677 37.677,21.753 -21.753,37.676 -37.676,-21.752 z m -87.01,0 21.753,37.677 -37.676,21.752 -21.753,-37.676 z m 65.258,-37.676 -21.753,-37.676 37.677,-21.753 21.752,37.677 z m 0,0 37.676,-21.752 21.753,37.676 -37.677,21.752 z m -43.505,0 -37.676,-21.752 21.752,-37.677 37.676,21.753 z m 0,0 -21.753,37.676 -37.676,-21.752 21.753,-37.676 z m 465.335,426.097 -37.676,21.753 V 878.802 Z M 42.627,242.57 4.95,220.818 42.627,199.066 Z m 0,-43.504 -21.753,-37.677 h 43.505 z m 43.505,701.488 37.676,-21.752 v 43.505 z m 790.06,37.676 -21.753,37.677 -21.752,-37.677 z m -692.955,0 h 43.505 l -21.753,37.677 z m 790.06,-814.517 -37.676,21.752 V 101.96 Z M 957.373,64.284 935.621,101.96 913.868,64.284 Z m 0,776.841 -21.752,37.677 -21.753,-37.677 z m -21.752,37.677 v 43.505 L 897.944,900.554 Z M 42.627,825.201 64.379,862.878 H 20.874 Z M 854.439,4.855 V 48.36 L 816.763,26.608 Z m 0,0 37.677,21.753 -37.677,21.752 z M 42.627,781.696 80.303,803.449 42.627,825.201 Z m 0,0 v 43.505 L 4.95,803.449 Z m 0,0 L 20.874,744.02 H 64.379 Z M 204.989,4.855 242.666,26.608 204.989,48.36 Z m 0,0 V 48.36 L 167.313,26.608 Z M 42.627,242.57 64.379,280.247 H 20.874 Z m 0,0 v -43.504 l 37.676,21.752 z M 86.132,123.713 123.808,101.96 v 43.505 z m 15.924,-59.429 h 43.505 L 123.808,101.96 Z M 42.627,587.486 v 43.505 L 4.95,609.239 Z m 0,43.505 21.752,37.676 H 20.874 Z m 59.429,210.134 h 43.505 l -21.753,37.677 z m 21.752,37.677 37.676,21.752 -37.676,21.753 z m 590.021,59.428 -21.752,37.677 -21.753,-37.677 z m -368.23,0 h 43.505 l -21.752,37.677 z M 957.373,183.142 h -43.505 l 21.753,-37.677 z m -21.752,-37.677 -37.677,-21.752 37.677,-21.753 z m 37.676,560.879 -37.676,21.752 v -43.505 z m -15.924,59.429 h -43.505 l 21.753,-37.677 z M 692.077,4.855 V 48.36 L 654.401,26.608 Z m 0,0 37.676,21.753 -37.676,21.752 z m 162.362,43.505 21.753,37.676 h -43.505 z m -811.812,0 V 4.855 L 80.303,26.608 Z M 367.352,4.855 405.028,26.608 367.352,48.36 Z m 0,0 V 48.36 L 329.676,26.608 Z M 204.989,48.36 226.742,86.036 H 183.237 Z M 42.627,436.781 4.95,415.028 42.627,393.276 Z m 0,-43.505 -21.753,-37.677 h 43.505 z m 59.429,-210.134 21.752,-37.677 21.753,37.677 z m 21.752,-37.677 V 101.96 l 37.676,21.753 z M 42.627,587.486 20.874,549.81 h 43.505 z m 0,0 37.676,21.753 -37.676,21.752 z m 43.505,118.858 37.676,-21.753 v 43.505 z m 15.924,59.429 21.752,-37.677 21.753,37.677 z M 551.467,938.23 529.714,975.907 507.962,938.23 Z m 221.791,-15.923 -37.676,-21.753 37.676,-21.752 z m 0,0 37.677,-21.753 -37.677,-21.752 z m -487.087,0 37.676,-21.753 -37.676,-21.752 z m 0,0 -37.677,-21.753 37.677,-21.752 z M 42.627,48.36 4.95,26.608 42.627,4.855 Z m 0,0 21.752,37.676 H 20.874 Z m 930.67,269.563 -37.676,21.753 v -43.505 z m -15.924,-59.429 -21.752,37.677 -21.753,-37.677 z m 0,388.421 -21.752,37.676 -21.753,-37.676 z m -21.752,37.676 v 43.505 l -37.677,-21.752 z m -43.505,118.858 -37.677,21.752 v -43.505 z m -15.924,59.429 h -43.505 l 21.752,-37.677 z M 529.714,4.855 V 48.36 L 492.038,26.608 Z m 0,0 37.677,21.753 -37.677,21.752 z M 692.077,48.36 713.829,86.036 H 670.324 Z M 795.011,64.284 773.258,101.96 751.506,64.284 Z M 367.352,48.36 389.104,86.036 H 345.599 Z M 264.418,64.284 h 43.505 L 286.171,101.96 Z M 42.627,436.781 64.379,474.457 H 20.874 Z m 0,0 v -43.505 l 37.676,21.752 z m 43.505,-118.858 37.676,-21.752 v 43.505 z m 15.924,-59.429 h 43.505 l -21.753,37.677 z m 0,388.421 h 43.505 l -21.753,37.676 z m 21.752,37.676 37.676,21.753 -37.676,21.752 z m 43.505,118.858 37.676,-21.753 v 43.505 z m 15.924,59.429 21.752,-37.677 21.753,37.677 z m 427.659,59.429 -37.677,-21.753 37.677,-21.752 z m 0,0 37.676,-21.753 -37.676,-21.752 z m 162.362,-43.505 -21.752,-37.677 h 43.505 z m -324.725,43.505 37.676,-21.753 -37.676,-21.752 z m 0,0 -37.676,-21.753 37.676,-21.752 z M 286.171,878.802 264.418,841.125 h 43.505 z M 973.297,512.133 935.621,533.886 V 490.381 Z M 957.373,377.352 h -43.505 l 21.753,-37.676 z m -21.752,-37.676 -37.677,-21.753 37.677,-21.752 z M 892.116,220.818 854.439,242.57 v -43.504 z m -15.924,-59.429 -21.753,37.677 -21.752,-37.677 z m 81.181,410.173 h -43.505 l 21.753,-37.676 z M 876.192,744.02 854.439,781.696 832.687,744.02 Z m -21.753,37.676 v 43.505 L 816.763,803.449 Z M 529.714,48.36 551.467,86.036 H 507.962 Z M 632.648,64.284 610.896,101.96 589.143,64.284 Z m 140.61,37.676 v 43.505 l -37.676,-21.752 z m 0,0 37.677,21.753 -37.677,21.752 z M 426.781,64.284 h 43.505 l -21.753,37.676 z m -140.61,37.676 37.676,21.753 -37.676,21.752 z m 0,0 v 43.505 L 248.494,123.713 Z M 86.132,512.133 123.808,490.381 v 43.505 z m 15.924,-134.781 21.752,-37.676 21.753,37.676 z m 21.752,-37.676 v -43.505 l 37.676,21.752 z m 43.505,-118.858 37.676,-21.752 v 43.504 z m 15.924,-59.429 h 43.505 l -21.753,37.677 z m -81.181,410.173 21.752,-37.676 21.753,37.676 z m 81.181,172.458 h 43.505 l -21.753,37.676 z m 21.752,37.676 37.677,21.753 -37.677,21.752 z m 405.907,97.106 -21.753,-37.677 h 43.505 z m 102.933,-15.924 h -43.505 l 21.753,-37.677 z m -265.296,15.924 -21.752,-37.677 h 43.505 z m -102.934,-15.924 21.753,-37.677 21.752,37.677 z m 611.774,-410.173 -21.752,37.676 -21.753,-37.676 z m -21.752,37.676 v 43.505 L 897.944,512.133 Z M 876.192,280.247 h -43.505 l 21.752,-37.677 z m -21.753,-37.677 -37.676,-21.752 37.676,-21.752 z m 37.677,366.669 -37.677,21.752 v -43.505 z m -15.924,59.428 h -43.505 l 21.752,-37.676 z M 610.896,101.96 v 43.505 l -37.677,-21.752 z m 0,0 37.676,21.753 -37.676,21.752 z m 162.362,43.505 21.753,37.677 h -43.505 z m -324.725,-43.505 37.676,21.753 -37.676,21.752 z m 0,0 v 43.505 l -37.676,-21.752 z m -162.362,43.505 21.752,37.677 h -43.505 z m -184.115,307.24 h 43.505 l -21.753,37.676 z m 21.752,37.676 37.676,21.752 -37.676,21.753 z m 59.429,-210.134 21.752,-37.677 21.753,37.677 z m 21.752,-37.677 v -43.504 l 37.677,21.752 z m -37.676,366.669 37.676,-21.753 v 43.505 z m 15.924,59.428 21.752,-37.676 21.753,37.676 z m 368.23,194.211 h -43.505 l 21.752,-37.677 z m 140.61,-37.677 -37.676,-21.752 37.676,-21.753 z m 0,0 37.676,-21.752 -37.676,-21.753 z m -324.725,0 37.676,-21.752 -37.676,-21.753 z m 0,0 -37.676,-21.752 37.676,-21.753 z m 524.764,-410.173 -37.677,21.753 v -43.505 z m -15.924,-59.429 -21.753,37.677 -21.752,-37.677 z m 0,194.211 -21.753,37.676 -21.752,-37.676 z m -59.429,59.429 37.676,-21.753 v 43.505 z m -43.505,118.857 v -43.505 l 37.677,21.753 z m 0,0 21.753,37.677 h -43.505 z m -184.115,-544.954 21.753,-37.677 21.752,37.677 z m 102.934,15.924 -21.753,-37.677 h 43.505 z M 470.286,183.142 h -43.505 l 21.752,-37.677 z m -102.934,15.924 -21.753,-37.677 h 43.505 z m -162.363,194.21 v 43.505 l -37.676,-21.753 z m 21.753,-37.677 -21.753,37.677 -21.752,-37.677 z m 0,194.211 -21.753,37.676 -21.752,-37.676 z m 15.924,59.429 -37.677,21.752 v -43.505 z m 43.505,118.857 -37.677,-21.752 37.677,-21.753 z m 0,0 21.752,37.677 h -43.505 z m 243.543,53.6 v 43.505 l -37.676,-21.752 z m 0,0 37.677,21.753 -37.677,21.752 z m 140.61,-37.676 h 43.505 l -21.752,37.676 z m -324.725,0 h 43.505 l -21.752,37.676 z m 487.088,-269.563 21.752,-37.676 21.753,37.676 z m -15.924,-59.429 37.676,-21.752 v 43.505 z m -5.828,-97.105 -37.677,21.753 v -43.505 z m -59.429,-59.429 h 43.505 l -21.753,37.677 z m 21.752,426.097 -21.752,-37.676 h 43.505 z m 0,43.505 -37.676,-21.752 37.676,-21.753 z M 507.962,161.389 h 43.505 l -21.753,37.677 z m 184.115,37.677 v 43.504 l -37.676,-21.752 z m 37.676,21.752 -37.676,21.752 v -43.504 z m -362.401,-21.752 37.676,21.752 -37.676,21.752 z m -37.676,21.752 37.676,-21.752 v 43.504 z m -124.687,215.963 21.753,37.676 h -43.505 z m 0,-43.505 37.677,21.752 -37.677,21.753 z m 43.505,-75.353 37.677,-21.752 v 43.505 z m 59.429,-59.429 -21.752,37.677 -21.753,-37.677 z m -21.752,426.097 -21.753,-37.676 h 43.505 z m 0,43.505 v -43.505 l 37.676,21.753 z m 243.543,53.6 -21.752,-37.676 h 43.505 z m 102.934,-15.923 h -43.505 l 21.753,-37.677 z m -205.867,0 21.752,-37.677 21.753,37.677 z m 384.154,-253.64 -37.677,21.753 v -43.505 z m -59.429,-134.781 21.752,-37.676 21.753,37.676 z m -15.924,-59.429 37.676,-21.752 v 43.505 z m 15.924,253.639 21.752,-37.676 21.753,37.676 z M 529.714,242.57 492.038,220.818 529.714,199.066 Z m 0,0 v -43.504 l 37.677,21.752 z m 140.61,37.677 21.753,-37.677 21.752,37.677 z m -281.22,0 h -43.505 l 21.753,-37.677 z m -102.933,253.639 -37.677,-21.753 37.677,-21.752 z m 21.752,-156.534 h -43.505 l 21.753,-37.676 z m 15.924,-59.429 -37.676,21.753 v -43.505 z m -15.924,253.639 h -43.505 l 21.753,-37.676 z m 302.973,113.029 v 43.505 l -37.677,-21.752 z m 0,0 37.676,21.753 -37.676,21.752 z m -162.363,0 37.676,21.753 -37.676,21.752 z m 0,0 v 43.505 L 410.857,706.344 Z M 751.506,452.705 h 43.505 l -21.753,37.676 z m -15.924,59.428 37.676,-21.752 v 43.505 z m -43.505,118.858 v -43.505 l 37.676,21.753 z m 0,0 21.752,37.676 h -43.505 z m -184.115,-350.744 21.752,-37.677 21.753,37.677 z m 102.934,15.924 -21.753,-37.677 h 43.505 z m -162.363,0 -21.752,-37.677 h 43.505 z m -140.61,156.534 -21.752,37.676 -21.753,-37.676 z m 15.924,59.428 -37.676,21.753 v -43.505 z m 43.505,118.858 -37.676,-21.752 37.676,-21.753 z m 0,0 21.752,37.676 h -43.505 z m 221.791,15.924 h 43.505 l -21.752,37.676 z m -118.857,0 -21.753,37.676 -21.752,-37.676 z m 221.791,-253.639 37.676,21.752 -37.676,21.753 z m 0,0 -21.753,-37.677 h 43.505 z M 670.324,549.81 h 43.505 l -21.752,37.676 z m -15.923,59.429 37.676,-21.753 v 43.505 z m -43.505,-269.563 -37.677,-21.753 37.677,-21.752 z m 0,0 v -43.505 l 37.676,21.752 z m -162.363,0 v -43.505 l 37.676,21.752 z m 0,0 -37.676,-21.753 37.676,-21.752 z m -81.181,53.6 v 43.505 l -37.676,-21.753 z m 0,0 -21.753,-37.677 h 43.505 z m 21.752,156.534 -21.752,37.676 -21.753,-37.676 z m 15.924,59.429 -37.676,21.752 v -43.505 z m 124.686,21.752 21.753,37.676 h -43.505 z m 140.61,-156.534 21.753,-37.676 21.752,37.676 z m -15.923,-59.429 37.676,-21.752 v 43.505 z m -65.258,-37.676 21.753,-37.676 21.752,37.676 z m -118.857,0 h -43.505 l 21.752,-37.676 z m -81.182,97.105 h -43.505 l 21.753,-37.676 z m 15.924,-59.429 -37.676,21.753 v -43.505 z m 124.686,172.458 v 43.505 l -37.676,-21.752 z m 0,0 37.677,21.753 -37.677,21.752 z m 81.182,-53.6 v -43.505 l 37.676,21.752 z m 0,0 21.752,37.676 h -43.505 z m -81.182,-140.61 -21.752,-37.677 h 43.505 z m -81.181,140.61 -37.676,-21.753 37.676,-21.752 z m 0,0 21.753,37.676 h -43.505 z m 59.429,15.924 h 43.505 l -21.753,37.676 z m 81.181,-97.105 h 43.505 l -21.752,37.676 z m -15.924,59.428 37.677,-21.752 v 43.505 z m -43.505,-75.352 -37.676,-21.753 37.676,-21.752 z m 0,0 v -43.505 l 37.677,21.752 z m -59.428,15.924 -21.753,37.676 -21.752,-37.676 z m 15.923,59.428 -37.676,21.753 v -43.505 z m 21.753,-37.676 21.752,-37.676 21.753,37.676 z"
     style="opacity:1;fill-opacity:0;stroke:#000000;stroke-width:16;stroke-opacity:1;stop-opacity:1;stroke-miterlimit:4;stroke-dasharray:none;stroke-linejoin:round"
     id="path105300" />
</svg>
