<?xml version="1.0" encoding="UTF-8" standalone="no"?>
<svg
   xmlns:dc="http://purl.org/dc/elements/1.1/"
   xmlns:cc="http://creativecommons.org/ns#"
   xmlns:rdf="http://www.w3.org/1999/02/22-rdf-syntax-ns#"
   xmlns:svg="http://www.w3.org/2000/svg"
   xmlns="http://www.w3.org/2000/svg"
   xmlns:sodipodi="http://sodipodi.sourceforge.net/DTD/sodipodi-0.dtd"
   xmlns:inkscape="http://www.inkscape.org/namespaces/inkscape"
   inkscape:version="1.0beta1 (32d4812, 2019-09-19)"
   sodipodi:docname="4-uniform_145.svg"
   id="c:\kuniform\4u\4-uniform_145.svg"
   height="1000.0"
   width="983.3689"
   version="1.0">
  <style
     id="style5610"></style>
  <metadata
     id="metadata5608">
    <rdf:RDF>
      <cc:Work
         rdf:about="">
        <dc:format>image/svg+xml</dc:format>
        <dc:type
           rdf:resource="http://purl.org/dc/dcmitype/StillImage" />
        <dc:title></dc:title>
      </cc:Work>
    </rdf:RDF>
  </metadata>
  <defs
     id="defs5606" />
  <sodipodi:namedview
     inkscape:current-layer="c:\kuniform\4u\4-uniform_145.svg"
     inkscape:window-maximized="0"
     inkscape:window-y="23"
     inkscape:window-x="0"
     inkscape:cy="501.10396"
     inkscape:cx="503.66705"
     inkscape:zoom="0.34011739"
     showgrid="false"
     id="namedview5604"
     inkscape:window-height="907"
     inkscape:window-width="1600"
     inkscape:pageshadow="2"
     inkscape:pageopacity="0"
     guidetolerance="10"
     gridtolerance="10"
     objecttolerance="10"
     borderopacity="1"
     inkscape:document-rotation="0"
     bordercolor="#666666"
     pagecolor="#ffffff" />
  <!-- X Coordinate transform: fx(x)=(x+85.70282)*0.8394776-->
  <!-- Y Coordinate transform: fy(y)=(1095.6085-y)*0.8394776 -->
  <path
     d="m 52.465,855.271 -36.35,20.987 M 925.28,93.015 V 51.041 m -36.35,20.987 36.35,20.987 20.987,36.35 20.987,36.351 m -67.078,751.009 20.987,-36.35 m -99.311,99.311 36.35,-20.987 M 62.206,161.599 83.192,125.249 M 161.517,62.288 182.504,25.937 M 73.452,891.622 94.439,855.271 M 846.956,72.028 867.943,35.677 m 62.96,151.026 36.351,20.987 M 83.192,83.275 104.179,46.924 m 754.023,869.801 h 41.974 41.974 M 125.166,125.249 H 83.192 41.219 m 83.947,-41.974 36.351,20.987 m 41.974,-41.974 20.987,-36.351 m -46.091,902.035 v 41.974 M 136.413,927.972 157.4,891.622 M 136.413,855.271 H 94.439 52.465 l -36.35,-20.987 m 36.35,-20.987 -20.986,-36.35 20.986,-36.351 M 62.206,46.924 h 41.973 L 140.53,25.937 m 664.452,46.091 20.987,-36.351 m 62.961,151.026 20.986,-36.351 m -72.7,730.023 h 41.973 41.974 l 36.351,-20.987 m -177.636,78.324 20.987,-36.35 M 41.219,125.249 4.868,104.262 M 663.697,56.664 684.683,20.314 M 900.176,958.699 879.189,995.05 M 83.192,239.923 46.842,218.937 25.855,182.586 M 146.153,161.599 H 104.179 62.206 l -36.351,20.987 m 156.649,-41.974 20.987,-36.35 M 67.829,297.261 H 25.855 m 916.295,619.464 36.351,20.987 m -721.79,11.247 -20.987,36.35 M 136.413,813.297 v 41.974 l 20.987,36.351 20.987,36.35 36.351,20.987 M 94.439,813.297 l 20.987,-36.35 m -20.987,-36.351 -20.987,36.351 -20.987,36.35 v 41.974 l 20.987,36.351 20.987,36.35 M 52.465,698.623 31.479,662.272 m 884.061,82.441 h 41.974 M 804.982,114.002 V 72.028 L 783.995,35.677 m 41.974,114.675 20.987,-36.35 m -830.841,762.256 20.987,36.351 20.987,36.35 36.35,20.987 m 752.517,-783.243 20.987,-36.351 20.987,-36.35 m 41.973,187.375 20.987,-36.35 -20.987,-36.35 M 858.202,802.05 879.189,765.7 m -99.311,99.311 20.987,36.351 20.987,36.35 v 41.974 M 726.657,93.015 747.644,56.664 M 684.683,93.015 705.67,56.664 726.657,20.314 M 543.398,77.651 564.385,41.301 M 402.113,62.288 V 20.314 m -36.35,20.987 36.35,-20.987 M 323.789,41.301 344.776,4.95 m -240.597,271.324 20.987,-36.351 m 78.325,-62.96 -20.987,-36.351 -20.987,-36.35 V 62.288 L 140.53,25.937 m -57.338,172.013 20.987,-36.351 20.987,-36.35 36.351,-20.987 h 41.974 41.974 m 0,-41.974 36.35,20.987 M 46.842,448.286 25.855,411.936 46.842,375.585 H 88.816 M 46.842,490.26 10.492,469.273 m 288.193,437.712 v 41.974 l -20.987,36.35 m -99.311,-15.363 36.351,-20.987 h 41.973 41.974 l 36.351,-20.987 m 41.974,0 -20.987,36.351 m 62.96,-36.351 -20.986,36.351 m 162.272,-20.987 -20.987,36.35 M 41.219,83.275 62.206,46.924 83.192,10.574 m 110.559,860.061 20.987,-36.351 M 94.439,698.623 v 41.973 l 20.987,36.351 20.987,36.35 36.351,20.987 M 73.452,662.272 52.465,698.623 v 41.973 l 20.987,36.351 20.987,36.35 v 41.974 l 20.987,36.351 20.987,36.35 M 52.465,625.922 H 10.492 m 884.061,40.467 h 41.974 l 20.987,-36.351 -20.987,-36.35 M 768.631,93.015 l 36.351,20.987 20.987,36.35 20.987,36.351 v 41.974 m 20.987,36.35 20.987,-36.35 m 47.597,323.037 36.35,20.987 m -83.947,-271.324 20.986,-36.35 20.987,-36.35 V 186.703 L 909.916,150.352 888.93,114.002 V 72.028 L 867.943,35.677 m -46.091,902.035 36.35,20.987 h 41.974 41.974 l 36.351,-20.987 M 951.89,379.702 930.903,343.351 M 900.176,802.05 v 41.974 l 20.987,36.351 20.987,36.35 v 41.974 l -20.987,36.351 m -104.934,-193 20.987,-36.35 20.986,-36.35 m -78.324,93.687 36.351,20.987 m -78.325,20.987 20.987,36.351 20.987,36.35 m -62.961,-36.35 h 41.974 41.974 l 36.351,-20.987 20.986,-36.351 m -177.635,78.325 -20.987,36.35 m 20.987,-36.35 20.987,36.35 36.35,20.987 M 684.683,134.989 V 93.015 L 663.697,56.664 642.71,20.314 m 5.623,93.688 36.35,-20.987 h 41.974 41.974 l 36.351,-20.987 h 41.974 41.974 l 36.35,-20.987 m -318.921,62.961 20.987,-36.351 m -62.961,36.351 20.987,-36.351 20.987,-36.35 36.351,-20.987 M 423.1,98.638 444.087,62.288 h 41.974 m -360.895,250.336 20.987,-36.35 20.987,-36.351 m 0,-41.973 36.351,20.987 m 41.974,-41.974 -20.987,-36.351 -20.987,-36.35 V 62.288 L 182.504,25.937 m -57.338,172.013 20.987,-36.351 36.351,-20.987 h 41.974 41.973 m 36.351,-20.987 20.987,-36.35 M 67.829,526.61 88.816,490.26 m -36.351,93.688 v 41.974 l 20.987,36.35 20.987,36.351 36.351,20.986 M 277.698,870.635 H 235.724 193.751 L 157.4,891.622 H 115.426 73.452 l -36.35,20.987 -20.987,36.35 m 402.868,-62.961 36.351,20.987 m 20.987,36.351 20.987,-36.351 m 41.974,0 -20.987,36.351 -20.987,36.35 m -282.57,-72.701 20.986,-36.35 20.987,-36.351 M 151.777,755.96 172.764,719.609 M 88.816,604.935 52.465,583.948 31.479,547.597 10.492,511.247 M 768.631,207.69 789.618,171.339 m 104.935,380.375 20.987,-36.35 M 810.605,207.69 l 36.351,20.987 20.987,36.35 20.987,36.35 v 41.974 m 20.986,36.351 20.987,-36.351 v -41.974 l -20.987,-36.35 -20.986,-36.35 v -41.974 l -20.987,-36.351 -20.987,-36.35 V 72.028 L 825.969,35.677 m 104.934,380.375 20.987,-36.35 20.987,-36.351 m 0,187.376 -20.987,-36.35 -20.987,-36.351 V 416.052 L 909.916,379.702 888.93,343.351 852.579,322.364 M 795.242,765.7 h 41.974 41.973 l 36.351,-20.987 20.987,-36.35 v -41.974 l -20.987,-36.351 -20.987,-36.35 m -156.649,229.349 20.987,-36.35 m -177.635,192.999 36.35,-20.987 20.987,-36.35 20.987,-36.351 m 46.09,-714.659 20.987,-36.35 M 486.061,20.314 l 36.35,20.987 20.987,36.35 20.987,36.351 v 41.974 m -78.324,-20.987 20.987,-36.351 m -62.961,36.351 h 41.974 M 88.816,448.286 67.829,411.936 46.842,375.585 v -41.974 l 20.987,-36.35 36.35,-20.987 h 41.974 41.974 m 36.351,-20.987 20.987,-36.35 M 146.153,390.949 167.14,354.598 M 130.79,490.26 H 88.816 46.842 l -36.35,20.987 M 88.816,562.961 67.829,526.61 46.842,490.26 v -41.974 l 20.987,-36.35 20.987,-36.351 36.35,-20.987 m 251.844,531.4 20.987,-36.35 m 141.285,15.363 36.35,20.987 m 20.987,36.351 20.987,-36.351 M 256.711,792.31 v 41.974 l 20.987,36.351 20.987,36.35 36.351,20.987 h 41.974 41.973 l 36.351,-20.987 h 41.974 41.974 l 36.35,-20.987 h 41.974 41.974 l 36.35,-20.987 h 41.974 41.974 l 36.351,-20.987 h 41.973 41.974 M 214.738,792.31 235.724,755.96 m -62.96,36.35 20.987,-36.35 20.987,-36.351 m -104.935,-78.324 20.987,-36.35 m 685.439,82.441 20.987,-36.351 M 726.657,207.69 l 20.987,-36.351 20.987,-36.35 m 41.974,187.375 20.987,-36.35 m 20.987,265.7 h 41.974 41.974 l 36.35,-20.987 m -114.675,156.649 36.351,-20.987 20.987,-36.351 20.987,-36.35 v -41.974 l -20.987,-36.35 -20.987,-36.351 m 0,-41.974 36.35,20.987 m -192.999,479.686 20.987,-36.35 20.987,-36.351 v -41.974 l -20.987,-36.35 -20.987,-36.351 m -78.324,93.688 36.35,20.987 M 585.372,192.326 606.359,155.976 M 444.087,176.963 V 134.989 L 423.1,98.638 402.113,62.288 365.763,41.301 h -41.974 -41.974 l -36.35,20.987 H 203.491 161.517 L 125.166,83.275 H 83.192 41.219 L 4.868,104.262 m 360.895,51.714 20.987,-36.351 m -141.285,172.012 -20.987,-36.35 -20.987,-36.35 v -41.974 l 20.987,-36.351 20.987,-36.35 36.35,-20.987 h 41.974 41.974 m -78.325,93.688 36.351,20.987 M 167.14,427.299 146.153,390.949 125.166,354.598 V 312.624 L 104.179,276.274 83.192,239.923 V 197.95 L 62.206,161.599 41.219,125.249 V 83.275 L 20.232,46.924 m 110.558,401.362 36.35,20.987 M 10.492,583.948 31.479,547.597 67.829,526.61 h 41.974 41.974 M 130.79,562.961 109.803,526.61 88.816,490.26 v -41.974 l 20.987,-36.35 m 204.246,437.712 20.987,-36.351 m 0,72.701 20.987,-36.35 20.987,-36.351 m 120.298,51.714 20.987,-36.35 M 214.738,677.636 v 41.973 l 20.986,36.351 20.987,36.35 36.351,20.987 M 172.764,677.636 193.751,641.285 m -62.961,36.351 20.987,-36.351 20.987,-36.35 M 957.514,859.388 936.527,823.037 900.176,802.05 879.189,765.7 858.202,729.35 v -41.974 l -20.986,-36.351 -20.987,-36.35 m -288.194,-479.686 36.35,-20.987 h 41.974 41.974 l 36.35,20.987 20.987,36.35 20.987,36.351 v 41.974 m 20.987,36.35 20.987,-36.35 m 47.598,323.037 36.35,20.987 m -83.948,-271.324 20.987,-36.35 20.987,-36.35 m 20.987,265.7 h 41.974 41.974 l 36.35,-20.987 20.987,-36.351 m -99.311,172.012 20.987,-36.35 v -41.974 l -20.987,-36.35 -20.987,-36.351 m 0,-41.974 20.987,-36.35 M 737.904,708.363 774.255,729.35 M 439.97,964.323 476.321,943.336 h 41.974 41.974 l 36.35,-20.987 h 41.974 41.974 l 36.35,-20.987 20.987,-36.351 v -41.974 l -20.987,-36.35 -20.987,-36.351 m -20.987,36.351 h 41.974 41.974 l 36.351,-20.987 20.987,-36.35 m -198.623,114.674 20.987,-36.35 m 9.74,-578.997 20.987,-36.351 m -62.961,36.351 20.987,-36.351 20.987,-36.35 m -183.259,57.337 20.987,-36.35 m -276.947,135.661 36.351,20.987 m 41.973,-41.974 -20.987,-36.35 -20.986,-36.35 v -41.974 l 20.986,-36.351 36.351,-20.987 h 41.974 41.974 L 423.1,98.638 h 41.974 41.974 l 36.35,-20.987 h 41.974 41.974 l 36.351,-20.987 h 41.973 41.974 l 36.351,-20.987 m -616.855,276.947 20.987,-36.35 36.351,-20.987 h 41.973 41.974 M 344.776,234.3 365.763,197.95 M 209.114,427.299 188.127,390.949 167.14,354.598 v -41.974 l -20.987,-36.35 -20.987,-36.351 V 197.95 L 104.179,161.599 83.192,125.249 V 83.275 L 62.206,46.924 H 20.232 m 167.895,458.699 20.987,-36.35 m 41.974,229.35 -36.35,-20.987 -20.987,-36.351 -20.987,-36.35 V 562.961 L 151.777,526.61 130.79,490.26 V 448.286 L 109.803,411.936 88.816,375.585 V 333.611 M 377.01,771.323 v 41.974 l 20.987,36.351 20.986,36.35 v 41.974 l 20.987,36.351 M 413.36,792.31 377.01,813.297 h -41.974 -41.974 l -36.351,20.987 h -41.973 -41.974 l -36.351,20.987 -20.987,36.351 -20.987,36.35 v 41.974 M 434.347,828.661 455.334,792.31 m 0,72.701 20.987,-36.35 20.987,-36.351 m -225.233,-57.337 20.987,-36.35 m -120.298,-135.662 36.35,20.987 m 565.141,30.727 20.987,36.35 20.987,36.351 v 41.974 l 20.987,36.35 20.986,36.35 v 41.974 l 20.987,36.351 20.987,36.35 v 41.974 l 20.987,36.351 M 774.255,572.701 795.242,536.35 M 768.631,364.338 v -41.974 l -20.987,-36.35 -20.987,-36.35 -36.35,-20.987 m 99.311,172.012 20.987,-36.351 m 0,72.701 20.987,-36.35 20.987,-36.351 m -120.298,-20.987 36.35,20.987 20.987,36.351 20.987,36.35 v 41.974 l 20.987,36.351 20.987,36.35 v 41.974 l 20.987,36.35 20.987,36.351 v 41.974 m -198.623,0 20.987,-36.351 m -141.285,172.012 20.987,-36.35 20.987,-36.351 M 606.359,270.65 h 41.974 41.974 l 36.35,-20.986 h 41.974 41.974 l 36.351,-20.987 h 41.974 41.973 l 36.351,-20.987 m -397.245,41.974 36.35,-20.987 h 41.974 41.974 l 36.35,-20.987 h 41.974 41.974 l 36.351,-20.987 h 41.974 41.973 l 36.351,-20.987 m -439.219,83.948 20.987,-36.351 m -62.961,36.351 20.987,-36.351 20.987,-36.35 M 266.451,369.962 287.438,333.611 M 365.763,270.65 386.75,234.3 407.737,197.95 M 251.088,469.273 H 209.114 167.14 l -36.35,20.987 -20.987,36.35 -20.987,36.351 v 41.974 l 20.987,36.35 20.987,36.351 v 41.973 l 20.987,36.351 20.987,36.35 v 41.974 l 20.987,36.351 20.987,36.35 v 41.974 l 20.986,36.35 m -26.61,-443.335 -20.987,-36.351 -20.987,-36.35 v -41.974 l 20.987,-36.35 20.987,-36.351 m 125.922,416.725 20.987,-36.35 m 141.285,15.363 v 41.974 l 20.987,36.351 20.987,36.35 v 41.974 l 20.987,36.351 20.987,36.35 m -26.611,-172.012 20.987,-36.351 m -282.57,0 20.987,-36.35 20.987,-36.35 m -104.935,-78.325 20.987,-36.35 m 439.219,-240.597 20.987,-36.35 m 20.987,265.7 h 41.974 41.974 l 36.35,-20.987 20.987,-36.35 20.987,-36.351 v -41.974 l -20.987,-36.35 -20.987,-36.351 v -41.974 l -20.987,-36.35 -20.987,-36.35 V 207.69 l -20.987,-36.351 -20.987,-36.35 V 93.015 L 747.644,56.664 726.657,20.314 m 47.598,667.062 20.987,-36.351 20.987,-36.35 V 572.701 L 795.242,536.35 774.255,500 m 0,-41.974 36.35,20.987 m -114.675,344.024 20.987,-36.35 20.987,-36.351 v -41.973 l -20.987,-36.351 -20.987,-36.35 m -78.324,93.688 36.35,20.986 m -26.61,-443.335 20.987,-36.351 m -162.272,20.987 v -41.973 l -20.987,-36.351 -20.987,-36.35 -36.35,-20.987 m 0,114.674 20.987,-36.35 m -141.286,172.012 -20.987,-36.35 -20.986,-36.351 v -41.974 l 20.986,-36.35 20.987,-36.35 m 41.974,72.7 36.351,20.987 m -114.675,114.675 36.35,20.987 m -30.727,458.699 -20.987,-36.35 -20.986,-36.351 V 792.31 l -20.987,-36.35 -20.987,-36.351 v -41.973 l -20.987,-36.351 -20.987,-36.35 v -41.974 l 20.987,-36.351 36.35,-20.987 h 41.974 41.974 m -20.987,36.351 -20.987,-36.351 -20.987,-36.35 v -41.974 l 20.987,-36.35 m 225.233,359.387 20.987,-36.35 m 141.285,15.364 h -41.974 -41.974 l -36.35,20.986 H 455.334 413.36 l -36.35,20.987 h -41.974 -41.974 l -36.351,20.987 h -41.973 -41.974 l -36.351,20.987 H 94.439 52.465 l -36.35,20.987 m 517.543,-62.961 -36.35,20.987 H 455.334 413.36 l -36.35,-20.987 -20.987,-36.35 -20.987,-36.35 v -41.974 m -41.974,0 20.987,-36.351 m -62.961,36.351 20.987,-36.351 20.987,-36.35 m 402.868,9.74 36.351,20.987 m -83.948,-271.324 20.987,-36.35 20.987,-36.351 m 20.987,265.7 h 41.974 41.974 l 36.35,-20.986 20.987,-36.351 v -41.974 l -20.987,-36.35 -20.987,-36.351 v -41.974 l -20.987,-36.35 -20.987,-36.35 V 207.69 l -20.987,-36.351 -20.987,-36.35 V 93.015 L 705.67,56.664 684.683,20.314 m 68.585,630.711 20.987,-36.35 V 572.701 L 753.268,536.35 732.281,500 m 0,-41.974 20.987,-36.35 m -99.312,213.986 20.987,36.35 20.987,36.351 v 41.973 l -20.987,36.351 -36.35,20.987 h -41.974 -41.974 l -36.35,20.987 h -41.974 -41.974 l -36.35,20.987 h -41.974 -41.974 l -36.351,20.987 -20.987,36.35 v 41.974 l 20.987,36.35 M 632.97,672.012 h 41.973 41.974 l 36.351,-20.987 h 41.974 41.974 l 36.35,-20.987 h 41.974 41.974 m -381.882,99.312 20.987,-36.351 m -89.571,-365.011 20.987,-36.351 m -198.623,114.675 -20.987,-36.35 -20.987,-36.351 v -41.974 l 20.987,-36.35 36.351,-20.987 h 41.974 41.974 l 36.35,-20.987 h 41.974 41.974 l 36.35,-20.987 h 41.974 41.974 l 36.35,-20.987 h 41.974 41.974 l 36.351,-20.987 h 41.974 41.973 l 36.351,-20.987 20.987,-36.35 M 350.399,369.962 h -41.974 -41.974 l -36.35,20.987 h -41.974 -41.974 l -36.35,20.987 H 67.829 25.855 m 360.895,-62.961 20.987,-36.351 m -99.312,172.013 20.987,-36.351 m 41.974,229.35 -36.35,-20.987 -20.987,-36.351 -20.987,-36.35 v -41.974 l -20.987,-36.351 -20.987,-36.35 v -41.974 l -20.987,-36.35 -20.987,-36.351 V 312.624 L 188.127,276.274 167.14,239.923 V 197.95 l -20.987,-36.351 -20.987,-36.35 V 83.275 L 104.179,46.924 83.192,10.574 m 309.181,703.412 20.987,-36.35 m 0,72.7 20.987,-36.35 20.987,-36.35 m -162.272,-135.662 36.35,20.987 m 324.544,30.727 20.987,-36.351 m -26.61,-172.012 v -41.974 l -20.987,-36.35 -20.987,-36.351 -36.35,-20.986 h -41.974 -41.974 l -36.35,20.986 m 219.609,151.026 20.987,-36.351 m 0,72.701 20.987,-36.35 20.987,-36.351 m -120.298,-20.987 36.35,20.987 20.987,36.351 20.987,36.35 V 500 l 20.987,36.35 20.987,36.351 v 41.974 l 20.987,36.35 20.987,36.351 v 41.974 l 20.987,36.35 20.987,36.35 v 41.974 l 20.987,36.351 20.986,36.35 v 41.974 l 20.987,36.351 m -345.531,-265.7 20.987,-36.351 20.987,-36.35 m -5.623,-292.311 20.987,-36.35 m -62.961,36.35 20.987,-36.35 20.987,-36.351 m -162.272,93.688 20.987,-36.35 20.987,-36.351 m -93.688,651.699 -20.987,-36.351 v -41.974 l -20.987,-36.35 -20.987,-36.351 v -41.974 l -20.987,-36.35 -20.987,-36.35 v -41.974 l -20.987,-36.351 -20.987,-36.35 v -41.974 l 20.987,-36.351 20.987,-36.35 36.35,-20.987 h 41.974 41.974 m -41.974,72.701 -20.987,-36.35 -20.987,-36.351 v -41.974 l 20.987,-36.35 20.987,-36.351 m 125.922,302.051 v 41.974 l 20.987,36.35 20.987,36.35 36.35,20.987 h 41.974 41.974 l 36.35,-20.987 h 41.974 41.974 l 36.351,-20.986 h 41.974 41.973 l 36.351,-20.987 h 41.974 l 20.987,36.35 -20.987,36.35 -36.351,20.987 h -41.974 -41.973 l -36.351,20.987 H 737.904 695.93 l -36.35,20.987 h -41.974 -41.974 l -36.35,20.987 h -41.974 -41.974 l -36.351,20.987 H 377.01 335.036 l -36.351,20.987 h -41.974 -41.973 l -36.351,20.987 H 136.413 94.439 l -36.35,20.987 H 16.115 m 475.569,-292.31 -36.35,20.987 H 413.36 371.386 l -36.35,20.987 h -41.974 -41.974 l -36.35,20.986 H 172.764 130.79 L 94.439,740.596 H 52.465 10.492 m 502.179,-47.597 20.987,-36.35 m -183.259,-57.338 20.987,-36.35 m 240.597,30.727 h 41.973 41.974 L 732.281,572.701 753.268,536.35 774.255,500 v -41.974 l -20.987,-36.35 -20.987,-36.351 V 343.351 L 711.294,307.001 690.307,270.65 V 228.677 L 669.32,192.326 648.333,155.976 V 114.002 L 627.346,77.651 606.359,41.301 h -41.974 m 89.571,667.062 20.987,-36.351 20.987,-36.35 v -41.974 l -20.987,-36.351 -20.987,-36.35 m 0,-41.974 36.351,20.987 m -114.675,114.675 36.351,20.987 m -83.948,-229.35 v -41.974 l -20.987,-36.35 -20.987,-36.351 -36.35,-20.987 h -41.974 -41.974 l -36.351,20.987 h -41.974 -41.973 l -36.351,20.987 H 167.14 125.166 l -36.35,20.987 H 46.842 l -20.987,-36.35 20.987,-36.351 36.35,-20.987 h 41.974 41.974 l 36.351,-20.986 h 41.974 41.973 l 36.351,-20.987 h 41.974 41.974 l 36.35,-20.987 h 41.974 41.974 l 36.35,-20.987 h 41.974 41.974 l 36.35,-20.987 h 41.974 41.974 l 36.351,-20.987 h 41.974 41.974 l 36.35,-20.987 h 41.974 m -475.57,292.31 36.351,-20.987 h 41.974 41.974 l 36.35,-20.987 h 41.974 41.974 l 36.35,-20.987 h 41.974 41.974 l 36.351,-20.987 h 41.973 41.974 m -523.166,83.948 20.986,-36.35 m -99.311,57.337 36.351,20.987 m -9.74,537.024 -20.987,-36.351 v -41.974 l -20.987,-36.35 -20.987,-36.351 v -41.974 l -20.987,-36.35 -20.987,-36.35 v -41.974 l -20.987,-36.351 -20.987,-36.35 v -41.974 l 20.987,-36.351 36.35,-20.986 h 41.974 41.974 m -20.987,36.35 -20.987,-36.35 -20.987,-36.351 v -41.974 l 20.987,-36.35 36.351,-20.987 h 41.974 41.973 l 36.351,-20.987 h 41.974 41.974 l 36.35,-20.987 h 41.974 41.974 l 36.35,-20.987 h 41.974 41.974 l 36.351,-20.987 h 41.973 41.974 l 20.987,36.35 M 413.36,635.662 434.347,599.311 M 10.492,698.623 h 41.973 41.974 l 36.351,-20.987 h 41.974 41.974 l 36.35,-20.987 h 41.974 41.974 l 36.35,-20.987 h 41.974 41.974 l 36.35,-20.987 h 41.974 41.974 l 36.351,-20.987 20.987,-36.351 20.986,-36.35 v -41.974 l -20.986,-36.35 -20.987,-36.351 m -240.597,229.35 20.987,-36.351 20.987,-36.35 m 177.636,-5.624 h 41.974 41.973 L 711.294,536.35 732.281,500 v -41.974 l -20.987,-36.35 -20.987,-36.351 V 343.351 L 669.32,307.001 648.333,270.65 v -41.973 l -20.987,-36.351 -20.987,-36.35 V 114.002 L 585.372,77.651 564.385,41.301 h -41.974 l -36.35,20.987 -20.987,36.35 -20.987,36.351 -36.35,20.987 h -41.974 -41.974 l -36.351,20.987 H 245.465 203.491 L 167.14,197.95 H 125.166 83.192 l -36.35,20.987 v 41.973 l 20.987,36.351 20.987,36.35 36.35,20.987 h 41.974 41.974 l 36.351,-20.987 h 41.973 41.974 l 36.351,-20.987 h 41.974 41.974 l 36.35,-20.987 h 41.974 41.974 l 36.35,-20.987 v -41.973 l -20.987,-36.351 -20.987,-36.35 -36.35,-20.987 H 486.061 M 10.492,740.596 31.479,776.947 h 41.973 41.974 l 36.351,-20.987 h 41.974 41.973 l 36.351,-20.987 h 41.974 41.974 l 36.35,-20.987 h 41.974 41.974 l 36.35,-20.987 h 41.974 41.974 l 36.351,-20.987 20.986,-36.35 v -41.974 l -20.986,-36.351 -20.987,-36.35 m 0,-41.974 20.987,-36.35 m -99.312,172.012 20.987,-36.351 m -5.623,-135.661 20.987,-36.351 M 972.877,343.351 H 930.903 888.93 l -36.351,20.987 h -41.974 -41.974 l -36.35,20.987 h -41.974 -41.974 l -36.35,20.987 h -41.974 -41.974 l -36.351,20.987 h -41.973 -41.974 l -36.351,20.987 -20.987,36.351 -20.987,36.35 v 41.974 l 20.987,36.35 20.987,36.351 v 41.974 l 20.987,36.35 20.987,36.35 v 41.974 l 20.987,36.351 20.987,36.35 v 41.974 l 20.987,36.351 20.987,36.35 M 428.724,463.65 449.711,427.299 m 523.166,145.402 -36.35,20.987 h -41.974 -41.974 l -36.35,20.987 h -41.974 -41.974 l -36.351,20.987 h -41.974 -41.973 l -36.351,20.987 h -41.974 -41.974 l -36.35,-20.987 -20.987,-36.351 -20.987,-36.35 v -41.974 l -20.987,-36.35 -20.987,-36.351 v -41.974 l -20.987,-36.35 -20.987,-36.351 v -41.974 l -20.987,-36.35 -20.987,-36.35 v -41.974 l -20.987,-36.351 -20.986,-36.35 V 62.288 L 224.478,25.937 m 246.219,552.387 h 41.974 41.974 l 36.351,-20.987 20.987,-36.35 v -41.974 l -20.987,-36.35 -20.987,-36.351 v -41.974 l -20.987,-36.35 -20.987,-36.351 v -41.973 l -20.987,-36.351 -20.987,-36.35 V 134.989 L 465.074,98.638 444.087,62.288 h -41.974 l -36.35,20.987 -20.987,36.35 -20.987,36.351 m 89.571,365.011 36.351,20.987 m 120.298,-62.961 20.987,-36.35 20.987,-36.351 v -41.974 l -20.987,-36.35 -20.987,-36.351 v -41.973 l -20.987,-36.351 -20.987,-36.35 V 134.989 L 507.048,98.638 486.061,62.288 V 20.314 M 10.492,469.273 46.842,448.286 h 41.974 41.974 l 36.35,-20.987 h 41.974 41.974 l 36.35,-20.987 h 41.974 41.974 l 36.351,-20.987 h 41.974 41.973 l 36.351,20.987 20.987,36.351 20.987,36.35 v 41.974 l 20.987,36.35 20.987,36.351 v 41.974 l 20.987,36.35 20.986,36.351 v 41.973 l 20.987,36.351 20.987,36.35 v 41.974 l 20.987,36.351 20.987,36.35 v 41.974 m -246.22,-365.011 20.987,-36.351 20.987,-36.35 m 5.624,437.712 -20.987,-36.35 -20.987,-36.351 v -41.974 l -20.987,-36.35 -20.987,-36.351 v -41.974 l -20.987,-36.35 -20.987,-36.35 v -41.974 l -20.987,-36.351 -20.987,-36.35 v -41.974 l 20.987,-36.35 36.351,-20.987 h 41.973 41.974 m -62.96,36.35 20.986,-36.35 20.987,-36.351 m 167.896,531.4 h -41.974 l -20.987,-36.35 -20.987,-36.351 v -41.974 l -20.987,-36.35 -20.987,-36.351 V 729.35 l -20.987,-36.351 -20.987,-36.35 v -41.974 l -20.987,-36.351 -20.986,-36.35 V 500 L 428.724,463.65 407.737,427.299 V 385.325 L 386.75,348.975 365.763,312.624 V 270.65 L 344.776,234.3 323.789,197.95 V 155.976 L 302.802,119.625 281.815,83.275 V 41.301 L 302.802,4.95 m -292.31,620.972 20.987,36.35 h 41.973 l 36.351,-20.987 h 41.974 41.974 l 36.35,-20.987 h 41.974 41.974 l 36.35,-20.987 h 41.974 41.974 l 36.35,-20.987 20.987,-36.35 M 10.492,698.623 31.479,662.272 52.465,625.922 88.816,604.935 h 41.974 41.974 l 36.35,-20.987 h 41.974 41.974 l 36.35,-20.987 h 41.974 41.974 l 36.351,-20.987 h 41.973 41.974 l 36.351,-20.987 M 533.658,500 l 36.351,20.987 h 41.974 41.973 L 690.307,500 h 41.974 41.974 l 36.35,-20.987 h 41.974 41.974 l 36.35,-20.987 h 41.974 M 617.606,729.35 596.619,692.999 575.632,656.649 v -41.974 l -20.987,-36.351 -20.987,-36.35 V 500 l -20.987,-36.35 -20.987,-36.351 v -41.974 l -20.987,-36.35 -20.986,-36.351 V 270.65 L 428.724,234.3 407.737,197.95 V 155.976 L 386.75,119.625 365.763,83.275 V 41.301 L 344.776,4.95 M 491.684,500 l 20.987,-36.35 36.351,-20.987 h 41.974 41.974 l 36.35,-20.987 h 41.974 41.974 l 36.35,-20.987 h 41.974 41.974 l 36.35,-20.987 h 41.974 l 20.987,36.35 M 680.567,922.349 659.58,885.998 v -41.974 l -20.987,-36.35 -20.987,-36.351 V 729.35 l 36.35,-20.987 h 41.974 41.974 l 36.351,-20.987 h 41.974 41.973 l 36.351,20.987 20.987,36.35 20.987,36.35 v 41.974 l -36.351,20.987 -20.987,36.351 -20.987,36.35 -36.35,20.987 h -41.974 -41.974 l -36.35,20.987 H 659.58 l -20.987,-36.35 -20.987,-36.351 v -41.974 l -20.987,-36.35 -20.987,-36.351 V 729.35 l -20.987,-36.351 -20.987,-36.35 v -41.974 l -20.987,-36.351 -20.987,-36.35 V 500 l -20.987,-36.35 -20.986,-36.351 v -41.974 l -20.987,-36.35 -20.987,-36.351 V 270.65 L 386.75,234.3 365.763,197.95 V 155.976 L 344.776,119.625 323.789,83.275 V 41.301 L 302.802,4.95 m 670.075,411.102 h -41.974 l -36.35,20.987 h -41.974 -41.974 l -36.35,20.987 h -41.974 -41.974 l -36.351,20.987 H 611.983 570.009 L 533.658,500 h -41.974 -41.973 l -36.351,20.987 h -41.974 -41.974 l -36.35,20.987 h -41.974 -41.974 l -36.35,20.987 H 130.79 88.816 L 52.465,583.948 H 10.492"
     style="opacity:1;fill-opacity:0;stroke:#000000;stroke-width:15;stroke-opacity:1;stop-opacity:1;stroke-miterlimit:4;stroke-dasharray:none"
     id="path5599" />
</svg>
