<?xml version="1.0" encoding="UTF-8" standalone="no"?>
<svg
   xmlns:dc="http://purl.org/dc/elements/1.1/"
   xmlns:cc="http://creativecommons.org/ns#"
   xmlns:rdf="http://www.w3.org/1999/02/22-rdf-syntax-ns#"
   xmlns:svg="http://www.w3.org/2000/svg"
   xmlns="http://www.w3.org/2000/svg"
   xmlns:sodipodi="http://sodipodi.sourceforge.net/DTD/sodipodi-0.dtd"
   xmlns:inkscape="http://www.inkscape.org/namespaces/inkscape"
   version="1.0"
   width="975.79144"
   height="1000.0"
   id="c:\kuniform\5u\5-uniform_218.svg"
   sodipodi:docname="5-uniform_218.svg"
   inkscape:version="1.0beta1 (32d4812, 2019-09-19)">
  <style
     id="style7881"></style>
  <metadata
     id="metadata7318">
    <rdf:RDF>
      <cc:Work
         rdf:about="">
        <dc:format>image/svg+xml</dc:format>
        <dc:type
           rdf:resource="http://purl.org/dc/dcmitype/StillImage" />
        <dc:title />
      </cc:Work>
    </rdf:RDF>
  </metadata>
  <defs
     id="defs7316" />
  <sodipodi:namedview
     pagecolor="#ffffff"
     bordercolor="#666666"
     inkscape:document-rotation="0"
     borderopacity="1"
     objecttolerance="10"
     gridtolerance="10"
     guidetolerance="10"
     inkscape:pageopacity="0"
     inkscape:pageshadow="2"
     inkscape:window-width="1680"
     inkscape:window-height="1005"
     id="namedview7314"
     showgrid="false"
     inkscape:zoom="0.50587555"
     inkscape:cx="458.85052"
     inkscape:cy="508.1087"
     inkscape:window-x="0"
     inkscape:window-y="23"
     inkscape:window-maximized="1"
     inkscape:current-layer="c:\kuniform\5u\5-uniform_218.svg" />
  <!-- X Coordinate transform: fx(x)=(x+72.17139)*0.85270905-->
  <!-- Y Coordinate transform: fy(y)=(1077.2158-y)*0.85270905 -->
  <path
     d="m 928.325,121.433 h 42.636 M 891.402,915.491 912.72,878.567 M 41.754,841.644 H 84.389 M 747.89,41.874 769.208,4.951 m 122.194,137.799 21.318,36.924 36.923,21.318 M 84.389,142.75 H 41.754 L 4.831,121.433 m 116.482,0 21.318,-36.924 M 41.754,216.597 20.436,179.674 41.754,142.75 M 790.525,41.874 769.208,4.951 m 79.559,910.54 h 42.635 l 36.923,21.317 m -116.482,0 -21.318,36.924 m 137.8,-153.406 h 42.636 M 142.631,857.249 121.313,820.326 84.389,799.008 H 41.754 L 4.831,820.326 M 84.389,915.491 63.072,878.567 41.754,841.644 4.831,820.326 M 222.189,63.192 243.507,26.268 M 185.266,84.509 H 142.631 L 105.707,63.192 84.389,26.268 m 21.318,852.299 -21.318,36.924 v 42.635 M 710.967,63.192 689.649,26.268 M 848.767,142.75 h 42.635 m 0,73.847 L 870.084,179.674 848.767,142.75 811.843,121.433 790.525,84.509 V 41.874 L 811.843,4.951 M 41.754,915.491 h 42.635 l 36.924,21.317 M 105.707,179.674 84.389,142.75 m 0,73.847 L 63.072,179.674 41.754,142.75 V 100.115 L 20.436,63.192 m 807.013,815.375 21.318,36.924 v 42.635 m -58.242,-58.241 21.318,36.923 m -85.271,0 21.318,36.924 M 41.754,26.268 H 84.389 L 121.313,4.951 m 807.012,349.446 h 42.636 M 848.767,841.644 h 42.635 m 58.241,-100.877 -36.923,21.318 -21.318,36.923 v 42.636 l 21.318,36.923 36.923,21.318 M 891.402,142.75 V 100.115 L 912.72,63.192 949.643,41.874 m -626.577,894.934 21.318,36.924 M 185.266,857.249 h -42.635 l -36.924,21.318 H 63.072 20.436 m 122.195,-95.164 21.317,36.923 21.318,36.923 36.923,21.318 21.318,36.924 v 42.635 l 21.318,36.923 M 344.384,41.874 365.701,4.951 m -223.07,153.405 21.317,-36.923 21.318,-36.924 36.923,-21.317 h 42.636 42.635 M 243.507,100.115 264.825,63.192 286.143,26.268 323.066,4.951 M 84.389,142.75 121.313,121.433 h 42.635 42.636 M 610.09,4.951 l 36.923,21.317 21.318,36.924 21.318,36.923 m 137.8,79.559 h 42.635 42.636 M 41.754,915.491 20.436,878.567 41.754,841.644 V 799.008 L 20.436,762.085 M 387.019,41.874 365.701,4.951 M 487.896,26.268 524.819,4.951 m 100.877,58.241 h 42.635 42.636 l 36.923,21.317 h 42.635 L 827.449,63.192 848.767,26.268 M 41.754,915.491 v 42.635 M 185.266,158.356 163.948,121.433 142.631,84.509 V 41.874 L 121.313,4.951 M 4.831,237.915 41.754,259.233 h 42.635 l 36.924,-21.318 21.318,-36.923 V 158.356 L 121.313,121.433 84.389,100.115 H 41.754 L 4.831,121.433 M 41.754,449.562 20.436,412.638 41.754,375.715 M 20.436,762.085 41.754,725.162 V 682.526 L 20.436,645.603 41.754,608.679 m 706.136,291.206 21.318,36.923 21.317,36.924 m 137.8,-386.37 h 42.636 M 949.643,433.956 912.72,412.638 891.402,375.715 v -42.636 l 21.318,-36.923 36.923,-21.318 m -137.8,661.97 36.924,21.318 h 42.635 l 36.923,-21.318 21.318,-36.923 v -42.636 l -21.318,-36.923 -36.923,-21.318 h -42.635 l -36.924,21.318 -21.318,36.923 v 42.636 l -21.317,36.923 -21.318,36.924 M 891.402,682.526 912.72,645.603 M 20.436,63.192 41.754,26.268 m 807.013,190.329 21.317,-36.923 21.318,-36.924 36.923,-21.317 21.318,-36.924 V 41.874 L 928.325,4.951 M 891.402,26.268 928.325,4.951 m -583.941,894.934 21.317,36.923 21.318,36.924 M 121.313,820.326 h 42.635 42.636 m -21.318,-36.923 -21.318,36.923 -21.317,36.923 v 42.636 l -21.318,36.923 -36.924,21.318 H 41.754 L 4.831,936.808 M 286.143,100.115 264.825,63.192 243.507,26.268 m 403.506,73.847 21.318,-36.923 21.318,-36.924 m 201.753,73.847 h -42.635 l -36.924,21.318 -21.318,36.923 v 42.636 l 21.318,36.923 36.924,21.318 h 42.635 l 36.923,-21.318 21.318,-36.923 V 158.356 L 928.325,121.433 Z M 206.584,4.951 243.507,26.268 h 42.636 l 21.317,36.924 36.924,21.317 h 42.635 L 423.943,63.192 445.26,26.268 m 100.877,58.241 h 42.635 M 20.436,529.121 41.754,492.197 V 449.562 L 63.072,412.638 84.389,375.715 M 20.436,296.156 41.754,259.233 V 216.597 L 63.072,179.674 84.389,142.75 v -42.635 l 21.318,-36.923 36.924,-21.318 h 42.635 l 36.923,21.318 21.318,36.923 v 42.635 l -21.318,36.924 -36.923,21.318 H 142.631 L 105.707,179.674 M 41.754,682.526 h 42.635 l 36.924,21.318 21.318,36.923 v 42.636 L 121.313,820.326 84.389,841.644 63.072,878.567 41.754,915.491 4.831,936.808 M 84.389,449.562 63.072,412.638 41.754,375.715 V 333.079 L 20.436,296.156 M 84.389,608.679 63.072,645.603 41.754,682.526 4.831,703.844 m 79.558,-21.318 21.318,-36.923 m 0,0 -21.318,-36.924 m 807.013,0 21.318,36.924 36.923,21.317 M 891.402,449.562 912.72,412.638 m -63.953,269.888 21.317,-36.923 21.318,-36.924 v -42.635 l 21.318,-36.923 36.923,-21.318 m -562.624,392.082 -21.318,36.923 -21.317,36.924 m 42.635,-73.847 21.318,36.923 m 36.923,-21.317 h 42.636 M 142.631,899.885 h 42.635 l 36.923,-21.318 21.318,-36.923 v -42.636 l -21.318,-36.923 -36.923,-21.318 h -42.635 l -36.924,21.318 -21.318,36.923 v 42.636 l 21.318,36.923 z M 323.066,4.951 344.384,41.874 v 42.635 l -21.318,36.924 -36.923,21.317 H 243.507 L 206.584,121.433 185.266,84.509 V 41.874 L 206.584,4.951 M 610.09,121.433 588.772,84.509 V 41.874 L 610.09,4.951 m 137.8,196.041 h 42.635 m 0,73.846 -21.317,-36.923 -21.318,-36.923 m 42.635,73.846 21.318,-36.923 M 524.819,121.433 h 42.636 42.635 l 36.923,21.317 h 42.636 L 726.572,121.433 747.89,84.509 V 41.874 L 726.572,4.951 M 105.707,412.638 H 63.072 20.436 m 100.877,-58.241 21.318,-36.923 m 0,306.811 -21.318,-36.923 -36.924,-21.318 H 41.754 L 4.831,587.362 m 843.936,21.317 21.317,36.924 21.318,36.923 v 42.636 l 21.318,36.923 36.923,21.318 21.318,36.923 -21.318,36.923 -36.923,21.318 H 870.084 827.449 L 790.525,857.249 H 747.89 l -36.923,21.318 -21.318,36.924 v 42.635 l -21.318,36.923 m 180.436,-545.487 21.317,-36.924 21.318,-36.923 M 811.843,4.951 848.767,26.268 h 42.635 l 21.318,36.924 36.923,21.317 21.318,36.924 -21.318,36.923 -36.923,21.318 -21.318,36.923 v 42.636 l 21.318,36.923 36.923,21.318 21.318,36.923 -21.318,36.924 -36.923,21.317 h -42.636 -42.635 m -36.924,328.129 21.318,-36.923 m 15.606,-58.241 h 42.635 42.636 l 36.923,-21.318 21.318,-36.923 -21.318,-36.924 -36.923,-21.317 -21.318,-36.924 v -42.635 l -21.318,-36.924 -21.317,-36.923 m -424.824,502.852 21.317,36.924 v 42.635 m 63.953,-79.559 -21.317,36.924 v 42.635 m 58.241,-100.877 h 42.635 l 36.924,21.318 21.317,36.924 v 42.635 l 21.318,36.923 M 243.507,799.008 h 42.636 m 36.923,137.8 21.318,-36.923 V 857.249 L 323.066,820.326 286.143,799.008 264.825,762.085 243.507,725.162 M 408.337,4.951 445.26,26.268 h 42.636 l 21.317,36.924 36.924,21.317 21.318,36.924 21.317,36.923 m 137.8,79.559 h 42.636 42.635 l 36.924,-21.318 h 42.635 l 36.923,21.318 21.318,36.923 v 42.636 l -21.318,36.923 -36.923,21.318 h -42.635 l -36.924,-21.318 -21.318,-36.923 v -42.636 m -42.635,0 21.318,-36.923 21.317,-36.923 36.924,-21.318 21.318,-36.924 V 100.115 L 827.449,63.192 790.525,41.874 H 747.89 l -36.923,21.318 -21.318,36.923 v 42.635 l 21.318,36.924 36.923,21.318 M 487.896,142.75 H 445.26 L 408.337,121.433 387.019,84.509 V 41.874 L 408.337,4.951 m 137.8,153.405 21.318,-36.923 21.317,-36.924 36.924,-21.317 21.317,-36.924 h 42.636 L 726.572,4.951 M 142.631,391.321 121.313,354.397 84.389,333.079 H 41.754 L 4.831,354.397 m 180.435,-36.923 -21.318,36.923 -21.317,36.924 v 42.635 l -21.318,36.923 -36.924,21.318 H 41.754 L 4.831,470.879 m 217.358,-174.723 21.318,-36.923 m -122.194,328.129 21.318,-36.924 m 42.635,73.847 -21.318,-36.923 -21.317,-36.924 V 507.803 L 121.313,470.879 84.389,449.562 H 41.754 L 4.831,470.879 M 747.89,740.767 h 42.635 m 0,0 36.924,21.318 21.318,36.923 v 42.636 l -21.318,36.923 -36.924,21.318 H 747.89 l -36.923,-21.318 -21.318,-36.923 v -42.636 l 21.318,-36.923 m -63.954,36.923 h 42.636 m 100.876,-365.052 21.318,36.923 36.924,21.318 h 42.635 l 36.923,-21.318 21.318,-36.923 v -42.635 l -21.318,-36.924 -36.923,-21.318 h -42.635 l -36.924,21.318 -21.318,36.924 z M 811.843,703.844 790.525,666.92 M 445.26,841.644 h 42.636 m 36.923,-21.318 h 42.636 42.635 M 222.189,762.085 h 42.636 42.635 m 15.606,174.723 -36.923,21.318 h -42.636 l -36.923,-21.318 -21.318,-36.923 v -42.636 l 21.318,-36.923 36.923,-21.318 21.318,-36.923 21.318,-36.923 m 137.8,-545.488 21.317,-36.924 m -100.876,58.242 h 42.635 m -63.953,36.923 21.318,-36.923 m 0,0 v -42.636 l -21.318,-36.923 -36.923,-21.318 h -42.636 l -36.923,21.318 -21.318,36.923 v 42.636 l 21.318,36.923 36.923,21.318 h 42.636 m 424.824,36.923 -21.318,-36.923 v -42.636 l 21.318,-36.923 36.923,-21.318 h 42.635 l 36.924,21.318 21.318,36.923 v 42.636 l -21.318,36.923 -36.924,21.318 H 747.89 Z M 509.213,179.674 487.896,142.75 M 185.266,391.321 163.948,354.397 142.631,317.474 V 274.838 L 121.313,237.915 84.389,216.597 H 41.754 L 4.831,237.915 m 0,116.482 36.923,21.318 h 42.635 l 36.924,-21.318 h 42.635 42.636 m -100.877,291.206 36.924,-21.318 h 42.635 l 36.923,21.318 21.318,36.923 v 42.636 l -21.318,36.923 -36.923,21.318 H 142.631 L 105.707,762.085 84.389,725.162 V 682.526 L 63.072,645.603 41.754,608.679 V 566.044 L 20.436,529.121 M 4.831,703.844 41.754,725.162 h 42.635 l 36.924,-21.318 21.318,-36.924 v -42.635 l 21.317,-36.923 21.318,-36.924 M 4.831,587.362 41.754,608.679 h 42.635 l 36.924,-21.317 h 42.635 42.636 m 519.988,116.482 h 42.636 42.635 l 36.924,-21.318 h 42.635 l 36.923,21.318 21.318,36.923 v 42.636 l -21.318,36.923 -36.923,21.318 -21.318,36.923 -21.317,36.924 -36.924,21.317 h -42.635 -42.636 l -36.923,-21.317 h -42.636 l -36.923,21.317 m -21.318,-79.559 21.318,-36.923 36.923,-21.318 21.318,-36.923 21.318,-36.923 m -63.953,36.923 h 42.635 42.636 l 36.923,-21.318 21.318,-36.923 21.317,-36.924 v -42.635 l 21.318,-36.923 36.924,-21.318 h 42.635 l 36.923,21.318 21.318,36.923 v 42.635 l -21.318,36.924 -36.923,21.318 h -42.635 l -36.924,-21.318 m -547.018,291.205 21.318,-36.923 v -42.635 l 21.317,-36.924 36.924,-21.318 h 42.635 l 36.924,21.318 h 42.635 42.635 l 36.924,-21.318 21.318,-36.923 21.317,-36.923 m 201.753,-275.6 21.318,-36.924 m -21.318,36.924 -21.317,-36.924 -21.318,-36.923 m 143.512,524.17 V 915.491 L 870.084,878.567 848.767,841.644 811.843,820.326 790.525,783.403 V 740.767 L 769.208,703.844 747.89,666.92 m -541.306,269.888 36.923,-21.317 h 42.636 l 36.923,21.317 h 42.635 42.636 l 36.923,21.318 h 42.636 l 36.923,-21.318 21.318,-36.923 V 857.249 L 524.819,820.326 487.896,799.008 H 445.26 l -36.923,21.318 -21.318,36.923 v 42.636 M 344.384,783.403 v -42.636 l -21.318,-36.923 -36.923,-21.318 h -42.636 l -36.923,21.318 -21.318,36.923 v 42.636 l 21.318,36.923 36.923,21.318 h 42.636 l 36.923,-21.318 z M 445.26,216.597 466.578,179.674 487.896,142.75 524.819,121.433 546.137,84.509 V 41.874 L 524.819,4.951 m -281.312,328.128 21.318,-36.923 21.318,-36.923 36.923,-21.318 h 42.635 42.636 m 79.559,-95.165 v -42.635 l 21.317,-36.923 36.924,-21.318 h 42.635 l 36.924,21.318 21.317,36.923 v 42.635 l -21.317,36.924 -36.924,21.318 h -42.635 l -36.924,-21.318 h -42.635 -42.635 l -36.924,21.318 -21.318,36.923 -21.317,36.923 m -36.924,21.318 h -42.635 -42.636 l -36.923,21.318 H 142.631 L 105.707,296.156 84.389,259.233 v -42.636 l 21.318,-36.923 m 541.306,79.559 h 42.636 m 0,73.846 -21.318,-36.923 -21.318,-36.923 m 42.636,73.846 21.318,-36.923 m -467.46,36.923 v 42.636 l -21.318,36.923 -36.923,21.318 H 142.631 L 105.707,412.638 84.389,375.715 v -42.636 l 21.318,-36.923 36.924,-21.318 h 42.635 l 36.923,21.318 z m 42.636,0 -21.318,-36.923 -21.318,-36.923 v -42.636 l -21.318,-36.923 -36.923,-21.318 h -42.635 l -36.924,21.318 H 63.072 20.436 m 63.953,429.005 v -42.635 l 21.318,-36.923 36.924,-21.318 h 42.635 l 36.923,21.318 21.318,36.923 v 42.635 l -21.318,36.924 -36.923,21.317 H 142.631 L 105.707,645.603 H 63.072 20.436 m 626.577,79.559 21.318,36.923 21.318,36.923 36.923,21.318 21.318,36.923 v 42.636 l -21.318,36.923 -36.923,21.318 H 647.013 L 610.09,936.808 588.772,899.885 v -42.636 l -21.317,-36.923 -21.318,-36.923 m 201.753,-275.6 21.318,-36.924 21.317,-36.923 m -63.953,36.923 h 42.636 42.635 l 36.924,-21.317 h 42.635 l 36.923,21.317 21.318,36.924 v 42.635 l -21.318,36.924 -36.923,21.317 H 848.767 L 811.843,587.362 790.525,550.438 V 507.803 M 689.649,725.162 v -42.636 l 21.318,-36.923 36.923,-21.318 h 42.635 l 36.924,21.318 21.318,36.923 v 42.636 l -21.318,36.923 -36.924,21.318 H 747.89 l -36.923,-21.318 z m -345.265,15.605 h 42.635 m 238.677,21.318 -36.924,-21.318 h -42.635 l -36.924,21.318 -21.317,36.923 v 42.636 l 21.317,36.923 36.924,21.318 h 42.635 l 36.924,-21.318 21.317,-36.923 V 799.008 Z M 387.019,740.767 365.701,703.844 344.384,666.92 M 387.019,274.838 365.701,237.915 344.384,200.992 307.46,179.674 286.143,142.75 V 100.115 L 307.46,63.192 344.384,41.874 h 42.635 l 36.924,21.318 21.317,36.923 v 42.635 l 21.318,36.924 21.318,36.923 m 137.8,79.559 h 42.635 42.636 l 36.923,-21.318 h 42.635 l 36.924,21.318 21.318,36.923 v 42.636 l -21.318,36.923 -36.924,21.318 H 747.89 l -36.923,-21.318 -21.318,-36.923 v -42.636 m -42.636,0 21.318,-36.923 21.318,-36.923 36.923,-21.318 21.318,-36.923 v -42.636 l -21.318,-36.923 -36.923,-21.318 h -42.636 l -36.923,21.318 -21.318,36.923 v 42.636 l 21.318,36.923 36.923,21.318 m -100.876,-58.241 -21.318,36.923 -36.923,21.318 H 445.26 l -36.923,-21.318 -21.318,-36.923 v -42.636 l 21.318,-36.923 36.923,-21.318 h 42.636 l 36.923,21.318 21.318,36.923 z m -323.948,328.129 21.318,-36.924 m -36.923,-137.8 36.923,21.318 h 42.636 l 36.923,-21.318 21.318,-36.923 v -42.636 l -21.318,-36.923 -36.923,-21.318 h -42.636 l -36.923,21.318 -21.318,36.923 v 42.636 z m 79.559,211.647 -21.318,-36.923 -21.318,-36.924 m 345.265,291.206 v -42.636 l 21.318,-36.923 36.923,-21.318 h 42.636 l 36.923,21.318 21.318,36.923 v 42.636 l -21.318,36.923 -36.923,21.318 H 647.013 L 610.09,820.326 Z M 790.525,550.438 H 747.89 l -36.923,-21.317 -21.318,-36.924 v -42.635 l 21.318,-36.924 36.923,-21.317 h 42.635 l 36.924,21.317 21.318,36.924 v 42.635 l -21.318,36.924 z m -100.876,15.606 21.318,-36.923 M 323.066,703.844 h 42.635 42.636 m -21.318,36.923 36.924,21.318 21.317,36.923 v 42.636 l -21.317,36.923 -36.924,21.318 H 344.384 L 307.46,878.567 286.143,841.644 v -42.636 l 21.317,-36.923 36.924,-21.318 21.317,-36.923 21.318,-36.924 m -100.876,-407.687 21.317,36.923 36.924,21.318 h 42.635 l 36.924,-21.318 21.317,-36.923 v -42.636 l -21.317,-36.923 -36.924,-21.318 h -42.635 l -36.924,21.318 -21.317,36.923 z m 360.87,-42.636 -36.923,21.318 -21.318,36.923 v 42.636 l 21.318,36.923 36.923,21.318 h 42.636 l 36.923,-21.318 21.318,-36.923 V 274.838 L 726.572,237.915 689.649,216.597 Z M 546.137,317.474 h 42.635 m -345.265,248.57 21.318,-36.923 21.318,-36.924 m -79.559,95.165 36.923,-21.318 h 42.636 l 36.923,21.318 21.318,36.923 v 42.635 l -21.318,36.924 -36.923,21.318 H 243.507 L 206.584,703.844 185.266,666.92 v -42.635 z m 36.923,-95.165 v -42.635 l -21.318,-36.924 -36.923,-21.317 h -42.635 l -36.924,21.317 -21.318,36.924 v 42.635 l 21.318,36.924 36.924,21.317 h 42.635 l 36.923,-21.317 h 42.636 42.635 m 382.189,36.923 -21.318,-36.923 -21.318,-36.924 m 0,73.847 21.318,-36.923 21.318,-36.924 M 445.26,682.526 h 42.636 m -100.877,100.877 36.924,-21.318 21.317,-36.923 v -42.636 l -21.317,-36.923 -36.924,-21.318 h -42.635 l -36.924,21.318 -21.317,36.923 v 42.636 l 21.317,36.923 36.924,21.318 z M 588.772,391.321 567.455,354.397 546.137,317.474 m -21.318,36.923 h 42.636 42.635 m -287.024,116.482 21.318,-36.923 m -137.8,153.406 36.923,21.317 h 42.636 l 36.923,-21.317 21.318,-36.924 v -42.635 l -21.318,-36.924 -36.923,-21.317 h -42.636 l -36.923,21.317 -21.318,36.924 v 42.635 z m 419.112,-58.241 h 42.635 42.636 l 36.923,-21.318 h 42.635 l 36.924,21.318 21.318,36.923 v 42.635 l -21.318,36.924 -36.924,21.317 H 747.89 l -36.923,-21.317 -21.318,-36.924 v -42.635 m -100.877,58.241 21.318,-36.923 m -63.953,36.923 h 42.635 m -164.829,21.318 h 42.635 42.635 m -122.194,328.129 21.318,-36.924 36.923,-21.317 21.318,-36.924 21.318,-36.923 36.923,-21.318 21.318,-36.923 V 740.767 L 524.819,703.844 487.896,682.526 466.578,645.603 445.26,608.679 M 747.89,391.321 726.572,354.397 689.649,333.079 h -42.636 l -36.923,21.318 -21.318,36.924 v 42.635 l 21.318,36.923 36.923,21.318 h 42.636 l 36.923,-21.318 21.318,-36.923 z m -201.753,0 21.318,-36.924 21.317,-36.923 36.924,-21.318 21.317,-36.923 v -42.636 l -21.317,-36.923 -36.924,-21.318 h -42.635 l -36.924,21.318 -21.317,36.923 v 42.636 l 21.317,36.923 36.924,21.318 M 445.26,375.715 h 42.636 m -63.953,36.923 21.317,-36.923 m -100.876,132.088 21.317,-36.924 21.318,-36.923 m 0,73.847 -21.318,-36.924 -21.317,-36.923 m 244.388,190.329 36.924,21.318 21.317,36.923 v 42.636 l -21.317,36.923 -36.924,21.318 h -42.635 l -36.924,-21.318 -21.317,-36.923 v -42.636 l 21.317,-36.923 36.924,-21.318 21.318,-36.923 21.317,-36.924 m 0,0 21.318,36.924 36.923,21.317 h 42.636 l 36.923,-21.317 21.318,-36.924 v -42.635 l -21.318,-36.924 -36.923,-21.317 h -42.636 l -36.923,21.317 -21.318,36.924 z m -63.953,36.924 h 42.636 42.635 M 524.819,936.808 487.896,915.491 466.578,878.567 445.26,841.644 408.337,820.326 387.019,783.403 v -42.636 l 21.318,-36.923 36.923,-21.318 21.318,-36.923 21.318,-36.924 M 445.26,375.715 v -42.636 l -21.317,-36.923 -36.924,-21.318 h -42.635 l -36.924,21.318 -21.317,36.923 v 42.636 l 21.317,36.923 36.924,21.318 h 42.635 l 36.924,-21.318 h 42.635 42.635 m 0,0 -21.317,-36.923 v -42.636 l 21.317,-36.923 36.924,-21.318 h 42.635 l 36.924,21.318 21.317,36.923 v 42.636 l -21.317,36.923 -36.924,21.318 h -42.635 z m -63.953,36.924 21.318,-36.924 21.318,-36.923 m -143.512,58.241 v -42.635 l -21.318,-36.924 -36.923,-21.318 h -42.636 l -36.923,21.318 -21.318,36.924 v 42.635 l 21.318,36.923 36.923,21.318 h 42.636 l 36.923,-21.318 h 42.635 42.636 m 15.606,58.242 21.317,36.923 v 42.635 l -21.317,36.924 -36.924,21.317 H 344.384 L 307.46,645.603 286.143,608.679 v -42.635 l 21.317,-36.923 36.924,-21.318 h 42.635 z m 186.147,58.241 36.923,-21.318 h 42.636 l 36.923,21.318 21.318,36.923 v 42.635 l -21.318,36.924 -36.923,21.318 H 647.013 L 610.09,703.844 588.772,666.92 v -42.635 l -21.317,-36.923 -21.318,-36.924 m -58.241,15.606 H 445.26 l -36.923,21.318 -21.318,36.923 v 42.635 l 21.318,36.924 36.923,21.318 h 42.636 l 36.923,-21.318 21.318,-36.924 v -42.635 l -21.318,-36.923 z m 0,-116.482 -21.318,-36.924 -21.318,-36.923 -36.923,-21.318 -21.318,-36.923 v -42.636 l 21.318,-36.923 36.923,-21.318 h 42.636 l 36.923,21.318 21.318,36.923 v 42.636 l -21.318,36.923 -36.923,21.318 m 0,73.847 36.923,21.317 21.318,36.924 v 42.635 l -21.318,36.924 -36.923,21.317 H 445.26 l -36.923,-21.317 -21.318,-36.924 v -42.635 l 21.318,-36.924 36.923,-21.317 z m -42.636,42.635 -21.317,36.924 -36.924,21.317 H 344.384 L 307.46,529.121 286.143,492.197 v -42.635 l 21.317,-36.924 36.924,-21.317 h 42.635 l 36.924,21.317 21.317,36.924 z m 63.953,36.924 -21.317,36.923 v 42.635 l 21.317,36.924 36.924,21.317 h 42.635 l 36.924,-21.317 21.317,-36.924 V 566.044 L 625.696,529.121 588.772,507.803 H 546.137 Z M 487.896,492.197 H 445.26 l -36.923,-21.318 -21.318,-36.923 v -42.635 l 21.318,-36.924 36.923,-21.318 h 42.636 l 36.923,21.318 21.318,36.924 v 42.635 l -21.318,36.923 z m 0,0 21.317,36.924 36.924,21.317 h 42.635 l 36.924,-21.317 21.317,-36.924 v -42.635 l -21.317,-36.924 -36.924,-21.317 h -42.635 l -36.924,21.317 -21.317,36.924 z"
     style="opacity:1;fill-opacity:0;stroke:#000000;stroke-width:16;stroke-miterlimit:4;stroke-dasharray:none;stroke-opacity:1;stop-opacity:1"
     id="path7309" />
</svg>
