<?xml version="1.0" encoding="UTF-8" standalone="no"?>
<svg
   xmlns:dc="http://purl.org/dc/elements/1.1/"
   xmlns:cc="http://creativecommons.org/ns#"
   xmlns:rdf="http://www.w3.org/1999/02/22-rdf-syntax-ns#"
   xmlns:svg="http://www.w3.org/2000/svg"
   xmlns="http://www.w3.org/2000/svg"
   xmlns:sodipodi="http://sodipodi.sourceforge.net/DTD/sodipodi-0.dtd"
   xmlns:inkscape="http://www.inkscape.org/namespaces/inkscape"
   inkscape:version="1.0beta1 (32d4812, 2019-09-19)"
   sodipodi:docname="5-uniform_236.svg"
   id="c:\kuniform\5u\5-uniform_236.svg"
   height="978.98517"
   width="1000.0"
   version="1.0">
  <metadata
     id="metadata139153">
    <rdf:RDF>
      <cc:Work
         rdf:about="">
        <dc:format>image/svg+xml</dc:format>
        <dc:type
           rdf:resource="http://purl.org/dc/dcmitype/StillImage" />
        <dc:title></dc:title>
      </cc:Work>
    </rdf:RDF>
  </metadata>
  <defs
     id="defs139151" />
  <sodipodi:namedview
     inkscape:current-layer="c:\kuniform\5u\5-uniform_236.svg"
     inkscape:window-maximized="1"
     inkscape:window-y="23"
     inkscape:window-x="0"
     inkscape:cy="461.76519"
     inkscape:cx="230.31294"
     inkscape:zoom="0.49491202"
     showgrid="false"
     id="namedview139149"
     inkscape:window-height="1005"
     inkscape:window-width="1680"
     inkscape:pageshadow="2"
     inkscape:pageopacity="0"
     guidetolerance="10"
     gridtolerance="10"
     objecttolerance="10"
     borderopacity="1"
     inkscape:document-rotation="0"
     bordercolor="#666666"
     pagecolor="#ffffff" />
  <!-- X Coordinate transform: fx(x)=(x+80.75)*0.86095566-->
  <!-- Y Coordinate transform: fy(y)=(1068.5457-y)*0.86095566 -->
  <path
     d="M 112.57,42.127 91.046,4.846 M 47.998,825.017 26.474,787.736 m 129.144,149.122 -21.524,37.281 m -21.524,-37.281 21.524,-37.28 m -21.524,-37.281 21.524,37.281 21.524,37.28 21.524,37.281 m 731.812,-74.561 h 43.048 m -21.524,-37.281 h 43.048 m -64.572,37.281 21.524,-37.281 M 844.382,42.127 822.858,4.846 m 129.144,149.122 h 43.047 M 155.618,42.127 177.142,4.846 M 47.998,228.529 69.522,191.249 m -21.524,37.28 -21.524,-37.28 21.524,-37.281 21.524,-37.28 21.524,-37.281 21.524,-37.28 m 882.479,111.841 -21.523,-37.28 M 4.95,750.456 26.474,713.175 m 21.524,111.842 h 43.048 m 21.524,111.841 h 43.048 43.048 M 887.43,42.127 865.906,4.846 m -21.524,932.012 21.524,-37.28 m 43.048,-74.561 21.524,-37.281 21.524,-37.28 m 0,-596.488 -21.524,-37.28 L 908.954,79.407 887.43,42.127 908.954,4.846 M 822.858,79.407 844.382,42.127 865.906,4.846 M 155.618,42.127 h 43.048 m -21.524,37.28 21.524,-37.28 m 731.812,894.731 21.524,-37.28 21.524,-37.281 21.523,-37.28 M 26.474,638.615 4.95,601.334 M 112.57,787.736 H 69.522 26.474 L 4.95,750.456 m 925.528,186.402 h 43.048 M 69.522,340.371 H 26.474 m 839.432,559.207 -21.524,-37.281 m 21.524,-37.28 21.524,-37.281 m -21.524,37.281 h 43.048 m 0,-74.561 h 43.048 43.047 m -258.286,149.122 21.524,37.28 m 64.571,-37.28 h 43.048 43.048 l 21.524,37.28 21.524,37.281 m -365.906,-37.281 21.523,37.281 M 973.526,340.371 995.049,303.09 M 844.382,116.688 h 43.048 43.048 43.048 M 779.811,79.407 758.287,42.127 736.763,4.846 m 43.048,74.561 h 43.047 m 43.048,74.561 -21.524,-37.28 m 64.572,111.841 21.524,-37.28 21.524,-37.281 21.524,-37.28 21.523,-37.281 m -882.479,782.89 -21.524,37.281 21.524,37.28 21.524,37.281 M 69.522,42.127 h 43.048 43.048 l 21.524,37.28 21.524,37.281 M 47.998,899.578 26.474,862.297 M 284.761,42.127 h 43.048 M 134.094,153.968 112.57,116.688 91.046,79.407 69.522,42.127 91.046,4.846 m 904.003,74.561 -21.523,-37.28 m -43.048,671.048 -21.524,37.281 -21.524,37.28 21.524,37.281 21.524,37.28 21.524,37.281 21.524,37.28 -21.524,37.281 M 134.094,153.968 h 43.048 m 0,0 21.524,-37.28 21.523,-37.281 M 26.474,265.81 47.998,228.529 h 43.048 43.048 m 0,0 -21.524,-37.28 H 69.522 26.474 m 387.43,745.609 21.524,37.281 M 284.761,936.858 h 43.048 43.048 43.047 43.048 m 86.096,0 -21.524,37.281 M 69.522,638.615 47.998,601.334 m 21.524,37.281 H 26.474 m 86.096,74.56 H 69.522 26.474 L 4.95,675.895 m 86.096,149.122 21.524,-37.281 21.524,-37.28 m 107.619,111.841 21.524,37.281 21.524,37.28 21.524,37.281 M 47.998,452.212 H 4.95 m 43.048,447.366 -21.524,37.28 M 4.95,452.212 26.474,414.932 h 43.048 m -21.524,37.28 21.524,-37.28 21.524,-37.281 m 710.288,484.646 21.524,37.281 21.524,37.28 m -86.095,-74.561 h 43.047 43.048 m -645.716,-74.561 -21.524,37.281 -21.524,37.28 -21.524,37.281 H 91.046 47.998 4.95 M 930.478,787.736 908.954,750.456 887.43,713.175 m 64.572,-111.841 21.524,-37.28 21.523,-37.281 m -86.095,149.122 h 43.048 43.047 m -107.619,37.28 21.524,-37.28 m -301.335,223.683 21.524,37.28 m -43.047,0 21.523,-37.28 m 215.239,-745.61 21.524,-37.28 -21.524,-37.281 -21.524,-37.28 m 43.048,149.122 21.524,-37.281 21.524,-37.28 21.524,-37.281 21.524,-37.28 -21.524,-37.281 m -43.048,223.683 -21.524,-37.28 -21.524,-37.281 M 650.667,79.407 h 43.048 m -43.048,0 21.524,-37.28 h 43.048 43.048 43.047 43.048 43.048 43.048 43.048 M 241.713,116.688 263.237,79.407 284.761,42.127 306.285,4.846 M 155.618,116.688 h 43.048 43.047 43.048 m -193.715,111.841 21.524,-37.28 21.524,-37.281 21.524,-37.28 21.524,-37.281 h 43.047 43.048 l 21.524,37.281 M 564.572,79.407 586.096,42.127 M 521.524,79.407 500,42.127 521.524,4.846 M 284.761,862.297 H 241.713 198.666 155.618 112.57 L 91.046,825.017 69.522,787.736 m 408.954,111.842 -21.524,37.28 -21.524,37.281 m 86.096,-74.561 21.524,37.28 m -107.62,-37.28 h 43.048 43.048 M 91.046,601.334 H 47.998 4.95 m 193.716,186.402 -21.524,-37.28 m -86.096,0 h 43.048 43.048 M 47.998,526.773 h 43.048 m 64.572,260.963 -21.524,-37.28 -21.524,-37.281 -21.524,-37.28 -21.524,-37.28 21.524,-37.281 21.524,-37.28 m 0,-149.122 L 91.046,377.651 69.522,340.371 47.998,303.09 26.474,265.81 m 21.524,111.841 h 43.048 43.048 m 860.955,298.244 -21.523,-37.28 -21.524,-37.281 -21.524,-37.28 m -215.239,372.804 21.524,-37.28 21.524,-37.281 21.524,-37.28 21.523,-37.281 21.524,-37.28 21.524,-37.281 m 129.144,-223.682 -21.524,-37.281 -21.524,-37.28 -21.524,-37.281 m -172.191,-223.683 21.524,-37.28 21.524,-37.281 21.523,-37.28 21.524,-37.281 m 43.048,298.244 h 43.048 43.048 43.047 M 478.476,79.407 h 43.048 43.048 43.047 43.048 l 21.524,37.281 21.524,37.28 M 500,116.688 521.524,79.407 543.048,42.127 m -86.096,74.561 -21.524,-37.281 -21.524,-37.28 m 43.048,74.561 H 500 m -301.334,149.122 21.523,-37.281 21.524,-37.28 21.524,-37.281 21.524,-37.28 h 43.048 43.048 M 155.618,340.371 134.094,303.09 112.57,265.81 91.046,228.529 69.522,191.249 47.998,153.968 26.474,116.688 m 344.383,745.609 -21.524,37.281 -21.524,37.28 -21.524,37.281 M 263.237,825.017 h 43.048 m 150.667,37.28 -21.524,37.281 -21.524,37.28 -21.523,37.281 M 134.094,601.334 112.57,564.054 91.046,526.773 69.522,489.493 47.998,452.212 26.474,414.932 47.998,377.651 69.522,340.371 91.046,303.09 112.57,265.81 134.094,228.529 h 43.048 43.047 m 107.62,633.768 -21.524,-37.28 -21.524,-37.281 -21.524,-37.28 m 0,0 -21.524,37.28 21.524,37.281 21.524,37.28 h 43.048 43.048 M 69.522,564.054 h 43.048 43.048 M 4.95,675.895 l 21.524,-37.28 21.524,-37.281 21.524,-37.28 21.524,-37.281 21.524,-37.28 21.524,-37.281 21.524,-37.28 m 0,0 -21.524,-37.281 m 624.193,410.085 h 43.047 43.048 43.048 43.048 43.048 l 21.523,-37.28 m -215.238,149.122 -21.524,-37.281 -21.524,-37.28 21.524,-37.281 M 995.049,526.773 973.526,489.493 H 930.478 887.43 m 21.524,111.841 -21.524,-37.28 m -86.096,149.121 21.524,-37.28 m 21.524,37.28 -21.524,-37.28 m 172.191,149.122 -21.523,-37.281 -21.524,-37.28 -21.524,-37.281 -21.524,-37.28 -21.524,-37.28 -21.524,-37.281 m 0,-223.683 21.524,-37.28 m -43.048,0 21.524,-37.281 m 21.524,111.842 -21.524,-37.281 -21.524,-37.28 m -43.048,-74.561 -21.523,-37.281 -21.524,-37.28 -21.524,-37.281 -21.524,-37.28 m 86.095,149.122 h 43.048 l 21.524,-37.281 21.524,-37.28 m 43.048,223.683 21.524,-37.281 21.524,-37.28 -21.524,-37.281 -21.524,-37.28 -21.524,-37.281 -21.524,-37.28 -21.524,-37.281 h -43.048 -43.047 -43.048 -43.048 -43.048 m 21.524,37.281 21.524,-37.281 21.524,-37.28 -21.524,-37.281 -21.524,-37.28 m -322.858,111.841 21.524,-37.28 21.524,-37.281 21.523,-37.28 M 177.142,303.09 h 43.047 m -64.571,37.281 h 43.048 m 0,0 21.523,-37.281 21.524,-37.28 m 538.098,559.207 h -43.048 -43.048 -43.048 -43.048 -43.047 -43.048 -43.048 -43.048 l -21.524,37.28 21.524,37.281 21.524,37.28 H 500 h 43.048 43.048 43.047 m -602.669,0 -21.524,-37.28 21.524,-37.281 21.524,-37.28 21.524,-37.281 21.524,-37.28 21.524,-37.281 21.524,-37.28 21.524,-37.28 21.524,-37.281 m 0,0 -21.524,-37.28 m 516.573,223.682 21.524,37.281 -21.524,37.28 -21.524,37.281 -21.524,37.28 -21.524,37.281 m 258.287,-447.366 21.524,-37.28 m -107.619,186.402 21.523,37.28 21.524,37.281 21.524,37.28 21.524,37.281 -21.524,37.28 -21.524,37.281 h -43.047 -43.048 -43.048 -43.048 -43.048 l -21.523,-37.281 -21.524,-37.28 m 86.095,0 -21.524,-37.281 m -43.047,0 h 43.047 43.048 M 822.858,452.212 h 43.048 l 21.524,-37.28 21.524,-37.281 -21.524,-37.28 -21.524,-37.281 -21.524,-37.28 -21.524,-37.281 m -129.143,0 h 43.048 43.048 43.047 43.048 43.048 43.048 M 629.143,191.249 607.619,153.968 586.096,116.688 564.572,79.407 543.048,42.127 521.524,4.846 m 107.619,186.403 h 43.048 m -365.906,37.28 -21.524,-37.28 -21.524,-37.281 -21.524,-37.28 L 220.189,79.407 198.666,42.127 177.142,4.846 m 193.715,186.403 21.524,-37.281 m -64.572,37.281 h 43.048 43.047 43.048 H 500 543.048 M 284.761,787.736 H 241.713 198.666 155.618 112.57 l -21.524,-37.28 -21.524,-37.281 21.524,-37.28 h 43.048 43.048 43.047 43.048 m -43.048,-149.122 -21.523,-37.28 m 0,-74.561 h 43.047 m 495.05,335.524 -21.524,-37.281 m 21.524,-37.28 h 43.048 43.047 l 21.524,-37.28 21.524,-37.281 21.524,-37.28 21.524,-37.281 m -172.191,223.683 21.524,37.28 21.524,37.281 21.523,37.28 -21.523,37.281 -21.524,37.28 h -43.048 l -21.524,-37.28 -21.524,-37.281 -21.524,-37.28 21.524,-37.281 21.524,-37.28 21.524,-37.281 21.524,-37.28 21.524,-37.28 M 500,936.858 l 21.524,-37.28 21.524,-37.281 21.524,-37.28 21.524,-37.281 21.523,-37.28 m 0,74.561 -21.523,-37.281 -21.524,-37.28 M 758.287,340.371 779.811,303.09 m 43.047,149.122 -21.524,-37.28 -21.523,-37.281 -21.524,-37.28 -21.524,-37.281 m -64.572,-37.28 21.524,-37.281 m -387.43,0 h 43.048 m -43.048,74.561 -21.524,-37.28 h -43.048 -43.047 l -21.524,37.28 -21.524,37.281 -21.524,37.28 -21.524,37.281 21.524,37.28 21.524,37.281 21.524,37.28 h 43.047 M 413.904,191.249 435.428,153.968 456.952,116.688 478.476,79.407 500,42.127 h 43.048 43.048 l 21.523,37.28 -21.523,37.281 -21.524,37.28 -21.524,37.281 -21.524,37.28 m -301.335,223.683 21.524,-37.28 21.524,-37.281 21.524,-37.28 21.524,-37.281 m 86.096,447.366 21.523,37.28 21.524,37.281 21.524,37.28 21.524,37.281 21.524,37.28 21.524,37.281 m -301.335,-298.244 21.524,37.28 21.524,37.281 h 43.048 43.048 43.048 43.047 M 241.713,638.615 h 43.048 m 64.572,37.28 -21.524,37.28 -21.524,37.281 -21.524,37.28 -21.524,37.281 -21.524,37.28 -21.524,37.281 -21.523,37.28 -21.524,37.281 M 263.237,601.334 H 220.189 177.142 134.094 91.046 l -21.524,-37.28 -21.524,-37.281 21.524,-37.28 h 43.048 43.048 43.048 43.047 m 64.572,186.402 -21.524,-37.28 -21.524,-37.281 -21.524,-37.28 -21.524,-37.281 21.524,-37.28 21.524,-37.281 m 495.05,260.963 -21.524,-37.28 -21.524,-37.28 m 64.572,-111.842 21.523,-37.28 m -64.571,111.841 h 43.048 43.047 43.048 43.048 43.048 43.047 m -279.81,37.281 21.524,-37.281 M 586.096,713.175 h 43.047 43.048 43.048 43.048 43.047 43.048 43.048 43.048 l 21.524,-37.28 21.524,-37.28 21.523,-37.281 -21.523,-37.28 H 930.478 887.43 l -21.524,-37.281 m -301.334,223.683 21.524,-37.281 m 172.191,-223.682 21.524,37.28 21.523,37.281 21.524,37.28 21.524,37.281 h 43.048 l 21.524,-37.281 21.524,-37.28 -21.524,-37.281 -21.524,-37.28 -21.524,-37.281 -21.524,-37.28 M 693.715,303.09 l 21.524,-37.28 21.524,-37.281 21.524,-37.28 21.524,-37.281 -21.524,-37.28 h -43.048 -43.048 m 43.048,223.683 -21.524,-37.281 -21.524,-37.28 m -86.095,0 21.523,-37.281 21.524,-37.28 21.524,-37.281 21.524,-37.28 21.524,-37.281 21.524,-37.28 21.524,-37.281 M 543.048,265.81 564.572,228.529 M 500,265.81 h 43.048 43.048 43.047 43.048 43.048 M 413.904,713.175 H 456.952 500 m -150.667,-37.28 -21.524,-37.28 M 284.761,489.493 263.237,452.212 241.713,414.932 220.189,377.651 198.666,340.371 177.142,303.09 H 134.094 91.046 47.998 l -21.524,37.281 21.524,37.28 21.524,37.281 h 43.048 43.048 43.048 m 129.143,223.683 h -43.048 l -21.524,37.28 -21.524,37.28 h -43.047 l -21.524,-37.28 -21.524,-37.28 -21.524,-37.281 21.524,-37.28 21.524,-37.281 21.524,-37.28 21.523,-37.281 h 43.048 43.048 m 408.954,-37.28 h 43.048 43.047 43.048 43.048 43.048 43.048 m -236.763,111.841 -21.524,-37.28 m 64.572,-186.403 21.523,-37.28 21.524,-37.281 21.524,-37.28 h 43.048 43.048 l 21.524,37.28 -21.524,37.281 -21.524,37.28 -21.524,37.281 H 844.382 801.334 758.287 715.239 672.191 M 349.333,303.09 h 43.048 m -129.144,0 21.524,-37.28 21.524,-37.281 21.524,-37.28 21.524,-37.281 h 43.048 43.047 l 21.524,37.281 -21.524,37.28 -21.524,37.281 -21.523,37.28 -21.524,37.281 M 478.476,303.09 456.952,265.81 435.428,228.529 413.904,191.249 392.381,153.968 370.857,116.688 349.333,79.407 327.809,42.127 306.285,4.846 M 478.476,303.09 h 43.048 m -193.715,111.842 -21.524,-37.281 -21.524,-37.28 -21.524,-37.281 -21.524,-37.28 -21.524,-37.281 -21.523,-37.28 -21.524,-37.281 -21.524,-37.28 H 112.57 69.522 26.474 m 645.717,521.927 -21.524,37.28 -21.524,37.28 -21.524,37.281 h -43.047 -43.048 -43.048 -43.048 l -21.524,-37.281 -21.523,-37.28 21.523,-37.28 m 86.096,74.56 21.524,37.281 -21.524,37.28 -21.524,37.281 -21.524,37.28 h -43.048 -43.047 l -21.524,-37.28 h -43.048 l -21.524,37.28 -21.524,37.281 h -43.048 l -21.523,-37.281 -21.524,-37.28 -21.524,-37.281 21.524,-37.28 21.524,-37.281 21.523,-37.28 21.524,-37.28 21.524,-37.281 21.524,-37.28 21.524,-37.281 21.524,-37.28 m 0,0 -21.524,-37.281 m 322.858,186.403 21.524,-37.281 m 21.524,37.281 -21.524,-37.281 m -64.571,111.841 -21.524,-37.28 -21.524,-37.28 m 150.667,-186.403 21.524,-37.28 M 650.667,377.651 629.143,340.371 607.619,303.09 586.096,265.81 564.572,228.529 543.048,191.249 521.524,153.968 500,116.688 478.476,79.407 h -43.048 -43.047 -43.048 l -21.524,37.281 21.524,37.28 21.524,37.281 -21.524,37.28 m 301.334,149.122 h 43.048 l 21.524,-37.28 21.524,-37.281 -21.524,-37.28 -21.524,-37.281 -21.524,-37.28 -21.524,-37.281 H 607.619 564.572 521.524 L 500,191.249 l 21.524,37.28 21.524,37.281 -21.524,37.28 m -129.143,74.561 21.523,-37.28 m -43.047,74.561 -21.524,-37.281 m -21.524,37.281 h 43.048 m 43.047,223.683 h 43.048 43.048 43.048 43.048 m -193.715,-37.281 -21.524,-37.28 m 322.858,-37.281 21.524,37.281 21.524,37.28 21.524,37.281 21.524,37.28 -21.524,37.28 -21.524,37.281 h -43.048 l -21.524,-37.281 -21.524,-37.28 -21.524,-37.28 -21.524,-37.281 m -43.047,0 h 43.047 43.048 l 21.524,-37.28 21.524,-37.281 21.524,-37.28 21.524,-37.281 M 521.524,377.651 h 43.048 M 478.476,750.456 500,713.175 l 21.524,-37.28 21.524,-37.28 21.524,-37.281 21.524,-37.28 m 215.238,-74.561 21.524,37.28 -21.524,37.281 -21.523,37.28 -21.524,37.281 h -43.048 -43.048 -43.048 -43.047 l -21.524,-37.281 -21.524,-37.28 m 64.571,-111.842 21.524,-37.28 m -107.619,-37.281 21.524,-37.28 h 43.048 43.047 43.048 l 21.524,37.28 21.524,37.281 21.524,37.28 21.524,37.281 -21.524,37.28 -21.524,37.281 h -43.048 l -21.524,-37.281 -21.524,-37.28 -21.524,-37.281 -21.523,-37.28 m -193.715,111.841 21.523,-37.28 21.524,-37.281 21.524,-37.28 21.524,-37.281 -21.524,-37.28 h -43.048 -43.047 l -21.524,37.28 -21.524,37.281 -21.524,37.28 -21.524,37.281 21.524,37.28 21.524,37.281 21.524,37.28 h 43.048 m 43.047,74.561 h -43.047 -43.048 -43.048 -43.048 l -21.524,-37.28 -21.524,-37.281 21.524,-37.28 h 43.048 43.048 43.048 43.047 43.048 H 500 m -107.619,410.085 -21.524,-37.281 -21.524,-37.28 -21.524,-37.281 21.524,-37.28 21.524,-37.281 21.524,-37.28 21.523,-37.281 21.524,-37.28 21.524,-37.28 21.524,-37.281 21.524,-37.28 m -86.096,0 21.524,-37.281 m 129.144,0 h 43.047 43.048 43.048 43.048 43.048 43.047 43.048 43.048 l 21.524,-37.28 21.524,-37.281 21.524,-37.28 -21.524,-37.281 h -43.048 -43.048 l -21.524,37.281 -21.524,37.28 -21.524,37.281 h -43.047 -43.048 l -21.524,-37.281 m -150.667,111.842 21.524,-37.281 m 0,-74.561 -21.524,-37.28 -21.524,-37.281 h -43.048 -43.048 -43.047 -43.048 -43.048 -43.048 -43.048 l -21.523,37.281 21.523,37.28 21.524,37.281 h 43.048 43.048 43.048 43.047 m 107.62,-37.281 h 43.048 43.047 43.048 43.048 43.048 l 21.524,-37.28 21.524,-37.281 21.523,-37.28 -21.523,-37.281 h -43.048 -43.048 l -21.524,37.281 -21.524,37.28 -21.524,37.281 m -86.095,0 h 43.048 43.047 l 21.524,37.28 -21.524,37.281 -21.524,37.28 -21.523,37.281 H 543.048 500 l -21.524,-37.281 m -21.524,186.402 -21.524,37.281 -21.524,37.28 h -43.047 l -21.524,-37.28 -21.524,-37.281 -21.524,-37.28 21.524,-37.28 21.524,-37.281 21.524,-37.28 21.524,-37.281 h 43.047 43.048 m 64.572,-37.28 21.524,-37.281 21.524,-37.28 -21.524,-37.281 -21.524,-37.28 L 521.524,303.09 500,265.81 h -43.048 -43.048 -43.047 l -21.524,37.28 M 500,489.493 l 21.524,-37.281 21.524,-37.28 21.524,-37.281 21.524,-37.28 21.523,-37.281 21.524,-37.28 -21.524,-37.281 H 564.572 521.524 L 500,265.81 l -21.524,37.28 -21.524,37.281 -21.524,37.28 M 500,489.493 l -21.524,-37.281 -21.524,-37.28 -21.524,-37.281 -21.524,-37.28 -21.523,-37.281 -21.524,-37.28 -21.524,-37.281 -21.524,-37.28 h -43.048 -43.048 -43.047 l -21.524,37.28 21.524,37.281 21.523,37.28 h 43.048 43.048 43.048 l 21.524,37.281 21.524,37.28 -21.524,37.281 21.524,37.28 21.523,37.281 21.524,37.28 21.524,37.281 m 86.096,-74.561 21.524,37.28 21.524,37.281 21.523,37.28 -21.523,37.281 -21.524,37.28 H 521.524 L 500,638.615 478.476,601.334 456.952,564.054 478.476,526.773 500,489.493 h 43.048 l -21.524,-37.281 h -43.048 -43.048 -43.047 l -21.524,37.281 21.524,37.28 21.523,37.281 -21.523,37.28 21.523,37.281 21.524,37.28 21.524,37.28 21.524,37.281 21.524,37.28 21.524,37.281 21.524,37.28 h 43.048 l 21.523,-37.28 21.524,-37.281 -21.524,-37.28 -21.523,-37.281 m 387.43,149.122 h -43.048 l -21.524,-37.28 21.524,-37.281 h 43.048 l 21.523,37.281 z M 112.57,42.127 h 43.048 l 21.524,37.28 -21.524,37.281 H 112.57 L 91.046,79.407 Z m -43.048,74.561 h 43.048 l 21.524,37.28 -21.524,37.281 H 69.522 L 47.998,153.968 Z M 26.474,787.736 4.95,750.456 26.474,713.175 h 43.048 l 21.524,37.281 -21.524,37.28 z m 129.144,149.122 -21.524,-37.28 21.524,-37.281 h 43.048 l 21.523,37.281 -21.523,37.28 z m 753.336,-37.28 h -43.048 l -21.524,-37.281 21.524,-37.28 h 43.048 l 21.524,37.28 z M 887.43,42.127 l 21.524,37.28 -21.524,37.281 h -43.048 l -21.524,-37.281 21.524,-37.28 z m 43.048,74.561 21.524,37.28 -21.524,37.281 H 887.43 l -21.524,-37.281 21.524,-37.28 z m -882.48,782.89 -21.524,-37.281 21.524,-37.28 h 43.048 l 21.524,37.28 -21.524,37.281 z M 930.478,42.127 h 43.048 l 21.523,37.28 -21.523,37.281 H 930.478 L 908.954,79.407 Z M 47.998,228.529 H 91.046 L 112.57,265.81 91.046,303.09 H 47.998 L 26.474,265.81 Z M 26.474,713.175 4.95,675.895 26.474,638.615 h 43.048 l 21.524,37.28 -21.524,37.28 z m 86.096,149.122 -21.524,-37.28 21.524,-37.281 h 43.048 l 21.524,37.281 -21.524,37.28 z m 645.717,-820.17 21.524,37.28 -21.524,37.281 H 715.239 L 693.715,79.407 715.239,42.127 Z M 134.094,153.968 h 43.048 l 21.524,37.281 -21.524,37.28 h -43.048 l -21.524,-37.28 z m 64.572,708.329 -21.524,-37.28 21.524,-37.281 h 43.047 l 21.524,37.281 -21.524,37.28 z M 500,489.493 h 43.048 l 21.524,37.28 -21.524,37.281 H 500 l -21.524,-37.281 z m 344.382,372.804 h -43.048 l -21.523,-37.28 21.523,-37.281 h 43.048 l 21.524,37.281 z m 43.048,-74.561 h -43.048 l -21.524,-37.28 21.524,-37.281 h 43.048 l 21.524,37.281 z m 86.096,-149.121 -21.524,37.28 h -43.048 l -21.524,-37.28 21.524,-37.281 h 43.048 z M 822.858,79.407 l 21.524,37.281 -21.524,37.28 h -43.047 l -21.524,-37.28 21.524,-37.281 z m 150.668,260.964 -21.524,37.28 h -43.048 l -21.524,-37.28 21.524,-37.281 h 43.048 z m -43.048,-74.561 -21.524,37.28 h -43.048 l -21.524,-37.28 21.524,-37.281 h 43.048 z M 198.666,116.688 h 43.047 l 21.524,37.28 -21.524,37.281 h -43.047 l -21.524,-37.281 z m 86.095,-74.561 h 43.048 l 21.524,37.28 -21.524,37.281 H 284.761 L 263.237,79.407 Z M 134.094,228.529 h 43.048 l 21.524,37.281 -21.524,37.28 H 134.094 L 112.57,265.81 Z M 69.522,340.371 91.046,303.09 h 43.048 l 21.524,37.281 -21.524,37.28 H 91.046 Z m 215.239,596.487 -21.524,-37.28 21.524,-37.281 h 43.048 l 21.524,37.281 -21.524,37.28 z m 86.096,0 -21.524,-37.28 21.524,-37.281 h 43.047 l 21.524,37.281 -21.524,37.28 z m 215.239,0 h -43.048 l -21.524,-37.28 21.524,-37.281 h 43.048 l 21.523,37.281 z M 69.522,638.615 91.046,601.334 h 43.048 l 21.524,37.281 -21.524,37.28 H 91.046 Z m 43.048,74.56 21.524,-37.28 h 43.048 l 21.524,37.28 -21.524,37.281 H 134.094 Z M 47.998,452.212 69.522,414.932 h 43.048 l 21.524,37.28 -21.524,37.281 H 69.522 Z m 688.765,447.366 h -43.048 l -21.524,-37.281 21.524,-37.28 h 43.048 l 21.524,37.28 z m 236.763,-410.085 21.523,37.28 -21.523,37.281 h -43.048 l -21.524,-37.281 21.524,-37.28 z M 887.43,713.175 h -43.048 l -21.524,-37.28 21.524,-37.28 h 43.048 l 21.524,37.28 z M 650.667,899.578 h -43.048 l -21.523,-37.281 21.523,-37.28 h 43.048 l 21.524,37.28 z M 952.002,452.212 930.478,489.493 H 887.43 l -21.524,-37.281 21.524,-37.28 h 43.048 z m -129.144,-298.244 21.524,37.281 -21.524,37.28 h -43.047 l -21.524,-37.28 21.524,-37.281 z m -172.191,-74.561 21.524,37.281 -21.524,37.28 h -43.048 l -21.523,-37.28 21.523,-37.281 z m -86.095,0 21.524,37.281 -21.524,37.28 H 521.524 L 500,116.688 521.524,79.407 Z m -172.191,0 h 43.047 l 21.524,37.281 -21.524,37.28 h -43.047 l -21.524,-37.28 z m 86.095,820.171 -21.524,-37.281 21.524,-37.28 h 43.048 l 21.524,37.28 -21.524,37.281 z m -279.81,-111.842 -21.524,-37.28 21.524,-37.281 h 43.047 l 21.524,37.281 -21.524,37.28 z M 91.046,526.773 112.57,489.493 h 43.048 l 21.524,37.28 -21.524,37.281 H 112.57 Z m 710.288,260.963 h -43.047 l -21.524,-37.28 21.524,-37.281 h 43.047 l 21.524,37.281 z M 779.811,303.09 801.334,265.81 h 43.048 l 21.524,37.28 -21.524,37.281 h -43.048 z m -86.096,-74.561 -21.524,-37.28 21.524,-37.281 h 43.048 l 21.524,37.281 -21.524,37.28 z m -365.906,-37.28 h -43.048 l -21.524,-37.281 21.524,-37.28 h 43.048 l 21.524,37.28 z m -43.048,74.561 h -43.048 l -21.524,-37.281 21.524,-37.28 h 43.048 l 21.524,37.28 z m 172.191,-74.561 -21.524,-37.281 21.524,-37.28 H 500 l 21.524,37.28 L 500,191.249 Z m -236.763,186.402 -21.523,37.281 h -43.048 l -21.524,-37.281 21.524,-37.28 h 43.048 z m 129.144,372.805 21.524,37.28 -21.524,37.281 h -43.048 l -21.524,-37.281 21.524,-37.28 z m 64.571,37.28 21.524,37.281 -21.524,37.28 h -43.047 l -21.524,-37.28 21.524,-37.281 z m -172.191,-149.121 -21.524,37.28 h -43.047 l -21.524,-37.28 21.524,-37.281 h 43.047 z M 198.666,489.493 h -43.048 l -21.524,-37.281 21.524,-37.28 h 43.048 l 21.523,37.28 z m 495.049,260.963 h 43.048 l 21.524,37.28 -21.524,37.281 H 693.715 L 672.191,787.736 Z M 822.858,526.773 h 43.048 l 21.524,37.281 -21.524,37.28 h -43.048 l -21.524,-37.28 z m -64.571,111.842 21.524,-37.281 h 43.047 l 21.524,37.281 -21.524,37.28 h -43.047 z m 43.047,-298.244 h 43.048 l 21.524,37.28 -21.524,37.281 h -43.048 l -21.523,-37.281 z m 21.524,186.402 -21.524,-37.28 21.524,-37.281 h 43.048 l 21.524,37.281 -21.524,37.28 z M 779.811,303.09 h -43.048 l -21.524,-37.28 21.524,-37.281 h 43.048 l 21.523,37.281 z M 543.048,191.249 564.572,153.968 h 43.047 l 21.524,37.281 -21.524,37.28 h -43.047 z m -322.859,186.402 -21.523,-37.28 21.523,-37.281 h 43.048 l 21.524,37.281 -21.524,37.28 z M 500,787.736 478.476,825.017 h -43.048 l -21.524,-37.281 21.524,-37.28 h 43.048 z m 0,0 21.524,-37.28 h 43.048 l 21.524,37.28 -21.524,37.281 h -43.048 z m -279.811,-260.963 21.524,37.281 -21.524,37.28 h -43.047 l -21.524,-37.28 21.524,-37.281 z m 107.62,186.402 -21.524,37.281 h -43.048 l -21.524,-37.281 21.524,-37.28 h 43.048 z m 365.906,37.281 -21.524,37.28 h -43.048 l -21.524,-37.28 21.524,-37.281 h 43.048 z M 629.143,191.249 h 43.048 l 21.524,37.28 -21.524,37.281 h -43.048 l -21.524,-37.281 z m -215.239,0 21.524,37.28 -21.524,37.281 h -43.047 l -21.524,-37.281 21.524,-37.28 z m -129.143,74.561 21.524,-37.281 h 43.048 l 21.524,37.281 -21.524,37.28 H 306.285 Z M 456.952,191.249 H 500 l 21.524,37.28 L 500,265.81 h -43.048 l -21.524,-37.281 z m -129.143,521.926 21.524,-37.28 h 43.048 l 21.523,37.28 -21.523,37.281 h -43.048 z m -107.62,-186.402 21.524,-37.28 h 43.048 l 21.524,37.28 -21.524,37.281 h -43.048 z m 495.05,186.402 h -43.048 l -21.524,-37.28 21.524,-37.28 h 43.048 l 21.524,37.28 z m 86.095,-149.121 -21.523,37.28 h -43.048 l -21.524,-37.28 21.524,-37.281 h 43.048 z m 21.524,-111.842 -21.524,37.281 h -43.047 l -21.524,-37.281 21.524,-37.28 h 43.047 z m -129.143,-74.561 21.524,-37.28 h 43.048 l 21.524,37.28 -21.524,37.281 h -43.048 z m -86.096,-74.561 21.524,-37.28 h 43.048 l 21.524,37.28 -21.524,37.281 h -43.048 z m -258.286,74.561 h -43.048 l -21.524,-37.28 21.524,-37.281 h 43.048 l 21.524,37.281 z m -107.62,37.281 21.524,-37.281 h 43.048 l 21.524,37.281 -21.524,37.28 h -43.048 z m 279.811,260.963 h 43.048 l 21.524,37.28 -21.524,37.281 H 521.524 L 500,713.175 Z m -172.191,-74.561 -21.524,37.281 h -43.048 l -21.524,-37.281 21.524,-37.28 h 43.048 z m 322.858,-37.28 h 43.048 l 21.524,37.28 -21.524,37.281 h -43.048 l -21.524,-37.281 z m -86.095,74.561 h 43.047 l 21.524,37.28 -21.524,37.28 h -43.047 l -21.524,-37.28 z M 543.048,340.371 521.524,303.09 543.048,265.81 h 43.048 l 21.523,37.28 -21.523,37.281 z m -86.096,0 h -43.048 l -21.523,-37.281 21.523,-37.28 h 43.048 l 21.524,37.28 z M 500,638.615 521.524,675.895 500,713.175 h -43.048 l -21.524,-37.28 21.524,-37.28 z m -107.619,-37.281 21.523,37.281 -21.523,37.28 h -43.048 l -21.524,-37.28 21.524,-37.281 z m 236.762,-186.402 21.524,-37.281 h 43.048 l 21.524,37.281 -21.524,37.28 h -43.048 z m 0,74.561 21.524,-37.281 h 43.048 l 21.524,37.281 -21.524,37.28 H 650.667 Z M 478.476,377.651 456.952,340.371 478.476,303.09 h 43.048 l 21.524,37.281 -21.524,37.28 z m -86.095,74.561 -21.524,37.281 h -43.048 l -21.524,-37.281 21.524,-37.28 h 43.048 z m 0,74.561 -21.524,37.281 h -43.048 l -21.524,-37.281 21.524,-37.28 h 43.048 z m 215.238,0 h 43.048 l 21.524,37.281 -21.524,37.28 h -43.048 l -21.523,-37.28 z m -21.523,-111.841 -21.524,-37.281 21.524,-37.28 h 43.047 l 21.524,37.28 -21.524,37.281 z m -150.668,37.28 h -43.047 l -21.524,-37.28 21.524,-37.281 h 43.047 l 21.524,37.281 z m 21.524,111.842 21.524,37.28 -21.524,37.281 h -43.048 l -21.523,-37.281 21.523,-37.28 z m 43.048,0 h 43.048 l 21.524,37.28 -21.524,37.281 H 500 l -21.524,-37.281 z m -21.524,-111.842 -21.524,-37.28 21.524,-37.281 h 43.048 l 21.524,37.281 -21.524,37.28 z m 64.572,37.281 21.524,-37.281 h 43.047 l 21.524,37.281 -21.524,37.28 h -43.047 z m -43.048,0 -21.524,37.28 h -43.048 l -21.524,-37.28 21.524,-37.281 h 43.048 z M 69.522,116.688 47.998,153.968 26.474,116.688 Z m 43.048,820.17 21.524,-37.28 21.524,37.28 z m -21.524,-37.28 21.524,-37.281 21.524,37.281 z m 860.956,0 h -43.048 l 21.524,-37.281 z M 69.522,42.127 h 43.048 l -21.524,37.28 z m 904.004,74.561 -21.524,37.28 -21.524,-37.28 z M 91.046,79.407 112.57,116.688 H 69.522 Z m -43.048,74.561 21.524,37.281 H 26.474 Z m -21.524,37.281 h 43.048 l -21.524,37.28 z m 947.052,-74.561 21.523,37.28 H 952.002 Z M 26.474,787.736 h 43.048 l -21.524,37.281 z m 21.524,37.281 21.524,-37.281 21.524,37.281 z m 107.62,111.841 h 43.048 l -21.524,37.281 z m -21.524,-37.28 -21.524,-37.281 h 43.048 z M 887.43,42.127 h 43.048 l -21.524,37.28 z m 0,0 H 844.382 L 865.906,4.846 Z m 86.096,745.609 h -43.048 l 21.524,-37.28 z m 0,0 -21.524,-37.28 h 43.047 z M 887.43,42.127 908.954,4.846 930.478,42.127 Z m -43.048,0 H 801.334 L 822.858,4.846 Z m 0,0 -21.524,37.28 -21.524,-37.28 z m 86.096,74.561 H 887.43 L 908.954,79.407 Z M 155.618,42.127 177.142,4.846 198.666,42.127 Z m 796.384,857.451 -21.524,-37.281 h 43.048 z M 155.618,42.127 h 43.048 l -21.524,37.28 z m -43.048,74.561 h 43.048 l -21.524,37.28 z m -43.048,74.561 h 43.048 l -21.524,37.28 z m 0,0 21.524,37.28 H 47.998 Z m 860.956,745.609 -21.524,-37.28 h 43.048 z M 69.522,787.736 l 21.524,-37.28 21.524,37.28 z m 0,0 h 43.048 l -21.524,37.281 z m 86.096,74.561 21.524,-37.28 21.524,37.28 z m 817.908,74.561 h -43.048 l 21.524,-37.28 z M 26.474,340.371 47.998,303.09 69.522,340.371 Z m 0,0 h 43.048 l -21.524,37.28 z m 839.432,559.207 -21.524,37.28 -21.524,-37.28 z m 0,0 h -43.048 l 21.524,-37.281 z m 43.048,-74.561 -21.524,-37.281 h 43.048 z m 0,0 h -43.048 l 21.524,-37.281 z m 21.524,-37.281 -21.524,-37.28 h 43.048 z m 0,0 H 887.43 l 21.524,-37.28 z m 21.524,-37.28 h -43.048 l 21.524,-37.281 z m 21.524,-111.841 21.523,37.28 h -43.047 z m -215.239,298.243 -21.524,-37.28 h 43.048 z m 0,0 h -43.048 l 21.524,-37.28 z m -645.717,0 -21.524,-37.28 h 43.048 z m 516.573,0 -21.524,37.281 -21.523,-37.281 z M 801.334,42.127 779.811,79.407 758.287,42.127 Z m 0,0 21.524,37.28 H 779.811 Z M 973.526,340.371 952.002,303.09 h 43.047 z m -86.096,-223.683 -21.524,37.28 -21.524,-37.28 z m 64.572,111.841 h -43.048 l 21.524,-37.28 z m -21.524,-37.28 -21.524,37.28 -21.524,-37.28 z m 21.524,37.28 -21.524,37.281 -21.524,-37.281 z M 758.287,42.127 H 715.239 L 736.763,4.846 Z M 112.57,936.858 h 43.048 l -21.524,37.281 z m 86.096,-894.731 21.523,37.28 h -43.047 z m -21.524,37.28 h 43.047 l -21.523,37.281 z m 0,0 21.524,37.281 h -43.048 z m 107.619,-37.28 21.524,-37.281 21.524,37.281 z m 258.287,0 H 500 L 521.524,4.846 Z m -473.526,0 21.524,-37.281 21.524,37.281 z m 904.004,894.731 -21.524,37.281 -21.524,-37.281 z m -817.908,-820.17 21.524,37.28 h -43.048 z m 0,0 h 43.048 l -21.524,37.28 z m -43.048,74.561 21.524,37.28 H 91.046 Z m -21.524,37.28 h 43.048 L 112.57,265.81 Z M 47.998,303.09 h 43.048 l -21.524,37.281 z m 236.763,633.768 h 43.048 l -21.524,37.281 z m 86.096,0 h 43.047 l -21.523,37.281 z m 43.047,0 h 43.048 l -21.524,37.281 z m 86.096,0 h 43.048 l -21.524,37.281 z M 26.474,638.615 4.95,601.334 h 43.048 z m 0,0 21.524,-37.281 21.524,37.281 z m 43.048,74.56 h 43.048 l -21.524,37.281 z m 0,0 21.524,-37.28 21.524,37.28 z m 21.524,37.281 h 43.048 l -21.524,37.28 z m 21.524,37.28 21.524,-37.28 21.524,37.28 z m -21.524,-37.28 21.524,-37.281 21.524,37.281 z m 129.143,149.122 21.524,-37.281 21.524,37.281 z m 0,0 -21.523,-37.281 h 43.047 z m -43.047,-74.561 -21.524,-37.281 h 43.048 z M 26.474,414.932 47.998,452.212 H 4.95 Z m 0,0 21.524,-37.281 21.524,37.281 z m 0,0 h 43.048 l -21.524,37.28 z m 21.524,-37.281 h 43.048 l -21.524,37.281 z m 0,0 21.524,-37.28 21.524,37.28 z m 774.86,521.927 h -43.047 l 21.523,-37.281 z m 0,0 -21.524,-37.281 h 43.048 z m -43.047,0 -21.524,-37.281 h 43.047 z m 0,0 h -43.048 l 21.524,-37.281 z m -774.861,0 21.524,-37.281 21.524,37.281 z m 882.48,-111.842 -21.524,37.281 -21.524,-37.281 z m 21.524,-37.28 -21.524,-37.281 h 43.048 z m 86.095,-149.122 h -43.047 l 21.524,-37.28 z m 0,0 -21.523,37.281 -21.524,-37.281 z m -64.571,111.841 -21.524,-37.28 h 43.048 z m 0,0 H 887.43 l 21.524,-37.28 z m -193.715,186.403 -21.524,37.28 -21.524,-37.28 z m -107.62,37.28 -21.524,-37.28 h 43.048 z m 0,0 h -43.047 l 21.523,-37.28 z M 4.95,899.578 h 43.048 l -21.524,37.28 z m 839.432,-782.89 21.524,37.28 h -43.048 z m 107.62,186.402 h -43.048 l 21.524,-37.28 z m -86.096,-149.122 21.524,37.281 h -43.048 z m 0,0 -21.524,37.281 -21.524,-37.281 z m 21.524,37.281 -21.524,37.28 -21.524,-37.28 z m 0,0 21.524,37.28 H 865.906 Z M 715.239,42.127 693.715,79.407 672.191,42.127 Z m -43.048,0 21.524,37.28 h -43.048 z m -452.002,37.28 h 43.048 l -21.524,37.281 z m 0,0 21.524,37.281 h -43.047 z m 43.048,0 21.524,37.281 h -43.048 z m 322.859,-37.28 -21.524,37.28 -21.524,-37.28 z m 0,0 21.523,37.28 h -43.047 z m -43.048,0 -21.524,37.28 L 500,42.127 Z m 0,0 21.524,37.28 h -43.048 z m -43.048,0 21.524,37.28 h -43.048 z m -107.619,37.28 21.523,-37.28 21.524,37.28 z M 112.57,265.81 134.094,303.09 H 91.046 Z m 215.239,671.048 21.524,-37.28 21.524,37.28 z m -64.572,-37.28 -21.524,-37.281 h 43.048 z m 150.667,37.28 21.524,-37.28 21.524,37.28 z m 43.048,0 -21.524,-37.28 h 43.048 z m 0,0 21.524,-37.28 21.524,37.28 z m 43.048,0 21.524,-37.28 21.524,37.28 z m 0,0 -21.524,-37.28 h 43.048 z M 47.998,601.334 l 21.524,-37.28 21.524,37.28 z m 0,0 h 43.048 l -21.524,37.281 z m 64.572,111.841 -21.524,-37.28 h 43.048 z m 43.048,74.561 21.524,-37.28 21.524,37.28 z m 0,0 -21.524,-37.28 h 43.048 z m 86.095,74.561 21.524,-37.28 21.524,37.28 z M 47.998,526.773 h 43.048 l -21.524,37.281 z m 0,0 21.524,-37.28 21.524,37.28 z m 21.524,37.281 h 43.048 l -21.524,37.28 z m 0,0 21.524,-37.281 21.524,37.281 z m 0,-149.122 21.524,-37.281 21.524,37.281 z m 21.524,-37.281 h 43.048 l -21.524,37.281 z m 710.288,484.646 h -43.047 l 21.524,-37.28 z m -43.047,0 -21.524,-37.28 h 43.048 z M 973.526,489.493 h -43.048 l 21.524,-37.281 z m 0,74.561 -21.524,37.28 -21.524,-37.28 z M 844.382,787.736 h -43.048 l 21.524,-37.28 z m 107.62,-186.402 h -43.048 l 21.524,-37.28 z m -301.335,298.244 21.524,-37.281 21.524,37.281 z M 973.526,414.932 h -43.048 l 21.524,-37.281 z m 0,0 -21.524,37.28 -21.524,-37.28 z m -21.524,-37.281 -21.524,37.281 -21.524,-37.281 z m -193.715,-260.963 -21.524,37.28 -21.524,-37.28 z m 0,0 21.524,37.28 H 736.763 Z M 908.954,303.09 887.43,340.371 865.906,303.09 Z m -64.572,-111.841 21.524,37.28 h -43.048 z m 21.524,37.28 -21.524,37.281 -21.524,-37.281 z M 693.715,79.407 l 21.524,37.281 h -43.048 z m 0,0 -21.524,37.281 -21.524,-37.281 z m 21.524,37.281 -21.524,37.28 -21.524,-37.28 z m 0,0 21.524,37.28 h -43.048 z m -473.526,0 h 43.048 l -21.524,37.28 z M 564.572,79.407 h 43.047 l -21.523,37.281 z m -43.048,0 L 500,116.688 478.476,79.407 Z m -172.191,0 21.524,37.281 h -43.048 z m 0,0 h 43.048 l -21.524,37.281 z m 129.143,0 -21.524,37.281 -21.524,-37.281 z m 0,0 21.524,37.281 h -43.048 z m -279.81,111.842 21.523,37.28 h -43.047 z m 0,0 h 43.047 l -21.524,37.28 z m -21.524,37.28 h 43.047 l -21.523,37.281 z m -43.048,74.561 h 43.048 l -21.524,37.281 z m 215.239,596.488 -21.524,-37.281 h 43.048 z m -64.572,-37.281 -21.524,-37.28 h 43.048 z m 0,0 21.524,-37.28 21.524,37.28 z m 150.667,37.281 -21.524,-37.281 h 43.048 z m 0,0 21.524,-37.281 21.524,37.281 z M 91.046,601.334 l 21.524,-37.28 21.524,37.28 z m 43.048,74.561 21.524,-37.28 21.524,37.28 z m 129.143,149.122 -21.524,-37.281 h 43.048 z m 0,0 21.524,-37.281 21.524,37.281 z m -21.524,-37.281 21.524,-37.28 21.524,37.28 z M 91.046,526.773 69.522,489.493 h 43.048 z m 21.524,37.281 h 43.048 l -21.524,37.28 z m 0,-149.122 h 43.048 l -21.524,37.28 z m 0,0 21.524,-37.281 21.524,37.281 z m 667.241,410.085 -21.524,-37.281 h 43.047 z m 0,0 h -43.048 l 21.524,-37.281 z m 150.667,-335.524 -21.524,37.28 -21.524,-37.28 z m 0,74.561 -21.524,37.28 -21.524,-37.28 z m 0,0 H 887.43 l 21.524,-37.281 z m -107.62,186.402 -21.524,-37.281 h 43.048 z m 21.524,-37.281 h -43.048 l 21.524,-37.28 z m 64.572,-111.841 -21.524,37.281 -21.524,-37.281 z m 0,0 h -43.048 l 21.524,-37.28 z m -21.524,37.281 h -43.048 l 21.524,-37.281 z m -215.239,223.682 -21.524,-37.28 h 43.048 z m -86.095,0 h -43.048 l 21.524,-37.28 z m 0,0 -21.524,-37.28 h 43.047 z M 930.478,414.932 H 887.43 l 21.524,-37.281 z m -21.524,-37.281 -21.524,37.281 -21.524,-37.281 z m 0,0 h -43.048 l 21.524,-37.28 z M 736.763,153.968 h 43.048 l -21.524,37.281 z M 887.43,340.371 h -43.048 l 21.524,-37.281 z m 0,0 -21.524,37.28 -21.524,-37.28 z M 822.858,228.529 801.334,265.81 779.811,228.529 Z m 0,0 21.524,37.281 h -43.048 z m -150.667,-111.841 21.524,37.28 h -43.048 z m 21.524,37.28 -21.524,37.281 -21.524,-37.281 z m -430.478,0 21.524,37.281 h -43.048 z m 64.572,-37.28 h 43.048 l -21.524,37.28 z m 258.287,0 21.523,37.28 h -43.047 z m -215.239,0 21.524,37.28 h -43.048 z m -150.668,111.841 21.524,37.281 h -43.047 z m -21.523,37.281 h 43.047 l -21.524,37.28 z m 0,0 21.523,37.28 h -43.047 z m -21.524,37.28 21.524,37.281 h -43.048 z m 0,0 h 43.047 l -21.523,37.281 z m 150.667,559.207 21.524,-37.28 21.524,37.28 z m 0,0 -21.524,-37.28 h 43.048 z m 86.095,0 21.524,-37.28 21.524,37.28 z m 43.048,0 -21.524,-37.28 h 43.048 z m 86.096,0 -21.524,-37.28 h 43.048 z M 134.094,601.334 h 43.048 l -21.524,37.281 z m 0,0 21.524,-37.28 21.524,37.28 z m 43.048,74.561 h 43.047 l -21.523,37.28 z m 21.524,37.28 21.523,-37.28 21.524,37.28 z m 86.095,74.561 -21.524,-37.28 h 43.048 z M 134.094,452.212 155.618,489.493 H 112.57 Z m 559.621,372.805 h -43.048 l 21.524,-37.281 z M 908.954,526.773 h -43.048 l 21.524,-37.28 z m 0,0 -21.524,37.281 -21.524,-37.281 z m -107.62,186.402 h -43.047 l 21.524,-37.28 z m 0,0 -21.523,-37.28 h 43.047 z m 64.572,-111.841 -21.524,37.281 -21.524,-37.281 z M 650.667,825.017 h -43.048 l 21.524,-37.281 z m 0,0 -21.524,-37.281 h 43.048 z m -64.571,-37.281 h 43.047 l -21.524,37.281 z m 0,0 21.523,37.281 H 564.572 Z M 844.382,414.932 h 43.048 l -21.524,37.28 z m 0,0 21.524,-37.281 21.524,37.281 z m -21.524,37.28 21.524,-37.28 21.524,37.28 z m -86.095,-223.683 21.524,-37.28 21.524,37.28 z m -107.62,-37.28 -21.524,-37.281 h 43.048 z m 0,0 21.524,-37.281 21.524,37.281 z m -322.858,37.28 -21.524,-37.28 h 43.048 z m 64.572,-37.28 -21.524,-37.281 h 43.048 z m 0,0 h -43.048 l 21.524,-37.281 z m 172.191,0 -21.524,-37.281 h 43.048 z m -43.048,0 21.524,-37.281 21.524,37.281 z m -86.096,0 -21.523,-37.281 h 43.047 z m 0,0 h -43.047 l 21.524,-37.281 z m 43.048,0 h -43.048 l 21.524,-37.281 z M 263.237,303.09 241.713,265.81 h 43.048 z m 0,0 h -43.048 l 21.524,-37.28 z M 500,787.736 521.524,825.017 H 478.476 Z M 263.237,675.895 h -43.048 l 21.524,-37.28 z m 0,0 -21.524,37.28 -21.524,-37.28 z m 64.572,37.28 21.524,37.281 h -43.048 z m -129.143,-223.682 -21.524,37.28 -21.524,-37.28 z m 0,0 21.523,37.28 h -43.047 z m 43.047,-74.561 h -43.047 l 21.523,-37.281 z m -21.524,37.28 -21.523,-37.28 h 43.047 z m 495.05,260.963 h 43.048 l -21.524,37.281 z m 0,0 21.524,37.281 h -43.048 z m 21.524,-37.28 h 43.048 l -21.524,37.28 z m -21.524,37.28 21.524,-37.28 21.524,37.28 z m 21.524,-37.28 21.524,-37.28 21.524,37.28 z m 64.571,-111.841 21.524,37.28 h -43.047 z m -193.715,186.402 21.524,37.28 h -43.047 z m 0,0 -21.523,37.28 -21.524,-37.28 z m 215.239,-298.244 -21.524,-37.28 h 43.048 z M 693.715,228.529 h 43.048 l -21.524,37.281 z m 86.096,74.561 21.523,37.281 h -43.047 z m 0,0 -21.524,37.281 -21.524,-37.281 z m 21.523,37.281 -21.523,37.28 -21.524,-37.28 z M 693.715,228.529 715.239,265.81 h -43.048 z m -387.43,0 21.524,-37.28 21.524,37.28 z m 64.572,-37.28 -21.524,37.28 -21.524,-37.28 z m -107.62,111.841 21.524,-37.28 21.524,37.28 z m 279.811,-111.841 21.524,37.28 h -43.048 z m -43.048,0 h 43.048 l -21.524,37.28 z m -43.048,0 -21.524,37.28 -21.524,-37.28 z M 263.237,303.09 h 43.048 l -21.524,37.281 z m -21.524,111.842 -21.524,-37.281 h 43.048 z m 172.191,372.804 h -43.047 l 21.524,-37.28 z m -64.571,-37.28 h 43.048 l -21.524,37.28 z m 64.571,37.28 -21.523,-37.28 h 43.047 z m 86.096,0 -21.524,-37.28 h 43.048 z M 241.713,638.615 220.189,601.334 h 43.048 z m -21.524,-37.281 21.524,-37.28 21.524,37.28 z m 43.048,74.561 -21.524,-37.28 h 43.048 z m 0,0 21.524,-37.28 21.524,37.28 z m -21.524,-37.28 21.524,-37.281 21.524,37.281 z m 86.096,74.56 -21.524,-37.28 h 43.048 z m -129.143,-223.682 21.523,-37.281 21.524,37.281 z m 0,0 h 43.047 l -21.524,37.28 z m 21.523,-37.281 h 43.048 l -21.524,37.281 z m 0,0 21.524,-37.28 21.524,37.28 z m 495.05,260.963 -21.524,37.281 -21.524,-37.281 z m 21.524,-37.28 -21.524,-37.28 h 43.048 z m 86.095,-149.122 h -43.047 l 21.523,-37.28 z m 0,0 -21.524,37.281 -21.523,-37.281 z m -64.571,111.842 -21.524,-37.281 h 43.048 z m 0,0 h -43.048 l 21.524,-37.281 z M 607.619,750.456 586.096,713.175 h 43.047 z m 0,0 h -43.047 l 21.524,-37.281 z M 801.334,414.932 h -43.047 l 21.524,-37.281 z m -43.047,74.561 h 43.047 l -21.523,37.28 z m -64.572,-186.403 21.524,-37.28 21.524,37.28 z m 0,0 -21.524,-37.28 h 43.048 z m 21.524,37.281 -21.524,-37.281 h 43.048 z m 0,0 21.524,-37.281 21.524,37.281 z M 586.096,265.81 564.572,228.529 h 43.047 z m 43.047,0 h -43.047 l 21.523,-37.281 z m -86.095,0 -21.524,-37.281 h 43.048 z m 0,0 21.524,-37.281 21.524,37.281 z m -43.048,0 21.524,-37.281 21.524,37.281 z m -43.048,0 h -43.048 l 21.524,-37.281 z M 306.285,377.651 h -43.048 l 21.524,-37.28 z m 107.619,335.524 21.524,37.281 h -43.047 z m 43.048,0 -21.524,37.281 -21.524,-37.281 z m 0,0 21.524,37.281 h -43.048 z m 43.048,0 21.524,37.281 h -43.048 z m 0,0 -21.524,37.281 -21.524,-37.281 z m -215.239,-149.121 -21.524,37.28 -21.524,-37.28 z m 43.048,74.561 21.524,37.28 h -43.048 z m 0,0 -21.524,37.28 -21.524,-37.28 z M 284.761,489.493 h -43.048 l 21.524,-37.281 z m 21.524,-37.281 -21.524,37.281 -21.524,-37.281 z m 344.382,223.683 21.524,37.28 h -43.048 z m 86.096,-149.122 21.524,-37.28 21.524,37.28 z M 715.239,414.932 h 43.048 l -21.524,37.28 z m 0,74.561 h 43.048 l -21.524,37.28 z m 0,0 21.524,-37.281 21.524,37.281 z m -43.048,-149.122 21.524,-37.281 21.524,37.281 z m 21.524,37.28 -21.524,-37.28 h 43.048 z M 607.619,303.09 586.096,265.81 h 43.047 z m -86.095,0 L 500,265.81 h 43.048 z m -129.143,0 h -43.048 l 21.524,-37.28 z m 0,0 -21.524,-37.28 h 43.047 z m -21.524,37.281 -21.524,-37.281 h 43.048 z M 478.476,303.09 456.952,265.81 H 500 Z m 0,0 21.524,-37.28 21.524,37.28 z M 327.809,414.932 306.285,377.651 h 43.048 z m 107.619,260.963 -21.524,37.28 -21.523,-37.28 z m 0,0 21.524,37.28 H 413.904 Z M 327.809,564.054 h -43.048 l 21.524,-37.281 z m 86.095,74.561 21.524,37.28 h -43.047 z m -86.095,-149.122 -21.524,37.28 -21.524,-37.28 z m 0,0 h -43.048 l 21.524,-37.281 z m 301.334,149.122 h 43.048 l -21.524,37.28 z m 21.524,-37.281 21.524,37.281 h -43.048 z m 43.048,-74.561 h 43.048 l -21.524,37.281 z m 0,0 21.524,-37.28 21.524,37.28 z m -21.524,37.281 21.524,-37.281 21.524,37.281 z m -129.143,74.561 21.524,37.28 h -43.048 z m 0,0 h 43.048 l -21.524,37.28 z m 150.667,-186.403 21.524,-37.28 21.524,37.28 z m 0,0 h 43.048 l -21.524,37.281 z m -43.048,-74.561 -21.524,-37.28 h 43.048 z m 0,0 21.524,-37.28 21.524,37.28 z m -64.571,-37.28 21.523,-37.281 21.524,37.281 z m -172.192,0 h -43.047 l 21.524,-37.281 z m -21.523,37.28 -21.524,-37.28 h 43.047 z m 0,0 h -43.048 l 21.524,-37.28 z m -21.524,37.281 h -43.048 l 21.524,-37.281 z m 0,0 -21.524,-37.281 h 43.048 z m 86.095,223.683 -21.524,37.28 -21.524,-37.28 z m 43.048,0 h 43.048 l -21.524,37.28 z m -129.143,-74.561 -21.524,37.28 -21.524,-37.28 z m 21.524,37.28 h -43.048 l 21.524,-37.28 z m 215.238,0 21.524,37.281 h -43.047 z m 0,0 h 43.048 l -21.524,37.281 z m 43.048,-74.561 h 43.048 l -21.524,37.281 z m -86.095,74.561 h 43.047 l -21.523,37.281 z m 0,0 21.524,37.281 h -43.048 z m 0,-223.683 -21.524,-37.28 h 43.048 z m -43.048,0 21.524,-37.28 21.524,37.28 z m -86.096,0 -21.524,-37.28 h 43.048 z m 0,0 h -43.047 l 21.523,-37.28 z m 43.048,0 h -43.048 l 21.524,-37.28 z m 0,223.683 21.524,37.281 h -43.048 z m -64.572,-37.28 h -43.047 l 21.524,-37.281 z m 0,0 -21.523,37.28 -21.524,-37.28 z m 0,-74.561 h -43.047 l 21.524,-37.281 z m 0,0 -21.523,37.28 -21.524,-37.28 z m 172.192,74.561 21.523,37.28 h -43.047 z m 21.523,-37.281 21.524,-37.28 21.524,37.28 z m -64.571,37.281 h 43.048 l -21.524,37.28 z m 64.571,-111.842 21.524,-37.28 21.524,37.28 z m 0,0 -21.523,-37.28 h 43.047 z m 0,0 h 43.048 l -21.524,37.281 z m -64.571,-37.28 21.524,-37.281 21.524,37.281 z m 0,0 -21.524,-37.281 h 43.048 z m -86.096,0 -21.524,-37.281 h 43.048 z m -21.524,37.28 -21.524,37.281 -21.523,-37.281 z M 500,564.054 l -21.524,37.28 -21.524,-37.28 z m -64.572,-37.281 -21.524,37.281 -21.523,-37.281 z m 0,0 21.524,37.281 h -43.048 z m 0,0 h -43.047 l 21.523,-37.28 z m 129.144,0 h 43.047 l -21.523,37.281 z m 0,0 21.524,37.281 h -43.048 z m 0,-74.561 -21.524,-37.28 h 43.048 z m 0,0 21.524,-37.28 21.523,37.28 z m -43.048,0 21.524,-37.28 21.524,37.28 z m -43.048,0 h -43.048 l 21.524,-37.28 z m 0,74.561 21.524,37.281 h -43.048 z m 0,0 -21.524,37.281 -21.524,-37.281 z m 64.572,-37.28 -21.524,-37.281 h 43.048 z m -43.048,0 -21.524,-37.281 h 43.048 z m 0,0 21.524,-37.281 21.524,37.281 z"
     style="opacity:1;fill-opacity:0;stroke:#000000;stroke-width:16;stroke-opacity:1;stop-opacity:1;fill:none;stroke-miterlimit:4;stroke-dasharray:none"
     id="path139144" />
</svg>
