# Blender v2.82 (sub 7) OBJ File: ''
# www.blender.org
mtllib 5-octahedra-compound.mtl
o Octahedra_5_Octahedra_5.001
v 3.090170 1.909830 0.000000
v 1.381966 3.618034 0.000000
v 2.500000 4.045085 1.545086
v 1.909830 0.000000 -3.090170
v 3.618034 0.000000 -1.381966
v 4.045085 -1.545085 -2.500000
v -1.545085 2.500000 -4.045084
v 0.000000 3.090170 -1.909830
v 0.000000 1.381966 -3.618034
v 0.000000 3.090170 -1.909830
v 0.000000 5.000000 0.000001
v 1.381966 3.618034 0.000000
v 3.618034 0.000000 -1.381966
v 3.090170 1.909830 0.000000
v 5.000000 0.000000 0.000000
v 1.909830 0.000000 -3.090170
v 0.000000 0.000001 -5.000000
v 0.000000 1.381966 -3.618034
v 0.000000 3.090170 1.909830
v -1.381966 3.618034 0.000000
v -2.500000 4.045085 1.545086
v 3.090170 1.909830 0.000000
v 2.236068 2.236068 2.236068
v 4.045085 1.545085 2.500000
v 1.545085 2.500000 -4.045084
v 0.000000 3.090170 -1.909830
v 2.236068 2.236068 -2.236068
v 0.000000 3.090170 -1.909830
v -2.500000 4.045085 -1.545084
v -1.381966 3.618034 0.000000
v 2.236068 2.236068 2.236068
v 0.000000 3.090170 1.909830
v 1.545085 2.500000 4.045085
v 3.090170 1.909830 0.000000
v 4.045085 1.545085 -2.500000
v 2.236068 2.236068 -2.236068
v 3.090170 -1.909830 -0.000000
v 3.618034 -0.000000 1.381966
v 4.045085 -1.545085 2.500000
v 1.909830 0.000000 -3.090170
v 2.236068 -2.236068 -2.236068
v 1.545085 -2.500000 -4.045085
v 2.500000 4.045085 -1.545084
v 3.090170 1.909830 0.000000
v 2.236068 2.236068 -2.236068
v 3.090170 1.909830 0.000000
v 4.045085 1.545085 2.500000
v 3.618034 -0.000000 1.381966
v 2.236068 -2.236068 -2.236068
v 3.090170 -1.909830 -0.000000
v 2.500000 -4.045085 -1.545086
v 1.909830 0.000000 -3.090170
v 1.545085 2.500000 -4.045084
v 2.236068 2.236068 -2.236068
v 0.000000 3.090170 -1.909830
v -2.236068 2.236068 -2.236068
v -2.500000 4.045085 -1.545084
v 1.909830 0.000000 -3.090170
v 2.236068 2.236068 -2.236068
v 4.045085 1.545085 -2.500000
v -1.545085 -2.500000 -4.045085
v -1.909830 0.000000 -3.090170
v 0.000000 -1.381966 -3.618034
v -1.909830 0.000000 -3.090170
v -4.045085 1.545085 -2.500000
v -2.236068 2.236068 -2.236068
v 2.236068 2.236068 -2.236068
v 0.000000 3.090170 -1.909830
v 2.500000 4.045085 -1.545084
v 1.909830 0.000000 -3.090170
v 1.545085 -2.500000 -4.045085
v 0.000000 -1.381966 -3.618034
v 3.090170 1.909830 0.000000
v 3.618034 -0.000000 1.381966
v 5.000000 0.000000 0.000000
v 0.000000 3.090170 1.909830
v 1.381966 3.618034 0.000000
v 0.000000 5.000000 0.000001
v 0.000000 -0.000001 5.000000
v 1.909830 -0.000000 3.090170
v 0.000000 1.381966 3.618034
v 1.909830 -0.000000 3.090170
v 4.045085 -1.545085 2.500000
v 3.618034 -0.000000 1.381966
v 1.381966 3.618034 0.000000
v 3.090170 1.909830 0.000000
v 2.500000 4.045085 -1.545084
v 0.000000 3.090170 1.909830
v -1.545085 2.500000 4.045085
v 0.000000 1.381966 3.618034
v 0.000000 3.090170 1.909830
v -2.236068 2.236068 2.236068
v -1.545085 2.500000 4.045085
v 0.000000 3.090170 -1.909830
v 1.381966 3.618034 0.000000
v 2.500000 4.045085 -1.545084
v -4.045085 1.545085 -2.500000
v -3.090170 1.909830 0.000000
v -2.236068 2.236068 -2.236068
v -3.090170 1.909830 0.000000
v -4.045085 1.545085 2.500000
v -2.236068 2.236068 2.236068
v 1.381966 3.618034 0.000000
v 0.000000 3.090170 1.909830
v 2.500000 4.045085 1.545086
v 0.000000 3.090170 -1.909830
v -1.545085 2.500000 -4.045084
v -2.236068 2.236068 -2.236068
v 1.909830 -0.000000 3.090170
v 2.236068 2.236068 2.236068
v 1.545085 2.500000 4.045085
v 3.090170 -1.909830 -0.000000
v 2.236068 -2.236068 2.236068
v 2.500000 -4.045085 1.545084
v 4.045085 1.545085 -2.500000
v 3.090170 1.909830 0.000000
v 3.618034 0.000000 -1.381966
v 3.090170 1.909830 0.000000
v 2.500000 4.045085 1.545086
v 2.236068 2.236068 2.236068
v 2.236068 -2.236068 2.236068
v 1.909830 -0.000000 3.090170
v 1.545085 -2.500000 4.045084
v 3.090170 -1.909830 -0.000000
v 4.045085 -1.545085 -2.500000
v 3.618034 0.000000 -1.381966
v -1.909830 0.000000 -3.090170
v 0.000000 1.381966 -3.618034
v 0.000000 0.000001 -5.000000
v -3.090170 1.909830 0.000000
v -3.618034 0.000000 -1.381966
v -5.000000 0.000000 0.000000
v 0.000000 5.000000 0.000001
v 0.000000 3.090170 -1.909830
v -1.381966 3.618034 0.000000
v 0.000000 3.090170 -1.909830
v 1.545085 2.500000 -4.045084
v 0.000000 1.381966 -3.618034
v -3.618034 0.000000 -1.381966
v -1.909830 0.000000 -3.090170
v -4.045085 -1.545085 -2.500000
v -3.090170 1.909830 0.000000
v -2.500000 4.045085 1.545086
v -1.381966 3.618034 0.000000
v 0.000000 -3.090170 -1.909830
v 1.381966 -3.618034 -0.000000
v 0.000000 -5.000000 -0.000001
v 1.909830 0.000000 -3.090170
v 0.000000 -1.381966 -3.618034
v 0.000000 0.000001 -5.000000
v 5.000000 0.000000 0.000000
v 3.090170 -1.909830 -0.000000
v 3.618034 0.000000 -1.381966
v 3.090170 -1.909830 -0.000000
v 2.500000 -4.045085 1.545084
v 1.381966 -3.618034 -0.000000
v 0.000000 -1.381966 -3.618034
v 0.000000 -3.090170 -1.909830
v -1.545085 -2.500000 -4.045085
v 1.909830 0.000000 -3.090170
v 4.045085 1.545085 -2.500000
v 3.618034 0.000000 -1.381966
v -1.909830 0.000000 -3.090170
v -2.236068 -2.236068 -2.236068
v -4.045085 -1.545085 -2.500000
v 1.909830 0.000000 -3.090170
v 0.000000 1.381966 -3.618034
v 1.545085 2.500000 -4.045084
v 2.500000 -4.045085 -1.545086
v 0.000000 -3.090170 -1.909830
v 2.236068 -2.236068 -2.236068
v 0.000000 -3.090170 -1.909830
v -2.500000 -4.045085 -1.545086
v -2.236068 -2.236068 -2.236068
v 0.000000 1.381966 -3.618034
v -1.909830 0.000000 -3.090170
v -1.545085 2.500000 -4.045084
v 1.909830 0.000000 -3.090170
v 4.045085 -1.545085 -2.500000
v 2.236068 -2.236068 -2.236068
v 1.909830 -0.000000 3.090170
v 0.000000 -1.381966 3.618034
v 1.545085 -2.500000 4.045084
v 0.000000 3.090170 1.909830
v 2.236068 2.236068 2.236068
v 2.500000 4.045085 1.545086
v -4.045085 1.545085 2.500000
v -1.909830 -0.000000 3.090170
v -2.236068 2.236068 2.236068
v -1.909830 -0.000000 3.090170
v -1.545085 -2.500000 4.045084
v 0.000000 -1.381966 3.618034
v 2.236068 2.236068 2.236068
v 1.909830 -0.000000 3.090170
v 4.045085 1.545085 2.500000
v 0.000000 3.090170 1.909830
v -2.500000 4.045085 1.545086
v -2.236068 2.236068 2.236068
v 0.000000 3.090170 1.909830
v 0.000000 1.381966 3.618034
v 1.545085 2.500000 4.045085
v -3.090170 1.909830 0.000000
v -1.381966 3.618034 0.000000
v -2.500000 4.045085 -1.545084
v -4.045085 -1.545085 2.500000
v -1.909830 -0.000000 3.090170
v -3.618034 -0.000000 1.381966
v -1.909830 -0.000000 3.090170
v 0.000000 -0.000001 5.000000
v 0.000000 1.381966 3.618034
v -1.381966 3.618034 0.000000
v 0.000000 3.090170 1.909830
v 0.000000 5.000000 0.000001
v -3.090170 1.909830 0.000000
v -5.000000 0.000000 0.000000
v -3.618034 -0.000000 1.381966
v 0.000000 -3.090170 1.909830
v 0.000000 -1.381966 3.618034
v -1.545085 -2.500000 4.045084
v 3.090170 -1.909830 -0.000000
v 1.381966 -3.618034 -0.000000
v 2.500000 -4.045085 -1.545086
v 4.045085 1.545085 2.500000
v 1.909830 -0.000000 3.090170
v 3.618034 -0.000000 1.381966
v 1.909830 -0.000000 3.090170
v 0.000000 -0.000001 5.000000
v 0.000000 -1.381966 3.618034
v 1.381966 -3.618034 -0.000000
v 0.000000 -3.090170 1.909830
v 0.000000 -5.000000 -0.000001
v 3.090170 -1.909830 -0.000000
v 5.000000 0.000000 0.000000
v 3.618034 -0.000000 1.381966
v -3.090170 1.909830 0.000000
v -3.618034 -0.000000 1.381966
v -4.045085 1.545085 2.500000
v -1.909830 0.000000 -3.090170
v -2.236068 2.236068 -2.236068
v -1.545085 2.500000 -4.045084
v -2.500000 -4.045085 -1.545086
v -3.090170 -1.909830 -0.000000
v -2.236068 -2.236068 -2.236068
v -3.090170 -1.909830 -0.000000
v -4.045085 -1.545085 2.500000
v -3.618034 -0.000000 1.381966
v -2.236068 2.236068 -2.236068
v -3.090170 1.909830 0.000000
v -2.500000 4.045085 -1.545084
v -1.909830 0.000000 -3.090170
v -1.545085 -2.500000 -4.045085
v -2.236068 -2.236068 -2.236068
v 3.090170 -1.909830 -0.000000
v 2.236068 -2.236068 -2.236068
v 4.045085 -1.545085 -2.500000
v 0.000000 -3.090170 1.909830
v 2.236068 -2.236068 2.236068
v 1.545085 -2.500000 4.045084
v -2.500000 -4.045085 -1.545086
v 0.000000 -3.090170 -1.909830
v -1.381966 -3.618034 -0.000000
v 0.000000 -3.090170 -1.909830
v 1.545085 -2.500000 -4.045085
v 2.236068 -2.236068 -2.236068
v 2.236068 -2.236068 2.236068
v 3.090170 -1.909830 -0.000000
v 4.045085 -1.545085 2.500000
v 0.000000 -3.090170 1.909830
v -2.500000 -4.045085 1.545084
v -1.381966 -3.618034 -0.000000
v -1.909830 0.000000 -3.090170
v -3.618034 0.000000 -1.381966
v -4.045085 1.545085 -2.500000
v 0.000000 -3.090170 -1.909830
v 0.000000 -1.381966 -3.618034
v 1.545085 -2.500000 -4.045085
v -2.500000 -4.045085 1.545084
v -3.090170 -1.909830 -0.000000
v -1.381966 -3.618034 -0.000000
v -3.090170 -1.909830 -0.000000
v -5.000000 0.000000 0.000000
v -3.618034 0.000000 -1.381966
v 0.000000 -1.381966 -3.618034
v -1.909830 0.000000 -3.090170
v 0.000000 0.000001 -5.000000
v 0.000000 -3.090170 -1.909830
v 0.000000 -5.000000 -0.000001
v -1.381966 -3.618034 -0.000000
v -1.909830 -0.000000 3.090170
v 0.000000 1.381966 3.618034
v -1.545085 2.500000 4.045085
v 0.000000 -3.090170 1.909830
v -2.236068 -2.236068 2.236068
v -2.500000 -4.045085 1.545084
v 4.045085 -1.545085 2.500000
v 1.909830 -0.000000 3.090170
v 2.236068 -2.236068 2.236068
v 1.909830 -0.000000 3.090170
v 1.545085 2.500000 4.045085
v 0.000000 1.381966 3.618034
v -2.236068 -2.236068 2.236068
v -1.909830 -0.000000 3.090170
v -4.045085 -1.545085 2.500000
v 0.000000 -3.090170 1.909830
v 2.500000 -4.045085 1.545084
v 2.236068 -2.236068 2.236068
v -1.909830 -0.000000 3.090170
v -2.236068 -2.236068 2.236068
v -1.545085 -2.500000 4.045084
v -3.090170 1.909830 0.000000
v -2.236068 2.236068 2.236068
v -2.500000 4.045085 1.545086
v -4.045085 -1.545085 -2.500000
v -3.090170 -1.909830 -0.000000
v -3.618034 0.000000 -1.381966
v -3.090170 -1.909830 -0.000000
v -2.500000 -4.045085 1.545084
v -2.236068 -2.236068 2.236068
v -2.236068 2.236068 2.236068
v -1.909830 -0.000000 3.090170
v -1.545085 2.500000 4.045085
v -3.090170 1.909830 0.000000
v -4.045085 1.545085 -2.500000
v -3.618034 0.000000 -1.381966
v 0.000000 -3.090170 1.909830
v 1.381966 -3.618034 -0.000000
v 2.500000 -4.045085 1.545084
v -3.090170 -1.909830 -0.000000
v -2.236068 -2.236068 2.236068
v -4.045085 -1.545085 2.500000
v -1.545085 -2.500000 -4.045085
v 0.000000 -3.090170 -1.909830
v -2.236068 -2.236068 -2.236068
v 0.000000 -3.090170 -1.909830
v 2.500000 -4.045085 -1.545086
v 1.381966 -3.618034 -0.000000
v -2.236068 -2.236068 2.236068
v 0.000000 -3.090170 1.909830
v -1.545085 -2.500000 4.045084
v -3.090170 -1.909830 -0.000000
v -4.045085 -1.545085 -2.500000
v -2.236068 -2.236068 -2.236068
v 0.000000 -3.090170 1.909830
v -1.381966 -3.618034 -0.000000
v 0.000000 -5.000000 -0.000001
v -1.909830 -0.000000 3.090170
v 0.000000 -1.381966 3.618034
v 0.000000 -0.000001 5.000000
v -5.000000 0.000000 0.000000
v -3.090170 -1.909830 -0.000000
v -3.618034 -0.000000 1.381966
v -3.090170 -1.909830 -0.000000
v -2.500000 -4.045085 -1.545086
v -1.381966 -3.618034 -0.000000
v 0.000000 -1.381966 3.618034
v 0.000000 -3.090170 1.909830
v 1.545085 -2.500000 4.045084
v -1.909830 -0.000000 3.090170
v -4.045085 1.545085 2.500000
v -3.618034 -0.000000 1.381966
vt 1.000000 0.000000
vt 0.000000 0.000000
vt 0.202897 0.998874
vt 0.202897 0.998874
vt 1.000000 0.000000
vt 0.000000 0.000000
vt 1.000000 0.000000
vt 0.202897 0.998874
vt 0.000000 0.000000
vt 1.000000 0.000000
vt 0.202897 0.998874
vt 0.000000 0.000000
vt 1.000000 0.000000
vt 0.202897 0.998874
vt 0.000000 0.000000
vt 0.000000 0.000000
vt 1.000000 0.000000
vt 0.202897 0.998874
vt 0.000000 0.000000
vt 1.000000 0.000000
vt 0.202897 0.998874
vt 1.000000 0.000000
vt 0.202897 0.998874
vt 0.000000 0.000000
vt 1.000000 0.000000
vt 0.000000 0.000000
vt 0.202897 0.998874
vt 0.202897 0.998874
vt 1.000000 0.000000
vt 0.000000 0.000000
vt 1.000000 0.000000
vt 0.000000 0.000000
vt 0.202897 0.998874
vt 0.202897 0.998874
vt 1.000000 0.000000
vt 0.000000 0.000000
vt 1.000000 0.000000
vt 0.202897 0.998874
vt 0.000000 0.000000
vt 1.000000 0.000000
vt 0.000000 0.000000
vt 0.202897 0.998874
vt 1.000000 0.000000
vt 0.000000 0.000000
vt 0.202897 0.998874
vt 1.000000 0.000000
vt 0.202897 0.998874
vt 0.000000 0.000000
vt 0.000000 0.000000
vt 1.000000 0.000000
vt 0.202897 0.998874
vt 1.000000 0.000000
vt 0.000000 0.000000
vt 0.202897 0.998874
vt 1.000000 0.000000
vt 0.202897 0.998874
vt 0.000000 0.000000
vt 0.000000 0.000000
vt 1.000000 0.000000
vt 0.202897 0.998874
vt 1.000000 0.000000
vt 0.202897 0.998874
vt 0.000000 0.000000
vt 1.000000 0.000000
vt 0.000000 0.000000
vt 0.202897 0.998874
vt 1.000000 0.000000
vt 0.000000 0.000000
vt 0.202897 0.998874
vt 0.202897 0.998874
vt 1.000000 0.000000
vt 0.000000 0.000000
vt 1.000000 0.000000
vt 0.202897 0.998874
vt 0.000000 0.000000
vt 0.000000 0.000000
vt 1.000000 0.000000
vt 0.202897 0.998874
vt 1.000000 0.000000
vt 0.202897 0.998874
vt 0.000000 0.000000
vt 1.000000 0.000000
vt 0.000000 0.000000
vt 0.202897 0.998874
vt 1.000000 0.000000
vt 0.000000 0.000000
vt 0.202897 0.998874
vt 0.202897 0.998874
vt 1.000000 0.000000
vt 0.000000 0.000000
vt 1.000000 0.000000
vt 0.202897 0.998874
vt 0.000000 0.000000
vt 0.000000 0.000000
vt 1.000000 0.000000
vt 0.202897 0.998874
vt 1.000000 0.000000
vt 0.202897 0.998874
vt 0.000000 0.000000
vt 1.000000 0.000000
vt 0.000000 0.000000
vt 0.202897 0.998874
vt 1.000000 0.000000
vt 0.000000 0.000000
vt 0.202897 0.998874
vt 0.202897 0.998874
vt 1.000000 0.000000
vt 0.000000 0.000000
vt 0.000000 0.000000
vt 1.000000 0.000000
vt 0.202897 0.998874
vt 1.000000 0.000000
vt 0.202897 0.998874
vt 0.000000 0.000000
vt 1.000000 0.000000
vt 0.000000 0.000000
vt 0.202897 0.998874
vt 1.000000 0.000000
vt 0.000000 0.000000
vt 0.202897 0.998874
vt 0.202897 0.998874
vt 1.000000 0.000000
vt 0.000000 0.000000
vt 1.000000 0.000000
vt 0.202897 0.998874
vt 0.000000 0.000000
vt 0.000000 0.000000
vt 1.000000 0.000000
vt 0.202897 0.998874
vt 1.000000 0.000000
vt 0.202897 0.998874
vt 0.000000 0.000000
vt 1.000000 0.000000
vt 0.000000 0.000000
vt 0.202897 0.998874
vt 1.000000 0.000000
vt 0.000000 0.000000
vt 0.202897 0.998874
vt 0.202897 0.998874
vt 1.000000 0.000000
vt 0.000000 0.000000
vt 1.000000 0.000000
vt 0.202897 0.998874
vt 0.000000 0.000000
vt 0.000000 0.000000
vt 1.000000 0.000000
vt 0.202897 0.998874
vt 1.000000 0.000000
vt 0.000000 0.000000
vt 0.202897 0.998874
vt 1.000000 0.000000
vt 0.000000 0.000000
vt 0.202897 0.998874
vt 0.202897 0.998874
vt 1.000000 0.000000
vt 0.000000 0.000000
vt 0.000000 0.000000
vt 1.000000 0.000000
vt 0.202897 0.998874
vt 1.000000 0.000000
vt 0.202897 0.998874
vt 0.000000 0.000000
vt 1.000000 0.000000
vt 0.000000 0.000000
vt 0.202897 0.998874
vt 1.000000 0.000000
vt 0.000000 0.000000
vt 0.202897 0.998874
vt 0.202897 0.998874
vt 1.000000 0.000000
vt 0.000000 0.000000
vt 1.000000 0.000000
vt 0.202897 0.998874
vt 0.000000 0.000000
vt 1.000000 0.000000
vt 0.202897 0.998874
vt 0.000000 0.000000
vt 1.000000 0.000000
vt 0.000000 0.000000
vt 0.202897 0.998874
vt 1.000000 0.000000
vt 0.000000 0.000000
vt 0.202897 0.998874
vt 0.202897 0.998874
vt 1.000000 0.000000
vt 0.000000 0.000000
vt 0.000000 0.000000
vt 1.000000 0.000000
vt 0.202897 0.998874
vt 1.000000 0.000000
vt 0.202897 0.998874
vt 0.000000 0.000000
vt 1.000000 0.000000
vt 0.000000 0.000000
vt 0.202897 0.998874
vt 1.000000 0.000000
vt 0.000000 0.000000
vt 0.202897 0.998874
vt 0.202897 0.998874
vt 1.000000 0.000000
vt 0.000000 0.000000
vt 1.000000 0.000000
vt 0.202897 0.998874
vt 0.000000 0.000000
vt 0.000000 0.000000
vt 1.000000 0.000000
vt 0.202897 0.998874
vt 1.000000 0.000000
vt 0.000000 0.000000
vt 0.202897 0.998874
vt 1.000000 0.000000
vt 0.000000 0.000000
vt 0.202897 0.998874
vt 0.202897 0.998874
vt 1.000000 0.000000
vt 0.000000 0.000000
vt 1.000000 0.000000
vt 0.202897 0.998874
vt 0.000000 0.000000
vt -0.000000 0.000000
vt 1.000000 0.000000
vt 0.202897 0.998874
vt 1.000000 0.000000
vt 0.202897 0.998874
vt 0.000000 0.000000
vt 1.000000 0.000000
vt 0.000000 0.000000
vt 0.202897 0.998874
vt 1.000000 0.000000
vt 0.202897 0.998874
vt 0.000000 0.000000
vt 0.000000 0.000000
vt 1.000000 0.000000
vt 0.202897 0.998874
vt 1.000000 0.000000
vt 0.202897 0.998874
vt 0.000000 0.000000
vt 1.000000 0.000000
vt 0.000000 0.000000
vt 0.202897 0.998874
vt 1.000000 0.000000
vt 0.202897 0.998874
vt 0.000000 0.000000
vt 0.000000 0.000000
vt 1.000000 0.000000
vt 0.202897 0.998874
vt 1.000000 0.000000
vt 0.202897 0.998874
vt 0.000000 0.000000
vt 1.000000 0.000000
vt 0.000000 0.000000
vt 0.202897 0.998874
vt 1.000000 0.000000
vt 0.000000 0.000000
vt 0.202897 0.998874
vt 0.202897 0.998874
vt 1.000000 0.000000
vt 0.000000 0.000000
vt 1.000000 0.000000
vt 0.202897 0.998874
vt 0.000000 0.000000
vt 0.000000 0.000000
vt 1.000000 0.000000
vt 0.202897 0.998874
vt 1.000000 0.000000
vt 0.202897 0.998874
vt 0.000000 0.000000
vt 1.000000 0.000000
vt 0.000000 0.000000
vt 0.202897 0.998874
vt 1.000000 0.000000
vt 0.000000 0.000000
vt 0.202897 0.998874
vt 0.202897 0.998874
vt 1.000000 0.000000
vt 0.000000 0.000000
vt 0.000000 0.000000
vt 1.000000 0.000000
vt 0.202897 0.998874
vt 1.000000 0.000000
vt 0.202897 0.998874
vt 0.000000 0.000000
vt 0.202897 0.998874
vt 1.000000 0.000000
vt 0.000000 0.000000
vt 1.000000 0.000000
vt 0.202897 0.998874
vt 0.000000 0.000000
vt 0.000000 0.000000
vt 1.000000 0.000000
vt 0.202897 0.998874
vt 1.000000 0.000000
vt 0.202897 0.998874
vt 0.000000 0.000000
vt 1.000000 0.000000
vt 0.000000 0.000000
vt 0.202897 0.998874
vt 1.000000 0.000000
vt 0.000000 0.000000
vt 0.202897 0.998874
vt 0.202897 0.998874
vt 1.000000 0.000000
vt 0.000000 0.000000
vt 1.000000 0.000000
vt 0.202897 0.998874
vt 0.000000 0.000000
vt 0.000000 0.000000
vt 1.000000 0.000000
vt 0.202897 0.998874
vt 1.000000 0.000000
vt 0.202897 0.998874
vt 0.000000 0.000000
vt 1.000000 0.000000
vt 0.000000 0.000000
vt 0.202897 0.998874
vt 1.000000 0.000000
vt 0.000000 0.000000
vt 0.202897 0.998874
vt 0.202897 0.998874
vt 1.000000 0.000000
vt 0.000000 0.000000
vt 0.000000 0.000000
vt 1.000000 0.000000
vt 0.202897 0.998874
vt 1.000000 0.000000
vt 0.202897 0.998874
vt 0.000000 0.000000
vt 1.000000 0.000000
vt 0.000000 0.000000
vt 0.202897 0.998874
vt 1.000000 0.000000
vt 0.000000 0.000000
vt 0.202897 0.998874
vt 0.202897 0.998874
vt 1.000000 0.000000
vt 0.000000 0.000000
vt 1.000000 0.000000
vt 0.202897 0.998874
vt 0.000000 0.000000
vt 0.000000 0.000000
vt 1.000000 0.000000
vt 0.202897 0.998874
vt 1.000000 0.000000
vt 0.202897 0.998874
vt 0.000000 0.000000
vt 1.000000 0.000000
vt 0.000000 0.000000
vt 0.202897 0.998874
vt 1.000000 0.000000
vt 0.000000 0.000000
vt 0.202897 0.998874
vt 0.202897 0.998874
vt 1.000000 0.000000
vt 0.000000 0.000000
vt 1.000000 0.000000
vt 0.202897 0.998874
vt 0.000000 0.000000
vt 1.000000 0.000000
vt 0.202897 0.998874
vt 0.000000 0.000000
vn 0.5774 0.5774 -0.5774
vn 0.0000 0.3568 -0.9342
vn -0.3568 0.9342 0.0000
vn 0.9342 0.0000 0.3568
vn -0.5774 0.5774 -0.5774
vn 0.5774 -0.5774 -0.5774
vn 0.0000 -0.3568 -0.9342
vn -0.5774 0.5774 0.5774
vn 0.5774 -0.5774 0.5774
vn 0.3568 -0.9342 -0.0000
vn -0.5774 -0.5774 -0.5774
vn -0.9342 -0.0000 0.3568
vn -0.5774 -0.5774 0.5774
vn 0.3568 0.9342 0.0000
vn 0.9342 0.0000 -0.3568
vn 0.5774 0.5774 0.5774
vn 0.0000 0.3568 0.9342
vn -0.9342 0.0000 -0.3568
vn 0.0000 -0.3568 0.9342
vn -0.3568 -0.9342 0.0000
usemtl Material.002
s off
f 4/1/1 5/2/1 6/3/1
f 7/4/1 8/5/1 9/6/1
f 64/7/2 65/8/2 66/9/2
f 106/10/3 107/11/3 108/12/3
f 118/13/4 119/14/4 120/15/4
f 139/16/5 140/17/5 141/18/5
f 157/19/6 158/20/6 159/21/6
f 178/22/7 179/23/7 180/24/7
f 199/25/8 200/26/8 201/27/8
f 205/28/8 206/29/8 207/30/8
f 217/31/9 218/32/9 219/33/9
f 223/34/9 224/35/9 225/36/9
f 262/37/10 263/38/10 264/39/10
f 271/40/11 272/41/11 273/42/11
f 274/43/11 275/44/11 276/45/11
f 316/46/12 317/47/12 318/48/12
f 355/49/13 356/50/13 357/51/13
s 1
f 1/52/1 2/53/1 3/54/1
f 10/55/1 11/56/1 12/57/1
f 13/58/1 14/59/1 15/60/1
f 16/61/1 17/62/1 18/63/1
f 19/64/14 20/65/14 21/66/14
f 22/67/14 23/68/14 24/69/14
f 25/70/14 26/71/14 27/72/14
f 28/73/14 29/74/14 30/75/14
f 31/76/14 32/77/14 33/78/14
f 34/79/14 35/80/14 36/81/14
f 37/82/15 38/83/15 39/84/15
f 40/85/15 41/86/15 42/87/15
f 43/88/15 44/89/15 45/90/15
f 46/91/15 47/92/15 48/93/15
f 49/94/15 50/95/15 51/96/15
f 52/97/15 53/98/15 54/99/15
f 55/100/2 56/101/2 57/102/2
f 58/103/2 59/104/2 60/105/2
f 61/106/2 62/107/2 63/108/2
f 67/109/2 68/110/2 69/111/2
f 70/112/2 71/113/2 72/114/2
f 73/115/16 74/116/16 75/117/16
f 76/118/16 77/119/16 78/120/16
f 79/121/16 80/122/16 81/123/16
f 82/124/16 83/125/16 84/126/16
f 85/127/16 86/128/16 87/129/16
f 88/130/16 89/131/16 90/132/16
f 91/133/3 92/134/3 93/135/3
f 94/136/3 95/137/3 96/138/3
f 97/139/3 98/140/3 99/141/3
f 100/142/3 101/143/3 102/144/3
f 103/145/3 104/146/3 105/147/3
f 109/148/4 110/149/4 111/150/4
f 112/151/4 113/152/4 114/153/4
f 115/154/4 116/155/4 117/156/4
f 121/157/4 122/158/4 123/159/4
f 124/160/4 125/161/4 126/162/4
f 127/163/5 128/164/5 129/165/5
f 130/166/5 131/167/5 132/168/5
f 133/169/5 134/170/5 135/171/5
f 136/172/5 137/173/5 138/174/5
f 142/175/5 143/176/5 144/177/5
f 145/178/6 146/179/6 147/180/6
f 148/181/6 149/182/6 150/183/6
f 151/184/6 152/185/6 153/186/6
f 154/187/6 155/188/6 156/189/6
f 160/190/6 161/191/6 162/192/6
f 163/193/7 164/194/7 165/195/7
f 166/196/7 167/197/7 168/198/7
f 169/199/7 170/200/7 171/201/7
f 172/202/7 173/203/7 174/204/7
f 175/205/7 176/206/7 177/207/7
f 181/208/17 182/209/17 183/210/17
f 184/211/17 185/212/17 186/213/17
f 187/214/17 188/215/17 189/216/17
f 190/217/17 191/218/17 192/219/17
f 193/220/17 194/221/17 195/222/17
f 196/223/17 197/224/17 198/225/17
f 202/226/8 203/227/8 204/228/8
f 208/229/8 209/230/8 210/231/8
f 211/232/8 212/233/8 213/234/8
f 214/235/8 215/236/8 216/237/8
f 220/238/9 221/239/9 222/240/9
f 226/241/9 227/242/9 228/243/9
f 229/244/9 230/245/9 231/246/9
f 232/247/9 233/248/9 234/249/9
f 235/250/18 236/251/18 237/252/18
f 238/253/18 239/254/18 240/255/18
f 241/256/18 242/257/18 243/258/18
f 244/259/18 245/260/18 246/261/18
f 247/262/18 248/263/18 249/264/18
f 250/265/18 251/266/18 252/267/18
f 253/268/10 254/269/10 255/270/10
f 256/271/10 257/272/10 258/273/10
f 259/274/10 260/275/10 261/276/10
f 265/277/10 266/278/10 267/279/10
f 268/280/10 269/281/10 270/282/10
f 277/283/11 278/284/11 279/285/11
f 280/286/11 281/287/11 282/288/11
f 283/289/11 284/290/11 285/291/11
f 286/292/11 287/293/11 288/294/11
f 289/295/19 290/296/19 291/297/19
f 292/298/19 293/299/19 294/300/19
f 295/301/19 296/302/19 297/303/19
f 298/304/19 299/305/19 300/306/19
f 301/307/19 302/308/19 303/309/19
f 304/310/19 305/311/19 306/312/19
f 307/313/12 308/314/12 309/315/12
f 310/316/12 311/317/12 312/318/12
f 313/319/12 314/320/12 315/321/12
f 319/322/12 320/323/12 321/324/12
f 322/325/12 323/326/12 324/327/12
f 325/328/20 326/329/20 327/330/20
f 328/331/20 329/332/20 330/333/20
f 331/334/20 332/335/20 333/336/20
f 334/337/20 335/338/20 336/339/20
f 337/340/20 338/341/20 339/342/20
f 340/343/20 341/344/20 342/345/20
f 343/346/13 344/347/13 345/348/13
f 346/349/13 347/350/13 348/351/13
f 349/352/13 350/353/13 351/354/13
f 352/355/13 353/356/13 354/357/13
f 358/358/13 359/359/13 360/360/13
