# Blender v2.82 (sub 7) OBJ File: ''
# www.blender.org
mtllib great-dodecicosacron.mtl
o Great_Dodecicosacron_(Dual_of_10/3.6.10/7.6/5),_WD101,_p67_Great_Dodecicosacron_(Dual_of_10/3.6.10/7.6/5),_WD101,_p67.001
v -0.000000 -0.948115 0.362148
v -0.000000 -0.671459 0.000000
v 0.300285 -0.485872 0.000000
v -0.000000 -0.948115 0.362148
v 0.300285 -0.485872 0.000000
v 0.207492 -0.543222 0.335730
v -0.000000 -0.300286 0.485872
v -0.000000 -0.948115 0.362148
v 0.207492 -0.543222 0.335730
v -0.000000 -0.948115 0.362148
v -0.000000 -0.300286 0.485872
v -0.207492 -0.543222 0.335730
v -0.000000 -0.948115 0.362148
v -0.300286 -0.485872 0.000000
v -0.000000 -0.671459 0.000000
v -0.000000 -0.948115 0.362148
v -0.207492 -0.543222 0.335730
v -0.300286 -0.485872 0.000000
v -0.000000 -0.948115 -0.362148
v 0.300285 -0.485872 0.000000
v -0.000000 -0.671459 0.000000
v -0.000000 -0.948115 -0.362148
v -0.000000 -0.671459 0.000000
v -0.300286 -0.485872 0.000000
v -0.000000 -0.948115 -0.362148
v -0.300286 -0.485872 0.000000
v -0.207492 -0.543222 -0.335729
v -0.000000 -0.948115 -0.362148
v -0.207492 -0.543222 -0.335729
v 0.000000 -0.300286 -0.485872
v -0.000000 -0.948115 -0.362148
v 0.000000 -0.300286 -0.485872
v 0.207492 -0.543222 -0.335729
v -0.000000 -0.948115 -0.362148
v 0.207492 -0.543222 -0.335729
v 0.300285 -0.485872 0.000000
v 0.543222 -0.335730 -0.207492
v 0.300285 -0.485872 0.000000
v 0.585967 -0.585968 -0.585967
v 0.585967 -0.585968 0.585968
v -0.000000 -0.300286 0.485872
v 0.207492 -0.543222 0.335730
v 0.585967 -0.585968 0.585968
v 0.335729 -0.207492 0.543222
v -0.000000 -0.300286 0.485872
v 0.585967 -0.585968 0.585968
v 0.485872 -0.000000 0.300286
v 0.335729 -0.207492 0.543222
v 0.585967 -0.585968 0.585968
v 0.543222 -0.335730 0.207492
v 0.485872 -0.000000 0.300286
v 0.585967 -0.585968 0.585968
v 0.300285 -0.485872 0.000000
v 0.543222 -0.335730 0.207492
v 0.300285 -0.485872 0.000000
v 0.585967 -0.585968 0.585968
v 0.207492 -0.543222 0.335730
v 0.543222 -0.335730 -0.207492
v 0.948115 -0.362148 0.000000
v 0.300285 -0.485872 0.000000
v 0.543222 -0.335730 0.207492
v 0.300285 -0.485872 0.000000
v 0.948115 -0.362148 0.000000
v 0.948115 -0.362148 0.000000
v 0.485872 -0.000000 0.300286
v 0.543222 -0.335730 0.207492
v 0.948115 -0.362148 0.000000
v 0.671459 -0.000000 0.000000
v 0.485872 -0.000000 0.300286
v -0.585967 -0.585968 -0.585968
v -0.207492 -0.543222 -0.335729
v -0.300286 -0.485872 0.000000
v -0.585967 -0.585968 -0.585968
v 0.000000 -0.300286 -0.485872
v -0.207492 -0.543222 -0.335729
v -0.585967 -0.585968 -0.585968
v -0.335729 -0.207492 -0.543222
v 0.000000 -0.300286 -0.485872
v -0.485872 0.000000 -0.300286
v -0.335729 -0.207492 -0.543222
v -0.585967 -0.585968 -0.585968
v -0.948115 -0.362148 -0.000000
v -0.543222 -0.335729 -0.207492
v -0.485872 0.000000 -0.300286
v -0.948115 -0.362148 -0.000000
v -0.300286 -0.485872 0.000000
v -0.543222 -0.335729 -0.207492
v -0.585967 -0.585968 -0.585968
v -0.543222 -0.335729 -0.207492
v -0.300286 -0.485872 0.000000
v -0.543222 -0.335729 -0.207492
v -0.585967 -0.585968 -0.585968
v -0.485872 0.000000 -0.300286
v -0.362148 -0.000000 -0.948115
v -0.335729 -0.207492 -0.543222
v -0.485872 0.000000 -0.300286
v -0.362148 -0.000000 -0.948115
v 0.000000 -0.300286 -0.485872
v -0.335729 -0.207492 -0.543222
v -0.362148 -0.000000 -0.948115
v 0.000000 -0.000000 -0.671459
v 0.000000 -0.300286 -0.485872
v -0.362148 -0.000000 -0.948115
v 0.000000 0.300286 -0.485872
v 0.000000 -0.000000 -0.671459
v -0.362148 -0.000000 -0.948115
v -0.335729 0.207492 -0.543222
v 0.000000 0.300286 -0.485872
v -0.362148 -0.000000 -0.948115
v -0.485872 0.000000 -0.300286
v -0.335729 0.207492 -0.543222
v -0.585967 0.585968 -0.585968
v -0.335729 0.207492 -0.543222
v -0.485872 0.000000 -0.300286
v -0.585967 0.585968 -0.585968
v 0.000000 0.300286 -0.485872
v -0.335729 0.207492 -0.543222
v -0.585967 0.585968 -0.585968
v -0.485872 0.000000 -0.300286
v -0.543222 0.335730 -0.207492
v 0.207492 -0.543222 -0.335729
v 0.585967 -0.585968 -0.585967
v 0.300285 -0.485872 0.000000
v 0.585967 -0.585968 -0.585967
v 0.207492 -0.543222 -0.335729
v 0.000000 -0.300286 -0.485872
v 0.585967 -0.585968 -0.585967
v 0.000000 -0.300286 -0.485872
v 0.335730 -0.207492 -0.543222
v 0.585967 -0.585968 -0.585967
v 0.335730 -0.207492 -0.543222
v 0.485872 -0.000000 -0.300286
v 0.585967 -0.585968 -0.585967
v 0.485872 -0.000000 -0.300286
v 0.543222 -0.335730 -0.207492
v 0.543222 -0.335730 -0.207492
v 0.485872 -0.000000 -0.300286
v 0.948115 -0.362148 0.000000
v 0.671459 -0.000000 0.000000
v 0.948115 -0.362148 0.000000
v 0.485872 -0.000000 -0.300286
v 0.948115 0.362148 0.000000
v 0.671459 -0.000000 0.000000
v 0.485872 -0.000000 -0.300286
v 0.948115 0.362148 0.000000
v 0.485872 -0.000000 0.300286
v 0.671459 -0.000000 0.000000
v 0.948115 0.362148 0.000000
v 0.485872 -0.000000 -0.300286
v 0.543222 0.335729 -0.207492
v 0.948115 0.362148 0.000000
v 0.543222 0.335729 -0.207492
v 0.300286 0.485872 -0.000000
v 0.948115 0.362148 0.000000
v 0.300286 0.485872 -0.000000
v 0.543222 0.335729 0.207492
v 0.948115 0.362148 0.000000
v 0.543222 0.335729 0.207492
v 0.485872 -0.000000 0.300286
v -0.585968 -0.585967 0.585968
v -0.300286 -0.485872 0.000000
v -0.207492 -0.543222 0.335730
v -0.000000 -0.300286 0.485872
v -0.585968 -0.585967 0.585968
v -0.207492 -0.543222 0.335730
v -0.585968 -0.585967 0.585968
v -0.543222 -0.335729 0.207492
v -0.300286 -0.485872 0.000000
v -0.948115 -0.362148 -0.000000
v -0.300286 -0.485872 0.000000
v -0.543222 -0.335729 0.207492
v -0.948115 -0.362148 -0.000000
v -0.543222 -0.335729 0.207492
v -0.485872 0.000000 0.300286
v -0.585968 -0.585967 0.585968
v -0.485872 0.000000 0.300286
v -0.543222 -0.335729 0.207492
v -0.585968 -0.585967 0.585968
v -0.335730 -0.207492 0.543222
v -0.485872 0.000000 0.300286
v -0.000000 -0.300286 0.485872
v -0.335730 -0.207492 0.543222
v -0.585968 -0.585967 0.585968
v -0.335730 -0.207492 0.543222
v -0.000000 -0.300286 0.485872
v -0.362148 0.000000 0.948115
v -0.362148 0.000000 0.948115
v -0.000000 -0.300286 0.485872
v -0.000000 0.000000 0.671459
v 0.362148 0.000000 0.948115
v -0.000000 0.000000 0.671459
v -0.000000 -0.300286 0.485872
v 0.362148 0.000000 0.948115
v -0.000000 -0.300286 0.485872
v 0.335729 -0.207492 0.543222
v 0.362148 0.000000 0.948115
v 0.335729 -0.207492 0.543222
v 0.485872 -0.000000 0.300286
v 0.335729 0.207492 0.543222
v 0.362148 0.000000 0.948115
v 0.485872 -0.000000 0.300286
v 0.335729 0.207492 0.543222
v -0.000000 0.300286 0.485872
v 0.362148 0.000000 0.948115
v -0.000000 0.300286 0.485872
v 0.335729 0.207492 0.543222
v 0.585967 0.585968 0.585968
v 0.335729 0.207492 0.543222
v 0.485872 -0.000000 0.300286
v 0.585967 0.585968 0.585968
v 0.543222 0.335729 0.207492
v 0.585967 0.585968 0.585968
v 0.485872 -0.000000 0.300286
v 0.543222 0.335729 0.207492
v 0.300286 0.485872 -0.000000
v 0.585967 0.585968 0.585968
v 0.585967 0.585968 0.585968
v 0.300286 0.485872 -0.000000
v 0.207492 0.543222 0.335729
v 0.585967 0.585968 0.585968
v 0.207492 0.543222 0.335729
v -0.000000 0.300286 0.485872
v -0.000000 0.300286 0.485872
v 0.207492 0.543222 0.335729
v 0.000000 0.948115 0.362148
v 0.000000 0.948115 0.362148
v 0.207492 0.543222 0.335729
v 0.300286 0.485872 -0.000000
v 0.000000 0.948115 0.362148
v -0.207492 0.543222 0.335729
v -0.000000 0.300286 0.485872
v 0.000000 0.300286 -0.485872
v 0.000000 0.948115 -0.362148
v 0.207492 0.543222 -0.335730
v 0.000000 0.948115 -0.362148
v 0.300286 0.485872 -0.000000
v 0.207492 0.543222 -0.335730
v 0.000000 0.948115 -0.362148
v 0.000000 0.300286 -0.485872
v -0.207492 0.543222 -0.335730
v 0.000000 0.948115 -0.362148
v -0.207492 0.543222 -0.335730
v -0.300285 0.485872 -0.000000
v 0.000000 0.948115 -0.362148
v -0.300285 0.485872 -0.000000
v 0.000000 0.671459 -0.000000
v 0.000000 0.948115 -0.362148
v 0.000000 0.671459 -0.000000
v 0.300286 0.485872 -0.000000
v 0.000000 0.948115 0.362148
v 0.300286 0.485872 -0.000000
v 0.000000 0.671459 -0.000000
v 0.000000 0.948115 0.362148
v 0.000000 0.671459 -0.000000
v -0.300285 0.485872 -0.000000
v 0.000000 0.948115 0.362148
v -0.300285 0.485872 -0.000000
v -0.207492 0.543222 0.335729
v -0.585967 0.585968 0.585967
v -0.207492 0.543222 0.335729
v -0.300285 0.485872 -0.000000
v -0.000000 0.300286 0.485872
v -0.207492 0.543222 0.335729
v -0.585967 0.585968 0.585967
v -0.585967 0.585968 0.585967
v -0.335730 0.207492 0.543222
v -0.000000 0.300286 0.485872
v -0.585967 0.585968 0.585967
v -0.485872 0.000000 0.300286
v -0.335730 0.207492 0.543222
v -0.585967 0.585968 0.585967
v -0.543222 0.335730 0.207492
v -0.485872 0.000000 0.300286
v -0.585967 0.585968 0.585967
v -0.300285 0.485872 -0.000000
v -0.543222 0.335730 0.207492
v -0.948115 0.362148 -0.000000
v -0.543222 0.335730 0.207492
v -0.300285 0.485872 -0.000000
v -0.948115 0.362148 -0.000000
v -0.300285 0.485872 -0.000000
v -0.543222 0.335730 -0.207492
v -0.948115 0.362148 -0.000000
v -0.543222 0.335730 -0.207492
v -0.485872 0.000000 -0.300286
v -0.948115 0.362148 -0.000000
v -0.485872 0.000000 -0.300286
v -0.671459 0.000000 -0.000000
v -0.948115 0.362148 -0.000000
v -0.671459 0.000000 -0.000000
v -0.485872 0.000000 0.300286
v -0.948115 0.362148 -0.000000
v -0.485872 0.000000 0.300286
v -0.543222 0.335730 0.207492
v -0.948115 -0.362148 -0.000000
v -0.485872 0.000000 0.300286
v -0.671459 0.000000 -0.000000
v -0.485872 0.000000 -0.300286
v -0.671459 0.000000 -0.000000
v -0.948115 -0.362148 -0.000000
v -0.335730 -0.207492 0.543222
v -0.362148 0.000000 0.948115
v -0.485872 0.000000 0.300286
v -0.362148 0.000000 0.948115
v -0.335730 0.207492 0.543222
v -0.485872 0.000000 0.300286
v -0.335730 0.207492 0.543222
v -0.362148 0.000000 0.948115
v -0.000000 0.300286 0.485872
v -0.000000 0.000000 0.671459
v -0.000000 0.300286 0.485872
v -0.362148 0.000000 0.948115
v 0.362148 0.000000 0.948115
v -0.000000 0.300286 0.485872
v -0.000000 0.000000 0.671459
v 0.300286 0.485872 -0.000000
v 0.585968 0.585967 -0.585968
v 0.207492 0.543222 -0.335730
v 0.585968 0.585967 -0.585968
v 0.000000 0.300286 -0.485872
v 0.207492 0.543222 -0.335730
v 0.585968 0.585967 -0.585968
v 0.335730 0.207492 -0.543222
v 0.000000 0.300286 -0.485872
v 0.585968 0.585967 -0.585968
v 0.485872 -0.000000 -0.300286
v 0.335730 0.207492 -0.543222
v 0.485872 -0.000000 -0.300286
v 0.585968 0.585967 -0.585968
v 0.543222 0.335729 -0.207492
v 0.543222 0.335729 -0.207492
v 0.585968 0.585967 -0.585968
v 0.300286 0.485872 -0.000000
v 0.335730 0.207492 -0.543222
v 0.362148 -0.000000 -0.948115
v 0.000000 0.300286 -0.485872
v 0.485872 -0.000000 -0.300286
v 0.362148 -0.000000 -0.948115
v 0.335730 0.207492 -0.543222
v 0.485872 -0.000000 -0.300286
v 0.335730 -0.207492 -0.543222
v 0.362148 -0.000000 -0.948115
v 0.000000 -0.300286 -0.485872
v 0.362148 -0.000000 -0.948115
v 0.335730 -0.207492 -0.543222
v 0.362148 -0.000000 -0.948115
v 0.000000 -0.300286 -0.485872
v 0.000000 -0.000000 -0.671459
v 0.000000 -0.000000 -0.671459
v 0.000000 0.300286 -0.485872
v 0.362148 -0.000000 -0.948115
v -0.585967 0.585968 -0.585968
v -0.300285 0.485872 -0.000000
v -0.207492 0.543222 -0.335730
v -0.585967 0.585968 -0.585968
v -0.207492 0.543222 -0.335730
v 0.000000 0.300286 -0.485872
v -0.585967 0.585968 -0.585968
v -0.543222 0.335730 -0.207492
v -0.300285 0.485872 -0.000000
vt 0.000000 1.000000
vt 0.292310 0.000000
vt 1.000000 0.000000
vt 0.000000 1.000000
vt 1.000000 0.000000
vt 0.289718 0.000000
vt 1.000000 0.000000
vt 0.000000 1.000000
vt 0.289718 0.000000
vt 0.000000 1.000000
vt 1.000000 0.000000
vt 0.289718 0.000000
vt 0.000000 1.000000
vt 0.292310 0.000000
vt 1.000000 0.000000
vt 0.000000 1.000000
vt 1.000000 0.000000
vt 0.289718 0.000000
vt 0.000000 1.000000
vt 0.292310 0.000000
vt 1.000000 0.000000
vt 0.000000 1.000000
vt 1.000000 0.000000
vt 0.289718 0.000000
vt 0.000000 1.000000
vt 1.000000 0.000000
vt 0.289718 0.000000
vt 0.000000 1.000000
vt 0.292310 0.000000
vt 1.000000 0.000000
vt 0.293153 0.000000
vt 1.000000 0.000000
vt -0.000000 1.000000
vt 0.000000 1.000000
vt 1.000000 0.000000
vt 0.289718 0.000000
vt 0.000000 1.000000
vt 0.292310 0.000000
vt 1.000000 0.000000
vt 0.000000 1.000000
vt 1.000000 0.000000
vt 0.289718 0.000000
vt 0.000000 1.000000
vt 0.292310 0.000000
vt 1.000000 0.000000
vt 0.000000 1.000000
vt 1.000000 0.000000
vt 0.289718 0.000000
vt 1.000000 0.000000
vt 0.000000 1.000000
vt 0.289718 0.000000
vt 0.289718 0.000000
vt 0.000000 1.000000
vt 1.000000 0.000000
vt 0.293153 0.000000
vt 1.000000 0.000000
vt -0.000000 1.000000
vt 0.000000 1.000000
vt 1.000000 0.000000
vt 0.289718 0.000000
vt 0.000000 1.000000
vt 0.292310 0.000000
vt 1.000000 0.000000
vt 0.000000 1.000000
vt 0.289718 0.000000
vt 1.000000 0.000000
vt 0.000000 1.000000
vt 1.000000 0.000000
vt 0.289718 0.000000
vt 0.000000 1.000000
vt 0.292310 0.000000
vt 1.000000 0.000000
vt 1.000000 0.000000
vt 0.289718 0.000000
vt 0.000000 1.000000
vt 0.000000 1.000000
vt 0.292310 0.000000
vt 1.000000 0.000000
vt 0.000000 1.000000
vt 1.000000 0.000000
vt 0.289718 0.000000
vt 0.000000 1.000000
vt 0.292310 0.000000
vt 1.000000 0.000000
vt 0.289718 0.000000
vt 0.000000 1.000000
vt 1.000000 0.000000
vt 0.000000 1.000000
vt 0.289718 0.000000
vt 1.000000 0.000000
vt 0.000000 1.000000
vt 1.000000 0.000000
vt 0.289718 0.000000
vt 0.000000 1.000000
vt 0.292310 0.000000
vt 1.000000 0.000000
vt 0.000000 1.000000
vt 1.000000 0.000000
vt 0.289718 0.000000
vt 0.000000 1.000000
vt 0.292310 0.000000
vt 1.000000 0.000000
vt 0.000000 1.000000
vt 1.000000 0.000000
vt 0.289718 0.000000
vt 0.000000 1.000000
vt 0.292310 0.000000
vt 1.000000 0.000000
vt 0.000000 1.000000
vt 1.000000 0.000000
vt 0.289718 0.000000
vt 0.000000 1.000000
vt 1.000000 0.000000
vt 0.289718 0.000000
vt 0.289718 0.000000
vt 0.000000 1.000000
vt 1.000000 0.000000
vt 0.000000 1.000000
vt 0.292310 0.000000
vt 1.000000 0.000000
vt 0.000000 1.000000
vt 1.000000 0.000000
vt 0.289718 0.000000
vt 0.000000 1.000000
vt 0.291164 0.000000
vt 1.000000 0.000000
vt 0.293153 0.000000
vt 1.000000 0.000000
vt -0.000000 1.000000
vt 0.289718 0.000000
vt 0.000000 1.000000
vt 1.000000 0.000000
vt 0.000000 1.000000
vt 0.292310 0.000000
vt 1.000000 0.000000
vt 0.000000 1.000000
vt 1.000000 0.000000
vt 0.289718 0.000000
vt 0.000000 1.000000
vt 1.000000 0.000000
vt 0.289718 0.000000
vt 0.000000 1.000000
vt 0.289718 0.000000
vt 1.000000 0.000000
vt 0.000000 1.000000
vt 1.000000 0.000000
vt 0.289718 0.000000
vt 0.000000 1.000000
vt 0.292310 0.000000
vt 1.000000 0.000000
vt 0.000000 1.000000
vt 1.000000 0.000000
vt 0.289718 0.000000
vt 1.000000 0.000000
vt 0.000000 1.000000
vt 0.289718 0.000000
vt 0.000000 1.000000
vt 0.292310 0.000000
vt 1.000000 0.000000
vt 0.000000 1.000000
vt 1.000000 0.000000
vt 0.289718 0.000000
vt 0.000000 1.000000
vt 0.292310 0.000000
vt 1.000000 0.000000
vt 0.000000 1.000000
vt 1.000000 0.000000
vt 0.289718 0.000000
vt 0.000000 1.000000
vt 0.292310 0.000000
vt 1.000000 0.000000
vt 1.000000 0.000000
vt 0.289718 0.000000
vt 0.000000 1.000000
vt 0.293153 0.000000
vt 1.000000 0.000000
vt -0.000000 1.000000
vt 0.000000 1.000000
vt 1.000000 0.000000
vt 0.289718 0.000000
vt 0.000000 1.000000
vt 0.292310 0.000000
vt 1.000000 0.000000
vt 0.000000 1.000000
vt 0.292310 0.000000
vt 1.000000 0.000000
vt 0.289718 0.000000
vt 0.000000 1.000000
vt 1.000000 0.000000
vt 0.289718 0.000000
vt 1.000000 0.000000
vt 0.000000 1.000000
vt 1.000000 0.000000
vt 0.289718 0.000000
vt 0.000000 1.000000
vt 0.293153 0.000000
vt 1.000000 0.000000
vt -0.000000 1.000000
vt 0.289718 0.000000
vt 0.000000 1.000000
vt 1.000000 0.000000
vt 0.293153 0.000000
vt 1.000000 0.000000
vt -0.000000 1.000000
vt 0.000000 1.000000
vt 1.000000 0.000000
vt 0.289718 0.000000
vt 0.000000 1.000000
vt 0.292310 0.000000
vt 1.000000 0.000000
vt 1.000000 0.000000
vt 0.289718 0.000000
vt 0.000000 1.000000
vt 0.000000 1.000000
vt 0.292310 0.000000
vt 1.000000 0.000000
vt 0.000000 1.000000
vt 0.292310 0.000000
vt 1.000000 0.000000
vt 1.000000 0.000000
vt 0.000000 1.000000
vt 0.289718 0.000000
vt 0.000000 1.000000
vt 1.000000 0.000000
vt 0.289718 0.000000
vt 0.000000 1.000000
vt 1.000000 0.000000
vt 0.289718 0.000000
vt 0.000000 1.000000
vt 0.292310 0.000000
vt 1.000000 0.000000
vt 0.000000 1.000000
vt 1.000000 0.000000
vt 0.289718 0.000000
vt 0.000000 1.000000
vt 0.292310 0.000000
vt 1.000000 0.000000
vt 0.000000 1.000000
vt 1.000000 0.000000
vt 0.289718 0.000000
vt 0.000000 1.000000
vt 0.292310 0.000000
vt 1.000000 0.000000
vt 0.000000 1.000000
vt 1.000000 0.000000
vt 0.289718 0.000000
vt 0.000000 1.000000
vt 0.292310 0.000000
vt 1.000000 0.000000
vt 1.000000 0.000000
vt 0.289718 0.000000
vt 0.000000 1.000000
vt 0.000000 1.000000
vt 0.292310 0.000000
vt 1.000000 0.000000
vt 0.000000 1.000000
vt 1.000000 0.000000
vt 0.289718 0.000000
vt 0.000000 1.000000
vt 0.292310 0.000000
vt 1.000000 0.000000
vt 0.000000 1.000000
vt 1.000000 0.000000
vt 0.289718 0.000000
vt 0.000000 1.000000
vt 1.000000 0.000000
vt 0.289718 0.000000
vt 0.000000 1.000000
vt 0.292310 0.000000
vt 1.000000 0.000000
vt 0.000000 1.000000
vt 1.000000 0.000000
vt 0.289718 0.000000
vt 0.000000 1.000000
vt 0.292310 0.000000
vt 1.000000 0.000000
vt 0.000000 1.000000
vt 1.000000 0.000000
vt 0.289718 0.000000
vt 0.000000 1.000000
vt 1.000000 0.000000
vt 0.289718 0.000000
vt 1.000000 0.000000
vt 0.289718 0.000000
vt 0.000000 1.000000
vt 0.000000 1.000000
vt 0.292310 0.000000
vt 1.000000 0.000000
vt 0.289718 0.000000
vt 0.000000 1.000000
vt 1.000000 0.000000
vt 0.293153 0.000000
vt 1.000000 0.000000
vt -0.000000 1.000000
vt 0.000000 1.000000
vt 1.000000 0.000000
vt 0.289718 0.000000
vt 0.000000 1.000000
vt 1.000000 0.000000
vt 0.289718 0.000000
vt 0.000000 1.000000
vt 1.000000 0.000000
vt 0.289718 0.000000
vt 0.000000 1.000000
vt 0.292310 0.000000
vt 1.000000 0.000000
vt 0.000000 1.000000
vt 1.000000 0.000000
vt 0.289718 0.000000
vt 1.000000 0.000000
vt 0.000000 1.000000
vt 0.289718 0.000000
vt 0.293153 0.000000
vt -0.000000 1.000000
vt 1.000000 0.000000
vt 0.289718 0.000000
vt 0.000000 1.000000
vt 1.000000 0.000000
vt 1.000000 0.000000
vt 0.000000 1.000000
vt 0.289718 0.000000
vt 1.000000 0.000000
vt 0.292310 0.000000
vt 0.000000 1.000000
vt 0.000000 1.000000
vt 1.000000 0.000000
vt 0.289718 0.000000
vt 0.000000 1.000000
vt 1.000000 0.000000
vt 0.289718 0.000000
vt 0.293153 0.000000
vt 1.000000 0.000000
vt -0.000000 1.000000
vt 0.000000 1.000000
vt 1.000000 0.000000
vt 0.289718 0.000000
vt 0.000000 1.000000
vt 0.292310 0.000000
vt 1.000000 0.000000
vt 0.000000 1.000000
vt 0.292310 0.000000
vt 1.000000 0.000000
vt 0.000000 1.000000
vt 1.000000 0.000000
vt 0.289718 0.000000
vt 0.000000 1.000000
vt 0.292310 0.000000
vt 1.000000 0.000000
vt 0.000000 1.000000
vt 1.000000 0.000000
vt 0.289718 0.000000
vt 0.000000 1.000000
vt 1.000000 0.000000
vt 0.289718 0.000000
vt 0.000000 1.000000
vt 0.292310 0.000000
vt 1.000000 0.000000
vt 0.289718 0.000000
vt 0.000000 1.000000
vt 1.000000 0.000000
vn 0.4408 -0.7133 -0.5449
vn 0.8817 -0.4408 0.1684
vn 0.4408 -0.1684 0.8817
vn -0.4408 -0.7133 -0.5449
vn -0.8817 -0.4408 0.1684
vn 0.4408 -0.7133 0.5449
vn -0.4408 -0.7133 0.5449
vn -0.8817 -0.4408 -0.1684
vn 0.4408 -0.1684 -0.8817
vn 0.8817 -0.4408 -0.1684
vn 0.7133 -0.5449 0.4408
vn -0.1684 0.0000 0.9857
vn 0.5449 0.4408 0.7133
vn 0.9857 0.1684 0.0000
vn 0.7133 -0.5449 -0.4408
vn -0.0000 -0.9857 -0.1684
vn 0.1684 -0.8817 -0.4408
vn 0.1684 -0.8817 0.4408
vn 0.7133 0.5449 0.4408
vn -0.0000 -0.9857 0.1684
vn 0.1684 -0.0000 -0.9857
vn -0.5449 0.4408 -0.7133
vn 0.4408 0.1684 0.8817
vn 0.1684 0.8817 0.4408
vn 0.7133 0.5449 -0.4408
vn 0.9857 -0.1684 0.0000
vn -0.1684 -0.8817 -0.4408
vn 0.5449 -0.4408 -0.7133
vn 0.5449 0.4408 -0.7133
vn -0.1684 0.8817 -0.4408
vn -0.8817 0.4408 -0.1684
vn -0.5449 -0.4408 -0.7133
vn -0.9857 -0.1684 -0.0000
vn -0.1684 -0.0000 -0.9857
vn 0.4408 0.1684 -0.8817
vn 0.1684 0.8817 -0.4408
vn -0.7133 -0.5449 -0.4408
vn -0.1684 -0.8817 0.4408
vn -0.4408 -0.1684 0.8817
vn -0.9857 0.1684 -0.0000
vn -0.5449 0.4408 0.7133
vn 0.1684 -0.0000 0.9857
vn 0.5449 -0.4408 0.7133
vn -0.5449 -0.4408 0.7133
vn 0.8817 0.4408 0.1684
vn 0.0000 0.9857 -0.1684
vn -0.4408 0.7133 0.5449
vn -0.4408 0.1684 0.8817
vn 0.8817 0.4408 -0.1684
vn -0.4408 0.1684 -0.8817
vn 0.4408 0.7133 0.5449
vn 0.4408 0.7133 -0.5449
vn -0.4408 0.7133 -0.5449
vn -0.8817 0.4408 0.1684
vn -0.7133 0.5449 -0.4408
vn -0.7133 -0.5449 0.4408
vn -0.7133 0.5449 0.4408
vn -0.1684 0.8817 0.4408
vn 0.0000 0.9857 0.1684
vn -0.4408 -0.1684 -0.8817
usemtl Material_0.002
s off
f 1/1/1 2/2/1 3/3/1
f 4/4/2 5/5/2 6/6/2
f 7/7/3 8/8/3 9/9/3
f 13/10/4 14/11/4 15/12/4
f 16/13/5 17/14/5 18/15/5
f 19/16/6 20/17/6 21/18/6
f 22/19/7 23/20/7 24/21/7
f 25/22/8 26/23/8 27/24/8
f 31/25/9 32/26/9 33/27/9
f 34/28/10 35/29/10 36/30/10
f 37/31/11 38/32/11 39/33/11
f 40/34/7 41/35/7 42/36/7
f 43/37/12 44/38/12 45/39/12
f 46/40/13 47/41/13 48/42/13
f 49/43/14 50/44/14 51/45/14
f 52/46/15 53/47/15 54/48/15
f 55/49/16 56/50/16 57/51/16
f 58/52/17 59/53/17 60/54/17
f 61/55/18 62/56/18 63/57/18
f 64/58/3 65/59/3 66/60/3
f 67/61/19 68/62/19 69/63/19
f 70/64/20 71/65/20 72/66/20
f 73/67/1 74/68/1 75/69/1
f 76/70/21 77/71/21 78/72/21
f 79/73/22 80/74/22 81/75/22
f 82/76/23 83/77/23 84/78/23
f 85/79/24 86/80/24 87/81/24
f 88/82/25 89/83/25 90/84/25
f 91/85/26 92/86/26 93/87/26
f 94/88/8 95/89/8 96/90/8
f 97/91/27 98/92/27 99/93/27
f 100/94/28 101/95/28 102/96/28
f 103/97/29 104/98/29 105/99/29
f 106/100/30 107/101/30 108/102/30
f 109/103/31 110/104/31 111/105/31
f 112/106/32 113/107/32 114/108/32
f 115/109/21 116/110/21 117/111/21
f 118/112/33 119/113/33 120/114/33
f 121/115/20 122/116/20 123/117/20
f 124/118/4 125/119/4 126/120/4
f 127/121/34 128/122/34 129/123/34
f 130/124/29 131/125/29 132/126/29
f 136/127/9 137/128/9 138/129/9
f 139/130/25 140/131/25 141/132/25
f 142/133/15 143/134/15 144/135/15
f 145/136/11 146/137/11 147/138/11
f 148/139/35 149/140/35 150/141/35
f 151/142/36 152/143/36 153/144/36
f 154/145/24 155/146/24 156/147/24
f 157/148/23 158/149/23 159/150/23
f 160/151/16 161/152/16 162/153/16
f 163/154/6 164/155/6 165/156/6
f 166/157/37 167/158/37 168/159/37
f 169/160/38 170/161/38 171/162/38
f 172/163/39 173/164/39 174/165/39
f 175/166/40 176/167/40 177/168/40
f 178/169/41 179/170/41 180/171/41
f 181/172/42 182/173/42 183/174/42
f 184/175/38 185/176/38 186/177/38
f 187/178/43 188/179/43 189/180/43
f 190/181/44 191/182/44 192/183/44
f 196/184/2 197/185/2 198/186/2
f 199/187/45 200/188/45 201/189/45
f 202/190/24 203/191/24 204/192/24
f 205/193/12 206/194/12 207/195/12
f 208/196/43 209/197/43 210/198/43
f 211/199/26 212/200/26 213/201/26
f 214/202/25 215/203/25 216/204/25
f 217/205/46 218/206/46 219/207/46
f 220/208/47 221/209/47 222/210/47
f 223/211/23 224/212/23 225/213/23
f 226/214/45 227/215/45 228/216/45
f 229/217/48 230/218/48 231/219/48
f 232/220/35 233/221/35 234/222/35
f 235/223/49 236/224/49 237/225/49
f 238/226/50 239/227/50 240/228/50
f 241/229/31 242/230/31 243/231/31
f 244/232/47 245/233/47 246/234/47
f 247/235/51 248/236/51 249/237/51
f 250/238/52 251/239/52 252/240/52
f 253/241/53 254/242/53 255/243/53
f 256/244/54 257/245/54 258/246/54
f 259/247/46 260/248/46 261/249/46
f 262/250/51 263/251/51 264/252/51
f 265/253/42 266/254/42 267/255/42
f 268/256/44 269/257/44 270/258/44
f 271/259/33 272/260/33 273/261/33
f 274/262/55 275/263/55 276/264/55
f 280/265/30 281/266/30 282/267/30
f 283/268/50 284/269/50 285/270/50
f 286/271/37 287/272/37 288/273/37
f 289/274/56 290/275/56 291/276/56
f 292/277/48 293/278/48 294/279/48
f 295/280/57 296/281/57 297/282/57
f 298/283/11 299/284/11 300/285/11
f 304/286/54 305/287/54 306/288/54
f 307/289/58 308/290/58 309/291/58
f 310/292/13 311/293/13 312/294/13
f 313/295/41 314/296/41 315/297/41
f 316/298/59 317/299/59 318/300/59
f 319/301/53 320/302/53 321/303/53
f 322/304/34 323/305/34 324/306/34
f 325/307/28 326/308/28 327/309/28
f 328/310/26 329/311/26 330/312/26
f 331/313/19 332/314/19 333/315/19
f 334/316/36 335/317/36 336/318/36
f 337/319/49 338/320/49 339/321/49
f 340/322/10 341/323/10 342/324/10
f 343/325/17 344/326/17 345/327/17
f 346/328/32 347/329/32 348/330/32
f 349/331/22 350/332/22 351/333/22
f 352/334/59 353/335/59 354/336/59
f 355/337/52 356/338/52 357/339/52
f 358/340/57 359/341/57 360/342/57
s 1
f 10/343/39 11/344/39 12/345/39
f 28/346/60 29/347/60 30/348/60
f 133/349/14 134/350/14 135/351/14
f 193/352/18 194/353/18 195/354/18
f 277/355/58 278/356/58 279/357/58
f 301/358/5 302/359/5 303/360/5
