# Blender v2.82 (sub 7) OBJ File: ''
# www.blender.org
mtllib great-rhombihexacron.mtl
o Mesh
v 2.229807 1.307440 -0.383392
v 0.482177 0.965239 -0.483194
v 0.382094 1.305447 -2.231197
v 1.165196 0.000693 0.199946
v 1.847713 0.001994 1.847806
v -0.001290 2.613125 -0.001529
v -0.199887 -0.000780 -1.165205
v -0.541560 0.764783 -0.541657
v 0.765386 -0.000070 -0.765348
v 0.383385 -1.307679 -2.229669
v -0.383385 1.307679 2.229669
v -0.483131 0.965327 0.482065
v 0.540804 0.765951 0.540762
v 2.231098 -1.305685 -0.381863
v -0.765386 0.000070 0.765348
v 0.541560 -0.764783 0.541657
v 0.483131 -0.965327 -0.482065
v -1.847713 -0.001994 -1.847806
v -2.229807 -1.307440 0.383392
v 0.199887 0.000780 1.165205
v -2.231098 1.305685 0.381863
v -1.165196 -0.000693 -0.199946
v -0.540804 -0.765951 -0.540762
v 0.001290 -2.613125 0.001529
v -0.382094 -1.305447 2.231197
v -0.482177 -0.965239 0.483194
vt 1.000000 0.000000
vt 0.124977 1.000000
vt 0.000000 0.000000
vt 1.000000 0.000000
vt 0.124977 1.000000
vt 0.000000 0.000000
vt 0.124977 1.000000
vt 0.000000 0.000000
vt 1.000000 0.000000
vt 0.124977 1.000000
vt 0.000000 0.000000
vt 0.000000 0.000000
vt 1.000000 0.000000
vt 0.124977 1.000000
vt 0.000000 0.000000
vt 1.000000 0.000000
vt 1.000000 0.000000
vt 0.000000 0.000000
vt 1.000000 0.000000
vt 0.124977 1.000000
vt 1.000000 0.000000
vt 0.124977 1.000000
vt 1.000000 0.000000
vt 0.000000 0.000000
vt 1.000000 0.000000
vt 0.124977 1.000000
vt 0.000000 0.000000
vt 0.124977 1.000000
vt 0.000000 0.000000
vt 0.000000 0.000000
vt 0.124977 1.000000
vt 1.000000 0.000000
vt 0.124977 1.000000
vt 0.000000 0.000000
vt 1.000000 0.000000
vt 0.124977 1.000000
vt 1.000000 0.000000
vt 0.000000 0.000000
vt 1.000000 0.000000
vt 0.000000 0.000000
vn -0.1992 0.9597 0.1982
vn -0.0001 0.2805 -0.9598
vn 0.4798 0.0008 0.8774
vn 0.9595 0.2816 -0.0001
vn -0.8773 -0.0007 -0.4799
vn 0.6789 -0.6784 -0.2807
vn -0.9598 0.2806 -0.0002
vn 0.6783 0.6788 -0.2815
vn -0.1983 -0.9597 0.1993
vn 0.2814 -0.6789 -0.6782
vn -0.0002 0.2816 0.9595
vn 0.2808 0.6783 -0.6790
vn -0.2808 -0.6783 0.6790
vn 0.1983 0.9597 -0.1993
vn 0.0002 -0.2816 -0.9595
vn 0.9598 -0.2806 0.0002
vn -0.6783 -0.6788 0.2815
vn -0.6789 0.6784 0.2807
vn 0.8773 0.0007 0.4799
vn -0.4798 -0.0008 -0.8774
vn -0.9595 -0.2816 0.0001
vn 0.0001 -0.2805 0.9598
vn 0.1910 0.6538 0.7322
vn 0.1691 0.0007 0.9856
vn -0.3827 0.0004 0.9239
vn -0.2814 0.6789 0.6782
vn 0.6224 -0.2193 0.7513
vn 0.7329 -0.6528 0.1917
vn -0.1910 -0.6538 -0.7322
vn 0.1992 -0.9597 -0.1982
usemtl SlateBlue
s off
f 2/1/1 3/2/1 8/3/1
f 8/4/2 6/5/2 2/6/2
f 2/1/2 1/7/2 9/8/2
f 16/9/3 14/10/3 4/11/3
f 2/1/4 6/5/4 13/12/4
f 7/13/5 10/14/5 23/15/5
f 9/16/6 1/7/6 4/11/6
f 6/5/7 8/3/7 12/17/7
f 12/18/7 15/19/7 11/20/7
f 13/21/8 5/22/8 4/11/8
f 14/10/8 9/8/8 4/23/8
f 14/10/9 16/24/9 17/25/9
f 3/2/10 9/8/10 7/13/10
f 12/18/11 13/21/11 6/5/11
f 21/26/11 15/27/11 12/17/11
f 7/13/12 18/28/12 8/3/12
f 20/29/13 16/9/13 5/22/13
f 8/4/14 21/26/14 12/18/14
f 17/30/15 9/16/15 14/10/15
f 17/25/15 24/31/15 23/15/15
f 16/9/16 24/31/16 17/30/16
f 17/25/16 10/14/16 9/8/16
f 18/28/17 23/15/17 22/32/17
f 22/32/18 19/33/18 15/27/18
f 20/29/19 13/21/19 11/20/19
f 21/26/20 8/3/20 22/32/20
f 26/34/21 23/35/21 24/31/21
f 25/36/21 15/27/21 26/37/21
f 24/31/22 16/24/22 26/37/22
f 26/34/22 15/19/22 19/33/22
s 1
f 13/21/23 1/7/23 2/6/1
f 1/7/23 13/12/23 4/23/3
f 9/16/4 3/2/4 2/6/4
f 7/38/5 8/4/5 3/2/5
f 5/22/6 16/24/6 4/23/6
f 17/30/9 23/35/9 10/14/9
f 7/38/10 23/35/10 18/28/10
f 7/38/12 9/16/12 10/14/12
f 20/39/24 11/20/13 15/27/25
f 12/17/14 11/20/14 13/12/14
f 5/22/26 13/12/26 20/39/26
f 15/19/25 25/36/27 20/29/24
f 15/19/17 21/26/17 22/40/17
f 22/40/18 8/4/18 18/28/18
f 20/39/24 25/36/27 16/24/28
f 22/40/20 23/35/29 19/33/29
f 26/34/30 16/9/28 25/36/27
f 26/37/30 19/33/29 23/15/29
