{
    "asset" : {
        "generator" : "Khronos glTF Blender I/O v1.0.5",
        "version" : "2.0"
    },
    "scene" : 0,
    "scenes" : [
        {
            "name" : "Scene",
            "nodes" : [
                0
            ]
        }
    ],
    "nodes" : [
        {
            "mesh" : 0,
            "name" : "Great Dodecicosacron (Dual of 10/3.6.10/7.6/5), WD101, p67",
            "rotation" : [
                0,
                -0.7071068286895752,
                -0.7071067094802856,
                -1.1520230458472724e-07
            ],
            "scale" : [
                1.25,
                1.25,
                1.25
            ]
        }
    ],
    "materials" : [
        {
            "doubleSided" : true,
            "name" : "Material_0",
            "pbrMetallicRoughness" : {
                "baseColorTexture" : {
                    "index" : 0,
                    "texCoord" : 0
                },
                "metallicFactor" : 0,
                "roughnessFactor" : 1
            }
        }
    ],
    "meshes" : [
        {
            "name" : "Great Dodecicosacron (Dual of 10/3.6.10/7.6/5), WD101, p67",
            "primitives" : [
                {
                    "attributes" : {
                        "POSITION" : 0,
                        "NORMAL" : 1,
                        "TEXCOORD_0" : 2,
                        "JOINTS_0" : 3,
                        "WEIGHTS_0" : 4
                    },
                    "indices" : 5,
                    "material" : 0
                }
            ]
        }
    ],
    "textures" : [
        {
            "source" : 0
        }
    ],
    "images" : [
        {
            "bufferView" : 6,
            "mimeType" : "image/png",
            "name" : "great-dodecicosacron__3-uniform_53"
        }
    ],
    "accessors" : [
        {
            "bufferView" : 0,
            "componentType" : 5126,
            "count" : 360,
            "max" : [
                22.100019454956055,
                22.100019454956055,
                22.100019454956055
            ],
            "min" : [
                -22.100019454956055,
                -22.100019454956055,
                -22.100019454956055
            ],
            "type" : "VEC3"
        },
        {
            "bufferView" : 1,
            "componentType" : 5126,
            "count" : 360,
            "type" : "VEC3"
        },
        {
            "bufferView" : 2,
            "componentType" : 5126,
            "count" : 360,
            "type" : "VEC2"
        },
        {
            "bufferView" : 3,
            "componentType" : 5123,
            "count" : 360,
            "type" : "VEC4"
        },
        {
            "bufferView" : 4,
            "componentType" : 5126,
            "count" : 360,
            "type" : "VEC4"
        },
        {
            "bufferView" : 5,
            "componentType" : 5123,
            "count" : 360,
            "type" : "SCALAR"
        }
    ],
    "bufferViews" : [
        {
            "buffer" : 0,
            "byteLength" : 4320,
            "byteOffset" : 0
        },
        {
            "buffer" : 0,
            "byteLength" : 4320,
            "byteOffset" : 4320
        },
        {
            "buffer" : 0,
            "byteLength" : 2880,
            "byteOffset" : 8640
        },
        {
            "buffer" : 0,
            "byteLength" : 2880,
            "byteOffset" : 11520
        },
        {
            "buffer" : 0,
            "byteLength" : 5760,
            "byteOffset" : 14400
        },
        {
            "buffer" : 0,
            "byteLength" : 720,
            "byteOffset" : 20160
        },
        {
            "buffer" : 0,
            "byteLength" : 82076,
            "byteOffset" : 20880
        }
    ],
    "buffers" : [
        {
            "byteLength" : 102956,
            "uri" : "data:application/octet-stream;base64,"
        }
    ]
}
