{
    "asset" : {
        "generator" : "Khronos glTF Blender I/O v1.0.5",
        "version" : "2.0"
    },
    "scene" : 0,
    "scenes" : [
        {
            "name" : "Scene",
            "nodes" : [
                0,
                1,
                2
            ]
        }
    ],
    "nodes" : [
        {
            "mesh" : 0,
            "name" : "Mesh",
            "rotation" : [
                -0.8804828524589539,
                0.3646736741065979,
                0.11593306064605713,
                0.27986180782318115
            ]
        },
        {
            "name" : "Lamp",
            "rotation" : [
                0.16907575726509094,
                0.7558803558349609,
                -0.27217137813568115,
                0.570947527885437
            ],
            "translation" : [
                4.076245307922363,
                5.903861999511719,
                -1.0054539442062378
            ]
        },
        {
            "name" : "Camera",
            "rotation" : [
                0.48170700669288635,
                0.3342514932155609,
                -0.21292176842689514,
                0.7816000580787659
            ],
            "translation" : [
                7.481131553649902,
                5.34366512298584,
                6.5076398849487305
            ]
        }
    ],
    "materials" : [
        {
            "doubleSided" : true,
            "name" : "IndianRed",
            "pbrMetallicRoughness" : {
                "baseColorTexture" : {
                    "index" : 0,
                    "texCoord" : 0
                },
                "metallicFactor" : 0,
                "roughnessFactor" : 0.5
            }
        }
    ],
    "meshes" : [
        {
            "name" : "Mesh",
            "primitives" : [
                {
                    "attributes" : {
                        "POSITION" : 0,
                        "NORMAL" : 1,
                        "TEXCOORD_0" : 2
                    },
                    "indices" : 3,
                    "material" : 0
                }
            ]
        }
    ],
    "textures" : [
        {
            "source" : 0
        }
    ],
    "images" : [
        {
            "bufferView" : 4,
            "mimeType" : "image/png",
            "name" : "star-tetrahedron__template"
        }
    ],
    "accessors" : [
        {
            "bufferView" : 0,
            "componentType" : 5126,
            "count" : 82,
            "max" : [
                1.4142177104949951,
                1.4142177104949951,
                1.4142177104949951
            ],
            "min" : [
                -1.4142177104949951,
                -1.4142177104949951,
                -1.4142177104949951
            ],
            "type" : "VEC3"
        },
        {
            "bufferView" : 1,
            "componentType" : 5126,
            "count" : 82,
            "type" : "VEC3"
        },
        {
            "bufferView" : 2,
            "componentType" : 5126,
            "count" : 82,
            "type" : "VEC2"
        },
        {
            "bufferView" : 3,
            "componentType" : 5123,
            "count" : 144,
            "type" : "SCALAR"
        }
    ],
    "bufferViews" : [
        {
            "buffer" : 0,
            "byteLength" : 984,
            "byteOffset" : 0
        },
        {
            "buffer" : 0,
            "byteLength" : 984,
            "byteOffset" : 984
        },
        {
            "buffer" : 0,
            "byteLength" : 656,
            "byteOffset" : 1968
        },
        {
            "buffer" : 0,
            "byteLength" : 288,
            "byteOffset" : 2624
        },
        {
            "buffer" : 0,
            "byteLength" : 101837,
            "byteOffset" : 2912
        }
    ],
    "buffers" : [
        {
            "byteLength" : 104752,
            "uri" : "data:application/octet-stream;base64,"
        }
    ]
}
