<?xml version="1.0" encoding="UTF-8" standalone="no"?>
<svg
   xmlns:dc="http://purl.org/dc/elements/1.1/"
   xmlns:cc="http://creativecommons.org/ns#"
   xmlns:rdf="http://www.w3.org/1999/02/22-rdf-syntax-ns#"
   xmlns:svg="http://www.w3.org/2000/svg"
   xmlns="http://www.w3.org/2000/svg"
   xmlns:sodipodi="http://sodipodi.sourceforge.net/DTD/sodipodi-0.dtd"
   xmlns:inkscape="http://www.inkscape.org/namespaces/inkscape"
   viewBox="-19.99838033203029 0 306.2649076309922 409.20504743480944"
   data-reactroot=""
   version="1.1"
   id="svg881"
   sodipodi:docname="disdyakisdodecahedron__3-uniform_53.svg"
   inkscape:version="1.0beta1 (32d4812, 2019-09-19)">
  <metadata
     id="metadata887">
    <rdf:RDF>
      <cc:Work
         rdf:about="">
        <dc:format>image/svg+xml</dc:format>
        <dc:type
           rdf:resource="http://purl.org/dc/dcmitype/StillImage" />
        <dc:title></dc:title>
      </cc:Work>
    </rdf:RDF>
  </metadata>
  <defs
     id="defs885" />
  <sodipodi:namedview
     pagecolor="#ffffff"
     bordercolor="#666666"
     inkscape:document-rotation="0"
     borderopacity="1"
     objecttolerance="10"
     gridtolerance="10"
     guidetolerance="10"
     inkscape:pageopacity="0"
     inkscape:pageshadow="2"
     inkscape:window-width="1600"
     inkscape:window-height="907"
     id="namedview883"
     showgrid="false"
     inkscape:zoom="1.1205603"
     inkscape:cx="164.38597"
     inkscape:cy="259.11106"
     inkscape:window-x="0"
     inkscape:window-y="23"
     inkscape:window-maximized="0"
     inkscape:current-layer="svg881" />
  <path
     id="path889"
     style="opacity:1;fill:#ffff00;stroke:#000000;stroke-width:1px;stroke-linecap:butt;stroke-linejoin:miter;stroke-opacity:1;stop-opacity:1"
     d="m 4.566073,6.5273438 1.648438,11.9179682 6.099609,-0.84375 z m -5.144531,5.2871092 -0.240234,4.921875 0.976562,0.396484 z m -0.541016,11.082031 -0.167968,3.449219 1.226562,-3.019531 z m 17.179688,0.0625 -6.9375,0.958985 7.097656,9.125 2.535156,-6.234375 z M 4.528964,27.492188 0.175448,38.201172 11.62662,36.617188 Z m 18.199218,4.998046 -1.115234,2.744141 2.767578,-0.382813 z m 5.400391,7.71875 -7.828125,1.083985 2.167969,15.669922 15.669922,-2.167969 -0.04883,-0.345703 z m -13.59375,1.88086 -15.669922,2.167968 2.167969,15.669922 15.669922,-2.167968 z m 22.289063,18.763672 -11.449219,1.583984 7.097656,9.123047 z m 5.394531,2.191406 -4.353516,10.707031 11.449219,-1.583984 z m -26.830078,0.773437 -11.447266,1.583985 7.09375,9.123047 z m 5.394531,2.191407 -4.355469,10.708984 11.451172,-1.583984 z m -21.4375,2.964843 -3.087891,7.595703 -0.144531,2.958985 10.330078,-1.429688 z M 52.222323,77.640625 36.552401,79.808594 38.72037,95.480469 54.390292,93.3125 Z m -21.4375,2.966797 -15.669922,2.167969 2.167969,15.669921 15.669922,-2.167968 z m -21.435547,2.964844 -13.52539,1.871093 -0.570313,11.675782 0.59375,4.292969 15.669922,-2.167969 z m 49.679688,0.808593 0.833984,6.023438 2.189453,-1.703125 z m 6.363281,9.095703 -1.955078,1.521485 4.220703,1.716797 z m -12.314453,5.892579 -11.449219,1.583979 7.095703,9.125 z m 6.193359,0.21875 -5.957031,14.656249 14.654297,5.95703 5.925781,-14.57422 -0.0957,-0.13476 z m -27.628906,2.748049 -11.451172,1.58398 7.097656,9.12305 z m 5.390625,2.1914 -4.351562,10.70704 11.447265,-1.58204 z m -26.828125,0.77344 -11.449219,1.58399 7.097656,9.12304 z m 5.392578,2.19141 -4.351562,10.70898 11.449218,-1.58398 z m -21.021484,3.49804 -0.46875,9.58008 7.15039,-0.98828 z m 83.291015,0.31641 -4.505859,11.08594 14.656245,5.95703 0.6504,-1.60156 z m -30.828125,7.81836 -15.671875,2.16797 2.167969,15.66992 15.671875,-2.16797 z m 6.056641,1.3125 1.583984,11.44922 9.123047,-7.0957 z m -27.492188,1.65234 -15.671874,2.16797 2.167968,15.66992 15.671875,-2.16796 z m -21.4375,2.96485 -10.347656,1.43164 -0.785156,16.08008 13.300781,-1.83985 z m 68.976563,3.53125 1.583984,11.45117 9.123051,-7.09766 z m -5.765625,0.79883 -9.123047,7.09765 10.707031,4.35156 z m 25.8125,7.35156 1.58398,11.44922 5.75977,-4.47852 -3.89648,-5.56836 z m -5.76562,0.79883 -9.123052,7.0957 10.707032,4.35352 z m -39.529302,3.3164 -11.451172,1.58399 7.097656,9.125 z m 6.19336,0.21875 -5.957032,14.65625 14.654297,5.95703 5.957031,-14.65429 z m -27.628907,2.74805 -11.451172,1.58398 7.097657,9.12305 z m 5.390625,2.19141 -4.353515,10.70898 11.451171,-1.58398 z m -26.826172,0.77343 -11.453125,1.58399 7.09961,9.125 z m 98.849606,1.69922 -5.52539,4.29883 10.70703,4.35352 -0.21484,-1.55469 z m -93.458981,0.49414 -4.353515,10.70703 11.449218,-1.58398 z m 63.720703,0.24414 -5.957031,14.65625 14.654299,5.95703 5.95703,-14.65625 z m -81.773437,7.07227 -0.259766,5.32226 3.972657,-0.54882 z m 101.820315,1.07812 -5.95703,14.6543 14.65429,5.95703 5.95703,-14.6543 z m -52.328128,3.23633 -15.669921,2.16797 2.167968,15.66992 15.669922,-2.16797 z m 6.058594,1.3125 1.583985,11.44922 9.125,-7.0957 z m -27.49414,1.65235 -15.669922,2.16796 2.167968,15.67188 15.669922,-2.16797 z m -21.435547,2.96679 -7.169922,0.99219 -0.785156,16.07813 10.123047,-1.4004 z m 114.443361,0.95508 -4.35352,10.70703 11.45117,-1.58398 z m -45.466799,2.57617 1.583985,11.44922 9.123046,-7.0957 z m -5.765625,0.79688 -9.125,7.09765 10.708985,4.35352 z m 25.812504,7.35351 1.58398,11.44922 9.12305,-7.09765 z m -5.76563,0.79688 -9.124999,7.09765 10.708989,4.35157 z m 41.18945,3.07226 -15.66992,2.16797 2.16797,15.67188 15.66992,-2.16797 z m -80.720699,0.2461 -11.449219,1.58398 7.095704,9.125 z m 6.19336,0.21679 -5.957032,14.65625 14.65625,5.95704 5.957032,-14.6543 z m -27.628907,2.74805 -11.449218,1.58399 7.095703,9.125 z m 108.505856,0.21289 1.58399,11.44922 5.85937,-0.81055 z m -27.49218,1.6543 -9.12305,7.0957 10.70703,4.35352 z m -75.621098,0.32617 -4.353515,10.70703 11.451172,-1.58398 z m -26.828124,0.77344 -9.09961,1.25781 -0.154297,3.15039 4.900391,6.29883 z m 5.390624,2.1914 -4.353515,10.70704 11.451172,-1.58399 z m 63.722657,0.24414 -5.958985,14.65626 14.65625,5.95703 5.957036,-14.6543 z m 20.046871,8.1504 -5.95898,14.65429 14.6543,5.95899 5.95898,-14.65625 z m 51.97266,2.6582 -6.69727,0.92578 7.09571,9.12305 2.4375,-5.9961 z m -150.822266,0.082 -0.05273,1.06445 0.794922,-0.10937 z m 46.521485,0.49609 -15.669922,2.16797 2.167969,15.66992 15.669922,-2.16796 z m 6.05664,1.3125 1.583985,11.45118 9.125,-7.09766 z m 81.558591,0.41797 -11.44922,1.58399 7.09571,9.12304 z m -109.050778,1.23633 -15.671875,2.16797 2.167969,15.66992 15.671875,-2.16797 z m 114.443358,0.95508 -4.35351,10.70703 11.45117,-1.58398 z m -135.878905,2.00976 -3.992188,0.55274 -0.785156,16.07812 6.945313,-0.96093 z m 114.443355,0.95508 -4.35351,10.70899 11.45117,-1.58594 z m 39.53907,2.26953 -1.01953,2.50782 2.52929,-0.34961 z m -85.005862,0.30664 1.583984,11.44922 9.123047,-7.0957 z m -5.765626,0.79883 -9.125,7.09571 10.707032,4.35351 z m 96.029298,6.40821 -7.58984,1.05078 2.16796,15.66992 15.60743,-2.16016 z m -70.2168,0.94335 1.58399,11.44922 9.12304,-7.09765 z m -5.765622,0.79688 -9.125,7.0957 10.708984,4.35352 z m 62.625002,0.10742 -15.66992,2.16797 2.16796,15.67188 15.66993,-2.16797 z m -21.43555,2.9668 -15.66992,2.16797 2.16797,15.66992 15.66992,-2.16797 z m -80.720702,0.24414 -11.449219,1.58398 7.095703,9.12305 z m 6.193359,0.21875 -5.957031,14.6543 14.65625,5.95898 5.957031,-14.65625 z m -27.628906,2.74805 -11.451172,1.58398 7.097656,9.12305 z m 81.011719,1.86523 -9.12109,7.0957 10.70507,4.35157 z m -75.621094,0.32617 -4.351563,10.70703 11.449219,-1.58398 z m -26.828125,0.77344 -5.919922,0.81836 -0.363282,7.40625 1.931641,2.48242 z m 5.392578,2.19141 -4.353516,10.70898 11.451172,-1.58398 z m 63.722656,0.24609 -5.958984,14.6543 14.654297,5.95703 5.958984,-14.6543 z m 98.205075,7.18359 -11.44922,1.58399 7.09766,9.12304 z m 5.99024,0.72266 -5.75196,14.15039 14.6543,5.95703 1.89844,-4.66797 z m -84.15039,0.24219 -5.957034,14.65429 14.656254,5.95899 5.95703,-14.6543 z m 56.72461,2 -11.44922,1.58398 7.09765,9.125 z m -109.050785,1.23828 -15.669922,2.16797 2.167969,15.66992 15.669922,-2.16797 z m 114.443355,0.95508 -4.35156,10.70703 11.44922,-1.58399 z m -108.386714,0.35742 1.583984,11.44922 9.125,-7.09766 z m 81.558594,0.41601 -11.44922,1.58399 7.0957,9.12305 z m -109.052735,1.23633 -15.669922,2.16797 2.167969,15.66992 15.669922,-2.16797 z m 114.445315,0.95508 -4.35352,10.70703 11.44922,-1.58398 z m -135.880862,2.01172 -0.8125,0.11328 -0.785156,16.07617 3.765625,-0.52148 z m 114.445312,0.95312 -4.35352,10.70899 11.44922,-1.58399 z m -45.468749,2.57618 1.583984,11.45117 9.125,-7.09766 z m -5.763672,0.79687 -9.125,7.09766 10.708984,4.35351 z m 104.109371,5.29492 -15.67187,2.16797 2.16797,15.66992 15.67187,-2.16796 z m 6.05664,1.3125 1.58399,11.44922 9.12305,-7.09765 z m -84.355464,0.7461 1.583984,11.44922 9.125,-7.09571 z m 105.101564,0.0293 -0.48047,1.17969 1.82422,0.74219 z m -110.867189,0.76758 -9.123047,7.09766 10.707031,4.35156 z m 62.626949,0.10938 -15.66992,2.16797 2.16797,15.66992 15.66992,-2.16797 z m -21.43554,2.96484 -15.66993,2.16797 2.16797,15.67187 15.66993,-2.16796 z m -80.722659,0.24414 -11.447266,1.58399 7.095703,9.125 z m 6.195312,0.21875 -5.957031,14.6543 14.654297,5.95898 5.958984,-14.65625 z m -27.630859,2.74805 -11.449219,1.58398 7.095703,9.12305 z m 171.134766,0.32031 1.58398,11.45117 7.95508,-6.1875 -1.35351,-1.93554 z m -5.76563,0.79883 -9.12304,7.0957 10.70703,4.35352 z m -84.35546,0.74609 -9.12305,7.09766 10.70898,4.35351 z m -75.621098,0.32617 -4.351563,10.70704 11.449219,-1.58399 z m -26.828125,0.77344 -2.742188,0.37891 -0.353515,7.23633 z m 5.392578,2.19141 -4.351563,10.70898 11.449219,-1.58398 z m 63.720703,0.24609 -5.957031,14.6543 14.654297,5.95898 5.957031,-14.65625 z m 136.337892,4.95703 -7.72266,6.00586 10.70703,4.35157 -1.05078,-7.5918 z m -38.12891,2.22657 -11.45117,1.58398 7.09766,9.12305 z m 6.19336,0.21875 -5.95703,14.65429 14.6543,5.95899 5.95703,-14.65625 z m -84.355467,0.74609 -5.957031,14.65625 14.654298,5.95703 5.95898,-14.6543 z m 56.726567,2 -11.45313,1.58594 7.09766,9.12304 z m -109.054692,1.23828 -15.669922,2.16797 2.167969,15.66992 15.669922,-2.16797 z m 114.445312,0.95508 -4.35352,10.70703 11.44922,-1.58398 z m -108.386718,0.35742 1.583984,11.44922 9.123047,-7.0957 z m 81.558598,0.41602 -11.45118,1.58398 7.09766,9.12305 z m -109.052739,1.23632 -15.669922,2.16797 2.167969,15.66993 15.669922,-2.16797 z m 114.445309,0.95508 -4.35351,10.70899 11.44922,-1.58399 z m 63.72071,0.24414 -5.95703,14.65625 14.65429,5.95703 5.95703,-14.65429 z m -85.15821,2.72071 -4.35351,10.70898 11.45117,-1.58398 z m -45.466793,2.57617 1.583984,11.45117 9.123047,-7.09766 z m -5.765625,0.79883 -9.123047,7.0957 10.707031,4.35351 z m 156.437498,2.05468 -5.95703,14.65625 14.6543,5.95704 3.92383,-9.65235 -5.69727,-8.14646 z m -52.32812,3.23829 -15.66993,2.16796 2.16797,15.66993 15.66993,-2.16797 z m 6.05859,1.3125 1.58398,11.44921 9.12305,-7.09765 z m -84.355468,0.74804 1.583984,11.44727 9.123044,-7.09571 z m -5.765625,0.79688 -9.123047,7.0957 10.707031,4.35352 z m -81.521485,0.0703 -0.15625,3.20312 0.587891,-0.082 z m 144.148438,0.0371 -15.66992,2.16797 2.16797,15.66992 15.66992,-2.16797 z m -21.43555,2.9668 -15.67187,2.16796 2.16797,15.66797 15.67187,-2.16797 z m -80.7207,0.24414 -11.451172,1.58398 7.097656,9.12305 z m 6.193359,0.21679 -5.957031,14.65625 14.654297,5.95703 5.957031,-14.65429 z M 5.72037,309.75 l -11.449219,1.58398 7.097657,9.12305 z m 171.13281,0.32031 1.58594,11.45117 9.12305,-7.09765 z m -5.76367,0.79883 -9.12305,7.0957 10.70704,4.35352 z m -84.35547,0.74609 -9.123045,7.09766 10.707035,4.35156 z m -75.621092,0.32618 -4.353516,10.70898 11.451172,-1.58398 z m 208.560552,2.07031 -1.70508,4.1914 4.22656,-0.58398 z m -229.996099,0.89648 -4.353515,10.70703 11.449218,-1.58398 z m 63.720703,0.24414 -5.958984,14.6543 14.65625,5.95898 5.957031,-14.65624 z m 143.503906,3.06836 1.58399,11.44922 9.12109,-7.0957 z m -5.76562,0.79688 -9.125,7.09765 10.70898,4.35352 z m -39.53125,3.31836 -11.44922,1.58398 7.0957,9.125 z m 6.19531,0.21875 -5.95899,14.65429 14.6543,5.95899 5.95898,-14.65625 z m 68.14258,0.41992 -9.28711,1.28516 2.16797,15.67187 15.67187,-2.16797 -0.44141,-3.19531 z m -152.498051,0.32812 -5.957031,14.6543 14.654292,5.95703 5.95704,-14.65429 z m 56.724611,2 -11.44922,1.58399 7.0957,9.12305 z m -109.052736,1.23633 -15.669922,2.16797 2.167969,15.66992 15.669922,-2.16797 z m 190.066406,0.62891 -9.12305,7.09765 10.70703,4.35352 z m -75.62109,0.32617 -4.35352,10.70703 11.44922,-1.58398 z m -108.386722,0.35742 1.583984,11.44922 9.123047,-7.0957 z m 81.558592,0.41602 -11.44922,1.58398 7.09571,9.12305 z m -109.052732,1.23633 -15.669922,2.16797 2.167968,15.66992 15.669922,-2.16797 z m 114.443362,0.95507 -4.35352,10.70899 11.45117,-1.58399 z m 63.7207,0.2461 -5.95703,14.6543 14.65625,5.95898 5.95703,-14.65625 z m -85.15625,2.7207 -4.35352,10.70703 11.44922,-1.58398 z m -45.466797,2.57617 1.583985,11.44922 9.123046,-7.09765 z m -5.765625,0.79688 -9.123047,7.09765 10.707031,4.35157 z m 156.437502,2.05469 -5.95899,14.65625 14.65625,5.95703 5.95704,-14.6543 z m -52.32813,3.23828 -15.67187,2.16797 2.16797,15.66992 15.67187,-2.16797 z m 6.05664,1.31054 1.58399,11.45118 9.125,-7.09766 z m 81.5586,0.41797 -11.44922,1.58399 7.09765,9.12304 z m -165.912112,0.33008 1.583984,11.44922 9.123047,-7.0957 z m -5.767578,0.79883 -9.123047,7.0957 10.707031,4.35352 z m 62.62891,0.10742 -15.67188,2.16797 2.16797,15.66992 15.67188,-2.16797 z m 114.44336,0.95508 -4.35157,10.70703 11.44727,-1.58203 z m -135.87891,2.00976 -15.67188,2.16797 2.16797,15.67188 15.67188,-2.16797 z m -80.722657,0.2461 -11.451172,1.58398 7.09961,9.12305 z m 6.195313,0.21875 -5.958985,14.65429 14.654297,5.95704 5.958984,-14.6543 z m 188.970704,0.49219 -4.35352,10.70703 11.44922,-1.58399 z m -216.601564,2.2539 -11.451172,1.58399 7.097657,9.12304 z m 171.134764,0.32227 1.58399,11.44922 9.12304,-7.09766 z m -5.76758,0.79687 -9.12304,7.09571 10.70703,4.35351 z m -84.35351,0.74805 -9.125002,7.0957 10.708982,4.35157 z m -75.621096,0.32617 -4.353515,10.70703 11.449219,-1.58398 z m -21.4375,2.96484 -2.169921,5.33985 -0.25,5.09961 9.517578,-1.31641 z m 63.720704,0.24415 -5.957032,14.65625 14.65625,5.95703 5.957032,-14.65625 z m 143.503902,3.06835 1.58399,11.45118 9.125,-7.09766 z m -5.76367,0.79688 -9.125,7.09766 10.70899,4.35351 z m 62.625,0.10938 -15.66797,2.16796 2.16797,15.66993 15.66797,-2.16797 z m -21.43555,2.96679 -15.66992,2.16797 2.16797,15.66797 15.66992,-2.16797 z m -80.7207,0.24414 -11.45117,1.58399 7.09766,9.12304 z m 6.19336,0.21875 -5.95703,14.6543 14.65625,5.95703 5.95703,-14.6543 z m 102.37891,0.46289 1.51953,10.98047 5.61914,-0.77734 z m -186.732424,0.28321 -5.958985,14.65429 14.65625,5.95703 5.957029,-14.65429 z m 56.722654,2 -11.44922,1.58398 7.09766,9.125 z m -109.050779,1.23828 -15.669922,2.16797 2.167969,15.66797 15.669921,-2.16797 z m 190.064449,0.6289 -9.12304,7.09375 10.70703,4.35352 z m -75.62109,0.32422 -4.35156,10.70899 11.44922,-1.58399 z m -108.386719,0.35938 1.583985,11.44922 9.125,-7.09766 z m 81.558599,0.41406 -11.44727,1.58398 7.0957,9.125 z m -109.050786,1.23828 -12.714844,1.75977 -0.785156,16.07812 15.667968,-2.16797 z m 114.443356,0.95508 -4.35351,10.70703 11.45117,-1.58398 z m 63.72071,0.24414 -5.95704,14.65625 14.6543,5.95703 5.95899,-14.65625 z m -85.15625,2.7207 -4.35352,10.70703 11.44922,-1.58398 z m -45.466801,2.57618 1.583985,11.44921 9.123047,-7.0957 z m -5.767578,0.79882 -9.123047,7.09571 10.707032,4.35156 z m 229.607419,1.7793 -6.45898,0.89258 7.09765,9.125 2.3418,-5.75977 z m -73.16992,0.27539 -5.95703,14.6543 14.6543,5.95703 5.95898,-14.6543 z m 56.72461,2 -11.44922,1.58399 7.0957,9.12304 z m -109.05078,1.23633 -15.66992,2.16797 2.16797,15.67187 15.66992,-2.16797 z m 114.44336,0.95508 -4.35156,10.70703 11.44726,-1.58399 z m -108.38672,0.35742 1.58398,11.45117 9.12305,-7.09766 z m 81.55859,0.41601 -11.44921,1.58399 7.0957,9.12305 z m -165.912106,0.33204 1.583985,11.44921 9.121093,-7.0957 z m -5.765625,0.79687 -9.125,7.0957 10.708985,4.35352 z m 62.625001,0.10938 -15.66992,2.16796 2.16797,15.66993 15.66992,-2.16797 z m 114.44531,0.95312 -4.35351,10.70898 11.45117,-1.58398 z m -135.88086,2.01172 -15.66992,2.16797 2.16797,15.66992 15.66992,-2.16797 z m -80.720701,0.24414 -11.449218,1.58398 7.095703,9.12305 z m 6.19336,0.21875 -5.958985,14.6543 11.269532,4.58203 h 3.947265 l 5.398438,-13.2793 z M 272.8317,390 l -1.72461,4.24414 6.56055,2.66797 z m -60.87696,0.46094 -4.35351,10.70703 11.44922,-1.58399 z m -216.603511,2.25586 -11.449218,1.58398 7.097656,9.12305 z m 171.134771,0.32031 1.58398,11.44922 9.12305,-7.09571 z m -5.76563,0.79687 -9.12305,7.09766 10.70703,4.35156 z m -84.355469,0.74805 -9.123047,7.09766 10.707032,4.35156 z m -75.621093,0.32617 -4.351563,10.70703 11.447266,-1.58398 z m 42.285156,3.21094 -4.50586,11.08594 h 17.076172 l 2.085938,-5.12891 z m 221.802736,1.00781 -15.67188,2.16797 1.09375,7.91016 h 15.97266 z m -284.349611,0.25391 -0.416016,8.49219 6.339844,-0.87696 z m 290.406251,1.05859 1.21289,8.76563 h 3.82227 l 5.67187,-4.41211 z m -84.35547,0.74805 1.10937,8.01758 h 4.88477 l 4.71289,-3.66602 z m -5.76563,0.79688 -9.12304,7.0957 0.30664,0.125 h 9.81445 z m 62.62696,0.10742 -15.66992,2.16797 0.68359,4.94531 h 15.9707 z m -21.43555,2.96679 -15.66992,2.16797 0.27344,1.97852 h 15.9707 z m -80.7207,0.24414 -11.45117,1.58399 1.80273,2.31836 h 8.0625 z m 6.19336,0.21875 -1.49805,3.6836 h 10.56055 z m -84.353518,0.7461 -1.195313,2.9375 h 8.421875 z m 56.724608,2 -6.77734,0.9375 h 6.39648 z"
     inkscape:connector-curvature="0" />
</svg>
