<?xml version="1.0" encoding="UTF-8" standalone="no"?>
<svg
   xmlns:dc="http://purl.org/dc/elements/1.1/"
   xmlns:cc="http://creativecommons.org/ns#"
   xmlns:rdf="http://www.w3.org/1999/02/22-rdf-syntax-ns#"
   xmlns:svg="http://www.w3.org/2000/svg"
   xmlns="http://www.w3.org/2000/svg"
   xmlns:sodipodi="http://sodipodi.sourceforge.net/DTD/sodipodi-0.dtd"
   xmlns:inkscape="http://www.inkscape.org/namespaces/inkscape"
   inkscape:version="1.0beta1 (32d4812, 2019-09-19)"
   sodipodi:docname="disdyakistriacontahedron__pinwheel-4.svg"
   id="svg26270"
   version="1.1"
   data-reactroot=""
   viewBox="-4.490674003629451 0 162.49241760601677 255.20698048301267">
  <metadata
     id="metadata26276">
    <rdf:RDF>
      <cc:Work
         rdf:about="">
        <dc:format>image/svg+xml</dc:format>
        <dc:type
           rdf:resource="http://purl.org/dc/dcmitype/StillImage" />
      </cc:Work>
    </rdf:RDF>
  </metadata>
  <defs
     id="defs26274" />
  <sodipodi:namedview
     inkscape:current-layer="svg26270"
     inkscape:window-maximized="1"
     inkscape:window-y="23"
     inkscape:window-x="0"
     inkscape:cy="131.04885"
     inkscape:cx="-30.908933"
     inkscape:zoom="2.9195049"
     inkscape:snap-center="true"
     inkscape:snap-page="true"
     inkscape:snap-to-guides="false"
     inkscape:snap-grids="false"
     inkscape:snap-others="true"
     showgrid="false"
     id="namedview26272"
     inkscape:window-height="1005"
     inkscape:window-width="1680"
     inkscape:pageshadow="2"
     inkscape:pageopacity="0"
     guidetolerance="10"
     gridtolerance="10"
     objecttolerance="10"
     borderopacity="1"
     inkscape:document-rotation="0"
     bordercolor="#666666"
     pagecolor="#ffffff" />
  <path
     d="m 1.8901854,6.9550781 -0.25,15.6718749 8.0078126,-3.134765 z M 11.788623,22.949219 4.1245604,25.951172 19.212451,34.949219 Z m -6.185547,8.541015 7.425781,12 7.666016,-3 z M 1.4839354,32.433594 1.2319822,48.109375 9.243701,44.972656 Z m 22.9179686,10.90039 -11.466797,4.490235 a 2.0002,2.0002 0 0 1 -0.04102,0.01563 l -3.107422,1.216797 h 18.15625 z m -14.742187,9.722657 3.121093,1.238281 11.335938,4.492187 3.728516,-5.730468 z M 1.1382322,53.982422 0.8901854,69.626953 9.032764,57.113281 v -0.002 z m 32.2851558,3.933594 -0.25,15.671875 8.009766,-3.132813 z m -4.001953,0.05273 -2.826171,4.34375 a 2.0002,2.0002 0 0 1 -0.0059,0.0098 l -0.0059,0.0098 a 2.0002,2.0002 0 0 1 -0.0059,0.0078 l -0.002,0.0039 a 2.0002,2.0002 0 0 0 -0.002,0.002 l -0.0039,0.0059 -2.308594,3.548829 -2.982422,4.582031 7.894531,3.130859 z M 12.827685,58.617188 5.0679198,70.541016 20.347217,61.597656 Z M 18.610888,67.25 3.3296385,76.191406 l 7.5214845,2.980469 5.736328,-8.814453 a 2.0002,2.0002 0 0 1 0.0039,-0.0059 l 0.0039,-0.0059 a 2.0002,2.0002 0 0 1 0.0039,-0.0059 z m 0.441407,6.654297 -5.740235,8.820312 -2.017578,3.103516 15.277344,-8.943359 z m 24.269531,0.0078 -7.664062,3 15.089843,9 z m -42.5898438,5.552735 -0.2480468,15.640625 2.84375,-4.369141 0.00391,-0.0059 5.2949224,-8.136719 z m 36.4042968,2.986328 7.427735,12.001953 7.664062,-3 z M 24.835498,82.5371 9.558154,91.478507 v 0.002 l 7.519531,2.980469 z m 8.18164,0.857422 -0.251953,15.675781 8.011719,-3.134765 v -0.002 z m -4.001953,0.05469 -8.142578,12.515625 7.894531,3.128906 z M 5.788623,94.289062 2.0601072,100.01953 H 20.243701 l -3.097656,-1.228514 a 2.0002,2.0002 0 0 1 -0.02148,-0.0078 2.0002,2.0002 0 0 1 -0.02148,-0.0098 z m 50.146484,0.0078 -11.466797,4.488281 a 2.0002,2.0002 0 0 1 -0.04102,0.01563 l -3.113281,1.218747 h 18.162109 z m -53.972656,9.722658 3.5410156,5.72266 14.6171874,-5.72266 z m 32.345703,0 3.541016,5.72266 14.61914,-5.72266 z m -3.9375,1.23633 -11.55664,11.93555 15.25,-5.96875 z m 32.345703,0 -11.554687,11.93555 4.46289,-1.7461 a 2.0002,2.0002 0 0 1 0.04102,-0.0156 l 10.744141,-4.20508 z m -39.824219,1.97461 -15.248046,5.96875 3.691406,5.96875 z m 32.345704,0 -15.248047,5.96875 3.691406,5.96875 z m -54.9746098,1.64648 -0.2519531,15.67383 8.0097659,-3.13476 -5.042969,-8.15235 z m 35.9394528,5.80469 -14.621093,5.72266 h 18.162109 z m 31.123047,0.47852 -8.009765,3.13476 7.759765,12.53906 z m 3.9375,3.91015 -0.25,15.67383 8.009766,-3.13476 z m -15.734375,0.70703 -7.664062,3 15.089843,9.00196 z m -40.953125,4.62696 3.541016,5.72265 14.617187,-5.72265 z m -4.414062,0.46875 -7.6640628,3.00195 15.0898438,9 -1.996094,-3.22656 z m 34.466797,0.63281 -1.589844,6.44726 16.326172,2.3418 z m -9.123047,2.10937 -15.248047,5.96875 3.691406,5.96875 z m 4.111328,1.50196 -11.857422,12.24804 8.535156,1.22266 z m -35.6406251,4.29492 7.4257811,12.00195 7.666016,-3 z m -4.1210938,0.94336 -0.25,15.67578 8.0097659,-3.13477 z m 81.3066409,0.71094 -7.664063,3 15.089844,9 z m -39.085938,0.79101 -1.552734,6.29297 17.503906,-4.00586 z m 24.171875,4.50977 -17.509765,4.00781 3.542968,0.50781 a 2.0002,2.0002 0 0 1 0.0098,0.002 l 12.404297,1.7832 z m 4.013672,0.42773 -1.589844,6.44336 9.367188,1.34766 2.640625,0.3789 4.320312,0.61914 z m -48.708984,4.94336 -8.009766,3.13477 7.759766,12.54101 z m 11.646484,0.44727 14.738281,8.78906 1.587891,-6.44336 -8.951172,-1.28711 -3.054687,-0.43945 z m -3.587891,2.51757 7.425782,12 7.664062,-3 z m 23.894532,0.39844 -1.554688,6.30078 17.509766,-4.00781 -3.542969,-0.50781 -0.0098,-0.002 z m -28.015625,0.54492 -0.251953,15.67383 8.009765,-3.13476 z m -15.734375,0.70899 -7.6660159,3 15.0917969,9.00195 z m 72.148437,2.82617 -3.322265,13.4707 11.855468,-12.24804 z m -4.228515,0.4375 -17.50586,4.00781 15.953125,2.28711 z m 16.574218,2.59961 -11.554687,11.93555 4.462891,-1.74805 0.04102,-0.0156 h 0.002 l 10.740234,-4.20507 z m -90.6796871,2.67578 7.4257811,12 7.664063,-3 z m -4.1210938,0.94531 -0.25,15.67383 8.0097659,-3.13476 v -0.002 z m 51.0781249,1.33789 -1.58789,6.44922 16.326171,2.3418 z m 8.306641,0.29688 14.736328,8.78906 1.589844,-6.44726 z m -17.431641,1.81641 -4.460937,1.74414 -10.785157,4.22265 3.691407,5.96875 z m 4.115234,1.5 -11.857421,12.24804 8.535156,1.22266 2.330078,-9.44727 v -0.002 l 0.0039,-0.0156 z m 53.341798,1.33203 -8.007813,3.13476 7.757813,12.53711 z m 3.937504,3.91015 -0.25,15.67188 8.00781,-3.13477 z m -80.427739,0.70703 -11.46875,4.48829 a 2.0002,2.0002 0 0 1 -0.04102,0.0156 l -3.111328,1.21875 h 18.16211 z m 64.693359,0 -7.664062,3 15.089844,9.00196 z m -39.085937,0.78907 -1.552735,6.29492 17.50586,-4.00781 z m 24.169922,4.50976 -17.509766,4.00977 3.544922,0.50781 a 2.0002,2.0002 0 0 1 0.04492,0.006 l 12.367187,1.77734 z m 4.015625,0.42774 -1.589844,6.44531 7.539062,1.08398 4.478516,0.64258 4.308594,0.61719 z m -68.535156,3.99609 3.11914,1.23633 11.335938,4.49219 3.728515,-5.72852 z m -8.5214849,0.92383 -0.25,15.64453 8.1425779,-12.51367 v -0.002 z m 39.9941409,0.47266 14.738281,8.79101 1.587891,-6.44531 -9.970704,-1.4336 -2.037109,-0.29296 z m -3.589844,2.51563 7.425781,12.00195 7.666016,-3 z m 23.894531,0.40234 -1.552734,6.29883 17.509765,-4.00781 -3.535156,-0.50586 a 2.0002,2.0002 0 0 1 -0.0078,-0.002 2.0002,2.0002 0 0 0 -0.002,0 l -0.0098,-0.002 z m -28.015625,0.53907 -0.25,15.67773 8.011719,-3.13672 z m -4,0.0547 -2.832031,4.35157 a 2.0002,2.0002 0 0 1 -0.002,0.004 l -0.0059,0.01 a 2.0002,2.0002 0 0 1 -0.0039,0.004 l -0.002,0.004 a 2.0002,2.0002 0 0 1 -0.0039,0.008 l -0.0059,0.008 -4.306641,6.61718 -0.982422,1.51172 7.894531,3.12891 z m -16.595703,0.65039 -7.7578124,11.92188 15.2792974,-8.94141 z m 101.902351,0.006 -7.66407,3.00196 15.0879,8.99804 z m -24.892585,2.82813 -2.330078,9.44726 -0.992188,4.02344 11.857417,-12.24805 z m -4.226563,0.43555 -17.509765,4.00781 15.955078,2.28711 z m 16.574218,2.5996 -11.554686,11.93555 15.248046,-5.96679 z m 6.36133,2.67774 1.9961,3.22656 5.42968,8.77344 7.66407,-3 z m -89.935548,0.0859 -15.2792966,8.9414 7.5214846,2.98047 5.740234,-8.82031 a 2.0002,2.0002 0 0 1 0.0039,-0.006 z m 36.509766,2.04492 -8.011719,3.13672 7.761719,12.54101 z m 11.646484,0.44922 14.738282,8.78906 1.58789,-6.44727 z m -3.585937,2.51758 7.423828,11.99804 7.664062,-3 z m -4.123047,0.9414 -0.251953,15.67578 8.011719,-3.13672 z m -40.00586,0.70117 -5.734374,8.81446 a 2.0002,2.0002 0 0 1 -0.0039,0.006 2.0002,2.0002 0 0 1 -0.0039,0.008 l -0.01367,0.0176 -0.0039,0.006 -2,3.07422 15.28125,-8.94532 -7.519531,-2.98047 z m 24.271485,0.008 -7.666016,3 15.091797,9.00195 z m 64.693367,0 -14.619148,5.72265 H 109.523 Z m -107.285164,5.55243 -0.2480469,15.64258 2.8320313,-4.35156 a 2.0002,2.0002 0 0 1 0.013672,-0.0195 l 5.2968748,-8.14257 z m 125.388674,0.0234 -8.00781,3.13476 5.04297,8.15235 2.71484,4.38476 z m -88.982424,2.96289 7.425781,12.00195 7.664063,-3 z m -12.298828,0.084 -15.283203,8.94532 7.521484,2.98046 z m 8.177734,0.86328 -0.25,15.67188 8.007813,-3.13477 z m 97.041018,0 -0.25,15.67188 8.00781,-3.13477 z m -101.042971,0.0508 -8.144531,12.51562 7.896484,3.12891 z m 57.375,0.18554 3.541016,5.72266 14.619145,-5.72266 z m -3.939453,1.23633 -11.554688,11.93555 15.248047,-5.9668 z m 32.347664,0 -11.55469,11.93555 15.24805,-5.9668 z m -39.828133,1.97656 -4.460937,1.7461 a 2.0002,2.0002 0 0 1 -0.04102,0.0156 l -10.746094,4.20703 3.69336,5.9668 z m 32.347663,0 -15.248053,5.9668 3.693359,5.96875 z M 3.7534666,221.69336 0.024951,227.42383 h 18.183594 l -3.119141,-1.23633 -0.02148,-0.01 z m 50.1484374,0.008 -11.46875,4.48828 -3.15039,1.23438 H 57.44292 Z m 32.345703,0 -14.617187,5.72266 h 18.158203 z m 32.347663,0 -14.61914,5.72266 h 18.16015 z m 19.32617,5.09571 -7.66406,3.00195 15.08789,8.99805 z m -137.9941452,4.62695 3.5410156,5.72265 14.6191406,-5.72265 z m 32.3476562,0 3.541016,5.72265 2.109375,-0.82617 9.357422,-3.66211 3.15039,-1.23437 z m 39.232422,0 3.097656,1.22851 0.02148,0.008 0.02148,0.01 11.314453,4.48438 3.728516,-5.73047 z m 32.343757,0 14.45703,5.73047 3.72851,-5.73047 z m -40.867195,0.92578 -0.248047,15.64453 2.845704,-4.37305 0.0039,-0.006 5.294922,-8.13671 z m -3.998047,0.0234 -8.009765,3.13476 5.042969,8.15235 2.714843,4.38672 z m 34.675782,0.27929 -3.904297,6.00586 10.583987,4.19532 4.5625,1.80859 z m -65.326172,0.008 -11.554688,11.93554 0.798828,-0.3125 3.652344,-1.42968 a 2.0002,2.0002 0 0 1 0.0098,-0.004 2.0002,2.0002 0 0 1 0.03711,-0.0137 l 0.0039,-0.002 10.746093,-4.20507 z m 72.601562,1.91015 11.24024,12.00781 3.90625,-6.0039 z m -80.082031,0.0664 -15.248047,5.9668 3.69336,5.96875 z m 110.882821,0.70117 7.42578,12 7.66406,-3 z m -4.1211,0.94336 -0.25195,15.67578 8.00976,-3.13672 z m -129.388674,0.002 -0.25,15.67188 8.007812,-3.13477 -5.0429682,-8.15234 z m 125.386724,0.0488 -2.8457,4.375 a 2.0002,2.0002 0 0 1 -0.004,0.006 l -5.29492,8.13672 7.89648,3.12891 z m -49.441412,1.41797 -3.90625,6.00391 15.146485,6.0039 z m -26.511718,0.006 -11.556641,11.9375 15.248047,-5.96875 z m 33.787109,1.91211 11.240235,12.00781 3.904292,-6.0039 v -0.002 l -10.58398,-4.19575 z m -41.267578,0.0644 -4.460937,1.7461 a 2.0002,2.0002 0 0 1 -0.04102,0.0156 l -10.746094,4.20703 3.69336,5.9668 z m 27.859375,7.44336 -3.728516,5.72852 h 18.183594 z m 32.347664,0 -3.728524,5.72852 h 18.183594 l -3.11914,-1.23633 z m -46.894539,0.006 -14.617187,5.72266 h 18.158203 z m 97.041019,0 -11.4668,4.49024 a 2.0002,2.0002 0 0 1 -0.041,0.0156 l -3.10742,1.2168 h 18.15625 z m -129.386722,0.002 -11.46875,4.48829 -0.01172,0.004 -3.136719,1.22852 h 18.158204 z"
     style="opacity:1;fill:none;stroke:#000000;stroke-width:1px;stroke-linecap:butt;stroke-linejoin:miter;stroke-opacity:1;stop-opacity:1"
     id="path26839"
     inkscape:connector-curvature="0" />
</svg>
