<?xml version="1.0" encoding="UTF-8" standalone="no"?>
<svg
   xmlns:dc="http://purl.org/dc/elements/1.1/"
   xmlns:cc="http://creativecommons.org/ns#"
   xmlns:rdf="http://www.w3.org/1999/02/22-rdf-syntax-ns#"
   xmlns:svg="http://www.w3.org/2000/svg"
   xmlns="http://www.w3.org/2000/svg"
   xmlns:sodipodi="http://sodipodi.sourceforge.net/DTD/sodipodi-0.dtd"
   xmlns:inkscape="http://www.inkscape.org/namespaces/inkscape"
   inkscape:version="1.0beta1 (32d4812, 2019-09-19)"
   sodipodi:docname="earth-grid__5-uniform_218.svg"
   id="svg837"
   version="1.1"
   data-reactroot=""
   viewBox="-151.943152728881 0 548.3929541147945 301.77383345189503">
  <style
     id="style845"></style>
  <metadata
     id="metadata843">
    <rdf:RDF>
      <cc:Work
         rdf:about="">
        <dc:format>image/svg+xml</dc:format>
        <dc:type
           rdf:resource="http://purl.org/dc/dcmitype/StillImage" />
        <dc:title></dc:title>
      </cc:Work>
    </rdf:RDF>
  </metadata>
  <defs
     id="defs841" />
  <sodipodi:namedview
     inkscape:current-layer="svg837"
     inkscape:window-maximized="0"
     inkscape:window-y="23"
     inkscape:window-x="0"
     inkscape:cy="205.57137"
     inkscape:cx="-87.605523"
     inkscape:zoom="0.75975458"
     inkscape:snap-intersection-paths="true"
     inkscape:snap-smooth-nodes="true"
     showgrid="false"
     id="namedview839"
     inkscape:window-height="907"
     inkscape:window-width="1600"
     inkscape:pageshadow="2"
     inkscape:pageopacity="0"
     guidetolerance="10"
     gridtolerance="10"
     objecttolerance="10"
     borderopacity="1"
     inkscape:document-rotation="0"
     bordercolor="#666666"
     pagecolor="#ffffff" />
  <path
     d="M 2.1e-4,0 -7.31229,14.521484 -3.92753,17.90625 7.93771,6.0410156 Z m 14.78906,15.472656 -7.5957,7.595703 10.375,2.78125 z m 13.55469,6.101563 1.4375,5.365234 4.14844,-1.111328 z m -28.19922,11.52539 -4.96094,18.515625 18.51367,4.960938 4.9629,-18.515625 z m -12.21289,1.091797 -5.94922,1.59375 -1.8789,3.730469 5.04687,5.046875 z m 57.58203,0.453125 -8.67969,2.326172 7.5918,7.59375 2.39258,-8.925781 z m 11.20508,8.529297 -1.16992,4.371094 5.11133,-1.371094 z m -28.02734,1.939453 -2.78125,10.373047 10.375,-2.78125 z m -54.04102,5.232422 -1.74219,3.458985 4.10156,-1.09961 z m 94.25,5.541016 -10.37109,2.779297 7.59375,7.59375 z m 10.66992,4.68164 -3.41406,12.742188 18.51367,4.960937 1.38086,-5.158203 z m -95.50976,2.169922 -18.08985,4.847657 -0.29883,0.589843 4.83594,18.03711 18.51563,-4.960938 z m 55.20312,1.089844 -10.37305,2.779297 7.59375,7.59375 z m -42.99023,0.002 2.78125,10.371094 7.59179,-7.591797 z m 54.11328,2.978516 -2.7793,10.371094 10.37305,-2.777344 z M 17.76974,71.769578 4.21505,85.324266 17.76974,98.877 31.32247,85.324266 Z m -59.875,11.855469 -0.61719,1.224609 1.01758,0.271485 z m 107.13867,0.808594 -18.51758,4.960937 4.96094,18.513672 18.51563,-4.95898 z m 12.21094,1.089844 2.78125,10.375 7.59375,-7.595704 z m 37.16211,1.5625 -4.54297,1.216796 7.59375,7.595704 1.44336,-5.392579 z m -120.05273,4.660156 -23.2168,6.220703 -6.2207,23.214846 16.99414,16.99609 23.21679,-6.2207 6.22071,-23.2168 z m 104.38671,1.71875 -13.55468,13.554689 13.55468,13.55469 13.55469,-13.55469 z m -146.75195,1.888672 -8.804687,17.486327 11.240237,3.01172 4.96093,-18.515625 z m 84.49609,1.091796 -7.59375,7.593751 10.37305,2.78125 z m 92.31836,1.597657 -0.22461,0.833984 0.97657,-0.261719 z m 12.33594,9.390624 -13.65039,3.65821 4.96094,18.51367 18.51562,-4.95899 -3.27539,-12.22656 z m -65.81641,6.00782 -23.21679,6.2207 -6.21875,23.21484 16.99609,16.9961 23.21485,-6.22071 6.2207,-23.21484 z m -53.48242,0.6289 -4.95898,18.51563 18.51367,4.96094 4.96094,-18.51563 z m 95.61719,4.07031 -7.59375,7.59571 10.37305,2.77929 z m -179.560546,5.20313 -0.542969,1.07813 2.425781,9.05468 7.59375,-7.59375 z m 229.533206,4.10156 -1.27149,1.27149 13.55469,13.55273 3.10742,-3.10742 z m -208.93555,3.59961 -13.554688,13.55469 13.554688,13.55273 13.55273,-13.55273 z m 197.80078,4.09375 -23.2168,6.21875 -6.21875,23.2168 16.99415,16.99609 23.21679,-6.2207 6.22071,-23.2168 z m -53.48437,0.62891 -4.96094,18.51562 18.51758,4.96094 4.95898,-18.51562 z m -173.238285,4.10547 -0.408203,0.81054 0.583984,-0.15625 z m 76.185545,3.83593 -18.51758,4.96094 4.96289,18.51563 18.51563,-4.96289 z m 12.21289,1.08985 2.7793,10.37305 7.59375,-7.59376 z m 174.09571,1.40039 -1.23243,1.23242 4.40039,1.17969 z m -263.410161,6.54101 -6.429687,1.72461 -1.673828,3.32422 5.324218,5.32422 z m 110.810551,0 -13.55469,13.55469 13.55469,13.55274 13.55273,-13.55274 z m -99.689457,2.98047 -2.779297,10.375 10.375,-2.78125 z m 37.433597,0 -7.59571,7.59375 10.37305,2.7793 z m 206.57226,1.74219 -4.96094,18.51563 18.51368,4.96093 4.96093,-18.51562 z m 30.38282,5.55859 -0.11524,0.0312 -6.2207,23.2168 16.99414,16.99609 23.2168,-6.2207 1.83398,-6.8418 z m -127.4375,2.38282 -18.51563,4.96289 4.96094,18.51562 18.51562,-4.96289 z m 12.21289,1.09179 2.77929,10.37305 7.59375,-7.59375 z m -183.841801,2.125 -1.945313,3.86133 4.580078,-1.22656 z m 47.466801,4.72461 -4.96094,18.51563 18.51367,4.96094 4.96094,-18.51563 z m -12.21289,1.0918 -10.375005,2.7793 7.59375,7.59375 z m 59.27343,0 -10.37304,2.77734 7.59375,7.59571 z m 110.81055,0 -13.55469,13.55469 13.55469,13.55273 13.55273,-13.55273 z m -99.6875,2.97852 -2.7793,10.37304 10.37305,-2.77929 z m 37.43164,0 -7.59375,7.59375 10.37305,2.78125 z m -137.46875,4.96093 -10.373047,2.78125 7.595703,7.59375 z m 70.39844,2.98047 -2.7793,10.37305 10.375,-2.7793 z m -59.275393,0.002 -2.777344,10.37304 10.371094,-2.78125 z m 235.863283,1.74218 -18.51563,4.96094 4.96094,18.51367 18.51563,-4.95898 z m 12.21289,1.08985 2.7793,10.37304 7.59375,-7.59375 z m -277.398439,5.42382 -9.078121,18.0293 5.7832,5.7832 13.554687,-13.55468 z m 141.021489,1.42774 -4.95899,18.51367 18.51367,4.96289 4.96094,-18.51758 z m -12.2129,1.08984 -10.37109,2.7793 7.5918,7.59375 z m 59.27735,0 -10.375,2.7793 7.59375,7.59375 z m 110.80859,0 -13.55468,13.55469 13.55468,13.55469 13.55469,-13.55469 z m -99.6875,2.98047 -2.77929,10.37305 10.37304,-2.7793 z m 37.43164,0 -7.59375,7.59375 10.37305,2.7793 z m -192.669919,3.8711 -18.517578,4.96093 4.962891,18.51367 18.515626,-4.96093 z m 12.212889,1.08984 2.7793,10.37305 7.59375,-7.59375 z m 42.99024,0 -10.37305,2.7793 7.59375,7.59375 z m 11.12304,2.98047 -2.77929,10.37304 10.37304,-2.77929 z m 59.27344,0 -2.77734,10.37304 10.37304,-2.77929 z m 176.58789,1.74219 -18.51367,4.96093 4.96094,18.51563 18.51367,-4.96094 z m 12.21289,1.08984 2.7793,10.375 7.5957,-7.5957 z m -280.6914,2.1289 -13.55469,13.55469 13.55469,13.55274 13.55273,-13.55274 z m -62.255864,2.98047 -7.595703,7.59375 10.373047,2.7793 z m 206.572264,1.74219 -4.96094,18.51563 18.51563,4.96093 4.95898,-18.51562 z m 47.0625,1.08984 -10.37305,2.7793 7.59376,7.5957 z m -59.27539,0.002 -10.375,2.77734 7.5957,7.5957 z m 170.08399,0 -13.55469,13.55273 13.55469,13.55469 13.55273,-13.55469 z m -99.6875,2.98047 -2.7793,10.37109 10.37305,-2.77734 z m 37.43164,0 -7.5918,7.59179 10.37109,2.7793 z m -332.14063,1.66601 -16.0957,31.9668 14.6914,-3.93555 6.21875,-23.21679 z m 139.4707,2.20313 -18.51562,4.96289 4.96094,18.51172 18.51562,-4.95899 z m 55.20313,1.08984 -10.37305,2.78125 7.59375,7.59375 z m -42.99023,0.002 2.77929,10.37305 7.59375,-7.59375 z m 54.11328,2.97852 -2.7793,10.375 10.37305,-2.78125 z m 59.27539,0 -2.7793,10.37305 10.37305,-2.7793 z m -196.2793,3.24219 -23.21875,6.21875 -6.21875,23.21679 16.994141,16.9961 23.216799,-6.22071 6.2207,-23.21679 z m -53.484375,0.6289 -4.960935,18.51563 18.513669,4.96094 4.960938,-18.51563 z m 157.871095,1.0918 -13.55469,13.55273 13.55469,13.55469 13.55273,-13.55469 z m -62.25586,2.97852 -7.59375,7.59375 10.37305,2.78125 z m 312.68164,0.48632 4.5,16.79102 12.98828,-3.47852 z m -106.10937,1.25782 -4.96094,18.51367 18.51562,4.96289 4.96094,-18.51758 z m -12.21094,1.08984 -10.375,2.7793 7.59375,7.59375 z m 59.27344,0 -10.37305,2.7793 7.59375,7.59375 z m 11.12109,2.97852 -2.77735,10.375 10.37305,-2.7793 z m 37.43359,0 -7.5957,7.5957 10.37305,2.7793 z m -192.67187,3.87304 -18.51563,4.96094 4.96094,18.51367 18.51758,-4.96094 z m 55.20508,1.08789 -10.375,2.78125 7.5957,7.59375 z m -42.99219,0.002 2.7793,10.37304 7.59374,-7.59375 z m 54.11328,2.97851 -2.7793,10.375 10.375,-2.77929 z m 59.27539,0.002 -2.7793,10.37304 10.37305,-2.77929 z m -196.28125,3.24023 -23.2168,6.2207 -6.21875,23.2168 16.99414,16.99609 23.2168,-6.22265 6.2207,-23.21485 z m -53.48242,0.62891 -4.96094,18.51562 18.51563,4.96289 4.95898,-18.51758 z m 157.87109,1.09179 -13.55469,13.55274 13.55469,13.55468 13.55469,-13.55273 z m -62.25586,2.98047 -7.59179,7.59375 10.37109,2.7793 z m 206.57227,1.74219 -4.95899,18.51562 18.51368,4.95899 4.96093,-18.51367 z m -12.21289,1.0918 -10.37305,2.77734 7.59375,7.5957 z m 59.27539,0 -10.37305,2.77734 7.59375,7.59375 z m -446.30469,1.03711 -18.51562,4.96093 4.96093,18.51563 18.51563,-4.96289 z m 12.21289,1.08984 2.779298,10.37305 7.595703,-7.59375 z m 445.21484,0.85351 -2.77929,10.3711 10.37109,-2.7793 z m -155.23828,3.86915 -18.51562,4.96093 4.96094,18.51368 18.51562,-4.95899 z m 12.21289,1.09179 2.7793,10.3711 7.5918,-7.5918 z m 42.99024,0 -10.37305,2.7793 7.59375,7.59375 z m -323.683595,2.1267 -13.554687,13.55468 13.552734,13.55469 13.554687,-13.55469 z m 334.804685,0.85156 -2.77734,10.37304 10.37109,-2.77929 z m 59.27735,0 -2.78125,10.37304 10.375,-2.77929 z m -196.28125,3.24023 -23.2168,6.22071 -5.4043,20.16992 h 32.15821 10.9414 l 2.51758,-9.39453 z m -53.48438,0.63086 -4.96094,18.51563 18.51563,4.96093 4.96094,-18.51562 z m 157.8711,1.08985 -13.55274,13.55468 11.11328,11.11524 h 4.87891 l 11.11523,-11.11524 z m -363.31641,1.37304 -2.54102,5.04492 4.19336,1.12305 z m 301.0625,1.60938 -7.59375,7.59179 10.37305,2.7793 z m 206.57031,1.74023 -4.95898,18.51563 5.34375,1.43164 h 14.11718 l 2.46094,-9.18555 -12.60547,-9.59375 z m -12.21289,1.0918 -10.37109,2.7793 7.59375,7.59375 z m -387.0293,1.03711 -18.51367,4.95898 3.44336,12.85938 h 19.8457 z m 12.21289,1.0918 2.7793,10.37304 7.5957,-7.59375 z m 289.97657,4.72265 -18.51563,4.95899 1.88672,7.04492 h 19.8457 z m 12.21289,1.08985 2.77929,10.37304 7.59375,-7.59375 z m 42.99023,0 -10.37305,2.77929 7.59376,7.59375 z m -434.49414,2.1289 -10.37305,2.77734 6.00782,6.00782 h 2.01172 z m 110.81055,0 -8.78711,8.78516 h 17.57226 z m 334.80664,0.84961 -2.125,7.93555 h 8.45117 l 1.26758,-0.33985 z m -484.73438,0.1875 -3.90234,7.74805 h 13.1582 l 1.31641,-4.91602 z m 50.240238,1.94141 -1.55664,5.80664 h 7.361328 z m 37.431641,0 -5.806641,5.80664 h 7.361328 z m 260.056641,1.11328 -17.51563,4.69336 h 22.20899 z m -53.48242,0.6289 -1.08985,4.06446 h 16.25782 z m 157.87109,1.0918 -2.97265,2.97266 h 5.94531 z m 90.20703,1.32422 -0.4414,1.64844 h 2.60742 z"
     id="path835"
     inkscape:connector-curvature="0"
     style="opacity:1;stop-opacity:1" />
  <style
     id="style7881" />
</svg>
