<?xml version="1.0" encoding="UTF-8" standalone="no"?>
<svg
   xmlns:dc="http://purl.org/dc/elements/1.1/"
   xmlns:cc="http://creativecommons.org/ns#"
   xmlns:rdf="http://www.w3.org/1999/02/22-rdf-syntax-ns#"
   xmlns:svg="http://www.w3.org/2000/svg"
   xmlns="http://www.w3.org/2000/svg"
   xmlns:sodipodi="http://sodipodi.sourceforge.net/DTD/sodipodi-0.dtd"
   xmlns:inkscape="http://www.inkscape.org/namespaces/inkscape"
   inkscape:version="1.0beta1 (32d4812, 2019-09-19)"
   sodipodi:docname="great-stellapentakisdodecahedron__3-uniform_55.svg"
   id="svg837"
   version="1.1"
   data-reactroot=""
   viewBox="0 0 214.1584243525275 189.39799788361236">
  <style
     id="style845"></style>
  <metadata
     id="metadata843">
    <rdf:RDF>
      <cc:Work
         rdf:about="">
        <dc:format>image/svg+xml</dc:format>
        <dc:type
           rdf:resource="http://purl.org/dc/dcmitype/StillImage" />
        <dc:title></dc:title>
      </cc:Work>
    </rdf:RDF>
  </metadata>
  <defs
     id="defs841" />
  <sodipodi:namedview
     inkscape:current-layer="svg837"
     inkscape:window-maximized="0"
     inkscape:window-y="23"
     inkscape:window-x="0"
     inkscape:cy="166.62118"
     inkscape:cx="-44.297813"
     inkscape:zoom="1.8925146"
     inkscape:snap-global="false"
     showgrid="false"
     id="namedview839"
     inkscape:window-height="907"
     inkscape:window-width="1600"
     inkscape:pageshadow="2"
     inkscape:pageopacity="0"
     guidetolerance="10"
     gridtolerance="10"
     objecttolerance="10"
     borderopacity="1"
     inkscape:document-rotation="0"
     bordercolor="#666666"
     pagecolor="#ffffff" />
  <path
     d="M 0 0 L 4.0546875 7.640625 L 11.570312 10.232422 L 0 0 z M 7.3359375 13.822266 L 8.9570312 16.875 L 11.011719 15.089844 L 7.3359375 13.822266 z M 15.458984 17.548828 L 12.035156 20.521484 L 11.251953 21.201172 L 15.617188 29.423828 L 21.40625 24.396484 L 15.458984 17.548828 z M 27.902344 28.238281 L 28.962891 33.712891 L 28.964844 33.712891 L 33.173828 30.056641 L 27.902344 28.238281 z M 23.216797 29.148438 L 19.007812 32.802734 L 24.277344 34.621094 L 23.216797 29.148438 z M 36.302734 33.662109 L 32.09375 37.316406 L 32.09375 37.318359 L 37.363281 39.134766 L 36.302734 33.662109 z M 41.806641 36.974609 L 42.382812 39.941406 L 44.664062 39.5 L 41.806641 36.974609 z M 20.332031 38.308594 L 21.384766 40.292969 L 22.720703 39.134766 L 22.720703 39.132812 L 20.332031 38.308594 z M 30.537109 41.830078 L 31.597656 47.302734 L 35.806641 43.648438 L 30.537109 41.830078 z M 25.849609 42.738281 L 23.681641 44.621094 L 25.291016 47.652344 L 26.912109 48.212891 L 25.851562 42.738281 L 25.849609 42.738281 z M 49.173828 43.488281 L 45.826172 44.136719 L 45.005859 44.296875 L 48.662109 48.507812 L 50.107422 44.314453 L 49.173828 43.488281 z M 40.255859 46.107422 L 36.832031 49.080078 L 33.408203 52.052734 L 39.353516 58.902344 L 39.355469 58.902344 L 42.779297 55.929688 L 46.203125 52.955078 L 40.255859 46.107422 z M 53.978516 47.738281 L 53.175781 50.0625 L 55.990234 49.517578 L 53.978516 47.738281 z M 60.5 53.505859 L 56.820312 54.21875 L 52.367188 55.082031 L 54.091797 63.986328 L 54.09375 63.986328 L 62.998047 62.259766 L 61.466797 54.359375 L 60.5 53.505859 z M 30.949219 56.501953 L 30.570312 57.599609 L 32.445312 61.130859 L 34.544922 60.724609 L 34.603516 60.712891 L 30.949219 56.501953 z M 48.013672 57.705078 L 43.802734 61.361328 L 49.074219 63.179688 L 48.013672 57.705078 z M 67.333984 59.550781 L 67.351562 59.636719 L 67.392578 59.601562 L 67.333984 59.550781 z M 71 62.791016 L 69.162109 64.386719 L 75.109375 71.236328 L 77.853516 68.853516 L 71 62.791016 z M 40.59375 65.304688 L 38.255859 72.082031 L 39.5625 74.542969 L 46.210938 76.835938 L 46.212891 76.835938 L 49.169922 68.261719 L 40.595703 65.304688 L 40.59375 65.304688 z M 35.513672 65.398438 L 34.785156 65.539062 L 35.197266 66.316406 L 35.513672 65.398438 z M 62.191406 67.279297 L 56.716797 68.339844 L 60.373047 72.550781 L 62.191406 67.279297 z M 66.703125 68.835938 L 64.884766 74.105469 L 70.357422 73.046875 L 70.357422 73.044922 L 66.703125 68.835938 z M 53.113281 71.46875 L 52.203125 74.105469 L 51.294922 76.740234 L 54.03125 76.210938 L 56.767578 75.679688 L 53.113281 71.46875 z M 81.458984 72.041016 L 79.556641 73.693359 L 82.193359 74.603516 L 84.828125 75.511719 L 84.712891 74.919922 L 81.458984 72.041016 z M 76.349609 77.636719 L 76.158203 78.1875 L 73.392578 86.210938 L 81.964844 89.169922 L 81.966797 89.169922 L 84.923828 80.595703 L 84.923828 80.59375 L 76.349609 77.636719 z M 71.267578 77.732422 L 65.792969 78.792969 L 69.449219 83.003906 L 70.359375 80.367188 L 71.267578 77.732422 z M 57.675781 80.365234 L 54.939453 80.896484 L 52.203125 81.425781 L 52.203125 81.427734 L 55.857422 85.636719 L 55.859375 85.636719 L 56.767578 83.001953 L 57.677734 80.365234 L 57.675781 80.365234 z M 42.84375 80.724609 L 42.914062 80.857422 L 43.003906 80.779297 L 42.84375 80.724609 z M 62.189453 81.923828 L 60.371094 87.193359 L 65.84375 86.132812 L 62.189453 81.923828 z M 47.453125 83.238281 L 45.210938 85.183594 L 49.574219 93.40625 L 53.398438 90.085938 L 47.453125 83.238281 z M 88.867188 83.802734 L 87.046875 89.074219 L 89.785156 88.542969 L 92.521484 88.013672 L 88.867188 83.802734 z M 96.609375 85.439453 L 97.271484 86.203125 L 97.373047 86.115234 L 96.609375 85.439453 z M 68.46875 90.486328 L 59.564453 92.212891 L 61.289062 101.11719 L 70.193359 99.390625 L 68.46875 90.486328 z M 73.486328 91.294922 L 74.546875 96.767578 L 74.548828 96.767578 L 76.652344 94.941406 L 78.757812 93.113281 L 73.486328 91.294922 z M 98.511719 92.605469 L 95.554688 101.17969 L 104.12891 104.13672 L 105.60938 99.849609 L 107.08594 95.5625 L 98.511719 92.605469 z M 93.429688 92.699219 L 87.957031 93.759766 L 87.957031 93.761719 L 91.611328 97.970703 L 93.429688 92.699219 z M 55.208984 94.835938 L 51.871094 97.734375 L 52.558594 99.03125 L 56.269531 100.31055 L 55.210938 94.835938 L 55.208984 94.835938 z M 83.207031 95.572266 L 76.357422 101.51758 L 82.304688 108.36719 L 89.152344 102.41992 L 83.207031 95.572266 z M 111.0293 98.771484 L 109.21289 104.04102 L 114.68555 102.98047 L 111.0293 98.771484 z M 69.386719 104.41016 L 63.912109 105.4707 L 67.568359 109.68164 L 69.386719 104.41016 z M 73.898438 105.9668 L 72.080078 111.23828 L 77.554688 110.17773 L 73.898438 105.9668 z M 95.650391 106.26172 L 96.710938 111.73438 L 98.816406 109.90625 L 100.91992 108.08008 L 95.650391 106.26172 z M 90.962891 107.16992 L 86.753906 110.82422 L 86.753906 110.82617 L 92.023438 112.64453 L 91.494141 109.90625 L 90.964844 107.16992 L 90.962891 107.16992 z M 59.162109 107.28125 L 57.640625 108.60352 L 62.003906 116.82617 L 65.109375 114.12891 L 59.162109 107.28125 z M 117.30859 107.33398 L 108.4043 109.06055 L 110.13086 117.96484 L 119.03516 116.23828 L 117.30859 107.33398 z M 122.33789 108.19336 L 123.38867 113.61523 L 125.95117 111.39062 L 122.33789 108.19336 z M 104.05078 111.68359 L 99.839844 115.33984 L 105.11133 117.1582 L 104.58203 114.42188 L 104.05078 111.68359 z M 80.177734 114.53125 L 71.273438 116.25586 L 71.273438 116.25781 L 73 125.16016 L 81.904297 123.43555 L 80.177734 114.53125 z M 129.55859 114.58008 L 125.19922 118.36523 L 125.19922 118.36719 L 131.14648 125.21289 L 136.41211 120.64062 L 129.55859 114.58008 z M 85.197266 115.33789 L 86.257812 120.81055 L 90.46875 117.15625 L 85.197266 115.33789 z M 66.919922 118.88086 L 64.300781 121.1543 L 65.554688 123.51758 L 67.980469 124.35352 L 66.919922 118.88086 z M 98.285156 119.85156 L 99.34375 125.32617 L 103.55469 121.66992 L 98.285156 119.85156 z M 93.597656 120.75977 L 89.386719 124.41602 L 94.658203 126.23438 L 93.845703 122.04297 L 93.597656 120.75977 z M 118.22656 121.25781 L 118.03516 121.29492 L 112.75391 122.31836 L 116.4082 126.52734 L 116.41016 126.52734 L 118.22656 121.25781 z M 122.74023 122.81445 L 120.92188 128.08594 L 126.39453 127.02539 L 122.74023 122.81445 z M 139.80469 124.01758 L 135.5957 127.67188 L 140.86523 129.49023 L 140.82812 129.29883 L 139.80469 124.01758 z M 108.00391 124.12891 L 101.1543 130.07617 L 107.10156 136.92383 L 113.94922 130.97656 L 108.00391 124.12891 z M 86.179688 128.35938 L 85.429688 130.5293 L 83.220703 136.93359 L 91.794922 139.89062 L 91.796875 139.89062 L 94.751953 131.31641 L 86.179688 128.35938 z M 81.095703 128.45508 L 78.359375 128.98438 L 75.623047 129.51562 L 79.277344 133.72461 L 79.279297 133.72461 L 81.095703 128.45508 z M 145.58594 128.75391 L 145.88477 130.29883 L 147.07227 130.06836 L 145.58594 128.75391 z M 70.873047 131.32617 L 70.070312 132.02344 L 74.433594 140.24414 L 76.818359 138.17383 L 70.873047 131.32617 z M 129.01953 131.37891 L 126.42773 131.88086 L 120.11523 133.10352 L 121.83984 142.00977 L 121.8418 142.00977 L 126.29297 141.14648 L 130.74609 140.2832 L 129.01953 131.37891 z M 134.03906 132.18555 L 135.09766 137.6582 L 139.30859 134.00391 L 134.03906 132.18555 z M 151.58203 134.05664 L 148.50781 134.65234 L 152.16406 138.86133 L 153.29688 135.57422 L 151.58203 134.05664 z M 98.695312 134.52539 L 96.878906 139.79492 L 99.615234 139.26562 L 102.35156 138.73633 L 102.35156 138.73438 L 98.695312 134.52539 z M 115.75977 135.72852 L 111.55078 139.38281 L 116.82031 141.20117 L 115.76172 135.72852 L 115.75977 135.72852 z M 143.75781 136.46289 L 136.9082 142.41016 L 142.85547 149.25781 L 146.28125 146.28516 L 149.70508 143.31055 L 143.75781 136.46289 z M 157.16797 138.99609 L 156.10742 142.07031 L 163.54492 144.63672 L 157.16797 138.99609 z M 83.316406 142.01562 L 84.376953 147.48828 L 88.587891 143.83398 L 83.316406 142.01562 z M 78.630859 142.92383 L 76.730469 144.57227 L 78.552734 148.00586 L 79.691406 148.39844 L 79.160156 145.66016 L 78.630859 142.92383 z M 108.3418 143.32617 L 105.38477 151.90039 L 113.81055 154.80664 L 113.95898 154.85742 L 116.91602 146.28516 L 116.91602 146.2832 L 108.34375 143.32617 L 108.3418 143.32617 z M 103.25977 143.42188 L 97.787109 144.48242 L 101.44141 148.69141 L 103.25977 143.42188 z M 129.9375 145.30273 L 127.20117 145.83203 L 124.46484 146.36328 L 128.11914 150.57227 L 129.9375 145.30273 z M 93.037109 146.29297 L 86.1875 152.23828 L 86.1875 152.24023 L 92.132812 159.08789 L 92.134766 159.08789 L 98.982422 153.14062 L 93.037109 146.29297 z M 134.45117 146.85742 L 132.63281 152.12891 L 138.10547 151.06836 L 134.45117 146.85742 z M 156.20117 147.15234 L 157.26172 152.62695 L 157.26367 152.62695 L 161.47266 148.9707 L 156.20117 147.15234 z M 151.51562 148.0625 L 147.30469 151.7168 L 152.57617 153.53516 L 151.51562 148.0625 z M 120.85938 149.49219 L 119.04102 154.76172 L 123.60547 153.87891 L 124.51562 153.70312 L 124.51562 153.70117 L 120.85938 149.49219 z M 165.92188 151.42969 L 159.07227 157.375 L 159.07227 157.37695 L 165.01953 164.22461 L 171.86914 158.27734 L 165.92188 151.42969 z M 144.0957 155.66016 L 141.13867 164.23438 L 149.71289 167.19141 L 149.71484 167.19141 L 151.19141 162.9043 L 152.66992 158.61719 L 149.37109 157.47852 L 144.0957 155.66016 z M 139.01562 155.75391 L 133.54102 156.81445 L 133.54102 156.81641 L 137.19531 161.02539 L 137.19727 161.02539 L 139.01562 155.75391 z M 83.728516 156.6875 L 83.503906 157.33594 L 85.580078 161.24805 L 87.384766 160.89844 L 83.728516 156.6875 z M 105.48047 156.98242 L 106.54102 162.45703 L 110.75 158.80078 L 105.48047 156.98242 z M 100.79297 157.89062 L 96.583984 161.54688 L 101.85352 163.36523 L 100.79492 157.89062 L 100.79297 157.89062 z M 125.42383 158.38867 L 119.94922 159.44922 L 123.60547 163.66016 L 125.42383 158.38867 z M 129.93555 159.94531 L 128.11719 165.2168 L 133.5918 164.15625 L 129.93555 159.94531 z M 115.19922 161.25977 L 108.35156 167.20508 L 108.35156 167.20703 L 114.29688 174.05469 L 114.29883 174.05469 L 121.14648 168.10938 L 121.14648 168.10742 L 115.19922 161.25977 z M 156.61328 161.82617 L 154.79492 167.0957 L 159.35938 166.21289 L 160.26953 166.03711 L 156.61328 161.82617 z M 178.36523 162.11914 L 179.42578 167.59375 L 183.63672 163.93945 L 178.36523 162.11914 z M 173.67773 163.0293 L 172.80469 163.78711 L 169.46875 166.68359 L 174.73828 168.50195 L 174.20898 165.76562 L 173.67773 163.0293 z M 93.375 165.49023 L 91.191406 171.82031 L 92.824219 174.89453 L 98.992188 177.02148 L 101.95117 168.44727 L 93.375 165.49023 z M 88.292969 165.58594 L 87.921875 165.6582 L 88.130859 166.05469 L 88.292969 165.58594 z M 188.08398 166.39844 L 181.23633 172.34375 L 187.18359 179.19141 L 194.03125 173.24609 L 188.08398 166.39844 z M 136.21484 168.50781 L 127.31055 170.23438 L 129.03711 179.13867 L 137.94141 177.41406 L 136.21484 168.50781 z M 141.23438 169.31641 L 142.29492 174.78906 L 146.50391 171.13477 L 141.23438 169.31641 z M 166.25977 170.62695 L 163.30273 179.20117 L 171.87695 182.1582 L 174.83398 173.58398 L 166.25977 170.62695 z M 161.17773 170.72266 L 155.70312 171.78125 L 155.70312 171.7832 L 159.35938 175.99219 L 161.17773 170.72266 z M 105.89258 171.65625 L 104.07422 176.92578 L 104.65039 176.81445 L 109.54883 175.86523 L 105.89258 171.65625 z M 122.95703 172.85938 L 118.74805 176.51367 L 124.01758 178.33203 L 122.95703 172.85938 z M 150.95312 173.59375 L 147.5293 176.56641 L 144.10547 179.53906 L 144.10547 179.54102 L 150.05273 186.38867 L 153.47656 183.41602 L 156.90039 180.44336 L 150.95312 173.59375 z M 178.77734 176.79297 L 176.95898 182.0625 L 179.69531 181.5332 L 182.43164 181.00391 L 178.77734 176.79297 z M 200.58789 177.39648 L 201.92188 184.27734 L 207.20898 183.25195 L 200.58789 177.39648 z M 195.8418 177.99609 L 191.63281 181.65039 L 191.63281 181.65234 L 196.90234 183.46875 L 196.86523 183.27734 L 195.8418 177.99609 z M 112.16992 180.21875 L 109.40625 180.75586 L 103.26562 181.94531 L 104.71094 189.39844 L 112.47656 189.39844 L 113.89648 189.12305 L 112.17188 180.21875 L 112.16992 180.21875 z M 117.18945 181.02539 L 118.25 186.5 L 122.46094 182.8457 L 122.46094 182.84375 L 117.18945 181.02539 z M 137.13281 182.43164 L 131.66016 183.49219 L 135.31445 187.70312 L 135.31641 187.70312 L 136.22461 185.06836 L 137.13281 182.43164 z M 141.64648 183.98828 L 140.73828 186.625 L 139.82812 189.25977 L 145.30078 188.19922 L 141.64648 183.98828 z M 163.39844 184.2832 L 163.92773 187.01953 L 164.38867 189.39844 L 164.87305 189.39844 L 166.5625 187.92969 L 168.66797 186.10156 L 163.39844 184.2832 z M 98.914062 184.56836 L 98.259766 185.13672 L 99.464844 187.4082 L 99.445312 187.30469 L 98.914062 184.56836 z M 158.71094 185.19141 L 156.60547 187.01953 L 154.5 188.84766 L 156.09766 189.39844 L 159.52539 189.39844 L 158.71094 185.19141 z M 126.91016 185.30469 L 122.19531 189.39844 L 130.46484 189.39844 L 126.91016 185.30469 z M 185.05664 185.35742 L 183.28125 185.70117 L 176.15234 187.08203 L 176.60156 189.39844 L 185.83984 189.39844 L 185.05664 185.35742 z M 190.07617 186.16406 L 190.60547 188.90234 L 190.70117 189.39844 L 193.71484 189.39844 L 195.3457 187.98242 L 190.07617 186.16406 z M 210.01758 187.57031 L 204.54492 188.63086 L 205.21094 189.39844 L 209.38672 189.39844 L 210.01758 187.57031 z "
     id="path835" />
</svg>
