<?xml version="1.0" encoding="UTF-8" standalone="no"?>
<svg
   xmlns:dc="http://purl.org/dc/elements/1.1/"
   xmlns:cc="http://creativecommons.org/ns#"
   xmlns:rdf="http://www.w3.org/1999/02/22-rdf-syntax-ns#"
   xmlns:svg="http://www.w3.org/2000/svg"
   xmlns="http://www.w3.org/2000/svg"
   xmlns:sodipodi="http://sodipodi.sourceforge.net/DTD/sodipodi-0.dtd"
   xmlns:inkscape="http://www.inkscape.org/namespaces/inkscape"
   inkscape:version="1.0beta1 (32d4812, 2019-09-19)"
   sodipodi:docname="rhombicosacron__4-uniform_142.svg"
   id="svg6343"
   version="1.1"
   data-reactroot=""
   viewBox="0 0 378.20592248951493 306.2276012378563">
  <style
     id="style6912"></style>
  <metadata
     id="metadata6349">
    <rdf:RDF>
      <cc:Work
         rdf:about="">
        <dc:format>image/svg+xml</dc:format>
        <dc:type
           rdf:resource="http://purl.org/dc/dcmitype/StillImage" />
        <dc:title></dc:title>
      </cc:Work>
    </rdf:RDF>
  </metadata>
  <defs
     id="defs6347" />
  <sodipodi:namedview
     inkscape:current-layer="svg6343"
     inkscape:window-maximized="1"
     inkscape:window-y="23"
     inkscape:window-x="0"
     inkscape:cy="229.26919"
     inkscape:cx="-29.536713"
     inkscape:zoom="1.231247"
     inkscape:snap-global="true"
     showgrid="false"
     id="namedview6345"
     inkscape:window-height="1005"
     inkscape:window-width="1680"
     inkscape:pageshadow="2"
     inkscape:pageopacity="0"
     guidetolerance="10"
     gridtolerance="10"
     objecttolerance="10"
     borderopacity="1"
     inkscape:document-rotation="0"
     bordercolor="#666666"
     pagecolor="#ffffff" />
  <path
     d="M 0 0 L 2.4179688 14.300781 L 10.451172 8.4628906 L 0 0 z M 14.570312 15.484375 L 5.9257812 21.763672 L 15.6875 26.111328 L 14.570312 15.484375 z M 23.050781 18.664062 L 23.744141 25.261719 L 27.673828 22.40625 L 23.050781 18.664062 z M 34.193359 27.6875 L 26.107422 33.5625 L 35.875 47.003906 L 47.564453 38.511719 L 34.193359 27.6875 z M 5.1171875 30.273438 L 8.4082031 49.746094 L 15.101562 34.71875 L 5.1171875 30.273438 z M 21.296875 40.722656 L 16.951172 50.482422 L 27.576172 49.367188 L 21.296875 40.722656 z M 51.679688 45.535156 L 43.037109 51.816406 L 52.796875 56.162109 L 51.679688 45.535156 z M 60.162109 48.712891 L 60.855469 55.314453 L 64.787109 52.458984 L 60.162109 48.712891 z M 28.423828 57.423828 L 17.798828 58.541016 L 24.078125 67.185547 L 28.423828 57.423828 z M 71.306641 57.736328 L 63.21875 63.613281 L 72.986328 77.054688 L 84.675781 68.560547 L 71.306641 57.736328 z M 37.03125 58.011719 L 30.273438 73.189453 L 45.453125 79.949219 L 52.210938 64.769531 L 37.03125 58.011719 z M 11.242188 63.304688 L 10.849609 64.1875 L 12.253906 72.501953 L 17.521484 71.949219 L 11.242188 63.304688 z M 58.40625 70.775391 L 54.0625 80.533203 L 64.685547 79.417969 L 58.40625 70.775391 z M 88.791016 75.587891 L 80.148438 81.867188 L 89.90625 86.210938 L 88.791016 75.587891 z M 97.271484 78.759766 L 97.964844 85.365234 L 101.90039 82.507812 L 97.271484 78.759766 z M 18.369141 80.007812 L 13.607422 80.507812 L 14.857422 87.896484 L 18.369141 80.007812 z M 26.976562 80.591797 L 20.220703 95.771484 L 35.400391 102.5293 L 42.158203 87.349609 L 26.976562 80.591797 z M 65.535156 87.474609 L 54.908203 88.591797 L 61.1875 97.236328 L 65.535156 87.474609 z M 108.41797 87.785156 L 100.32812 93.664062 L 110.09375 107.10547 L 121.78906 98.611328 L 108.41797 87.785156 z M 74.142578 88.0625 L 67.384766 103.24219 L 82.5625 110 L 89.320312 94.820312 L 74.142578 88.0625 z M 48.353516 93.355469 L 44.007812 103.11523 L 54.632812 102 L 48.353516 93.355469 z M 95.517578 100.82617 L 91.171875 110.58594 L 101.79688 109.4707 L 95.517578 100.82617 z M 17.480469 103.42188 L 20.804688 123.08984 L 25.345703 125.11133 L 32.103516 109.93164 L 17.480469 103.42188 z M 125.90234 105.63867 L 117.25781 111.91797 L 127.01953 116.26367 L 125.90234 105.63867 z M 134.38281 108.80859 L 135.07617 115.41602 L 139.01172 112.55664 L 134.38281 108.80859 z M 55.478516 110.05859 L 44.853516 111.17383 L 51.132812 119.81836 L 55.478516 110.05859 z M 64.087891 110.64453 L 57.330078 125.82422 L 72.509766 132.58203 L 79.267578 117.40234 L 64.087891 110.64453 z M 38.298828 115.9375 L 33.953125 125.69727 L 44.578125 124.58203 L 38.298828 115.9375 z M 102.64453 117.5293 L 92.019531 118.64453 L 98.298828 127.28906 L 102.64453 117.5293 z M 145.5332 117.83594 L 137.43945 123.71484 L 147.20703 137.1582 L 158.90039 128.66016 L 145.5332 117.83594 z M 111.25195 118.11523 L 104.49414 133.29297 L 119.67383 140.05078 L 126.43164 124.87109 L 111.25195 118.11523 z M 85.462891 123.4082 L 81.117188 133.16797 L 91.744141 132.05078 L 85.462891 123.4082 z M 132.62695 130.87695 L 128.2832 140.63672 L 138.90625 139.52148 L 132.62695 130.87695 z M 45.425781 132.63867 L 34.798828 133.75586 L 41.080078 142.40039 L 45.425781 132.63867 z M 54.033203 133.22656 L 47.277344 148.4043 L 62.455078 155.16211 L 69.212891 139.98438 L 54.033203 133.22656 z M 163.01172 135.68945 L 154.36719 141.9707 L 164.12891 146.31641 L 163.01172 135.68945 z M 28.246094 138.51758 L 24.742188 146.38672 L 25.042969 148.1582 L 34.525391 147.16211 L 28.246094 138.51758 z M 171.49219 138.85547 L 172.18555 145.4668 L 176.125 142.60547 L 171.49219 138.85547 z M 92.591797 140.10938 L 81.964844 141.22461 L 88.244141 149.86914 L 92.591797 140.10938 z M 101.19922 140.69531 L 94.441406 155.875 L 109.61914 162.63281 L 116.37695 147.45312 L 101.19922 140.69531 z M 75.410156 145.99023 L 71.064453 155.74805 L 81.689453 154.63281 L 75.410156 145.99023 z M 139.75586 147.57812 L 129.12891 148.69531 L 135.4082 157.33984 L 139.75586 147.57812 z M 182.64453 147.88477 L 174.54883 153.76758 L 184.31641 167.20898 L 196.01367 158.71094 L 182.64453 147.88477 z M 148.36328 148.16406 L 141.60352 163.3457 L 156.78516 170.10352 L 163.54102 154.92383 L 148.36328 148.16406 z M 122.57422 153.45898 L 118.22656 163.21875 L 128.85352 162.10352 L 122.57422 153.45898 z M 35.373047 155.2207 L 26.394531 156.16211 L 26.933594 159.3418 L 31.027344 164.97852 L 35.373047 155.2207 z M 43.980469 155.80664 L 37.222656 170.98438 L 52.402344 177.74414 L 59.160156 162.56445 L 43.980469 155.80664 z M 169.73828 160.92773 L 165.39258 170.6875 L 176.01758 169.57227 L 169.73828 160.92773 z M 82.537109 162.68945 L 71.912109 163.80664 L 78.191406 172.45117 L 82.537109 162.68945 z M 91.144531 163.27734 L 84.386719 178.45508 L 99.566406 185.21289 L 106.32422 170.03516 L 91.144531 163.27734 z M 200.12109 165.74023 L 191.47852 172.02148 L 201.23828 176.36719 L 200.12109 165.74023 z M 65.355469 168.57031 L 61.011719 178.33008 L 71.636719 177.21289 L 65.355469 168.57031 z M 208.60156 168.90234 L 209.29688 175.51953 L 213.23828 172.65625 L 208.60156 168.90234 z M 129.70117 170.16016 L 119.07422 171.27734 L 125.35547 179.91992 L 129.70117 170.16016 z M 138.30859 170.74609 L 131.55078 185.92578 L 146.73047 192.68359 L 153.48828 177.50586 L 138.30859 170.74609 z M 112.51953 176.03906 L 108.17383 185.79883 L 118.79883 184.68359 L 112.51953 176.03906 z M 176.86523 177.62891 L 166.23828 178.74609 L 172.51758 187.39062 L 176.86523 177.62891 z M 219.75586 177.93359 L 211.66016 183.81641 L 221.42578 197.25977 L 233.125 188.75977 L 219.75586 177.93359 z M 185.47266 178.2168 L 178.71484 193.39648 L 193.89453 200.1543 L 200.65234 184.97461 L 185.47266 178.2168 z M 36.636719 179.59375 L 37.751953 190.21875 L 46.396484 183.93945 L 36.636719 179.59375 z M 159.68359 183.50977 L 155.33789 193.27148 L 165.96289 192.1543 L 159.68359 183.50977 z M 72.484375 185.27148 L 61.857422 186.38867 L 68.136719 195.0332 L 72.484375 185.27148 z M 81.091797 185.85742 L 74.333984 201.03711 L 89.511719 207.79492 L 96.269531 192.61523 L 81.091797 185.85742 z M 53.558594 188.75195 L 40.117188 198.51758 L 49.882812 211.96094 L 63.324219 202.19531 L 53.558594 188.75195 z M 206.84766 190.97852 L 202.50195 200.74023 L 213.12891 199.62305 L 206.84766 190.97852 z M 119.64648 192.74023 L 109.02148 193.85742 L 115.30078 202.50195 L 119.64648 192.74023 z M 128.25586 193.32812 L 121.49805 208.50781 L 136.67578 215.26562 L 143.43359 200.08594 L 128.25586 193.32812 z M 237.23242 195.79297 L 228.58789 202.07227 L 238.34766 206.41797 L 237.23242 195.79297 z M 102.4668 198.62109 L 98.119141 208.38086 L 108.74609 207.26562 L 102.4668 198.62109 z M 245.71094 198.94922 L 246.40625 205.57031 L 250.34961 202.70508 L 245.71094 198.94922 z M 166.81055 200.21289 L 156.18555 201.32812 L 162.46484 209.97266 L 166.81055 200.21289 z M 175.41992 200.79688 L 168.66016 215.97852 L 183.83984 222.73438 L 190.59766 207.55469 L 175.41992 200.79688 z M 34.599609 204.70898 L 37.363281 221.05664 L 43.328125 216.72266 L 34.599609 204.70898 z M 149.63086 206.08984 L 145.2832 215.85352 L 155.91016 214.73633 L 149.63086 206.08984 z M 213.97461 207.68164 L 203.34766 208.79883 L 209.62891 217.44336 L 213.97461 207.68164 z M 256.86914 207.98438 L 248.76953 213.86914 L 258.53711 227.3125 L 270.24023 218.81055 L 256.86914 207.98438 z M 222.58398 208.26758 L 215.82617 223.44727 L 231.00391 230.20508 L 237.76172 215.02539 L 222.58398 208.26758 z M 73.748047 209.64648 L 74.863281 220.26953 L 83.505859 213.99219 L 73.748047 209.64648 z M 65.689453 210.49219 L 57.044922 216.77148 L 66.806641 221.11914 L 65.689453 210.49219 z M 196.79492 213.56055 L 192.44922 223.32031 L 203.07422 222.20508 L 196.79492 213.56055 z M 109.5918 215.32422 L 98.96875 216.43945 L 105.24805 225.08398 L 109.5918 215.32422 z M 118.20117 215.91016 L 111.44336 231.08789 L 126.62305 237.84766 L 133.38086 222.66797 L 118.20117 215.91016 z M 90.667969 218.80273 L 77.226562 228.57031 L 86.992188 242.01172 L 100.43555 232.24414 L 90.667969 218.80273 z M 243.95898 221.03125 L 239.61133 230.79102 L 250.23828 229.67578 L 243.95898 221.03125 z M 156.75586 222.79297 L 146.13086 223.91016 L 152.41016 232.55273 L 156.75586 222.79297 z M 165.36523 223.38086 L 158.60742 238.55859 L 173.78516 245.31641 L 180.54297 230.13672 L 165.36523 223.38086 z M 53.75 224.17383 L 54.865234 234.79883 L 63.509766 228.51953 L 53.75 224.17383 z M 45.691406 225.02148 L 38.871094 229.97461 L 39.261719 232.28711 L 46.806641 235.64648 L 45.691406 225.02148 z M 274.3418 225.84375 L 265.69727 232.12305 L 275.45898 236.4707 L 274.3418 225.84375 z M 139.57617 228.67188 L 135.23047 238.43164 L 145.85547 237.31641 L 139.57617 228.67188 z M 282.82031 228.99805 L 283.51758 235.62305 L 287.46289 232.75586 L 282.82031 228.99805 z M 203.92188 230.26367 L 193.29492 231.37891 L 199.57422 240.02344 L 203.92188 230.26367 z M 212.5293 230.84961 L 205.77148 246.0293 L 220.95117 252.78516 L 227.70703 237.60742 L 212.5293 230.84961 z M 70.671875 233.33203 L 57.230469 243.09766 L 66.996094 256.54102 L 80.4375 246.77344 L 70.671875 233.33203 z M 186.74023 236.14258 L 182.39453 245.90234 L 193.01953 244.78711 L 186.74023 236.14258 z M 251.08594 237.73438 L 240.46094 238.84961 L 246.74023 247.49414 L 251.08594 237.73438 z M 293.98242 238.03516 L 285.88086 243.91992 L 295.64844 257.36328 L 307.35156 248.85938 L 293.98242 238.03516 z M 259.69336 238.31836 L 252.93555 253.49805 L 268.11523 260.25586 L 274.87305 245.07812 L 259.69336 238.31836 z M 110.85742 239.69531 L 111.97266 250.32227 L 120.61719 244.04297 L 110.85742 239.69531 z M 102.79883 240.54492 L 94.15625 246.82422 L 103.91406 251.16797 L 102.79883 240.54492 z M 40.882812 241.87891 L 41.347656 244.62109 L 43.511719 243.04883 L 40.882812 241.87891 z M 233.9043 243.61133 L 229.55859 253.37305 L 240.18555 252.25586 L 233.9043 243.61133 z M 146.70312 245.375 L 136.07812 246.49023 L 142.35742 255.13477 L 146.70312 245.375 z M 155.31055 245.96094 L 148.55273 261.14062 L 163.73242 267.89648 L 170.49023 252.71875 L 155.31055 245.96094 z M 50.675781 247.86133 L 42.855469 253.54297 L 45.458984 268.95117 L 46.998047 271.07031 L 60.441406 261.30273 L 50.675781 247.86133 z M 127.7793 248.85352 L 114.33594 258.62109 L 124.10156 272.0625 L 137.54492 262.29688 L 127.7793 248.85352 z M 281.06836 251.08203 L 276.72266 260.8418 L 287.34766 259.72656 L 281.06836 251.08203 z M 193.86719 252.8457 L 183.24219 253.96094 L 189.52148 262.60547 L 193.86719 252.8457 z M 202.47461 253.43164 L 195.71875 268.60938 L 210.89648 275.36719 L 217.6543 260.1875 L 202.47461 253.43164 z M 90.859375 254.22461 L 91.974609 264.85156 L 100.62109 258.57227 L 90.859375 254.22461 z M 82.800781 255.07227 L 74.15625 261.35156 L 83.917969 265.69922 L 82.800781 255.07227 z M 311.45117 255.89453 L 302.80859 262.17383 L 312.56836 266.52148 L 311.45117 255.89453 z M 176.68555 258.72461 L 172.3418 268.48242 L 182.96484 267.36719 L 176.68555 258.72461 z M 319.93164 259.04492 L 320.62695 265.67383 L 324.57617 262.80469 L 319.93164 259.04492 z M 241.03125 260.31445 L 230.40625 261.42969 L 236.68555 270.07422 L 241.03125 260.31445 z M 249.64062 260.90039 L 242.88281 276.08008 L 258.06055 282.83984 L 264.81836 267.6582 L 249.64062 260.90039 z M 107.78125 263.38281 L 94.339844 273.15039 L 104.10547 286.5918 L 117.54883 276.82422 L 107.78125 263.38281 z M 223.85156 266.19336 L 219.50586 275.95312 L 230.13086 274.83789 L 223.85156 266.19336 z M 288.19727 267.78516 L 277.57031 268.90039 L 283.84961 277.54492 L 288.19727 267.78516 z M 331.0957 268.08398 L 322.99023 273.97266 L 332.75586 287.41406 L 344.46289 278.9082 L 331.0957 268.08398 z M 296.80469 268.37109 L 290.04688 283.55078 L 305.22461 290.30664 L 311.98242 275.12891 L 296.80469 268.37109 z M 70.863281 268.75391 L 71.978516 279.37891 L 80.623047 273.10156 L 70.863281 268.75391 z M 62.804688 269.60156 L 54.160156 275.88086 L 63.919922 280.22852 L 62.804688 269.60156 z M 147.96875 269.74805 L 149.08398 280.37305 L 157.72656 274.09375 L 147.96875 269.74805 z M 139.91016 270.5957 L 131.26562 276.875 L 141.02539 281.2207 L 139.91016 270.5957 z M 271.01562 273.66406 L 266.66797 283.42578 L 277.29492 282.30859 L 271.01562 273.66406 z M 183.81445 275.42578 L 173.1875 276.54102 L 179.4668 285.18555 L 183.81445 275.42578 z M 192.42188 276.01172 L 185.66406 291.19141 L 200.8418 297.94922 L 207.59961 282.76953 L 192.42188 276.01172 z M 87.785156 277.91211 L 74.341797 287.67969 L 84.107422 301.12109 L 97.550781 291.35352 L 87.785156 277.91211 z M 164.89062 278.90625 L 151.44727 288.67188 L 161.21289 302.11328 L 174.65625 292.34766 L 164.89062 278.90625 z M 318.17969 281.13281 L 313.83203 290.89453 L 324.45898 289.77734 L 318.17969 281.13281 z M 230.97656 282.89648 L 220.35352 284.01172 L 226.63281 292.65625 L 230.97656 282.89648 z M 50.865234 283.2832 L 51.980469 293.9082 L 60.625 287.62891 L 50.865234 283.2832 z M 239.58594 283.48242 L 232.82812 298.66016 L 248.00781 305.41992 L 254.76562 290.24023 L 239.58594 283.48242 z M 127.9707 284.27539 L 129.08594 294.90234 L 137.73047 288.62305 L 127.9707 284.27539 z M 119.91211 285.125 L 111.26758 291.40234 L 121.02734 295.75 L 119.91211 285.125 z M 348.5625 285.94727 L 339.91992 292.22656 L 349.67969 296.57227 L 348.5625 285.94727 z M 213.79688 288.77539 L 209.45117 298.53711 L 220.07617 297.41992 L 213.79688 288.77539 z M 357.04102 289.0918 L 357.73828 295.72656 L 361.68945 292.85547 L 357.04102 289.0918 z M 278.14062 290.36719 L 267.51758 291.48242 L 273.79688 300.125 L 278.14062 290.36719 z M 286.75 290.95312 L 279.99219 306.13086 L 280.21094 306.22852 L 298.13672 306.22852 L 301.92969 297.70898 L 286.75 290.95312 z M 67.787109 292.44141 L 54.34375 302.20898 L 57.265625 306.22852 L 77.076172 306.22852 L 77.552734 305.88281 L 67.787109 292.44141 z M 144.89258 293.43359 L 131.44922 303.20117 L 133.64844 306.22852 L 154.1875 306.22852 L 144.89258 293.43359 z M 260.96094 296.24609 L 256.61523 306.00391 L 267.24023 304.88867 L 260.96094 296.24609 z M 325.30664 297.83594 L 314.68164 298.95117 L 319.96875 306.22852 L 321.57031 306.22852 L 325.30664 297.83594 z M 368.20703 298.13281 L 360.10156 304.02148 L 361.70508 306.22852 L 378.20508 306.22852 L 368.20703 298.13281 z M 333.91406 298.42188 L 330.43945 306.22852 L 348.62695 306.22852 L 349.09375 305.18164 L 333.91406 298.42188 z M 107.97266 298.80469 L 108.75391 306.22852 L 113.49805 306.22852 L 117.73242 303.15234 L 107.97266 298.80469 z M 99.914062 299.65234 L 91.269531 305.93164 L 91.935547 306.22852 L 100.60352 306.22852 L 99.914062 299.65234 z M 185.07812 299.80078 L 185.75195 306.22852 L 191.96875 306.22852 L 194.83789 304.14453 L 185.07812 299.80078 z M 177.01953 300.64648 L 169.33398 306.22852 L 177.60547 306.22852 L 177.01953 300.64648 z M 308.125 303.71484 L 307.00586 306.22852 L 309.95117 306.22852 L 308.125 303.71484 z M 220.92383 305.47852 L 213.7793 306.22852 L 220.58984 306.22852 L 220.92383 305.47852 z M 229.53125 306.0625 L 229.45703 306.22852 L 229.9043 306.22852 L 229.53125 306.0625 z "
     id="path6341" />
  <style
     id="style6914" />
</svg>
