<?xml version="1.0" encoding="UTF-8" standalone="no"?>
<svg
   xmlns:dc="http://purl.org/dc/elements/1.1/"
   xmlns:cc="http://creativecommons.org/ns#"
   xmlns:rdf="http://www.w3.org/1999/02/22-rdf-syntax-ns#"
   xmlns:svg="http://www.w3.org/2000/svg"
   xmlns="http://www.w3.org/2000/svg"
   xmlns:sodipodi="http://sodipodi.sourceforge.net/DTD/sodipodi-0.dtd"
   xmlns:inkscape="http://www.inkscape.org/namespaces/inkscape"
   inkscape:version="1.0beta1 (32d4812, 2019-09-19)"
   height="650.5824"
   width="1163.7854"
   sodipodi:docname="tetrakishexahedron__2-uniform_n16.svg"
   id="svg22111"
   version="1.1"
   data-reactroot=""
   viewBox="-581.89269 0 1163.7854 650.58238">
  <metadata
     id="metadata22117">
    <rdf:RDF>
      <cc:Work
         rdf:about="">
        <dc:format>image/svg+xml</dc:format>
        <dc:type
           rdf:resource="http://purl.org/dc/dcmitype/StillImage" />
        <dc:title></dc:title>
      </cc:Work>
    </rdf:RDF>
  </metadata>
  <defs
     id="defs22115" />
  <sodipodi:namedview
     inkscape:current-layer="svg22111"
     inkscape:window-maximized="1"
     inkscape:window-y="23"
     inkscape:window-x="0"
     inkscape:cy="332.18724"
     inkscape:cx="527.62827"
     inkscape:zoom="0.61211836"
     inkscape:guide-bbox="true"
     showguides="true"
     inkscape:bbox-nodes="true"
     inkscape:snap-bbox="true"
     inkscape:snap-page="true"
     showgrid="false"
     id="namedview22113"
     inkscape:window-height="1005"
     inkscape:window-width="1680"
     inkscape:pageshadow="2"
     inkscape:pageopacity="0"
     guidetolerance="10"
     gridtolerance="10"
     objecttolerance="10"
     borderopacity="1"
     inkscape:document-rotation="0"
     bordercolor="#666666"
     pagecolor="#ffffff">
    <sodipodi:guide
       id="guide25552"
       orientation="1,0"
       position="1164.9034,651.33238" />
  </sodipodi:namedview>
  <path
     inkscape:connector-curvature="0"
     d="M -0.06589099,0.03729246 -31.548311,35.236511 h 32.61328 a 8.0008,8.0008 0 0 1 0.10547,0 8.0008,8.0008 0 0 1 0.0527,0 h 30.32618 L 0.06691901,0.03729246 Z M -36.224091,51.236511 l 11.74414,20.33789 11.74219,-20.33789 z m 51.19922,0 11.74219,20.33789 11.74414,-20.33789 z m -66.205076,6.005859 -24.70117,27.615234 10.03906,17.386726 30.482416,-17.597663 z m 103.820306,1.519531 -14.94531,25.884766 30.48242,17.597663 9.16211,-15.869148 z m -51.47265,0.47461 -11.74219,20.33789 h 23.48633 z m -17.59766,36.33789 v 43.197269 43.19922 h 35.19727 V 138.77167 95.574401 Z m -70.677726,1.835938 -6.94532,7.763681 h 11.42774 z m 175.675776,1.519531 -3.60547,6.24415 h 9.1914 z m -120.99805,2.50001 -20.339836,11.74414 20.339836,11.74218 z m 67.19727,0 v 23.48632 l 20.33789,-11.74218 z m -143.130849,19.74414 -31.48047,35.19726 h 19.875 0.10547 43.093743 v -35.19726 z m 187.468739,0 v 35.19726 h 43.199211 a 8.0008,8.0008 0 0 1 0.10352,0 h 17.53711 l -31.48047,-35.19726 z m -139.874996,5.85547 v 23.48632 l 20.339836,-11.74414 z m 123.874996,0 -20.33789,11.74218 20.33789,11.74414 z m -95.53516,25.59961 -20.339836,11.74218 20.339836,11.74414 z m 67.19727,0 v 23.48632 l 20.33789,-11.74414 z m -188.921869,19.74218 -1.91797,2.14453 10.50586,18.19532 11.74219,-20.33985 z m 48.04297,0 11.742183,20.33985 11.74414,-20.33985 z m 191.074209,0 11.74219,20.33985 11.744141,-20.33985 z m 51.197261,0 11.74219,20.33985 9.62891,-16.67774 -3.27539,-3.66211 z m -202.001947,2.92774 -17.59961,30.48437 30.48438,17.59766 17.597646,-30.48242 z m 134.019526,0 -30.48242,17.59961 17.59961,30.48242 30.48242,-17.59766 z m -188.146469,5.07226 -11.74219,20.33985 h 23.48633 z m 242.27342,0 -11.74414,20.33985 h 23.48633 z m -289.6035,6.69727 -24.69922,27.61523 5.02148,8.69727 30.48047,-17.59766 z m 336.05858,1.51953 -9.92773,17.19531 30.48242,17.59766 4.14453,-7.17969 z m -179.333981,9.38281 11.74219,20.33985 11.74414,-20.33985 z m -13.85547,8 -11.74414,20.33985 h 23.48633 z m 51.19727,0 -11.74219,20.33985 h 23.48633 z m -164.333979,10.74024 v 43.19726 43.19922 h 35.19727 v -43.19922 -0.10351 -43.09375 z m 242.27148,0 v 43.14453 a 8.0008,8.0008 0 0 1 0,0.0527 8.0008,8.0008 0 0 1 0,0.0527 8.0008,8.0008 0 0 1 0,0.0527 v 43.09375 h 35.19921 v -43.19922 -0.0508 a 8.0008,8.0008 0 0 1 0,-0.0527 v -43.09375 z m -258.27148,5.85547 -20.33984,11.74414 20.33984,11.74218 z m 67.197263,0 v 23.48632 l 20.33984,-11.74218 z m 175.074216,0 -20.3379,11.74414 20.3379,11.74218 z m 67.199211,0 v 23.48632 l 20.33789,-11.74218 z m -372.61327,19.74414 -31.48243,35.19726 h 7.0879 43.19727 v -35.19726 z m 174.679679,0 V 277.508 h 43.19727 43.19921 V 242.31074 H 1.117709 Z m 242.271481,0 V 277.508 h 43.19727 4.85352 l -31.48243,-35.19726 z m -382.14842,5.85546 v 23.48633 l 20.33984,-11.74414 z m 123.876943,0 -20.33984,11.74219 20.33984,11.74414 z m 118.396476,0 v 23.48633 l 20.3379,-11.74414 z m 123.875001,0 -20.33789,11.74219 20.33789,11.74414 z m -337.80858,25.59961 -20.33984,11.74219 20.33984,11.74414 z m 67.197263,0 v 23.48633 l 20.33984,-11.74414 z m 175.074216,0 -20.3379,11.74219 20.3379,11.74414 z m 67.199211,0 v 23.48633 L 176.19192,285.508 Z m -418.40625,19.74219 -9.68945,10.83399 5.48828,9.5039 11.74414,-20.33789 z m 35.25392,0 11.74414,20.33789 11.74219,-20.33789 z m 191.074209,0 11.74414,20.33789 11.74219,-20.33789 z m 51.19922,0 11.74219,20.33789 11.74414,-20.33789 z m 191.074221,0 11.74218,20.33789 11.74219,-20.33789 z m 51.19531,0 11.74414,20.33985 4.61133,-7.98829 -11.04688,-12.35156 z m -444.27148,2.92774 -17.59961,30.48242 30.48243,17.59961 17.59765,-30.48242 z m 134.019533,0 -30.48438,17.59961 17.59961,30.48242 30.482416,-17.59961 z m 108.251946,0 -17.59961,30.48242 30.48242,17.59961 17.59961,-30.48242 z m 134.019531,0 -30.48242,17.59961 17.59961,30.48242 30.48047,-17.59961 z m -430.41796,5.07226 -11.74415,20.33789 h 23.48634 z m 242.271479,0 -11.74219,20.33789 h 23.48633 z m 242.271481,0 -11.74219,20.33789 h 23.48633 z m -526.85742,15.38672 -24.69922,27.61524 0.004,0.008 30.48242,-17.59961 z m 568.29492,1.51758 -4.91016,8.50586 25.88477,14.94336 z m -416.58788,0.69531 11.74219,20.33789 11.74414,-20.33789 z m 242.27147,0 11.74414,20.33789 11.74219,-20.33789 z m -256.12694,8 -11.74414,20.33789 h 23.48633 z m 51.197263,0 -11.742183,20.33789 h 23.486323 z m 191.074216,0 -11.74219,20.33789 h 23.486331 z m 51.197261,0 -11.74219,20.33789 h 23.48633 z m -406.60547,10.73828 v 43.14649 a 8.0008,8.0008 0 0 1 0,0.0527 8.0008,8.0008 0 0 1 0,0.0527 8.0008,8.0008 0 0 1 0,0.0508 v 43.09375 h 35.19923 v -43.14453 -0.0527 -0.0527 -0.0527 -43.09375 z m 242.273439,0 v 43.19922 43.19727 h 35.19727 v -43.19727 -43.19922 z m 242.271481,0 v 43.19922 43.19727 h 35.19727 v -43.19727 -0.10547 -43.09375 z m -500.54492,5.85742 -20.33984,11.74219 20.33984,11.74414 z m 67.19923,0 v 23.48633 l 20.33789,-11.74414 z m 175.074209,0 -20.339836,11.74219 20.339836,11.74414 z m 67.19727,0 v 23.48633 l 20.33789,-11.74414 z m 175.074211,0 -20.33984,11.74219 20.33984,11.74414 z m 67.19727,0 v 23.48633 l 20.33984,-11.74414 z m -602.09375,19.74219 -31.48242,35.19922 h 37.49414 V 363.4455 Z m 161.88868,0 v 35.19922 h 43.19727 a 8.0008,8.0008 0 0 1 0.0527,0 h 0.0527 43.093743 V 363.4455 h -43.148433 a 8.0008,8.0008 0 0 1 -0.0508,0 8.0008,8.0008 0 0 1 -0.0508,0 h -0.0527 z m 242.271479,0 v 35.19922 h 43.199211 a 8.0008,8.0008 0 0 1 0.0527,0 8.0008,8.0008 0 0 1 0.0508,0 h 43.09375 V 363.4455 h -43.14453 a 8.0008,8.0008 0 0 1 -0.0527,0 8.0008,8.0008 0 0 1 -0.0527,0 h -0.0527 z m 242.273431,0 v 35.19922 h 35.25977 L 325.10599,363.4455 Z m -624.42187,5.85547 v 23.48633 l 20.33984,-11.74219 z m 123.87696,0 -20.33789,11.74414 20.33789,11.74219 z m 118.396483,0 v 23.48633 l 20.339836,-11.74219 z m 123.874996,0 -20.33789,11.74414 20.33789,11.74219 z m 118.396481,0 v 23.48633 l 20.33789,-11.74219 z m 123.87695,0 -20.33984,11.74414 20.33984,11.74219 z m -580.08203,25.59961 -20.33984,11.74219 20.33984,11.74414 z m 67.19923,0 v 23.48633 l 20.33789,-11.74414 z m 175.074209,0 -20.339836,11.74219 20.339836,11.74414 z m 67.19727,0 v 23.48633 l 20.33789,-11.74414 z m 175.074211,0 -20.33984,11.74219 20.33984,11.74414 z m 67.19727,0 v 23.48633 l 20.33984,-11.74414 z m -625.42383,19.74414 11.74414,20.33789 11.74219,-20.33789 z m 191.07423,0 11.74414,20.33789 11.74219,-20.33789 z m 51.19922,0 11.742183,20.33789 11.74414,-20.33789 z m 191.074209,0 11.74219,20.33789 11.744141,-20.33789 z m 51.197261,0 11.74219,20.33789 11.74414,-20.33789 z m 191.07422,0 11.74219,20.33789 11.74414,-20.33789 z m -635.34765,2.92774 -17.59961,30.48242 30.48242,17.59961 17.59961,-30.48243 z m 134.01954,0 -30.48243,17.5996 17.59961,30.48243 30.48047,-17.59961 z m 108.251943,0 -17.59961,30.48242 30.48438,17.59961 17.597646,-30.48243 z m 134.019526,0 -30.48242,17.5996 17.59961,30.48243 30.48242,-17.59961 z m 108.253911,0 -17.59961,30.48242 30.48242,17.59961 17.59766,-30.48243 z m 134.01953,0 -30.48438,17.5996 17.59961,30.48243 30.48242,-17.59961 z m -672.69141,5.07226 -11.74414,20.33789 h 23.48633 z m 242.2715,0 -11.74219,20.33789 h 23.48633 z m 242.27342,0 -11.74414,20.33789 h 23.48633 z m 242.27344,0 -11.74414,20.33789 h 23.48633 z m -750.23437,8.55469 -2.6543,2.96875 0.4707,0.81445 z m 132.80859,9.04297 11.74415,20.33984 11.74219,-20.33984 z m 242.273439,0 11.74219,20.33984 11.74414,-20.33984 z m 242.271481,0 11.74414,20.33984 11.74219,-20.33984 z m -631.23437,6.47851 -3.29102,3.67774 4.06055,-2.34375 z m 132.83398,1.52149 -11.74219,20.33984 h 23.48633 z m 51.19923,0 -11.74414,20.33984 h 23.48633 z m 191.074209,0 -11.74414,20.33984 h 23.48633 z m 51.19727,0 -11.74219,20.33984 h 23.48633 z m 242.271481,0 -11.74219,20.33984 h 23.48438 z m -51.19727,0.002 -11.74218,20.33789 h 23.48437 z m -597.68164,10.73828 v 43.14649 0.0527 a 8.0008,8.0008 0 0 1 0,0.0527 8.0008,8.0008 0 0 1 0,0.0508 v 43.09375 h 35.19922 v -43.19727 -0.0527 -0.0508 -43.0957 z m 242.27345,0 v 43.19922 43.19727 h 35.19727 v -43.19727 -0.10352 -43.0957 z m 242.27148,0 v 43.14649 0.0527 a 8.0008,8.0008 0 0 1 0,0.0527 8.0008,8.0008 0 0 1 0,0.0508 v 43.09375 h 35.19921 v -43.19727 -0.0527 -0.0508 -43.0957 z m 242.27343,0 v 43.19922 43.19727 h 35.19727 v -43.19727 -0.10352 -43.0957 z m -742.81836,5.85742 -20.33789,11.74219 20.33789,11.74414 z m 67.19922,0 v 23.48633 l 20.33789,-11.74414 z m 175.07423,0 -20.33984,11.74219 20.33984,11.74414 z m 67.197263,0 v 23.48633 l 20.33984,-11.74414 z m 175.074216,0 -20.3379,11.74219 20.3379,11.74414 z m 67.199211,0 v 23.48633 l 20.33789,-11.74414 z m 175.07422,0 -20.33984,11.74219 20.33984,11.74414 z m 67.19727,0 v 23.48633 l 20.33792,-11.74419 z M -284.353,484.58227 v 35.19727 h 43.19923 a 8.0008,8.0008 0 0 1 0.0527,0 h 0.0508 43.09375 v -35.19727 h -43.14453 a 8.0008,8.0008 0 0 1 -0.0527,0 8.0008,8.0008 0 0 1 -0.0527,0 h -0.0508 z m 242.273439,0 v 35.19727 h 43.19727 a 8.0008,8.0008 0 0 1 0.0527,0 8.0008,8.0008 0 0 1 0.0527,0 h 43.09375 V 484.58227 H 1.168429 a 8.0008,8.0008 0 0 1 -0.0508,0 8.0008,8.0008 0 0 1 -0.0508,0 h -0.0527 z m 242.271481,0 v 35.19727 h 43.19727 a 8.0008,8.0008 0 0 1 0.0527,0 h 0.0527 43.09375 V 484.58227 H 243.4399 a 8.0008,8.0008 0 0 1 -0.0508,0 8.0008,8.0008 0 0 1 -0.0508,0 h -0.0527 z m -624.41992,5.85547 v 23.48633 l 20.33789,-11.74219 z m 123.875,0 -20.33789,11.74414 20.33789,11.74219 z m 118.3965,0 v 23.48633 l 20.33984,-11.74219 z m 123.876943,0 -20.33984,11.74414 20.33984,11.74219 z m 118.396476,0 v 23.48633 l 20.3379,-11.74219 z m 123.875001,0 -20.33984,11.74414 20.33984,11.74219 z m 118.39649,0 v 23.48633 l 20.33984,-11.74219 z m 123.87503,0 -20.33792,11.74414 20.33792,11.74219 z m -866.69144,1.7207 -24.70508,27.6211 h 24.70508 z m 882.69144,2.49805 v 25.12305 h 22.4707 z m -838.35355,21.38081 -20.33789,11.74219 20.33789,11.74414 z m 67.19922,0 v 23.48633 l 20.33985,-11.74414 z m 175.07423,0 -20.33984,11.74219 20.33984,11.74414 z m 67.197263,0 v 23.48633 l 20.33984,-11.74414 z m 175.074216,0 -20.3379,11.74219 20.3379,11.74414 z m 67.199211,0 v 23.48633 l 20.33789,-11.74414 z m 175.07422,0 -20.33984,11.74219 20.33984,11.74414 z m 67.19727,0 v 23.48633 l 20.33792,-11.74414 z m -867.69531,19.74219 11.74218,20.33984 11.74414,-20.33984 z m 191.07421,0 11.74219,20.33984 11.74414,-20.33984 z m 51.19728,0 11.74414,20.33984 11.74219,-20.33984 z m 191.074209,0 11.74414,20.33984 11.74219,-20.33984 z m 51.19922,0 11.74219,20.33984 11.74414,-20.33984 z m 191.074221,0 11.74218,20.33789 11.74219,-20.33789 z m 51.19726,0 11.74219,20.33984 11.74219,-20.33984 z m 191.07223,0 11.7442,20.33984 11.7422,-20.33984 z m -877.6191,2.92773 -17.59961,30.48438 30.48437,17.59765 17.59766,-30.48242 z m 134.01953,0 -30.48242,17.59961 17.59961,30.48242 30.48242,-17.59765 z m 108.25391,0 -17.59961,30.48438 30.48243,17.59765 17.59765,-30.48242 z m 134.019533,0 -30.48438,17.59961 17.59961,30.48242 30.482416,-17.59765 z m 108.251946,0 -17.59961,30.48438 30.48242,17.59765 17.59961,-30.48242 z m 134.019531,0 -30.48242,17.59961 17.59961,30.48242 30.48047,-17.59765 z m 108.25195,0 -17.59961,30.48438 30.48438,17.59765 17.59765,-30.48242 z m 134.0195,0 -30.48239,17.59961 17.59959,30.48242 30.4824,-17.59765 z m -914.9609,5.07227 -11.74414,20.33984 h 23.48632 z m 242.27149,0 -11.74415,20.33984 h 23.48634 z m 242.271479,0 -11.74219,20.33984 h 23.48633 z m 242.273431,0 -11.74414,20.33984 h 23.48633 z m 242.2695,0 -11.7422,20.33984 h 23.4864 z m -859.69528,17.59961 11.74414,20.33984 11.74219,-20.33984 z m 242.27345,0 11.74219,20.33984 11.74414,-20.33984 z m 242.27147,0 11.74414,20.33984 11.74219,-20.33984 z m 242.27344,0 11.74414,20.33984 11.74219,-20.33984 z m -740.67383,8 -11.74218,20.33984 h 23.48632 z m 51.19922,0 -11.74414,20.33984 h 23.48633 z m 191.07423,0 -11.74414,20.33984 h 23.48633 z m 51.197263,0 -11.742183,20.33984 h 23.486323 z m 191.074216,0 -11.74219,20.33984 h 23.486331 z m 51.197261,0 -11.74219,20.33984 h 23.48633 z m 191.07422,0 -11.74219,20.33984 h 23.48633 z m 51.19922,0 -11.74219,20.33984 h 23.48633 z m -891.15039,10.74023 v 43.19727 27.22851 h 35.19726 V 623.3166 580.11933 Z m 242.27148,0 v 43.14453 a 8.0008,8.0008 0 0 1 0,0.0527 8.0008,8.0008 0 0 1 0,0.0527 8.0008,8.0008 0 0 1 0,0.0527 v 27.12305 h 35.19923 v -27.17773 a 8.0008,8.0008 0 0 1 0,-0.0508 v -0.0508 a 8.0008,8.0008 0 0 1 0,-0.0527 v -43.09375 z m 242.273439,0 v 43.19727 27.22851 h 35.19727 V 623.3166 580.11933 Z m 242.271481,0 v 43.19727 27.22851 h 35.19727 v -27.22851 -0.10352 -43.09375 z m 242.27151,0 v 43.19727 a 8.0008,8.0008 0 0 1 0,0.10546 v 27.12305 h 35.1972 V 623.3166 580.11933 Z m -985.08791,5.85547 -14.71094,8.49414 -3.83203,4.28516 18.54297,10.70703 z m 67.19726,0 v 23.48633 l 20.33985,-11.74414 z m 175.07422,0 -20.33984,11.74219 20.33984,11.74414 z m 67.19923,0 v 23.48633 l 20.33789,-11.74414 z m 175.074209,0 -20.339836,11.74219 20.339836,11.74414 z m 67.19727,0 v 23.48633 l 20.33789,-11.74414 z m 175.074211,0 -20.33984,11.74219 20.33984,11.74414 z m 67.19727,0 v 23.48633 l 20.33984,-11.74414 z m 175.07424,0 -20.3379,11.74219 20.3379,11.74414 z m 67.1972,0 v 23.48633 l 17.0704,-9.85743 -6.9805,-7.80468 z m -924.748,19.74414 v 35.19726 h 43.19726 a 8.0008,8.0008 0 0 1 0.10352,0 h 43.09375 v -35.19726 h -43.19727 z m 242.27149,0 v 35.19726 h 43.19727 a 8.0008,8.0008 0 0 1 0.10547,0 h 43.093743 V 605.71894 H -120.019 Z m 242.271479,0 v 35.19726 h 43.199211 0.10352 43.09375 v -35.19726 h -43.19727 z m 242.273431,0 v 35.19726 h 43.19727 a 8.0008,8.0008 0 0 1 0.10547,0 h 43.09375 v -35.19726 h -43.19922 z m -866.6914,5.85547 v 23.48633 l 20.33789,-11.74219 z m 123.875,0 -20.33985,11.74414 20.33985,11.74219 z m 118.39453,0 v 23.48633 l 20.33984,-11.74219 z m 123.87696,0 -20.33789,11.74414 20.33789,11.74219 z m 118.396483,0 v 23.48633 l 20.339836,-11.74219 z m 123.874996,0 -20.33789,11.74414 20.33789,11.74219 z m 118.396481,0 v 23.48633 l 20.33789,-11.74219 z m 123.87695,0 -20.33984,11.74414 20.33984,11.74219 z m 118.3965,0 v 23.48633 l 20.3379,-11.74219 z m 123.5039,0.21484 -19.9688,11.5293 20.3399,11.74219 v -22.85743 z m -1108.5918,15.80274 -20.5293,22.95312 h 20.69727 a 8.0008,8.0008 0 0 1 -0.006,-0.0273 8.0008,8.0008 0 0 1 -0.0352,-0.18164 8.0008,8.0008 0 0 0 0,-0.002 8.0008,8.0008 0 0 1 -0.0312,-0.18359 8.0008,8.0008 0 0 1 -0.01,-0.0684 8.0008,8.0008 0 0 1 -0.0195,-0.14844 8.0008,8.0008 0 0 1 -0.0137,-0.0957 8.0008,8.0008 0 0 1 -0.006,-0.0684 8.0008,8.0008 0 0 1 -0.0195,-0.19336 8.0008,8.0008 0 0 0 0,-0.002 8.0008,8.0008 0 0 1 -0.0156,-0.23438 8.0008,8.0008 0 0 1 -0.01,-0.23828 8.0008,8.0008 0 0 1 -0.002,-0.18555 v -0.0527 z m 1124.9629,2.5 v 18.82421 a 8.0008,8.0008 0 0 1 0,0.0527 8.0008,8.0008 0 0 1 -0.006,0.20312 8.0008,8.0008 0 0 1 0,0.0352 8.0008,8.0008 0 0 1 -0.002,0.0508 8.0008,8.0008 0 0 1 -0.01,0.18555 8.0008,8.0008 0 0 1 -0.004,0.0527 8.0008,8.0008 0 0 1 -0.0156,0.18555 8.0008,8.0008 0 0 1 -0.0254,0.23633 8.0008,8.0008 0 0 1 -0.0293,0.21094 8.0008,8.0008 0 0 1 -0.004,0.0234 8.0008,8.0008 0 0 1 -0.008,0.0508 8.0008,8.0008 0 0 1 -0.0332,0.1836 8.0008,8.0008 0 0 1 -0.01,0.0508 8.0008,8.0008 0 0 1 -0.0215,0.10742 h 18.461 z m -1080.62501,7.08203 -20.33789,11.74218 2.82031,1.62891 h 17.51758 z m 67.19726,0 v 13.37109 h 17.51953 l 2.82032,-1.62891 z m 175.07422,0 -20.33984,11.74218 2.82031,1.62891 h 17.51953 z m 67.19923,0 v 13.37109 h 17.51758 l 2.82031,-1.62891 z m 175.074209,0 -20.339836,11.74218 2.82031,1.62891 h 17.519526 z m 67.19727,0 v 13.37109 h 17.51757 l 2.82032,-1.62891 z m 175.074211,0 -20.33984,11.74218 2.82031,1.62891 h 17.51953 z m 67.19727,0 v 13.37109 h 17.51953 l 2.82031,-1.62891 z m 175.07424,0 -20.3379,11.74218 2.8203,1.62891 h 17.5176 z m 67.1972,0 v 13.37109 h 17.5196 l 2.8203,-1.62891 z"
     style="fill:#ffff00;stroke:#000000;stroke-width:1px;stroke-linecap:butt;stroke-linejoin:miter;stroke-opacity:1"
     id="path22680" />
</svg>
