<?xml version="1.0" encoding="UTF-8" standalone="no"?>
<svg
   xmlns:dc="http://purl.org/dc/elements/1.1/"
   xmlns:cc="http://creativecommons.org/ns#"
   xmlns:rdf="http://www.w3.org/1999/02/22-rdf-syntax-ns#"
   xmlns:svg="http://www.w3.org/2000/svg"
   xmlns="http://www.w3.org/2000/svg"
   xmlns:sodipodi="http://sodipodi.sourceforge.net/DTD/sodipodi-0.dtd"
   xmlns:inkscape="http://www.inkscape.org/namespaces/inkscape"
   viewBox="-912.454354693912 0 1824.908709387824 556.9651266840834"
   data-reactroot=""
   version="1.1"
   id="svg947"
   sodipodi:docname="triakisoctahedron__3-uniform_54.svg"
   inkscape:version="1.0beta1 (32d4812, 2019-09-19)">
  <style
     id="style1516"></style>
  <metadata
     id="metadata953">
    <rdf:RDF>
      <cc:Work
         rdf:about="">
        <dc:format>image/svg+xml</dc:format>
        <dc:type
           rdf:resource="http://purl.org/dc/dcmitype/StillImage" />
        <dc:title />
      </cc:Work>
    </rdf:RDF>
  </metadata>
  <defs
     id="defs951">
    <inkscape:perspective
       sodipodi:type="inkscape:persp3d"
       inkscape:vp_x="0 : 278.48256 : 1"
       inkscape:vp_y="0 : 1000 : 0"
       inkscape:vp_z="1824.9087 : 278.48256 : 1"
       inkscape:persp3d-origin="912.45435 : 185.65504 : 1"
       id="perspective1552" />
  </defs>
  <sodipodi:namedview
     pagecolor="#ffffff"
     bordercolor="#666666"
     inkscape:document-rotation="0"
     borderopacity="1"
     objecttolerance="10"
     gridtolerance="10"
     guidetolerance="10"
     inkscape:pageopacity="0"
     inkscape:pageshadow="2"
     inkscape:window-width="1600"
     inkscape:window-height="907"
     id="namedview949"
     showgrid="true"
     inkscape:snap-global="true"
     inkscape:snap-center="true"
     inkscape:zoom="0.35"
     inkscape:cx="400"
     inkscape:cy="560"
     inkscape:window-x="0"
     inkscape:window-y="23"
     inkscape:window-maximized="0"
     inkscape:current-layer="svg947"
     showguides="true"
     inkscape:guide-bbox="true"
     inkscape:snap-grids="false">
    <inkscape:grid
       type="xygrid"
       id="grid1554" />
    <sodipodi:guide
       position="912.45434,556.96514"
       orientation="1,0"
       id="guide1556" />
  </sodipodi:namedview>
  <path
     id="path945"
     d="M 7.3e-4,0 -7.97388,4.8671875 H 7.97534 Z m -27.25,33.996094 v 54.501953 l 54.49804,-0.002 0.002,-54.5 z m 83.6289,10.660156 v 33.177734 l 28.73243,-16.58789 z m -112.75976,0.002 -28.73242,16.587891 28.73242,16.589844 z m -43.29688,41.8125 0.002,33.17774 28.73242,-16.58789 z m -29.12695,0.002 -28.73242,16.58789 28.73242,16.58789 z m 228.47851,0 -28.73046,16.58789 28.73246,16.58789 z m 29.1309,0 v 33.17578 l 28.7324,-16.58789 z m -156.05668,31.15225 0.002,54.50195 54.50195,-0.002 -0.004,-54.5 z m -154.08398,5.33008 -27.25,47.20117 47.19922,27.25 27.25,-47.19922 z m 362.66996,0.002 -47.1993,27.25 27.25,47.19922 47.1993,-27.25195 z m -237.71293,5.33008 -28.73242,16.58789 28.73047,16.58789 z m 112.75781,0 v 33.17773 L 85.11206,144.875 Z m -165.28906,36.48437 -27.25,47.19922 47.19727,27.25 27.25195,-47.19922 z m 217.81838,0 -47.19924,27.25 27.25004,47.19922 47.2011,-27.25 z m -406.4551,25.2793 v 54.5 h 54.5 v -54.5 z m 540.5918,0 v 54.50195 l 54.5,-0.002 v -54.5 z m -456.96094,10.66016 v 33.17968 l 28.73242,-16.58984 z m 540.58794,0 v 33.17773 l 28.7324,-16.58789 z m -653.3477,0.002 -28.73242,16.58789 28.73242,16.58984 z m 540.5898,0 -28.7304,16.58984 28.7324,16.58789 z m -230.50387,0.54102 16.58985,28.73242 16.58789,-28.73047 z m -25.22656,14.56445 -16.58789,28.73437 33.17774,-0.002 z m 83.63086,0.002 -16.58789,28.73047 h 33.17578 z m 128.80277,26.70508 v 33.17773 l 28.7324,-16.58789 z m -540.58988,0.002 0.002,33.17774 28.73437,-16.58789 z m 228.48242,0 v 33.17578 l 28.73047,-16.58789 z m 282.98046,0 -28.7324,16.58789 28.7324,16.58789 z m 228.4785,0 -28.7304,16.58789 28.7324,16.58985 z m -540.58982,0.002 -28.73242,16.58593 28.73438,16.58789 z m -228.47851,1.08203 -27.01953,16.49219 27.01953,15.60156 z m 798.19923,0 v 32.09375 l 27.0215,-15.60156 z m -696.6465,30.06836 0.002,54.50195 54.5,-0.002 -0.002,-54.49805 z m 239.14063,0 16.58984,28.73242 16.58985,-28.73242 z m 83.63086,0 16.58984,28.73437 16.58789,-28.73437 z m 217.81831,0 v 54.50195 h 54.502 v -54.50195 z m -694.67378,5.33008 -27.25,47.20117 47.19922,27.25 27.25195,-47.19922 z m 362.66992,0.002 -47.19922,27.25 27.25,47.19922 47.19922,-27.25196 z m 177.92186,0 -27.25194,47.19922 47.19924,27.25 27.25,-47.19922 z m 362.6699,0 -47.2011,27.25 27.2519,47.19922 47.1992,-27.25 z m -778.30465,5.33008 -28.73242,16.58984 28.73047,16.58789 z m 112.75586,0 0.002,33.17773 28.73242,-16.58984 z m 427.83399,0 -28.7324,16.58789 28.7324,16.58984 z m 112.7578,0 v 33.17968 l 28.7343,-16.58984 z m -326.67382,3.90234 -16.58985,28.73242 33.17969,0.002 z m 379.20512,32.58008 -47.1993,27.25195 27.2481,47.19922 47.2012,-27.25 z m -758.4102,0.002 -27.25,47.19922 47.19922,27.25 27.25,-47.19922 z m 540.5898,0 -27.25,47.19922 47.1993,27.25195 27.2519,-47.20117 z m -322.77144,0.002 -47.19922,27.24805 27.25195,47.20117 47.19922,-27.25195 z m -405.625,25.27735 -0.83008,0.50586 0.002,53.99609 h 54.49805 v -54.50195 z m 539.76172,0 v 54.50195 l 54.49804,-0.002 0.002,-54.5 z m 540.58982,0 v 54.5 h 54.502 v -53.99414 l -0.8301,-0.50586 z m -997.55271,10.66015 v 33.17969 l 28.73437,-16.58984 z m 427.83203,0.002 -28.73047,16.58984 28.73047,16.58789 z m 112.75976,0 v 33.17578 L 85.11206,373.3559 Z m 427.83402,0 -28.7364,16.58984 28.7325,16.58789 z m -771.09769,0.54297 16.58789,28.73242 16.58985,-28.73242 z m 540.59179,0 16.5879,28.73047 16.5879,-28.73047 z m -850.67577,7.08007 -21.51563,13.13477 21.51368,12.41992 z m 1193.93557,0 v 25.55469 l 21.5156,-12.42187 z m -909.07815,7.48438 -16.58789,28.73242 33.17773,-0.002 z m 83.63086,0 -16.58984,28.73242 33.17773,-0.002 z m 456.96089,0 -16.5878,28.73242 h 33.1777 z m 83.629,0 -16.5879,28.73047 h 33.1757 z m -723.89653,26.70508 0.002,33.17773 28.73242,-16.58789 z m 852.69923,0 v 33.17969 l 28.7344,-16.58985 z m -1081.17775,0.002 -0.002,33.17774 28.73438,-16.58985 z m 511.46094,0 -28.73242,16.58789 28.73242,16.58985 z m 29.12695,0 0.002,33.17774 28.73242,-16.58789 z m 228.48246,0 v 33.17774 l 28.7344,-16.58985 z m 282.9804,0 -28.7324,16.58789 28.7324,16.58985 z m 228.4805,0 -28.7324,16.58789 28.7305,16.58789 z m -1081.17968,0.002 -28.73438,16.58594 28.73438,16.58789 z m 540.58788,0 -28.73046,16.58594 28.73246,16.58985 z m 569.7188,10.01563 v 23.1582 l 19.498,-11.25586 z m -1338.78911,0.002 -19.49609,11.90039 19.49805,11.25782 z m 340.69727,21.13086 16.58789,28.73438 16.58984,-28.73242 z m -239.14258,0.002 v 54.50195 l 54.50195,-0.002 -0.002,-54.49805 z m 322.77149,0 16.58984,28.73437 16.58789,-28.73242 z m 217.81835,0 v 54.50195 l 54.50196,-0.002 -0.002,-54.49805 z m 239.14258,0 16.5879,28.73242 16.5898,-28.73242 z m 83.6309,0 16.5879,28.73437 16.5878,-28.73437 z m 217.8164,0 v 54.5 h 54.5019 v -54.5 z m -694.67386,5.33007 -27.25195,47.20117 47.20117,27.25 27.25,-47.19921 z m -177.91992,0.002 -47.19922,27.25129 27.25,47.19726 47.19922,-27.25195 z m 718.51168,0 -27.2519,47.19921 47.2012,27.25196 27.25,-47.20117 z m -177.9199,0.002 -47.2012,27.24805 27.25,47.19921 47.1993,-27.25 z m -898.54686,2.71875 -9.70312,5.92383 -22.25977,38.55664 47.19727,27.25 27.25195,-47.20117 z m 1434.42186,0 -42.4863,24.5293 27.248,47.19921 47.1993,-27.25195 -22.2579,-38.55273 z m -1314.17967,2.60937 -28.73438,16.5879 28.73243,16.58984 z m 112.75586,0 v 33.17969 l 28.73437,-16.59179 z m 427.83398,0 -28.73242,16.58985 28.73242,16.58789 z m 112.75781,0 v 33.17774 l 28.73243,-16.58789 z m 427.83012,0 -28.7305,16.5879 28.7305,16.58789 z m 112.7597,0 v 33.17774 l 28.7305,-16.58984 z m -867.26364,3.90235 -16.58985,28.73242 h 33.17774 z m 540.58984,0 -16.5898,28.73242 h 33.1796 z m 379.2051,32.58008 -47.2012,27.25 27.25,47.20117 47.1992,-27.25 z m -1299.00002,0.002 -27.25196,47.19922 47.20118,27.25195 27.25,-47.20117 z m 540.58984,0 -27.25,47.19922 47.19922,27.25195 27.25195,-47.20117 z m 540.58988,0 -27.25,47.19922 47.1972,27.25 27.252,-47.19922 z m -863.36136,0.002 -47.19922,27.25 27.25,47.19727 47.20117,-27.25 z m 540.58986,0 -47.19728,27.24805 27.24808,47.19922 47.2011,-27.25 z m -892.54299,25.27735 -39.03906,0.002 -15.46289,9.43945 v 45.06055 h 54.50195 z m 486.08789,0 0.002,54.50195 h 54.49804 l 0.002,-54.50195 z m 540.5918,0 v 54.50195 l 54.5,-0.002 v -54.5 z m 540.5898,0 v 54.50195 l 54.4981,-0.002 v -45.06055 l -15.4649,-9.43945 z m -997.55074,10.66015 v 33.17774 l 28.73242,-16.58789 z m 427.83204,0 -28.7324,16.5918 L 213.91675,546 Z m -540.5918,0.002 -28.73242,16.58984 L -326.67505,546 Z m 653.3496,0 v 33.17578 l 28.7324,-16.58789 z m 427.8301,0 -28.7344,16.58789 L 754.50465,546 Z m -1509.00978,0.002 -0.002,33.17383 28.73437,-16.58594 z m 230.50586,0.53906 -33.17969,0.002 16.58984,28.73243 z m 1048.00002,0 16.5898,28.73242 16.5879,-28.73242 z m -540.58987,0.002 16.58789,28.73243 16.58985,-28.73243 z m 515.36327,14.5625 -16.5879,28.73438 33.1778,-0.002 z m -1081.17772,0.002 -16.58984,28.73242 33.17773,-0.002 z m 83.62891,0 -16.58985,28.73242 33.17774,-0.002 z m 456.95898,0 -16.58789,28.73242 h 33.17969 z m 83.63086,0 -16.58789,28.73047 33.17578,0.002 z m 540.58987,0 -16.5879,28.73047 h 33.1758 z m -1449.66995,1.45018 -13.99218,8.54102 L -867.2649,546 Z m 1734.52735,0 v 16.61719 l 13.9902,-8.07813 z m -1578.47266,25.25391 -4.03516,2.33007 h 4.03516 z m 1422.41796,0 v 2.33007 h 4.0352 z m -1393.28905,0.002 v 2.32812 h 4.03125 z m 282.98047,0 -4.03321,2.32812 h 4.03321 z m 29.1289,0 v 2.32812 h 4.0332 z m 228.48242,0 v 2.32812 h 4.03321 z m 282.98046,0 -4.0312,2.32812 h 4.0312 z m 29.127,0 v 2.32812 h 4.0332 z m 199.3535,0 -4.0332,2.32812 h 4.0332 z m 29.1289,0 v 2.32812 h 4.0332 z m 282.9805,0 -4.0332,2.32812 h 4.0332 z m -852.70122,0.002 -4.02929,2.32617 h 4.02929 z m -738.95312,0.56836 -0.98633,0.60156 v 1.15625 h 4.0332 z m 1819.15434,0.004 -3.0391,1.7539 h 5.9121 z"
     inkscape:connector-curvature="0"
     sodipodi:nodetypes="ccccccccccccccccccccccccccccccccccccccccccccccccccccccccccccccccccccccccccccccccccccccccccccccccccccccccccccccccccccccccccccccccccccccccccccccccccccccccccccccccccccccccccccccccccccccccccccccccccccccccccccccccccccccccccccccccccccccccccccccccccccccccccccccccccccccccccccccccccccccccccccccccccccccccccccccccccccccccccccccccccccccccccccccccccccccccccccccccccccccccccccccccccccccccccccccccccccccccccccccccccccccccccccccccccccccccccccccccccccccccccccccccccccccccccccccccccccccccccccccccccccccccccccccccccccccccccccccccccccccccccccccccccccccccccccccccccccccccccccccccccccccccccccccccccccccccccccccccccccccc"
     style="opacity:1;stop-opacity:1" />
  <style
     id="style5274" />
</svg>
