<?xml version="1.0" encoding="UTF-8" standalone="no"?>
<svg
   xmlns:dc="http://purl.org/dc/elements/1.1/"
   xmlns:cc="http://creativecommons.org/ns#"
   xmlns:rdf="http://www.w3.org/1999/02/22-rdf-syntax-ns#"
   xmlns:svg="http://www.w3.org/2000/svg"
   xmlns="http://www.w3.org/2000/svg"
   xmlns:sodipodi="http://sodipodi.sourceforge.net/DTD/sodipodi-0.dtd"
   xmlns:inkscape="http://www.inkscape.org/namespaces/inkscape"
   version="1.0"
   width="991.22595"
   height="1000.0"
   id="C:\1-uniform_6.svg"
   sodipodi:docname="1-uniform_n6.svg"
   inkscape:version="1.0beta1 (32d4812, 2019-09-19)">
  <style
     id="style28955"></style>
  <metadata
     id="metadata28374">
    <rdf:RDF>
      <cc:Work
         rdf:about="">
        <dc:format>image/svg+xml</dc:format>
        <dc:type
           rdf:resource="http://purl.org/dc/dcmitype/StillImage" />
        <dc:title></dc:title>
      </cc:Work>
    </rdf:RDF>
  </metadata>
  <defs
     id="defs28372" />
  <sodipodi:namedview
     pagecolor="#ffffff"
     bordercolor="#666666"
     inkscape:document-rotation="0"
     borderopacity="1"
     objecttolerance="10"
     gridtolerance="10"
     guidetolerance="10"
     inkscape:pageopacity="0"
     inkscape:pageshadow="2"
     inkscape:window-width="1600"
     inkscape:window-height="907"
     id="namedview28370"
     showgrid="false"
     inkscape:zoom="0.77148547"
     inkscape:cx="452.38991"
     inkscape:cy="527.85538"
     inkscape:window-x="0"
     inkscape:window-y="23"
     inkscape:window-maximized="0"
     inkscape:current-layer="C:\1-uniform_6.svg" />
  <!-- X Coordinate transform: fx(x)=(x+96.90698)*0.8132709-->
  <!-- Y Coordinate transform: fy(y)=(1127.3013-y)*0.8132709 -->
  <!-- Flac geometry view -->
  <path
     id="path843"
     d="M 100.60352 57.785156 A 8.0008 8.0008 0 0 0 93.673828 61.785156 L 77.34375 90.074219 L 49.056641 73.742188 A 8.0008 8.0008 0 0 0 37.056641 80.669922 L 37.056641 121.33398 A 8.0008 8.0008 0 0 0 49.056641 128.26172 L 77.34375 111.92969 L 89.673828 133.28906 L 61.386719 149.62109 A 8.0008 8.0008 0 0 0 61.386719 163.47656 L 89.673828 179.80859 L 77.34375 201.16797 L 49.056641 184.83594 A 8.0008 8.0008 0 0 0 37.056641 191.76562 L 37.056641 232.42969 A 8.0008 8.0008 0 0 0 49.056641 239.35742 L 77.34375 223.02539 L 89.673828 244.38477 L 61.386719 260.71484 A 8.0008 8.0008 0 0 0 61.386719 274.57227 L 89.673828 290.9043 L 77.34375 312.26367 L 49.056641 295.93164 A 8.0008 8.0008 0 0 0 37.056641 302.85938 L 37.056641 343.52344 A 8.0008 8.0008 0 0 0 49.056641 350.45312 L 77.34375 334.12109 L 89.675781 355.47852 L 61.386719 371.81055 A 8.0008 8.0008 0 0 0 61.386719 385.66797 L 89.673828 402 L 77.34375 423.35938 L 49.056641 407.02734 A 8.0008 8.0008 0 0 0 37.056641 413.95508 L 37.056641 454.61719 A 8.0008 8.0008 0 0 0 49.056641 461.54688 L 77.34375 445.21484 L 89.675781 466.57422 L 61.386719 482.90625 A 8.0008 8.0008 0 0 0 61.386719 496.76172 L 89.673828 513.09375 L 77.34375 534.45312 L 49.056641 518.12109 A 8.0008 8.0008 0 0 0 37.056641 525.05078 L 37.056641 565.71289 A 8.0008 8.0008 0 0 0 49.056641 572.64062 L 77.34375 556.31055 L 89.675781 577.66797 L 61.386719 594 A 8.0008 8.0008 0 0 0 61.386719 607.85742 L 89.675781 624.18945 L 77.34375 645.54688 L 49.056641 629.2168 A 8.0008 8.0008 0 0 0 37.056641 636.14453 L 37.056641 676.80859 A 8.0008 8.0008 0 0 0 49.056641 683.73633 L 77.34375 667.4043 L 89.673828 688.76367 L 61.386719 705.0957 A 8.0008 8.0008 0 0 0 61.386719 718.95312 L 89.675781 735.28516 L 77.34375 756.64258 L 49.056641 740.3125 A 8.0008 8.0008 0 0 0 37.056641 747.24023 L 37.056641 787.90234 A 8.0008 8.0008 0 0 0 49.056641 794.83203 L 77.34375 778.5 L 89.673828 799.85938 L 61.386719 816.19141 A 8.0008 8.0008 0 0 0 61.386719 830.04688 L 89.675781 846.37891 L 77.34375 867.73828 L 49.056641 851.40625 A 8.0008 8.0008 0 0 0 37.056641 858.33398 L 37.056641 898.99805 A 8.0008 8.0008 0 0 0 49.056641 905.92578 L 77.34375 889.59375 L 89.673828 910.95312 L 61.386719 927.28516 A 8.0008 8.0008 0 0 0 61.386719 941.14258 L 96.603516 961.47266 A 8.0008 8.0008 0 0 0 108.60352 954.54492 L 108.60352 921.88281 L 133.26758 921.88281 L 133.26758 954.54492 A 8.0008 8.0008 0 0 0 145.26758 961.47266 L 180.48242 941.14258 A 8.0008 8.0008 0 0 0 180.48242 927.28516 L 152.19531 910.95312 L 164.52539 889.59375 L 192.81445 905.92578 A 8.0008 8.0008 0 0 0 204.81445 898.99805 L 204.81445 866.33398 L 229.47852 866.33398 L 229.47852 898.99805 A 8.0008 8.0008 0 0 0 241.47852 905.92578 L 269.76562 889.59375 L 282.09766 910.95312 L 253.80859 927.28516 A 8.0008 8.0008 0 0 0 253.80859 941.14258 L 289.02539 961.47266 A 8.0008 8.0008 0 0 0 301.02539 954.54492 L 301.02539 921.88281 L 325.68945 921.88281 L 325.68945 954.54492 A 8.0008 8.0008 0 0 0 337.68945 961.47266 L 372.9043 941.14258 A 8.0008 8.0008 0 0 0 372.9043 927.28516 L 344.61719 910.95312 L 356.94922 889.59375 L 385.23633 905.92578 A 8.0008 8.0008 0 0 0 397.23633 898.99805 L 397.23633 866.33398 L 421.90039 866.33398 L 421.90039 898.99805 A 8.0008 8.0008 0 0 0 433.90039 905.92578 L 462.1875 889.59375 L 474.51953 910.95312 L 446.23047 927.28516 A 8.0008 8.0008 0 0 0 446.23047 941.14258 L 481.44727 961.47266 A 8.0008 8.0008 0 0 0 493.44727 954.54492 L 493.44727 921.88281 L 518.11133 921.88281 L 518.11133 954.54492 A 8.0008 8.0008 0 0 0 530.11133 961.47266 L 565.32617 941.14258 A 8.0008 8.0008 0 0 0 565.32617 927.28516 L 537.03906 910.95312 L 549.37109 889.59375 L 577.6582 905.92578 A 8.0008 8.0008 0 0 0 589.6582 898.99805 L 589.6582 866.33398 L 614.32227 866.33398 L 614.32227 898.99805 A 8.0008 8.0008 0 0 0 626.32227 905.92578 L 654.60938 889.59375 L 666.94141 910.95312 L 638.65234 927.28516 A 8.0008 8.0008 0 0 0 638.65234 941.14258 L 673.86914 961.47266 A 8.0008 8.0008 0 0 0 685.86914 954.54492 L 685.86914 921.88281 L 710.5332 921.88281 L 710.5332 954.54492 A 8.0008 8.0008 0 0 0 722.5332 961.47266 L 757.74805 941.14258 A 8.0008 8.0008 0 0 0 757.74805 927.28516 L 729.46094 910.95312 L 741.79297 889.59375 L 770.08008 905.92578 A 8.0008 8.0008 0 0 0 782.08008 898.99805 L 782.08008 866.33398 L 806.74414 866.33398 L 806.74414 898.99805 A 8.0008 8.0008 0 0 0 818.74414 905.92578 L 847.03125 889.59375 L 859.36328 910.95312 L 831.07422 927.28516 A 8.0008 8.0008 0 0 0 831.07422 941.14258 L 866.29102 961.47266 A 8.0008 8.0008 0 0 0 878.29102 954.54492 L 878.29102 921.88281 L 902.95508 921.88281 L 902.95508 954.54492 A 8.0008 8.0008 0 0 0 914.95508 961.47266 L 950.16992 941.14258 A 8.0008 8.0008 0 0 0 950.16992 927.28516 L 921.88281 910.95312 L 938.21484 882.66602 A 8.0008 8.0008 0 0 0 938.21484 874.66602 L 921.88281 846.37891 L 950.16992 830.04688 A 8.0008 8.0008 0 0 0 950.16992 816.19141 L 921.88281 799.85938 L 938.21484 771.57031 A 8.0008 8.0008 0 0 0 938.21484 763.57031 L 921.88281 735.2832 L 950.16992 718.95312 A 8.0008 8.0008 0 0 0 950.16992 705.0957 L 921.88281 688.76367 L 938.21484 660.47656 A 8.0008 8.0008 0 0 0 938.21484 652.47656 L 921.88281 624.18945 L 950.16992 607.85742 A 8.0008 8.0008 0 0 0 950.16992 594 L 921.88281 577.66797 L 938.21484 549.38281 A 8.0008 8.0008 0 0 0 938.21484 541.38281 L 921.88281 513.09375 L 950.16992 496.76172 A 8.0008 8.0008 0 0 0 950.16992 482.90625 L 921.88281 466.57422 L 938.21484 438.28711 A 8.0008 8.0008 0 0 0 938.21484 430.28711 L 921.88281 402 L 950.16992 385.66797 A 8.0008 8.0008 0 0 0 950.16992 371.81055 L 921.88281 355.47852 L 938.21484 327.19141 A 8.0008 8.0008 0 0 0 938.21484 319.19141 L 921.88281 290.9043 L 950.16992 274.57227 A 8.0008 8.0008 0 0 0 950.16992 260.71484 L 921.88281 244.38477 L 938.21484 216.09766 A 8.0008 8.0008 0 0 0 938.21484 208.09766 L 921.88281 179.80859 L 950.16992 163.47656 A 8.0008 8.0008 0 0 0 950.16992 149.62109 L 921.88281 133.28906 L 938.21484 105.00195 A 8.0008 8.0008 0 0 0 938.21484 97.001953 L 917.88281 61.787109 A 8.0008 8.0008 0 0 0 910.95508 57.785156 L 870.29102 57.785156 A 8.0008 8.0008 0 0 0 863.36328 61.785156 L 847.03125 90.074219 L 818.74414 73.742188 A 8.0008 8.0008 0 0 0 806.74414 80.669922 L 806.74414 113.33398 L 782.08008 113.33398 L 782.08008 80.669922 A 8.0008 8.0008 0 0 0 770.08008 73.742188 L 741.79297 90.074219 L 725.46094 61.787109 A 8.0008 8.0008 0 0 0 718.5332 57.785156 L 677.86914 57.785156 A 8.0008 8.0008 0 0 0 670.94141 61.785156 L 654.60938 90.074219 L 626.32227 73.742188 A 8.0008 8.0008 0 0 0 614.32227 80.669922 L 614.32227 113.33398 L 589.6582 113.33398 L 589.6582 80.669922 A 8.0008 8.0008 0 0 0 577.6582 73.742188 L 549.37109 90.074219 L 533.03906 61.787109 A 8.0008 8.0008 0 0 0 526.11133 57.785156 L 485.44727 57.785156 A 8.0008 8.0008 0 0 0 478.51953 61.785156 L 462.1875 90.074219 L 433.90039 73.742188 A 8.0008 8.0008 0 0 0 421.90039 80.669922 L 421.90039 113.33398 L 397.23633 113.33398 L 397.23633 80.669922 A 8.0008 8.0008 0 0 0 385.23633 73.742188 L 356.94922 90.074219 L 340.61719 61.787109 A 8.0008 8.0008 0 0 0 333.68945 57.785156 L 293.02539 57.785156 A 8.0008 8.0008 0 0 0 286.09766 61.785156 L 269.76562 90.074219 L 241.47852 73.742188 A 8.0008 8.0008 0 0 0 229.47852 80.669922 L 229.47852 113.33398 L 204.81445 113.33398 L 204.81445 80.669922 A 8.0008 8.0008 0 0 0 192.81445 73.742188 L 164.52539 90.074219 L 148.19531 61.787109 A 8.0008 8.0008 0 0 0 141.26758 57.785156 L 100.60352 57.785156 z M 105.22266 73.785156 L 136.64844 73.785156 L 152.36133 101.00195 L 136.64844 128.21875 L 105.22266 128.21875 L 89.507812 101.00195 L 105.22266 73.785156 z M 297.64453 73.785156 L 329.07031 73.785156 L 344.7832 101.00195 L 329.07031 128.21875 L 297.64453 128.21875 L 281.92969 101.00195 L 297.64453 73.785156 z M 490.06641 73.785156 L 521.49219 73.785156 L 537.20508 101.00195 L 521.49219 128.21875 L 490.06641 128.21875 L 474.35352 101.00195 L 490.06641 73.785156 z M 682.48828 73.785156 L 713.91406 73.785156 L 729.62695 101.00195 L 713.91406 128.21875 L 682.48828 128.21875 L 666.77539 101.00195 L 682.48828 73.785156 z M 874.91016 73.785156 L 906.33594 73.785156 L 922.04883 101.00195 L 906.33594 128.21875 L 874.91016 128.21875 L 859.19727 101.00195 L 874.91016 73.785156 z M 53.056641 94.525391 L 64.273438 101.00195 L 53.056641 107.47852 L 53.056641 94.525391 z M 188.81445 94.525391 L 188.81445 107.47852 L 177.59766 101.00195 L 188.81445 94.525391 z M 245.47852 94.525391 L 256.69531 101.00195 L 245.47852 107.47852 L 245.47852 94.525391 z M 381.23633 94.525391 L 381.23633 107.47852 L 370.01953 101.00195 L 381.23633 94.525391 z M 437.90039 94.525391 L 449.11719 101.00195 L 437.90039 107.47852 L 437.90039 94.525391 z M 573.6582 94.525391 L 573.6582 107.47852 L 562.44141 101.00195 L 573.6582 94.525391 z M 630.32227 94.525391 L 641.53906 101.00195 L 630.32227 107.47852 L 630.32227 94.525391 z M 766.08008 94.525391 L 766.08008 107.47852 L 754.86328 101.00195 L 766.08008 94.525391 z M 822.74414 94.525391 L 833.96094 101.00195 L 822.74414 107.47852 L 822.74414 94.525391 z M 164.52539 111.92969 L 185.88672 124.26172 L 173.55469 145.62109 L 152.19531 133.28906 L 164.52539 111.92969 z M 269.76562 111.92969 L 282.09766 133.28906 L 260.73633 145.62109 L 248.40625 124.26172 L 269.76562 111.92969 z M 356.94922 111.92969 L 378.30859 124.26172 L 365.97656 145.62109 L 344.61719 133.28906 L 356.94922 111.92969 z M 462.1875 111.92969 L 474.51953 133.28906 L 453.16016 145.62109 L 440.82812 124.26172 L 462.1875 111.92969 z M 549.37109 111.92969 L 570.73047 124.26172 L 558.39844 145.62109 L 537.03906 133.28906 L 549.37109 111.92969 z M 654.60938 111.92969 L 666.94141 133.28906 L 645.58203 145.62109 L 633.25 124.26172 L 654.60938 111.92969 z M 741.79297 111.92969 L 763.15234 124.26172 L 750.82031 145.62109 L 729.46094 133.28906 L 741.79297 111.92969 z M 847.03125 111.92969 L 859.36328 133.28906 L 838.00391 145.62109 L 825.67188 124.26172 L 847.03125 111.92969 z M 201.43164 129.33398 L 232.85938 129.33398 L 248.57227 156.54883 L 232.85938 183.76562 L 201.43359 183.76562 L 185.71875 156.54883 L 201.43164 129.33398 z M 393.85547 129.33398 L 425.28125 129.33398 L 440.99414 156.54883 L 425.28125 183.76562 L 393.85547 183.76562 L 378.14258 156.54883 L 393.85547 129.33398 z M 586.27734 129.33398 L 617.70312 129.33398 L 633.41602 156.54883 L 617.70312 183.76562 L 586.27734 183.76562 L 570.56445 156.54883 L 586.27734 129.33398 z M 778.69922 129.33398 L 810.125 129.33398 L 825.83789 156.54883 L 810.125 183.76562 L 778.69922 183.76562 L 762.98633 156.54883 L 778.69922 129.33398 z M 108.60352 144.21875 L 133.26758 144.21875 L 133.26758 168.88086 L 108.60352 168.88086 L 108.60352 144.21875 z M 301.02539 144.21875 L 325.68945 144.21875 L 325.68945 168.88086 L 301.02539 168.88086 L 301.02539 144.21875 z M 493.44727 144.21875 L 518.11133 144.21875 L 518.11133 168.88086 L 493.44727 168.88086 L 493.44727 144.21875 z M 685.86914 144.21875 L 710.5332 144.21875 L 710.5332 168.88086 L 685.86914 168.88086 L 685.86914 144.21875 z M 878.29102 144.21875 L 902.95508 144.21875 L 902.95508 168.88086 L 878.29102 168.88086 L 878.29102 144.21875 z M 92.603516 150.07422 L 92.603516 163.02539 L 81.386719 156.54883 L 92.603516 150.07422 z M 149.26758 150.07422 L 160.48242 156.54883 L 149.26758 163.02539 L 149.26758 150.07422 z M 285.02539 150.07422 L 285.02539 163.02539 L 273.80859 156.54883 L 285.02539 150.07422 z M 341.68945 150.07422 L 352.9043 156.54883 L 341.68945 163.02539 L 341.68945 150.07422 z M 477.44727 150.07422 L 477.44727 163.02539 L 466.23047 156.54883 L 477.44727 150.07422 z M 534.11133 150.07422 L 545.32617 156.54883 L 534.11133 163.02539 L 534.11133 150.07422 z M 669.86914 150.07422 L 669.86914 163.02539 L 658.65234 156.54883 L 669.86914 150.07422 z M 726.5332 150.07422 L 737.74805 156.54883 L 726.5332 163.02539 L 726.5332 150.07422 z M 862.29102 150.07422 L 862.29102 163.02539 L 851.07422 156.54883 L 862.29102 150.07422 z M 918.95508 150.07422 L 930.16992 156.54883 L 918.95508 163.02539 L 918.95508 150.07422 z M 173.55469 167.47656 L 185.88672 188.83594 L 164.52539 201.16797 L 152.19531 179.80859 L 173.55469 167.47656 z M 260.73633 167.47656 L 282.09766 179.80859 L 269.76562 201.16797 L 248.40625 188.83594 L 260.73633 167.47656 z M 365.97656 167.47656 L 378.30859 188.83594 L 356.94922 201.16797 L 344.61719 179.80859 L 365.97656 167.47656 z M 453.16016 167.47656 L 474.51953 179.80859 L 462.1875 201.16797 L 440.82812 188.83594 L 453.16016 167.47656 z M 558.39844 167.47656 L 570.73047 188.83594 L 549.37109 201.16797 L 537.03906 179.80859 L 558.39844 167.47656 z M 645.58203 167.47656 L 666.94141 179.80859 L 654.60938 201.16797 L 633.25 188.83594 L 645.58203 167.47656 z M 750.82031 167.47656 L 763.15234 188.83594 L 741.79297 201.16797 L 729.46094 179.80859 L 750.82031 167.47656 z M 838.00391 167.47656 L 859.36328 179.80859 L 847.03125 201.16797 L 825.67188 188.83594 L 838.00391 167.47656 z M 105.22266 184.88086 L 136.64844 184.88086 L 152.36133 212.09766 L 136.64844 239.3125 L 105.22266 239.3125 L 89.507812 212.09766 L 105.22266 184.88086 z M 297.64453 184.88086 L 329.07031 184.88086 L 344.7832 212.09766 L 329.07031 239.3125 L 297.64453 239.3125 L 281.92969 212.09766 L 297.64453 184.88086 z M 490.06641 184.88086 L 521.49219 184.88086 L 537.20508 212.09766 L 521.49219 239.3125 L 490.06641 239.3125 L 474.35352 212.09766 L 490.06641 184.88086 z M 682.48828 184.88086 L 713.91406 184.88086 L 729.62695 212.09766 L 713.91406 239.3125 L 682.48828 239.3125 L 666.77539 212.09766 L 682.48828 184.88086 z M 874.91016 184.88086 L 906.33594 184.88086 L 922.04883 212.09766 L 906.33594 239.3125 L 874.91016 239.3125 L 859.19727 212.09766 L 874.91016 184.88086 z M 204.81445 199.76562 L 229.47852 199.76562 L 229.47852 224.42969 L 204.81445 224.42969 L 204.81445 199.76562 z M 397.23633 199.76562 L 421.90039 199.76562 L 421.90039 224.42969 L 397.23633 224.42969 L 397.23633 199.76562 z M 589.6582 199.76562 L 614.32227 199.76562 L 614.32227 224.42969 L 589.6582 224.42969 L 589.6582 199.76562 z M 782.08008 199.76562 L 806.74414 199.76562 L 806.74414 224.42969 L 782.08008 224.42969 L 782.08008 199.76562 z M 53.056641 205.62109 L 64.271484 212.09766 L 53.056641 218.57227 L 53.056641 205.62109 z M 188.81445 205.62109 L 188.81445 218.57227 L 177.59961 212.09766 L 188.81445 205.62109 z M 245.47852 205.62109 L 256.69336 212.09766 L 245.47852 218.57227 L 245.47852 205.62109 z M 381.23633 205.62109 L 381.23633 218.57227 L 370.02148 212.09766 L 381.23633 205.62109 z M 437.90039 205.62109 L 449.11523 212.09766 L 437.90039 218.57227 L 437.90039 205.62109 z M 573.6582 205.62109 L 573.6582 218.57227 L 562.44336 212.09766 L 573.6582 205.62109 z M 630.32227 205.62109 L 641.53711 212.09766 L 630.32227 218.57227 L 630.32227 205.62109 z M 766.08008 205.62109 L 766.08008 218.57227 L 754.86523 212.09766 L 766.08008 205.62109 z M 822.74414 205.62109 L 833.95898 212.09766 L 822.74414 218.57227 L 822.74414 205.62109 z M 164.52539 223.02539 L 185.88672 235.35742 L 173.55469 256.71484 L 152.19531 244.38477 L 164.52539 223.02539 z M 269.76562 223.02539 L 282.09766 244.38477 L 260.73633 256.71484 L 248.40625 235.35742 L 269.76562 223.02539 z M 356.94922 223.02539 L 378.30859 235.35742 L 365.97656 256.71484 L 344.61719 244.38477 L 356.94922 223.02539 z M 462.1875 223.02539 L 474.51953 244.38477 L 453.16016 256.71484 L 440.82812 235.35742 L 462.1875 223.02539 z M 549.37109 223.02539 L 570.73047 235.35742 L 558.39844 256.71484 L 537.03906 244.38477 L 549.37109 223.02539 z M 654.60938 223.02539 L 666.94141 244.38477 L 645.58203 256.71484 L 633.25 235.35742 L 654.60938 223.02539 z M 741.79297 223.02539 L 763.15234 235.35742 L 750.82031 256.71484 L 729.46094 244.38477 L 741.79297 223.02539 z M 847.03125 223.02539 L 859.36328 244.38477 L 838.00391 256.71484 L 825.67188 235.35742 L 847.03125 223.02539 z M 201.43359 240.42969 L 232.85938 240.42969 L 248.57227 267.64453 L 232.85938 294.85938 L 201.43359 294.85938 L 185.71875 267.64453 L 201.43359 240.42969 z M 393.85547 240.42969 L 425.28125 240.42969 L 440.99414 267.64453 L 425.28125 294.85938 L 393.85547 294.85938 L 378.14258 267.64453 L 393.85547 240.42969 z M 586.27734 240.42969 L 617.70312 240.42969 L 633.41602 267.64453 L 617.70312 294.85938 L 586.27734 294.85938 L 570.56445 267.64453 L 586.27734 240.42969 z M 778.69922 240.42969 L 810.125 240.42969 L 825.83789 267.64453 L 810.125 294.85938 L 778.69922 294.85938 L 762.98633 267.64453 L 778.69922 240.42969 z M 108.60352 255.3125 L 133.26758 255.3125 L 133.26758 279.97656 L 108.60352 279.97656 L 108.60352 255.3125 z M 301.02539 255.3125 L 325.68945 255.3125 L 325.68945 279.97656 L 301.02539 279.97656 L 301.02539 255.3125 z M 493.44727 255.3125 L 518.11133 255.3125 L 518.11133 279.97656 L 493.44727 279.97656 L 493.44727 255.3125 z M 685.86914 255.3125 L 710.5332 255.3125 L 710.5332 279.97656 L 685.86914 279.97656 L 685.86914 255.3125 z M 878.29102 255.3125 L 902.95508 255.3125 L 902.95508 279.97656 L 878.29102 279.97656 L 878.29102 255.3125 z M 92.603516 261.16992 L 92.603516 274.11914 L 81.388672 267.64453 L 92.603516 261.16992 z M 149.26758 261.16992 L 160.48242 267.64453 L 149.26758 274.11914 L 149.26758 261.16992 z M 285.02539 261.16992 L 285.02539 274.11914 L 273.81055 267.64453 L 285.02539 261.16992 z M 341.68945 261.16992 L 352.9043 267.64453 L 341.68945 274.11914 L 341.68945 261.16992 z M 477.44727 261.16992 L 477.44727 274.11914 L 466.23242 267.64453 L 477.44727 261.16992 z M 534.11133 261.16992 L 545.32617 267.64453 L 534.11133 274.11914 L 534.11133 261.16992 z M 669.86914 261.16992 L 669.86914 274.11914 L 658.6543 267.64453 L 669.86914 261.16992 z M 726.5332 261.16992 L 737.74805 267.64453 L 726.5332 274.11914 L 726.5332 261.16992 z M 862.29102 261.16992 L 862.29102 274.11914 L 851.07617 267.64453 L 862.29102 261.16992 z M 918.95508 261.16992 L 930.16992 267.64453 L 918.95508 274.11914 L 918.95508 261.16992 z M 173.55469 278.57227 L 185.88672 299.93164 L 164.52539 312.26367 L 152.19531 290.9043 L 173.55469 278.57227 z M 260.73633 278.57227 L 282.09766 290.9043 L 269.76562 312.26367 L 248.40625 299.93164 L 260.73633 278.57227 z M 365.97656 278.57227 L 378.30859 299.93164 L 356.94922 312.26367 L 344.61719 290.9043 L 365.97656 278.57227 z M 453.16016 278.57227 L 474.51953 290.9043 L 462.1875 312.26367 L 440.82812 299.93164 L 453.16016 278.57227 z M 558.39844 278.57227 L 570.73047 299.93164 L 549.37109 312.26367 L 537.03906 290.9043 L 558.39844 278.57227 z M 645.58203 278.57227 L 666.94141 290.9043 L 654.60938 312.26367 L 633.25 299.93164 L 645.58203 278.57227 z M 750.82031 278.57227 L 763.15234 299.93164 L 741.79297 312.26367 L 729.46094 290.9043 L 750.82031 278.57227 z M 838.00391 278.57227 L 859.36328 290.9043 L 847.03125 312.26367 L 825.67188 299.93164 L 838.00391 278.57227 z M 105.22266 295.97656 L 136.64844 295.97656 L 152.36133 323.19141 L 136.64844 350.40625 L 105.22266 350.40625 L 89.509766 323.19141 L 105.22266 295.97656 z M 297.64258 295.97656 L 329.07031 295.97656 L 344.7832 323.19141 L 329.07031 350.40625 L 297.64453 350.40625 L 281.92969 323.19141 L 297.64258 295.97656 z M 490.06641 295.97656 L 521.49219 295.97656 L 537.20508 323.19141 L 521.49219 350.40625 L 490.06641 350.40625 L 474.35352 323.19141 L 490.06641 295.97656 z M 682.48828 295.97656 L 713.91406 295.97656 L 729.62695 323.19141 L 713.91406 350.40625 L 682.48828 350.40625 L 666.77539 323.19141 L 682.48828 295.97656 z M 874.91016 295.97656 L 906.33594 295.97656 L 922.04883 323.19141 L 906.33594 350.40625 L 874.91016 350.40625 L 859.19727 323.19141 L 874.91016 295.97656 z M 204.81445 310.85938 L 229.47852 310.85938 L 229.47852 335.52344 L 204.81445 335.52344 L 204.81445 310.85938 z M 397.23633 310.85938 L 421.90039 310.85938 L 421.90039 335.52344 L 397.23633 335.52344 L 397.23633 310.85938 z M 589.6582 310.85938 L 614.32227 310.85938 L 614.32227 335.52344 L 589.6582 335.52344 L 589.6582 310.85938 z M 782.08008 310.85938 L 806.74414 310.85938 L 806.74414 335.52344 L 782.08008 335.52344 L 782.08008 310.85938 z M 53.056641 316.7168 L 64.271484 323.19141 L 53.056641 329.66797 L 53.056641 316.7168 z M 188.81445 316.7168 L 188.81445 329.66797 L 177.59961 323.19141 L 188.81445 316.7168 z M 245.47852 316.7168 L 256.69336 323.19141 L 245.47852 329.66797 L 245.47852 316.7168 z M 381.23633 316.7168 L 381.23633 329.66797 L 370.02148 323.19141 L 381.23633 316.7168 z M 437.90039 316.7168 L 449.11523 323.19141 L 437.90039 329.66797 L 437.90039 316.7168 z M 573.6582 316.7168 L 573.6582 329.66797 L 562.44336 323.19141 L 573.6582 316.7168 z M 630.32227 316.7168 L 641.53711 323.19141 L 630.32227 329.66797 L 630.32227 316.7168 z M 766.08008 316.7168 L 766.08008 329.66797 L 754.86523 323.19141 L 766.08008 316.7168 z M 822.74414 316.7168 L 833.95898 323.19141 L 822.74414 329.66797 L 822.74414 316.7168 z M 164.52539 334.12109 L 185.88672 346.45312 L 173.55469 367.81055 L 152.19531 355.47852 L 164.52539 334.12109 z M 269.76562 334.12109 L 282.09766 355.47852 L 260.73633 367.81055 L 248.40625 346.45312 L 269.76562 334.12109 z M 356.94727 334.12109 L 378.30859 346.45312 L 365.97656 367.81055 L 344.61719 355.47852 L 356.94727 334.12109 z M 462.1875 334.12109 L 474.51953 355.47852 L 453.16016 367.81055 L 440.82812 346.45312 L 462.1875 334.12109 z M 549.36914 334.12109 L 570.73047 346.45312 L 558.39844 367.81055 L 537.03906 355.47852 L 549.36914 334.12109 z M 654.60938 334.12109 L 666.94141 355.47852 L 645.58203 367.81055 L 633.25 346.45312 L 654.60938 334.12109 z M 741.79102 334.12109 L 763.15234 346.45312 L 750.82031 367.81055 L 729.46094 355.47852 L 741.79102 334.12109 z M 847.03125 334.12109 L 859.36328 355.47852 L 838.00391 367.81055 L 825.67188 346.45312 L 847.03125 334.12109 z M 201.43359 351.52344 L 232.85938 351.52344 L 248.57227 378.73828 L 232.85938 405.95508 L 201.43359 405.95508 L 185.71875 378.73828 L 201.43359 351.52344 z M 393.85547 351.52344 L 425.28125 351.52344 L 440.99414 378.73828 L 425.28125 405.95508 L 393.85547 405.95508 L 378.14258 378.73828 L 393.85547 351.52344 z M 586.27734 351.52344 L 617.70312 351.52344 L 633.41602 378.73828 L 617.70312 405.95508 L 586.27734 405.95508 L 570.56445 378.73828 L 586.27734 351.52344 z M 778.69922 351.52344 L 810.125 351.52344 L 825.83789 378.73828 L 810.125 405.95508 L 778.69922 405.95508 L 762.98633 378.73828 L 778.69922 351.52344 z M 108.60352 366.40625 L 133.26758 366.40625 L 133.26758 391.07031 L 108.60352 391.07031 L 108.60352 366.40625 z M 301.02539 366.40625 L 325.68945 366.40625 L 325.68945 391.07031 L 301.02539 391.07031 L 301.02539 366.40625 z M 493.44727 366.40625 L 518.11133 366.40625 L 518.11133 391.07031 L 493.44727 391.07031 L 493.44727 366.40625 z M 685.86914 366.40625 L 710.5332 366.40625 L 710.5332 391.07031 L 685.86914 391.07031 L 685.86914 366.40625 z M 878.29102 366.40625 L 902.95508 366.40625 L 902.95508 391.07031 L 878.29102 391.07031 L 878.29102 366.40625 z M 92.603516 372.26367 L 92.603516 385.21484 L 81.388672 378.73828 L 92.603516 372.26367 z M 149.26758 372.26367 L 160.48242 378.73828 L 149.26758 385.21484 L 149.26758 372.26367 z M 285.02539 372.26367 L 285.02539 385.21484 L 273.81055 378.73828 L 285.02539 372.26367 z M 341.68945 372.26367 L 352.9043 378.73828 L 341.68945 385.21484 L 341.68945 372.26367 z M 477.44727 372.26367 L 477.44727 385.21484 L 466.23242 378.73828 L 477.44727 372.26367 z M 534.11133 372.26367 L 545.32617 378.73828 L 534.11133 385.21484 L 534.11133 372.26367 z M 669.86914 372.26367 L 669.86914 385.21484 L 658.6543 378.73828 L 669.86914 372.26367 z M 726.5332 372.26367 L 737.74805 378.73828 L 726.5332 385.21484 L 726.5332 372.26367 z M 862.29102 372.26367 L 862.29102 385.21484 L 851.07617 378.73828 L 862.29102 372.26367 z M 918.95508 372.26367 L 930.16992 378.73828 L 918.95508 385.21484 L 918.95508 372.26367 z M 173.55469 389.66797 L 185.88672 411.02734 L 164.52539 423.35938 L 152.19531 402 L 173.55469 389.66797 z M 260.73633 389.66797 L 282.09766 402 L 269.76562 423.35938 L 248.40625 411.02734 L 260.73633 389.66797 z M 365.97656 389.66797 L 378.30859 411.02734 L 356.94922 423.35938 L 344.61719 402 L 365.97656 389.66797 z M 453.16016 389.66797 L 474.51953 402 L 462.1875 423.35938 L 440.82812 411.02734 L 453.16016 389.66797 z M 558.39844 389.66797 L 570.73047 411.02734 L 549.37109 423.35938 L 537.03906 402 L 558.39844 389.66797 z M 645.58203 389.66797 L 666.94141 402 L 654.60938 423.35938 L 633.25 411.02734 L 645.58203 389.66797 z M 750.82031 389.66797 L 763.15234 411.02734 L 741.79297 423.35938 L 729.46094 402 L 750.82031 389.66797 z M 838.00391 389.66797 L 859.36328 402 L 847.03125 423.35938 L 825.67188 411.02734 L 838.00391 389.66797 z M 105.22266 407.07031 L 136.64844 407.07031 L 152.36133 434.28711 L 136.64844 461.50195 L 105.22266 461.50195 L 89.507812 434.28711 L 105.22266 407.07031 z M 297.64453 407.07031 L 329.07031 407.07031 L 344.7832 434.28711 L 329.07031 461.50195 L 297.64453 461.50195 L 281.92969 434.28711 L 297.64453 407.07031 z M 490.06641 407.07031 L 521.49219 407.07031 L 537.20508 434.28711 L 521.49219 461.50195 L 490.06641 461.50195 L 474.35352 434.28711 L 490.06641 407.07031 z M 682.48828 407.07031 L 713.91406 407.07031 L 729.62695 434.28711 L 713.91406 461.50195 L 682.48828 461.50195 L 666.77344 434.28711 L 682.48828 407.07031 z M 874.91016 407.07031 L 906.33594 407.07031 L 922.04883 434.28711 L 906.33594 461.50195 L 874.91016 461.50195 L 859.19727 434.28711 L 874.91016 407.07031 z M 204.81445 421.95508 L 229.47852 421.95508 L 229.47852 446.61719 L 204.81445 446.61719 L 204.81445 421.95508 z M 397.23633 421.95508 L 421.90039 421.95508 L 421.90039 446.61719 L 397.23633 446.61719 L 397.23633 421.95508 z M 589.6582 421.95508 L 614.32227 421.95508 L 614.32227 446.61719 L 589.6582 446.61719 L 589.6582 421.95508 z M 782.08008 421.95508 L 806.74414 421.95508 L 806.74414 446.61719 L 782.08008 446.61719 L 782.08008 421.95508 z M 53.056641 427.81055 L 64.271484 434.28711 L 53.056641 440.76172 L 53.056641 427.81055 z M 188.81445 427.81055 L 188.81445 440.76172 L 177.59766 434.28711 L 188.81445 427.81055 z M 245.47852 427.81055 L 256.69336 434.28711 L 245.47852 440.76172 L 245.47852 427.81055 z M 381.23633 427.81055 L 381.23633 440.76172 L 370.01953 434.28711 L 381.23633 427.81055 z M 437.90039 427.81055 L 449.11523 434.28711 L 437.90039 440.76172 L 437.90039 427.81055 z M 573.6582 427.81055 L 573.6582 440.76172 L 562.44141 434.28711 L 573.6582 427.81055 z M 630.32227 427.81055 L 641.53711 434.28711 L 630.32227 440.76172 L 630.32227 427.81055 z M 766.08008 427.81055 L 766.08008 440.76172 L 754.86328 434.28711 L 766.08008 427.81055 z M 822.74414 427.81055 L 833.95898 434.28711 L 822.74414 440.76172 L 822.74414 427.81055 z M 164.52539 445.21484 L 185.88672 457.54688 L 173.55469 478.90625 L 152.19531 466.57422 L 164.52539 445.21484 z M 269.76562 445.21484 L 282.09766 466.57422 L 260.73633 478.90625 L 248.40625 457.54688 L 269.76562 445.21484 z M 356.94727 445.21484 L 378.30859 457.54688 L 365.97656 478.90625 L 344.61719 466.57422 L 356.94727 445.21484 z M 462.1875 445.21484 L 474.51953 466.57422 L 453.16016 478.90625 L 440.82812 457.54688 L 462.1875 445.21484 z M 549.37109 445.21484 L 570.73047 457.54688 L 558.39844 478.90625 L 537.03906 466.57422 L 549.37109 445.21484 z M 654.60938 445.21484 L 666.94141 466.57422 L 645.58203 478.90625 L 633.25 457.54688 L 654.60938 445.21484 z M 741.79297 445.21484 L 763.15234 457.54688 L 750.82031 478.90625 L 729.46094 466.57422 L 741.79297 445.21484 z M 847.03125 445.21484 L 859.36328 466.57422 L 838.00391 478.90625 L 825.67188 457.54688 L 847.03125 445.21484 z M 201.43359 462.61719 L 232.85938 462.61719 L 248.57227 489.83398 L 232.85938 517.05078 L 201.43359 517.05078 L 185.71875 489.83398 L 201.43359 462.61719 z M 393.85547 462.61719 L 425.28125 462.61719 L 440.99414 489.83398 L 425.28125 517.05078 L 393.85547 517.05078 L 378.14258 489.83398 L 393.85547 462.61719 z M 586.27734 462.61719 L 617.70312 462.61719 L 633.41602 489.83398 L 617.70312 517.05078 L 586.27734 517.05078 L 570.5625 489.83398 L 586.27734 462.61719 z M 778.69922 462.61719 L 810.125 462.61719 L 825.83789 489.83398 L 810.125 517.05078 L 778.69922 517.05078 L 762.98633 489.83398 L 778.69922 462.61719 z M 108.60352 477.50195 L 133.26758 477.50195 L 133.26758 502.16602 L 108.60352 502.16602 L 108.60352 477.50195 z M 301.02539 477.50195 L 325.68945 477.50195 L 325.68945 502.16602 L 301.02539 502.16602 L 301.02539 477.50195 z M 493.44727 477.50195 L 518.11133 477.50195 L 518.11133 502.16602 L 493.44727 502.16602 L 493.44727 477.50195 z M 685.86914 477.50195 L 710.5332 477.50195 L 710.5332 502.16602 L 685.86914 502.16602 L 685.86914 477.50195 z M 878.29102 477.50195 L 902.95508 477.50195 L 902.95508 502.16602 L 878.29102 502.16602 L 878.29102 477.50195 z M 92.603516 483.35742 L 92.603516 496.31055 L 81.386719 489.83398 L 92.603516 483.35742 z M 149.26758 483.35742 L 160.48438 489.83398 L 149.26758 496.31055 L 149.26758 483.35742 z M 285.02539 483.35742 L 285.02539 496.31055 L 273.80859 489.83398 L 285.02539 483.35742 z M 341.68945 483.35742 L 352.90625 489.83398 L 341.68945 496.31055 L 341.68945 483.35742 z M 477.44727 483.35742 L 477.44727 496.31055 L 466.23047 489.83398 L 477.44727 483.35742 z M 534.11133 483.35742 L 545.32812 489.83398 L 534.11133 496.31055 L 534.11133 483.35742 z M 669.86914 483.35742 L 669.86914 496.31055 L 658.65234 489.83398 L 669.86914 483.35742 z M 726.5332 483.35742 L 737.75 489.83398 L 726.5332 496.31055 L 726.5332 483.35742 z M 862.29102 483.35742 L 862.29102 496.31055 L 851.07422 489.83398 L 862.29102 483.35742 z M 918.95508 483.35742 L 930.17188 489.83398 L 918.95508 496.31055 L 918.95508 483.35742 z M 173.55469 500.76172 L 185.88672 522.12109 L 164.52539 534.45312 L 152.19531 513.09375 L 173.55469 500.76172 z M 260.73633 500.76172 L 282.09766 513.09375 L 269.76562 534.45312 L 248.40625 522.12109 L 260.73633 500.76172 z M 365.97656 500.76172 L 378.30859 522.12109 L 356.94922 534.45312 L 344.61719 513.09375 L 365.97656 500.76172 z M 453.16016 500.76172 L 474.51953 513.09375 L 462.1875 534.45312 L 440.82812 522.12109 L 453.16016 500.76172 z M 558.39844 500.76172 L 570.73047 522.12109 L 549.37109 534.45312 L 537.03906 513.09375 L 558.39844 500.76172 z M 645.58203 500.76172 L 666.94141 513.09375 L 654.60938 534.45312 L 633.25 522.12109 L 645.58203 500.76172 z M 750.82031 500.76172 L 763.15234 522.12109 L 741.79297 534.45312 L 729.46094 513.09375 L 750.82031 500.76172 z M 838.00391 500.76172 L 859.36328 513.09375 L 847.03125 534.45312 L 825.67188 522.12109 L 838.00391 500.76172 z M 105.22266 518.16602 L 136.64844 518.16602 L 152.36133 545.38281 L 136.64844 572.59766 L 105.22266 572.59766 L 89.507812 545.38281 L 105.22266 518.16602 z M 297.64453 518.16602 L 329.07031 518.16602 L 344.7832 545.38281 L 329.07031 572.59766 L 297.64453 572.59766 L 281.92969 545.38281 L 297.64453 518.16602 z M 490.06641 518.16602 L 521.49219 518.16602 L 537.20508 545.38281 L 521.49219 572.59766 L 490.06641 572.59766 L 474.35352 545.38281 L 490.06641 518.16602 z M 682.48828 518.16602 L 713.91406 518.16602 L 729.62695 545.38281 L 713.91406 572.59766 L 682.48828 572.59766 L 666.77344 545.38281 L 682.48828 518.16602 z M 874.91016 518.16602 L 906.33594 518.16602 L 922.04883 545.38281 L 906.33594 572.59766 L 874.91016 572.59766 L 859.19727 545.38281 L 874.91016 518.16602 z M 204.81445 533.05078 L 229.47852 533.05078 L 229.47852 557.71289 L 204.81445 557.71289 L 204.81445 533.05078 z M 397.23633 533.05078 L 421.90039 533.05078 L 421.90039 557.71289 L 397.23633 557.71289 L 397.23633 533.05078 z M 589.6582 533.05078 L 614.32227 533.05078 L 614.32227 557.71289 L 589.6582 557.71289 L 589.6582 533.05078 z M 782.08008 533.05078 L 806.74414 533.05078 L 806.74414 557.71289 L 782.08008 557.71289 L 782.08008 533.05078 z M 53.056641 538.90625 L 64.271484 545.38281 L 53.056641 551.85742 L 53.056641 538.90625 z M 188.81445 538.90625 L 188.81445 551.85742 L 177.59961 545.38281 L 188.81445 538.90625 z M 245.47852 538.90625 L 256.69336 545.38281 L 245.47852 551.85742 L 245.47852 538.90625 z M 381.23633 538.90625 L 381.23633 551.85742 L 370.02148 545.38281 L 381.23633 538.90625 z M 437.90039 538.90625 L 449.11523 545.38281 L 437.90039 551.85742 L 437.90039 538.90625 z M 573.6582 538.90625 L 573.6582 551.85742 L 562.44336 545.38281 L 573.6582 538.90625 z M 630.32227 538.90625 L 641.53711 545.38281 L 630.32227 551.85742 L 630.32227 538.90625 z M 766.08008 538.90625 L 766.08008 551.85742 L 754.86523 545.38281 L 766.08008 538.90625 z M 822.74414 538.90625 L 833.95898 545.38281 L 822.74414 551.85742 L 822.74414 538.90625 z M 164.52539 556.31055 L 185.88672 568.64062 L 173.55469 590 L 152.19531 577.66797 L 164.52539 556.31055 z M 269.76562 556.31055 L 282.09766 577.66797 L 260.73633 590 L 248.40625 568.64062 L 269.76562 556.31055 z M 356.94727 556.31055 L 378.30859 568.64062 L 365.97656 590 L 344.61719 577.66797 L 356.94727 556.31055 z M 462.1875 556.31055 L 474.51953 577.66797 L 453.16016 590 L 440.82812 568.64062 L 462.1875 556.31055 z M 549.37109 556.31055 L 570.73047 568.64062 L 558.39844 590 L 537.03906 577.66797 L 549.37109 556.31055 z M 654.60938 556.31055 L 666.94141 577.66797 L 645.58203 590 L 633.25 568.64062 L 654.60938 556.31055 z M 741.79297 556.31055 L 763.15234 568.64062 L 750.82031 590 L 729.46094 577.66797 L 741.79297 556.31055 z M 847.03125 556.31055 L 859.36328 577.66797 L 838.00391 590 L 825.67188 568.64062 L 847.03125 556.31055 z M 201.43359 573.71289 L 232.85938 573.71289 L 248.57227 600.92969 L 232.85938 628.14453 L 201.43164 628.14453 L 185.71875 600.92969 L 201.43359 573.71289 z M 393.85547 573.71289 L 425.28125 573.71289 L 440.99414 600.92969 L 425.28125 628.14453 L 393.85547 628.14453 L 378.14258 600.92969 L 393.85547 573.71289 z M 586.27734 573.71289 L 617.70312 573.71289 L 633.41602 600.92969 L 617.70312 628.14453 L 586.27734 628.14453 L 570.56445 600.92969 L 586.27734 573.71289 z M 778.69922 573.71289 L 810.125 573.71289 L 825.83789 600.92969 L 810.125 628.14453 L 778.69922 628.14453 L 762.98633 600.92969 L 778.69922 573.71289 z M 108.60352 588.59766 L 133.26758 588.59766 L 133.26758 613.26172 L 108.60352 613.26172 L 108.60352 588.59766 z M 301.02539 588.59766 L 325.68945 588.59766 L 325.68945 613.26172 L 301.02539 613.26172 L 301.02539 588.59766 z M 493.44727 588.59766 L 518.11133 588.59766 L 518.11133 613.26172 L 493.44727 613.26172 L 493.44727 588.59766 z M 685.86914 588.59766 L 710.5332 588.59766 L 710.5332 613.26172 L 685.86914 613.26172 L 685.86914 588.59766 z M 878.29102 588.59766 L 902.95508 588.59766 L 902.95508 613.26172 L 878.29102 613.26172 L 878.29102 588.59766 z M 92.603516 594.45312 L 92.603516 607.4043 L 81.388672 600.92969 L 92.603516 594.45312 z M 149.26758 594.45312 L 160.48242 600.92969 L 149.26758 607.4043 L 149.26758 594.45312 z M 285.02539 594.45312 L 285.02539 607.4043 L 273.81055 600.92969 L 285.02539 594.45312 z M 341.68945 594.45312 L 352.9043 600.92969 L 341.68945 607.4043 L 341.68945 594.45312 z M 477.44727 594.45312 L 477.44727 607.4043 L 466.23242 600.92969 L 477.44727 594.45312 z M 534.11133 594.45312 L 545.32617 600.92969 L 534.11133 607.4043 L 534.11133 594.45312 z M 669.86914 594.45312 L 669.86914 607.4043 L 658.6543 600.92969 L 669.86914 594.45312 z M 726.5332 594.45312 L 737.74805 600.92969 L 726.5332 607.4043 L 726.5332 594.45312 z M 862.29102 594.45312 L 862.29102 607.4043 L 851.07617 600.92969 L 862.29102 594.45312 z M 918.95508 594.45312 L 930.16992 600.92969 L 918.95508 607.4043 L 918.95508 594.45312 z M 173.55469 611.85742 L 185.88672 633.2168 L 164.52539 645.54688 L 152.19531 624.18945 L 173.55469 611.85742 z M 260.73633 611.85742 L 282.09766 624.18945 L 269.76562 645.54688 L 248.40625 633.2168 L 260.73633 611.85742 z M 365.97656 611.85742 L 378.30859 633.2168 L 356.94727 645.54688 L 344.61719 624.18945 L 365.97656 611.85742 z M 453.16016 611.85742 L 474.51953 624.18945 L 462.1875 645.54688 L 440.82812 633.2168 L 453.16016 611.85742 z M 558.39844 611.85742 L 570.73047 633.2168 L 549.37109 645.54688 L 537.03906 624.18945 L 558.39844 611.85742 z M 645.58203 611.85742 L 666.94141 624.18945 L 654.60938 645.54688 L 633.25 633.2168 L 645.58203 611.85742 z M 750.82031 611.85742 L 763.15234 633.2168 L 741.79297 645.54688 L 729.46094 624.18945 L 750.82031 611.85742 z M 838.00391 611.85742 L 859.36328 624.18945 L 847.03125 645.54688 L 825.67188 633.2168 L 838.00391 611.85742 z M 105.22266 629.26172 L 136.64844 629.26172 L 152.36133 656.47656 L 136.64844 683.69141 L 105.22266 683.69141 L 89.509766 656.47656 L 105.22266 629.26172 z M 297.64453 629.26172 L 329.07031 629.26172 L 344.7832 656.47656 L 329.07031 683.69141 L 297.64453 683.69141 L 281.92969 656.47656 L 297.64453 629.26172 z M 490.06641 629.26172 L 521.49219 629.26172 L 537.20508 656.47656 L 521.49219 683.69141 L 490.06641 683.69141 L 474.35352 656.47656 L 490.06641 629.26172 z M 682.48828 629.26172 L 713.91406 629.26172 L 729.62695 656.47656 L 713.91406 683.69141 L 682.48828 683.69141 L 666.77539 656.47656 L 682.48828 629.26172 z M 874.91016 629.26172 L 906.33594 629.26172 L 922.04883 656.47656 L 906.33594 683.69141 L 874.91016 683.69141 L 859.19727 656.47656 L 874.91016 629.26172 z M 204.81445 644.14453 L 229.47852 644.14453 L 229.47852 668.80859 L 204.81445 668.80859 L 204.81445 644.14453 z M 397.23633 644.14453 L 421.90039 644.14453 L 421.90039 668.80859 L 397.23633 668.80859 L 397.23633 644.14453 z M 589.6582 644.14453 L 614.32227 644.14453 L 614.32227 668.80859 L 589.6582 668.80859 L 589.6582 644.14453 z M 782.08008 644.14453 L 806.74414 644.14453 L 806.74414 668.80859 L 782.08008 668.80859 L 782.08008 644.14453 z M 53.056641 650 L 64.271484 656.47656 L 53.056641 662.95117 L 53.056641 650 z M 245.47852 650 L 256.69336 656.47656 L 245.47852 662.95117 L 245.47852 650 z M 437.90039 650 L 449.11523 656.47656 L 437.90039 662.95117 L 437.90039 650 z M 630.32227 650 L 641.53711 656.47656 L 630.32227 662.95117 L 630.32227 650 z M 822.74414 650 L 833.95898 656.47656 L 822.74414 662.95117 L 822.74414 650 z M 188.81445 650.00195 L 188.81445 662.95117 L 177.59961 656.47656 L 188.81445 650.00195 z M 381.23633 650.00195 L 381.23633 662.95117 L 370.02148 656.47656 L 381.23633 650.00195 z M 573.6582 650.00195 L 573.6582 662.95117 L 562.44336 656.47656 L 573.6582 650.00195 z M 766.08008 650.00195 L 766.08008 662.95117 L 754.86523 656.47656 L 766.08008 650.00195 z M 164.52539 667.4043 L 185.88672 679.73633 L 173.55469 701.0957 L 152.19531 688.76367 L 164.52539 667.4043 z M 269.76562 667.4043 L 282.09766 688.76367 L 260.73633 701.0957 L 248.40625 679.73633 L 269.76562 667.4043 z M 356.94922 667.4043 L 378.30859 679.73633 L 365.97656 701.0957 L 344.61719 688.76367 L 356.94922 667.4043 z M 462.1875 667.4043 L 474.51953 688.76367 L 453.16016 701.0957 L 440.82812 679.73633 L 462.1875 667.4043 z M 549.37109 667.4043 L 570.73047 679.73633 L 558.39844 701.0957 L 537.03906 688.76367 L 549.37109 667.4043 z M 654.60938 667.4043 L 666.94141 688.76367 L 645.58203 701.0957 L 633.25 679.73633 L 654.60938 667.4043 z M 741.79297 667.4043 L 763.15234 679.73633 L 750.82031 701.0957 L 729.46094 688.76367 L 741.79297 667.4043 z M 847.03125 667.4043 L 859.36328 688.76367 L 838.00391 701.0957 L 825.67188 679.73633 L 847.03125 667.4043 z M 201.43359 684.80859 L 232.85938 684.80859 L 248.57227 712.02344 L 232.85938 739.24023 L 201.43359 739.24023 L 185.71875 712.02344 L 201.43359 684.80859 z M 393.85547 684.80859 L 425.28125 684.80859 L 440.99414 712.02344 L 425.28125 739.24023 L 393.85547 739.24023 L 378.14258 712.02344 L 393.85547 684.80859 z M 586.27734 684.80859 L 617.70312 684.80859 L 633.41602 712.02344 L 617.70312 739.24023 L 586.27734 739.24023 L 570.56445 712.02344 L 586.27734 684.80859 z M 778.69922 684.80859 L 810.125 684.80859 L 825.83789 712.02344 L 810.125 739.24023 L 778.69922 739.24023 L 762.98633 712.02344 L 778.69922 684.80859 z M 108.60352 699.69141 L 133.26758 699.69141 L 133.26758 724.35547 L 108.60352 724.35547 L 108.60352 699.69141 z M 301.02539 699.69141 L 325.68945 699.69141 L 325.68945 724.35547 L 301.02539 724.35547 L 301.02539 699.69141 z M 493.44727 699.69141 L 518.11133 699.69141 L 518.11133 724.35547 L 493.44727 724.35547 L 493.44727 699.69141 z M 685.86914 699.69141 L 710.5332 699.69141 L 710.5332 724.35547 L 685.86914 724.35547 L 685.86914 699.69141 z M 878.29102 699.69141 L 902.95508 699.69141 L 902.95508 724.35547 L 878.29102 724.35547 L 878.29102 699.69141 z M 92.603516 705.54883 L 92.603516 718.5 L 81.388672 712.02344 L 92.603516 705.54883 z M 149.26758 705.54883 L 160.48242 712.02344 L 149.26758 718.5 L 149.26758 705.54883 z M 285.02539 705.54883 L 285.02539 718.5 L 273.81055 712.02344 L 285.02539 705.54883 z M 341.68945 705.54883 L 352.9043 712.02344 L 341.68945 718.5 L 341.68945 705.54883 z M 477.44727 705.54883 L 477.44727 718.5 L 466.23242 712.02344 L 477.44727 705.54883 z M 534.11133 705.54883 L 545.32617 712.02344 L 534.11133 718.5 L 534.11133 705.54883 z M 669.86914 705.54883 L 669.86914 718.5 L 658.6543 712.02344 L 669.86914 705.54883 z M 726.5332 705.54883 L 737.74805 712.02344 L 726.5332 718.5 L 726.5332 705.54883 z M 862.29102 705.54883 L 862.29102 718.5 L 851.07617 712.02344 L 862.29102 705.54883 z M 918.95508 705.54883 L 930.16992 712.02344 L 918.95508 718.5 L 918.95508 705.54883 z M 173.55469 722.95312 L 185.88672 744.3125 L 164.52539 756.64258 L 152.19531 735.2832 L 173.55469 722.95312 z M 260.73633 722.95312 L 282.09766 735.28516 L 269.76562 756.64258 L 248.40625 744.3125 L 260.73633 722.95312 z M 365.97656 722.95312 L 378.30859 744.3125 L 356.94727 756.64258 L 344.61719 735.2832 L 365.97656 722.95312 z M 453.16016 722.95312 L 474.51953 735.28516 L 462.1875 756.64258 L 440.82812 744.3125 L 453.16016 722.95312 z M 558.39844 722.95312 L 570.73047 744.3125 L 549.37109 756.64258 L 537.03906 735.2832 L 558.39844 722.95312 z M 645.58203 722.95312 L 666.94141 735.28516 L 654.60938 756.64258 L 633.25 744.3125 L 645.58203 722.95312 z M 750.82031 722.95312 L 763.15234 744.3125 L 741.79297 756.64258 L 729.46094 735.2832 L 750.82031 722.95312 z M 838.00391 722.95312 L 859.36328 735.28516 L 847.03125 756.64258 L 825.67188 744.3125 L 838.00391 722.95312 z M 105.22266 740.35547 L 136.64844 740.35547 L 152.36133 767.57031 L 136.64844 794.78711 L 105.22266 794.78711 L 89.507812 767.57031 L 105.22266 740.35547 z M 297.64453 740.35547 L 329.07031 740.35547 L 344.7832 767.57031 L 329.07031 794.78711 L 297.64453 794.78711 L 281.92969 767.57031 L 297.64453 740.35547 z M 490.06641 740.35547 L 521.49219 740.35547 L 537.20508 767.57031 L 521.49219 794.78711 L 490.06641 794.78711 L 474.35352 767.57031 L 490.06641 740.35547 z M 682.48828 740.35547 L 713.91406 740.35547 L 729.62695 767.57031 L 713.91406 794.78711 L 682.48828 794.78711 L 666.77539 767.57031 L 682.48828 740.35547 z M 874.91016 740.35547 L 906.33594 740.35547 L 922.04883 767.57031 L 906.33594 794.78711 L 874.91016 794.78711 L 859.19727 767.57031 L 874.91016 740.35547 z M 204.81445 755.24023 L 229.47852 755.24023 L 229.47852 779.90234 L 204.81445 779.90234 L 204.81445 755.24023 z M 397.23633 755.24023 L 421.90039 755.24023 L 421.90039 779.90234 L 397.23633 779.90234 L 397.23633 755.24023 z M 589.6582 755.24023 L 614.32227 755.24023 L 614.32227 779.90234 L 589.6582 779.90234 L 589.6582 755.24023 z M 782.08008 755.24023 L 806.74414 755.24023 L 806.74414 779.90234 L 782.08008 779.90234 L 782.08008 755.24023 z M 53.056641 761.0957 L 64.271484 767.57031 L 53.056641 774.04688 L 53.056641 761.0957 z M 188.81445 761.0957 L 188.81445 774.04688 L 177.59961 767.57031 L 188.81445 761.0957 z M 245.47852 761.0957 L 256.69336 767.57031 L 245.47852 774.04688 L 245.47852 761.0957 z M 381.23633 761.0957 L 381.23633 774.04688 L 370.02148 767.57031 L 381.23633 761.0957 z M 437.90039 761.0957 L 449.11523 767.57031 L 437.90039 774.04688 L 437.90039 761.0957 z M 573.6582 761.0957 L 573.6582 774.04688 L 562.44336 767.57031 L 573.6582 761.0957 z M 630.32227 761.0957 L 641.53711 767.57031 L 630.32227 774.04688 L 630.32227 761.0957 z M 766.08008 761.0957 L 766.08008 774.04688 L 754.86523 767.57031 L 766.08008 761.0957 z M 822.74414 761.0957 L 833.95898 767.57031 L 822.74414 774.04688 L 822.74414 761.0957 z M 164.52539 778.5 L 185.88672 790.83203 L 173.55469 812.19141 L 152.19531 799.85938 L 164.52539 778.5 z M 269.76562 778.5 L 282.09766 799.85938 L 260.73633 812.19141 L 248.40625 790.83203 L 269.76562 778.5 z M 356.94922 778.5 L 378.30859 790.83203 L 365.97656 812.19141 L 344.61719 799.85938 L 356.94922 778.5 z M 462.1875 778.5 L 474.51953 799.85938 L 453.16016 812.19141 L 440.82812 790.83203 L 462.1875 778.5 z M 549.37109 778.5 L 570.73047 790.83203 L 558.39844 812.19141 L 537.03906 799.85938 L 549.37109 778.5 z M 654.60938 778.5 L 666.94141 799.85938 L 645.58203 812.19141 L 633.25 790.83203 L 654.60938 778.5 z M 741.79297 778.5 L 763.15234 790.83203 L 750.82031 812.19141 L 729.46094 799.85938 L 741.79297 778.5 z M 847.03125 778.5 L 859.36328 799.85938 L 838.00391 812.19141 L 825.67188 790.83203 L 847.03125 778.5 z M 201.43359 795.90234 L 232.85938 795.90234 L 248.57227 823.11914 L 232.85938 850.33398 L 201.43164 850.33398 L 185.71875 823.11914 L 201.43359 795.90234 z M 393.85547 795.90234 L 425.28125 795.90234 L 440.99414 823.11914 L 425.28125 850.33398 L 393.85547 850.33398 L 378.14258 823.11914 L 393.85547 795.90234 z M 586.27734 795.90234 L 617.70312 795.90234 L 633.41602 823.11914 L 617.70312 850.33398 L 586.27734 850.33398 L 570.56445 823.11914 L 586.27734 795.90234 z M 778.69922 795.90234 L 810.125 795.90234 L 825.83789 823.11914 L 810.125 850.33398 L 778.69922 850.33398 L 762.98633 823.11914 L 778.69922 795.90234 z M 108.60352 810.78711 L 133.26758 810.78711 L 133.26758 835.45117 L 108.60352 835.45117 L 108.60352 810.78711 z M 301.02539 810.78711 L 325.68945 810.78711 L 325.68945 835.45117 L 301.02539 835.45117 L 301.02539 810.78711 z M 493.44727 810.78711 L 518.11133 810.78711 L 518.11133 835.45117 L 493.44727 835.45117 L 493.44727 810.78711 z M 685.86914 810.78711 L 710.5332 810.78711 L 710.5332 835.45117 L 685.86914 835.45117 L 685.86914 810.78711 z M 878.29102 810.78711 L 902.95508 810.78711 L 902.95508 835.45117 L 878.29102 835.45117 L 878.29102 810.78711 z M 92.603516 816.64258 L 92.603516 829.5957 L 81.386719 823.11914 L 92.603516 816.64258 z M 149.26758 816.64258 L 160.48438 823.11914 L 149.26758 829.5957 L 149.26758 816.64258 z M 285.02539 816.64258 L 285.02539 829.5957 L 273.80859 823.11914 L 285.02539 816.64258 z M 341.68945 816.64258 L 352.90625 823.11914 L 341.68945 829.5957 L 341.68945 816.64258 z M 477.44727 816.64258 L 477.44727 829.5957 L 466.23047 823.11914 L 477.44727 816.64258 z M 534.11133 816.64258 L 545.32812 823.11914 L 534.11133 829.5957 L 534.11133 816.64258 z M 669.86914 816.64258 L 669.86914 829.5957 L 658.65234 823.11914 L 669.86914 816.64258 z M 726.5332 816.64258 L 737.75 823.11914 L 726.5332 829.5957 L 726.5332 816.64258 z M 862.29102 816.64258 L 862.29102 829.5957 L 851.07422 823.11914 L 862.29102 816.64258 z M 918.95508 816.64258 L 930.17188 823.11914 L 918.95508 829.5957 L 918.95508 816.64258 z M 173.55469 834.04688 L 185.88672 855.40625 L 164.52539 867.73828 L 152.19531 846.37891 L 173.55469 834.04688 z M 260.73633 834.04688 L 282.09766 846.37891 L 269.76562 867.73828 L 248.40625 855.40625 L 260.73633 834.04688 z M 365.97656 834.04688 L 378.30859 855.40625 L 356.94727 867.73828 L 344.61719 846.37891 L 365.97656 834.04688 z M 453.16016 834.04688 L 474.51953 846.37891 L 462.1875 867.73828 L 440.82812 855.40625 L 453.16016 834.04688 z M 558.39844 834.04688 L 570.73047 855.40625 L 549.37109 867.73828 L 537.03906 846.37891 L 558.39844 834.04688 z M 645.58203 834.04688 L 666.94141 846.37891 L 654.60938 867.73828 L 633.25 855.40625 L 645.58203 834.04688 z M 750.82031 834.04688 L 763.15234 855.40625 L 741.79297 867.73828 L 729.46094 846.37891 L 750.82031 834.04688 z M 838.00391 834.04688 L 859.36328 846.37891 L 847.03125 867.73828 L 825.67188 855.40625 L 838.00391 834.04688 z M 105.22266 851.45117 L 136.64844 851.45117 L 152.36133 878.66602 L 136.64844 905.88281 L 105.22266 905.88281 L 89.507812 878.66602 L 105.22266 851.45117 z M 297.64453 851.45117 L 329.07031 851.45117 L 344.7832 878.66602 L 329.07031 905.88281 L 297.64453 905.88281 L 281.92969 878.66602 L 297.64453 851.45117 z M 490.06641 851.45117 L 521.49219 851.45117 L 537.20508 878.66602 L 521.49219 905.88281 L 490.06641 905.88281 L 474.35352 878.66602 L 490.06641 851.45117 z M 682.48828 851.45117 L 713.91406 851.45117 L 729.62695 878.66602 L 713.91406 905.88281 L 682.48828 905.88281 L 666.77539 878.66602 L 682.48828 851.45117 z M 874.91016 851.45117 L 906.33594 851.45117 L 922.04883 878.66602 L 906.33594 905.88281 L 874.91016 905.88281 L 859.19727 878.66602 L 874.91016 851.45117 z M 53.056641 872.18945 L 64.273438 878.66602 L 53.056641 885.14258 L 53.056641 872.18945 z M 188.81445 872.18945 L 188.81445 885.14258 L 177.59766 878.66602 L 188.81445 872.18945 z M 245.47852 872.18945 L 256.69531 878.66602 L 245.47852 885.14258 L 245.47852 872.18945 z M 381.23633 872.18945 L 381.23633 885.14258 L 370.01953 878.66602 L 381.23633 872.18945 z M 437.90039 872.18945 L 449.11719 878.66602 L 437.90039 885.14258 L 437.90039 872.18945 z M 573.6582 872.18945 L 573.6582 885.14258 L 562.44141 878.66602 L 573.6582 872.18945 z M 630.32227 872.18945 L 641.53906 878.66602 L 630.32227 885.14258 L 630.32227 872.18945 z M 766.08008 872.18945 L 766.08008 885.14258 L 754.86328 878.66602 L 766.08008 872.18945 z M 822.74414 872.18945 L 833.96094 878.66602 L 822.74414 885.14258 L 822.74414 872.18945 z M 92.603516 927.73828 L 92.603516 940.68945 L 81.388672 934.21484 L 92.603516 927.73828 z M 149.26758 927.73828 L 160.48242 934.21484 L 149.26758 940.68945 L 149.26758 927.73828 z M 285.02539 927.73828 L 285.02539 940.68945 L 273.81055 934.21484 L 285.02539 927.73828 z M 341.68945 927.73828 L 352.9043 934.21484 L 341.68945 940.68945 L 341.68945 927.73828 z M 477.44727 927.73828 L 477.44727 940.68945 L 466.23242 934.21484 L 477.44727 927.73828 z M 534.11133 927.73828 L 545.32617 934.21484 L 534.11133 940.68945 L 534.11133 927.73828 z M 669.86914 927.73828 L 669.86914 940.68945 L 658.6543 934.21484 L 669.86914 927.73828 z M 726.5332 927.73828 L 737.74805 934.21484 L 726.5332 940.68945 L 726.5332 927.73828 z M 862.29102 927.73828 L 862.29102 940.68945 L 851.07617 934.21484 L 862.29102 927.73828 z M 918.95508 927.73828 L 930.16992 934.21484 L 918.95508 940.68945 L 918.95508 927.73828 z "
     style="color:#000000;font-style:normal;font-variant:normal;font-weight:normal;font-stretch:normal;font-size:medium;line-height:normal;font-family:sans-serif;font-variant-ligatures:normal;font-variant-position:normal;font-variant-caps:normal;font-variant-numeric:normal;font-variant-alternates:normal;font-variant-east-asian:normal;font-feature-settings:normal;font-variation-settings:normal;text-indent:0;text-align:start;text-decoration:none;text-decoration-line:none;text-decoration-style:solid;text-decoration-color:#000000;letter-spacing:normal;word-spacing:normal;text-transform:none;writing-mode:lr-tb;direction:ltr;text-orientation:mixed;dominant-baseline:auto;baseline-shift:baseline;text-anchor:start;white-space:normal;shape-padding:0;shape-margin:0;inline-size:0;clip-rule:nonzero;display:inline;overflow:visible;visibility:visible;isolation:auto;mix-blend-mode:normal;color-interpolation:sRGB;color-interpolation-filters:linearRGB;solid-color:#000000;solid-opacity:1;vector-effect:none;fill:#000000;fill-opacity:0.8;fill-rule:nonzero;stroke:none;stroke-width:16;stroke-linecap:butt;stroke-linejoin:round;stroke-miterlimit:4;stroke-dasharray:none;stroke-dashoffset:0;stroke-opacity:1;filter-blend-mode:normal;filter-gaussianBlur-deviation:0;color-rendering:auto;image-rendering:auto;shape-rendering:auto;text-rendering:auto;enable-background:accumulate;stop-color:#000000;stop-opacity:1;opacity:1" />
</svg>
