<?xml version="1.0" encoding="UTF-8" standalone="no"?>
<svg
   xmlns:dc="http://purl.org/dc/elements/1.1/"
   xmlns:cc="http://creativecommons.org/ns#"
   xmlns:rdf="http://www.w3.org/1999/02/22-rdf-syntax-ns#"
   xmlns:svg="http://www.w3.org/2000/svg"
   xmlns="http://www.w3.org/2000/svg"
   xmlns:sodipodi="http://sodipodi.sourceforge.net/DTD/sodipodi-0.dtd"
   xmlns:inkscape="http://www.inkscape.org/namespaces/inkscape"
   version="1.0"
   width="1000.0"
   height="1000.0"
   id="C:\1-uniform_9.svg"
   sodipodi:docname="1-uniform_n9--invert.svg"
   inkscape:version="1.0 (9f2f71dc58, 2020-08-02)">
  <style
     id="style2" />
  <metadata
     id="metadata63813">
    <rdf:RDF>
      <cc:Work
         rdf:about="">
        <dc:format>image/svg+xml</dc:format>
        <dc:type
           rdf:resource="http://purl.org/dc/dcmitype/StillImage" />
        <dc:title />
      </cc:Work>
    </rdf:RDF>
  </metadata>
  <defs
     id="defs63811" />
  <sodipodi:namedview
     pagecolor="#ffffff"
     bordercolor="#666666"
     inkscape:document-rotation="0"
     borderopacity="1"
     objecttolerance="10"
     gridtolerance="10"
     guidetolerance="10"
     inkscape:pageopacity="0"
     inkscape:pageshadow="2"
     inkscape:window-width="1920"
     inkscape:window-height="1016"
     id="namedview63809"
     showgrid="false"
     inkscape:zoom="0.7066095"
     inkscape:cx="62.594987"
     inkscape:cy="416.27551"
     inkscape:window-x="0"
     inkscape:window-y="27"
     inkscape:window-maximized="1"
     inkscape:current-layer="C:\1-uniform_9.svg" />
  <!-- X Coordinate transform: fx(x)=(x+143.62335)*0.7728302-->
  <!-- Y Coordinate transform: fy(y)=(1143.6233-y)*0.7728302 -->
  <!-- Flac geometry view -->
  <path
     id="path11"
     style="color:#000000;font-style:normal;font-variant:normal;font-weight:normal;font-stretch:normal;font-size:medium;line-height:normal;font-family:sans-serif;font-variant-ligatures:normal;font-variant-position:normal;font-variant-caps:normal;font-variant-numeric:normal;font-variant-alternates:normal;font-variant-east-asian:normal;font-feature-settings:normal;font-variation-settings:normal;text-indent:0;text-align:start;text-decoration:none;text-decoration-line:none;text-decoration-style:solid;text-decoration-color:#000000;letter-spacing:normal;word-spacing:normal;text-transform:none;writing-mode:lr-tb;direction:ltr;text-orientation:mixed;dominant-baseline:auto;baseline-shift:baseline;text-anchor:start;white-space:normal;shape-padding:0;shape-margin:0;inline-size:0;clip-rule:nonzero;display:inline;overflow:visible;visibility:visible;isolation:auto;mix-blend-mode:normal;color-interpolation:sRGB;color-interpolation-filters:linearRGB;solid-color:#000000;solid-opacity:1;vector-effect:none;fill:#000000;fill-opacity:0.8;fill-rule:nonzero;stroke:none;stroke-width:14;stroke-linecap:butt;stroke-linejoin:miter;stroke-miterlimit:4;stroke-dasharray:none;stroke-dashoffset:0;stroke-opacity:1;filter-blend-mode:normal;filter-gaussianBlur-deviation:0;color-rendering:auto;image-rendering:auto;shape-rendering:auto;text-rendering:auto;enable-background:accumulate;stop-color:#000000;stop-opacity:1;opacity:1"
     d="m 636.44727,59.455078 7.19726,12.464844 H 629.25 Z m -307.7461,5.177734 7.19531,12.462891 h -14.39062 z m 353.53125,7.089844 v 14.392578 l -12.46484,-7.197265 z m 52.64063,0 12.46484,7.195313 -12.46484,7.197265 z m 137.21289,1.875 7.19531,12.464844 h -14.39258 z m -497.59961,3.302735 v 14.392578 l -12.46485,-7.197266 z m 52.64258,0 12.46484,7.195312 -12.46484,7.197266 z m 137.21093,1.875 7.19727,12.464843 h -14.39258 z m -444.95507,3.300781 12.46289,7.197266 -12.46289,7.195312 z m 137.21093,1.876953 7.19727,12.464844 h -14.39258 z m 367.53125,1.966797 h 24.64063 v 24.640628 h -24.64063 z m 149.33594,0 h 14.39063 l -7.19532,12.464844 z m -14.6875,2.5625 12.32031,21.339848 -21.33984,12.31835 -12.32031,-21.33789 z m -148.64844,2.560547 v 14.392581 l -12.46484,-7.195316 z m 52.64063,0.002 12.46289,7.195312 -12.46289,7.195316 z m -346.38672,0.05078 h 24.64062 v 24.642577 h -24.64062 z m 149.33594,0 h 14.39258 l -7.19532,12.464847 z m 334.26172,1.824219 7.19726,12.464848 H 792.7832 Z m -348.94727,0.738281 12.32031,21.339847 -21.34179,12.32031 -12.32032,-21.33984 z m -148.65039,2.5625 v 14.392577 l -12.46484,-7.19531 v -0.002 z m 52.64062,0 12.46485,7.197267 -12.46485,7.19531 z m -197.04882,0.05273 h 14.39257 l -7.19726,12.464842 z m 334.26172,1.824218 7.19531,12.462894 h -14.39063 l 3.59766,-6.23243 z m -348.94922,0.738282 12.32226,21.339842 -21.3418,12.32031 -12.31835,-21.33984 z m 716.48046,1.226562 h 24.64063 v 24.64062 h -24.64063 z m -675.27539,3.21289 7.19532,12.46289 h -14.39063 z m 661.27539,1.91211 v 14.39258 l -12.46484,-7.19727 z m 52.64063,0 12.46484,7.19531 -12.46484,7.19727 z m -346.38672,0.0527 h 24.64063 v 24.64063 h -24.64063 z m 149.33789,0 h 14.39063 l -7.19532,12.46289 z m -14.6875,2.5625 12.32031,21.33985 -21.33984,12.32031 -12.32031,-21.33984 z m -148.65039,2.5625 v 14.39063 l -12.46484,-7.19531 z m 52.64063,0 12.46484,7.19532 -12.46484,7.19726 z m -346.38477,0.0527 h 24.64063 v 24.64062 h -24.64063 z m 149.33789,0 h 14.39063 l -7.19532,12.46289 z m 334.25977,1.82226 7.19726,12.46289 h -14.39258 l 3.59766,-6.23046 z m -348.94727,0.73829 12.32031,21.33984 -21.34179,12.32226 -12.32032,-21.33984 z m -148.65039,2.5625 v 14.39257 l -12.46484,-7.19531 z m 52.64063,0 12.46484,7.19726 -12.46484,7.19531 z m -197.048832,0.0527 h 14.392582 l -7.19727,12.46484 z m 334.261722,1.82422 7.19531,12.46289 h -14.39063 l 3.59766,-6.23242 z m 367.52929,1.9668 h 24.64258 v 24.64062 H 787.6582 Z m -675.27539,3.20898 h 0.002 l 7.19531,12.46484 H 105.1875 l 3.59766,-6.23242 z m 661.27539,1.91406 v 14.39258 l -12.46484,-7.19727 z m 52.64258,0.002 12.46484,7.19531 -12.46484,7.19531 z m -346.38672,0.0508 h 24.64063 v 24.64062 h -24.64063 z m 149.33594,0 h 14.39258 l -7.19531,12.46484 z m -14.68555,2.5625 12.32032,21.33984 -21.3418,12.32227 -12.32031,-21.3418 z m -148.65039,2.5625 v 14.39257 l -12.46484,-7.19726 z m 52.64063,0 12.46484,7.19531 -12.46484,7.19726 z m -346.38477,0.0527 h 24.64063 v 24.64063 h -24.64063 z m 149.33594,0 h 14.39062 l -7.19531,12.46289 z m 334.26172,1.82227 7.19531,12.46484 h -14.39062 z m -348.94922,0.74023 12.32226,21.33789 -21.34179,12.32227 -12.32031,-21.33985 z m -148.64844,2.56055 v 14.39258 l -12.46484,-7.19532 z m 52.64063,0.002 12.46484,7.19531 -12.46484,7.19532 z m 137.21093,1.875 7.19727,12.46289 h -14.39063 z m 367.53125,1.96484 h 24.64063 v 24.64258 h -24.64063 z m 149.33594,0 h 14.39258 l -7.19531,12.4668 h -0.002 z m -14.68555,2.5625 12.31836,21.3418 -21.33789,12.32031 -12.32031,-21.34179 z m -148.65039,2.5625 v 14.39258 l -12.46484,-7.19531 z m 52.64063,0 12.46484,7.19727 -12.46484,7.19531 z m -346.38477,0.0527 h 24.64063 v 24.64258 h -24.64063 z m 149.33594,0 h 14.39258 l -7.19727,12.46484 z m 334.26172,1.82422 7.19531,12.46484 h -14.39258 l 3.59961,-6.23242 z m -348.94727,0.73828 12.32032,21.33984 -21.3418,12.32227 -12.32031,-21.3418 z m -148.65039,2.5625 v 14.39258 l -12.46484,-7.19532 v -0.002 z m 52.64063,0 12.46484,7.19726 -12.46484,7.19532 z m -346.38672,0.0527 h 24.64062 v 24.64063 H 100.0625 Z m 149.33789,0 h 14.39063 l -7.19532,12.46485 z m 334.25977,1.82227 h 0.002 l 7.19531,12.46484 h -14.39258 z m -348.94727,0.74023 12.32031,21.33985 -21.33984,12.32031 -12.32031,-21.33984 z m -148.65039,2.5625 v 14.39258 l -12.464844,-7.19726 z m 52.64062,0 12.46485,7.19532 -12.46485,7.19726 z m 137.2129,1.875 7.19726,12.46485 H 268.7207 Z m 367.53125,1.9668 h 24.64062 v 24.64258 h -24.64062 z m 149.33593,0 h 14.39258 l -7.19726,12.46484 z m -14.6875,2.5625 12.32032,21.33984 -21.33985,12.32032 -12.32031,-21.33985 z m -148.64843,2.5625 v 14.39258 l -12.46485,-7.19727 z m 52.64062,0 12.46484,7.19531 -12.46484,7.19727 z m -346.38672,0.0508 h 24.64258 v 24.64258 h -24.64258 z m 149.33789,0 h 14.39063 l -7.19531,12.46485 z m 334.26172,1.82422 7.19531,12.46484 h -14.39257 l 3.59765,-6.23242 z m -348.94922,0.73828 12.32032,21.3418 -21.33985,12.31836 -12.32031,-21.33985 z m -148.65039,2.5625 v 14.39258 l -12.46484,-7.19531 z m 52.64258,0 12.46484,7.19727 -12.46484,7.19531 z m -197.05078,0.0527 h 14.39258 l -7.19532,12.46484 z m 334.26172,1.82421 7.19726,12.46485 h -14.39453 z m -348.94727,0.73829 12.32031,21.33984 -21.33984,12.32031 -12.32227,-21.33984 z m 716.47852,1.22851 h 24.64062 v 24.64063 h -24.64062 z m -675.27539,3.20899 7.19531,12.46484 h -14.39063 z m 661.27539,1.91406 v 14.39453 l -12.46485,-7.19727 z m 52.64062,0 12.46485,7.19726 -12.46485,7.19532 z m -346.38476,0.0527 h 24.64062 v 24.64063 H 571.3418 Z m 149.33593,0 h 14.39258 l -7.19726,12.46485 z m -14.6875,2.5625 12.32032,21.33985 -21.33985,12.32031 -12.32031,-21.33984 z m -148.64843,2.5625 v 14.39063 l -12.46485,-7.19531 z m 52.64062,0 12.46485,7.19532 -12.46485,7.19726 z m -346.38672,0.0527 h 24.64063 v 24.64062 H 263.5957 Z m 149.33789,0 h 14.39063 l -7.19531,12.46289 z m 334.26172,1.82226 7.19531,12.46485 h -14.39257 l 3.59765,-6.23243 z m -348.94922,0.74024 12.32032,21.33984 -21.33985,12.32031 -12.32031,-21.33984 z m -148.65039,2.5625 v 14.39062 l -12.46484,-7.19531 z m 52.64063,0 12.46289,7.19531 -12.46289,7.19531 z m -197.04883,0.0508 h 14.39258 l -7.19727,12.46484 z m 334.26172,1.82422 7.19531,12.46289 h -14.39062 z m 367.5293,1.96679 h 24.64257 v 24.64063 h -24.64257 z m -675.2754,3.20899 h 0.002 l 7.19531,12.46484 h -14.39258 z m 661.2754,1.91601 v 14.39063 l -12.4629,-7.19531 z m 52.64257,0 12.46289,7.19532 -12.46289,7.19531 z m -346.38671,0.0527 h 24.64257 v 24.64062 h -24.64257 z m 149.33789,0 h 14.39062 l -7.19531,12.46289 z m -14.6875,2.5625 12.32031,21.33789 -21.33985,12.32031 -12.32031,-21.33984 z m -148.65039,2.56055 v 14.39257 l -12.46485,-7.19531 v -0.002 z m 52.64257,0.002 12.46485,7.19531 -12.46485,7.19531 z m -346.38672,0.0508 h 24.64063 v 24.64063 h -24.64063 z m 149.33594,0 h 14.39258 l -7.19727,12.46484 z m 334.26172,1.82422 7.19727,12.46289 h -14.39258 l 3.59765,-6.23242 z m -348.94727,0.73828 12.31836,21.33984 -21.33984,12.32032 -12.32031,-21.33985 z m -148.65039,2.5625 v 14.39063 l -12.46289,-7.19532 z m 52.64063,0 12.46484,7.19531 -12.46484,7.19532 z m 137.21289,1.875 7.19531,12.46484 h -14.39258 l 3.59766,-6.23242 z m 367.5293,1.9668 h 24.64257 v 24.64062 h -24.64257 z m 149.33593,0 h 14.39258 l -7.19531,12.46484 z m -14.68554,2.5625 12.32031,21.33984 -21.33984,12.32031 -12.32032,-21.33984 z m -148.65039,2.5625 v 14.39257 l -12.46485,-7.19726 z m 52.64257,0 12.4629,7.19531 -12.4629,7.19726 z m -346.38671,0.0508 h 24.64062 v 24.64258 h -24.64062 z m 149.33593,0 h 14.39258 l -7.19726,12.46484 z m 334.26172,1.82422 7.19727,12.46484 h -14.39258 l 3.59766,-6.23242 z m -348.94726,0.73828 12.31836,21.34179 -21.33789,12.32032 -12.32227,-21.3418 z m -148.65039,2.5625 v 14.39258 l -12.46485,-7.19532 z m 52.64062,0 12.46485,7.19726 -12.46485,7.19532 z m -346.38476,0.0527 h 24.64062 v 24.64258 h -24.64062 z m 149.33593,0 h 14.39258 l -7.19726,12.46485 z m 334.26172,1.82227 7.19531,12.46484 h -14.39257 z m -348.94922,0.74023 12.32032,21.33985 -21.33985,12.32031 -12.32031,-21.33984 z m -148.64843,2.5625 v 14.39258 l -12.464848,-7.19726 z m 52.64062,0 12.46484,7.19532 -12.46484,7.19726 z m 137.21289,1.875 7.19531,12.46485 h -14.39257 l 3.59765,-6.23243 z m 367.5293,1.9668 h 24.64062 v 24.64258 h -24.64062 z m 149.33594,0 h 14.39257 l -7.19531,12.46484 h -0.002 z m -14.68555,2.5625 12.32031,21.33984 -21.33984,12.32032 -12.32032,-21.33985 z m -148.65039,2.5625 v 14.39258 l -12.46485,-7.19532 v -0.002 z m 52.64062,0 12.46485,7.19726 -12.46485,7.19532 z m -346.38672,0.0527 h 24.64258 v 24.64063 h -24.64258 z m 149.3379,0 h 14.39257 l -3.59961,6.23243 -3.59765,6.23242 z m 334.26171,1.82422 7.19532,12.46289 h -14.39063 z m -348.94921,0.73828 12.32031,21.33985 -21.33985,12.32031 -12.32031,-21.33984 z m -148.6504,2.5625 v 14.39063 l -12.46289,-7.19531 z m 52.64258,0 12.46485,7.19532 -12.46485,7.19726 z m -197.04883,0.0508 h 14.39063 l -7.19531,12.46289 z m 334.25977,1.82421 h 0.002 l 7.19532,12.46485 h -14.39258 z m -348.94727,0.73829 12.32032,21.34179 -21.33985,12.31836 -12.32031,-21.33984 z m -96.007808,2.5625 12.464844,7.19726 -12.464844,7.19531 z m 137.210938,1.875 7.19726,12.46484 h -14.39257 z m 661.27539,1.91601 v 14.39063 l -12.46484,-7.19532 z m -293.74609,0.0508 h 24.64257 v 24.64258 h -24.64257 z m 149.33789,0 h 14.39257 l -7.19531,12.46485 h -0.002 z m -14.6875,2.5625 12.32031,21.33985 -21.33789,12.32031 -12.32227,-21.33789 z m -148.65039,2.5625 v 14.39258 l -12.46289,-7.19531 z m 52.64257,0 12.46485,7.19727 -12.46485,7.19531 z m -346.38671,0.0527 h 24.64257 v 24.64062 h -24.64257 z m 149.33789,0 h 14.39062 l -7.19531,12.46289 z m 334.26171,1.82226 7.19532,12.46485 h -14.39258 l 3.59766,-6.23243 z m -348.94921,0.74024 12.32031,21.33984 -21.33984,12.32031 -12.32032,-21.33984 z m -148.65039,2.5625 v 14.39257 l -12.46485,-7.19726 z m 52.64257,0 12.46289,7.19531 -12.46289,7.19531 z m -197.05078,0.0527 h 14.39258 l -7.19727,12.46484 z m 334.26172,1.82227 7.19727,12.46484 h -14.39258 l 3.59766,-6.23242 z m -348.94726,0.74023 12.31835,21.33789 -21.33789,12.32227 -12.320308,-21.33985 z m 716.47851,1.22656 h 24.64063 v 24.64063 h -24.64063 z m -675.27539,3.21094 7.19531,12.46289 h -14.39258 l 3.59766,-6.23047 z m 661.27539,1.91406 v 14.39258 l -12.46484,-7.19726 z m 52.64063,0 12.46484,7.19532 -12.46484,7.19726 z m -346.38672,0.0527 h 24.64258 v 24.64062 h -24.64258 z m 149.33789,0 h 14.39062 l -7.19531,12.46289 z m -14.6875,2.5625 12.32031,21.33984 -21.33984,12.32031 -12.32032,-21.34179 z m -148.65039,2.5625 v 14.39062 l -12.46289,-7.19531 z m 52.64258,0 12.46289,7.19531 -12.46289,7.19531 z m -346.38672,0.0508 h 24.64062 v 24.64258 h -24.64062 z m 149.33593,0 h 14.39258 l -7.19531,12.46484 h -0.002 z m 334.26368,1.82226 7.19531,12.46485 h -14.39258 z m -348.94922,0.74024 12.32031,21.33984 -21.33984,12.32032 -12.32032,-21.33985 z m -148.65039,2.5625 v 14.39258 l -12.46485,-7.19727 z m 52.64062,0 12.46485,7.19531 -12.46485,7.19727 z m 137.21289,1.875 7.19727,12.46484 h -14.39258 z m 367.5293,1.9668 h 24.64258 v 24.64257 h -24.64258 z m 149.33789,0 h 14.39258 l -7.19727,12.46484 z m -14.6875,2.5625 12.32031,21.33984 -21.33984,12.32226 -12.32031,-21.34179 z m -809.925781,0.64843 7.197265,12.46485 H 71.722656 Z m 661.275391,1.91407 v 14.39257 l -12.46484,-7.19531 v -0.002 z m 52.64258,0 12.46484,7.19726 -12.46484,7.19531 z m -346.38672,0.0527 h 24.64258 v 24.64063 h -24.64258 z m 149.33594,0 h 14.39257 l -7.19531,12.46484 z m -14.68555,2.5625 12.32031,21.33984 -21.33984,12.32032 -12.32031,-21.33985 z m -148.65039,2.56055 v 14.39453 l -12.46484,-7.19727 z m 52.64258,0.002 12.46289,7.19531 -12.46289,7.19727 z m -346.38868,0.0508 h 24.64258 v 24.64258 h -24.64258 z m 149.3379,0 h 14.39257 l -3.59765,6.23242 -3.59766,6.23243 h -0.002 z m 334.26171,1.82422 7.19727,12.46484 h -14.39258 l 3.59766,-6.23242 z m -348.94921,0.73828 12.32226,21.3418 -21.3418,12.32031 -12.32031,-21.3418 z m -148.6504,2.5625 v 14.39258 l -12.46484,-7.19727 z m 52.64258,0 12.46485,7.19531 v 0.002 l -12.46485,7.19531 z m 137.21289,1.875 7.19532,12.46485 h -14.39258 z m 367.5293,1.9668 h 24.64258 v 24.64258 h -24.64258 z m 149.33594,0 h 14.39258 l -7.19532,12.46484 z m -14.68555,2.5625 12.32031,21.34179 -21.33984,12.32032 -12.32227,-21.3418 z m -148.65039,2.5625 v 14.39258 L 655.625,314.55859 Z m 52.64258,0 12.46289,7.19726 -12.46289,7.19532 z m -346.38672,0.0527 h 24.64063 v 24.64258 h -24.64063 z m 149.33594,0 h 14.39258 l -3.59766,6.23242 -3.59961,6.23243 z m 334.26172,1.82422 7.19531,12.46289 h -14.39063 l 3.59766,-6.23242 z m -348.94922,0.73828 12.32226,21.33985 -21.33984,12.32031 -12.32031,-21.33984 z m -148.64844,2.5625 v 14.39258 l -12.46484,-7.19726 z m 52.64063,0 12.46484,7.19532 v 0.002 l -12.46484,7.19531 z m -197.04883,0.0527 h 14.39257 l -7.19726,12.46484 z m 334.26172,1.82226 7.19531,12.46485 H 543 Z m -348.94922,0.74024 12.32031,21.33984 -21.33984,12.32031 -12.32032,-21.33984 z m -96.00782,2.56054 12.46289,7.19727 -12.46289,7.19531 z m 137.21289,1.87696 7.19532,12.46484 h -14.39258 l 3.59766,-6.23242 z m 661.27344,1.91406 v 14.39062 l -12.46484,-7.19531 z m -293.74414,0.0527 h 24.64063 v 24.64063 h -24.64063 z m 149.33594,0 h 14.39258 l -7.19532,12.46485 h -0.002 z m -14.68555,2.5625 12.32031,21.33985 -21.34179,12.32031 -12.31836,-21.33984 z m -148.65039,2.5625 v 14.39063 l -12.46289,-7.19531 z m 52.64063,0 12.46484,7.19532 -12.46484,7.19726 z m -346.38672,0.0508 h 24.64258 v 24.64257 h -24.64258 z m 149.33789,0 h 14.39258 l -3.59961,6.23242 -3.59766,6.23242 z m 334.26172,1.82421 7.19531,12.46289 h -14.39063 z m -348.94922,0.73829 12.32031,21.33984 -21.33984,12.32031 -12.32031,-21.33984 z m -148.65039,2.5625 v 14.39257 l -12.46485,-7.19726 z m 52.64258,0 12.46484,7.19531 v 0.002 l -12.46484,7.19531 z m -197.05079,0.0527 h 14.39258 l -7.19531,12.46289 z m 334.26172,1.82227 h 0.002 l 7.19531,12.46484 h -14.39258 z m -348.94726,0.74023 12.32031,21.33984 -21.33984,12.32032 -12.32032,-21.33985 z m 716.47851,1.22656 h 24.64063 v 24.64258 h -24.64063 z m -675.27539,3.21094 7.19727,12.46484 h -14.39258 z m 661.27539,1.91406 v 14.39258 l -12.46484,-7.19727 z m 52.64063,0 12.46289,7.19531 -12.46289,7.19727 z m -346.38477,0.0527 h 24.64063 v 24.64062 h -24.64063 z m 149.33594,0 h 14.39258 l -3.59766,6.23242 -3.59765,6.23242 h -0.002 z m -14.6875,2.5625 12.32031,21.33984 -21.33984,12.32031 -12.32031,-21.33984 z m -148.64844,2.56054 v 14.39258 l -12.46484,-7.19531 z m 52.64063,0.002 12.46484,7.19531 -12.46484,7.19531 z m -346.38672,0.0527 h 24.64258 v 24.64063 h -24.64258 z m 149.33594,0 h 14.39258 l -7.19532,12.46289 z m 334.26367,1.82227 7.19531,12.46484 H 706.5332 Z m -348.94922,0.74023 12.32031,21.33984 -21.33984,12.32032 -12.32031,-21.3418 z m -148.65039,2.56055 v 14.39258 L 203.66602,358.375 Z m 52.64258,0.002 12.46289,7.19531 -12.46289,7.19532 z m -197.050784,0.0508 h 14.392578 l -7.197265,12.46485 z m 334.261724,1.82227 h 0.002 l 7.19531,12.46484 h -14.39258 z m 367.53124,1.96679 h 24.64063 v 24.64258 h -24.64063 z m -675.275386,3.2129 7.195316,12.46289 H 91.044922 Z m 661.275386,1.9121 v 14.39258 l -12.46484,-7.19531 v -0.002 z m 52.64063,0 12.46484,7.19727 -12.46484,7.19531 z m -346.38672,0.0527 h 24.64258 v 24.64258 h -24.64258 z m 149.33789,0 H 629.5 l -3.59766,6.23242 -3.59961,6.23242 z m -14.6875,2.5625 12.32031,21.33984 -21.33984,12.32032 -12.32031,-21.33985 z m -148.65039,2.5625 v 14.39258 l -12.46289,-7.19727 z m 52.64258,0 12.46289,7.19531 -12.46289,7.19727 z m -346.38672,0.0527 h 24.64258 v 24.64063 h -24.64258 z m 149.33594,0 h 14.39258 l -7.19532,12.46485 z m 334.26172,1.82227 7.19726,12.46484 h -14.39258 z m -348.94727,0.73828 12.32031,21.3418 -21.34179,12.32031 -12.32032,-21.33984 z M 144.02539,370.5 v 14.39258 l -12.46484,-7.19531 z m 52.64258,0.002 12.46289,7.19532 -12.46289,7.19531 z m 137.21094,1.875 7.19531,12.46485 h -14.39063 l 3.59766,-6.23242 z m 367.52929,1.9668 h 24.64258 v 24.64063 H 701.4082 Z m 149.33789,0 h 14.39063 l -7.19531,12.46484 z m -14.6875,2.5625 12.32032,21.33984 -21.33985,12.31836 -12.32031,-21.33789 z M 687.4082,379.4668 v 14.39258 l -12.46484,-7.19532 z m 52.64258,0 12.46484,7.19726 -12.46484,7.19532 z m -346.38672,0.0527 h 24.64258 v 24.64258 h -24.64258 z m 149.33594,0 h 14.39258 l -3.59766,6.23242 -3.59765,6.23243 z m 334.26172,1.82422 7.19726,12.46484 h -14.39257 l 3.59765,-6.23242 z m -348.94727,0.73828 12.32032,21.33985 -21.33985,12.32226 -12.32226,-21.3418 z m -148.65039,2.5625 v 14.39258 l -12.46484,-7.19727 z m 52.64258,0 12.46484,7.19531 v 0.002 l -12.46484,7.19531 z m -346.386718,0.0527 h 24.640628 v 24.64257 H 85.919922 Z m 149.335938,0 h 14.39258 l -3.59766,6.23242 -3.59766,6.23242 h -0.002 z m 334.26172,1.82421 7.19531,12.4629 h -14.39062 z m -348.94922,0.73829 12.32031,21.33984 -21.33984,12.32031 -12.31836,-21.33984 z m -148.648438,2.5625 v 14.39257 l -12.464844,-7.19726 z m 52.640628,0 12.46484,7.19531 -12.46484,7.19726 z m 137.21289,1.875 7.19531,12.46484 h -14.39258 z m 367.52929,1.96679 h 24.64063 v 24.64063 h -24.64063 z m 149.33594,0 h 14.39258 l -3.59766,6.23242 -3.59765,6.23047 z m -14.68555,2.5625 12.32032,21.33985 -21.33985,12.32031 -12.32031,-21.33984 z m -148.65039,2.5625 v 14.39063 l -12.46484,-7.19531 z m 52.64063,0 12.46289,7.19532 -12.46289,7.19531 z m -346.38477,0.0527 h 24.64063 v 24.64062 h -24.64063 z m 149.33594,0 h 14.39258 l -3.59766,6.23242 -3.59961,6.23242 z m 334.26172,1.82226 7.19531,12.46485 h -14.39062 z m -348.94922,0.74024 12.32227,21.33789 -21.3418,12.32226 -12.31836,-21.33984 z m -148.64844,2.56054 v 14.39258 l -12.46484,-7.19531 z m 52.64063,0.002 12.46289,7.19531 -12.46289,7.19531 z m -197.04883,0.0508 h 14.39258 l -7.19727,12.46484 z m 334.26172,1.82422 7.19531,12.46289 h -14.39258 z m -348.94922,0.73828 12.32031,21.33984 -21.33984,12.32031 -12.32031,-21.33984 z m 716.47852,1.22851 h 24.64062 v 24.64063 h -24.64062 z m -675.27539,3.20899 7.19726,12.46484 H 182.4707 l 3.59766,-6.23242 z m 661.27539,1.91406 v 14.39258 l -12.46485,-7.19531 z m 52.64062,0 12.4668,7.19727 -12.4668,7.19531 z m -346.38476,0.0527 h 24.64062 v 24.64257 h -24.64062 z m 149.33593,0 h 14.39258 l -3.59766,6.23242 -3.59765,6.23242 z m -14.68554,2.5625 12.32031,21.33984 -21.3418,12.32031 -12.32031,-21.33984 z m -148.65039,2.5625 v 14.39257 l -12.46485,-7.19726 z m 52.64062,0 12.46484,7.19531 -12.46484,7.19726 z m -346.38672,0.0527 h 24.64258 v 24.64062 h -24.64258 z m 149.33789,0 h 14.39258 l -7.19531,12.46484 h -0.002 z m 334.26172,1.82227 7.19531,12.46484 h -14.39062 z m -348.94922,0.74023 12.32032,21.33984 -21.33985,12.32032 -12.32031,-21.33985 z m -148.65039,2.5625 v 14.39062 l -12.46289,-7.19531 z m 52.64258,0 12.46484,7.19531 -12.46484,7.19531 z m -197.050781,0.0527 h 14.392581 l -7.195316,12.46289 z m 334.263671,1.82227 7.19727,12.46484 h -14.39453 z m 367.5293,1.9668 h 24.64062 v 24.64062 h -24.64062 z m -675.27539,3.21093 7.19531,12.46289 h -14.39063 l 3.59766,-6.23242 z m 661.27539,1.91211 v 14.39258 l -12.46485,-7.19531 z m 52.64062,0 12.46485,7.19727 -12.46485,7.19531 z m -346.38476,0.0527 h 24.64062 v 24.64258 H 485.0918 Z m 149.33593,0 h 14.39258 l -3.59765,6.23242 -3.59961,6.23242 z m -14.6875,2.5625 12.32227,21.33984 -21.3418,12.32227 -12.32031,-21.3418 z m -148.64843,2.5625 v 14.39258 L 458.62695,444.625 Z m 52.64062,0 12.46485,7.19531 v 0.002 l -12.46485,7.19532 z m -346.38672,0.0527 h 24.64063 v 24.64063 H 177.3457 Z m 149.33789,0 h 14.39063 l -7.19531,12.46485 z m 334.25977,1.82227 7.19726,12.46484 h -14.39257 z m -348.94727,0.74023 12.32032,21.33985 -21.33985,12.32031 -12.32031,-21.33985 z m -148.65039,2.5625 v 14.39063 l -12.46289,-7.19532 z m 52.64063,0 12.46484,7.19531 L 215.98633,457 Z m 137.21289,1.875 7.19531,12.46485 h -14.39062 z m 367.53125,1.9668 h 24.64062 v 24.64258 h -24.64062 z m 149.33594,0 h 14.39062 l -7.19531,12.46289 z m -14.6875,2.5625 12.32031,21.33984 -21.33984,12.32032 -12.32032,-21.33985 z m -148.64844,2.5625 v 14.39258 l -12.46485,-7.19727 z m 52.64062,0 12.46485,7.19531 -12.46485,7.19727 z m -346.38671,0.0527 h 24.64257 v 24.64063 h -24.64257 z m 149.33789,0 h 14.39062 l -7.19531,12.46485 z m 334.25976,1.82227 h 0.002 l 7.19532,12.46484 h -14.39258 z m -348.94726,0.74023 12.32031,21.33985 -21.33985,12.31836 -12.32031,-21.33789 z M 398.98438,456.75 v 14.39258 l -12.46485,-7.19531 z m 52.64257,0.002 12.46289,7.19532 -12.46289,7.19531 z m -346.38672,0.0508 h 24.64063 v 24.64258 h -24.64063 z m 149.33594,0 h 14.39258 l -7.19531,12.46485 z m 334.26172,1.82422 7.19727,12.46485 h -14.39258 z m -348.94727,0.73828 12.32032,21.3418 -21.3418,12.32031 -12.32031,-21.34179 z m -148.650386,2.5625 v 14.39258 L 78.775391,469.125 Z m 52.640626,0 12.46484,7.19727 -12.46484,7.19531 z m 137.21289,1.875 7.19531,12.46485 h -14.39258 l 3.59961,-6.23242 z m 367.5293,1.9668 h 24.64257 v 24.64063 h -24.64257 z m 149.33789,0 h 14.39062 l -3.59765,6.23242 -3.59766,6.23047 z m -14.6875,2.5625 12.32031,21.33985 -21.33984,12.32031 -12.32032,-21.33985 z m -148.65039,2.5625 v 14.39063 l -12.46485,-7.19532 z m 52.64257,0 12.46485,7.19531 v 0.002 l -12.46485,7.19531 z m -346.38671,0.0527 h 24.64062 v 24.64257 h -24.64062 z m 149.33593,0 h 14.39258 l -3.59765,6.23242 -3.59766,6.23047 z m 334.26172,1.82226 7.19727,12.46485 h -14.39258 l 3.59766,-6.23243 z m -348.94726,0.74024 12.32031,21.33984 -21.33984,12.32031 -12.32227,-21.33984 z m -148.65039,2.5625 v 14.39257 l -12.46485,-7.19726 z m 52.64062,0 12.46485,7.19531 -12.46485,7.19726 z m -197.04883,0.0508 h 14.39258 l -7.19726,12.46679 z m 334.26172,1.82422 7.19531,12.46289 h -14.39062 z m -348.94922,0.73828 12.32227,21.34179 -21.3418,12.31836 -12.32031,-21.33789 z m 716.47852,1.22851 h 24.64258 v 24.64063 h -24.64258 z m -675.27344,3.20899 7.19531,12.46679 h -14.39257 z m 661.27344,1.91601 v 14.39063 l -12.46289,-7.19531 z m 52.64258,0 12.46289,7.19532 -12.46289,7.19531 z m -346.38672,0.0527 h 24.64062 v 24.64062 h -24.64062 z m 149.33789,0 h 14.39062 l -3.59765,6.23242 -3.59766,6.23047 z m -14.6875,2.5625 12.32031,21.33789 -21.33984,12.32226 -12.32032,-21.34179 z m -148.65039,2.56054 v 14.39258 l -12.46485,-7.19726 z m 52.64062,0 12.46485,7.19727 -12.46485,7.19531 z m -346.38476,0.0527 h 24.64062 v 24.64062 h -24.64062 z m 149.33594,0 h 14.39257 l -7.19726,12.46484 z m 334.26171,1.82422 7.19532,12.46289 h -14.39063 z m -348.94726,0.73828 12.32031,21.33984 -21.3418,12.32227 -12.32031,-21.3418 z m -148.65039,2.5625 v 14.39258 l -12.46485,-7.19532 v -0.002 z m 52.64062,0 12.46485,7.19726 -12.46485,7.19532 z m -197.04883,0.0527 h 14.39063 l -7.19531,12.46289 z m 334.26172,1.82227 7.19532,12.46484 h -14.39063 z m 367.5293,1.9668 h 24.64258 v 24.64257 h -24.64258 z m -675.27539,3.21093 7.19726,12.46289 h -14.39257 l 3.59765,-6.23242 z m 661.27539,1.91407 v 14.39257 l -12.46484,-7.19726 z m 52.64258,0 12.46289,7.19531 -12.46289,7.19726 z m -346.38672,0.0508 h 24.64062 v 24.64257 h -24.64062 z m 149.33398,0 h 14.39453 l -7.19726,12.46679 z m -14.68359,2.5625 12.32031,21.34179 -21.34179,12.32032 -12.32032,-21.3418 z m -148.65039,2.5625 v 14.39257 l -12.46484,-7.19531 z m 52.64062,0 12.46485,7.19726 -12.46485,7.19531 z m -346.38476,0.0547 h 24.64062 v 24.64063 h -24.64062 z m 149.33594,0 h 14.39062 l -3.59765,6.23047 -3.59766,6.23242 z m 334.26171,1.82227 7.19532,12.46484 h -14.39258 z m -348.94921,0.74023 12.32031,21.33789 -21.33984,12.32032 -12.32032,-21.33985 z m -148.64844,2.5586 v 14.39453 l -12.4668,-7.19727 z m 52.64062,0.002 12.46485,7.19727 -12.46485,7.19531 z m 137.21094,1.87695 7.19727,12.46289 h -14.39258 z m 367.53125,1.96485 h 24.64063 v 24.64258 h -24.64063 z m 149.33594,0 h 14.39258 l -3.59766,6.23242 -3.59961,6.23242 z m -14.6875,2.5625 12.32031,21.33984 -21.33789,12.32227 -12.32226,-21.3418 z m -148.64844,2.5625 v 14.39258 L 713.58594,530.875 Z m 52.64063,0 12.46484,7.19531 v 0.002 l -12.46484,7.19532 z m -346.38477,0.0527 h 24.64063 v 24.64063 h -24.64063 z m 149.33594,0 h 14.39258 l -7.19727,12.46485 z m 334.26172,1.82227 7.19531,12.46484 h -14.39258 z m -348.94922,0.74023 12.32031,21.33985 -21.33984,12.32031 -12.32032,-21.33985 z m -148.64844,2.5625 V 543.25 l -12.46484,-7.19727 z m 52.64063,0 12.46484,7.19531 -12.46484,7.19727 z m -346.38672,0.0508 h 24.64062 v 24.64258 h -24.64062 z m 149.33593,0 h 14.39258 l -3.59765,6.23242 -3.59961,6.23243 z m 334.26368,1.82422 7.19531,12.46485 h -14.39258 l 3.59766,-6.23243 z m -348.94922,0.73828 12.32031,21.3418 -21.33984,12.32031 -12.32227,-21.34179 z m -148.65039,2.5625 v 14.39258 l -12.464847,-7.19531 z m 52.64062,0 12.46485,7.19727 -12.46485,7.19531 z m 137.21289,1.875 7.19532,12.46485 H 293.2168 Z m 367.5293,1.96875 h 24.64258 v 24.64063 h -24.64258 z m 149.33789,0 h 14.39258 l -7.19727,12.46485 z m -14.6875,2.5625 12.32031,21.33985 -21.33984,12.32031 -12.32031,-21.33984 z M 653.94336,543 v 14.39258 l -12.46289,-7.19531 z m 52.64258,0 12.46484,7.19727 -12.46484,7.19531 z m -346.38672,0.0527 h 24.64258 v 24.64258 h -24.64258 z m 149.33789,0 h 14.39062 l -7.19531,12.46289 z m 334.25977,1.82422 h 0.002 l 7.19531,12.46485 h -14.39258 z m -348.94727,0.73828 12.32031,21.33985 -21.33984,12.32031 -12.32031,-21.33984 z m -148.65039,2.5625 v 14.39258 L 333.73438,555.375 v -0.002 z m 52.64258,0 12.46484,7.19727 -12.46484,7.19531 z m -197.05078,0.0527 h 14.39257 l -3.59765,6.23242 -3.59766,6.23242 h -0.002 z m 334.26171,1.82226 7.19727,12.46485 h -14.39258 l 3.59766,-6.23242 z m -348.94726,0.74024 12.31836,21.33984 -21.33789,12.32031 -12.32227,-21.33984 z m -96.009767,2.5625 12.464847,7.19531 -12.464847,7.19727 z m 137.212887,1.875 7.19532,12.46484 h -14.39258 z m 661.27344,1.91406 v 14.39258 l -12.46484,-7.19531 z m -293.74414,0.0527 h 24.64258 v 24.64062 h -24.64258 z m 149.33594,0 h 14.39258 l -7.19532,12.46289 z m -14.68555,2.5625 12.32031,21.33984 -21.33984,12.32031 -12.32031,-21.33984 z m -148.65039,2.5625 v 14.39062 L 569.375,569.51758 Z m 52.64258,0 12.46289,7.19531 -12.46289,7.19531 z m -346.38672,0.0508 h 24.64063 v 24.64257 h -24.64063 z m 149.33594,0 h 14.39258 l -7.19532,12.46484 h -0.002 z m 334.26172,1.82422 7.19726,12.46289 h -14.39258 l 3.59766,-6.23047 z m -348.94727,0.73828 12.31836,21.33984 -21.33789,12.32031 -12.32031,-21.33789 z m -148.65039,2.5625 v 14.39257 l -12.46484,-7.19531 z m 52.64063,0 12.46484,7.19726 -12.46484,7.19531 z m -197.04883,0.0527 h 14.39257 l -7.19726,12.46484 z m 334.26172,1.82422 7.19531,12.46289 H 456.75 Z m -348.94922,0.73828 12.32031,21.33984 -21.33984,12.32032 -12.320317,-21.33985 z m 716.47851,1.22852 h 24.64258 v 24.64062 h -24.64258 z m -675.27344,3.20898 7.19532,12.46484 h -14.39258 l 3.59766,-6.23242 z m 661.27344,1.91406 v 14.39258 l -12.46484,-7.19726 z m 52.64258,0.002 12.46289,7.19531 -12.46289,7.19531 z m -346.38672,0.0508 h 24.64063 v 24.64062 h -24.64063 z m 149.33594,0 h 14.39258 l -7.19532,12.46484 h -0.002 z m -14.68555,2.5625 12.32031,21.33984 -21.33984,12.32031 -12.32031,-21.33984 z m -96.00976,2.56054 12.46484,7.19727 -12.46484,7.19727 z m -52.64063,0.002 v 14.39258 l -12.46484,-7.19727 z m -293.74609,0.0527 h 24.64258 v 24.64063 h -24.64258 z m 149.33789,0 h 14.39258 l -7.19727,12.46289 z m 334.26172,1.82227 7.19726,12.46484 h -14.39258 z m -348.94922,0.74023 12.32031,21.33985 -21.33984,12.32031 -12.32031,-21.33985 z m -148.65039,2.5625 v 14.39063 l -12.46289,-7.19532 z m 52.64258,0 12.46484,7.19531 -12.46484,7.19532 z m 137.21093,1.87305 h 0.002 l 7.19531,12.46484 h -14.39258 l 3.59766,-6.23242 z m 367.53125,1.9668 h 24.64258 v 24.64257 h -24.64258 z m 149.33594,0 h 14.39258 L 915.9043,603.125 Z m -14.68555,2.5625 12.32032,21.34179 -21.33985,12.32032 -12.32031,-21.33985 z m -809.925777,0.65039 7.197266,12.46289 H 76.900391 Z m 661.275387,1.91211 v 14.39257 l -12.46484,-7.19531 z m 52.64258,0 12.46289,7.19726 -12.46289,7.19531 z m -346.38672,0.0527 h 24.64063 v 24.64258 h -24.64063 z m 149.33594,0 h 14.39258 l -7.19531,12.46484 h -0.002 z m -14.6875,2.5625 12.32031,21.33984 -21.33789,12.32227 -12.32226,-21.3418 z m -148.64844,2.5625 v 14.39258 l -12.46484,-7.19531 v -0.002 z m 52.64063,0 12.46484,7.19727 -12.46484,7.19531 z m -346.38672,0.0527 h 24.64258 v 24.64063 h -24.64258 z m 149.33594,0 h 14.39258 l -7.19532,12.46485 z m 334.26367,1.82227 7.19531,12.46484 H 620.2832 Z m -348.94922,0.74023 12.32031,21.33985 -21.33984,12.32031 -12.32031,-21.33984 z m -148.65039,2.56055 v 14.39258 l -12.46289,-7.19531 z m 52.64258,0 12.46289,7.19727 -12.46289,7.19726 z m 137.21094,1.87695 7.19726,12.46485 h -14.39258 l 3.59766,-6.23242 z m 367.53124,1.9668 h 24.64063 v 24.64063 h -24.64063 z m 149.33594,0 h 14.39258 l -3.59766,6.23242 -3.5996,6.23243 z m -14.68554,2.5625 12.32031,21.33985 -21.3418,12.32031 -12.31836,-21.33985 z m -148.6504,2.5625 V 629.5 l -12.46484,-7.19727 z m 52.64063,0 12.46484,7.19531 -12.46484,7.19727 z m -346.38672,0.0508 h 24.64258 v 24.64258 h -24.64258 z m 149.33789,0 H 543.25 l -7.19727,12.46485 z m 334.26172,1.82422 7.19531,12.46485 h -14.39257 z m -348.94922,0.73828 12.32227,21.3418 -21.3418,12.32031 -12.32031,-21.33984 z m -148.65039,2.5625 v 14.39258 l -12.46289,-7.19531 z m 52.64258,0 12.46289,7.19727 -12.46289,7.19531 z m -197.05078,0.0527 h 14.39258 l -7.19532,12.46484 z m 334.26367,1.82226 7.19531,12.46485 h -14.39258 l 3.59766,-6.23243 z m -348.94922,0.74024 12.32031,21.33984 -21.33984,12.32031 -12.32031,-21.33984 z m -96.00781,2.5625 12.46289,7.19531 v 0.002 l -12.46289,7.19532 z m 137.21094,1.875 7.19726,12.46484 h -14.39258 l 3.59766,-6.23242 z M 908.9043,629.25 v 14.39258 l -12.46485,-7.19531 z m -293.7461,0.0527 h 24.64258 v 24.64063 H 615.1582 Z m 149.33789,0 h 14.39258 l -7.19726,12.46485 z m -14.6875,2.5625 12.32032,21.33985 -21.33985,12.32031 -12.32031,-21.33984 z m -148.65039,2.5625 v 14.39063 l -12.46289,-7.19531 z m 52.64258,0 12.46484,7.19532 -12.46484,7.19726 z m -346.38672,0.0527 h 24.64258 v 24.64062 h -24.64258 z m 149.33594,0 h 14.39258 l -7.19531,12.46289 z m 334.26172,1.82226 h 0.002 l 7.19531,12.46485 h -14.39257 l 3.59765,-6.23242 z m -348.94727,0.74024 12.32032,21.33984 -21.33985,12.32031 -12.32031,-21.33984 z m -148.65039,2.5625 v 14.39062 l -12.46484,-7.19531 z m 52.64258,0 12.46289,7.19531 -12.46289,7.19531 z m -197.05078,0.0508 h 14.39258 l -7.19532,12.46484 z m 334.26172,1.82422 7.19726,12.46289 h -14.39257 l 3.59765,-6.23242 z m -348.94922,0.73828 12.32031,21.33984 -21.33789,12.32032 -12.32031,-21.33789 z m 716.48047,1.22852 h 24.64062 v 24.64062 h -24.64062 z m -675.27539,3.20898 7.19531,12.46484 h -14.39258 z m 661.27539,1.91602 v 14.39062 l -12.46485,-7.19531 z m 52.64062,0 12.46485,7.19531 -12.46485,7.19531 z m -346.38672,0.0508 h 24.64258 v 24.64257 h -24.64258 z m 149.33594,0 h 14.39453 l -7.19726,12.46484 z m -14.68555,2.56445 12.32032,21.33789 -21.33985,12.32031 -12.32031,-21.33984 z m -148.65039,2.56055 v 14.39257 l -12.46484,-7.19531 v -0.002 z m 52.64258,0 12.46485,7.19726 -12.46485,7.19531 z m -346.38672,0.0527 h 24.64063 v 24.64063 h -24.64063 z m 149.33594,0 h 14.39258 l -7.19727,12.46484 z m 334.26172,1.82227 h 0.002 l 7.19532,12.46484 h -14.39258 z m -348.94922,0.74023 12.32227,21.33984 -21.33985,12.32032 -12.32031,-21.33985 z m -148.64844,2.5625 v 14.39063 l -12.46289,-7.19532 z m 52.64063,0 12.46289,7.19531 -12.46289,7.19532 z m -197.048829,0.0527 h 14.392578 l -3.597657,6.23242 -3.599609,6.23047 z m 334.261719,1.82421 7.19531,12.46289 H 403.9668 Z m 367.5293,1.96485 h 24.64062 v 24.64062 h -24.64062 z m -675.27344,3.20898 7.19531,12.46485 H 96.220703 Z m 661.27344,1.91602 v 14.39258 l -12.46485,-7.19727 z m 52.64062,0 12.46485,7.19531 -12.46485,7.19727 z m -346.38476,0.0508 h 24.64257 v 24.64258 h -24.64257 z m 149.33593,0 h 14.39258 l -3.59766,6.23242 -3.59765,6.23242 z m -14.68554,2.5625 12.32226,21.3418 -21.3418,12.32031 -12.32226,-21.3418 z m -148.65039,2.5625 v 14.39258 l -12.46485,-7.19532 v -0.002 z m 52.64257,0 12.46485,7.19726 -12.46485,7.19532 z m -346.38867,0.0527 h 24.64258 v 24.64258 h -24.64258 z m 149.33789,0 h 14.39258 l -7.19726,12.46485 z m 334.26172,1.82422 7.19531,12.46289 h -14.39062 l 3.59765,-6.23242 z m -348.94922,0.73828 12.32032,21.33985 -21.33985,12.32031 -12.32031,-21.33984 z m -148.65039,2.5625 v 14.39258 l -12.46289,-7.19726 z m 52.64258,0 12.46484,7.19532 -12.46484,7.19726 z m 137.21289,1.875 7.19531,12.46485 h -14.39257 z m 367.5293,1.9668 h 24.64062 v 24.64258 h -24.64062 z m 149.33594,0 h 14.39257 l -3.59765,6.23242 -3.59766,6.23242 z m -14.68555,2.5625 12.32031,21.33984 -21.33984,12.32032 -12.32227,-21.33985 z m -148.65039,2.5625 v 14.39258 l -12.46485,-7.19531 v -0.002 z m 52.64062,0 12.46485,7.19727 -12.46485,7.19531 z m -346.38476,0.0527 h 24.64062 v 24.64063 H 398.8418 Z m 149.33593,0 h 14.39258 l -7.19531,12.46485 h -0.002 z m 334.26172,1.82227 7.19532,12.46484 h -14.39063 z m -348.94922,0.74023 12.32032,21.33985 -21.33985,12.32031 -12.31836,-21.33984 z m -148.64843,2.5625 v 14.39063 l -12.46289,-7.19531 z m 52.64062,0 12.46485,7.19532 -12.46485,7.19726 z m -346.386717,0.0508 h 24.642577 v 24.64257 H 91.095703 Z m 149.337887,0 h 14.39063 l -7.19531,12.46289 z m 334.26172,1.82421 7.19531,12.46485 h -14.39257 l 3.59961,-6.23242 z m -348.94922,0.73829 12.32032,21.33984 -21.33985,12.32031 -12.32031,-21.33984 z m -148.650387,2.5625 v 14.39257 l -12.464844,-7.19726 z m 52.642577,0 12.46484,7.19531 v 0.002 l -12.46484,7.19531 z m 137.21094,1.875 7.19726,12.46484 h -14.39257 z m 367.53125,1.96679 h 24.64062 v 24.64258 h -24.64062 z m 149.33594,0 h 14.39257 l -7.19726,12.46485 z m -14.68555,2.5625 12.32031,21.33985 -21.34179,12.32226 -12.32032,-21.34179 z m -148.65039,2.5625 v 14.39258 l -12.46485,-7.19531 z m 52.64062,0 12.46485,7.19727 -12.46485,7.19531 z m -346.38671,0.0527 h 24.64257 v 24.64062 h -24.64257 z m 149.33789,0 h 14.39257 l -7.19726,12.46484 z m 334.26171,1.82226 7.19532,12.46485 h -14.39063 z m -348.94921,0.74024 12.32031,21.33984 -21.33985,12.32031 -12.32031,-21.33984 z m -148.65039,2.5625 v 14.39258 l -12.46485,-7.19727 z m 52.64257,0 12.46485,7.19531 -12.46485,7.19727 z m -197.05078,0.0527 h 14.39258 l -3.59766,6.23242 -3.59765,6.23047 z m 334.26367,1.82227 7.19532,12.46484 h -14.39258 z m -348.94922,0.74023 12.32032,21.33985 -21.33985,12.32031 -12.32031,-21.33985 z m 716.47852,1.22656 h 24.64063 v 24.64063 h -24.64063 z m -675.27539,3.21094 7.19531,12.46289 h -14.39062 z m 661.27539,1.91406 v 14.39063 l -12.46289,-7.19531 z m 52.64063,0 12.46484,7.19532 -12.46484,7.19531 z m -346.38672,0.0527 h 24.64257 v 24.64062 h -24.64257 z m 149.33789,0 h 14.39062 l -3.59765,6.23047 -3.59766,6.23242 z m -14.6875,2.5625 12.32031,21.33984 -21.33984,12.32031 -12.32032,-21.34179 z m -148.65039,2.56055 v 14.39257 l -12.46485,-7.19531 z m 52.64257,0 12.46485,7.19726 -12.46485,7.19531 z m -346.38671,0.0527 h 24.64062 v 24.64258 h -24.64062 z m 149.33593,0 h 14.39258 l -3.59765,6.23242 -3.59766,6.23242 z m 334.26172,1.82422 7.19727,12.46289 h -14.39258 z m -348.94726,0.73828 12.32031,21.33984 -21.33984,12.32032 -12.32227,-21.33985 z m -148.65039,2.5625 v 14.39258 l -12.46485,-7.19727 z m 52.64062,0 12.46485,7.19531 -12.46485,7.19727 z m -197.048827,0.0527 h 14.392577 l -3.59766,6.23243 -3.59765,6.23242 h -0.002 z m 334.261717,1.82422 7.19531,12.46289 h -14.39062 z m 367.53125,1.96485 h 24.64063 v 24.64257 h -24.64063 z m -675.27539,3.21093 7.19531,12.46485 h -14.39257 z m 661.27539,1.91407 v 14.39257 l -12.46484,-7.19726 z m 52.64063,0 12.46484,7.19531 -12.46484,7.19726 z m -346.38672,0.0527 h 24.64062 v 24.64063 h -24.64062 z m 149.33789,0 h 14.39062 l -7.19531,12.46484 z m -14.6875,2.5625 12.32031,21.33984 -21.33984,12.32032 -12.32032,-21.33985 z m -148.65039,2.56055 v 14.39258 l -12.46485,-7.19532 z m 52.64062,0.002 12.46289,7.19531 -12.46289,7.19532 z m -346.38476,0.0508 h 24.64062 v 24.64258 h -24.64062 z m 149.33594,0 h 14.39257 l -7.19531,12.46485 z m 334.26171,1.82422 7.19532,12.46484 h -14.39063 z m -348.94726,0.73633 12.32031,21.34375 -21.3418,12.32031 -12.32031,-21.34179 z m -148.65039,2.56445 v 14.39258 l -12.46485,-7.19726 z m 52.64062,0 12.46485,7.19532 v 0.002 l -12.46485,7.19531 z m 137.21289,1.875 7.19532,12.46485 h -14.39258 l 3.59765,-6.23243 z m 367.5293,1.9668 h 24.64258 v 24.64258 h -24.64258 z m 149.33789,0 h 14.39063 l -3.59766,6.23242 -3.59766,6.23047 z m -14.6875,2.5625 12.32031,21.3418 -21.33984,12.31836 -12.32031,-21.33985 z m -148.65039,2.5625 v 14.39258 l -12.46484,-7.19532 z m 52.64258,0 12.46484,7.19726 -12.46484,7.19532 z m -346.38672,0.0527 h 24.64062 v 24.64258 h -24.64062 z m 149.33594,0 h 14.39257 l -7.19531,12.46485 z m 334.26172,1.82227 7.19726,12.46484 h -14.39258 z m -348.94727,0.73828 12.32031,21.3418 -21.33984,12.32031 -12.32227,-21.33984 z m -148.65039,2.56445 v 14.39258 l -12.46484,-7.19726 z m 52.64062,0 12.46485,7.19532 -12.46485,7.19726 z m -346.38476,0.0527 h 24.64062 v 24.64062 h -24.64062 z m 149.33594,0 h 14.39062 l -7.19531,12.46484 z m 334.26171,1.82226 7.19532,12.46485 h -14.39063 z m -348.94921,0.74024 12.32031,21.33984 -21.33984,12.31836 -12.32032,-21.33789 z m -148.648441,2.56055 v 14.39257 l -12.464844,-7.19531 z m 52.640621,0 12.46485,7.19726 -12.46485,7.19531 z m 137.21094,1.87695 7.19727,12.46484 h -14.39258 z m 367.53125,1.96679 h 24.64063 v 24.64063 h -24.64063 z m 149.33789,0 h 14.39063 l -3.59766,6.23047 -3.59766,6.23243 z m -14.6875,2.5625 12.31836,21.3379 -21.33789,12.32226 -12.32031,-21.33984 z m -148.65039,2.5625 v 14.39063 l -12.46484,-7.19531 z m 52.64063,0 12.46289,7.19532 -12.46289,7.19531 z m -346.38477,0.0508 h 24.64063 v 24.64062 h -24.64063 z m 149.33594,0 h 14.39258 l -7.19532,12.46484 h -0.002 z m 334.26172,1.82421 7.19531,12.4629 h -14.39258 z m -348.94922,0.73829 12.32226,21.33984 -21.34179,12.32031 -12.32032,-21.33984 z m -148.64844,2.5625 v 14.39257 l -12.46484,-7.19726 z m 52.64063,0 12.46484,7.19531 v 0.002 l -12.46484,7.19531 z m -197.04883,0.0527 h 14.39062 l -7.19531,12.46289 z m 334.26172,1.82227 7.19531,12.46484 h -14.39258 z m -348.94922,0.74023 12.32031,21.33984 -21.33984,12.32032 -12.32032,-21.33985 z m 716.47851,1.22656 h 24.64063 v 24.64258 h -24.64063 z m -675.27539,3.21094 7.19532,12.46289 h -14.39063 z m 713.91602,1.91211 12.46484,7.19727 -12.46484,7.19726 z m -52.64063,0.002 v 14.39258 l -12.46484,-7.19726 z m -293.74414,0.0527 h 24.64063 v 24.64062 h -24.64063 z m 149.33594,0 h 14.39258 l -3.59961,6.23242 -3.59766,6.23242 z m -14.6875,2.5625 12.32031,21.33984 -21.33984,12.32031 -12.32031,-21.33984 z m -148.64844,2.5625 v 14.39062 l -12.46289,-7.19531 z m 52.64063,0 12.46484,7.19531 -12.46484,7.19531 z m -346.38672,0.0527 h 24.64258 v 24.64063 h -24.64258 z m 149.33789,0 h 14.39062 l -7.19531,12.46289 z m 334.25977,1.82227 h 0.002 l 7.19531,12.46484 h -14.39258 z m -348.94727,0.74023 12.32031,21.33985 -21.33984,12.32031 -12.32031,-21.3418 z m -148.65039,2.56055 v 14.39258 l -12.46484,-7.19532 z m 52.64258,0.002 12.46484,7.19531 -12.46484,7.19532 z m -197.05078,0.0508 h 14.39257 l -3.59765,6.23243 -3.59766,6.23242 z M 449.80273,805.01367 457,817.47656 h -14.39258 z m 367.5293,1.96485 h 24.64258 v 24.64257 h -24.64258 z m -675.27344,3.21093 7.19532,12.46485 h -14.39063 z m 661.27344,1.91407 v 14.39257 l -12.46289,-7.19531 v -0.002 z m 52.64258,0 12.46484,7.19726 -12.46484,7.19531 z m -346.38477,0.0527 h 24.64063 v 24.64258 h -24.64063 z m 149.33594,0 h 14.39063 l -3.59766,6.23242 -3.59766,6.23047 z m -14.6875,2.5625 12.32031,21.33984 -21.33984,12.32032 -12.32031,-21.33985 z m -148.64844,2.5625 v 14.39258 L 483.125,824.47656 Z m 52.64063,0 12.46484,7.19531 -12.46484,7.19727 z m -346.38672,0.0508 h 24.64063 v 24.64258 h -24.64063 z m 149.33594,0 h 14.39258 l -3.59766,6.23438 -3.59766,6.23242 z m 334.26172,1.82422 7.19726,12.46484 h -14.39258 z m -348.94727,0.73828 12.32031,21.3418 -21.33984,12.32031 -12.32031,-21.33984 z m -148.65039,2.5625 v 14.39258 l -12.46484,-7.19531 z m 52.64063,0 12.46484,7.19727 -12.46484,7.19531 z m 137.21289,1.87695 7.19531,12.46485 H 370.5 Z m 367.52929,1.9668 h 24.64258 v 24.64063 h -24.64258 z m 149.33789,0 h 14.39063 l -7.19531,12.46289 z m -14.6875,2.5625 12.32032,21.33984 -21.33985,12.32032 -12.32031,-21.33985 z m -148.65039,2.56055 v 14.39258 l -12.46289,-7.19532 z m 52.64258,0.002 12.46289,7.19531 -12.46289,7.19532 z m -346.38672,0.0508 h 24.64063 v 24.64258 h -24.64063 z m 149.33789,0 h 14.39063 l -3.59766,6.23242 -3.59766,6.23047 z m 334.26172,1.82422 7.19531,12.46484 h -14.39257 z m -348.94922,0.73828 12.32031,21.33985 -21.33984,12.32031 -12.32031,-21.33984 z m -148.65039,2.5625 v 14.39258 l -12.46484,-7.19726 z m 52.64063,0 12.46679,7.19532 v 0.002 l -12.46679,7.19531 z m -346.38477,0.0527 h 24.64063 v 24.64258 h -24.64063 z m 149.33594,0 h 14.39258 l -7.19727,12.46484 z m 334.26172,1.82226 7.19726,12.46485 h -14.39258 z m -348.94922,0.74024 12.32031,21.33984 -21.33984,12.32031 -12.32031,-21.33984 z m -148.64844,2.5625 v 14.39258 l -12.46484,-7.19727 z m 52.64063,0 12.46484,7.19531 -12.46484,7.19727 z m 137.21093,1.875 h 0.002 l 7.19531,12.46484 h -14.39258 z m 367.53125,1.96679 h 24.64258 v 24.64063 h -24.64258 z m 149.33594,0 h 14.39258 l -7.19531,12.46289 z m -14.68555,2.5625 12.32032,21.33985 -21.33985,12.32031 -12.32031,-21.33984 z m -148.65039,2.5625 v 14.39063 l -12.46484,-7.19531 z m 52.64258,0 12.46289,7.19532 -12.46289,7.19531 z m -346.38672,0.0527 h 24.64063 v 24.64062 h -24.64063 z m 149.33594,0 h 14.39258 l -3.59766,6.23242 -3.59765,6.23242 h -0.002 z m 334.26172,1.82226 7.19727,12.46485 H 841.7793 Z m -348.94727,0.74024 12.31836,21.33789 -21.33789,12.32031 -12.32226,-21.33789 z m -148.65039,2.56055 v 14.39453 l -12.46484,-7.19727 z m 52.64063,0 12.46484,7.19726 -12.46484,7.19531 z m -197.04883,0.0527 h 14.39063 l -7.19532,12.46289 z m 334.26172,1.82422 7.19531,12.46289 H 534.0332 Z m -348.94922,0.73828 12.32031,21.33984 -21.33984,12.32032 -12.32031,-21.33985 z m -96.007812,2.5625 12.464842,7.19727 -12.464842,7.19531 z m 137.210942,1.875 h 0.002 l 7.19531,12.46484 h -14.39258 z m 661.27539,1.91601 v 14.39063 l -12.46289,-7.19531 z m -293.74415,0.0508 h 24.64063 v 24.64062 h -24.64063 z m 149.33594,0 h 14.39258 l -3.59766,6.23242 -3.5996,6.23242 z m -14.6875,2.5625 12.32227,21.33984 -21.33985,12.32031 -12.32031,-21.33984 z m -148.64844,2.5625 v 14.39062 l -12.46289,-7.19531 z m 52.64063,0 12.46484,7.19531 -12.46484,7.19726 z m -346.38672,0.0527 h 24.64258 v 24.64063 h -24.64258 z m 149.33789,0 h 14.39063 l -7.19532,12.46289 z m 334.26172,1.82227 7.19531,12.46484 h -14.39257 z m -348.94726,0.74023 12.32031,21.33984 -21.3418,12.32032 -12.32031,-21.33985 z m -148.65235,2.5625 v 14.39063 l -12.46289,-7.19532 z m 52.64258,0 12.46289,7.19531 -12.46289,7.19532 z m -197.04883,0.0527 h 14.39063 l -3.59766,6.23046 -3.59766,6.23243 z m 334.26172,1.82226 7.19531,12.46289 h -14.39258 z m -348.94922,0.74024 12.32031,21.33789 -21.33984,12.32031 -12.320312,-21.33985 z m 716.47852,1.22656 h 24.64258 v 24.64062 H 836.6543 Z m -675.27539,3.21094 7.19726,12.46289 h -14.39258 z m 661.27539,1.9121 v 14.39258 l -12.46485,-7.19531 z m 52.64258,0 12.46289,7.19727 -12.46289,7.19531 z m -346.38868,0.0527 h 24.64258 V 908.9043 H 528.9082 Z m 149.33789,0 h 14.39258 l -7.19726,12.46484 z m -163.33789,5.125 v 14.39258 l -12.46484,-7.19727 z m 52.64258,0 12.46484,7.19531 v 0.002 l -12.46484,7.19532 z m -346.38672,0.0527 h 24.64258 v 24.64063 h -24.64258 z m 149.33594,0 h 14.39258 l -3.59766,6.23243 -3.59765,6.23242 z m 334.26172,1.82227 h 0.002 l 7.19531,12.46484 h -14.39257 z m -497.59766,3.30273 v 14.39063 l -12.46289,-7.19531 z m 52.64258,0 12.46289,7.19532 -12.46289,7.19726 z m 137.21094,1.875 7.19726,12.46485 h -14.39257 z m -307.744142,5.17578 7.195312,12.46485 H 82.076172 Z m 661.275392,1.91602 v 14.39258 l -12.46485,-7.19727 z m 52.64062,0 12.46485,7.19531 -12.46485,7.19727 z m -197.04883,0.0508 h 14.39258 l -7.19726,12.46485 z m -163.33789,5.125 v 14.39258 l -12.46289,-7.19531 z m 52.64258,0 12.46289,7.19727 -12.46289,7.19531 z m -197.05078,0.0527 h 14.39258 l -7.19727,12.46484 z m -163.33594,5.125 v 14.39257 l -12.46484,-7.19531 z m 52.64063,0 12.46484,7.19726 -12.46484,7.19531 z m 654.08008,3.84179 h 14.39258 l -7.19727,12.46485 z m -307.7461,5.17774 h 14.39258 l -7.19531,12.46289 z m -307.74414,5.17578 h 14.39258 l -7.19726,12.46484 z" />
</svg>
