<?xml version="1.0" encoding="UTF-8" standalone="no"?>
<svg
   xmlns:dc="http://purl.org/dc/elements/1.1/"
   xmlns:cc="http://creativecommons.org/ns#"
   xmlns:rdf="http://www.w3.org/1999/02/22-rdf-syntax-ns#"
   xmlns:svg="http://www.w3.org/2000/svg"
   xmlns="http://www.w3.org/2000/svg"
   xmlns:sodipodi="http://sodipodi.sourceforge.net/DTD/sodipodi-0.dtd"
   xmlns:inkscape="http://www.inkscape.org/namespaces/inkscape"
   version="1.0"
   width="978.4113"
   height="1000.00006"
   id="svg99720"
   sodipodi:docname="2-uniform_n16.svg"
   inkscape:version="1.0beta1 (32d4812, 2019-09-19)">
  <style
     id="style2587"></style>
  <metadata
     id="metadata99726">
    <rdf:RDF>
      <cc:Work
         rdf:about="">
        <dc:format>image/svg+xml</dc:format>
        <dc:type
           rdf:resource="http://purl.org/dc/dcmitype/StillImage" />
        <dc:title></dc:title>
      </cc:Work>
    </rdf:RDF>
  </metadata>
  <defs
     id="defs99724" />
  <sodipodi:namedview
     pagecolor="#ffffff"
     bordercolor="#666666"
     inkscape:document-rotation="0"
     borderopacity="1"
     objecttolerance="10"
     gridtolerance="10"
     guidetolerance="10"
     inkscape:pageopacity="0"
     inkscape:pageshadow="2"
     inkscape:window-width="1680"
     inkscape:window-height="1005"
     id="namedview99722"
     showgrid="false"
     inkscape:zoom="0.60180038"
     inkscape:cx="326.77525"
     inkscape:cy="559.86181"
     inkscape:window-x="0"
     inkscape:window-y="23"
     inkscape:window-maximized="1"
     inkscape:current-layer="svg99720" />
  <!-- X Coordinate transform: fx(x)=(x+72.17139)*0.85499847-->
  <!-- Y Coordinate transform: fy(y)=(1072.2964-y)*0.85499847 -->
  <path
     id="path2591"
     d="M 70.240234 -7.1738281 L 12.21875 26.324219 L 22.71875 32.386719 L 53.679688 50.261719 L 37.824219 77.722656 L 34.865234 77.722656 L 34.865234 80.681641 L -9.15625 106.09766 L 34.865234 131.51367 L 34.865234 134.47266 L 37.826172 134.47266 L 53.679688 161.93359 L 26.21875 177.78711 L 19.21875 173.74609 L 19.21875 181.82812 L 12.21875 185.86914 L 19.21875 189.91016 L 19.21875 224.57812 L 12.21875 228.61914 L 19.21875 232.66016 L 19.21875 240.74414 L 26.21875 236.70312 L 53.679688 252.55664 L 37.824219 280.01758 L 34.865234 280.01758 L 34.865234 282.97656 L -9.15625 308.39258 L 34.865234 333.80859 L 34.865234 336.76758 L 37.826172 336.76758 L 53.679688 364.22852 L 26.21875 380.08203 L 19.21875 376.04102 L 19.21875 384.12305 L 12.21875 388.16406 L 19.21875 392.20508 L 19.21875 426.87305 L 12.21875 430.91406 L 19.21875 434.95508 L 19.21875 443.03906 L 26.21875 438.99805 L 53.679688 454.85156 L 37.824219 482.3125 L 34.865234 482.3125 L 34.865234 485.27148 L -9.15625 510.6875 L 34.865234 536.10352 L 34.865234 539.0625 L 37.824219 539.0625 L 53.677734 566.52344 L 26.21875 582.37695 L 19.21875 578.33594 L 19.21875 586.41992 L 12.21875 590.46094 L 19.21875 594.50195 L 19.21875 629.16992 L 12.21875 633.21094 L 19.21875 637.25195 L 19.21875 645.33398 L 26.21875 641.29297 L 53.679688 657.14648 L 37.824219 684.60742 L 34.865234 684.60742 L 34.865234 687.56641 L -9.15625 712.98242 L 34.865234 738.39844 L 34.865234 741.35742 L 37.824219 741.35742 L 53.677734 768.81836 L 26.21875 784.67188 L 19.21875 780.63086 L 19.21875 788.71484 L 12.21875 792.75586 L 19.21875 796.79688 L 19.21875 831.46484 L 12.21875 835.50586 L 19.21875 839.54688 L 19.21875 847.62891 L 26.21875 843.58789 L 53.679688 859.44141 L 37.824219 886.90234 L 34.865234 886.90234 L 34.865234 889.86133 L -9.15625 915.27734 L 34.865234 940.69336 L 34.865234 943.65234 L 37.826172 943.65234 L 63.240234 987.67578 L 84.615234 950.65234 L 105.99023 987.67578 L 129.92773 946.21484 L 157.38867 962.07031 L 157.38867 965.02734 L 160.34766 965.02734 L 185.76367 1009.0508 L 211.17969 965.02734 L 214.13867 965.02734 L 214.13867 962.06836 L 241.59961 946.21484 L 265.53516 987.67578 L 286.91016 950.65234 L 308.28516 987.67578 L 332.22266 946.21484 L 359.68359 962.07031 L 359.68359 965.02734 L 362.64258 965.02734 L 388.05859 1009.0508 L 413.47461 965.02734 L 416.43359 965.02734 L 416.43359 962.06836 L 443.89453 946.21484 L 467.83008 987.67578 L 489.20508 950.65234 L 510.58008 987.67578 L 534.51758 946.21484 L 561.97852 962.06836 L 561.97852 965.02734 L 564.93555 965.02734 L 590.35352 1009.0508 L 615.76953 965.02734 L 618.72852 965.02734 L 618.72852 962.06836 L 646.18945 946.21484 L 670.125 987.67578 L 691.5 950.6543 L 712.875 987.67578 L 736.8125 946.21484 L 764.27344 962.06836 L 764.27344 965.02734 L 767.23047 965.02734 L 792.64844 1009.0508 L 818.06445 965.02734 L 821.02344 965.02734 L 821.02344 962.06836 L 848.48242 946.21484 L 872.41992 987.67578 L 893.79492 950.6543 L 915.16992 987.67578 L 940.58789 943.65234 L 943.54492 943.65234 L 943.54492 940.69336 L 987.56836 915.27734 L 943.54492 889.85938 L 943.54492 886.90234 L 940.58594 886.90234 L 924.73242 859.44141 L 952.19336 843.58789 L 959.19336 847.62891 L 959.19336 839.54688 L 966.19336 835.50586 L 959.19336 831.46484 L 959.19336 796.79688 L 966.19336 792.75586 L 959.19336 788.71484 L 959.19336 780.63086 L 952.19336 784.67188 L 924.73242 768.81836 L 940.58789 741.35742 L 943.54492 741.35742 L 943.54492 738.39844 L 987.56836 712.98242 L 943.54492 687.56445 L 943.54492 684.60742 L 940.58594 684.60742 L 924.73242 657.14648 L 952.19336 641.29297 L 959.19336 645.33398 L 959.19336 637.25195 L 966.19336 633.21094 L 959.19336 629.16992 L 959.19336 594.50195 L 966.19336 590.46094 L 959.19336 586.41992 L 959.19336 578.33594 L 952.19336 582.37695 L 924.73242 566.52344 L 940.58789 539.0625 L 943.54492 539.0625 L 943.54492 536.10352 L 987.56836 510.6875 L 943.54492 485.27148 L 943.54492 482.3125 L 940.58789 482.3125 L 924.73242 454.85156 L 952.19336 438.99805 L 959.19336 443.03906 L 959.19336 434.95508 L 966.19336 430.91406 L 959.19336 426.87305 L 959.19336 392.20508 L 966.19336 388.16406 L 959.19336 384.12305 L 959.19336 376.04102 L 952.19336 380.08203 L 924.73242 364.22852 L 940.58594 336.76758 L 943.54492 336.76758 L 943.54492 333.81055 L 987.56836 308.39258 L 943.54492 282.97656 L 943.54492 280.01758 L 940.58789 280.01758 L 924.73242 252.55664 L 952.19336 236.70312 L 959.19336 240.74414 L 959.19336 232.66016 L 966.19336 228.61914 L 959.19336 224.57812 L 959.19336 189.91016 L 966.19336 185.86914 L 959.19336 181.82812 L 959.19336 173.74609 L 952.19336 177.78711 L 924.73242 161.93359 L 940.58594 134.47266 L 943.54492 134.47266 L 943.54492 131.51562 L 987.56836 106.09766 L 943.54492 80.681641 L 943.54492 77.722656 L 940.58789 77.722656 L 924.73242 50.261719 L 966.19336 26.324219 L 955.69336 20.263672 L 908.16992 -7.1738281 L 908.16992 40.699219 L 879.41992 40.699219 L 879.41992 -7.1738281 L 833.52344 19.324219 L 804.77148 19.324219 L 796.68945 19.324219 L 792.64844 12.324219 L 788.60742 19.324219 L 780.52344 19.324219 L 751.77148 19.324219 L 705.875 -7.1738281 L 705.875 40.699219 L 677.125 40.699219 L 677.125 -7.1738281 L 631.22852 19.324219 L 602.47656 19.324219 L 594.39453 19.324219 L 590.35352 12.324219 L 586.3125 19.324219 L 578.22852 19.324219 L 549.47656 19.324219 L 503.58008 -7.1738281 L 503.58008 40.699219 L 474.83008 40.699219 L 474.83008 -7.1738281 L 428.93359 19.324219 L 400.18164 19.324219 L 392.09961 19.324219 L 388.05859 12.324219 L 384.01758 19.324219 L 375.93359 19.324219 L 347.18359 19.324219 L 301.28516 -7.1738281 L 301.28516 40.699219 L 272.53516 40.699219 L 272.53516 -7.1738281 L 226.63867 19.324219 L 197.88672 19.324219 L 189.80469 19.324219 L 185.76367 12.324219 L 181.72266 19.324219 L 173.63867 19.324219 L 144.88867 19.324219 L 98.990234 -7.1738281 L 98.990234 40.699219 L 70.240234 40.699219 L 70.240234 -7.1738281 z M 56.240234 17.074219 L 56.240234 35.576172 L 40.216797 26.324219 L 56.240234 17.074219 z M 112.99023 17.074219 L 129.01367 26.324219 L 112.99023 35.576172 L 112.99023 17.074219 z M 258.53516 17.074219 L 258.53516 35.576172 L 242.51172 26.324219 L 258.53516 17.074219 z M 315.28516 17.074219 L 331.30859 26.324219 L 315.28516 35.576172 L 315.28516 17.074219 z M 460.83008 17.074219 L 460.83008 35.576172 L 444.80664 26.324219 L 460.83008 17.074219 z M 517.58008 17.074219 L 533.60352 26.324219 L 517.58008 35.576172 L 517.58008 17.074219 z M 663.125 17.074219 L 663.125 35.576172 L 647.10156 26.324219 L 663.125 17.074219 z M 719.875 17.074219 L 735.89844 26.324219 L 719.875 35.576172 L 719.875 17.074219 z M 865.41992 17.074219 L 865.41992 35.576172 L 849.39648 26.324219 L 865.41992 17.074219 z M 922.16992 17.074219 L 938.19336 26.324219 L 922.16992 35.576172 L 922.16992 17.074219 z M 155.13867 33.324219 L 173.63867 33.324219 L 164.38867 49.345703 L 155.13867 33.324219 z M 197.88672 33.324219 L 216.38867 33.324219 L 207.13867 49.347656 L 207.13672 49.347656 L 197.88672 33.324219 z M 357.43359 33.324219 L 375.93359 33.324219 L 366.68359 49.345703 L 357.43359 33.324219 z M 400.18359 33.324219 L 418.68359 33.324219 L 409.43359 49.347656 L 400.18359 33.324219 z M 559.72852 33.324219 L 578.22852 33.324219 L 568.97852 49.345703 L 559.72852 33.324219 z M 602.47852 33.324219 L 620.97852 33.324219 L 611.72852 49.347656 L 602.47852 33.324219 z M 762.02344 33.324219 L 780.52344 33.324219 L 771.27344 49.345703 L 762.02344 33.324219 z M 804.77344 33.324219 L 823.27344 33.324219 L 814.02344 49.347656 L 804.77344 33.324219 z M 140.45117 35.886719 L 154.82617 60.785156 L 129.92773 75.160156 L 115.55273 50.261719 L 140.45117 35.886719 z M 231.07422 35.886719 L 255.97461 50.261719 L 241.59961 75.162109 L 216.69922 60.785156 L 231.07422 35.886719 z M 342.74609 35.886719 L 357.12109 60.785156 L 332.22266 75.160156 L 317.84766 50.261719 L 342.74609 35.886719 z M 433.36914 35.886719 L 458.26953 50.261719 L 443.89453 75.160156 L 418.99414 60.785156 L 433.36914 35.886719 z M 545.04102 35.886719 L 559.41602 60.785156 L 534.51758 75.160156 L 520.14258 50.261719 L 545.04102 35.886719 z M 635.66406 35.886719 L 660.5625 50.261719 L 646.1875 75.160156 L 621.28906 60.785156 L 635.66406 35.886719 z M 747.33594 35.886719 L 761.71094 60.785156 L 736.8125 75.160156 L 722.4375 50.261719 L 747.33594 35.886719 z M 837.95898 35.886719 L 862.85742 50.261719 L 848.48242 75.160156 L 823.58594 60.785156 L 837.95898 35.886719 z M 185.76172 40.324219 L 185.76367 40.324219 L 195.01367 56.347656 L 176.51172 56.347656 L 185.76172 40.324219 z M 388.05859 40.324219 L 397.30859 56.347656 L 378.80859 56.347656 L 388.05859 40.324219 z M 590.35352 40.324219 L 594.97852 48.335938 L 599.60352 56.347656 L 581.10352 56.347656 L 590.35352 40.324219 z M 792.64844 40.324219 L 797.27344 48.335938 L 801.89844 56.347656 L 783.39844 56.347656 L 792.64844 40.324219 z M 75.365234 54.699219 L 93.867188 54.699219 L 84.617188 70.722656 L 84.615234 70.722656 L 75.365234 54.699219 z M 277.66016 54.699219 L 296.16211 54.699219 L 286.91211 70.722656 L 286.91016 70.722656 L 277.66016 54.699219 z M 479.95508 54.699219 L 498.45703 54.699219 L 489.20703 70.722656 L 489.20508 70.722656 L 479.95508 54.699219 z M 682.25 54.699219 L 700.75 54.699219 L 691.5 70.720703 L 682.25 54.699219 z M 884.54492 54.699219 L 903.04492 54.699219 L 893.79492 70.720703 L 884.54492 54.699219 z M 63.240234 61.699219 L 63.242188 61.699219 L 72.492188 77.722656 L 53.990234 77.722656 L 63.240234 61.699219 z M 105.99219 61.699219 L 115.24219 77.722656 L 96.740234 77.722656 L 101.36523 69.710938 L 105.99219 61.699219 z M 265.53516 61.699219 L 274.78711 77.722656 L 256.28516 77.722656 L 265.53516 61.699219 z M 308.28516 61.699219 L 308.28711 61.699219 L 317.53711 77.722656 L 299.03516 77.722656 L 303.66016 69.710938 L 308.28516 61.699219 z M 467.83008 61.699219 L 467.83203 61.699219 L 477.08203 77.722656 L 458.58008 77.722656 L 467.83008 61.699219 z M 510.58203 61.699219 L 519.83203 77.722656 L 501.33008 77.722656 L 505.95508 69.710938 L 510.58203 61.699219 z M 670.125 61.699219 L 674.75 69.710938 L 679.375 77.722656 L 660.875 77.722656 L 670.125 61.699219 z M 712.875 61.699219 L 722.125 77.722656 L 703.625 77.722656 L 708.25 69.710938 L 712.875 61.699219 z M 872.41992 61.699219 L 877.04492 69.710938 L 881.66992 77.722656 L 863.16992 77.722656 L 872.41992 61.699219 z M 915.16992 61.699219 L 924.41992 77.722656 L 905.91992 77.722656 L 910.54492 69.710938 L 915.16992 61.699219 z M 171.38867 70.347656 L 200.13867 70.347656 L 200.13867 93.974609 L 200.13867 99.097656 L 171.38867 99.097656 L 171.38867 93.972656 L 171.38867 70.347656 z M 373.68359 70.347656 L 402.43359 70.347656 L 402.43359 93.974609 L 402.43359 99.097656 L 373.68359 99.097656 L 373.68359 93.972656 L 373.68359 70.347656 z M 575.97852 70.347656 L 604.72852 70.347656 L 604.72852 93.974609 L 604.72852 99.097656 L 575.97852 99.097656 L 575.97852 93.972656 L 575.97852 70.347656 z M 778.27344 70.347656 L 807.02344 70.347656 L 807.02344 93.972656 L 807.02344 99.097656 L 778.27344 99.097656 L 778.27344 93.974609 L 778.27344 70.347656 z M 157.38867 75.472656 L 157.38867 93.972656 L 141.36523 84.722656 L 157.38867 75.472656 z M 214.13867 75.472656 L 230.16016 84.722656 L 214.13867 93.972656 L 214.13867 75.472656 z M 359.68359 75.472656 L 359.68359 93.972656 L 343.66016 84.722656 L 359.68359 75.472656 z M 416.43359 75.472656 L 432.45508 84.722656 L 416.43359 93.972656 L 416.43359 75.472656 z M 561.97852 75.472656 L 561.97852 93.972656 L 545.95703 84.722656 L 561.97852 75.472656 z M 618.72852 75.472656 L 634.75195 84.722656 L 618.72852 93.972656 L 618.72852 75.472656 z M 764.27344 75.472656 L 764.27344 93.972656 L 748.25 84.722656 L 764.27344 75.472656 z M 821.02344 75.472656 L 837.04492 84.722656 L 821.02344 93.972656 L 821.02344 75.472656 z M 48.865234 91.722656 L 72.492188 91.722656 L 77.615234 91.722656 L 77.615234 120.47266 L 72.492188 120.47266 L 48.865234 120.47266 L 48.865234 91.722656 z M 91.615234 91.722656 L 96.740234 91.722656 L 120.36523 91.722656 L 120.36523 120.47266 L 96.740234 120.47266 L 91.615234 120.47266 L 91.615234 91.722656 z M 251.16016 91.722656 L 274.78711 91.722656 L 279.91016 91.722656 L 279.91016 120.47266 L 274.78711 120.47266 L 251.16016 120.47266 L 251.16016 91.722656 z M 293.91016 91.722656 L 299.03516 91.722656 L 322.66016 91.722656 L 322.66016 120.47266 L 299.03516 120.47266 L 293.91016 120.47266 L 293.91016 91.722656 z M 453.45508 91.722656 L 477.08203 91.722656 L 482.20508 91.722656 L 482.20508 120.47266 L 477.08203 120.47266 L 453.45508 120.47266 L 453.45508 91.722656 z M 496.20508 91.722656 L 501.33008 91.722656 L 524.95508 91.722656 L 524.95508 120.47266 L 501.33008 120.47266 L 496.20508 120.47266 L 496.20508 91.722656 z M 655.75195 91.722656 L 679.375 91.722656 L 684.5 91.722656 L 684.5 120.47266 L 679.375 120.47266 L 655.75195 120.47266 L 655.75195 91.722656 z M 698.5 91.722656 L 703.625 91.722656 L 727.25 91.722656 L 727.25 120.47266 L 703.625 120.47266 L 698.5 120.47266 L 698.5 91.722656 z M 858.04492 91.722656 L 881.66992 91.722656 L 886.79492 91.722656 L 886.79492 120.47266 L 881.66992 120.47266 L 858.04492 120.47266 L 858.04492 91.722656 z M 900.79492 91.722656 L 905.91992 91.722656 L 929.54492 91.722656 L 929.54492 120.47266 L 905.91992 120.47266 L 900.79492 120.47266 L 900.79492 91.722656 z M 34.865234 96.847656 L 34.865234 115.34766 L 18.84375 106.09766 L 34.865234 96.847656 z M 134.36523 96.847656 L 150.38672 106.09766 L 142.37695 110.72266 L 134.36523 115.34766 L 134.36523 96.847656 z M 237.16016 96.847656 L 237.16016 115.34766 L 221.13867 106.09766 L 229.14844 101.47266 L 237.16016 96.847656 z M 336.66016 96.847656 L 352.68164 106.09766 L 336.66016 115.34766 L 336.66016 96.847656 z M 439.45508 96.847656 L 439.45508 115.34766 L 423.43359 106.09766 L 439.45508 96.847656 z M 538.95508 96.847656 L 554.97852 106.09766 L 538.95508 115.34766 L 538.95508 96.847656 z M 641.75195 96.847656 L 641.75195 115.34961 L 625.72852 106.09766 L 641.75195 96.847656 z M 741.25 96.847656 L 757.27344 106.09766 L 741.25 115.34766 L 741.25 96.847656 z M 844.04492 96.847656 L 844.04492 115.34766 L 828.02344 106.09766 L 836.03516 101.47266 L 844.04492 96.847656 z M 943.54492 96.847656 L 959.56836 106.09766 L 943.54492 115.34766 L 943.54492 96.847656 z M 171.38867 113.09766 L 200.13867 113.09766 L 200.13867 118.22266 L 200.13867 141.84766 L 171.38867 141.84766 L 171.38867 118.22266 L 171.38867 113.09766 z M 373.68359 113.09766 L 402.43359 113.09766 L 402.43359 118.22266 L 402.43359 141.84766 L 373.68359 141.84766 L 373.68359 118.22266 L 373.68359 113.09766 z M 575.97852 113.09766 L 604.72852 113.09766 L 604.72852 118.22266 L 604.72852 141.84766 L 575.97852 141.84766 L 575.97852 118.22266 L 575.97852 113.09766 z M 778.27344 113.09766 L 807.02344 113.09766 L 807.02344 118.22266 L 807.02344 141.84766 L 778.27344 141.84766 L 778.27344 118.22266 L 778.27344 113.09766 z M 157.38867 118.22266 L 157.38867 136.72266 L 141.36523 127.47266 L 149.37695 122.84766 L 157.38867 118.22266 z M 214.13867 118.22266 L 230.16016 127.47266 L 214.13867 136.72266 L 214.13867 118.22266 z M 359.68359 118.22266 L 359.68359 136.72266 L 343.66016 127.47266 L 351.67188 122.84766 L 359.68359 118.22266 z M 416.43359 118.22266 L 432.45508 127.47266 L 416.43359 136.72266 L 416.43359 118.22266 z M 561.97852 118.22266 L 561.97852 136.72266 L 545.95508 127.47266 L 553.9668 122.84766 L 561.97852 118.22266 z M 618.72852 118.22266 L 634.75195 127.47266 L 618.72852 136.72266 L 618.72852 118.22266 z M 764.27344 118.22266 L 764.27344 136.72266 L 748.25 127.47266 L 756.26172 122.84766 L 764.27344 118.22266 z M 821.02344 118.22266 L 837.04492 127.47266 L 821.02344 136.72266 L 821.02344 118.22266 z M 53.990234 134.47266 L 72.492188 134.47266 L 63.242188 150.49609 L 63.240234 150.49609 L 53.990234 134.47266 z M 96.740234 134.47266 L 115.24219 134.47266 L 105.99219 150.49609 L 96.740234 134.47266 z M 256.28516 134.47266 L 274.78711 134.47266 L 265.53516 150.49609 L 256.28516 134.47266 z M 299.03516 134.47266 L 317.53711 134.47266 L 308.28711 150.49609 L 308.28516 150.49609 L 299.03516 134.47266 z M 458.58008 134.47266 L 477.08203 134.47266 L 467.83203 150.49609 L 467.83008 150.49609 L 458.58008 134.47266 z M 501.33008 134.47266 L 519.83203 134.47266 L 510.58203 150.49609 L 501.33008 134.47266 z M 660.875 134.47266 L 679.375 134.47266 L 670.125 150.49414 L 660.875 134.47266 z M 703.625 134.47266 L 722.125 134.47266 L 712.875 150.49414 L 703.625 134.47266 z M 863.16992 134.47266 L 881.66992 134.47266 L 872.41992 150.49414 L 863.16992 134.47266 z M 905.91992 134.47266 L 924.41992 134.47266 L 915.16992 150.49414 L 905.91992 134.47266 z M 129.92773 137.03516 L 154.82617 151.41016 L 140.45117 176.30859 L 115.55273 161.93359 L 129.92773 137.03516 z M 241.59961 137.03516 L 255.97461 161.93359 L 231.07422 176.30664 L 216.70117 151.41016 L 241.59961 137.03516 z M 332.22266 137.03516 L 357.12109 151.41016 L 342.74609 176.30664 L 317.84766 161.93359 L 332.22266 137.03516 z M 443.89453 137.03516 L 458.26758 161.93359 L 433.36914 176.30664 L 418.99609 151.41016 L 443.89453 137.03516 z M 534.51758 137.03516 L 559.41602 151.41016 L 545.04102 176.30664 L 520.14258 161.93359 L 534.51758 137.03516 z M 646.18945 137.03516 L 660.56445 161.93359 L 635.66406 176.30859 L 621.29102 151.41016 L 646.18945 137.03516 z M 736.8125 137.03516 L 761.71094 151.41016 L 747.33594 176.30859 L 722.4375 161.93359 L 736.8125 137.03516 z M 848.48242 137.03516 L 862.85742 161.93359 L 837.95898 176.30859 L 823.58594 151.41016 L 848.48242 137.03516 z M 84.615234 141.4707 L 93.867188 157.49414 L 75.365234 157.49414 L 79.990234 149.48438 L 84.615234 141.4707 z M 286.91016 141.4707 L 296.16211 157.49414 L 277.66016 157.49414 L 282.28516 149.48438 L 286.91016 141.4707 z M 489.20508 141.47266 L 498.45508 157.49414 L 479.95508 157.49414 L 484.58008 149.48438 L 489.20508 141.47266 z M 691.5 141.47266 L 696.125 149.48438 L 700.75 157.49414 L 682.25 157.49414 L 686.875 149.48438 L 691.5 141.47266 z M 893.79492 141.47266 L 898.41992 149.48438 L 903.04492 157.49414 L 884.54492 157.49414 L 889.16992 149.48438 L 893.79492 141.47266 z M 176.51367 155.84766 L 195.01367 155.84766 L 185.76367 171.86914 L 176.51367 155.84766 z M 378.80859 155.84766 L 397.30859 155.84766 L 388.05859 171.86914 L 378.80859 155.84766 z M 581.10352 155.84766 L 599.60352 155.84766 L 590.35352 171.86914 L 581.10352 155.84766 z M 783.39844 155.84766 L 801.89844 155.84766 L 792.64844 171.86914 L 783.39844 155.84766 z M 164.38867 162.84766 L 173.63867 178.86914 L 155.13867 178.86914 L 164.38867 162.84766 z M 207.13867 162.84766 L 216.38867 178.86914 L 197.88867 178.86914 L 207.13867 162.84766 z M 366.68359 162.84766 L 375.93359 178.86914 L 357.43359 178.86914 L 366.68359 162.84766 z M 409.43359 162.84766 L 418.68359 178.86914 L 400.18359 178.86914 L 409.43359 162.84766 z M 568.97852 162.84766 L 573.60352 170.85938 L 578.22852 178.86914 L 559.72852 178.86914 L 568.97852 162.84766 z M 611.72852 162.84766 L 620.97852 178.86914 L 602.47852 178.86914 L 611.72852 162.84766 z M 771.27344 162.84766 L 775.89844 170.85938 L 780.52344 178.86914 L 762.02344 178.86914 L 771.27344 162.84766 z M 814.02344 162.84766 L 823.27344 178.86914 L 804.77344 178.86914 L 814.02344 162.84766 z M 70.240234 171.49414 L 98.990234 171.49414 L 98.990234 195.12109 L 98.990234 200.24414 L 70.240234 200.24414 L 70.240234 195.12109 L 70.240234 171.49414 z M 272.53516 171.49414 L 301.28516 171.49414 L 301.28516 195.12109 L 301.28516 200.24414 L 272.53516 200.24414 L 272.53516 195.12109 L 272.53516 171.49414 z M 474.83008 171.49414 L 503.58008 171.49414 L 503.58008 195.12109 L 503.58008 200.24414 L 474.83008 200.24414 L 474.83008 195.12109 L 474.83008 171.49414 z M 677.125 171.49414 L 705.875 171.49414 L 705.875 195.12109 L 705.875 200.24414 L 677.125 200.24414 L 677.125 195.12109 L 677.125 171.49414 z M 879.41992 171.49414 L 908.16992 171.49414 L 908.16992 195.12109 L 908.16992 200.24414 L 879.41992 200.24414 L 879.41992 195.12109 L 879.41992 171.49414 z M 56.240234 176.61914 L 56.240234 195.11914 L 40.21875 185.86914 L 56.240234 176.61914 z M 112.99023 176.61914 L 129.01367 185.86914 L 129.01367 185.87109 L 112.99023 195.12109 L 112.99023 176.61914 z M 258.53516 176.61914 L 258.53516 195.11914 L 242.51367 185.86914 L 258.53516 176.61914 z M 315.28516 176.61914 L 331.30859 185.86914 L 331.30859 185.87109 L 315.28516 195.12109 L 315.28516 176.61914 z M 460.83008 176.61914 L 460.83008 195.11914 L 444.80859 185.86914 L 460.83008 176.61914 z M 517.58008 176.61914 L 533.60352 185.86914 L 533.60352 185.87109 L 517.58008 195.12109 L 517.58008 176.61914 z M 663.125 176.61914 L 663.125 195.11914 L 647.10352 185.86914 L 663.125 176.61914 z M 719.875 176.61914 L 735.89844 185.86914 L 735.89844 185.87109 L 719.875 195.12109 L 719.875 176.61914 z M 865.41992 176.61914 L 865.41992 195.12109 L 849.39648 185.87109 L 849.39648 185.86914 L 865.41992 176.61914 z M 922.16992 176.61914 L 938.19336 185.86914 L 938.19336 185.87109 L 922.16992 195.12109 L 922.16992 176.61914 z M 150.01367 192.86914 L 173.63867 192.86914 L 178.76367 192.86914 L 178.76367 221.61914 L 173.63867 221.61914 L 150.01367 221.61914 L 150.01367 192.86914 z M 192.76367 192.86914 L 197.88672 192.86914 L 221.51367 192.86914 L 221.51367 221.61914 L 197.88672 221.61914 L 192.76367 221.61914 L 192.76367 192.86914 z M 352.30859 192.86914 L 375.93359 192.86914 L 381.05859 192.86914 L 381.05859 221.61914 L 375.93359 221.61914 L 352.30859 221.61914 L 352.30859 192.86914 z M 395.05859 192.86914 L 400.18164 192.86914 L 423.80859 192.86914 L 423.80859 221.61914 L 400.18164 221.61914 L 395.05859 221.61914 L 395.05859 192.86914 z M 554.60352 192.86914 L 578.22852 192.86914 L 583.35352 192.86914 L 583.35352 221.61914 L 578.22852 221.61914 L 554.60352 221.61914 L 554.60352 192.86914 z M 597.35352 192.86914 L 602.47656 192.86914 L 626.10352 192.86914 L 626.10352 221.61914 L 602.47656 221.61914 L 597.35352 221.61914 L 597.35352 192.86914 z M 756.89844 192.86914 L 780.52344 192.86914 L 785.64844 192.86914 L 785.64844 221.61914 L 780.52344 221.61914 L 756.89844 221.61914 L 756.89844 192.86914 z M 799.64844 192.86914 L 804.77148 192.86914 L 828.39844 192.86914 L 828.39844 221.61914 L 804.77148 221.61914 L 799.64844 221.61914 L 799.64844 192.86914 z M 33.21875 197.99414 L 49.240234 207.24414 L 33.21875 216.49414 L 33.21875 197.99414 z M 136.01367 197.99414 L 136.01367 216.49609 L 119.99023 207.24609 L 119.99023 207.24414 L 128.00195 202.61914 L 136.01367 197.99414 z M 235.51367 197.99414 L 251.53516 207.24414 L 235.51367 216.49414 L 235.51367 197.99414 z M 338.30859 197.99414 L 338.30859 216.49609 L 322.28516 207.24609 L 322.28516 207.24414 L 330.29688 202.61914 L 338.30859 197.99414 z M 437.80859 197.99414 L 453.83008 207.24414 L 437.80859 216.49414 L 437.80859 197.99414 z M 540.60352 197.99414 L 540.60352 216.49609 L 524.58008 207.24609 L 524.58008 207.24414 L 540.60352 197.99414 z M 640.10352 197.99414 L 656.125 207.24414 L 640.10352 216.49414 L 640.10352 197.99414 z M 742.89844 197.99414 L 742.89844 216.49609 L 726.875 207.24609 L 726.875 207.24414 L 734.88672 202.61914 L 742.89844 197.99414 z M 842.39844 197.99414 L 858.42188 207.24414 L 842.39844 216.49609 L 842.39844 197.99414 z M 945.19336 197.99414 L 945.19336 216.49609 L 929.16992 207.24609 L 929.16992 207.24414 L 937.18164 202.61914 L 945.19336 197.99414 z M 70.240234 214.24414 L 98.990234 214.24414 L 98.990234 219.36914 L 98.990234 242.99414 L 70.240234 242.99414 L 70.240234 219.36914 L 70.240234 214.24414 z M 272.53516 214.24414 L 301.28516 214.24414 L 301.28516 219.36914 L 301.28516 242.99414 L 272.53516 242.99414 L 272.53516 219.36914 L 272.53516 214.24414 z M 474.83008 214.24414 L 503.58008 214.24414 L 503.58008 219.36914 L 503.58008 242.99414 L 474.83008 242.99414 L 474.83008 219.36914 L 474.83008 214.24414 z M 677.125 214.24414 L 705.875 214.24414 L 705.875 219.36914 L 705.875 242.99414 L 677.125 242.99414 L 677.125 219.36914 L 677.125 214.24414 z M 879.41992 214.24414 L 908.16992 214.24414 L 908.16992 219.36914 L 908.16992 242.99414 L 879.41992 242.99414 L 879.41992 219.36914 L 879.41992 214.24414 z M 56.240234 219.36914 L 56.240234 237.87109 L 40.216797 228.62109 L 48.230469 223.99414 L 56.240234 219.36914 z M 112.99023 219.36914 L 129.01367 228.62109 L 112.99023 237.87109 L 112.99023 219.36914 z M 258.53516 219.36914 L 258.53516 237.87109 L 242.51172 228.62109 L 250.52344 223.99414 L 258.53516 219.36914 z M 315.28516 219.36914 L 331.30859 228.62109 L 315.28516 237.87109 L 315.28516 219.36914 z M 460.83008 219.36914 L 460.83008 237.87109 L 444.80664 228.62109 L 460.83008 219.36914 z M 517.58008 219.36914 L 533.60352 228.62109 L 517.58008 237.87109 L 517.58008 219.36914 z M 663.125 219.36914 L 663.125 237.87109 L 647.10156 228.62109 L 647.10156 228.61914 L 663.125 219.36914 z M 719.875 219.36914 L 735.89844 228.62109 L 719.875 237.87109 L 719.875 219.36914 z M 865.41992 219.36914 L 865.41992 237.87109 L 849.39648 228.62109 L 857.41016 223.99414 L 865.41992 219.36914 z M 922.16992 219.36914 L 938.19336 228.62109 L 922.16992 237.87109 L 922.16992 219.36914 z M 155.13672 235.61914 L 173.63867 235.61914 L 164.38867 251.64258 L 155.13672 235.61914 z M 197.88672 235.61914 L 216.38867 235.61914 L 207.13867 251.64258 L 207.13672 251.64258 L 197.88672 235.61914 z M 357.43359 235.61914 L 375.93359 235.61914 L 366.68359 251.64062 L 357.43359 235.61914 z M 400.18359 235.61914 L 418.68359 235.61914 L 409.43359 251.64258 L 400.18359 235.61914 z M 559.72852 235.61914 L 578.22852 235.61914 L 568.97852 251.64062 L 559.72852 235.61914 z M 602.47852 235.61914 L 620.97852 235.61914 L 611.72852 251.64258 L 602.47852 235.61914 z M 762.02344 235.61914 L 780.52344 235.61914 L 771.27344 251.64062 L 762.02344 235.61914 z M 804.77344 235.61914 L 823.27344 235.61914 L 814.02344 251.64258 L 804.77344 235.61914 z M 140.45117 238.18164 L 154.82617 263.08008 L 129.92773 277.45508 L 115.55273 252.55664 L 140.45117 238.18164 z M 231.07422 238.18164 L 255.97461 252.55664 L 241.59961 277.45703 L 216.69922 263.08008 L 231.07422 238.18164 z M 342.74609 238.18164 L 357.12109 263.08008 L 332.22266 277.45508 L 317.84766 252.55664 L 342.74609 238.18164 z M 433.36914 238.18164 L 458.26758 252.55664 L 443.89453 277.45508 L 418.99414 263.08008 L 433.36914 238.18164 z M 545.04102 238.18164 L 559.41602 263.08008 L 534.51758 277.45508 L 520.14258 252.55664 L 545.04102 238.18164 z M 635.66406 238.18164 L 660.5625 252.55664 L 646.18945 277.45508 L 621.28906 263.08008 L 635.66406 238.18164 z M 747.33594 238.18164 L 761.71094 263.08008 L 736.8125 277.45508 L 722.4375 252.55664 L 747.33594 238.18164 z M 837.95898 238.18164 L 862.85742 252.55664 L 848.48242 277.45508 L 823.58594 263.08008 L 837.95898 238.18164 z M 185.76172 242.61914 L 185.76367 242.61914 L 195.01367 258.64258 L 176.51172 258.64258 L 185.76172 242.61914 z M 388.05859 242.61914 L 397.30859 258.64258 L 378.80859 258.64258 L 388.05859 242.61914 z M 590.35352 242.61914 L 599.60352 258.64258 L 581.10352 258.64258 L 590.35352 242.61914 z M 792.64844 242.61914 L 797.27344 250.63086 L 801.89844 258.64258 L 783.39844 258.64258 L 792.64844 242.61914 z M 75.365234 256.99414 L 93.867188 256.99414 L 84.617188 273.01758 L 84.615234 273.01758 L 75.365234 256.99414 z M 277.66016 256.99414 L 296.16211 256.99414 L 286.91211 273.01758 L 286.91016 273.01758 L 277.66016 256.99414 z M 479.95508 256.99414 L 498.45703 256.99414 L 489.20703 273.01758 L 489.20508 273.01758 L 479.95508 256.99414 z M 682.25 256.99414 L 700.75 256.99414 L 696.125 265.00586 L 691.5 273.01758 L 682.25 256.99414 z M 884.54492 256.99414 L 903.04492 256.99414 L 893.79492 273.01562 L 884.54492 256.99414 z M 63.240234 263.99414 L 63.242188 263.99414 L 72.492188 280.01758 L 53.990234 280.01758 L 63.240234 263.99414 z M 105.99219 263.99414 L 115.24219 280.01758 L 96.740234 280.01758 L 101.36523 272.00586 L 105.99219 263.99414 z M 265.53516 263.99414 L 274.78711 280.01758 L 256.28516 280.01758 L 265.53516 263.99414 z M 308.28516 263.99414 L 308.28711 263.99414 L 317.53711 280.01758 L 299.03516 280.01758 L 303.66016 272.00586 L 308.28516 263.99414 z M 467.83008 263.99414 L 467.83203 263.99414 L 477.08203 280.01758 L 458.58008 280.01758 L 467.83008 263.99414 z M 510.58203 263.99414 L 519.83203 280.01758 L 501.33008 280.01758 L 510.58203 263.99414 z M 670.125 263.99414 L 674.75 272.00586 L 679.375 280.01758 L 660.875 280.01758 L 670.125 263.99414 z M 872.41992 263.99414 L 877.04492 272.00586 L 881.66992 280.01758 L 863.16992 280.01758 L 872.41992 263.99414 z M 915.16992 263.99414 L 924.41992 280.01758 L 905.91992 280.01758 L 910.54492 272.00586 L 915.16992 263.99414 z M 712.875 263.99609 L 722.125 280.01758 L 703.625 280.01758 L 712.875 263.99609 z M 171.38867 272.64258 L 200.13867 272.64258 L 200.13867 296.26953 L 200.13867 301.39258 L 171.38867 301.39258 L 171.38867 296.26758 L 171.38867 272.64258 z M 373.68359 272.64258 L 402.43359 272.64258 L 402.43359 296.26953 L 402.43359 301.39258 L 373.68359 301.39258 L 373.68359 296.26758 L 373.68359 272.64258 z M 575.97852 272.64258 L 604.72852 272.64258 L 604.72852 296.26953 L 604.72852 301.39258 L 575.97852 301.39258 L 575.97852 296.26758 L 575.97852 272.64258 z M 778.27344 272.64258 L 807.02344 272.64258 L 807.02344 296.26758 L 807.02344 301.39258 L 778.27344 301.39258 L 778.27344 296.26953 L 778.27344 272.64258 z M 157.38867 277.76758 L 157.38867 296.26758 L 141.36523 287.01758 L 157.38867 277.76758 z M 214.13867 277.76758 L 230.16016 287.01758 L 214.13867 296.26758 L 214.13867 277.76758 z M 359.68359 277.76758 L 359.68359 296.26758 L 343.66016 287.01758 L 359.68359 277.76758 z M 416.43359 277.76758 L 432.45508 287.01758 L 416.43359 296.26758 L 416.43359 277.76758 z M 561.97852 277.76758 L 561.97852 296.26758 L 545.95508 287.01758 L 561.97852 277.76758 z M 618.72852 277.76758 L 634.75195 287.01758 L 618.72852 296.26758 L 618.72852 277.76758 z M 764.27344 277.76758 L 764.27344 296.26758 L 748.25 287.01758 L 764.27344 277.76758 z M 821.02344 277.76758 L 837.04492 287.01758 L 821.02344 296.26758 L 821.02344 277.76758 z M 48.865234 294.01758 L 72.492188 294.01758 L 77.615234 294.01758 L 77.615234 322.76758 L 72.492188 322.76758 L 48.865234 322.76758 L 48.865234 294.01758 z M 91.615234 294.01758 L 96.740234 294.01758 L 120.36523 294.01758 L 120.36523 322.76758 L 96.740234 322.76758 L 91.615234 322.76758 L 91.615234 294.01758 z M 251.16016 294.01758 L 274.78711 294.01758 L 279.91016 294.01758 L 279.91016 322.76758 L 274.78711 322.76758 L 251.16016 322.76758 L 251.16016 294.01758 z M 293.91016 294.01758 L 299.03516 294.01758 L 322.66016 294.01758 L 322.66016 322.76758 L 299.03516 322.76758 L 293.91016 322.76758 L 293.91016 294.01758 z M 453.45508 294.01758 L 477.08203 294.01758 L 482.20508 294.01758 L 482.20508 322.76758 L 477.08203 322.76758 L 453.45508 322.76758 L 453.45508 294.01758 z M 496.20508 294.01758 L 501.33008 294.01758 L 524.95508 294.01758 L 524.95508 322.76758 L 501.33008 322.76758 L 496.20508 322.76758 L 496.20508 294.01758 z M 655.75195 294.01758 L 679.375 294.01758 L 684.5 294.01758 L 684.5 322.76758 L 679.375 322.76758 L 655.75195 322.76758 L 655.75195 294.01758 z M 698.5 294.01758 L 703.625 294.01758 L 727.25 294.01758 L 727.25 322.76758 L 703.625 322.76758 L 698.5 322.76758 L 698.5 294.01758 z M 858.04492 294.01758 L 881.66992 294.01758 L 886.79492 294.01758 L 886.79492 322.76758 L 881.66992 322.76758 L 858.04492 322.76758 L 858.04492 294.01758 z M 900.79492 294.01758 L 905.91992 294.01758 L 929.54492 294.01758 L 929.54492 322.76758 L 905.91992 322.76758 L 900.79492 322.76758 L 900.79492 294.01758 z M 34.865234 299.14258 L 34.865234 317.64258 L 18.84375 308.39258 L 34.865234 299.14258 z M 134.36523 299.14258 L 150.38672 308.39258 L 142.37695 313.01758 L 134.36523 317.64258 L 134.36523 299.14258 z M 237.16016 299.14258 L 237.16016 317.64258 L 221.13867 308.39258 L 229.14844 303.76758 L 237.16016 299.14258 z M 336.66016 299.14258 L 352.68164 308.39258 L 336.66016 317.64258 L 336.66016 299.14258 z M 439.45508 299.14258 L 439.45508 317.64258 L 423.43359 308.39258 L 439.45508 299.14258 z M 538.95508 299.14258 L 554.97656 308.39258 L 538.95508 317.64258 L 538.95508 299.14258 z M 641.75195 299.14258 L 641.75195 317.64453 L 625.72852 308.39258 L 641.75195 299.14258 z M 741.25 299.14258 L 757.27344 308.39258 L 741.25 317.64258 L 741.25 299.14258 z M 844.04492 299.14258 L 844.04492 317.64258 L 828.02344 308.39258 L 836.03516 303.76758 L 844.04492 299.14258 z M 943.54492 299.14258 L 959.56836 308.39258 L 943.54492 317.64258 L 943.54492 299.14258 z M 171.38867 315.39258 L 200.13867 315.39258 L 200.13867 320.51758 L 200.13867 344.14258 L 171.38867 344.14258 L 171.38867 320.51758 L 171.38867 315.39258 z M 373.68359 315.39258 L 402.43359 315.39258 L 402.43359 320.51758 L 402.43359 344.14258 L 373.68359 344.14258 L 373.68359 320.51758 L 373.68359 315.39258 z M 575.97852 315.39258 L 604.72852 315.39258 L 604.72852 320.51758 L 604.72852 344.14258 L 575.97852 344.14258 L 575.97852 320.51758 L 575.97852 315.39258 z M 778.27344 315.39258 L 807.02344 315.39258 L 807.02344 320.51758 L 807.02344 344.14258 L 778.27344 344.14258 L 778.27344 320.51758 L 778.27344 315.39258 z M 157.38867 320.51758 L 157.38867 339.01758 L 141.36523 329.76758 L 149.37695 325.14258 L 157.38867 320.51758 z M 214.13867 320.51758 L 230.16016 329.76758 L 214.13867 339.01758 L 214.13867 320.51758 z M 359.68359 320.51758 L 359.68359 339.01758 L 343.66016 329.76758 L 351.67188 325.14258 L 359.68359 320.51758 z M 416.43359 320.51758 L 432.45508 329.76758 L 416.43359 339.01758 L 416.43359 320.51758 z M 561.97852 320.51758 L 561.97852 339.01758 L 545.95508 329.76758 L 561.97852 320.51758 z M 618.72852 320.51758 L 634.75 329.76758 L 618.72852 339.01758 L 618.72852 320.51758 z M 764.27344 320.51758 L 764.27344 339.01758 L 748.25 329.76758 L 764.27344 320.51758 z M 821.02344 320.51758 L 837.04492 329.76758 L 821.02344 339.01758 L 821.02344 320.51758 z M 53.990234 336.76758 L 72.492188 336.76758 L 63.242188 352.79102 L 63.240234 352.79102 L 53.990234 336.76758 z M 96.740234 336.76758 L 115.24219 336.76758 L 105.99219 352.79102 L 96.740234 336.76758 z M 256.28516 336.76758 L 274.78711 336.76758 L 265.53516 352.79102 L 256.28516 336.76758 z M 299.03516 336.76758 L 317.53711 336.76758 L 308.28711 352.79102 L 308.28516 352.79102 L 299.03516 336.76758 z M 458.58008 336.76758 L 477.08008 336.76758 L 467.83008 352.78906 L 458.58008 336.76758 z M 501.33008 336.76758 L 519.83203 336.76758 L 510.58203 352.79102 L 501.33008 336.76758 z M 660.875 336.76758 L 679.375 336.76758 L 674.75 344.77734 L 670.125 352.78906 L 660.875 336.76758 z M 703.625 336.76758 L 722.125 336.76758 L 712.875 352.78906 L 703.625 336.76758 z M 863.16992 336.76758 L 881.66992 336.76758 L 872.41992 352.78906 L 863.16992 336.76758 z M 905.91992 336.76758 L 924.41992 336.76758 L 915.16992 352.78906 L 905.91992 336.76758 z M 129.92773 339.33008 L 154.82617 353.70508 L 140.45117 378.60352 L 115.55273 364.22852 L 129.92773 339.33008 z M 241.59961 339.33008 L 255.97266 364.22852 L 231.07422 378.60352 L 216.70117 353.70508 L 241.59961 339.33008 z M 332.22266 339.33008 L 357.12109 353.70508 L 342.74609 378.60352 L 317.84766 364.22852 L 332.22266 339.33008 z M 443.89453 339.33008 L 458.26758 364.22852 L 433.37109 378.60156 L 418.99609 353.70508 L 443.89453 339.33008 z M 534.51758 339.33008 L 559.41602 353.70508 L 545.04102 378.60156 L 520.14258 364.22852 L 534.51758 339.33008 z M 646.18945 339.33008 L 660.5625 364.22852 L 635.66406 378.60156 L 621.29102 353.70508 L 646.18945 339.33008 z M 736.8125 339.33008 L 761.71094 353.70508 L 747.33594 378.60156 L 722.4375 364.22852 L 736.8125 339.33008 z M 848.48242 339.33008 L 862.85742 364.22852 L 837.95898 378.60352 L 823.58594 353.70508 L 848.48242 339.33008 z M 84.615234 343.76758 L 84.617188 343.76758 L 93.867188 359.78906 L 75.365234 359.78906 L 84.615234 343.76758 z M 286.91016 343.76758 L 296.16211 359.78906 L 277.66016 359.78906 L 286.91016 343.76758 z M 489.20508 343.76758 L 489.20703 343.76758 L 498.45508 359.78906 L 479.95508 359.78906 L 489.20508 343.76758 z M 893.79492 343.76758 L 903.04492 359.78906 L 884.54492 359.78906 L 893.79492 343.76758 z M 691.5 343.76953 L 700.75 359.78906 L 682.25 359.78906 L 691.5 343.76953 z M 176.51367 358.14258 L 195.01367 358.14258 L 190.38867 366.15234 L 185.76367 374.16406 L 176.51367 358.14258 z M 378.80859 358.14258 L 397.30859 358.14258 L 392.68359 366.15234 L 388.05859 374.16406 L 378.80859 358.14258 z M 581.10352 358.14258 L 599.60352 358.14258 L 594.97852 366.15234 L 590.35352 374.16406 L 581.10352 358.14258 z M 783.39844 358.14258 L 801.89844 358.14258 L 797.27344 366.15234 L 792.64844 374.16406 L 783.39844 358.14258 z M 164.38867 365.14258 L 173.63867 381.16406 L 155.13867 381.16406 L 164.38867 365.14258 z M 207.13672 365.14258 L 207.13867 365.14258 L 216.38867 381.16406 L 197.88867 381.16406 L 207.13672 365.14258 z M 366.68359 365.14258 L 375.93359 381.16406 L 357.43359 381.16406 L 366.68359 365.14258 z M 409.43359 365.14258 L 418.68359 381.16406 L 400.18359 381.16406 L 409.43359 365.14258 z M 568.97852 365.14258 L 578.22852 381.16406 L 559.72852 381.16406 L 568.97852 365.14258 z M 611.72852 365.14258 L 620.97852 381.16406 L 602.47852 381.16406 L 611.72852 365.14258 z M 771.27344 365.14258 L 780.52344 381.16406 L 762.02344 381.16406 L 771.27344 365.14258 z M 814.02344 365.14258 L 823.27344 381.16406 L 804.77344 381.16406 L 814.02344 365.14258 z M 70.240234 373.78906 L 98.990234 373.78906 L 98.990234 397.41602 L 98.990234 402.53906 L 70.240234 402.53906 L 70.240234 397.41602 L 70.240234 373.78906 z M 272.53516 373.78906 L 301.28516 373.78906 L 301.28516 397.41602 L 301.28516 402.53906 L 272.53516 402.53906 L 272.53516 397.41602 L 272.53516 373.78906 z M 474.83008 373.78906 L 503.58008 373.78906 L 503.58008 397.41602 L 503.58008 402.53906 L 474.83008 402.53906 L 474.83008 397.41602 L 474.83008 373.78906 z M 677.125 373.78906 L 705.875 373.78906 L 705.875 397.41602 L 705.875 402.53906 L 677.125 402.53906 L 677.125 397.41602 L 677.125 373.78906 z M 879.41992 373.78906 L 908.16992 373.78906 L 908.16992 397.41602 L 908.16992 402.53906 L 879.41992 402.53906 L 879.41992 397.41602 L 879.41992 373.78906 z M 56.240234 378.91406 L 56.240234 397.41406 L 40.21875 388.16406 L 56.240234 378.91406 z M 112.99023 378.91406 L 129.01367 388.16406 L 112.99023 397.41602 L 112.99023 378.91406 z M 258.53516 378.91406 L 258.53516 397.41406 L 242.51367 388.16406 L 258.53516 378.91406 z M 315.28516 378.91406 L 331.30859 388.16406 L 315.28516 397.41602 L 315.28516 378.91406 z M 460.83008 378.91406 L 460.83008 397.41602 L 444.80664 388.16406 L 460.83008 378.91406 z M 517.58008 378.91406 L 533.60352 388.16406 L 517.58008 397.41602 L 517.58008 378.91406 z M 663.125 378.91406 L 663.125 397.41406 L 647.10352 388.16406 L 663.125 378.91406 z M 719.875 378.91406 L 735.89844 388.16406 L 719.875 397.41602 L 719.875 378.91406 z M 865.41992 378.91406 L 865.41992 397.41602 L 849.39648 388.16406 L 865.41992 378.91406 z M 922.16992 378.91406 L 938.19336 388.16406 L 922.16992 397.41602 L 922.16992 378.91406 z M 150.01367 395.16406 L 173.63867 395.16406 L 178.76367 395.16406 L 178.76367 423.91406 L 173.63867 423.91406 L 150.01367 423.91406 L 150.01367 395.16406 z M 192.76367 395.16406 L 197.88672 395.16406 L 221.51367 395.16406 L 221.51367 423.91406 L 197.88672 423.91406 L 192.76367 423.91406 L 192.76367 395.16406 z M 352.30859 395.16406 L 375.93359 395.16406 L 381.05859 395.16406 L 381.05859 423.91406 L 375.93359 423.91406 L 352.30859 423.91406 L 352.30859 395.16406 z M 395.05859 395.16406 L 400.18164 395.16406 L 423.80859 395.16406 L 423.80859 423.91406 L 400.18164 423.91406 L 395.05859 423.91406 L 395.05859 395.16406 z M 554.60352 395.16406 L 578.22852 395.16406 L 583.35352 395.16406 L 583.35352 423.91406 L 578.22852 423.91406 L 554.60352 423.91406 L 554.60352 395.16406 z M 597.35352 395.16406 L 602.47656 395.16406 L 626.10352 395.16406 L 626.10352 423.91406 L 602.47656 423.91406 L 597.35352 423.91406 L 597.35352 395.16406 z M 756.89844 395.16406 L 780.52344 395.16406 L 785.64844 395.16406 L 785.64844 423.91406 L 780.52344 423.91406 L 756.89844 423.91406 L 756.89844 395.16406 z M 799.64844 395.16406 L 804.77148 395.16406 L 828.39844 395.16406 L 828.39844 423.91406 L 804.77148 423.91406 L 799.64844 423.91406 L 799.64844 395.16406 z M 33.21875 400.28906 L 49.240234 409.53906 L 33.21875 418.78906 L 33.21875 400.28906 z M 136.01367 400.28906 L 136.01367 418.79102 L 119.99023 409.54102 L 119.99023 409.53906 L 136.01367 400.28906 z M 235.51367 400.28906 L 251.53516 409.53906 L 235.51367 418.78906 L 235.51367 400.28906 z M 338.30859 400.28906 L 338.30859 418.79102 L 322.28516 409.54102 L 322.28516 409.53906 L 330.29688 404.91406 L 338.30859 400.28906 z M 437.80859 400.28906 L 453.83008 409.53906 L 437.80859 418.78906 L 437.80859 400.28906 z M 540.60352 400.28906 L 540.60352 418.79102 L 524.58008 409.53906 L 540.60352 400.28906 z M 640.10352 400.28906 L 656.125 409.53906 L 640.10352 418.78906 L 640.10352 400.28906 z M 742.89844 400.28906 L 742.89844 418.79102 L 726.875 409.53906 L 742.89844 400.28906 z M 842.39844 400.28906 L 850.41016 404.91406 L 858.42188 409.53906 L 842.39844 418.79102 L 842.39844 400.28906 z M 945.19336 400.28906 L 945.19336 418.79102 L 929.16992 409.54102 L 929.16992 409.53906 L 937.18164 404.91406 L 945.19336 400.28906 z M 70.240234 416.53906 L 98.990234 416.53906 L 98.990234 421.66406 L 98.990234 445.28906 L 70.240234 445.28906 L 70.240234 421.66406 L 70.240234 416.53906 z M 272.53516 416.53906 L 301.28516 416.53906 L 301.28516 421.66406 L 301.28516 445.28906 L 272.53516 445.28906 L 272.53516 421.66406 L 272.53516 416.53906 z M 474.83008 416.53906 L 503.58008 416.53906 L 503.58008 421.66406 L 503.58008 445.28906 L 474.83008 445.28906 L 474.83008 421.66406 L 474.83008 416.53906 z M 677.125 416.53906 L 705.875 416.53906 L 705.875 421.66406 L 705.875 445.28906 L 677.125 445.28906 L 677.125 421.66406 L 677.125 416.53906 z M 879.41992 416.53906 L 908.16992 416.53906 L 908.16992 421.66406 L 908.16992 445.28906 L 879.41992 445.28906 L 879.41992 421.66406 L 879.41992 416.53906 z M 56.240234 421.66406 L 56.240234 440.16602 L 40.216797 430.91602 L 40.216797 430.91406 L 56.240234 421.66406 z M 112.99023 421.66406 L 129.01367 430.91406 L 129.01367 430.91602 L 112.99023 440.16602 L 112.99023 421.66406 z M 258.53516 421.66406 L 258.53516 440.16602 L 242.51172 430.91602 L 242.51172 430.91406 L 250.52344 426.28906 L 258.53516 421.66406 z M 315.28516 421.66406 L 331.30859 430.91406 L 315.28516 440.16602 L 315.28516 421.66406 z M 460.83008 421.66406 L 460.83008 440.16602 L 444.80664 430.91602 L 460.83008 421.66406 z M 517.58008 421.66406 L 533.60352 430.91406 L 533.60352 430.91602 L 517.58008 440.16602 L 517.58008 421.66406 z M 663.125 421.66406 L 663.125 440.16602 L 647.10156 430.91406 L 663.125 421.66406 z M 719.875 421.66406 L 735.89844 430.91406 L 735.89844 430.91602 L 719.875 440.16602 L 719.875 421.66406 z M 865.41992 421.66406 L 865.41992 440.16602 L 849.39648 430.91602 L 849.39648 430.91406 L 857.41016 426.28906 L 865.41992 421.66406 z M 922.16992 421.66406 L 930.18164 426.28906 L 938.19336 430.91406 L 938.19336 430.91602 L 922.16992 440.16602 L 922.16992 421.66406 z M 155.13672 437.91406 L 173.63867 437.91406 L 169.01367 445.92578 L 164.38867 453.9375 L 155.13672 437.91406 z M 197.88672 437.91406 L 216.38867 437.91406 L 207.13867 453.9375 L 207.13672 453.9375 L 197.88672 437.91406 z M 357.43359 437.91406 L 375.93359 437.91406 L 371.30859 445.92578 L 366.68359 453.9375 L 357.43359 437.91406 z M 400.18359 437.91406 L 418.68359 437.91406 L 409.43359 453.9375 L 400.18359 437.91406 z M 559.72852 437.91406 L 578.22852 437.91406 L 573.60352 445.92578 L 568.97852 453.9375 L 559.72852 437.91406 z M 602.47852 437.91406 L 620.97852 437.91406 L 611.72852 453.9375 L 602.47852 437.91406 z M 762.02344 437.91406 L 780.52344 437.91406 L 775.89844 445.92578 L 771.27344 453.9375 L 762.02344 437.91406 z M 804.77344 437.91406 L 823.27344 437.91406 L 814.02344 453.9375 L 804.77344 437.91406 z M 140.45117 440.47656 L 154.82617 465.375 L 129.92773 479.75 L 115.55273 454.85156 L 140.45117 440.47656 z M 231.07422 440.47656 L 255.97266 454.85156 L 241.59961 479.75 L 216.69922 465.375 L 231.07422 440.47656 z M 342.74609 440.47656 L 357.12109 465.375 L 332.22266 479.75 L 317.84766 454.85156 L 342.74609 440.47656 z M 433.37109 440.47656 L 458.26758 454.85156 L 443.89453 479.75 L 418.99609 465.37695 L 433.37109 440.47656 z M 545.04102 440.47656 L 559.41602 465.37695 L 534.51758 479.75195 L 520.14258 454.85156 L 545.04102 440.47656 z M 635.66602 440.47656 L 660.5625 454.85156 L 646.18945 479.75 L 621.29102 465.375 L 635.66602 440.47656 z M 747.33594 440.47656 L 761.71094 465.375 L 736.8125 479.75 L 722.4375 454.85156 L 747.33594 440.47656 z M 837.96094 440.47656 L 862.85742 454.85156 L 848.48242 479.75 L 823.58594 465.37695 L 837.96094 440.47656 z M 185.76172 444.91406 L 185.76367 444.91406 L 195.01367 460.9375 L 176.51172 460.9375 L 185.76172 444.91406 z M 388.05859 444.91406 L 392.68359 452.92578 L 397.30859 460.9375 L 378.80859 460.9375 L 388.05859 444.91406 z M 590.35352 444.91406 L 594.97852 452.92578 L 599.60352 460.9375 L 581.10352 460.9375 L 590.35352 444.91406 z M 792.64844 444.91406 L 797.27344 452.92578 L 801.89844 460.9375 L 783.39844 460.9375 L 792.64844 444.91406 z M 75.365234 459.28906 L 93.867188 459.28906 L 84.617188 475.3125 L 84.615234 475.3125 L 75.365234 459.28906 z M 277.66016 459.28906 L 296.16211 459.28906 L 286.91016 475.3125 L 277.66016 459.28906 z M 479.95508 459.28906 L 498.45703 459.28906 L 489.20703 475.3125 L 489.20508 475.3125 L 479.95508 459.28906 z M 682.25 459.28906 L 700.75 459.28906 L 696.125 467.30078 L 691.5 475.31055 L 682.25 459.28906 z M 884.54492 459.28906 L 903.04492 459.28906 L 893.79492 475.31055 L 884.54492 459.28906 z M 63.240234 466.28906 L 63.242188 466.28906 L 72.492188 482.3125 L 53.990234 482.3125 L 63.240234 466.28906 z M 105.99219 466.28906 L 115.24219 482.3125 L 96.740234 482.3125 L 101.36523 474.30078 L 105.99219 466.28906 z M 265.53516 466.28906 L 274.78711 482.3125 L 256.28516 482.3125 L 265.53516 466.28906 z M 308.28516 466.28906 L 308.28711 466.28906 L 317.53711 482.3125 L 299.03516 482.3125 L 308.28516 466.28906 z M 467.83008 466.28906 L 467.83203 466.28906 L 477.08203 482.3125 L 458.58008 482.3125 L 467.83008 466.28906 z M 510.58203 466.28906 L 519.83203 482.3125 L 501.33008 482.3125 L 510.58203 466.28906 z M 670.125 466.28906 L 674.75 474.30078 L 679.375 482.3125 L 660.875 482.3125 L 670.125 466.28906 z M 872.41992 466.28906 L 877.04492 474.30078 L 881.66992 482.3125 L 863.16992 482.3125 L 872.41992 466.28906 z M 915.16992 466.28906 L 924.41992 482.3125 L 905.91992 482.3125 L 910.54492 474.30078 L 915.16992 466.28906 z M 712.875 466.29102 L 722.125 482.3125 L 703.625 482.3125 L 712.875 466.29102 z M 171.38867 474.9375 L 200.13867 474.9375 L 200.13867 498.56445 L 200.13867 503.6875 L 171.38867 503.6875 L 171.38867 498.56445 L 171.38867 474.9375 z M 373.68359 474.9375 L 402.43359 474.9375 L 402.43359 498.56445 L 402.43359 503.6875 L 373.68359 503.6875 L 373.68359 498.56445 L 373.68359 474.9375 z M 575.97852 474.9375 L 604.72852 474.9375 L 604.72852 498.56445 L 604.72852 503.6875 L 575.97852 503.6875 L 575.97852 498.56445 L 575.97852 474.9375 z M 778.27344 474.9375 L 807.02344 474.9375 L 807.02344 498.56445 L 807.02344 503.6875 L 778.27344 503.6875 L 778.27344 498.56445 L 778.27344 474.9375 z M 157.38867 480.0625 L 157.38867 498.5625 L 141.36523 489.3125 L 157.38867 480.0625 z M 214.13867 480.0625 L 230.16016 489.3125 L 214.13867 498.5625 L 214.13867 480.0625 z M 359.68359 480.0625 L 359.68359 498.5625 L 343.66016 489.3125 L 359.68359 480.0625 z M 416.43359 480.0625 L 432.45508 489.3125 L 416.43359 498.5625 L 416.43359 480.0625 z M 561.97852 480.0625 L 561.97852 498.5625 L 545.95508 489.3125 L 561.97852 480.0625 z M 618.72852 480.0625 L 634.75195 489.3125 L 618.72852 498.5625 L 618.72852 480.0625 z M 764.27344 480.0625 L 764.27344 498.5625 L 748.25 489.3125 L 764.27344 480.0625 z M 821.02344 480.0625 L 837.04492 489.3125 L 821.02344 498.5625 L 821.02344 480.0625 z M 48.865234 496.3125 L 72.492188 496.3125 L 77.615234 496.3125 L 77.615234 525.0625 L 72.492188 525.0625 L 48.865234 525.0625 L 48.865234 496.3125 z M 91.615234 496.3125 L 96.740234 496.3125 L 120.36523 496.3125 L 120.36523 525.0625 L 96.740234 525.0625 L 91.615234 525.0625 L 91.615234 496.3125 z M 251.16016 496.3125 L 274.78711 496.3125 L 279.91016 496.3125 L 279.91016 525.0625 L 274.78711 525.0625 L 251.16016 525.0625 L 251.16016 496.3125 z M 293.91016 496.3125 L 299.03516 496.3125 L 322.66016 496.3125 L 322.66016 525.0625 L 299.03516 525.0625 L 293.91016 525.0625 L 293.91016 496.3125 z M 453.45508 496.3125 L 477.08203 496.3125 L 482.20508 496.3125 L 482.20508 525.0625 L 477.08203 525.0625 L 453.45508 525.0625 L 453.45508 496.3125 z M 496.20508 496.3125 L 501.33008 496.3125 L 524.95508 496.3125 L 524.95508 525.0625 L 501.33008 525.0625 L 496.20508 525.0625 L 496.20508 496.3125 z M 655.75195 496.3125 L 679.375 496.3125 L 684.5 496.3125 L 684.5 525.0625 L 679.375 525.0625 L 655.75195 525.0625 L 655.75195 496.3125 z M 698.5 496.3125 L 703.625 496.3125 L 727.25 496.3125 L 727.25 525.0625 L 703.625 525.0625 L 698.5 525.0625 L 698.5 496.3125 z M 858.04492 496.3125 L 881.66992 496.3125 L 886.79492 496.3125 L 886.79492 525.0625 L 881.66992 525.0625 L 858.04492 525.0625 L 858.04492 496.3125 z M 900.79492 496.3125 L 905.91992 496.3125 L 929.54492 496.3125 L 929.54492 525.0625 L 905.91992 525.0625 L 900.79492 525.0625 L 900.79492 496.3125 z M 34.865234 501.4375 L 34.865234 519.9375 L 18.84375 510.6875 L 34.865234 501.4375 z M 134.36523 501.4375 L 150.38867 510.6875 L 134.36523 519.9375 L 134.36523 501.4375 z M 237.16016 501.4375 L 237.16016 519.9375 L 221.13867 510.6875 L 229.14844 506.0625 L 237.16016 501.4375 z M 336.66016 501.4375 L 352.68359 510.6875 L 336.66016 519.9375 L 336.66016 501.4375 z M 439.45508 501.4375 L 439.45508 519.9375 L 423.43359 510.6875 L 439.45508 501.4375 z M 538.95508 501.4375 L 554.97852 510.6875 L 538.95508 519.93945 L 538.95508 501.4375 z M 641.75195 501.4375 L 641.75195 519.93945 L 625.72852 510.6875 L 641.75195 501.4375 z M 741.25 501.4375 L 757.27148 510.6875 L 741.25 519.9375 L 741.25 501.4375 z M 844.04492 501.4375 L 844.04492 519.9375 L 828.02344 510.6875 L 836.03516 506.0625 L 844.04492 501.4375 z M 943.54492 501.4375 L 959.56836 510.6875 L 943.54492 519.9375 L 943.54492 501.4375 z M 171.38867 517.6875 L 200.13867 517.6875 L 200.13867 522.8125 L 200.13867 546.4375 L 171.38867 546.4375 L 171.38867 522.8125 L 171.38867 517.6875 z M 373.68359 517.6875 L 402.43359 517.6875 L 402.43359 522.8125 L 402.43359 546.4375 L 373.68359 546.4375 L 373.68359 522.8125 L 373.68359 517.6875 z M 575.97852 517.6875 L 604.72852 517.6875 L 604.72852 522.8125 L 604.72852 546.4375 L 575.97852 546.4375 L 575.97852 522.8125 L 575.97852 517.6875 z M 778.27344 517.6875 L 807.02344 517.6875 L 807.02344 522.8125 L 807.02344 546.4375 L 778.27344 546.4375 L 778.27344 522.8125 L 778.27344 517.6875 z M 157.38867 522.8125 L 157.38867 541.3125 L 141.36523 532.0625 L 157.38867 522.8125 z M 214.13867 522.8125 L 230.16016 532.0625 L 214.13867 541.3125 L 214.13867 522.8125 z M 359.68359 522.8125 L 359.68359 541.3125 L 343.66016 532.0625 L 359.68359 522.8125 z M 416.43359 522.8125 L 432.45508 532.0625 L 416.43359 541.3125 L 416.43359 522.8125 z M 561.97852 522.8125 L 561.97852 541.3125 L 545.95508 532.0625 L 561.97852 522.8125 z M 618.72852 522.8125 L 634.75195 532.0625 L 618.72852 541.3125 L 618.72852 522.8125 z M 764.27344 522.8125 L 764.27344 541.3125 L 748.25 532.0625 L 764.27344 522.8125 z M 821.02344 522.8125 L 837.04492 532.0625 L 821.02344 541.3125 L 821.02344 522.8125 z M 53.990234 539.0625 L 72.492188 539.0625 L 63.242188 555.08594 L 63.240234 555.08594 L 53.990234 539.0625 z M 96.740234 539.0625 L 115.24219 539.0625 L 105.99219 555.08594 L 96.740234 539.0625 z M 256.28516 539.0625 L 274.78711 539.0625 L 265.53516 555.08594 L 256.28516 539.0625 z M 299.03516 539.0625 L 317.53711 539.0625 L 308.28711 555.08594 L 308.28516 555.08594 L 299.03516 539.0625 z M 458.58008 539.0625 L 477.08203 539.0625 L 467.83203 555.08594 L 467.83008 555.08594 L 458.58008 539.0625 z M 501.33008 539.0625 L 519.83203 539.0625 L 510.58203 555.08594 L 501.33008 539.0625 z M 660.875 539.0625 L 679.375 539.0625 L 670.125 555.08398 L 660.875 539.0625 z M 703.625 539.0625 L 722.125 539.0625 L 712.875 555.08594 L 703.625 539.0625 z M 863.16992 539.0625 L 881.66992 539.0625 L 877.04492 547.07422 L 872.41992 555.08594 L 863.16992 539.0625 z M 905.91992 539.0625 L 924.41992 539.0625 L 915.16992 555.08594 L 905.91992 539.0625 z M 129.92773 541.625 L 154.82617 556 L 140.45117 580.89844 L 115.55273 566.52344 L 129.92773 541.625 z M 241.59961 541.625 L 255.97266 566.52344 L 231.07422 580.89844 L 216.70117 556 L 241.59961 541.625 z M 332.22266 541.625 L 357.12109 555.99805 L 342.74609 580.89844 L 317.84766 566.52344 L 332.22266 541.625 z M 443.89453 541.625 L 458.26758 566.52344 L 433.36914 580.89844 L 418.99414 556 L 443.89453 541.625 z M 534.51758 541.625 L 559.41602 556 L 545.04102 580.89844 L 520.14258 566.52344 L 534.51758 541.625 z M 646.18945 541.625 L 660.5625 566.52344 L 635.66406 580.89844 L 621.28906 556 L 646.18945 541.625 z M 736.8125 541.625 L 761.71094 556 L 747.33594 580.89844 L 722.4375 566.52344 L 736.8125 541.625 z M 848.48242 541.625 L 862.85742 566.52344 L 837.95898 580.89844 L 823.58398 556 L 848.48242 541.625 z M 84.615234 546.0625 L 84.617188 546.0625 L 93.867188 562.08594 L 75.365234 562.08594 L 84.615234 546.0625 z M 286.91016 546.0625 L 286.91211 546.0625 L 296.16211 562.08594 L 277.66016 562.08594 L 282.28516 554.07422 L 286.91016 546.0625 z M 489.20508 546.0625 L 489.20703 546.0625 L 498.45703 562.08594 L 479.95508 562.08594 L 484.58008 554.07422 L 489.20508 546.0625 z M 691.5 546.0625 L 700.75 562.08594 L 682.25 562.08594 L 686.875 554.07422 L 691.5 546.0625 z M 893.79492 546.06445 L 898.41992 554.07422 L 903.04492 562.08594 L 884.54492 562.08594 L 893.79492 546.06445 z M 176.51172 560.4375 L 195.01367 560.4375 L 190.38867 568.44922 L 185.76367 576.46094 L 185.76172 576.46094 L 176.51172 560.4375 z M 378.80859 560.4375 L 397.30859 560.4375 L 388.05859 576.45898 L 378.80859 560.4375 z M 581.10352 560.4375 L 599.60352 560.4375 L 590.35352 576.45898 L 581.10352 560.4375 z M 783.39844 560.4375 L 801.89844 560.4375 L 792.64844 576.45898 L 783.39844 560.4375 z M 164.38867 567.4375 L 169.01367 575.44922 L 173.63867 583.46094 L 155.13672 583.46094 L 164.38867 567.4375 z M 207.13672 567.4375 L 207.13867 567.4375 L 216.38867 583.46094 L 197.88672 583.46094 L 207.13672 567.4375 z M 366.68359 567.4375 L 371.30859 575.44922 L 375.93359 583.46094 L 357.43359 583.46094 L 366.68359 567.4375 z M 409.43359 567.4375 L 418.68359 583.46094 L 400.18359 583.46094 L 409.43359 567.4375 z M 568.97852 567.4375 L 578.22852 583.46094 L 559.72852 583.46094 L 568.97852 567.4375 z M 611.72852 567.4375 L 620.97852 583.46094 L 602.47852 583.46094 L 611.72852 567.4375 z M 771.27344 567.4375 L 775.89844 575.44922 L 780.52344 583.46094 L 762.02344 583.46094 L 771.27344 567.4375 z M 814.02344 567.4375 L 823.27344 583.46094 L 804.77344 583.46094 L 814.02344 567.4375 z M 70.240234 576.08594 L 98.990234 576.08594 L 98.990234 599.71094 L 98.990234 604.83594 L 70.240234 604.83594 L 70.240234 599.71094 L 70.240234 576.08594 z M 272.53516 576.08594 L 301.28516 576.08594 L 301.28516 599.71094 L 301.28516 604.83594 L 272.53516 604.83594 L 272.53516 599.71094 L 272.53516 576.08594 z M 474.83008 576.08594 L 503.58008 576.08594 L 503.58008 599.71094 L 503.58008 604.83594 L 474.83008 604.83594 L 474.83008 599.71094 L 474.83008 576.08594 z M 677.125 576.08594 L 705.875 576.08594 L 705.875 599.71094 L 705.875 604.83594 L 677.125 604.83594 L 677.125 599.71094 L 677.125 576.08594 z M 879.41992 576.08594 L 908.16992 576.08594 L 908.16992 599.71094 L 908.16992 604.83594 L 879.41992 604.83594 L 879.41992 599.71094 L 879.41992 576.08594 z M 56.240234 581.20898 L 56.240234 599.71094 L 40.216797 590.46094 L 40.216797 590.45898 L 56.240234 581.20898 z M 112.99023 581.20898 L 129.01367 590.45898 L 129.01367 590.46094 L 121.00195 595.08594 L 112.99023 599.71094 L 112.99023 581.20898 z M 258.53516 581.20898 L 258.53516 599.71094 L 242.51172 590.46094 L 242.51172 590.45898 L 258.53516 581.20898 z M 315.28516 581.20898 L 331.30859 590.46094 L 315.28516 599.71094 L 315.28516 581.20898 z M 460.83008 581.20898 L 460.83008 599.71094 L 444.80664 590.46094 L 444.80664 590.45898 L 460.83008 581.20898 z M 517.58008 581.20898 L 533.60352 590.46094 L 517.58008 599.71094 L 517.58008 581.20898 z M 663.125 581.20898 L 663.125 599.71094 L 647.10156 590.46094 L 647.10156 590.45898 L 663.125 581.20898 z M 719.875 581.20898 L 735.89844 590.45898 L 735.89844 590.46094 L 727.88672 595.08594 L 719.875 599.71094 L 719.875 581.20898 z M 865.41992 581.20898 L 865.41992 599.71094 L 849.39648 590.46094 L 849.39648 590.45898 L 865.41992 581.20898 z M 922.16992 581.20898 L 938.19336 590.45898 L 938.19336 590.46094 L 930.18164 595.08594 L 922.16992 599.71094 L 922.16992 581.20898 z M 150.01367 597.46094 L 173.63867 597.46094 L 178.76367 597.46094 L 178.76367 626.21094 L 173.63867 626.21094 L 150.01367 626.21094 L 150.01367 597.46094 z M 192.76367 597.46094 L 197.88672 597.46094 L 221.51367 597.46094 L 221.51367 626.21094 L 197.88672 626.21094 L 192.76367 626.21094 L 192.76367 597.46094 z M 352.30859 597.46094 L 375.93359 597.46094 L 381.05859 597.46094 L 381.05859 626.21094 L 375.93359 626.21094 L 352.30859 626.21094 L 352.30859 597.46094 z M 395.05859 597.46094 L 400.18164 597.46094 L 423.80859 597.46094 L 423.80859 626.21094 L 400.18164 626.21094 L 395.05859 626.21094 L 395.05859 597.46094 z M 554.60352 597.46094 L 578.22852 597.46094 L 583.35352 597.46094 L 583.35352 626.21094 L 578.22852 626.21094 L 554.60352 626.21094 L 554.60352 597.46094 z M 597.35352 597.46094 L 602.47656 597.46094 L 626.10352 597.46094 L 626.10352 626.21094 L 602.47656 626.21094 L 597.35352 626.21094 L 597.35352 597.46094 z M 756.89844 597.46094 L 780.52344 597.46094 L 785.64844 597.46094 L 785.64844 626.21094 L 780.52344 626.21094 L 756.89844 626.21094 L 756.89844 597.46094 z M 799.64844 597.46094 L 804.77148 597.46094 L 828.39844 597.46094 L 828.39844 626.21094 L 804.77148 626.21094 L 799.64844 626.21094 L 799.64844 597.46094 z M 33.21875 602.58398 L 49.242188 611.83398 L 49.242188 611.83594 L 41.230469 616.46094 L 33.21875 621.08594 L 33.21875 602.58398 z M 136.01367 602.58398 L 136.01367 621.08594 L 119.99023 611.83594 L 119.99023 611.83398 L 136.01367 602.58398 z M 235.51367 602.58398 L 251.53711 611.83398 L 251.53711 611.83594 L 243.52344 616.46094 L 235.51367 621.08594 L 235.51367 602.58398 z M 338.30859 602.58398 L 338.30859 621.08594 L 322.28516 611.83594 L 322.28516 611.83398 L 338.30859 602.58398 z M 540.60352 602.58398 L 540.60352 621.08594 L 524.58008 611.83594 L 524.58008 611.83398 L 540.60352 602.58398 z M 640.10352 602.58398 L 656.12695 611.83398 L 656.12695 611.83594 L 648.11328 616.46094 L 640.10352 621.08594 L 640.10352 602.58398 z M 742.89844 602.58398 L 742.89844 621.08594 L 726.875 611.83594 L 726.875 611.83398 L 742.89844 602.58398 z M 945.19336 602.58398 L 945.19336 621.08594 L 929.16992 611.83594 L 929.16992 611.83398 L 945.19336 602.58398 z M 437.80859 602.58594 L 453.83008 611.83594 L 437.80859 621.08594 L 437.80859 602.58594 z M 842.39844 602.58594 L 858.41992 611.83594 L 850.41016 616.46094 L 842.39844 621.08594 L 842.39844 602.58594 z M 70.240234 618.83594 L 98.990234 618.83594 L 98.990234 623.95898 L 98.990234 647.58594 L 70.240234 647.58594 L 70.240234 623.95898 L 70.240234 618.83594 z M 272.53516 618.83594 L 301.28516 618.83594 L 301.28516 623.95898 L 301.28516 647.58594 L 272.53516 647.58594 L 272.53516 623.95898 L 272.53516 618.83594 z M 474.83008 618.83594 L 503.58008 618.83594 L 503.58008 623.95898 L 503.58008 647.58594 L 474.83008 647.58594 L 474.83008 623.95898 L 474.83008 618.83594 z M 677.125 618.83594 L 705.875 618.83594 L 705.875 623.95898 L 705.875 647.58594 L 677.125 647.58594 L 677.125 623.95898 L 677.125 618.83594 z M 879.41992 618.83594 L 908.16992 618.83594 L 908.16992 623.95898 L 908.16992 647.58594 L 879.41992 647.58594 L 879.41992 623.95898 L 879.41992 618.83594 z M 56.240234 623.95898 L 56.240234 642.46094 L 40.216797 633.21094 L 56.240234 623.95898 z M 112.99023 623.95898 L 129.01367 633.21094 L 112.99023 642.46094 L 112.99023 623.95898 z M 315.28516 623.95898 L 331.30859 633.21094 L 315.28516 642.46094 L 315.28516 623.95898 z M 517.58008 623.95898 L 533.60352 633.21094 L 517.58008 642.46094 L 517.58008 623.95898 z M 719.875 623.95898 L 735.89844 633.21094 L 719.875 642.46094 L 719.875 623.95898 z M 922.16992 623.95898 L 938.19336 633.21094 L 922.16992 642.46094 L 922.16992 623.95898 z M 258.53516 623.96094 L 258.53516 642.46094 L 242.51367 633.21094 L 258.53516 623.96094 z M 460.83008 623.96094 L 460.83008 642.46094 L 444.80859 633.21094 L 460.83008 623.96094 z M 663.125 623.96094 L 663.125 642.46094 L 647.10352 633.21094 L 663.125 623.96094 z M 865.41992 623.96094 L 865.41992 642.46094 L 849.39844 633.21094 L 865.41992 623.96094 z M 155.13867 640.21094 L 173.63867 640.21094 L 164.38867 656.23242 L 155.13867 640.21094 z M 197.88867 640.21094 L 216.38867 640.21094 L 207.13867 656.23242 L 207.13672 656.23242 L 197.88867 640.21094 z M 357.43359 640.21094 L 375.93359 640.21094 L 366.68359 656.23047 L 357.43359 640.21094 z M 400.18359 640.21094 L 418.68359 640.21094 L 409.43359 656.23242 L 400.18359 640.21094 z M 559.72852 640.21094 L 578.22852 640.21094 L 568.97852 656.23047 L 559.72852 640.21094 z M 602.47852 640.21094 L 620.97852 640.21094 L 611.72852 656.23242 L 602.47852 640.21094 z M 762.02344 640.21094 L 780.52344 640.21094 L 771.27344 656.23242 L 762.02344 640.21094 z M 804.77344 640.21094 L 823.27344 640.21094 L 814.02344 656.23242 L 804.77344 640.21094 z M 140.45117 642.77148 L 154.82617 667.66992 L 129.92773 682.04492 L 115.55273 657.14648 L 140.45117 642.77148 z M 635.66602 642.77148 L 660.5625 657.14648 L 646.18945 682.04492 L 621.29102 667.66992 L 635.66602 642.77148 z M 231.07422 642.77344 L 255.97461 657.14844 L 241.59961 682.04492 L 216.70117 667.66992 L 231.07422 642.77344 z M 342.74609 642.77344 L 357.12109 667.66992 L 332.22266 682.04492 L 317.84766 657.14648 L 342.74609 642.77344 z M 433.36914 642.77344 L 458.26953 657.14844 L 443.89453 682.04492 L 418.99609 667.66992 L 433.36914 642.77344 z M 545.04102 642.77344 L 559.41602 667.66992 L 534.51758 682.04492 L 520.14258 657.14648 L 545.04102 642.77344 z M 747.33594 642.77344 L 761.71094 667.66992 L 736.8125 682.04492 L 722.4375 657.14648 L 747.33594 642.77344 z M 837.96094 642.77344 L 862.85742 657.14648 L 848.48242 682.04492 L 823.58594 667.66992 L 837.96094 642.77344 z M 185.76172 647.20898 L 185.76367 647.20898 L 190.38867 655.22266 L 195.01367 663.23242 L 176.51172 663.23242 L 185.76172 647.20898 z M 388.05859 647.21094 L 392.68359 655.22266 L 397.30859 663.23242 L 378.80859 663.23242 L 388.05859 647.21094 z M 590.35352 647.21094 L 599.60352 663.23242 L 581.10352 663.23242 L 590.35352 647.21094 z M 792.64844 647.21094 L 797.27344 655.22266 L 801.89844 663.23242 L 783.39844 663.23242 L 792.64844 647.21094 z M 75.365234 661.58594 L 93.865234 661.58594 L 84.617188 677.60742 L 84.615234 677.60742 L 75.365234 661.58594 z M 277.66016 661.58594 L 296.16016 661.58594 L 286.91016 677.60742 L 277.66016 661.58594 z M 479.95508 661.58594 L 498.45703 661.58594 L 489.20703 677.60742 L 489.20508 677.60742 L 479.95508 661.58594 z M 682.25 661.58594 L 700.75 661.58594 L 691.5 677.60547 L 682.25 661.58594 z M 884.54492 661.58594 L 903.04492 661.58594 L 893.79492 677.60742 L 884.54492 661.58594 z M 105.99219 668.58398 L 115.24219 684.60742 L 96.740234 684.60742 L 105.99219 668.58398 z M 265.53516 668.58398 L 274.78711 684.60742 L 256.28516 684.60742 L 265.53516 668.58398 z M 308.28516 668.58398 L 308.28711 668.58398 L 317.53711 684.60742 L 299.03516 684.60742 L 303.66016 676.59766 L 308.28516 668.58398 z M 510.58203 668.58398 L 519.83203 684.60742 L 501.33008 684.60742 L 505.95508 676.59766 L 510.58203 668.58398 z M 63.240234 668.58594 L 72.490234 684.60742 L 53.990234 684.60742 L 63.240234 668.58594 z M 467.83008 668.58594 L 477.08008 684.60742 L 458.58008 684.60742 L 467.83008 668.58594 z M 670.125 668.58594 L 674.75 676.59766 L 679.375 684.60742 L 660.875 684.60742 L 670.125 668.58594 z M 712.875 668.58594 L 722.125 684.60742 L 703.625 684.60742 L 708.25 676.59766 L 712.875 668.58594 z M 872.41992 668.58594 L 877.04492 676.59766 L 881.66992 684.60742 L 863.16992 684.60742 L 872.41992 668.58594 z M 915.16992 668.58594 L 924.41992 684.60742 L 905.91992 684.60742 L 915.16992 668.58594 z M 171.38867 677.23242 L 200.13867 677.23242 L 200.13867 700.85742 L 200.13867 705.98242 L 171.38867 705.98242 L 171.38867 700.85742 L 171.38867 677.23242 z M 373.68359 677.23242 L 402.43359 677.23242 L 402.43359 700.85742 L 402.43359 705.98242 L 373.68359 705.98242 L 373.68359 700.85742 L 373.68359 677.23242 z M 575.97852 677.23242 L 604.72852 677.23242 L 604.72852 700.85742 L 604.72852 705.98242 L 575.97852 705.98242 L 575.97852 700.85742 L 575.97852 677.23242 z M 778.27344 677.23242 L 807.02344 677.23242 L 807.02344 700.85742 L 807.02344 705.98242 L 778.27344 705.98242 L 778.27344 700.85742 L 778.27344 677.23242 z M 157.38867 682.35742 L 157.38867 700.85742 L 141.36523 691.60742 L 157.38867 682.35742 z M 214.13867 682.35742 L 230.16016 691.60742 L 222.14844 696.23242 L 214.13867 700.85742 L 214.13867 682.35742 z M 359.68359 682.35742 L 359.68359 700.85742 L 343.66016 691.60742 L 359.68359 682.35742 z M 416.43359 682.35742 L 432.45508 691.60742 L 416.43359 700.85742 L 416.43359 682.35742 z M 561.97852 682.35742 L 561.97852 700.85742 L 545.95508 691.60742 L 561.97852 682.35742 z M 618.72852 682.35742 L 634.75195 691.60742 L 626.74023 696.23242 L 618.72852 700.85742 L 618.72852 682.35742 z M 764.27344 682.35742 L 764.27344 700.85742 L 748.25195 691.60742 L 764.27344 682.35742 z M 821.02344 682.35742 L 837.04492 691.60742 L 829.03516 696.23242 L 821.02344 700.85742 L 821.02344 682.35742 z M 48.865234 698.60742 L 72.492188 698.60742 L 77.615234 698.60742 L 77.615234 727.35742 L 72.492188 727.35742 L 48.865234 727.35742 L 48.865234 698.60742 z M 91.615234 698.60742 L 96.740234 698.60742 L 120.36523 698.60742 L 120.36523 727.35742 L 96.740234 727.35742 L 91.615234 727.35742 L 91.615234 698.60742 z M 251.16016 698.60742 L 274.78711 698.60742 L 279.91016 698.60742 L 279.91016 727.35742 L 274.78711 727.35742 L 251.16016 727.35742 L 251.16016 698.60742 z M 293.91016 698.60742 L 299.03516 698.60742 L 322.66016 698.60742 L 322.66016 727.35742 L 299.03516 727.35742 L 293.91016 727.35742 L 293.91016 698.60742 z M 453.45508 698.60742 L 477.08203 698.60742 L 482.20508 698.60742 L 482.20508 727.35742 L 477.08203 727.35742 L 453.45508 727.35742 L 453.45508 698.60742 z M 496.20508 698.60742 L 501.33008 698.60742 L 524.95508 698.60742 L 524.95508 727.35742 L 501.33008 727.35742 L 496.20508 727.35742 L 496.20508 698.60742 z M 655.75195 698.60742 L 679.375 698.60742 L 684.5 698.60742 L 684.5 727.35742 L 679.375 727.35742 L 655.75195 727.35742 L 655.75195 698.60742 z M 698.5 698.60742 L 703.625 698.60742 L 727.25 698.60742 L 727.25 727.35742 L 703.625 727.35742 L 698.5 727.35742 L 698.5 698.60742 z M 858.04492 698.60742 L 881.66992 698.60742 L 886.79492 698.60742 L 886.79492 727.35742 L 881.66992 727.35742 L 858.04492 727.35742 L 858.04492 698.60742 z M 900.79492 698.60742 L 905.91992 698.60742 L 929.54492 698.60742 L 929.54492 727.35742 L 905.91992 727.35742 L 900.79492 727.35742 L 900.79492 698.60742 z M 641.75195 703.73047 L 641.75195 722.23242 L 625.72852 712.98242 L 641.75195 703.73047 z M 34.865234 703.73242 L 34.865234 722.23242 L 18.84375 712.98242 L 34.865234 703.73242 z M 134.36523 703.73242 L 150.38672 712.98242 L 142.37695 717.60742 L 134.36523 722.23242 L 134.36523 703.73242 z M 237.16016 703.73242 L 237.16016 722.23242 L 221.13867 712.98242 L 237.16016 703.73242 z M 336.66016 703.73242 L 352.68359 712.98242 L 336.66016 722.23242 L 336.66016 703.73242 z M 439.45508 703.73242 L 439.45508 722.23242 L 423.43359 712.98242 L 439.45508 703.73242 z M 538.95508 703.73242 L 554.97656 712.98242 L 538.95508 722.23242 L 538.95508 703.73242 z M 741.25 703.73242 L 757.27344 712.98242 L 749.26172 717.60742 L 741.25 722.23242 L 741.25 703.73242 z M 844.04492 703.73242 L 844.04492 722.23242 L 828.02344 712.98242 L 836.03516 708.35742 L 844.04492 703.73242 z M 943.54492 703.73242 L 959.56836 712.98242 L 943.54492 722.23242 L 943.54492 703.73242 z M 171.38867 719.98242 L 200.13867 719.98242 L 200.13867 725.10547 L 200.13867 748.73242 L 171.38867 748.73242 L 171.38867 725.10742 L 171.38867 719.98242 z M 373.68359 719.98242 L 402.43359 719.98242 L 402.43359 725.10547 L 402.43359 748.73242 L 373.68359 748.73242 L 373.68359 725.10742 L 373.68359 719.98242 z M 575.97852 719.98242 L 604.72852 719.98242 L 604.72852 725.10547 L 604.72852 748.73242 L 575.97852 748.73242 L 575.97852 725.10742 L 575.97852 719.98242 z M 778.27344 719.98242 L 807.02344 719.98242 L 807.02344 725.10742 L 807.02344 748.73242 L 778.27344 748.73242 L 778.27344 725.10547 L 778.27344 719.98242 z M 157.38867 725.10742 L 157.38867 743.60742 L 141.36523 734.35742 L 157.38867 725.10742 z M 214.13867 725.10742 L 230.16016 734.35742 L 214.13867 743.60742 L 214.13867 725.10742 z M 359.68359 725.10742 L 359.68359 743.60742 L 343.66016 734.35742 L 359.68359 725.10742 z M 416.43359 725.10742 L 432.45508 734.35742 L 416.43359 743.60742 L 416.43359 725.10742 z M 561.97852 725.10742 L 561.97852 743.60742 L 545.95508 734.35742 L 553.9668 729.73242 L 561.97852 725.10742 z M 618.72852 725.10742 L 634.75195 734.35742 L 618.72852 743.60742 L 618.72852 725.10742 z M 764.27344 725.10742 L 764.27344 743.60742 L 748.25 734.35742 L 764.27344 725.10742 z M 821.02344 725.10742 L 837.04492 734.35742 L 821.02344 743.60742 L 821.02344 725.10742 z M 53.990234 741.35742 L 72.492188 741.35742 L 63.242188 757.38086 L 63.240234 757.38086 L 53.990234 741.35742 z M 96.740234 741.35742 L 115.24219 741.35742 L 105.99219 757.38086 L 96.740234 741.35742 z M 256.28516 741.35742 L 274.78711 741.35742 L 265.53516 757.38086 L 256.28516 741.35742 z M 299.03516 741.35742 L 317.53711 741.35742 L 308.28711 757.38086 L 308.28516 757.38086 L 299.03516 741.35742 z M 458.58008 741.35742 L 477.08203 741.35742 L 467.83203 757.38086 L 467.83008 757.38086 L 458.58008 741.35742 z M 501.33008 741.35742 L 519.83203 741.35742 L 510.58203 757.38086 L 501.33008 741.35742 z M 660.875 741.35742 L 679.375 741.35742 L 674.75 749.36914 L 670.125 757.38086 L 660.875 741.35742 z M 703.625 741.35742 L 722.125 741.35742 L 712.875 757.38086 L 703.625 741.35742 z M 863.16992 741.35742 L 881.66992 741.35742 L 877.04492 749.36914 L 872.41992 757.38086 L 863.16992 741.35742 z M 905.91992 741.35742 L 924.41992 741.35742 L 915.16992 757.38086 L 905.91992 741.35742 z M 129.92773 743.91992 L 154.82617 758.29492 L 140.45117 783.19336 L 115.55273 768.81836 L 129.92773 743.91992 z M 241.59961 743.91992 L 255.97266 768.81836 L 231.07422 783.19336 L 216.70117 758.29492 L 241.59961 743.91992 z M 332.22266 743.91992 L 357.12109 758.29492 L 342.74609 783.19336 L 317.84766 768.81836 L 332.22266 743.91992 z M 443.89453 743.91992 L 458.26758 768.81836 L 433.37109 783.19336 L 418.99609 758.29492 L 443.89453 743.91992 z M 534.51758 743.91992 L 559.41602 758.29492 L 545.04102 783.19336 L 520.14258 768.81836 L 534.51758 743.91992 z M 646.18945 743.91992 L 660.5625 768.81836 L 635.66406 783.19336 L 621.29102 758.29492 L 646.18945 743.91992 z M 736.8125 743.91992 L 761.71094 758.29492 L 747.33594 783.19336 L 722.4375 768.81836 L 736.8125 743.91992 z M 848.48242 743.91992 L 862.85742 768.81836 L 837.96094 783.19336 L 823.58594 758.29492 L 848.48242 743.91992 z M 84.615234 748.35742 L 84.617188 748.35742 L 93.867188 764.38086 L 75.365234 764.38086 L 84.615234 748.35742 z M 286.91016 748.35742 L 286.91211 748.35742 L 296.16211 764.38086 L 277.66016 764.38086 L 286.91016 748.35742 z M 489.20508 748.35742 L 489.20703 748.35742 L 498.45703 764.38086 L 479.95508 764.38086 L 484.58008 756.36914 L 489.20508 748.35742 z M 691.5 748.35938 L 696.125 756.36914 L 700.75 764.38086 L 682.25 764.38086 L 686.875 756.36914 L 691.5 748.35938 z M 893.79492 748.35938 L 898.41992 756.36914 L 903.04492 764.38086 L 884.54492 764.38086 L 893.79492 748.35938 z M 176.51172 762.73242 L 195.01367 762.73242 L 190.38867 770.74414 L 185.76367 778.75586 L 185.76172 778.75586 L 176.51172 762.73242 z M 378.80859 762.73242 L 397.30859 762.73242 L 392.68359 770.74414 L 388.05859 778.75586 L 378.80859 762.73242 z M 581.10352 762.73242 L 599.60352 762.73242 L 590.35352 778.75391 L 581.10352 762.73242 z M 783.39844 762.73242 L 801.89844 762.73242 L 797.27344 770.74414 L 792.64844 778.75586 L 783.39844 762.73242 z M 164.38867 769.73242 L 169.01367 777.74414 L 173.63867 785.75586 L 155.13672 785.75586 L 164.38867 769.73242 z M 207.13672 769.73242 L 207.13867 769.73242 L 216.38867 785.75586 L 197.88672 785.75586 L 207.13672 769.73242 z M 366.68359 769.73242 L 375.93359 785.75586 L 357.43359 785.75586 L 366.68359 769.73242 z M 409.43359 769.73242 L 418.68359 785.75586 L 400.18359 785.75586 L 409.43359 769.73242 z M 568.97852 769.73242 L 573.60352 777.74414 L 578.22852 785.75586 L 559.72852 785.75586 L 568.97852 769.73242 z M 611.72852 769.73242 L 620.97852 785.75586 L 602.47852 785.75586 L 611.72852 769.73242 z M 771.27344 769.73242 L 775.89844 777.74414 L 780.52344 785.75586 L 762.02344 785.75586 L 771.27344 769.73242 z M 814.02344 769.73242 L 823.27344 785.75586 L 804.77344 785.75586 L 814.02344 769.73242 z M 70.240234 778.38086 L 98.990234 778.38086 L 98.990234 802.00586 L 98.990234 807.13086 L 70.240234 807.13086 L 70.240234 802.00586 L 70.240234 778.38086 z M 272.53516 778.38086 L 301.28516 778.38086 L 301.28516 802.00586 L 301.28516 807.13086 L 272.53516 807.13086 L 272.53516 802.00586 L 272.53516 778.38086 z M 474.83008 778.38086 L 503.58008 778.38086 L 503.58008 802.00586 L 503.58008 807.13086 L 474.83008 807.13086 L 474.83008 802.00586 L 474.83008 778.38086 z M 677.125 778.38086 L 705.875 778.38086 L 705.875 802.00586 L 705.875 807.13086 L 677.125 807.13086 L 677.125 802.00586 L 677.125 778.38086 z M 879.41992 778.38086 L 908.16992 778.38086 L 908.16992 802.00586 L 908.16992 807.13086 L 879.41992 807.13086 L 879.41992 802.00586 L 879.41992 778.38086 z M 56.240234 783.50391 L 56.240234 802.00586 L 40.216797 792.75391 L 56.240234 783.50391 z M 112.99023 783.50391 L 129.01367 792.75391 L 121.00195 797.38086 L 112.99023 802.00586 L 112.99023 783.50391 z M 258.53516 783.50391 L 258.53516 802.00586 L 242.51172 792.75391 L 258.53516 783.50391 z M 315.28516 783.50391 L 331.30859 792.75391 L 315.28516 802.00586 L 315.28516 783.50391 z M 460.83008 783.50391 L 460.83008 802.00586 L 444.80664 792.75391 L 460.83008 783.50391 z M 517.58008 783.50391 L 533.60352 792.75391 L 517.58008 802.00586 L 517.58008 783.50391 z M 663.125 783.50391 L 663.125 802.00586 L 647.10156 792.75391 L 663.125 783.50391 z M 719.875 783.50391 L 735.89844 792.75391 L 727.88672 797.38086 L 719.875 802.00586 L 719.875 783.50391 z M 865.41992 783.50391 L 865.41992 802.00586 L 849.39648 792.75391 L 865.41992 783.50391 z M 922.16992 783.50391 L 938.19336 792.75391 L 930.18164 797.38086 L 922.16992 802.00586 L 922.16992 783.50391 z M 150.01367 799.75586 L 173.63867 799.75586 L 178.76367 799.75586 L 178.76367 828.50586 L 173.63867 828.50586 L 150.01367 828.50586 L 150.01367 799.75586 z M 192.76367 799.75586 L 197.88672 799.75586 L 221.51367 799.75586 L 221.51367 828.50586 L 197.88672 828.50586 L 192.76367 828.50586 L 192.76367 799.75586 z M 352.30859 799.75586 L 375.93359 799.75586 L 381.05859 799.75586 L 381.05859 828.50586 L 375.93359 828.50586 L 352.30859 828.50586 L 352.30859 799.75586 z M 395.05859 799.75586 L 400.18164 799.75586 L 423.80859 799.75586 L 423.80859 828.50586 L 400.18164 828.50586 L 395.05859 828.50586 L 395.05859 799.75586 z M 554.60352 799.75586 L 578.22852 799.75586 L 583.35352 799.75586 L 583.35352 828.50586 L 578.22852 828.50586 L 554.60352 828.50586 L 554.60352 799.75586 z M 597.35352 799.75586 L 602.47656 799.75586 L 626.10352 799.75586 L 626.10352 828.50586 L 602.47656 828.50586 L 597.35352 828.50586 L 597.35352 799.75586 z M 756.89844 799.75586 L 780.52344 799.75586 L 785.64844 799.75586 L 785.64844 828.50586 L 780.52344 828.50586 L 756.89844 828.50586 L 756.89844 799.75586 z M 799.64844 799.75586 L 804.77148 799.75586 L 828.39844 799.75586 L 828.39844 828.50586 L 804.77148 828.50586 L 799.64844 828.50586 L 799.64844 799.75586 z M 33.21875 804.87891 L 49.242188 814.12891 L 49.242188 814.13086 L 41.230469 818.75586 L 33.21875 823.38086 L 33.21875 804.87891 z M 136.01367 804.87891 L 136.01367 823.38086 L 119.99023 814.13086 L 119.99023 814.12891 L 136.01367 804.87891 z M 235.51367 804.87891 L 251.53711 814.12891 L 251.53711 814.13086 L 243.52344 818.75586 L 235.51367 823.38086 L 235.51367 804.87891 z M 338.30859 804.87891 L 338.30859 823.38086 L 322.28516 814.13086 L 322.28516 814.12891 L 338.30859 804.87891 z M 540.60352 804.87891 L 540.60352 823.38086 L 524.58008 814.13086 L 524.58008 814.12891 L 540.60352 804.87891 z M 742.89844 804.87891 L 742.89844 823.38086 L 726.875 814.13086 L 726.875 814.12891 L 742.89844 804.87891 z M 945.19336 804.87891 L 945.19336 823.38086 L 929.16992 814.13086 L 929.16992 814.12891 L 945.19336 804.87891 z M 437.80859 804.88086 L 453.83008 814.13086 L 437.80859 823.38086 L 437.80859 804.88086 z M 640.10352 804.88086 L 656.125 814.13086 L 648.11328 818.75586 L 640.10352 823.38086 L 640.10352 804.88086 z M 842.39844 804.88086 L 858.41992 814.13086 L 850.41016 818.75586 L 842.39844 823.38086 L 842.39844 804.88086 z M 70.240234 821.13086 L 98.990234 821.13086 L 98.990234 826.25391 L 98.990234 849.88086 L 70.240234 849.88086 L 70.240234 826.25391 L 70.240234 821.13086 z M 272.53516 821.13086 L 301.28516 821.13086 L 301.28516 826.25391 L 301.28516 849.88086 L 272.53516 849.88086 L 272.53516 826.25391 L 272.53516 821.13086 z M 474.83008 821.13086 L 503.58008 821.13086 L 503.58008 826.25391 L 503.58008 849.88086 L 474.83008 849.88086 L 474.83008 826.25391 L 474.83008 821.13086 z M 677.125 821.13086 L 705.875 821.13086 L 705.875 826.25391 L 705.875 849.88086 L 677.125 849.88086 L 677.125 826.25391 L 677.125 821.13086 z M 879.41992 821.13086 L 908.16992 821.13086 L 908.16992 826.25391 L 908.16992 849.88086 L 879.41992 849.88086 L 879.41992 826.25391 L 879.41992 821.13086 z M 56.240234 826.25391 L 56.240234 844.75586 L 40.216797 835.50586 L 56.240234 826.25391 z M 112.99023 826.25391 L 129.01367 835.50391 L 129.01367 835.50586 L 112.99023 844.75586 L 112.99023 826.25391 z M 258.53516 826.25391 L 258.53516 844.75586 L 242.51172 835.50586 L 258.53516 826.25391 z M 315.28516 826.25391 L 331.30859 835.50391 L 331.30859 835.50586 L 315.28516 844.75586 L 315.28516 826.25391 z M 517.58008 826.25391 L 533.60352 835.50391 L 533.60352 835.50586 L 517.58008 844.75586 L 517.58008 826.25391 z M 719.875 826.25391 L 735.89844 835.50391 L 735.89844 835.50586 L 719.875 844.75586 L 719.875 826.25391 z M 922.16992 826.25391 L 938.19336 835.50391 L 938.19336 835.50586 L 922.16992 844.75586 L 922.16992 826.25391 z M 460.83008 826.25586 L 460.83008 844.75586 L 444.80859 835.50586 L 460.83008 826.25586 z M 663.125 826.25586 L 663.125 844.75586 L 647.10352 835.50586 L 663.125 826.25586 z M 865.41992 826.25586 L 865.41992 844.75586 L 849.39844 835.50586 L 865.41992 826.25586 z M 155.13867 842.50586 L 173.63867 842.50586 L 169.01367 850.51562 L 164.38867 858.52734 L 155.13867 842.50586 z M 197.88867 842.50586 L 216.38867 842.50586 L 207.13867 858.52734 L 197.88867 842.50586 z M 357.43359 842.50586 L 375.93359 842.50586 L 371.30859 850.51562 L 366.68359 858.52734 L 357.43359 842.50586 z M 400.18359 842.50586 L 418.68359 842.50586 L 409.43359 858.52734 L 400.18359 842.50586 z M 559.72852 842.50586 L 578.22852 842.50586 L 573.60352 850.51562 L 568.97852 858.52734 L 559.72852 842.50586 z M 602.47852 842.50586 L 620.97852 842.50586 L 611.72852 858.52734 L 602.47852 842.50586 z M 762.02344 842.50586 L 780.52344 842.50586 L 775.89844 850.51562 L 771.27344 858.52734 L 762.02344 842.50586 z M 804.77344 842.50586 L 823.27344 842.50586 L 814.02344 858.52734 L 804.77344 842.50586 z M 140.45117 845.06641 L 154.82617 869.96484 L 129.92773 884.33984 L 115.55273 859.44141 L 140.45117 845.06641 z M 231.07617 845.06641 L 255.97461 859.44141 L 241.59961 884.33984 L 216.69922 869.96484 L 231.07617 845.06641 z M 342.74609 845.06836 L 357.12109 869.96484 L 332.22266 884.33984 L 317.84766 859.44141 L 342.74609 845.06836 z M 433.37109 845.06836 L 458.26758 859.44141 L 443.89453 884.33984 L 418.99609 869.96484 L 433.37109 845.06836 z M 545.04102 845.06836 L 559.41602 869.96484 L 534.51758 884.33984 L 520.14258 859.44141 L 545.04102 845.06836 z M 635.66602 845.06836 L 660.5625 859.44141 L 646.18945 884.33984 L 621.29102 869.96484 L 635.66602 845.06836 z M 747.33594 845.06836 L 761.71094 869.96484 L 736.8125 884.33984 L 722.4375 859.44141 L 747.33594 845.06836 z M 837.96094 845.06836 L 862.85742 859.44141 L 848.48242 884.33984 L 823.58594 869.96484 L 837.96094 845.06836 z M 185.76172 849.50391 L 185.76367 849.50391 L 190.38867 857.51562 L 195.01367 865.52734 L 176.51172 865.52734 L 185.76172 849.50391 z M 388.05859 849.50586 L 392.68359 857.51562 L 397.30859 865.52734 L 378.80859 865.52734 L 388.05859 849.50586 z M 590.35352 849.50586 L 594.97852 857.51562 L 599.60352 865.52734 L 581.10352 865.52734 L 590.35352 849.50586 z M 792.64844 849.50586 L 797.27344 857.51562 L 801.89844 865.52734 L 783.39844 865.52734 L 792.64844 849.50586 z M 75.365234 863.88086 L 93.865234 863.88086 L 84.615234 879.90234 L 75.365234 863.88086 z M 277.66016 863.88086 L 296.16016 863.88086 L 286.91016 879.90234 L 277.66016 863.88086 z M 479.95508 863.88086 L 498.45508 863.88086 L 489.20508 879.90234 L 479.95508 863.88086 z M 682.25 863.88086 L 700.75 863.88086 L 696.125 871.89062 L 691.5 879.90234 L 682.25 863.88086 z M 884.54492 863.88086 L 903.04492 863.88086 L 898.41992 871.89062 L 893.79492 879.90234 L 884.54492 863.88086 z M 105.99219 870.87891 L 115.24219 886.90234 L 96.740234 886.90234 L 105.99219 870.87891 z M 308.28516 870.87891 L 308.28711 870.87891 L 317.53711 886.90234 L 299.03516 886.90234 L 308.28516 870.87891 z M 510.58203 870.87891 L 519.83203 886.90234 L 501.33008 886.90234 L 510.58203 870.87891 z M 63.240234 870.88086 L 72.490234 886.90234 L 53.990234 886.90234 L 63.240234 870.88086 z M 265.53516 870.88086 L 274.78516 886.90234 L 256.28516 886.90234 L 265.53516 870.88086 z M 467.83008 870.88086 L 477.08008 886.90234 L 458.58008 886.90234 L 467.83008 870.88086 z M 670.125 870.88086 L 674.75 878.89062 L 679.375 886.90234 L 660.875 886.90234 L 670.125 870.88086 z M 712.875 870.88086 L 722.125 886.90234 L 703.625 886.90234 L 712.875 870.88086 z M 872.41992 870.88086 L 877.04492 878.89062 L 881.66992 886.90234 L 863.16992 886.90234 L 872.41992 870.88086 z M 915.16992 870.88086 L 924.41992 886.90234 L 905.91992 886.90234 L 915.16992 870.88086 z M 171.38867 879.52734 L 200.13867 879.52734 L 200.13867 903.15234 L 200.13867 908.27734 L 171.38867 908.27734 L 171.38867 903.15234 L 171.38867 879.52734 z M 373.68359 879.52734 L 402.43359 879.52734 L 402.43359 903.15234 L 402.43359 908.27734 L 373.68359 908.27734 L 373.68359 903.15234 L 373.68359 879.52734 z M 575.97852 879.52734 L 604.72852 879.52734 L 604.72852 903.15234 L 604.72852 908.27734 L 575.97852 908.27734 L 575.97852 903.15234 L 575.97852 879.52734 z M 778.27344 879.52734 L 807.02344 879.52734 L 807.02344 903.15234 L 807.02344 908.27734 L 778.27344 908.27734 L 778.27344 903.15234 L 778.27344 879.52734 z M 157.38867 884.65234 L 157.38867 903.15234 L 141.36523 893.90234 L 157.38867 884.65234 z M 214.13867 884.65234 L 230.16016 893.90234 L 222.14844 898.52734 L 214.13867 903.15234 L 214.13867 884.65234 z M 359.68359 884.65234 L 359.68359 903.15234 L 343.66016 893.90234 L 359.68359 884.65234 z M 416.43359 884.65234 L 432.45508 893.90234 L 424.44531 898.52734 L 416.43359 903.15234 L 416.43359 884.65234 z M 561.97852 884.65234 L 561.97852 903.15234 L 545.95703 893.90234 L 561.97852 884.65234 z M 618.72852 884.65234 L 634.75195 893.90234 L 626.74023 898.52734 L 618.72852 903.15234 L 618.72852 884.65234 z M 764.27344 884.65234 L 764.27344 903.15234 L 748.25195 893.90234 L 764.27344 884.65234 z M 821.02344 884.65234 L 837.04492 893.90234 L 829.03516 898.52734 L 821.02344 903.15234 L 821.02344 884.65234 z M 48.865234 900.90234 L 72.492188 900.90234 L 77.615234 900.90234 L 77.615234 929.65234 L 72.492188 929.65234 L 48.865234 929.65234 L 48.865234 900.90234 z M 91.615234 900.90234 L 96.740234 900.90234 L 120.36523 900.90234 L 120.36523 929.65234 L 96.740234 929.65234 L 91.615234 929.65234 L 91.615234 900.90234 z M 251.16016 900.90234 L 274.78711 900.90234 L 279.91016 900.90234 L 279.91016 929.65234 L 274.78711 929.65234 L 251.16016 929.65234 L 251.16016 900.90234 z M 293.91016 900.90234 L 299.03516 900.90234 L 322.66016 900.90234 L 322.66016 929.65234 L 299.03516 929.65234 L 293.91016 929.65234 L 293.91016 900.90234 z M 453.45508 900.90234 L 477.08203 900.90234 L 482.20508 900.90234 L 482.20508 929.65234 L 477.08203 929.65234 L 453.45508 929.65234 L 453.45508 900.90234 z M 496.20508 900.90234 L 501.33008 900.90234 L 524.95508 900.90234 L 524.95508 929.65234 L 501.33008 929.65234 L 496.20508 929.65234 L 496.20508 900.90234 z M 655.75195 900.90234 L 679.375 900.90234 L 684.5 900.90234 L 684.5 929.65234 L 679.375 929.65234 L 655.75195 929.65234 L 655.75195 900.90234 z M 698.5 900.90234 L 703.625 900.90234 L 727.25 900.90234 L 727.25 929.65234 L 703.625 929.65234 L 698.5 929.65234 L 698.5 900.90234 z M 858.04492 900.90234 L 881.66992 900.90234 L 886.79492 900.90234 L 886.79492 929.65234 L 881.66992 929.65234 L 858.04492 929.65234 L 858.04492 900.90234 z M 900.79492 900.90234 L 905.91992 900.90234 L 929.54492 900.90234 L 929.54492 929.65234 L 905.91992 929.65234 L 900.79492 929.65234 L 900.79492 900.90234 z M 641.75195 906.02539 L 641.75195 924.5293 L 625.72852 915.27734 L 641.75195 906.02539 z M 34.865234 906.02734 L 34.865234 924.52734 L 18.84375 915.27734 L 34.865234 906.02734 z M 134.36523 906.02734 L 150.38672 915.27734 L 142.37695 919.90234 L 134.36523 924.52734 L 134.36523 906.02734 z M 237.16016 906.02734 L 237.16016 924.52734 L 221.13867 915.27734 L 237.16016 906.02734 z M 336.66016 906.02734 L 352.68164 915.27734 L 336.66016 924.52734 L 336.66016 906.02734 z M 439.45508 906.02734 L 439.45508 924.52734 L 423.43359 915.27734 L 439.45508 906.02734 z M 538.95508 906.02734 L 554.97852 915.27734 L 538.95508 924.52734 L 538.95508 906.02734 z M 741.25 906.02734 L 757.27344 915.27734 L 749.26172 919.90234 L 741.25 924.52734 L 741.25 906.02734 z M 844.04492 906.02734 L 844.04492 924.52734 L 828.02344 915.27734 L 836.03516 910.65234 L 844.04492 906.02734 z M 943.54492 906.02734 L 959.56836 915.27734 L 943.54492 924.52734 L 943.54492 906.02734 z M 171.38867 922.27734 L 200.13867 922.27734 L 200.13867 927.40039 L 200.13867 951.02734 L 171.38867 951.02734 L 171.38867 927.40234 L 171.38867 922.27734 z M 373.68359 922.27734 L 402.43359 922.27734 L 402.43359 927.40039 L 402.43359 951.02734 L 373.68359 951.02734 L 373.68359 927.40234 L 373.68359 922.27734 z M 575.97852 922.27734 L 604.72852 922.27734 L 604.72852 927.40039 L 604.72852 951.02734 L 575.97852 951.02734 L 575.97852 927.40234 L 575.97852 922.27734 z M 778.27344 922.27734 L 807.02344 922.27734 L 807.02344 927.40234 L 807.02344 951.02734 L 778.27344 951.02734 L 778.27344 927.40039 L 778.27344 922.27734 z M 157.38867 927.40234 L 157.38867 945.90234 L 141.36523 936.65234 L 157.38867 927.40234 z M 214.13867 927.40234 L 230.16016 936.65234 L 214.13867 945.90234 L 214.13867 927.40234 z M 359.68359 927.40234 L 359.68359 945.90234 L 343.66016 936.65234 L 359.68359 927.40234 z M 416.43359 927.40234 L 432.45508 936.65234 L 416.43359 945.90234 L 416.43359 927.40234 z M 561.97852 927.40234 L 561.97852 945.90234 L 545.95508 936.65234 L 553.9668 932.02734 L 561.97852 927.40234 z M 618.72852 927.40234 L 634.75195 936.65234 L 618.72852 945.90234 L 618.72852 927.40234 z M 764.27344 927.40234 L 764.27344 945.90234 L 748.25 936.65234 L 764.27344 927.40234 z M 821.02344 927.40234 L 837.04492 936.65234 L 821.02344 945.90234 L 821.02344 927.40234 z M 53.990234 943.65234 L 72.492188 943.65234 L 63.242188 959.67578 L 53.990234 943.65234 z M 96.740234 943.65234 L 115.24219 943.65234 L 105.99219 959.67578 L 96.740234 943.65234 z M 256.28516 943.65234 L 274.78711 943.65234 L 265.53516 959.67578 L 256.28516 943.65234 z M 299.03516 943.65234 L 317.53711 943.65234 L 308.28516 959.67578 L 299.03516 943.65234 z M 458.58008 943.65234 L 477.08203 943.65234 L 467.83203 959.67578 L 458.58008 943.65234 z M 501.33008 943.65234 L 519.83203 943.65234 L 510.58203 959.67578 L 501.33008 943.65234 z M 660.875 943.65234 L 679.375 943.65234 L 670.125 959.67578 L 660.875 943.65234 z M 703.625 943.65234 L 722.125 943.65234 L 712.875 959.67578 L 703.625 943.65234 z M 863.16992 943.65234 L 881.66992 943.65234 L 872.41992 959.67578 L 863.16992 943.65234 z M 905.91992 943.65234 L 924.41992 943.65234 L 915.16992 959.67578 L 905.91992 943.65234 z M 176.51172 965.02734 L 195.01367 965.02734 L 185.76172 981.05078 L 176.51172 965.02734 z M 378.80859 965.02734 L 397.30859 965.02734 L 388.05859 981.05078 L 378.80859 965.02734 z M 581.10352 965.02734 L 599.60352 965.02734 L 590.35352 981.05078 L 581.10352 965.02734 z M 783.39844 965.02734 L 801.89844 965.02734 L 792.64844 981.05078 L 783.39844 965.02734 z "
     style="color:#000000;font-style:normal;font-variant:normal;font-weight:normal;font-stretch:normal;font-size:medium;line-height:normal;font-family:sans-serif;font-variant-ligatures:normal;font-variant-position:normal;font-variant-caps:normal;font-variant-numeric:normal;font-variant-alternates:normal;font-variant-east-asian:normal;font-feature-settings:normal;font-variation-settings:normal;text-indent:0;text-align:start;text-decoration:none;text-decoration-line:none;text-decoration-style:solid;text-decoration-color:#000000;letter-spacing:normal;word-spacing:normal;text-transform:none;writing-mode:lr-tb;direction:ltr;text-orientation:mixed;dominant-baseline:auto;baseline-shift:baseline;text-anchor:start;white-space:normal;shape-padding:0;shape-margin:0;inline-size:0;clip-rule:nonzero;display:inline;overflow:visible;visibility:visible;isolation:auto;mix-blend-mode:normal;color-interpolation:sRGB;color-interpolation-filters:linearRGB;solid-color:#000000;solid-opacity:1;vector-effect:none;fill:#000000;fill-opacity:1;fill-rule:nonzero;stroke:none;stroke-width:14;stroke-linecap:butt;stroke-linejoin:miter;stroke-miterlimit:4;stroke-dasharray:none;stroke-dashoffset:0;stroke-opacity:1;filter-blend-mode:normal;filter-gaussianBlur-deviation:0;color-rendering:auto;image-rendering:auto;shape-rendering:auto;text-rendering:auto;enable-background:accumulate;stop-color:#000000;stop-opacity:1;opacity:1" />
</svg>
