<?xml version="1.0" encoding="UTF-8" standalone="no"?>
<svg
   xmlns:dc="http://purl.org/dc/elements/1.1/"
   xmlns:cc="http://creativecommons.org/ns#"
   xmlns:rdf="http://www.w3.org/1999/02/22-rdf-syntax-ns#"
   xmlns:svg="http://www.w3.org/2000/svg"
   xmlns="http://www.w3.org/2000/svg"
   xmlns:sodipodi="http://sodipodi.sourceforge.net/DTD/sodipodi-0.dtd"
   xmlns:inkscape="http://www.inkscape.org/namespaces/inkscape"
   inkscape:version="1.0 (9f2f71dc58, 2020-08-02)"
   sodipodi:docname="4-uniform_84.svg"
   id="c:\kuniform\4u\4-uniform_84.svg"
   height="1000.0"
   width="959.798"
   version="1.0">
  <style
     id="style4201" />
  <metadata
     id="metadata4199">
    <rdf:RDF>
      <cc:Work
         rdf:about="">
        <dc:format>image/svg+xml</dc:format>
        <dc:type
           rdf:resource="http://purl.org/dc/dcmitype/StillImage" />
        <dc:title></dc:title>
      </cc:Work>
    </rdf:RDF>
  </metadata>
  <defs
     id="defs4197" />
  <sodipodi:namedview
     inkscape:current-layer="c:\kuniform\4u\4-uniform_84.svg"
     inkscape:window-maximized="0"
     inkscape:window-y="27"
     inkscape:window-x="0"
     inkscape:cy="357.74161"
     inkscape:cx="238.79019"
     inkscape:zoom="0.56793893"
     showgrid="false"
     id="namedview4195"
     inkscape:window-height="907"
     inkscape:window-width="1600"
     inkscape:pageshadow="2"
     inkscape:pageopacity="0"
     guidetolerance="10"
     gridtolerance="10"
     objecttolerance="10"
     borderopacity="1"
     inkscape:document-rotation="0"
     bordercolor="#666666"
     pagecolor="#ffffff" />
  <!-- X Coordinate transform: fx(x)=(x+47.046387)*0.8576572-->
  <!-- Y Coordinate transform: fy(y)=(1095.4835-y)*0.8576572 -->
  <path
     style="color:#000000;font-style:normal;font-variant:normal;font-weight:normal;font-stretch:normal;font-size:medium;line-height:normal;font-family:sans-serif;font-variant-ligatures:normal;font-variant-position:normal;font-variant-caps:normal;font-variant-numeric:normal;font-variant-alternates:normal;font-variant-east-asian:normal;font-feature-settings:normal;font-variation-settings:normal;text-indent:0;text-align:start;text-decoration:none;text-decoration-line:none;text-decoration-style:solid;text-decoration-color:#000000;letter-spacing:normal;word-spacing:normal;text-transform:none;writing-mode:lr-tb;direction:ltr;text-orientation:mixed;dominant-baseline:auto;baseline-shift:baseline;text-anchor:start;white-space:normal;shape-padding:0;shape-margin:0;inline-size:0;clip-rule:nonzero;display:inline;overflow:visible;visibility:visible;isolation:auto;mix-blend-mode:normal;color-interpolation:sRGB;color-interpolation-filters:linearRGB;solid-color:#000000;solid-opacity:1;vector-effect:none;fill:#000000;fill-opacity:1;fill-rule:nonzero;stroke:none;stroke-width:16;stroke-linecap:butt;stroke-linejoin:miter;stroke-miterlimit:4;stroke-dasharray:none;stroke-dashoffset:0;stroke-opacity:1;color-rendering:auto;image-rendering:auto;shape-rendering:auto;text-rendering:auto;enable-background:accumulate;stop-color:#000000"
     d="M 77.84375,0.94921875 60.402344,31.160156 30.193359,13.71875 l -4,6.927734 -6.927734,-4 -22.5136719,38.994141 v 47.169925 l 20.2031249,34.99414 -20.2031249,34.99414 v 47.16992 l 20.2031249,34.99609 -20.2031249,34.99219 v 47.16992 l 20.2031249,34.99219 -20.2031249,34.99609 v 2.14454 45.02539 L 16.955078,489.2793 -3.2480469,524.27344 v 47.16992 l 20.2031249,34.99219 -20.2031249,34.99609 v 47.16992 l 20.2031249,34.9961 -20.2031249,34.99218 v 47.16993 l 20.2031249,34.99414 -20.2031249,34.99414 v 47.16992 L 20.335938,963.76758 61.1875,987.35352 h 2.142578 45.027342 l 40.84961,-23.58594 20.20508,-34.99414 h 33.64453 l 19.13281,33.13867 21.43946,37.13867 6.92968,-4 4,6.92772 33.13672,-19.1328 33.13672,19.1328 4,-6.92772 6.92969,4 21.4414,-37.13867 19.13282,-33.13867 h 33.64453 l 20.20508,34.99414 40.84961,23.58594 h 47.16992 l 40.84961,-23.58594 20.20508,-34.99414 h 33.64453 l 19.13086,33.13867 21.44336,37.13867 6.92773,-4 4,6.92772 33.13672,-19.1328 33.13867,19.1328 4,-6.92772 6.92774,4 21.4414,-37.13867 19.13281,-33.13867 h 33.64453 l 20.20313,34.99414 40.85156,23.58594 h 47.16992 l 38.99415,-22.51368 -4,-6.92773 6.92773,-4 -20.36914,-35.2793 V 880.0332 l 20.36914,-35.27929 -6.92773,-4 4,-6.92774 -30.20899,-17.4414 17.43945,-30.20899 -6.92773,-4 6.92773,-4 -17.43945,-30.21094 30.20899,-17.4414 -4,-6.92774 6.92773,-4 -20.36914,-35.27929 V 645.7168 l 20.36914,-35.2793 -6.92773,-4 4,-6.92969 -30.20899,-17.43945 17.43945,-30.21094 -6.92773,-4 6.92773,-4 -17.43945,-30.20898 30.20899,-17.44141 -4,-6.92773 6.92773,-4 L 941.60547,450 v -38.59766 l 20.36914,-35.28125 -6.92773,-4 4,-6.92773 -30.20899,-17.44141 17.43945,-30.21093 -6.92773,-3.99805 6.92773,-4 -17.43945,-30.21094 30.20899,-17.44141 -4,-6.92773 6.92773,-4 -20.36914,-35.2793 v -38.59765 l 20.36914,-35.28125 -6.92773,-4 4,-6.92774 -30.20899,-17.4414 17.43945,-30.208988 -6.92773,-4 6.92773,-4 L 924.83789,38.087891 903.39453,0.94921875 896.4668,4.9492188 889.53906,0.94921875 872.09766,31.160156 841.88867,13.71875 l -4,6.927734 -6.92969,-4 -19.13086,33.136719 h -33.64648 l -19.13086,-33.136719 -6.92773,4 -6.92774,-4 -17.4414,30.208985 -34.20899,-19.75 -34.21094,19.75 -17.4414,-30.208985 -6.92774,4 -6.92968,-4 -19.13086,33.136719 h -33.64649 l -19.13086,-33.136719 -6.92773,4 -4,-6.927734 L 514.98828,31.160156 497.54883,0.94921875 490.62109,4.9492188 483.69141,0.94921875 466.25,31.160156 436.04102,13.71875 l -4,6.927734 -6.92774,-4 -19.13086,33.136719 h -33.64844 l -19.13086,-33.136719 -6.92773,4 -6.92773,-4 -17.44336,30.208985 -34.20899,-19.75 -34.20898,19.75 -17.44141,-30.208985 -6.92773,4 -6.92774,-4 -19.13086,33.136719 h -33.64843 l -19.13086,-33.136719 -6.92774,4 -4,-6.927734 L 109.14062,31.160156 91.701172,0.94921875 84.773438,4.9492188 Z M 490.61914,20.949219 498.20508,34.087891 H 483.0332 Z m 405.84766,0 7.58593,13.138672 h -15.16992 z m -811.693362,0.002 7.583984,13.136719 H 77.1875 Z m -55.652344,10.625 23.28125,13.439453 -13.441406,23.28125 -23.28125,-13.441406 z m 111.302736,0 13.43945,23.279297 -23.2793,13.441406 -13.44336,-23.279297 z m 294.54492,0 23.28125,13.439453 -13.44141,23.28125 -23.28125,-13.441406 z m 111.30273,0 13.44141,23.279297 -23.28125,13.441406 -13.44336,-23.279297 z m 294.54493,0 23.28125,13.439453 -13.44141,23.28125 L 827.375,54.855469 Z m -494.54102,5.068359 7.58399,13.138672 h -15.16993 z m -117.1582,0.002 7.58398,13.136719 H 221.5332 Z m 405.84765,0 7.58399,13.136719 h -15.16797 z m 117.15821,0 7.58398,13.136719 H 744.53906 Z M 67.951172,50.087891 h 33.642578 l 16.82422,29.138671 -16.82422,29.136718 H 67.951172 L 51.126953,79.226562 Z m 405.845708,0 h 33.64453 l 16.82421,29.138671 -16.82421,29.136718 H 473.79688 L 456.97461,79.226562 Z m 405.8496,0 h 33.64258 l 16.82422,29.138671 -16.82422,29.136718 H 879.64648 L 862.82227,79.226562 Z m -599.95117,0.111328 v 15.169922 l -13.13672,-7.585938 z m 16,0 13.13672,7.583984 -13.13672,7.585938 z m 389.84961,0 v 15.169922 l -13.13867,-7.585938 z m 16,0 13.13672,7.583984 -13.13672,7.585938 z M 172.79297,65.783203 h 26.88281 v 26.884766 h -26.88281 z m 42.88281,0 h 26.88281 v 26.884766 h -26.88281 z m 117.15625,0 h 26.88477 v 26.884766 h -26.88477 z m 42.88477,0 h 26.88281 V 92.667969 H 375.7168 Z m 202.92382,0 h 26.88282 v 26.884766 h -26.88282 z m 42.88282,0 h 26.88281 v 26.884766 h -26.88281 z m 117.1582,0 h 26.88281 v 26.884766 h -26.88281 z m 42.88281,0 h 26.88282 V 92.667969 H 781.56445 Z M 156.79297,71.638672 V 86.8125 L 143.6543,79.226562 Z m 405.84765,0 V 86.8125 l -13.13867,-7.585938 z m -304.08203,0.002 13.13672,7.583984 -13.13672,7.585938 z m 58.27344,0 v 15.169922 l -13.13672,-7.585938 z m 101.76758,0 13.13867,7.585937 -13.13867,7.583985 z m 245.80664,0 13.13867,7.583984 -13.13867,7.585938 z m 58.27539,0 v 15.169922 l -13.13672,-7.585938 z m 101.76563,0 13.13867,7.585937 -13.13867,7.583985 z m -811.695317,0.002 13.136719,7.583984 -13.136719,7.583985 z m 26.208985,18.511719 13.441406,23.281249 -23.28125,13.4414 -13.441406,-23.28125 z m 91.623042,0 23.2793,13.441399 -13.4414,23.28125 -23.28126,-13.4414 z m 314.22461,0 13.44141,23.281249 -23.28125,13.4414 -13.44141,-23.28125 z m 91.62305,0 23.28125,13.441399 -13.44141,23.28125 -23.2832,-13.4414 z m 314.22461,0 13.44141,23.281249 -23.28125,13.4414 L 827.375,103.5957 Z m -570.96094,2.927734 v 15.169915 l -13.13672,-7.58398 z m 16,0 13.13867,7.585935 -13.13867,7.58398 z m 389.84961,0 V 108.254 l -13.13867,-7.58594 z m 16,0 13.13672,7.585935 -13.13672,7.58398 z M 169.41016,108.66797 h 33.64648 l 16.82227,29.13867 -16.82032,29.13477 h -33.64843 l -16.82227,-29.13672 z m 52.12304,0 h 15.16797 l -7.58398,13.13867 z m 117.15625,0 h 15.16993 l -7.58399,13.13672 z m 33.64649,0 h 33.64648 l 16.82227,29.13672 -16.82227,29.13672 h -33.64844 l -16.82226,-29.13672 z m 202.92187,0 h 33.64649 l 16.82226,29.13672 -16.82226,29.13672 h -33.64649 l -16.82226,-29.13672 z m 52.12305,0 h 15.16797 l -7.58594,13.13672 z m 117.15625,0 h 15.16992 l -7.58398,13.13672 z m 33.64648,0 h 33.64453 l 16.82227,29.13672 -16.82227,29.13672 h -33.64648 l -16.82226,-29.13672 z m -524.69726,2.92773 23.28125,13.44141 -13.44141,23.28125 -23.28125,-13.44141 z m 68.41797,0 13.44336,23.28125 -23.28321,13.44141 -13.43945,-23.28125 z m 337.42968,0 23.28125,13.44141 -13.4414,23.28125 -23.28125,-13.44141 z m 68.41993,0 13.4414,23.28125 -23.28125,13.44141 -13.4414,-23.28125 z M 77.1875,124.36328 h 15.169922 l -7.585938,13.13867 z m 405.8457,0 h 15.17188 L 490.61914,137.5 Z m 405.84961,0 h 15.16992 l -7.58593,13.13867 z M 60.402344,127.29102 73.84375,150.57227 50.5625,164.01367 37.121094,140.73242 Z m 48.738276,0 23.28126,13.4414 -13.43946,23.28125 -23.281248,-13.4414 z m 357.10938,0 13.44141,23.28125 -23.28125,13.4414 -13.44141,-23.28125 z m 48.73828,0 23.2832,13.44336 -13.4414,23.27929 -23.2832,-13.4414 z m 357.10938,0 13.4414,23.28125 -23.28125,13.4414 -13.4414,-23.28125 z m 48.74023,0 23.28125,13.4414 -13.44141,23.28125 -23.28125,-13.4414 z m -633.14258,10.8164 7.58594,13.13867 h -15.17187 z m 405.84766,0 7.58594,13.13867 h -15.17188 z m -350.19531,10.625 13.4414,23.28125 -23.28125,13.44141 -13.44336,-23.2793 z m 405.84765,0 13.44141,23.28125 -23.28125,13.44141 -13.44141,-23.28125 z m -517.15039,0.002 23.28125,13.43945 -13.4414,23.28125 -23.28125,-13.44141 z m 405.84766,0 23.28125,13.43945 -13.44141,23.28125 -23.28125,-13.44141 z m -611.699221,5.07031 7.583985,13.13672 H 18.609375 Z m 117.158201,0 7.58399,13.13672 h -15.16797 z m 288.68946,0 7.58398,13.13672 h -15.16797 z m 117.1582,0 7.58398,13.13672 h -15.16797 z m 288.68945,0 7.58399,13.13672 h -15.16797 z m -567.01562,13.4414 h 33.64453 l 16.82422,29.13672 -16.82422,29.13867 h -33.64453 l -16.82227,-29.13867 z m 405.84765,0 h 33.64453 l 16.82422,29.13672 -16.82422,29.13867 H 676.7207 l -16.82226,-29.13867 z m -599.949216,0.11133 v 15.16992 l -13.138672,-7.58593 z m 16,0 13.136716,7.58399 -13.136716,7.58593 z m 389.847656,0 v 15.16992 l -13.13672,-7.58398 z m 16,0 13.13672,7.58399 -13.13672,7.58593 z m 389.84766,0 v 15.16992 l -13.13477,-7.58593 z m 16,0 13.13672,7.58399 -13.13672,7.58593 z M 12.751953,182.94141 h 26.882813 v 26.88281 H 12.751953 Z m 117.158207,0 h 26.88281 v 26.88281 h -26.88281 z m 42.88281,0 h 26.88281 v 26.88281 h -26.88281 z m 202.92383,0 h 26.88281 v 26.88281 H 375.7168 Z m 42.88281,0 h 26.88281 v 26.88281 h -26.88281 z m 117.1582,0 h 26.88281 v 26.88281 h -26.88281 z m 42.88281,0 h 26.88282 v 26.88281 h -26.88282 z m 202.92383,0 h 26.88282 v 26.88281 h -26.88282 z m 42.88282,0 h 26.88281 v 26.88281 h -26.88281 z m -710.53711,5.85547 v 15.17187 l -13.13868,-7.58594 z m 245.80664,0 v 15.17187 l -13.13868,-7.58594 z m 160.04101,0 v 15.17187 l -13.13867,-7.58594 z m 245.80664,0 v 15.17187 l -13.13867,-7.58594 z m -709.929684,0.002 13.136718,7.58398 -13.136718,7.58594 z m 160.041014,0 13.13672,7.58398 -13.13672,7.58399 z m 245.80664,0 13.13672,7.58398 -13.13672,7.58594 z m 160.04102,0 13.13672,7.58398 -13.13672,7.58399 z m 245.80664,0 13.13672,7.58398 -13.13672,7.58594 z m 58.27539,0 v 15.16992 l -13.13867,-7.58398 z m -683.7207,18.51367 13.4414,23.28125 -23.28125,13.44141 -13.4414,-23.28321 z m 91.62304,0 23.28125,13.44141 -13.4414,23.28125 -23.28321,-13.44141 z m 314.22461,0 13.44141,23.28125 -23.28125,13.44141 -13.44141,-23.28321 z m 91.62305,0 23.28125,13.44141 -13.44141,23.28125 -23.28125,-13.44141 z m -662.583986,2.92773 v 15.16993 l -13.136718,-7.58594 z m 16,0 13.136716,7.58399 -13.136716,7.58594 z m 389.847656,0 v 15.16993 l -13.13672,-7.58399 z m 16,0 13.13672,7.58399 -13.13672,7.58594 z m 389.84766,0 v 15.16797 l -13.13477,-7.58398 z m 16,0 13.13867,7.58594 -13.13867,7.58399 z M 18.607422,225.82422 h 15.171875 l -7.585938,13.13867 z m 117.158198,0 h 15.17188 l -7.58594,13.13867 z m 33.64649,0 h 33.64453 l 16.82227,29.13867 -16.82227,29.13867 h -33.64453 l -16.82422,-29.13867 z m 202.92383,0 h 33.64258 l 16.82421,29.13867 -16.82226,29.13867 h -33.64453 l -16.82422,-29.13867 z m 52.11914,0 h 15.17187 l -7.58593,13.14062 z m 117.1582,0 h 15.17188 l -7.58594,13.13867 z m 33.64649,0 h 33.64453 l 16.82226,29.13867 -16.82226,29.13867 h -33.64453 l -16.82422,-29.13867 z m 202.92382,0 h 33.64453 l 16.82227,29.13867 -16.82227,29.13867 h -33.64453 l -16.82421,-29.13867 z m 52.11914,0 h 15.17188 l -7.58789,13.13867 z m -779.74023,2.92773 23.28125,13.44336 -13.441406,23.28125 -23.28125,-13.4414 z m 68.41797,0 13.44141,23.28321 -23.28126,13.4414 -13.439448,-23.28125 z m 405.84961,0 13.4414,23.28321 -23.2832,13.4414 -13.43945,-23.28125 z m -68.41992,0.002 23.28125,13.4414 L 466.25,265.4766 442.96875,252.0352 Z m 405.84765,0 23.28125,13.4414 -13.4414,23.28125 -23.28125,-13.4414 z m 68.41797,0 13.44336,23.28125 -23.28125,13.4414 -13.44141,-23.28125 z m -650.5664,12.76757 h 15.17187 l -7.58594,13.13672 z m 405.8496,0 h 15.16993 l -7.58594,13.13672 z m -422.63281,2.92774 13.44141,23.28125 -23.28125,13.44336 -13.44141,-23.28125 z m 48.73828,0 23.28125,13.44336 -13.4414,23.2793 -23.28125,-13.44141 z m 357.10938,0 13.44336,23.28125 -23.28321,13.44141 -13.4414,-23.28126 z m 48.74023,0 23.28125,13.44336 -13.44336,23.28125 -23.27929,-13.44336 z m -227.29492,10.8164 7.58594,13.13868 H 483.0332 Z m -405.845702,0.002 7.583984,13.13672 H 77.1875 Z m 811.695312,0 7.58398,13.13672 h -15.16992 z m -461.5,10.62304 23.28125,13.44141 -13.44141,23.28125 -23.28125,-13.43945 z m 111.30273,0 13.44141,23.28126 -23.28125,13.4414 -13.44336,-23.2793 z m -517.150386,0.002 23.28125,13.43945 -13.441406,23.28125 -23.28125,-13.4414 z m 111.300786,0 13.44335,23.2793 -23.28125,13.4414 -13.44336,-23.2793 z m 700.39453,0 23.28125,13.43945 -13.44141,23.28125 -23.28125,-13.43945 z m -611.69922,5.07031 7.58593,13.13867 h -15.17187 z m 117.15625,0 7.58789,13.13867 H 338.6875 Z m 288.6914,0 7.58594,13.13867 h -15.17187 z m 117.15821,0 7.58593,13.13867 H 744.53711 Z M 67.951172,284.4043 h 33.642578 l 16.82422,29.13867 -16.82422,29.13672 H 67.951172 L 51.126953,313.54297 Z m 405.845708,0 h 33.64453 l 16.82421,29.13867 -16.82421,29.13672 h -33.64453 l -16.82227,-29.13672 z m 405.8496,0 h 33.64258 l 16.82422,29.13867 -16.82422,29.13672 h -33.64258 l -16.82421,-29.13672 z m -599.95117,0.11132 v 15.16993 l -13.13672,-7.58399 z m 16,0 13.13672,7.58594 -13.13672,7.58399 z m 389.84961,0 v 15.16993 l -13.13867,-7.58399 z m 16,0.002 13.13477,7.58398 -13.13477,7.58399 z M 172.79297,300.1016 h 26.88281 v 26.88086 h -26.88281 z m 42.88281,0 h 26.88281 v 26.88086 h -26.88281 z m 117.15625,0 h 26.88477 v 26.88086 h -26.88477 z m 42.88477,0 h 26.88281 v 26.88086 H 375.7168 Z m 202.92382,0 h 26.88282 v 26.88086 h -26.88282 z m 42.88282,0 h 26.88281 v 26.88086 h -26.88281 z m 117.1582,0 h 26.88281 v 26.88086 h -26.88281 z m 42.88281,0 h 26.88282 v 26.88086 h -26.88282 z m -768.812497,5.85547 13.136719,7.58594 -13.136719,7.58398 z m 144.041017,0 v 15.16992 l -13.13672,-7.58398 z m 101.76562,0 13.13672,7.58594 -13.13672,7.58398 z m 304.08203,0 v 15.16992 l -13.13671,-7.58398 z m 160.04102,0 v 15.16992 l -13.13672,-7.58398 z m -405.84961,0.002 v 15.16797 l -13.13672,-7.58398 z m 101.76758,0 13.13672,7.58399 -13.13672,7.58203 z m 245.80664,0 13.13672,7.58399 -13.13672,7.58398 z m 160.04102,0 13.13671,7.58399 -13.13671,7.58203 z M 38.960938,324.47079 52.402344,347.75204 29.121094,361.1915 15.679688,337.9122 Z m 91.623042,0 23.28125,13.44141 -13.44335,23.2793 -23.28126,-13.4415 z m 314.22461,0 13.44141,23.28125 -23.28125,13.44141 -13.44141,-23.2832 z m 91.62305,0 23.28125,13.44141 -13.44141,23.28125 -23.2832,-13.44336 z m 314.22461,0 13.44141,23.28125 -23.28125,13.43946 -13.44141,-23.28125 z m -570.96094,2.92774 v 15.16992 l -13.13672,-7.58594 z m 16,0 13.13672,7.58398 -13.13672,7.58594 z m 389.84961,0 v 15.16992 l -13.13867,-7.58398 z m 16,0 13.13477,7.58398 -13.13477,7.58399 z m -532.13281,15.58398 h 33.64258 l 16.82422,29.13867 -16.82227,29.13868 h -33.64453 l -16.82422,-29.13868 z m 52.11914,0 h 15.17187 l -7.58593,13.13867 z m 117.15625,0 h 15.17383 l -7.58789,13.13867 z m 33.64844,0 h 33.64453 l 16.82422,29.13867 -16.82422,29.13868 h -33.64453 l -16.82422,-29.13868 z m 202.92383,0 h 33.64453 l 16.82226,29.13867 -16.82226,29.13868 h -33.64453 l -16.82422,-29.13868 z m 52.11914,0 h 15.17187 l -7.58594,13.13867 z m 117.1582,0 h 15.17187 l -7.58593,13.13867 z m 33.64648,0 h 33.64453 l 16.82227,29.13867 -16.82227,29.13868 h -33.64453 l -16.82421,-29.13868 z m -524.69726,2.92774 23.28125,13.44336 -13.44141,23.28125 -23.28125,-13.44336 z m 474.26562,0 13.44336,23.28125 -23.28125,13.44336 -13.4414,-23.28125 z m -405.84765,0.002 13.4414,23.2793 -23.28125,13.44336 -13.43945,-23.28125 z m 337.42968,0 23.28125,13.44141 -13.4414,23.28125 -23.28125,-13.44141 z M 77.1875,358.67969 h 15.169922 l -7.583984,13.13672 z m 405.8457,0 h 15.17188 l -7.58594,13.13867 z m 405.84961,0 h 15.16992 l -7.58593,13.13867 z M 60.402344,361.60742 73.84375,384.88867 50.5625,398.33203 37.121094,375.04883 Z m 48.738276,0 23.28126,13.44141 -13.44141,23.2832 -23.279298,-13.44336 z m 357.10938,0 13.44141,23.28125 -23.28125,13.44141 -13.44141,-23.28125 z m 48.73828,0 23.2832,13.44141 -13.4414,23.2832 -23.28125,-13.44336 z m 357.10938,0 13.4414,23.28125 -23.28125,13.44141 -13.4414,-23.28125 z m 48.74023,0 23.28125,13.44141 -13.44141,23.28125 -23.28125,-13.44141 z m -633.14258,10.81641 7.58594,13.13867 h -15.17187 z m 405.84766,0 7.58594,13.13867 h -15.17188 z m -461.49805,10.625 23.28125,13.4414 -13.4414,23.28125 -23.28125,-13.43945 z m 111.30274,0 13.4414,23.28125 -23.28125,13.4414 -13.44336,-23.28125 z m 294.54492,0 23.28125,13.4414 -13.44141,23.28125 -23.28125,-13.43945 z m 111.30273,0 13.44141,23.28125 -23.28125,13.4414 -13.44141,-23.28125 z m -317.15429,5.07031 7.58593,13.14063 h -15.17187 z m -405.847661,0.002 7.585938,13.13868 H 18.607422 Z m 117.158201,0 7.58594,13.13868 h -15.17188 z m 405.84766,0 7.58594,13.13868 h -15.17188 z m 288.6875,0 7.58789,13.13868 H 830.30273 Z M 270.87305,401.5625 h 33.64453 l 16.82422,29.13672 -16.82422,29.13867 h -33.64453 l -16.82227,-29.13867 z m 405.84765,0 h 33.64453 l 16.82422,29.13672 -16.82422,29.13867 H 676.7207 l -16.82226,-29.13867 z m -599.949216,0.11133 v 15.16992 l -13.136718,-7.58398 z m 16,0 13.136716,7.58594 -13.136716,7.58398 z m 389.847656,0 v 15.16992 l -13.13672,-7.58398 z m 16,0 13.13672,7.58594 -13.13672,7.58398 z m 405.84766,0 13.13672,7.58398 -13.13672,7.58594 z m -16,0.002 v 15.16797 l -13.13477,-7.58398 z M 12.751953,417.25977 h 26.882813 v 26.88281 H 12.751953 Z m 117.158207,0 h 26.88281 v 26.88281 h -26.88281 z m 42.88281,0 h 26.88281 v 26.88281 h -26.88281 z m 202.92383,0 h 26.88281 v 26.88281 H 375.7168 Z m 42.88281,0 h 26.88281 v 26.88281 h -26.88281 z m 117.1582,0 h 26.88281 v 26.88281 h -26.88281 z m 42.88281,0 h 26.88282 v 26.88281 h -26.88282 z m 202.92383,0 h 26.88282 v 26.88281 h -26.88282 z m 42.88282,0 h 26.88281 v 26.88281 h -26.88281 z m -768.812504,5.85546 13.136718,7.58399 -13.136718,7.58594 z m 58.275394,0 v 15.16993 l -13.13672,-7.58594 z m 245.80664,0 v 15.17188 l -13.13868,-7.58594 z m 160.04101,0 v 15.17188 l -13.13867,-7.58594 z m 245.80664,0 v 15.17188 l -13.13867,-7.58594 z m 101.76563,0 13.13672,7.58594 -13.13672,7.58399 z m 58.27539,0 v 15.16993 l -13.13867,-7.58399 z m -709.92969,0.002 13.13672,7.58398 -13.13672,7.58399 z m 245.80664,0 13.13672,7.58398 -13.13672,7.58399 z m 160.04102,0 13.13672,7.58398 -13.13672,7.58399 z m -379.63867,18.51172 13.4414,23.28125 -23.28125,13.43945 -13.4414,-23.2793 z m 91.62304,0 23.28125,13.4414 -13.4414,23.28125 -23.28321,-13.44336 z m 314.22461,0 13.44141,23.28125 -23.28125,13.43945 -13.44141,-23.2793 z m 91.62305,0 23.28125,13.4414 -13.44141,23.28125 -23.28125,-13.4414 z m -662.583986,2.92773 v 15.16992 l -13.138672,-7.58398 z m 16,0 13.138676,7.58594 -13.138676,7.58398 z m 389.847656,0 v 15.16992 l -13.13672,-7.58398 z m 16,0 13.13867,7.58594 -13.13867,7.58398 z m 389.84766,0 v 15.16992 l -13.13672,-7.58398 z m 16,0 13.13867,7.58594 -13.13867,7.58398 z m -885.857425,15.5859 h 15.167969 l -7.583985,13.13672 z m 117.158205,0 h 15.16797 l -7.58399,13.13672 z m 33.64258,0 h 33.64843 l 16.82032,29.13476 -16.82227,29.14063 H 169.41211 L 152.58789,489.2793 Z m 202.92382,0 h 33.64844 l 16.82227,29.13672 -16.82422,29.13867 H 372.33594 L 355.51172,489.2793 Z m 52.12305,0 H 439.625 l -7.58398,13.13672 z m 117.1582,0 h 15.16797 l -7.58398,13.13672 z m 33.64258,0 h 33.64649 l 16.82226,29.13672 -16.82226,29.13867 H 575.25977 L 558.43555,489.2793 Z m 202.92383,0 h 33.64648 l 16.82227,29.13672 -16.82227,29.13867 H 778.18359 L 761.35938,489.2793 Z m 52.12305,0 h 15.16797 l -7.58399,13.13672 z m -779.74219,2.92773 23.28125,13.44141 -13.441406,23.28125 -23.28125,-13.44336 z m 68.41992,0 13.43946,23.28125 -23.28126,13.44141 -13.439448,-23.28125 z m 337.42774,0 23.28125,13.44141 -13.44141,23.28125 -23.28125,-13.44141 z m 68.41992,0 13.4414,23.2793 -23.2832,13.44336 -13.43945,-23.28125 z m 337.42773,0 23.28125,13.44141 -13.4414,23.28125 -23.28125,-13.44141 z m 68.41992,0 13.44141,23.28125 -23.28125,13.44141 -13.44141,-23.28125 z m -650.56835,12.76758 h 15.17187 l -7.58594,13.13672 z m 405.8496,0 h 15.16993 l -7.58594,13.13672 z m -422.63281,2.92773 13.44141,23.28126 -23.28125,13.44335 -13.44141,-23.2832 z m 48.73828,0 23.28321,13.44141 -13.44336,23.28125 -23.28125,-13.4414 z m 357.10938,0 13.44336,23.28126 -23.28321,13.4414 -13.4414,-23.28125 z m 48.74023,0 23.28125,13.44141 -13.44336,23.2832 -23.27929,-13.44335 z m -227.29492,10.81641 7.58594,13.13867 H 483.0332 Z m -405.845702,0.002 7.583984,13.13672 H 77.1875 Z m 811.695312,0 7.58398,13.13672 h -15.16992 z m -867.347656,10.62305 23.28125,13.44141 -13.441406,23.28125 -23.28125,-13.44141 z m 111.300786,0 13.44335,23.28125 -23.28125,13.44141 -13.44336,-23.28125 z m 294.54687,0 23.28125,13.44141 -13.44141,23.28125 -23.28125,-13.43946 z m 111.30273,0 13.44141,23.28125 -23.28125,13.44141 -13.44336,-23.28125 z m 294.54493,0 23.28125,13.44141 -13.44141,23.28125 -23.28125,-13.43946 z m -611.69922,5.07227 7.58593,13.13867 h -15.17187 z m 117.1582,0 7.58594,13.13867 H 338.6875 Z m 288.6875,0 7.58789,13.13867 h -15.17187 z m 117.16016,0 7.58593,13.13867 H 744.53711 Z M 67.951172,518.7207 h 33.642578 l 16.82422,29.13868 -16.82422,29.13671 H 67.951172 L 51.126953,547.85938 Z m 405.845708,0 h 33.64453 l 16.82421,29.13868 -16.82421,29.13671 h -33.64453 l -16.82227,-29.13671 z m 405.8496,0 h 33.64258 l 16.82422,29.13672 -16.82422,29.13867 h -33.64258 l -16.82421,-29.13671 z m -599.95117,0.11133 v 15.16992 l -13.13672,-7.58398 z m 16,0 13.13672,7.58594 -13.13672,7.58398 z m 389.84961,0 v 15.16992 l -13.13867,-7.58593 z m 16,0 13.13477,7.58594 -13.13477,7.58398 z m -528.75195,15.58594 h 26.88281 v 26.88281 h -26.88281 z m 42.88281,0 h 26.88281 v 26.88281 h -26.88281 z m 117.15625,0 h 26.88477 v 26.88281 h -26.88477 z m 42.88477,0 h 26.88281 v 26.88281 H 375.7168 Z m 202.92382,0 h 26.88282 v 26.88281 h -26.88282 z m 42.88282,0 h 26.88281 v 26.88281 h -26.88281 z m 117.1582,0 h 26.88281 v 26.88281 h -26.88281 z m 42.88281,0 h 26.88282 v 26.88281 h -26.88282 z m -768.812497,5.85547 13.136719,7.58398 -13.136719,7.58399 z m 144.041017,0 v 15.17187 l -13.13867,-7.58593 z m 101.76562,0 13.13672,7.58594 -13.13672,7.58398 z m 58.27344,0 v 15.16797 l -13.13672,-7.58399 z m 245.80859,0 v 15.17187 l -13.13867,-7.58593 z m 101.76563,0 13.13672,7.58594 -13.13672,7.58398 z m 58.27539,0 v 15.16992 l -13.13672,-7.58398 z m -304.08203,0.002 13.13672,7.58399 -13.13672,7.58398 z m 405.84766,0 13.13671,7.58399 -13.13671,7.58398 z m -785.486332,18.51172 13.441406,23.28125 -23.28125,13.43945 -13.441406,-23.27929 z m 91.623042,0 23.2793,13.44141 -13.4414,23.27929 -23.28126,-13.4414 z m 314.22461,0 13.44141,23.28125 -23.28125,13.44141 -13.44141,-23.28125 z m 91.62305,0 23.28125,13.44141 -13.44141,23.28125 -23.2832,-13.44336 z m 314.22461,0 13.44141,23.28125 -23.28125,13.43945 -13.44141,-23.27929 z m -570.96094,2.92773 v 15.16993 l -13.13867,-7.58399 z m 16,0 13.13672,7.58594 -13.13672,7.58399 z m 389.84961,0 v 15.17188 l -13.13867,-7.58594 z m 16,0 13.13477,7.58594 -13.13477,7.58399 z m -532.13476,15.58594 h 33.64648 l 16.82227,29.13672 -16.82032,29.13672 H 169.41211 L 152.58789,606.4375 Z m 52.12304,0 h 15.16797 l -7.58398,13.13672 z m 117.15625,0 h 15.16993 l -7.58594,13.13672 z m 33.64453,0 h 33.64844 l 16.82227,29.13672 -16.82422,29.13672 H 372.33398 L 355.51172,606.4375 Z m 202.92383,0 h 33.64649 l 16.82226,29.13672 -16.82226,29.13672 H 575.25977 L 558.43555,606.4375 Z m 52.1211,0 h 15.16992 l -7.58399,13.13672 z m 117.1582,0 h 15.16992 l -7.58398,13.13672 z m 33.64453,0 h 33.64648 l 16.82227,29.13672 -16.82227,29.13672 H 778.18164 L 761.35938,606.4375 Z m -524.69531,2.92774 23.28125,13.4414 -13.44141,23.28125 -23.28125,-13.44336 z m 68.41797,0 13.4414,23.27929 -23.28125,13.44336 -13.4414,-23.28125 z m 337.42968,0 23.28125,13.4414 -13.4414,23.28125 -23.28125,-13.4414 z m 68.41797,0 13.44141,23.27929 -23.2793,13.44336 -13.4414,-23.28125 z M 77.1875,592.99609 h 15.169922 l -7.583984,13.13672 z m 405.8457,0 h 15.17188 l -7.58594,13.13868 z m 405.84961,0 h 15.16992 l -7.58593,13.13868 z M 60.402344,595.92383 73.84375,619.20508 50.5625,632.64648 37.121094,609.36523 Z m 48.738276,0 23.28126,13.4414 -13.43946,23.28125 -23.281248,-13.4414 z m 357.10938,0 13.44141,23.28125 -23.28125,13.4414 -13.44141,-23.28125 z m 48.73828,0 23.2832,13.4414 -13.4414,23.28125 -23.28125,-13.4414 z m 357.10938,0 13.4414,23.28125 -23.28125,13.4414 -13.4414,-23.28125 z m 48.74023,0 23.28125,13.4414 -13.44141,23.28125 -23.28125,-13.4414 z m -633.14258,10.81836 7.58594,13.13672 h -15.17187 z m 405.84766,0 7.58594,13.13672 h -15.16993 z m -461.49805,10.62304 23.28125,13.44141 -13.4414,23.28125 -23.28125,-13.44141 z m 111.30274,0 13.4414,23.28125 -23.28125,13.44141 -13.44336,-23.28125 z m 294.54492,0 23.28125,13.44141 -13.44141,23.28125 -23.28125,-13.44141 z m 111.30273,0 13.44141,23.28125 -23.28125,13.44141 -13.44141,-23.28125 z m -317.15429,5.07032 7.58398,13.13867 h -15.16797 z m -405.847661,0.002 7.583985,13.13672 H 18.609375 Z m 117.158201,0 7.58399,13.13672 h -15.16797 z m 405.84766,0 7.58398,13.13672 h -15.16797 z m 288.6875,0 7.58594,13.13672 h -15.16797 z m -567.01367,13.44141 h 33.64453 l 16.82422,29.13671 -16.82422,29.13868 h -33.64453 l -16.82227,-29.13868 z m 405.84765,0 h 33.64453 l 16.82422,29.13671 -16.82422,29.13868 H 676.7207 l -16.82226,-29.13868 z m -599.949216,0.11132 v 15.16993 l -13.138672,-7.58594 z m 16,0 13.138676,7.58399 -13.138676,7.58594 z m 389.847656,0 v 15.16993 l -13.13672,-7.58594 z m 16,0 13.13867,7.58399 -13.13867,7.58594 z m 389.84766,0 v 15.16993 l -13.13672,-7.58594 z m 16,0 13.13672,7.58399 -13.13672,7.58594 z M 12.751953,651.57422 h 26.882813 v 26.88281 H 12.751953 Z m 117.158207,0 h 26.88281 v 26.88281 h -26.88281 z m 42.88281,0 h 26.88281 v 26.88281 h -26.88281 z m 202.92383,0 h 26.88281 v 26.88281 H 375.7168 Z m 42.88281,0 h 26.88281 v 26.88281 h -26.88281 z m 117.1582,0 h 26.88281 v 26.88281 h -26.88281 z m 42.88281,0 h 26.88282 v 26.88281 h -26.88282 z m 202.92383,0 h 26.88282 v 26.88281 h -26.88282 z m 42.88282,0 h 26.88281 v 26.88281 h -26.88281 z m -464.73047,5.85547 v 15.17187 l -13.13868,-7.58594 z m 405.84765,0 v 15.17187 l -13.13867,-7.58594 z m -709.929684,0.002 13.136718,7.58594 -13.136718,7.58398 z m 58.275394,0 v 15.16992 l -13.13672,-7.58594 z m 101.76562,0 13.13672,7.58398 -13.13672,7.58399 z m 245.80664,0 13.13672,7.58398 -13.13672,7.58399 z m 58.27539,0 v 15.16992 l -13.13672,-7.58398 z m 101.76563,0 13.13672,7.58398 -13.13672,7.58399 z m 245.80664,0 13.13672,7.58398 -13.13672,7.58594 z m 58.27539,0 v 15.16992 l -13.13867,-7.58594 z m -683.7207,18.51367 13.4414,23.28125 -23.28125,13.44141 -13.4414,-23.2832 z m 91.62304,0 23.28125,13.44141 -13.4414,23.28125 -23.28321,-13.44141 z m 314.22461,0 13.44141,23.28125 -23.28125,13.44141 -13.44141,-23.2832 z m 91.62305,0 23.28125,13.44141 -13.44141,23.28125 -23.28125,-13.44141 z M 76.771484,678.8731 v 15.16992 l -13.136718,-7.58399 z m 16,0 13.136716,7.58398 -13.136716,7.58594 z m 389.847656,0 v 15.16992 l -13.13672,-7.58594 z m 16,0 13.13867,7.58398 -13.13867,7.58594 z m 389.84766,0 v 15.16992 l -13.13672,-7.58399 z m 16,0 13.13867,7.58593 -13.13867,7.58399 z M 18.607422,694.45703 h 15.171875 l -7.585938,13.14063 z m 117.158198,0 h 15.16993 l -7.58399,13.13867 z m 33.64649,0 h 33.64453 l 16.82422,29.13867 -16.82227,29.13672 H 169.41016 L 152.58789,723.5957 Z m 202.92383,0 h 33.64453 l 16.82422,29.13867 -16.82227,29.13672 H 372.33398 L 355.51172,723.5957 Z m 52.11914,0 h 15.17187 l -7.58593,13.14063 z m 117.1582,0 h 15.17188 l -7.58594,13.13867 z m 33.64649,0 h 33.64453 l 16.82226,29.13867 -16.82226,29.13672 H 575.25781 L 558.43555,723.5957 Z m 202.92382,0 h 33.64453 l 16.82227,29.13867 -16.82227,29.13672 H 778.18164 L 761.35938,723.5957 Z m 52.11914,0 h 15.17188 l -7.58789,13.13867 z m -711.32226,2.92774 13.44141,23.2832 -23.28126,13.44141 -13.439448,-23.28126 z m -68.41797,0.002 23.28125,13.4414 -13.441406,23.28126 -23.28125,-13.44141 z m 405.84766,0 23.28125,13.4414 -13.44141,23.28126 -23.28125,-13.44141 z m 68.41992,0 13.4414,23.28125 -23.2832,13.44141 -13.43945,-23.28126 z m 337.42773,0 23.28125,13.4414 -13.4414,23.28126 -23.28125,-13.44141 z m 68.41797,0 13.44336,23.28125 -23.28125,13.44141 -13.44141,-23.28126 z m -650.5664,12.76758 h 15.17187 l -7.58594,13.13867 z m 405.84765,0 h 15.17188 l -7.58594,13.13867 z m -422.63086,2.92773 13.44141,23.28125 -23.28125,13.44141 -13.44141,-23.28125 z m 48.73828,0 23.28125,13.44336 -13.4414,23.2793 -23.2793,-13.44141 z m 357.10938,0 13.4414,23.28125 -23.28125,13.44141 -13.4414,-23.28125 z m 48.74023,0 23.28125,13.44336 -13.4414,23.2793 -23.28125,-13.44141 z m -227.29492,10.81641 7.58594,13.13867 H 483.0332 Z m 405.84766,0 7.58593,13.13867 h -15.16992 z m -811.693362,0.002 7.583984,13.13672 H 77.1875 Z m 350.195312,10.62305 23.28125,13.4414 -13.44141,23.28125 -23.28125,-13.4414 z m 111.30273,0 13.44141,23.28125 -23.28125,13.4414 -13.44336,-23.27929 z m -517.150386,0.002 23.28125,13.43945 -13.441406,23.28125 -23.28125,-13.4414 z m 111.300786,0 13.4414,23.2793 -23.2793,13.4414 -13.44336,-23.27929 z m 700.39453,0 23.28125,13.43945 -13.44141,23.28125 -23.28125,-13.4414 z m -611.69922,5.07031 7.58398,13.13672 H 221.5332 Z m 117.15625,0 7.58594,13.13672 h -15.16993 z m 288.6914,0 7.58399,13.13672 h -15.16797 z m 117.15821,0 7.58398,13.13672 H 744.53711 Z M 67.951172,753.03711 h 33.642578 l 16.82422,29.13867 -16.82422,29.13672 H 67.951172 L 51.126953,782.17578 Z m 405.845708,0 h 33.64453 l 16.82421,29.13867 -16.82421,29.13672 h -33.64453 l -16.82227,-29.13672 z m 405.8496,0 h 33.64258 l 16.82422,29.13867 -16.82422,29.13672 h -33.64258 l -16.82421,-29.13672 z m -194.10156,0.10937 v 15.17188 l -13.13867,-7.58594 z m -405.84961,0.002 v 15.16992 l -13.13867,-7.58594 z m 16,0 13.13672,7.58398 -13.13672,7.58594 z m 405.84961,0 13.13672,7.58398 -13.13672,7.58594 z m -528.75195,15.58398 h 26.88281 v 26.88281 h -26.88281 z m 42.88281,0 h 26.88281 v 26.88281 h -26.88281 z m 117.15625,0 h 26.88477 v 26.88281 h -26.88477 z m 42.88477,0 h 26.88281 v 26.88281 H 375.7168 Z m 202.92382,0 h 26.88282 v 26.88281 h -26.88282 z m 42.88282,0 h 26.88281 v 26.88281 h -26.88281 z m 117.1582,0 h 26.88281 v 26.88281 h -26.88281 z m 42.88281,0 h 26.88282 v 26.88281 h -26.88282 z m -624.77148,5.85547 v 15.17188 l -13.13867,-7.58594 z m 405.84765,0 v 15.17188 l -13.13867,-7.58594 z m -304.08203,0.002 13.13672,7.58594 -13.13672,7.58399 z m 58.27344,0 v 15.16797 l -13.13672,-7.58398 z m 101.76758,0 13.13672,7.58399 -13.13672,7.58398 z m 245.80664,0 13.13672,7.58399 -13.13672,7.58398 z m 58.27539,0 v 15.16993 l -13.13672,-7.58594 z m 101.76563,0 13.13671,7.58399 -13.13671,7.58398 z m -811.695317,0.002 13.136719,7.58398 -13.136719,7.58399 z m 26.208985,18.51172 13.441406,23.28125 -23.28125,13.4414 -13.441406,-23.28125 z m 91.623042,0 23.28125,13.4414 -13.44335,23.28125 -23.28126,-13.4414 z m 314.22461,0 13.44141,23.28125 -23.28125,13.4414 -13.44141,-23.2832 z m 91.62305,0 23.28125,13.4414 -13.44141,23.28125 -23.2832,-13.4414 z m 314.22461,0 13.44141,23.28125 -23.28125,13.4414 -13.44141,-23.2832 z m -570.96094,2.92773 v 15.16992 l -13.13672,-7.58594 z m 16,0 13.13672,7.58398 -13.13672,7.58594 z m 389.84961,0 v 15.16992 l -13.13867,-7.58594 z m 16,0 13.13672,7.58398 -13.13672,7.58399 z m -532.13281,15.58398 h 33.64453 l 16.82227,29.14063 -16.82032,29.13476 h -33.64843 l -16.82227,-29.13671 z m 52.11914,0 h 15.17187 l -7.58593,13.13868 z m 117.15625,0 h 15.17383 l -7.58594,13.13868 z m 33.64844,0 h 33.64453 l 16.82422,29.13868 -16.82227,29.13671 h -33.64844 l -16.82226,-29.13671 z m 202.92383,0 h 33.64453 l 16.82226,29.13868 -16.82226,29.13671 h -33.64649 l -16.82226,-29.13671 z m 52.11914,0 h 15.17187 l -7.58789,13.13868 z m 117.1582,0 h 15.17187 l -7.58593,13.13868 z m 33.64648,0 h 33.64453 l 16.82227,29.13868 -16.82227,29.13671 h -33.64648 l -16.82226,-29.13671 z m -524.69726,2.92774 23.28125,13.44336 -13.44141,23.28125 -23.28125,-13.44141 z m 68.41797,0.002 13.44336,23.28125 -23.28321,13.44141 -13.4414,-23.28125 z m 337.42968,0 23.28321,13.44141 -13.44336,23.28125 -23.28125,-13.44141 z m 68.41993,0 13.4414,23.28125 -23.28125,13.44141 -13.4414,-23.28125 z M 77.1875,827.3125 h 15.169922 l -7.585938,13.13867 z m 405.8457,0 h 15.17188 l -7.58594,13.13867 z m 405.84961,0 h 15.16992 l -7.58593,13.13672 z M 60.402344,830.24023 73.84375,853.52148 50.5625,866.96289 37.121094,843.68164 Z m 48.738276,0 23.28126,13.44141 -13.43946,23.28125 -23.281248,-13.44141 z m 357.10938,0 13.44141,23.28125 -23.28125,13.44141 -13.44141,-23.28125 z m 48.73828,0 23.2832,13.44336 -13.4414,23.2793 -23.28125,-13.44141 z m 357.10938,0 13.4414,23.28125 -23.28125,13.44141 -13.4414,-23.28125 z m 48.74023,0 23.28125,13.44141 -13.44141,23.28125 -23.2832,-13.44141 z m -633.14258,10.81836 7.58594,13.13672 h -15.17187 z m 405.84766,0 7.58594,13.13672 h -15.16993 z m -350.19531,10.62305 13.4414,23.28125 -23.28125,13.44141 -13.44336,-23.2793 z m 405.84765,0 13.44141,23.28125 -23.28125,13.44141 -13.44141,-23.28125 z m -517.15039,0.002 23.28125,13.43946 -13.4414,23.28125 -23.28125,-13.44141 z m 405.84766,0 23.28125,13.43946 -13.44141,23.28125 -23.28125,-13.44141 z m -611.699221,5.07032 7.583985,13.13671 H 18.609375 Z m 117.158201,0 7.58399,13.13671 h -15.16797 z m 288.68946,0 7.58398,13.13671 h -15.16797 z m 117.1582,0 7.58398,13.13671 h -15.16797 z m 288.68945,0 7.58399,13.13671 h -15.16797 z m -567.01562,13.4414 h 33.64453 l 16.82422,29.13672 -16.82422,29.13867 h -33.64453 l -16.82227,-29.13867 z m 405.84765,0 h 33.64453 l 16.82422,29.13672 -16.82422,29.13867 H 676.7207 l -16.82226,-29.13867 z m -599.949216,0.11133 v 15.16992 l -13.136718,-7.58594 z m 16,0 13.138676,7.58398 -13.138676,7.58594 z m 389.847656,0 v 15.16992 l -13.13672,-7.58594 z m 16,0 13.13867,7.58398 -13.13867,7.58594 z m 389.84766,0 v 15.16992 l -13.13672,-7.58594 z m 16,0 13.13867,7.58398 -13.13867,7.58594 z M 12.751953,885.89062 h 26.882813 v 26.88282 H 12.751953 Z m 117.158207,0 h 26.88281 v 26.88282 h -26.88281 z m 42.88281,0 h 26.88281 v 26.88282 h -26.88281 z m 202.92383,0 h 26.88281 v 26.88282 H 375.7168 Z m 42.88281,0 h 26.88281 v 26.88282 h -26.88281 z m 117.1582,0 h 26.88281 v 26.88282 h -26.88281 z m 42.88281,0 h 26.88282 v 26.88282 h -26.88282 z m 202.92383,0 h 26.88282 v 26.88282 h -26.88282 z m 42.88282,0 h 26.88281 v 26.88282 h -26.88281 z m -710.53711,5.85547 v 15.17188 l -13.13868,-7.58594 z m 245.80664,0 v 15.17188 l -13.13868,-7.58594 z m 160.04101,0 v 15.17188 l -13.13867,-7.58594 z m 245.80664,0 v 15.17188 l -13.13867,-7.58594 z m -709.929684,0.002 13.136718,7.58398 -13.136718,7.58594 z m 160.041014,0 13.13672,7.58398 -13.13672,7.58399 z m 245.80664,0 13.13672,7.58398 -13.13672,7.58399 z m 160.04102,0 13.13672,7.58398 -13.13672,7.58399 z m 245.80664,0 13.13672,7.58398 -13.13672,7.58399 z m 58.27539,0 v 15.16992 l -13.13867,-7.58594 z m -683.7207,18.51367 13.4414,23.28125 -23.28125,13.44141 -13.4414,-23.28321 z m 91.62304,0 23.28125,13.4414 -13.4414,23.28126 -23.28321,-13.44141 z m 314.22461,0 13.44141,23.28125 -23.28125,13.44141 -13.44141,-23.28321 z m 91.62305,0 23.28125,13.4414 -13.44141,23.28126 -23.28125,-13.44141 z m -662.583986,2.92773 v 15.16993 l -13.136718,-7.58594 z m 16,0 13.138676,7.58399 -13.138676,7.58594 z m 389.847656,0 v 15.16993 l -13.13672,-7.58594 z m 16,0 13.13867,7.58399 -13.13867,7.58594 z m 389.84766,0 v 15.16993 l -13.13672,-7.58594 z m 16,0 13.13672,7.58399 -13.13672,7.58594 z M 18.607422,928.77344 h 15.171875 l -7.585938,13.13867 z m 117.158198,0 h 15.17188 l -7.58594,13.13867 z m 288.68946,0 h 15.17187 l -7.58593,13.13867 z m 117.1582,0 h 15.17188 l -7.58594,13.13867 z m 288.68945,0 h 15.17188 l -7.58594,13.13867 z m -779.74023,2.92773 23.28125,13.44336 -13.441406,23.2793 -23.28125,-13.44141 z m 474.26758,0 13.4414,23.28125 -23.2832,13.44336 -13.43945,-23.28125 z m 337.42773,0 23.28125,13.44336 -13.4414,23.28125 -23.28125,-13.4414 z m -743.27539,0.002 13.43946,23.28126 -23.28126,13.4414 -13.439448,-23.28125 z m 337.42774,0 23.28125,13.44141 -13.44141,23.28125 -23.28125,-13.4414 z m 474.26562,0 13.44336,23.28126 -23.28125,13.4414 -13.44336,-23.28125 z m -650.5664,12.76758 h 15.17187 l -7.58594,13.13868 z m 405.84765,0 h 15.17188 l -7.58594,13.13868 z m -422.63086,2.92774 13.44141,23.28125 -23.28125,13.4414 -13.44141,-23.28125 z m 48.73828,0 23.28321,13.4414 -13.44141,23.28125 -23.28125,-13.4414 z m 357.10938,0 13.4414,23.28125 -23.28125,13.4414 -13.4414,-23.28125 z m 48.74023,0 23.28125,13.4414 -13.4414,23.28125 -23.28125,-13.4414 z m -633.142576,10.8164 7.585938,13.13868 H 77.1875 Z m 405.847656,0 7.58594,13.13868 H 483.0332 Z m 405.84766,0.002 7.58593,13.13672 h -15.16992 z"
     id="path835" />
</svg>
