<?xml version="1.0" encoding="UTF-8" standalone="no"?>
<svg
   xmlns:dc="http://purl.org/dc/elements/1.1/"
   xmlns:cc="http://creativecommons.org/ns#"
   xmlns:rdf="http://www.w3.org/1999/02/22-rdf-syntax-ns#"
   xmlns:svg="http://www.w3.org/2000/svg"
   xmlns="http://www.w3.org/2000/svg"
   xmlns:sodipodi="http://sodipodi.sourceforge.net/DTD/sodipodi-0.dtd"
   xmlns:inkscape="http://www.inkscape.org/namespaces/inkscape"
   inkscape:version="1.0 (9f2f71dc58, 2020-08-02)"
   sodipodi:docname="4-uniform_102.svg"
   id="c:\kuniform\4u\4-uniform_102.svg"
   height="989.9067"
   width="1000.00006"
   version="1.0">
  <style
     id="style8023" />
  <metadata
     id="metadata7460">
    <rdf:RDF>
      <cc:Work
         rdf:about="">
        <dc:format>image/svg+xml</dc:format>
        <dc:type
           rdf:resource="http://purl.org/dc/dcmitype/StillImage" />
        <dc:title></dc:title>
      </cc:Work>
    </rdf:RDF>
  </metadata>
  <defs
     id="defs7458" />
  <sodipodi:namedview
     inkscape:current-layer="c:\kuniform\4u\4-uniform_102.svg"
     inkscape:window-maximized="1"
     inkscape:window-y="27"
     inkscape:window-x="0"
     inkscape:cy="521.05836"
     inkscape:cx="322.74999"
     inkscape:zoom="0.78338842"
     showgrid="false"
     id="namedview7456"
     inkscape:window-height="1016"
     inkscape:window-width="1920"
     inkscape:pageshadow="2"
     inkscape:pageopacity="0"
     guidetolerance="10"
     gridtolerance="10"
     objecttolerance="10"
     borderopacity="1"
     inkscape:document-rotation="0"
     bordercolor="#666666"
     pagecolor="#ffffff" />
  <!-- X Coordinate transform: fx(x)=(x+83.85651)*0.86131597-->
  <!-- Y Coordinate transform: fy(y)=(1065.4972-y)*0.86131597 -->
  <g
     id="g831"
     style="opacity:1">
    <path
       style="color:#000000;font-style:normal;font-variant:normal;font-weight:normal;font-stretch:normal;font-size:medium;line-height:normal;font-family:sans-serif;font-variant-ligatures:normal;font-variant-position:normal;font-variant-caps:normal;font-variant-numeric:normal;font-variant-alternates:normal;font-variant-east-asian:normal;font-feature-settings:normal;font-variation-settings:normal;text-indent:0;text-align:start;text-decoration:none;text-decoration-line:none;text-decoration-style:solid;text-decoration-color:#000000;letter-spacing:normal;word-spacing:normal;text-transform:none;writing-mode:lr-tb;direction:ltr;text-orientation:mixed;dominant-baseline:auto;baseline-shift:baseline;text-anchor:start;white-space:normal;shape-padding:0;shape-margin:0;inline-size:0;clip-rule:nonzero;display:inline;overflow:visible;visibility:visible;isolation:auto;mix-blend-mode:normal;color-interpolation:sRGB;color-interpolation-filters:linearRGB;solid-color:#000000;solid-opacity:1;vector-effect:none;fill:#000000;fill-opacity:0;fill-rule:nonzero;stroke:none;stroke-width:15;stroke-linecap:butt;stroke-linejoin:miter;stroke-miterlimit:4;stroke-dasharray:none;stroke-dashoffset:0;stroke-opacity:1.0;color-rendering:auto;image-rendering:auto;shape-rendering:auto;text-rendering:auto;enable-background:accumulate;stop-color:#000000;stop-opacity:1;"
       d="M 122.608,63.729 V 20.664 M 957.753,867.348 995.05,845.815 M 781.267,969.243 818.563,947.71 m 139.19,-123.428 v 43.066 l -21.532,37.296 V 947.71 M 144.141,904.644 V 947.71 M 840.096,63.729 877.392,42.197 M 101.076,947.71 h 43.065 l 37.296,21.533 m 717.487,0 37.297,-21.533 M 42.247,202.92 4.951,181.387 M 20.714,283.282 42.247,245.986 V 202.92 159.855 L 20.714,122.558 m 64.598,723.257 37.296,21.533 21.533,37.296 37.296,21.533 m 797.849,-21.533 -21.533,-37.296 -37.296,-21.533 m -101.894,58.829 v 43.066 l 21.533,37.296 M 224.503,969.243 261.799,947.71 m 439.106,0 37.296,21.533 M 920.457,202.92 957.753,181.387 M 979.286,304.815 941.99,283.282 920.457,245.986 V 202.92 159.855 l 21.533,-37.297 37.296,-21.532 M 283.332,63.729 V 20.664 m 396.04,43.065 V 20.664 M 144.141,144.091 106.845,122.558 85.312,85.262 V 42.197 m 58.829,58.829 37.296,21.532 m 43.066,0 V 79.493 l 21.533,-37.296 37.296,-21.533 37.296,21.533 m -198.02,825.151 v -43.066 m 58.829,144.961 V 926.177 883.111 L 159.905,845.815 122.608,824.282 85.312,802.75 H 42.247 L 4.951,824.282 M 42.247,685.092 4.951,706.624 m 15.763,58.829 21.533,-37.296 V 685.092 642.026 L 20.714,604.73 m 760.553,321.447 37.296,-21.533 21.533,-37.296 37.296,-21.533 M 159.905,42.197 122.608,63.729 85.312,85.262 H 42.247 L 4.951,63.729 m 219.552,862.448 37.296,21.533 h 43.066 l 37.296,21.533 m -80.362,-64.599 -37.296,21.533 h -43.066 l -37.296,21.533 -21.533,37.296 m 497.935,-15.763 37.296,-21.533 h 43.066 l 37.296,-21.533 m -37.296,-21.533 37.296,21.533 h 43.066 l 37.296,21.533 h 43.065 l 37.296,21.533 m 58.829,-584.066 v -43.066 m 0,160.724 37.297,21.533 M 840.096,181.387 877.392,202.92 m -58.829,-58.829 v -43.065 m -37.296,21.532 37.296,-21.532 21.533,-37.297 V 20.664 M 979.286,144.091 941.99,122.558 920.457,85.262 V 42.197 L 898.924,4.901 m 21.533,37.296 37.296,21.532 m -154.954,-21.532 37.297,21.532 37.296,21.533 h 43.065 L 957.753,63.729 995.05,42.197 m -352.974,0 37.296,-21.533 37.296,21.533 21.533,37.296 v 43.065 M 979.286,101.026 957.753,63.729 V 20.664 M 20.714,122.558 42.247,85.262 V 42.197 L 63.779,4.901 m 58.829,219.552 v -43.066 m 139.191,-80.361 -37.296,21.532 -21.533,37.297 -37.296,21.532 H 122.608 L 85.312,159.855 H 42.247 L 4.951,181.387 m 80.361,21.533 37.296,-21.533 21.533,-37.296 37.296,-21.533 h 43.066 l 37.296,21.533 M 63.779,883.111 85.312,845.815 V 802.75 l 21.533,-37.297 37.296,-21.532 m 695.955,80.361 37.296,21.533 h 43.065 l 37.296,-21.533 21.533,-37.296 M 781.267,969.243 v -43.066 -43.066 l 21.532,-37.296 37.297,-21.533 37.296,-21.532 h 43.065 l 37.296,21.532 37.297,21.533 m -74.593,-160.723 37.296,21.532 m 21.533,-123.427 -37.296,21.533 -21.533,37.296 v 43.066 43.065 l 21.533,37.296 37.296,21.533 m -556.763,160.724 37.296,21.533 m 43.066,0 37.296,-21.533 m -37.296,-21.533 37.296,21.533 h 43.066 l 37.296,21.533 m -278.382,0 37.296,-21.533 h 43.066 l 37.296,-21.533 m 460.638,-562.533 37.296,-21.533 21.533,-37.296 m -21.533,241.086 v -43.066 l -21.532,-37.296 v -43.066 l 21.532,-37.296 37.297,-21.533 M 979.286,583.197 957.753,545.901 920.457,524.368 M 979.286,261.749 957.753,224.453 920.457,202.92 h -43.065 l -37.296,21.533 m -139.191,-123.427 37.296,21.532 21.533,37.297 37.296,21.532 h 43.066 l 37.296,-21.532 h 43.065 l 37.296,21.532 M 400.99,63.729 V 20.664 m -154.954,21.533 37.296,21.532 37.296,21.533 h 43.066 L 400.99,63.729 438.286,42.197 M 561.714,63.729 V 20.664 m -37.296,21.533 37.296,21.532 37.296,21.533 h 43.066 L 679.372,63.729 716.668,42.197 M 85.312,363.644 v -43.066 l 21.533,-37.296 37.296,-21.533 m 0,43.066 v -43.066 l 21.533,-37.296 V 181.387 L 144.141,144.091 V 101.026 L 122.608,63.729 85.312,42.197 63.779,4.901 m 80.362,782.085 37.296,-21.533 m -58.829,-58.829 v -43.065 m 717.488,43.065 37.296,-21.532 m -58.829,101.894 v -43.065 m -497.935,101.894 -37.296,21.533 -21.533,37.296 v 43.066 l 21.533,37.296 m 0,-117.658 v -43.066 m 139.191,80.362 37.296,21.533 h 43.066 l 37.296,-21.533 m 101.895,-58.829 37.296,21.533 21.533,37.296 v 43.066 l -21.533,37.296 m 0,-117.658 V 824.282 M 224.503,765.453 v 43.066 l 21.533,37.296 37.296,21.533 21.533,37.296 v 43.066 l -21.533,37.296 m 594.06,-621.362 v -43.066 l -21.533,-37.296 -37.296,-21.533 m 0,43.066 V 261.749 L 797.03,224.453 v -43.066 l 21.533,-37.296 37.296,-21.533 21.533,-37.296 V 42.197 L 898.924,4.901 m -58.828,337.21 37.296,21.533 21.532,37.296 37.297,21.533 h 43.065 M 502.885,122.558 540.181,101.026 m -117.658,0 37.296,21.532 M 122.608,385.177 v -43.066 m -37.296,182.257 37.296,21.533 M 63.779,400.94 l 21.533,-37.296 37.296,-21.533 21.533,-37.296 37.296,-21.533 M 283.332,224.453 V 181.387 M 261.799,786.986 224.503,765.453 202.97,728.157 165.674,706.624 H 122.608 L 85.312,728.157 H 42.247 L 4.951,706.624 M 144.141,626.263 106.845,604.73 85.312,567.434 V 524.368 L 63.779,487.072 m 80.362,96.125 v 43.066 l 21.533,37.296 v 43.065 l -21.533,37.297 v 43.065 l -21.533,37.296 -37.296,21.533 H 42.247 L 4.951,824.282 m 835.145,43.066 v -43.066 l -21.533,-37.296 -37.296,-21.533 m 58.829,-101.894 37.296,21.533 h 43.065 l 37.296,-21.533 21.533,-37.296 m -615.592,219.552 37.296,21.533 21.533,37.296 v 43.066 l -21.533,37.296 m 198.02,-139.191 -37.296,21.533 -21.533,37.296 v 43.066 l 21.533,37.296 M 738.201,765.453 v 43.066 l -21.533,37.296 -37.296,21.533 -21.533,37.296 v 43.066 l 21.533,37.296 m -594.06,-299.914 37.296,21.532 21.533,37.297 37.296,21.532 h 43.066 l 37.296,-21.532 m 578.297,-241.086 37.296,21.533 h 43.065 l 37.296,-21.533 21.533,-37.296 M 840.096,385.177 V 342.111 L 818.563,304.815 781.267,283.282 M 363.694,42.197 l 37.296,21.532 21.533,37.297 v 43.065 m 117.658,0 V 101.026 L 561.714,63.729 599.01,42.197 m 80.362,182.256 V 181.387 M 144.141,465.539 v -43.066 m 176.487,-219.553 -37.296,21.533 -21.533,37.296 -37.296,21.533 H 181.437 L 144.141,261.749 122.608,224.453 85.312,202.92 H 42.247 L 4.951,224.453 m 278.381,-43.066 37.296,-21.532 h 43.066 l 37.296,21.532 M 181.437,604.73 144.141,626.263 122.608,663.559 85.312,685.092 H 42.247 L 4.951,663.559 m 695.954,123.427 37.296,-21.533 21.533,-37.296 37.296,-21.533 h 43.066 l 37.296,21.533 h 43.065 l 37.296,-21.533 m -139.19,-80.361 37.296,-21.533 21.533,-37.296 v -43.066 m -58.829,58.829 v 43.066 l -21.533,37.296 v 43.065 l 21.533,37.297 37.296,21.532 21.533,37.297 v 43.065 l 21.532,37.296 37.297,21.533 h 43.065 M 400.99,867.348 v -43.066 m 58.829,144.961 V 926.177 883.111 L 438.286,845.815 400.99,824.282 363.694,802.75 h -43.066 l -37.296,21.532 -37.296,21.533 -21.533,37.296 v 43.066 43.066 M 561.714,867.348 v -43.066 m -58.829,144.961 v -43.066 -43.066 l 21.533,-37.296 37.296,-21.533 37.296,-21.532 h 43.066 l 37.296,21.532 37.296,21.533 21.533,37.296 v 43.066 43.066 m 241.085,-546.77 -21.533,-37.296 -37.296,-21.533 h -43.065 l -37.296,21.533 -21.533,37.296 v 43.066 l 21.533,37.296 v 43.066 m -139.191,-401.81 37.296,-21.533 h 43.066 l 37.296,21.533 21.533,37.296 v 43.066 l -21.533,37.296 -37.296,21.533 H 738.201 L 700.905,261.749 679.372,224.453 642.076,202.92 m 37.296,-21.533 21.533,-37.296 V 101.026 L 679.372,63.729 642.076,42.197 H 599.01 L 561.714,20.664 524.418,42.197 502.885,79.493 v 43.065 l -21.533,37.297 -37.296,21.532 H 400.99 l -37.296,21.533 m 198.02,-21.533 37.296,-21.532 h 43.066 l 37.296,21.532 m -396.04,0 -21.533,-37.296 v -43.065 l 21.533,-37.297 37.296,-21.532 h 43.066 l 37.296,-21.533 37.296,21.533 21.533,37.296 v 43.065 l 21.533,37.297 37.296,21.532 h 43.066 L 599.01,202.92 M 4.951,342.111 42.247,363.644 h 43.065 l 37.296,21.533 21.533,37.296 37.296,21.533 M 4.951,545.901 42.247,567.434 h 43.065 l 37.296,-21.533 37.297,-21.533 21.532,-37.296 V 444.006 400.94 L 159.905,363.644 122.608,342.111 85.312,320.578 H 42.247 L 4.951,342.111 m 219.552,-58.829 37.296,21.533 m 37.296,-21.533 21.533,-37.296 V 202.92 159.855 L 299.095,122.558 261.799,101.026 224.503,79.493 h -43.066 l -37.296,21.533 -37.296,21.532 -21.533,37.297 v 43.065 43.066 l 21.533,37.296 37.296,21.533 37.296,21.533 h 43.066 l 37.296,-21.533 z M 4.951,63.729 42.247,42.197 h 43.065 l 37.296,-21.533 37.297,21.533 21.532,37.296 v 43.065 l 21.533,37.297 37.296,21.532 h 43.066 l 37.296,21.533 h 43.066 l 37.296,21.533 m 380.277,380.277 37.296,-21.533 21.533,-37.296 37.296,-21.533 21.532,-37.296 37.297,-21.533 h 43.065 m -476.401,299.914 37.296,21.533 m -117.658,0 37.296,-21.533 M 283.332,706.624 v -43.065 m 497.935,-219.553 37.296,-21.533 m 176.487,101.895 -37.297,21.533 -37.296,21.533 H 877.392 L 840.096,545.901 802.799,524.368 781.267,487.072 V 444.006 400.94 l 21.532,-37.296 37.297,-21.533 37.296,-21.533 h 43.065 l 37.296,21.533 37.297,21.533 m -294.145,-58.829 37.296,-21.533 m -96.125,-37.296 21.533,37.296 37.296,21.533 37.296,21.533 h 43.066 l 37.296,-21.533 37.296,-21.533 21.533,-37.296 V 202.92 159.855 L 855.859,122.558 818.563,101.026 781.267,79.493 h -43.066 l -37.296,21.533 -37.296,21.532 -21.533,37.297 V 202.92 Z M 561.714,224.453 599.01,202.92 h 43.066 l 37.296,-21.533 h 43.066 l 37.296,-21.532 21.533,-37.297 V 79.493 l 21.532,-37.296 37.297,-21.533 37.296,21.533 h 43.065 l 37.296,-21.533 37.297,21.533 m -711.718,342.98 v -43.066 m -58.829,101.895 37.296,-21.533 m -37.296,182.257 37.296,21.533 21.533,37.296 37.296,21.533 m -58.829,-58.829 v -43.066 m 160.724,160.724 v 43.065 l -21.533,37.296 -37.296,21.533 h -43.066 l -37.296,-21.533 -21.533,-37.296 v -43.065 l 21.533,-37.297 m 256.849,37.297 v 43.065 l 21.533,37.296 37.296,21.533 h 43.066 l 37.296,-21.533 21.533,-37.296 v -43.065 m -21.533,-37.297 v -43.065 m -396.04,43.065 37.296,21.533 h 43.066 L 400.99,706.624 M 679.372,385.177 v -43.066 m 21.533,80.362 37.296,21.533 m -476.402,21.533 -37.296,-21.533 h -43.066 l -37.296,21.533 -21.533,37.296 -37.296,21.533 H 42.247 L 4.951,545.901 M 261.799,261.749 v 43.066 l 21.533,37.296 37.296,21.533 m 101.895,-101.895 37.296,21.533 m -176.487,219.553 -37.296,21.533 -21.533,37.296 v 43.066 l -21.533,37.296 -37.296,21.533 H 122.608 L 85.312,642.026 H 42.247 L 4.951,663.559 m 219.552,-101.895 37.296,21.533 37.296,21.533 21.533,37.296 v 43.066 43.065 l -21.533,37.296 -37.296,21.533 -37.296,21.533 H 181.437 L 144.141,786.986 106.845,765.453 85.312,728.157 v -43.065 -43.066 l 21.533,-37.296 37.296,-21.533 37.296,-21.533 z m 417.573,123.428 37.296,-21.533 21.533,-37.296 37.296,-21.533 h 43.066 l 37.296,21.533 21.533,37.296 v 43.065 l -21.533,37.297 -37.296,21.532 h -43.066 l -37.296,-21.532 -21.533,-37.297 m 21.533,-80.361 v -43.066 m -337.211,101.895 37.296,21.532 h 43.066 l 37.296,21.533 21.533,37.296 v 43.066 l 21.533,37.296 37.296,21.533 21.533,37.296 v 43.066 l -21.533,37.296 m 0,-278.382 37.296,21.533 h 43.066 l 37.296,-21.533 m -80.362,-21.532 -37.296,21.532 h -43.066 l -37.296,21.533 -21.533,37.296 v 43.066 l -21.533,37.296 -37.296,21.533 -21.533,37.296 v 43.066 l 21.533,37.296 m 0,-321.447 -37.296,21.533 h -43.066 l -37.296,21.532 h -43.066 l -37.296,21.533 -21.533,37.296 v 43.066 l -21.532,37.296 -37.297,21.533 -21.532,37.296 v 43.066 l 21.532,37.296 m 578.297,-519.467 37.296,-21.533 h 43.066 l 37.296,21.533 m -176.487,-101.895 37.296,-21.533 21.533,-37.296 v -43.066 m -278.382,43.066 37.296,-21.533 h 43.066 l 37.296,-21.533 21.533,-37.296 v -43.066 l -21.533,-37.296 -37.296,-21.533 h -43.066 l -37.296,21.533 -21.533,37.296 v 43.066 l 21.533,37.296 m 80.362,21.533 37.296,21.533 M 283.332,545.901 v -43.066 l 21.533,-37.296 V 422.473 L 283.332,385.177 246.036,363.644 224.503,326.348 V 283.282 L 202.97,245.986 165.674,224.453 H 122.608 L 85.312,245.986 H 42.247 L 4.951,224.453 m 358.743,139.191 v -43.066 l 21.533,-37.296 37.296,-21.533 m -21.533,80.362 -37.296,21.533 -21.533,37.296 -37.296,21.533 H 261.799 L 224.503,400.94 h -43.066 l -37.296,21.533 H 101.076 L 63.779,400.94 42.247,363.644 V 320.578 L 20.714,283.282 m 658.658,219.553 37.296,21.533 21.533,37.296 v 43.066 m 43.066,-43.066 h -43.066 l -37.296,21.533 -37.296,21.533 -21.533,37.296 v 43.066 43.065 l 21.533,37.296 37.296,21.533 37.296,21.533 h 43.066 l 37.296,-21.533 37.296,-21.533 21.533,-37.296 V 685.092 642.026 L 855.859,604.73 818.563,583.197 Z m -219.553,101.895 37.296,21.533 h 43.066 l 37.296,21.532 h 43.066 l 37.296,21.533 21.533,37.296 v 43.066 l 21.532,37.296 37.297,21.533 21.532,37.296 v 43.066 l -21.532,37.296 M 679.372,545.901 v -43.066 l -21.533,-37.296 v -43.066 l 21.533,-37.296 37.296,-21.533 21.533,-37.296 v -43.066 l 21.533,-37.296 37.296,-21.533 h 43.066 l 37.296,21.533 h 43.065 l 37.296,-21.533 v -43.066 l 21.533,-37.296 M 599.01,363.644 v -43.066 l -21.533,-37.296 -37.296,-21.533 m 21.533,80.362 37.296,21.533 21.533,37.296 37.296,21.533 h 43.066 l 37.296,-21.533 h 43.066 l 37.296,21.533 h 43.065 l 37.296,-21.533 21.533,-37.296 v -43.066 l 21.533,-37.296 37.296,-21.533 m -615.592,-15.763 21.533,37.296 37.296,21.533 37.296,21.533 h 43.066 l 37.296,-21.533 37.296,-21.533 21.533,-37.296 V 202.92 159.855 L 577.477,122.558 540.181,101.026 502.885,79.493 h -43.066 l -37.296,21.533 -37.296,21.532 -21.533,37.297 v 43.065 z m 37.296,139.191 v -43.066 l 21.533,-37.296 v -43.066 l 21.533,-37.296 V 181.387 L 422.523,144.091 385.227,122.558 363.694,85.262 V 42.197 L 342.161,4.901 M 20.714,604.73 42.247,567.434 v -43.066 l 21.532,-37.296 37.297,-21.533 h 43.065 l 37.296,21.533 h 43.066 l 37.296,-21.533 h 43.066 l 37.296,21.533 21.533,37.296 v 43.066 l 21.533,37.296 37.296,21.533 m 219.553,-101.895 37.296,21.533 21.533,37.296 37.296,21.533 21.533,37.296 37.296,21.533 h 43.066 l 37.296,-21.533 h 43.065 l 37.296,21.533 v 43.065 l 21.533,37.297 m -856.678,-241.086 37.297,21.533 21.532,37.296 v 43.066 l 21.533,37.296 37.296,21.533 h 43.066 l 37.296,-21.533 h 43.066 l 37.296,21.533 h 43.066 l 37.296,-21.533 M 422.523,626.263 459.819,604.73 M 561.714,385.177 v -43.066 l -21.533,-37.296 v -43.066 l -21.533,-37.296 v -43.066 l 21.533,-37.296 37.296,-21.533 21.533,-37.296 V 42.197 L 620.543,4.901 M 363.694,524.368 400.99,502.835 m 139.191,123.428 37.296,-21.533 21.533,-37.296 v -43.066 m -176.487,58.829 37.296,21.533 h 43.066 l 37.296,21.533 21.533,37.296 v 43.065 l -21.533,37.297 -37.296,21.532 H 459.819 L 422.523,743.921 400.99,706.624 v -43.065 l 21.533,-37.296 m 80.362,-21.533 37.296,-21.533 M 422.523,422.473 459.819,400.94 h 43.066 l 37.296,21.533 M 400.99,545.901 v -43.066 l 21.533,-37.296 V 422.473 L 400.99,385.177 363.694,363.644 h -43.066 l -37.296,21.533 -21.533,37.296 v 43.066 l 21.533,37.296 37.296,21.533 m 101.895,-58.829 37.296,-21.533 m -21.533,80.362 21.533,37.296 v 43.066 l 21.533,37.296 37.296,21.533 h 43.066 l 37.296,-21.533 h 43.066 l 37.296,21.533 h 43.066 l 37.296,-21.533 21.533,-37.296 v -43.066 l 21.532,-37.296 37.297,-21.533 21.532,-37.296 v -43.066 l -21.532,-37.296 -37.297,-21.533 -21.532,-37.296 v -43.066 l -21.533,-37.296 -37.296,-21.533 h -43.066 l -37.296,21.533 H 599.01 l -37.296,-21.533 h -43.066 l -37.296,21.533 -21.533,37.296 v 43.066 l -21.533,37.296 -37.296,21.533 -21.533,37.296 v 43.066 l 21.533,37.296 z m 123.428,-21.533 37.296,21.533 m -37.296,21.533 37.296,-21.533 21.533,-37.296 37.296,-21.533 h 43.066 l 37.296,21.533 h 43.066 l 37.296,-21.533 h 43.065 l 37.296,21.533 21.533,37.296 v 43.066 l 21.533,37.296 37.296,21.533 M 502.885,561.664 h -43.066 l -37.296,21.533 -37.296,21.533 -21.533,37.296 v 43.066 43.065 l 21.533,37.296 37.296,21.533 37.296,21.533 h 43.066 l 37.296,-21.533 37.296,-21.533 21.533,-37.296 V 685.092 642.026 L 577.477,604.73 540.181,583.197 Z m 96.125,-37.296 h 43.066 l 37.296,-21.533 21.533,-37.296 V 422.473 L 679.372,385.177 642.076,363.644 H 599.01 l -37.296,21.533 -21.533,37.296 v 43.066 l 21.533,37.296 v 43.066 l -21.533,37.296 v 43.066 l -21.533,37.296 v 43.065 l 21.533,37.297 37.296,21.532 21.533,37.297 v 43.065 l 21.533,37.296 37.296,21.533 h 43.066 l 37.296,-21.533 h 43.066 l 37.296,21.533 h 43.065 l 37.296,-21.533 21.533,-37.296 V 802.75 l 21.533,-37.297 37.296,-21.532 M 502.885,444.006 540.181,465.539 M 620.543,4.901 642.076,42.197 v 43.065 l 21.533,37.296 37.296,21.533 21.533,37.296 v 43.066 l -21.533,37.296 -37.296,21.533 -21.533,37.296 v 43.066 l -21.533,37.296 -37.296,21.533 h -43.066 l -37.296,21.533 H 459.819 L 422.523,422.473 H 379.457 L 342.161,400.94 320.628,363.644 v -43.066 l -21.533,-37.296 -37.296,-21.533 -21.533,-37.296 v -43.066 l 21.533,-37.296 37.296,-21.533 21.533,-37.296 V 42.197 L 342.161,4.901 m 117.658,482.171 -21.533,37.296 -37.296,21.533 -37.296,21.533 H 320.628 L 283.332,545.901 246.036,524.368 224.503,487.072 V 444.006 400.94 l 21.533,-37.296 37.296,-21.533 37.296,-21.533 h 43.066 l 37.296,21.533 37.296,21.533 21.533,37.296 v 43.066 z m 21.533,154.954 21.533,-37.296 v -43.066 l 21.533,-37.296 37.296,-21.533 21.533,-37.296 V 422.473 L 561.714,385.177 524.418,363.644 502.885,326.348 V 283.282 L 481.352,245.986 444.056,224.453 H 400.99 l -37.296,21.533 h -43.066 l -37.296,-21.533 h -43.066 l -37.296,21.533 -21.533,37.296 v 43.066 l -21.532,37.296 -37.297,21.533 -21.532,37.296 v 43.066 l 21.532,37.296 v 43.066 l 21.533,37.296 37.296,21.533 h 43.066 l 37.296,-21.533 21.533,-37.296 37.296,-21.533 h 43.066 l 37.296,21.533 21.533,37.296 v 43.066 l 21.533,37.296 v 43.065 l -21.533,37.297 -37.296,21.532 -21.533,37.297 v 43.065 l -21.533,37.296 -37.296,21.533 h -43.066 l -37.296,-21.533 h -43.066 l -37.296,21.533 H 101.076 L 63.779,883.111 42.247,845.815 V 802.75 L 20.714,765.453 M 502.885,487.072 h -43.066 l -37.296,-21.533 h -43.066 l -37.296,21.533 -21.533,37.296 v 43.066 l -21.533,37.296 -37.296,21.533 -21.533,37.296 v 43.065 l 21.533,37.297 37.296,21.532 21.533,37.297 v 43.065 l 21.533,37.296 37.296,21.533 h 43.066 l 37.296,-21.533 h 43.066 l 37.296,21.533 h 43.066 l 37.296,-21.533 21.533,-37.296 V 802.75 l 21.533,-37.297 37.296,-21.532 21.533,-37.297 V 663.559 L 700.905,626.263 663.609,604.73 642.076,567.434 v -43.066 l -21.533,-37.296 -37.296,-21.533 h -43.066 z m 0,0 21.533,37.296 37.296,21.533 37.296,21.533 h 43.066 l 37.296,-21.533 37.296,-21.533 21.533,-37.296 V 444.006 400.94 L 716.668,363.644 679.372,342.111 642.076,320.578 H 599.01 l -37.296,21.533 -37.296,21.533 -21.533,37.296 v 43.066 z"
       id="path833" />
    <path
       style="color:#000000;font-style:normal;font-variant:normal;font-weight:normal;font-stretch:normal;font-size:medium;line-height:normal;font-family:sans-serif;font-variant-ligatures:normal;font-variant-position:normal;font-variant-caps:normal;font-variant-numeric:normal;font-variant-alternates:normal;font-variant-east-asian:normal;font-feature-settings:normal;font-variation-settings:normal;text-indent:0;text-align:start;text-decoration:none;text-decoration-line:none;text-decoration-style:solid;text-decoration-color:#000000;letter-spacing:normal;word-spacing:normal;text-transform:none;writing-mode:lr-tb;direction:ltr;text-orientation:mixed;dominant-baseline:auto;baseline-shift:baseline;text-anchor:start;white-space:normal;shape-padding:0;shape-margin:0;inline-size:0;clip-rule:nonzero;display:inline;overflow:visible;visibility:visible;isolation:auto;mix-blend-mode:normal;color-interpolation:sRGB;color-interpolation-filters:linearRGB;solid-color:#000000;solid-opacity:1;vector-effect:none;fill:#000000;fill-opacity:1;fill-rule:nonzero;stroke:none;stroke-width:15;stroke-linecap:butt;stroke-linejoin:miter;stroke-miterlimit:4;stroke-dasharray:none;stroke-dashoffset:0;stroke-opacity:1.0;color-rendering:auto;image-rendering:auto;shape-rendering:auto;text-rendering:auto;enable-background:accumulate;stop-color:#000000;stop-opacity:1;"
       d="M 57.283203 1.1503906 L 36.753906 36.708984 L 1.2011719 57.234375 L 4.9511719 63.730469 L 1.2011719 70.224609 L 32.001953 88.005859 L 14.21875 118.80859 L 20.714844 122.55859 L 14.21875 126.30859 L 32.001953 157.11133 L 1.2011719 174.89258 L 4.9511719 181.38672 L 1.2011719 187.88281 L 27.246094 202.91992 L 1.2011719 217.95703 L 4.9511719 224.45312 L 1.2011719 230.94727 L 32.001953 248.73047 L 14.21875 279.53125 L 20.714844 283.28125 L 14.21875 287.03125 L 32.001953 317.83398 L 1.2011719 335.61523 L 4.9511719 342.10938 L 1.2011719 348.60547 L 36.753906 369.13281 L 58.289062 406.42969 L 93.576172 426.80273 L 93.576172 461.20898 L 58.289062 481.58203 L 36.755859 518.87695 L 1.2011719 539.40625 L 4.9511719 545.90234 L 1.2011719 552.39648 L 32.001953 570.17773 L 14.21875 600.98047 L 20.714844 604.73047 L 14.21875 608.48047 L 32.001953 639.28125 L 1.2011719 657.06445 L 4.9511719 663.55859 L 1.2011719 670.05469 L 27.248047 685.0918 L 1.2011719 700.12891 L 4.9511719 706.625 L 1.2011719 713.11914 L 32.001953 730.90039 L 14.21875 761.70312 L 20.714844 765.45312 L 14.21875 769.20312 L 32.001953 800.00586 L 1.2011719 817.78711 L 4.9511719 824.28125 L 1.2011719 830.77734 L 36.753906 851.30273 L 58.289062 888.60156 L 93.576172 908.97461 L 93.576172 949.71875 L 116.11328 988.75586 L 122.60938 985.00586 L 129.10352 988.75586 L 146.88477 957.95508 L 177.6875 975.73828 L 181.4375 969.24219 L 188.9375 969.24219 L 188.9375 933.67773 L 217.00391 933.67773 L 217.00391 969.24219 L 224.50391 969.24219 L 228.25391 975.73828 L 259.05469 957.95508 L 276.83594 988.75586 L 283.33203 985.00586 L 289.82812 988.75586 L 307.60938 957.95508 L 338.41016 975.73828 L 342.16016 969.24219 L 345.91016 975.73828 L 376.71289 957.95508 L 394.49414 988.75586 L 400.98828 985.00586 L 407.48438 988.75586 L 425.26758 957.95508 L 456.06836 975.73828 L 459.81836 969.24219 L 467.31836 969.24219 L 467.31836 933.67773 L 495.38477 933.67773 L 495.38477 969.24219 L 502.88477 969.24219 L 506.63477 975.73828 L 537.4375 957.95508 L 555.21875 988.75586 L 561.71484 985.00586 L 568.20898 988.75586 L 585.99023 957.95508 L 616.79297 975.73828 L 620.54297 969.24219 L 624.29297 975.73828 L 655.0957 957.95508 L 672.87695 988.75586 L 679.37109 985.00586 L 685.86719 988.75586 L 703.64844 957.95508 L 734.45117 975.73828 L 738.20117 969.24219 L 745.70117 969.24219 L 745.70117 933.67773 L 773.76758 933.67773 L 773.76758 969.24219 L 781.26758 969.24219 L 785.01758 975.73828 L 815.81836 957.95508 L 833.60156 988.75586 L 840.09766 985.00586 L 846.5918 988.75586 L 864.37305 957.95508 L 895.17383 975.73828 L 898.92383 969.24219 L 902.67383 975.73828 L 939.9707 954.20508 L 936.2207 947.71094 L 943.7207 947.71094 L 943.7207 912.14453 L 979.28516 912.14453 L 979.28516 904.64453 L 985.78125 900.89453 L 968 870.09375 L 998.80078 852.31055 L 995.05078 845.81641 L 998.80078 839.32031 L 967.99805 821.53711 L 985.78125 790.73633 L 979.28516 786.98633 L 983.03516 780.49023 L 956.99023 765.45312 L 983.03516 750.41602 L 979.28516 743.92188 L 985.78125 740.17188 L 965.25391 704.61523 L 965.25391 665.56836 L 985.78125 630.01367 L 979.28516 626.26367 L 983.03516 619.76758 L 956.99023 604.73047 L 983.03516 589.69141 L 979.28516 583.19727 L 985.78125 579.44727 L 968 548.64648 L 998.80078 530.86328 L 995.05078 524.36719 L 998.80078 517.87305 L 968 500.08984 L 985.78125 469.28906 L 979.28516 465.53906 L 979.28516 458.03906 L 943.7207 458.03906 L 943.7207 429.97266 L 979.28516 429.97266 L 979.28516 422.47266 L 985.78125 418.72266 L 967.99805 387.92188 L 998.80078 370.13867 L 995.05078 363.64453 L 998.80078 357.14844 L 968 339.36523 L 985.78125 308.56445 L 979.28516 304.81445 L 983.03516 298.32031 L 956.99023 283.28125 L 983.03516 268.24414 L 979.28516 261.74805 L 985.78125 257.99805 L 965.25391 222.44336 L 965.25391 183.39648 L 985.78125 147.8418 L 979.28516 144.0918 L 983.03516 137.5957 L 956.99023 122.55859 L 983.03516 107.52148 L 979.28516 101.02539 L 985.78125 97.275391 L 968 66.474609 L 998.80078 48.691406 L 995.05078 42.195312 L 998.80078 35.701172 L 957.75391 12.003906 L 923.20312 31.951172 L 905.41992 1.1503906 L 898.92578 4.9003906 L 892.42969 1.1503906 L 874.64648 31.951172 L 840.0957 12.003906 L 797.30859 36.707031 L 776.9375 71.992188 L 742.53125 71.992188 L 722.1582 36.707031 L 679.37109 12.003906 L 644.82031 31.951172 L 627.03906 1.1503906 L 620.54297 4.9003906 L 614.04688 1.1503906 L 596.26367 31.951172 L 561.71484 12.003906 L 518.92773 36.707031 L 498.55469 71.992188 L 464.14844 71.992188 L 443.77734 36.707031 L 400.99023 12.003906 L 366.43945 31.951172 L 348.65625 1.1503906 L 342.16016 4.9003906 L 335.66602 1.1503906 L 317.88477 31.951172 L 283.33203 12.003906 L 240.54492 36.707031 L 220.17383 71.992188 L 185.76562 71.992188 L 165.39453 36.707031 L 122.60742 12.003906 L 88.056641 31.951172 L 70.273438 1.1503906 L 63.777344 4.9003906 L 57.283203 1.1503906 z M 63.779297 19.900391 L 72.322266 34.697266 L 55.236328 34.697266 L 63.779297 19.900391 z M 342.16016 19.900391 L 350.70312 34.697266 L 333.61914 34.697266 L 342.16016 19.900391 z M 898.92578 19.900391 L 907.4668 34.697266 L 890.38281 34.697266 L 898.92578 19.900391 z M 620.54297 19.902344 L 629.08594 34.697266 L 612 34.697266 L 620.54297 19.902344 z M 115.10742 33.654297 L 115.10742 50.738281 L 100.3125 42.197266 L 115.10742 33.654297 z M 130.10742 33.654297 L 144.9043 42.197266 L 130.10742 50.738281 L 130.10742 33.654297 z M 275.83203 33.654297 L 275.83203 50.738281 L 261.03711 42.197266 L 275.83203 33.654297 z M 290.83203 33.654297 L 305.62891 42.197266 L 290.83203 50.738281 L 290.83203 33.654297 z M 393.49023 33.654297 L 393.49023 50.738281 L 378.69531 42.197266 L 393.49023 33.654297 z M 408.49023 33.654297 L 423.28516 42.197266 L 408.49023 50.738281 L 408.49023 33.654297 z M 554.21484 33.654297 L 554.21484 50.738281 L 539.41797 42.197266 L 554.21484 33.654297 z M 569.21484 33.654297 L 584.00977 42.197266 L 569.21484 50.738281 L 569.21484 33.654297 z M 671.87109 33.654297 L 671.87109 50.738281 L 657.07617 42.197266 L 671.87109 33.654297 z M 686.87109 33.654297 L 701.66797 42.197266 L 686.87109 50.738281 L 686.87109 33.654297 z M 832.5957 33.654297 L 832.5957 50.738281 L 817.79883 42.197266 L 832.5957 33.654297 z M 847.5957 33.654297 L 862.39258 42.197266 L 847.5957 50.738281 L 847.5957 33.654297 z M 950.25391 33.654297 L 950.25391 50.740234 L 935.45703 42.197266 L 950.25391 33.654297 z M 965.25391 33.654297 L 980.05078 42.197266 L 965.25391 50.738281 L 965.25391 33.654297 z M 49.746094 49.697266 L 77.8125 49.697266 L 77.8125 77.761719 L 49.746094 77.761719 L 49.746094 49.697266 z M 328.12891 49.697266 L 356.19336 49.697266 L 356.19336 77.761719 L 328.12891 77.761719 L 328.12891 49.697266 z M 606.50977 49.697266 L 634.57617 49.697266 L 634.57617 77.761719 L 606.50977 77.761719 L 606.50977 49.697266 z M 884.89258 49.697266 L 912.95703 49.697266 L 912.95703 77.761719 L 884.89258 77.761719 L 884.89258 49.697266 z M 157.1582 52.441406 L 171.19141 76.748047 L 146.88672 90.78125 L 132.85352 66.474609 L 157.1582 52.441406 z M 248.78125 52.441406 L 273.08594 66.474609 L 259.05273 90.78125 L 234.74805 76.748047 L 248.78125 52.441406 z M 435.53906 52.441406 L 449.57227 76.748047 L 425.26953 90.78125 L 411.23633 66.474609 L 435.53906 52.441406 z M 527.16406 52.441406 L 551.46875 66.474609 L 537.43555 90.78125 L 513.13086 76.748047 L 527.16406 52.441406 z M 713.92188 52.441406 L 727.95508 76.748047 L 703.65039 90.78125 L 689.61719 66.474609 L 713.92188 52.441406 z M 805.54492 52.441406 L 829.84961 66.474609 L 815.81641 90.78125 L 791.51172 76.748047 L 805.54492 52.441406 z M 313.12891 55.185547 L 313.12891 72.271484 L 298.33203 63.728516 L 313.12891 55.185547 z M 371.19336 55.185547 L 385.99023 63.728516 L 371.19336 72.271484 L 371.19336 55.185547 z M 34.746094 55.1875 L 34.746094 72.271484 L 19.951172 63.730469 L 34.746094 55.1875 z M 92.8125 55.1875 L 107.60742 63.728516 L 92.8125 72.271484 L 92.8125 55.1875 z M 591.50977 55.1875 L 591.50977 72.271484 L 576.71289 63.728516 L 591.50977 55.1875 z M 649.57617 55.1875 L 664.37109 63.728516 L 649.57617 72.271484 L 649.57617 55.1875 z M 869.89258 55.1875 L 869.89258 72.271484 L 855.0957 63.728516 L 869.89258 55.1875 z M 927.95703 55.1875 L 942.75391 63.728516 L 927.95703 72.271484 L 927.95703 55.1875 z M 119.86328 73.974609 L 133.89648 98.28125 L 109.5918 112.31445 L 95.558594 88.007812 L 119.86328 73.974609 z M 286.07617 73.974609 L 310.38281 88.007812 L 296.34961 112.31445 L 272.04297 98.28125 L 286.07617 73.974609 z M 398.24609 73.974609 L 412.2793 98.28125 L 387.97266 112.31445 L 373.93945 88.007812 L 398.24609 73.974609 z M 564.45898 73.974609 L 588.76367 88.007812 L 574.73047 112.31445 L 550.42578 98.28125 L 564.45898 73.974609 z M 676.62695 73.974609 L 690.66016 98.28125 L 666.35547 112.31445 L 652.32227 88.007812 L 676.62695 73.974609 z M 842.83984 73.974609 L 867.14648 88.007812 L 853.11328 112.31445 L 828.80664 98.28125 L 842.83984 73.974609 z M 955.00781 73.974609 L 969.04102 98.28125 L 944.73633 112.31445 L 930.70312 88.007812 L 955.00781 73.974609 z M 188.9375 86.992188 L 217.00391 86.992188 L 217.00391 115.05859 L 188.9375 115.05859 L 188.9375 86.992188 z M 467.31836 86.992188 L 495.38477 86.992188 L 495.38477 115.05859 L 467.31836 115.05859 L 467.31836 86.992188 z M 745.70117 86.992188 L 773.76758 86.992188 L 773.76758 115.05859 L 745.70117 115.05859 L 745.70117 86.992188 z M 173.9375 92.482422 L 173.9375 109.56836 L 159.14062 101.02539 L 173.9375 92.482422 z M 232.00391 92.482422 L 246.79883 101.02539 L 232.00391 109.56836 L 232.00391 92.482422 z M 452.31836 92.482422 L 452.31836 109.56836 L 437.52344 101.02539 L 452.31836 92.482422 z M 510.38477 92.482422 L 525.18164 101.02539 L 510.38477 109.56836 L 510.38477 92.482422 z M 730.70117 92.482422 L 730.70117 109.56836 L 715.9043 101.02539 L 730.70117 92.482422 z M 788.76758 92.482422 L 803.5625 101.02539 L 788.76758 109.56641 L 788.76758 92.482422 z M 46.576172 92.761719 L 80.982422 92.761719 L 98.185547 122.55859 L 80.982422 152.35547 L 46.576172 152.35547 L 29.373047 122.55859 L 46.576172 92.761719 z M 324.95898 92.761719 L 359.36328 92.761719 L 376.56641 122.55859 L 359.36328 152.35547 L 324.95898 152.35547 L 307.75586 122.55859 L 324.95898 92.761719 z M 603.33984 92.761719 L 637.74609 92.761719 L 654.94922 122.55859 L 637.74609 152.35547 L 603.33984 152.35547 L 586.13672 122.55859 L 603.33984 92.761719 z M 881.72266 92.761719 L 916.12695 92.761719 L 933.33008 122.55859 L 916.12695 152.35547 L 881.72266 152.35547 L 864.51953 122.55859 L 881.72266 92.761719 z M 151.64062 114.01562 L 166.4375 122.55859 L 151.64062 131.10156 L 151.64062 114.01562 z M 269.29883 114.01562 L 284.0957 122.55859 L 269.29883 131.10156 L 269.29883 114.01562 z M 415.02344 114.01562 L 415.02344 131.10156 L 400.22656 122.55859 L 415.02344 114.01562 z M 430.02344 114.01562 L 444.81836 122.55859 L 430.02344 131.10156 L 430.02344 114.01562 z M 532.68164 114.01562 L 532.68164 131.10156 L 517.88477 122.55859 L 532.68164 114.01562 z M 708.4043 114.01562 L 723.20117 122.55859 L 708.4043 131.10156 L 708.4043 114.01562 z M 811.0625 114.01562 L 811.0625 131.10156 L 796.26562 122.55859 L 811.0625 114.01562 z M 826.0625 114.01562 L 840.85938 122.55859 L 826.0625 131.10156 L 826.0625 114.01562 z M 136.64062 114.01758 L 136.64062 131.09961 L 121.8457 122.55859 L 136.64062 114.01758 z M 254.29883 114.01758 L 254.29883 131.10156 L 239.50391 122.55859 L 254.29883 114.01758 z M 547.68164 114.01758 L 562.47656 122.55859 L 547.68164 131.10156 L 547.68164 114.01758 z M 693.4043 114.01758 L 693.4043 131.10156 L 678.60938 122.55859 L 693.4043 114.01758 z M 194.42773 130.05859 L 211.51172 130.05859 L 202.9707 144.85547 L 194.42773 130.05859 z M 472.80859 130.05859 L 489.89453 130.05859 L 481.35156 144.85547 L 472.80859 130.05859 z M 751.19141 130.05859 L 768.27734 130.05859 L 759.73438 144.85547 L 751.19141 130.05859 z M 109.5918 132.80273 L 133.89648 146.83594 L 119.86328 171.14258 L 95.558594 157.10938 L 109.5918 132.80273 z M 296.34961 132.80273 L 310.38281 157.10938 L 286.07812 171.14258 L 272.04492 146.83594 L 296.34961 132.80273 z M 387.97266 132.80273 L 412.27734 146.83594 L 398.24414 171.14258 L 373.93945 157.10938 L 387.97266 132.80273 z M 574.73242 132.80273 L 588.76367 157.10938 L 564.46094 171.14258 L 550.42578 146.83594 L 574.73242 132.80273 z M 666.35352 132.80273 L 690.66016 146.83594 L 676.62695 171.14258 L 652.32227 157.10938 L 666.35352 132.80273 z M 735.45703 132.80273 L 749.49023 157.10938 L 725.18359 171.14258 L 711.14844 146.83594 L 735.45703 132.80273 z M 853.11328 132.80273 L 867.14648 157.10938 L 842.8418 171.14258 L 828.80859 146.83594 L 853.11328 132.80273 z M 944.73633 132.80273 L 969.04102 146.83594 L 955.00781 171.14258 L 930.70312 157.10938 L 944.73633 132.80273 z M 178.69141 132.80469 L 192.72656 157.10938 L 168.41992 171.14258 L 154.38672 146.83594 L 178.69141 132.80469 z M 227.24805 132.80469 L 251.55469 146.83594 L 237.52148 171.14258 L 213.21484 157.10938 L 227.24805 132.80469 z M 457.07227 132.80469 L 471.10742 157.10938 L 446.80078 171.14258 L 432.76758 146.83594 L 457.07227 132.80469 z M 505.63086 132.80469 L 529.93555 146.83594 L 515.90234 171.14258 L 491.5957 157.10938 L 505.63086 132.80469 z M 784.01367 132.80469 L 808.31836 146.83594 L 794.28516 171.14258 L 769.97852 157.10938 L 784.01367 132.80469 z M 144.14062 159.0918 L 152.68359 173.88672 L 135.59766 173.88672 L 144.14062 159.0918 z M 261.79883 159.0918 L 270.33984 173.88672 L 253.25586 173.88672 L 261.79883 159.0918 z M 422.52344 159.0918 L 431.06641 173.88672 L 413.98047 173.88672 L 422.52344 159.0918 z M 540.18164 159.0918 L 548.72461 173.88672 L 531.63867 173.88672 L 540.18164 159.0918 z M 700.9043 159.0918 L 709.44727 173.88672 L 692.36328 173.88672 L 700.9043 159.0918 z M 818.5625 159.0918 L 827.10547 173.88672 L 810.01953 173.88672 L 818.5625 159.0918 z M 49.746094 167.35547 L 77.8125 167.35547 L 77.8125 195.41992 L 49.746094 195.41992 L 49.746094 167.35547 z M 328.12891 167.35547 L 356.19336 167.35547 L 356.19336 195.41992 L 328.12891 195.41992 L 328.12891 167.35547 z M 606.50977 167.35547 L 634.57617 167.35547 L 634.57617 195.41992 L 606.50977 195.41992 L 606.50977 167.35547 z M 884.89258 167.35547 L 912.95703 167.35547 L 912.95703 195.41992 L 884.89258 195.41992 L 884.89258 167.35547 z M 202.9707 168.51562 L 232.76562 185.7168 L 232.76562 220.12305 L 202.9707 237.32617 L 173.17383 220.12305 L 173.17383 185.7168 L 202.9707 168.51562 z M 481.35156 168.51562 L 511.14844 185.7168 L 511.14844 220.12305 L 481.35156 237.32617 L 451.55664 220.12305 L 451.55664 185.7168 L 481.35156 168.51562 z M 759.73438 168.51562 L 789.5293 185.7168 L 789.5293 220.12305 L 759.73438 237.32617 L 729.9375 220.12305 L 729.9375 185.7168 L 759.73438 168.51562 z M 34.746094 172.8457 L 34.746094 189.92969 L 19.951172 181.38867 L 34.746094 172.8457 z M 92.8125 172.8457 L 107.60742 181.38672 L 92.8125 189.92969 L 92.8125 172.8457 z M 313.12891 172.8457 L 313.12891 189.92969 L 298.33203 181.38672 L 313.12891 172.8457 z M 371.19336 172.8457 L 385.99023 181.38672 L 371.19336 189.92969 L 371.19336 172.8457 z M 591.50977 172.8457 L 591.50977 189.92969 L 576.71484 181.38867 L 591.50977 172.8457 z M 649.57617 172.8457 L 664.37109 181.38672 L 649.57617 189.92969 L 649.57617 172.8457 z M 869.89258 172.8457 L 869.89258 189.92969 L 855.0957 181.38672 L 869.89258 172.8457 z M 927.95703 172.8457 L 942.75391 181.38867 L 927.95703 189.92969 L 927.95703 172.8457 z M 130.10742 188.88672 L 158.17383 188.88672 L 158.17383 216.95312 L 130.10742 216.95312 L 130.10742 188.88672 z M 247.76562 188.88672 L 275.83203 188.88672 L 275.83203 216.95312 L 247.76562 216.95312 L 247.76562 188.88672 z M 408.49023 188.88672 L 436.55664 188.88672 L 436.55664 216.95312 L 408.49023 216.95312 L 408.49023 188.88672 z M 526.14844 188.88672 L 554.21484 188.88672 L 554.21484 216.95312 L 526.14844 216.95312 L 526.14844 188.88672 z M 686.87109 188.88672 L 714.9375 188.88672 L 714.9375 216.95312 L 686.87109 216.95312 L 686.87109 188.88672 z M 804.5293 188.88672 L 832.5957 188.88672 L 832.5957 216.95312 L 804.5293 216.95312 L 804.5293 188.88672 z M 115.10742 194.37695 L 115.10742 211.46289 L 100.3125 202.91992 L 115.10742 194.37695 z M 290.83203 194.37695 L 305.62891 202.91992 L 290.83203 211.46289 L 290.83203 194.37695 z M 393.49023 194.37695 L 393.49023 211.46289 L 378.69336 202.91992 L 393.49023 194.37695 z M 569.21484 194.37695 L 584.00977 202.91992 L 569.21484 211.46094 L 569.21484 194.37695 z M 671.87109 194.37695 L 671.87109 211.46289 L 657.07617 202.91992 L 671.87109 194.37695 z M 847.5957 194.37891 L 862.39062 202.91992 L 847.5957 211.46289 L 847.5957 194.37891 z M 950.25391 194.37891 L 950.25391 211.46289 L 935.45703 202.91992 L 950.25391 194.37891 z M 49.746094 210.41992 L 77.8125 210.41992 L 77.8125 238.48633 L 49.746094 238.48633 L 49.746094 210.41992 z M 328.12891 210.41992 L 356.19336 210.41992 L 356.19336 238.48633 L 328.12891 238.48633 L 328.12891 210.41992 z M 606.50977 210.41992 L 634.57617 210.41992 L 634.57617 238.48633 L 606.50977 238.48633 L 606.50977 210.41992 z M 884.89258 210.41992 L 912.95703 210.41992 L 912.95703 238.48633 L 884.89258 238.48633 L 884.89258 210.41992 z M 34.746094 215.91016 L 34.746094 232.99609 L 19.951172 224.45312 L 34.746094 215.91016 z M 92.8125 215.91016 L 107.60742 224.45312 L 92.8125 232.99609 L 92.8125 215.91016 z M 313.12891 215.91016 L 313.12891 232.99609 L 298.33203 224.45312 L 313.12891 215.91016 z M 371.19336 215.91016 L 385.99023 224.45312 L 371.19336 232.99609 L 371.19336 215.91016 z M 591.50977 215.91016 L 591.50977 232.99609 L 576.71289 224.45312 L 591.50977 215.91016 z M 869.89258 215.91016 L 869.89258 232.99609 L 855.0957 224.45312 L 869.89258 215.91016 z M 927.95703 215.91016 L 942.75391 224.45312 L 927.95703 232.99609 L 927.95703 215.91016 z M 649.57617 215.91211 L 664.37305 224.45312 L 649.57617 232.99609 L 649.57617 215.91211 z M 135.59766 231.95312 L 152.68359 231.95312 L 144.14062 246.75 L 135.59766 231.95312 z M 253.25586 231.95312 L 270.3418 231.95312 L 261.79883 246.74805 L 253.25586 231.95312 z M 413.98047 231.95312 L 431.06641 231.95312 L 422.52344 246.75 L 413.98047 231.95312 z M 531.63867 231.95312 L 548.72461 231.95312 L 540.18164 246.75 L 531.63867 231.95312 z M 692.36328 231.95312 L 709.44727 231.95312 L 700.9043 246.74805 L 692.36328 231.95312 z M 810.01953 231.95312 L 827.10547 231.95312 L 818.5625 246.75 L 810.01953 231.95312 z M 119.86328 234.69922 L 133.89453 259.00391 L 109.58984 273.03711 L 95.558594 248.73047 L 119.86328 234.69922 z M 168.41797 234.69922 L 192.72461 248.73047 L 178.69336 273.03516 L 154.38672 259.00391 L 168.41797 234.69922 z M 237.51953 234.69922 L 251.55273 259.00391 L 227.24805 273.03516 L 213.21484 248.73047 L 237.51953 234.69922 z M 286.07617 234.69922 L 310.38281 248.73242 L 296.34961 273.03516 L 272.04492 259.00391 L 286.07617 234.69922 z M 398.24414 234.69922 L 412.27734 259.00391 L 387.97266 273.03711 L 373.93945 248.73047 L 398.24414 234.69922 z M 446.80078 234.69922 L 471.10742 248.73047 L 457.07227 273.03711 L 432.76758 259.00391 L 446.80078 234.69922 z M 515.9043 234.69922 L 529.93555 259.00391 L 505.62891 273.03516 L 491.59766 248.73047 L 515.9043 234.69922 z M 564.46094 234.69922 L 588.76367 248.73047 L 574.73242 273.03711 L 550.42773 259.00391 L 564.46094 234.69922 z M 676.62695 234.69922 L 690.6582 259.00391 L 666.35352 273.03711 L 652.32031 248.73242 L 676.62695 234.69922 z M 725.18359 234.69922 L 749.48828 248.73047 L 735.45703 273.03516 L 711.15039 259.00391 L 725.18359 234.69922 z M 794.28516 234.69922 L 808.31641 259.00391 L 784.01172 273.03516 L 769.97852 248.73047 L 794.28516 234.69922 z M 842.8418 234.69922 L 867.14648 248.73242 L 853.11328 273.03711 L 828.80859 259.00391 L 842.8418 234.69922 z M 955.00781 234.69922 L 969.04102 259.00391 L 944.73438 273.03711 L 930.70312 248.73242 L 955.00781 234.69922 z M 46.576172 253.48633 L 80.982422 253.48633 L 98.185547 283.28125 L 80.982422 313.07812 L 46.576172 313.07812 L 29.373047 283.28125 L 46.576172 253.48633 z M 324.95898 253.48633 L 359.36523 253.48633 L 376.56641 283.28125 L 359.36328 313.07812 L 324.95898 313.07812 L 307.75586 283.28125 L 324.95898 253.48633 z M 603.33984 253.48633 L 637.74609 253.48633 L 654.94922 283.28125 L 637.74609 313.07812 L 603.33984 313.07812 L 586.13672 283.28125 L 603.33984 253.48633 z M 881.72266 253.48633 L 916.12695 253.48633 L 933.33008 283.28125 L 916.12695 313.07812 L 881.72266 313.07812 L 864.51953 283.28125 L 881.72266 253.48633 z M 202.9707 260.98633 L 211.51367 275.78125 L 194.42773 275.78125 L 202.9707 260.98633 z M 481.35156 260.98633 L 489.89453 275.78125 L 472.80859 275.78125 L 481.35156 260.98633 z M 759.73438 260.98633 L 768.27734 275.78125 L 751.19141 275.78125 L 759.73438 260.98633 z M 415.02344 274.73828 L 415.02344 291.82422 L 400.22656 283.28125 L 415.02344 274.73828 z M 826.0625 274.73828 L 840.85938 283.28125 L 826.0625 291.82422 L 826.0625 274.73828 z M 136.64062 274.74023 L 136.64062 291.82422 L 121.8457 283.28125 L 136.64062 274.74023 z M 151.64062 274.74023 L 166.4375 283.28125 L 151.64062 291.82422 L 151.64062 274.74023 z M 254.29883 274.74023 L 254.29883 291.82422 L 239.50195 283.28125 L 254.29883 274.74023 z M 269.29883 274.74023 L 284.0957 283.28125 L 269.29883 291.82422 L 269.29883 274.74023 z M 430.02344 274.74023 L 444.81836 283.28125 L 430.02344 291.82422 L 430.02344 274.74023 z M 532.68164 274.74023 L 532.68164 291.82422 L 517.88477 283.28125 L 532.68164 274.74023 z M 547.68164 274.74023 L 562.47656 283.28125 L 547.68164 291.82422 L 547.68164 274.74023 z M 693.4043 274.74023 L 693.4043 291.82422 L 678.60938 283.28125 L 693.4043 274.74023 z M 708.4043 274.74023 L 723.20117 283.28125 L 708.4043 291.82422 L 708.4043 274.74023 z M 811.0625 274.74023 L 811.0625 291.82422 L 796.26758 283.28125 L 811.0625 274.74023 z M 188.9375 290.78125 L 217.00391 290.78125 L 217.00391 318.84766 L 188.9375 318.84766 L 188.9375 290.78125 z M 467.31836 290.78125 L 495.38477 290.78125 L 495.38477 318.84766 L 467.31836 318.84766 L 467.31836 290.78125 z M 745.70117 290.78125 L 773.76758 290.78125 L 773.76758 318.84766 L 745.70117 318.84766 L 745.70117 290.78125 z M 296.35156 293.52539 L 310.38281 317.83203 L 286.07617 331.86523 L 272.04492 307.56055 L 296.35156 293.52539 z M 387.9707 293.52539 L 412.27734 307.56055 L 398.24609 331.86523 L 373.93945 317.83203 L 387.9707 293.52539 z M 853.11523 293.52539 L 867.14648 317.83203 L 842.83984 331.86523 L 828.80859 307.56055 L 853.11523 293.52539 z M 109.58984 293.52734 L 133.89453 307.56055 L 119.86328 331.86523 L 95.558594 317.83203 L 109.58984 293.52734 z M 574.73242 293.52734 L 588.76367 317.83203 L 564.45898 331.86523 L 550.42773 307.56055 L 574.73242 293.52734 z M 666.35352 293.52734 L 690.6582 307.56055 L 676.62695 331.86523 L 652.32227 317.83203 L 666.35352 293.52734 z M 944.73438 293.52734 L 969.04102 307.56055 L 955.00781 331.86523 L 930.70312 317.83203 L 944.73438 293.52734 z M 173.9375 296.27148 L 173.9375 313.35742 L 159.14062 304.81445 L 173.9375 296.27148 z M 452.31836 296.27148 L 452.31836 313.35742 L 437.52344 304.81445 L 452.31836 296.27148 z M 232.00391 296.27344 L 246.79883 304.81445 L 232.00391 313.35742 L 232.00391 296.27344 z M 510.38477 296.27344 L 525.18164 304.81445 L 510.38477 313.35742 L 510.38477 296.27344 z M 730.70117 296.27344 L 730.70117 313.35742 L 715.9043 304.81445 L 730.70117 296.27344 z M 788.76758 296.27344 L 803.56445 304.81445 L 788.76758 313.35742 L 788.76758 296.27344 z M 146.88477 315.06055 L 171.19141 329.09375 L 157.16016 353.40039 L 132.85352 339.36523 L 146.88477 315.06055 z M 259.05469 315.06055 L 273.08594 339.36523 L 248.78125 353.39844 L 234.74805 329.0918 L 259.05469 315.06055 z M 425.26758 315.06055 L 449.57227 329.09375 L 435.54102 353.39844 L 411.23633 339.36523 L 425.26758 315.06055 z M 537.4375 315.06055 L 551.46875 339.36523 L 527.16211 353.40039 L 513.13086 329.09375 L 537.4375 315.06055 z M 703.65039 315.06055 L 727.95508 329.09375 L 713.92383 353.40039 L 689.61719 339.36523 L 703.65039 315.06055 z M 815.81836 315.06055 L 829.84961 339.36523 L 805.54492 353.39844 L 791.51172 329.09375 L 815.81836 315.06055 z M 49.746094 328.07812 L 77.8125 328.07812 L 77.8125 356.14453 L 49.746094 356.14453 L 49.746094 328.07812 z M 328.12891 328.07812 L 356.19336 328.07812 L 356.19336 356.14453 L 328.12891 356.14453 L 328.12891 328.07812 z M 606.50977 328.07812 L 634.57617 328.07812 L 634.57617 356.14453 L 606.50977 356.14453 L 606.50977 328.07812 z M 884.89258 328.07812 L 912.95703 328.07812 L 912.95703 356.14453 L 884.89258 356.14453 L 884.89258 328.07812 z M 34.746094 333.56836 L 34.746094 350.6543 L 19.951172 342.11133 L 34.746094 333.56836 z M 92.8125 333.56836 L 107.60938 342.11133 L 92.8125 350.6543 L 92.8125 333.56836 z M 313.12891 333.56836 L 313.12891 350.6543 L 298.33203 342.11133 L 313.12891 333.56836 z M 371.19336 333.56836 L 385.99023 342.11133 L 371.19336 350.6543 L 371.19336 333.56836 z M 591.50977 333.56836 L 591.50977 350.6543 L 576.71484 342.11133 L 591.50977 333.56836 z M 649.57617 333.56836 L 664.37305 342.11133 L 649.57617 350.65234 L 649.57617 333.56836 z M 869.89258 333.56836 L 869.89258 350.6543 L 855.0957 342.11133 L 869.89258 333.56836 z M 927.95703 333.56836 L 942.75391 342.11133 L 927.95703 350.65234 L 927.95703 333.56836 z M 185.76758 333.84766 L 220.17383 333.84766 L 237.375 363.64453 L 220.17383 393.43945 L 185.76758 393.43945 L 168.56445 363.64453 L 185.76758 333.84766 z M 464.14844 333.84766 L 498.55469 333.84766 L 515.75781 363.64453 L 498.55469 393.43945 L 464.14844 393.43945 L 446.94727 363.64453 L 464.14844 333.84766 z M 742.53125 333.84766 L 776.9375 333.84766 L 794.13867 363.64453 L 776.9375 393.43945 L 742.53125 393.43945 L 725.32812 363.64453 L 742.53125 333.84766 z M 115.10742 355.10156 L 115.10742 372.1875 L 100.3125 363.64453 L 115.10742 355.10156 z M 130.10742 355.10156 L 144.9043 363.64453 L 130.10742 372.1875 L 130.10742 355.10156 z M 275.83203 355.10156 L 275.83203 372.1875 L 261.03516 363.64453 L 275.83203 355.10156 z M 290.83203 355.10156 L 305.62891 363.64453 L 290.83203 372.1875 L 290.83203 355.10156 z M 393.49023 355.10156 L 393.49023 372.1875 L 378.69336 363.64453 L 393.49023 355.10156 z M 408.49023 355.10156 L 423.28711 363.64453 L 408.49023 372.1875 L 408.49023 355.10156 z M 554.21484 355.10156 L 554.21484 372.1875 L 539.41797 363.64453 L 554.21484 355.10156 z M 569.21484 355.10156 L 584.00977 363.64453 L 569.21484 372.18555 L 569.21484 355.10156 z M 671.87109 355.10156 L 671.87109 372.18555 L 657.07617 363.64453 L 671.87109 355.10156 z M 686.87109 355.10156 L 701.66797 363.64453 L 686.87109 372.1875 L 686.87109 355.10156 z M 832.5957 355.10156 L 832.5957 372.1875 L 817.79883 363.64453 L 832.5957 355.10156 z M 847.5957 355.10156 L 862.39258 363.64453 L 847.5957 372.1875 L 847.5957 355.10156 z M 950.25391 355.10156 L 950.25391 372.1875 L 935.45703 363.64453 L 950.25391 355.10156 z M 965.25391 355.10156 L 980.05078 363.64453 L 965.25391 372.18555 L 965.25391 355.10156 z M 55.236328 371.14453 L 72.322266 371.14453 L 63.779297 385.93945 L 55.236328 371.14453 z M 333.61914 371.14453 L 350.70312 371.14453 L 342.16211 385.93945 L 333.61914 371.14453 z M 612 371.14453 L 629.08594 371.14453 L 620.54297 385.93945 L 612 371.14453 z M 890.38281 371.14453 L 907.4668 371.14453 L 898.92383 385.93945 L 890.38281 371.14453 z M 157.16016 373.88867 L 171.19141 398.19336 L 146.88477 412.22852 L 132.85156 387.92188 L 157.16016 373.88867 z M 317.88281 373.88867 L 331.91602 398.19531 L 307.60938 412.22656 L 293.57617 387.92188 L 317.88281 373.88867 z M 527.16211 373.88867 L 551.46875 387.92188 L 537.43555 412.22852 L 513.13086 398.19531 L 527.16211 373.88867 z M 713.92383 373.88867 L 727.95508 398.19336 L 703.65039 412.22656 L 689.61719 387.92188 L 713.92383 373.88867 z M 805.54492 373.88867 L 829.84961 387.92188 L 815.81836 412.22656 L 791.51172 398.19336 L 805.54492 373.88867 z M 88.056641 373.89062 L 112.36328 387.92188 L 98.330078 412.22656 L 74.023438 398.19336 L 88.056641 373.89062 z M 248.78125 373.89062 L 273.08594 387.92188 L 259.05469 412.22656 L 234.74805 398.19531 L 248.78125 373.89062 z M 366.4375 373.89062 L 390.74414 387.92188 L 376.71289 412.22656 L 352.40625 398.19336 L 366.4375 373.89062 z M 435.54102 373.89062 L 449.57227 398.19531 L 425.26953 412.22852 L 411.23633 387.92188 L 435.54102 373.89062 z M 596.26562 373.89062 L 610.29883 398.19531 L 585.99219 412.22852 L 571.95898 387.92188 L 596.26562 373.89062 z M 644.82031 373.89062 L 669.12695 387.92188 L 655.09375 412.22852 L 630.78711 398.19531 L 644.82031 373.89062 z M 874.64844 373.89062 L 888.67969 398.19336 L 864.37305 412.22656 L 850.3418 387.92188 L 874.64844 373.89062 z M 923.20117 373.89062 L 947.50781 387.92188 L 933.47461 412.22656 L 909.16992 398.19531 L 923.20117 373.89062 z M 122.60742 400.17773 L 131.15039 414.97266 L 114.06641 414.97266 L 122.60742 400.17773 z M 283.33203 400.17773 L 291.875 414.97266 L 274.78906 414.97266 L 283.33203 400.17773 z M 400.99023 400.17773 L 409.5332 414.97266 L 392.44727 414.97266 L 400.99023 400.17773 z M 561.71484 400.17773 L 570.25586 414.97266 L 553.17188 414.97266 L 561.71484 400.17773 z M 679.37109 400.17773 L 687.91406 414.97266 L 670.83008 414.97266 L 679.37109 400.17773 z M 840.0957 400.17773 L 848.63867 414.97266 L 831.55273 414.97266 L 840.0957 400.17773 z M 957.75391 400.17773 L 966.29492 414.97266 L 949.21094 414.97266 L 957.75391 400.17773 z M 188.9375 408.43945 L 217.00391 408.43945 L 217.00391 436.50586 L 188.9375 436.50586 L 188.9375 408.43945 z M 467.31836 408.43945 L 495.38477 408.43945 L 495.38477 436.50586 L 467.31836 436.50586 L 467.31836 408.43945 z M 745.70117 408.43945 L 773.76758 408.43945 L 773.76758 436.50586 L 745.70117 436.50586 L 745.70117 408.43945 z M 342.16016 409.59961 L 371.95703 426.80273 L 371.95703 461.20898 L 342.16016 478.41211 L 312.36523 461.20898 L 312.36523 426.80273 L 342.16016 409.59961 z M 620.54297 409.59961 L 650.33984 426.80273 L 650.33984 461.20898 L 620.54297 478.41211 L 590.74609 461.20898 L 590.74609 426.80273 L 620.54297 409.59961 z M 898.92383 409.59961 L 928.7207 426.80273 L 928.7207 461.20898 L 898.92383 478.41211 L 869.12891 461.21094 L 869.12891 426.80078 L 898.92383 409.59961 z M 173.9375 413.92969 L 173.9375 431.01562 L 159.14062 422.47266 L 173.9375 413.92969 z M 232.00391 413.92969 L 246.80078 422.47266 L 232.00391 431.01562 L 232.00391 413.92969 z M 452.31836 413.92969 L 452.31836 431.01562 L 437.52344 422.47266 L 452.31836 413.92969 z M 510.38477 413.92969 L 525.18164 422.47266 L 510.38477 431.01562 L 510.38477 413.92969 z M 730.70117 413.92969 L 730.70117 431.01562 L 715.9043 422.47266 L 730.70117 413.92969 z M 788.76758 413.92969 L 803.56445 422.47266 L 788.76758 431.01562 L 788.76758 413.92969 z M 108.57617 429.97266 L 136.64062 429.97266 L 136.64062 458.03906 L 108.57617 458.03906 L 108.57617 429.97266 z M 269.29883 429.97266 L 297.36523 429.97266 L 297.36523 458.03906 L 269.29883 458.03906 L 269.29883 429.97266 z M 386.95703 429.97266 L 415.02344 429.97266 L 415.02344 458.03906 L 386.95703 458.03906 L 386.95703 429.97266 z M 547.68164 429.97266 L 575.74609 429.97266 L 575.74609 458.03906 L 547.68164 458.03906 L 547.68164 429.97266 z M 665.33984 429.97266 L 693.4043 429.97266 L 693.4043 458.03906 L 665.33984 458.03906 L 665.33984 429.97266 z M 826.0625 429.97266 L 854.12891 429.97266 L 854.12891 458.03906 L 826.0625 458.03906 L 826.0625 429.97266 z M 151.64062 435.46289 L 166.4375 444.00586 L 151.64062 452.54883 L 151.64062 435.46289 z M 430.02344 435.46289 L 444.81836 444.00586 L 430.02344 452.54883 L 430.02344 435.46289 z M 532.68164 435.46289 L 532.68164 452.54883 L 517.88477 444.00586 L 532.68164 435.46289 z M 254.29883 435.46484 L 254.29883 452.54883 L 239.50391 444.00586 L 254.29883 435.46484 z M 708.4043 435.46484 L 723.19922 444.00586 L 708.4043 452.54883 L 708.4043 435.46484 z M 811.0625 435.46484 L 811.0625 452.54688 L 796.26758 444.00586 L 811.0625 435.46484 z M 188.9375 451.50586 L 217.00391 451.50586 L 217.00391 479.57227 L 188.9375 479.57227 L 188.9375 451.50586 z M 467.31836 451.50586 L 495.38477 451.50586 L 495.38477 479.57227 L 467.31836 479.57227 L 467.31836 451.50586 z M 745.70117 451.50586 L 773.76758 451.50586 L 773.76758 479.57227 L 745.70117 479.57227 L 745.70117 451.50586 z M 173.9375 456.99609 L 173.9375 474.08203 L 159.14062 465.53906 L 173.9375 456.99609 z M 232.00391 456.99609 L 246.80078 465.53906 L 232.00391 474.08203 L 232.00391 456.99609 z M 452.31836 456.99609 L 452.31836 474.08203 L 437.52344 465.53906 L 452.31836 456.99609 z M 510.38477 456.99609 L 525.18164 465.53906 L 510.38477 474.08203 L 510.38477 456.99609 z M 730.70117 456.99609 L 730.70117 474.08203 L 715.9043 465.53906 L 730.70117 456.99609 z M 788.76758 456.99609 L 803.56445 465.53906 L 788.76758 474.08203 L 788.76758 456.99609 z M 114.06641 473.03906 L 131.15039 473.03906 L 122.60742 487.83398 L 114.06641 473.03906 z M 274.78906 473.03906 L 291.875 473.03906 L 283.33203 487.83594 L 274.78906 473.03906 z M 392.44727 473.03906 L 409.5332 473.03906 L 400.99023 487.83594 L 392.44727 473.03906 z M 553.17188 473.03906 L 570.25586 473.03906 L 561.71289 487.83398 L 553.17188 473.03906 z M 670.83008 473.03906 L 687.91406 473.03906 L 679.37109 487.83398 L 670.83008 473.03906 z M 831.55273 473.03906 L 848.63867 473.03906 L 840.0957 487.83594 L 831.55273 473.03906 z M 949.21094 473.03906 L 966.29492 473.03906 L 957.75195 487.83398 L 949.21094 473.03906 z M 537.43555 475.7832 L 551.46875 500.08789 L 527.16211 514.12305 L 513.13086 489.81641 L 537.43555 475.7832 z M 585.99219 475.7832 L 610.29883 489.81641 L 596.26367 514.12305 L 571.95898 500.08984 L 585.99219 475.7832 z M 655.09375 475.7832 L 669.12695 500.08984 L 644.82031 514.12109 L 630.78711 489.81641 L 655.09375 475.7832 z M 98.330078 475.78516 L 112.36328 500.08984 L 88.056641 514.12109 L 74.023438 489.81836 L 98.330078 475.78516 z M 146.88477 475.78516 L 171.19141 489.81836 L 157.1582 514.12305 L 132.85352 500.08984 L 146.88477 475.78516 z M 259.05273 475.78516 L 273.08594 500.08984 L 248.78125 514.12109 L 234.74805 489.81641 L 259.05273 475.78516 z M 307.60938 475.78516 L 331.91602 489.81641 L 317.88281 514.12305 L 293.57812 500.08984 L 307.60938 475.78516 z M 376.71094 475.78516 L 390.74414 500.08984 L 366.43945 514.12305 L 352.40625 489.81641 L 376.71094 475.78516 z M 425.26758 475.78516 L 449.57422 489.81836 L 435.53906 514.12305 L 411.23633 500.08984 L 425.26758 475.78516 z M 703.65039 475.78516 L 727.95508 489.81836 L 713.92188 514.12305 L 689.61719 500.08984 L 703.65039 475.78516 z M 815.81836 475.78516 L 829.84961 500.08984 L 805.54492 514.12305 L 791.51172 489.81836 L 815.81836 475.78516 z M 864.375 475.78516 L 888.67969 489.81836 L 874.64648 514.12305 L 850.3418 500.08984 L 864.375 475.78516 z M 933.47656 475.78516 L 947.50781 500.08789 L 923.20117 514.12109 L 909.16992 489.81641 L 933.47656 475.78516 z M 185.76758 494.57227 L 220.17383 494.57227 L 237.375 524.36719 L 220.17383 554.16406 L 185.76758 554.16406 L 168.56445 524.36719 L 185.76758 494.57227 z M 464.14844 494.57227 L 498.55664 494.57227 L 515.75781 524.36719 L 498.55469 554.16406 L 464.14844 554.16406 L 446.94727 524.36719 L 464.14844 494.57227 z M 742.53125 494.57227 L 776.9375 494.57227 L 794.13867 524.36719 L 776.9375 554.16406 L 742.53125 554.16406 L 725.32812 524.36719 L 742.53125 494.57227 z M 63.779297 502.07227 L 72.322266 516.86719 L 55.236328 516.86719 L 63.779297 502.07227 z M 342.16016 502.07227 L 350.70312 516.86719 L 333.61914 516.86719 L 342.16016 502.07227 z M 620.54297 502.07227 L 629.08594 516.86719 L 612 516.86719 L 620.54297 502.07227 z M 898.92383 502.07227 L 907.4668 516.86719 L 890.38281 516.86719 L 898.92383 502.07227 z M 130.10742 515.82422 L 144.9043 524.36719 L 130.10742 532.91016 L 130.10742 515.82422 z M 686.87109 515.82422 L 701.66797 524.36719 L 686.87109 532.91016 L 686.87109 515.82422 z M 847.5957 515.82422 L 862.39258 524.36719 L 847.5957 532.91016 L 847.5957 515.82422 z M 115.10742 515.82617 L 115.10742 532.91016 L 100.3125 524.36719 L 115.10742 515.82617 z M 275.83203 515.82617 L 275.83203 532.91016 L 261.03711 524.36719 L 275.83203 515.82617 z M 290.83203 515.82617 L 305.62695 524.36719 L 290.83203 532.91016 L 290.83203 515.82617 z M 393.49023 515.82617 L 393.49023 532.91016 L 378.69336 524.36719 L 393.49023 515.82617 z M 408.49023 515.82617 L 423.28516 524.36719 L 408.49023 532.91016 L 408.49023 515.82617 z M 554.21484 515.82617 L 554.21484 532.91016 L 539.41797 524.36719 L 554.21484 515.82617 z M 569.21484 515.82617 L 584.00977 524.36719 L 569.21484 532.91016 L 569.21484 515.82617 z M 671.87109 515.82617 L 671.87109 532.91016 L 657.07617 524.36719 L 671.87109 515.82617 z M 832.5957 515.82617 L 832.5957 532.91016 L 817.79883 524.36719 L 832.5957 515.82617 z M 950.25391 515.82617 L 950.25391 532.91016 L 935.45703 524.36719 L 950.25391 515.82617 z M 965.25391 515.82617 L 980.05078 524.36719 L 965.25391 532.91016 L 965.25391 515.82617 z M 49.746094 531.86719 L 77.8125 531.86719 L 77.8125 559.93359 L 49.746094 559.93359 L 49.746094 531.86719 z M 328.12891 531.86719 L 356.19336 531.86719 L 356.19336 559.93359 L 328.12891 559.93359 L 328.12891 531.86719 z M 606.50977 531.86719 L 634.57617 531.86719 L 634.57617 559.93359 L 606.50977 559.93359 L 606.50977 531.86719 z M 884.89258 531.86719 L 912.95703 531.86719 L 912.95703 559.93359 L 884.89258 559.93359 L 884.89258 531.86719 z M 157.16016 534.61133 L 171.19141 558.91797 L 146.88477 572.95117 L 132.85352 548.64648 L 157.16016 534.61133 z M 527.16211 534.61133 L 551.46875 548.64648 L 537.4375 572.95117 L 513.13086 558.91797 L 527.16211 534.61133 z M 713.92383 534.61133 L 727.95508 558.91797 L 703.64844 572.95117 L 689.61719 548.64648 L 713.92383 534.61133 z M 248.78125 534.61328 L 273.08594 548.64648 L 259.05469 572.95117 L 234.74805 558.91992 L 248.78125 534.61328 z M 435.54102 534.61328 L 449.57227 558.91797 L 425.26758 572.95117 L 411.23633 548.64648 L 435.54102 534.61328 z M 805.54492 534.61328 L 829.84961 548.64648 L 815.81836 572.95117 L 791.51172 558.91797 L 805.54492 534.61328 z M 34.746094 537.35742 L 34.746094 554.44336 L 19.951172 545.90039 L 34.746094 537.35742 z M 313.12891 537.35742 L 313.12891 554.44336 L 298.33008 545.90039 L 313.12891 537.35742 z M 371.19336 537.35742 L 385.99023 545.90039 L 371.19336 554.44336 L 371.19336 537.35742 z M 591.50977 537.35742 L 591.50977 554.44336 L 576.71484 545.90039 L 591.50977 537.35742 z M 869.89258 537.35742 L 869.89258 554.44336 L 855.0957 545.90039 L 869.89258 537.35742 z M 92.8125 537.35938 L 107.60742 545.90039 L 92.8125 554.44336 L 92.8125 537.35938 z M 649.57617 537.35938 L 664.37305 545.90039 L 649.57617 554.44336 L 649.57617 537.35938 z M 927.95703 537.35938 L 942.75391 545.90039 L 927.95703 554.44336 L 927.95703 537.35938 z M 119.86328 556.14648 L 133.89453 580.45117 L 109.58984 594.48438 L 95.558594 570.17969 L 119.86328 556.14648 z M 286.07617 556.14648 L 310.38281 570.17969 L 296.35156 594.48633 L 272.04492 580.45117 L 286.07617 556.14648 z M 398.24609 556.14648 L 412.27734 580.45117 L 387.9707 594.48633 L 373.93945 570.17969 L 398.24609 556.14648 z M 564.45898 556.14648 L 588.76367 570.17969 L 574.73242 594.48438 L 550.42773 580.45117 L 564.45898 556.14648 z M 676.62695 556.14648 L 690.6582 580.45117 L 666.35352 594.48438 L 652.32227 570.17969 L 676.62695 556.14648 z M 842.83984 556.14648 L 867.14648 570.17969 L 853.11523 594.48633 L 828.80859 580.45117 L 842.83984 556.14648 z M 955.00781 556.14648 L 969.04102 580.45117 L 944.73438 594.48438 L 930.70312 570.17969 L 955.00781 556.14648 z M 188.9375 569.16406 L 217.00391 569.16406 L 217.00391 597.23047 L 188.9375 597.23047 L 188.9375 569.16406 z M 467.31836 569.16406 L 495.38477 569.16406 L 495.38477 597.23047 L 467.31836 597.23047 L 467.31836 569.16406 z M 745.70117 569.16406 L 773.76758 569.16406 L 773.76758 597.23047 L 745.70117 597.23047 L 745.70117 569.16406 z M 173.9375 574.6543 L 173.9375 591.74023 L 159.14062 583.19727 L 173.9375 574.6543 z M 232.00391 574.6543 L 246.80078 583.19727 L 232.00391 591.74023 L 232.00391 574.6543 z M 452.31836 574.6543 L 452.31836 591.74023 L 437.52344 583.19727 L 452.31836 574.6543 z M 510.38477 574.6543 L 525.18164 583.19531 L 510.38477 591.73828 L 510.38477 574.6543 z M 730.70117 574.6543 L 730.70117 591.74023 L 715.9043 583.19727 L 730.70117 574.6543 z M 788.76758 574.6543 L 803.56445 583.19727 L 788.76758 591.73828 L 788.76758 574.6543 z M 46.576172 574.93359 L 80.982422 574.93359 L 98.185547 604.73047 L 80.982422 634.52539 L 46.576172 634.52539 L 29.373047 604.73047 L 46.576172 574.93359 z M 324.95898 574.93359 L 359.36328 574.93359 L 376.56641 604.73047 L 359.36328 634.52539 L 324.95898 634.52539 L 307.75586 604.73047 L 324.95898 574.93359 z M 603.33984 574.93359 L 637.74609 574.93359 L 654.94922 604.73047 L 637.74609 634.52539 L 603.33984 634.52539 L 586.13672 604.73047 L 603.33984 574.93359 z M 881.72266 574.93359 L 916.12695 574.93359 L 933.33008 604.73047 L 916.12695 634.52539 L 881.72266 634.52539 L 864.51953 604.73047 L 881.72266 574.93359 z M 136.64062 596.1875 L 136.64062 613.27148 L 121.8457 604.73047 L 136.64062 596.1875 z M 151.64062 596.1875 L 166.4375 604.73047 L 151.64062 613.27344 L 151.64062 596.1875 z M 254.29883 596.1875 L 254.29883 613.27344 L 239.50391 604.73047 L 254.29883 596.1875 z M 269.29883 596.1875 L 284.0957 604.73047 L 269.29883 613.27344 L 269.29883 596.1875 z M 415.02344 596.1875 L 415.02344 613.27344 L 400.22656 604.73047 L 415.02344 596.1875 z M 430.02344 596.1875 L 444.81836 604.73047 L 430.02344 613.27148 L 430.02344 596.1875 z M 532.68164 596.1875 L 532.68164 613.27344 L 517.88477 604.73047 L 532.68164 596.1875 z M 547.68164 596.1875 L 562.47656 604.73047 L 547.68164 613.27148 L 547.68164 596.1875 z M 693.4043 596.1875 L 693.4043 613.27344 L 678.60742 604.73047 L 693.4043 596.1875 z M 708.4043 596.1875 L 723.20117 604.73047 L 708.4043 613.27344 L 708.4043 596.1875 z M 811.0625 596.1875 L 811.0625 613.27344 L 796.26562 604.73047 L 811.0625 596.1875 z M 826.0625 596.1875 L 840.85938 604.73047 L 826.0625 613.27344 L 826.0625 596.1875 z M 194.42773 612.23047 L 211.51367 612.23047 L 202.9707 627.02539 L 194.42773 612.23047 z M 472.80859 612.23047 L 489.89453 612.23047 L 481.35156 627.02734 L 472.80859 612.23047 z M 751.19141 612.23047 L 768.27734 612.23047 L 759.73438 627.02539 L 751.19141 612.23047 z M 109.58984 614.97461 L 133.89648 629.00781 L 119.86328 653.3125 L 95.558594 639.28125 L 109.58984 614.97461 z M 178.69141 614.97461 L 192.72461 639.28125 L 168.41797 653.3125 L 154.38672 629.00781 L 178.69141 614.97461 z M 227.25 614.97461 L 251.55469 629.00781 L 237.52148 653.3125 L 213.21484 639.28125 L 227.25 614.97461 z M 296.35156 614.97461 L 310.38281 639.2793 L 286.07617 653.31445 L 272.04297 629.00781 L 296.35156 614.97461 z M 387.97266 614.97461 L 412.27734 629.00781 L 398.24414 653.3125 L 373.93945 639.2793 L 387.97266 614.97461 z M 457.07227 614.97461 L 471.10742 639.28125 L 446.80078 653.3125 L 432.76758 629.00781 L 457.07227 614.97461 z M 574.73242 614.97461 L 588.76367 639.28125 L 564.45898 653.3125 L 550.42578 629.00781 L 574.73242 614.97461 z M 666.35352 614.97461 L 690.66016 629.00781 L 676.62695 653.3125 L 652.32227 639.28125 L 666.35352 614.97461 z M 735.45703 614.97461 L 749.49023 639.28125 L 725.18164 653.3125 L 711.15039 629.00781 L 735.45703 614.97461 z M 853.11328 614.97461 L 867.14648 639.2793 L 842.83984 653.3125 L 828.80664 629.00781 L 853.11328 614.97461 z M 944.73438 614.97461 L 969.04102 629.00781 L 955.00781 653.3125 L 930.70312 639.2793 L 944.73438 614.97461 z M 505.63086 614.97656 L 529.93555 629.00781 L 515.9043 653.3125 L 491.59766 639.28125 L 505.63086 614.97656 z M 784.01172 614.97656 L 808.31641 629.00781 L 794.28516 653.3125 L 769.97852 639.28125 L 784.01172 614.97656 z M 422.52344 641.26172 L 431.06641 656.05859 L 413.98047 656.05859 L 422.52344 641.26172 z M 144.14062 641.26367 L 152.68359 656.05859 L 135.59766 656.05859 L 144.14062 641.26367 z M 261.79883 641.26367 L 270.3418 656.05859 L 253.25586 656.05859 L 261.79883 641.26367 z M 540.18164 641.26367 L 548.72461 656.05859 L 531.63867 656.05859 L 540.18164 641.26367 z M 700.9043 641.26367 L 709.44727 656.05859 L 692.36328 656.05859 L 700.9043 641.26367 z M 818.5625 641.26367 L 827.10547 656.05859 L 810.01953 656.05859 L 818.5625 641.26367 z M 49.746094 649.52539 L 77.8125 649.52539 L 77.8125 677.5918 L 49.746094 677.5918 L 49.746094 649.52539 z M 328.12891 649.52539 L 356.19336 649.52539 L 356.19336 677.5918 L 328.12891 677.5918 L 328.12891 649.52539 z M 606.50977 649.52539 L 634.57617 649.52539 L 634.57617 677.5918 L 606.50977 677.5918 L 606.50977 649.52539 z M 884.89258 649.52539 L 912.95703 649.52539 L 912.95703 677.5918 L 884.89258 677.5918 L 884.89258 649.52539 z M 202.9707 650.68555 L 232.76562 667.88867 L 232.76562 702.29297 L 202.9707 719.49609 L 173.17383 702.29297 L 173.17383 667.88867 L 202.9707 650.68555 z M 481.35352 650.68555 L 511.14844 667.88867 L 511.14844 702.29297 L 481.35156 719.49609 L 451.55664 702.29297 L 451.55664 667.88867 L 481.35352 650.68555 z M 759.73438 650.68555 L 789.5293 667.88867 L 789.5293 702.29297 L 759.73438 719.49609 L 729.9375 702.29297 L 729.9375 667.88867 L 759.73438 650.68555 z M 34.746094 655.01562 L 34.746094 672.10156 L 19.951172 663.55859 L 34.746094 655.01562 z M 92.8125 655.01562 L 107.60742 663.55859 L 92.8125 672.10156 L 92.8125 655.01562 z M 313.12891 655.01562 L 313.12891 672.10156 L 298.33203 663.55859 L 313.12891 655.01562 z M 371.19336 655.01562 L 385.99023 663.55859 L 371.19336 672.10156 L 371.19336 655.01562 z M 591.50977 655.01562 L 591.50977 672.10156 L 576.71289 663.55859 L 591.50977 655.01562 z M 649.57617 655.01562 L 664.37305 663.55859 L 649.57617 672.10156 L 649.57617 655.01562 z M 869.89258 655.01562 L 869.89258 672.10156 L 855.0957 663.55859 L 869.89258 655.01562 z M 927.95703 655.01562 L 942.75391 663.55859 L 927.95703 672.10156 L 927.95703 655.01562 z M 130.10742 671.05859 L 158.17383 671.05859 L 158.17383 699.12305 L 130.10742 699.12305 L 130.10742 671.05859 z M 247.76562 671.05859 L 275.83203 671.05859 L 275.83203 699.12305 L 247.76562 699.12305 L 247.76562 671.05859 z M 408.49023 671.05859 L 436.55664 671.05859 L 436.55664 699.12305 L 408.49023 699.12305 L 408.49023 671.05859 z M 526.14844 671.05859 L 554.21484 671.05859 L 554.21484 699.12305 L 526.14844 699.12305 L 526.14844 671.05859 z M 686.87109 671.05859 L 714.9375 671.05859 L 714.9375 699.12305 L 686.87109 699.12305 L 686.87109 671.05859 z M 804.5293 671.05859 L 832.5957 671.05859 L 832.5957 699.12305 L 804.5293 699.12305 L 804.5293 671.05859 z M 115.10742 676.54883 L 115.10742 693.63281 L 100.3125 685.0918 L 115.10742 676.54883 z M 290.83203 676.54883 L 305.62695 685.0918 L 290.83203 693.63281 L 290.83203 676.54883 z M 393.49023 676.54883 L 393.49023 693.63281 L 378.69336 685.0918 L 393.49023 676.54883 z M 847.5957 676.54883 L 862.39258 685.0918 L 847.5957 693.63477 L 847.5957 676.54883 z M 950.25391 676.54883 L 950.25391 693.63477 L 935.45703 685.0918 L 950.25391 676.54883 z M 569.21484 676.55078 L 584.00977 685.0918 L 569.21484 693.63281 L 569.21484 676.55078 z M 671.87109 676.55078 L 671.87109 693.63281 L 657.07617 685.0918 L 671.87109 676.55078 z M 49.746094 692.5918 L 77.8125 692.5918 L 77.8125 720.65625 L 49.746094 720.65625 L 49.746094 692.5918 z M 328.12891 692.5918 L 356.19336 692.5918 L 356.19336 720.65625 L 328.12891 720.65625 L 328.12891 692.5918 z M 606.50977 692.5918 L 634.57617 692.5918 L 634.57617 720.65625 L 606.50977 720.65625 L 606.50977 692.5918 z M 884.89258 692.5918 L 912.95703 692.5918 L 912.95703 720.65625 L 884.89258 720.65625 L 884.89258 692.5918 z M 313.12891 698.08008 L 313.12891 715.16602 L 298.33203 706.62305 L 313.12891 698.08008 z M 34.746094 698.08203 L 34.746094 715.16602 L 19.951172 706.625 L 34.746094 698.08203 z M 371.19336 698.08203 L 385.99023 706.62305 L 371.19336 715.16602 L 371.19336 698.08203 z M 591.50977 698.08203 L 591.50977 715.16602 L 576.71484 706.62305 L 591.50977 698.08203 z M 649.57617 698.08203 L 664.37305 706.62305 L 649.57617 715.16602 L 649.57617 698.08203 z M 869.89258 698.08203 L 869.89258 715.16602 L 855.09766 706.62305 L 869.89258 698.08203 z M 927.95703 698.08203 L 942.75391 706.625 L 927.95703 715.16602 L 927.95703 698.08203 z M 92.8125 698.08398 L 107.60547 706.625 L 92.8125 715.16602 L 92.8125 698.08398 z M 135.59766 714.12305 L 152.68359 714.12305 L 144.14062 728.92188 L 135.59766 714.12305 z M 253.25586 714.12305 L 270.3418 714.12305 L 261.79883 728.92188 L 253.25586 714.12305 z M 413.98047 714.12305 L 431.06641 714.12305 L 422.52344 728.91992 L 413.98047 714.12305 z M 531.63867 714.12305 L 548.72461 714.12305 L 540.18164 728.91992 L 531.63867 714.12305 z M 692.36133 714.12305 L 709.44727 714.12305 L 700.9043 728.91992 L 692.36133 714.12305 z M 810.01953 714.12305 L 827.10547 714.12305 L 818.5625 728.91992 L 810.01953 714.12305 z M 119.86133 716.86914 L 133.89453 741.17578 L 109.5918 755.20898 L 95.558594 730.90039 L 119.86133 716.86914 z M 168.41992 716.86914 L 192.72656 730.90234 L 178.69141 755.20703 L 154.38672 741.17578 L 168.41992 716.86914 z M 237.51953 716.86914 L 251.55273 741.17578 L 227.24805 755.20703 L 213.21484 730.90039 L 237.51953 716.86914 z M 286.07812 716.86914 L 310.38281 730.90234 L 296.34961 755.20898 L 272.04492 741.17578 L 286.07812 716.86914 z M 398.24609 716.86914 L 412.27734 741.17578 L 387.97266 755.20898 L 373.93945 730.90234 L 398.24609 716.86914 z M 446.80273 716.86914 L 471.10742 730.90039 L 457.07227 755.20703 L 432.76953 741.17578 L 446.80273 716.86914 z M 515.90234 716.86914 L 529.93555 741.17578 L 505.63086 755.20703 L 491.5957 730.90234 L 515.90234 716.86914 z M 564.45898 716.86914 L 588.76367 730.90234 L 574.73242 755.20898 L 550.42773 741.17578 L 564.45898 716.86914 z M 676.62695 716.86914 L 690.6582 741.17578 L 666.35352 755.20898 L 652.32227 730.90234 L 676.62695 716.86914 z M 725.18359 716.86914 L 749.49023 730.90234 L 735.45703 755.20898 L 711.15039 741.17578 L 725.18359 716.86914 z M 794.2832 716.86914 L 808.31641 741.17578 L 784.01367 755.20703 L 769.97852 730.90039 L 794.2832 716.86914 z M 842.8418 716.86914 L 867.14648 730.90234 L 853.11328 755.20898 L 828.80859 741.17578 L 842.8418 716.86914 z M 955.00781 716.86914 L 969.04102 741.17578 L 944.73633 755.20898 L 930.70312 730.90234 L 955.00781 716.86914 z M 46.576172 735.65625 L 80.982422 735.65625 L 98.185547 765.45312 L 80.982422 795.25 L 46.576172 795.25 L 29.373047 765.45312 L 46.576172 735.65625 z M 324.95898 735.65625 L 359.36328 735.65625 L 376.56641 765.45312 L 359.36328 795.25 L 324.95898 795.25 L 307.75586 765.45312 L 324.95898 735.65625 z M 603.33984 735.65625 L 637.74609 735.65625 L 654.94922 765.45312 L 637.74609 795.25 L 603.33984 795.25 L 586.13672 765.45312 L 603.33984 735.65625 z M 881.72266 735.65625 L 916.12695 735.65625 L 933.33008 765.45312 L 916.12695 795.25 L 881.72266 795.25 L 864.51953 765.45312 L 881.72266 735.65625 z M 202.9707 743.15625 L 211.51172 757.95312 L 194.42773 757.95312 L 202.9707 743.15625 z M 481.35156 743.15625 L 489.89453 757.95312 L 472.80859 757.95312 L 481.35156 743.15625 z M 759.73438 743.15625 L 768.27734 757.95312 L 751.19141 757.95312 L 759.73438 743.15625 z M 254.29883 756.91016 L 254.29883 773.99414 L 239.50391 765.45312 L 254.29883 756.91016 z M 136.64062 756.91211 L 136.64062 773.99414 L 121.8457 765.45312 L 136.64062 756.91211 z M 151.64062 756.91211 L 166.43555 765.45312 L 151.64062 773.99414 L 151.64062 756.91211 z M 269.29883 756.91211 L 284.0957 765.45312 L 269.29883 773.99609 L 269.29883 756.91211 z M 415.02344 756.91211 L 415.02344 773.99609 L 400.22656 765.45312 L 415.02344 756.91211 z M 430.02344 756.91211 L 444.81836 765.45312 L 430.02344 773.99414 L 430.02344 756.91211 z M 532.68164 756.91211 L 532.68164 773.99414 L 517.88672 765.45312 L 532.68164 756.91211 z M 547.68164 756.91211 L 562.47656 765.45312 L 547.68164 773.99414 L 547.68164 756.91211 z M 693.4043 756.91211 L 693.4043 773.99414 L 678.60938 765.45312 L 693.4043 756.91211 z M 708.4043 756.91211 L 723.20117 765.45312 L 708.4043 773.99609 L 708.4043 756.91211 z M 811.0625 756.91211 L 811.0625 773.99609 L 796.26758 765.45312 L 811.0625 756.91211 z M 826.0625 756.91211 L 840.85938 765.45312 L 826.0625 773.99609 L 826.0625 756.91211 z M 188.9375 772.95312 L 217.00391 772.95312 L 217.00391 801.01953 L 188.9375 801.01953 L 188.9375 772.95312 z M 467.31836 772.95312 L 495.38477 772.95312 L 495.38477 801.01953 L 467.31836 801.01953 L 467.31836 772.95312 z M 745.70117 772.95312 L 773.76758 772.95312 L 773.76758 801.01953 L 745.70117 801.01953 L 745.70117 772.95312 z M 109.5918 775.69727 L 133.89648 789.73047 L 119.86133 814.03711 L 95.558594 800.00391 L 109.5918 775.69727 z M 296.34961 775.69727 L 310.38281 800.00391 L 286.07812 814.03711 L 272.04297 789.73047 L 296.34961 775.69727 z M 387.97266 775.69727 L 412.2793 789.73047 L 398.24414 814.03711 L 373.93945 800.00391 L 387.97266 775.69727 z M 574.73047 775.69727 L 588.76367 800.00391 L 564.46094 814.03711 L 550.42578 789.73047 L 574.73047 775.69727 z M 666.35547 775.69727 L 690.66016 789.73047 L 676.625 814.03711 L 652.32227 800.00391 L 666.35547 775.69727 z M 853.11328 775.69727 L 867.14648 800.00391 L 842.8418 814.03711 L 828.80664 789.73047 L 853.11328 775.69727 z M 944.73633 775.69727 L 969.04102 789.73047 L 955.00586 814.03711 L 930.70312 800.00391 L 944.73633 775.69727 z M 173.9375 778.44336 L 173.9375 795.5293 L 159.14062 786.98633 L 173.9375 778.44336 z M 232.00391 778.44336 L 246.79883 786.98633 L 232.00391 795.5293 L 232.00391 778.44336 z M 452.31836 778.44336 L 452.31836 795.5293 L 437.52344 786.98633 L 452.31836 778.44336 z M 510.38477 778.44336 L 525.18164 786.98633 L 510.38477 795.5293 L 510.38477 778.44336 z M 730.70117 778.44336 L 730.70117 795.5293 L 715.9043 786.98633 L 730.70117 778.44336 z M 788.76758 778.44336 L 803.5625 786.98633 L 788.76758 795.5293 L 788.76758 778.44336 z M 146.88672 797.23047 L 171.19141 811.26367 L 157.1582 835.57031 L 132.85156 821.53711 L 146.88672 797.23047 z M 259.05273 797.23047 L 273.08789 821.53711 L 248.78125 835.56836 L 234.74805 811.26367 L 259.05273 797.23047 z M 425.26953 797.23047 L 449.57227 811.26367 L 435.54102 835.56836 L 411.23438 821.53711 L 425.26953 797.23047 z M 537.43555 797.23047 L 551.46875 821.53711 L 527.16406 835.57031 L 513.13086 811.26367 L 537.43555 797.23047 z M 703.65039 797.23047 L 727.95508 811.26367 L 713.92188 835.57031 L 689.61719 821.53711 L 703.65039 797.23047 z M 815.81641 797.23047 L 829.85156 821.53711 L 805.54492 835.57031 L 791.51172 811.26367 L 815.81641 797.23047 z M 49.746094 810.25 L 77.8125 810.25 L 77.8125 838.31445 L 49.746094 838.31445 L 49.746094 810.25 z M 328.12891 810.25 L 356.19336 810.25 L 356.19336 838.31445 L 328.12891 838.31445 L 328.12891 810.25 z M 606.50977 810.25 L 634.57617 810.25 L 634.57617 838.31445 L 606.50977 838.31445 L 606.50977 810.25 z M 884.89258 810.25 L 912.95703 810.25 L 912.95703 838.31445 L 884.89258 838.31445 L 884.89258 810.25 z M 34.746094 815.74023 L 34.746094 832.82422 L 19.951172 824.28125 L 34.746094 815.74023 z M 92.8125 815.74023 L 107.60742 824.28125 L 92.8125 832.82422 L 92.8125 815.74023 z M 313.12891 815.74023 L 313.12891 832.82422 L 298.33203 824.28125 L 313.12891 815.74023 z M 371.19336 815.74023 L 385.98828 824.28125 L 371.19336 832.82422 L 371.19336 815.74023 z M 591.50977 815.74023 L 591.50977 832.82422 L 576.71484 824.28125 L 591.50977 815.74023 z M 649.57617 815.74023 L 664.37109 824.28125 L 649.57617 832.82422 L 649.57617 815.74023 z M 869.89258 815.74023 L 869.89258 832.82422 L 855.0957 824.28125 L 869.89258 815.74023 z M 927.95703 815.74023 L 942.75195 824.28125 L 927.95703 832.82422 L 927.95703 815.74023 z M 185.76758 816.01953 L 220.17383 816.01953 L 237.375 845.81445 L 220.17383 875.61133 L 185.76758 875.61133 L 168.56445 845.81445 L 185.76758 816.01953 z M 464.14844 816.01953 L 498.55469 816.01953 L 515.75781 845.81445 L 498.55469 875.61133 L 464.14844 875.61133 L 446.94727 845.81445 L 464.14844 816.01953 z M 742.53125 816.01953 L 776.9375 816.01953 L 794.13867 845.81445 L 776.9375 875.61133 L 742.53125 875.61133 L 725.32812 845.81445 L 742.53125 816.01953 z M 115.10742 837.27148 L 115.10742 854.35742 L 100.31055 845.81445 L 115.10742 837.27148 z M 130.10742 837.27148 L 144.9043 845.81445 L 130.10742 854.35742 L 130.10742 837.27148 z M 290.83203 837.27148 L 305.62891 845.81445 L 290.83203 854.35742 L 290.83203 837.27148 z M 393.49023 837.27148 L 393.49023 854.35742 L 378.69336 845.81445 L 393.49023 837.27148 z M 554.21484 837.27148 L 554.21484 854.35742 L 539.41797 845.81445 L 554.21484 837.27148 z M 686.87109 837.27148 L 701.66797 845.81445 L 686.87109 854.35742 L 686.87109 837.27148 z M 832.5957 837.27148 L 832.5957 854.35742 L 817.79883 845.81445 L 832.5957 837.27148 z M 847.5957 837.27148 L 862.39258 845.81445 L 847.5957 854.35742 L 847.5957 837.27148 z M 950.25391 837.27148 L 950.25391 854.35742 L 935.45703 845.81445 L 950.25391 837.27148 z M 275.83203 837.27344 L 275.83203 854.35742 L 261.03711 845.81445 L 275.83203 837.27344 z M 408.49023 837.27344 L 423.28516 845.81445 L 408.49023 854.35742 L 408.49023 837.27344 z M 569.21484 837.27344 L 584.00977 845.81445 L 569.21484 854.35742 L 569.21484 837.27344 z M 671.87109 837.27344 L 671.87109 854.35742 L 657.07617 845.81445 L 671.87109 837.27344 z M 965.25391 837.27344 L 980.05078 845.81641 L 965.25391 854.35742 L 965.25391 837.27344 z M 55.236328 853.31445 L 72.322266 853.31445 L 63.779297 868.11133 L 55.236328 853.31445 z M 333.61914 853.31445 L 350.70312 853.31445 L 342.16016 868.10938 L 333.61914 853.31445 z M 612 853.31445 L 629.08594 853.31445 L 620.54297 868.11133 L 612 853.31445 z M 890.38281 853.31445 L 907.4668 853.31445 L 898.92383 868.11133 L 890.38281 853.31445 z M 157.1582 856.05859 L 171.19141 880.36523 L 146.88477 894.39844 L 132.85156 870.09375 L 157.1582 856.05859 z M 527.16211 856.05859 L 551.46875 870.09375 L 537.43555 894.39844 L 513.13086 880.36523 L 527.16211 856.05859 z M 713.92383 856.05859 L 727.95508 880.36523 L 703.65039 894.39844 L 689.61719 870.09375 L 713.92383 856.05859 z M 805.54492 856.05859 L 829.85156 870.09375 L 815.81836 894.39844 L 791.51172 880.36523 L 805.54492 856.05859 z M 88.056641 856.06055 L 112.36328 870.09375 L 98.330078 894.39844 L 74.023438 880.36523 L 88.056641 856.06055 z M 248.78125 856.06055 L 273.08789 870.09375 L 259.05273 894.39844 L 234.74805 880.36719 L 248.78125 856.06055 z M 317.88281 856.06055 L 331.91602 880.36523 L 307.61133 894.39844 L 293.57617 870.09375 L 317.88281 856.06055 z M 366.43945 856.06055 L 390.74609 870.09375 L 376.71094 894.39844 L 352.40625 880.36523 L 366.43945 856.06055 z M 435.54102 856.06055 L 449.57227 880.36719 L 425.26953 894.39844 L 411.23438 870.09375 L 435.54102 856.06055 z M 596.26562 856.06055 L 610.29883 880.36719 L 585.99219 894.40039 L 571.95898 870.09375 L 596.26562 856.06055 z M 644.82031 856.06055 L 669.12695 870.09375 L 655.09375 894.40039 L 630.78711 880.36719 L 644.82031 856.06055 z M 874.64648 856.06055 L 888.67969 880.36523 L 864.375 894.39844 L 850.33984 870.09375 L 874.64648 856.06055 z M 923.20117 856.06055 L 947.50781 870.09375 L 933.47461 894.39844 L 909.16797 880.36523 L 923.20117 856.06055 z M 122.60742 882.34766 L 131.15039 897.14453 L 114.06641 897.14453 L 122.60742 882.34766 z M 283.33203 882.34766 L 291.875 897.14453 L 274.78906 897.14453 L 283.33203 882.34766 z M 400.99023 882.34766 L 409.5332 897.14453 L 392.44727 897.14453 L 400.99023 882.34766 z M 840.0957 882.34766 L 848.63867 897.14453 L 831.55273 897.14453 L 840.0957 882.34766 z M 561.71484 882.34961 L 570.25586 897.14453 L 553.17188 897.14453 L 561.71484 882.34961 z M 679.37109 882.34961 L 687.91406 897.14453 L 670.83008 897.14453 L 679.37109 882.34961 z M 957.75391 882.34961 L 966.29492 897.14453 L 949.21094 897.14453 L 957.75391 882.34961 z M 188.9375 890.61133 L 217.00391 890.61133 L 217.00391 918.67773 L 188.9375 918.67773 L 188.9375 890.61133 z M 467.31836 890.61133 L 495.38477 890.61133 L 495.38477 918.67773 L 467.31836 918.67773 L 467.31836 890.61133 z M 745.70117 890.61133 L 773.76758 890.61133 L 773.76758 918.67773 L 745.70117 918.67773 L 745.70117 890.61133 z M 342.16016 891.77148 L 371.95703 908.97461 L 371.95703 943.38086 L 342.16016 960.58398 L 312.36523 943.38086 L 312.36523 908.97461 L 342.16016 891.77148 z M 620.54297 891.77148 L 650.33984 908.97461 L 650.33984 943.38086 L 620.54297 960.58398 L 590.74609 943.38086 L 590.74609 908.97461 L 620.54297 891.77148 z M 898.92383 891.77148 L 928.7207 908.97461 L 928.7207 943.38086 L 898.92383 960.58398 L 869.12891 943.38086 L 869.12891 908.97266 L 898.92383 891.77148 z M 173.9375 896.10156 L 173.9375 913.1875 L 159.14062 904.64453 L 173.9375 896.10156 z M 232.00391 896.10156 L 246.79883 904.64453 L 232.00391 913.1875 L 232.00391 896.10156 z M 452.31836 896.10156 L 452.31836 913.1875 L 437.52344 904.64453 L 452.31836 896.10156 z M 510.38477 896.10156 L 525.18164 904.64453 L 510.38477 913.1875 L 510.38477 896.10156 z M 730.70117 896.10156 L 730.70117 913.1875 L 715.9043 904.64453 L 730.70117 896.10156 z M 788.76758 896.10156 L 803.5625 904.64453 L 788.76758 913.18555 L 788.76758 896.10156 z M 108.57617 912.14453 L 136.64062 912.14453 L 136.64062 940.21094 L 108.57617 940.21094 L 108.57617 912.14453 z M 269.29883 912.14453 L 297.36523 912.14453 L 297.36523 940.21094 L 269.29883 940.21094 L 269.29883 912.14453 z M 386.95703 912.14453 L 415.02344 912.14453 L 415.02344 940.21094 L 386.95703 940.21094 L 386.95703 912.14453 z M 547.68164 912.14453 L 575.74609 912.14453 L 575.74609 940.21094 L 547.68164 940.21094 L 547.68164 912.14453 z M 665.33984 912.14453 L 693.4043 912.14453 L 693.4043 940.21094 L 665.33984 940.21094 L 665.33984 912.14453 z M 826.0625 912.14453 L 854.12891 912.14453 L 854.12891 940.21094 L 826.0625 940.21094 L 826.0625 912.14453 z M 151.64062 917.63477 L 166.4375 926.17773 L 151.64062 934.71875 L 151.64062 917.63477 z M 254.29883 917.63477 L 254.29883 934.7207 L 239.50391 926.17773 L 254.29883 917.63477 z M 430.02344 917.63477 L 444.81836 926.17773 L 430.02344 934.7207 L 430.02344 917.63477 z M 532.68164 917.63477 L 532.68164 934.7207 L 517.88477 926.17773 L 532.68164 917.63477 z M 708.4043 917.63477 L 723.20117 926.17773 L 708.4043 934.7207 L 708.4043 917.63477 z M 811.0625 917.63477 L 811.0625 934.7207 L 796.26562 926.17773 L 811.0625 917.63477 z M 173.9375 939.16797 L 173.9375 956.25391 L 159.14062 947.71094 L 173.9375 939.16797 z M 232.00391 939.16797 L 246.79883 947.71094 L 232.00391 956.25195 L 232.00391 939.16797 z M 452.31836 939.16797 L 452.31836 956.25195 L 437.52344 947.71094 L 452.31836 939.16797 z M 510.38477 939.16797 L 525.18164 947.71094 L 510.38477 956.25195 L 510.38477 939.16797 z M 730.70117 939.16797 L 730.70117 956.25195 L 715.9043 947.71094 L 730.70117 939.16797 z M 788.76758 939.16797 L 803.5625 947.71094 L 788.76758 956.25195 L 788.76758 939.16797 z M 114.06641 955.21094 L 131.15039 955.21094 L 122.60742 970.00586 L 114.06641 955.21094 z M 274.78906 955.21094 L 291.875 955.21094 L 283.33203 970.00586 L 274.78906 955.21094 z M 392.44727 955.21094 L 409.5332 955.21094 L 400.99023 970.00586 L 392.44727 955.21094 z M 553.17188 955.21094 L 570.25586 955.21094 L 561.71484 970.00586 L 553.17188 955.21094 z M 670.83008 955.21094 L 687.91406 955.21094 L 679.37109 970.00586 L 670.83008 955.21094 z M 831.55273 955.21094 L 848.63867 955.21094 L 840.0957 970.00586 L 831.55273 955.21094 z "
       id="path835" />
  </g>
</svg>
