<?xml version="1.0" encoding="UTF-8" standalone="no"?>
<svg
   xmlns:dc="http://purl.org/dc/elements/1.1/"
   xmlns:cc="http://creativecommons.org/ns#"
   xmlns:rdf="http://www.w3.org/1999/02/22-rdf-syntax-ns#"
   xmlns:svg="http://www.w3.org/2000/svg"
   xmlns="http://www.w3.org/2000/svg"
   xmlns:sodipodi="http://sodipodi.sourceforge.net/DTD/sodipodi-0.dtd"
   xmlns:inkscape="http://www.inkscape.org/namespaces/inkscape"
   inkscape:version="1.0 (9f2f71dc58, 2020-08-02)"
   sodipodi:docname="5-uniform_196.svg"
   id="c:\kuniform\5u\5-uniform_196.svg"
   height="995.2264"
   width="1000.0"
   version="1.0">
  <style
     id="style4646" />
  <metadata
     id="metadata4083">
    <rdf:RDF>
      <cc:Work
         rdf:about="">
        <dc:format>image/svg+xml</dc:format>
        <dc:type
           rdf:resource="http://purl.org/dc/dcmitype/StillImage" />
        <dc:title></dc:title>
      </cc:Work>
    </rdf:RDF>
  </metadata>
  <defs
     id="defs4081" />
  <sodipodi:namedview
     inkscape:current-layer="c:\kuniform\5u\5-uniform_196.svg"
     inkscape:window-maximized="1"
     inkscape:window-y="27"
     inkscape:window-x="0"
     inkscape:cy="500.10449"
     inkscape:cx="419.1572"
     inkscape:zoom="0.69983333"
     showgrid="false"
     id="namedview4079"
     inkscape:window-height="1016"
     inkscape:window-width="1920"
     inkscape:pageshadow="2"
     inkscape:pageopacity="0"
     guidetolerance="10"
     gridtolerance="10"
     objecttolerance="10"
     borderopacity="1"
     inkscape:document-rotation="0"
     bordercolor="#666666"
     pagecolor="#ffffff" />
  <!-- X Coordinate transform: fx(x)=(x+78.84564)*0.8776625-->
  <!-- Y Coordinate transform: fy(y)=(1070.325-y)*0.8776625 -->
  <g
     id="g231"
     style="opacity:1">
    <path
       style="color:#000000;font-style:normal;font-variant:normal;font-weight:normal;font-stretch:normal;font-size:medium;line-height:normal;font-family:sans-serif;font-variant-ligatures:normal;font-variant-position:normal;font-variant-caps:normal;font-variant-numeric:normal;font-variant-alternates:normal;font-variant-east-asian:normal;font-feature-settings:normal;font-variation-settings:normal;text-indent:0;text-align:start;text-decoration:none;text-decoration-line:none;text-decoration-style:solid;text-decoration-color:#000000;letter-spacing:normal;word-spacing:normal;text-transform:none;writing-mode:lr-tb;direction:ltr;text-orientation:mixed;dominant-baseline:auto;baseline-shift:baseline;text-anchor:start;white-space:normal;shape-padding:0;shape-margin:0;inline-size:0;clip-rule:nonzero;display:inline;overflow:visible;visibility:visible;isolation:auto;mix-blend-mode:normal;color-interpolation:sRGB;color-interpolation-filters:linearRGB;solid-color:#000000;solid-opacity:1;vector-effect:none;fill:#000000;fill-opacity:0;fill-rule:nonzero;stroke:none;stroke-width:16;stroke-linecap:butt;stroke-linejoin:miter;stroke-miterlimit:4;stroke-dasharray:none;stroke-dashoffset:0;stroke-opacity:1.0;color-rendering:auto;image-rendering:auto;shape-rendering:auto;text-rendering:auto;enable-background:accumulate;stop-color:#000000;stop-opacity:1;"
       d="m 108.779,952.296 21.942,38.004 m 760.5,-21.942 21.941,-38.004 38.004,-21.941 m -125.77,-881.545 21.942,38.004 21.941,38.004 38.004,21.942 h 43.883 43.883 M 168.725,968.358 146.783,930.354 108.779,908.413 H 64.896 l -38.004,21.941 m 694.676,59.946 38.003,-21.942 m -459.197,0 38.004,21.942 M 995.049,320.716 973.108,282.713 951.166,244.709 v -43.883 l 21.942,-38.004 21.941,-38.004 m -760.5,-97.95 -21.941,38.004 -21.942,38.004 -38.004,21.942 H 108.779 64.896 21.013 m 0,707.587 21.941,38.004 21.942,38.004 v 43.883 L 86.838,990.3 m 716.617,-21.942 21.941,-38.004 21.942,-38.004 21.941,-38.004 38.004,-21.941 h 43.883 43.883 m 0,0 -21.941,-38.004 -21.942,-38.004 v -43.883 l 21.942,-38.004 21.941,-38.004 M 699.626,952.296 677.684,990.3 M 360.319,952.296 382.261,990.3 m 465.077,-805.537 21.941,38.004 38.004,21.942 h 43.883 43.883 M 617.739,26.868 655.743,48.81 h 43.883 L 737.63,26.868 m -415.315,0 38.004,21.942 h 43.884 L 442.206,26.868 M 4.951,380.662 42.954,358.72 64.896,320.716 86.838,282.713 108.779,244.709 V 200.826 L 86.838,162.822 64.896,124.818 42.954,86.814 4.951,64.872 M 256.491,968.358 234.549,930.354 212.608,892.35 190.666,854.346 152.662,832.405 H 108.779 64.896 21.013 M 4.951,576.561 l 38.003,21.941 21.942,38.004 21.942,38.004 21.941,38.004 v 43.883 L 86.838,794.401 64.896,832.405 42.954,870.409 4.951,892.35 M 21.013,124.818 42.954,86.814 64.896,48.81 V 4.927 M 655.743,952.296 677.684,990.3 M 404.203,952.296 382.261,990.3 M 146.783,26.868 108.779,48.81 H 64.896 L 26.892,26.868 m 481.139,941.49 h 43.883 M 913.162,26.868 951.166,48.81 m 21.942,429.801 -21.942,-38.004 M 64.896,4.927 26.892,26.868 4.951,64.872 m 946.215,451.743 21.942,-38.004 21.941,-38.004 M 699.626,4.927 V 48.81 l 21.942,38.004 21.941,38.004 21.942,38.004 38.004,21.941 h 43.883 l 38.004,-21.941 21.941,-38.004 21.942,-38.004 21.941,-38.004 V 4.927 M 847.338,260.771 825.396,222.767 803.455,184.763 M 42.954,478.611 64.896,440.607 V 396.724 L 42.954,358.72 21.013,320.716 m 0,315.79 21.941,-38.004 21.942,-38.004 V 516.615 L 42.954,478.611 4.951,456.67 M 212.608,184.763 h 43.883 l 38.004,-21.941 21.941,-38.004 21.942,-38.004 21.941,-38.004 V 4.927 m -251.54,0 38.004,21.941 21.942,38.004 21.941,38.004 21.942,38.004 v 43.883 l -21.942,38.004 -38.004,21.942 H 108.779 64.896 m 782.442,527.75 21.941,-38.004 38.004,-21.941 h 43.883 43.883 m -399.252,255.844 21.942,-38.004 38.004,-21.941 h 43.883 l 38.004,21.941 21.941,38.004 h 43.884 43.883 m -634.73,0 h 43.883 43.883 l 21.941,-38.004 38.004,-21.941 h 43.884 l 38.003,21.941 21.942,38.004 M 995.049,516.615 973.108,478.611 h -43.883 m -59.946,-255.844 -21.941,38.004 v 43.883 l 21.941,38.004 21.942,38.004 21.941,38.004 38.004,21.941 h 43.883 M 781.513,222.767 h 43.883 43.883 l 38.004,-21.941 h 43.883 43.883 m -191.594,59.945 21.941,-38.004 21.942,-38.004 V 140.88 l 21.941,-38.004 21.942,-38.004 21.941,-38.004 38.004,-21.941 m -421.193,21.941 21.941,38.004 21.942,38.004 38.004,21.942 h 43.883 43.883 43.883 l 38.004,-21.942 21.942,-38.004 21.941,-38.004 m -295.423,0 -21.942,38.004 -21.941,38.004 -38.004,21.942 H 404.203 360.319 316.436 L 278.432,102.876 256.491,64.872 234.549,26.868 M 64.896,516.615 86.838,478.611 108.779,440.607 m 81.887,-217.84 h 43.883 43.883 m -65.824,38.004 21.941,-38.004 21.942,-38.004 M 64.896,712.514 h 43.883 43.883 l 38.004,21.941 21.942,38.004 M 721.568,990.3 699.626,952.296 v -43.883 l 21.942,-38.004 21.941,-38.004 21.942,-38.004 38.004,-21.942 h 43.883 l 38.004,21.942 21.941,38.004 21.942,38.004 21.941,38.004 v 43.883 L 929.225,990.3 m -125.77,-217.841 21.941,-38.004 21.942,-38.003 m 21.941,38.003 -21.941,-38.003 v -43.884 l 21.941,-38.003 21.942,-38.004 21.941,-38.004 38.004,-21.942 h 43.883 M 338.378,990.3 360.319,952.296 v -43.883 l -21.941,-38.004 -21.942,-38.004 -21.941,-38.004 -38.004,-21.942 h -43.883 l -38.004,21.942 -21.942,38.004 -21.941,38.004 -21.942,38.004 v 43.883 L 86.838,990.3 M 951.166,560.498 913.162,538.557 891.221,500.553 V 456.67 l 21.941,-38.004 38.004,-21.942 m -65.824,-233.902 21.941,38.004 v 43.883 l -21.941,38.004 -38.004,21.941 h -43.883 l -38.004,-21.941 -21.942,-38.004 v -43.883 l 21.942,-38.004 38.004,-21.942 h 43.883 z M 130.721,478.611 H 86.838 42.954 L 4.951,500.553 m 103.828,16.062 21.942,-38.004 M 256.491,260.771 234.549,222.767 212.608,184.763 174.604,162.822 152.662,124.818 130.721,86.814 108.779,48.81 V 4.927 M 64.896,200.826 h 43.883 43.883 l 38.004,21.941 21.942,38.004 v 43.883 l -21.942,38.004 -21.941,38.004 -21.942,38.004 -38.004,21.941 H 64.896 M 256.491,772.459 234.549,734.455 212.608,696.452 M 4.951,576.561 26.892,538.557 64.896,516.615 h 43.883 l 38.004,21.942 21.942,38.004 21.941,38.004 21.942,38.003 v 43.884 l -21.942,38.003 m 590.847,0 h 43.883 43.883 l 38.004,21.942 h 43.883 43.883 m -191.594,-59.945 21.941,38.003 21.942,38.004 v 43.883 l 21.941,38.004 21.942,38.004 21.941,38.004 38.004,21.942 M 64.896,756.397 h 43.883 43.883 l 38.004,-21.942 h 43.883 43.883 M 426.144,990.3 464.148,968.358 h 43.883 l 21.942,-38.004 21.941,-38.004 21.942,-38.004 38.004,-21.941 h 43.883 43.883 43.883 l 38.004,21.941 21.942,38.004 21.941,38.004 21.942,38.004 h 43.883 l 38.004,21.942 m -798.504,0 38.004,-21.942 h 43.883 l 21.941,-38.004 21.942,-38.004 21.941,-38.004 38.004,-21.941 h 43.883 43.884 43.883 l 38.004,21.941 21.941,38.004 21.942,38.004 21.941,38.004 h 43.883 L 633.801,990.3 M 404.203,4.927 V 48.81 l 21.941,38.004 21.942,38.004 21.941,38.004 38.004,21.941 h 43.883 M 4.951,456.67 26.892,418.666 64.896,396.724 h 43.883 l 38.004,21.942 21.942,38.004 v 43.883 l -21.942,38.004 -38.004,21.941 H 64.896 L 26.892,538.557 4.951,500.553 m 289.544,-217.84 -38.004,21.941 h -43.883 l -38.004,-21.941 -21.942,-38.004 v -43.883 l 21.942,-38.004 38.004,-21.942 h 43.883 l 38.004,21.942 21.941,38.004 v 43.883 z m -38.004,413.739 -21.942,38.003 -21.941,38.004 v 43.883 l -21.942,38.004 -21.941,38.004 -21.942,38.004 -38.004,21.942 H 64.896 L 26.892,930.354 4.951,892.35 m 738.558,-179.836 21.942,-38.004 38.004,-21.942 h 43.883 l 38.004,21.942 21.941,38.004 v 43.883 l -21.941,38.004 -38.004,21.941 h -43.883 l -38.004,-21.941 -21.942,-38.004 z m 251.54,-76.008 H 951.166 907.283 L 869.279,614.565 847.338,576.561 825.396,538.557 803.455,500.553 V 456.67 l 21.941,-38.004 21.942,-38.004 21.941,-38.004 38.004,-21.942 h 43.883 43.883 M 699.626,4.927 l 38.004,21.941 21.941,38.004 21.942,38.004 21.942,38.004 v 43.883 l -21.942,38.004 -38.004,21.942 H 699.626 655.743 611.86 L 573.856,222.767 551.914,184.763 V 140.88 L 573.856,102.876 595.797,64.872 617.739,26.868 655.743,4.927 M 995.049,200.826 973.108,162.822 951.166,124.818 929.225,86.814 891.221,64.872 h -43.883 -43.883 -43.884 l -38.003,21.942 -21.942,38.004 -21.942,38.004 -21.941,38.004 v 43.883 l 21.941,38.004 21.942,38.003 21.942,38.004 38.003,21.942 h 43.884 43.883 43.883 l 38.004,-21.942 21.941,-38.004 21.942,-38.003 21.941,-38.004 M 486.09,222.767 h 43.883 43.883 M 360.319,4.927 322.315,26.868 300.374,64.872 278.432,102.876 256.491,140.88 v 43.883 l 21.941,38.004 38.004,21.942 h 43.883 43.884 43.883 l 38.004,-21.942 21.941,-38.004 m -251.54,467.805 38.004,21.942 21.941,38.004 v 43.883 l -21.941,38.004 -38.004,21.941 h -43.883 l -38.004,-21.941 -21.942,-38.004 v -43.883 l 21.942,-38.004 38.004,-21.942 z m 295.423,119.891 h -43.883 l -38.004,21.942 -21.941,38.004 -21.942,38.004 -21.941,38.004 v 43.883 L 426.144,990.3 M 404.203,4.927 l 38.003,21.941 21.942,38.004 21.942,38.004 21.941,38.004 v 43.883 l 21.942,38.004 21.941,38.004 m -43.883,0 21.942,-38.004 21.941,-38.004 38.004,-21.941 21.942,-38.004 21.941,-38.004 21.942,-38.004 V 4.927 M 21.013,636.506 h 43.883 43.883 43.883 l 38.004,-21.941 21.942,-38.004 21.941,-38.004 21.942,-38.004 V 456.67 L 234.549,418.666 212.608,380.662 190.666,342.658 152.662,320.716 H 108.779 64.896 21.013 m 383.19,-76.007 -21.942,38.004 -21.942,38.003 -21.941,38.004 -38.004,21.942 H 256.491 212.608 168.725 L 130.721,358.72 108.779,320.716 86.838,282.713 64.896,244.709 v -43.883 l 21.942,-38.004 21.941,-38.004 21.942,-38.004 38.004,-21.942 h 43.883 43.883 43.883 l 38.004,21.942 21.941,38.004 21.942,38.004 21.942,38.004 z m 169.653,609.637 -21.942,-38.004 v -43.883 l 21.942,-38.004 38.004,-21.941 h 43.883 43.883 43.883 l 38.004,21.941 21.942,38.004 v 43.883 l -21.942,38.004 -21.942,38.004 -21.941,38.004 -38.004,21.942 H 655.743 L 617.739,930.354 595.797,892.35 Z M 995.049,712.514 973.108,674.51 951.166,636.506 929.225,598.502 891.221,576.561 h -43.883 -43.883 -43.884 l -38.003,21.941 -21.942,38.004 -21.942,38.004 -21.941,38.004 v 43.883 l 21.941,38.004 21.942,38.004 21.942,38.004 38.003,21.941 h 43.884 43.883 43.883 l 38.004,-21.941 21.941,-38.004 21.942,-38.004 21.941,-38.004 M 486.09,734.455 h 43.883 43.883 M 508.031,772.459 486.09,734.455 M 721.568,478.611 699.626,440.607 m 147.712,16.063 h -43.883 -43.884 l -38.003,21.941 -21.942,38.004 v 43.883 l 21.942,38.004 21.941,38.004 21.942,38.004 38.004,21.942 h 43.883 l 38.004,-21.942 21.941,-38.004 21.942,-38.004 21.941,-38.004 V 516.615 L 929.225,478.611 891.221,456.67 Z M 448.086,200.826 v 43.883 l 21.941,38.004 38.004,21.941 h 43.883 l 38.004,-21.941 21.942,-38.004 V 200.826 L 589.918,162.822 551.914,140.88 h -43.883 l -38.004,21.942 z M 212.608,576.561 h 43.883 43.883 l 38.004,21.941 21.941,38.004 21.942,38.004 21.942,38.004 v 43.883 l -21.942,38.004 -21.942,38.004 -21.941,38.004 -38.004,21.941 H 256.491 212.608 168.725 L 130.721,870.409 108.779,832.405 86.838,794.401 64.896,756.397 v -43.883 l 21.942,-38.004 21.941,-38.004 21.942,-38.004 38.004,-21.941 z M 486.09,734.455 448.086,712.514 h -43.883 -43.884 -43.883 l -38.004,21.941 -21.941,38.004 v 43.883 l 21.941,38.004 21.942,38.004 21.941,38.004 38.004,21.942 h 43.884 l 38.003,-21.942 21.942,-38.004 21.942,-38.004 21.941,-38.004 v -43.883 l 21.942,-38.004 21.941,-38.003 M 633.801,990.3 655.743,952.296 V 908.413 L 633.801,870.409 611.86,832.405 589.918,794.401 551.914,772.459 529.973,734.455 508.031,696.452 M 699.626,516.615 677.684,478.611 655.743,440.607 m 0,76.008 21.941,-38.004 21.942,-38.004 m -87.766,-239.781 -38.004,21.941 -21.942,38.004 v 43.883 l 21.942,38.004 21.941,38.004 21.942,38.004 38.004,21.941 h 43.883 l 38.004,-21.941 21.941,-38.004 21.942,-38.004 21.942,-38.004 v -43.883 l -21.942,-38.004 -38.004,-21.941 h -43.883 -43.883 z m -273.482,277.785 21.941,-38.004 m -229.598,38.004 38.004,-21.941 h 43.883 43.883 43.883 l 38.004,21.941 21.941,38.004 v 43.883 l -21.941,38.004 -21.942,38.004 -21.941,38.004 -38.004,21.942 H 212.608 L 174.604,674.51 152.662,636.506 130.721,598.502 108.779,560.498 V 516.615 L 86.838,478.611 64.896,440.607 26.892,418.666 4.951,380.662 m 503.08,271.906 h 43.883 l 38.004,21.942 21.942,38.004 v 43.883 l -21.942,38.004 -38.004,21.941 h -43.883 l -38.004,-21.941 -21.941,-38.004 v -43.883 l 21.941,-38.004 z m 125.77,-173.957 h 43.883 43.884 l 38.003,21.942 h 43.884 43.883 43.883 l 38.004,-21.942 21.941,-38.004 V 396.724 L 929.225,358.72 907.283,320.716 885.342,282.713 847.338,260.771 h -43.883 l -38.004,21.942 -21.942,38.003 -21.941,38.004 -21.942,38.004 v 43.883 m -339.307,-195.898 21.942,38.004 21.942,38.003 21.941,38.004 38.004,21.942 h 43.883 43.883 43.883 l 38.004,-21.942 21.942,-38.004 21.941,-38.003 21.942,-38.004 V 200.826 L 677.684,162.822 655.743,124.818 633.801,86.814 595.797,64.872 h -43.883 -43.883 -43.883 l -38.004,21.942 -21.941,38.004 -21.942,38.004 -21.942,38.004 z m 0,271.906 21.942,-38.004 21.942,-38.004 m -43.884,0 h 43.884 m 0,76.008 -21.942,-38.004 -21.942,-38.004 -38.004,-21.941 -21.941,-38.004 -21.942,-38.004 -21.941,-38.004 v -43.883 l 21.941,-38.004 38.004,-21.941 h 43.883 43.884 43.883 l 38.004,21.941 21.941,38.004 v 43.883 l -21.941,38.004 -21.942,38.004 -21.942,38.004 -38.003,21.941 m 191.594,135.954 21.942,-38.004 38.004,-21.942 h 43.883 l 38.004,21.942 21.941,38.004 21.942,38.004 21.942,38.003 v 43.884 l -21.942,38.003 -38.004,21.942 H 699.626 655.743 611.86 l -38.004,-21.942 -21.942,-38.003 v -43.884 l 21.942,-38.003 z m 0,-76.008 21.942,38.004 38.004,21.941 h 43.883 l 38.004,-21.941 21.941,-38.004 V 456.67 L 737.63,418.666 699.626,396.724 h -43.883 l -38.004,21.942 -21.942,38.004 z M 360.319,440.607 V 396.724 L 338.378,358.72 316.436,320.716 294.495,282.713 256.491,260.771 h -43.883 l -38.004,21.942 -21.942,38.003 -21.941,38.004 -21.942,38.004 v 43.883 l 21.942,38.004 38.004,21.942 h 43.883 43.883 43.883 l 38.004,-21.942 h 43.883 43.883 m 16.062,59.946 21.942,38.004 21.942,38.004 21.941,38.003 v 43.884 l -21.941,38.003 -38.004,21.942 h -43.883 -43.884 -43.883 l -38.004,-21.942 -21.941,-38.003 v -43.884 l 21.941,-38.003 21.942,-38.004 21.941,-38.004 38.004,-21.942 h 43.884 z m 65.825,38.004 h 43.883 43.883 l 38.004,21.941 21.942,38.004 21.941,38.004 21.942,38.004 v 43.883 l -21.942,38.004 -21.941,38.004 -21.942,38.004 -38.004,21.941 h -43.883 -43.883 -43.883 l -38.004,-21.941 -21.941,-38.004 -21.942,-38.004 -21.942,-38.004 v -43.883 l 21.942,-38.004 21.942,-38.004 21.941,-38.004 38.004,-21.941 z m 0,-119.891 h -43.883 l -38.004,21.941 -21.941,38.004 v 43.883 l 21.941,38.004 21.942,38.004 21.941,38.004 38.004,21.942 h 43.883 l 38.004,-21.942 21.942,-38.004 21.941,-38.004 21.942,-38.004 V 516.615 L 633.801,478.611 595.797,456.67 h -43.883 z m -43.883,43.883 -21.942,38.004 -38.003,21.941 H 360.319 L 322.315,538.557 300.374,500.553 V 456.67 l 21.941,-38.004 38.004,-21.942 h 43.884 l 38.003,21.942 21.942,38.004 z M 551.914,456.67 529.973,418.666 508.031,380.662 486.09,342.658 448.086,320.716 h -43.883 -43.884 -43.883 l -38.004,21.942 -21.941,38.004 -21.942,38.004 -21.941,38.004 v 43.883 l 21.941,38.004 21.942,38.004 21.941,38.004 38.004,21.941 h 43.883 43.884 43.883 l 38.004,-21.941 21.941,-38.004 21.942,-38.004 m -21.942,-38.004 h -43.883 l -38.004,-21.942 -21.941,-38.004 v -43.883 l 21.941,-38.004 21.942,-38.004 21.941,-38.003 38.004,-21.942 h 43.883 l 38.004,21.942 21.942,38.003 21.941,38.004 21.942,38.004 v 43.883 l -21.942,38.004 -38.004,21.942 h -43.883 z m 21.942,38.004 21.941,38.004 21.942,38.004 38.004,21.941 h 43.883 43.883 43.883 l 38.004,-21.941 21.942,-38.004 21.941,-38.004 21.942,-38.004 V 456.67 L 825.396,418.666 803.455,380.662 781.513,342.658 743.509,320.716 H 699.626 655.743 611.86 l -38.004,21.942 -21.942,38.004 -21.941,38.004 -21.942,38.004 v 43.883 l 21.942,38.004 21.941,-38.004 V 456.67"
       id="path233" />
    <path
       style="color:#000000;font-style:normal;font-variant:normal;font-weight:normal;font-stretch:normal;font-size:medium;line-height:normal;font-family:sans-serif;font-variant-ligatures:normal;font-variant-position:normal;font-variant-caps:normal;font-variant-numeric:normal;font-variant-alternates:normal;font-variant-east-asian:normal;font-feature-settings:normal;font-variation-settings:normal;text-indent:0;text-align:start;text-decoration:none;text-decoration-line:none;text-decoration-style:solid;text-decoration-color:#000000;letter-spacing:normal;word-spacing:normal;text-transform:none;writing-mode:lr-tb;direction:ltr;text-orientation:mixed;dominant-baseline:auto;baseline-shift:baseline;text-anchor:start;white-space:normal;shape-padding:0;shape-margin:0;inline-size:0;clip-rule:nonzero;display:inline;overflow:visible;visibility:visible;isolation:auto;mix-blend-mode:normal;color-interpolation:sRGB;color-interpolation-filters:linearRGB;solid-color:#000000;solid-opacity:1;vector-effect:none;fill:#000000;fill-opacity:1;fill-rule:nonzero;stroke:none;stroke-width:16;stroke-linecap:butt;stroke-linejoin:miter;stroke-miterlimit:4;stroke-dasharray:none;stroke-dashoffset:0;stroke-opacity:1.0;color-rendering:auto;image-rendering:auto;shape-rendering:auto;text-rendering:auto;enable-background:accumulate;stop-color:#000000;stop-opacity:1;"
       d="M 60.896484 -2.0019531 L 21.035156 21.011719 L -1.9765625 60.873047 L 4.9511719 64.871094 L 0.95117188 71.800781 L 32.025391 89.742188 L 14.083984 120.81836 L 21.013672 124.81836 L 21.013672 132.81836 L 60.277344 132.81836 L 77.601562 162.82227 L 56.896484 198.68164 L 56.896484 246.85352 L 77.601562 282.71289 L 60.277344 312.7168 L 21.013672 312.7168 L 21.013672 320.7168 L 14.083984 324.7168 L 32.025391 355.79297 L 0.95117188 373.73438 L 4.9511719 380.66211 L -1.9765625 384.66211 L 17.654297 418.66602 L -1.9765625 452.66992 L 4.9511719 456.66992 L 0.95117188 463.59766 L 26.955078 478.61133 L 0.95117188 493.625 L 4.9511719 500.55273 L -1.9765625 504.55273 L 17.654297 538.55664 L -1.9765625 572.56055 L 4.9511719 576.56055 L 0.95117188 583.48828 L 32.025391 601.42969 L 14.083984 632.50586 L 21.013672 636.50586 L 21.013672 644.50586 L 60.277344 644.50586 L 77.601562 674.50977 L 56.896484 710.37109 L 56.896484 758.54102 L 77.601562 794.40039 L 60.277344 824.4043 L 21.013672 824.4043 L 21.013672 832.4043 L 14.083984 836.4043 L 32.025391 867.48047 L 0.95117188 885.42188 L 4.9511719 892.34961 L -1.9765625 896.34961 L 21.035156 936.21094 L 59.041016 958.1543 L 79.910156 994.30078 L 86.837891 990.30078 L 93.765625 994.30078 L 108.7793 968.29688 L 123.79297 994.30078 L 130.7207 990.30078 L 134.7207 997.22852 L 170.86914 976.35742 L 212.60742 976.35742 L 217.22656 976.35742 L 256.49023 976.35742 L 298.22656 976.35742 L 334.37891 997.22852 L 338.37891 990.30078 L 345.30664 994.30078 L 360.31836 968.29688 L 375.33203 994.30078 L 382.26172 990.30078 L 389.18945 994.30078 L 404.20312 968.29688 L 419.21484 994.30078 L 426.14453 990.30078 L 430.14453 997.22852 L 466.29102 976.35742 L 508.03125 976.35742 L 512.65039 976.35742 L 547.29492 976.35742 L 551.91406 976.35742 L 593.6543 976.35742 L 629.80078 997.22852 L 633.80078 990.30078 L 640.72852 994.30078 L 655.74219 968.29688 L 670.75586 994.30078 L 677.68359 990.30078 L 684.61133 994.30078 L 699.62695 968.29492 L 714.64062 994.30078 L 721.56836 990.30078 L 725.56836 997.22852 L 761.71289 976.35742 L 803.45508 976.35742 L 842.71875 976.35742 L 847.33789 976.35742 L 889.07812 976.35742 L 925.22461 997.22852 L 929.22461 990.30078 L 936.15234 994.30078 L 959.16602 954.43945 L 959.16602 906.26953 L 938.46289 870.41016 L 955.78516 840.4043 L 995.04883 840.4043 L 995.04883 832.4043 L 1001.9766 828.4043 L 982.3457 794.40039 L 1001.9766 760.39648 L 995.04883 756.39648 L 995.04883 748.39648 L 959.16602 748.39648 L 959.16602 720.51367 L 995.04883 720.51367 L 995.04883 712.51367 L 1001.9766 708.51367 L 982.3457 674.50977 L 1001.9766 640.50586 L 995.04883 636.50586 L 995.04883 628.50586 L 955.78516 628.50586 L 938.46289 598.50195 L 959.16602 562.64062 L 959.16602 524.61523 L 995.04883 524.61523 L 995.04883 516.61523 L 1001.9766 512.61523 L 982.3457 478.61133 L 1001.9766 444.60742 L 995.04883 440.60742 L 995.04883 432.60742 L 959.16602 432.60742 L 959.16602 394.58008 L 938.46289 358.7207 L 955.78516 328.7168 L 995.04883 328.7168 L 995.04883 320.7168 L 1001.9766 316.7168 L 982.3457 282.71289 L 1001.9766 248.70898 L 995.04883 244.70898 L 995.04883 236.70898 L 959.16602 236.70898 L 959.16602 208.82617 L 995.04883 208.82617 L 995.04883 200.82617 L 1001.9766 196.82617 L 982.3457 162.82227 L 1001.9766 128.81836 L 995.04883 124.81836 L 995.04883 116.81836 L 955.78516 116.81836 L 938.46289 86.8125 L 959.16602 50.953125 L 959.16602 4.9277344 L 951.16602 4.9277344 L 947.16602 -2.0019531 L 907.30469 21.011719 L 886.60156 56.871094 L 851.95703 56.871094 L 832.32422 22.867188 L 825.39648 26.867188 L 818.4668 22.867188 L 798.83594 56.871094 L 764.19141 56.871094 L 743.48633 21.011719 L 703.625 -2.0019531 L 699.625 4.9277344 L 691.62695 4.9277344 L 691.62695 40.810547 L 663.74219 40.810547 L 663.74219 4.9277344 L 655.74219 4.9277344 L 651.74219 -2.0019531 L 611.88281 21.011719 L 591.17773 56.871094 L 556.5332 56.871094 L 536.90039 22.867188 L 529.97266 26.867188 L 523.04492 22.867188 L 503.41211 56.871094 L 468.76758 56.871094 L 448.0625 21.011719 L 408.20312 -2.0019531 L 404.20312 4.9277344 L 396.20312 4.9277344 L 396.20312 40.810547 L 368.31836 40.810547 L 368.31836 4.9277344 L 360.31836 4.9277344 L 356.31836 -2.0019531 L 316.45898 21.011719 L 295.75391 56.871094 L 261.10938 56.871094 L 241.47656 22.867188 L 234.54883 26.867188 L 227.62109 22.867188 L 207.98828 56.871094 L 173.34375 56.871094 L 152.63867 21.011719 L 112.7793 -2.0019531 L 108.7793 4.9277344 L 100.7793 4.9277344 L 100.7793 40.810547 L 72.896484 40.810547 L 72.896484 4.9277344 L 64.896484 4.9277344 L 60.896484 -2.0019531 z M 56.896484 18.783203 L 56.896484 34.955078 L 42.892578 26.867188 L 56.896484 18.783203 z M 116.7793 18.783203 L 130.7832 26.869141 L 116.7793 34.953125 L 116.7793 18.783203 z M 352.31836 18.783203 L 352.31836 34.953125 L 338.31445 26.869141 L 352.31836 18.783203 z M 412.20312 18.783203 L 426.20508 26.867188 L 412.20312 34.953125 L 412.20312 18.783203 z M 647.74219 18.783203 L 647.74219 34.953125 L 633.73828 26.869141 L 647.74219 18.783203 z M 707.62695 18.783203 L 721.63086 26.869141 L 707.62695 34.953125 L 707.62695 18.783203 z M 943.16602 18.783203 L 943.16602 34.953125 L 929.16211 26.867188 L 943.16602 18.783203 z M 29.820312 37.796875 L 53.966797 51.738281 L 40.025391 75.884766 L 15.878906 61.943359 L 29.820312 37.796875 z M 143.85547 37.796875 L 157.79688 61.943359 L 133.64844 75.886719 L 119.70703 51.738281 L 143.85547 37.796875 z M 325.24414 37.796875 L 349.39062 51.738281 L 335.44922 75.884766 L 311.30273 61.943359 L 325.24414 37.796875 z M 439.2793 37.796875 L 453.2207 61.943359 L 429.07227 75.884766 L 415.13086 51.738281 L 439.2793 37.796875 z M 620.66602 37.796875 L 644.81445 51.738281 L 630.87305 75.884766 L 606.72461 61.943359 L 620.66602 37.796875 z M 734.70117 37.796875 L 748.64258 61.943359 L 724.49609 75.884766 L 710.55469 51.738281 L 734.70117 37.796875 z M 916.08984 37.796875 L 940.23828 51.738281 L 926.29688 75.884766 L 902.14844 61.943359 L 916.08984 37.796875 z M 234.54883 42.867188 L 242.63477 56.871094 L 226.46484 56.871094 L 234.54883 42.867188 z M 529.97266 42.867188 L 538.05859 56.871094 L 521.88672 56.871094 L 529.97266 42.867188 z M 825.39648 42.867188 L 833.48242 56.871094 L 817.31055 56.871094 L 825.39648 42.867188 z M 69.515625 56.810547 L 104.16016 56.810547 L 121.48438 86.814453 L 104.16016 116.81836 L 69.515625 116.81836 L 52.191406 86.814453 L 69.515625 56.810547 z M 364.9375 56.810547 L 399.58398 56.810547 L 416.90625 86.814453 L 399.58398 116.81836 L 364.93945 116.81836 L 347.61523 86.814453 L 364.9375 56.810547 z M 660.36133 56.810547 L 695.00781 56.810547 L 712.33008 86.8125 L 695.00586 116.81836 L 660.36328 116.81836 L 643.03906 86.8125 L 660.36133 56.810547 z M 182.58008 72.871094 L 198.75195 72.871094 L 190.66602 86.876953 L 182.58008 72.871094 z M 217.22852 72.871094 L 251.87109 72.871094 L 269.19531 102.875 L 251.87109 132.88086 L 217.22656 132.88086 L 199.90234 102.87695 L 217.22852 72.871094 z M 270.34766 72.871094 L 286.51758 72.871094 L 278.43359 86.875 L 270.34766 72.871094 z M 478.00391 72.871094 L 494.17578 72.871094 L 486.08984 86.876953 L 478.00391 72.871094 z M 512.65039 72.871094 L 547.29492 72.871094 L 564.61914 102.875 L 547.29492 132.88086 L 512.65039 132.88086 L 495.32812 102.87695 L 512.65039 72.871094 z M 565.76953 72.871094 L 581.94141 72.871094 L 573.85547 86.875 L 565.76953 72.871094 z M 773.42773 72.871094 L 789.59961 72.871094 L 781.51367 86.875 L 773.42773 72.871094 z M 808.07422 72.871094 L 842.71875 72.871094 L 860.04102 102.87695 L 842.71875 132.88086 L 808.07422 132.88086 L 790.75 102.875 L 808.07422 72.871094 z M 861.19336 72.871094 L 877.36523 72.871094 L 869.2793 86.876953 L 861.19336 72.871094 z M 165.79688 75.798828 L 179.73828 99.947266 L 155.58984 113.89062 L 141.64844 89.742188 L 165.79688 75.798828 z M 303.30273 75.798828 L 327.44922 89.742188 L 313.50781 113.89062 L 289.35938 99.947266 L 303.30273 75.798828 z M 461.2207 75.798828 L 475.16211 99.947266 L 451.01367 113.89062 L 437.07227 89.742188 L 461.2207 75.798828 z M 598.72461 75.798828 L 622.87305 89.742188 L 608.93164 113.89062 L 584.78516 99.947266 L 598.72461 75.798828 z M 756.64258 75.798828 L 770.58398 99.947266 L 746.4375 113.89062 L 732.49609 89.742188 L 756.64258 75.798828 z M 894.14844 75.798828 L 918.29688 89.742188 L 904.35547 113.89062 L 880.20703 99.947266 L 894.14844 75.798828 z M 929.22461 102.8125 L 937.31055 116.81836 L 921.13867 116.81836 L 929.22461 102.8125 z M 42.955078 102.81445 L 51.041016 116.81836 L 34.869141 116.81836 L 42.955078 102.81445 z M 130.7207 102.81445 L 138.80664 116.81836 L 122.63477 116.81836 L 130.7207 102.81445 z M 338.37891 102.81445 L 346.46289 116.81836 L 330.29297 116.81836 L 338.37891 102.81445 z M 426.14258 102.81445 L 434.22852 116.81836 L 418.05859 116.81836 L 426.14258 102.81445 z M 633.80078 102.81445 L 641.88672 116.81836 L 625.7168 116.81836 L 633.80078 102.81445 z M 721.56836 102.81445 L 729.65234 116.81836 L 713.48242 116.81836 L 721.56836 102.81445 z M 187.73828 113.80469 L 201.67969 137.95312 L 177.5332 151.89258 L 163.58984 127.74609 L 187.73828 113.80469 z M 281.35938 113.80469 L 305.50781 127.74609 L 291.56641 151.89258 L 267.41797 137.95117 L 281.35938 113.80469 z M 483.16211 113.80469 L 497.10352 137.95117 L 472.95508 151.89258 L 459.01367 127.74609 L 483.16211 113.80469 z M 576.78516 113.80469 L 600.93164 127.74609 L 586.99023 151.89453 L 562.8418 137.95117 L 576.78516 113.80469 z M 778.58398 113.80469 L 792.52734 137.95117 L 768.37891 151.89258 L 754.4375 127.74609 L 778.58398 113.80469 z M 872.20703 113.80469 L 896.35547 127.74609 L 882.41406 151.89453 L 858.26562 137.95117 L 872.20703 113.80469 z M 78.751953 132.81836 L 94.923828 132.81836 L 86.837891 146.82227 L 78.751953 132.81836 z M 113.39844 132.81836 L 148.04297 132.81836 L 165.36719 162.82227 L 148.04297 192.82617 L 113.39844 192.82617 L 96.074219 162.82227 L 113.39844 132.81836 z M 321.05469 132.81836 L 355.69922 132.81836 L 373.02344 162.82227 L 355.69922 192.82617 L 321.05469 192.82617 L 303.73242 162.82227 L 321.05469 132.81836 z M 374.17578 132.81836 L 390.3457 132.81836 L 382.26172 146.82227 L 374.17578 132.81836 z M 408.82227 132.81836 L 443.4668 132.81836 L 460.78906 162.82227 L 443.4668 192.82617 L 408.82227 192.82617 L 391.49805 162.82227 L 408.82227 132.81836 z M 616.47852 132.81836 L 651.12305 132.81836 L 668.44727 162.82227 L 651.12305 192.82617 L 616.47852 192.82617 L 599.1543 162.82227 L 616.47852 132.81836 z M 669.59961 132.81836 L 685.76953 132.81836 L 677.68359 146.82227 L 669.59961 132.81836 z M 704.24414 132.81836 L 738.88867 132.81836 L 756.21289 162.82227 L 738.89062 192.82617 L 704.24609 192.82617 L 686.92188 162.82227 L 704.24414 132.81836 z M 911.90234 132.81836 L 946.54688 132.81836 L 963.87109 162.82227 L 946.54688 192.82617 L 911.90234 192.82617 L 894.58008 162.82227 L 911.90234 132.81836 z M 965.02344 132.81836 L 981.19336 132.81836 L 973.10742 146.82227 L 965.02344 132.81836 z M 220.60742 148.88086 L 248.49023 148.88086 L 248.49023 176.76367 L 220.60742 176.76367 L 220.60742 148.88086 z M 516.03125 148.88086 L 543.91406 148.88086 L 543.91406 176.76367 L 516.03125 176.76367 L 516.03125 148.88086 z M 811.45508 148.88086 L 839.33789 148.88086 L 839.33789 176.76367 L 811.45508 176.76367 L 811.45508 148.88086 z M 264.49023 154.73633 L 278.49414 162.82227 L 264.49023 170.9082 L 264.49023 154.73633 z M 500.03125 154.73633 L 500.03125 170.9082 L 486.02734 162.82227 L 500.03125 154.73633 z M 559.91406 154.73633 L 573.91797 162.82227 L 559.91406 170.90625 L 559.91406 154.73633 z M 795.45508 154.73633 L 795.45508 170.9082 L 781.45117 162.82227 L 795.45508 154.73633 z M 855.33789 154.73633 L 869.3418 162.82227 L 855.33789 170.9082 L 855.33789 154.73633 z M 204.60742 154.73828 L 204.60742 170.90625 L 190.60547 162.82227 L 204.60742 154.73828 z M 586.99023 173.74805 L 600.93164 197.89844 L 576.78516 211.83789 L 562.8418 187.69141 L 586.99023 173.74805 z M 177.5332 173.75 L 201.67969 187.69141 L 187.73828 211.83984 L 163.58984 197.89844 L 177.5332 173.75 z M 291.56641 173.75 L 305.50781 197.89844 L 281.36133 211.83789 L 267.41992 187.69141 L 291.56641 173.75 z M 472.95508 173.75 L 497.10352 187.69141 L 483.16211 211.83789 L 459.01367 197.89648 L 472.95508 173.75 z M 768.37891 173.75 L 792.52539 187.69141 L 778.58398 211.83789 L 754.4375 197.89844 L 768.37891 173.75 z M 882.41406 173.75 L 896.35547 197.89648 L 872.20703 211.83984 L 858.26562 187.69141 L 882.41406 173.75 z M 677.68359 178.82031 L 685.77148 192.82617 L 669.59766 192.82617 L 677.68359 178.82031 z M 86.837891 178.82227 L 94.923828 192.82617 L 78.751953 192.82617 L 86.837891 178.82227 z M 382.26172 178.82227 L 390.34766 192.82617 L 374.17383 192.82617 L 382.26172 178.82227 z M 973.10742 178.82227 L 981.19336 192.82617 L 965.02148 192.82617 L 973.10742 178.82227 z M 226.46484 192.76367 L 242.63477 192.76367 L 234.54883 206.76758 L 226.46484 192.76367 z M 521.88867 192.76367 L 538.05664 192.76367 L 529.97266 206.76758 L 521.88867 192.76367 z M 817.31055 192.76367 L 833.48047 192.76367 L 825.39648 206.76758 L 817.31055 192.76367 z M 212.60742 200.76172 L 220.69336 214.76758 L 204.52148 214.76758 L 212.60742 200.76172 z M 551.91406 200.76172 L 560 214.76758 L 543.82812 214.76758 L 551.91406 200.76172 z M 803.45508 200.76172 L 811.54102 214.76758 L 795.36914 214.76758 L 803.45508 200.76172 z M 256.49023 200.76367 L 264.57617 214.76758 L 248.40625 214.76758 L 256.49023 200.76367 z M 508.03125 200.76367 L 516.11719 214.76758 L 499.94727 214.76758 L 508.03125 200.76367 z M 847.33789 200.76367 L 855.42188 214.76758 L 839.25195 214.76758 L 847.33789 200.76367 z M 72.896484 208.82617 L 100.7793 208.82617 L 100.7793 236.70898 L 72.896484 236.70898 L 72.896484 208.82617 z M 116.7793 208.82617 L 144.66211 208.82617 L 144.66211 236.70898 L 116.7793 236.70898 L 116.7793 208.82617 z M 324.43555 208.82617 L 352.31836 208.82617 L 352.31836 236.70898 L 324.43555 236.70898 L 324.43555 208.82617 z M 368.31836 208.82617 L 396.20312 208.82617 L 396.20312 236.70898 L 368.31836 236.70898 L 368.31836 208.82617 z M 412.20312 208.82617 L 440.08594 208.82617 L 440.08594 236.70898 L 412.20312 236.70898 L 412.20312 208.82617 z M 619.85938 208.82617 L 647.74219 208.82617 L 647.74219 236.70898 L 619.85938 236.70898 L 619.85938 208.82617 z M 663.74219 208.82617 L 691.62695 208.82617 L 691.62695 236.70898 L 663.74219 236.70898 L 663.74219 208.82617 z M 707.62695 208.82617 L 735.50977 208.82617 L 735.50977 236.70898 L 707.62695 236.70898 L 707.62695 208.82617 z M 915.2832 208.82617 L 943.16602 208.82617 L 943.16602 236.70898 L 915.2832 236.70898 L 915.2832 208.82617 z M 160.66211 214.68164 L 174.66602 222.76758 L 160.66211 230.85156 L 160.66211 214.68164 z M 456.08594 214.68164 L 470.08984 222.76758 L 456.08594 230.85156 L 456.08594 214.68164 z M 603.85938 214.68164 L 603.85938 230.85156 L 589.85547 222.76758 L 603.85938 214.68164 z M 899.2832 214.68164 L 899.2832 230.85352 L 885.2793 222.76758 L 899.2832 214.68164 z M 308.43555 214.68359 L 308.43555 230.85156 L 294.43359 222.76758 L 308.43555 214.68359 z M 751.50977 214.68359 L 765.51172 222.76758 L 751.50977 230.85156 L 751.50977 214.68359 z M 204.52148 230.76758 L 220.69336 230.76758 L 212.60742 244.77148 L 204.52148 230.76758 z M 248.40625 230.76758 L 264.57617 230.76758 L 256.49023 244.76953 L 248.40625 230.76758 z M 499.94727 230.76758 L 516.11719 230.76758 L 508.03125 244.77148 L 499.94727 230.76758 z M 543.82812 230.76758 L 560 230.76758 L 551.91406 244.77148 L 543.82812 230.76758 z M 795.36914 230.76758 L 811.54102 230.76758 L 803.45508 244.77148 L 795.36914 230.76758 z M 839.25195 230.76758 L 855.42383 230.76758 L 847.33789 244.77148 L 839.25195 230.76758 z M 187.73828 233.69336 L 201.67969 257.84375 L 177.5332 271.78516 L 163.58984 247.63672 L 187.73828 233.69336 z M 281.36133 233.69531 L 305.50781 247.63672 L 291.56641 271.78516 L 267.41797 257.84375 L 281.36133 233.69531 z M 483.16211 233.69531 L 497.10352 257.8418 L 472.95508 271.78516 L 459.01367 247.63867 L 483.16211 233.69531 z M 576.78516 233.69531 L 600.93164 247.63672 L 586.99023 271.78516 L 562.8418 257.84375 L 576.78516 233.69531 z M 778.58398 233.69531 L 792.52734 257.84375 L 768.37891 271.78516 L 754.4375 247.63672 L 778.58398 233.69531 z M 872.20703 233.69531 L 896.35547 247.63867 L 882.41406 271.78516 L 858.26562 257.8418 L 872.20703 233.69531 z M 234.54883 238.76758 L 242.63477 252.77148 L 226.46484 252.77148 L 234.54883 238.76758 z M 529.97266 238.76758 L 538.05859 252.77148 L 521.88672 252.77148 L 529.97266 238.76758 z M 825.39648 238.76758 L 833.48242 252.77148 L 817.31055 252.77148 L 825.39648 238.76758 z M 78.753906 252.70898 L 94.923828 252.70898 L 86.837891 266.71289 L 78.753906 252.70898 z M 113.39844 252.70898 L 148.04297 252.70898 L 165.36719 282.71289 L 148.04297 312.7168 L 113.39844 312.7168 L 96.074219 282.71289 L 113.39844 252.70898 z M 321.05469 252.70898 L 355.69922 252.70898 L 373.02344 282.71289 L 355.69922 312.7168 L 321.05469 312.7168 L 303.73242 282.71289 L 321.05469 252.70898 z M 374.17578 252.70898 L 390.3457 252.70898 L 382.26172 266.71289 L 374.17578 252.70898 z M 408.82227 252.70898 L 443.4668 252.70898 L 460.78906 282.71289 L 443.4668 312.7168 L 408.82227 312.7168 L 391.49805 282.71289 L 408.82227 252.70898 z M 616.47852 252.70898 L 651.12305 252.70898 L 668.44727 282.71289 L 651.12305 312.7168 L 616.47852 312.7168 L 599.1543 282.71289 L 616.47852 252.70898 z M 669.59766 252.70898 L 685.76953 252.70898 L 677.68359 266.71484 L 669.59766 252.70898 z M 704.24609 252.70898 L 738.89062 252.70898 L 756.21289 282.71289 L 738.88867 312.7168 L 704.24414 312.7168 L 686.92188 282.71289 L 704.24609 252.70898 z M 911.90234 252.70898 L 946.54688 252.70898 L 963.87109 282.71289 L 946.54688 312.7168 L 911.90234 312.7168 L 894.58008 282.71289 L 911.90234 252.70898 z M 965.02344 252.70898 L 981.19336 252.70898 L 973.10742 266.71289 L 965.02344 252.70898 z M 220.60742 268.77148 L 248.49023 268.77148 L 248.49023 296.6543 L 220.60742 296.6543 L 220.60742 268.77148 z M 516.03125 268.77148 L 543.91406 268.77148 L 543.91406 296.6543 L 516.03125 296.6543 L 516.03125 268.77148 z M 811.45508 268.77148 L 839.33789 268.77148 L 839.33789 296.6543 L 811.45508 296.6543 L 811.45508 268.77148 z M 264.49023 274.62695 L 278.49414 282.71289 L 264.49023 290.79883 L 264.49023 274.62695 z M 500.03125 274.62695 L 500.03125 290.79883 L 486.02734 282.71289 L 500.03125 274.62695 z M 795.45508 274.62695 L 795.45508 290.79883 L 781.45117 282.71289 L 795.45508 274.62695 z M 855.33789 274.62695 L 869.3418 282.71289 L 855.33789 290.79883 L 855.33789 274.62695 z M 204.60742 274.62891 L 204.60742 290.79688 L 190.60547 282.71289 L 204.60742 274.62891 z M 559.91406 274.62891 L 573.91797 282.71289 L 559.91406 290.79883 L 559.91406 274.62891 z M 586.99023 293.64062 L 600.93164 317.78906 L 576.78516 331.72852 L 562.8418 307.58203 L 586.99023 293.64062 z M 177.5332 293.64258 L 201.67969 307.58203 L 187.73828 331.73047 L 163.58984 317.78906 L 177.5332 293.64258 z M 291.56641 293.64258 L 305.50781 317.78906 L 281.35938 331.73047 L 267.41992 307.58203 L 291.56641 293.64258 z M 472.95508 293.64258 L 497.10156 307.58203 L 483.16211 331.72852 L 459.01367 317.78711 L 472.95508 293.64258 z M 768.37891 293.64258 L 792.52539 307.58203 L 778.58398 331.72852 L 754.4375 317.78906 L 768.37891 293.64258 z M 882.41406 293.64258 L 896.35547 317.78711 L 872.20703 331.72852 L 858.26758 307.58203 L 882.41406 293.64258 z M 86.837891 298.71289 L 94.923828 312.7168 L 78.751953 312.7168 L 86.837891 298.71289 z M 382.26172 298.71289 L 390.3457 312.7168 L 374.17578 312.7168 L 382.26172 298.71289 z M 677.68359 298.71289 L 685.76953 312.7168 L 669.59961 312.7168 L 677.68359 298.71289 z M 973.10742 298.71289 L 981.19336 312.7168 L 965.02344 312.7168 L 973.10742 298.71289 z M 217.22656 312.6543 L 251.87109 312.6543 L 269.19531 342.6582 L 251.87109 372.66211 L 217.22852 372.66211 L 199.90234 342.6582 L 217.22656 312.6543 z M 512.65039 312.6543 L 547.29492 312.6543 L 564.61914 342.6582 L 547.29492 372.66211 L 512.65039 372.66211 L 495.32812 342.65625 L 512.65039 312.6543 z M 808.07422 312.6543 L 842.71875 312.6543 L 860.04102 342.65625 L 842.71875 372.66211 L 808.07422 372.66211 L 790.75 342.6582 L 808.07422 312.6543 z M 34.869141 328.7168 L 51.039062 328.7168 L 42.955078 342.7207 L 34.869141 328.7168 z M 69.515625 328.7168 L 104.16016 328.7168 L 121.48438 358.7207 L 104.16016 388.72461 L 69.515625 388.72461 L 52.191406 358.7207 L 69.515625 328.7168 z M 122.63672 328.7168 L 138.80664 328.7168 L 130.7207 342.7207 L 122.63672 328.7168 z M 330.29297 328.7168 L 346.46289 328.7168 L 338.37695 342.7207 L 330.29297 328.7168 z M 364.93945 328.7168 L 399.58398 328.7168 L 416.90625 358.7207 L 399.58398 388.72461 L 364.9375 388.72461 L 347.61523 358.7207 L 364.93945 328.7168 z M 418.05859 328.7168 L 434.22852 328.7168 L 426.14453 342.7207 L 418.05859 328.7168 z M 625.7168 328.7168 L 641.88672 328.7168 L 633.80078 342.7207 L 625.7168 328.7168 z M 660.36328 328.7168 L 695.00586 328.7168 L 712.33008 358.7207 L 695.00781 388.72461 L 660.36133 388.72461 L 643.03906 358.7207 L 660.36328 328.7168 z M 713.48242 328.7168 L 729.65234 328.7168 L 721.56836 342.7207 L 713.48242 328.7168 z M 921.13867 328.7168 L 937.31055 328.7168 L 929.22461 342.7207 L 921.13867 328.7168 z M 155.58984 331.64453 L 179.73828 345.58594 L 165.79688 369.73438 L 141.64844 355.79102 L 155.58984 331.64453 z M 313.50781 331.64453 L 327.44922 355.79297 L 303.30273 369.73438 L 289.35938 345.58594 L 313.50781 331.64453 z M 451.01367 331.64453 L 475.16211 345.58594 L 461.2207 369.73438 L 437.07227 355.79297 L 451.01367 331.64453 z M 608.93164 331.64453 L 622.87305 355.79297 L 598.72461 369.73438 L 584.78516 345.58594 L 608.93164 331.64453 z M 746.4375 331.64453 L 770.58398 345.58594 L 756.64258 369.73438 L 732.49609 355.79297 L 746.4375 331.64453 z M 904.35547 331.64453 L 918.29688 355.79297 L 894.14844 369.73438 L 880.20703 345.58594 L 904.35547 331.64453 z M 190.66602 358.65625 L 198.75195 372.66211 L 182.58008 372.66211 L 190.66602 358.65625 z M 486.08984 358.65625 L 494.17578 372.66211 L 478.00391 372.66211 L 486.08984 358.65625 z M 869.2793 358.65625 L 877.36523 372.66211 L 861.19336 372.66211 L 869.2793 358.65625 z M 278.43164 358.6582 L 286.51758 372.66211 L 270.34766 372.66211 L 278.43164 358.6582 z M 573.85547 358.6582 L 581.94141 372.66211 L 565.76953 372.66211 L 573.85547 358.6582 z M 781.51367 358.6582 L 789.59961 372.66211 L 773.42773 372.66211 L 781.51367 358.6582 z M 40.025391 369.64844 L 53.96875 393.79688 L 29.820312 407.73828 L 15.878906 383.58984 L 40.025391 369.64844 z M 133.64844 369.64844 L 157.79688 383.58984 L 143.85352 407.73828 L 119.70703 393.79688 L 133.64844 369.64844 z M 335.44922 369.64844 L 349.39062 393.79688 L 325.24414 407.73828 L 311.30273 383.58984 L 335.44922 369.64844 z M 429.07227 369.64844 L 453.2207 383.58984 L 439.27734 407.73828 L 415.13086 393.79688 L 429.07227 369.64844 z M 630.87305 369.64844 L 644.81445 393.79688 L 620.66797 407.73828 L 606.72461 383.58984 L 630.87305 369.64844 z M 724.49609 369.64844 L 748.64258 383.58984 L 734.70117 407.73828 L 710.55469 393.79688 L 724.49609 369.64844 z M 926.29688 369.64844 L 940.23828 393.79492 L 916.08984 407.73828 L 902.14844 383.5918 L 926.29688 369.64844 z M 173.34375 388.66211 L 207.98828 388.66211 L 225.3125 418.66602 L 207.98828 448.66992 L 173.3418 448.66992 L 156.01953 418.66602 L 173.34375 388.66211 z M 226.46484 388.66211 L 242.63477 388.66211 L 234.54883 402.66602 L 226.46484 388.66211 z M 261.10938 388.66211 L 295.75391 388.66211 L 313.07812 418.66602 L 295.75586 448.66992 L 261.10938 448.66992 L 243.78516 418.66602 L 261.10938 388.66211 z M 468.76758 388.66211 L 503.41211 388.66211 L 520.73633 418.66602 L 503.41211 448.66992 L 468.76562 448.66992 L 451.44336 418.66602 L 468.76758 388.66211 z M 521.88672 388.66211 L 538.05859 388.66211 L 529.97266 402.66602 L 521.88672 388.66211 z M 556.5332 388.66211 L 591.17773 388.66211 L 608.50195 418.66602 L 591.17969 448.66992 L 556.5332 448.66992 L 539.20898 418.66602 L 556.5332 388.66211 z M 764.19141 388.66211 L 798.83594 388.66211 L 816.16016 418.66602 L 798.83594 448.66992 L 764.18945 448.66992 L 746.86719 418.66602 L 764.19141 388.66211 z M 817.31055 388.66211 L 833.48242 388.66211 L 825.39648 402.66602 L 817.31055 388.66211 z M 851.95703 388.66211 L 886.60156 388.66211 L 903.92383 418.66602 L 886.60156 448.66992 L 851.95703 448.66992 L 834.63281 418.66602 L 851.95703 388.66211 z M 72.896484 404.72461 L 100.7793 404.72461 L 100.7793 432.60742 L 72.896484 432.60742 L 72.896484 404.72461 z M 368.31836 404.72461 L 396.20312 404.72461 L 396.20312 432.60742 L 368.31836 432.60742 L 368.31836 404.72461 z M 663.74219 404.72461 L 691.62695 404.72461 L 691.62695 432.60742 L 663.74219 432.60742 L 663.74219 404.72461 z M 56.896484 410.58008 L 56.896484 426.75195 L 42.890625 418.66602 L 56.896484 410.58008 z M 943.16602 410.58008 L 943.16602 426.75195 L 929.16016 418.66602 L 943.16602 410.58008 z M 116.7793 410.58203 L 130.78125 418.66602 L 116.7793 426.75 L 116.7793 410.58203 z M 352.31836 410.58203 L 352.31836 426.75 L 338.31445 418.66602 L 352.31836 410.58203 z M 412.20312 410.58203 L 426.20703 418.66602 L 412.20312 426.75195 L 412.20312 410.58203 z M 647.74219 410.58203 L 647.74219 426.75 L 633.74023 418.66602 L 647.74219 410.58203 z M 707.62695 410.58203 L 721.63086 418.66602 L 707.62695 426.75 L 707.62695 410.58203 z M 29.820312 429.59375 L 53.96875 443.53516 L 40.025391 467.68164 L 15.878906 453.74219 L 29.820312 429.59375 z M 143.85547 429.59375 L 157.79688 453.74219 L 133.65039 467.68359 L 119.70703 443.53516 L 143.85547 429.59375 z M 325.24414 429.59375 L 349.39062 443.53516 L 335.44922 467.68164 L 311.30273 453.74219 L 325.24414 429.59375 z M 439.27734 429.59375 L 453.21875 453.74219 L 429.07227 467.68164 L 415.13086 443.53516 L 439.27734 429.59375 z M 620.66602 429.59375 L 644.81445 443.53516 L 630.87305 467.68164 L 606.72656 453.74219 L 620.66602 429.59375 z M 734.70117 429.59375 L 748.64258 453.74219 L 724.49609 467.68164 L 710.55469 443.53516 L 734.70117 429.59375 z M 916.08984 429.59375 L 940.23828 443.53516 L 926.29688 467.68164 L 902.15039 453.74219 L 916.08984 429.59375 z M 234.54883 434.66602 L 242.63281 448.66992 L 226.46484 448.66992 L 234.54883 434.66602 z M 529.97266 434.66602 L 538.05859 448.66992 L 521.88867 448.66992 L 529.97266 434.66602 z M 825.39648 434.66602 L 833.48047 448.66992 L 817.3125 448.66992 L 825.39648 434.66602 z M 78.751953 448.60742 L 94.923828 448.60742 L 86.837891 462.61133 L 78.751953 448.60742 z M 374.17578 448.60742 L 390.3457 448.60742 L 382.26172 462.61133 L 374.17578 448.60742 z M 669.59961 448.60742 L 685.76953 448.60742 L 677.68359 462.61133 L 669.59961 448.60742 z M 965.02344 448.60742 L 981.19336 448.60742 L 973.10742 462.61133 L 965.02344 448.60742 z M 108.7793 456.60547 L 116.86523 470.61133 L 100.69336 470.61133 L 108.7793 456.60547 z M 64.896484 456.60742 L 72.982422 470.61133 L 56.810547 470.61133 L 64.896484 456.60742 z M 360.32031 456.60742 L 368.4043 470.61133 L 352.23438 470.61133 L 360.32031 456.60742 z M 404.20312 456.60742 L 412.28711 470.61133 L 396.11719 470.61133 L 404.20312 456.60742 z M 655.74219 456.60742 L 663.82812 470.61133 L 647.6582 470.61133 L 655.74219 456.60742 z M 699.625 456.60742 L 707.71094 470.61133 L 691.54102 470.61133 L 699.625 456.60742 z M 951.16602 456.60742 L 959.25195 470.61133 L 943.08203 470.61133 L 951.16602 456.60742 z M 176.72461 464.66992 L 204.60742 464.66992 L 204.60742 492.55273 L 176.72461 492.55273 L 176.72461 464.66992 z M 220.60742 464.66992 L 248.49023 464.66992 L 248.49023 492.55273 L 220.60742 492.55273 L 220.60742 464.66992 z M 264.49023 464.66992 L 292.37305 464.66992 L 292.37305 492.55273 L 264.49023 492.55273 L 264.49023 464.66992 z M 472.14844 464.66992 L 500.03125 464.66992 L 500.03125 492.55273 L 472.14844 492.55273 L 472.14844 464.66992 z M 516.03125 464.66992 L 543.91406 464.66992 L 543.91406 492.55273 L 516.03125 492.55273 L 516.03125 464.66992 z M 559.91406 464.66992 L 587.79688 464.66992 L 587.79688 492.55273 L 559.91406 492.55273 L 559.91406 464.66992 z M 767.57031 464.66992 L 795.45508 464.66992 L 795.45508 492.55273 L 767.57031 492.55273 L 767.57031 464.66992 z M 811.45508 464.66992 L 839.33789 464.66992 L 839.33789 492.55273 L 811.45508 492.55273 L 811.45508 464.66992 z M 855.33789 464.66992 L 883.2207 464.66992 L 883.2207 492.55273 L 855.33789 492.55273 L 855.33789 464.66992 z M 308.37305 470.52539 L 322.37891 478.61133 L 308.37305 486.69727 L 308.37305 470.52539 z M 456.14844 470.52539 L 456.14844 486.69727 L 442.14453 478.61133 L 456.14844 470.52539 z M 603.79688 470.52539 L 617.80078 478.61133 L 603.79688 486.69727 L 603.79688 470.52539 z M 899.2207 470.52539 L 913.22461 478.61133 L 899.2207 486.69727 L 899.2207 470.52539 z M 160.72461 470.52734 L 160.72461 486.69531 L 146.72266 478.61133 L 160.72461 470.52734 z M 751.57031 470.52734 L 751.57031 486.69531 L 737.56641 478.61133 L 751.57031 470.52734 z M 56.810547 486.61133 L 72.982422 486.61133 L 64.896484 500.61523 L 56.810547 486.61133 z M 100.69336 486.61133 L 116.86523 486.61133 L 108.7793 500.61523 L 100.69336 486.61133 z M 352.23438 486.61133 L 368.4043 486.61133 L 360.31836 500.61523 L 352.23438 486.61133 z M 396.11719 486.61133 L 412.28711 486.61133 L 404.20312 500.61523 L 396.11719 486.61133 z M 647.6582 486.61133 L 663.82812 486.61133 L 655.74219 500.61523 L 647.6582 486.61133 z M 691.54102 486.61133 L 707.71094 486.61133 L 699.625 500.61523 L 691.54102 486.61133 z M 943.08203 486.61133 L 959.25195 486.61133 L 951.16602 500.61523 L 943.08203 486.61133 z M 40.025391 489.53906 L 53.96875 513.6875 L 29.820312 527.62891 L 15.878906 503.48047 L 40.025391 489.53906 z M 133.64844 489.53906 L 157.79688 503.48047 L 143.85352 527.62891 L 119.70703 513.6875 L 133.64844 489.53906 z M 335.44922 489.53906 L 349.39062 513.6875 L 325.24414 527.62891 L 311.30078 503.48242 L 335.44922 489.53906 z M 429.07227 489.53906 L 453.2207 503.48047 L 439.2793 527.62891 L 415.13086 513.6875 L 429.07227 489.53906 z M 630.87305 489.53906 L 644.81445 513.6875 L 620.66797 527.62891 L 606.72461 503.48047 L 630.87305 489.53906 z M 724.49609 489.53906 L 748.64258 503.48047 L 734.70117 527.62891 L 710.55469 513.6875 L 724.49609 489.53906 z M 926.29688 489.53906 L 940.23828 513.68555 L 916.08984 527.62891 L 902.14844 503.48242 L 926.29688 489.53906 z M 86.837891 494.61133 L 94.923828 508.61523 L 78.751953 508.61523 L 86.837891 494.61133 z M 382.26172 494.61133 L 390.3457 508.61523 L 374.17578 508.61523 L 382.26172 494.61133 z M 677.68359 494.61133 L 685.76953 508.61523 L 669.59961 508.61523 L 677.68359 494.61133 z M 973.10742 494.61133 L 981.19336 508.61523 L 965.02344 508.61523 L 973.10742 494.61133 z M 173.34375 508.55273 L 207.98828 508.55273 L 225.3125 538.55664 L 207.98828 568.56055 L 173.34375 568.56055 L 156.01953 538.55664 L 173.34375 508.55273 z M 226.46289 508.55273 L 242.63477 508.55273 L 234.54883 522.55664 L 226.46289 508.55273 z M 261.10938 508.55273 L 295.75391 508.55273 L 313.07812 538.55664 L 295.75391 568.56055 L 261.10938 568.56055 L 243.78516 538.55664 L 261.10938 508.55273 z M 468.76758 508.55273 L 503.41211 508.55273 L 520.73438 538.55664 L 503.41211 568.56055 L 468.76758 568.56055 L 451.44336 538.55664 L 468.76758 508.55273 z M 521.88672 508.55273 L 538.05859 508.55273 L 529.97266 522.55664 L 521.88672 508.55273 z M 556.5332 508.55273 L 591.17773 508.55273 L 608.50195 538.55664 L 591.17773 568.56055 L 556.5332 568.56055 L 539.21094 538.55664 L 556.5332 508.55273 z M 764.18945 508.55273 L 798.83594 508.55273 L 816.16016 538.55664 L 798.83594 568.56055 L 764.19141 568.56055 L 746.86719 538.55664 L 764.18945 508.55273 z M 817.31055 508.55273 L 833.48242 508.55273 L 825.39648 522.55664 L 817.31055 508.55273 z M 851.95703 508.55273 L 886.60156 508.55273 L 903.92383 538.55664 L 886.60156 568.56055 L 851.95703 568.56055 L 834.63281 538.55664 L 851.95703 508.55273 z M 72.896484 524.61523 L 100.7793 524.61523 L 100.7793 552.49805 L 72.896484 552.49805 L 72.896484 524.61523 z M 368.31836 524.61523 L 396.20312 524.61523 L 396.20312 552.49805 L 368.31836 552.49805 L 368.31836 524.61523 z M 663.74219 524.61523 L 691.62695 524.61523 L 691.62695 552.49805 L 663.74219 552.49805 L 663.74219 524.61523 z M 56.896484 530.4707 L 56.896484 546.64258 L 42.892578 538.55664 L 56.896484 530.4707 z M 116.7793 530.47266 L 130.78125 538.55664 L 116.7793 546.64062 L 116.7793 530.47266 z M 352.31836 530.47266 L 352.31836 546.64062 L 338.31641 538.55664 L 352.31836 530.47266 z M 412.20312 530.47266 L 426.20703 538.55664 L 412.20312 546.64062 L 412.20312 530.47266 z M 647.74219 530.47266 L 647.74219 546.64062 L 633.74023 538.55664 L 647.74219 530.47266 z M 707.62695 530.47266 L 721.62891 538.55664 L 707.62695 546.64062 L 707.62695 530.47266 z M 943.16602 530.47266 L 943.16602 546.64258 L 929.16211 538.55664 L 943.16602 530.47266 z M 29.820312 549.48633 L 53.966797 563.42578 L 40.025391 587.57422 L 15.878906 573.63281 L 29.820312 549.48633 z M 143.85352 549.48633 L 157.79688 573.63281 L 133.64844 587.57422 L 119.70703 563.42578 L 143.85352 549.48633 z M 325.24414 549.48633 L 349.39062 563.42578 L 335.44922 587.57422 L 311.30273 573.63281 L 325.24414 549.48633 z M 439.27734 549.48633 L 453.2207 573.63281 L 429.07227 587.57422 L 415.13086 563.42578 L 439.27734 549.48633 z M 620.66797 549.48633 L 644.81445 563.42578 L 630.87305 587.57422 L 606.72461 573.63281 L 620.66797 549.48633 z M 734.70117 549.48633 L 748.64258 573.63281 L 724.49609 587.57422 L 710.55469 563.42578 L 734.70117 549.48633 z M 916.08984 549.48633 L 940.23828 563.42578 L 926.29688 587.57422 L 902.14844 573.63281 L 916.08984 549.48633 z M 234.54883 554.55664 L 242.63477 568.56055 L 226.46484 568.56055 L 234.54883 554.55664 z M 529.97266 554.55664 L 538.05859 568.56055 L 521.88672 568.56055 L 529.97266 554.55664 z M 825.39648 554.55664 L 833.48242 568.56055 L 817.31055 568.56055 L 825.39648 554.55664 z M 69.515625 568.49805 L 104.16016 568.49805 L 121.48438 598.50195 L 104.16016 628.50586 L 69.515625 628.50586 L 52.191406 598.50195 L 69.515625 568.49805 z M 364.9375 568.49805 L 399.58398 568.49805 L 416.90625 598.50195 L 399.58398 628.50586 L 364.93945 628.50586 L 347.61523 598.50195 L 364.9375 568.49805 z M 660.36133 568.49805 L 695.00781 568.49805 L 712.33008 598.50195 L 695.00586 628.50586 L 660.36328 628.50586 L 643.03906 598.50195 L 660.36133 568.49805 z M 182.58008 584.56055 L 198.75195 584.56055 L 190.66602 598.56641 L 182.58008 584.56055 z M 217.22852 584.56055 L 251.87109 584.56055 L 269.19531 614.56445 L 251.87109 644.56836 L 217.22656 644.56836 L 199.9043 614.56445 L 217.22852 584.56055 z M 270.34766 584.56055 L 286.51758 584.56055 L 278.43164 598.56445 L 270.34766 584.56055 z M 478.00391 584.56055 L 494.17578 584.56055 L 486.08984 598.56641 L 478.00391 584.56055 z M 512.65039 584.56055 L 547.29492 584.56055 L 564.61914 614.56445 L 547.29492 644.56836 L 512.65039 644.56836 L 495.32812 614.56641 L 512.65039 584.56055 z M 565.76953 584.56055 L 581.94141 584.56055 L 573.85547 598.56445 L 565.76953 584.56055 z M 773.42773 584.56055 L 789.59961 584.56055 L 781.51367 598.56445 L 773.42773 584.56055 z M 808.07422 584.56055 L 842.71875 584.56055 L 860.04102 614.56641 L 842.71875 644.56836 L 808.07422 644.56836 L 790.75 614.56445 L 808.07422 584.56055 z M 861.19336 584.56055 L 877.36523 584.56055 L 869.2793 598.56641 L 861.19336 584.56055 z M 165.79688 587.48828 L 179.73828 611.63672 L 155.58984 625.57812 L 141.64844 601.43164 L 165.79688 587.48828 z M 303.30273 587.48828 L 327.44922 601.42969 L 313.50781 625.57812 L 289.35938 611.63672 L 303.30273 587.48828 z M 461.2207 587.48828 L 475.16211 611.63672 L 451.01367 625.57812 L 437.07227 601.42969 L 461.2207 587.48828 z M 598.72461 587.48828 L 622.87305 601.42969 L 608.93164 625.57812 L 584.78516 611.63672 L 598.72461 587.48828 z M 756.64258 587.48828 L 770.58398 611.63672 L 746.4375 625.57812 L 732.49609 601.42969 L 756.64258 587.48828 z M 894.14844 587.48828 L 918.29688 601.42969 L 904.35547 625.57812 L 880.20703 611.63672 L 894.14844 587.48828 z M 42.955078 614.50195 L 51.039062 628.50586 L 34.869141 628.50586 L 42.955078 614.50195 z M 130.7207 614.50195 L 138.80664 628.50586 L 122.63672 628.50586 L 130.7207 614.50195 z M 338.37695 614.50195 L 346.46289 628.50586 L 330.29297 628.50586 L 338.37695 614.50195 z M 426.14453 614.50195 L 434.22852 628.50586 L 418.05859 628.50586 L 426.14453 614.50195 z M 633.80078 614.50195 L 641.88672 628.50586 L 625.7168 628.50586 L 633.80078 614.50195 z M 721.56836 614.50195 L 729.65234 628.50586 L 713.48242 628.50586 L 721.56836 614.50195 z M 929.22461 614.50195 L 937.31055 628.50586 L 921.13867 628.50586 L 929.22461 614.50195 z M 187.73828 625.49219 L 201.67969 649.64062 L 177.5332 663.58203 L 163.58984 639.43359 L 187.73828 625.49219 z M 281.35938 625.49219 L 305.50781 639.43359 L 291.56641 663.58203 L 267.41797 649.63867 L 281.35938 625.49219 z M 483.16211 625.49414 L 497.10352 649.64062 L 472.95508 663.58203 L 459.01367 639.43555 L 483.16211 625.49414 z M 576.78516 625.49414 L 600.93164 639.43359 L 586.99023 663.58203 L 562.8418 649.64062 L 576.78516 625.49414 z M 778.58398 625.49414 L 792.52734 649.64062 L 768.37891 663.58203 L 754.4375 639.43359 L 778.58398 625.49414 z M 872.20703 625.49414 L 896.35547 639.43555 L 882.41406 663.58203 L 858.26562 649.63867 L 872.20703 625.49414 z M 78.751953 644.50586 L 94.923828 644.50586 L 86.837891 658.50977 L 78.751953 644.50586 z M 113.39844 644.50586 L 148.04297 644.50586 L 165.36719 674.50977 L 148.04492 704.51367 L 113.39844 704.51367 L 96.074219 674.50977 L 113.39844 644.50586 z M 321.05469 644.50586 L 355.69922 644.50586 L 373.02344 674.50977 L 355.69922 704.51367 L 321.05469 704.51367 L 303.73242 674.50977 L 321.05469 644.50586 z M 374.17578 644.50586 L 390.3457 644.50586 L 382.26172 658.50977 L 374.17578 644.50586 z M 408.82227 644.50586 L 443.4668 644.50586 L 460.78906 674.50977 L 443.4668 704.51367 L 408.82227 704.51367 L 391.49805 674.50977 L 408.82227 644.50586 z M 616.48047 644.50586 L 651.12305 644.50586 L 668.44727 674.50977 L 651.12305 704.51367 L 616.47656 704.51367 L 599.1543 674.51172 L 616.48047 644.50586 z M 669.59961 644.50586 L 685.76953 644.50586 L 677.68359 658.50977 L 669.59961 644.50586 z M 704.24414 644.50586 L 738.88867 644.50586 L 756.21289 674.51172 L 738.89062 704.51367 L 704.24414 704.51367 L 686.92188 674.50977 L 704.24414 644.50586 z M 911.90234 644.50586 L 946.54688 644.50586 L 963.87109 674.50977 L 946.54688 704.51367 L 911.90234 704.51367 L 894.58008 674.50977 L 911.90234 644.50586 z M 965.02344 644.50586 L 981.19336 644.50586 L 973.10742 658.50977 L 965.02344 644.50586 z M 220.60742 660.56836 L 248.49023 660.56836 L 248.49023 688.45117 L 220.60742 688.45117 L 220.60742 660.56836 z M 516.03125 660.56836 L 543.91406 660.56836 L 543.91406 688.45117 L 516.03125 688.45117 L 516.03125 660.56836 z M 811.45508 660.56836 L 839.33789 660.56836 L 839.33789 688.45117 L 811.45508 688.45117 L 811.45508 660.56836 z M 264.49023 666.42383 L 278.49414 674.50977 L 264.49023 682.5957 L 264.49023 666.42383 z M 500.03125 666.42383 L 500.03125 682.5957 L 486.02734 674.50977 L 500.03125 666.42383 z M 795.45508 666.42383 L 795.45508 682.5957 L 781.45117 674.50977 L 795.45508 666.42383 z M 855.33789 666.42383 L 869.3418 674.50977 L 855.33789 682.5957 L 855.33789 666.42383 z M 204.60742 666.42578 L 204.60742 682.59375 L 190.60547 674.50977 L 204.60742 666.42578 z M 559.91406 666.42578 L 573.91797 674.50977 L 559.91406 682.5957 L 559.91406 666.42578 z M 586.99023 685.4375 L 600.93164 709.58594 L 576.78516 723.52539 L 562.8418 699.38086 L 586.99023 685.4375 z M 177.5332 685.43945 L 201.67969 699.37891 L 187.73828 723.52734 L 163.58984 709.58594 L 177.5332 685.43945 z M 291.56641 685.43945 L 305.50781 709.58594 L 281.36133 723.52539 L 267.41797 699.38086 L 291.56641 685.43945 z M 472.95508 685.43945 L 497.10352 699.38086 L 483.16211 723.52734 L 459.01367 709.58594 L 472.95508 685.43945 z M 768.37891 685.43945 L 792.52734 699.38086 L 778.58398 723.52539 L 754.4375 709.58594 L 768.37891 685.43945 z M 882.41406 685.43945 L 896.35352 709.58594 L 872.20703 723.52539 L 858.26562 699.38086 L 882.41406 685.43945 z M 86.837891 690.50977 L 94.921875 704.51367 L 78.753906 704.51367 L 86.837891 690.50977 z M 382.26172 690.50977 L 390.3457 704.51367 L 374.17578 704.51367 L 382.26172 690.50977 z M 677.68359 690.50977 L 685.76953 704.51367 L 669.59961 704.51367 L 677.68359 690.50977 z M 973.10742 690.50977 L 981.19336 704.51367 L 965.02344 704.51367 L 973.10742 690.50977 z M 226.46484 704.45117 L 242.63477 704.45117 L 234.54883 718.45508 L 226.46484 704.45117 z M 521.88672 704.45117 L 538.05859 704.45117 L 529.97266 718.45508 L 521.88672 704.45117 z M 817.31055 704.45117 L 833.48242 704.45117 L 825.39648 718.45508 L 817.31055 704.45117 z M 212.60742 712.45117 L 220.69336 726.45508 L 204.52148 726.45508 L 212.60742 712.45117 z M 256.49023 712.45117 L 264.57617 726.45508 L 248.40625 726.45508 L 256.49023 712.45117 z M 508.03125 712.45117 L 516.11719 726.45508 L 499.94727 726.45508 L 508.03125 712.45117 z M 551.91406 712.45117 L 560 726.45508 L 543.82812 726.45508 L 551.91406 712.45117 z M 803.45508 712.45117 L 811.54102 726.45508 L 795.36914 726.45508 L 803.45508 712.45117 z M 847.33789 712.45117 L 855.42383 726.45508 L 839.25195 726.45508 L 847.33789 712.45117 z M 72.896484 720.51367 L 100.7793 720.51367 L 100.7793 748.39648 L 72.896484 748.39648 L 72.896484 720.51367 z M 116.7793 720.51367 L 144.66211 720.51367 L 144.66211 748.39648 L 116.7793 748.39648 L 116.7793 720.51367 z M 324.43555 720.51367 L 352.31836 720.51367 L 352.31836 748.39648 L 324.43555 748.39648 L 324.43555 720.51367 z M 368.31836 720.51367 L 396.20312 720.51367 L 396.20312 748.39648 L 368.31836 748.39648 L 368.31836 720.51367 z M 412.20312 720.51367 L 440.08594 720.51367 L 440.08594 748.39648 L 412.20312 748.39648 L 412.20312 720.51367 z M 619.85938 720.51367 L 647.74219 720.51367 L 647.74219 748.39648 L 619.85938 748.39648 L 619.85938 720.51367 z M 663.74219 720.51367 L 691.62695 720.51367 L 691.62695 748.39648 L 663.74219 748.39648 L 663.74219 720.51367 z M 707.62695 720.51367 L 735.50977 720.51367 L 735.50977 748.39648 L 707.62695 748.39648 L 707.62695 720.51367 z M 915.2832 720.51367 L 943.16602 720.51367 L 943.16602 748.39648 L 915.2832 748.39648 L 915.2832 720.51367 z M 160.66211 726.36914 L 174.66602 734.45508 L 160.66211 742.53906 L 160.66211 726.36914 z M 456.08594 726.36914 L 470.08984 734.45508 L 456.08594 742.53906 L 456.08594 726.36914 z M 899.2832 726.36914 L 899.2832 742.54102 L 885.27734 734.45508 L 899.2832 726.36914 z M 308.43555 726.37109 L 308.43555 742.53906 L 294.43359 734.45508 L 308.43555 726.37109 z M 603.85938 726.37109 L 603.85938 742.53906 L 589.85742 734.45508 L 603.85938 726.37109 z M 751.50977 726.37109 L 765.51172 734.45508 L 751.50977 742.53906 L 751.50977 726.37109 z M 204.52344 742.45508 L 220.69336 742.45508 L 212.60742 756.45898 L 204.52344 742.45508 z M 248.40625 742.45508 L 264.57617 742.45508 L 256.49023 756.45898 L 248.40625 742.45508 z M 499.94531 742.45508 L 516.11719 742.45508 L 508.03125 756.45898 L 499.94531 742.45508 z M 543.82812 742.45508 L 560 742.45508 L 551.91406 756.45898 L 543.82812 742.45508 z M 795.36914 742.45508 L 811.54102 742.45508 L 803.45508 756.45898 L 795.36914 742.45508 z M 839.25195 742.45508 L 855.42188 742.45508 L 847.33789 756.45898 L 839.25195 742.45508 z M 187.73828 745.38281 L 201.67969 769.53125 L 177.5332 783.47266 L 163.58984 759.32422 L 187.73828 745.38281 z M 281.36133 745.38281 L 305.50781 759.32422 L 291.56641 783.47266 L 267.41992 769.53125 L 281.36133 745.38281 z M 483.16211 745.38281 L 497.10352 769.53125 L 472.95508 783.47266 L 459.01367 759.32617 L 483.16211 745.38281 z M 576.78516 745.38281 L 600.93164 759.32422 L 586.99023 783.47461 L 562.8418 769.53125 L 576.78516 745.38281 z M 778.58398 745.38281 L 792.52539 769.53125 L 768.37891 783.47266 L 754.4375 759.32422 L 778.58398 745.38281 z M 872.20703 745.38281 L 896.35547 759.32617 L 882.41406 783.47266 L 858.26562 769.5293 L 872.20703 745.38281 z M 234.54883 750.45508 L 242.63477 764.45898 L 226.46484 764.45898 L 234.54883 750.45508 z M 529.97266 750.45508 L 538.05664 764.45898 L 521.88867 764.45898 L 529.97266 750.45508 z M 825.39648 750.45508 L 833.48047 764.45898 L 817.31055 764.45898 L 825.39648 750.45508 z M 78.751953 764.39648 L 94.923828 764.39648 L 86.837891 778.40039 L 78.751953 764.39648 z M 113.39844 764.39648 L 148.04297 764.39648 L 165.36719 794.40039 L 148.04297 824.4043 L 113.39844 824.4043 L 96.074219 794.40039 L 113.39844 764.39648 z M 321.05469 764.39648 L 355.69922 764.39648 L 373.02344 794.40039 L 355.69922 824.4043 L 321.05469 824.4043 L 303.73242 794.40039 L 321.05469 764.39648 z M 374.17383 764.39648 L 390.34766 764.39648 L 382.26172 778.40039 L 374.17383 764.39648 z M 408.82227 764.39648 L 443.4668 764.39648 L 460.78906 794.40039 L 443.4668 824.4043 L 408.82227 824.4043 L 391.49805 794.40039 L 408.82227 764.39648 z M 616.47852 764.39648 L 651.12305 764.39648 L 668.44727 794.40039 L 651.12305 824.4043 L 616.47852 824.4043 L 599.1543 794.40039 L 616.47852 764.39648 z M 669.59766 764.39648 L 685.77148 764.39648 L 677.68359 778.40234 L 669.59766 764.39648 z M 704.24609 764.39648 L 738.89062 764.39648 L 756.21289 794.40039 L 738.88867 824.4043 L 704.24414 824.4043 L 686.92188 794.40039 L 704.24609 764.39648 z M 911.90234 764.39648 L 946.54688 764.39648 L 963.87109 794.40039 L 946.54688 824.4043 L 911.90234 824.4043 L 894.58008 794.40039 L 911.90234 764.39648 z M 965.02148 764.39648 L 981.19336 764.39648 L 973.10742 778.40039 L 965.02148 764.39648 z M 220.60742 780.45898 L 248.49023 780.45898 L 248.49023 808.3418 L 220.60742 808.3418 L 220.60742 780.45898 z M 516.03125 780.45898 L 543.91406 780.45898 L 543.91406 808.3418 L 516.03125 808.3418 L 516.03125 780.45898 z M 811.45508 780.45898 L 839.33789 780.45898 L 839.33789 808.3418 L 811.45508 808.3418 L 811.45508 780.45898 z M 264.49023 786.31445 L 278.49414 794.40039 L 264.49023 802.48633 L 264.49023 786.31445 z M 500.03125 786.31445 L 500.03125 802.48633 L 486.02734 794.40039 L 500.03125 786.31445 z M 559.91406 786.31445 L 573.91797 794.40039 L 559.91406 802.48633 L 559.91406 786.31445 z M 795.45508 786.31445 L 795.45508 802.48633 L 781.45117 794.40039 L 795.45508 786.31445 z M 855.33789 786.31445 L 869.3418 794.40039 L 855.33789 802.48633 L 855.33789 786.31445 z M 204.60742 786.31641 L 204.60742 802.48438 L 190.60547 794.40039 L 204.60742 786.31641 z M 586.99023 805.32812 L 600.93164 829.47656 L 576.7832 843.41797 L 562.8418 819.26953 L 586.99023 805.32812 z M 177.5332 805.33008 L 201.67969 819.26953 L 187.73828 843.41797 L 163.58984 829.47656 L 177.5332 805.33008 z M 291.56641 805.33008 L 305.50781 829.47656 L 281.35938 843.41797 L 267.41797 819.27148 L 291.56641 805.33008 z M 472.95508 805.33008 L 497.10352 819.27148 L 483.16211 843.41797 L 459.01367 829.47656 L 472.95508 805.33008 z M 768.37891 805.33008 L 792.52734 819.27148 L 778.58398 843.41797 L 754.4375 829.47656 L 768.37891 805.33008 z M 882.41406 805.33008 L 896.35547 829.47656 L 872.20703 843.41797 L 858.26562 819.27148 L 882.41406 805.33008 z M 86.837891 810.40039 L 94.923828 824.4043 L 78.751953 824.4043 L 86.837891 810.40039 z M 382.26172 810.40039 L 390.3457 824.4043 L 374.17578 824.4043 L 382.26172 810.40039 z M 677.68359 810.40039 L 685.76953 824.4043 L 669.59961 824.4043 L 677.68359 810.40039 z M 973.10742 810.40039 L 981.19336 824.4043 L 965.02344 824.4043 L 973.10742 810.40039 z M 217.22656 824.3418 L 251.87109 824.3418 L 269.19531 854.3457 L 251.87109 884.34961 L 217.22656 884.34961 L 199.90234 854.3457 L 217.22656 824.3418 z M 512.65039 824.3418 L 547.29492 824.3418 L 564.61914 854.3457 L 547.29492 884.34961 L 512.65039 884.34961 L 495.32812 854.3457 L 512.65039 824.3418 z M 808.07422 824.3418 L 842.71875 824.3418 L 860.04102 854.3457 L 842.71875 884.34961 L 808.07422 884.34961 L 790.75 854.3457 L 808.07422 824.3418 z M 34.869141 840.4043 L 51.041016 840.4043 L 42.955078 854.4082 L 34.869141 840.4043 z M 69.515625 840.4043 L 104.16016 840.4043 L 121.48438 870.4082 L 104.16016 900.41211 L 69.515625 900.41211 L 52.191406 870.4082 L 69.515625 840.4043 z M 122.63477 840.4043 L 138.80664 840.4043 L 130.7207 854.4082 L 122.63477 840.4043 z M 330.29297 840.4043 L 346.46289 840.4043 L 338.37891 854.4082 L 330.29297 840.4043 z M 364.93945 840.4043 L 399.58398 840.4043 L 416.90625 870.4082 L 399.58398 900.41211 L 364.9375 900.41211 L 347.61523 870.4082 L 364.93945 840.4043 z M 418.05859 840.4043 L 434.22852 840.4043 L 426.14258 854.4082 L 418.05859 840.4043 z M 625.7168 840.4043 L 641.88672 840.4043 L 633.80078 854.4082 L 625.7168 840.4043 z M 660.36328 840.4043 L 695.00586 840.4043 L 712.33008 870.41016 L 695.00781 900.41211 L 660.36133 900.41211 L 643.03906 870.41016 L 660.36328 840.4043 z M 713.48242 840.4043 L 729.65234 840.4043 L 721.56836 854.4082 L 713.48242 840.4043 z M 921.13867 840.4043 L 937.31055 840.4043 L 929.22461 854.41016 L 921.13867 840.4043 z M 155.58984 843.33203 L 179.73828 857.27539 L 165.79688 881.42188 L 141.64844 867.48047 L 155.58984 843.33203 z M 313.50781 843.33203 L 327.44922 867.48047 L 303.30273 881.42188 L 289.36133 857.27539 L 313.50781 843.33203 z M 451.01367 843.33203 L 475.16211 857.27344 L 461.2207 881.42188 L 437.07227 867.48047 L 451.01367 843.33203 z M 608.93164 843.33203 L 622.87305 867.48047 L 598.72461 881.42188 L 584.78516 857.27539 L 608.93164 843.33203 z M 746.4375 843.33203 L 770.58398 857.27344 L 756.64258 881.42188 L 732.49609 867.48047 L 746.4375 843.33203 z M 904.35547 843.33203 L 918.29688 867.48047 L 894.14844 881.42188 L 880.20703 857.27344 L 904.35547 843.33203 z M 190.66602 870.3457 L 198.75195 884.34961 L 182.58008 884.34961 L 190.66602 870.3457 z M 486.08984 870.3457 L 494.17578 884.34961 L 478.00391 884.34961 L 486.08984 870.3457 z M 573.85547 870.3457 L 581.94141 884.34961 L 565.77148 884.34961 L 573.85547 870.3457 z M 781.51367 870.3457 L 789.59766 884.34961 L 773.42773 884.34961 L 781.51367 870.3457 z M 869.2793 870.3457 L 877.36523 884.34961 L 861.19336 884.34961 L 869.2793 870.3457 z M 278.43359 870.34766 L 286.51758 884.34961 L 270.34766 884.34961 L 278.43359 870.34766 z M 133.64844 881.33594 L 157.79688 895.27734 L 143.85352 919.42578 L 119.70703 905.48438 L 133.64844 881.33594 z M 40.025391 881.33789 L 53.966797 905.48438 L 29.820312 919.42578 L 15.878906 895.27734 L 40.025391 881.33789 z M 335.44922 881.33789 L 349.39062 905.48438 L 325.24414 919.42578 L 311.30273 895.27734 L 335.44922 881.33789 z M 429.07227 881.33789 L 453.2207 895.2793 L 439.27734 919.42578 L 415.13086 905.48438 L 429.07227 881.33789 z M 630.87305 881.33789 L 644.81445 905.48438 L 620.66797 919.42578 L 606.72461 895.2793 L 630.87305 881.33789 z M 724.49609 881.33789 L 748.64258 895.27734 L 734.70117 919.42578 L 710.55469 905.48438 L 724.49609 881.33789 z M 926.29688 881.33789 L 940.23828 905.48438 L 916.08984 919.42578 L 902.14844 895.2793 L 926.29688 881.33789 z M 173.34375 900.34961 L 207.98828 900.34961 L 225.3125 930.35352 L 207.98828 960.35742 L 173.34375 960.35742 L 156.01953 930.35352 L 173.34375 900.34961 z M 226.46484 900.34961 L 242.63477 900.34961 L 234.54883 914.35352 L 226.46484 900.34961 z M 261.10938 900.34961 L 295.75391 900.34961 L 313.07812 930.35547 L 295.75586 960.35742 L 261.10938 960.35742 L 243.78711 930.35352 L 261.10938 900.34961 z M 468.76758 900.34961 L 503.41211 900.34961 L 520.73633 930.35352 L 503.41211 960.35742 L 468.76758 960.35742 L 451.44336 930.35352 L 468.76758 900.34961 z M 521.88672 900.34961 L 538.05859 900.34961 L 529.97266 914.35352 L 521.88672 900.34961 z M 556.5332 900.34961 L 591.17773 900.34961 L 608.50195 930.35352 L 591.17773 960.35742 L 556.5332 960.35742 L 539.20898 930.35352 L 556.5332 900.34961 z M 764.19141 900.34961 L 798.83594 900.34961 L 816.16016 930.35352 L 798.83594 960.35742 L 764.18945 960.35742 L 746.86719 930.35547 L 764.19141 900.34961 z M 817.31055 900.34961 L 833.48242 900.34961 L 825.39648 914.35352 L 817.31055 900.34961 z M 851.95703 900.34961 L 886.60156 900.34961 L 903.92383 930.35352 L 886.60156 960.35742 L 851.95703 960.35742 L 834.63281 930.35352 L 851.95703 900.34961 z M 72.896484 916.41211 L 100.7793 916.41211 L 100.7793 944.29688 L 72.896484 944.29688 L 72.896484 916.41211 z M 368.31836 916.41211 L 396.20312 916.41211 L 396.20312 944.29688 L 368.31836 944.29688 L 368.31836 916.41211 z M 663.74219 916.41211 L 691.62695 916.41211 L 691.62695 944.29688 L 663.74219 944.29688 L 663.74219 916.41211 z M 56.896484 922.26758 L 56.896484 938.44141 L 42.892578 930.35547 L 56.896484 922.26758 z M 116.7793 922.26953 L 130.7832 930.35547 L 116.7793 938.43945 L 116.7793 922.26953 z M 352.31836 922.26953 L 352.31836 938.43945 L 338.31445 930.35547 L 352.31836 922.26953 z M 412.20312 922.26953 L 426.20703 930.35547 L 412.20312 938.43945 L 412.20312 922.26953 z M 647.74219 922.26953 L 647.74219 938.43945 L 633.73828 930.35547 L 647.74219 922.26953 z M 707.62695 922.26953 L 721.63086 930.35547 L 707.62695 938.43945 L 707.62695 922.26953 z M 943.16602 922.26953 L 943.16602 938.43945 L 929.16211 930.35547 L 943.16602 922.26953 z M 143.85352 941.2832 L 157.79688 965.42969 L 133.64844 979.37109 L 119.70703 955.22461 L 143.85352 941.2832 z M 325.24414 941.2832 L 349.39062 955.22461 L 335.44922 979.37109 L 311.30273 965.42969 L 325.24414 941.2832 z M 439.27734 941.2832 L 453.2207 965.42969 L 429.07227 979.37109 L 415.13086 955.22461 L 439.27734 941.2832 z M 620.66797 941.2832 L 644.81445 955.22461 L 630.87305 979.37109 L 606.72461 965.42969 L 620.66797 941.2832 z M 734.70117 941.2832 L 748.64258 965.42969 L 724.49609 979.37109 L 710.55469 955.22461 L 734.70117 941.2832 z M 916.08984 941.2832 L 940.23828 955.22461 L 926.29688 979.37109 L 902.14844 965.42969 L 916.08984 941.2832 z M 234.54883 946.35352 L 242.63477 960.35742 L 226.46289 960.35742 L 234.54883 946.35352 z M 529.97266 946.35352 L 538.05859 960.35742 L 521.88672 960.35742 L 529.97266 946.35352 z M 825.39648 946.35352 L 833.48242 960.35742 L 817.31055 960.35742 L 825.39648 946.35352 z M 78.753906 960.29688 L 94.921875 960.29688 L 86.837891 974.30078 L 78.753906 960.29688 z M 374.17578 960.29688 L 390.3457 960.29688 L 382.26172 974.30078 L 374.17578 960.29688 z M 669.59961 960.29688 L 685.76953 960.29688 L 677.68359 974.30078 L 669.59961 960.29688 z "
       id="path235" />
  </g>
</svg>
